<?xml version="1.0" encoding="UTF-8"?> <svg xmlns="http://www.w3.org/2000/svg" width="431" height="414" viewBox="0 0 431 414" fill="none"><g clip-path="url(#clip0_264_9182)"><path d="M397.38 412.047H399.636V93.2398C399.635 68.7704 389.915 45.3033 372.612 28.0009C355.31 10.6985 331.842 0.977989 307.373 0.977783C283.366 0.977783 263.835 20.5095 263.835 44.517H266.091C266.091 21.7532 284.611 3.23237 307.375 3.23237C357.006 3.23237 397.383 43.6105 397.383 93.2395L397.38 412.047Z" fill="#141426"></path><path d="M430.528 412.047H366.488C366.488 410.614 367.057 409.24 368.07 408.227C369.083 407.214 370.458 406.645 371.89 406.645H425.126C426.558 406.645 427.932 407.214 428.946 408.227C429.959 409.24 430.528 410.614 430.528 412.047Z" fill="#141426"></path><path d="M255.133 67.8799C255.133 65.9362 255.709 64.0362 256.789 62.4201C257.869 60.804 259.404 59.5444 261.2 58.8006C262.995 58.0568 264.971 57.8623 266.878 58.2415C268.784 58.6207 270.535 59.5567 271.909 60.9311C273.284 62.3055 274.22 64.0566 274.599 65.963C274.978 67.8693 274.783 69.8453 274.04 71.641C273.296 73.4367 272.036 74.9716 270.42 76.0514C268.804 77.1313 266.904 77.7076 264.96 77.7076C262.355 77.7047 259.857 76.6683 258.014 74.8259C256.172 72.9834 255.136 70.4854 255.133 67.8799Z" fill="#FECB8A"></path><path d="M296.632 67.8799C296.632 59.7365 293.397 51.9267 287.639 46.1685C281.881 40.4103 274.071 37.1754 265.928 37.1754C257.784 37.1754 249.975 40.4103 244.216 46.1685C238.458 51.9267 235.223 59.7365 235.223 67.8799H296.632Z" fill="#4A4B5F"></path><path d="M296.632 67.8799C296.632 59.7366 293.397 51.9269 287.639 46.1688C281.881 40.4106 274.071 37.1757 265.928 37.1757C265.322 37.1757 264.721 37.1929 264.124 37.2275C244.422 38.3689 245.498 67.8793 265.233 67.8793L296.632 67.8799Z" fill="#141426"></path><path d="M371.352 258.696H16.1461V413.694H371.352V258.696Z" fill="#8421EC"></path><path d="M172.802 262.982H371.351V413.694H22.0904C22.0904 373.723 37.9688 335.389 66.2327 307.125C94.4965 278.861 132.831 262.982 172.802 262.982Z" fill="#6B11C9"></path><path d="M387.498 248.47C387.497 251.182 386.42 253.783 384.502 255.7C382.585 257.618 379.984 258.695 377.272 258.696H10.2253C7.5134 258.696 4.91254 257.618 2.99493 255.701C1.07731 253.783 0 251.182 0 248.47C0 245.759 1.07731 243.158 2.99493 241.24C4.91254 239.322 7.5134 238.245 10.2253 238.245H377.272C378.615 238.245 379.945 238.51 381.186 239.023C382.426 239.537 383.553 240.29 384.503 241.24C385.452 242.19 386.206 243.317 386.719 244.557C387.233 245.798 387.498 247.128 387.498 248.47Z" fill="#292969"></path><path d="M387.498 248.47C387.499 249.274 387.405 250.075 387.218 250.856H47.2209C45.6756 250.854 44.1506 250.503 42.7605 249.828C41.3703 249.153 40.151 248.172 39.194 246.959C38.2371 245.746 37.5673 244.331 37.235 242.822C36.9027 241.313 36.9165 239.748 37.2753 238.245H377.272C378.615 238.245 379.945 238.51 381.186 239.023C382.426 239.537 383.553 240.29 384.503 241.24C385.452 242.19 386.206 243.317 386.72 244.557C387.233 245.798 387.498 247.128 387.498 248.47Z" fill="#38387C"></path><path d="M143.738 300.35V344.254C143.738 345.567 143.918 346.467 144.278 346.954C144.638 347.441 145.305 347.685 146.28 347.685H148.948C150.938 347.643 151.976 348.85 152.061 351.306V364.205C152.061 366.45 150.917 367.721 148.63 368.017C147.147 368.187 146.215 368.462 145.834 368.843C145.454 369.223 145.263 370.134 145.262 371.575V379.072C145.431 381.741 144.203 383.139 141.577 383.266H119.847C118.322 383.266 117.327 383.001 116.861 382.471C116.395 381.942 116.162 380.809 116.162 379.072V372.528C116.162 370.749 115.823 369.51 115.145 368.811C114.467 368.111 113.281 367.762 111.587 367.763H86.8088C83.8436 367.763 81.7575 367.138 80.5506 365.888C79.3436 364.638 78.74 362.489 78.7396 359.439C78.7396 355.373 79.2267 352.196 80.2009 349.908C81.3863 347.07 84.7964 342.284 90.4314 335.549L106.57 316.17C114.66 306.47 120.632 300.286 124.487 297.617C126.436 296.332 128.568 295.347 130.809 294.694C133.058 293.969 135.403 293.583 137.766 293.55C139.884 293.55 141.409 294.08 142.341 295.139C143.273 296.198 143.739 297.935 143.738 300.35ZM117.053 333.327V330.213C117.053 326.401 115.994 324.495 113.876 324.495C112.266 324.495 110.762 325.363 109.365 327.1L99.5801 339.108C96.7418 342.625 95.3228 345.145 95.3231 346.669C95.3231 347.771 95.9162 348.481 97.1022 348.798C98.2883 349.115 101.232 349.337 105.934 349.465L110.954 349.528C113.114 349.528 114.575 349.285 115.338 348.798C116.1 348.311 116.545 347.347 116.672 345.907C116.926 343.577 117.053 339.384 117.053 333.327Z" fill="#292969"></path><path d="M193.043 297.935C198.846 297.935 204.437 299.354 209.817 302.192C217.102 306.005 222.545 311.68 226.146 319.22C228.809 324.703 230.179 330.724 230.149 336.82C230.149 348.172 225.807 357.47 217.124 364.713C210.473 370.22 202.891 372.973 194.377 372.973C184.974 372.973 176.968 369.902 170.36 363.76C162.524 356.516 158.606 346.838 158.606 334.723C158.606 322.906 162.185 313.629 169.344 306.894C175.655 300.922 183.555 297.935 193.043 297.935ZM191.582 316.869C187.643 316.869 185.673 320.216 185.673 326.908C185.673 335.676 187.346 343.555 190.692 350.544C192.004 353.255 193.762 354.61 195.966 354.61C199.82 354.61 201.747 351.2 201.748 344.38C201.718 340.273 201.304 336.178 200.509 332.149C199.683 327.808 198.634 324.281 197.364 321.57C195.966 318.564 194.039 316.997 191.582 316.869Z" fill="#292969"></path><path d="M298.769 300.35V344.254C298.769 345.567 298.949 346.467 299.309 346.954C299.669 347.441 300.336 347.685 301.31 347.685H303.98C305.97 347.643 307.008 348.85 307.093 351.306V364.205C307.093 366.45 305.95 367.721 303.662 368.017C302.179 368.187 301.248 368.462 300.867 368.843C300.486 369.223 300.295 370.134 300.295 371.575V379.072C300.464 381.741 299.235 383.139 296.61 383.266H274.88C273.355 383.266 272.36 383.001 271.894 382.471C271.427 381.942 271.194 380.809 271.194 379.072V372.528C271.194 370.749 270.855 369.51 270.178 368.811C269.5 368.111 268.314 367.762 266.62 367.763H241.84C238.875 367.763 236.788 367.138 235.582 365.888C234.375 364.638 233.771 362.489 233.771 359.439C233.771 355.373 234.258 352.196 235.232 349.908C236.418 347.07 239.828 342.284 245.463 335.549L261.601 316.17C269.691 306.47 275.664 300.286 279.519 297.617C281.468 296.332 283.599 295.347 285.841 294.694C288.09 293.969 290.435 293.583 292.798 293.55C294.916 293.55 296.44 294.08 297.372 295.139C298.304 296.198 298.77 297.935 298.769 300.35ZM272.083 333.327V330.213C272.083 326.401 271.024 324.495 268.906 324.495C267.296 324.495 265.792 325.363 264.395 327.1L254.611 339.108C251.772 342.625 250.353 345.145 250.354 346.669C250.354 347.771 250.947 348.481 252.133 348.798C253.319 349.115 256.263 349.337 260.965 349.465L265.984 349.528C268.144 349.528 269.605 349.285 270.368 348.798C271.131 348.311 271.575 347.347 271.702 345.907C271.956 343.577 272.083 339.384 272.083 333.327Z" fill="#292969"></path><path d="M143.738 295.688V339.592C143.738 340.905 143.918 341.805 144.278 342.292C144.638 342.779 145.305 343.023 146.28 343.023H148.948C150.938 342.981 151.976 344.188 152.061 346.644V359.543C152.061 361.788 150.917 363.059 148.63 363.355C147.147 363.525 146.215 363.8 145.834 364.181C145.454 364.561 145.263 365.472 145.262 366.913V374.41C145.431 377.079 144.203 378.477 141.577 378.604H119.847C118.322 378.604 117.327 378.339 116.861 377.809C116.395 377.28 116.162 376.147 116.162 374.41V367.866C116.162 366.087 115.823 364.848 115.145 364.149C114.467 363.449 113.281 363.1 111.587 363.101H86.8088C83.8436 363.101 81.7575 362.476 80.5506 361.226C79.3436 359.976 78.74 357.827 78.7396 354.777C78.7396 350.711 79.2267 347.534 80.2009 345.246C81.3863 342.408 84.7964 337.622 90.4314 330.887L106.57 311.508C114.66 301.808 120.632 295.624 124.487 292.955C126.436 291.67 128.568 290.685 130.809 290.032C133.058 289.307 135.403 288.921 137.766 288.888C139.884 288.888 141.409 289.418 142.341 290.477C143.273 291.536 143.739 293.273 143.738 295.688ZM117.053 328.665V325.551C117.053 321.739 115.994 319.833 113.876 319.833C112.266 319.833 110.762 320.701 109.365 322.438L99.5801 334.446C96.7418 337.963 95.3228 340.483 95.3231 342.007C95.3231 343.109 95.9162 343.819 97.1022 344.136C98.2883 344.453 101.232 344.675 105.934 344.803L110.954 344.866C113.114 344.866 114.575 344.623 115.338 344.136C116.1 343.649 116.545 342.685 116.672 341.245C116.926 338.915 117.053 334.722 117.053 328.665Z" fill="#F9F4FE"></path><path d="M193.043 293.273C198.846 293.273 204.437 294.692 209.817 297.53C217.102 301.343 222.545 307.019 226.146 314.558C228.809 320.041 230.179 326.062 230.149 332.158C230.149 343.51 225.807 352.808 217.124 360.051C210.473 365.558 202.891 368.311 194.377 368.311C184.974 368.311 176.968 365.24 170.36 359.098C162.524 351.854 158.606 342.176 158.606 330.061C158.606 318.244 162.185 308.967 169.344 302.232C175.655 296.26 183.555 293.273 193.043 293.273ZM191.582 312.208C187.643 312.208 185.673 315.554 185.673 322.246C185.673 331.014 187.346 338.893 190.692 345.882C192.004 348.593 193.762 349.948 195.966 349.948C199.82 349.948 201.747 346.538 201.748 339.718C201.718 335.611 201.304 331.516 200.509 327.487C199.683 323.146 198.634 319.619 197.364 316.908C195.966 313.902 194.039 312.335 191.582 312.208Z" fill="#F9F4FE"></path><path d="M298.769 295.688V339.592C298.769 340.905 298.949 341.805 299.309 342.292C299.669 342.779 300.336 343.023 301.31 343.023H303.98C305.97 342.981 307.008 344.188 307.093 346.644V359.543C307.093 361.788 305.95 363.059 303.662 363.355C302.179 363.525 301.248 363.8 300.867 364.181C300.486 364.561 300.295 365.472 300.295 366.913V374.41C300.464 377.079 299.235 378.477 296.61 378.604H274.88C273.355 378.604 272.36 378.339 271.894 377.809C271.427 377.28 271.194 376.147 271.194 374.41V367.866C271.194 366.087 270.855 364.848 270.178 364.149C269.5 363.449 268.314 363.1 266.62 363.101H241.84C238.875 363.101 236.788 362.476 235.582 361.226C234.375 359.976 233.771 357.827 233.771 354.777C233.771 350.711 234.258 347.534 235.232 345.246C236.418 342.408 239.828 337.622 245.463 330.887L261.601 311.508C269.691 301.808 275.664 295.624 279.519 292.955C281.468 291.67 283.599 290.685 285.841 290.032C288.09 289.307 290.435 288.921 292.798 288.888C294.916 288.888 296.44 289.418 297.372 290.477C298.304 291.536 298.77 293.273 298.769 295.688ZM272.083 328.665V325.551C272.083 321.739 271.024 319.833 268.906 319.833C267.296 319.833 265.792 320.701 264.395 322.438L254.611 334.446C251.772 337.963 250.353 340.483 250.354 342.007C250.354 343.109 250.947 343.819 252.133 344.136C253.319 344.453 256.263 344.675 260.965 344.803L265.984 344.866C268.144 344.866 269.605 344.623 270.368 344.136C271.131 343.649 271.575 342.685 271.702 341.245C271.956 338.915 272.083 334.722 272.083 328.665Z" fill="#F9F4FE"></path><path d="M196.077 202.806C195.779 202.75 195.482 202.688 195.195 202.613C193.514 202.201 191.935 201.45 190.554 200.408C189.172 199.365 188.017 198.052 187.16 196.549C185.837 194.262 185.243 191.625 185.457 188.992L186.7 173.344H209.358L209.563 175.127L211.123 188.482C212.13 197.076 204.579 204.422 196.077 202.806Z" fill="#F3CDC1"></path><path d="M209.563 175.127V175.133C209.563 175.133 200.403 189.115 188.552 179.93C188.552 179.93 186.7 187.071 187.16 196.548C185.837 194.261 185.243 191.625 185.457 188.991L186.7 173.343H209.358L209.563 175.127Z" fill="#F1AC89"></path><path d="M178.189 147.911C179.412 159.931 183.565 178.263 197.454 180.486C198.624 180.67 199.819 180.621 200.97 180.34C205.84 179.158 217.59 173.521 218.826 146.618C219.026 142.603 218.171 138.606 216.348 135.023C214.524 131.44 211.795 128.397 208.431 126.196C203.26 122.823 196.454 121.187 188.689 126.192C185.102 128.487 182.221 131.732 180.367 135.566C178.513 139.4 177.759 143.674 178.189 147.911Z" fill="#F3CDC1"></path><path d="M184.655 155.875C184.742 155.807 184.843 155.756 184.95 155.724C185.063 155.699 185.182 155.701 185.295 155.73C185.488 155.801 185.691 155.843 185.897 155.855C185.992 155.853 186.087 155.839 186.179 155.812C186.224 155.796 186.274 155.782 186.314 155.765C186.35 155.747 186.383 155.726 186.415 155.702C186.564 155.566 186.702 155.417 186.827 155.258C186.975 155.068 187.158 154.907 187.366 154.784C187.493 154.713 187.635 154.675 187.78 154.671C187.92 154.675 188.058 154.706 188.187 154.762C188.39 154.859 188.586 154.969 188.776 155.09C188.923 155.189 189.09 155.255 189.265 155.284C189.436 155.279 189.602 155.233 189.751 155.149C189.954 155.046 190.164 154.958 190.381 154.888C190.51 154.849 190.646 154.834 190.781 154.842C190.932 154.853 191.076 154.905 191.198 154.993C191.385 155.146 191.542 155.332 191.661 155.542C191.765 155.715 191.885 155.877 192.02 156.026C192.08 156.088 192.151 156.138 192.229 156.172C192.319 156.203 192.413 156.221 192.507 156.227C192.711 156.248 192.93 156.238 193.151 156.257C193.375 156.262 193.592 156.339 193.768 156.477C193.575 156.391 193.36 156.365 193.151 156.401C192.941 156.424 192.732 156.464 192.504 156.481C192.383 156.49 192.262 156.482 192.143 156.457C192.018 156.423 191.9 156.364 191.798 156.283C191.623 156.134 191.466 155.964 191.332 155.778C191.221 155.623 191.09 155.484 190.94 155.367C190.876 155.333 190.804 155.314 190.731 155.312C190.658 155.311 190.585 155.326 190.519 155.358C190.329 155.43 190.144 155.513 189.964 155.607C189.736 155.736 189.479 155.802 189.218 155.8C188.966 155.762 188.727 155.668 188.516 155.525C188.325 155.407 188.148 155.289 187.987 155.209C187.925 155.169 187.854 155.146 187.78 155.143C187.706 155.139 187.633 155.155 187.568 155.189C187.401 155.28 187.249 155.396 187.118 155.534C186.962 155.702 186.788 155.852 186.6 155.983C186.541 156.018 186.478 156.045 186.413 156.065C186.351 156.082 186.296 156.091 186.237 156.102C186.118 156.121 185.997 156.122 185.877 156.107C185.656 156.062 185.443 155.98 185.248 155.866C185.155 155.823 185.053 155.801 184.95 155.803C184.847 155.804 184.746 155.829 184.655 155.875Z" fill="#171636"></path><path d="M212.139 156.477C211.931 156.389 211.761 156.231 211.659 156.029C211.59 155.843 211.473 155.678 211.319 155.552C211.241 155.5 211.156 155.461 211.066 155.434C211.023 155.419 210.978 155.408 210.933 155.401C210.896 155.396 210.858 155.397 210.821 155.404C210.629 155.45 210.443 155.518 210.268 155.607C210.058 155.711 209.835 155.785 209.605 155.826C209.468 155.847 209.328 155.84 209.193 155.808C209.069 155.77 208.95 155.715 208.84 155.646C208.637 155.522 208.474 155.383 208.308 155.277C208.18 155.177 208.025 155.118 207.863 155.107C207.709 155.138 207.568 155.216 207.46 155.33C207.307 155.46 207.153 155.618 206.962 155.761C206.859 155.838 206.748 155.901 206.63 155.951C206.498 156.003 206.357 156.026 206.216 156.017C205.986 155.993 205.76 155.941 205.542 155.864C205.36 155.8 205.169 155.765 204.976 155.76C204.896 155.763 204.818 155.785 204.749 155.825C204.674 155.876 204.61 155.942 204.559 156.017C204.439 156.176 204.344 156.373 204.229 156.558C204.124 156.753 203.973 156.919 203.788 157.041C204.092 156.723 204.133 156.29 204.344 155.883C204.399 155.771 204.476 155.671 204.569 155.588C204.675 155.503 204.8 155.446 204.934 155.423C205.17 155.397 205.41 155.413 205.64 155.471C205.834 155.518 206.031 155.549 206.229 155.563C206.303 155.564 206.377 155.548 206.444 155.516C206.521 155.477 206.594 155.428 206.661 155.372C206.808 155.251 206.955 155.102 207.125 154.948C207.216 154.865 207.315 154.791 207.419 154.726C207.547 154.646 207.692 154.599 207.842 154.589C208.112 154.598 208.372 154.691 208.586 154.855C208.777 154.988 208.944 155.125 209.102 155.234C209.171 155.284 209.246 155.325 209.325 155.356C209.398 155.376 209.475 155.383 209.551 155.376C209.746 155.349 209.937 155.3 210.121 155.231C210.337 155.144 210.565 155.089 210.797 155.067C210.867 155.065 210.937 155.073 211.004 155.092C211.063 155.11 211.12 155.133 211.176 155.16C211.287 155.209 211.39 155.276 211.48 155.358C211.639 155.53 211.746 155.743 211.789 155.973C211.848 156.175 211.971 156.352 212.139 156.477Z" fill="#171636"></path><path d="M199.478 164.838C199.217 164.834 198.958 164.791 198.71 164.709C198.588 164.67 198.486 164.584 198.427 164.47C198.369 164.356 198.357 164.224 198.395 164.102C198.433 163.98 198.518 163.877 198.632 163.817C198.745 163.758 198.877 163.745 198.999 163.782C199.638 163.982 199.826 163.779 199.888 163.712C200.867 162.657 199.379 157.33 198.01 153.885C197.986 153.826 197.974 153.762 197.975 153.699C197.976 153.635 197.99 153.572 198.015 153.513C198.04 153.455 198.077 153.402 198.122 153.357C198.168 153.313 198.222 153.278 198.281 153.254C198.34 153.231 198.404 153.219 198.467 153.22C198.531 153.221 198.594 153.234 198.653 153.259C198.711 153.285 198.764 153.321 198.809 153.367C198.853 153.413 198.888 153.467 198.912 153.526C199.5 155.007 202.348 162.487 200.6 164.372C200.457 164.525 200.283 164.646 200.09 164.727C199.896 164.807 199.688 164.845 199.478 164.838Z" fill="#F1AC89"></path><path d="M192.173 163.815C192.26 162.508 190.427 161.321 188.078 161.165C185.729 161.008 183.755 161.941 183.668 163.249C183.581 164.556 185.414 165.743 187.763 165.899C190.111 166.056 192.086 165.123 192.173 163.815Z" fill="#F19996"></path><path d="M184.45 149.441C185.173 149.082 185.931 148.797 186.711 148.59C187.51 148.373 188.331 148.247 189.158 148.214C190.019 148.192 190.878 148.311 191.7 148.567C192.515 148.839 193.27 149.264 193.925 149.819C194 149.876 194.062 149.947 194.107 150.03C194.152 150.112 194.178 150.204 194.184 150.297C194.189 150.391 194.175 150.485 194.141 150.572C194.107 150.66 194.054 150.739 193.986 150.804C193.838 150.943 193.646 151.025 193.443 151.035C193.24 151.045 193.04 150.983 192.879 150.858C192.87 150.851 192.86 150.843 192.851 150.835L192.796 150.786C192.328 150.334 191.778 149.976 191.176 149.731C190.529 149.487 189.847 149.351 189.156 149.328C188.43 149.315 187.704 149.383 186.993 149.531C186.278 149.675 185.579 149.889 184.906 150.169L184.882 150.18C184.772 150.228 184.647 150.236 184.532 150.2C184.417 150.163 184.319 150.087 184.257 149.984C184.232 149.936 184.218 149.883 184.214 149.829C184.211 149.776 184.218 149.722 184.236 149.671C184.255 149.62 184.283 149.574 184.319 149.534C184.356 149.495 184.4 149.463 184.45 149.441Z" fill="#0E207F"></path><path d="M208.764 165.901C211.113 165.745 212.946 164.558 212.859 163.251C212.772 161.943 210.797 161.01 208.449 161.167C206.1 161.323 204.266 162.51 204.354 163.817C204.441 165.124 206.415 166.057 208.764 165.901Z" fill="#F19996"></path><path d="M212.078 149.441C211.355 149.082 210.597 148.797 209.817 148.59C209.018 148.373 208.197 148.247 207.37 148.214C206.509 148.192 205.65 148.311 204.828 148.567C204.013 148.839 203.258 149.264 202.604 149.819C202.528 149.876 202.466 149.947 202.421 150.03C202.377 150.112 202.35 150.204 202.345 150.297C202.339 150.391 202.353 150.485 202.388 150.572C202.422 150.66 202.474 150.739 202.542 150.804C202.69 150.943 202.883 151.025 203.085 151.035C203.288 151.045 203.488 150.983 203.649 150.858C203.659 150.851 203.668 150.843 203.678 150.835L203.732 150.786C204.2 150.334 204.75 149.976 205.352 149.731C205.999 149.487 206.681 149.351 207.372 149.328C208.099 149.315 208.824 149.383 209.535 149.531C210.25 149.675 210.949 149.889 211.623 150.169L211.646 150.18C211.757 150.228 211.881 150.236 211.996 150.2C212.111 150.163 212.209 150.087 212.271 149.984C212.296 149.936 212.31 149.883 212.314 149.829C212.317 149.776 212.31 149.722 212.292 149.671C212.274 149.62 212.245 149.574 212.209 149.534C212.172 149.495 212.128 149.463 212.078 149.441Z" fill="#0E207F"></path><path d="M217.67 148.239C218.482 148.239 219.284 148.421 220.017 148.773C220.749 149.124 221.393 149.636 221.901 150.27C222.409 150.903 222.768 151.643 222.951 152.434C223.135 153.225 223.139 154.048 222.962 154.84L221.998 159.162C221.73 160.365 221.059 161.441 220.097 162.212C219.135 162.983 217.939 163.403 216.707 163.403H215.32C215.32 163.403 212.929 152.794 217.67 148.239Z" fill="#F3CDC1"></path><path d="M178.958 148.239C178.146 148.239 177.344 148.421 176.612 148.773C175.879 149.124 175.235 149.636 174.727 150.269C174.219 150.903 173.86 151.643 173.677 152.434C173.493 153.225 173.489 154.048 173.666 154.84L174.63 159.162C174.898 160.365 175.569 161.441 176.531 162.212C177.493 162.983 178.689 163.403 179.921 163.403H181.308C181.308 163.403 183.699 152.794 178.958 148.239Z" fill="#F3CDC1"></path><path d="M218.733 148.346L217.153 157.122C217.153 157.122 214.255 150.233 214.255 142.445C214.255 142.445 157.121 152.143 169.11 123.02C171.319 117.652 174.359 114.432 177.864 112.738C193.349 105.257 217.716 127.857 217.716 127.857C217.716 127.857 225.068 125.186 218.733 148.346Z" fill="#0E207F"></path><path d="M177.323 141.702L179.624 157.125C179.624 157.125 182.592 149.734 182.393 142.343C182.193 134.952 177.323 141.702 177.323 141.702Z" fill="#0E207F"></path><path d="M219.304 160.032L218.507 159.477C220.831 156.138 220.864 154.389 220.484 153.509C220.037 152.477 218.886 152.297 218.838 152.29L218.971 151.328C219.041 151.337 220.697 151.58 221.369 153.109C222.076 154.72 221.381 157.048 219.304 160.032Z" fill="#F1AC89"></path><path d="M177.324 160.032C175.247 157.048 174.553 154.719 175.259 153.109C175.93 151.58 177.587 151.337 177.657 151.328L177.79 152.29C177.742 152.297 176.591 152.477 176.144 153.509C175.763 154.389 175.797 156.138 178.121 159.477L177.324 160.032Z" fill="#F1AC89"></path><path d="M194.143 169.032C193.989 169.007 193.831 169.024 193.686 169.081C193.541 169.138 193.413 169.233 193.317 169.356C193.221 169.479 193.16 169.626 193.14 169.781C193.12 169.936 193.142 170.093 193.204 170.236C193.6 171.21 194.259 172.055 195.107 172.677C195.955 173.299 196.959 173.673 198.007 173.759C198.879 173.805 199.751 173.647 200.551 173.298C201.352 172.948 202.061 172.417 202.62 171.746C202.716 171.628 202.778 171.487 202.802 171.337C202.825 171.188 202.809 171.034 202.754 170.893C202.7 170.751 202.609 170.627 202.491 170.531C202.373 170.436 202.232 170.373 202.083 170.35L194.143 169.032Z" fill="white"></path><path d="M214.255 142.445C214.255 142.445 157.121 152.143 169.11 123.02C171.319 117.652 174.358 114.432 177.864 112.738C173.244 120.256 166.505 135.427 185.712 137.584C211.38 140.475 214.255 142.445 214.255 142.445Z" fill="#182E89"></path><path d="M203.912 106.58C206.886 107.554 211.096 109.607 215.948 113.957C216.031 114.031 216.139 114.071 216.249 114.069C216.36 114.068 216.466 114.025 216.547 113.948C216.627 113.872 216.676 113.768 216.684 113.658C216.691 113.547 216.657 113.438 216.588 113.351C215.135 111.115 213.505 108.999 211.713 107.025C210.991 106.238 211.799 105.026 212.717 105.53C215.309 106.953 218.7 109.4 222.179 113.556C222.241 113.641 222.332 113.701 222.435 113.724C222.537 113.747 222.645 113.732 222.737 113.682C222.83 113.632 222.901 113.551 222.938 113.452C222.975 113.354 222.975 113.245 222.938 113.147C222.496 111.675 221.891 110.258 221.134 108.921C220.627 108.019 221.581 107.081 222.389 107.688C225.649 110.151 230.663 114.448 237.039 121.495L237.044 121.509C240.247 125.049 243.795 129.282 247.637 134.331C248.497 135.459 249.364 136.623 250.252 137.834C244.706 141.583 239.742 146.128 235.521 151.324C234.171 149.986 232.751 148.721 231.266 147.535C226.005 143.311 217.798 138.164 205.594 133.858C204.765 133.563 204.678 132.355 205.474 132.05C208.138 131.025 212.83 129.572 217.989 129.517C218.088 129.507 218.182 129.468 218.258 129.404C218.334 129.34 218.389 129.254 218.416 129.158C218.442 129.062 218.438 128.961 218.405 128.867C218.372 128.773 218.312 128.691 218.231 128.632C215.087 125.976 205.545 118.077 198.463 113.746C197.579 113.203 197.988 111.794 198.977 111.981C201.867 112.512 206.197 113.964 211.721 117.718C212.176 118.029 212.64 117.425 212.256 117.005C209.875 114.415 206.368 110.781 203.18 108.247C202.364 107.587 202.942 106.265 203.912 106.58Z" fill="#F3CDC1"></path><path d="M287.523 226.741L242.781 237.262L244.174 225.82L248.031 194.048L255.608 194.085L225.836 145.6L245.178 129.913L297.504 199.066C305.157 209.188 299.878 223.843 287.523 226.741Z" fill="#6048DC"></path><path d="M287.523 226.741L242.781 237.262L244.174 225.82C266.9 219.238 258.393 199.462 258.154 198.923C294.224 241.267 297.504 199.065 297.504 199.065C305.157 209.188 299.878 223.843 287.523 226.741Z" fill="#4A3DC4"></path><path d="M255.608 194.085C256.941 195.947 258.134 197.881 259.296 199.832C260.45 201.788 261.554 203.769 262.608 205.777C263.666 207.783 264.675 209.815 265.636 211.871C266.587 213.933 267.505 216.013 268.284 218.165C266.95 216.305 265.755 214.371 264.594 212.42C263.44 210.464 262.337 208.482 261.284 206.474C260.23 204.466 259.222 202.434 258.258 200.378C257.308 198.316 256.388 196.238 255.608 194.085Z" fill="#3A2EAA"></path><path d="M250.165 165.848L246.534 215.501L245.261 232.844C245.153 234.349 244.479 235.757 243.374 236.785C242.27 237.813 240.817 238.385 239.308 238.385H151.248C149.739 238.383 148.285 237.812 147.18 236.784C146.075 235.756 145.399 234.349 145.288 232.844L140.382 165.848C140.324 165.029 140.434 164.207 140.707 163.432C140.98 162.658 141.41 161.948 141.969 161.347C142.528 160.745 143.205 160.266 143.957 159.937C144.71 159.609 145.522 159.439 146.343 159.438H244.203C245.025 159.438 245.837 159.607 246.591 159.934C247.344 160.262 248.021 160.742 248.581 161.344C249.14 161.945 249.57 162.656 249.842 163.431C250.115 164.206 250.225 165.028 250.165 165.848Z" fill="#CE4D97"></path><path d="M250.165 165.848L246.534 215.501C159.829 240.414 152.588 181.917 152.88 159.438H244.203C245.025 159.438 245.837 159.607 246.591 159.934C247.344 160.262 248.021 160.742 248.581 161.344C249.14 161.945 249.57 162.656 249.842 163.431C250.115 164.206 250.225 165.028 250.165 165.848Z" fill="#E764A8"></path><path d="M195.275 210.624C201.744 210.624 206.989 205.38 206.989 198.911C206.989 192.442 201.744 187.197 195.275 187.197C188.806 187.197 183.562 192.442 183.562 198.911C183.562 205.38 188.806 210.624 195.275 210.624Z" fill="white"></path><path d="M168.575 380.588L132.292 398.661C130.393 399.607 128.048 398.631 127.053 396.483L101.848 342.013C100.854 339.863 101.588 337.356 103.487 336.41L139.77 318.337C141.669 317.391 144.014 318.366 145.009 320.515L170.214 374.984C171.207 377.133 170.474 379.642 168.575 380.588Z" fill="#2956A5"></path><path d="M170.421 379.669L138.041 395.797L134.136 397.743C132.234 398.687 129.89 397.715 128.898 395.563L103.69 341.093C102.699 338.946 103.431 336.439 105.33 335.491L141.616 317.416C143.514 316.474 145.858 317.446 146.854 319.596L170.222 370.1L172.058 374.068C173.051 376.214 172.317 378.722 170.421 379.669Z" fill="#416FD0"></path><path d="M170.421 379.669L138.041 395.798C124.288 383.895 111.124 348.136 111.124 348.136L156.355 367.777L170.221 370.099L172.057 374.067C173.051 376.214 172.317 378.722 170.421 379.669Z" fill="#2956A5"></path><path d="M106.638 339.086L141.951 321.801C141.951 321.801 161.684 367.471 179.33 369.75L142.8 393.466C142.8 393.466 132.877 393.21 106.638 339.086Z" fill="white"></path><path d="M133.797 327.695L117.948 335.589C116.824 336.149 115.436 335.572 114.847 334.3L113.253 330.856C112.664 329.584 113.098 328.099 114.223 327.539L130.072 319.644C131.196 319.084 132.584 319.662 133.173 320.933L134.767 324.378C135.355 325.65 134.921 327.135 133.797 327.695Z" fill="#0B1374"></path><path d="M113.498 343.837C113.346 343.878 113.184 343.863 113.043 343.794C112.902 343.725 112.791 343.606 112.731 343.461C112.649 343.306 112.63 343.126 112.678 342.957C112.726 342.789 112.837 342.645 112.987 342.556L140.872 328.351C140.95 328.316 141.034 328.298 141.119 328.296C141.204 328.295 141.289 328.311 141.368 328.343C141.447 328.375 141.518 328.423 141.578 328.483C141.639 328.544 141.686 328.616 141.717 328.695C141.799 328.85 141.818 329.03 141.77 329.198C141.722 329.367 141.611 329.51 141.461 329.599L113.576 343.804C113.551 343.817 113.525 343.828 113.498 343.837Z" fill="#3867CA"></path><path d="M119.925 345.032C119.773 345.074 119.612 345.059 119.47 344.989C119.329 344.92 119.218 344.802 119.158 344.656C119.076 344.501 119.058 344.321 119.105 344.153C119.153 343.984 119.264 343.841 119.415 343.752L139 333.774C139.078 333.739 139.162 333.721 139.247 333.719C139.332 333.718 139.417 333.734 139.496 333.766C139.575 333.798 139.647 333.845 139.707 333.906C139.767 333.966 139.814 334.038 139.845 334.118C139.927 334.273 139.946 334.453 139.898 334.621C139.85 334.789 139.74 334.933 139.589 335.022L120.003 344.999C119.978 345.012 119.952 345.023 119.925 345.032Z" fill="#3867CA"></path><path d="M117.258 350.987C117.106 351.029 116.944 351.013 116.803 350.944C116.662 350.875 116.551 350.756 116.491 350.611C116.409 350.456 116.39 350.276 116.438 350.107C116.486 349.939 116.596 349.796 116.747 349.707L144.632 335.502C144.71 335.468 144.794 335.449 144.879 335.448C144.964 335.446 145.048 335.462 145.127 335.494C145.206 335.526 145.278 335.574 145.338 335.634C145.398 335.694 145.445 335.766 145.477 335.845C145.559 336 145.577 336.181 145.53 336.349C145.482 336.517 145.371 336.661 145.22 336.75L117.336 350.954C117.311 350.967 117.284 350.978 117.258 350.987Z" fill="#3867CA"></path><path d="M139.593 374.535C139.445 374.59 139.283 374.588 139.136 374.531C138.99 374.473 138.869 374.364 138.798 374.225C138.704 374.077 138.67 373.899 138.704 373.727C138.737 373.555 138.836 373.403 138.979 373.302L157.676 361.746C157.751 361.705 157.833 361.679 157.918 361.671C158.003 361.662 158.088 361.671 158.17 361.696C158.251 361.722 158.326 361.763 158.391 361.819C158.456 361.874 158.509 361.942 158.547 362.018C158.641 362.166 158.675 362.344 158.641 362.516C158.607 362.687 158.508 362.84 158.366 362.941L139.668 374.497C139.644 374.512 139.619 374.525 139.593 374.535Z" fill="#3867CA"></path><path d="M137.426 380.69C137.278 380.744 137.116 380.742 136.969 380.685C136.823 380.628 136.702 380.519 136.63 380.379C136.536 380.231 136.503 380.053 136.536 379.881C136.57 379.71 136.669 379.557 136.812 379.456L163.432 363.003C163.506 362.962 163.589 362.937 163.673 362.928C163.758 362.92 163.844 362.928 163.925 362.954C164.006 362.979 164.082 363.021 164.147 363.076C164.211 363.132 164.264 363.199 164.302 363.276C164.396 363.423 164.43 363.601 164.396 363.773C164.363 363.945 164.264 364.097 164.121 364.198L137.501 380.651C137.477 380.666 137.452 380.679 137.426 380.69Z" fill="#3867CA"></path><path d="M122.042 358.55C123.452 361.022 125.745 364.887 127.455 367.027C128.125 367.865 129.197 368.135 130.057 367.675L139.472 362.621C140.634 361.998 140.923 360.334 140.07 359.153C138.496 356.97 136.168 353.718 134.858 351.769C134.239 350.848 133.144 350.491 132.236 350.914L122.884 355.265C121.743 355.796 121.347 357.332 122.042 358.55Z" fill="#EA77B2"></path><path d="M137.314 350.587C138.725 353.059 141.017 356.924 142.727 359.065C143.397 359.903 144.469 360.173 145.329 359.712L154.744 354.659C155.906 354.035 156.195 352.371 155.342 351.191C153.767 349.007 151.44 345.755 150.13 343.806C149.511 342.885 148.416 342.528 147.508 342.951L138.156 347.303C137.016 347.834 136.62 349.37 137.314 350.587Z" fill="#FDCA88"></path><path d="M141.809 387.659C141.668 387.699 141.517 387.689 141.382 387.63C141.247 387.572 141.137 387.468 141.07 387.337C140.977 387.188 140.943 387.009 140.977 386.836C141.011 386.663 141.109 386.509 141.251 386.405L168.835 368.764C168.908 368.722 168.989 368.695 169.073 368.686C169.158 368.676 169.243 368.684 169.324 368.708C169.405 368.733 169.48 368.774 169.544 368.829C169.609 368.883 169.662 368.951 169.699 369.027C169.792 369.176 169.826 369.356 169.792 369.529C169.758 369.702 169.66 369.855 169.518 369.959L141.934 387.6C141.895 387.625 141.853 387.645 141.809 387.659Z" fill="#3867CA"></path><path d="M137.773 315.161C137.773 315.161 143.22 331.978 142.425 347.606C142.416 347.756 142.36 347.899 142.264 348.015C142.169 348.131 142.039 348.213 141.893 348.251C141.748 348.288 141.594 348.278 141.455 348.222C141.315 348.166 141.197 348.067 141.117 347.94L135.164 338.413L119.604 337.323C118.624 337.255 117.693 336.868 116.953 336.223C116.213 335.578 115.703 334.709 115.501 333.748L112.766 320.709L137.773 315.161Z" fill="#F3CDC1"></path><path d="M126.17 248.711L137.994 316.366L112.332 322.147L85.436 239.171C84.5664 236.493 84.5404 233.612 85.3613 230.919C86.1823 228.226 87.8107 225.85 90.0263 224.112L125.519 196.257C130.275 192.527 136.144 190.499 142.188 190.499L142.562 195.089C142.562 195.089 142.57 195.156 142.577 195.283L142.607 195.62C142.607 195.695 142.615 195.777 142.622 195.875L145.782 234.812L125.152 242.877L126.17 248.711Z" fill="#6048DC"></path><path d="M125.152 242.877L126.17 248.711L123.826 236.228C143.947 230.32 142.958 201.056 142.621 195.876L145.781 234.814L125.152 242.877Z" fill="#4A3DC4"></path><path d="M125.155 242.876C124.689 242.018 124.308 241.116 124.018 240.183C123.725 239.272 123.485 238.345 123.297 237.407C123.108 236.469 122.973 235.521 122.893 234.567C122.801 233.595 122.807 232.615 122.908 231.644C123.376 232.502 123.758 233.404 124.048 234.337C124.341 235.248 124.581 236.175 124.766 237.114C124.954 238.052 125.089 239 125.169 239.954C125.26 240.926 125.255 241.905 125.155 242.876Z" fill="#3A2EAA"></path><path d="M213.609 137.039L217.433 138.205C220.926 139.27 224.615 139.523 228.221 138.945C231.826 138.367 235.251 136.973 238.236 134.869L244.576 130.399L227.176 144.512L213.609 137.039Z" fill="#F1AC89"></path></g><defs><clipPath id="clip0_264_9182"><rect width="431" height="413" fill="white" transform="translate(0 0.977783)"></rect></clipPath></defs></svg> 