<?xml version="1.0" encoding="UTF-8"?> <svg xmlns="http://www.w3.org/2000/svg" width="1920" height="961" viewBox="0 0 1920 961" fill="none"><g clip-path="url(#clip0_758_19033)"><rect width="1920" height="340" fill="#F4F5F8"></rect><rect width="1920" height="621" transform="translate(0 340)" fill="url(#paint0_linear_758_19033)"></rect><path d="M1917.02 697.12C1875.52 694.12 1699.3 618.579 1666.71 454.031C1625.97 248.346 1355.52 463.379 1528.51 579.685C1701.5 695.991 1604.43 786.504 1546.29 749.02C1488.15 711.536 1472.52 663.856 1435.92 668.413C1406.64 672.061 1457.62 769.456 1487.36 788.217" stroke="url(#paint1_linear_758_19033)"></path><path d="M1915.61 675.415C1874.15 672.421 1711.78 616.145 1679.23 451.96C1638.53 246.729 1368.39 461.288 1541.19 577.337C1713.98 693.386 1617.02 783.699 1558.94 746.297C1500.87 708.896 1485.26 661.322 1448.7 665.869C1419.45 669.508 1470.38 766.689 1500.08 785.409" stroke="url(#paint2_linear_758_19033)"></path><path d="M1913.94 660.666C1872.55 657.68 1724.41 612.678 1691.9 448.969C1651.27 244.333 1381.55 458.27 1554.08 573.982C1726.61 689.695 1629.79 779.746 1571.8 742.453C1513.82 705.161 1498.23 657.724 1461.74 662.258C1432.53 665.887 1483.38 762.786 1513.04 781.451" stroke="url(#paint3_linear_758_19033)"></path><path d="M1484.56 839.01C1484.56 839.01 1421.22 767.983 1287.97 784.646C1154.72 801.309 1078.26 907.213 965.211 899.735C814.204 889.746 693.16 736.972 569.368 834.97C445.577 932.967 400.507 726.86 265.111 804.094C129.715 881.328 1.08573 713.669 -28.2795 825.759" stroke="url(#paint4_linear_758_19033)"></path><path d="M1484.81 847.003C1484.81 847.003 1421.47 775.976 1288.22 792.639C1154.97 809.302 1078.51 915.206 965.461 907.728C814.454 897.739 693.41 744.965 569.618 842.962C445.827 940.959 400.756 734.853 265.361 812.087C129.965 889.321 1.33548 721.661 -28.0297 833.752" stroke="url(#paint5_linear_758_19033)"></path><path d="M1485.12 856.994C1485.12 856.994 1421.79 785.967 1288.53 802.63C1155.28 819.293 1078.83 925.197 965.773 917.718C814.766 907.73 693.722 754.956 569.93 852.953C446.139 950.95 401.068 744.844 265.673 822.078C130.277 899.312 1.64749 731.652 -27.7177 843.742" stroke="url(#paint6_linear_758_19033)"></path></g><defs><linearGradient id="paint0_linear_758_19033" x1="960" y1="0" x2="960" y2="621" gradientUnits="userSpaceOnUse"><stop stop-color="#F4F5F8"></stop><stop offset="1" stop-color="#F4F5F8" stop-opacity="0"></stop></linearGradient><linearGradient id="paint1_linear_758_19033" x1="1797.99" y1="545.503" x2="1416.85" y2="650.523" gradientUnits="userSpaceOnUse"><stop stop-color="#E21284"></stop><stop offset="1" stop-color="#F5F5F5"></stop></linearGradient><linearGradient id="paint2_linear_758_19033" x1="1810.36" y1="543.229" x2="1429.71" y2="648.228" gradientUnits="userSpaceOnUse"><stop stop-color="#6B11C9"></stop><stop offset="1" stop-color="#F5F5F5"></stop></linearGradient><linearGradient id="paint3_linear_758_19033" x1="1822.84" y1="539.963" x2="1442.84" y2="644.924" gradientUnits="userSpaceOnUse"><stop stop-color="#E21284"></stop><stop offset="1" stop-color="#F5F5F5"></stop></linearGradient><linearGradient id="paint4_linear_758_19033" x1="656.479" y1="910.196" x2="651.971" y2="765.886" gradientUnits="userSpaceOnUse"><stop stop-color="#6B11C9"></stop><stop offset="1" stop-color="#F5F5F5"></stop></linearGradient><linearGradient id="paint5_linear_758_19033" x1="656.729" y1="918.189" x2="652.221" y2="773.879" gradientUnits="userSpaceOnUse"><stop stop-color="#E21284"></stop><stop offset="1" stop-color="#F5F5F5"></stop></linearGradient><linearGradient id="paint6_linear_758_19033" x1="657.041" y1="928.18" x2="652.533" y2="783.87" gradientUnits="userSpaceOnUse"><stop stop-color="#6B11C9"></stop><stop offset="1" stop-color="#F5F5F5"></stop></linearGradient><clipPath id="clip0_758_19033"><rect width="1920" height="961" fill="white"></rect></clipPath></defs></svg> 