<?xml version="1.0" encoding="UTF-8"?> <svg xmlns="http://www.w3.org/2000/svg" xmlns:xlink="http://www.w3.org/1999/xlink" version="1.1" id="Layer_1" x="0px" y="0px" width="767.9px" height="1186px" viewBox="0 0 767.9 1186" style="enable-background:new 0 0 767.9 1186;" xml:space="preserve"> <style type="text/css"> .st0{fill:none;} .st1{fill:#F4F5F8;} .st2{fill:url(#SVGID_1_);} .st3{fill:none;stroke:url(#SVGID_2_);} .st4{fill:none;stroke:url(#SVGID_3_);} .st5{fill:none;stroke:url(#SVGID_4_);} .st6{fill:none;stroke:url(#SVGID_5_);} .st7{fill:none;stroke:url(#SVGID_6_);} .st8{fill:none;stroke:url(#SVGID_7_);} </style> <rect x="-576.1" y="225" class="st0" width="1920" height="961"></rect> <rect x="-576.1" class="st1" width="1920" height="565"></rect> <linearGradient id="SVGID_1_" gradientUnits="userSpaceOnUse" x1="383.9424" y1="1187.0225" x2="383.9424" y2="566.0225" gradientTransform="matrix(1 0 0 -1 0 1752.045)"> <stop offset="0" style="stop-color:#F4F5F8"></stop> <stop offset="1" style="stop-color:#F4F5F8;stop-opacity:0"></stop> </linearGradient> <rect x="-576.1" y="565" class="st2" width="1920" height="621"></rect> <linearGradient id="SVGID_2_" gradientUnits="userSpaceOnUse" x1="154.3931" y1="279.1373" x2="149.8851" y2="423.4473" gradientTransform="matrix(1 0 0 -1 0 1412.045)"> <stop offset="0" style="stop-color:#6B11C9"></stop> <stop offset="1" style="stop-color:#F5F5F5"></stop> </linearGradient> <path class="st3" d="M908.5,1064c0,0-63.3-71-196.6-54.4s-209.7,122.6-322.8,115.1c-151-10-272.1-162.8-395.8-64.8 c-123.8,98-168.9-108.1-304.3-30.9s-264-90.4-293.4,21.7"></path> <linearGradient id="SVGID_3_" gradientUnits="userSpaceOnUse" x1="154.643" y1="271.1442" x2="150.135" y2="415.4542" gradientTransform="matrix(1 0 0 -1 0 1412.045)"> <stop offset="0" style="stop-color:#E21284"></stop> <stop offset="1" style="stop-color:#F5F5F5"></stop> </linearGradient> <path class="st4" d="M908.8,1072c0,0-63.3-71-196.6-54.4s-209.7,122.6-322.8,115.1c-151-10-272.1-162.8-395.8-64.8 c-123.8,98-168.9-108.1-304.3-30.9c-135.4,77.2-264-90.4-293.4,21.7"></path> <linearGradient id="SVGID_4_" gradientUnits="userSpaceOnUse" x1="154.954" y1="261.1532" x2="150.446" y2="405.4632" gradientTransform="matrix(1 0 0 -1 0 1412.045)"> <stop offset="0" style="stop-color:#6B11C9"></stop> <stop offset="1" style="stop-color:#F5F5F5"></stop> </linearGradient> <path class="st5" d="M909.1,1082c0,0-63.3-71-196.6-54.4c-133.2,16.7-209.7,122.6-322.8,115.1c-151-10-272.1-162.8-395.8-64.8 c-123.8,98-168.9-108.1-304.3-30.9c-135.4,77.2-264-90.4-293.4,21.7"></path> </svg> 