<?xml version="1.0" encoding="UTF-8"?> <svg xmlns="http://www.w3.org/2000/svg" width="20" height="21" viewBox="0 0 20 21" fill="none"><path d="M9.48789 12.7452C10.4138 12.7419 12.438 12.7344 12.4146 11.4468C12.3921 10.1301 10.4479 10.2093 9.50039 10.2485C9.39456 10.2526 9.30039 10.2568 9.22372 10.2576L9.26705 12.7469C9.32956 12.7452 9.40456 12.7452 9.48789 12.7452V12.7452ZM9.38956 9.11761C10.1621 9.11677 11.848 9.11511 11.828 7.94424C11.8063 6.7467 10.1871 6.81754 9.39622 6.85254C9.30705 6.85671 9.22955 6.86004 9.16455 6.86087L9.20372 9.11844L9.38956 9.11761Z" fill="#6B11C9"></path><path fill-rule="evenodd" clip-rule="evenodd" d="M7.58028 19.7171C12.9388 21.053 18.3656 17.792 19.7015 12.4352C21.0373 7.07757 17.7756 1.65075 12.4171 0.31571C7.06193 -1.021 1.6351 2.24077 0.300065 7.59925C-1.03581 12.9561 2.22512 18.3829 7.58111 19.7179L7.58028 19.7171ZM11.1487 5.53336C12.6104 5.6367 13.7738 6.06504 13.9263 7.40175C14.0396 8.38011 13.6396 8.97596 12.9904 9.32097C14.0738 9.56098 14.7613 10.1902 14.653 11.6302C14.5188 13.4178 13.1963 13.9203 11.2979 14.0619L11.3296 15.937L10.1995 15.9578L10.167 14.1078C9.87451 14.1128 9.5745 14.1161 9.26366 14.1144L9.29699 15.9728L8.16696 15.9928L8.13363 14.1144L7.81445 14.1169C7.65278 14.1178 7.48944 14.1186 7.3261 14.1219L5.85439 14.1469L6.05523 12.7936C6.05523 12.7936 6.89192 12.7919 6.87692 12.7794C7.19693 12.7727 7.27777 12.5419 7.29527 12.3969L7.24443 9.43264L7.32527 9.43097H7.3636C7.32377 9.42641 7.28369 9.42446 7.2436 9.42514L7.20693 7.30841C7.15943 7.08007 7.00609 6.81673 6.54858 6.82506C6.56108 6.8084 5.72689 6.83923 5.72689 6.83923L5.70522 5.63253L7.26527 5.60586V5.6117C7.49944 5.60753 7.74028 5.5992 7.98445 5.59003L7.95279 3.73248L9.08282 3.71331L9.11449 5.53336C9.41616 5.52253 9.7195 5.51086 10.017 5.50586L9.98535 3.69747L11.1162 3.67747L11.1487 5.53503V5.53336Z" fill="#6B11C9"></path></svg> 