<?xml version="1.0" encoding="UTF-8"?> <svg xmlns="http://www.w3.org/2000/svg" width="20" height="21" viewBox="0 0 20 21" fill="none"><path d="M10.24 6.60562H8.81083V9.42229H11.0583V10.6015H8.81083V13.4181H10.31C10.695 13.4181 13.4717 13.4615 13.4675 10.1406C13.4633 6.82062 10.7742 6.60562 10.24 6.60562V6.60562ZM10 0.015625C4.4775 0.015625 0 4.49313 0 10.0156C0 15.5381 4.4775 20.0156 10 20.0156C15.5225 20.0156 20 15.5381 20 10.0156C20 4.49313 15.5225 0.015625 10 0.015625ZM10.3933 15.4165H6.77167V10.6015H5.495V9.42229H6.77167V4.60813H9.88C10.615 4.60813 15.4858 4.45562 15.4858 10.1031C15.485 15.8431 10.3933 15.4165 10.3933 15.4165V15.4165Z" fill="#6B11C9"></path></svg> 