<?xml version="1.0" encoding="UTF-8"?> <svg xmlns="http://www.w3.org/2000/svg" width="40" height="41" viewBox="0 0 40 41" fill="none"><rect x="0.5" y="0.5" width="39" height="39.0036" rx="19.5" fill="white"></rect><path d="M14.4475 30.1187C17.0163 27.5515 18.7573 22.8344 20.6063 18.2536C19.2061 23.3668 18.0595 28.1212 15.6545 31.1847C14.2016 32.9401 13.2605 33.4961 11.6197 34.1768C11.0691 34.4087 10.4379 34.1543 10.2041 33.6091C9.94513 32.9933 10.2929 32.2889 10.9465 32.1359C11.0489 32.0906 12.7298 31.8512 14.4475 30.1187Z" fill="#0BAD67"></path><path d="M31.6773 19.393C28.9221 20.7374 20.6122 18.2557 20.6122 18.2557C20.6122 18.2557 23.7642 10.1765 26.525 8.83395C28.0589 8.08544 29.9093 8.72219 30.6578 10.2562C31.1955 11.3582 31.0183 12.6294 30.3055 13.5304C31.4544 13.523 32.5598 14.1636 33.0976 15.2657C33.848 16.7941 33.2113 18.6445 31.6773 19.393Z" fill="#13BD79"></path><path d="M9.54878 17.1128C12.304 15.7684 20.6139 18.2501 20.6139 18.2501C20.6139 18.2501 17.4619 26.3294 14.7011 27.6719C13.1672 28.4204 11.3168 27.7837 10.5683 26.2497C10.0305 25.1476 10.2077 23.8764 10.9205 22.9755C9.77172 22.9829 8.66624 22.3422 8.12847 21.2401C7.37805 19.7117 8.01481 17.8613 9.54878 17.1128Z" fill="#13BD79"></path><path d="M19.4749 29.3208C18.1305 26.5657 20.6122 18.2557 20.6122 18.2557C20.6122 18.2557 28.6914 21.4077 30.0339 24.1685C30.7824 25.7024 30.1457 27.5528 28.6117 28.3013C27.5097 28.8391 26.2385 28.6619 25.3375 27.9491C25.3449 29.0979 24.7043 30.2034 23.6022 30.7411C22.0738 31.4916 20.2234 30.8548 19.4749 29.3208Z" fill="#13BD79"></path><path opacity="0.08" d="M29.0253 9.68818C28.7946 9.20607 28.4464 8.8136 28.0323 8.52241C29.1231 8.57558 30.1472 9.20063 30.6596 10.2506C31.1809 11.3284 31.03 12.5591 30.3581 13.4493C29.8554 13.1276 29.2752 12.959 28.6786 12.9643C29.3858 12.0614 29.5667 10.7977 29.0253 9.68818Z" fill="black"></path><path opacity="0.08" d="M31.6773 19.393C28.9222 20.7374 20.6141 18.2502 20.6141 18.2502C20.6141 18.2502 20.633 18.2133 20.6578 18.1413C23.2307 18.785 28.0734 19.8009 30.0541 18.8344C31.5881 18.0859 32.2248 16.2355 31.4763 14.7016C31.2402 14.2176 30.8919 13.8251 30.4779 13.5339C31.5631 13.5852 32.5928 14.2121 33.1051 15.2621C33.8481 16.7941 33.2113 18.6445 31.6773 19.393Z" fill="black"></path><path opacity="0.08" d="M25.3384 28.0361C25.3202 29.1513 24.6818 30.2142 23.6076 30.743C22.5577 31.2553 21.3603 31.1159 20.4733 30.4885C20.9789 30.5137 21.4949 30.4187 21.9789 30.1825C23.0809 29.6447 23.7235 28.5337 23.7142 27.3904C24.1776 27.7544 24.7442 27.9803 25.3384 28.0361Z" fill="black"></path><path opacity="0.08" d="M28.6134 28.2957C27.5616 28.8136 26.3641 28.6741 25.4772 28.0467C25.9827 28.072 26.5006 27.9714 26.9847 27.7352C28.5167 26.9922 29.1554 25.1363 28.4069 23.6024C27.4404 21.6216 22.9999 19.4368 20.5757 18.3609C20.6005 18.2889 20.6083 18.2482 20.6083 18.2482C20.6083 18.2482 28.6876 21.4002 30.0301 24.161C30.7841 25.6968 30.1474 27.5472 28.6134 28.2957Z" fill="black"></path><path opacity="0.08" d="M30.4739 13.5263C30.4183 13.5258 30.3591 13.5178 30.3016 13.5228C30.3222 13.4989 30.3373 13.4731 30.3524 13.4473C30.3929 13.4737 30.4334 13.5 30.4739 13.5263Z" fill="black"></path><path opacity="0.08" d="M25.4773 28.0467C25.4291 28.0426 25.381 28.0384 25.3384 28.0361C25.3424 28.0065 25.3409 27.975 25.3448 27.9454C25.3834 27.9773 25.4331 28.013 25.4773 28.0467Z" fill="black"></path><path d="M21.7512 7.18499C23.0956 9.94018 20.6139 18.2501 20.6139 18.2501C20.6139 18.2501 12.5346 15.0981 11.1921 12.3374C10.4436 10.8034 11.0804 8.95304 12.6143 8.20453C13.7164 7.66676 14.9876 7.84397 15.8885 8.55676C15.8811 7.40794 16.5218 6.30245 17.6239 5.76469C19.1504 5.01981 21.0008 5.65656 21.7512 7.18499Z" fill="#13BD79"></path><path d="M24.4602 26.1415C23.4766 25.1648 22.5866 23.6999 21.989 22.4657C21.3766 21.2202 20.7788 19.6266 20.6123 18.2557C21.6034 19.2288 22.4787 20.6825 23.091 21.9279C23.7032 23.1919 24.2903 24.7447 24.4602 26.1415Z" fill="#0BAD67"></path><path d="M20.6121 18.2557C19.6284 17.279 18.7365 15.8196 18.1408 14.5798C17.5304 13.3288 16.9343 11.7482 16.7697 10.3718C17.7478 11.3466 18.6342 12.8041 19.241 14.0476C19.8516 15.2801 20.4512 16.8867 20.6121 18.2557Z" fill="#0BAD67"></path><path d="M20.6123 18.2557C21.5871 17.2776 23.039 16.3894 24.2881 15.7845C25.5317 15.1777 27.1272 14.5743 28.4981 14.4078C27.5214 15.3915 26.0788 16.2706 24.8278 16.881C23.5713 17.4895 22.0017 18.0895 20.6123 18.2557Z" fill="#0BAD67"></path><path d="M20.6122 18.2557C19.643 19.2357 18.1836 20.1276 16.9419 20.7289C15.6909 21.3393 14.0898 21.9408 12.732 22.1055C13.7255 21.1091 15.1438 20.2464 16.4042 19.6268C17.6422 19.0181 19.2452 18.4111 20.6122 18.2557Z" fill="#0BAD67"></path><rect x="0.5" y="0.5" width="39" height="39.0036" rx="19.5" stroke="#0BAD67"></rect></svg> 