<?xml version="1.0" encoding="UTF-8"?> <svg xmlns="http://www.w3.org/2000/svg" width="768" height="1001" viewBox="0 0 768 1001" fill="none"><g clip-path="url(#clip0_806_15139)"><path d="M-144.5 812.5C-86.57 815.08 -111.93 824.37 -69.5 812.5C-49.21 806.85 -121.09 907.59 -92 896C-81.36 891.78 2.3 863.32 34.5 881.5C51.78 891.28 70.25 912.85 79 947C107.5 1058.11 209 916.03 328.5 989C448.5 1052.5 490.5 836.5 598 947C717 1026.5 817 867 944.5 867C1041.5 867 1077.5 934.5 1193.5 947C1279 880.5 1370 879.71 1408 852.5C1425.9 835.291 1450.12 830.648 1473 821C1554.64 786.91 1618 778.86 1633.99 852.5V-47H-286V812.5C-271.41 806.42 -144.5 812.5 -144.5 812.5Z" fill="#6B11C9"></path><path d="M-224 894C-166.07 896.58 -137.93 940.87 -95.5 929C-70.5 916.5 -83.09 913.59 -54 902C-43.36 897.78 -2.2 877.82 30 896C61 910.5 71.5 936.5 78.5 968.5C114 1067.5 207.21 900.17 326.71 973.14C446.21 1046.11 479.71 838.69 589.71 932.78C699.71 1026.87 800.54 870.39 931.21 855.69C1029.04 844.69 1098.21 948.19 1214.21 960.69C1286.02 968.42 1345 924.71 1383 897.5C1400.9 880.291 1421.12 867.648 1444 858C1525.64 823.91 1606.48 861.44 1633.99 874.5V-71H-286V909C-271.41 902.92 -247.1 892.97 -224 894Z" fill="#F4F5F8"></path><path d="M1633.77 875.18C1616.37 866.18 1528.85 823 1439.24 860.7C1416.53 870.348 1399.5 885.844 1378.01 901.33C1340.24 928.54 1281.55 969.54 1210.28 961.81C1097 946 1033 848 929.4 856.81C799.71 871.51 699.641 1027.99 590.467 933.9C481.293 839.81 446.602 1046.97 328 974C209.398 901.03 104.644 1072.88 76.358 961.77C67.673 927.62 52.28 908.77 35.13 898.99C3.172 880.81 -40.657 897.07 -51.217 901.29C-80.088 912.88 -77.5 923.591 -96.266 928.88C-138.377 940.75 -164.102 897.85 -221.597 895.27C-248.543 894.06 -271.003 902.27 -285.802 909.36" stroke="url(#paint0_linear_806_15139)"></path><path d="M1633.77 867.19C1616.37 858.19 1528.85 815 1439.24 852.71C1416.53 862.35 1401 875 1378.01 893.33C1340.24 920.54 1281.55 961.54 1210.28 953.81C1095.15 941.31 1026.5 837.81 929.4 848.81C799.71 863.51 699.641 1019.99 590.467 925.9C481.293 831.81 448.045 1039.23 329.443 966.26C210.84 893.29 104.644 1064.89 76.358 953.77C67.673 919.63 52.28 900.77 35.13 891C3.172 872.81 -40.657 889.07 -51.217 893.29C-80.088 904.88 -73.5 909 -96.266 920.89C-138.377 932.75 -164.102 889.85 -221.597 887.27C-248.543 886.07 -271.003 894.27 -285.802 901.36" stroke="url(#paint1_linear_806_15139)"></path><path d="M1633.77 857.19C1616.37 848.19 1528.85 805 1439.24 842.71C1416.53 852.35 1404 863 1378.01 883.34C1340.24 910.55 1281.55 951.55 1210.28 943.81C1095.15 931.32 1026.5 827.81 929.4 838.86C799.71 853.55 699.641 1010.03 590.467 915.95C481.293 821.87 448.045 1029.28 329.443 956.31C210.84 883.34 104.644 1054.93 76.358 943.81C67.673 909.67 52.28 890.81 35.13 881.04C3.172 862.85 -40.657 879.12 -51.217 883.34C-80.088 894.93 -79.5 906.224 -96.266 910.93C-138.377 922.75 -164.102 879.85 -221.597 877.28C-248.543 876.07 -271.003 884.28 -285.802 891.36" stroke="url(#paint2_linear_806_15139)"></path></g><defs><linearGradient id="paint0_linear_806_15139" x1="673.985" y1="845.497" x2="673.985" y2="1000.33" gradientUnits="userSpaceOnUse"><stop stop-color="#6B11C9"></stop><stop offset="1" stop-color="#F5F5F5"></stop></linearGradient><linearGradient id="paint1_linear_806_15139" x1="673.985" y1="837.504" x2="673.985" y2="992.376" gradientUnits="userSpaceOnUse"><stop stop-color="#E21284"></stop><stop offset="1" stop-color="#F5F5F5"></stop></linearGradient><linearGradient id="paint2_linear_806_15139" x1="673.985" y1="827.504" x2="673.985" y2="982.418" gradientUnits="userSpaceOnUse"><stop stop-color="#6B11C9"></stop><stop offset="1" stop-color="#F5F5F5"></stop></linearGradient><clipPath id="clip0_806_15139"><rect width="768" height="1001" fill="white"></rect></clipPath></defs></svg> 