<?xml version="1.0" encoding="UTF-8"?> <svg xmlns="http://www.w3.org/2000/svg" width="20" height="21" viewBox="0 0 20 21" fill="none"><path d="M10 0.015625C8.02219 0.015625 6.08879 0.602115 4.4443 1.70093C2.79981 2.79974 1.51809 4.36153 0.761209 6.18879C0.00433286 8.01605 -0.193701 10.0267 0.192152 11.9665C0.578004 13.9063 1.53041 15.6882 2.92894 17.0867C4.32746 18.4852 6.10929 19.4376 8.0491 19.8235C9.98891 20.2093 11.9996 20.0113 13.8268 19.2544C15.6541 18.4975 17.2159 17.2158 18.3147 15.5713C19.4135 13.9268 20 11.9934 20 10.0156C20 7.36346 18.9464 4.81992 17.0711 2.94456C15.1957 1.06919 12.6522 0.015625 10 0.015625V0.015625ZM9.78167 3.08062H11.935C11.9791 3.08068 12.0225 3.09092 12.0619 3.11053C12.1014 3.13015 12.1357 3.15861 12.1624 3.1937C12.189 3.2288 12.2071 3.26957 12.2154 3.31283C12.2237 3.3561 12.2218 3.40069 12.21 3.44312L10.5183 9.20812L12.1058 8.72312L11.7658 9.87729L10.1625 10.344L9.1225 13.8556H14.6858C14.7299 13.8559 14.7734 13.8663 14.8128 13.8861C14.8521 13.9059 14.8864 13.9346 14.9129 13.9699C14.9394 14.0051 14.9573 14.046 14.9653 14.0894C14.9734 14.1328 14.9713 14.1774 14.9592 14.2198L14.4742 15.8865C14.451 15.9657 14.4027 16.0354 14.3366 16.085C14.2705 16.1345 14.1901 16.1614 14.1075 16.1615H5.61084L7.04667 11.3098L5.45834 11.7931L5.80834 10.659L7.4 10.1756L9.41834 3.35896C9.44047 3.27925 9.48801 3.20894 9.55373 3.1587C9.61946 3.10847 9.69978 3.08106 9.7825 3.08062H9.78167Z" fill="#6B11C9"></path></svg> 