<?xml version="1.0" encoding="UTF-8"?> <svg xmlns="http://www.w3.org/2000/svg" width="16" height="16" viewBox="0 0 16 16" fill="none"><path d="M8 16C3.58864 16 0 12.4114 0 8C0 3.58864 3.58864 0 8 0C12.4114 0 16 3.58864 16 8C16 12.4114 12.4114 16 8 16ZM8 0.819043C4.04034 0.819043 0.819043 4.04034 0.819043 8C0.819043 11.9597 4.04034 15.181 8 15.181C11.9597 15.181 15.181 11.9597 15.181 8C15.181 4.04034 11.9597 0.819043 8 0.819043ZM8 14.4438C4.44699 14.4438 1.55618 11.553 1.55618 8C1.55618 4.44699 4.44699 1.55618 8 1.55618C11.553 1.55618 14.4438 4.44699 14.4438 8C14.4438 11.553 11.553 14.4438 8 14.4438ZM8 2.37522C4.89829 2.37522 2.37522 4.89829 2.37522 8C2.37522 11.1017 4.89829 13.6248 8 13.6248C11.1017 13.6248 13.6248 11.1017 13.6248 8C13.6248 4.89829 11.1017 2.37522 8 2.37522Z" fill="#933DED"></path><path d="M5.88447 7.98752C5.88451 8.49243 6.04627 8.98405 6.34604 9.39033C6.64582 9.79662 7.06784 10.0962 7.55027 10.2452C8.0327 10.3942 8.55016 10.3847 9.02682 10.2182C9.50349 10.0517 9.91428 9.73688 10.199 9.31992C10.2709 9.21592 10.381 9.14462 10.5053 9.12161C10.6296 9.09861 10.7579 9.12577 10.8622 9.19715C10.9665 9.26854 11.0383 9.37834 11.0619 9.50252C11.0854 9.62671 11.0589 9.75517 10.9879 9.8598C10.5937 10.4362 10.0278 10.8737 9.37066 11.1101V11.7968C9.37066 11.9236 9.3203 12.0452 9.23066 12.1348C9.14102 12.2245 9.01944 12.2748 8.89267 12.2748C8.76589 12.2748 8.64432 12.2245 8.55468 12.1348C8.46504 12.0452 8.41468 11.9236 8.41468 11.7968V11.3018C8.35911 11.3046 8.30336 11.3064 8.24738 11.3064C8.1914 11.3064 8.13547 11.3049 8.08008 11.3022V11.7969C8.08008 11.9237 8.02972 12.0453 7.94008 12.1349C7.85044 12.2246 7.72886 12.2749 7.60209 12.2749C7.47532 12.2749 7.35374 12.2246 7.2641 12.1349C7.17446 12.0453 7.1241 11.9237 7.1241 11.7969V11.1106C6.48122 10.8793 5.92539 10.4552 5.53247 9.89625C5.13956 9.33731 4.92871 8.67073 4.92871 7.9875C4.92871 7.30428 5.13956 6.6377 5.53247 6.07876C5.92539 5.51982 6.48122 5.09576 7.1241 4.86446V4.17806C7.1241 4.05129 7.17446 3.92971 7.2641 3.84007C7.35374 3.75043 7.47532 3.70007 7.60209 3.70007C7.72886 3.70007 7.85044 3.75043 7.94008 3.84007C8.02972 3.92971 8.08008 4.05129 8.08008 4.17806V4.67284C8.13549 4.67007 8.19126 4.66867 8.24738 4.66863C8.30336 4.66863 8.35911 4.67042 8.41468 4.6732V4.17806C8.41468 4.05129 8.46504 3.92971 8.55468 3.84007C8.64432 3.75043 8.76589 3.70007 8.89267 3.70007C9.01944 3.70007 9.14102 3.75043 9.23066 3.84007C9.3203 3.92971 9.37066 4.05129 9.37066 4.17806V4.86478C10.0278 5.1012 10.5937 5.53868 10.988 6.11509C11.0234 6.16689 11.0483 6.22516 11.0613 6.28659C11.0742 6.34802 11.0749 6.4114 11.0634 6.4731C11.0518 6.5348 11.0282 6.59362 10.9939 6.64621C10.9596 6.69879 10.9153 6.74411 10.8635 6.77957C10.8117 6.81503 10.7534 6.83993 10.692 6.85287C10.6306 6.86581 10.5672 6.86652 10.5055 6.85496C10.4438 6.84341 10.385 6.81981 10.3324 6.78552C10.2798 6.75124 10.2345 6.70693 10.199 6.65512C9.91432 6.23814 9.50352 5.92332 9.02685 5.75681C8.55018 5.59029 8.03271 5.58083 7.55027 5.72981C7.06784 5.87879 6.64581 6.17838 6.34603 6.58468C6.04625 6.99097 5.8845 7.4826 5.88447 7.98752Z" fill="#933DED"></path></svg> 