<?xml version="1.0" encoding="UTF-8"?> <svg xmlns="http://www.w3.org/2000/svg" width="1920" height="882" viewBox="0 0 1920 882" fill="none"><rect width="1920" height="508" fill="#F4F5F8"></rect><g clip-path="url(#clip0_758_18524)"><rect width="1920" height="374" transform="translate(0 508)" fill="url(#paint0_linear_758_18524)"></rect><path d="M-1557.89 696.103C-1557.89 696.103 -1298.91 878.33 -1162.81 864.63C-1026.71 850.931 -947.048 755.234 -831.93 763.318C-678.167 774.116 -557.271 914.757 -429.49 826.798C-301.709 738.84 -259.125 927.254 -119.854 858.355C19.4176 789.457 147.803 943.754 179.562 841.889" stroke="url(#paint1_linear_758_18524)"></path><path d="M-1556.45 682.114C-1556.45 682.114 -1299.03 871.04 -1162.93 857.341C-1026.83 843.641 -947.171 747.944 -832.053 756.028C-678.29 766.826 -557.394 907.467 -429.613 819.509C-301.832 731.55 -259.248 919.964 -119.977 851.065C19.2943 782.167 147.68 936.464 179.438 834.599" stroke="url(#paint2_linear_758_18524)"></path><path d="M-1562 662.511C-1562 662.511 -1299.18 861.928 -1163.08 848.228C-1026.99 834.529 -947.326 738.832 -832.208 746.916C-678.445 757.714 -557.549 898.355 -429.768 810.396C-301.987 722.438 -259.403 910.852 -120.132 841.953C19.1393 773.055 147.525 927.352 179.283 825.487" stroke="url(#paint3_linear_758_18524)"></path><path d="M1923.97 793.392C1923.97 793.392 1647.72 638.401 1513.73 665.843C1379.74 693.286 1310.27 796.572 1194.92 800.215C1040.85 805.08 906.22 677.442 788.088 777.914C669.956 878.385 606.923 696.39 475.413 779.067C343.904 861.744 200.425 721.281 179.236 825.84" stroke="url(#paint4_linear_758_18524)"></path><path d="M1923.97 807.454C1923.97 807.454 1648.59 645.64 1514.6 673.082C1380.61 700.525 1311.13 803.811 1195.79 807.454C1041.72 812.319 907.089 684.681 788.957 785.153C670.825 885.624 607.169 705.617 475.659 788.294C344.149 870.971 200.57 730.508 179.381 835.067" stroke="url(#paint5_linear_758_18524)"></path><path d="M1931.49 826.392C1931.49 826.392 1649.67 654.689 1515.68 682.132C1381.69 709.574 1312.22 812.86 1196.87 816.503C1042.81 821.369 908.174 693.73 790.042 794.202C671.909 894.674 607.169 712.617 475.659 795.294C344.149 877.971 200.67 737.508 179.482 842.067" stroke="url(#paint6_linear_758_18524)"></path></g><defs><linearGradient id="paint0_linear_758_18524" x1="960" y1="0" x2="960" y2="374" gradientUnits="userSpaceOnUse"><stop stop-color="#F4F5F8"></stop><stop offset="1" stop-color="#F4F5F8" stop-opacity="0"></stop></linearGradient><linearGradient id="paint1_linear_758_18524" x1="-517.059" y1="757.238" x2="-514.829" y2="888.857" gradientUnits="userSpaceOnUse"><stop stop-color="#6B11C9"></stop><stop offset="1" stop-color="#6B11C9" stop-opacity="0.5"></stop></linearGradient><linearGradient id="paint2_linear_758_18524" x1="-517.182" y1="749.948" x2="-514.952" y2="881.567" gradientUnits="userSpaceOnUse"><stop stop-color="#E21284"></stop><stop offset="1" stop-color="#E21284" stop-opacity="0.5"></stop></linearGradient><linearGradient id="paint3_linear_758_18524" x1="-517.335" y1="740.835" x2="-515.105" y2="872.454" gradientUnits="userSpaceOnUse"><stop stop-color="#6B11C9"></stop><stop offset="1" stop-color="#6B11C9" stop-opacity="0.5"></stop></linearGradient><linearGradient id="paint4_linear_758_18524" x1="882.307" y1="838.224" x2="866.727" y2="707.505" gradientUnits="userSpaceOnUse"><stop stop-color="#6B11C9"></stop><stop offset="1" stop-color="#6B11C9" stop-opacity="0.5"></stop></linearGradient><linearGradient id="paint5_linear_758_18524" x1="883.176" y1="845.464" x2="867.596" y2="714.745" gradientUnits="userSpaceOnUse"><stop stop-color="#E21284"></stop><stop offset="1" stop-color="#E21284" stop-opacity="0.5"></stop></linearGradient><linearGradient id="paint6_linear_758_18524" x1="884.265" y1="854.513" x2="868.686" y2="723.794" gradientUnits="userSpaceOnUse"><stop stop-color="#6B11C9"></stop><stop offset="1" stop-color="#6B11C9" stop-opacity="0.5"></stop></linearGradient><clipPath id="clip0_758_18524"><rect width="1920" height="374" fill="white" transform="translate(0 508)"></rect></clipPath></defs></svg> 