<?xml version="1.0" encoding="UTF-8"?> <svg xmlns="http://www.w3.org/2000/svg" width="767" height="461" viewBox="0 0 767 461" fill="none"><g clip-path="url(#clip0_885_15165)"><path d="M631.443 66.4097C631.443 66.4097 601.723 117.751 524.979 117.454C448.235 117.156 395.954 54.1598 332.693 68.0035C248.196 86.4945 192.856 195.721 114.497 141.634C36.1376 87.5482 28.3057 225.527 -54.8348 185.901C-137.975 146.275 -196.329 265.81 -222.522 195.044C-248.715 124.278 -310.702 164.204 -310.702 164.204" stroke="url(#paint0_linear_885_15165)"></path><path d="M630.901 61.1777C630.901 61.1777 601.18 112.519 524.436 112.222C447.693 111.925 395.412 48.9279 332.151 62.7715C247.653 81.2626 192.313 190.489 113.954 136.402C35.5952 82.3162 27.7632 220.295 -55.3773 180.669C-138.518 141.043 -196.871 260.578 -223.064 189.812C-249.257 119.046 -311.244 158.972 -311.244 158.972" stroke="url(#paint1_linear_885_15165)"></path><path d="M630.221 54.6379C630.221 54.6379 600.501 105.979 523.757 105.682C447.014 105.385 394.733 42.3881 331.472 56.2317C246.974 74.7228 191.634 183.949 113.275 129.863C34.916 75.7764 27.084 213.755 -56.0565 174.129C-139.197 134.503 -197.55 254.038 -223.743 183.272C-249.936 112.506 -311.924 152.432 -311.924 152.432" stroke="url(#paint2_linear_885_15165)"></path><path d="M926.443 311.41C926.443 311.41 896.723 362.751 819.979 362.454C743.235 362.156 690.954 299.16 627.693 313.003C543.196 331.494 487.856 440.721 409.497 386.634C331.138 332.548 323.306 470.527 240.165 430.901C157.025 391.275 98.6714 510.81 72.4784 440.044C46.2854 369.278 -15.7019 409.204 -15.7019 409.204" stroke="url(#paint3_linear_885_15165)"></path><path d="M925.901 306.178C925.901 306.178 896.18 357.519 819.436 357.222C742.693 356.925 690.412 293.928 627.151 307.772C542.653 326.263 487.313 435.489 408.954 381.402C330.595 327.316 322.763 465.295 239.623 425.669C156.482 386.043 98.129 505.578 71.936 434.812C45.7429 364.046 -16.2444 403.972 -16.2444 403.972" stroke="url(#paint4_linear_885_15165)"></path><path d="M925.222 299.638C925.222 299.638 895.501 350.979 818.758 350.682C742.014 350.385 689.733 287.388 626.472 301.232C541.974 319.723 486.634 428.949 408.275 374.863C329.916 320.776 322.084 458.755 238.944 419.129C155.803 379.503 97.4503 499.038 71.2572 428.272C45.0642 357.506 -16.9231 397.432 -16.9231 397.432" stroke="url(#paint5_linear_885_15165)"></path></g><defs><linearGradient id="paint0_linear_885_15165" x1="157.294" y1="85.669" x2="167.099" y2="180.132" gradientUnits="userSpaceOnUse"><stop stop-color="#6B11C9"></stop><stop offset="1" stop-color="#F5F5F5"></stop></linearGradient><linearGradient id="paint1_linear_885_15165" x1="156.752" y1="80.4371" x2="166.557" y2="174.9" gradientUnits="userSpaceOnUse"><stop stop-color="#E21284"></stop><stop offset="1" stop-color="#F5F5F5"></stop></linearGradient><linearGradient id="paint2_linear_885_15165" x1="156.073" y1="73.8973" x2="165.878" y2="168.361" gradientUnits="userSpaceOnUse"><stop stop-color="#6B11C9"></stop><stop offset="1" stop-color="#F5F5F5"></stop></linearGradient><linearGradient id="paint3_linear_885_15165" x1="452.294" y1="330.669" x2="462.099" y2="425.132" gradientUnits="userSpaceOnUse"><stop stop-color="#6B11C9"></stop><stop offset="1" stop-color="#F5F5F5"></stop></linearGradient><linearGradient id="paint4_linear_885_15165" x1="451.752" y1="325.437" x2="461.557" y2="419.9" gradientUnits="userSpaceOnUse"><stop stop-color="#E21284"></stop><stop offset="1" stop-color="#F5F5F5"></stop></linearGradient><linearGradient id="paint5_linear_885_15165" x1="451.073" y1="318.897" x2="460.878" y2="413.361" gradientUnits="userSpaceOnUse"><stop stop-color="#6B11C9"></stop><stop offset="1" stop-color="#F5F5F5"></stop></linearGradient><clipPath id="clip0_885_15165"><rect width="767" height="461" fill="white"></rect></clipPath></defs></svg> 