<?xml version="1.0" encoding="UTF-8"?> <svg xmlns="http://www.w3.org/2000/svg" width="20" height="21" viewBox="0 0 20 21" fill="none"><path fill-rule="evenodd" clip-rule="evenodd" d="M10 20.0156C4.47688 20.0156 0 15.5387 0 10.0156C0 4.4925 4.47688 0.015625 10 0.015625C15.5231 0.015625 20 4.4925 20 10.0156C20 15.5387 15.5231 20.0156 10 20.0156ZM14.0625 11.9869C14.0625 10.41 13.0775 9.51937 10.7731 8.96437V6.18938C11.4856 6.33563 12.1675 6.6425 12.8344 7.12437L13.6837 5.75188C12.8471 5.13909 11.8645 4.75636 10.8337 4.64187V3.76562H9.515V4.6125C7.62 4.75875 6.33187 5.83937 6.33187 7.41625C6.33187 9.06625 7.3625 9.86937 9.57563 10.4244V13.2869C8.59 13.1406 7.77188 12.7025 6.9075 12.0306L5.9375 13.3594C6.9758 14.1587 8.21293 14.6588 9.515 14.8056V16.2656H10.8337V14.82C12.7587 14.6594 14.0625 13.5931 14.0625 11.9869ZM9.575 8.6575C8.40812 8.32187 8.12063 7.9275 8.12063 7.31375C8.12063 6.67188 8.62063 6.16063 9.57563 6.0875L9.575 8.6575ZM12.2738 12.0887C12.2738 12.79 11.7281 13.2719 10.7731 13.345V10.7019C11.9556 11.0381 12.2738 11.4319 12.2738 12.0894V12.0887Z" fill="#6B11C9"></path></svg> 