<?xml version="1.0" encoding="UTF-8"?> <svg xmlns="http://www.w3.org/2000/svg" width="20" height="21" viewBox="0 0 20 21" fill="none"><path fill-rule="evenodd" clip-rule="evenodd" d="M10 18.781C7.67936 18.781 5.45376 17.8591 3.81282 16.2182C2.17187 14.5772 1.25 12.3517 1.25 10.031C1.25 7.71036 2.17187 5.48476 3.81282 3.84382C5.45376 2.20288 7.67936 1.28101 10 1.28101C12.3206 1.28101 14.5462 2.20288 16.1872 3.84382C17.8281 5.48476 18.75 7.71036 18.75 10.031C18.75 12.3517 17.8281 14.5772 16.1872 16.2182C14.5462 17.8591 12.3206 18.781 10 18.781ZM10 20.031C12.6522 20.031 15.1957 18.9774 17.0711 17.1021C18.9464 15.2267 20 12.6832 20 10.031C20 7.37884 18.9464 4.8353 17.0711 2.95994C15.1957 1.08457 12.6522 0.0310059 10 0.0310059C7.34784 0.0310059 4.8043 1.08457 2.92893 2.95994C1.05357 4.8353 0 7.37884 0 10.031C0 12.6832 1.05357 15.2267 2.92893 17.1021C4.8043 18.9774 7.34784 20.031 10 20.031ZM6.875 11.9198C6.97 13.1123 7.9125 14.041 9.6025 14.151V15.031H10.3525V14.1448C12.1025 14.0223 13.125 13.0873 13.125 11.7298C13.125 10.496 12.3425 9.85976 10.9438 9.52976L10.3525 9.38976V6.99351C11.1025 7.07851 11.58 7.48851 11.695 8.05601H13.01C12.915 6.90726 11.93 6.00851 10.3525 5.91101V5.03101H9.6025V5.92976C8.10875 6.07601 7.09 6.97476 7.09 8.24601C7.09 9.37101 7.8475 10.086 9.10625 10.3798L9.6025 10.5023V13.0448C8.83375 12.9285 8.325 12.5073 8.21 11.9198H6.875ZM9.59625 9.21226C8.85875 9.04101 8.45875 8.69226 8.45875 8.16726C8.45875 7.57976 8.89 7.13976 9.6025 7.01101V9.21101H9.59625V9.21226ZM10.4613 10.7035C11.3575 10.911 11.7712 11.2473 11.7712 11.841C11.7712 12.5185 11.2562 12.9835 10.3525 13.0685V10.6785L10.4613 10.7035ZM5.13864 14.8924C6.42795 16.1817 8.17664 16.906 10 16.906C11.8234 16.906 13.572 16.1817 14.8614 14.8924C16.1507 13.6031 16.875 11.8544 16.875 10.031C16.875 8.20764 16.1507 6.45896 14.8614 5.16965C13.572 3.88033 11.8234 3.15601 10 3.15601C8.17664 3.15601 6.42795 3.88033 5.13864 5.16965C3.84933 6.45896 3.125 8.20764 3.125 10.031C3.125 11.8544 3.84933 13.6031 5.13864 14.8924ZM12.8701 16.9601C11.9602 17.337 10.9849 17.531 10 17.531C8.01088 17.531 6.10322 16.7408 4.6967 15.3343C3.29018 13.9278 2.5 12.0201 2.5 10.031C2.5 8.04188 3.29018 6.13423 4.6967 4.72771C6.10322 3.32118 8.01088 2.53101 10 2.53101C10.9849 2.53101 11.9602 2.725 12.8701 3.10191C13.7801 3.47882 14.6069 4.03127 15.3033 4.72771C15.9997 5.42414 16.5522 6.25094 16.9291 7.16088C17.306 8.07082 17.5 9.04609 17.5 10.031C17.5 11.0159 17.306 11.9912 16.9291 12.9011C16.5522 13.8111 15.9997 14.6379 15.3033 15.3343C14.6069 16.0307 13.7801 16.5832 12.8701 16.9601Z" fill="#A711A7"></path></svg> 