<svg width="25" height="25" viewBox="0 0 25 25" fill="none" xmlns="http://www.w3.org/2000/svg">
<path fill-rule="evenodd" clip-rule="evenodd" d="M12.276 0.0134277C13.3815 0.0134277 14.4698 0.159979 15.5235 0.448826V2.70115C14.4803 2.3475 13.3891 2.16832 12.2759 2.16832C6.69506 2.16832 2.15469 6.7085 2.15469 12.2894C2.15469 17.8701 6.69514 22.4105 12.276 22.4105C17.8569 22.4105 22.3973 17.8701 22.3973 12.2894C22.3973 11.1764 22.2179 10.0852 21.8644 9.04183H24.1166C24.4055 10.0956 24.5519 11.184 24.5519 12.2894C24.5519 19.0584 19.045 24.5654 12.276 24.5654C5.50704 24.5654 0 19.0584 0 12.2894C0 5.52041 5.50704 0.0134277 12.276 0.0134277ZM10.044 8.94141V16.7534H8.10277V10.5349H6.69598V8.94141H10.044ZM15.6123 8.94141C17.4087 8.94141 18.5403 9.73787 18.5403 10.9926C18.5403 11.6581 18.1554 12.2473 17.5138 12.5746C18.412 12.9237 18.972 13.6548 18.972 14.5058C18.972 15.8805 17.6654 16.7534 15.624 16.7534C13.5825 16.7534 12.276 15.8914 12.276 14.5386C12.276 13.6657 12.8826 12.9237 13.8274 12.5746C13.1392 12.2145 12.6959 11.6036 12.6959 10.9381C12.6959 9.71598 13.8392 8.94141 15.6123 8.94141ZM15.624 13.3493C14.7257 13.3493 14.2357 13.7094 14.2357 14.3422C14.2357 14.986 14.7257 15.346 15.624 15.346C16.5222 15.346 17.0238 14.9969 17.0238 14.3422C17.0238 13.7095 16.5222 13.3493 15.624 13.3493ZM15.624 10.218C14.8657 10.218 14.4458 10.5345 14.4458 11.1017C14.4458 11.6473 14.8657 11.9527 15.624 11.9527C16.3822 11.9527 16.8022 11.6473 16.8022 11.1017C16.8022 10.5345 16.3822 10.218 15.624 10.218ZM20.968 1.12943V3.5921H23.4359V5.36281H20.968V7.82541H19.1933V5.36281H16.74V3.5921H19.1933V1.12943H20.968Z" fill="white"/>
</svg>
