<svg width="156" height="17" viewBox="0 0 156 17" fill="none" xmlns="http://www.w3.org/2000/svg">
<path fill-rule="evenodd" clip-rule="evenodd" d="M6.04506 1.79865C8.40861 1.79865 9.21052 1.88048 9.91396 2.16313C11.2178 2.79009 12.0464 4.17446 12.0243 5.68888C12.0243 7.17654 11.6092 7.92037 10.2164 8.6642C11.6803 9.14874 12.6322 10.6401 12.5096 12.2569C12.5096 14.6818 10.7018 16.2959 8.06392 16.2959H0.769287V13.9082H1.81037V4.14915H0.769287V1.79865H6.04506ZM150.359 4.51706C151.949 4.50267 153.436 5.37274 154.309 6.82752C155.021 8.07755 155.378 9.53055 155.336 11.003H147.981C148.257 13.9099 149.953 14.0232 150.428 14.0232C151.39 14.0685 152.258 13.3943 152.538 12.3847L155.122 12.3168V12.347C154.647 14.8009 152.813 16.2959 150.359 16.2959C147.506 16.2959 145.396 13.8344 145.396 10.4065C145.396 6.97853 147.506 4.51706 150.359 4.51706ZM143.332 4.51688C143.722 4.53034 144.11 4.58255 144.492 4.6729V7.36413C144.085 7.27541 143.671 7.22582 143.256 7.21591C141.999 7.11285 140.903 8.17562 140.804 9.59511V14.0649H142.034V16.2959H137.261V14.0649H138.283V6.98189H137.261V4.7509H140.714L140.742 6.59966C141.433 5.13314 142.172 4.51688 143.332 4.51688ZM62.9643 4.51688C64.4956 4.51688 65.359 5.65704 65.359 7.63689V14.8553H66.7554V16.2265H63.9694V8.2686C63.9694 6.67393 63.504 5.91126 62.5056 5.91126C60.772 5.91126 59.8074 8.2686 59.8074 9.1006V14.8784H61.2712V16.2497H58.3773V8.01438C58.3773 6.57378 57.9118 5.95748 56.9135 5.95748C55.3822 5.95748 54.2152 8.16075 54.2152 9.22386V14.9246H55.7262V16.2959H51.3888V14.9323H52.8526V6.11156H51.3888V4.748H54.3164L54.3771 6.95126C54.8426 6.18089 55.7262 4.59392 57.5745 4.59392C58.9237 4.59392 59.5982 5.36429 59.9018 6.95126C60.1507 6.42308 60.4642 5.93802 60.8327 5.51067C61.4112 4.88986 62.1707 4.53582 62.9643 4.51688ZM71.3738 0.892578V7.30627C71.7649 6.49242 72.8785 4.8722 74.5821 4.8722C76.8028 4.8722 78.5063 7.44813 78.5063 10.696C78.5063 13.6826 76.6702 16.2959 74.5821 16.2959C72.8123 16.2959 71.9306 14.9669 71.3738 14.0559V16.1167H68.5632V14.8175H69.9354V2.22161H68.6096V0.892578H71.3738ZM90.2194 4.51688C92.7322 4.51688 94.7769 6.70438 94.7769 10.7046H87.3693C87.507 12.3643 87.8443 13.351 88.5259 14.1006C89.0431 14.6376 89.7184 14.9475 90.426 14.9725C91.5826 14.9725 92.3261 14.3683 92.8699 13.0068L94.5607 12.9299L94.5138 13.1321C94.3661 13.6864 94.1082 14.1979 93.758 14.6283C92.9463 15.6937 91.7512 16.3044 90.4948 16.2958C87.7411 16.2958 85.7377 13.8787 85.7377 10.4063C85.7377 7.08681 87.7066 4.51688 90.2194 4.51688ZM31.8857 1.79992C33.6348 1.75973 35.2605 2.6795 36.0996 4.18398V2.01278H37.5983V6.42614H36.0416C35.8979 5.82014 35.6321 5.24841 35.2597 4.74452C34.524 3.83953 33.4331 3.2805 32.255 3.20482C30.539 3.20482 27.9687 4.67357 27.9687 8.94502C27.9687 12.3083 29.8295 14.7562 32.255 14.7562C34.1695 14.6739 35.7711 13.3045 36.114 11.4568C36.1741 11.0886 36.1984 10.7156 36.1864 10.3428H32.827L32.8994 9.07983V9.08693H37.83V15.9482H36.2299V13.777C35.9325 14.2648 35.5723 14.7131 35.1583 15.1109C34.2601 15.8605 33.1233 16.2796 31.9436 16.2959C28.6566 16.2959 26.079 13.1455 26.079 9.08693C26.079 5.02834 28.6855 1.79992 31.8857 1.79992ZM19.2944 4.51706C20.8847 4.50267 22.3731 5.37274 23.2467 6.82752C23.9563 8.07838 24.3116 9.53132 24.2675 11.003H16.9147C17.1837 13.9099 18.8874 14.0232 19.3633 14.0232C20.3254 14.0658 21.1925 13.3926 21.474 12.3847L24.0606 12.3168V12.347C23.5847 14.8009 21.7499 16.2959 19.2944 16.2959C16.4387 16.2959 14.3281 13.8344 14.3281 10.4065C14.3281 6.97853 16.4387 4.51706 19.2944 4.51706ZM104.161 1.79865L108.152 13.9514H109.24V16.2959H105.977L105.036 13.1501H99.9579L99.0172 16.2959H95.6808V13.9514H96.7685L100.685 1.79865H104.161ZM44.0179 4.5181C46.1727 4.5181 47.9824 5.57102 47.9824 8.4322V14.681H49.4401L49.5809 16.0391H46.56V14.002C45.8672 15.4117 44.513 16.292 43.039 16.2909C41.2802 16.3917 39.7694 14.9513 39.6378 13.0482V12.827C39.6378 10.6372 41.3701 9.5843 45.5459 9.13414L46.5177 9.05784V7.90574C46.4896 6.62393 45.5812 5.79228 44.1235 5.79228C42.6658 5.79228 41.8983 6.31874 41.6236 7.82181H40.0251C40.1741 6.91819 40.604 6.09701 41.2434 5.49472C42.0394 4.83799 43.0176 4.49364 44.0179 4.5181ZM130.275 4.51688C133.14 4.51688 134.638 5.94333 134.638 8.50634L134.569 13.846V13.8841H135.453V16.0657H132.256V14.7079C131.488 15.7422 130.332 16.3276 129.121 16.2946C127.05 16.2946 125.51 14.769 125.51 12.7552C125.51 9.43696 128.914 9.06319 132.187 8.7657C132.187 7.03413 131.642 6.47729 130.344 6.47729C129.045 6.47729 128.576 7.14855 128.507 8.20885V8.2775L126.049 8.20885C126.187 5.92044 127.823 4.51688 130.275 4.51688ZM114.335 4.51688V6.618H113.289L114.752 13.0683L116.498 4.51688H119.212L120.958 12.9434L122.372 6.6327H121.326V4.51688H125.51V6.618H124.598L122.372 15.3898H119.58L117.834 7.85223L116.159 15.3898H113.331L111.055 6.618H110.144V4.51688H114.335ZM82.4973 0.892578V14.1267H83.9299V15.3898H79.4103V14.1267H80.9646V2.06343H79.4532V0.892578H82.4973ZM46.5741 10.1642H46.56L45.5812 10.3168C42.3841 10.7669 41.356 11.3697 41.356 12.8041C41.4093 14.0443 42.3652 15.0124 43.5108 14.9862C45.0499 14.9296 46.3352 13.6971 46.5741 12.0487V10.1642ZM74.1712 6.1191C72.6057 6.30559 71.3892 7.73901 71.2943 9.50887L71.3606 11.4203L71.3738 11.4277C71.3673 13.225 72.582 14.7295 74.1712 14.8922C75.8747 14.8922 76.9221 13.1973 76.9221 10.472C76.9221 7.74679 75.8217 6.1191 74.1712 6.1191ZM132.187 10.7185H132.118C129.729 10.9473 128.162 11.1685 128.162 12.7552C128.162 13.6553 128.852 14.2808 129.867 14.2808C131.096 14.2832 132.114 13.2259 132.187 11.8703V10.7185ZM7.29718 9.8692L4.65929 9.94358V13.9082H7.57152C8.09702 13.9639 8.62158 13.7933 9.02666 13.435C9.43173 13.0766 9.68313 12.5608 9.72403 12.004V11.9296C9.72403 10.68 8.75329 9.8692 7.29718 9.8692ZM102.42 4.50668L100.538 10.954H104.308L102.42 4.50668ZM90.3571 5.88598C89.0663 5.94134 87.9544 6.91411 87.6034 8.29528C87.5045 8.66468 87.4376 9.04373 87.4037 9.42727L93.0765 9.41963C93.0734 8.35753 92.7095 7.33587 92.0576 6.55906C91.5975 6.08578 90.9829 5.84254 90.3571 5.88598ZM150.401 6.79732H150.332C149.191 6.82406 148.226 7.72705 148.023 8.95677L152.441 9.03228L152.469 9.06248C152.469 7.81146 151.543 6.79732 150.401 6.79732ZM19.4047 6.79732H19.3357C18.1934 6.82114 17.2257 7.72549 17.025 8.95677L21.4464 9.03228L21.474 9.06248C21.474 7.81146 20.5476 6.79732 19.4047 6.79732ZM7.15649 4.14915H4.65929V7.66747H7.36752C8.343 7.7626 9.20901 7.00943 9.309 5.97897V5.83765C9.309 4.87811 8.40861 4.14915 7.15649 4.14915Z" fill="white"/>
</svg>
