<?xml version="1.0" encoding="UTF-8"?> <svg xmlns="http://www.w3.org/2000/svg" width="16" height="16" viewBox="0 0 16 16" fill="none"><path d="M14.2222 0H1.77778C0.8 0 0 0.8 0 1.77778V14.2222C0 15.2 0.8 16 1.77778 16H14.2222C15.2 16 16 15.2 16 14.2222V1.77778C16 0.8 15.2 0 14.2222 0ZM4 13.3333C3.26222 13.3333 2.66667 12.7378 2.66667 12C2.66667 11.2622 3.26222 10.6667 4 10.6667C4.73778 10.6667 5.33333 11.2622 5.33333 12C5.33333 12.7378 4.73778 13.3333 4 13.3333ZM4 5.33333C3.26222 5.33333 2.66667 4.73778 2.66667 4C2.66667 3.26222 3.26222 2.66667 4 2.66667C4.73778 2.66667 5.33333 3.26222 5.33333 4C5.33333 4.73778 4.73778 5.33333 4 5.33333ZM8 9.33333C7.26222 9.33333 6.66667 8.73778 6.66667 8C6.66667 7.26222 7.26222 6.66667 8 6.66667C8.73778 6.66667 9.33333 7.26222 9.33333 8C9.33333 8.73778 8.73778 9.33333 8 9.33333ZM12 13.3333C11.2622 13.3333 10.6667 12.7378 10.6667 12C10.6667 11.2622 11.2622 10.6667 12 10.6667C12.7378 10.6667 13.3333 11.2622 13.3333 12C13.3333 12.7378 12.7378 13.3333 12 13.3333ZM12 5.33333C11.2622 5.33333 10.6667 4.73778 10.6667 4C10.6667 3.26222 11.2622 2.66667 12 2.66667C12.7378 2.66667 13.3333 3.26222 13.3333 4C13.3333 4.73778 12.7378 5.33333 12 5.33333Z" fill="#25B573"></path></svg> 