<svg width="94" height="27" viewBox="0 0 94 27" fill="none" xmlns="http://www.w3.org/2000/svg">
<path fill-rule="evenodd" clip-rule="evenodd" d="M12.0096 0C17.7827 0 22.4509 4.67938 22.4354 10.4662V16.5338C22.4354 22.3206 17.7671 27 12.0096 27H10.9982L10.7197 26.9964C5.07575 26.8483 0.556885 22.2119 0.556885 16.5338V0.343154C0.556885 0.155979 0.712493 0 0.899222 0H12.0096ZM11.7295 3.35355C6.40774 3.35355 3.91801 6.51993 3.91801 10.8562V16.1127C3.91801 20.4489 6.40774 23.6153 11.7295 23.6153C16.211 23.6153 19.1053 20.636 19.1053 16.7054V12.5875C19.1053 12.3224 18.9497 12.182 18.6852 12.182H12.1652C11.9163 12.182 11.7606 12.3536 11.7606 12.6187V15.3795C11.7606 15.6603 11.9318 15.8007 12.1652 15.8007H15.1529V16.4402C15.1529 18.7175 13.9703 19.7626 11.7295 19.7626C8.99083 19.7626 8.0883 18.156 8.0883 15.9879V10.9965C8.0883 8.82842 9.00639 7.22184 11.7295 7.22184C13.4879 7.22184 14.4527 8.01733 14.9039 9.49913C15.0129 9.84229 15.1996 9.95147 15.5419 9.84229L18.4362 8.9844C18.7319 8.87522 18.8719 8.65685 18.763 8.2825C17.985 5.81802 16.0399 3.35355 11.7295 3.35355ZM65.0097 7.22184C67.6239 7.22184 68.8532 8.61005 69.3044 10.3726C69.3511 10.591 69.2889 10.747 69.0866 10.8094L67.3282 11.3241C67.1104 11.3865 67.0014 11.3085 66.9236 11.1057C66.6746 10.279 66.2389 9.60832 65.0252 9.60832C63.5158 9.60832 63.0334 10.6066 63.0334 11.948V15.0364C63.0334 16.3778 63.5781 17.3761 65.0252 17.3761C66.3167 17.3761 66.8147 16.643 67.017 15.7383C67.0637 15.5355 67.2037 15.4419 67.4216 15.5199L69.1799 16.0815C69.3822 16.1438 69.4445 16.2998 69.3978 16.5182C68.9776 18.312 67.6861 19.7782 65.0097 19.7782C61.9909 19.7782 60.4815 17.8128 60.4815 15.13V11.87C60.4815 9.18718 62.0375 7.22184 65.0097 7.22184ZM31.4606 7.20624C34.1215 7.22184 35.3197 8.75043 35.8021 10.279C35.8643 10.513 35.7865 10.6534 35.5998 10.7158L33.8103 11.2461C33.5924 11.3085 33.4835 11.2461 33.4057 11.0277C33.1256 10.1075 32.5343 9.62392 31.4295 9.62392C29.7489 9.62392 29.1732 10.6222 29.1732 11.9636V15.052C29.1732 16.3934 29.7334 17.3917 31.4295 17.3917C32.8144 17.3917 33.5457 16.7522 33.5457 15.3328V14.9272H31.7251C31.5695 14.9272 31.4762 14.8492 31.4762 14.662V12.9463C31.4606 12.8215 31.554 12.6967 31.694 12.6811H35.7709C35.9421 12.6811 36.0355 12.7591 36.0355 12.9307V15.4887C36.0355 17.922 34.246 19.7626 31.4606 19.7626C28.1617 19.7626 26.6212 17.7972 26.6212 15.1144V11.8544C26.6212 9.17158 28.1617 7.20624 31.4606 7.20624ZM90.0936 10.1854C92.6767 10.1854 93.9371 11.8232 93.9371 13.8666V15.3328C93.9371 15.5823 93.8593 15.7539 93.5014 15.7539L88.4597 15.7383V16.0815C88.4597 17.0485 88.9577 17.7192 90.1247 17.7192C91.2607 17.7192 91.5875 17.2825 91.8831 16.7366C92.0387 16.487 92.101 16.4558 92.3655 16.565L93.6726 17.2357C93.9371 17.3761 93.9527 17.5009 93.8438 17.7504C93.2836 19.0295 91.8676 19.7626 90.1247 19.7626C87.4794 19.7626 86.0789 18.1872 86.0789 16.0347V13.9133C86.0789 11.8232 87.386 10.1854 90.0936 10.1854ZM41.2795 10.1542C43.5824 10.1698 44.874 11.2773 44.874 13.3206V19.3102C44.8896 19.435 44.7806 19.5442 44.6561 19.5598H42.8044C42.6799 19.5754 42.5554 19.4818 42.5399 19.3414V18.3276C42.0108 19.2166 41.0616 19.7626 40.019 19.747C38.2918 19.747 37.187 18.6395 37.187 16.9237C37.187 15.2548 38.2295 14.2721 40.7815 14.0849C41.3261 14.0381 41.8863 14.0381 42.4465 14.0693V13.3986C42.4465 12.5095 41.9797 12.1508 41.1861 12.1508C40.3769 12.1508 40.1435 12.4783 39.9257 12.9931C39.8479 13.1958 39.7701 13.227 39.5989 13.1802L37.7783 12.7123C37.5915 12.6655 37.576 12.5563 37.6071 12.4315C37.8561 11.1213 39.1009 10.1542 41.2795 10.1542ZM74.5329 10.1542C76.8358 10.1698 78.1274 11.2773 78.1274 13.3206V19.3102C78.1429 19.435 78.034 19.5442 77.9095 19.5598H76.0578C75.9333 19.5754 75.8088 19.4818 75.7933 19.3414V18.3276C75.2642 19.2166 74.315 19.7626 73.2724 19.747C71.5452 19.747 70.4404 18.6395 70.4404 16.9237C70.4404 15.2548 71.4829 14.2721 74.0349 14.0849C74.5795 14.0381 75.1397 14.0381 75.6999 14.0693V13.3986C75.6999 12.5095 75.2331 12.1508 74.4395 12.1508C73.6303 12.1508 73.3969 12.4783 73.1791 12.9931C73.1013 13.1958 73.0235 13.227 72.8523 13.1802L71.0317 12.7123C70.8449 12.6655 70.8294 12.5563 70.8605 12.4315C71.1095 11.1213 72.3543 10.1542 74.5329 10.1542ZM56.3734 10.1698C57.9762 10.1698 58.8943 11.4489 58.8943 13.3518V19.3102C58.8943 19.4662 58.7542 19.5598 58.5986 19.5598H56.7002C56.529 19.5598 56.4045 19.4662 56.4045 19.3102V13.7886C56.4045 12.9619 56.0466 12.4627 55.3931 12.4627C54.7084 12.4627 54.2105 13.0243 53.9771 13.8821V19.3102C53.9926 19.435 53.8837 19.5442 53.7592 19.5598H51.6896C51.534 19.5598 51.4718 19.4662 51.4718 19.3102V13.7886C51.4718 12.9619 51.0983 12.4627 50.4603 12.4627C49.7601 12.4627 49.2621 13.0555 49.0443 13.9133V19.3258C49.0598 19.4506 48.9665 19.5598 48.842 19.5754H46.788C46.6635 19.591 46.5546 19.4974 46.539 19.3726V10.6222C46.539 10.4974 46.6479 10.3882 46.7724 10.3882H48.7175C48.842 10.3726 48.9509 10.4662 48.9665 10.6066V11.6672C49.4955 10.8873 50.2891 10.1698 51.4406 10.1698C52.5921 10.1698 53.3546 10.8562 53.7125 11.8388C54.3972 10.8406 55.2219 10.1698 56.3734 10.1698ZM84.7874 10.2634C85.1453 10.2634 85.2075 10.3102 85.2075 10.5442V12.3224C85.2075 12.5407 85.1297 12.6187 84.9119 12.6187H84.6474C83.3247 12.6187 82.5467 13.2114 82.2821 14.2097V19.3258C82.2977 19.4506 82.2043 19.5598 82.0798 19.5754H79.9791C79.8546 19.5754 79.7613 19.4662 79.7613 19.3414V10.6066C79.7613 10.4818 79.8546 10.3726 79.9636 10.3726H81.8775C82.0798 10.3726 82.1265 10.4974 82.1265 10.6378V11.87C82.5622 11.0589 83.3714 10.2634 84.7874 10.2634ZM40.9838 15.6447C40.0502 15.7539 39.5678 16.0503 39.5678 16.7522C39.5678 17.3917 40.0035 17.7504 40.7037 17.7504C41.5129 17.7504 42.1509 17.3137 42.4465 16.4714V15.5979C41.9641 15.5823 41.4662 15.5979 40.9838 15.6447ZM74.2216 15.6447C73.288 15.7539 72.8056 16.0503 72.8056 16.7522C72.8056 17.3917 73.2413 17.7504 73.9415 17.7504C74.7663 17.7504 75.3887 17.3137 75.6843 16.4714V15.5979C75.202 15.5823 74.704 15.5979 74.2216 15.6447ZM90.0625 12.1976C88.9733 12.1976 88.4597 12.8995 88.4597 13.7886V14.1005H91.6497V13.7886C91.6497 12.8995 91.1518 12.1976 90.0625 12.1976Z" fill="white"/>
</svg>
