<?xml version="1.0" encoding="UTF-8"?> <svg xmlns="http://www.w3.org/2000/svg" width="107" height="106" viewBox="0 0 107 106" fill="none"><circle cx="53.5" cy="53" r="53" fill="white"></circle><path d="M72.2876 17.3573C69.2772 17.3573 66.8276 14.9077 66.8276 11.8973C66.8276 8.88685 69.2772 6.43726 72.2876 6.43726C75.298 6.43726 77.7476 8.88685 77.7476 11.8973C77.7476 14.9077 75.298 17.3573 72.2876 17.3573ZM72.2876 9.55726C70.9971 9.55726 69.9476 10.6067 69.9476 11.8973C69.9476 13.1878 70.9971 14.2373 72.2876 14.2373C73.5781 14.2373 74.6276 13.1878 74.6276 11.8973C74.6276 10.6067 73.5781 9.55726 72.2876 9.55726Z" fill="#929F99"></path><path d="M35.7663 19.5326C36.7418 19.5326 37.5326 18.7418 37.5326 17.7663C37.5326 16.7908 36.7418 16 35.7663 16C34.7908 16 34 16.7908 34 17.7663C34 18.7418 34.7908 19.5326 35.7663 19.5326Z" fill="#929F99"></path><path d="M3.76189 33.683C3.36292 33.683 2.96356 33.5305 2.65897 33.2259C2.04979 32.6168 2.04979 31.6293 2.65897 31.0201L8.39002 25.2887C8.99919 24.6795 9.98667 24.6795 10.5959 25.2887C11.205 25.8979 11.205 26.8853 10.5959 27.4945L4.86481 33.2259C4.56022 33.5305 4.16125 33.683 3.76189 33.683Z" fill="#929F99"></path><path d="M9.49332 33.6829C9.09435 33.6829 8.69499 33.5304 8.3904 33.2258L2.65897 27.4948C2.04979 26.8856 2.04979 25.8981 2.65897 25.2889C3.26815 24.6797 4.25563 24.6797 4.86481 25.2889L10.5959 31.02C11.205 31.6292 11.205 32.6166 10.5959 33.2258C10.2913 33.5304 9.89229 33.6829 9.49332 33.6829Z" fill="#929F99"></path><path d="M101.015 52.0063C102.067 52.0063 102.919 51.1535 102.919 50.1016C102.919 49.0496 102.067 48.1968 101.015 48.1968C99.9626 48.1968 99.1098 49.0496 99.1098 50.1016C99.1098 51.1535 99.9626 52.0063 101.015 52.0063Z" fill="#929F99"></path><path d="M19.0079 32.2793H88.1886V69.8775H19.0079V32.2793Z" fill="#F9FBFA"></path><path d="M88.5 71H19.5C18.6716 71 18 70.3208 18 69.4815V31.5185C18 30.6792 18.6716 30 19.5 30H88.5C89.3284 30 90 30.6792 90 31.5185V69.4815C90 70.3208 89.3284 71 88.5 71ZM21 67.963H87V33.037H21V67.963Z" fill="#303834"></path><path d="M42.5 37C41.6716 37 41 36.3738 41 35.6V31.4C41 30.6262 41.6716 30 42.5 30C43.3284 30 44 30.6262 44 31.4V35.6C44 36.3738 43.3284 37 42.5 37Z" fill="#303834"></path><path d="M64.5 38C63.6716 38 63 37.2844 63 36.4V31.6C63 30.7156 63.6716 30 64.5 30C65.3284 30 66 30.7156 66 31.6V36.4C66 37.2844 65.3284 38 64.5 38Z" fill="#303834"></path><path d="M42.5 71C41.6716 71 41 70.3738 41 69.6V65.4C41 64.6262 41.6716 64 42.5 64C43.3284 64 44 64.6262 44 65.4V69.6C44 70.3738 43.3284 71 42.5 71Z" fill="#303834"></path><path d="M64.5 71C63.6716 71 63 70.2844 63 69.4V64.6C63 63.7156 63.6716 63 64.5 63C65.3284 63 66 63.7156 66 64.6V69.4C66 70.2844 65.3284 71 64.5 71Z" fill="#303834"></path><path d="M31.4985 64C30.7778 64 30.1429 63.4683 30.0206 62.7181C28.8098 55.2926 32.9816 50.9188 36 49.234V44.0667H30V47.1333C30 47.9809 29.3284 48.6667 28.5 48.6667C27.6716 48.6667 27 47.9809 27 47.1333V42.5333C27 41.6858 27.6716 41 28.5 41H37.5C38.3284 41 39 41.6858 39 42.5333V50.2C39 50.8275 38.6265 51.3903 38.0573 51.6241C37.8038 51.7303 31.7044 54.3929 32.9794 62.2152C33.1155 63.0493 32.5635 63.8398 31.7467 63.9793C31.6635 63.9939 31.5799 64 31.4985 64Z" fill="#25B573"></path><path d="M52.4985 64C51.7778 64 51.1429 63.4683 51.0206 62.7181C49.8097 55.2926 53.9816 50.9188 57 49.234V44.0667H51V47.1333C51 47.9809 50.3284 48.6667 49.5 48.6667C48.6716 48.6667 48 47.9809 48 47.1333V42.5333C48 41.6858 48.6716 41 49.5 41H58.5C59.3284 41 60 41.6858 60 42.5333V50.2C60 50.8275 59.6265 51.3903 59.0572 51.6241C58.8037 51.7303 52.7044 54.3929 53.9794 62.2152C54.1155 63.0493 53.5635 63.8398 52.7468 63.9793C52.6635 63.9939 52.5799 64 52.4985 64Z" fill="#25B573"></path><path d="M74.4985 63C73.7778 63 73.1429 62.4914 73.0206 61.7739C71.8097 54.6712 75.9816 50.4875 79 48.876V43.9333H73V46.8667C73 47.6774 72.3284 48.3333 71.5 48.3333C70.6716 48.3333 70 47.6774 70 46.8667V42.4667C70 41.656 70.6716 41 71.5 41H80.5C81.3284 41 82 41.656 82 42.4667V49.8C82 50.4002 81.6265 50.9385 81.0572 51.1622C80.8037 51.2637 74.7044 53.8106 75.9794 61.2928C76.1155 62.0907 75.5635 62.8467 74.7468 62.9802C74.6635 62.9941 74.5799 63 74.4985 63Z" fill="#25B573"></path><path d="M81.0236 78.0079H73.504C72.6734 78.0079 72.0001 77.3352 72.0001 76.5039C72.0001 75.6726 72.6734 75 73.504 75H81.0236C81.8542 75 82.5276 75.6726 82.5276 76.5039C82.5276 77.3352 81.8542 78.0079 81.0236 78.0079Z" fill="#929F99"></path><path d="M81.0236 96.055H73.504C72.6734 96.055 72.0001 95.3823 72.0001 94.551C72.0001 93.7197 72.6734 93.0471 73.504 93.0471H81.0236C81.8542 93.0471 82.5276 93.7197 82.5276 94.551C82.5276 95.3823 81.8542 96.055 81.0236 96.055Z" fill="#929F99"></path><path d="M88.5432 87.0313H73.5039C72.6734 87.0313 72 86.3587 72 85.5274C72 84.6961 72.6734 84.0234 73.5039 84.0234H88.5432C89.3738 84.0234 90.0471 84.6961 90.0471 85.5274C90.0471 86.3587 89.3738 87.0313 88.5432 87.0313Z" fill="#929F99"></path><path d="M34.5714 96H27.4286C26.6396 96 26 95.3291 26 94.5C26 93.6709 26.6396 93 27.4286 93H34.5714C35.3604 93 36 93.6709 36 94.5C36 95.3291 35.3604 96 34.5714 96Z" fill="#929F99"></path><path d="M34.5714 78H27.4286C26.6396 78 26 77.3291 26 76.5C26 75.6709 26.6396 75 27.4286 75H34.5714C35.3604 75 36 75.6709 36 76.5C36 77.3291 35.3604 78 34.5714 78Z" fill="#929F99"></path><path d="M34.5 87H19.5C18.6716 87 18 86.3291 18 85.5C18 84.6709 18.6716 84 19.5 84H34.5C35.3284 84 36 84.6709 36 85.5C36 86.3291 35.3284 87 34.5 87Z" fill="#929F99"></path><path fill-rule="evenodd" clip-rule="evenodd" d="M54 99C60.6274 99 66 93.6274 66 87C66 80.3726 60.6274 75 54 75C47.3726 75 42 80.3726 42 87C42 93.6274 47.3726 99 54 99ZM54 96C58.9706 96 63 91.9706 63 87C63 82.0294 58.9706 78 54 78C49.0294 78 45 82.0294 45 87C45 91.9706 49.0294 96 54 96Z" fill="#303834"></path><circle cx="54" cy="87" r="9" fill="#F98E58"></circle><path d="M58 87L52 90.4641L52 83.5359L58 87Z" fill="white"></path></svg> 