<?xml version="1.0" encoding="UTF-8"?> <svg xmlns="http://www.w3.org/2000/svg" width="118" height="117" viewBox="0 0 118 117" fill="none"><circle cx="58.5" cy="59" r="53" fill="white"></circle><path d="M89.7491 59.5792H23.5055V43.2161C23.5055 33.999 30.9602 26.5271 40.1556 26.5271H73.0994C82.2948 26.5271 89.7491 33.999 89.7491 43.2161V59.5792Z" fill="#25B573"></path><path d="M89.5 61H23.5C22.6709 61 22 60.3256 22 59.4938V43.1629C22 33.148 30.1139 25 40.0881 25H72.9123C82.8865 25 91 33.148 91 43.1629V59.4938C91 60.3256 90.3291 61 89.5 61ZM25 57.9877H88V43.1629C88 34.8089 81.2309 28.0123 72.9123 28.0123H40.0881C31.7691 28.0123 25.0004 34.8093 25.0004 43.1629V57.9877H25Z" fill="#303834"></path><path d="M70.6982 100.473H42.8713C34.8939 100.473 28.4268 93.9903 28.4268 85.994V48.5734C28.4268 40.5771 34.8939 34.0948 42.8713 34.0948H70.6982C78.6756 34.0948 85.1427 40.5771 85.1427 48.5734V85.994C85.1427 93.9903 78.6756 100.473 70.6982 100.473Z" fill="#F98E58"></path><path d="M70.9765 102H43.0235C34.1884 102 27 94.869 27 86.1036V48.8964C27 40.131 34.1884 33 43.0235 33H70.9765C79.8116 33 87 40.131 87 48.8964V86.1036C87 94.869 79.8116 102 70.9765 102ZM43.0235 36.0013C35.8559 36.0013 30.0248 41.7864 30.0248 48.8968V86.104C30.0248 93.2144 35.8559 98.9994 43.0235 98.9994H70.9765C78.1441 98.9994 83.9752 93.2144 83.9752 86.104V48.8968C83.9752 41.7864 78.1441 36.0013 70.9765 36.0013H43.0235Z" fill="#303834"></path><path d="M23.538 49.1631H89.7496V89.964H23.538V49.1631Z" fill="#F4FCF8"></path><path d="M89.4993 91H23.5007C22.6712 91 22 90.3369 22 89.5191V49.4809C22 48.6631 22.6712 48 23.5007 48H89.4993C90.3288 48 91 48.6631 91 49.4809V89.5191C91 90.3369 90.3288 91 89.4993 91ZM25.0014 88.0382H87.9986V50.9618H25.0014V88.0382Z" fill="#303834"></path><path d="M89.7491 82.0182H23.5055C22.6734 82.0182 22 81.3425 22 80.5091C22 79.6757 22.6734 79 23.5055 79H89.7491C90.5813 79 91.2547 79.6757 91.2547 80.5091C91.2547 81.3425 90.5813 82.0182 89.7491 82.0182Z" fill="#303834"></path><path d="M89.7491 68.7817H98.8324V76.3272H89.7491V68.7817Z" fill="#BF7E68"></path><path d="M98.5062 78H89.4938C88.6681 78 88 77.3604 88 76.5714V69.4286C88 68.6396 88.6681 68 89.4938 68H98.5062C99.3319 68 100 68.6396 100 69.4286V76.5714C100 77.3604 99.3319 78 98.5062 78ZM90.9876 75.1429H97.0124V70.8571H90.9876V75.1429Z" fill="#303834"></path><path d="M98.5 76C97.6709 76 97 75.3403 97 74.5266V53.4734C97 52.6597 97.6709 52 98.5 52C99.3291 52 100 52.6597 100 53.4734V74.5266C100 75.3403 99.3291 76 98.5 76Z" fill="#303834"></path><path d="M98.8328 53.698C100.993 53.698 102.744 51.9427 102.744 49.7774C102.744 47.6121 100.993 45.8568 98.8328 45.8568C96.6726 45.8568 94.9214 47.6121 94.9214 49.7774C94.9214 51.9427 96.6726 53.698 98.8328 53.698Z" fill="#BF7E68"></path><path d="M98.4992 57C95.4674 57 93 54.5324 93 51.4996C93 48.4668 95.4674 46 98.4992 46C101.533 46 104 48.4668 104 51.4996C104 54.5324 101.533 57 98.4992 57ZM98.4992 49.0573C97.153 49.0573 96.057 50.1529 96.057 51.4996C96.057 52.8467 97.1526 53.9427 98.4992 53.9427C99.847 53.9427 100.943 52.8471 100.943 51.4996C100.943 50.1533 99.847 49.0573 98.4992 49.0573Z" fill="#303834"></path><path d="M68.6717 58.2177H80.716V80.854H68.6717V58.2177Z" fill="white"></path><path d="M80.5 82H68.5C67.6709 82 67 81.3415 67 80.5294V58.4706C67 57.6585 67.6709 57 68.5 57H80.5C81.3291 57 82 57.6585 82 58.4706V80.5294C82 81.3415 81.3291 82 80.5 82ZM70 79.0588H79V59.9412H70V79.0588Z" fill="#303834"></path><path d="M32.5388 58.2177H44.5831V80.854H32.5388V58.2177Z" fill="white"></path><path d="M44.5 82H32.5C31.6709 82 31 81.3415 31 80.5294V58.4706C31 57.6585 31.6709 57 32.5 57H44.5C45.3291 57 46 57.6585 46 58.4706V80.5294C46 81.3415 45.3291 82 44.5 82ZM34 79.0588H43V59.9412H34V79.0588Z" fill="#303834"></path><path d="M50.6052 58.2177H62.6495V80.854H50.6052V58.2177Z" fill="white"></path><path d="M62.5 82H50.5C49.6709 82 49 81.3415 49 80.5294V58.4706C49 57.6585 49.6709 57 50.5 57H62.5C63.3291 57 64 57.6585 64 58.4706V80.5294C64 81.3415 63.3291 82 62.5 82ZM52 79.0588H61V59.9412H52V79.0588Z" fill="#303834"></path><path d="M74.6938 76.3271C73.8616 76.3271 73.1883 75.6514 73.1883 74.818V64.2543C73.1883 63.4209 73.8616 62.7452 74.6938 62.7452C75.526 62.7452 76.1994 63.4209 76.1994 64.2543V74.818C76.1994 75.6514 75.526 76.3271 74.6938 76.3271Z" fill="#F98E58"></path><path d="M56.6273 76.3271C55.7951 76.3271 55.1218 75.6514 55.1218 74.818V64.2543C55.1218 63.4209 55.7951 62.7452 56.6273 62.7452C57.4595 62.7452 58.1329 63.4209 58.1329 64.2543V74.818C58.1329 75.6514 57.4595 76.3271 56.6273 76.3271Z" fill="#303834"></path><path d="M38.561 76.3271C37.7288 76.3271 37.0555 75.6514 37.0555 74.818V64.2543C37.0555 63.4209 37.7288 62.7452 38.561 62.7452C39.3932 62.7452 40.0665 63.4209 40.0665 64.2543V74.818C40.0665 75.6514 39.3932 76.3271 38.561 76.3271Z" fill="#25B573"></path><path d="M49.8525 43.9268C50.7089 43.9268 51.4032 43.2309 51.4032 42.3725C51.4032 41.514 50.7089 40.8181 49.8525 40.8181C48.996 40.8181 48.3018 41.514 48.3018 42.3725C48.3018 43.2309 48.996 43.9268 49.8525 43.9268Z" fill="#303834"></path><path d="M55.8746 43.9268C56.7311 43.9268 57.4253 43.2309 57.4253 42.3725C57.4253 41.514 56.7311 40.8181 55.8746 40.8181C55.0182 40.8181 54.3239 41.514 54.3239 42.3725C54.3239 43.2309 55.0182 43.9268 55.8746 43.9268Z" fill="#303834"></path><path d="M61.8967 43.9268C62.7531 43.9268 63.4474 43.2309 63.4474 42.3725C63.4474 41.514 62.7531 40.8181 61.8967 40.8181C61.0403 40.8181 60.346 41.514 60.346 42.3725C60.346 43.2309 61.0403 43.9268 61.8967 43.9268Z" fill="#303834"></path><path d="M15.46 27.92C12.4496 27.92 10 25.4704 10 22.46C10 19.4496 12.4496 17 15.46 17C18.4704 17 20.92 19.4496 20.92 22.46C20.92 25.4704 18.4704 27.92 15.46 27.92ZM15.46 20.12C14.1695 20.12 13.12 21.1695 13.12 22.46C13.12 23.7505 14.1695 24.8 15.46 24.8C16.7505 24.8 17.8 23.7505 17.8 22.46C17.8 21.1695 16.7505 20.12 15.46 20.12Z" fill="#929F99"></path><path d="M12.7663 68.5326C13.7418 68.5326 14.5326 67.7418 14.5326 66.7663C14.5326 65.7908 13.7418 65 12.7663 65C11.7908 65 11 65.7908 11 66.7663C11 67.7418 11.7908 68.5326 12.7663 68.5326Z" fill="#929F99"></path><path d="M41.7663 12.5326C42.7418 12.5326 43.5326 11.7418 43.5326 10.7663C43.5326 9.7908 42.7418 9 41.7663 9C40.7908 9 40 9.7908 40 10.7663C40 11.7418 40.7908 12.5326 41.7663 12.5326Z" fill="#929F99"></path><path d="M93.8005 107.126C93.4016 107.126 93.0022 106.973 92.6976 106.669C92.0884 106.06 92.0884 105.072 92.6976 104.463L98.4287 98.7318C99.0378 98.1226 100.025 98.1226 100.635 98.7318C101.244 99.341 101.244 100.328 100.635 100.938L94.9035 106.669C94.5989 106.973 94.1999 107.126 93.8005 107.126Z" fill="#929F99"></path><path d="M99.532 107.126C99.133 107.126 98.7336 106.973 98.429 106.669L92.698 100.938C92.0888 100.328 92.0888 99.341 92.698 98.7318C93.3072 98.1226 94.2947 98.1226 94.9038 98.7318L100.635 104.463C101.244 105.072 101.244 106.06 100.635 106.669C100.33 106.973 99.9309 107.126 99.532 107.126Z" fill="#929F99"></path><path d="M66.5598 16.8512C66.1608 16.8512 65.7615 16.6988 65.4569 16.3942C64.8477 15.785 64.8477 14.7975 65.4569 14.1883L71.1879 8.45688C71.7971 7.84771 72.7846 7.84771 73.3938 8.45688C74.0029 9.06606 74.0029 10.0535 73.3938 10.6627L67.6627 16.3942C67.3581 16.6988 66.9592 16.8512 66.5598 16.8512Z" fill="#929F99"></path><path d="M72.2912 16.8511C71.8923 16.8511 71.4929 16.6986 71.1883 16.394L65.4569 10.663C64.8477 10.0538 64.8477 9.06631 65.4569 8.45713C66.0661 7.84795 67.0535 7.84795 67.6627 8.45713L73.3938 14.1882C74.0029 14.7974 74.0029 15.7848 73.3938 16.394C73.0892 16.6986 72.6902 16.8511 72.2912 16.8511Z" fill="#929F99"></path><path d="M106.905 38.8096C107.957 38.8096 108.81 37.9568 108.81 36.9048C108.81 35.8528 107.957 35 106.905 35C105.853 35 105 35.8528 105 36.9048C105 37.9568 105.853 38.8096 106.905 38.8096Z" fill="#929F99"></path></svg> 