<?xml version="1.0" encoding="UTF-8"?> <svg xmlns="http://www.w3.org/2000/svg" width="118" height="117" viewBox="0 0 118 117" fill="none"><circle cx="58.5" cy="61" r="53" fill="white"></circle><path d="M57.2876 19.3573C54.2772 19.3573 51.8276 16.9077 51.8276 13.8973C51.8276 10.8868 54.2772 8.43726 57.2876 8.43726C60.298 8.43726 62.7476 10.8868 62.7476 13.8973C62.7476 16.9077 60.298 19.3573 57.2876 19.3573ZM57.2876 11.5573C55.9971 11.5573 54.9476 12.6067 54.9476 13.8973C54.9476 15.1878 55.9971 16.2373 57.2876 16.2373C58.5781 16.2373 59.6276 15.1878 59.6276 13.8973C59.6276 12.6067 58.5781 11.5573 57.2876 11.5573Z" fill="#929F99"></path><path d="M14.2877 100.864C15.2632 100.864 16.054 100.073 16.054 99.0974C16.054 98.1219 15.2632 97.3311 14.2877 97.3311C13.3122 97.3311 12.5214 98.1219 12.5214 99.0974C12.5214 100.073 13.3122 100.864 14.2877 100.864Z" fill="#929F99"></path><path d="M78.5276 24.3437C79.5031 24.3437 80.2939 23.5529 80.2939 22.5773C80.2939 21.6018 79.5031 20.811 78.5276 20.811C77.5521 20.811 76.7613 21.6018 76.7613 22.5773C76.7613 23.5529 77.5521 24.3437 78.5276 24.3437Z" fill="#929F99"></path><path d="M94.3219 107.563C93.9229 107.563 93.5236 107.411 93.219 107.106C92.6098 106.497 92.6098 105.509 93.219 104.9L98.95 99.169C99.5592 98.5599 100.547 98.5599 101.156 99.169C101.765 99.7782 101.765 100.766 101.156 101.375L95.4248 107.106C95.1202 107.411 94.7213 107.563 94.3219 107.563Z" fill="#929F99"></path><path d="M100.053 107.563C99.6543 107.563 99.255 107.411 98.9504 107.106L93.2193 101.375C92.6102 100.766 92.6102 99.7782 93.2193 99.169C93.8285 98.5599 94.816 98.5599 95.4252 99.169L101.156 104.9C101.765 105.509 101.765 106.497 101.156 107.106C100.851 107.411 100.452 107.563 100.053 107.563Z" fill="#929F99"></path><path d="M14.7619 32.683C14.3629 32.683 13.9636 32.5305 13.659 32.2259C13.0498 31.6168 13.0498 30.6293 13.659 30.0201L19.39 24.2887C19.9992 23.6795 20.9867 23.6795 21.5959 24.2887C22.205 24.8979 22.205 25.8853 21.5959 26.4945L15.8648 32.2259C15.5602 32.5305 15.1612 32.683 14.7619 32.683Z" fill="#929F99"></path><path d="M20.4933 32.6829C20.0944 32.6829 19.695 32.5304 19.3904 32.2258L13.659 26.4948C13.0498 25.8856 13.0498 24.8981 13.659 24.2889C14.2682 23.6797 15.2556 23.6797 15.8648 24.2889L21.5959 30.02C22.205 30.6292 22.205 31.6166 21.5959 32.2258C21.2913 32.5304 20.8923 32.6829 20.4933 32.6829Z" fill="#929F99"></path><path d="M56.0146 84.0063C57.0665 84.0063 57.9193 83.1535 57.9193 82.1016C57.9193 81.0496 57.0665 80.1968 56.0146 80.1968C54.9626 80.1968 54.1098 81.0496 54.1098 82.1016C54.1098 83.1535 54.9626 84.0063 56.0146 84.0063Z" fill="#4C241D"></path><path d="M64.9331 101.52H33.419C30.9885 101.52 29.0183 99.5489 29.0183 97.117V47.8276C29.0183 45.6095 30.8155 43.8113 33.0323 43.8113H64.5464C66.9768 43.8113 68.947 45.7826 68.947 48.2145V97.5039C68.947 99.722 67.1499 101.52 64.9331 101.52Z" fill="#F9FBFA"></path><path d="M64.4934 103H32.8948C29.6438 103 27.0001 100.318 27.0001 97.0206L27.0001 46.5865C27.0001 43.5058 29.4704 41 32.5068 41H64.1053C67.3563 41 70.0001 43.6821 70.0001 46.9794L70 97.4135C70.0004 100.494 67.5301 103 64.4934 103ZM32.5068 44.0078C31.1052 44.0078 29.9657 45.1644 29.9657 46.5861L29.9656 97.0202C29.9656 98.6585 31.2804 99.9915 32.8948 99.9915H64.4934C65.895 99.9915 67.0345 98.8348 67.0345 97.4131L67.0345 46.9791C67.0345 45.3408 65.7197 44.0078 64.1053 44.0078H32.5068Z" fill="#303834"></path><path d="M48.1056 62.6174C48.1056 62.6174 39.3701 71.866 39.3701 74.3605C39.3701 76.8549 41.5429 78.8769 44.2233 78.8769C45.8182 78.8769 47.2209 78.1511 48.1056 77.0458C48.9904 78.1515 50.393 78.8769 51.988 78.8769C54.6684 78.8769 56.8412 76.8549 56.8412 74.3605C56.8412 71.8664 48.1056 62.6174 48.1056 62.6174Z" fill="#F98E58"></path><path d="M51.988 80.3571C50.5568 80.3571 49.2037 79.9061 48.106 79.0868C47.0069 79.9054 45.6537 80.3571 44.2226 80.3571C40.7322 80.3571 37.8913 77.6673 37.8913 74.3609C37.8913 71.5779 44.2832 64.5108 47.0316 61.6013C47.5892 61.0102 48.6233 61.0102 49.1804 61.6013C51.9288 64.5108 58.3208 71.5779 58.3208 74.3609C58.3208 77.6673 55.4799 80.3571 51.988 80.3571ZM48.106 75.5661C48.5552 75.5661 48.9797 75.7707 49.2614 76.1218C49.9098 76.9323 50.9033 77.3977 51.988 77.3977C53.8495 77.3977 55.3631 76.0356 55.3631 74.3609C55.2303 73.1934 51.6833 68.7036 48.106 64.7912C44.5287 68.7043 40.9817 73.1964 40.8475 74.3864C40.849 76.036 42.3626 77.398 44.2226 77.398C45.3073 77.398 46.3022 76.9327 46.9522 76.1207C47.2324 75.77 47.6568 75.5661 48.106 75.5661Z" fill="#303834"></path><path d="M80.6619 94.8913L51.07 84.0472C48.7878 83.2108 47.6154 80.6819 48.4513 78.3984L65.3922 32.1154C66.1545 30.0327 68.46 28.9625 70.5419 29.7253L100.134 40.5694C102.416 41.4058 103.588 43.9346 102.753 46.2182L85.8116 92.5012C85.0489 94.5839 82.7434 95.6541 80.6619 94.8913Z" fill="white"></path><path d="M82.037 96.6158C81.4103 96.6158 80.7748 96.5081 80.1537 96.2806L50.561 85.4365C47.5168 84.3201 45.947 80.9345 47.0617 77.8892L64.0018 31.6063C65.0444 28.7604 68.2102 27.2936 71.0492 28.3353L100.642 39.1795C103.686 40.2959 105.256 43.6815 104.141 46.7267L87.2011 93.0097C86.387 95.2337 84.2771 96.6158 82.037 96.6158ZM81.1704 93.5017C82.4873 93.983 83.9417 93.306 84.4242 91.9917L101.363 45.7094C101.917 44.1957 101.138 42.5129 99.6256 41.958L70.0329 31.1139C68.7186 30.6363 67.2615 31.3103 66.7791 32.6239L49.8404 78.9062C49.2859 80.4199 50.0656 82.1027 51.5777 82.6576L81.1704 93.5017Z" fill="#303834"></path><path d="M81.5308 91.7939C82.528 91.7939 83.3364 90.985 83.3364 89.9872C83.3364 88.9893 82.528 88.1804 81.5308 88.1804C80.5336 88.1804 79.7252 88.9893 79.7252 89.9872C79.7252 90.985 80.5336 91.7939 81.5308 91.7939Z" fill="#303834"></path><path d="M63.7847 97.7124C64.7819 97.7124 65.5903 96.9035 65.5903 95.9056C65.5903 94.9078 64.7819 94.0989 63.7847 94.0989C62.7874 94.0989 61.979 94.9078 61.979 95.9056C61.979 96.9035 62.7874 97.7124 63.7847 97.7124Z" fill="#303834"></path><path d="M71.0931 73.955C70.9241 73.955 70.7522 73.9254 70.5848 73.864C69.818 73.5829 69.4235 72.7331 69.7037 71.9659L72.247 65.019C72.5287 64.2518 73.3805 63.8578 74.1447 64.1382C74.9115 64.4194 75.3059 65.2691 75.0257 66.0363L72.4825 72.9832C72.2629 73.5829 71.6954 73.955 71.0931 73.955Z" fill="#303834"></path><path d="M78.2318 52.5706C78.2318 52.5706 66.8503 58.2493 65.993 60.5914C65.1356 62.9338 66.481 65.5802 68.9976 66.5025C70.4953 67.0514 72.0617 66.8524 73.2725 66.1188C73.7232 67.4613 74.7909 68.6255 76.2886 69.1745C78.8053 70.0967 81.5407 68.9458 82.3981 66.6034C83.2558 64.2611 78.2318 52.5706 78.2318 52.5706Z" fill="#25B573"></path><path d="M78.0685 70.9738C77.3002 70.9738 76.5275 70.838 75.7807 70.5642C74.4361 70.0715 73.3199 69.1822 72.5702 68.0354C71.2603 68.4264 69.8336 68.3857 68.4889 67.8922C66.9191 67.317 65.6481 66.2009 64.9116 64.7501C64.1563 63.263 64.0465 61.6057 64.6055 60.0827C65.5601 57.4702 73.9913 53.0329 77.5712 51.2462C77.935 51.0649 78.3583 51.0416 78.7395 51.1811C79.1222 51.3213 79.4283 51.6124 79.5902 51.986C81.17 55.6635 84.7432 64.4993 83.7857 67.1128C83.2296 68.6351 82.0773 69.8303 80.5393 70.4777C79.7536 70.8084 78.9148 70.9738 78.0685 70.9738ZM73.2722 64.6395C73.4442 64.6395 73.6161 64.6691 73.7806 64.7297C74.2024 64.8844 74.5315 65.2217 74.6746 65.6479C75.0054 66.6326 75.7792 67.4117 76.7974 67.785C77.6655 68.1013 78.5868 68.0876 79.3928 67.7487C80.164 67.4243 80.7374 66.8368 81.0088 66.094C81.2861 64.9517 79.4996 59.5156 77.4851 54.6111C72.7813 57.0544 67.9074 60.0516 67.3728 61.1233C67.1099 61.8428 67.1691 62.6629 67.5477 63.4087C67.9462 64.1904 68.6409 64.7959 69.506 65.113C70.5271 65.4881 71.6189 65.3904 72.5069 64.8529C72.7395 64.7116 73.0049 64.6395 73.2722 64.6395Z" fill="#303834"></path><path d="M37.0001 61C34.7937 61 33.0001 59.1776 33.0001 56.9375C33.0001 56.0401 33.7157 55.3125 34.6001 55.3125C35.4845 55.3125 36.2001 56.0401 36.2001 56.9375C36.2001 57.386 36.5593 57.75 37.0001 57.75C37.4409 57.75 37.8001 57.386 37.8001 56.9375V49.625C37.8001 48.7276 38.5157 48 39.4001 48C40.2845 48 41.0001 48.7276 41.0001 49.625V56.9375C41.0001 59.1776 39.2065 61 37.0001 61Z" fill="#303834"></path><path d="M73.1331 47C72.3775 47 71.7662 46.3283 71.7662 45.4999V40.7758L68.935 44.6599C68.4637 45.3075 67.6039 45.4137 67.0128 44.8943C66.424 44.3771 66.3279 43.4332 66.7992 42.7863L72.0652 35.5626C72.4295 35.0653 73.0384 34.8748 73.5855 35.0837C74.133 35.2944 74.5 35.8622 74.5 36.4994V45.4999C74.5 46.3283 73.8886 47 73.1331 47Z" fill="#303834"></path><path d="M72.9023 47C72.7214 47 72.5373 46.9685 72.3564 46.9022L67.5518 45.136C66.7235 44.8313 66.2946 43.904 66.5969 43.0651C66.898 42.2255 67.8137 41.7931 68.6436 42.0974L73.4482 43.8636C74.2765 44.1683 74.7054 45.0956 74.4031 45.9345C74.1675 46.5919 73.5545 47 72.9023 47Z" fill="#303834"></path></svg> 