<?xml version="1.0" encoding="UTF-8"?> <svg xmlns="http://www.w3.org/2000/svg" width="106" height="110" viewBox="0 0 106 110" fill="none"><circle cx="53" cy="56.25" r="53" fill="white"></circle><path d="M13.509 50.4798C13.509 39.0855 31.4136 29.8489 53.4999 29.8489C75.5862 29.8489 93.4908 39.0859 93.4908 50.4798V74.3684C93.4908 85.7627 75.5862 94.9997 53.4999 94.9997C31.4136 94.9997 13.509 85.7627 13.509 74.3688V50.4798Z" fill="white"></path><path d="M53.5 96.4903C30.2283 96.4903 12 86.7737 12 74.3689V50.48C12 38.0752 30.2283 28.3586 53.5 28.3586C76.7717 28.3586 95 38.0752 95 50.48V74.3689C95 86.7737 76.7717 96.4903 53.5 96.4903ZM53.5 31.3394C32.2814 31.3394 15.0182 39.9259 15.0182 50.48V74.3689C15.0182 84.923 32.2814 93.5095 53.5 93.5095C74.7186 93.5095 91.9818 84.923 91.9818 74.3689V50.48C91.9818 39.9259 74.7186 31.3394 53.5 31.3394Z" fill="#303834"></path><path d="M53.9909 70.6652C76.0773 70.6652 93.9818 61.4284 93.9818 50.0343C93.9818 38.6401 76.0773 29.4033 53.9909 29.4033C31.9045 29.4033 14 38.6401 14 50.0343C14 61.4284 31.9045 70.6652 53.9909 70.6652Z" fill="#F4FCF8"></path><path d="M53.5 72.6013C30.2283 72.6013 12 62.8848 12 50.48C12 38.0752 30.2283 28.3586 53.5 28.3586C76.7717 28.3586 95 38.0752 95 50.48C95 62.8848 76.7717 72.6013 53.5 72.6013ZM53.5 31.3394C32.2814 31.3394 15.0182 39.9259 15.0182 50.48C15.0182 61.0341 32.2814 69.6206 53.5 69.6206C74.7186 69.6206 91.9818 61.0341 91.9818 50.48C91.9818 39.9259 74.7186 31.3394 53.5 31.3394Z" fill="#303834"></path><path d="M78.1185 52.8499C77.6824 52.8499 77.2667 52.6551 76.9792 52.3283C76.683 51.9915 76.5562 51.5328 76.6313 51.0943L76.643 51.0041C76.7226 50.2604 77.3519 49.649 78.108 49.6296L84.591 49.4608C84.9962 49.4295 85.409 49.6091 85.7036 49.9019C85.9952 50.1944 86.1545 50.5931 86.1382 51.0045C86.1367 51.0503 86.1205 51.2314 86.1148 51.2764C86.019 52.0049 85.3897 52.6614 84.6454 52.6804L78.1566 52.8499C78.1434 52.8499 78.1317 52.8499 78.1185 52.8499Z" fill="#303834"></path><path d="M50.6122 40.6883L50.3176 35.4526C46.1382 35.6285 42.1994 36.1993 38.6463 37.085L42.4979 41.5807C45.009 41.1142 47.7333 40.8005 50.6122 40.6883Z" fill="#25B573"></path><path d="M42.4987 43.0707C42.0596 43.0707 41.6366 42.8814 41.3461 42.5431L37.4938 38.0474C37.1577 37.655 37.0501 37.1189 37.2093 36.6289C37.3686 36.1389 37.7722 35.7652 38.2763 35.6393C42.0298 34.7041 46.0605 34.1403 50.2532 33.9634C51.0549 33.9388 51.7785 34.555 51.8241 35.3692L52.1188 40.6052C52.1422 41.0039 52.0011 41.3955 51.7298 41.691C51.4571 41.9864 51.0771 42.1619 50.6716 42.1772C47.9643 42.2827 45.3071 42.5744 42.7768 43.0454C42.6843 43.0618 42.5915 43.0707 42.4987 43.0707ZM41.4039 37.9956L43.0884 39.9618C45.0144 39.6357 47.0026 39.4073 49.0229 39.2777L48.8946 37.0209C46.3126 37.1915 43.8045 37.5175 41.4039 37.9956Z" fill="#303834"></path><path d="M27.9711 50.637C27.9711 48.5889 29.5244 46.686 32.1789 45.1006L25.9101 42.9038C23.1368 45.1733 21.5168 47.8109 21.5168 50.637C21.5168 50.7622 21.5492 50.8833 21.5556 51.0077L28.0398 51.1762C28.0157 50.9966 27.9711 50.8188 27.9711 50.637Z" fill="#25B573"></path><path d="M28.0401 52.6668C28.0269 52.6668 28.0137 52.6668 28.0005 52.6661L21.5159 52.4973C20.7259 52.4768 20.0849 51.8576 20.0479 51.0774C20.023 50.9142 20.0083 50.7759 20.0083 50.6362C20.0083 47.4714 21.7162 44.4004 24.9483 41.7558C25.3565 41.4204 25.9164 41.3258 26.4148 41.499L32.6839 43.6959C33.2336 43.8889 33.6226 44.3762 33.6818 44.9497C33.7407 45.5223 33.4592 46.0775 32.9612 46.3759C30.7225 47.7113 29.4877 49.22 29.4801 50.6243L29.5348 50.973C29.5952 51.406 29.4598 51.8442 29.1651 52.1702C28.8769 52.4869 28.4687 52.6668 28.0401 52.6668ZM23.1265 49.5579L26.5514 49.6466C26.7679 48.4517 27.4266 47.0231 29.0112 45.5711L26.2375 44.5998C24.8846 45.8305 23.5038 47.5314 23.1265 49.5579Z" fill="#303834"></path><path d="M73.1405 44.6316L79.5983 42.3684C76.2017 39.8329 71.3066 37.8109 65.4981 36.6104L61.2009 41.181C66.0066 41.8341 70.1442 43.0492 73.1405 44.6316Z" fill="#F98E58"></path><path d="M73.1404 46.122C72.8945 46.122 72.6496 46.0632 72.4285 45.9458C69.5371 44.4182 65.5829 43.281 60.9938 42.6573C60.4365 42.5816 59.968 42.2053 59.7793 41.6815C59.5892 41.1583 59.7114 40.5737 60.0947 40.1665L64.3922 35.5962C64.7503 35.2136 65.2867 35.044 65.807 35.1517C71.8007 36.3902 76.8834 38.4745 80.5074 41.1796C80.9511 41.5101 81.1737 42.0544 81.0896 42.5958C81.0054 43.1379 80.6255 43.5899 80.1022 43.7732L73.6445 46.0363C73.4807 46.0937 73.3098 46.122 73.1404 46.122ZM64.2183 40.162C67.6949 40.8249 70.7689 41.7936 73.2506 43.0116L76.2277 41.968C73.4275 40.3953 69.9615 39.1299 66.0179 38.248L64.2183 40.162Z" fill="#303834"></path><path d="M78.2095 50.6365C78.2095 50.7994 78.1676 50.9577 78.1484 51.1183L84.631 50.9499C84.6356 50.8445 84.6639 50.7424 84.6639 50.6365C84.6639 47.5865 82.7907 44.7518 79.5982 42.3687L73.1404 44.6318C76.3088 46.3047 78.2095 48.3797 78.2095 50.6365Z" fill="#25B573"></path><path d="M78.1479 52.6093C77.725 52.6093 77.3198 52.4338 77.0338 52.1238C76.7377 51.8045 76.5977 51.3742 76.649 50.9449L76.7007 50.6364C76.7007 49.0667 75.1841 47.4008 72.4285 45.9462C71.9022 45.6682 71.5898 45.1086 71.6354 44.5207C71.6796 43.932 72.0716 43.4249 72.636 43.2274L79.0937 40.9642C79.5699 40.7962 80.1033 40.8785 80.5085 41.1796C84.2133 43.9465 86.1721 47.2168 86.1721 50.6364C86.1721 50.7661 86.1589 50.8931 86.1397 51.0198C86.1072 51.8038 85.4632 52.4193 84.6702 52.4398L78.1872 52.6086C78.1743 52.6093 78.1611 52.6093 78.1479 52.6093ZM76.5196 45.0292C78.5414 46.6348 79.3593 48.2444 79.6189 49.5898L83.0498 49.5004C82.6224 47.2473 80.9378 45.375 79.3167 44.0489L76.5196 45.0292Z" fill="#303834"></path><path d="M53.0903 40.6379C55.9319 40.6379 58.6531 40.8346 61.2005 41.1807L65.4976 36.6101C61.6879 35.8224 57.4961 35.3843 53.0903 35.3843C52.1543 35.3843 51.233 35.4133 50.3177 35.4521L50.6123 40.6878C51.428 40.6558 52.2539 40.6379 53.0903 40.6379Z" fill="#25B573"></path><path d="M61.2001 42.6715C61.1322 42.6715 61.0631 42.667 60.9952 42.6577C57.6145 42.1994 54.0553 42.0448 50.6734 42.1774C49.8494 42.2196 49.1526 41.5843 49.107 40.7716L48.8123 35.5356C48.7889 35.1376 48.9289 34.7475 49.1998 34.4521C49.4707 34.1566 49.8513 33.9804 50.2535 33.9636C51.1906 33.9245 52.1323 33.8943 53.0906 33.8943C57.4941 33.8943 61.7724 34.3179 65.8073 35.1525C66.3393 35.2625 66.7712 35.6473 66.9361 36.1589C67.1014 36.6712 66.9746 37.2316 66.603 37.6255L62.3055 42.1957C62.018 42.5012 61.6173 42.6715 61.2001 42.6715ZM53.0902 39.1479C55.6191 39.1479 58.1494 39.3014 60.624 39.6036L62.5205 37.5871C59.1149 37.055 55.4983 36.7968 51.9097 36.89L52.038 39.1576C52.3873 39.1505 52.7378 39.1479 53.0902 39.1479Z" fill="#303834"></path><path d="M42.4983 41.58L38.6467 37.0842C33.3449 38.4055 28.9331 40.4298 25.91 42.9031L32.1791 45.0999C34.7261 43.5789 38.3007 42.3594 42.4983 41.58Z" fill="#F98E58"></path><path d="M32.1796 46.591C32.0102 46.591 31.8393 46.5626 31.6755 46.5053L25.4064 44.3084C24.8937 44.1296 24.519 43.6922 24.4247 43.1646C24.3289 42.6362 24.5292 42.0986 24.948 41.7565C28.1593 39.1286 32.7677 37.0134 38.2763 35.64C38.8335 35.5003 39.4243 35.6881 39.7986 36.1225L43.6509 40.6183C43.9972 41.0236 44.1002 41.5803 43.9207 42.0803C43.7411 42.5803 43.3046 42.9477 42.7771 43.0461C38.7524 43.7928 35.3585 44.9441 32.9605 46.3763C32.7221 46.5183 32.4523 46.591 32.1796 46.591ZM29.1395 42.454L32.0279 43.4664C34.1089 42.3266 36.7261 41.369 39.7224 40.6473L38.1103 38.7653C34.6216 39.7076 31.5786 40.9607 29.1395 42.454Z" fill="#303834"></path><path d="M28.0397 51.1757L21.5555 51.0073C21.7363 54.6256 24.5213 57.9316 29.0387 60.5044L35.0129 57.5542C30.976 55.8779 28.3721 53.6498 28.0397 51.1757Z" fill="#F98E58"></path><path d="M29.0391 61.9946C28.7784 61.9946 28.5188 61.9275 28.286 61.7953C23.1721 58.8845 20.2467 55.0792 20.0479 51.0802C20.0272 50.6662 20.1834 50.2623 20.4769 49.9653C20.7704 49.6684 21.1635 49.4951 21.5955 49.5179L28.0801 49.6866C28.8214 49.7056 29.439 50.2541 29.5359 50.9807C29.7778 52.787 31.9882 54.682 35.5987 56.1802C36.1424 56.4057 36.5023 56.9232 36.5212 57.5056C36.5419 58.0872 36.2159 58.6271 35.6885 58.8875L29.714 61.8377C29.502 61.9421 29.2703 61.9946 29.0391 61.9946ZM23.3638 52.5452C24.0889 54.7756 26.0665 56.9422 29.104 58.8059L31.6283 57.5592C29.1568 56.1292 27.5432 54.4633 26.8622 52.6369L23.3638 52.5452Z" fill="#303834"></path><path d="M84.6061 51.1899L78.1178 51.3595C77.7092 53.6267 75.3976 55.6805 71.8252 57.2774L77.9608 60.0044C81.9139 57.555 84.3586 54.5105 84.6061 51.1899Z" fill="#F98E58"></path><path d="M77.9608 61.4944C77.7499 61.4944 77.5394 61.4508 77.3417 61.3632L71.2065 58.6365C70.6655 58.3959 70.3165 57.8645 70.3165 57.2784C70.3165 56.6923 70.6629 56.1607 71.2039 55.9192C74.3549 54.5104 76.334 52.7529 76.6317 51.0986C76.7569 50.4014 77.3613 49.8876 78.0774 49.8694L84.5661 49.6998C84.986 49.6876 85.4033 49.8563 85.6979 50.1604C85.9926 50.4652 86.1416 50.8787 86.1107 51.2987C85.8337 55.0131 83.2928 58.4596 78.7625 61.2663C78.5192 61.418 78.2408 61.4944 77.9608 61.4944ZM75.2271 57.1551L77.8284 58.3109C79.8015 56.9893 81.9195 55.1002 82.7522 52.7294L79.2507 52.8211C78.5988 54.4042 77.2387 55.8685 75.2271 57.1551Z" fill="#303834"></path><path d="M62.4741 59.9066C61.7275 60.0266 60.962 60.1317 60.1826 60.2237L63.3128 65.0328C65.1313 64.7295 66.9014 64.3763 68.5547 63.9262C72.2097 62.9313 75.3991 61.5919 77.9612 60.0046L71.8256 57.2776C69.2764 58.417 66.0907 59.3261 62.4741 59.9066Z" fill="#25B573"></path><path d="M63.3136 66.5229C62.805 66.5229 62.3248 66.2695 62.0448 65.838L58.9146 61.0286C58.6332 60.5971 58.5962 60.052 58.8188 59.5877C59.0399 59.1228 59.4877 58.8038 60.0053 58.7427C60.7629 58.654 61.5069 58.5519 62.2335 58.4357C65.6452 57.8869 68.7475 57.0172 71.2039 55.9192C71.5974 55.7422 72.0513 55.7422 72.4447 55.9177L78.58 58.6443C79.0885 58.8698 79.4288 59.353 79.4673 59.9011C79.5058 60.4492 79.2345 60.9738 78.7629 61.2663C76.0409 62.9538 72.7398 64.3324 68.9554 65.3619C67.4214 65.7795 65.6587 66.1521 63.566 66.5016C63.4815 66.5165 63.3959 66.5229 63.3136 66.5229ZM62.727 61.3758L64.0399 63.3938C65.6078 63.1114 66.9592 62.8137 68.1529 62.4891C70.5241 61.8438 72.6787 61.0576 74.5914 60.1407L71.8166 58.907C69.2379 59.9816 66.1137 60.8315 62.727 61.3758Z" fill="#303834"></path><path d="M35.0133 57.5543L29.0392 60.5045C33.1013 62.8176 38.5763 64.523 44.8111 65.3416L47.2067 60.3469C42.4727 59.8931 38.2737 58.908 35.0133 57.5543Z" fill="#25B573"></path><path d="M44.811 66.8315C44.7461 66.8315 44.6782 66.827 44.6122 66.8184C38.2295 65.9808 32.5836 64.2438 28.285 61.7951C27.8047 61.5209 27.5142 61.0086 27.5304 60.4597C27.5482 59.9116 27.8681 59.4161 28.3646 59.1709L34.3391 56.2207C34.7326 56.0244 35.194 56.0113 35.5992 56.1801C38.7867 57.5039 42.8515 58.4317 47.352 58.8639C47.8413 58.9105 48.2759 59.1899 48.5192 59.6121C48.7611 60.0342 48.7799 60.5465 48.5694 60.9855L46.1745 65.9797C45.9236 66.504 45.3886 66.8315 44.811 66.8315ZM32.3874 60.5171C35.6678 61.9725 39.5896 63.0604 43.9222 63.711L44.9404 61.5883C41.2635 61.0987 37.899 60.2805 35.0781 59.1884L32.3874 60.5171Z" fill="#303834"></path><path d="M53.0902 60.635C51.0594 60.635 49.096 60.5284 47.2059 60.3473L44.8102 65.342C47.4519 65.6889 50.2195 65.8889 53.0898 65.8889C56.6803 65.8889 60.1 65.5685 63.3124 65.0331L60.1822 60.224C57.9333 60.4889 55.5561 60.635 53.0902 60.635Z" fill="#F98E58"></path><path d="M53.0902 67.379C50.2931 67.379 47.4398 67.1904 44.6118 66.8186C44.1342 66.756 43.7158 66.4713 43.4845 66.0529C43.2547 65.6352 43.2412 65.1337 43.4475 64.703L45.8424 59.7087C46.1137 59.1413 46.7207 58.7947 47.3515 58.8637C51.7358 59.2821 55.9462 59.2217 60.0034 58.743C60.5885 58.6848 61.1427 58.9378 61.4521 59.4177L64.5823 64.2272C64.8566 64.6479 64.8992 65.1777 64.6944 65.6352C64.4895 66.0928 64.0651 66.4192 63.5641 66.5019C60.0758 67.0843 56.5521 67.379 53.0902 67.379ZM47.0761 64.1005C51.6668 64.5517 56.2016 64.4899 60.7817 63.8997L59.4201 61.8068C55.7609 62.1787 52.0161 62.2338 48.1197 61.9231L47.0761 64.1005Z" fill="#303834"></path><path d="M53.4999 53.2694C52.2496 53.2694 51.2363 52.2686 51.2363 51.0338V24.6965H55.7635V51.0338C55.7635 52.2686 54.7502 53.2694 53.4999 53.2694Z" fill="#25B573"></path><path d="M53.5 53.4033C51.5694 53.4033 50 51.8671 50 49.9789V25.7731C50 25.0166 50.6262 24.4033 51.4 24.4033H55.6C56.3738 24.4033 57 25.0166 57 25.7731V49.9789C57 51.8671 55.4306 53.4033 53.5 53.4033ZM52.8 27.1429V49.9789C52.8 50.357 53.1143 50.6638 53.5 50.6638C53.8857 50.6638 54.2 50.357 54.2 49.9789V27.1429H52.8Z" fill="#303834"></path><path d="M53.2846 32.4037C57.0351 32.4037 60.0755 29.401 60.0755 25.6969C60.0755 21.9929 57.0351 18.9902 53.2846 18.9902C49.534 18.9902 46.4937 21.9929 46.4937 25.6969C46.4937 29.401 49.534 32.4037 53.2846 32.4037Z" fill="#25B573"></path><path d="M53.2849 33.8942C48.709 33.8942 44.9849 30.217 44.9849 25.6971C44.9849 21.1771 48.709 17.5 53.2849 17.5C57.8608 17.5 61.5849 21.1771 61.5849 25.6971C61.5849 30.217 57.8608 33.8942 53.2849 33.8942ZM53.2849 20.4808C50.3727 20.4808 48.0031 22.821 48.0031 25.6971C48.0031 28.5732 50.3727 30.9134 53.2849 30.9134C56.1971 30.9134 58.5667 28.5732 58.5667 25.6971C58.5667 22.821 56.1967 20.4808 53.2849 20.4808Z" fill="#303834"></path><path d="M22.2662 11.67C19.2558 11.67 16.8062 9.22041 16.8062 6.21C16.8062 3.19959 19.2558 0.75 22.2662 0.75C25.2766 0.75 27.7262 3.19959 27.7262 6.21C27.7262 9.22041 25.2766 11.67 22.2662 11.67ZM22.2662 3.87C20.9757 3.87 19.9262 4.91949 19.9262 6.21C19.9262 7.50051 20.9757 8.55 22.2662 8.55C23.5567 8.55 24.6062 7.50051 24.6062 6.21C24.6062 4.91949 23.5567 3.87 22.2662 3.87Z" fill="#929F99"></path><path d="M66.7663 9.28262C67.7418 9.28262 68.5326 8.49182 68.5326 7.51631C68.5326 6.54081 67.7418 5.75 66.7663 5.75C65.7908 5.75 65 6.54081 65 7.51631C65 8.49182 65.7908 9.28262 66.7663 9.28262Z" fill="#929F99"></path><path d="M24.5062 26.1564C25.4818 26.1564 26.2726 25.3656 26.2726 24.3901C26.2726 23.4146 25.4818 22.6238 24.5062 22.6238C23.5307 22.6238 22.7399 23.4146 22.7399 24.3901C22.7399 25.3656 23.5307 26.1564 24.5062 26.1564Z" fill="#929F99"></path><path d="M2.30053 84.3758C1.90156 84.3758 1.5022 84.2233 1.19761 83.9187C0.588428 83.3095 0.588428 82.322 1.19761 81.7128L6.92866 75.9818C7.53784 75.3726 8.52533 75.3726 9.13451 75.9818C9.74369 76.591 9.74369 77.5785 9.13451 78.1876L3.40345 83.9187C3.09886 84.2233 2.69989 84.3758 2.30053 84.3758Z" fill="#929F99"></path><path d="M8.03196 84.3758C7.63299 84.3758 7.23363 84.2233 6.92904 83.9187L1.198 78.1876C0.588825 77.5785 0.588825 76.591 1.198 75.9818C1.80718 75.3726 2.79466 75.3726 3.40384 75.9818L9.13487 81.7128C9.74405 82.322 9.74405 83.3095 9.13487 83.9187C8.8299 84.2233 8.43093 84.3758 8.03196 84.3758Z" fill="#929F99"></path><path d="M80.7405 31.4958C80.3416 31.4958 79.9422 31.3433 79.6376 31.0387C79.0284 30.4295 79.0284 29.442 79.6376 28.8329L85.3687 23.1014C85.9778 22.4922 86.9653 22.4922 87.5745 23.1014C88.1837 23.7106 88.1837 24.6981 87.5745 25.3073L81.8434 31.0387C81.5389 31.3433 81.1399 31.4958 80.7405 31.4958Z" fill="#929F99"></path><path d="M86.472 31.4956C86.073 31.4956 85.6736 31.3431 85.369 31.0386L79.6376 25.3075C79.0284 24.6983 79.0284 23.7108 79.6376 23.1017C80.2468 22.4925 81.2343 22.4925 81.8434 23.1017L87.5745 28.8327C88.1837 29.4419 88.1837 30.4294 87.5745 31.0386C87.2699 31.3431 86.8709 31.4956 86.472 31.4956Z" fill="#929F99"></path><path d="M101.405 36.0596C102.457 36.0596 103.31 35.2068 103.31 34.1548C103.31 33.1028 102.457 32.25 101.405 32.25C100.353 32.25 99.5 33.1028 99.5 34.1548C99.5 35.2068 100.353 36.0596 101.405 36.0596Z" fill="#929F99"></path></svg> 