<?xml version="1.0" encoding="UTF-8"?> <svg xmlns="http://www.w3.org/2000/svg" width="106" height="106" viewBox="0 0 106 106" fill="none"><circle cx="53" cy="53" r="53" fill="white"></circle><path d="M51.7875 11.3573C48.7771 11.3573 46.3275 8.90767 46.3275 5.89726C46.3275 2.88685 48.7771 0.437256 51.7875 0.437256C54.798 0.437256 57.2475 2.88685 57.2475 5.89726C57.2475 8.90767 54.798 11.3573 51.7875 11.3573ZM51.7875 3.55726C50.497 3.55726 49.4475 4.60675 49.4475 5.89726C49.4475 7.18777 50.497 8.23726 51.7875 8.23726C53.0781 8.23726 54.1275 7.18777 54.1275 5.89726C54.1275 4.60675 53.0781 3.55726 51.7875 3.55726Z" fill="#929F99"></path><path d="M8.78764 92.8637C9.76315 92.8637 10.554 92.0729 10.554 91.0974C10.554 90.1219 9.76315 89.3311 8.78764 89.3311C7.81214 89.3311 7.02133 90.1219 7.02133 91.0974C7.02133 92.0729 7.81214 92.8637 8.78764 92.8637Z" fill="#929F99"></path><path d="M73.0276 16.3437C74.0031 16.3437 74.7939 15.5529 74.7939 14.5773C74.7939 13.6018 74.0031 12.811 73.0276 12.811C72.0521 12.811 71.2613 13.6018 71.2613 14.5773C71.2613 15.5529 72.0521 16.3437 73.0276 16.3437Z" fill="#929F99"></path><path d="M88.8219 99.563C88.4229 99.563 88.0235 99.4105 87.719 99.1059C87.1098 98.4968 87.1098 97.5093 87.719 96.9001L93.45 91.169C94.0592 90.5599 95.0467 90.5599 95.6559 91.169C96.265 91.7782 96.265 92.7657 95.6559 93.3749L89.9248 99.1059C89.6202 99.4105 89.2212 99.563 88.8219 99.563Z" fill="#929F99"></path><path d="M94.5533 99.563C94.1543 99.563 93.755 99.4105 93.4504 99.1059L87.7193 93.3749C87.1101 92.7657 87.1101 91.7782 87.7193 91.169C88.3285 90.5599 89.316 90.5599 89.9252 91.169L95.6562 96.9001C96.2654 97.5093 96.2654 98.4968 95.6562 99.1059C95.3512 99.4105 94.9523 99.563 94.5533 99.563Z" fill="#929F99"></path><path d="M9.26186 24.683C8.86289 24.683 8.46353 24.5305 8.15894 24.2259C7.54976 23.6168 7.54976 22.6293 8.15894 22.0201L13.89 16.2887C14.4992 15.6795 15.4866 15.6795 16.0958 16.2887C16.705 16.8979 16.705 17.8853 16.0958 18.4945L10.3648 24.2259C10.0602 24.5305 9.66122 24.683 9.26186 24.683Z" fill="#929F99"></path><path d="M14.9933 24.6829C14.5943 24.6829 14.195 24.5304 13.8904 24.2258L8.15894 18.4948C7.54976 17.8856 7.54976 16.8981 8.15894 16.2889C8.76812 15.6797 9.7556 15.6797 10.3648 16.2889L16.0958 22.02C16.705 22.6292 16.705 23.6166 16.0958 24.2258C15.7912 24.5304 15.3923 24.6829 14.9933 24.6829Z" fill="#929F99"></path><path d="M50.5145 76.0063C51.5665 76.0063 52.4193 75.1535 52.4193 74.1016C52.4193 73.0496 51.5665 72.1968 50.5145 72.1968C49.4625 72.1968 48.6097 73.0496 48.6097 74.1016C48.6097 75.1535 49.4625 76.0063 50.5145 76.0063Z" fill="#303834"></path><path d="M17.3938 35.9565C17.3938 30.4763 29.2257 26.0337 43.8211 26.0337C58.4165 26.0337 70.2484 30.4763 70.2484 35.9565V55.7853C70.2484 61.2655 58.4165 65.7081 43.8211 65.7081C29.2257 65.7081 17.3938 61.2655 17.3938 55.7853V35.9565Z" fill="#F98E58"></path><path d="M44 67.5C30.4266 67.5 16 63.4517 16 55.9482V36.0518C16 28.5487 30.4266 24.5 44 24.5C57.5734 24.5 72 28.5483 72 36.0518V55.9482C72 63.4513 57.5734 67.5 44 67.5ZM44 27.6905C29.7931 27.6905 19.1773 32.1048 19.1773 36.0522V55.9486C19.1773 59.8956 29.7931 64.3103 44 64.3103C58.2069 64.3103 68.8227 59.896 68.8227 55.9486V36.0522C68.8227 32.1048 58.2073 27.6905 44 27.6905Z" fill="#303834"></path><path d="M70 36.5C70 41.4706 58.3594 45.5 44 45.5C29.6406 45.5 18 41.4706 18 36.5" fill="#F98E58"></path><path d="M44 47.5C30.4266 47.5 16 43.497 16 36.0772C16 35.2054 16.7113 34.5 17.5887 34.5C18.466 34.5 19.1773 35.2054 19.1773 36.0772C19.1773 39.9801 29.7931 44.3455 44 44.3455C58.2069 44.3455 68.8227 39.9805 68.8227 36.0772C68.8227 35.2054 69.534 34.5 70.4113 34.5C71.2887 34.5 72 35.2054 72 36.0772C72 43.497 57.5734 47.5 44 47.5Z" fill="#303834"></path><path d="M44 61.5C28.0376 61.5 16 56.1894 16 49.1459C16 48.2361 16.7113 47.5 17.5887 47.5C18.466 47.5 19.1773 48.2361 19.1773 49.1459C19.1773 53.4328 29.3717 58.2081 44 58.2081C58.6283 58.2081 68.8227 53.4328 68.8227 49.1459C68.8227 48.2361 69.534 47.5 70.4113 47.5C71.2887 47.5 72 48.2361 72 49.1459C72 56.1889 59.9628 61.5 44 61.5Z" fill="#303834"></path><path d="M44 54.5C28.0376 54.5 16 49.5687 16 43.0284C16 42.1836 16.7113 41.5 17.5887 41.5C18.466 41.5 19.1773 42.1836 19.1773 43.0284C19.1773 47.009 29.3717 51.4432 44 51.4432C58.6283 51.4432 68.8227 47.009 68.8227 43.0284C68.8227 42.1836 69.534 41.5 70.4113 41.5C71.2887 41.5 72 42.1836 72 43.0284C72 49.5683 59.9628 54.5 44 54.5Z" fill="#303834"></path><path d="M43.7762 48.5C43.0197 48.5 42.2755 48.4793 41.5345 48.4541C41.0559 48.4399 40.6091 48.2021 40.3204 47.8105C40.0318 47.4189 39.9311 46.9149 40.0472 46.4393L42.0856 38.095C42.2628 37.3658 42.846 36.8983 43.6382 36.865L44.1592 36.8715C45.9937 36.8715 47.8112 36.7493 49.415 36.5164C49.7365 36.4689 50.0585 36.5257 50.3467 36.6718L62.1234 42.6989C62.6928 42.9907 63.0366 43.601 62.9969 44.2524C62.9573 44.9025 62.5425 45.4649 61.9423 45.682C56.9129 47.4981 50.4617 48.5 43.7762 48.5ZM43.6061 45.2535C48.4035 45.2775 53.065 44.743 57.0945 43.754L49.3638 39.799C47.9543 39.9796 46.4187 40.0875 44.8621 40.1115L43.6061 45.2535Z" fill="#303834"></path><path d="M37.9261 38.5L24 43.0687C28.3487 44.9965 34.7493 46.2826 41.9857 46.5L44 39.0106C41.7271 38.9851 39.638 38.7997 37.9261 38.5Z" fill="#F9FBFA"></path><path d="M41.4399 48.5C41.4224 48.5 41.4056 48.5 41.3889 48.4984C34.1315 48.2573 27.5612 46.862 22.8868 44.5701C22.3177 44.2917 21.9687 43.6878 22.0022 43.0402C22.0357 42.3927 22.4451 41.8296 23.0391 41.6137L36.8843 36.5905C37.1437 36.4984 37.4223 36.4748 37.6922 36.528C39.3575 36.8504 41.3522 37.035 43.4608 37.0615C43.9372 37.0679 44.3844 37.2978 44.6757 37.6858C44.9663 38.0739 45.0692 38.5777 44.9535 39.0515L42.9509 47.2861C42.7764 48.001 42.152 48.5 41.4399 48.5ZM28.0704 43.186C31.561 44.2841 35.7765 45.0022 40.2355 45.2433L41.4625 40.1964C40.0625 40.1151 38.7326 39.965 37.5329 39.7539L28.0704 43.186Z" fill="#303834"></path><path d="M70.3324 38.5C70.3076 38.5 70.2825 38.4984 70.2569 38.4984L55.3109 37.7134C54.7581 37.684 54.2592 37.3717 53.9941 36.8867C53.8365 36.6006 53.7742 36.2776 53.8061 35.9621C53.3563 35.7011 52.3101 35.275 50.3252 34.9332C49.6103 34.8103 49.0687 34.223 49.006 33.5017C48.9433 32.7804 49.3764 32.1092 50.0594 31.8669L62.0657 27.5931C62.4289 27.4642 62.824 27.469 63.1837 27.6086C68.8691 29.8203 72 32.9503 72 36.4204C72 36.6145 71.9753 36.8075 71.9417 36.9985C71.8483 37.8097 71.1438 38.5 70.3324 38.5ZM54.0576 36.1455H54.0732H54.0576ZM56.858 34.6069L68.5011 35.2177C67.7635 33.6481 65.6656 32.0766 62.5686 30.7931L55.546 33.2936C56.1679 33.6776 56.6045 34.1156 56.858 34.6069Z" fill="#303834"></path><path d="M70 37.2864L55.4757 36.5C54.9789 37.3922 52.9033 38.1499 50 38.574L61.5217 44.5C66.471 42.7021 69.6687 40.1481 70 37.2864Z" fill="#F9FBFA"></path><path d="M61.5797 45.5C61.3319 45.5 61.0845 45.4447 60.8588 45.3345L48.8905 39.5107C48.2603 39.2044 47.9078 38.5335 48.021 37.8563C48.1342 37.1779 48.6866 36.6509 49.3849 36.5544C52.5157 36.1223 53.7503 35.4423 53.9361 35.2388C54.2383 34.7271 54.7858 34.4746 55.385 34.502L70.4728 35.2757C70.9181 35.2988 71.3339 35.5008 71.6212 35.8333C71.9085 36.1642 72.0414 36.5975 71.9887 37.0281C71.5773 40.3871 68.0709 43.3633 62.1168 45.4114C61.9423 45.471 61.7606 45.5 61.5797 45.5ZM54.2568 38.6146L61.6788 42.2265C64.7339 41.1007 66.9601 39.713 68.0508 38.2931L55.962 37.6743C55.5276 38.0237 54.9587 38.3374 54.2568 38.6146Z" fill="#303834"></path><path d="M40.5944 34.5C40.2735 34.5 39.9587 34.4097 39.6895 34.2362L30.7265 28.4849C30.1769 28.1324 29.9028 27.4958 30.0313 26.8736C30.1601 26.2495 30.6662 25.762 31.3138 25.6391C35.2647 24.8831 39.4901 24.5 43.8713 24.5C45.0873 24.5 46.2764 24.5385 47.4504 24.595C47.9516 24.6193 48.4124 24.8635 48.7015 25.2576C48.9906 25.6532 49.075 26.1529 48.9315 26.6145L46.8648 33.2463C46.6536 33.9242 45.9767 34.3395 45.2639 34.3658C43.7763 34.3304 42.2121 34.372 40.7339 34.4945C40.687 34.4984 40.6405 34.5 40.5944 34.5ZM35.9991 28.094L41.0295 31.3217C42.0363 31.2526 43.0635 31.2157 44.0928 31.2114L45.2015 27.6555C42.1052 27.5911 38.9564 27.7415 35.9991 28.094Z" fill="#303834"></path><path d="M23.4833 44.5C23.2518 44.5 23.0211 44.4498 22.808 44.3478C17.1811 41.6877 16 38.6264 16 36.5255C16 34.9491 16.682 33.4245 18.0279 31.994C18.3634 31.6383 18.8535 31.4558 19.3393 31.5091L34.2556 33.0657C34.9455 33.1373 35.5066 33.6494 35.6345 34.3257C35.7408 34.888 35.5274 35.4522 35.0973 35.8079C35.6192 36.0282 36.4562 36.2959 37.7208 36.5329C38.4181 36.6621 38.9408 37.2411 38.9953 37.9435C39.0499 38.6443 38.6222 39.2965 37.9531 39.5304L24.0064 44.4113C23.8365 44.4712 23.6595 44.5 23.4833 44.5ZM19.8411 34.6911C19.375 35.3234 19.1391 35.939 19.1391 36.5259C19.1391 38.1007 20.7507 39.8063 23.5857 41.2562L32.721 38.0594C31.8471 37.4621 31.4057 36.743 31.3853 35.8962L19.8411 34.6911Z" fill="#303834"></path><path d="M50.5375 33.5L63 29.3455C58.8081 27.8187 53.2702 26.7912 47.0997 26.5L45 33.0325C47.0421 33.0758 48.9329 33.2413 50.5375 33.5Z" fill="#F9FBFA"></path><path d="M50.7513 35.5C50.6631 35.5 50.5744 35.4916 50.487 35.4751C49.021 35.2021 47.3035 35.0339 45.5207 34.9914C45.0348 34.98 44.5823 34.7229 44.2969 34.2969C44.0116 33.8721 43.9265 33.3255 44.0652 32.8219L46.0354 25.7022C46.2411 24.958 46.8942 24.4641 47.604 24.502C53.4741 24.8248 58.8019 25.9357 63.0105 27.717C63.615 27.9719 64.0088 28.6091 63.9999 29.312C63.9901 30.0149 63.5792 30.6386 62.9681 30.8742L51.2746 35.401C51.1058 35.4667 50.929 35.5 50.7513 35.5ZM47.6172 31.7204C48.6672 31.8009 49.6756 31.9214 50.6071 32.0807L57.5354 29.3976C54.8413 28.6862 51.8204 28.1894 48.661 27.9488L47.6172 31.7204Z" fill="#303834"></path><path d="M41 33.1099L32.1068 27.5C26.0628 28.6355 21.3487 30.5877 19 32.9678L34.3807 34.5C35.7155 33.8488 38.0929 33.3438 41 33.1099Z" fill="#F9FBFA"></path><path d="M34.1666 36.5C34.1131 36.5 34.0592 36.4967 34.0057 36.4904L19.3783 34.8165C18.7973 34.7512 18.3013 34.3327 18.0969 33.7376C17.8934 33.1442 18.0157 32.4738 18.414 32.0097C20.8647 29.1557 25.5846 26.8557 31.7035 25.5345C32.1049 25.4429 32.5181 25.5362 32.8571 25.7831L41.3149 31.9147C41.859 32.3085 42.1145 33.0346 41.9513 33.7242C41.7889 34.4139 41.2433 34.916 40.5911 34.9746C38.0945 35.2052 35.9563 35.7053 34.8711 36.3134C34.6526 36.4364 34.4109 36.5 34.1666 36.5ZM23.6433 31.9394L33.9003 33.1132C34.5572 32.801 35.3637 32.5265 36.2895 32.2943L31.6843 28.956C28.4878 29.6947 25.7297 30.7262 23.6433 31.9394Z" fill="#303834"></path><path d="M44.5 38.5C50.8513 38.5 56 37.1569 56 35.5C56 33.8431 50.8513 32.5 44.5 32.5C38.1487 32.5 33 33.8431 33 35.5C33 37.1569 38.1487 38.5 44.5 38.5Z" fill="#F9FBFA"></path><path d="M44.4996 40.5C42.4122 40.5 32 40.2824 32 36C32 31.7176 42.4122 31.5 44.4996 31.5C46.587 31.5 57 31.7176 57 36C57 40.2824 46.587 40.5 44.4996 40.5ZM35.7025 36.0004C37.0532 36.5778 40.0942 37.2703 44.4996 37.2703C48.905 37.2703 51.946 36.5778 53.2975 36.0004C51.946 35.423 48.905 34.7306 44.4996 34.7306C40.0942 34.7306 37.0532 35.423 35.7025 36.0004ZM54.0249 36.4389H54.0407H54.0249Z" fill="#303834"></path><path d="M26 43.5V50.3649C29.9521 52.0974 35.18 53.2473 41 53.5V46.6351C35.1804 46.3824 29.9521 45.2321 26 43.5Z" fill="#F9FBFA"></path><path d="M41.4163 54.5C41.3961 54.5 41.3759 54.5 41.3561 54.4985C35.2571 54.2739 29.4542 53.2441 25.0165 51.5973C24.4041 51.3697 24 50.801 24 50.1663V44.0345C24 43.5302 24.2565 43.0569 24.6864 42.771C25.1147 42.4851 25.6629 42.4192 26.1498 42.6031C30.2712 44.1315 35.7147 45.0911 41.4768 45.3038C42.3271 45.3352 43 46.012 43 46.8352V52.967C43 53.3832 42.8246 53.783 42.5143 54.0719C42.219 54.3471 41.8252 54.5 41.4163 54.5ZM27.1663 49.091C30.7327 50.2752 35.1423 51.0627 39.8329 51.3544V48.2931C35.229 48.0206 30.8495 47.2901 27.1663 46.1837V49.091Z" fill="#303834"></path><path d="M60 44.2055V50.5C65.1988 48.9626 68.8458 46.7485 70 44.2181V38.5H69.6987C68.2829 40.79 64.8008 42.7857 60 44.2055Z" fill="#F9FBFA"></path><path d="M60.6249 52.5C60.2829 52.5 59.9449 52.3964 59.6634 52.1973C59.2462 51.9036 59 51.438 59 50.9417V44.7084C59 44.0266 59.4611 43.4255 60.1395 43.2218C64.4367 41.9299 67.5493 40.1265 68.6778 38.2729C68.9699 37.7937 69.5037 37.5 70.0813 37.5H70.3751C71.2724 37.5 72 38.197 72 39.0583V44.7205C72 44.932 71.9549 45.142 71.8676 45.3368C70.2126 49.0242 65.1053 51.2276 61.1108 52.4283C60.952 52.477 60.7879 52.5 60.6249 52.5ZM62.2499 45.8343V48.7456C65.5705 47.5009 67.8747 45.9578 68.7497 44.3691V42.6767C67.0971 43.8821 64.9103 44.9457 62.2499 45.8343Z" fill="#303834"></path><path d="M26 50.5V56.6784C29.9521 58.2377 35.18 59.2726 41 59.5V53.3216C35.1804 53.0942 29.9521 52.0589 26 50.5Z" fill="#F9FBFA"></path><path d="M41.4163 61.5C41.3961 61.5 41.3759 61.5 41.3561 61.4983C35.2571 61.255 29.4542 60.1394 25.0165 58.3553C24.4041 58.1087 24 57.4925 24 56.8049V50.1617C24 49.6153 24.2565 49.1026 24.6864 48.7928C25.1147 48.4831 25.6629 48.4133 26.1498 48.611C30.2712 50.2668 35.7147 51.3065 41.4768 51.5369C42.3271 51.5709 43 52.3042 43 53.196V59.8392C43 60.2901 42.8246 60.7232 42.5143 61.0362C42.219 61.3343 41.8252 61.5 41.4163 61.5ZM27.1663 55.6399C30.7327 56.9228 35.1423 57.7761 39.8329 58.0921V54.7754C35.229 54.4802 30.8495 53.6889 27.1663 52.4902V55.6399Z" fill="#303834"></path><path d="M60 51.2055V57.5C65.1988 55.9626 68.8458 53.7485 70 51.2181V45.5H69.6987C68.2829 47.79 64.8008 49.7857 60 51.2055Z" fill="#F9FBFA"></path><path d="M60.6249 58.5C60.2829 58.5 59.9449 58.3964 59.6634 58.1973C59.2462 57.9036 59 57.438 59 56.9417V50.7084C59 50.0266 59.4611 49.4255 60.1395 49.2218C64.4367 47.9299 67.5493 46.1265 68.6778 44.2729C68.9699 43.7937 69.5037 43.5 70.0813 43.5H70.3751C71.2724 43.5 72 44.197 72 45.0583V50.7205C72 50.932 71.9549 51.142 71.8676 51.3368C70.2126 55.0242 65.1053 57.2276 61.1108 58.4283C60.952 58.477 60.7879 58.5 60.6249 58.5ZM62.2499 51.8343V54.7456C65.5705 53.5009 67.8747 51.9578 68.7497 50.3691V48.6767C67.0971 49.8821 64.9103 50.9457 62.2499 51.8343Z" fill="#303834"></path><path d="M26 56.5V62.6784C29.9521 64.2377 35.18 65.2726 41 65.5V59.3216C35.1804 59.0942 29.9521 58.0589 26 56.5Z" fill="#F9FBFA"></path><path d="M41.4163 67.5C41.3961 67.5 41.3759 67.5 41.3561 67.4983C35.2571 67.255 29.4542 66.1395 25.0165 64.3555C24.4041 64.1088 24 63.4927 24 62.8052V56.1624C24 55.616 24.2565 55.1033 24.6864 54.7936C25.1147 54.4838 25.6629 54.4124 26.1498 54.6117C30.2712 56.2674 35.7147 57.307 41.4768 57.5374C42.3271 57.5715 43 58.3047 43 59.1965V65.8393C43 66.2902 42.8246 66.7232 42.5143 67.0362C42.219 67.3343 41.8252 67.5 41.4163 67.5ZM27.1663 61.6402C30.7327 62.9231 35.1423 63.7763 39.8329 64.0922V60.7758C35.229 60.4806 30.8495 59.6893 27.1663 58.4907V61.6402Z" fill="#303834"></path><path d="M60 57.2055V63.5C65.1988 61.9626 68.8458 59.7485 70 57.2181V51.5H69.6987C68.2829 53.79 64.8008 55.7857 60 57.2055Z" fill="#F9FBFA"></path><path d="M49 52.2541C49 46.8671 60.8644 42.5 75.5 42.5C90.1356 42.5 102 46.8671 102 52.2541V71.7459C102 77.1329 90.1356 81.5 75.5 81.5C60.8644 81.5 49 77.1329 49 71.7459V52.2541Z" fill="#25B573"></path><path d="M75.5 83.5C62.1688 83.5 48 79.4517 48 71.9482V52.0518C48 44.5487 62.1688 40.5 75.5 40.5C88.8312 40.5 103 44.5483 103 52.0518V71.9482C103 79.4513 88.8312 83.5 75.5 83.5ZM75.5 43.6905C61.5599 43.6905 51.1429 48.1048 51.1429 52.0522V71.9486C51.1429 75.8956 61.5599 80.3103 75.5 80.3103C89.4401 80.3103 99.8572 75.896 99.8572 71.9486V52.0522C99.8572 48.1048 89.4405 43.6905 75.5 43.6905Z" fill="#303834"></path><path d="M102 51.5C102 57.0228 90.1356 61.5 75.5 61.5C60.8644 61.5 49 57.0228 49 51.5" fill="#25B573"></path><path d="M75.5 63.5C62.1689 63.5 48 59.497 48 52.0772C48 51.2054 48.6986 50.5 49.5603 50.5C50.422 50.5 51.1206 51.2054 51.1206 52.0772C51.1206 55.9801 61.5468 60.3455 75.5 60.3455C89.4532 60.3455 99.8794 55.9805 99.8794 52.0772C99.8794 51.2054 100.578 50.5 101.44 50.5C102.301 50.5 103 51.2054 103 52.0772C103 59.497 88.8311 63.5 75.5 63.5Z" fill="#303834"></path><path d="M75.5 76.5C59.8227 76.5 48 71.5687 48 65.0284C48 64.1836 48.6986 63.5 49.5603 63.5C50.422 63.5 51.1206 64.1836 51.1206 65.0284C51.1206 69.009 61.1329 73.4432 75.5 73.4432C89.8671 73.4432 99.8794 69.009 99.8794 65.0284C99.8794 64.1836 100.578 63.5 101.44 63.5C102.301 63.5 103 64.1836 103 65.0284C103 71.5683 91.1777 76.5 75.5 76.5Z" fill="#303834"></path><path d="M75.5 70.5C59.8227 70.5 48 65.5687 48 59.0284C48 58.1836 48.6986 57.5 49.5603 57.5C50.422 57.5 51.1206 58.1836 51.1206 59.0284C51.1206 63.009 61.1329 67.4432 75.5 67.4432C89.8671 67.4432 99.8794 63.009 99.8794 59.0284C99.8794 58.1836 100.578 57.5 101.44 57.5C102.301 57.5 103 58.1836 103 59.0284C103 65.5683 91.1777 70.5 75.5 70.5Z" fill="#303834"></path><path d="M75.7762 64.5C75.0197 64.5 74.2755 64.4793 73.5344 64.4541C73.0559 64.4399 72.6091 64.2021 72.3204 63.8106C72.0318 63.419 71.9311 62.915 72.0472 62.4394L74.0856 54.0956C74.2628 53.3664 74.8381 52.894 75.6382 52.8656L76.1592 52.8721C77.9937 52.8721 79.8112 52.75 81.415 52.5171C81.7365 52.468 82.0585 52.5264 82.3467 52.6725L94.1234 58.6993C94.6928 58.991 95.0366 59.6013 94.9969 60.2526C94.9573 60.9027 94.5425 61.4651 93.9423 61.6822C88.9129 63.4981 82.4617 64.5 75.7762 64.5ZM75.6061 61.2537C80.4214 61.2521 85.065 60.7416 89.0945 59.7543L81.3638 55.7995C79.9543 55.9801 78.4187 56.088 76.8621 56.1119L75.6061 61.2537Z" fill="#303834"></path><path d="M69.6225 53.5L55 58.6398C59.5661 60.8086 66.2868 62.2554 73.885 62.5L76 54.0745C73.6135 54.0458 71.4199 53.8372 69.6225 53.5Z" fill="#F9FBFA"></path><path d="M73.4399 64.5C73.4224 64.5 73.4056 64.5 73.3889 64.4984C66.1315 64.2573 59.5612 62.8619 54.8868 60.5698C54.3177 60.2915 53.9687 59.6875 54.0022 59.0399C54.0357 58.3923 54.4451 57.8292 55.0392 57.6133L68.8843 52.5898C69.1445 52.4977 69.4215 52.4757 69.6922 52.5273C71.3575 52.8497 73.3522 53.0344 75.4608 53.0608C75.9372 53.0672 76.3844 53.2971 76.6757 53.6852C76.9663 54.0733 77.0692 54.5771 76.9535 55.0509L74.9509 63.2861C74.7764 64.001 74.152 64.5 73.4399 64.5ZM60.0704 59.1857C63.561 60.2839 67.7765 61.002 72.2355 61.2431L73.4625 56.1959C72.0625 56.1146 70.7326 55.9644 69.5329 55.7534L60.0704 59.1857Z" fill="#303834"></path><path d="M101.378 54.5C101.354 54.5 101.329 54.4984 101.304 54.4984L87.0469 53.7135C86.5107 53.684 86.0269 53.3718 85.7691 52.89C85.6138 52.5996 85.5529 52.2729 85.5863 51.9543C85.1599 51.6949 84.1676 51.272 82.2837 50.9335C81.5915 50.8077 81.0673 50.2217 81.006 49.5052C80.9446 48.7872 81.3608 48.116 82.0213 47.8706L93.4741 43.5971C93.8321 43.4634 94.225 43.4666 94.5799 43.6142C100.01 45.8269 103 48.9554 103 52.4209C103 52.6151 102.976 52.8064 102.944 52.9974C102.854 53.8086 102.168 54.5 101.378 54.5ZM85.8219 52.1345H85.8378H85.8219ZM88.5549 50.6088L99.602 51.2163C98.8996 49.6453 96.909 48.077 93.9715 46.7984L87.2915 49.2912C87.8913 49.6763 88.3114 50.1143 88.5549 50.6088Z" fill="#303834"></path><path d="M102 53.2864L87.4757 52.5C86.9789 53.3922 84.9036 54.1499 82 54.574L93.5214 60.5C98.4715 58.7021 101.669 56.1481 102 53.2864Z" fill="#F9FBFA"></path><path d="M93.0106 61.5C92.7652 61.5 92.5205 61.442 92.2974 61.3283L80.8579 55.5052C80.248 55.1959 79.9098 54.5266 80.021 53.8526C80.1329 53.1786 80.669 52.6531 81.3464 52.5567C84.3209 52.1262 85.4943 51.4525 85.6718 51.2518C85.9648 50.7311 86.5017 50.4692 87.0923 50.5029L101.513 51.2765C101.946 51.3008 102.35 51.5016 102.63 51.8325C102.91 52.1634 103.04 52.5951 102.989 53.0256C102.597 56.3816 99.2423 59.3572 93.5432 61.4067C93.3704 61.4694 93.1901 61.5 93.0106 61.5ZM86.0245 54.6152L93.1088 58.2205C96.0157 57.0964 98.1337 55.7119 99.1701 54.2917L87.6598 53.6749C87.2427 54.0255 86.6964 54.338 86.0245 54.6152Z" fill="#303834"></path><path d="M72.5944 50.5C72.2735 50.5 71.9587 50.4097 71.6895 50.2362L62.7265 44.4849C62.1769 44.1324 61.9028 43.4958 62.0313 42.8736C62.1601 42.2495 62.6662 41.762 63.3137 41.6391C67.2647 40.8831 71.4901 40.5 75.8713 40.5C77.0873 40.5 78.2764 40.5385 79.4504 40.595C79.9516 40.6193 80.4124 40.8635 80.7015 41.2576C80.9906 41.6532 81.075 42.1529 80.9315 42.6145L78.8648 49.2463C78.6528 49.9226 77.9714 50.3595 77.2639 50.3658C75.7763 50.3304 74.2121 50.372 72.7339 50.4945C72.687 50.4984 72.6405 50.5 72.5944 50.5ZM67.9991 44.094L73.0295 47.3217C74.0363 47.2526 75.0635 47.2157 76.0928 47.2114L77.2015 43.6555C74.106 43.5864 70.9564 43.7415 67.9991 44.094Z" fill="#303834"></path><path d="M55.4833 60.5C55.2518 60.5 55.0211 60.4498 54.808 60.3478C49.1811 57.6877 48 54.6264 48 52.5255C48 50.9491 48.682 49.4245 50.0279 47.994C50.3642 47.6383 50.8546 47.4558 51.3393 47.5091L66.2556 49.0657C66.9455 49.1373 67.5066 49.6494 67.6345 50.3257C67.7408 50.888 67.5274 51.4522 67.0973 51.8079C67.6192 52.0282 68.4562 52.2959 69.7208 52.5329C70.4181 52.6621 70.9408 53.2411 70.9953 53.9435C71.0499 54.6443 70.6222 55.2965 69.9531 55.5304L56.0064 60.4113C55.8365 60.4712 55.6595 60.5 55.4833 60.5ZM51.8411 50.6911C51.375 51.3234 51.1391 51.939 51.1391 52.5259C51.1391 54.1007 52.7507 55.8063 55.5857 57.2562L64.721 54.0594C63.8471 53.4621 63.4057 52.743 63.3853 51.8962L51.8411 50.6911Z" fill="#303834"></path><path d="M82.2299 49.5L94 45.3455C90.041 43.8187 84.8108 42.7912 78.983 42.5L77 49.0325C78.9286 49.0758 80.7144 49.2413 82.2299 49.5Z" fill="#F9FBFA"></path><path d="M82.0889 50.5C81.9962 50.5 81.9032 50.4923 81.8113 50.4774C80.2721 50.2292 78.4687 50.0764 76.5967 50.0377C76.0865 50.0273 75.6114 49.7937 75.3118 49.4064C75.0122 49.0203 74.9228 48.5235 75.0685 48.0658L77.1372 41.5943C77.3531 40.9178 78.0332 40.4555 78.7842 40.5034C84.9478 40.7968 90.542 41.8065 94.961 43.4256C95.5957 43.6574 96.0092 44.2365 95.9998 44.8754C95.9896 45.5143 95.5582 46.0812 94.9165 46.2954L82.6383 50.41C82.4611 50.4697 82.2754 50.5 82.0889 50.5ZM78.7981 47.0645C79.9006 47.1377 80.9594 47.2472 81.9374 47.392L89.2121 44.9532C86.3834 44.3066 83.2114 43.855 79.8941 43.6363L78.7981 47.0645Z" fill="#303834"></path><path d="M72 49.1099L63.511 43.5C57.7417 44.6355 53.242 46.5877 51 48.9678L65.6815 50.5C66.9557 49.8488 69.2251 49.3438 72 49.1099Z" fill="#F9FBFA"></path><path d="M65.8402 52.5C65.7845 52.5 65.7284 52.4967 65.6727 52.4904L50.4357 50.8163C49.8305 50.751 49.3138 50.3325 49.101 49.7374C48.8889 49.1439 49.0164 48.4735 49.4312 48.0093C51.9841 45.155 56.9006 42.8549 63.2745 41.5336C63.6934 41.4436 64.1231 41.537 64.4762 41.7822L73.2863 47.9143C73.8531 48.3081 74.1192 49.0343 73.9493 49.724C73.7801 50.4137 73.2118 50.9159 72.5324 50.9745C69.9318 51.2051 67.7044 51.7052 66.5741 52.3133C66.3464 52.4364 66.0947 52.5 65.8402 52.5ZM54.8784 47.939L65.5628 49.1129C66.247 48.8007 67.0872 48.5262 68.0515 48.2939L63.2541 44.9554C59.9248 45.6941 57.0517 46.7257 54.8784 47.939Z" fill="#303834"></path><path d="M76 54.5C82.0751 54.5 87 53.1568 87 51.5C87 49.8431 82.0751 48.5 76 48.5C69.9249 48.5 65 49.8431 65 51.5C65 53.1568 69.9249 54.5 76 54.5Z" fill="#F9FBFA"></path><path d="M75.9996 56.5C73.8287 56.5 63 56.2824 63 52C63 47.7176 73.8287 47.5 75.9996 47.5C78.1705 47.5 89 47.7176 89 52C89 56.2824 78.1705 56.5 75.9996 56.5ZM66.8506 52.0004C68.2554 52.5778 71.418 53.2703 75.9996 53.2703C80.5812 53.2703 83.7438 52.5778 85.1494 52.0004C83.7438 51.423 80.5812 50.7305 75.9996 50.7305C71.418 50.7305 68.2554 51.423 66.8506 52.0004ZM85.9059 52.4389H85.9224H85.9059Z" fill="#303834"></path><path d="M57 59.5V65.6784C61.2156 67.2377 66.792 68.2726 73 68.5V62.3216C66.7924 62.0942 61.2156 61.0589 57 59.5Z" fill="#F9FBFA"></path><path d="M73.4163 70.5C73.3961 70.5 73.3759 70.5 73.3561 70.4985C67.2571 70.2739 61.4542 69.2441 57.0165 67.5972C56.4041 67.3695 56 66.8008 56 66.1661V60.0339C56 59.5296 56.2565 59.0562 56.6864 58.7703C57.1155 58.4844 57.6637 58.42 58.1498 58.6024C62.2712 60.1309 67.7147 61.0906 73.4768 61.3033C74.3271 61.3347 75 62.0115 75 62.8348V68.967C75 69.3832 74.8246 69.7829 74.5143 70.0719C74.219 70.3471 73.8252 70.5 73.4163 70.5ZM59.1663 65.0907C62.7327 66.2749 67.1423 67.0625 71.8329 67.3542V64.2927C67.229 64.0202 62.8495 63.2897 59.1663 62.1832V65.0907Z" fill="#303834"></path><path d="M92 60.2055V66.5C96.679 64.9626 99.961 62.7485 101 60.2181V54.5H100.729C99.4544 56.79 96.3207 58.7857 92 60.2055Z" fill="#F9FBFA"></path><path d="M91.649 68.5C91.3035 68.5 90.9622 68.3979 90.6765 68.2C90.2515 67.9063 90 67.4392 90 66.9418V60.7088C90 60.0317 90.4638 59.4307 91.1473 59.225C95.4156 57.9359 98.5066 56.1358 99.6287 54.2838C99.9226 53.7984 100.468 53.5 101.06 53.5H101.351C102.262 53.5 103 54.1969 103 55.0582V60.7209C103 60.9293 102.956 61.1346 102.871 61.3266C101.223 65.0169 96.1313 67.2234 92.1507 68.4256C91.9862 68.4755 91.8172 68.5 91.649 68.5ZM93.2979 61.8272V64.7291C96.5695 63.4887 98.8389 61.9566 99.7021 60.3769V58.715C98.0651 59.9005 95.9115 60.9507 93.2979 61.8272Z" fill="#303834"></path><path d="M57 66.5V72.6784C61.2156 74.2377 66.792 75.2726 73 75.5V69.3216C66.7924 69.0942 61.2156 68.0589 57 66.5Z" fill="#F9FBFA"></path><path d="M73.4163 76.5C73.3961 76.5 73.3759 76.5 73.3561 76.4985C67.2571 76.2739 61.4542 75.244 57.0165 73.5971C56.4041 73.3694 56 72.8006 56 72.1659V66.0336C56 65.5292 56.2565 65.0558 56.6864 64.7699C57.1155 64.4855 57.6637 64.4196 58.1498 64.602C62.2712 66.1305 67.7147 67.0903 73.4768 67.303C74.3271 67.3344 75 68.0113 75 68.8345V74.9669C75 75.3831 74.8246 75.7829 74.5143 76.0719C74.219 76.3471 73.8252 76.5 73.4163 76.5ZM59.1663 71.0905C62.7327 72.2748 67.1423 73.0624 71.8329 73.3541V70.2925C67.229 70.02 62.8495 69.2895 59.1663 68.183V71.0905Z" fill="#303834"></path><path d="M92 67.2055V73.5C96.679 71.9626 99.961 69.7485 101 67.2181V61.5H100.729C99.4544 63.79 96.3207 65.7857 92 67.2055Z" fill="#F9FBFA"></path><path d="M91.649 74.5C91.3035 74.5 90.9622 74.3979 90.6765 74.2C90.2515 73.9063 90 73.4392 90 72.9418V66.7088C90 66.0317 90.4638 65.4307 91.1473 65.225C95.4156 63.9359 98.5066 62.1358 99.6287 60.2838C99.9226 59.7984 100.468 59.5 101.06 59.5H101.351C102.262 59.5 103 60.1969 103 61.0582V66.7209C103 66.9293 102.956 67.1346 102.871 67.3266C101.223 71.0169 96.1313 73.2234 92.1507 74.4256C91.9862 74.4755 91.8172 74.5 91.649 74.5ZM93.2979 67.8272V70.7291C96.5695 69.4887 98.8389 67.9566 99.7021 66.3769V64.715C98.0651 65.9005 95.9115 66.9507 93.2979 67.8272Z" fill="#303834"></path><path d="M57 72.5V78.6784C61.2156 80.2377 66.792 81.2726 73 81.5V75.3216C66.7924 75.0942 61.2156 74.0589 57 72.5Z" fill="#F9FBFA"></path><path d="M73.4163 83.5C73.3961 83.5 73.3759 83.5 73.3561 83.4983C67.2571 83.255 61.4542 82.1394 57.0165 80.3553C56.4041 80.1087 56 79.4925 56 78.8049V72.1617C56 71.6153 56.2565 71.1026 56.6864 70.7928C57.1155 70.4831 57.6637 70.4133 58.1498 70.611C62.2712 72.2668 67.7147 73.3065 73.4768 73.5369C74.3271 73.5709 75 74.3042 75 75.196V81.8392C75 82.2901 74.8246 82.7232 74.5143 83.0362C74.219 83.3343 73.8252 83.5 73.4163 83.5ZM59.1663 77.6399C62.7327 78.9228 67.1423 79.7761 71.8329 80.0921V76.7754C67.229 76.4802 62.8495 75.6889 59.1663 74.4902V77.6399Z" fill="#303834"></path><path d="M92 73.2055V79.5C96.679 77.9626 99.961 75.7485 101 73.2181V67.5H100.729C99.4544 69.79 96.3207 71.7857 92 73.2055Z" fill="#F9FBFA"></path><path d="M91.649 81.5C91.3035 81.5 90.9622 81.3911 90.6765 81.18C90.2515 80.8667 90 80.3685 90 79.8379V73.1894C90 72.4672 90.4638 71.826 91.1473 71.6066C95.4156 70.2316 98.5066 68.3115 99.6287 66.336C99.9226 65.8183 100.468 65.5 101.06 65.5H101.351C102.262 65.5 103 66.2434 103 67.1621V73.2023C103 73.4246 102.956 73.6436 102.871 73.8484C101.223 77.7847 96.1313 80.1383 92.1507 81.4206C91.9862 81.4738 91.8172 81.5 91.649 81.5ZM93.2979 74.3824V77.4777C96.5695 76.1546 98.8389 74.5203 99.7021 72.8354V71.0627C98.0651 72.3272 95.9115 73.4474 93.2979 74.3824Z" fill="#303834"></path><path d="M68.3955 95.5H22.6045C20.0616 95.5 18 93.4433 18 90.9065V64.0935C18 61.5567 20.0616 59.5 22.6045 59.5H68.3955C70.9384 59.5 73 61.5567 73 64.0935V90.9065C73 93.4433 70.9384 95.5 68.3955 95.5Z" fill="white"></path><path d="M67.0538 97.5H22.9462C19.6674 97.5 17 94.8175 17 91.5195V65.4805C17 62.1821 19.6678 59.5 22.9462 59.5H67.0538C70.3326 59.5 73 62.1824 73 65.4805V91.5195C73.0004 94.8175 70.3326 97.5 67.0538 97.5ZM22.9462 62.5396C21.3336 62.5396 20.0226 63.8594 20.0226 65.4801V91.5191C20.0226 93.1402 21.334 94.4596 22.9462 94.4596H67.0538C68.6664 94.4596 69.9774 93.1398 69.9774 91.5191V65.4801C69.9774 63.859 68.666 62.5396 67.0538 62.5396H22.9462Z" fill="#303834"></path><path d="M18 67.5H71V73.5H18V67.5Z" fill="#F98E58"></path><path d="M71.4887 74.5H18.5113C17.6767 74.5 17 73.9037 17 73.1667V67.8333C17 67.0963 17.6767 66.5 18.5113 66.5H71.4887C72.3233 66.5 73 67.0963 73 67.8333V73.1667C73 73.9037 72.3233 74.5 71.4887 74.5ZM20.0226 71.8333H69.9774V69.1667H20.0226V71.8333Z" fill="#303834"></path><path d="M62.3913 83.5H28.6087C27.7203 83.5 27 82.8291 27 82C27 81.1709 27.7203 80.5 28.6087 80.5H62.3913C63.2797 80.5 64 81.1709 64 82C64 82.8291 63.2797 83.5 62.3913 83.5Z" fill="#303834"></path><path d="M59.5 90.5C60.8807 90.5 62 89.6046 62 88.5C62 87.3954 60.8807 86.5 59.5 86.5C58.1193 86.5 57 87.3954 57 88.5C57 89.6046 58.1193 90.5 59.5 90.5Z" fill="#F98E58"></path><path d="M63.5 90.5C64.8807 90.5 66 89.6046 66 88.5C66 87.3954 64.8807 86.5 63.5 86.5C62.1193 86.5 61 87.3954 61 88.5C61 89.6046 62.1193 90.5 63.5 90.5Z" fill="#25B573"></path></svg> 