<?xml version="1.0" encoding="UTF-8"?> <svg xmlns="http://www.w3.org/2000/svg" width="118" height="117" viewBox="0 0 118 117" fill="none"><g clip-path="url(#clip0)"><circle cx="58.5" cy="59" r="53" fill="white"></circle><path d="M57.2875 17.3573C54.2771 17.3573 51.8275 14.9077 51.8275 11.8973C51.8275 8.88685 54.2771 6.43726 57.2875 6.43726C60.298 6.43726 62.7475 8.88685 62.7475 11.8973C62.7475 14.9077 60.298 17.3573 57.2875 17.3573ZM57.2875 9.55726C55.997 9.55726 54.9475 10.6067 54.9475 11.8973C54.9475 13.1878 55.997 14.2373 57.2875 14.2373C58.5781 14.2373 59.6275 13.1878 59.6275 11.8973C59.6275 10.6067 58.5781 9.55726 57.2875 9.55726Z" fill="#929F99"></path><path d="M83.7663 101.533C84.7418 101.533 85.5326 100.742 85.5326 99.7663C85.5326 98.7908 84.7418 98 83.7663 98C82.7908 98 82 98.7908 82 99.7663C82 100.742 82.7908 101.533 83.7663 101.533Z" fill="#929F99"></path><path d="M24.7663 26.5326C25.7418 26.5326 26.5326 25.7418 26.5326 24.7663C26.5326 23.7908 25.7418 23 24.7663 23C23.7908 23 23 23.7908 23 24.7663C23 25.7418 23.7908 26.5326 24.7663 26.5326Z" fill="#929F99"></path><path d="M19.3219 105.563C18.9229 105.563 18.5235 105.411 18.219 105.106C17.6098 104.497 17.6098 103.509 18.219 102.9L23.95 97.169C24.5592 96.5599 25.5467 96.5599 26.1559 97.169C26.765 97.7782 26.765 98.7657 26.1559 99.3749L20.4248 105.106C20.1202 105.411 19.7212 105.563 19.3219 105.563Z" fill="#929F99"></path><path d="M25.0533 105.563C24.6543 105.563 24.255 105.411 23.9504 105.106L18.2193 99.3749C17.6101 98.7657 17.6101 97.7782 18.2193 97.169C18.8285 96.5599 19.816 96.5599 20.4252 97.169L26.1562 102.9C26.7654 103.509 26.7654 104.497 26.1562 105.106C25.8512 105.411 25.4523 105.563 25.0533 105.563Z" fill="#929F99"></path><path d="M96.7619 22.683C96.3629 22.683 95.9635 22.5305 95.6589 22.2259C95.0498 21.6168 95.0498 20.6293 95.6589 20.0201L101.39 14.2887C101.999 13.6795 102.987 13.6795 103.596 14.2887C104.205 14.8979 104.205 15.8853 103.596 16.4945L97.8648 22.2259C97.5602 22.5305 97.1612 22.683 96.7619 22.683Z" fill="#929F99"></path><path d="M102.493 22.6829C102.094 22.6829 101.695 22.5304 101.39 22.2258L95.6589 16.4948C95.0498 15.8856 95.0498 14.8981 95.6589 14.2889C96.2681 13.6797 97.2556 13.6797 97.8648 14.2889L103.596 20.02C104.205 20.6292 104.205 21.6166 103.596 22.2258C103.291 22.5304 102.892 22.6829 102.493 22.6829Z" fill="#929F99"></path><path d="M56.0145 82.0063C57.0665 82.0063 57.9193 81.1535 57.9193 80.1016C57.9193 79.0496 57.0665 78.1968 56.0145 78.1968C54.9625 78.1968 54.1097 79.0496 54.1097 80.1016C54.1097 81.1535 54.9625 82.0063 56.0145 82.0063Z" fill="#303834"></path><path d="M13.9056 43.5135V60.5801H17.8587L18.7815 57.9011C19.8158 55.3411 22.3195 53.6626 25.1039 53.6626H29.717C29.717 53.6626 19.1762 66.7092 19.1762 81.0601H37.6231C37.6231 81.0601 30.9727 62.2868 44.626 45.2202L43.5525 42.5731L40.5479 44.2256C38.654 45.2675 36.4596 45.6426 34.3224 45.2897L27.5589 43.5131H13.9056V43.5135Z" fill="#25B573"></path><path d="M37.6223 82.767H19.1758C18.2324 82.767 17.4691 82.0028 17.4691 81.0603C17.4691 70.1121 23.2142 60.0688 26.3758 55.3694H25.1043C23.0026 55.3694 21.1427 56.6136 20.3662 58.5404L19.4727 61.1363C19.2359 61.8253 18.5878 62.287 17.8595 62.287H13.9056C12.9622 62.287 12.1989 61.5228 12.1989 60.5803V43.5137C12.1989 42.5712 12.9622 41.807 13.9056 41.807H27.5589C27.7057 41.807 27.8508 41.8262 27.9924 41.8629L34.7559 43.6395C36.3559 43.8964 38.1727 43.5836 39.7245 42.7312L42.7312 41.0778C43.1562 40.8427 43.666 40.8022 44.1247 40.9652C44.5834 41.1282 44.9516 41.4802 45.1346 41.932L46.2081 44.5786C46.4398 45.1512 46.3446 45.8044 45.9598 46.2861C33.0915 62.3702 39.1698 80.3137 39.233 80.4929C39.4164 81.0155 39.3345 81.5945 39.0145 82.0464C38.6945 82.4982 38.1757 82.767 37.6223 82.767ZM20.9341 79.3537H35.3657C34.0289 73.7955 31.9557 59.0652 42.5972 45.0462L41.3689 45.7221C39.1489 46.9428 36.5471 47.384 34.0438 46.9748L27.3388 45.2208H15.6123V58.8741H16.6422L17.1687 57.3458C18.5004 54.0391 21.6039 51.9565 25.1039 51.9565H29.717C30.3736 51.9565 30.9718 52.3341 31.2568 52.9272C31.5402 53.5198 31.457 54.223 31.0452 54.7346C30.9475 54.8553 21.7123 66.4598 20.9341 79.3537Z" fill="#303834"></path><path d="M34.3856 31.4418V57.1668H40.6683L42.1356 52.9897C43.7791 48.8643 47.759 46.1592 52.1844 46.1592H59.5167C59.5167 46.1592 42.9194 68.1722 42.9194 91.3001H71.9327C71.9327 91.3001 63.3994 58.8734 90.93 37.7492L81.5058 28.2878L76.7306 30.9511C73.7204 32.63 70.2324 33.2346 66.8362 32.6663L62.6864 31.9721C60.5765 31.6193 58.4415 31.4418 56.3026 31.4418H34.3856Z" fill="#F98E58"></path><path d="M71.9323 93.007H42.9189C41.9756 93.007 41.2123 92.2429 41.2123 91.3004C41.2123 72.3986 51.7889 54.543 56.2391 47.8661H52.184C48.4357 47.8661 45.1141 50.1253 43.7206 53.621L42.2789 57.732C42.0392 58.4163 41.394 58.8737 40.6691 58.8737H34.3856C33.4422 58.8737 32.6789 58.1095 32.6789 57.167V31.442C32.6789 30.4995 33.4422 29.7354 34.3856 29.7354H56.3022C58.529 29.7354 60.7707 29.9214 62.9672 30.2888L67.1173 30.9838C70.1207 31.4873 73.2375 30.9445 75.899 29.4606L80.6738 26.7973C81.342 26.4249 82.1723 26.5413 82.7154 27.0841L92.1388 36.5458C92.484 36.8931 92.6636 37.3731 92.632 37.8634C92.5988 38.3532 92.3568 38.805 91.9669 39.1041C65.697 59.2624 73.5003 90.5541 73.5835 90.8682C73.7166 91.3797 73.6053 91.925 73.2818 92.3431C72.9584 92.7613 72.4609 93.007 71.9323 93.007ZM44.6572 89.5937H69.8472C68.542 82.0161 66.0157 55.9596 88.3722 37.6005L81.2089 30.4082L77.5622 32.4426C74.2239 34.3024 70.3122 34.9791 66.5537 34.351L62.4035 33.656C60.3935 33.3202 58.3404 33.1491 56.3018 33.1491H36.0923V55.4608H39.4591L40.5258 52.4251C42.4641 47.556 47.029 44.4532 52.184 44.4532H59.5159C60.1627 44.4532 60.754 44.8189 61.0425 45.3983C61.3326 45.9773 61.2673 46.6698 60.8791 47.1865C60.7208 47.3972 45.4388 67.9395 44.6572 89.5937Z" fill="#303834"></path><path d="M73.6389 43.5135V60.5801H77.592L78.5149 57.9011C79.5491 55.3411 82.0528 53.6626 84.8372 53.6626H89.4504C89.4504 53.6626 78.9096 66.7092 78.9096 81.0601H97.3561C97.3561 81.0601 90.7056 60.5801 109.215 48.444L103.285 42.5731L100.281 44.2256C98.3869 45.2675 96.1926 45.6426 94.0554 45.2897L87.2919 43.5131H73.6389V43.5135Z" fill="#25B573"></path><path d="M97.3556 82.767H78.9091C77.9658 82.767 77.2025 82.0028 77.2025 81.0603C77.2025 70.1121 82.9475 60.0688 86.1091 55.3695H84.8377C82.7359 55.3695 80.8761 56.6136 80.0995 58.5404L79.2061 61.1363C78.9693 61.8253 78.3212 62.287 77.5929 62.287H73.6394C72.696 62.287 71.9327 61.5228 71.9327 60.5803V43.5137C71.9327 42.5712 72.696 41.807 73.6394 41.807H87.2927C87.4395 41.807 87.5845 41.8262 87.7262 41.8629L94.4897 43.6396C96.0863 43.8964 97.9065 43.5837 99.4582 42.7312L102.465 41.0779C103.125 40.7152 103.95 40.8261 104.488 41.3612L110.417 47.2321C110.782 47.5948 110.965 48.1029 110.913 48.6153C110.862 49.1278 110.582 49.5894 110.15 49.8719C92.9319 61.1619 98.9168 80.341 98.98 80.5334C99.1485 81.0526 99.0585 81.6218 98.7367 82.0634C98.4159 82.5054 97.9022 82.767 97.3556 82.767ZM80.6674 79.3537H95.1941C94.0827 73.6952 92.6926 58.5247 106.559 48.2168L102.991 44.6836L101.103 45.7221C98.8844 46.9428 96.2809 47.384 93.7776 46.9748L87.0725 45.2208H75.3456V58.8741H76.3756L76.9021 57.3458C78.2337 54.0391 81.3373 51.9566 84.8372 51.9566H89.4503C90.107 51.9566 90.7052 52.3342 90.9902 52.9272C91.2735 53.5199 91.1903 54.223 90.7786 54.7346C90.6809 54.8553 81.4457 66.4598 80.6674 79.3537Z" fill="#303834"></path></g><defs><clipPath id="clip0"><rect width="117" height="117" fill="white" transform="translate(0.5)"></rect></clipPath></defs></svg> 