<svg width="25" height="24" viewBox="0 0 25 24" fill="none" xmlns="http://www.w3.org/2000/svg">
<path d="M12.6809 7.9983C10.4242 7.9983 8.58253 9.79651 8.58253 12C8.58253 14.2035 10.4242 16.0017 12.6809 16.0017C14.9377 16.0017 16.7793 14.2035 16.7793 12C16.7793 9.79651 14.9377 7.9983 12.6809 7.9983ZM24.973 12C24.973 10.3429 24.9884 8.70077 24.8931 7.04665C24.7978 5.12535 24.3489 3.4202 22.91 2.01525C21.468 0.607302 19.7248 0.172008 17.757 0.0789456C16.0599 -0.0141172 14.3781 0.000892936 12.684 0.000892936C10.9868 0.000892936 9.30505 -0.0141172 7.61096 0.0789456C5.64324 0.172008 3.89689 0.610305 2.45799 2.01525C1.01602 3.4232 0.570208 5.12535 0.474896 7.04665C0.379585 8.70377 0.394957 10.3459 0.394957 12C0.394957 13.6541 0.379585 15.2992 0.474896 16.9533C0.570208 18.8746 1.01909 20.5798 2.45799 21.9847C3.89996 23.3927 5.64324 23.828 7.61096 23.9211C9.30813 24.0141 10.9899 23.9991 12.684 23.9991C14.3812 23.9991 16.0629 24.0141 17.757 23.9211C19.7248 23.828 21.4711 23.3897 22.91 21.9847C24.352 20.5768 24.7978 18.8746 24.8931 16.9533C24.9915 15.2992 24.973 13.6571 24.973 12ZM12.6809 18.1572C9.19129 18.1572 6.37499 15.4073 6.37499 12C6.37499 8.5927 9.19129 5.84284 12.6809 5.84284C16.1706 5.84284 18.9869 8.5927 18.9869 12C18.9869 15.4073 16.1706 18.1572 12.6809 18.1572ZM19.2451 7.02864C18.4304 7.02864 17.7724 6.38621 17.7724 5.59067C17.7724 4.79513 18.4304 4.1527 19.2451 4.1527C20.0599 4.1527 20.7178 4.79513 20.7178 5.59067C20.7181 5.77957 20.6802 5.96667 20.6062 6.14124C20.5323 6.31581 20.4238 6.47442 20.287 6.608C20.1502 6.74157 19.9878 6.84748 19.809 6.91966C19.6302 6.99185 19.4386 7.02888 19.2451 7.02864Z" fill="white"/>
</svg>
