<?xml version="1.0" encoding="UTF-8"?> <svg xmlns="http://www.w3.org/2000/svg" width="24" height="24" viewBox="0 0 24 24" fill="none"><path fill-rule="evenodd" clip-rule="evenodd" d="M13 16H21.5C21.78 16 22 15.78 22 15.5V3.5C22 3.22 21.78 3 21.5 3H2.5C2.22 3 2 3.22 2 3.5V15.5C2 15.78 2.22 16 2.5 16H11V19.8H6.99999C6.66862 19.8 6.39999 20.0687 6.39999 20.4C6.39999 20.7314 6.66862 21 6.99999 21H17C17.3314 21 17.6 20.7314 17.6 20.4C17.6 20.0687 17.3314 19.8 17 19.8H13V16Z" fill="#25B573"></path><path fill-rule="evenodd" clip-rule="evenodd" d="M7 4.8999C7.33137 4.8999 7.6 5.16853 7.6 5.4999V5.93501C7.62992 5.93951 7.65978 5.94452 7.68956 5.95005C8.58855 6.11701 9.34088 6.74416 9.57864 7.61131C9.66627 7.93088 9.47824 8.26098 9.15866 8.34861C8.83909 8.43623 8.50898 8.2482 8.42136 7.92863C8.31913 7.55578 7.97145 7.22292 7.47045 7.12988C6.9563 7.0344 6.45468 7.22124 6.20055 7.52453C6.1887 7.53879 6.10591 7.63985 6.04667 7.78044C5.98647 7.92332 5.97453 8.04717 6.01317 8.15298C6.06843 8.30255 6.1919 8.41306 6.69197 8.71745L6.69618 8.72001L6.69616 8.72002C6.90165 8.84743 7.02346 8.89699 7.20032 8.9659L7.2294 8.97722C7.42213 9.05218 7.66561 9.14688 8.05393 9.34615L8.05659 9.34752C8.87205 9.77114 9.11297 10.0354 9.2545 10.2713C9.26144 10.2828 9.268 10.2947 9.27415 10.3067C9.60711 10.9575 9.39836 11.5742 9.33624 11.725C9.03682 12.484 8.27321 12.7962 8.05287 12.8863C8.03909 12.892 8.02745 12.8967 8.01816 12.9007C7.94842 12.931 7.80054 12.9836 7.6 13.0272V13.4999C7.6 13.8313 7.33137 14.0999 7 14.0999C6.66863 14.0999 6.4 13.8313 6.4 13.4999V13.0532C6.19665 13.0159 5.98406 12.9534 5.77023 12.8555C5.1989 12.5945 4.88612 12.1995 4.78457 12.0713L4.77148 12.0548C4.76215 12.0431 4.75325 12.0311 4.74482 12.0188C4.57621 11.7723 4.4818 11.546 4.42653 11.3664C4.32908 11.0497 4.50683 10.7139 4.82355 10.6165C5.14027 10.519 5.47602 10.6968 5.57347 11.0135C5.59717 11.0906 5.64005 11.1982 5.72406 11.3247C5.80499 11.4263 5.9688 11.627 6.26918 11.7642L6.26977 11.7644C6.47757 11.8596 6.69199 11.8961 6.89047 11.8999C6.92598 11.8933 6.96259 11.8899 7 11.8899C7.02493 11.8899 7.04951 11.8914 7.07364 11.8944C7.08851 11.8932 7.10323 11.8919 7.1178 11.8904C7.34724 11.8675 7.5069 11.8118 7.53313 11.8027C7.53665 11.8014 7.53777 11.801 7.53633 11.8017L7.54363 11.7984L7.54365 11.7985L7.58221 11.7821L7.58221 11.7821C7.69362 11.7348 7.818 11.682 7.94356 11.5969C8.08088 11.5039 8.17495 11.4004 8.2208 11.2825C8.22326 11.2762 8.22584 11.2699 8.22851 11.2636C8.22759 11.2658 8.22764 11.2656 8.22837 11.2635C8.23173 11.2535 8.24965 11.2004 8.25576 11.1259C8.26236 11.0456 8.25409 10.9582 8.21521 10.8726C8.20515 10.86 8.18501 10.8388 8.14423 10.8051C8.05292 10.7297 7.86871 10.6023 7.50473 10.4131C7.17217 10.2425 6.97374 10.1653 6.79446 10.0956L6.76468 10.084C6.55706 10.0031 6.35933 9.9229 6.06601 9.74126L6.02547 9.71662C5.61295 9.46608 5.10427 9.15714 4.88699 8.56739L4.88667 8.56652C4.70551 8.07242 4.81362 7.61641 4.94083 7.31449C5.06841 7.0117 5.2394 6.80346 5.27907 6.75586L5.27984 6.75493C5.57069 6.40733 5.9651 6.161 6.4 6.02597V5.4999C6.4 5.16853 6.66863 4.8999 7 4.8999ZM16.5757 5.57564C16.8101 5.34132 17.19 5.34132 17.4243 5.57564L19.4243 7.57564C19.5959 7.74724 19.6472 8.00531 19.5543 8.22951C19.4615 8.45372 19.2427 8.5999 19 8.5999H12C11.6686 8.5999 11.4 8.33127 11.4 7.9999C11.4 7.66853 11.6686 7.3999 12 7.3999H17.5515L16.5757 6.42417C16.3414 6.18985 16.3414 5.80995 16.5757 5.57564ZM12 10.3999C11.7573 10.3999 11.5385 10.5461 11.4457 10.7703C11.3528 10.9945 11.4041 11.2526 11.5757 11.4242L13.5757 13.4242C13.8101 13.6585 14.19 13.6585 14.4243 13.4242C14.6586 13.1899 14.6586 12.81 14.4243 12.5756L13.4485 11.5999H19C19.3314 11.5999 19.6 11.3313 19.6 10.9999C19.6 10.6685 19.3314 10.3999 19 10.3999H12Z" fill="white"></path></svg> 