<?xml version="1.0" encoding="UTF-8"?> <svg xmlns="http://www.w3.org/2000/svg" width="24" height="24" viewBox="0 0 24 24" fill="none"><path d="M3 3.9V15.6C3 16.095 3.405 16.5 3.9 16.5H6.6V21L12 16.5H20.1C20.595 16.5 21 16.095 21 15.6V3.9C21 3.405 20.595 3 20.1 3H3.9C3.405 3 3 3.405 3 3.9Z" fill="#25B573"></path><path fill-rule="evenodd" clip-rule="evenodd" d="M16.1743 6.57564C16.4086 6.80995 16.4086 7.18985 16.1743 7.42417L11.1743 12.4242C10.9399 12.6585 10.56 12.6585 10.3257 12.4242L7.82573 9.92417C7.59142 9.68985 7.59142 9.30995 7.82573 9.07564C8.06004 8.84132 8.43994 8.84132 8.67426 9.07564L10.75 11.1514L15.3257 6.57564C15.56 6.34132 15.9399 6.34132 16.1743 6.57564Z" fill="white"></path></svg> 