<svg width="28" height="20" viewBox="0 0 28 20" fill="none" xmlns="http://www.w3.org/2000/svg">
<path d="M27.2584 2.36768C26.2613 2.77591 25.2037 3.04374 24.1208 3.16224C25.2615 2.53145 26.115 1.53887 26.5225 0.369473C25.4503 0.957734 24.2771 1.37197 23.0536 1.59422C22.5425 1.09033 21.9248 0.688831 21.2389 0.414601C20.5529 0.140372 19.8134 -0.000742813 19.066 2.94046e-06C16.0491 2.94046e-06 13.6029 2.26029 13.6029 5.04922C13.6029 5.44458 13.6513 5.83035 13.7446 6.20014C9.2041 5.98952 5.17883 3.97916 2.48424 0.923999C1.9984 1.6946 1.7431 2.57079 1.74454 3.46267C1.74383 4.29398 1.9653 5.11259 2.3893 5.84574C2.81329 6.5789 3.42667 7.20391 4.17493 7.66524C3.30752 7.63977 2.45923 7.42325 1.70063 7.03369C1.69993 7.05478 1.69993 7.07555 1.69993 7.09729C1.69993 9.54295 3.58289 11.5837 6.08175 12.0481C5.27712 12.2494 4.43349 12.2789 3.61471 12.1344C4.30979 14.1399 6.32727 15.6002 8.71789 15.6411C6.78268 17.0447 4.39297 17.8061 1.93301 17.8027C1.4921 17.8027 1.05741 17.779 0.629639 17.732C3.12757 19.2154 6.03477 20.0027 9.00388 20C19.0525 20 24.5475 12.3066 24.5475 5.63507C24.5475 5.41645 24.542 5.19816 24.5316 4.98114C25.6018 4.2671 26.5252 3.38203 27.2584 2.36768Z" fill="white"/>
</svg>
