<svg width="27" height="17" viewBox="0 0 27 17" fill="none" xmlns="http://www.w3.org/2000/svg">
<path d="M26.7342 4.37143C26.4968 2.55 26.2594 1.21429 25.5471 0.728571C24.8348 0.121428 18.6618 0 13.9133 0C9.16482 0 2.9918 0.121428 2.27952 0.728571C1.56725 1.21429 1.32983 2.55 1.0924 4.37143C0.854981 6.19286 0.85498 7.28571 0.85498 8.5C0.85498 9.71429 0.854981 10.8071 1.0924 12.6286C1.32983 14.45 1.56725 15.7857 2.27952 16.2714C2.9918 16.8786 9.16482 17 13.9133 17C18.6618 17 24.8348 16.8786 25.5471 16.2714C26.2594 15.7857 26.4968 14.45 26.7342 12.6286C26.9716 10.8071 26.9716 9.71429 26.9716 8.5C26.9716 7.28571 26.9716 6.19286 26.7342 4.37143ZM11.5391 12.8714V4.12857L18.6618 8.5L11.5391 12.8714Z" fill="white"/>
</svg>
