<?xml version="1.0" encoding="UTF-8"?>
<svg width="17px" height="16px" viewBox="0 0 17 16" version="1.1" xmlns="http://www.w3.org/2000/svg" xmlns:xlink="http://www.w3.org/1999/xlink">
    <title>Live dealer</title>
    <g id="Icons" stroke="none" stroke-width="1" fill="none" fill-rule="evenodd">
        <g id="Artboard" transform="translate(-132.000000, -210.000000)" fill="#000000" fill-rule="nonzero">
            <g id="Live-dealer" transform="translate(132.000000, 210.000000)">
                <path d="M16.4,12.0025 L16.4,5.98145 L14.3461,1.94079 L10.7438,1.04028 L10.7438,0 L6.05625,0 L6.05625,1.04028 L2.45395,1.94079 L0.4,5.98145 L0.4,12.0025 L3.24375,13.8774 L3.24375,16 L13.5562,16 L13.5562,13.8774 L16.4,12.0025 Z M6.99375,0.937504 L9.80624,0.937504 L9.80624,1.29566 L8.4,4.10815 L6.99375,1.29566 L6.99375,0.937504 Z M4.18125,14.9587 C4.18125,14.6342 4.18125,6.88696 4.18125,6.5625 L3.24375,6.5625 L3.24375,12.7545 L1.3375,11.4975 L1.3375,6.20606 L3.09605,2.7467 L6.2739,1.95227 L7.35178,4.10815 L6.05625,3.46033 L6.05625,6.85218 L7.93125,5.91467 L7.93125,10.3438 C7.93125,12.5773 6.35886,14.5146 4.18992,14.9577 L4.18125,14.9587 Z M7.3519,5.156255 L6.99375,5.33533 L6.99375,4.97718 L7.3519,5.156255 Z M6.33591,15.0625 C7.24522,14.4596 7.96397,13.6005 8.4,12.5978 C8.836,13.6005 9.5548,14.4596 10.4641,15.0625 L6.33591,15.0625 Z M12.6187,14.9594 L12.6164,14.959 C10.4441,14.5184 8.86872,12.5794 8.86872,10.3438 L8.86872,5.91467 L10.7438,6.85218 L10.7438,3.46033 L9.44808,4.10803 L10.5261,1.95215 L13.7039,2.7467 L15.4625,6.20606 L15.4625,11.4975 L13.5562,12.7545 L13.5562,6.5625 L12.6187,6.5625 L12.6187,14.9594 Z M9.44808,5.156255 L9.80624,4.97718 L9.80624,5.33533 L9.44808,5.156255 Z" id="Shape"></path>
                <polygon id="Path" points="9.80624 7.5 10.7438 7.5 10.7438 8.43752 9.80624 8.43752"></polygon>
                <polygon id="Path" points="9.80624 9.40623 10.7438 9.40623 10.7438 10.3438 9.80624 10.3438"></polygon>
                <polygon id="Path" points="9.80624 11.2813 10.7438 11.2813 10.7438 12.2187 9.80624 12.2187"></polygon>
            </g>
        </g>
    </g>
</svg>