<?xml version="1.0" encoding="UTF-8"?>
<svg width="14px" height="17px" viewBox="0 0 14 17" version="1.1" xmlns="http://www.w3.org/2000/svg" xmlns:xlink="http://www.w3.org/1999/xlink">
    <title>poker</title>
    <g id="Icons" stroke="none" stroke-width="1" fill="none" fill-rule="evenodd">
        <g id="Artboard" transform="translate(-286.000000, -264.000000)" fill="#000000" fill-rule="nonzero">
            <g id="poker" transform="translate(286.431818, 264.500000)">
                <path d="M6.31532913,0.16616516 C6.27759663,0.128993793 6.22642493,0.108108108 6.17306763,0.108108108 L6.17259812,0.108108108 C6.1190794,0.108108108 6.06781254,0.129342676 6.0301354,0.166792983 L1.1861347,4.98212484 C-0.149140809,6.29845722 -0.237729665,8.40342227 0.982354463,9.82415915 C2.20243859,11.244896 4.32400966,11.5072536 5.86258744,10.4276582 C5.64503668,11.1915529 5.29977922,11.7156855 4.73680331,12.5294425 L4.71919669,12.5549189 C4.67718205,12.6156348 4.67269798,12.6942677 4.7075453,12.7592388 C4.74239262,12.8242098 4.81085452,12.8648649 4.88543673,12.8648649 L7.54604872,12.8648649 C7.62063093,12.8648649 7.68909283,12.8242098 7.72394015,12.7592388 C7.75878747,12.6942677 7.75430341,12.6156348 7.71228876,12.5549189 L7.61808496,12.4188466 C7.11383132,11.6910352 6.75224163,11.168687 6.5303982,10.4180757 C8.07539463,11.472851 10.1819143,11.191905 11.3867174,9.77038981 C12.5915205,8.34887458 12.4965091,6.25649527 11.1676804,4.9466694 L6.31532913,0.16616516 Z M5.26483427,12.4683454 C5.69225596,11.8402917 5.99257461,11.3442129 6.19902482,10.7030079 C6.42127069,11.3625849 6.7500953,11.866495 7.16530973,12.4683454 L5.26483427,12.4683454 Z M10.8831574,9.72720668 C9.63600139,10.9565365 7.61829533,10.9719713 6.35191737,9.76186909 C6.31638116,9.72787912 6.26937066,9.70799608 6.21988448,9.70602593 L6.18842731,9.70477029 C6.13227254,9.70260524 6.07774232,9.72359607 6.03794939,9.76269517 C4.77655066,11.0051989 2.73170452,11.0049178 1.4706577,9.76206734 C0.209610882,8.51921685 0.209896163,6.50443914 1.47129489,5.26193538 L6.17370482,0.587367916 L10.8831239,5.22704167 C12.1420712,6.4706542 12.1420862,8.48357594 10.8831574,9.72720668 L10.8831574,9.72720668 Z" id="Shape"></path>
                <path d="M2.32249923,14.1621622 L1.78656409,14.1621622 C1.69592402,14.1621622 1.63636364,14.2141883 1.63636364,14.2733734 L1.63636364,15.7783053 C1.63636364,15.8541836 1.7374358,15.8918919 1.83850796,15.8918919 C1.93958012,15.8918919 2.0404357,15.8540187 2.0404357,15.7783053 L2.0404357,15.267215 L2.29672583,15.267215 C2.65408811,15.267215 2.93366093,15.1157552 2.93366093,14.7182186 L2.93366093,14.706408 C2.93351654,14.3088383 2.66423143,14.1621622 2.32249923,14.1621622 L2.32249923,14.1621622 Z M2.52962497,14.7466235 C2.52962497,14.9075186 2.44161999,14.983232 2.29658144,14.983232 L2.04029131,14.983232 L2.04029131,14.4839524 L2.29658144,14.4839524 C2.44161999,14.4839524 2.52962497,14.5598308 2.52962497,14.7205939 L2.52962497,14.7466235 Z" id="Shape"></path>
                <path d="M4.33797657,14.1621622 C4.03406929,14.1621622 3.7985258,14.3123686 3.7985258,14.7160932 L3.7985258,15.3379608 C3.7985258,15.7416855 4.03409999,15.8918919 4.33797657,15.8918919 C4.64185315,15.8918919 4.87960688,15.7416855 4.87960688,15.3379608 L4.87960688,14.7161914 C4.87960688,14.3123686 4.64182246,14.1621622 4.33797657,14.1621622 Z M4.53613026,15.3380917 C4.53613026,15.5000463 4.46125855,15.572826 4.33797657,15.572826 C4.21469459,15.572826 4.14200242,15.5000463 4.14200242,15.3380917 L4.14200242,14.7161914 C4.14200242,14.5542369 4.21466389,14.4814571 4.33797657,14.4814571 C4.46128925,14.4814571 4.53613026,14.5542369 4.53613026,14.7161914 L4.53613026,15.3380917 Z" id="Shape"></path>
                <path d="M6.50230719,14.9037858 L6.91383052,14.4203264 C6.93002027,14.3999752 6.93882242,14.375313 6.93894943,14.3499473 C6.93894943,14.2583334 6.80845704,14.1622043 6.70805136,14.1622043 C6.66639909,14.161127 6.62725147,14.1807592 6.60516179,14.2138026 L6.13594892,14.8357298 L6.13594892,14.2725009 C6.13594892,14.1950544 6.03799217,14.1622043 5.94021033,14.1622043 C5.8424285,14.1622043 5.74447174,14.1949236 5.74447174,14.2725009 L5.74447174,15.7650543 C5.74447174,15.8403085 5.8424285,15.8777066 5.94021033,15.8777066 C6.03799217,15.8777066 6.13594892,15.8401449 6.13594892,15.7650543 L6.13594892,15.3402932 L6.24132241,15.2135716 L6.67040798,15.8237199 C6.69895321,15.8677877 6.75085721,15.8938578 6.80590317,15.8917759 C6.91883331,15.8917759 7.04176904,15.800162 7.04176904,15.7087445 C7.0412977,15.6870496 7.03434147,15.6659114 7.02168791,15.6477231 L6.50230719,14.9037858 Z" id="Path"></path>
                <path d="M8.87984368,14.4839524 C8.94867524,14.4839524 8.98771499,14.408074 8.98771499,14.320682 C8.98771499,14.2448036 8.95555519,14.1621622 8.87984368,14.1621622 L8.06272891,14.1621622 C7.98468141,14.1621622 7.90663391,14.2000024 7.90663391,14.2757158 L7.90663391,15.7783053 C7.90663391,15.8541836 7.98468141,15.8918919 8.06272891,15.8918919 L8.87984368,15.8918919 C8.95555519,15.8918919 8.98771499,15.8090855 8.98771499,15.7333721 C8.98771499,15.6458151 8.94867524,15.5700687 8.87984368,15.5700687 L8.26471161,15.5700687 L8.26471161,15.1678144 L8.60899741,15.1678144 C8.68470893,15.1678144 8.71686872,15.092101 8.71686872,15.0281982 C8.71686872,14.9523198 8.67786097,14.8838644 8.60899741,14.8838644 L8.26471161,14.8838644 L8.26471161,14.4839524 L8.87984368,14.4839524 Z" id="Path"></path>
                <path d="M10.8247723,15.1407932 C11.0038637,15.0774503 11.1343389,14.9272398 11.1343389,14.6644123 C11.1343389,14.2819006 10.8554472,14.1622165 10.5049688,14.1622165 L9.97539901,14.1622165 C9.94297287,14.1612788 9.91153378,14.1725194 9.88835254,14.1933387 C9.86517131,14.214158 9.85225563,14.242753 9.85258604,14.2725104 L9.85258604,15.7650289 C9.85258604,15.8402814 9.95246418,15.8776786 10.0521219,15.8776786 C10.1517796,15.8776786 10.2518653,15.8401178 10.2518653,15.7650289 L10.2518653,15.1994574 L10.4207198,15.1994574 L10.7712339,15.8236932 C10.7955758,15.8674721 10.8456273,15.8941026 10.899141,15.8917476 C11.016847,15.8917476 11.1498664,15.7931996 11.1498664,15.701686 C11.1501259,15.6867566 11.1456785,15.6720746 11.1370497,15.6594137 L10.8247723,15.1407932 Z M10.5049688,14.9178496 L10.2517226,14.9178496 L10.2517226,14.4813524 L10.5049688,14.4813524 C10.6482133,14.4813524 10.7352087,14.5353379 10.7352087,14.6996174 C10.7352087,14.8638968 10.6482133,14.9178496 10.5049688,14.9178496 Z" id="Shape"></path>
            </g>
        </g>
    </g>
</svg>