<?xml version="1.0" encoding="UTF-8"?>
<svg width="16px" height="16px" viewBox="0 0 16 16" version="1.1" xmlns="http://www.w3.org/2000/svg" xmlns:xlink="http://www.w3.org/1999/xlink">
    <title>sports betting</title>
    <g id="Icons" stroke="none" stroke-width="1" fill="none" fill-rule="evenodd">
        <g id="Artboard" transform="translate(-365.000000, -264.000000)" fill="#000000" fill-rule="nonzero">
            <g id="sports-betting" transform="translate(365.000000, 264.000000)">
                <path d="M7.98584016,0.00109161793 C3.57339571,-0.0394230019 -0.116366472,3.71817544 0.00280701754,8.13186745 C0.0252319688,11.9054035 2.94615205,15.2980273 6.67624172,15.8584951 C6.82526316,15.8584951 6.95709942,15.7513294 6.98326706,15.5994698 C7.01246004,15.4297388 6.8985575,15.2684288 6.72879532,15.2392047 C6.48249513,15.1967875 6.23647563,15.1410526 5.99547758,15.0735283 L5.13874464,12.4364912 L6.59518129,10.4571696 L9.3765614,10.4571696 L10.8329981,12.4364912 L9.97442495,15.0791423 C9.73501754,15.145232 9.49102534,15.1990955 9.24294737,15.2391735 C9.07318519,15.2683977 8.95925146,15.4297076 8.98850682,15.5994698 C9.01776218,15.769232 9.17929045,15.8831345 9.34877193,15.8539103 C13.1162573,15.2420741 16.0124756,11.808 15.9702768,7.98552827 C16.0078908,3.62725926 12.3419883,-0.0382690058 7.98584016,0.00109161793 Z M11.3367953,12.0687096 L9.88035867,10.0893879 L10.739306,7.44573879 L13.0994152,6.65359844 L15.3422846,8.28304094 C15.3009591,9.65373879 14.8485926,10.9607485 14.1033918,12.0687096 L11.3367953,12.0687096 L11.3367953,12.0687096 Z M4.63488499,12.0687096 L1.87072125,12.0687096 C1.1237115,10.9533879 0.671345029,9.64098246 0.626276803,8.28531774 L2.87223392,6.65359844 L5.23231189,7.4457076 L6.09125926,10.0893567 L4.63488499,12.0687096 Z M0.638846004,7.505154 C0.710612086,6.25303704 1.1145731,5.07586745 1.76159064,4.06128655 L2.45239766,6.18760234 L0.638846004,7.505154 Z M5.84711111,7.3191423 L7.98584016,5.76527096 L10.1245692,7.3191423 L9.30766472,9.83338791 L6.66401559,9.83338791 L5.84711111,7.3191423 Z M13.5192827,6.18763353 L14.2100585,4.06131774 C14.8571384,5.07596101 15.261193,6.2531306 15.3328655,7.50521637 L13.5192827,6.18763353 Z M13.7593138,3.4299883 L12.9045458,6.06103704 L10.544499,6.8531462 L8.29776218,5.22080312 L8.29776218,2.7117037 L10.5450292,1.07911111 C11.8112749,1.55499415 12.9244756,2.37922807 13.7593138,3.4299883 Z M9.8051306,0.845598441 L7.98584016,2.16726706 L6.16661209,0.84562963 C6.75134503,0.695672515 7.36130994,0.618354776 7.98584016,0.624873294 C8.61033918,0.618292398 9.22033528,0.695610136 9.8051306,0.845598441 Z M5.42671345,1.0791423 L7.67394932,2.7117037 L7.67394932,5.22080312 L5.42721248,6.8531462 L3.06716569,6.06103704 L2.21236647,3.42992593 C3.0471423,2.37919688 4.16031189,1.55502534 5.42671345,1.0791423 Z M2.33643665,12.6924912 L4.5659883,12.6924912 L5.26069396,14.8308148 C4.11730214,14.3822846 3.11454191,13.6309084 2.33643665,12.6924912 Z M10.7109552,14.8308148 L11.4056608,12.6924912 L13.6354308,12.6924912 C12.8556413,13.62754 11.8511033,14.3745497 10.7109552,14.8308148 Z" id="Shape"></path>
                <circle id="Oval" cx="7.98584016" cy="15.6580117" r="1"></circle>
            </g>
        </g>
    </g>
</svg>