<?xml version="1.0" encoding="UTF-8"?>
<svg width="16px" height="16px" viewBox="0 0 16 16" version="1.1" xmlns="http://www.w3.org/2000/svg" xmlns:xlink="http://www.w3.org/1999/xlink">
    <title>jackpot</title>
    <g id="Icons" stroke="none" stroke-width="1" fill="none" fill-rule="evenodd">
        <g id="Artboard" transform="translate(-332.000000, -263.000000)" fill="#000000" fill-rule="nonzero">
            <g id="jackpot" transform="translate(332.031120, 263.000000)">
                <path d="M0.563667021,9.93529563 L0.444891087,11.7581691 C0.438018656,11.8641079 0.49520229,11.9638226 0.590248963,12.0114108 L2.43166493,12.941001 L3.36190354,14.7821577 C3.40936202,14.876556 3.5081691,14.93361 3.61358921,14.9275156 L5.68283193,14.8135373 L7.41052906,15.9526712 C7.49922198,16.0111515 7.61423754,16.0111515 7.70293049,15.9526712 L9.43036827,14.813667 L11.4997407,14.9275156 C11.6050311,14.9333506 11.7038382,14.8762967 11.7512967,14.782028 L12.6815353,12.940612 L14.5230809,12.0103734 C14.6181276,11.9623963 14.6751815,11.8622925 14.6683091,11.7560944 L14.5496629,9.93529563 C14.5401971,9.79642118 14.4237552,9.68918569 14.2844917,9.69123078 L0.828578855,9.69123078 C0.689445012,9.68931535 0.57313278,9.79642118 0.563667021,9.93529563 L0.563667021,9.93529563 Z M1.07754151,10.2223807 L14.0356587,10.2223807 L14.1268153,11.6195539 L12.3641079,12.5079097 C12.313667,12.5330654 12.2725623,12.5739108 12.246888,12.6240923 L11.3554201,14.3883558 L9.37188797,14.2787863 C9.31496368,14.2754149 9.25868777,14.2907158 9.21109959,14.3220954 L7.55653527,15.4128631 L5.90197095,14.3219658 C5.85866184,14.2933091 5.80783197,14.2780083 5.75596475,14.2780083 C5.75103734,14.2780083 5.74623963,14.278138 5.74131223,14.2783973 L3.75778008,14.3875778 L2.86631223,12.6231847 C2.84076763,12.5726141 2.79966287,12.5315093 2.74909232,12.5058351 L0.986384863,11.6195539 L1.07754151,10.2223807 Z" id="Shape"></path>
                <path d="M0.828578855,6.30539431 L14.2844917,6.30539431 C14.4236255,6.30731326 14.5400674,6.20007781 14.5495332,6.06120332 L14.6681795,4.23832989 C14.6750519,4.13239107 14.6178682,4.03267635 14.5229512,3.98508817 L12.6814056,3.05549793 L11.751167,1.21421162 C11.7037085,1.11994294 11.6049014,1.062889 11.499611,1.06885374 L9.43023861,1.18283193 L7.70267117,0.0438277842 C7.61397822,-0.0146524813 7.49896266,-0.0146524813 7.41026971,0.0438277842 L5.68283193,1.18296163 L3.61358921,1.0689834 C3.5081691,1.06314835 3.40949172,1.12020229 3.36190354,1.21447097 L2.43166493,3.05588694 L0.590248963,3.9862552 C0.49520229,4.03423237 0.438018656,4.13420644 0.444891087,4.24053424 L0.563667021,6.06120332 C0.57313278,6.20007781 0.689445012,6.30731326 0.828578855,6.30539431 Z M2.74909232,3.4906639 C2.79966287,3.4651193 2.84076763,3.42401454 2.86631223,3.37331432 L3.75778008,1.60892116 L5.74118257,1.71810164 C5.79810685,1.72121368 5.85451246,1.70604252 5.90197095,1.67466287 L7.55653527,0.583765577 L9.21109959,1.67466287 C9.25855807,1.70604252 9.31496368,1.72121368 9.37188797,1.71810164 L11.3554201,1.60892116 L12.2467583,3.37331432 C12.2723029,3.42401454 12.3134077,3.4651193 12.3641079,3.4906639 L14.1266857,4.37694503 L14.0356587,5.77424793 L1.07754151,5.77424793 L0.986255203,4.37694503 L2.74909232,3.4906639 Z" id="Shape"></path>
                <path d="M0.866052913,9.24805497 C1.3830394,9.24805497 1.6810166,8.9565612 1.6810166,8.44813278 L1.6810166,6.94437241 C1.6810166,6.82352179 1.55225623,6.77022822 1.43542533,6.77022822 L0.854512465,6.77022822 C0.735217859,6.77022822 0.681924282,6.89678423 0.681924282,7.01581949 C0.681924282,7.16039937 0.752852714,7.26815353 0.854512465,7.26815353 L1.11670124,7.26815353 L1.11670124,8.44826244 C1.11670124,8.65728734 1.02567429,8.76361514 0.836229245,8.76361514 C0.585062241,8.76361514 0.572873427,8.57300312 0.563148349,8.44683612 C0.553941909,8.33311721 0.463563286,8.2755446 0.292271801,8.2755446 C0.1156639,8.2755446 0.014911834,8.31846473 0.014911834,8.53786307 C0.014911834,8.9626556 0.357754158,9.24805497 0.866052913,9.24805497 L0.866052913,9.24805497 Z" id="Path"></path>
                <path d="M2.69294606,9.12551867 L2.80251555,8.72860478 L3.47756744,8.72860478 L3.58713693,9.12564833 C3.60736515,9.19657676 3.67142115,9.23106848 3.7723029,9.23106848 C3.91454875,9.23106848 4.12085062,9.14043051 4.12085062,9.00064833 C4.12007263,8.98638486 4.11760893,8.97225102 4.11358921,8.95850622 L3.49273859,6.93296163 C3.45759854,6.82105809 3.31846473,6.74857364 3.13835582,6.74857364 C2.9582469,6.74857364 2.81911306,6.82079874 2.78384335,6.93283193 L2.16623442,8.95863588 C2.16221474,8.97186204 2.1598807,8.98547718 2.15897301,8.99922198 C2.15897301,9.13900415 2.36553424,9.23106848 2.50752073,9.23106848 C2.60853215,9.23106848 2.67258818,9.19657676 2.69294606,9.12551867 Z M2.91766078,8.29706951 L3.13835582,7.4870332 L3.35892116,8.29706951 L2.91766078,8.29706951 Z" id="Shape"></path>
                <path d="M5.41714211,7.25298237 C5.68516598,7.25298237 5.69359439,7.45124481 5.69683612,7.53604773 C5.70318984,7.65002593 5.79642118,7.70785789 5.97276973,7.70785789 C6.1473029,7.70785789 6.24844398,7.66493776 6.24844398,7.44553942 C6.24844398,7.03410271 5.90676866,6.76841288 5.39056017,6.76841288 C4.87357364,6.76841288 4.5689834,7.06003632 4.5689834,7.56833507 L4.5689834,8.44800312 C4.5689834,8.95643154 4.8737033,9.24805497 5.39056017,9.24805497 C5.89898858,9.24805497 6.24455396,8.96252594 6.24455396,8.53773341 C6.24455396,8.31833507 6.14445019,8.27541494 5.96784232,8.27541494 C5.79642118,8.27541494 5.70591286,8.33298755 5.69670642,8.44683612 C5.68698131,8.57287343 5.67116183,8.76348548 5.41999482,8.76348548 C5.23054978,8.76348548 5.13329876,8.65715768 5.13329876,8.44813278 L5.13329876,7.56846473 C5.13329876,7.35905082 5.22990144,7.25298237 5.41714211,7.25298237 Z" id="Path"></path>
                <path d="M7.07520747,6.76828319 C6.94813278,6.76828319 6.79304979,6.81353733 6.79304979,6.94087137 L6.79304979,9.05212654 C6.79304979,9.1729772 6.94242739,9.22808611 7.07520747,9.22808611 C7.20798755,9.22808611 7.35736515,9.1729772 7.35736515,9.05212654 L7.35736515,8.45707987 L7.48067947,8.30057056 L8.03630705,9.14393155 C8.0771525,9.21135894 8.15132262,9.251167 8.23003114,9.24805497 C8.39276451,9.24805497 8.55886931,9.10905082 8.55886931,8.97264003 C8.55835061,8.93866702 8.54823651,8.90560166 8.52969398,8.87720435 L7.84919605,7.83493258 L8.38667014,7.1598807 C8.41014005,7.12824169 8.4229772,7.08985995 8.42323651,7.05044086 C8.42323651,6.90767635 8.23884853,6.76828319 8.10114108,6.76828319 C8.04019711,6.76659751 7.98275416,6.79693982 7.94981846,6.84841806 L7.35736515,7.68529563 L7.35736515,6.94087137 C7.35736515,6.81353733 7.20228216,6.76828319 7.07520747,6.76828319 L7.07520747,6.76828319 Z" id="Path"></path>
                <path d="M9.58143154,9.05225623 L9.58143154,8.36345955 L9.88355811,8.36345955 C10.4209025,8.36345955 10.7100622,8.07235479 10.7100622,7.56496368 L10.7100622,7.54836617 C10.7100622,7.04538383 10.4327023,6.77009856 9.91675313,6.77009856 L9.22964212,6.77009856 C9.11034752,6.77009856 9.01711618,6.84258297 9.01711618,6.94087137 L9.01711618,9.05212654 C9.01711618,9.1729772 9.16649378,9.22808611 9.29927386,9.22808611 C9.43205394,9.22808611 9.58143154,9.17310685 9.58143154,9.05225623 L9.58143154,9.05225623 Z M10.1789419,7.60490144 C10.1789419,7.81133298 10.0680757,7.93192428 9.88355811,7.93192428 L9.58143154,7.93192428 L9.58143154,7.26802387 L9.88355811,7.26802387 C10.0682054,7.26802387 10.1789419,7.3620332 10.1789419,7.56833507 L10.1789419,7.60490144 Z" id="Shape"></path>
                <path d="M12.8677386,8.44813278 L12.8677386,7.56846473 C12.8677386,7.05251555 12.5735218,6.76841288 12.0361774,6.76841288 C11.5010373,6.76841288 11.2079876,7.05251555 11.2079876,7.56846473 L11.2079876,8.44813278 C11.2079876,8.96395227 11.5010373,9.24805497 12.0361774,9.24805497 C12.5735218,9.24805497 12.8677386,8.96395227 12.8677386,8.44813278 L12.8677386,8.44813278 Z M12.3366183,8.44813278 C12.3366183,8.65715768 12.2400156,8.76348548 12.0527749,8.76348548 C11.8677386,8.76348548 11.7723029,8.65715768 11.7723029,8.44813278 L11.7723029,7.56846473 C11.7723029,7.35931017 11.8677386,7.25311203 12.0527749,7.25311203 C12.2400156,7.25311203 12.3366183,7.35931017 12.3366183,7.56846473 L12.3366183,8.44813278 Z" id="Shape"></path>
                <path d="M13.3192428,7.01568983 C13.3192428,7.16428943 13.3901712,7.26802387 13.4918309,7.26802387 L13.9299793,7.26802387 L13.9299793,9.05225623 C13.9299793,9.17310685 14.0793568,9.22821577 14.2121369,9.22821577 C14.344917,9.22821577 14.4942946,9.17310685 14.4942946,9.05225623 L14.4942946,7.26802387 L14.9258299,7.26802387 C15.0274896,7.26802387 15.0984181,7.16428943 15.0984181,7.01568983 C15.0984181,6.89341285 15.0451245,6.77009856 14.9258299,6.77009856 L13.4918309,6.77009856 C13.3725363,6.77009856 13.3192428,6.89341285 13.3192428,7.01568983 L13.3192428,7.01568983 Z" id="Path"></path>
            </g>
        </g>
    </g>
</svg>