<?xml version="1.0" encoding="UTF-8"?> <svg xmlns="http://www.w3.org/2000/svg" width="232" height="29" viewBox="0 0 232 29" fill="none"><path d="M1.47026 6.09794C2.41866 4.30078 3.86845 2.81528 5.6449 1.82049C7.44935 0.798237 9.52248 0.287109 11.8643 0.287109C14.8413 0.287109 17.343 1.07853 19.3697 2.66138C21.3963 4.24422 22.7036 6.39473 23.2914 9.11289C20.9275 9.11289 18.5305 9.06107 16.1595 9.11289C15.578 7.56302 13.7956 6.48188 12.2047 6.33584C8.65887 6.0155 6.72757 9.20004 6.72757 12.3422C6.72757 14.1841 7.1838 15.65 8.09627 16.7398C9.00873 17.8295 10.2309 18.3736 11.7627 18.3721C12.6863 18.3907 13.596 18.1455 14.3842 17.6654C15.1625 17.1664 15.7784 16.4529 16.1572 15.6115H23.2914C22.7052 18.3281 21.3979 20.4786 19.3697 22.063C17.3415 23.6474 14.8397 24.4389 11.8643 24.4373C9.52248 24.4373 7.44935 23.9269 5.6449 22.9063C3.86837 21.9105 2.41862 20.4242 1.47026 18.6265C0.490033 16.7971 -8.20842e-05 14.7031 -8.20842e-05 12.3445C-0.0392513 10.1729 0.466134 8.02579 1.47026 6.09794Z" fill="url(#paint0_linear)"></path><path d="M8.19555 18.6263C7.21374 16.7969 6.72363 14.703 6.72521 12.3444C6.68604 10.172 7.19142 8.02414 8.19555 6.09545C9.14328 4.2978 10.5932 2.81214 12.3702 1.81799C13.2713 1.30833 14.2386 0.924714 15.2447 0.677968C14.1382 0.41026 13.0029 0.278944 11.8643 0.286968C9.52248 0.286968 7.44935 0.79731 5.6449 1.81799C3.86845 2.81278 2.41866 4.29828 1.47026 6.09545C0.466127 8.02414 -0.0392466 10.172 -8.25734e-05 12.3444C-8.25734e-05 14.6998 0.490032 16.7938 1.47026 18.6263C2.41866 20.4235 3.86845 21.909 5.6449 22.9038C7.44935 23.926 9.52248 24.4371 11.8643 24.4371C13.0029 24.4452 14.1382 24.3139 15.2447 24.0461C14.2385 23.7986 13.2712 23.4142 12.3702 22.9038C10.5932 21.9096 9.14328 20.424 8.19555 18.6263Z" fill="url(#paint1_linear)"></path><path d="M40.0349 20.2424H31.584L30.298 24.117H23.334L32.0237 0.369629H39.6614L48.3157 24.117H41.3185L40.0349 20.2424ZM38.3802 15.19L35.8106 7.51128L33.2765 15.19H38.3802Z" fill="#2D3449"></path><path d="M51.2967 22.3763C49.5175 21.0651 48.5601 19.1808 48.4246 16.7233H55.4902C55.5564 17.5555 55.8039 18.1617 56.2325 18.5417C56.6793 18.8913 57.2258 19.0911 57.7936 19.1122C58.3613 19.1334 58.9213 18.9749 59.393 18.6594C59.5867 18.5123 59.7416 18.3206 59.8445 18.1007C59.9474 17.8808 59.9953 17.6393 59.984 17.3969C59.9887 17.0634 59.8994 16.7352 59.7265 16.4496C59.5535 16.1641 59.3037 15.9325 59.0054 15.7811C57.9903 15.251 56.9254 14.8218 55.8259 14.4998C54.5359 14.0899 53.2767 13.5893 52.0579 13.0017C51.0719 12.4959 50.2161 11.7705 49.5569 10.8818C48.8477 9.95222 48.4923 8.73446 48.4907 7.22856C48.4539 5.83724 48.8566 4.46952 49.642 3.31855C50.4363 2.20545 51.5374 1.34558 52.812 0.843002C54.2729 0.259702 55.8361 -0.0269857 57.4097 -0.000240152C60.1802 -0.000240152 62.3976 0.645147 64.0617 1.93592C65.7259 3.22669 66.61 5.04037 66.714 7.37695H59.5041C59.4821 6.65776 59.2622 6.11837 58.8446 5.75878C58.3945 5.38843 57.8228 5.19714 57.2395 5.22174C56.7939 5.20378 56.3585 5.35824 56.0245 5.65278C55.8617 5.81532 55.7354 6.01044 55.6539 6.22523C55.5724 6.44002 55.5376 6.6696 55.5517 6.8988C55.5505 7.11887 55.5968 7.33662 55.6873 7.53736C55.7779 7.73809 55.9106 7.91713 56.0765 8.06238C56.4612 8.41116 56.9003 8.69518 57.3766 8.90327C57.8967 9.13881 58.6634 9.43638 59.6767 9.79598C60.9566 10.2183 62.2047 10.7307 63.4117 11.3294C64.4019 11.8427 65.2669 12.5663 65.9458 13.4492C66.6581 14.3584 67.0135 15.5095 67.0119 16.9023C67.0355 18.2479 66.6677 19.5715 65.9529 20.7134C65.2027 21.8731 64.1368 22.7963 62.8798 23.375C61.5387 24.0282 59.9556 24.3541 58.1307 24.3525C55.3508 24.3525 53.0728 23.6938 51.2967 22.3763Z" fill="#2D3449"></path><path d="M75.3587 0.369629V24.117H68.7397V0.369629H75.3587Z" fill="#2D3449"></path><path d="M99.8653 24.117H93.2464L84.4173 10.8466V24.117H77.7983V0.369629H84.4173L93.2417 13.8097V0.369629H99.8606L99.8653 24.117Z" fill="#2D3449"></path><path d="M107.574 22.7862C105.725 21.7644 104.188 20.2627 103.127 18.4405C102.02 16.533 101.454 14.3617 101.489 12.1586C101.457 9.95943 102.023 7.79266 103.127 5.88841C104.184 4.06508 105.722 2.56469 107.574 1.54971C109.467 0.53253 111.583 0 113.734 0C115.885 0 118.002 0.53253 119.894 1.54971C121.736 2.56557 123.262 4.06652 124.305 5.88841C125.404 7.79889 125.965 9.96898 125.929 12.1703C125.965 14.3717 125.404 16.5418 124.305 18.4522C123.254 20.2757 121.723 21.7784 119.878 22.798C117.991 23.8257 115.876 24.3644 113.726 24.3644C111.576 24.3644 109.46 23.8257 107.574 22.798V22.7862ZM117.739 16.5726C118.719 15.4734 119.209 14.0021 119.209 12.1586C119.209 10.2742 118.719 8.78715 117.739 7.69737C116.758 6.6076 115.419 6.06271 113.72 6.06271C112.008 6.06271 110.669 6.6076 109.701 7.69737C108.734 8.78715 108.249 10.2742 108.247 12.1586C108.247 14.024 108.732 15.5009 109.701 16.5891C110.67 17.6773 112.01 18.2214 113.72 18.2214C115.414 18.2214 116.748 17.6718 117.722 16.5726H117.739Z" fill="#2D3449"></path><path d="M157.436 5.77768V9.65706H165.043V14.6741H157.436V18.9469H166.057V24.2348H150.817V0.489746H166.064V5.77768H157.436Z" fill="#2D3449"></path><path d="M174.609 5.77768V9.65706H182.216V14.6741H174.609V18.9469H183.23V24.2348H167.986V0.489746H183.23V5.77768H174.609Z" fill="#2D3449"></path><path d="M201.168 1.9878C202.994 2.93511 204.503 4.39308 205.51 6.18281C206.548 8.07029 207.073 10.1952 207.033 12.347C207.069 14.4877 206.538 16.6001 205.494 18.4711C204.474 20.2677 202.962 21.7382 201.135 22.7108C199.243 23.7331 197.062 24.2434 194.591 24.2419H185.157V0.489746H194.587C197.083 0.489746 199.277 0.989096 201.168 1.9878ZM198.648 16.827C199.751 15.7717 200.303 14.28 200.303 12.3517C200.303 10.3967 199.751 8.88605 198.648 7.81983C197.545 6.75361 196.021 6.21893 194.076 6.21579H191.783V18.4075H194.076C196.018 18.4075 197.54 17.8799 198.643 16.8246L198.648 16.827Z" fill="#2D3449"></path><path d="M149.361 0.489747V3.74023C149.361 4.27185 149.149 4.7817 148.771 5.15761C148.394 5.53352 147.882 5.7447 147.349 5.7447H139.827V9.92087H146.857V12.9358C146.857 13.1989 146.806 13.4595 146.705 13.7027C146.604 13.9459 146.456 14.1669 146.269 14.353C146.083 14.5392 145.861 14.6869 145.617 14.7877C145.373 14.8884 145.112 14.9403 144.848 14.9403H139.827V22.2421C139.827 22.7731 139.615 23.2823 139.238 23.6578C138.862 24.0333 138.351 24.2442 137.818 24.2442H133.201V2.49186C133.201 2.22863 133.254 1.96804 133.355 1.72496C133.456 1.48189 133.605 1.26109 133.792 1.07518C133.979 0.889263 134.201 0.741875 134.445 0.641427C134.689 0.540979 134.951 0.489438 135.215 0.489747H149.361Z" fill="url(#paint2_linear)"></path><path d="M139.827 0.489747V22.2327C139.827 22.7637 139.615 23.2729 139.238 23.6484C138.862 24.0239 138.351 24.2348 137.818 24.2348H133.201V2.49186C133.201 2.22863 133.254 1.96804 133.355 1.72496C133.456 1.48189 133.605 1.26109 133.792 1.07518C133.979 0.889263 134.201 0.741875 134.445 0.641427C134.689 0.540979 134.951 0.489438 135.215 0.489747H139.827Z" fill="url(#paint3_linear)"></path><path d="M217.424 10.0151L216.041 13.6613L219.171 11.0185L217.424 10.0151Z" fill="#1B989E"></path><path d="M232 0L217.424 10.0153L223.093 13.2752L232 0Z" fill="url(#paint4_linear)"></path><path d="M214.658 8.423L232 0L208.99 5.16309L214.658 8.423Z" fill="url(#paint5_linear)"></path><path d="M216.041 13.6615L217.424 10.0153L232 0L214.658 8.423L216.041 13.6615Z" fill="url(#paint6_linear)"></path><path d="M232 0L214.358 8.25106L214.658 8.423L232 0Z" fill="url(#paint7_linear)"></path><path d="M232 0L217.424 10.0153L217.701 10.1754L232 0Z" fill="url(#paint8_linear)"></path><path d="M216.805 12.7969C214.46 15.7381 211.771 18.3901 208.796 20.697C207.303 21.8536 205.722 22.8939 204.068 23.8085C202.403 24.7335 200.636 25.4661 198.804 25.992C196.954 26.5283 195.03 26.7723 193.104 26.7151C191.164 26.6564 189.251 26.2478 187.457 25.5091C186.65 25.1719 185.884 24.7453 185.174 24.2372H187.221C187.433 24.3502 187.651 24.4539 187.871 24.5528C189.544 25.271 191.332 25.6873 193.152 25.7823C194.982 25.8802 196.816 25.6927 198.589 25.2265C202.163 24.3008 205.491 22.4965 208.517 20.3248C210.035 19.2329 211.487 18.0531 212.867 16.7917C214.257 15.5382 215.572 14.2043 216.805 12.7969Z" fill="url(#paint9_linear)"></path><path d="M181.826 17.2981C181.976 17.8597 182.164 18.4105 182.389 18.9469H181.091C180.882 18.4082 180.705 17.8577 180.561 17.2981C180.505 17.0837 180.455 16.8694 180.408 16.6551C180.311 16.184 180.226 15.6988 180.171 15.2182C180.148 15.0369 180.129 14.8508 180.112 14.6694H181.368C181.368 14.8037 181.391 14.9403 181.408 15.0746C181.455 15.5221 181.528 15.9673 181.613 16.4077C181.675 16.7077 181.746 17.0044 181.826 17.2981Z" fill="url(#paint10_linear)"></path><path d="M185.157 22.8334V24.2325C184.45 23.7301 183.803 23.1475 183.23 22.4966V20.5698C183.382 20.8054 183.542 21.0409 183.703 21.2765C183.929 21.5817 184.174 21.8727 184.436 22.148L184.566 22.2893C184.668 22.3906 184.772 22.4895 184.876 22.5861C184.98 22.6826 185.065 22.7533 185.157 22.8334Z" fill="url(#paint11_linear)"></path><path d="M180.311 11.4117C180.172 11.8615 180.023 12.3114 179.86 12.7543C179.625 13.4028 179.365 14.0411 179.08 14.6692C178.764 15.3586 178.426 16.0338 178.063 16.6949C177.629 17.4692 177.156 18.2208 176.645 18.9467C176.053 19.8021 175.402 20.6144 174.695 21.3775C173.727 22.4264 172.664 23.3836 171.52 24.237C171.118 24.5369 170.707 24.8203 170.286 25.0873C168.672 26.1193 166.936 26.9491 165.118 27.5581C163.315 28.1621 161.453 28.575 159.563 28.79C157.687 29.0044 155.796 29.0557 153.911 28.9431C155.779 28.8404 157.638 28.6138 159.476 28.2647C161.298 27.9153 163.083 27.3972 164.809 26.7172C166.458 26.0677 168.029 25.2358 169.492 24.237C171.057 23.1726 172.481 21.9141 173.728 20.4918C174.164 19.9893 174.582 19.4711 174.981 18.9372C175.671 18.0099 176.294 17.0346 176.846 16.0189C177.082 15.5737 177.318 15.1191 177.534 14.6598C178.092 13.4658 178.575 12.2377 178.978 10.983C179.12 10.5449 179.247 10.1068 179.38 9.65687V9.64274L179.479 9.31062L179.541 9.11983L179.583 9.00677C179.607 8.944 179.636 8.88334 179.671 8.8254C179.693 8.78891 179.718 8.75425 179.746 8.72176C179.809 8.6449 179.888 8.58211 179.977 8.53748C180.065 8.49284 180.163 8.46736 180.262 8.4627C180.362 8.45803 180.461 8.47428 180.554 8.5104C180.646 8.54651 180.731 8.60167 180.8 8.6723C180.861 8.73469 180.911 8.80624 180.949 8.88429C180.972 8.93695 180.991 8.99128 181.006 9.04681C181.006 9.0845 181.02 9.11041 181.025 9.13632C181.042 9.23289 181.046 9.3012 181.053 9.37186C181.06 9.44253 181.068 9.5603 181.072 9.64745H180.836L180.815 9.71575L180.72 10.0432C180.585 10.4954 180.453 10.9571 180.311 11.4117Z" fill="url(#paint12_linear)"></path><defs><linearGradient id="paint0_linear" x1="20.2585" y1="4.7742" x2="1.32856" y2="22.0129" gradientUnits="userSpaceOnUse"><stop stop-color="#48D898"></stop><stop offset="0.24" stop-color="#46D698"></stop><stop offset="0.38" stop-color="#41CD99"></stop><stop offset="0.49" stop-color="#37C09A"></stop><stop offset="0.59" stop-color="#29AC9C"></stop><stop offset="0.66" stop-color="#1B989E"></stop><stop offset="0.77" stop-color="#118282"></stop></linearGradient><linearGradient id="paint1_linear" x1="9.13165" y1="-0.266557" x2="7.03569" y2="25.0885" gradientUnits="userSpaceOnUse"><stop stop-color="#1B989E"></stop><stop offset="0.51" stop-color="#3BC69A"></stop><stop offset="0.77" stop-color="#48D898"></stop><stop offset="0.98" stop-color="#5EEAA7"></stop></linearGradient><linearGradient id="paint2_linear" x1="133.201" y1="12.3634" x2="149.361" y2="12.3634" gradientUnits="userSpaceOnUse"><stop offset="0.4" stop-color="#118282"></stop><stop offset="0.47" stop-color="#1B989E"></stop><stop offset="0.53" stop-color="#29AC9C"></stop><stop offset="0.61" stop-color="#37C09A"></stop><stop offset="0.7" stop-color="#41CD99"></stop><stop offset="0.81" stop-color="#46D698"></stop><stop offset="1" stop-color="#48D898"></stop></linearGradient><linearGradient id="paint3_linear" x1="136.626" y1="-0.395893" x2="136.396" y2="25.9237" gradientUnits="userSpaceOnUse"><stop offset="0.02" stop-color="#5EEAA7"></stop><stop offset="0.23" stop-color="#48D898"></stop><stop offset="0.89" stop-color="#1B989E"></stop></linearGradient><linearGradient id="paint4_linear" x1="226.537" y1="9.1626" x2="223.01" y2="1.08126" gradientUnits="userSpaceOnUse"><stop offset="0.02" stop-color="#5EEAA7"></stop><stop offset="0.23" stop-color="#48D898"></stop><stop offset="0.49" stop-color="#3BC69A"></stop><stop offset="1" stop-color="#1B989E"></stop></linearGradient><linearGradient id="paint5_linear" x1="20345.7" y1="-1829.39" x2="20173.8" y2="-2463.48" gradientUnits="userSpaceOnUse"><stop offset="0.02" stop-color="#5EEAA7"></stop><stop offset="0.23" stop-color="#48D898"></stop><stop offset="0.49" stop-color="#3BC69A"></stop><stop offset="1" stop-color="#1B989E"></stop></linearGradient><linearGradient id="paint6_linear" x1="223.679" y1="1.51218" x2="221.468" y2="18.6523" gradientUnits="userSpaceOnUse"><stop offset="0.09" stop-color="#118282"></stop><stop offset="0.22" stop-color="#1B989E"></stop><stop offset="0.3" stop-color="#29AC9C"></stop><stop offset="0.42" stop-color="#37C09A"></stop><stop offset="0.55" stop-color="#41CD99"></stop><stop offset="0.71" stop-color="#46D698"></stop><stop offset="1" stop-color="#48D898"></stop></linearGradient><linearGradient id="paint7_linear" x1="14983.3" y1="-1907.56" x2="16299.9" y2="-1907.56" gradientUnits="userSpaceOnUse"><stop offset="0.02" stop-color="#5EEAA7"></stop><stop offset="0.23" stop-color="#48D898"></stop><stop offset="0.49" stop-color="#3BC69A"></stop><stop offset="1" stop-color="#1B989E"></stop></linearGradient><linearGradient id="paint8_linear" x1="12608.6" y1="-2266.68" x2="13507.5" y2="-2266.68" gradientUnits="userSpaceOnUse"><stop offset="0.02" stop-color="#5EEAA7"></stop><stop offset="0.23" stop-color="#48D898"></stop><stop offset="0.49" stop-color="#3BC69A"></stop><stop offset="1" stop-color="#1B989E"></stop></linearGradient><linearGradient id="paint9_linear" x1="24913.9" y1="1181.22" x2="29243.6" y2="1181.22" gradientUnits="userSpaceOnUse"><stop offset="0.02" stop-color="#5EEAA7"></stop><stop offset="0.23" stop-color="#48D898"></stop><stop offset="0.89" stop-color="#1B989E"></stop></linearGradient><linearGradient id="paint10_linear" x1="1914.35" y1="319.909" x2="1936.78" y2="319.909" gradientUnits="userSpaceOnUse"><stop offset="0.02" stop-color="#5EEAA7"></stop><stop offset="0.23" stop-color="#48D898"></stop><stop offset="0.89" stop-color="#1B989E"></stop></linearGradient><linearGradient id="paint11_linear" x1="1676.35" y1="368.892" x2="1692.4" y2="368.892" gradientUnits="userSpaceOnUse"><stop offset="0.02" stop-color="#5EEAA7"></stop><stop offset="0.23" stop-color="#48D898"></stop><stop offset="0.89" stop-color="#1B989E"></stop></linearGradient><linearGradient id="paint12_linear" x1="17802.2" y1="1642.15" x2="20995" y2="1642.15" gradientUnits="userSpaceOnUse"><stop offset="0.02" stop-color="#5EEAA7"></stop><stop offset="0.23" stop-color="#48D898"></stop><stop offset="0.89" stop-color="#1B989E"></stop></linearGradient></defs></svg> 