<?xml version="1.0" encoding="UTF-8"?> <svg xmlns="http://www.w3.org/2000/svg" width="232" height="29" viewBox="0 0 232 29" fill="none"><path d="M1.47026 6.09819C2.41866 4.30103 3.86845 2.81552 5.6449 1.82074C7.44935 0.798481 9.52248 0.287354 11.8643 0.287354C14.8413 0.287354 17.343 1.07878 19.3697 2.66162C21.3963 4.24447 22.7036 6.39497 23.2914 9.11313C20.9275 9.11313 18.5305 9.06131 16.1595 9.11313C15.578 7.56326 13.7956 6.48212 12.2047 6.33609C8.65887 6.01575 6.72757 9.20028 6.72757 12.3424C6.72757 14.1844 7.1838 15.6502 8.09627 16.74C9.00873 17.8298 10.2309 18.3739 11.7627 18.3723C12.6863 18.391 13.596 18.1458 14.3842 17.6657C15.1625 17.1667 15.7784 16.4531 16.1572 15.6118H23.2914C22.7052 18.3283 21.3979 20.4788 19.3697 22.0633C17.3415 23.6477 14.8397 24.4391 11.8643 24.4375C9.52248 24.4375 7.44935 23.9272 5.6449 22.9065C3.86837 21.9108 2.41862 20.4245 1.47026 18.6267C0.490033 16.7973 -8.20842e-05 14.7033 -8.20842e-05 12.3448C-0.0392513 10.1731 0.466134 8.02604 1.47026 6.09819Z" fill="url(#paint0_linear)"></path><path d="M8.19555 18.6268C7.21374 16.7974 6.72363 14.7034 6.72521 12.3449C6.68604 10.1725 7.19142 8.02463 8.19555 6.09594C9.14328 4.29829 10.5932 2.81263 12.3702 1.81848C13.2713 1.30881 14.2386 0.925202 15.2447 0.678457C14.1382 0.410748 13.0029 0.279432 11.8643 0.287456C9.52248 0.287456 7.44935 0.797798 5.6449 1.81848C3.86845 2.81327 2.41866 4.29877 1.47026 6.09594C0.466127 8.02463 -0.0392466 10.1725 -8.25734e-05 12.3449C-8.25734e-05 14.7003 0.490032 16.7943 1.47026 18.6268C2.41866 20.424 3.86845 21.9095 5.6449 22.9043C7.44935 23.9265 9.52248 24.4376 11.8643 24.4376C13.0029 24.4457 14.1382 24.3143 15.2447 24.0466C14.2385 23.7991 13.2712 23.4147 12.3702 22.9043C10.5932 21.9101 9.14328 20.4244 8.19555 18.6268Z" fill="url(#paint1_linear)"></path><path d="M40.0349 20.2426H31.584L30.298 24.1173H23.334L32.0237 0.369873H39.6614L48.3157 24.1173H41.3185L40.0349 20.2426ZM38.3802 15.1902L35.8106 7.51152L33.2765 15.1902H38.3802Z" fill="white"></path><path d="M51.2967 22.3765C49.5175 21.0654 48.5601 19.181 48.4246 16.7235H55.4902C55.5564 17.5558 55.8039 18.1619 56.2325 18.5419C56.6793 18.8916 57.2258 19.0913 57.7936 19.1125C58.3613 19.1336 58.9213 18.9751 59.393 18.6597C59.5867 18.5125 59.7416 18.3208 59.8445 18.1009C59.9474 17.881 59.9953 17.6395 59.984 17.3972C59.9887 17.0636 59.8994 16.7355 59.7265 16.4499C59.5535 16.1643 59.3037 15.9327 59.0054 15.7814C57.9903 15.2513 56.9254 14.8221 55.8259 14.5C54.5359 14.0901 53.2767 13.5895 52.0579 13.002C51.0719 12.4961 50.2161 11.7707 49.5569 10.8821C48.8477 9.95246 48.4923 8.73471 48.4907 7.22881C48.4539 5.83748 48.8566 4.46977 49.642 3.3188C50.4363 2.20569 51.5374 1.34583 52.812 0.843246C54.2729 0.259946 55.8361 -0.0267415 57.4097 3.98885e-06C60.1802 3.98885e-06 62.3976 0.645391 64.0617 1.93616C65.7259 3.22694 66.61 5.04062 66.714 7.3772H59.5041C59.4821 6.65801 59.2622 6.11862 58.8446 5.75902C58.3945 5.38868 57.8228 5.19738 57.2395 5.22198C56.7939 5.20403 56.3585 5.35848 56.0245 5.65303C55.8617 5.81557 55.7354 6.01068 55.6539 6.22547C55.5724 6.44027 55.5376 6.66985 55.5517 6.89905C55.5505 7.11912 55.5968 7.33687 55.6873 7.5376C55.7779 7.73834 55.9106 7.91738 56.0765 8.06263C56.4612 8.41141 56.9003 8.69542 57.3766 8.90351C57.8967 9.13906 58.6634 9.43662 59.6767 9.79622C60.9566 10.2185 62.2047 10.7309 63.4117 11.3296C64.4019 11.8429 65.2669 12.5666 65.9458 13.4495C66.6581 14.3587 67.0135 15.5097 67.0119 16.9025C67.0355 18.2481 66.6677 19.5718 65.9529 20.7136C65.2027 21.8734 64.1368 22.7965 62.8798 23.3752C61.5387 24.0285 59.9556 24.3543 58.1307 24.3528C55.3508 24.3528 53.0728 23.694 51.2967 22.3765Z" fill="white"></path><path d="M75.3587 0.369873V24.1173H68.7397V0.369873H75.3587Z" fill="white"></path><path d="M99.8653 24.1173H93.2464L84.4173 10.8468V24.1173H77.7983V0.369873H84.4173L93.2417 13.8099V0.369873H99.8606L99.8653 24.1173Z" fill="white"></path><path d="M107.574 22.7865C105.725 21.7647 104.188 20.2629 103.127 18.4407C102.02 16.5332 101.454 14.362 101.489 12.1588C101.457 9.95968 102.023 7.7929 103.127 5.88865C104.184 4.06533 105.722 2.56493 107.574 1.54996C109.467 0.532774 111.583 0.000244141 113.734 0.000244141C115.885 0.000244141 118.002 0.532774 119.894 1.54996C121.736 2.56581 123.262 4.06676 124.305 5.88865C125.404 7.79913 125.965 9.96922 125.929 12.1706C125.965 14.3719 125.404 16.542 124.305 18.4525C123.254 20.2759 121.723 21.7786 119.878 22.7983C117.991 23.826 115.876 24.3646 113.726 24.3646C111.576 24.3646 109.46 23.826 107.574 22.7983V22.7865ZM117.739 16.5729C118.719 15.4737 119.209 14.0023 119.209 12.1588C119.209 10.2745 118.719 8.7874 117.739 7.69762C116.758 6.60784 115.419 6.06295 113.72 6.06295C112.008 6.06295 110.669 6.60784 109.701 7.69762C108.734 8.7874 108.249 10.2745 108.247 12.1588C108.247 14.0243 108.732 15.5011 109.701 16.5893C110.67 17.6776 112.01 18.2217 113.72 18.2217C115.414 18.2217 116.748 17.6721 117.722 16.5729H117.739Z" fill="white"></path><path d="M157.436 5.77792V9.65731H165.043V14.6744H157.436V18.9471H166.057V24.235H150.817V0.48999H166.064V5.77792H157.436Z" fill="white"></path><path d="M174.609 5.77792V9.65731H182.216V14.6744H174.609V18.9471H183.23V24.235H167.986V0.48999H183.23V5.77792H174.609Z" fill="white"></path><path d="M201.168 1.98804C202.994 2.93535 204.503 4.39332 205.51 6.18305C206.548 8.07053 207.073 10.1954 207.033 12.3472C207.069 14.4879 206.538 16.6003 205.494 18.4713C204.474 20.268 202.962 21.7385 201.135 22.7111C199.243 23.7333 197.062 24.2437 194.591 24.2421H185.157V0.48999H194.587C197.083 0.48999 199.277 0.98934 201.168 1.98804ZM198.648 16.8272C199.751 15.772 200.303 14.2802 200.303 12.3519C200.303 10.3969 199.751 8.8863 198.648 7.82007C197.545 6.75385 196.021 6.21917 194.076 6.21603H191.783V18.4077H194.076C196.018 18.4077 197.54 17.8801 198.643 16.8249L198.648 16.8272Z" fill="white"></path><path d="M149.361 0.489992V3.74048C149.361 4.2721 149.149 4.78194 148.771 5.15785C148.394 5.53376 147.882 5.74495 147.349 5.74495H139.827V9.92111H146.857V12.9361C146.857 13.1992 146.806 13.4598 146.705 13.703C146.604 13.9461 146.456 14.1671 146.269 14.3533C146.083 14.5395 145.861 14.6871 145.617 14.7879C145.373 14.8887 145.112 14.9405 144.848 14.9405H139.827V22.2423C139.827 22.7733 139.615 23.2826 139.238 23.6581C138.862 24.0335 138.351 24.2445 137.818 24.2445H133.201V2.4921C133.201 2.22887 133.254 1.96828 133.355 1.72521C133.456 1.48213 133.605 1.26133 133.792 1.07542C133.979 0.889507 134.201 0.742119 134.445 0.641671C134.689 0.541223 134.951 0.489682 135.215 0.489992H149.361Z" fill="url(#paint2_linear)"></path><path d="M139.827 0.489992V22.2329C139.827 22.7639 139.615 23.2732 139.238 23.6486C138.862 24.0241 138.351 24.235 137.818 24.235H133.201V2.4921C133.201 2.22887 133.254 1.96828 133.355 1.72521C133.456 1.48213 133.605 1.26133 133.792 1.07542C133.979 0.889507 134.201 0.742119 134.445 0.641671C134.689 0.541223 134.951 0.489682 135.215 0.489992H139.827Z" fill="url(#paint3_linear)"></path><path d="M217.424 10.0154L216.041 13.6616L219.171 11.0188L217.424 10.0154Z" fill="#1B989E"></path><path d="M232 0L217.424 10.0153L223.093 13.2752L232 0Z" fill="url(#paint4_linear)"></path><path d="M214.658 8.423L232 0L208.99 5.16309L214.658 8.423Z" fill="url(#paint5_linear)"></path><path d="M216.041 13.6615L217.424 10.0153L232 0L214.658 8.423L216.041 13.6615Z" fill="url(#paint6_linear)"></path><path d="M232 0L214.358 8.25106L214.658 8.423L232 0Z" fill="url(#paint7_linear)"></path><path d="M232 0L217.424 10.0153L217.701 10.1754L232 0Z" fill="url(#paint8_linear)"></path><path d="M216.805 12.7971C214.46 15.7383 211.771 18.3904 208.796 20.6972C207.303 21.8539 205.722 22.8941 204.068 23.8087C202.403 24.7338 200.636 25.4664 198.804 25.9922C196.954 26.5285 195.03 26.7725 193.104 26.7153C191.164 26.6567 189.251 26.2481 187.457 25.5094C186.65 25.1722 185.884 24.7455 185.174 24.2374H187.221C187.433 24.3505 187.651 24.4541 187.871 24.553C189.544 25.2712 191.332 25.6875 193.152 25.7826C194.982 25.8805 196.816 25.6929 198.589 25.2267C202.163 24.301 205.491 22.4968 208.517 20.3251C210.035 19.2331 211.487 18.0534 212.867 16.7919C214.257 15.5384 215.572 14.2045 216.805 12.7971Z" fill="url(#paint9_linear)"></path><path d="M181.826 17.2983C181.976 17.8599 182.164 18.4108 182.389 18.9471H181.091C180.882 18.4085 180.705 17.8579 180.561 17.2983C180.505 17.084 180.455 16.8696 180.408 16.6553C180.311 16.1842 180.226 15.699 180.171 15.2185C180.148 15.0371 180.129 14.851 180.112 14.6697H181.368C181.368 14.8039 181.391 14.9406 181.408 15.0748C181.455 15.5223 181.528 15.9675 181.613 16.408C181.675 16.7079 181.746 17.0047 181.826 17.2983Z" fill="url(#paint10_linear)"></path><path d="M185.157 22.8336V24.2328C184.45 23.7303 183.803 23.1478 183.23 22.4968V20.5701C183.382 20.8056 183.542 21.0412 183.703 21.2767C183.929 21.5819 184.174 21.873 184.436 22.1482L184.566 22.2895C184.668 22.3908 184.772 22.4897 184.876 22.5863C184.98 22.6829 185.065 22.7536 185.157 22.8336Z" fill="url(#paint11_linear)"></path><path d="M180.311 11.4121C180.172 11.862 180.023 12.3119 179.86 12.7547C179.625 13.4033 179.365 14.0416 179.08 14.6697C178.764 15.3591 178.426 16.0343 178.063 16.6954C177.629 17.4697 177.156 18.2213 176.645 18.9472C176.053 19.8026 175.402 20.6149 174.695 21.378C173.727 22.4269 172.664 23.3841 171.52 24.2374C171.118 24.5374 170.707 24.8208 170.286 25.0877C168.672 26.1198 166.936 26.9496 165.118 27.5586C163.315 28.1625 161.453 28.5755 159.563 28.7905C157.687 29.0049 155.796 29.0562 153.911 28.9436C155.779 28.8409 157.638 28.6143 159.476 28.2652C161.298 27.9158 163.083 27.3977 164.809 26.7177C166.458 26.0682 168.029 25.2362 169.492 24.2374C171.057 23.1731 172.481 21.9146 173.728 20.4923C174.164 19.9898 174.582 19.4716 174.981 18.9377C175.671 18.0104 176.294 17.0351 176.846 16.0194C177.082 15.5742 177.318 15.1196 177.534 14.6603C178.092 13.4663 178.575 12.2382 178.978 10.9835C179.12 10.5454 179.247 10.1072 179.38 9.65736V9.64322L179.479 9.31111L179.541 9.12032L179.583 9.00726C179.607 8.94449 179.636 8.88383 179.671 8.82589C179.693 8.7894 179.718 8.75474 179.746 8.72225C179.809 8.64539 179.888 8.5826 179.977 8.53797C180.065 8.49333 180.163 8.46785 180.262 8.46318C180.362 8.45852 180.461 8.47477 180.554 8.51088C180.646 8.547 180.731 8.60216 180.8 8.67279C180.861 8.73517 180.911 8.80672 180.949 8.88478C180.972 8.93744 180.991 8.99177 181.006 9.0473C181.006 9.08499 181.02 9.1109 181.025 9.13681C181.042 9.23338 181.046 9.30169 181.053 9.37235C181.06 9.44301 181.068 9.56078 181.072 9.64794H180.836L180.815 9.71624L180.72 10.0436C180.585 10.4959 180.453 10.9576 180.311 11.4121Z" fill="url(#paint12_linear)"></path><defs><linearGradient id="paint0_linear" x1="20.2585" y1="4.77444" x2="1.32856" y2="22.0131" gradientUnits="userSpaceOnUse"><stop stop-color="#48D898"></stop><stop offset="0.24" stop-color="#46D698"></stop><stop offset="0.38" stop-color="#41CD99"></stop><stop offset="0.49" stop-color="#37C09A"></stop><stop offset="0.59" stop-color="#29AC9C"></stop><stop offset="0.66" stop-color="#1B989E"></stop><stop offset="0.77" stop-color="#118282"></stop></linearGradient><linearGradient id="paint1_linear" x1="9.13165" y1="-0.266069" x2="7.03569" y2="25.089" gradientUnits="userSpaceOnUse"><stop stop-color="#1B989E"></stop><stop offset="0.51" stop-color="#3BC69A"></stop><stop offset="0.77" stop-color="#48D898"></stop><stop offset="0.98" stop-color="#5EEAA7"></stop></linearGradient><linearGradient id="paint2_linear" x1="133.201" y1="12.3637" x2="149.361" y2="12.3637" gradientUnits="userSpaceOnUse"><stop offset="0.4" stop-color="#118282"></stop><stop offset="0.47" stop-color="#1B989E"></stop><stop offset="0.53" stop-color="#29AC9C"></stop><stop offset="0.61" stop-color="#37C09A"></stop><stop offset="0.7" stop-color="#41CD99"></stop><stop offset="0.81" stop-color="#46D698"></stop><stop offset="1" stop-color="#48D898"></stop></linearGradient><linearGradient id="paint3_linear" x1="136.626" y1="-0.395648" x2="136.396" y2="25.9239" gradientUnits="userSpaceOnUse"><stop offset="0.02" stop-color="#5EEAA7"></stop><stop offset="0.23" stop-color="#48D898"></stop><stop offset="0.89" stop-color="#1B989E"></stop></linearGradient><linearGradient id="paint4_linear" x1="226.537" y1="9.1626" x2="223.01" y2="1.08126" gradientUnits="userSpaceOnUse"><stop offset="0.02" stop-color="#5EEAA7"></stop><stop offset="0.23" stop-color="#48D898"></stop><stop offset="0.49" stop-color="#3BC69A"></stop><stop offset="1" stop-color="#1B989E"></stop></linearGradient><linearGradient id="paint5_linear" x1="20345.7" y1="-1829.39" x2="20173.8" y2="-2463.48" gradientUnits="userSpaceOnUse"><stop offset="0.02" stop-color="#5EEAA7"></stop><stop offset="0.23" stop-color="#48D898"></stop><stop offset="0.49" stop-color="#3BC69A"></stop><stop offset="1" stop-color="#1B989E"></stop></linearGradient><linearGradient id="paint6_linear" x1="223.679" y1="1.51218" x2="221.468" y2="18.6523" gradientUnits="userSpaceOnUse"><stop offset="0.09" stop-color="#118282"></stop><stop offset="0.22" stop-color="#1B989E"></stop><stop offset="0.3" stop-color="#29AC9C"></stop><stop offset="0.42" stop-color="#37C09A"></stop><stop offset="0.55" stop-color="#41CD99"></stop><stop offset="0.71" stop-color="#46D698"></stop><stop offset="1" stop-color="#48D898"></stop></linearGradient><linearGradient id="paint7_linear" x1="14983.3" y1="-1907.56" x2="16299.9" y2="-1907.56" gradientUnits="userSpaceOnUse"><stop offset="0.02" stop-color="#5EEAA7"></stop><stop offset="0.23" stop-color="#48D898"></stop><stop offset="0.49" stop-color="#3BC69A"></stop><stop offset="1" stop-color="#1B989E"></stop></linearGradient><linearGradient id="paint8_linear" x1="12608.6" y1="-2266.68" x2="13507.5" y2="-2266.68" gradientUnits="userSpaceOnUse"><stop offset="0.02" stop-color="#5EEAA7"></stop><stop offset="0.23" stop-color="#48D898"></stop><stop offset="0.49" stop-color="#3BC69A"></stop><stop offset="1" stop-color="#1B989E"></stop></linearGradient><linearGradient id="paint9_linear" x1="24913.9" y1="1181.22" x2="29243.6" y2="1181.22" gradientUnits="userSpaceOnUse"><stop offset="0.02" stop-color="#5EEAA7"></stop><stop offset="0.23" stop-color="#48D898"></stop><stop offset="0.89" stop-color="#1B989E"></stop></linearGradient><linearGradient id="paint10_linear" x1="1914.35" y1="319.909" x2="1936.78" y2="319.909" gradientUnits="userSpaceOnUse"><stop offset="0.02" stop-color="#5EEAA7"></stop><stop offset="0.23" stop-color="#48D898"></stop><stop offset="0.89" stop-color="#1B989E"></stop></linearGradient><linearGradient id="paint11_linear" x1="1676.35" y1="368.892" x2="1692.4" y2="368.892" gradientUnits="userSpaceOnUse"><stop offset="0.02" stop-color="#5EEAA7"></stop><stop offset="0.23" stop-color="#48D898"></stop><stop offset="0.89" stop-color="#1B989E"></stop></linearGradient><linearGradient id="paint12_linear" x1="17802.2" y1="1642.15" x2="20995" y2="1642.15" gradientUnits="userSpaceOnUse"><stop offset="0.02" stop-color="#5EEAA7"></stop><stop offset="0.23" stop-color="#48D898"></stop><stop offset="0.89" stop-color="#1B989E"></stop></linearGradient></defs></svg> 