<?xml version="1.0" encoding="UTF-8"?> <svg xmlns="http://www.w3.org/2000/svg" xmlns:xlink="http://www.w3.org/1999/xlink" width="152" height="136" viewBox="0 0 152 136"><defs><style>.cls-1{isolation:isolate;}.cls-2,.cls-3,.cls-4{fill:none;}.cls-2{stroke:url(#linear-gradient);}.cls-3{stroke:url(#linear-gradient-2);}.cls-4{stroke:url(#linear-gradient-3);}.cls-5{fill:#6b11c9;}.cls-6{fill:#f68f1e;}.cls-28,.cls-29,.cls-7{fill:#ffc80d;}.cls-8{fill:url(#linear-gradient-4);}.cls-9{fill:url(#linear-gradient-5);}.cls-10{fill:url(#linear-gradient-6);}.cls-11{fill:url(#linear-gradient-7);}.cls-12{fill:url(#linear-gradient-8);}.cls-13{fill:url(#linear-gradient-9);}.cls-14{fill:url(#linear-gradient-10);}.cls-15{fill:url(#linear-gradient-11);}.cls-16{fill:url(#linear-gradient-12);}.cls-17,.cls-18{fill:url(#linear-gradient-13);}.cls-18,.cls-22,.cls-24,.cls-27,.cls-28{mix-blend-mode:multiply;}.cls-19{fill:url(#linear-gradient-15);}.cls-20{fill:url(#linear-gradient-16);}.cls-21{fill:url(#linear-gradient-17);}.cls-22{fill:#d0d2d3;}.cls-23{fill:#fff;}.cls-23,.cls-26,.cls-29{mix-blend-mode:soft-light;}.cls-24{fill:#bbbdbf;}.cls-25,.cls-26,.cls-27{fill:#ffd963;}</style><linearGradient id="linear-gradient" x1="69.5" y1="954" x2="69.5" y2="1047.103" gradientTransform="translate(0 -942)" gradientUnits="userSpaceOnUse"><stop offset="0" stop-color="#6b11c9"></stop><stop offset="1" stop-color="#f5f5f5"></stop></linearGradient><linearGradient id="linear-gradient-2" x1="46.7847" y1="999.2964" x2="201.7797" y2="974.7673" gradientTransform="translate(0 -942)" gradientUnits="userSpaceOnUse"><stop offset="0" stop-color="#ed97c6"></stop><stop offset="0.3959" stop-color="#e21284"></stop><stop offset="1" stop-color="#f5f5f5"></stop></linearGradient><linearGradient id="linear-gradient-3" x1="37.5866" y1="992.1619" x2="115.4136" y2="1001.3515" gradientTransform="translate(0 -942)" gradientUnits="userSpaceOnUse"><stop offset="0" stop-color="#e21284"></stop><stop offset="0.6081" stop-color="#f5f5f5"></stop><stop offset="1" stop-color="#ed95c5" stop-opacity="0.6"></stop></linearGradient><linearGradient id="linear-gradient-4" x1="45.9905" y1="118.2805" x2="46.7182" y2="118.2805" gradientTransform="translate(137.4435 24.0556) rotate(87.6996)" gradientUnits="userSpaceOnUse"><stop offset="0" stop-color="#ff489c"></stop><stop offset="1" stop-color="#e8236f"></stop></linearGradient><linearGradient id="linear-gradient-5" x1="52.0795" y1="118.5252" x2="52.8072" y2="118.5252" gradientTransform="translate(140.1255 23.4337) rotate(87.6996)" xlink:href="#linear-gradient-4"></linearGradient><linearGradient id="linear-gradient-6" x1="58.1683" y1="118.7698" x2="58.896" y2="118.7698" gradientTransform="matrix(0.0402, 0.9992, -0.9992, 0.0402, 142.8052, 22.8077)" xlink:href="#linear-gradient-4"></linearGradient><linearGradient id="linear-gradient-7" x1="64.2573" y1="119.0146" x2="64.985" y2="119.0146" gradientTransform="translate(145.487 22.1858) rotate(87.6976)" xlink:href="#linear-gradient-4"></linearGradient><linearGradient id="linear-gradient-8" x1="70.3462" y1="119.2591" x2="71.0739" y2="119.2591" gradientTransform="translate(148.1715 21.568) rotate(87.6996)" xlink:href="#linear-gradient-4"></linearGradient><linearGradient id="linear-gradient-9" x1="76.4351" y1="119.5039" x2="77.1629" y2="119.5039" gradientTransform="translate(150.8535 20.9461) rotate(87.6996)" xlink:href="#linear-gradient-4"></linearGradient><linearGradient id="linear-gradient-10" x1="82.524" y1="119.7485" x2="83.2517" y2="119.7485" gradientTransform="translate(153.5323 20.3201) rotate(87.6976)" xlink:href="#linear-gradient-4"></linearGradient><linearGradient id="linear-gradient-11" x1="88.613" y1="119.9932" x2="89.3407" y2="119.9932" gradientTransform="matrix(0.0401, 0.9992, -0.9992, 0.0401, 156.2175, 19.7023)" xlink:href="#linear-gradient-4"></linearGradient><linearGradient id="linear-gradient-12" x1="94.7018" y1="120.2379" x2="95.4295" y2="120.2379" gradientTransform="translate(158.8995 19.0804) rotate(87.6996)" xlink:href="#linear-gradient-4"></linearGradient><linearGradient id="linear-gradient-13" x1="82.4771" y1="46.4571" x2="104.9676" y2="46.4571" gradientTransform="matrix(0.9647, 0.2633, -0.2633, 0.9647, 21.2254, -24.9002)" xlink:href="#linear-gradient-4"></linearGradient><linearGradient id="linear-gradient-15" x1="93.2708" y1="87.3514" x2="113.1477" y2="87.3514" gradientTransform="matrix(0.9647, 0.2633, -0.2633, 0.9647, 21.2254, -24.9002)" xlink:href="#linear-gradient-4"></linearGradient><linearGradient id="linear-gradient-16" x1="93.2708" y1="87.5955" x2="111.0851" y2="87.5955" gradientTransform="matrix(0.9647, 0.2633, -0.2633, 0.9647, 21.2254, -24.9002)" xlink:href="#linear-gradient-4"></linearGradient><linearGradient id="linear-gradient-17" x1="74.6596" y1="90.372" x2="94.5087" y2="90.372" gradientTransform="matrix(0.9647, 0.2633, -0.2633, 0.9647, 21.2254, -24.9002)" xlink:href="#linear-gradient-4"></linearGradient></defs><title>Artboard 1 copy 2</title><g class="cls-1"><g id="Layer_2" data-name="Layer 2"><path class="cls-2" d="M26.2215,105.1c-31.6-19.5-36.8-82.1,7.3-71.6,35.2,8.4,42.9-31.8,70.5-18.9,18,8.4,33.5-1.1,33.5-21.1"></path><path class="cls-3" d="M28.2215,109.1c-31.6-19.5-36.8-82.1,7.3-71.6,35.2,8.4,42.9-31.8,70.5-18.9,18,8.4,39.5,6.4,39.5-26.1"></path><path class="cls-4" d="M32.2215,112.1c-31.6-19.5-36.8-82.1,7.3-71.6,35.2,8.4,42.9-31.8,70.5-18.9,18,8.4,39,5.9,40.5-21.1"></path><path class="cls-5" d="M38.4215,40.5c35.2,8.4,42.9-31.8,70.5-18.9s29.7,87.1-8,101c-17.1,6.3-39.1,8.4-69.7-10.4C-.4785,92.6-5.5785,30,38.4215,40.5Z"></path></g><g id="Layer_1" data-name="Layer 1"><path class="cls-6" d="M76.0178,42.1766,16.6118,71.2929l27.2408,55.5794,1.152-.5646ZM60.2027,60.9219,43.6318,104.5592,29.5964,75.9228Z"></path><path class="cls-7" d="M77.17,41.612,17.7638,70.7283l27.2408,55.5794ZM61.7387,60.1691,45.1678,103.8064,30.7484,75.3582Z"></path><rect class="cls-8" x="20.0391" y="74.7994" width="2.1596" height="0.6415" transform="translate(-30.9063 16.9615) rotate(-26.1113)"></rect><rect class="cls-9" x="22.721" y="80.2714" width="2.1596" height="0.6415" transform="translate(-33.0409 18.7003) rotate(-26.1113)"></rect><rect class="cls-10" x="25.4029" y="85.7433" width="2.1596" height="0.6415" transform="translate(-35.1731 20.4369) rotate(-26.1093)"></rect><rect class="cls-11" x="28.0848" y="91.2153" width="2.1596" height="0.6415" transform="translate(-37.3075 22.1756) rotate(-26.1093)"></rect><rect class="cls-12" x="30.7668" y="96.6871" width="2.1596" height="0.6415" transform="translate(-39.4445 23.9168) rotate(-26.1113)"></rect><rect class="cls-13" x="33.4487" y="102.1591" width="2.1596" height="0.6415" transform="translate(-41.5792 25.6556) rotate(-26.1113)"></rect><rect class="cls-14" x="36.1307" y="107.631" width="2.1596" height="0.6415" transform="translate(-43.7108 27.3916) rotate(-26.1093)"></rect><rect class="cls-15" x="38.8125" y="113.103" width="2.1596" height="0.6415" transform="translate(-45.8483 29.1333) rotate(-26.1113)"></rect><rect class="cls-16" x="41.4946" y="118.5749" width="2.1594" height="0.6415" transform="translate(-47.9829 30.8721) rotate(-26.1113)"></rect><path class="cls-17" d="M96.4515,55.44a11.2457,11.2457,0,1,1,13.8091-7.8886A11.2584,11.2584,0,0,1,96.4515,55.44Zm5.2636-19.29a8.7491,8.7491,0,1,0,6.1376,10.7438A8.7593,8.7593,0,0,0,101.7151,36.15Z"></path><path class="cls-18" d="M102.3723,33.7417a11.2457,11.2457,0,1,0,7.8883,13.8094A11.2584,11.2584,0,0,0,102.3723,33.7417Zm-5.58,20.4477a9.95,9.95,0,1,1,12.218-6.9794A9.9609,9.9609,0,0,1,96.7926,54.1894Z"></path><path class="cls-7" d="M94.9633,128.1738a.7573.7573,0,0,1-.93.5314h0a.7573.7573,0,0,1-.5312-.93l1.5441-5.6583a.7576.7576,0,0,1,.93-.5315h0a.7577.7577,0,0,1,.5311.93Z"></path><path class="cls-7" d="M95.9762,121.5852l-1.9429,7.12a.7573.7573,0,0,0,.93-.5314l1.544-5.6584A.7577.7577,0,0,0,95.9762,121.5852Z"></path><rect class="cls-7" x="88.9442" y="60.0654" width="0.9378" height="39.533" transform="translate(-11.141 145.0752) rotate(-74.7369)"></rect><path class="cls-19" d="M98.61,121.2069l.0016,0,3.6738-70.3735-4.9744-.26-3.6628,70.1616a1.3436,1.3436,0,0,0-.0366.25c-.04,1.0027,1.0477,1.86,2.4289,1.9144C97.4109,122.9544,98.5541,122.1979,98.61,121.2069Z"></path><path class="cls-20" d="M97.3113,50.574l-3.6628,70.1616a1.3436,1.3436,0,0,0-.0366.25c-.04,1.0027,1.0477,1.86,2.4289,1.9144l3.951-72.1862-2.68-.14"></path><path class="cls-21" d="M67.5632,110.2433,98.5055,50.9,94.0886,48.597l-32.58,62.4856.0137.0071a1.3371,1.3371,0,0,0-.066.1848c-.2641.9678.6025,2.0478,1.936,2.4117a3.3677,3.3677,0,0,0,.6981.113l-1.7354,6.2617,3.5492-6.6867.0212.0107,1.5122-2.8994.1278-.2417Z"></path><path class="cls-22" d="M62.6154,113.3941a2.7784,2.7784,0,0,0,.7765.2921,3.3677,3.3677,0,0,0,.6981.113l-1.7354,6.2617,3.5492-6.6867.0212.0107,1.5122-2.8994.1278-.2417-.0018,0L98.5055,50.9l-2.38-1.2412Z"></path><rect class="cls-7" x="93.3889" y="42.4215" width="10.296" height="10.7512" transform="translate(26.4858 130.2757) rotate(-74.7369)"></rect><path class="cls-23" d="M98.3382,46.7118a4.2581,4.2581,0,0,0,2.0245,2.509,10.273,10.273,0,0,0,2.095,1.011l1.4627-5.3605-5.8751-1.6032A12.1373,12.1373,0,0,0,98.3382,46.7118Z"></path><path class="cls-24" d="M99.6,51.8336a8.01,8.01,0,0,1-3.74-4.77,18.1973,18.1973,0,0,1-.3548-5.43l-.7986-.218-2.71,9.9329,10.372,2.83.2549-.934A11.7234,11.7234,0,0,1,99.6,51.8336Z"></path><path class="cls-7" d="M97.0892,117.1961a2.5261,2.5261,0,1,1-1.772-3.1017A2.5262,2.5262,0,0,1,97.0892,117.1961Z"></path><path class="cls-7" d="M96.3088,116.9836a1.7172,1.7172,0,1,1-1.2044-2.1092A1.717,1.717,0,0,1,96.3088,116.9836Z"></path><path class="cls-7" d="M95.6448,116.8024a1.029,1.029,0,1,1-.7215-1.2642A1.0291,1.0291,0,0,1,95.6448,116.8024Z"></path><rect class="cls-7" x="68.9588" y="73.5988" width="2.8382" height="2.0753" transform="translate(-20.153 122.8838) rotate(-74.7369)"></rect><rect class="cls-7" x="107.0635" y="83.9967" width="2.8382" height="2.0753" transform="translate(-2.1106 167.3051) rotate(-74.7369)"></rect><path class="cls-25" d="M99.9323,54.5683a3.1286,3.1286,0,1,1-2.1946-3.8422A3.1285,3.1285,0,0,1,99.9323,54.5683Z"></path><path class="cls-26" d="M96.3366,53.0888a2.0491,2.0491,0,0,0,3.2937.9164,2.7706,2.7706,0,0,0-3.0717-2.9784A2.8876,2.8876,0,0,0,96.3366,53.0888Z"></path><path class="cls-27" d="M95.4577,53.6063a3.8521,3.8521,0,0,1-.1448-2.5466,3.1273,3.1273,0,1,0,4.2582,4.3355A3.2937,3.2937,0,0,1,95.4577,53.6063Z"></path><path class="cls-7" d="M103.0894,38.1271a1.7562,1.7562,0,0,1-2.1567,1.2322h0A1.7563,1.7563,0,0,1,99.7,37.2023l1.5368-9.1274a2.7188,2.7188,0,0,1,3.3044-1.9408h0a2.5086,2.5086,0,0,1,1.743,3.0992Z"></path><path class="cls-28" d="M100.82,35.3314a21.2739,21.2739,0,0,1,1.1523-5.2472,21.4669,21.4669,0,0,1,1.6383-4.044,2.8377,2.8377,0,0,0-2.3738,2.0347L99.7,37.2023a1.7553,1.7553,0,0,0,2.8877,1.7492A3.8691,3.8691,0,0,1,100.82,35.3314Z"></path><path class="cls-29" d="M102.1727,32.5407a6.4676,6.4676,0,0,0-.2218,3.6816,1.7481,1.7481,0,0,0,.9328,1.0937l2.8343-7.8892a2.16,2.16,0,0,0-1.3943-2.706A21.539,21.539,0,0,0,102.1727,32.5407Z"></path></g></g></svg> 