<?xml version="1.0" encoding="UTF-8"?> <svg xmlns="http://www.w3.org/2000/svg" xmlns:xlink="http://www.w3.org/1999/xlink" width="152" height="136" viewBox="0 0 152 136"><defs><style>.cls-1,.cls-2,.cls-22,.cls-3{fill:none;}.cls-1{stroke:url(#linear-gradient);}.cls-2{stroke:url(#linear-gradient-2);}.cls-3{stroke:url(#linear-gradient-3);}.cls-4{fill:#6b11c9;}.cls-5{fill:url(#linear-gradient-4);}.cls-6{fill:url(#linear-gradient-5);}.cls-7{fill:url(#linear-gradient-6);}.cls-8{fill:url(#linear-gradient-7);}.cls-9{fill:url(#linear-gradient-8);}.cls-10{fill:url(#linear-gradient-9);}.cls-11{fill:url(#linear-gradient-10);}.cls-12{fill:url(#linear-gradient-11);}.cls-13{fill:url(#linear-gradient-12);}.cls-14{fill:url(#linear-gradient-13);}.cls-15{fill:url(#linear-gradient-14);}.cls-16{fill:url(#linear-gradient-15);}.cls-17{fill:url(#linear-gradient-16);}.cls-18{fill:#e4c494;}.cls-19{fill:url(#linear-gradient-17);}.cls-20{fill:#040607;}.cls-21{fill:#ffd963;}.cls-22{stroke:#f59120;stroke-miterlimit:10;stroke-width:5px;}</style><linearGradient id="linear-gradient" x1="69.5" y1="954" x2="69.5" y2="1047.103" gradientTransform="translate(0 -942)" gradientUnits="userSpaceOnUse"><stop offset="0" stop-color="#6b11c9"></stop><stop offset="1" stop-color="#f5f5f5"></stop></linearGradient><linearGradient id="linear-gradient-2" x1="46.7847" y1="999.2964" x2="201.7797" y2="974.7673" gradientTransform="translate(0 -942)" gradientUnits="userSpaceOnUse"><stop offset="0" stop-color="#ed97c6"></stop><stop offset="0.3959" stop-color="#e21284"></stop><stop offset="1" stop-color="#f5f5f5"></stop></linearGradient><linearGradient id="linear-gradient-3" x1="37.5866" y1="992.1619" x2="115.4136" y2="1001.3515" gradientTransform="translate(0 -942)" gradientUnits="userSpaceOnUse"><stop offset="0" stop-color="#e21284"></stop><stop offset="0.6081" stop-color="#f5f5f5"></stop><stop offset="1" stop-color="#ed95c5" stop-opacity="0.6"></stop></linearGradient><linearGradient id="linear-gradient-4" x1="18.1595" y1="79.7365" x2="146.536" y2="79.7365" gradientTransform="translate(-28.3786 23.5308) rotate(-20.6987)" gradientUnits="userSpaceOnUse"><stop offset="0" stop-color="#d767c7"></stop><stop offset="0.3227" stop-color="#d363c4"></stop><stop offset="0.665" stop-color="#c656bb"></stop><stop offset="1" stop-color="#b342ac"></stop></linearGradient><linearGradient id="linear-gradient-5" x1="19.254" y1="86.2887" x2="144.7311" y2="86.2887" gradientTransform="translate(-28.3786 23.5308) rotate(-20.6987)" gradientUnits="userSpaceOnUse"><stop offset="0" stop-color="#ff489c"></stop><stop offset="1" stop-color="#e8236f"></stop></linearGradient><linearGradient id="linear-gradient-6" x1="124.3701" y1="56.5419" x2="127.4134" y2="56.5419" gradientTransform="translate(18.2669 -71.7349) rotate(24.5022)" gradientUnits="userSpaceOnUse"><stop offset="0" stop-color="#ffde35"></stop><stop offset="1" stop-color="#ffbe2c"></stop></linearGradient><linearGradient id="linear-gradient-7" x1="112.963" y1="61.7408" x2="116.0063" y2="61.7408" gradientTransform="translate(21.9697 -62.8395) rotate(24.5022)" xlink:href="#linear-gradient-6"></linearGradient><linearGradient id="linear-gradient-8" x1="101.5563" y1="66.9399" x2="104.5996" y2="66.9399" gradientTransform="translate(25.6753 -53.9462) rotate(24.5037)" xlink:href="#linear-gradient-6"></linearGradient><linearGradient id="linear-gradient-9" x1="90.1491" y1="72.1388" x2="93.1924" y2="72.1388" gradientTransform="translate(29.3754 -45.0491) rotate(24.5022)" xlink:href="#linear-gradient-6"></linearGradient><linearGradient id="linear-gradient-10" x1="78.7423" y1="77.338" x2="81.7856" y2="77.338" gradientTransform="translate(33.0781 -36.1539) rotate(24.5021)" xlink:href="#linear-gradient-6"></linearGradient><linearGradient id="linear-gradient-11" x1="67.3352" y1="82.5369" x2="70.3785" y2="82.5369" gradientTransform="matrix(0.9099, 0.4147, -0.4147, 0.9099, 36.7811, -27.2586)" xlink:href="#linear-gradient-6"></linearGradient><linearGradient id="linear-gradient-12" x1="55.9285" y1="87.736" x2="58.9718" y2="87.736" gradientTransform="translate(40.4843 -18.3636) rotate(24.5023)" xlink:href="#linear-gradient-6"></linearGradient><linearGradient id="linear-gradient-13" x1="44.5213" y1="92.935" x2="47.5646" y2="92.935" gradientTransform="translate(44.1895 -9.4682) rotate(24.5037)" xlink:href="#linear-gradient-6"></linearGradient><linearGradient id="linear-gradient-14" x1="33.1145" y1="98.1339" x2="36.1576" y2="98.1339" gradientTransform="translate(47.8896 -0.573) rotate(24.5022)" xlink:href="#linear-gradient-6"></linearGradient><linearGradient id="linear-gradient-15" x1="85.1539" y1="20.9723" x2="96.813" y2="20.9723" gradientTransform="translate(-1.9167 2.6288) rotate(-1.882)" xlink:href="#linear-gradient-5"></linearGradient><linearGradient id="linear-gradient-16" x1="45.314" y1="62.2225" x2="90.1012" y2="62.2225" gradientTransform="translate(88.7155 -26.9514) rotate(60.5658)" xlink:href="#linear-gradient-4"></linearGradient><linearGradient id="linear-gradient-17" x1="47.0056" y1="62.2225" x2="88.4096" y2="62.2225" gradientTransform="translate(88.7151 -26.9516) rotate(60.5654)" xlink:href="#linear-gradient-6"></linearGradient></defs><title>Artboard 1 copy</title><g id="Layer_2" data-name="Layer 2"><path class="cls-1" d="M26.2215,105.1c-31.6-19.5-36.8-82.1,7.3-71.6,35.2,8.4,42.9-31.8,70.5-18.9,18,8.4,33.5-1.1,33.5-21.1"></path><path class="cls-2" d="M28.2215,109.1c-31.6-19.5-36.8-82.1,7.3-71.6,35.2,8.4,42.9-31.8,70.5-18.9,18,8.4,39.5,6.4,39.5-26.1"></path><path class="cls-3" d="M32.2215,112.1c-31.6-19.5-36.8-82.1,7.3-71.6,35.2,8.4,42.9-31.8,70.5-18.9,18,8.4,39,5.9,40.5-21.1"></path><path class="cls-4" d="M38.4215,40.5c35.2,8.4,42.9-31.8,70.5-18.9s29.7,87.1-8,101c-17.1,6.3-39.1,8.4-69.7-10.4C-.4785,92.6-5.5785,30,38.4215,40.5Z"></path></g><g id="Layer_1" data-name="Layer 1"><path class="cls-5" d="M115.12,19.1264,24.0609,110.94l1.8727,1.86,11.359,6.579,94.81-80.5952.5835-3.5622Zm5.9434,18.7188a3.2016,3.2016,0,1,1-1.6-4.2355A3.2016,3.2016,0,0,1,121.0635,37.8452Z"></path><path class="cls-6" d="M115.6525,22.4487,25.9336,112.8,42.4362,127.92l89.6662-89.1368Zm1.1755,16.9968a3.2016,3.2016,0,1,1,4.2355-1.6A3.2016,3.2016,0,0,1,116.828,39.4455Z"></path><rect class="cls-7" x="108.7122" y="29.7047" width="1.3197" height="4.4426" transform="translate(9.652 87.0387) rotate(-45.201)"></rect><rect class="cls-8" x="99.8789" y="38.5999" width="1.3197" height="4.4426" transform="translate(0.7309 83.3982) rotate(-45.201)"></rect><rect class="cls-9" x="91.0461" y="47.4952" width="1.3197" height="4.4426" transform="translate(-8.1893 79.7607) rotate(-45.2025)"></rect><rect class="cls-10" x="82.2129" y="56.3905" width="1.3197" height="4.4426" transform="translate(-17.1111 76.1176) rotate(-45.201)"></rect><rect class="cls-11" x="73.3801" y="65.2858" width="1.3197" height="4.4426" transform="translate(-26.0321 72.4773) rotate(-45.2008)"></rect><rect class="cls-12" x="64.5468" y="74.181" width="1.3197" height="4.4426" transform="translate(-34.9532 68.837) rotate(-45.201)"></rect><rect class="cls-13" x="55.714" y="83.0763" width="1.3197" height="4.4426" transform="translate(-43.8742 65.1972) rotate(-45.2011)"></rect><rect class="cls-14" x="46.8808" y="91.9716" width="1.3197" height="4.4426" transform="translate(-52.7961 61.5591) rotate(-45.2025)"></rect><rect class="cls-15" x="38.0478" y="100.867" width="1.3197" height="4.4422" transform="translate(-61.7161 57.9162) rotate(-45.201)"></rect><path class="cls-16" d="M84.0732,21.4742c-.2308.4425-.1936.9182.0831,1.0626l7.1382,3.7242c.2767.1444.6882-.0973.919-.54L95.34,19.7294c.2309-.4425.1937-.9182-.083-1.0626l-7.1382-3.7242c-.2767-.1444-.6882.0973-.9191.54Z"></path><rect class="cls-17" x="30.3652" y="58.0033" width="74.8653" height="9.1816" transform="translate(-19.0579 93.7496) rotate(-62.4478)"></rect><polygon class="cls-18" points="46.413 93.658 47.003 102.452 54.553 97.905 46.413 93.658"></polygon><rect class="cls-19" x="30.3652" y="59.9456" width="74.8653" height="5.2971" transform="translate(-19.058 93.7491) rotate(-62.4474)"></rect><polygon class="cls-20" points="46.773 99.025 47.003 102.452 49.945 100.68 46.773 99.025"></polygon><rect class="cls-21" x="82.8109" y="21.0189" width="8.5656" height="9.1816" transform="translate(24.1025 90.9801) rotate(-62.4478)"></rect><path class="cls-22" d="M89.9618,30.0371l-8.14-4.247Z"></path><path class="cls-22" d="M90.6933,28.6351l-8.14-4.247Z"></path></g></svg> 