<?xml version="1.0" encoding="UTF-8"?> <svg xmlns="http://www.w3.org/2000/svg" id="Layer_1" data-name="Layer 1" width="20" height="20" viewBox="0 0 20 20"><defs><style>.cls-1{fill:#6b11c9;fill-rule:evenodd;}</style></defs><title>Artboard 1 copy 2</title><path class="cls-1" d="M12.4164.2994A9.9979,9.9979,0,0,0,7.58,19.7016L7.58,19.7008A9.9976,9.9976,0,1,0,12.4164.2994Zm3.1769,15.6141a.79.79,0,0,1-1.0844.2086.9953.9953,0,0,1-.3657-.4718Q12.0891,10.543,10.0355,5.4356c-.0088-.0218-.011-.0479-.0378-.0657l-.2632.6557Q9.1216,7.5525,8.5089,9.0792c-.0318.0794-.0317.0795.0549.0795.2134,0,.4267-.0007.64,0a.7933.7933,0,1,1,.0013,1.5865q-.6534.0018-1.3069-.0011a.0867.0867,0,0,0-.0958.0662q-.7689,1.9125-1.5411,3.8238c-.1394.3455-.2759.6922-.4183,1.0365a.8637.8637,0,0,1-.5684.5491.7483.7483,0,0,1-.9909-.6315.9534.9534,0,0,1,.0687-.5145c.14-.3412.2718-.686.4171-1.0248.4573-1.0661.8894-2.1427,1.337-3.2127.0069-.0164.0128-.0332.02-.0492.0137-.0291.0046-.041-.0268-.0392-.0155.001-.0311,0-.0467,0-.2289,0-.4579.0021-.6867-.001a.7867.7867,0,0,1-.1779-1.5515A.8581.8581,0,0,1,5.4,9.1719c.4468,0,.8935-.0006,1.34.0012a.0822.0822,0,0,0,.0929-.0591q.93-2.255,1.8636-4.5081a1.5221,1.5221,0,0,1,.4463-.6293.9732.9732,0,0,1,.5753-.22,3.8393,3.8393,0,0,1,.6461.0072,1.0886,1.0886,0,0,1,.7911.5433,3.3023,3.3023,0,0,1,.2555.5413q2.1236,5.1332,4.2462,10.2666A.8649.8649,0,0,1,15.5933,15.9135Z"></path></svg> 