<?xml version="1.0" encoding="UTF-8"?> <svg xmlns="http://www.w3.org/2000/svg" id="Layer_1" data-name="Layer 1" width="20" height="20" viewBox="0 0 20 20"><defs><style>.cls-1{fill:#6b11c9;fill-rule:evenodd;}</style></defs><title>Artboard 1 copy 4</title><path class="cls-1" d="M6.5238,10.3219a2.47,2.47,0,0,0,.1184,2.7242,1.5238,1.5238,0,0,0,2.3993.1342,2.3085,2.3085,0,0,0,.6008-1.5981A2.37,2.37,0,0,0,9.3435,10.42,1.5645,1.5645,0,0,0,6.5238,10.3219Zm1.177,1.4655a.7952.7952,0,1,1,.8049-.7745A.7979.7979,0,0,1,7.7008,11.7874Z"></path><path class="cls-1" d="M11.26,9.6562a2.34,2.34,0,0,0-1.0017,1.9255,2.6041,2.6041,0,0,0,.3749,1.3105,1.525,1.525,0,0,0,2.395.4027,2.3873,2.3873,0,0,0-.1093-3.4978A1.62,1.62,0,0,0,11.26,9.6562Zm.4752,2.1368a.8175.8175,0,0,1-.7956-.8292.7989.7989,0,0,1,1.5971.04A.8178.8178,0,0,1,11.7355,11.793Z"></path><path class="cls-1" d="M12.4164.2994A9.9979,9.9979,0,0,0,7.58,19.7016L7.58,19.7008A9.9976,9.9976,0,1,0,12.4164.2994Zm2.4362,14.6912a3.1664,3.1664,0,0,1-1.6988.416c-.5159-.0251-1.0339-.006-1.5509-.0063q-.7587,0-1.5174,0v.0134c-1.1353,0-2.2706-.0058-3.4058.0016a2.74,2.74,0,0,1-2.454-1.338,2.754,2.754,0,0,1-.0133-3.0652Q5.9,8.3781,7.66,5.7905a2.8432,2.8432,0,0,1,4.3416-.3683A6.8955,6.8955,0,0,1,12.9,6.586q1.257,1.9789,2.5835,3.912a3.7108,3.7108,0,0,1,.7479,1.6644A3.0181,3.0181,0,0,1,14.8526,14.9906Z"></path></svg> 