<?xml version="1.0" encoding="UTF-8"?> <svg xmlns="http://www.w3.org/2000/svg" id="Layer_1" data-name="Layer 1" width="20" height="20" viewBox="0 0 20 20"><defs><style>.cls-1{fill:#6b11c9;fill-rule:evenodd;}</style></defs><title>Artboard 1 copy 5</title><path class="cls-1" d="M12.4164.2994A9.9979,9.9979,0,0,0,7.58,19.7016L7.58,19.7008A9.9976,9.9976,0,1,0,12.4164.2994Zm2.8143,15.9859c-.2945-.0028-.6682.094-.8609-.0494-.1891-.1406-.2019-.5265-.2787-.8085q-.4937-1.8128-.98-3.6277c-.0187-.0692-.0434-.1369-.0834-.2622-.1576.2646-.2914.4832-.4194.7051-.7266,1.26-1.4556,2.5179-2.1739,3.7823a.4587.4587,0,0,1-.4737.2681c-.5993-.0189-1.2-.0063-1.8621-.0063.0735-.1366.1224-.233.1763-.3265q1.9593-3.396,3.9121-6.7955a.7817.7817,0,0,0,.0743-.5215c-.1785-.7434-.39-1.479-.61-2.2931-.3088.5338-.5806,1.003-.8518,1.4726q-2.3637,4.0932-4.7218,8.1895a.482.482,0,0,1-.4981.28c-.596-.0163-1.1928-.0054-1.8536-.0054.23-.4018.4258-.746.6238-1.089q3.24-5.6139,6.4752-11.23a.4765.4765,0,0,1,.4972-.2814c.4421.02.886.014,1.3287,0a.2747.2747,0,0,1,.3245.2468c.2224.8668.4675,1.7278.6852,2.5957a.338.338,0,0,0,.408.3052c.5328-.02,1.0668-.0062,1.6639-.0062-.3285.5711-.5944,1.1091-.9315,1.5981a1.6917,1.6917,0,0,0-.2184,1.5818c.586,2.01,1.0989,4.0423,1.64,6.0659.0133.05.0242.1.051.2121C15.9116,16.2861,15.5711,16.2887,15.2307,16.2853Z"></path></svg> 