<?xml version="1.0" encoding="UTF-8"?> <svg xmlns="http://www.w3.org/2000/svg" id="Layer_1" data-name="Layer 1" width="20" height="20" viewBox="0 0 20 20"><defs><style>.cls-1{fill:#6b11c9;fill-rule:evenodd;}</style></defs><title>Artboard 1 copy 8</title><path class="cls-1" d="M12.4171.3157a9.9979,9.9979,0,0,0-4.836,19.4022L7.58,19.7171A9.9976,9.9976,0,1,0,12.4171.3157ZM16.1139,16.317H11.4956c-.07-.5014-.07-.5011.3877-.5942.0779-.0159.1554-.0343.2325-.0536.5512-.1385.71-.379.5339-.9212C12.34,13.7966,12,12.855,11.6716,11.91Q10.719,9.171,9.7639,6.4333c-.0281-.0807-.0626-.1593-.1234-.313-.1874.5281-.3493.9838-.5109,1.4395q-1.1736,3.3113-2.344,6.6237a3.3421,3.3421,0,0,0-.1614.6953.5745.5745,0,0,0,.4645.7219c.2959.0931.6046.1451.9063.2167l-.0614.5014H3.8475V15.81a.784.784,0,0,1,.1834-.0647A1.8716,1.8716,0,0,0,5.655,14.4224c.6391-1.6181,1.2832-3.2343,1.9121-4.8564.6907-1.7811,1.38-3.5634,2.0388-5.3563a1.16,1.16,0,0,1,.2222-.3952l.613-.1333c.2542.72.5128,1.46.7781,2.1984q1.4586,4.061,2.9232,8.12c.0965.2668.217.5255.3356.7838a1.5868,1.5868,0,0,0,1.25.9463C16.1927,15.8091,16.1912,15.818,16.1139,16.317Z"></path></svg> 