<?xml version="1.0" encoding="UTF-8"?> <svg xmlns="http://www.w3.org/2000/svg" id="Layer_1" data-name="Layer 1" width="20" height="20" viewBox="0 0 20 20"><defs><style>.cls-1{fill:#6b11c9;fill-rule:evenodd;}</style></defs><title>Artboard 1 copy 10</title><path class="cls-1" d="M11.57,9.2879a2.84,2.84,0,0,0-.4269-1.1228A3.4711,3.4711,0,0,0,10.192,7.2a4.8989,4.8989,0,0,0-1.4767-.6872,4.842,4.842,0,0,0-.9923-.1744c-.07-.0048-.071-.0058-.1153.0483a3.6646,3.6646,0,0,0-.8624,2.3645c-.0046.8369-.0014,1.674-.0007,2.511a3.6381,3.6381,0,0,0,.8274,2.313A3.1067,3.1067,0,0,0,7.82,13.84a3.7318,3.7318,0,0,0,.634.5158,3.558,3.558,0,0,0,1.78.5713,3.7685,3.7685,0,0,0,.9316-.0685,3.1349,3.1349,0,0,0,.4391-.1185l.0022-.0106q0-2.4965-.0006-4.9928A2.98,2.98,0,0,0,11.57,9.2879ZM8.2419,10.4336a.3792.3792,0,0,1-.0473-.0424q-.2673-.2668-.5341-.5339c-.0122-.0122-.0252-.0235-.0438-.0408-.0011.0243-.0024.04-.0024.0556,0,.1406,0,.2812,0,.4218a.22.22,0,0,1-.0032.0487.1338.1338,0,0,1-.2081.0822.1541.1541,0,0,1-.0751-.135c0-.2681.0014-.5362-.0006-.8042A.1525.1525,0,0,1,7.49,9.3334a.157.157,0,0,1,.0671.0252.1716.1716,0,0,1,.0359.033q.2619.2617.5235.5238a.515.515,0,0,1,.034.042l.011-.0048a.3158.3158,0,0,0,.0042-.0347c0-.0964.0006-.1929,0-.2893a.1416.1416,0,0,1,.0417-.1064.1165.1165,0,0,1,.1292-.0353.1366.1366,0,0,1,.0929.1106.206.206,0,0,1,.0012.0343c0,.2158-.0026.4316.0015.6472a.1909.1909,0,0,1-.1022.1655A.0786.0786,0,0,1,8.2419,10.4336Zm2.3246-.2956a.5642.5642,0,0,1-.0761.0685.13.13,0,0,1-.1987-.0834.3968.3968,0,0,1-.0065-.0535.2646.2646,0,0,0-.5263.0014l-.0032.0342a.1416.1416,0,0,1-.1347.1251.1388.1388,0,0,1-.128-.1418.7043.7043,0,0,1,.03-.1728.5436.5436,0,0,1,.5237-.3706.55.55,0,0,1,.5487.5041A.1.1,0,0,1,10.5665,10.138Zm.5171-.4847a.128.128,0,0,1-.1362.0658.1483.1483,0,0,1-.1071-.1263,1.4268,1.4268,0,0,0-.0293-.208.8315.8315,0,0,0-.682-.6053.8221.8221,0,0,0-.8262.43.788.788,0,0,0-.0981.3805q-.0006,1.0126,0,2.0252v.0392a.1619.1619,0,0,0,.0337-.0081.4337.4337,0,0,0,.2514-.3606c.0018-.0162.0012-.0328.0037-.0489a.1428.1428,0,0,1,.1333-.1218.1456.1456,0,0,1,.13.1307.6806.6806,0,0,1-.1924.5227.7.7,0,0,1-.9782.0184.73.73,0,0,1-.243-.5086.1443.1443,0,0,1,.0315-.11.1217.1217,0,0,1,.13-.0487.1434.1434,0,0,1,.1027.1189.7915.7915,0,0,0,.0194.13.4443.4443,0,0,0,.3095.3067c.0016-.0174.0035-.03.0035-.0416q0-.9588,0-1.9175a.2716.2716,0,0,0-.0065-.0479.7415.7415,0,0,1-.0143-.076,1.0329,1.0329,0,0,0-.048-.2743.7044.7044,0,0,0-.05-.1116.3108.3108,0,0,0-.2689-.17.1745.1745,0,0,1-.057-.0112.1348.1348,0,0,1-.0834-.1411.1433.1433,0,0,1,.1423-.1121.5457.5457,0,0,1,.3209.1042.6232.6232,0,0,1,.1546.1691l.0306.0475a1.148,1.148,0,0,1,.1777-.2475,1.0585,1.0585,0,0,1,.754-.3374,1.08,1.08,0,0,1,1.0959.8961,1.2331,1.2331,0,0,1,.0163.17A.1641.1641,0,0,1,11.0836,9.6533Z"></path><path class="cls-1" d="M7.4814,13.8114c-.0617-.08-.1266-.1581-.1868-.24a3.7357,3.7357,0,0,1-.7465-2.24c-.008-.8548-.0019-1.71-.0021-2.5646a4.1568,4.1568,0,0,1,.0269-.4745,3.8269,3.8269,0,0,1,.2524-.9941,4.0034,4.0034,0,0,1,.7255-1.1684c.0088-.01.0162-.0212.0242-.0318l-.0092-.0074c-.0106.0111-.0215.0218-.0316.0333a3.8777,3.8777,0,0,0-1.0086,2.61c-.0043.8565-.0008,1.713-.0008,2.57a3.8267,3.8267,0,0,0,.0383.5325,3.783,3.783,0,0,0,.4337,1.3087,4.06,4.06,0,0,0,.4445.6446.1306.1306,0,0,1,.0342.0915q-.0014.6178-.0005,1.2357c0,.0183.0015.0367.0022.0551l.0179-.0006c0-.0187.0014-.0374.0014-.0562q0-.6178,0-1.2357a.131.131,0,0,0,0-.0294A.1065.1065,0,0,0,7.4814,13.8114Z"></path><path class="cls-1" d="M7.7205,14.9281H9.0539a4.0809,4.0809,0,0,1-1.3334-.8548Z"></path><path class="cls-1" d="M14.6309,7.99a4.2489,4.2489,0,0,0-.2073-.9056,4.63,4.63,0,0,0-3.942-3.0708A5.0121,5.0121,0,0,0,8.9128,4.11a4.4767,4.4767,0,0,0-1.24.4753,4.6816,4.6816,0,0,0-1.7783,1.79,4.2707,4.2707,0,0,0-.5052,1.47,4.7268,4.7268,0,0,0-.0512.7231q.0008,3.683,0,7.3661c0,.0114,0,.0229,0,.0343l.0035.0387h9.32v-.06q0-3.6978,0-7.3955A4.7446,4.7446,0,0,0,14.6309,7.99ZM14.08,15.3224v.0708H5.9529l-.0038-.0386c-.0006-.0081,0-.0164,0-.0245q0-3.3324,0-6.6647a4.04,4.04,0,0,1,1.18-2.8908A3.94,3.94,0,0,1,9.131,4.6636a4.1292,4.1292,0,0,1,1.1792-.085,4.0108,4.0108,0,0,1,1.52.4022,3.4662,3.4662,0,0,1,.8247.5514,4.2734,4.2734,0,0,1,1.3019,2.1261,3.9781,3.9781,0,0,1,.1228.9454c.0012.16.0006.3205.0006.4807Z"></path><path class="cls-1" d="M12.4171.3157a9.9979,9.9979,0,0,0-4.836,19.4022L7.58,19.7171A9.9976,9.9976,0,1,0,12.4171.3157Zm2.4876,15.882v.0556H5.1c-.0016-.0109-.0037-.0216-.0045-.0324s0-.0229,0-.0343q0-3.82,0-7.6411a4.6614,4.6614,0,0,1,.2782-1.6194A4.7636,4.7636,0,0,1,7.0992,4.6654a4.8149,4.8149,0,0,1,1.7057-.7775,4.58,4.58,0,0,1,.6661-.1124c.0992-.009.1988-.014.2982-.0214a.4209.4209,0,0,0,.0428-.0074h.3728c.0176.0026.0351.0067.0528.0076a4.8173,4.8173,0,0,1,3.2139,1.3885,4.9126,4.9126,0,0,1,.7279.8771,4.5508,4.5508,0,0,1,.6568,1.6925,4.7272,4.7272,0,0,1,.0687.81Q14.9045,12.36,14.9047,16.1977Z"></path></svg> 