<?xml version="1.0" encoding="UTF-8"?> <svg xmlns="http://www.w3.org/2000/svg" width="20" height="20" viewBox="0 0 20 20"><defs><style>.cls-1{fill:#6b11c9;fill-rule:evenodd;}</style></defs><title>Artboard 1 copy 11</title><g id="Layer_2" data-name="Layer 2"><path class="cls-1" d="M10.1275,10.3182,9.961,9.85l.2517.3351.11-.2167.0192.0086-.0424.1595c.1173.0434.2294.0774.3347.1262.1151.0533.2239.12.3589.1942a1.29,1.29,0,0,0,.0327-.2457c-.0028-.0418-.0491-.0808-.0758-.121l-.0966.0938a.2382.2382,0,0,0-.0548-.0723c-.22-.15-.4892-.2634-.4133-.6142a.461.461,0,0,0-.0124-.1371l.0494-.0052c.0144.0224.0273.0627.0434.064a1.0559,1.0559,0,0,0,.2155-.0055.1344.1344,0,0,0,.0078-.097c-.0578-.0923-.1209-.1813-.1831-.2709l-.1814.0589-.0048-.0461c-.0636-.0231-.1385-.0787-.188-.0614-.0667.0233-.1573.1-.1609.1586-.01.1586-.1649.1825-.2219.2893-.02.0379-.0349.0786-.0522.1181.0476.0069.1249.0346.1371.017a1.0815,1.0815,0,0,0,.0932-.2148l.0777.0514a.5463.5463,0,0,0-.0578.408c-.0315-.0046-.0675-.0213-.0938-.0115-.072.0267-.14.0646-.2094.0979a1.36,1.36,0,0,0,.1012.17,1.1178,1.1178,0,0,0,.126.1213l-.0371.1431Z"></path><path class="cls-1" d="M11.2054,9.1415c0-.005-.0129-.0092-.0272-.0187l-.0111.0891-.1925-.2476-.2524.0509c.1912.0268.2768.1726.3665.3144a.0547.0547,0,0,0,.0392.0256c.0292-.0037.0807-.0141.0818-.0258A1.218,1.218,0,0,0,11.2054,9.1415Z"></path><path class="cls-1" d="M11.1339,9.4872c-.0689-.0743-.1342-.1535-.2091-.2223a1.3741,1.3741,0,0,0-.175-.1186l-.0251.0378c.1307.2515.0954.3128-.25.3817.0169.089.0032.2177.0571.26a.4005.4005,0,0,0,.4233.1054C10.8548,9.6228,10.8674,9.595,11.1339,9.4872Z"></path><path class="cls-1" d="M11.4643,12.2914c-.0374-.2461-.069-.4931-.1059-.7392-.024-.16-.0533-.3188-.08-.4781l-.0347-.0013-.5479,1.1282c-.2006-.4026-.3827-.768-.5649-1.1334l-.0369.0126c-.0733.4679-.1467.9358-.2223,1.4183l.121-.0074.1209-.9059.0438-.0072c.0736.1473.1468.2948.2209.4419.0775.1542.1559.308.2547.5029l.4841-.981c.0284.0466.042.0594.0442.074q.0423.2808.0815.5622c.0471.34.0467.34.3881.3419.004,0,.008-.0017.0415-.0093C11.5072,12.4984,11.48,12.3963,11.4643,12.2914Z"></path><path class="cls-1" d="M11.4392,8.4782a.8744.8744,0,0,0,.0285-.2431c-.0031-.0219-.118-.0281-.1816-.0415l-.025.0458.1236.2415Z"></path><path class="cls-1" d="M9.3978,8.71c-.01-.0218-.0338-.0372-.0557-.06-.0511.16-.106.3051-.1437.4549-.0578.23-.1057.4625-.1538.6948-.0222.1068.017.1507.137.1553.205.0078.3941.0058.4883-.2178a.9207.9207,0,0,1-.089-.1955c-.01-.0464.0083-.1358.0376-.1478a.5192.5192,0,0,0,.28-.3306.2829.2829,0,0,1,.3449-.1813.1293.1293,0,0,0,.0615,0c.1711-.0641.22-.0434.3025.1328.1028-.2125.2969-.2255.5176-.0353l.1152-.0907.0434-.2728c-.0068.0037-.0487.0368-.0582.0292-.0724-.0576-.1385-.1231-.2155-.1944-.0258.0463-.0567.1014-.0873.1567-.0848.1537-.1214.1619-.2582.053-.0783-.0624-.1544-.1275-.2365-.1956-.0356.05-.0622.084-.0849.12-.1441.23-.1529.231-.35.0464-.1167-.1093-.1814-.1015-.2573.05C9.6314,8.89,9.4974,8.9273,9.3978,8.71Z"></path><path class="cls-1" d="M7.6378,11.7326a.4039.4039,0,0,0,.1284-.4269.3705.3705,0,0,0-.3919-.23c-.1621-.0012-.3243,0-.4536,0a5.9674,5.9674,0,0,1-.0274,1.4386l.2428-.0242c0-.1437-.0066-.2729.0028-.4009a.7405.7405,0,0,1,.06-.1783c.08.03.1808.0387.2352.0937.1093.1106.1885.25.289.3706a.283.283,0,0,0,.3422.1126L7.5,11.8282A.91.91,0,0,0,7.6378,11.7326Zm-.32.1142c-.1222.0049-.1988-.0319-.1844-.1735.0064-.0639.0011-.129.0011-.1935H7.136c0-.0592-.0012-.1184,0-.1775.0038-.1674.0592-.2058.2218-.155a.3517.3517,0,0,1,.2221.43C7.5554,11.7579,7.4738,11.8405,7.3181,11.8468Z"></path><path class="cls-1" d="M9.6686,8.4939l-.1038-.0146-.0105.2228.0749.0094Z"></path><path class="cls-1" d="M10.9149,8.4029c.01-.0348,0-.1029-.0211-.1129a.1769.1769,0,0,0-.137.0014c-.0216.01-.03.0739-.0242.11a1.6247,1.6247,0,0,0,.057.2l.0386.0032A1.5628,1.5628,0,0,0,10.9149,8.4029Z"></path><path class="cls-1" d="M10.3328,8.3388l-.1619-.0321-.0269.2739.0857.02Z"></path><path class="cls-1" d="M9.01,11.0459a.7463.7463,0,0,0-.8155.7362.7268.7268,0,0,0,.761.75.7628.7628,0,0,0,.8064-.7846A.7025.7025,0,0,0,9.01,11.0459Zm.4381,1.1556A.4632.4632,0,0,1,8.765,12.4a.752.752,0,0,1-.3326-.6769c.0188-.234.04-.4627.2918-.5725a.5473.5473,0,0,1,.7271.3238A.95.95,0,0,1,9.4484,12.2015Z"></path><path class="cls-1" d="M8.5567,6.988l.2672-.2348c-.1047.0073-.1791.0111-.2532.0178-.2421.0215-.4838.0567-.7261.06a1.0606,1.0606,0,0,1-.3127-.0965l.01-.0364-.1688.0388h0c.1411.0336.1477.1563.1957.2793l-.265-.294a1.4125,1.4125,0,0,1,.1305.3432c.0176.23.0055.4614.0055.6806l.1077-.13.023.0149L7.5311,7.84,8.0025,7.52l-.1137-.1016.0278-.042L8.22,7.58l.0161-.02-.2936-.3318L7.9769,7.19l.2387.2237.0262-.0185-.11-.2124L8.15,7.1651l.1707.1342-.08-.2316.2235.1042L8.377,6.9792l.2014.0514Z"></path><path class="cls-1" d="M13.07,8.7612a.8242.8242,0,0,1-.1416-.3153,2.336,2.336,0,0,0-.581-1.4349c.5142.2723.5218.7937.6337,1.2652a2.0334,2.0334,0,0,0-.155-.8983.8116.8116,0,0,0-.4711-.4432,2.5658,2.5658,0,0,0-1.07-.1441c-.4756.0208-.9521.025-1.4282.0346-.1488.003-.2978.0005-.4478.0005l.0474.2572c-.2088-.2757-.3176-.2862-.5786-.05a1.2191,1.2191,0,0,0-.231,1.2413c.0582.1334.1065.2712.1575.4077.0043.0117-.0049.0285-.0106.0569l-.0726-.0832c-.0356.4393-.063.8718-.1109,1.302a.9487.9487,0,0,1-.1409.29c-.0375.0722-.0773.1433-.1161.2149l.0442.0357.1771-.1519.1435.0945c.108-.1912.0515-.4195.2369-.5441.0112-.0075.0026-.0416.0068-.0627.0548-.2747.1088-.55.1662-.8238.0242-.1157.0559-.23.0843-.3446l-.0369-.0113L9.07,8.7658a3.298,3.298,0,0,0,.4055-1.4824c.2827.0217.348.0771.4123.3258a.6183.6183,0,0,0,.2849.4563l-.174-.616.04-.0159a1.2692,1.2692,0,0,0,.3516.6262,1.6021,1.6021,0,0,0-.0643-.2134c-.0225-.0693-.0393-.14-.0587-.2107a.5272.5272,0,0,1,.1213.1748c.1269.2564.216.2959.4753.1708a.9994.9994,0,0,1,.8338-.0706c-.1019-.19-.1944-.3541-.2781-.5221a.2877.2877,0,0,1,.0837-.4147.958.958,0,0,0,.0533.3529,8.9745,8.9745,0,0,0,.7807,1.1739,9.5065,9.5065,0,0,0,.9634.8684,1.75,1.75,0,0,1,.1328.1467l-.0207.0249L13.2568,9.5c0,.2154.002.4157-.001.6159-.0012.0841.0117.1789-.1116.2034-.0177.0036-.0247.0613-.0366.0939.0329.0119.0827.0435.0957.0324a.4619.4619,0,0,0,.1492-.1688,7.3972,7.3972,0,0,0,.2154-.7319.3352.3352,0,0,0-.0532-.2453C13.3761,9.1127,13.2091,8.9474,13.07,8.7612Z"></path><path class="cls-1" d="M12.7723,9.9375h.3307c.0875-.5073.0337-.6431-.3621-.86C13.1111,9.35,12.8546,9.6446,12.7723,9.9375Z"></path><path class="cls-1" d="M7.3258,7.0285H7.0585L7.017,6.8078l.2873.1355a.2592.2592,0,0,0-.27-.1856.2333.2333,0,0,0-.1634.1034,2.344,2.344,0,0,0-.1364.3239c.5333.2659.5333.2659.5083.3742-.1231-.18-.5655-.274-.6972-.13.0962.0792.16.1661.3075.1087a.73.73,0,0,1,.2956.02l.0024.0714L6.55,7.766a.291.291,0,0,0,.176.0263c.1433-.0256.2863-.0543.4267-.0924.0647-.0175.1568-.0465.1753-.0942a.3668.3668,0,0,0-.0289-.2191A1.404,1.404,0,0,0,7.1882,7.18L7.35,7.1552Z"></path><path class="cls-1" d="M12.4171.3157a9.9979,9.9979,0,0,0-4.836,19.4022L7.58,19.7171A9.9976,9.9976,0,1,0,12.4171.3157ZM11.05,15.59c-.2918.2312-.6194.4171-.9275.628a.1759.1759,0,0,1-.22.0046,9.5352,9.5352,0,0,1-4.1522-4.9,9.1655,9.1655,0,0,1-.4221-4.9732.1868.1868,0,0,1,.1751-.17A9.966,9.966,0,0,0,9.7079,4.0452a2.9679,2.9679,0,0,0,.283-.3035,9.3591,9.3591,0,0,0,2.7668,1.8429,15.4817,15.4817,0,0,0,1.7352.5845c.1168.0369.18.0731.2006.2051A9.226,9.226,0,0,1,11.05,15.59Z"></path><path class="cls-1" d="M14.2946,6.4225a10.2528,10.2528,0,0,1-3.6917-1.7773c-.2049-.1479-.3986-.3113-.6019-.471-.085.075-.1619.1512-.2471.2166A10.52,10.52,0,0,1,5.757,6.414a.2013.2013,0,0,0-.1781.1911A9.0249,9.0249,0,0,0,5.6206,9.82c.0222.115.0838.1317.1818.1315q1.2681-.0027,2.5364.0014c.1139.0006.18-.0406.1854-.1517.0195-.3947.04-.7895.0445-1.1845a.2776.2776,0,0,0-.1155-.2095,2.9028,2.9028,0,0,0-1.2293-.43c-.2-.01-.3982-.0373-.5977-.052-.1347-.01-.2308-.0381-.2059-.2124A.458.458,0,0,0,6.36,7.5c-.0529-.1283-.1113-.2519.0237-.369.0205-.0177.0219-.0577.032-.0874.06-.1748.111-.3531.1824-.5231a2.1474,2.1474,0,0,1,.1985-.3026c.0538.2776.1554.4455.4452.333.0173-.06.0172-.14.057-.179a1.2742,1.2742,0,0,1,.2373-.1528c.06.1094.1753.222.1691.3274-.01.1777.0652.193.1944.1876.0594-.0025.1187-.0088.178-.0136.2748-.0219.55-.062.8243-.0621.7519,0,1.5039.0279,2.2557.0208a3.5549,3.5549,0,0,1,1.14.1181,1.03,1.03,0,0,1,.7541.8142,3.1449,3.1449,0,0,1,.0751.6756.8311.8311,0,0,0,.2263.6309c.2576.277.5054.571.251.9853-.0037.0061.0041.0194.011.0476.2053,0,.4151-.0045.6246.0019.1031.0031.1436-.0363.1562-.1363.0431-.338.1094-.6736.1368-1.0126a9.0552,9.0552,0,0,0-.0973-2.2343A.1579.1579,0,0,0,14.2946,6.4225Z"></path><path class="cls-1" d="M7.5646,6.3628c-.1437-.0746-.1787.0229-.1936.1183a1.4619,1.4619,0,0,0,.0022.2552C7.4357,6.6144,7.4982,6.4925,7.5646,6.3628Z"></path><path class="cls-1" d="M11.7233,9.4012a.3492.3492,0,0,0,.1458.0183c.0205-.0063.041-.11.0243-.1236a1.4561,1.4561,0,0,0-.22-.1277l-.0256.0444Z"></path><path class="cls-1" d="M11.9253,9.6922a.72.72,0,0,1,.0358.1548c.0095.0331.02.0788.045.0924a.2519.2519,0,0,0,.3891-.2346.8522.8522,0,0,0-.012-.1124c-.0441-.301-.279-.4616-.4895-.6707.0611.205.1748.3767.0495.5545A.1727.1727,0,0,0,11.9253,9.6922Z"></path><path class="cls-1" d="M11.869,10.0394a1.709,1.709,0,0,0-.1487-.6386l.0014,0-.1962-.2816-.0053.0161c-.0038.01-.0342.0108-.002-.0266l.0073.0105a2.35,2.35,0,0,0,.1325-.3975c.0186-.1044-.1173-.1934-.1728-.1289-.0582.0676-.2017.1084-.1153.2535.0149.0251-.0249.0848-.0432.1268-.0159.0364-.0535.07-.0535.1055a1.3282,1.3282,0,0,0,.0989.6942.5806.5806,0,0,1-.1032-.12c-.0528-.1125-.14-.0794-.2-.0361a.1937.1937,0,0,0-.0606.1639c.0188.0871.1186.1757.104.2473-.043.2109.08.1586.2329.1534L11.23,9.7333c.0338-.0262.0648.1721.1355.0352l.2047.1939c.0426.25.0426.25.4041.2C11.9274,10.11,11.8663,10.072,11.869,10.0394Z"></path><path class="cls-1" d="M11.8,8.8416c.0477-.1387-.0317-.2274-.1275-.3029l.0521.3747C11.7363,8.9027,11.7871,8.8787,11.8,8.8416Z"></path><path class="cls-1" d="M12.6718,9.9873l.1973-.5676-.0716-.0259-.1614.5825Z"></path><path class="cls-1" d="M12.595,11.2856c-.031-.0755-.0687-.1482-.1186-.2545-.21.5138-.4031.9876-.5978,1.4644h.1395c.0353-.1069.0693-.1977.095-.2907.0371-.1343.1-.2146.2606-.1987.1585.0157.3136-.0266.38.2011.0871.3.1128.3027.414.311a1.5884,1.5884,0,0,1-.1713-.2569C12.8559,11.9389,12.7288,11.6108,12.595,11.2856Zm-.3718.6558.1809-.497.0486-.0088.1919.5058Z"></path></g></svg> 