<?xml version="1.0" encoding="UTF-8"?> <svg xmlns="http://www.w3.org/2000/svg" id="Layer_1" data-name="Layer 1" width="20" height="20" viewBox="0 0 20 20"><defs><style>.cls-1{fill:#6b11c9;fill-rule:evenodd;}</style></defs><title>Artboard 1 copy 12</title><path class="cls-1" d="M12.4171.3157a9.9979,9.9979,0,0,0-4.836,19.4022L7.58,19.7171A9.9976,9.9976,0,1,0,12.4171.3157ZM6.4281,8.98l2.97-5.0671a.3547.3547,0,0,1,.27-.1453h.7061a.2815.2815,0,0,1,.27.1453L13.5719,8.98a.161.161,0,0,1-.0416.2077l-.7683.4984a.1294.1294,0,0,1-.2077-.0416l-2.492-4.2364a.0779.0779,0,0,0-.1246,0L7.4457,9.6443a.1561.1561,0,0,1-.2077.0416L6.47,9.1875A.1611.1611,0,0,1,6.4281,8.98Zm9.0534,3.7588L10.186,16.1859a.3188.3188,0,0,1-.3323,0L4.5582,12.7386a.3024.3024,0,0,1-.1039-.4153l1.1838-2.0144a.1559.1559,0,0,1,.2076-.0415l.7684.4984a.161.161,0,0,1,.0415.2076L5.97,12.1156c-.0208.0415-.0208.083.0208.1039l3.9457,2.575a.063.063,0,0,0,.083,0l3.9873-2.575a.0915.0915,0,0,0,.0207-.1039l-.6853-1.1422a.1611.1611,0,0,1,.0415-.2076l.7684-.4984a.1294.1294,0,0,1,.2077.0415l1.1837,2.0144A.348.348,0,0,1,15.4815,12.7386Z"></path></svg> 