<?xml version="1.0" encoding="UTF-8"?> <svg xmlns="http://www.w3.org/2000/svg" id="Layer_1" data-name="Layer 1" width="20" height="20" viewBox="0 0 20 20"><defs><style>.cls-1{fill:#6b11c9;fill-rule:evenodd;}</style></defs><title>Artboard 1 copy 13</title><path class="cls-1" d="M12.4171.3157a9.9979,9.9979,0,0,0-4.836,19.4022L7.58,19.7171A9.9976,9.9976,0,1,0,12.4171.3157ZM9.4936,13.4977q-.3515.6207-.7087,1.2383a1.5026,1.5026,0,0,1-1.03.7584,2.5314,2.5314,0,0,1-.478.0369c-.4571.0047-.9142.0017-1.3714.0017-.4667,0-.9335.0017-1.4-.0013a2.02,2.02,0,0,1-.3351-.028.4857.4857,0,0,1-.3714-.637,4.3386,4.3386,0,0,1,.28-.5554q1.7751-3.1351,3.5542-6.2679.87-1.5341,1.7422-3.0672a2.5918,2.5918,0,0,1,.2089-.3169.4885.4885,0,0,1,.762-.0206,2.4651,2.4651,0,0,1,.2493.3756q.6968,1.2126,1.388,2.4282a1.6378,1.6378,0,0,1,.2348.853,1.7036,1.7036,0,0,1-.2442.815Q10.7344,11.3043,9.4936,13.4977Zm6.2429,2.0208c-.2389.0075-.478.0132-.7171.0144-.445.0022-.89.0006-1.3352.0006V15.533c-.6007,0-1.2013.0013-1.802-.0012-.1095,0-.2191-.0138-.3283-.0248a.4967.4967,0,0,1-.3747-.66c.09-.1947.1922-.3843.3-.57q.7961-1.374,1.5989-2.744a2.812,2.812,0,0,1,.2226-.3335.4842.4842,0,0,1,.7559-.0077,4.5988,4.5988,0,0,1,.3474.5342q.8295,1.4128,1.6523,2.83c.0456.0782.0833.1611.1243.2421A.5062.5062,0,0,1,15.7365,15.5185Z"></path></svg> 