<?xml version="1.0" encoding="UTF-8"?> <svg xmlns="http://www.w3.org/2000/svg" id="Layer_1" data-name="Layer 1" width="20" height="20" viewBox="0 0 20 20"><defs><style>.cls-1{fill:#6b11c9;fill-rule:evenodd;}</style></defs><title>Artboard 1 copy 14</title><path class="cls-1" d="M12.4164.3157A9.9979,9.9979,0,0,0,7.58,19.7179L7.58,19.7171A9.9976,9.9976,0,1,0,12.4164.3157ZM7.2147,12.7878l-.5266-1.4111H4.9024l-.5132,1.4111h-.446l1.5724-4.34h.5373l1.64,4.34ZM9.18,14.3949,5.9446,5.605h.9645l1.6358,4.5c.4732,1.3124.98,2.7048,1.1711,3.4741h.0253c.1874-.6833.7433-2.143,1.22-3.4278L12.66,5.605h.9359l-3.3535,8.79ZM14.3957,12.36a1.2028,1.2028,0,0,0,1.2125-.8565h.4446a1.6121,1.6121,0,0,1-1.6744,1.2431,1.9581,1.9581,0,0,1-1.9257-2.2127,2.0061,2.0061,0,0,1,1.939-2.2416,1.5463,1.5463,0,0,1,1.6651,1.2748h-.4433A1.1852,1.1852,0,0,0,14.371,8.679c-1.0238,0-1.4491.9339-1.4491,1.8437C12.9219,11.4176,13.3345,12.36,14.3957,12.36Z"></path><path class="cls-1" d="M5.7729,8.8387c-.106.3463-.3732,1.1-.7385,2.1453H6.56c-.4519-1.2224-.6912-1.8363-.7812-2.1453Z"></path></svg> 