<?xml version="1.0" encoding="UTF-8"?> <svg xmlns="http://www.w3.org/2000/svg" id="Layer_1" data-name="Layer 1" width="20" height="20" viewBox="0 0 20 20"><defs><style>.cls-1{fill:#6b11c9;fill-rule:evenodd;}</style></defs><title>Artboard 1 copy 16</title><path class="cls-1" d="M12.4171.3157a9.9979,9.9979,0,0,0-4.836,19.4022L7.58,19.7171A9.9976,9.9976,0,1,0,12.4171.3157ZM14.185,11.07a.5444.5444,0,0,1-.6585-.497.4389.4389,0,0,0-.3838-.4282c-.3555-.0324-.4485-.4323-.4485-.5293s-.1656-.2061-.3837-.2586-.2047.0809-.2047.0809a4.9023,4.9023,0,0,1-1.0114,3.07s-.3838.3231-.6828.5211.1011.8565.1011.8565a.5462.5462,0,0,1,.501.1979c.1454.2425.2141.1617.4685.1819a1.073,1.073,0,0,1,.8283.517c.1292.3111.2868.84.1939.901a3.0374,3.0374,0,0,1-1.1433.1575,1.2788,1.2788,0,0,1-.8929-.311c-.21-.1617-.5736-.1131-.7271-.2344s-.0567-.1777-.0243-.3878.1858-.21.097-.4363.04-.2989.1292-.2909.1051-.097.1051-.097a1.1024,1.1024,0,0,0-.1535-.7352,3.1382,3.1382,0,0,1-1.1475.5009c.0243.0243.3476.2182.3476.3636s-.1455.0646-.1455.0646c.2424.6707.202,1.1071.1132,1.1232a3.2622,3.2622,0,0,0-.9858.2989,3.3675,3.3675,0,0,1-1.4382.1131.4845.4845,0,0,1-.3718-.5979,1.0878,1.0878,0,0,1,.291-.5494c.1616-.4121.9371-.3636,1.18-.396s-.0162-.1455.0324-.2019.4443.0968.4443.0968l-.0162-.4038a1.9258,1.9258,0,0,1-.9129-.1859s-.8566-.5252.2827-1.1231S9.0461,9.7366,9.0461,9.7366s-.6948-.2667-.8644.2666-.6384.4121-.7758.5252-.1778.5011-.2666.76-.4686.25-.4848.1294a.7465.7465,0,0,0-.2424-.3394c-.0243,0-.1212-.0243-.2181-.3717s.1292-.38.1292-.38.17-.38.1858-.4122.1778-.4766.1778-.4766-.1509-.2047-.2477-.3232.0323-.2693.1076-.4094.6788-.0862.5926.1184.3016.4848.3016.4848l1.0665.0109.3665-.431.0906-.1972.1248-1.225s.3986-1.5027.0161-1.3411c-.311.1313-.2882-.5716-.2685-.849-.2042-.1222-.4983-.3056-.4695-.3415.0432-.0539,1.573-.6679,1.713-.7649a10.9078,10.9078,0,0,1,1.9392.4094c.1185.0215-.28.3987-.614.56s-.0539.8511-.0539.8511A23.0634,23.0634,0,0,1,12.1852,8.82c.093-.0122.5374.1253.6222.1212s.3717.016.5212.02.2263-.0525.3231-.2182-.23-.2544-.0041-.4646.6344.1092.7313.2909-.1333.2343-.2788.5374.4607.9291.4607.9291S14.7668,10.9728,14.185,11.07Z"></path></svg> 