<?xml version="1.0" encoding="UTF-8"?> <svg xmlns="http://www.w3.org/2000/svg" id="Layer_1" data-name="Layer 1" width="20" height="20" viewBox="0 0 20 20"><defs><style>.cls-1{fill:#6b11c9;fill-rule:evenodd;}</style></defs><title>Artboard 1 copy 18</title><path class="cls-1" d="M12.4171.3157a9.9979,9.9979,0,0,0-4.836,19.4022L7.58,19.7171A9.9976,9.9976,0,1,0,12.4171.3157Zm-3.51,15.853v.0531c-.0537-.0305-.1006-.057-.1473-.0838Q7.3776,15.3436,5.9957,14.55a.0672.0672,0,0,1-.0409-.0669q.0017-1.6515.0009-3.3029v-.0484c.1044.06.2015.1151.2983.1707q1.304.75,2.6084,1.499a.0746.0746,0,0,1,.0452.0747Q8.9059,14.5223,8.9067,16.1687Zm0-4.5856v.0317c-.0205.0041-.0328-.01-.0462-.0177Q7.4279,10.7735,5.9952,9.95a.067.067,0,0,1-.04-.067q.0017-1.6513.0009-3.3026V6.531l.8037.4621q1.0531.6059,2.1068,1.211a.0668.0668,0,0,1,.0416.0662Q8.9058,9.9267,8.9067,11.5831Zm.69-4.4419q-1.4093-.8288-2.82-1.6545l-.0383-.0234L7.3749,5.09Q8.4787,4.4431,9.582,3.7956a.0863.0863,0,0,1,.101-.0022q1.4226.8208,2.8467,1.6388c.0158.0091.0313.0187.0536.0321-.1129.065-.22.1269-.3274.1886q-1.2884.7413-2.5765,1.4828A.07.07,0,0,1,9.5968,7.1412Zm.5489,1.0657q1.4378-.8248,2.8741-1.6522c.01-.0058.0208-.0107.04-.0207v.0529q0,1.6461.0007,3.2924a.0706.0706,0,0,1-.0406.0719q-1.431.8211-2.8607,1.6446c-.0145.0082-.03.0154-.0514.0268V11.568q0-1.6437-.0005-3.2873A.0706.0706,0,0,1,10.1457,8.2069Zm3.8562,5.7972q-1.92,1.0938-3.84,2.19c-.0531.03-.0531.03-.0531-.0321q0-1.641-.0009-3.2819a.0745.0745,0,0,1,.0433-.0757Q12.0762,11.7074,14,10.6091a.069.069,0,0,1,.0444-.0177v.05q0,1.6437.0009,3.2872A.0742.0742,0,0,1,14.0019,14.0041Z"></path></svg> 