<?xml version="1.0" encoding="UTF-8"?> <svg xmlns="http://www.w3.org/2000/svg" id="Layer_1" data-name="Layer 1" width="20" height="20" viewBox="0 0 20 20"><defs><style>.cls-1{fill:#6b11c9;fill-rule:evenodd;}</style></defs><title>Artboard 1 copy 151</title><path class="cls-1" d="M12.4171.3157a9.9979,9.9979,0,0,0-4.836,19.4022L7.58,19.7171A9.9976,9.9976,0,1,0,12.4171.3157ZM13.5607,13.52l-3.54,2.0993L6.4394,13.5606V6.3982l3.5812-2.017,2.3051,1.1526v3.293l-1.1526-.6586V6.2335l-1.1525-.6174-2.47,1.3584V12.902l2.47,1.4,2.4286-1.3584-.0411-2.4287L8.9915,8.4975l1.1526-.5763,3.4166,2.0582ZM10.6792,9.7324l.8644.5352L8.9915,11.7083V8.7445l.9056.5351v.8644Z"></path></svg> 