<?xml version="1.0" encoding="UTF-8"?> <svg xmlns="http://www.w3.org/2000/svg" id="Layer_1" data-name="Layer 1" width="20" height="20" viewBox="0 0 20 20"><defs><style>.cls-1{fill:#6b11c9;fill-rule:evenodd;}.cls-2{fill:#fefefe;}</style></defs><title>Artboard 1 copy 23</title><path class="cls-1" d="M12.4171.3157a9.9979,9.9979,0,0,0-4.836,19.4022L7.58,19.7171A9.9976,9.9976,0,1,0,12.4171.3157Z"></path><path class="cls-2" d="M13.8526,7.6793l-.02.0236L13.8,7.7364q-3.0358,3.0359-6.0709,6.0728c-.0424.0425-.064.0461-.1084.0015q-.72-.7259-1.446-1.4467c-.0354-.0352-.0409-.0535-.0019-.0924Q9.2194,9.2278,12.2635,6.181c.035-.035.0541-.0431.0939-.003q.7257.73,1.4549,1.457C13.8262,7.6489,13.8388,7.6641,13.8526,7.6793Z"></path><path class="cls-2" d="M16.1684,9.9853c-.0112.0152-.0156.0225-.0212.0286-.0123.0131-.0253.0256-.038.0383q-3.0333,3.0333-6.0651,6.0678c-.05.05-.0715.044-.117-.0019Q9.2138,15.4,8.4952,14.6863c-.0456-.0453-.0424-.07.0022-.109.0541-.0473.1026-.1009.1535-.1518q2.9553-2.9581,5.9094-5.9176c.0513-.0514.0756-.0462.1232.0016q.7157.7209,1.4358,1.4375A.5028.5028,0,0,0,16.1684,9.9853Z"></path><path class="cls-2" d="M11.5342,5.3743l-.0158.02-.0332.0336Q9.6071,7.3059,7.73,9.1853c-.049.0492-.072.0461-.1188-.0011Q6.898,8.4656,6.18,7.752c-.041-.0408-.0491-.0626-.0029-.1087Q8.0618,5.7625,9.9427,3.8774c.0441-.0442.066-.0423.1088.0007q.7183.7232,1.44,1.4428C11.5072,5.3363,11.5277,5.3483,11.5342,5.3743Z"></path><path class="cls-2" d="M5.3572,11.5423c-.01-.0093-.0221-.0191-.033-.03q-.7349-.7347-1.47-1.4686c-.0338-.0336-.0262-.05.0029-.0794q.7333-.7312,1.4643-1.465c.0352-.0353.0522-.0294.0838.0024q.7286.7314,1.46,1.46c.0375.0373.0322.0551-.002.0892q-.7293.726-1.4561,1.4543C5.3932,11.5187,5.3826,11.5377,5.3572,11.5423Z"></path></svg> 