<?xml version="1.0" encoding="UTF-8"?> <svg xmlns="http://www.w3.org/2000/svg" id="Layer_1" data-name="Layer 1" width="20" height="20" viewBox="0 0 20 20"><defs><style>.cls-1{fill:#6b11c9;fill-rule:evenodd;}</style></defs><title>Artboard 1 copy 24</title><path class="cls-1" d="M12.4171.3157a9.9979,9.9979,0,0,0-4.836,19.4022L7.58,19.7171A9.9976,9.9976,0,1,0,12.4171.3157ZM9.9658,3.8408a6.2086,6.2086,0,0,1,4.6,2.0493c-.0683,0-.1366.0227-.2049.0227-1.3434.2277-1.5256.4554-2.1631.3644-.3871-.0456-1.7989-.41-2.2542.82a15.8264,15.8264,0,0,1-.66,2.0037C8.6452,8.9412,6.4593,7.8483,4.41,7.3473A6.1857,6.1857,0,0,1,9.9658,3.8408ZM3.818,10.0113a7.2881,7.2881,0,0,1,.1594-1.4344,8.5029,8.5029,0,0,1,.7059.6375c1.6166,1.48,4.2123,2.6641,5.1687,1.5711a2.0914,2.0914,0,0,1-2.0948.7287L5.7762,14.497A6.0828,6.0828,0,0,1,3.818,10.0113Zm6.1934,6.1479a6.1514,6.1514,0,0,1-3.6659-1.2068c.9335-.41,2.1631-.9563,2.664-1.184.8653-.41,2.7324-1.07,2.9828-3.0284.1367-1.1157-.1821-1.5256-.0455-2.4819a2.093,2.093,0,0,1,1.64-1.8216c.3187-.0683.7285-.1821,1.1612-.2732a.1721.1721,0,0,0,.0911-.0228,6.1738,6.1738,0,0,1-4.8272,10.0187Z"></path><path class="cls-1" d="M7.9393,4.9109c-.091,1.9355-.3415,2.573-.1593,3.0512.25.5693,1.3661.8425,1.3661.8425C8.9868,6.0267,8.1215,4.9337,7.9393,4.9109Z"></path></svg> 