<?xml version="1.0" encoding="UTF-8"?> <svg xmlns="http://www.w3.org/2000/svg" id="Layer_1" data-name="Layer 1" width="20" height="20" viewBox="0 0 20 20"><defs><style>.cls-1{fill:#6b11c9;fill-rule:evenodd;}</style></defs><title>Artboard 1 copy 27</title><path class="cls-1" d="M11.48,7.5527c-.4633-1.3079-2.237-.5758-2.8487-.4248L9.21,9.2855C9.8193,9.1294,11.7082,8.9656,11.48,7.5527Z"></path><path class="cls-1" d="M9.4532,10.3886l.6348,2.3778c.73-.1919,2.9383-.3865,2.7233-1.9759C12.4479,9.39,10.1853,10.1967,9.4532,10.3886Z"></path><path class="cls-1" d="M12.4171.3157a9.9979,9.9979,0,0,0-4.836,19.4022L7.58,19.7171A9.9976,9.9976,0,1,0,12.4171.3157Zm-.0741,13.239.4632,1.7942-1.08.279-.4607-1.7994q-.4224.1114-.8677.2151l.4633,1.81-1.08.279-.4633-1.7967c-.2534.0639-2.1832.5579-2.1832.5579l-.1177-1.3488s.8036-.192.7857-.2022a.4.4,0,0,0,.3123-.4633L6.8554,8.0109a.5748.5748,0,0,0-.7448-.3123c.0077-.0179-.7858.2048-.7858.2048L5.028,6.7465s1.9477-.4991,2.1806-.5657L6.7505,4.4045l1.08-.2789.45,1.7609c.2893-.0819.5811-.1433.8651-.215L8.6957,3.9l1.08-.2789.4581,1.7762c1.4256-.238,2.59.0077,3.097,1.157a1.7839,1.7839,0,0,1-.4786,2.091,2.4949,2.4949,0,0,1,2.0885,1.8506C15.1814,12.1009,14.0066,13.15,12.343,13.5547Z"></path></svg> 