<?xml version="1.0" encoding="UTF-8"?> <svg xmlns="http://www.w3.org/2000/svg" id="Layer_1" data-name="Layer 1" width="20" height="20" viewBox="0 0 20 20"><defs><style>.cls-1{fill:#6b11c9;fill-rule:evenodd;}</style></defs><title>Artboard 1 copy 31</title><path class="cls-1" d="M7.738,10.7178c-.7289-.0022-2.3663.0057-2.47.0109v2.6842c.0336.0165.0483.03.0631.03.8376.0033,1.6756.0183,2.5129.0016a.6456.6456,0,0,0,.6076-.6761c.0044-.4441.0034-.8882,0-1.3323A.6542.6542,0,0,0,7.738,10.7178Z"></path><path class="cls-1" d="M7.9937,8.6239c.0107-.4771.0124-.9548,0-1.4317A.6352.6352,0,0,0,7.4067,6.55c-.7023-.0138-1.4052-.0042-2.1318-.0042V9.2775c.7075,0,1.3935.0111,2.0789-.0045A.651.651,0,0,0,7.9937,8.6239Z"></path><path class="cls-1" d="M12.4171.3157a9.9979,9.9979,0,0,0-4.836,19.4022L7.58,19.7171A9.9976,9.9976,0,1,0,12.4171.3157ZM9.8834,13.0672A1.9121,1.9121,0,0,1,8.0789,14.87c-1.3894.043-2.7812.01-4.1721.009-.0149,0-.03-.0118-.0723-.03V5.123c.0991-.0045.188-.0122.2769-.0122q1.6968,0,3.3938.0015A1.954,1.954,0,0,1,9.429,7.0348c.0044.5866-.0154,1.1737.0057,1.76a1.075,1.075,0,0,1-.69,1.153c.0848.0446.1343.0772.1883.0981a1.3886,1.3886,0,0,1,.9547,1.3627C9.8958,11.9612,9.8956,12.5144,9.8834,13.0672Zm.6977-7.9561c.4275,0,.8441-.0051,1.26.0066a.2071.2071,0,0,1,.1423.1435c.0125.3678.0138.7366,0,1.1043a.2308.2308,0,0,1-.151.1659c-.4084.0141-.8175.0076-1.2514.0076ZM16.1655,9.3H14.7893c-.0082.1054-.0188.1782-.0188.251-.0011,1.2148.0045,2.43-.0057,3.6443-.0018.2205.0793.2678.2778.2607.3588-.013.7185-.0037,1.1206-.0037,0,.4607.0053.8778-.0073,1.2943-.0015.0484-.1023.1338-.1578.1344-.8293.0088-1.6587.01-2.488-.0015-.0595-.0009-.1565-.1066-.1682-.1751a2.8813,2.8813,0,0,1-.011-.4762q0-2.2872,0-4.5743v-.32H11.9946v.2929c-.0009,1.65-.0061,3.3009.0019,4.9512.0011.2345-.0533.3322-.3047.3157-.317-.0207-.6365-.0089-.9547-.004-.1286.0019-.1771-.0462-.1769-.1765q.0044-3.3552.0041-6.71a.7007.7007,0,0,1,.0246-.1181H13.32c.0054-.114.0132-.2031.0133-.2921.0011-.7373.0066-1.4746-.0032-2.2117-.0027-.2.0447-.2845.2629-.2748.3756.0169.7524.0047,1.1668.0047V7.88h.8822c.5237,0,.5237,0,.5237.5351Z"></path></svg> 