<?xml version="1.0" encoding="UTF-8"?> <svg xmlns="http://www.w3.org/2000/svg" id="Layer_1" data-name="Layer 1" width="20" height="20" viewBox="0 0 20 20"><defs><style>.cls-1{fill:#6b11c9;fill-rule:evenodd;}</style></defs><title>Artboard 1 copy 33</title><path class="cls-1" d="M10.0058,4.596a5.41,5.41,0,1,0,5.41,5.41A5.4147,5.4147,0,0,0,10.0058,4.596Zm1.0926,10.2422h-.0062c-.0192.0068-.0446.0068-.0632.013h-.013a1.0342,1.0342,0,0,1-.1457.0317c-.0254.0062-.0446.0062-.07.0129h-.013c-.0186,0-.0379.0062-.057.0062h-.0125a.2772.2772,0,0,1-.07.0125c-.0254,0-.0508.0067-.0762.0067h-.0125c-.0254,0-.0445.0062-.0638.0062h-.0191a.178.178,0,0,1-.0571.0062H10.4a.26.26,0,0,1-.07.0063h-.0067a.29.29,0,0,1-.0757.0067H9.9872A4.9112,4.9112,0,0,1,6.94,13.8924a3.9448,3.9448,0,0,1-.87-1.2508,4.5837,4.5837,0,0,1-.3112-.9147,4.7858,4.7858,0,0,1-.1141-.9527v-.1649l.0192-.279a4.6166,4.6166,0,0,1,.1711-.8831,4.474,4.474,0,0,1,.35-.8442,4.3182,4.3182,0,0,1,.527-.781,4.4655,4.4655,0,0,1,.73-.6985A4.675,4.675,0,0,1,8.28,6.6153a4.5816,4.5816,0,0,1,.9143-.3112,4.7709,4.7709,0,0,1,.9525-.1141h.165v.8443H10.165A3.7714,3.7714,0,0,0,7.3585,8.368a3.6958,3.6958,0,0,0-.87,2.3621,3.9119,3.9119,0,0,0,1.4095,3.0414,4.4447,4.4447,0,0,0,1.9306.8956,5.6754,5.6754,0,0,0,1.4157.1333C11.1939,14.8129,11.1493,14.8258,11.0984,14.8382Zm1.7082-.7742c-.2027.1328-.2219.1458-.3428.2158s-.2411.127-.3619.1841c-.14.057-.2479.1016-.5082.197a10.2675,10.2675,0,0,1-1.1875-.0633,5,5,0,0,1-1.6128-.4511,4.0937,4.0937,0,0,1-1.1107-.8256A3.51,3.51,0,0,1,6.92,12.0572a3.6166,3.6166,0,0,1,.1654-2.7619,3.4547,3.4547,0,0,1,.362-.5907,3.641,3.641,0,0,1,.476-.5144,3.5862,3.5862,0,0,1,2.3746-.9081,3.7411,3.7411,0,0,1,1.1243.1717q.1632.0561.3235.12l-.3552.7556a2.9185,2.9185,0,0,0-1.0926-.2158,2.7017,2.7017,0,0,0-.8634.14A2.7635,2.7635,0,0,0,7.708,11.7906a3.564,3.564,0,0,0,2.8444,2.2412,6.4423,6.4423,0,0,0,.9334.1017,5.6371,5.6371,0,0,0,1.3717-.1079A.3447.3447,0,0,1,12.8066,14.064Zm.2857-.197a4.7335,4.7335,0,0,1-.6917.1016,6.3744,6.3744,0,0,1-2.2543-.2033,3.8829,3.8829,0,0,1-1.5811-1.0029,3.0909,3.0909,0,0,1-.5522-.8194,2.5412,2.5412,0,0,1-.223-1.0288A2.5752,2.5752,0,0,1,8.5455,9.092l.0031-.0031a2.5751,2.5751,0,0,1,3.6419.0031,2.4521,2.4521,0,0,1,.4512.6031l-.7556.3744a1.7447,1.7447,0,0,0-1.5178-.8889h-.0031a1.7383,1.7383,0,0,0-1.7367,1.74,2.394,2.394,0,0,0,1.7782,2.0509,6.0677,6.0677,0,0,0,1.8477.2473c.3173,0,.5968-.0186.7939-.0311.2473-.0192.6093-.057.8064-.0762A4.767,4.767,0,0,1,13.0923,13.867Z"></path><path class="cls-1" d="M12.4171.3157a9.9979,9.9979,0,0,0-4.836,19.4022L7.58,19.7171A9.9976,9.9976,0,1,0,12.4171.3157Zm3.2852,12.091a6.4948,6.4948,0,0,1-.5715,1.0537,6.2483,6.2483,0,0,1-1.67,1.67,6.3066,6.3066,0,0,1-1.0537.5715,6.1644,6.1644,0,0,1-4.8134,0A6.5025,6.5025,0,0,1,6.54,15.1307a6.2483,6.2483,0,0,1-1.67-1.67,6.2994,6.2994,0,0,1-.5714-1.0537,6.1626,6.1626,0,0,1,0-4.8134A6.4909,6.4909,0,0,1,4.8694,6.539a6.1883,6.1883,0,0,1,7.5374-2.2412,6.4965,6.4965,0,0,1,1.0537.5714,6.26,6.26,0,0,1,1.67,1.67,6.28,6.28,0,0,1,.5715,1.0543,6.1686,6.1686,0,0,1,0,4.8134Z"></path></svg> 