<?xml version="1.0" encoding="UTF-8"?> <svg xmlns="http://www.w3.org/2000/svg" id="Layer_1" data-name="Layer 1" width="20" height="20" viewBox="0 0 20 20"><defs><style>.cls-1{fill:#6b11c9;fill-rule:evenodd;}</style></defs><title>Artboard 1 copy 34</title><path class="cls-1" d="M12.4171.3157a9.9979,9.9979,0,0,0-4.836,19.4022L7.58,19.7171A9.9976,9.9976,0,1,0,12.4171.3157Zm2.1308,6.6428a.3478.3478,0,0,1,.3177.6187.3536.3536,0,0,1-.4715-.1538A.349.349,0,0,1,14.5479,6.9585Zm-1.157,1.1069a.4958.4958,0,1,1-.6655-.2207A.4959.4959,0,0,1,13.3909,8.0654Zm-.5585,1.9262a.8442.8442,0,0,1-.8426.8461h-.0469a.844.844,0,1,1,.89-.8461Zm-.0769-5.3438a.2741.2741,0,1,1,.08.3812A.2815.2815,0,0,1,12.7555,4.6478Zm-.9029,1.2841a.4225.4225,0,1,1,.12.5852A.4179.4179,0,0,1,11.8526,5.9319Zm-.4013,1.6353A.8438.8438,0,1,1,10.99,7.43.8418.8418,0,0,1,11.4513,7.5672ZM10.0067,4.2063a.3484.3484,0,1,1-.3678.3244A.35.35,0,0,1,10.0067,4.2063Zm.01,1.8894a.4957.4957,0,1,1-.5216.4682A.4925.4925,0,0,1,10.0167,6.0957ZM8.6223,7.52a.8428.8428,0,0,1,1.1336.3745A.845.845,0,1,1,8.6223,7.52Zm.234,2.4812a.84.84,0,0,1-.8427.8461h-.05a.8451.8451,0,1,1,.8928-.8461ZM7.5922,5.7981a.4211.4211,0,1,1-.1872.5652A.422.422,0,0,1,7.5922,5.7981ZM6.8666,4.5676a.2737.2737,0,0,1,.2475.4882.2737.2737,0,0,1-.2475-.4882ZM3.9873,10.2859a.273.273,0,1,1,.2876-.2575A.2731.2731,0,0,1,3.9873,10.2859Zm1-3.19a.3478.3478,0,1,1,.1.4816A.3462.3462,0,0,1,4.9872,7.0956Zm.4615,5.9492a.3485.3485,0,1,1,.1538-.4682A.3489.3489,0,0,1,5.4487,13.0448Zm.1037-2.6118a.422.422,0,1,1,.4447-.3979A.42.42,0,0,1,5.5524,10.433ZM6.6292,8.032a.4953.4953,0,1,1,.1438.6855A.4922.4922,0,0,1,6.6292,8.032Zm-.02,3.9026a.4958.4958,0,1,1,.6654.2207A.496.496,0,0,1,6.6091,11.9346Zm.6287,3.4143a.2727.2727,0,1,1-.0769-.378A.2686.2686,0,0,1,7.2378,15.3489Zm.9095-1.2809a.4224.4224,0,1,1-.12-.5852A.4184.4184,0,0,1,8.1473,14.068Zm.398-1.6352a.8454.8454,0,1,1,1.1705-.2441.8483.8483,0,0,1-1.1705.2441Zm1.4113,3.3608a.3484.3484,0,1,1,.3678-.3244A.35.35,0,0,1,9.9566,15.7936Zm-.01-1.8894a.4956.4956,0,1,1,.5217-.4682A.4924.4924,0,0,1,9.9465,13.9042Zm1.4313-1.4279a.8442.8442,0,1,1,.3745-1.1337l.0033.0067A.84.84,0,0,1,11.3778,12.4763Zm1.0366,1.7255a.4225.4225,0,0,1-.3845-.7524.4267.4267,0,0,1,.5718.1873A.4219.4219,0,0,1,12.4144,14.2018Zm.719,1.2306a.2737.2737,0,0,1-.2475-.4882.2737.2737,0,0,1,.2475.4882Zm.2375-3.4644a.4953.4953,0,1,1-.1438-.6855A.4923.4923,0,0,1,13.3709,11.968Zm.632-2a.422.422,0,0,1,.8427.0469.4244.4244,0,0,1-.4448.3978A.42.42,0,0,1,14.0029,9.9682Zm1.01,2.9361a.3478.3478,0,1,1-.1-.4815A.3461.3461,0,0,1,15.0128,12.9043Zm.97-2.6452a.2729.2729,0,1,1,.2876-.2575A.2731.2731,0,0,1,15.9826,10.2591Z"></path></svg> 