<?xml version="1.0" encoding="UTF-8"?> <svg xmlns="http://www.w3.org/2000/svg" id="Layer_1" data-name="Layer 1" width="20" height="20" viewBox="0 0 20 20"><defs><style>.cls-1{fill:#6b11c9;fill-rule:evenodd;}</style></defs><title>Artboard 1 copy 35</title><polygon class="cls-1" points="6.841 8.174 6.841 11.826 10 13.652 13.159 11.826 13.159 8.174 10 6.348 6.841 8.174"></polygon><path class="cls-1" d="M12.4171.3157a9.9979,9.9979,0,0,0-4.836,19.4022L7.58,19.7171A9.9976,9.9976,0,1,0,12.4171.3157ZM15.4783,13.16l-1.1594.6666-3.13,1.8261-1.1594.6667L8.87,15.6522,5.6811,13.8261,4.5217,13.16V6.8405l1.1594-.6666,3.16-1.8261L10,3.6811l1.1594.6667,3.1595,1.8261,1.1594.6666Z"></path></svg> 