<?xml version="1.0" encoding="UTF-8"?> <svg xmlns="http://www.w3.org/2000/svg" id="Layer_1" data-name="Layer 1" width="20" height="20" viewBox="0 0 20 20"><defs><style>.cls-1{fill:#6b11c9;fill-rule:evenodd;}.cls-2{fill:#fff;}</style></defs><title>Artboard 1 copy 36</title><path class="cls-1" d="M12.4171.3157a9.9979,9.9979,0,0,0-4.836,19.4022L7.58,19.7171A9.9976,9.9976,0,1,0,12.4171.3157Z"></path><path class="cls-2" d="M15.0769,5.3029a.7118.7118,0,0,0-.6651-.4418.7253.7253,0,0,0-.7046.4328.0708.0708,0,0,1-.0748.0464c-.3261-.0013-.6522-.0007-.9783-.0007H12.418q-3.0256,0-6.0512.0009a.0726.0726,0,0,1-.0781-.0491.7539.7539,0,1,0-.6963,1.0741A.093.093,0,0,1,5.69,6.43q.4374.94.8786,1.8789.3621.7729.7247,1.5455a.0553.0553,0,0,1-.0015.06.7568.7568,0,0,0-.196.3176.5161.5161,0,0,0-.0241.1017.7576.7576,0,0,0,.7476.8827.7912.7912,0,0,0,.0833-.0046.0873.0873,0,0,1,.0529.0555c.1464.3175.2954.6339.4437.95q.6412,1.3689,1.283,2.7374a.0659.0659,0,0,1-.0079.0839A.753.753,0,0,0,10.74,16.0964a.7474.7474,0,0,0,.0636-1.082.0632.0632,0,0,1-.0129-.0791c.0606-.14.1188-.281.1776-.4217q.68-1.628,1.3586-3.2562a.0719.0719,0,0,1,.0339-.0412h.0053a.7578.7578,0,0,0,.54-1.29.0588.0588,0,0,1,.0009-.0574q.272-.6459.541-1.2931.4521-1.0824.9035-2.1649a.0628.0628,0,0,1,.0659-.0451A.7511.7511,0,0,0,15.0769,5.3029Zm-2.0526.1686.0058.0076.006.0075-.006-.0075-.0058-.0076Zm.5234.4156.004.0087q-.1314.0982-.2627.1965-1.0563.7858-2.1127,1.5715c-.3548.2637-.71.5264-1.0642.7913a.0511.0511,0,0,1-.0732-.001q-.9685-.6956-1.9383-1.39Q7.3038,6.4933,6.5072,5.922c-.0122-.0088-.0236-.0187-.0439-.0349ZM7.13,8.2246c-.01-.0223-.0346-.0378-.0491-.0587a.1716.1716,0,0,1-.0214-.05.63.63,0,0,0-.0232-.09q-.35-.7519-.7031-1.5029c-.0091-.02-.0178-.04-.0267-.0592l.01-.0065,3.3,2.365c-.0662.05-.1264.0958-.1872.141q-.5684.4227-1.1365.8457a.0626.0626,0,0,1-.0571.0168.754.754,0,0,0-.393-.1241.0611.0611,0,0,1-.0388-.0386Q7.4683,8.9429,7.13,8.2246Zm4.6973,2.8189c-.1081.2545-.2144.51-.321.7648q-.4445,1.0644-.8887,2.1288-.1664.398-.3339.7954c-.0079.0186-.0293.0315-.0542.0571a.3269.3269,0,0,1-.0506-.0575q-.2155-.4571-.429-.9152Q9.1983,12.6383,8.646,11.46c-.0762-.1627-.152-.3255-.2289-.4877a.06.06,0,0,1-.0072-.0392.7575.7575,0,0,0,.15-.6349.0686.0686,0,0,1,.03-.0328q.5932-.4408,1.1863-.8819c.0906-.0674.182-.1336.2714-.2025a.0493.0493,0,0,1,.07-.0018c.4657.3352.9306.6717,1.4,1.0018a.1987.1987,0,0,1,.1025.1428.7648.7648,0,0,0-.0121.1346.7553.7553,0,0,0,.2236.5374A.0605.0605,0,0,1,11.8277,11.0435Zm1.8729-4.4856q-.5319,1.2733-1.0642,2.5465c-.0772.1848-.155.3692-.2313.5543a.0612.0612,0,0,1-.0384.0417h-.0008a.7546.7546,0,0,0-.4019.1154.0417.0417,0,0,1-.038-.0091q-.6774-.4873-1.3559-.9732c-.0073-.0052-.0136-.0119-.0251-.0219l3.1926-2.3742.0083.0048C13.7309,6.4808,13.7166,6.52,13.7006,6.5579Z"></path></svg> 