<?xml version="1.0" encoding="UTF-8"?> <svg xmlns="http://www.w3.org/2000/svg" id="Layer_1" data-name="Layer 1" width="20" height="20" viewBox="0 0 20 20"><defs><style>.cls-1{fill:#6b11c9;fill-rule:evenodd;}</style></defs><title>Artboard 1 copy 38</title><path class="cls-1" d="M6.738,6.4245A1.7947,1.7947,0,0,0,4.9019,8.2122,1.8257,1.8257,0,0,0,6.738,10,1.7946,1.7946,0,0,0,8.574,8.2122,1.7657,1.7657,0,0,0,6.738,6.4245Z"></path><path class="cls-1" d="M13.2125,10a1.7947,1.7947,0,0,0-1.836,1.7878,1.8256,1.8256,0,0,0,1.836,1.7877,1.7947,1.7947,0,0,0,1.8361-1.7877A1.8583,1.8583,0,0,0,13.2125,10Z"></path><path class="cls-1" d="M12.4171.3157a9.9979,9.9979,0,0,0-4.836,19.4022L7.58,19.7171A9.9976,9.9976,0,1,0,12.4171.3157Zm.7954,4.8525A2.64,2.64,0,0,1,15.87,7.7774a2.8185,2.8185,0,0,1-.29,1.2562,5.0559,5.0559,0,0,0-1.1113-.6281,1.4885,1.4885,0,0,0,.1449-.6281,1.3826,1.3826,0,0,0-1.3529-1.3529,1.3506,1.3506,0,0,0-1.3529,1.3529,1.3367,1.3367,0,0,0,.145.6281,3.6524,3.6524,0,0,0-1.1113.6281,2.2958,2.2958,0,0,1-.29-1.2562A2.5283,2.5283,0,0,1,13.2125,5.1682ZM6.7863,14.8318a2.64,2.64,0,0,1-2.6575-2.6092H5.3851a1.3529,1.3529,0,0,0,2.7058,0H9.3471A2.5,2.5,0,0,1,6.7863,14.8318Zm0-3.6239A3.0214,3.0214,0,0,1,3.7422,8.2122a3.0683,3.0683,0,0,1,6.1364,0A3.0635,3.0635,0,0,1,6.7863,11.2079Zm6.4262,3.6239a3.0207,3.0207,0,1,1,0-6.04,3.0314,3.0314,0,0,1,3.044,3.044A2.9908,2.9908,0,0,1,13.2125,14.8318Z"></path></svg> 