<?xml version="1.0" encoding="UTF-8"?> <svg xmlns="http://www.w3.org/2000/svg" id="Layer_1" data-name="Layer 1" width="20" height="20" viewBox="0 0 20 20"><defs><style>.cls-1{fill:#6b11c9;fill-rule:evenodd;}</style></defs><title>Artboard 1 copy 40</title><path class="cls-1" d="M12.4171.3157a9.9979,9.9979,0,0,0-4.836,19.4022L7.58,19.7171A9.9976,9.9976,0,1,0,12.4171.3157ZM10.7908,15.7471a.5245.5245,0,0,1-.5244.5266.5339.5339,0,0,1-.2758-.0773L5.5924,13.5053a1.052,1.052,0,0,1-.5035-.8964V10.5676a.4393.4393,0,0,1,.66-.3782l4.6061,2.6859a.8757.8757,0,0,1,.4356.7574Zm2.103-1.0676a.3489.3489,0,0,1-.1787.3051l-1.0081.5672a.1767.1767,0,0,1-.0407.0167v-2.383a.8782.8782,0,0,0-.4273-.7532L7.194,10.0128v-2.69a.4393.4393,0,0,1,.66-.3782l4.604,2.6859a.8793.8793,0,0,1,.4356.7574Zm2.0173-1.192a.355.355,0,0,1-.1849.3082l-.9559.5161V9.9481a.8788.8788,0,0,0-.4252-.7522L9.21,6.7158V4.1646a.4513.4513,0,0,1,.0585-.22.44.44,0,0,1,.6-.1588l4.6061,2.6755a.8764.8764,0,0,1,.4367.7584Z"></path></svg> 