<?xml version="1.0" encoding="UTF-8"?> <svg xmlns="http://www.w3.org/2000/svg" id="Layer_1" data-name="Layer 1" width="20" height="20" viewBox="0 0 20 20"><defs><style>.cls-1{fill:#6b11c9;fill-rule:evenodd;}</style></defs><title>Artboard 1 copy 46</title><path class="cls-1" d="M12.4171.3157a9.9979,9.9979,0,0,0-4.836,19.4022L7.58,19.7171A9.9976,9.9976,0,1,0,12.4171.3157ZM6.9323,15.5411c-.6239.0508-1.2536.0291-1.8806.0426a.7515.7515,0,0,1-.2555-.032V12.9589a.7087.7087,0,0,1,.2525-.0355c.52.0085,1.04.0085,1.56-.0041A1.96,1.96,0,0,0,8.58,11.038c.0348-.6706.0341-1.3458.002-2.0167A2.0189,2.0189,0,0,0,6.6187,7.104q-.78-.02-1.56-.0037a.6853.6853,0,0,1-.2625-.0391V4.5106a.1656.1656,0,0,1,.0856-.0379,6.6465,6.6465,0,0,1,4.07.6446A4.5569,4.5569,0,0,1,11.21,9.0383c.0089.3225.0013.6454.0013.9682a5.4746,5.4746,0,0,1-.532,3.0831A4.5342,4.5342,0,0,1,6.9323,15.5411Zm8.2189-.1552a.0905.0905,0,0,1-.09.0905H12.7325a2.2444,2.2444,0,0,1-.8429-.1283,7.5657,7.5657,0,0,1-1.42-.8268.09.09,0,0,1-.0057-.1433,4.6384,4.6384,0,0,0,.7592-.9421,2.5838,2.5838,0,0,0,.392-1.0533.09.09,0,0,1,.1337-.0665l.4641.2595a2.2718,2.2718,0,0,0,1.076.2891l1.7734.0267a.0905.0905,0,0,1,.0891.09ZM15.2038,6.92a.0813.0813,0,0,1-.08.0813l-1.6883.0254a2.6464,2.6464,0,0,0-1.2523.3364l-.3937.22a.0813.0813,0,0,1-.12-.06L11.654,7.413a2.1485,2.1485,0,0,0-.3131-.8539,4.9242,4.9242,0,0,0-.8338-1.0518.08.08,0,0,1,.0045-.1283,7.6467,7.6467,0,0,1,1.4307-.8341,2.2434,2.2434,0,0,1,.8428-.1282h2.3375a.0812.0812,0,0,1,.0812.0812Z"></path></svg> 