<?xml version="1.0" encoding="UTF-8"?> <svg xmlns="http://www.w3.org/2000/svg" id="Layer_1" data-name="Layer 1" width="20" height="20" viewBox="0 0 20 20"><defs><style>.cls-1{fill:#6b11c9;fill-rule:evenodd;}</style></defs><title>Artboard 1 copy 50</title><path class="cls-1" d="M12.4171.3156a9.998,9.998,0,0,0-4.836,19.4023L7.58,19.7171A9.9977,9.9977,0,1,0,12.4171.3156Zm.4105,5.4958a1.9946,1.9946,0,1,1-1.9945,1.9945A1.9946,1.9946,0,0,1,12.8276,5.8114Zm-5.05-1.1968a.9973.9973,0,1,1-.9973.9973A.9974.9974,0,0,1,7.7773,4.6146ZM9.1736,15.3854,10.5023,13.79H2.7909L7.7773,7.8059l3.8553,4.6264,1.195-1.435,3.6581,4.3881Z"></path></svg> 