<?xml version="1.0" encoding="UTF-8"?> <svg xmlns="http://www.w3.org/2000/svg" id="Layer_1" data-name="Layer 1" width="20" height="20" viewBox="0 0 20 20"><defs><style>.cls-1{fill:#6b11c9;fill-rule:evenodd;}</style></defs><title>Artboard 1 copy 53</title><path class="cls-1" d="M10.9672,6.9252H9.3894l.0292,6.1311H10.648c.6146,0,1.18-.8149,1.18-.8149a4.8234,4.8234,0,0,0,.3815-3.7167C11.6982,7.078,10.9672,6.9252,10.9672,6.9252Z"></path><path class="cls-1" d="M12.4171.3156a9.998,9.998,0,0,0-4.836,19.4023L7.58,19.7171A9.9977,9.9977,0,1,0,12.4171.3156ZM14.9157,14.1a4.7372,4.7372,0,0,1-3.1269,1.7441H4.5873V13.0866H6.091V6.9184H4.616L4.5874,4.1561h7.4064A5.2863,5.2863,0,0,1,15.64,7.37h0A7.4533,7.4533,0,0,1,14.9157,14.1Z"></path></svg> 