<?xml version="1.0" encoding="UTF-8"?> <svg xmlns="http://www.w3.org/2000/svg" id="Layer_1" data-name="Layer 1" width="20" height="20" viewBox="0 0 20 20"><defs><style>.cls-1{fill:#6b11c9;fill-rule:evenodd;}</style></defs><title>Artboard 1 copy 139</title><path class="cls-1" d="M12.4172.3157a9.9979,9.9979,0,0,0-4.836,19.4022L7.58,19.7171A9.9976,9.9976,0,1,0,12.4172.3157Zm2.5759,3.727a.9736.9736,0,1,1-.9639.9737A.9689.9689,0,0,1,14.9931,4.0427ZM13.7015,5.9513a.2769.2769,0,0,1,.3566,0,.2128.2128,0,0,1,0,.3278.3.3,0,0,1-.1735.0675.1945.1945,0,0,1-.1831-.0675.2126.2126,0,0,1,0-.3278ZM10,3.8307a5.7365,5.7365,0,0,1,3.5666,1.2435l-1.3881,1.388a3.9973,3.9973,0,0,0-4.357,0L6.443,5.0742A5.6509,5.6509,0,0,1,10,3.8307Zm3.4124,3.1135a.2318.2318,0,0,1-.3278-.3278.2391.2391,0,0,1,.3278,0,.233.233,0,0,1,0,.3278ZM13.48,13.21a.23.23,0,0,1-.2313.2314.23.23,0,0,1-.2313-.2314.2114.2114,0,0,1,.0674-.1638.2389.2389,0,0,1,.3278,0A.2513.2513,0,0,1,13.48,13.21ZM12.7375,7.58a.2115.2115,0,0,1-.1639.0675.23.23,0,0,1-.2313-.2313.2514.2514,0,0,1,.0675-.1639.2387.2387,0,0,1,.3277,0,.2327.2327,0,0,1,.0675.1639A.2518.2518,0,0,1,12.7375,7.58Zm.0578,4.9836a.1986.1986,0,0,1-.0674.1638.2327.2327,0,0,1-.3278,0,.232.232,0,0,1-.0674-.1638A.2513.2513,0,0,1,12.4,12.4a.2389.2389,0,0,1,.3278,0A.2518.2518,0,0,1,12.7953,12.564Zm-.6747-4.3377a.2475.2475,0,0,1-.1735.0675.2309.2309,0,0,1-.1831-.0675.2057.2057,0,0,1-.0772-.1639.22.22,0,0,1,.0772-.1639.2769.2769,0,0,1,.3566,0,.2128.2128,0,0,1,0,.3278Zm.0675,3.6918a.2323.2323,0,0,1-.0675.1639.2514.2514,0,0,1-.1639.0675.2116.2116,0,0,1-.1639-.0675.2518.2518,0,0,1-.0674-.1639.2324.2324,0,0,1,.0674-.1638.2389.2389,0,0,1,.3278,0A.2321.2321,0,0,1,12.1881,11.9181Zm-.7133-3.046a.1988.1988,0,0,1-.1639.0675.1632.1632,0,0,1-.1639-.0675.1985.1985,0,0,1-.0675-.1639.2509.2509,0,0,1,.0675-.1638.2389.2389,0,0,1,.3278,0,.1986.1986,0,0,1,.0674.1638A.2327.2327,0,0,1,11.4748,8.8721Zm.0674,2.3905a.2327.2327,0,0,1-.0674.1639.2042.2042,0,0,1-.1639.0675.2115.2115,0,0,1-.1639-.0675.2326.2326,0,0,1,0-.3277.2389.2389,0,0,1,.3278,0A.2517.2517,0,0,1,11.5422,11.2626Zm-1.06-.81a.2513.2513,0,0,1,.3374,0,.221.221,0,0,1,.0771.1639.206.206,0,0,1-.0771.1639.1774.1774,0,0,1-.1639.0674.2474.2474,0,0,1-.1735-.0674.2128.2128,0,0,1,0-.3278Zm-.0771-1.0988a.2514.2514,0,0,1,.0675-.1639.2387.2387,0,0,1,.3277,0,.2115.2115,0,0,1,.0675.1639.2516.2516,0,0,1-.0675.1638.2323.2323,0,0,1-.1639.0675.2509.2509,0,0,1-.1638-.0675A.198.198,0,0,1,10.4048,9.3541Zm-.1639.6554a.2111.2111,0,0,1-.0675.1639.2326.2326,0,0,1-.3277,0,.2514.2514,0,0,1-.0675-.1639.2117.2117,0,0,1,.0675-.1639.2389.2389,0,0,1,.3277,0A.2518.2518,0,0,1,10.2409,10.01Zm-.7133-.4916a.2514.2514,0,0,1-.1639.0675A.2321.2321,0,0,1,9.2,9.5179a.2511.2511,0,0,1-.0675-.1638A.2111.2111,0,0,1,9.2,9.19a.2387.2387,0,0,1,.3277,0,.2519.2519,0,0,1,.0675.1639A.1983.1983,0,0,1,9.5276,9.5179Zm.0675,1.0989a.2519.2519,0,0,1-.0675.1639.1985.1985,0,0,1-.1639.0674A.17.17,0,0,1,9.2,10.7807a.2325.2325,0,0,1-.0675-.1639A.2518.2518,0,0,1,9.2,10.4529a.2389.2389,0,0,1,.3277,0A.2117.2117,0,0,1,9.5951,10.6168Zm-1.06.482a.2768.2768,0,0,1,.3567,0,.2127.2127,0,0,1,0,.3277.2475.2475,0,0,1-.1735.0675.21.21,0,0,1-.1832-.0675.2058.2058,0,0,1-.0771-.1639A.2206.2206,0,0,1,8.5347,11.0988ZM8.4576,8.7082a.2056.2056,0,0,1,.0771-.1638.2511.2511,0,0,1,.3374,0,.22.22,0,0,1,.0772.1638.2059.2059,0,0,1-.0772.1639.1632.1632,0,0,1-.1639.0675.2475.2475,0,0,1-.1735-.0675A.2058.2058,0,0,1,8.4576,8.7082Zm-.2217-.4819a.1934.1934,0,0,1-.1638.0675.2115.2115,0,0,1-.1639-.0675.2327.2327,0,0,1,0-.3278.2389.2389,0,0,1,.3277,0,.2514.2514,0,0,1,.0675.1639A.2325.2325,0,0,1,8.2359,8.2263Zm.0675,3.6918a.2514.2514,0,0,1-.0675.1639.2114.2114,0,0,1-.1638.0675.2732.2732,0,0,1-.1639-.0675.2326.2326,0,0,1,0-.3277.2387.2387,0,0,1,.3277,0A.2321.2321,0,0,1,8.3034,11.9181ZM7.59,7.58a.2736.2736,0,0,1-.1639.0675A.2115.2115,0,0,1,7.2623,7.58a.2517.2517,0,0,1-.0674-.1638.2327.2327,0,0,1,.0674-.1639.2389.2389,0,0,1,.3278,0,.2518.2518,0,0,1,.0674.1639A.2326.2326,0,0,1,7.59,7.58Zm.0674,4.9836a.2324.2324,0,0,1-.0674.1638.2327.2327,0,0,1-.3278,0,.1983.1983,0,0,1-.0674-.1638A.2518.2518,0,0,1,7.2623,12.4a.2389.2389,0,0,1,.3278,0A.2518.2518,0,0,1,7.6575,12.564Zm-.7229-5.62a.381.381,0,0,1-.1832.0675.3.3,0,0,1-.1735-.0675.2128.2128,0,0,1,0-.3278.277.277,0,0,1,.3567,0,.2128.2128,0,0,1,0,.3278ZM7.0117,13.21a.206.206,0,0,1-.0771.1639.3008.3008,0,0,1-.1735.0675.1987.1987,0,0,1-.1639-.0675A.206.206,0,0,1,6.52,13.21a.22.22,0,0,1,.0771-.1638.2511.2511,0,0,1,.3374,0A.22.22,0,0,1,7.0117,13.21Zm-.723-7.2585a.2327.2327,0,0,1,0,.3278.1564.1564,0,0,1-.1638.0675.2323.2323,0,0,1-.1639-.0675.2519.2519,0,0,1-.0675-.1639.2116.2116,0,0,1,.0675-.1639A.2389.2389,0,0,1,6.2887,5.9513ZM5.026,4.0427a.964.964,0,1,1-.9736.964A.975.975,0,0,1,5.026,4.0427Zm.0289,2.42L6.4333,7.8407A3.77,3.77,0,0,0,5.7779,10a3.8366,3.8366,0,0,0,.6554,2.1592L5.0646,13.5665A5.7473,5.7473,0,0,1,3.84,10.01,5.69,5.69,0,0,1,5.0549,6.4622Zm-.01,9.4563a.9736.9736,0,1,1,.9639-.9736A.9689.9689,0,0,1,5.0453,15.9185ZM6.2887,14.02a.2321.2321,0,0,1-.1638.0675A.2164.2164,0,0,1,5.961,14.02a.2113.2113,0,0,1-.0675-.1639.2518.2518,0,0,1,.0675-.1638.2387.2387,0,0,1,.3277,0,.211.211,0,0,1,.0675.1638A.2511.2511,0,0,1,6.2887,14.02Zm3.7209,2.15a5.5924,5.5924,0,0,1-3.5763-1.2434l1.3881-1.3785a3.6964,3.6964,0,0,0,2.1882.6747,3.8728,3.8728,0,0,0,2.1592-.6844l1.3784,1.3882A5.7716,5.7716,0,0,1,10.01,16.1691Zm3.7111-2.15a.2127.2127,0,0,1,0-.3277.2511.2511,0,0,1,.3374,0,.2127.2127,0,0,1,0,.3277.2164.2164,0,0,1-.1639.0675A.3.3,0,0,1,13.7207,14.02Zm1.2532,1.899a.9736.9736,0,1,1,.9735-.9736A.9771.9771,0,0,1,14.9739,15.9185Zm-.0579-2.4L13.5279,12.14a3.8737,3.8737,0,0,0,.6555-2.1206,3.7683,3.7683,0,0,0-.6555-2.1978L14.916,6.4141A5.5925,5.5925,0,0,1,16.16,9.99,5.6491,5.6491,0,0,1,14.916,13.5183Z"></path></svg> 