<?xml version="1.0" encoding="UTF-8"?> <svg xmlns="http://www.w3.org/2000/svg" id="Layer_1" data-name="Layer 1" width="20" height="20" viewBox="0 0 20 20"><defs><style>.cls-1{fill:#6b11c9;fill-rule:evenodd;}</style></defs><title>Artboard 1 copy 55</title><path class="cls-1" d="M12.4171.3156a9.998,9.998,0,0,0-4.836,19.4023L7.58,19.7171A9.9977,9.9977,0,1,0,12.4171.3156Zm3.0879,13.57a1.0662,1.0662,0,0,1-.4769.6573,1.1449,1.1449,0,0,1-.2191.1032A4.9343,4.9343,0,0,1,13.43,14.84c-.915,0-1.843.0128-2.771.0128s-1.843-.0128-2.7581-.0257a8.6626,8.6626,0,0,1-1.727-.2063,2.6888,2.6888,0,0,1-2.3586-2.4358,5.8565,5.8565,0,0,1-.0773-.6445c-.0129-.09-.0258-.18-.0387-.2835V8.8078l.0258-.232c.0129-.1675.0387-.3222.0516-.4768A2.8165,2.8165,0,0,1,6.264,5.3537a10.1144,10.1144,0,0,1,1.2115-.1675l.3867-.0387h5.774a2.105,2.105,0,0,0,.2835.0258,6.3941,6.3941,0,0,1,.67.09.9832.9832,0,0,1,.8893,1.3017.7517.7517,0,0,1-.6444.6445,2.8668,2.8668,0,0,1-.4769.0386c-1.9977.0129-4.0083.0258-6.006.0258a4.8946,4.8946,0,0,0-.8635.0773c-.8893.1418-1.1857.464-1.263,1.3662,0,.0773-.0129.1547-.0129.2191h8.4419a1.0136,1.0136,0,0,1,.4768.1289.9592.9592,0,0,1,.3738,1.0182c0,.0386-.0129.09-.0129.1289a.7169.7169,0,0,1-.6444.683,2.1483,2.1483,0,0,1-.4.0258H6.2125v.0515a3.9752,3.9752,0,0,0,.1031.7862.998.998,0,0,0,.76.7605,6,6,0,0,0,1.611.18c1.5208.0129,3.0675.0129,4.5754.0129h1.2888a.8854.8854,0,0,1,.8249.3738A1.0318,1.0318,0,0,1,15.505,13.8858Z"></path></svg> 