<?xml version="1.0" encoding="UTF-8"?> <svg xmlns="http://www.w3.org/2000/svg" id="Layer_1" data-name="Layer 1" width="20" height="20" viewBox="0 0 20 20"><defs><style>.cls-1{fill:#6b11c9;fill-rule:evenodd;}</style></defs><title>Artboard 1 copy 58</title><path class="cls-1" d="M12.4171.3156a9.998,9.998,0,0,0-4.836,19.4023L7.58,19.7171A9.9977,9.9977,0,1,0,12.4171.3156ZM10.0159,16.253c-1.295-1.9013-2.7251-3.9992-3.8765-5.6953,1.3605.7225,2.78,1.4787,3.8765,2.0639l3.8447-2.0639C12.4685,12.6258,11.3085,14.3475,10.0159,16.253ZM6.2873,9.9872,10.02,7.9954l3.6842,1.9773L13.7,9.975l.0043,0h0l-3.6824,1.9942L6.2873,9.9873h0Zm3.7286-2.63v0L6.1394,9.3979l3.86-5.6509,3.8617,5.6635Z"></path></svg> 