<?xml version="1.0" encoding="UTF-8"?> <svg xmlns="http://www.w3.org/2000/svg" id="Layer_1" data-name="Layer 1" width="20" height="20" viewBox="0 0 20 20"><defs><style>.cls-1{fill:#6b11c9;fill-rule:evenodd;}</style></defs><title>Artboard 1 copy 62</title><path class="cls-1" d="M11.054,13.1735a.3525.3525,0,0,1-.2925.387h-.0408l-.01.0019a.0847.0847,0,0,0-.0189-.0011.558.558,0,0,1-.3089-.0456.3519.3519,0,0,1-.2275-.2969.55.55,0,0,0-.0006-.0726l0-.0012v-.1086c.3186-.0423.5653-.2757.5653-.4566,0-.1828-.2992-.266-.6649-.266s-.665.0665-.665.266c0,.1871.2641.43.5984.46v.1056l0,.0012a.531.531,0,0,0-.0006.0724.3628.3628,0,0,1-.24.3031.403.403,0,0,1-.2646.0483.0826.0826,0,0,0-.06-.0261H9.3835a.37.37,0,0,1-.2921-.393.0832.0832,0,0,0-.0769-.089.0822.0822,0,0,0-.0888.077.5337.5337,0,0,0,.4312.5695l.0174.0018h.0012a.0805.0805,0,0,0,.0257.0133.53.53,0,0,0,.1454.02.5438.5438,0,0,0,.2717-.0717.5107.5107,0,0,0,.2539-.2028.5025.5025,0,0,0,.25.2012.7256.7256,0,0,0,.3937.0556h0l.0044.0009h.05l.0174-.0017a.5225.5225,0,0,0,.4306-.5752.0831.0831,0,1,0-.1646.0237ZM10.0392,12.63c-.15,0-.2826-.0665-.2826-.1s.133-.0333.2826-.0333.2826-.0333.2826.0166S10.1888,12.63,10.0392,12.63Z"></path><path class="cls-1" d="M12.7322,11.7653a1.319,1.319,0,0,0-.3657-.1.62.62,0,0,0-.13-.0152.8781.8781,0,0,0,.0141-.151.6568.6568,0,0,0-.3824-.6483l-.5319.3989a1.2864,1.2864,0,0,0-.0332.2494c0,.3491.2327.6483.4821.6483a.36.36,0,0,0,.2055-.0705,3.5363,3.5363,0,0,1,.3929.403,1.0937,1.0937,0,0,1,.1995.2826,1.7666,1.7666,0,0,1,.1163.3158,2.4689,2.4689,0,0,1,.0333.3491,2.5774,2.5774,0,0,1-.0166.3657,2.5234,2.5234,0,0,1-.05.3491c-.0166.05-.0332.1164-.05.1662s-.05.1164-.0665.1662a.7755.7755,0,0,0,.0832-.1662.6934.6934,0,0,0,.0664-.1662,2.6413,2.6413,0,0,0,.0831-.3491c.0166-.1164.0333-.2494.05-.3657a1.4736,1.4736,0,0,0,0-.3823,1.5,1.5,0,0,0-.1-.3657,2.1285,2.1285,0,0,0-.1829-.3325,2.9781,2.9781,0,0,0-.3458-.4525c.0434-.0045.0908-.013.13-.013a2.4579,2.4579,0,0,1,.349.0166.76.76,0,0,1,.3159.133.89.89,0,0,1,.2493.2494,1.1728,1.1728,0,0,0-.2-.2992A1.3282,1.3282,0,0,0,12.7322,11.7653Zm-1.0972-.1164c-.0831,0-.1662-.1-.1662-.2327s.0831-.2327.1662-.2327.1663.1.1663.2327S11.7181,11.6489,11.635,11.6489Z"></path><path class="cls-1" d="M8.2605,10.851a.6569.6569,0,0,0-.3823.6483.828.828,0,0,0,.0156.1532.5054.5054,0,0,0-.0821.013,1.0913,1.0913,0,0,0-.3491.133l-.15.1a.45.45,0,0,0-.133.1164.9062.9062,0,0,0-.1829.2992.848.848,0,0,1,.3658-.3158l.15-.05a1.0241,1.0241,0,0,1,.3158-.0332.7124.7124,0,0,1,.0933.0057,4.0046,4.0046,0,0,0-.3593.46,3.3567,3.3567,0,0,0-.1662.3491,1.4256,1.4256,0,0,0-.0831.3823v.3658c.0166.1163.0333.2493.05.3657.0332.133.0664.2493.1.3657.0166.05.05.1163.0665.1662.0332.05.05.1164.0831.1663a.692.692,0,0,1-.0665-.1663c-.0166-.0665-.0166-.1163-.0332-.1828-.0166-.1164-.0333-.2494-.05-.3658v-.5319a.5671.5671,0,0,1,.0166-.1663,1.1072,1.1072,0,0,1,.1-.3324,1.3058,1.3058,0,0,1,.1829-.2992,3.532,3.532,0,0,1,.4-.4094.3736.3736,0,0,0,.1984.06c.266,0,.4822-.2826.4822-.6483a.6668.6668,0,0,0-.05-.2494Zm.2327.7979c-.0831,0-.1662-.1-.1662-.2327s.0831-.2327.1662-.2327.1663.1.1663.2327S8.5764,11.6489,8.4932,11.6489Z"></path><path class="cls-1" d="M12.4171.3157a9.9979,9.9979,0,0,0-4.836,19.4022L7.58,19.7171A9.9976,9.9976,0,1,0,12.4171.3157Zm-.7029,6.886a2.631,2.631,0,0,1,.6767.5.0833.0833,0,0,0,.0245.0169,1.5945,1.5945,0,0,0,.4907,1.4625,1.4617,1.4617,0,0,0,.1256.1121,3.3665,3.3665,0,0,0-.752-.22c-.594-.0939-1.0118-.1582-1.35-.2072l-.2-1.9653A2.6513,2.6513,0,0,1,11.7142,7.2017Zm2.3221,2.7566a.0832.0832,0,0,0,.036.0114l.0313.0185a.96.96,0,0,1,.1053.0668l-.0055.0791a3.2878,3.2878,0,0,0-.0116.451l-.2116.106-.1687.07A8.8846,8.8846,0,0,0,12.23,10.32a13.4045,13.4045,0,0,0-2.1744-.1839A11.8122,11.8122,0,0,0,7.88,10.32a8.86,8.86,0,0,0-1.5766.44.8145.8145,0,0,0-.1684-.0677l-.2316-.1089c.0067-.1272.0037-.2275.0006-.333-.0015-.0525-.0031-.1074-.0037-.1692.0482-.03.1119-.0686.1755-.1068l.016-.0125.01-.01A5.9248,5.9248,0,0,1,7.825,9.2208c.5867-.0952,1.03-.1637,1.3895-.2153.2128-.0163.4478-.0163.675-.0163.3557,0,.6628,0,.9685.0157l.1193.0179c.3186.0476.7342.11,1.2943.1983A5.8134,5.8134,0,0,1,14.0363,9.9583Zm-.3987-.3849.0794.0133c.0577.0088.1044.0177.1444.0253a.9942.9942,0,0,0,.1651.0225l-.025.1374C13.902,9.7148,13.7776,9.6457,13.6376,9.5734Zm-7.5772.05.08-.0123c.0533-.0082.1066-.0164.1559-.0246l.1024-.0171q.047-.0094.0934-.0226c-.1587.0809-.3.159-.4106.2227ZM9.5518,6.4307a1.0154,1.0154,0,0,1,.4708-.1179h.0332a.97.97,0,0,1,.4709.1178l.0444.3809.1909,2.04A8.7749,8.7749,0,0,0,9.873,8.84c-.12,0-.2391.0043-.3565.0086-.0731.0026-.1455.0052-.2163.0067L9.5067,6.821ZM7.6234,7.6991a2.3032,2.3032,0,0,1,.6784-.5,2.4057,2.4057,0,0,1,1.03-.3l-.2,1.9642L9.08,8.8719c-.3214.0482-.7419.1112-1.2972.2013a3.6722,3.6722,0,0,0-.8849.2806,1.4747,1.4747,0,0,0,.2077-.1729,1.58,1.58,0,0,0,.49-1.4623A.0855.0855,0,0,0,7.6234,7.6991ZM4.489,8.2606a2.9745,2.9745,0,0,1,.606-4.0043.1016.1016,0,0,1,.1374.008c.0328.0494.0261.07.0212.0858A2.6083,2.6083,0,0,0,5.55,6.4944,3.1568,3.1568,0,0,0,7.4246,7.7062a1.383,1.383,0,0,1-.45,1.338l-.0026.0025a1.24,1.24,0,0,1-.62.3426l-.1123.02a.8883.8883,0,0,1-.29.0456H5.8965c-.0227-.0072-.048-.0144-.0733-.0217l-.0716-.0207a1.88,1.88,0,0,1-.48-.3041A3.85,3.85,0,0,1,4.489,8.2606Zm10.1884,4.7439v.0005c-.1328,1.5773-2.1555,2.7665-4.7026,2.7665-2.5833-.0654-4.3945-1.1368-4.5073-2.6666a3.6413,3.6413,0,0,1,.0147-.5765l.0014-.0205a4.4754,4.4754,0,0,1,.5679-1.6353l.1324.0551a.0846.0846,0,0,0,.062.0008,8.701,8.701,0,0,1,1.5809-.4446A12.2932,12.2932,0,0,1,9.5483,10.3c.1362.0046.2725.0093.4078.0187.1633-.0113.3276-.0183.4923-.0225a11.58,11.58,0,0,1,1.67.1874,8.71,8.71,0,0,1,1.5807.4446.0841.0841,0,0,0,.06,0l.2235-.0863.0632-.0317a5.2418,5.2418,0,0,1,.6,1.64A1.6318,1.6318,0,0,1,14.6774,13.0045Zm.83-4.7453a4.3536,4.3536,0,0,1-.8021.8508,1.8733,1.8733,0,0,1-.4743.3007l-.1251.0471a.4116.4116,0,0,1-.2133-.0091c-.0415-.0079-.09-.0171-.1491-.0262l-.0971-.0161a1.242,1.242,0,0,1-.6225-.3431,1.4166,1.4166,0,0,1-.438-1.3552,3.079,3.079,0,0,0,1.8778-1.2158,2.6525,2.6525,0,0,0,.279-2.1382.1033.1033,0,0,1,.0773-.1235.0822.0822,0,0,1,.0718.02A2.9626,2.9626,0,0,1,15.5071,8.2592Z"></path></svg> 