<?xml version="1.0" encoding="UTF-8"?> <svg xmlns="http://www.w3.org/2000/svg" id="Layer_1" data-name="Layer 1" width="20" height="20" viewBox="0 0 20 20"><defs><style>.cls-1{fill:#6b11c9;fill-rule:evenodd;}.cls-2{fill:#fff;}</style></defs><title>Artboard 1 copy 141</title><path class="cls-1" d="M12.4171.3157a9.9979,9.9979,0,0,0-4.836,19.4022L7.58,19.7171A9.9976,9.9976,0,1,0,12.4171.3157Z"></path><path class="cls-2" d="M10.7973,8.676c-.6886-.003-1.3772-.0007-2.0658-.0008-.7067,0-1.4134.0025-2.12-.0023-.1336-.0009-.1942.0267-.1938.1789.0047,1.9389.0008,3.8779.0053,5.8168A1.0681,1.0681,0,0,0,7.4954,15.72a1.102,1.102,0,0,0,1.0781-1.1311c.0025-1.1719.0054-2.3437-.0038-3.5155-.0015-.19.0621-.2365.2373-.2345.6281.0072,1.2563.0044,1.8845.0012a1.56,1.56,0,0,0,.3772-.0331,1.0862,1.0862,0,0,0-.2714-2.1307Zm-.0333,1.7722c-.7.0054-1.4008.0011-2.1013.0022a.4366.4366,0,0,0-.4958.5021q-.0016,1.8387-.0013,3.6773a.6736.6736,0,0,1-.5095.6655.6565.6565,0,0,1-.7518-.333,1.038,1.038,0,0,1-.0947-.4344c-.0085-.8634-.0042-1.7269-.0042-2.59,0-.8756.0033-1.7511-.0029-2.6266-.0012-.1675.0423-.2323.223-.2312,1.2438.0071,2.4877.0031,3.7315.0042a.6722.6722,0,0,1,.7072.6648A.6869.6869,0,0,1,10.764,10.4482Z"></path><path class="cls-2" d="M15.0967,5.0241a1.0743,1.0743,0,0,0-1.0522-.7389c-1.22-.0033-2.4409-.0011-3.6614-.0012-1.2506,0-2.5013.0028-3.7519-.0037-.1689-.0009-.2159.0518-.2134.2164q.013.87,0,1.74c-.0023.1589.0445.2065.2049.2055,1.0814-.0065,2.1629-.0034,3.2444-.0034,1.3836,0,2.7672.0027,4.1507-.0012A1.0839,1.0839,0,0,0,15.0967,5.0241Zm-.43.6666a.6382.6382,0,0,1-.5975.3392q-1.7583-.0021-3.5167-.0006c-1.1722,0-2.3445-.0037-3.5167.0042-.1821.0012-.245-.0475-.2367-.233.0139-.3076.0091-.6163.0015-.9243-.0035-.1437.0379-.2057.1928-.2055,2.3384.0034,4.6769-.0011,7.0153.005A.68.68,0,0,1,14.6667,5.6907Z"></path></svg> 