<?xml version="1.0" encoding="UTF-8"?> <svg xmlns="http://www.w3.org/2000/svg" id="Layer_1" data-name="Layer 1" width="20" height="20" viewBox="0 0 20 20"><defs><style>.cls-1{fill:#6b11c9;fill-rule:evenodd;}</style></defs><title>Artboard 1 copy 63</title><path class="cls-1" d="M10.9374,6.2394c-.3761-.2031-.7429-.4232-1.1133-.6368-.1538-.0888-.3216-.1868-.447.0163-.1417.2294.0755.2963.2156.3793.3783.2244.7609.4417,1.1423.6607.0986.0567.2085.1224.2023.242a.3325.3325,0,0,1-.2357.2588.9838.9838,0,0,1-.915-.0564c-.42-.2511-.8526-.4807-1.2756-.7267-.1733-.1009-.3512-.1792-.4683.0417-.1088.2053.0869.2639.2223.34.4364.2462.8788.483,1.3049.746a1.44,1.44,0,0,0,.7813.2009.8967.8967,0,0,0,.4892-.1036.7846.7846,0,0,0,.5569-.6735A.7465.7465,0,0,0,10.9374,6.2394Z"></path><path class="cls-1" d="M8.2444,10.96c-.6093-.3377-1.2121-.6872-1.8217-1.0244-.2621-.1449-.4329-.0566-.4357.2423-.0089.9388-.0014,1.8778.0039,2.8167.001.1647.0635.2838.2622.278.1924-.0057.2578-.1091.256-.2853-.0028-.2687-.0008-.5374-.0008-.8657.4052.22.7707.4074,1.1231.6164.1755.1041.32.1392.4368-.0559.1275-.2129-.0271-.31-.1843-.3972-.3949-.2191-.7915-.4353-1.1853-.6564-.08-.0449-.1913-.0616-.1892-.1956.0041-.2735.0012-.5473.0012-.8548.5271.2961.9963.5547,1.46.823.1637.0948.3319.168.4444-.03C8.5146,11.1948,8.4194,11.0566,8.2444,10.96Z"></path><path class="cls-1" d="M13.6564,9.9421c-.2234.0092-.2286.2165-.2279.3962.0015.4222.0005.8443.0005,1.3655-.33-.3776-.5866-.6684-.84-.9622-.0852-.0989-.1726-.18-.3154-.1249-.13.05-.127.1609-.1266.2753.002.7038.0056,1.4077-.0022,2.1115-.0019.1812.05.2892.2418.2854.2129-.0041.207-.1529.2053-.31-.0054-.4783-.002-.9568-.002-1.5368.3038.36.5364.6429.7771.9184.096.11.2014.2241.3757.1706.1881-.0578.1745-.217.1744-.3633,0-.6174-.0043-1.2348-.0064-1.8522C13.91,10.1309,13.8781,9.9329,13.6564,9.9421Z"></path><path class="cls-1" d="M12.4171.3157a9.9979,9.9979,0,0,0-4.836,19.4022L7.58,19.7171A9.9976,9.9976,0,1,0,12.4171.3157Zm3.1362,9.6649c0,.8655-.0065,1.7309.0028,2.5962a.9558.9558,0,0,1-.5382.9229c-1.5268.8636-3.044,1.7443-4.5616,2.6241a.86.86,0,0,1-.9025.0182q-2.3169-1.3174-4.621-2.6572A.9715.9715,0,0,1,4.4284,12.6q.0011-2.6332,0-5.2667a.85.85,0,0,1,.4562-.7846C6.4566,5.64,8.0276,4.7305,9.6083,3.8377a.8571.8571,0,0,1,.8777.05c1.4229.8229,2.837,1.6624,4.2794,2.45a1.42,1.42,0,0,1,.8,1.4184C15.5673,8.496,15.5533,9.2389,15.5533,9.9806Z"></path></svg> 