<?xml version="1.0" encoding="UTF-8"?> <svg xmlns="http://www.w3.org/2000/svg" id="Layer_1" data-name="Layer 1" width="20" height="20" viewBox="0 0 20 20"><defs><style>.cls-1{fill:#6b11c9;fill-rule:evenodd;}</style></defs><title>Artboard 1 copy 66</title><path class="cls-1" d="M5.9186,10.2761c.8917.0164,1.4379-.4462,1.4452-1.2237A1.212,1.212,0,0,0,6.0121,7.79,1.3192,1.3192,0,0,0,4.5357,9.0214,1.26,1.26,0,0,0,5.9186,10.2761Z"></path><path class="cls-1" d="M12.4171.3157a9.9979,9.9979,0,0,0-4.836,19.4022L7.58,19.7171A9.9976,9.9976,0,1,0,12.4171.3157ZM5.0978,11.535c.5695.0764,1.1454.1158,1.72.14a2.9215,2.9215,0,0,1,.7378.1184c.3722.1136.7093.2691.7638.7263a1.0347,1.0347,0,0,1-.4919,1.1094,3.9537,3.9537,0,0,1-2.5064.3955,2.8413,2.8413,0,0,1-1.0833-.2907.9889.9889,0,0,1-.6035-.9391.95.95,0,0,1,.0514-.3734l.6841.0207a2.8091,2.8091,0,0,1-.0207.3071c-.02.3062.25.474.4956.5372a4.4955,4.4955,0,0,0,2.2921-.0041c.2587-.0682.5222-.2331.4744-.564-.0443-.3061-.33-.3567-.5772-.38-.5541-.0533-1.1113-.0733-1.6661-.12a3.6131,3.6131,0,0,1-.8484-.1245A.8237.8237,0,0,1,4.116,10.72a.4269.4269,0,0,0,.003-.624,1.7218,1.7218,0,0,1-.1318-1.8842A1.8709,1.8709,0,0,1,5.61,7.13a2.25,2.25,0,0,1,1.9526.6253,1.2711,1.2711,0,0,0,.184-.5168H8.34l-.1005.84c-.0509.3217-.0748.6522-.1342.9727a2.1272,2.1272,0,0,1-2.8772,1.82c-.2191-.0547-.4279-.1549-.5228.15C4.5981,11.3661,4.8482,11.5016,5.0978,11.535Zm11.06.3165H15.41c-.02-.0493-.0034-2.0424-.03-2.9772-.0206-.7108-.2785-1.0074-.8514-1.0689a1.1554,1.1554,0,0,0-1.2553.94,6.1789,6.1789,0,0,0-.0876.838v2.2691h-.6624v-.0014h-.08V9.2607S12.4855,8.254,12.14,8.04a.9447.9447,0,0,0-.5234-.2307,1.1736,1.1736,0,0,0-1.171.6088,1.8424,1.8424,0,0,0-.23.7529v2.6805h-.711c-.0332-.0861-.0315-2.8749-.0135-4.1522a.4756.4756,0,0,0-.0037-.058l-.0018-.3836.0128-.0188h.6907l.0089.01-.0133.5426a1.9343,1.9343,0,0,1,1.59-.6817,1.2319,1.2319,0,0,1,1.066.5116c.1908.2917.272.1967.4765-.005A1.9654,1.9654,0,0,1,15.258,7.2a1.4321,1.4321,0,0,1,.907,1.3948C16.2075,9.6182,16.1758,11.8065,16.1582,11.8515Z"></path></svg> 