<?xml version="1.0" encoding="UTF-8"?> <svg xmlns="http://www.w3.org/2000/svg" id="Layer_1" data-name="Layer 1" width="20" height="20" viewBox="0 0 20 20"><defs><style>.cls-1{fill:#6b11c9;fill-rule:evenodd;}</style></defs><title>Artboard 1 copy 143</title><path class="cls-1" d="M12.4171.3157a9.9979,9.9979,0,0,0-4.836,19.4022L7.58,19.7171A9.9976,9.9976,0,1,0,12.4171.3157Zm3.5784,14.38c-.7115.004-1.4231,0-2.1345.0047a.2679.2679,0,0,1-.2528-.1372c-.6475-.9726-1.3011-1.9412-1.9507-2.9124Q10.882,10.4908,10.113,9.327c-.0685-.1038-.1037-.121-.18-.005-.2982.4542-.5986.9071-.9111,1.3515-.1157.1647-.22.336-.3344.5012-.0224.0323-.04.07-.0865.0727a5.5439,5.5439,0,0,1-.5844.9037c-.1261.17-.2184.36-.3416.531-.0564.0785-.1954.1513-.1335.2533.0456.0753.1837.0251.28.0267.2716.0044.5435-.0034.8151.0043a.2441.2441,0,0,0,.2411-.1277c.193-.3014.3966-.5961.596-.8934.1418-.2711.3306-.5121.4927-.77.0653-.1039.1-.0243.1351.0264q.3405.4919.68.9845.3228.4683.6448.937a.3793.3793,0,0,1,.0854.1532l0,.0016c-.0078.0416.0106.0625.0517.0658L12.5,14.6774c-.1165.0072-.2017.0172-.287.0172q-4.1592.003-8.3183.0033c-.052,0-.1231.0246-.15-.0307-.0216-.0445.0346-.0871.0614-.1273q.6492-.9723,1.3-1.9436.8487-1.2656,1.6993-2.53a.5223.5223,0,0,1,.0481-.0542c.2425-.4132.5218-.8025.7859-1.2015q.8582-1.2968,1.7246-2.588c.192-.2874.39-.5708.5792-.86.0629-.0959.0966-.1009.1619,0q.56.8689,1.1306,1.7311c.2686.4048.5576.7965.8179,1.2064.43.6776.9024,1.3269,1.3337,2.0041.4764.748.9866,1.4743,1.4806,2.2111q.6375.9507,1.2708,1.9043c.0506.0762.1491.1672.1155.24C16.2133,14.7479,16.0842,14.6947,15.9955,14.6952Z"></path><polygon class="cls-1" points="11.51 13.276 11.51 13.276 11.51 13.277 11.51 13.276"></polygon></svg> 