<?xml version="1.0" encoding="UTF-8"?> <svg xmlns="http://www.w3.org/2000/svg" id="Layer_1" data-name="Layer 1" width="20" height="20" viewBox="0 0 20 20"><defs><style>.cls-1{fill:#6b11c9;fill-rule:evenodd;}</style></defs><title>Artboard 1 copy 67</title><path class="cls-1" d="M12.4171.3157a9.9979,9.9979,0,0,0-4.836,19.4022L7.58,19.7171A9.9976,9.9976,0,1,0,12.4171.3157Zm3.2819,11.45-.4024,1.1871-1.9315.7545-.6036,1.5292-1.2173.5432-1.72-.7243-1.66.6639-1.0966-.5533-.7545-1.6-1.5593-.7445L4.18,11.2524l.654-1.72L4.3211,8.1741l.5332-1.2374,1.5492-.6036.8048-1.64,1.2173-.4728,1.8008.6841,1.509-.6439,1.338.5332.6035,1.7505,1.5694.6438L15.82,8.4658l-.6942,1.7706Z"></path></svg> 