<?xml version="1.0" encoding="UTF-8"?> <svg xmlns="http://www.w3.org/2000/svg" id="Layer_1" data-name="Layer 1" width="20" height="20" viewBox="0 0 20 20"><defs><style>.cls-1{fill:#6b11c9;fill-rule:evenodd;}</style></defs><title>Artboard 1 copy 144</title><path class="cls-1" d="M12.4171.3157a9.9979,9.9979,0,0,0-4.836,19.4022L7.58,19.7171A9.9976,9.9976,0,1,0,12.4171.3157ZM2.6886,9.1371A.2529.2529,0,0,1,2.9629,8.88c.3156-.0066.6313-.0019.947-.0019V8.8732c.2957,0,.5913-.002.887.0006.1848.0017.2976.0914.3117.239.0153.1589-.1039.28-.2987.2814q-.9246.007-1.8491.0017A.2521.2521,0,0,1,2.6886,9.1371ZM5.855,10.4213c-.3507.002-.7014.0006-1.0522.0006v.0007c-.3407,0-.6814.0013-1.0222,0-.18-.001-.289-.0993-.289-.2542A.2589.2589,0,0,1,3.77,9.9133Q4.815,9.907,5.86,9.9108a.2539.2539,0,0,1,.2771.2685C6.1331,10.3331,6.0352,10.42,5.855,10.4213Zm.4128.5125a1.0219,1.0219,0,0,1,.105.0045.2733.2733,0,0,1,.2684.269.2513.2513,0,0,1-.2758.256c-.27.0076-.54.0035-.8108.0043-.04,0-.08,0-.12,0v.0011c-.29,0-.5806.001-.8709,0-.1942-.0009-.3187-.1028-.3234-.26s.1188-.2635.3161-.2651Q5.4121,10.9363,6.2678,10.9338Zm-3.4969-.7646c.0034-.1574.1265-.2529.3249-.2523.1926.0006.3218.1031.3226.2561.0009.1674-.1125.2533-.3331.2523C2.884,10.4243,2.7674,10.33,2.7709,10.1692Zm.3972,2.3255a.2368.2368,0,0,1-.2589-.2485.2537.2537,0,0,1,.2487-.2665c.02-.0017.04-.0008.06-.0008q1.97-.0012,3.94-.0022c.1918,0,.3205.107.3188.2611-.0017.1565-.1249.255-.3236.2552q-.9849.0007-1.97,0v.0025C4.5115,12.4957,3.84,12.4972,3.1681,12.4947Zm13.2605,1.9344a.5143.5143,0,0,1-.4151.287,14.5649,14.5649,0,0,1-2.04.0833c-.7116-.0135-1.4237-.0069-2.1352-.0227a5.5167,5.5167,0,0,1-.6381-.0849,3.23,3.23,0,0,0-.4273-.0586c-1.4234-.0063-2.8471.0047-4.27-.015a12.2947,12.2947,0,0,1-1.3554-.1419c-.0608-.0077-.1137-.08-.17-.1219.0506-.0494.0938-.1286.1529-.1431.4122-.1011.8238-.2141,1.2427-.2756A20.99,20.99,0,0,1,9.37,13.7386c.024,0,.0479-.0057.11-.0136-.2566-.3249-.499-.6236-.7326-.9289q-1.5936-2.0832-3.1838-4.169a.4332.4332,0,0,1-.0258-.5561c.2283-.3151.466-.6243.7156-.9228.4854-.58.9744-1.1577,1.4776-1.7223A4.652,4.652,0,0,1,8.32,4.9165c.1014-.0809.2521-.1352.3448-.04a.5255.5255,0,0,1,.1114.3495,1.1484,1.1484,0,0,1-.1064.4337.2494.2494,0,0,0,.0236.2627,2.7056,2.7056,0,0,0,.9.8691,3.2831,3.2831,0,0,0,1.1635.4678.649.649,0,0,0,.36-.0408c.3367-.153.6572-.3422.9957-.491a1.2484,1.2484,0,0,1,.4645-.0744c.1178-.0027.16.1048.1392.207-.0971.47-.1774.9453-.3149,1.4034a1.366,1.366,0,0,0-.0147.7605,5.8574,5.8574,0,0,0,.91,1.9,3.0771,3.0771,0,0,1,.2442.3962,1.5942,1.5942,0,0,1,.08.3165,1.4491,1.4491,0,0,1,.9422.159,4.19,4.19,0,0,1,1.3636.7441,1.8032,1.8032,0,0,1,.6319,1.16A1.2809,1.2809,0,0,1,16.4286,14.4291Z"></path><path class="cls-1" d="M9.2366,9.2032c-.1.0426-.1631.04-.212-.0736-.0833-.1928-.1806-.38-.272-.5689Q8.6013,8.2472,8.45,7.934l-.0286.0092c.0334.7234.0669,1.4467.1019,2.2016.2378-.112.4462-.2078.6524-.3084.078-.038.1265-.0285.1692.0528.1.1905.2068.3775.3116.5655q.1733.3108.3477.6209l.0392-.0118c-.0616-.6929-.1233-1.3859-.1874-2.1068C9.6322,9.0452,9.4325,9.12,9.2366,9.2032Z"></path></svg> 