<?xml version="1.0" encoding="UTF-8"?> <svg xmlns="http://www.w3.org/2000/svg" width="20" height="20" viewBox="0 0 20 20"><defs><style>.cls-1{fill:#6b11c9;}</style></defs><title>Artboard 1 copy 187</title><g id="Layer_2" data-name="Layer 2"><path class="cls-1" d="M12.7186,5.0927a1.5474,1.5474,0,0,0-.4345,1.3249.7862.7862,0,0,1-.5088.88.75.75,0,0,1-.6041-.0212,2.9348,2.9348,0,0,0-3.89,3.89.777.777,0,0,1,.0212.6147.7658.7658,0,0,1-.4027.4345.71.71,0,0,1-.3285.0742.8162.8162,0,0,1-.159-.0212H6.3911a1.5156,1.5156,0,0,0-1.293.4346,1.5325,1.5325,0,0,0-.4451,1.0811,1.5144,1.5144,0,0,0,.4451,1.081,1.5354,1.5354,0,0,0,2.1622,0,1.5517,1.5517,0,0,0,.4239-1.3354v-.0742a.836.836,0,0,1,.0742-.3922.7723.7723,0,0,1,.4345-.4027.7518.7518,0,0,1,.6042.0212,2.9348,2.9348,0,0,0,3.89-3.89.77.77,0,0,1-.0212-.5935.8074.8074,0,0,1,.4134-.4452.7946.7946,0,0,1,.4345-.0635h.0742a1.5163,1.5163,0,0,0,1.2931-.4346,1.5289,1.5289,0,1,0-2.1622-2.1622Zm-1.5156,6.105a1.6938,1.6938,0,1,1,0-2.3954A1.7016,1.7016,0,0,1,11.203,11.1977Z"></path><path class="cls-1" d="M12.4164.2994A9.9979,9.9979,0,0,0,7.58,19.7016L7.58,19.7008A9.9976,9.9976,0,1,0,12.4164.2994Zm3.0261,7.5278a2.59,2.59,0,0,1-1.1764.6466,4.497,4.497,0,0,1-4.229,6.0625A4.461,4.461,0,0,1,8.4685,14.25a2.3157,2.3157,0,1,1-3.9109-2.0774,2.2949,2.2949,0,0,1,1.187-.6359,4.4938,4.4938,0,0,1,5.787-5.8081,2.3864,2.3864,0,0,1,.6359-1.1765,2.3158,2.3158,0,0,1,3.275,3.275Z"></path></g></svg> 