<?xml version="1.0" encoding="UTF-8"?> <svg xmlns="http://www.w3.org/2000/svg" id="Layer_1" data-name="Layer 1" width="20" height="20" viewBox="0 0 20 20"><defs><style>.cls-1{fill:#6b11c9;fill-rule:evenodd;}</style></defs><title>Artboard 1 copy 74</title><path class="cls-1" d="M12.4171.3157a9.9979,9.9979,0,0,0-4.836,19.4022L7.58,19.7171A9.9976,9.9976,0,1,0,12.4171.3157ZM6.5283,14.5963c-.2929-.499-.5346-.9108-.7881-1.3425.5312-.26,1.0032-.4919,1.4758-.7223a2.0821,2.0821,0,0,0,1.2506-2.0922c-.0308-1.6318-.0084-3.2648-.0084-4.9363H5.4063V4.1782h4.6176c.0072.1056.0232.231.0234.3564.0015,1.8855.006,3.771-.0032,5.6564a9.2768,9.2768,0,0,1-.089,1.2327,2.5974,2.5974,0,0,1-1.2127,1.9152C8.0486,13.7746,7.3178,14.1515,6.5283,14.5963Zm6.5351-2.9884a4.7452,4.7452,0,0,1-2.2518,3.9433c-.0607.0415-.1232.0807-.1875.1164-1.6378.9106-1.1.9607-2.8682-.0767.4747-.2554.8976-.4928,1.329-.7132a4.2423,4.2423,0,0,0,2.465-4.1023c-.0127-2.0335-.0017-4.0672-.0011-6.1009V4.1727h1.5227a1.1329,1.1329,0,0,1,.0329.1861C13.0956,6.7752,13.1185,9.1925,13.0634,11.6079Z"></path></svg> 