<?xml version="1.0" encoding="UTF-8"?> <svg xmlns="http://www.w3.org/2000/svg" id="Layer_1" data-name="Layer 1" width="20" height="20" viewBox="0 0 20 20"><defs><style>.cls-1{fill:#6b11c9;fill-rule:evenodd;}</style></defs><title>Artboard 1 copy 149</title><path class="cls-1" d="M12.4171.3157a9.9979,9.9979,0,0,0-4.836,19.4022L7.58,19.7171A9.9976,9.9976,0,1,0,12.4171.3157Zm1.7312,5.2124L9.8305,9.8151,6.2219,13.4237l3.9474-9.53ZM3.8165,9.9691,9.6141,4.2018,5.4817,14.1632A6.0837,6.0837,0,0,1,3.8165,9.9691ZM9.9844,16.106,5.8212,14.379l4.1632-4.1323,4.1633,4.1323Zm4.5337-1.9428L10.293,9.9691l4.2251-4.1942A6.1142,6.1142,0,0,1,14.5181,14.1632Z"></path></svg> 