<?xml version="1.0" encoding="UTF-8"?> <svg xmlns="http://www.w3.org/2000/svg" width="20" height="20" viewBox="0 0 20 20"><defs><style>.cls-1{fill:#6b11c9;fill-rule:evenodd;}</style></defs><title>Artboard 1 copy 77</title><g id="Layer_2" data-name="Layer 2"><path class="cls-1" d="M12.4171.3157a9.9979,9.9979,0,0,0-4.836,19.4022L7.58,19.7171A9.9976,9.9976,0,1,0,12.4171.3157ZM12.4887,3.93c.1262.2259.2665.4454.3736.68a3.7493,3.7493,0,0,1,.1509.561l-1.1527-.6776c0-.03-.0118-.0727.0017-.0834C12.0692,4.248,12.2793,4.09,12.4887,3.93Zm-5.036,6.5464c.085.064.1454.0851.1553.12.4867,1.7254,2.47,1.9664,3.7256,1.7641a5.313,5.313,0,0,0,2.64-1.1,5.4024,5.4024,0,0,1-2.497,3.4083V13.319l-.22-.0006c.0155.3478.031.6956.0478,1.07l-.4315.02-.0337.0882a2.2769,2.2769,0,0,1,.5974.291,2.3058,2.3058,0,0,1,.346.5713,1.7337,1.7337,0,0,1-.51.2743c-1.3709.2-1.6519-.0865-1.5354-1.489a6.3075,6.3075,0,0,0-.0368-.8313l-.1766.0054v1.6839c-.3111-.2871-.5787-.5338-.88-.8124.0691-1.3769-.4407-2.1772-1.36-1.8531.2134.1007.3558.1689.4992.2352a1.037,1.037,0,0,1,.56,1.399c-.0473.11-.2186.1813-.3469.2389a3.3037,3.3037,0,0,1-.4491.1335l.0229.1447c.2085,0,.4171-.005.6254.0009.5167.0149.9636.3.9758.6174.0118.3055-.37.5243-.9459.5473a3.3547,3.3547,0,0,1-1.923-.4919A1.91,1.91,0,0,1,5.39,13.7084a.683.683,0,0,1,.2913-.7485,1.0032,1.0032,0,0,0,.4223-.5622C6.2585,11.527,7.1045,11.1946,7.4527,10.4768ZM13.41,15.0241c-.0005.0923-.2741.1886-.43.272a.5.5,0,0,1-.1874.0321c-.4633.0408-.9213.0713-.9207-.607l.8824-.7193a3.7221,3.7221,0,0,1,.4181.4543A1.1324,1.1324,0,0,1,13.41,15.0241ZM3.8542,12.5678A1.2029,1.2029,0,0,1,4.18,11.2906a1.1043,1.1043,0,0,1,1.3326-.2021.9783.9783,0,0,1,.45.6963,1.02,1.02,0,0,1-.6715,1.0614c-.1834.0578-.4552-.1529-.682-.2521a1.2305,1.2305,0,0,1-.2142-.1542l-.1543.1551.7521.6983A1.3454,1.3454,0,0,1,3.8542,12.5678Zm9.9012,3.0746a12.5362,12.5362,0,0,1-2.3726.5312A15.242,15.242,0,0,1,6.105,15.83a3.5255,3.5255,0,0,1-.8915-.336c-.2016-.1187-.4553-.3421-.4674-.5329-.0113-.1771.2664-.3727.4531-.6051,1.0573,1.6066,3.2732,2.0718,4.2952.9126a.9641.9641,0,0,0,1.1394.6528,13.2674,13.2674,0,0,0,1.3265-.2879,4.2566,4.2566,0,0,1,.7085-.0535c.8691-.0188,1.0578-.204,1.1133-1.1053.1714.1982.484.4024.4759.5929A.823.823,0,0,1,13.7554,15.6424Zm-1.2209-4.5233a3.9357,3.9357,0,0,1-4.5607-.5179,2.8183,2.8183,0,0,1-.92-2.7829,14.6722,14.6722,0,0,1,.9527-2.2777l-.99-.1989a11.3624,11.3624,0,0,0,5.0867-1.5986l-.7177.7926c.5877.374,1.1148.7185,1.654,1.0431.0822.05.22.0069.395.0069a1.14,1.14,0,0,0,.1535.2119A3.2415,3.2415,0,0,1,12.5345,11.1191ZM6.6113,5.65l.9988.0478L7.0146,7.0691C6.8666,6.5483,6.754,6.1517,6.6113,5.65Z"></path><path class="cls-1" d="M11.9686,7.0614c-.0634-.0263-.222.0992-.2966.19a1.011,1.011,0,0,1-1.463.3392l.3692-1.2186.3636.133-.0654-.1446q.3831-.2607.7662-.5211l-.0547-.1472c-.2323.0717-.463.1491-.6973.2133-.1937.0531-.391.0939-.5879.1343-.35.0719-.71.1134-1.05.2171a3.77,3.77,0,0,0-.7342.3583,5.95,5.95,0,0,0-.5082.37c.3663,0,.611-.0693.7812.014a12.4362,12.4362,0,0,1,1.148.71c-.2865.3378-.4155.9155-1.0885.53-.2084-.1192-.3534.0944-.2347.29a11.7505,11.7505,0,0,0,.7236.9626c-.0647.2588-.1559.6427.2769.8551a.97.97,0,0,0,1.1386-.2579,3.557,3.557,0,0,0,.3111-.421,3.169,3.169,0,0,1,.5081-.5782A1.5468,1.5468,0,0,0,12.216,7.368.5308.5308,0,0,0,11.9686,7.0614ZM10.8811,9.4052a1.0805,1.0805,0,0,1-.4385.59,2.1411,2.1411,0,0,1-.7949.059,3.4079,3.4079,0,0,1,.0893-.7007,6.4692,6.4692,0,0,1,.3912-.8013l.1443.04c-.1081.4146-.2162.8292-.3481,1.3348.4779-.233.5042-.6222.5928-.9716a1.5251,1.5251,0,0,1,.13-.4986c.081-.1135.2705-.15.4893-.2582A9.5123,9.5123,0,0,1,10.8811,9.4052Z"></path></g></svg> 