<?xml version="1.0" encoding="UTF-8"?> <svg xmlns="http://www.w3.org/2000/svg" id="Layer_1" data-name="Layer 1" width="20" height="20" viewBox="0 0 20 20"><defs><style>.cls-1{fill:#6b11c9;fill-rule:evenodd;}</style></defs><title>Artboard 1 copy 78</title><path class="cls-1" d="M12.4171.3157a9.9979,9.9979,0,0,0-4.836,19.4022L7.58,19.7171A9.9976,9.9976,0,1,0,12.4171.3157Zm1.7948,7.3591a1.584,1.584,0,0,0-.5026.6959c-.1229.2917-.3408.9138-.4884,1.2265s-.3866.7134-1.43,1.2547c-.8857.4569-1.3144.6326-1.4374.9524a.984.984,0,0,0,.1441.963,2.11,2.11,0,0,0,.8786.6958c.3549.0984.383.246.383.246a2.9022,2.9022,0,0,0-.6853-.1089,2.7667,2.7667,0,0,0-.7591.1089c0-.137.2671-.246.2671-.246s-.0105-.1863-.5237-.5237a1.2069,1.2069,0,0,1-.5412-.8716s-.8505-.0562-.8961-.0562l.5271-.1546c-.8645-.4569-5.342,1.3074-5.342,1.3074v-.116a1.2241,1.2241,0,0,1-.8786.1265l.5412-.4112h-.376l3.76-1.9365-.8434-.01s3.24-2.0806,4.0662-2.5762,1.339-.6325,1.5393-.78.6853-.6325.9419-.7978a1.6362,1.6362,0,0,1,1.0086-.3654,1.4757,1.4757,0,0,1,.7978.39c.1723.137.71.6044.71.6044A6.4451,6.4451,0,0,0,14.2119,7.6748Z"></path></svg> 