<?xml version="1.0" encoding="UTF-8"?> <svg xmlns="http://www.w3.org/2000/svg" width="20" height="20" viewBox="0 0 20 20"><defs><style>.cls-1{fill:#6b11c9;fill-rule:evenodd;}</style></defs><title>Artboard 1 copy 81</title><g id="Layer_2" data-name="Layer 2"><path class="cls-1" d="M12.4171.3157a9.9979,9.9979,0,0,0-4.836,19.4022L7.58,19.7171A9.9976,9.9976,0,1,0,12.4171.3157ZM18.065,5.7008a1.5308,1.5308,0,0,1-.3832.2484,3.0408,3.0408,0,0,1-.5343.2.8254.8254,0,0,0-.3581.18,1.3307,1.3307,0,0,1-.636.3036c-.1461.0275-.2207.1736-.3585.2152a8.5094,8.5094,0,0,0-1.0432.4674c-.213.0971-.4352.1794-.6372.2856a2.4846,2.4846,0,0,1-.5154.3034,2.2744,2.2744,0,0,0-.5366.2164,5.5276,5.5276,0,0,0-1.0043.5354.5256.5256,0,0,1-.2422.1165,1.0884,1.0884,0,0,0-.6045.4023.1217.1217,0,0,0-.0375.137c.0264.0732.086.06.1417.06.4363,0,.8725.0035,1.3086-.0016.114-.0013.1526.0258.1521.15-.0047,1.1557.0283,2.3124-.0088,3.4669a3.3383,3.3383,0,0,1-1.8945,2.9864c-.1045.056-.22.0932-.3219.1525a1.0651,1.0651,0,0,1-1.0438.001,3.6185,3.6185,0,0,1-2.2521-3,1.5856,1.5856,0,0,1-.0081-.2035c-.0007-1.1217.0012-2.2435-.0037-3.3652-.0006-.13.0281-.1782.1675-.1729.2918.0111.5844.0033.8925.0033-.1293-.1579-.1265-.1528.0461-.2457.0745-.04.2144-.0427.1474-.2041-.02-.0492.0658-.0434.1029-.0623.03-.0153.068-.0218.0674-.0643A.08.08,0,0,0,8.6055,8.74c-.09-.0339-.1793-.0706-.2707-.1a.4043.4043,0,0,1-.2487-.162.1492.1492,0,0,0-.0794-.061,7.507,7.507,0,0,1-1.11-.5318,5.091,5.091,0,0,0-.981-.4137.22.22,0,0,1-.0778-.0332,8.6944,8.6944,0,0,0-.8238-.42,3.2875,3.2875,0,0,0-.5205-.1953L4.432,6.7851l0,.0007a.1053.1053,0,0,0-.0978-.0719l-.0077.0122.0071-.0123a.0685.0685,0,0,0-.07-.0658H4.2622c-.0209-.0525-.0638-.0526-.1095-.0458l-.0678-.0154a1.0722,1.0722,0,0,1-.1382-.06A7.8926,7.8926,0,0,0,2.67,5.9321a1.0546,1.0546,0,0,1-.4361-.3657h.314Q4.961,5.5651,7.3738,5.59a3.3319,3.3319,0,0,1,1.1985.1834l0,0,.3716.2069,0-.0007a.4722.4722,0,0,0,.17.1356l0,0a.3344.3344,0,0,0,.1372.1313l.0028.0037.0282.04a1.2184,1.2184,0,0,0,.7039.49,1.1791,1.1791,0,0,0,1.086-.4A2.419,2.419,0,0,1,12.94,5.5858c1.66.02,3.32.0058,4.98.0056a.9089.9089,0,0,1,.1018.0021c.0267.003.0643.005.0762.022C18.1221,5.65,18.0879,5.6805,18.065,5.7008Z"></path></g></svg> 