<?xml version="1.0" encoding="UTF-8"?> <svg xmlns="http://www.w3.org/2000/svg" id="Layer_1" data-name="Layer 1" width="20" height="20" viewBox="0 0 20 20"><defs><style>.cls-1{fill:#6b11c9;fill-rule:evenodd;}</style></defs><title>Artboard 1 copy 84</title><path class="cls-1" d="M12.4171.3157a9.9979,9.9979,0,0,0-4.836,19.4022L7.58,19.7171A9.9976,9.9976,0,1,0,12.4171.3157Zm-2.9007,12.87H8.5487V11.0393L4.7575,8.1859v4.9993H3.79V7.3787a.5665.5665,0,0,1,.9042-.4522l4.5978,3.4616a.5648.5648,0,0,1,.2249.45Zm6.6941,0h-.968V8.1859l-3.7912,2.8534v2.1459h-.9676V10.8378a.5644.5644,0,0,1,.2247-.45l4.5978-3.46a.5665.5665,0,0,1,.9043.4508Z"></path></svg> 