<?xml version="1.0" encoding="UTF-8"?> <svg xmlns="http://www.w3.org/2000/svg" id="Layer_1" data-name="Layer 1" width="20" height="20" viewBox="0 0 20 20"><defs><style>.cls-1{fill:#3e3e3e;}.cls-2{fill:#6b11c9;fill-rule:evenodd;}</style></defs><title>Artboard 1 copy 146</title><polygon class="cls-1" points="1.98 10.769 1.984 10.768 1.982 10.77 1.98 10.769"></polygon><path class="cls-2" d="M6.9982,8.0179c-.1618-.11-.3178-.2278-.48-.3368A.24.24,0,0,1,6.4,7.4592c.0037-.1554.001-.3109.001-.4665H6.3994c0-.1688.0008-.3376-.0007-.5064,0-.034.0082-.0776-.0318-.0947s-.0656.02-.0876.0452c-.0994.1136-.2.2264-.2937.3448A5.0436,5.0436,0,0,0,5.01,11.31c.01.04.0034.1.06.1065.0374.0041.0513-.0439.0691-.0733Q6.088,9.7754,7.0368,8.2075A.12.12,0,0,0,6.9982,8.0179Z"></path><path class="cls-2" d="M9.8793,8.3a.1971.1971,0,0,0,.2425-.0019c.5462-.3493,1.0959-.6932,1.6439-1.04q.7768-.4913,1.5527-.9845c.04-.0253.09-.0434.0968-.1015-.0083-.0487-.0481-.0736-.0807-.1021a4.6408,4.6408,0,0,0-.6552-.4791,5.1061,5.1061,0,0,0-3.7177-.6418A4.8478,4.8478,0,0,0,6.666,6.07c-.1126.0973-.11.1232.0066.197Q8.276,7.2835,9.8793,8.3Z"></path><path class="cls-2" d="M14.2158,12.4807a.274.274,0,0,1-.2809-.1559c-.0819-.1524-.179-.2965-.27-.4441q-.9087-1.4752-1.8158-2.9515c-.06-.0973-.1129-.1154-.2129-.0569-.2645.1548-.53.3087-.8034.4473a.3168.3168,0,0,0-.1951.3357c.0249.7813.039,1.5628.0586,2.4215,0,.1006-.0017.2783.0008.456.0014.1039-.04.1579-.1489.1576q-.48-.0018-.96,0c-.0974,0-.1475-.0412-.15-.1427-.0041-.1554-.0174-.31-.0211-.4659Q9.3885,10.863,9.364,9.644a.248.248,0,0,0-.12-.2208c-.2837-.191-.5637-.3877-.846-.5807-.1614-.11-.17-.1074-.2746.0614-.7,1.1238-1.4026,2.2459-2.0973,3.373a.3554.3554,0,0,1-.3621.2045c-.154-.0112-.171.0278-.09.1571a5.3913,5.3913,0,0,0,.897,1.103,4.9684,4.9684,0,0,0,4.0021,1.391,5.1041,5.1041,0,0,0,3.8909-2.3946c.0449-.0671.1405-.1411.0989-.2182C14.4168,12.4346,14.3,12.4782,14.2158,12.4807Z"></path><path class="cls-2" d="M12.4171.3157a9.9979,9.9979,0,0,0-4.836,19.4022L7.58,19.7171A9.9976,9.9976,0,1,0,12.4171.3157Zm3.817,10.535a6.3274,6.3274,0,0,1-5.37,5.3812c-.06.0088-1.6568.01-1.7134.0022a6.1446,6.1446,0,0,1-3.4314-1.6316,6.1993,6.1993,0,0,1-1.9538-3.7648c-.0074-.0528-.0066-1.6842.0021-1.7406A6.328,6.328,0,0,1,9.1641,3.7657c.0527-.0074,1.6305-.0066,1.687.0017a6.3214,6.3214,0,0,1,5.381,5.3968C16.2405,9.2245,16.2423,10.7942,16.2341,10.8507Z"></path><path class="cls-2" d="M13.7311,6.4578c-.0259-.0281-.0464-.08-.091-.0661-.0538.0168-.0368.0749-.0371.1164-.0019.3109-.0042.6218,0,.9326a.25.25,0,0,1-.1315.2406c-.1707.1037-.3346.2187-.505.323a.14.14,0,0,0-.0521.2291q.9738,1.5517,1.9437,3.1059c.02.0322.0343.0858.0793.08.0542-.0067.05-.0671.0609-.1073a4.9611,4.9611,0,0,0,.1551-1.464c-.0056-.1064-.0057-.2134-.0175-.3191A5.2826,5.2826,0,0,0,13.7311,6.4578Z"></path></svg> 