<?xml version="1.0" encoding="UTF-8"?> <svg xmlns="http://www.w3.org/2000/svg" id="Layer_1" data-name="Layer 1" width="20" height="20" viewBox="0 0 20 20"><defs><style>.cls-1{fill:#6b11c9;fill-rule:evenodd;}</style></defs><title>Artboard 1 copy 86</title><path class="cls-1" d="M7.85,9.2177a.2221.2221,0,0,0,.09-.1393c.0359-.28.0605-.5611.0918-.87l-.0347-.0727A.3261.3261,0,0,0,7.9109,8.2q-.4806.7152-.9555,1.4344a.3883.3883,0,0,0-.0279.1119A.3535.3535,0,0,0,7.0422,9.72Q7.45,9.4751,7.85,9.2177Z"></path><path class="cls-1" d="M8.5538,10.0462c-.1488-.1728-.2948-.3356-.433-.5063A.1154.1154,0,0,0,7.94,9.51c-.4677.2942-.94.5807-1.407.8766a1.3613,1.3613,0,0,0-.2226.21.1863.1863,0,0,0-.0213.2272c.1818.4157.3592.833.5387,1.25.0683.1566.094.1594.1986.02q.4154-.5539.8286-1.11Z"></path><path class="cls-1" d="M6.0805,11.0666c-.0436-.1046-.0839-.0995-.1527-.0257-.2663.2875-.5348.5723-.8023.8582-.0933.1007-.1845.2014-.3032.3317a.8755.8755,0,0,0,.1394.033c.4995.0011.9991,0,1.4981.0011.0968,0,.1214-.0341.08-.1275Q6.3054,11.6042,6.0805,11.0666Z"></path><path class="cls-1" d="M9.8007,10.9872c.0269.03.0593.0548.1113.1018a1.36,1.36,0,0,0,.028-.1639c.0073-.2344.0079-.4688.0185-.7032a.7622.7622,0,0,0-.15-.4985Q9.1423,8.799,8.48,7.8717a.5024.5024,0,0,1-.0425-.0968l-.0526.0313a.9177.9177,0,0,0-.038.141c-.0392.38-.0728.7609-.1147,1.14a.2572.2572,0,0,0,.071.2215C8.8038,9.8666,9.3011,10.4277,9.8007,10.9872Z"></path><path class="cls-1" d="M10.2684,10.9945a.5568.5568,0,0,0,.0918-.0728q.638-.7746,1.2716-1.553a.2056.2056,0,0,0,.0436-.1147q.03-1.0362.0532-2.0727a.3862.3862,0,0,0-.0325-.1146c-.0308.03-.0739.0537-.0912.09-.3916.829-.7659,1.6666-1.1765,2.485a2.9622,2.9622,0,0,0-.1936,1.3309Z"></path><path class="cls-1" d="M12.4171.3157a9.9979,9.9979,0,0,0-4.836,19.4022L7.58,19.7171A9.9976,9.9976,0,1,0,12.4171.3157Zm3.7024,12.3755a.3272.3272,0,0,1-.3217.1466q-2.9009-.0016-5.8018-.0006-2.8884,0-5.7767.0011c-.15,0-.2854-.0168-.35-.1778a.3307.3307,0,0,1,.11-.3726c.5751-.6143,1.158-1.2218,1.7175-1.85a7.1553,7.1553,0,0,0,.5594-.7933C6.8352,8.7791,7.41,7.91,7.9915,7.046a.54.54,0,0,1,.2361-.2036.2687.2687,0,0,1,.315.1409q.7023,1.0037,1.41,2.0039c.0968.1365.1314.132.2031-.0235l1.4512-3.1608c.057-.1242.1325-.23.28-.2366a.34.34,0,0,1,.32.2181c.7284,1.3214,1.44,2.654,2.1969,3.9586.4576.7888.9873,1.5334,1.4847,2.2981.0615.094.1236.1875.184.2826A.35.35,0,0,1,16.1195,12.6912Z"></path><path class="cls-1" d="M12.0642,9.2893c.4844.1175.9678.2411,1.4523.36a.55.55,0,0,0,.1326,0,.5694.5694,0,0,0-.0342-.13q-.7242-1.3174-1.4517-2.6338a1.02,1.02,0,0,0-.0778-.1085l-.0424.0072c-.0057.0856-.014.1718-.0168.2585l-.0622,2.11A.1134.1134,0,0,0,12.0642,9.2893Z"></path><path class="cls-1" d="M14.3909,10.8c-.0157-.0246-.0515-.0352-.0784-.052a.2817.2817,0,0,0-.0408.0856c-.0341.4375-.0649.875-.0984,1.3124-.0062.0834.0229.1209.1079.1192.1538-.0033.3077-.0011.4621-.0011h.4621c.089,0,.1231-.0336.0666-.1192Q14.8315,11.4721,14.3909,10.8Z"></path><path class="cls-1" d="M9.7923,11.4078q-.4735-.5136-.9387-1.0349c-.0749-.0839-.118-.0833-.1852.0084-.4257.5824-.8559,1.1608-1.2838,1.7421a.5047.5047,0,0,0-.0437.1018.3665.3665,0,0,0,.113.0375c.2741.0034.5471.0022.8212.0022.2691,0,.5388.004.8079-.0034a.257.257,0,0,0,.1644-.07c.1875-.1964.3631-.4045.55-.6014C9.8673,11.5175,9.8516,11.4728,9.7923,11.4078Z"></path><path class="cls-1" d="M13.77,10.016q-.7006-.1753-1.4019-.35a1.4051,1.4051,0,0,0-.164-.0156c.0325.0631.0431.0906.0594.1141l.6757.9812q.4188.6084.8392,1.2151a.3309.3309,0,0,0,.0839.0638.4038.4038,0,0,0,.0425-.1c.0112-.0951.0134-.19.02-.2853.03-.4336.0638-.8666.0895-1.2995A.2778.2778,0,0,0,13.77,10.016Z"></path><path class="cls-1" d="M12.3478,10.4037c-.1734-.2518-.3479-.5035-.5522-.7983a1.1684,1.1684,0,0,1-.0783.1236q-.6645.8106-1.3331,1.619c-.0727.0879-.0352.1225.047.16.513.235,1.0237.4738,1.5379.7077a.5322.5322,0,0,0,.2092.047c.4229.0039.8465.0028,1.27.0006a.5112.5112,0,0,0,.1186-.028.4832.4832,0,0,0-.0447-.1242Q12.9367,11.2561,12.3478,10.4037Z"></path><path class="cls-1" d="M10.1532,11.7049a.0733.0733,0,0,0-.0677.0062c-.1511.1622-.2988.3284-.4487.4945a5.4825,5.4825,0,0,0,1.5692.01l-.0112-.0207C10.848,12.0311,10.5011,11.8666,10.1532,11.7049Z"></path></svg> 