<?xml version="1.0" encoding="UTF-8"?> <svg xmlns="http://www.w3.org/2000/svg" id="Layer_1" data-name="Layer 1" width="20" height="20" viewBox="0 0 20 20"><defs><style>.cls-1{fill:#6b11c9;fill-rule:evenodd;}</style></defs><title>Artboard 1 copy 87</title><path class="cls-1" d="M12.4171.3157a9.9979,9.9979,0,0,0-4.836,19.4022L7.58,19.7171A9.9976,9.9976,0,1,0,12.4171.3157ZM10,16.2973A6.2963,6.2963,0,0,1,4.619,13.2712l1.2884,0H7.2728V9.9379l1.7859,1.786h0L10,12.6647l.9408-.9408,1.786-1.786v3.333H15.381A6.2974,6.2974,0,0,1,10,16.2973Zm5.9764-4.3094H14.0919V6.6909L10,10.7831,5.9076,6.6909v5.2968H4.0237A6.3033,6.3033,0,0,1,10,3.7027v.0009a6.3025,6.3025,0,0,1,5.9764,8.2843Z"></path></svg> 