<?xml version="1.0" encoding="UTF-8"?> <svg xmlns="http://www.w3.org/2000/svg" id="Layer_1" data-name="Layer 1" width="20" height="20" viewBox="0 0 20 20"><defs><style>.cls-1{fill:#6b11c9;fill-rule:evenodd;}</style></defs><title>Artboard 1 copy 151</title><polygon class="cls-1" points="9.466 11.283 10.568 11.283 10.021 10.432 9.466 11.283"></polygon><path class="cls-1" d="M12.4171.3157a9.9979,9.9979,0,0,0-4.836,19.4022L7.58,19.7171A9.9976,9.9976,0,1,0,12.4171.3157Zm.7889,15.0767-2.2442-3.4953H9.0656L6.7875,15.3924H5.9549l2.254-3.4953H6.7508v-.6137H8.6047l.7915-1.2275H6.7508V9.4422H9.3691L6.2777,4.6076h.8551L10.0351,9.15l2.9632-4.5421h.8023L10.6675,9.4422h2.6089v.6137h-2.623l.78,1.2275h1.8428v.6137H11.8236l2.2216,3.4953Z"></path></svg> 