<?xml version="1.0" encoding="UTF-8"?> <svg xmlns="http://www.w3.org/2000/svg" id="Layer_1" data-name="Layer 1" width="20" height="20" viewBox="0 0 20 20"><defs><style>.cls-1{fill:#6b11c9;fill-rule:evenodd;}</style></defs><title>Artboard 1 copy 152</title><path class="cls-1" d="M12.4171.3157a9.9979,9.9979,0,0,0-4.836,19.4022L7.58,19.7171A9.9976,9.9976,0,1,0,12.4171.3157Zm3.5777,13.14-.0028-.0016,0,.004L13.1113,15.12a.2422.2422,0,0,1-.2423,0L9.9937,13.46,7.0026,15.1878v.0048L4.1216,13.53a.2424.2424,0,0,1-.1163-.2084V6.5374L6.8864,4.8751a.2425.2425,0,0,1,.23,0l2.8872,1.6662h.0005l-.0066-.0038,2.9973-1.73L15.8784,6.47a.2427.2427,0,0,1,.1164.2012Z"></path></svg> 