<?xml version="1.0" encoding="UTF-8"?> <svg xmlns="http://www.w3.org/2000/svg" id="Layer_1" data-name="Layer 1" width="20" height="20" viewBox="0 0 20 20"><defs><style>.cls-1,.cls-2{fill:#6b11c9;}.cls-2{fill-rule:evenodd;}</style></defs><title>Artboard 1 copy 94</title><ellipse class="cls-1" cx="7.9039" cy="11.0664" rx="0.5884" ry="0.8826"></ellipse><path class="cls-2" d="M11.9858,10.1838c-.331,0-.5885.4046-.5885.8826s.2575.8826.5885.8826.5883-.4046.5883-.8826S12.3167,10.1838,11.9858,10.1838Z"></path><path class="cls-2" d="M12.4171.3157a9.9979,9.9979,0,0,0-4.836,19.4022L7.58,19.7171A9.9976,9.9976,0,1,0,12.4171.3157ZM10,15.4056c-2.9418,0-5.3321-1.4709-5.3321-3.2728v-.8457H4.67c.0213-1.1614,1.0439-2.1758,2.5721-2.758L6.7272,5.8814a1.06,1.06,0,1,1,2.0961-.2206v2.427a11.1267,11.1267,0,0,1,1.14-.0736c.3677,0,.7355.0368,1.1032.0736V5.6608a1.0672,1.0672,0,0,1,1.0664-1.0664,1.1064,1.1064,0,0,1,1.0665,1.287l-.4781,2.6477c1.5283.5822,2.5867,1.5966,2.6088,2.758l.0021.8457C15.3321,13.9347,12.9418,15.4056,10,15.4056Z"></path></svg> 