<?xml version="1.0" encoding="UTF-8"?> <svg xmlns="http://www.w3.org/2000/svg" id="Layer_1" data-name="Layer 1" width="20" height="20" viewBox="0 0 20 20"><defs><style>.cls-1{fill:#6b11c9;fill-rule:evenodd;}</style></defs><title>Artboard 1 copy 95</title><path class="cls-1" d="M9.9078,9.4226a.2654.2654,0,0,0-.2379.1618A3.4451,3.4451,0,0,0,9.6546,11.8c.0456.0509.1554.0442.2354.0641.4812-.1031,1.0067-.0838,1.2581-.6653A1.2615,1.2615,0,0,0,9.9078,9.4226Z"></path><path class="cls-1" d="M12.4171.3157a9.9979,9.9979,0,0,0-4.836,19.4022L7.58,19.7171A9.9976,9.9976,0,1,0,12.4171.3157ZM6.9439,5.8746a3.3007,3.3007,0,0,1,1.77-2.0934,3.4,3.4,0,0,1,.9142-.2507,3.6166,3.6166,0,0,1,2.7463.7976,2.4687,2.4687,0,0,1,1.0744,1.6758c-.0194.3753-.2695.2264-.4556.1325-.5746-.29-1.1863-.6276-1.8091-.31A1.9953,1.9953,0,0,1,9.12,5.7818c-.5612-.2981-1.2275.0684-1.7925.3729a1.8615,1.8615,0,0,1-.2854.1212C6.87,6.3105,6.8931,6.0244,6.9439,5.8746Zm6.7,6.2735c-.5326,1.3984-2.5491,2.0019-3.82,1.7921a.2543.2543,0,0,0-.2808.1614,1.6372,1.6372,0,0,0-.0442.461A8.723,8.723,0,0,1,9.4644,15.75a.26.26,0,0,1-.2034.2115,2.1579,2.1579,0,0,1-.3623.0015.2422.2422,0,0,1-.05-.0045c-.49-.1-1.6559.0521-1.8025-.0712-.0038-2.4783-.0214-5.22-.0252-7.6981a1.3382,1.3382,0,0,1,.0707-.5174.2635.2635,0,0,1,.2258-.1633c.6055-.0392,3.7155-.0385,3.7309-.0376a3.2386,3.2386,0,0,1,2.6732,1.717A4.0263,4.0263,0,0,1,13.6438,12.1481Z"></path></svg> 