<?xml version="1.0" encoding="UTF-8"?> <svg xmlns="http://www.w3.org/2000/svg" id="Layer_1" data-name="Layer 1" width="20" height="20" viewBox="0 0 20 20"><defs><style>.cls-1{fill:#005495;}.cls-2{fill:#6b11c9;fill-rule:evenodd;}</style></defs><title>Artboard 1 copy 96</title><polygon class="cls-1" points="13.047 14.899 13.045 14.9 13.047 14.898 13.047 14.899"></polygon><path class="cls-2" d="M12.4171.3157a9.9979,9.9979,0,0,0-4.836,19.4022L7.58,19.7171A9.9976,9.9976,0,1,0,12.4171.3157ZM8.0893,9.6793A11.0483,11.0483,0,0,0,9.1948,6.64c.0675-.3239.1208-.65.158-.9794.0363-.3227.075-.6448.09-.9693.0063-.1374.0124-.275.0147-.4126.0007-.0427.0137-.0508.0555-.0552a5.2426,5.2426,0,0,1,.7915-.013c.055.0026.11.0113.1648.0138.0293.0013.03.0172.0313.0393.0041.0776.0143.1553.0139.2329a7.5042,7.5042,0,0,0,.0491.8048A11.5355,11.5355,0,0,0,11.8,9.5391c.0293.0557.0594.1109.0893.1662.0285.0528.0572.1054.09.1662H7.9866C8.0226,9.804,8.0556,9.7415,8.0893,9.6793Zm1.6628,4.8033c-.0434.0223-.0492-.0222-.062-.0453a.73.73,0,0,0-.4367-.3791.1614.1614,0,0,0-.1732.04.1506.1506,0,0,0,.1171.2433c.048-.0028.0487.0169.039.0541-.0284.1083-.0917.1514-.2272.151A.3985.3985,0,0,1,8.98,13.751a.6269.6269,0,0,1,.4964.1935,1.2547,1.2547,0,0,1,.2917.4524C9.7816,14.4293,9.789,14.4637,9.7521,14.4826Zm-.1662-.9754a1.888,1.888,0,0,1,.1032-.3761,2.3138,2.3138,0,0,1,.2295-.49c.052-.0786.0822-.0794.1314.001a2.6964,2.6964,0,0,1,.3292.8361.2872.2872,0,0,1-.031.1687c-.0594.1474-.1452.2818-.2121.4256a1.0277,1.0277,0,0,0-.11.3276c-.0025.0239-.0046.0537-.0392.0556s-.0421-.0234-.0449-.05A1.3028,1.3028,0,0,0,9.77,13.95a2.93,2.93,0,0,1-.1614-.3326A.2627.2627,0,0,1,9.5859,13.5072ZM10.092,15.02c-.1266.1244-.0832.1436-.21.0063-.0185-.02-.0334-.0435-.051-.0645-.047-.0561-.0643-.1058.0116-.1566a.22.22,0,0,0,.075-.1279.0656.0656,0,0,1,.0707-.0541.0641.0641,0,0,1,.0635.0536.3093.3093,0,0,0,.1117.1656c.0114.0087.0273.0149.0233.0416A.8294.8294,0,0,1,10.092,15.02Zm1.208-.7208a.3791.3791,0,0,1-.36.2469c-.129,0-.19-.0411-.223-.1482-.0114-.0373-.0089-.0578.0383-.0557a.1324.1324,0,0,0,.1392-.0939.1349.1349,0,0,0-.0245-.1542.16.16,0,0,0-.1672-.0366.6894.6894,0,0,0-.42.3541c-.0072.0132-.0126.0275-.02.0407-.0128.0231-.0292.0452-.0592.0315a.0477.0477,0,0,1-.0244-.0694c.0328-.07.0634-.142.101-.21a.9057.9057,0,0,1,.3978-.3994.4559.4559,0,0,1,.5439.0691A.38.38,0,0,1,11.3,14.2993Zm3.4739-1.058a5.8022,5.8022,0,0,1-1.7266,1.6576l0,0a2.7527,2.7527,0,0,0-.9318-2.55,3.0048,3.0048,0,0,0-1.6-.7531,3.16,3.16,0,0,0-2.591.6926,2.756,2.756,0,0,0-1.01,1.7742,2.792,2.792,0,0,0,.0086.8415,5.6024,5.6024,0,0,1-.6977-.51,5.9329,5.9329,0,0,1-1.04-1.1617c-.0319-.0463-.0322-.0682.0141-.1059a12.333,12.333,0,0,0,1.0173-.9246A11.3608,11.3608,0,0,0,7.81,10.1654a.1014.1014,0,0,1,.1009-.0568q2.0721.0021,4.1442,0a.1017.1017,0,0,1,.101.057A11.2227,11.2227,0,0,0,13.52,11.9609a12.127,12.127,0,0,0,1.2356,1.1554C14.8069,13.1581,14.8123,13.1855,14.7739,13.2413Z"></path></svg> 