<?xml version="1.0" encoding="UTF-8"?> <svg xmlns="http://www.w3.org/2000/svg" id="Layer_1" data-name="Layer 1" width="20" height="20" viewBox="0 0 20 20"><defs><style>.cls-1{fill:#6b11c9;fill-rule:evenodd;}</style></defs><title>Artboard 1 copy 101</title><path class="cls-1" d="M12.4171.3157a9.9979,9.9979,0,0,0-4.836,19.4022L7.58,19.7171A9.9976,9.9976,0,1,0,12.4171.3157ZM4.363,6.7457c.6482-1.1226,1.7033-1.727,2.3567-1.35s.6576,1.5931.0094,2.7158-1.7033,1.7268-2.3567,1.35S3.7149,7.8683,4.363,6.7457ZM6.72,14.604c-.6533.3773-1.7085-.227-2.3566-1.35s-.644-2.3385.0094-2.7157,1.7084.227,2.3566,1.35S7.3734,14.2268,6.72,14.604ZM10,16.5082c-1.2964,0-2.3472-.6112-2.3472-1.3651S8.7037,13.7779,10,13.7779s2.3473.6112,2.3473,1.3652S11.2965,16.5082,10,16.5082ZM10,6.2221c-1.2964,0-2.3472-.6112-2.3472-1.3652S8.7037,3.4918,10,3.4918s2.3473.6112,2.3473,1.3651S11.2965,6.2221,10,6.2221Zm5.6361,7.0321c-.6482,1.1226-1.703,1.7271-2.3559,1.35s-.6568-1.5926-.0086-2.7153,1.703-1.7271,2.3559-1.35S16.2843,12.1315,15.6362,13.2542Zm-.0081-3.7925c-.6529.377-1.7076-.2275-2.3558-1.35s-.6444-2.3383.0086-2.7153,1.7076.2275,2.3558,1.35S16.281,9.0847,15.6281,9.4617Z"></path></svg> 