<?xml version="1.0" encoding="UTF-8"?> <svg xmlns="http://www.w3.org/2000/svg" id="Layer_1" data-name="Layer 1" width="20" height="20" viewBox="0 0 20 20"><defs><style>.cls-1{fill:#6b11c9;fill-rule:evenodd;}</style></defs><title>Artboard 1 copy 103</title><path class="cls-1" d="M12.6158,6.8052c-.0321.0386-.0637.11-.0965.1107a8.3568,8.3568,0,0,1-1.863-.0381l-.0372-.5622-3.27.0028c-.0038.3344-.0023.6689-.0132,1.003-.0067.2077.0845.2831.287.2827q2.6895-.0054,5.3791-.0031c.1191,0,.2711.0072.2692-.1629a3.0686,3.0686,0,0,0-.0664-1.1875C12.6844,6.2316,12.6808,6.2351,12.6158,6.8052Z"></path><path class="cls-1" d="M12.4171.3157a9.9979,9.9979,0,0,0-4.836,19.4022L7.58,19.7171A9.9976,9.9976,0,1,0,12.4171.3157ZM14.193,8.892c-.2615-.0484-.267.12-.2663.3133.0047,1.23.0024,2.4606.0024,3.691,0,.6469,0,.6492-.6372.6643-.0159.6253-.0187.628-.6431.6432-.0149.6367-.0172.6371-.6588.6371-.5592,0-1.1189.0142-1.6774-.0059-.272-.01-.34.09-.3278.3423.0183.3695.0044.7406.0043,1.1109H9.3458v-.0063c-.67-.0034-1.34-.0008-2.01.0019v.0044H6.6119c.0128-.3316.0359-.6633.0367-.995.0039-1.5375-.002-3.075.0051-4.6125.0012-.2717-.0114-.4866-.3742-.4248-.1859.0317-.2643-.0565-.2593-.2478.0209-.8009-.0369-1.6028.0311-2.4031.6772.0163.6773.0163.5877-.678a.2061.2061,0,0,0-.0126-.0377l-.6416.01a.3244.3244,0,0,1-.0224.0626h0q.0063.3247.0123.6494l-.6369-.0061c-.0047.1191-.0177.2385-.0125.3571.01.2366-.1223.2849-.3255.2859-.2117.0011-.3192-.0691-.3175-.2965.0042-.5695-.0029-1.1391-.0055-1.7086-.1053-.0024-.2111-.0128-.3158-.0057-.2389.0161-.3229-.0912-.3239-.3267-.0011-.2406.0927-.339.3276-.32.1048.0087.21.0072.3157.01h.6469l.6459,0L6.6086,5.59a.9943.9943,0,0,0,.0163-.1992c-.0413-.36.1283-.4867.4686-.4427a1.5375,1.5375,0,0,0,.2358-.0035L7.3309,4.91c.0122-.6358.0124-.6368.6465-.6847.0012-.6165.0023-.6179.609-.6183q2.0887-.0011,4.1776.0006c.5314.0007.5314.0041.51.5451a.4507.4507,0,0,1,.0147.078c.6408.0341.642.0341.6406.6819-.0005.2275-.0082.4549-.0126.6824.0041.5481.0205,1.0965.0068,1.6441-.0065.2592.0355.4181.3395.3657.2861-.0493.383.0826.354.357a2.2208,2.2208,0,0,0,0,.4808C14.6545,8.77,14.5734,8.9626,14.193,8.892Z"></path><path class="cls-1" d="M12.9062,9.5424c-.22.0228-.28-.118-.2618-.3042.0243-.2565-.077-.3788-.3418-.3484-.25.0288-.3379-.1031-.3222-.333.0173-.2534-.1206-.3242-.348-.3105a3.8545,3.8545,0,0,1-.5221-.0007c-.306-.0233-.5337.0192-.4842.4153.0262.21-.1317.2405-.29.227-.2578-.022-.3771.08-.3475.3439.0287.2556-.1126.3253-.3389.3159A5.6057,5.6057,0,0,0,9.047,9.55c-.2887.0192-.4722-.0521-.4289-.3935.0281-.2206-.11-.282-.2975-.2635-.2631.026-.3705-.09-.3432-.3478.0244-.23-.0946-.315-.3106-.2962-.0266.0024-.0536-.0009-.08,0-1.1441.03-.9444-.2147-.9705,1.0107-.0051.2385.0855.36.3261.3343.3313-.0353.4.1306.3985.4277-.0083,1.8739-.0058,3.7477-.0052,5.6216.5561,0,1.1127-.0139,1.6681.006a.5554.5554,0,0,0,.1737-.0159h.1662c-.001-.3566-.0028-.7133-.0138-1.07-.0089-.29.12-.3644.3856-.3623.9756.0075,1.9514-.0008,2.9271-.0033q.0015-.32.0031-.64h-.0007v-.0007a1.4912,1.4912,0,0,0-.1972,0c-.3988.0516-.5687-.12-.5182-.5181a1.2837,1.2837,0,0,0-.0044-.1977,17.1234,17.1234,0,0,1-1.9317-.0147c-.0019.1325-.008.265-.0048.3973.0055.2364-.1111.3293-.3415.3306-.2225.0013-.364-.073-.3608-.3131.0044-.3307.0181-.6612.0276-.9917-.0623-.7261-.0623-.7261.67-.696l1.9439.0055c.7389-.0459.7389-.0459.7035.7023l.0133,1.2952h.0008v.0007l.64-.0031c0-1.19-.0052-2.38.0039-3.57C13.2916,9.7042,13.2542,9.5062,12.9062,9.5424ZM11.51,10.9005c-.08-.0014-.16,0-.24-.0006-.1068,0-.2143-.0083-.32.0012-.2487.0221-.3179-.0962-.321-.331-.0033-.2562.1109-.326.34-.3133.1863.01.374.0082.5606,0,.2384-.01.4094.0143.4077.3318C11.9342,10.9237,11.73,10.9044,11.51,10.9005Z"></path></svg> 