<?xml version="1.0" encoding="UTF-8"?> <svg xmlns="http://www.w3.org/2000/svg" id="Layer_1" data-name="Layer 1" width="20" height="20" viewBox="0 0 20 20"><defs><style>.cls-1{fill:#6b11c9;fill-rule:evenodd;}</style></defs><title>Artboard 1 copy 105</title><path class="cls-1" d="M12.4171.3157a9.9979,9.9979,0,0,0-4.836,19.4022L7.58,19.7171A9.9976,9.9976,0,1,0,12.4171.3157Zm2.5482,13.9828a5.8861,5.8861,0,0,1-2.0161,1.3853,3.2811,3.2811,0,0,1-1.4991.2508,1.9835,1.9835,0,0,1-1.0368-.4418,4.866,4.866,0,0,1-1.3-1.7186,12.4014,12.4014,0,0,1-.7494-1.8879c-.0158-.05-.0358-.0989-.0538-.1484l-.0318-.0025c-.0329.0731-.07.1446-.098.22-.2345.6323-.4653,1.2659-.7011,1.8977a7.14,7.14,0,0,1-.6626,1.42,1.9177,1.9177,0,0,1-.7542.7532A.7977.7977,0,0,1,4.8938,15.38a1.5914,1.5914,0,0,1,.1967-.8837c.481-.8873.9685-1.7711,1.4528-2.6566.3516-.6429.6941-1.2909,1.0552-1.9284A14.2619,14.2619,0,0,1,8.8857,7.89a4.8744,4.8744,0,0,1,.6172-.6178.4417.4417,0,0,1,.561-.0337.5745.5745,0,0,1,.1688.5482,7.2865,7.2865,0,0,1-.4751,1.305c-.1829.4175-.3787.8293-.5683,1.2439-.01.0221-.0155.0464-.0311.0944a1.9815,1.9815,0,0,0,.2.0183A3.3255,3.3255,0,0,0,11.1829,9.89a3.92,3.92,0,0,0,1.4-1.5259,2.48,2.48,0,0,0,.2689-1.7023,1.6874,1.6874,0,0,0-.9478-1.1812A3.7133,3.7133,0,0,0,10.03,5.1677a4.95,4.95,0,0,0-1.2605.2116A3.1956,3.1956,0,0,0,6.9544,6.8212c-.2276.37-.4433.7485-.6906,1.1048a.99.99,0,0,1-.9244.4543.7184.7184,0,0,1-.715-.8448A2.3964,2.3964,0,0,1,5.2361,6.17a6.0705,6.0705,0,0,1,2.6616-1.82,7.3479,7.3479,0,0,1,2.6231-.4576,5.4331,5.4331,0,0,1,2.0971.41A3.5588,3.5588,0,0,1,14.0293,5.32,2.7877,2.7877,0,0,1,14.67,6.7586a4.7635,4.7635,0,0,1,.0049.9888,2.8732,2.8732,0,0,1-.44,1.1919,5.5984,5.5984,0,0,1-2.3284,2.0648,6.8344,6.8344,0,0,1-1.9076.6808c-.0838.0158-.1017.0569-.0843.1321a5.1785,5.1785,0,0,0,1.1773,2.4369,1.0027,1.0027,0,0,0,.7019.3463,2.9831,2.9831,0,0,0,1.675-.3931,3.4514,3.4514,0,0,0,1.0205-.8752.6387.6387,0,0,1,.5211-.2834.3638.3638,0,0,1,.3676.3656A1.2215,1.2215,0,0,1,14.9653,14.2985Z"></path></svg> 