<?xml version="1.0" encoding="UTF-8"?> <svg xmlns="http://www.w3.org/2000/svg" id="Layer_1" data-name="Layer 1" width="20" height="20" viewBox="0 0 20 20"><defs><style>.cls-1{fill:#6b11c9;fill-rule:evenodd;}</style></defs><title>Artboard 1 copy 110</title><path class="cls-1" d="M11.1559,13.9713,11.13,14.01c-.0214.0363-.0256.0384-.047.0342-.0128-.0022-.1517-.0042-.31-.0042h-.2864l-.062-.0962-.0641-.0962-.047-.0043-.047-.0042-.0021-.2244-.0021-.2244.0512-.0192a1.1388,1.1388,0,0,0,.4787-.3355.8837.8837,0,0,0,.1239-.2458,1.8754,1.8754,0,0,0,.0321-.41.3531.3531,0,0,0-.0663-.2522.3711.3711,0,0,0-.16-.1261l-.0663-.032-.594-.0022a5.034,5.034,0,0,0-.6368.0108.31.31,0,0,0-.22.2179.8472.8472,0,0,0-.0129.2778.82.82,0,0,0,.0215.2778,1.1466,1.1466,0,0,0,.6837.5876l.1176.0513.0021.2222.0022.2223h-.09l-.07.1068-.0684.1068-.2671-.0063c-.1453-.0043-.3077-.0086-.359-.0107l-.0919-.0043-.0085-.0278-.0086-.0278-.2671-.0021-.2671-.0021v.0256a.0469.0469,0,0,0,.0149.0363c.0065.0043.0385.0321.0706.06l.0555.0491.0064.0684c.0043.0364.015.1026.0235.1453l.0171.079.0663-.0063.0662-.0043.015.0619a1.4376,1.4376,0,0,0,.12.3248c.0491.0984.0705.1326.0769.1261,0-.0021.0192-.0277.0384-.0576l.0364-.0556-.0065-.3034c-.0042-.1689-.0064-.3056-.0042-.3077a1.3748,1.3748,0,0,1,.141.0171,5.8265,5.8265,0,0,0,1.4039.03c.1133-.0108.3718-.0449.4082-.0535l.0171-.0043v.592l.0448.0727.0449.0726.0129-.03c.0063-.0171.0533-.13.1046-.2522l.0919-.2243h.0684a.3727.3727,0,0,0,.0684-.0022c0-.0042.0256-.1026.0577-.2244a1.4841,1.4841,0,0,1,.0662-.2222,1.0309,1.0309,0,0,0-.2457-.0086Z"></path><path class="cls-1" d="M8.5062,10.719a1.96,1.96,0,0,0-.6538-.5085,5.882,5.882,0,0,0-1.1305-.5642.9242.9242,0,0,0-.3013-.0556c-.0769,0-.0769,0-.094.0214A.5827.5827,0,0,0,6.26,9.8a2.2306,2.2306,0,0,0-.0086.4423l.0064.0812.06.062a1.6156,1.6156,0,0,0,.4423.297,4.4237,4.4237,0,0,0,1.2842.37,2.4218,2.4218,0,0,0,.421.0107.2318.2318,0,0,0,.15-.0642A.4276.4276,0,0,0,8.5062,10.719Z"></path><path class="cls-1" d="M7.3651,9.14a3.3839,3.3839,0,0,0,.47,0c.0854-.0214.235.0641.3418-.3846s-.4914-.6625-.641-.6839a.706.706,0,0,0-.7693.577C6.6813,9.1826,7.3651,9.14,7.3651,9.14Z"></path><path class="cls-1" d="M12.4081,9.14a3.3839,3.3839,0,0,0,.47,0c.0854-.0214.235.0641.3419-.3846s-.4915-.6625-.6411-.6839a.7059.7059,0,0,0-.7692.577C11.7244,9.1826,12.4081,9.14,12.4081,9.14Z"></path><path class="cls-1" d="M6.3215,6.17C5.4949,4.8766,4.7962,4.87,4.63,4.8893l0,.0024A7.78,7.78,0,0,0,5.224,8.0308,5.1291,5.1291,0,0,1,6.5325,6.5475Z"></path><path class="cls-1" d="M10.032,14.4073l-.5684-.0022v.1218l.064.0321a1.038,1.038,0,0,0,.1133.0448l.0492.015.0277-.0576.0278-.0578.06.0065c.0321.0021.06.0064.06.0064s.03.047.0684.1025c.0726.109.0855.12.1453.1133.0384-.0022.0427-.0086.1731-.15l.06-.0641.0577.047c.0321.0235.062.0491.0684.0513.0063.0042.0342-.0064.0748-.03.094-.0535.0919-.0513.09-.12L10.6,14.4094Z"></path><path class="cls-1" d="M12.4171.3156a9.998,9.998,0,0,0-4.836,19.4023L7.58,19.7171A9.9977,9.9977,0,1,0,12.4171.3156ZM15.8549,11.98a2.5843,2.5843,0,0,1-.0149.3847,2.9474,2.9474,0,0,1-.2351.7671c-.0171.0385-.1453.267-.1773.3162a.2237.2237,0,0,0-.0278.0492.0092.0092,0,0,1-.0086.0085c-.0042,0-.0085.0064-.0085.0107s-.0043.0107-.0086.0107a.0054.0054,0,0,0-.0042.0085.01.01,0,0,1-.0064.0128c-.0086.0022-.0108.0064-.0086.0107s-.0022.0086-.0085.0107-.0108.0085-.0086.0107c.0043.0043-.0022.0107-.0085.0149-.0086.0043-.0128.0086-.0086.0086a3.2469,3.2469,0,0,1-.3141.4189,6.7083,6.7083,0,0,1-.59.5918,7.444,7.444,0,0,1-4.6926,1.8592,8.2317,8.2317,0,0,1-4.2865-1.9446A4.18,4.18,0,0,1,4.01,12.5909,1.49,1.49,0,0,1,3.96,12.169l0,0L3.96,12.15c0-.04.0018-.0826.0038-.1292l.0037-.122-.0018,0,.0029-.0414.0017-.0593.003-.0058c.0047-.0624.01-.1247.0162-.1866a7.8242,7.8242,0,0,1,.8074-2.7221.4577.4577,0,0,0,.0235-.047c-.094-.28-.3462-1.0556-.5513-1.9381-.312-1.3335-.5172-2.91.0854-3.3784A3.53,3.53,0,0,1,6.7433,4.7421,8.6976,8.6976,0,0,1,7.75,5.89c.0192-.0064.0385-.0128.06-.0214A5.7667,5.7667,0,0,1,9.4272,5.55c.203-.0128.8249-.0128.9916,0a6.6725,6.6725,0,0,1,1.6325.3163l.0919.03A8.8293,8.8293,0,0,1,13.1176,4.74a3.3518,3.3518,0,0,1,2.2993-1.218c.5684.4531.3825,1.9617.09,3.2524-.2158.9508-.4872,1.7821-.5534,1.9809l.0085.0171a.7623.7623,0,0,0,.047.09,6.2676,6.2676,0,0,1,.81,2.6027c.0064.0662.015.2009.0192.2971.0043.0639.0086.1279.0107.1706l.0022,0a1.9163,1.9163,0,0,1,.19.0278l-.19-.0278C15.8528,11.9563,15.8528,11.9712,15.8549,11.98Z"></path><path class="cls-1" d="M13.5578,9.5758a.4355.4355,0,0,0-.16,0,2.8289,2.8289,0,0,0-.8462.3419c-.2179.12-.6859.4039-.8013.4872a1.04,1.04,0,0,0-.4167.5c-.0214.0769-.0128.1005.047.13a1.6709,1.6709,0,0,0,.703-.0192,3.5731,3.5731,0,0,0,1.3591-.5129.7211.7211,0,0,0,.2073-.2116,3.51,3.51,0,0,0,.0064-.4508C13.639,9.704,13.5963,9.5907,13.5578,9.5758Z"></path><path class="cls-1" d="M15.1412,4.89v0c-.1712-.0212-.9567-.0185-1.8462,1.6477a5.0923,5.0923,0,0,1,1.2735,1.4937A8.0227,8.0227,0,0,0,15.1412,4.89Z"></path></svg> 