<?xml version="1.0" encoding="UTF-8"?> <svg xmlns="http://www.w3.org/2000/svg" id="Layer_1" data-name="Layer 1" width="20" height="20" viewBox="0 0 20 20"><defs><style>.cls-1{fill:#6b11c9;fill-rule:evenodd;}</style></defs><title>Artboard 1 copy 118</title><path class="cls-1" d="M14.8273,12.3006A4.981,4.981,0,0,1,13.59,12.249a.1031.1031,0,0,0,0,.2062,5.0757,5.0757,0,0,0,1.2372.0516.1031.1031,0,1,0,0-.2062Z"></path><path class="cls-1" d="M6.4245,6.9909c0-.0516-.0515-.1031-.1031-.0516s-.0515.0516-.0515.1031a9.2286,9.2286,0,0,0,3.2992,3.7117c.0516.0515.1031,0,.1547,0,.0515-.0516,0-.1031,0-.1547A8.9635,8.9635,0,0,1,6.4245,6.9909Z"></path><path class="cls-1" d="M12.4171.3156a9.998,9.998,0,0,0-4.836,19.4023L7.58,19.7171A9.9977,9.9977,0,1,0,12.4171.3156Zm3.5443,11.2118L13.59,15.0328c-.8248,1.1857-3.6085.67-6.2376-1.1342a12.9093,12.9093,0,0,1-1.366-1.1528C4.2752,11.1643,3.425,9.458,4.02,8.4468l-.0182-.0125L6.373,4.98c.8248-1.1857,3.6086-.7218,6.2376,1.1341C15.2913,7.8672,16.7347,10.3416,15.9614,11.5274Z"></path><path class="cls-1" d="M12.4045,6.4238C9.9816,4.7226,7.4556,4.2071,6.7338,5.2381S7.4556,8.4343,9.93,10.1355c2.4229,1.7011,4.9489,2.2166,5.6706,1.1856C16.2707,10.29,14.8273,8.125,12.4045,6.4238Zm.9279,3.3508c-.3609.5155-1.5982.2578-2.8353-.5671C9.3114,8.3827,8.59,7.3,8.9505,6.7847s1.5981-.2578,2.8353.567C12.9715,8.1765,13.6932,9.2591,13.3324,9.7746Z"></path></svg> 