<?xml version="1.0" encoding="UTF-8"?> <svg xmlns="http://www.w3.org/2000/svg" id="Layer_1" data-name="Layer 1" width="20" height="20" viewBox="0 0 20 20"><defs><style>.cls-1{fill:#6b11c9;fill-rule:evenodd;}</style></defs><title>Artboard 1 copy 143</title><path class="cls-1" d="M14.6484,8.5574a.36.36,0,0,0,.435-.4881,5.51,5.51,0,0,0-.7454-1.2451,6.8818,6.8818,0,0,0-2.6749-1.9335.3559.3559,0,0,0-.3751.0529,7.3755,7.3755,0,0,1-1.3673.8836,3.8035,3.8035,0,0,0-.5378.3395A1.8269,1.8269,0,0,0,8.9037,8.5a1.3975,1.3975,0,0,0,.5819.6028,5.2293,5.2293,0,0,0,.5882.1916,2.4752,2.4752,0,0,0,1.4612-.2754A3.867,3.867,0,0,1,14.6484,8.5574Z"></path><path class="cls-1" d="M15.457,10.0109a4.0711,4.0711,0,0,0-2.7322.3367,1.1228,1.1228,0,0,0-.5939.5156,2.1007,2.1007,0,0,0,.0622,2.1182,2.2608,2.2608,0,0,0,.7119.65,2.84,2.84,0,0,0,1.4927.2961s.1661-.3233.2394-.4528a5.8053,5.8053,0,0,0,.8284-3.4542A.0106.0106,0,0,0,15.457,10.0109Z"></path><path class="cls-1" d="M12.4171.3157a9.9979,9.9979,0,0,0-4.836,19.4022L7.58,19.7171A9.9976,9.9976,0,1,0,12.4171.3157ZM16.32,9.833c-.1632.13-.3334-.0042-.493.0087a.01.01,0,0,0-.0092.0114,6.1226,6.1226,0,0,1-.8272,3.8116c-.0612.1078-.1238.2264-.1928.3426a3.3778,3.3778,0,0,1-.9013,1.07A6.91,6.91,0,0,1,7.57,15.939a5.8152,5.8152,0,0,1-1.7995-1.12,5.6129,5.6129,0,0,1-1.67-5.41A5.8583,5.8583,0,0,1,5.3592,6.61a5.7925,5.7925,0,0,1,3.28-2.0648l.0028-.0011a8.2941,8.2941,0,0,1,2.1076-.75,1.3847,1.3847,0,0,0,.8591-.7648.01.01,0,0,1,.0185.0013,1.4575,1.4575,0,0,1-.1106,1.3836.01.01,0,0,0,.0046.0137,7.5692,7.5692,0,0,1,3.1049,2.169,5.87,5.87,0,0,1,1.1776,2.5871l.0426.2206.0049.0069c.1831.1025.3948.1751.4722.4092A.012.012,0,0,1,16.32,9.833Z"></path></svg> 