<?xml version="1.0" encoding="UTF-8"?> <svg xmlns="http://www.w3.org/2000/svg" id="Layer_1" data-name="Layer 1" width="20" height="20" viewBox="0 0 20 20"><defs><style>.cls-1{fill:#6b11c9;fill-rule:evenodd;}</style></defs><title>Artboard 1 copy 157</title><path class="cls-1" d="M12.4172.3157a9.9979,9.9979,0,0,0-4.836,19.4022L7.58,19.7171A9.9976,9.9976,0,1,0,12.4172.3157ZM16.1518,12.155a5.8847,5.8847,0,0,1-1.4879,2.3742A6.2291,6.2291,0,0,1,11.5648,16.24c-.4819.1047-.9758.154-1.4644.2285l-.008-.04a6.4669,6.4669,0,0,1-2.5573-.5361,6.4582,6.4582,0,0,1-3.8786-6.162,6.18,6.18,0,0,1,.642-2.5646A6.3312,6.3312,0,0,1,5.6312,5.3408a.78.78,0,0,1,.1675-.0949c.0185.0606.04.1206.0552.1821.1237.51.2217,1.0279.3753,1.5287a6.772,6.772,0,0,0,.8423,1.7347A7.4382,7.4382,0,0,0,9.08,10.7936a10.7487,10.7487,0,0,0,1.2008.7258,7.5727,7.5727,0,0,0,2.602.7493,8.9335,8.9335,0,0,0,2.6037-.1362c.1775-.0325.3519-.0824.5281-.1225C16.1636,11.9761,16.1986,12.0122,16.1518,12.155Zm.18-3.3768a.9486.9486,0,0,1-.1278-.0592,8.5044,8.5044,0,0,0-2.1232-.94c-.324-.1112-.6365-.255-.96-.3691-.4022-.1422-.81-.2679-1.2151-.4028-.4645-.1549-.93-.3059-1.3917-.47q-.7062-.2511-1.4041-.5251A5.6541,5.6541,0,0,1,7.6241,5.21a1.2152,1.2152,0,0,1-.3288-.4149.5.5,0,0,1,.2051-.63,2.7247,2.7247,0,0,1,.8933-.4115,6.4077,6.4077,0,0,1,3.7365.12,6.278,6.278,0,0,1,2.5458,1.62A6.1987,6.1987,0,0,1,16.3277,8.556a.8878.8878,0,0,1,.0184.1222A.5918.5918,0,0,1,16.3322,8.7782Z"></path></svg> 