<?xml version="1.0" encoding="UTF-8"?> <svg xmlns="http://www.w3.org/2000/svg" id="Layer_1" data-name="Layer 1" width="20" height="20" viewBox="0 0 20 20"><defs><style>.cls-1{fill:#6b11c9;fill-rule:evenodd;}</style></defs><title>Artboard 1 copy 158</title><path class="cls-1" d="M12.4171.3157a9.9979,9.9979,0,0,0-4.836,19.4022L7.58,19.7171A9.9976,9.9976,0,1,0,12.4171.3157Zm.9766,13.7457a2.1611,2.1611,0,0,1-1.0153,1.0154,3.2864,3.2864,0,0,1-1.4623.3384,2.2486,2.2486,0,0,1-1.6923-.5585,1.7242,1.7242,0,0,1-.5313-1.2034.7984.7984,0,0,1,.0931-.3977.688.688,0,0,1,.2538-.254.8853.8853,0,0,1,.79,0,.6767.6767,0,0,1,.2523.254.781.781,0,0,1,.0964.3977.759.759,0,0,1-.1354.4654.63.63,0,0,1-.3216.2354.8779.8779,0,0,0,.5077.3165,2.5171,2.5171,0,0,0,.6921.1,1.5425,1.5425,0,0,0,.8715-.2606,1.5225,1.5225,0,0,0,.5686-.77,3.3443,3.3443,0,0,0,.1861-1.1523,3.1608,3.1608,0,0,0-.203-1.1982,1.4793,1.4793,0,0,0-.5872-.7446,1.5617,1.5617,0,0,0-.846-.242,1.6093,1.6093,0,0,0-.7328.2488l-.5433.2724v-.2724L12.077,7.3757H8.6925V10.775a1.2153,1.2153,0,0,0,.1862.6955.6412.6412,0,0,0,.5685.2725.9518.9518,0,0,0,.5618-.198,2.0288,2.0288,0,0,0,.47-.484.168.168,0,0,1,.0612-.0812.1254.1254,0,0,1,.0816-.03.2827.2827,0,0,1,.159.0677.3383.3383,0,0,1,.0863.23,1.3493,1.3493,0,0,1-.03.1693,1.6392,1.6392,0,0,1-.58.7206,1.44,1.44,0,0,1-.8142.2473A2.1045,2.1045,0,0,1,7.92,11.9511a1.6219,1.6219,0,0,1-.42-1.1846V7.3757H5.7784V6.7441H7.5079V5.304l-.396-.3963V4.5848h1.149l.4316.2234V6.7441l4.4708-.0136.4452.4467L10.867,9.932a1.8408,1.8408,0,0,1,.5178-.1252,2.2449,2.2449,0,0,1,1.002.286,2.0575,2.0575,0,0,1,.8631.77,2.7176,2.7176,0,0,1,.3892.9291,3.9068,3.9068,0,0,1,.0931.7954A3.3266,3.3266,0,0,1,13.3937,14.0614Z"></path></svg> 