<?xml version="1.0" encoding="UTF-8"?> <svg xmlns="http://www.w3.org/2000/svg" id="Layer_1" data-name="Layer 1" width="20" height="20" viewBox="0 0 20 20"><defs><style>.cls-1{fill:#6b11c9;fill-rule:evenodd;}</style></defs><title>Artboard 1 copy 154</title><path class="cls-1" d="M9.9984,6.6116a2.38,2.38,0,1,0,2.38,2.38A2.3726,2.3726,0,0,0,9.9984,6.6116Z"></path><path class="cls-1" d="M12.4171.3157a9.9979,9.9979,0,0,0-4.836,19.4022L7.58,19.7171A9.9976,9.9976,0,1,0,12.4171.3157ZM6.4286,8.9915a3.57,3.57,0,1,1,3.57,3.57A3.5708,3.5708,0,0,1,6.4286,8.9915Zm6.9723,4.5924-2.38,2.38a.5916.5916,0,0,1-.8367-.8367l2.38-2.38a.5916.5916,0,0,1,.8367.8367Zm.7809-6.9723a.595.595,0,1,1,0-1.19.5992.5992,0,0,1,.595.5951A.5874.5874,0,0,1,14.1818,6.6116Z"></path></svg> 