<?xml version="1.0" encoding="UTF-8"?> <svg xmlns="http://www.w3.org/2000/svg" id="Layer_1" data-name="Layer 1" width="20" height="20" viewBox="0 0 20 20"><defs><style>.cls-1{fill:#6b11c9;fill-rule:evenodd;}</style></defs><title>Artboard 1 copy 120</title><path class="cls-1" d="M12.4171.3156a9.998,9.998,0,0,0-4.836,19.4023L7.58,19.7171A9.9977,9.9977,0,1,0,12.4171.3156Zm2.5111,12.4383a2.8184,2.8184,0,0,1-2.1876,2.27,3.8344,3.8344,0,0,1-.9426.1056c-1.495.0128-2.99.0114-4.4854.0113-.7537,0-.9883-.2424-.9884-1.0052q0-1.1709,0-2.342h-.02q0-2.9957,0-5.9914c0-.7277.2154-.9408.9491-.9415,1.1643-.0011,2.3287-.0047,3.4931.0007a3.0376,3.0376,0,0,1,2.8684,4.3609c-.125.2884.0148.3692.1856.5038A2.91,2.91,0,0,1,14.9282,12.7539Z"></path></svg> 