<?xml version="1.0" encoding="UTF-8"?> <svg xmlns="http://www.w3.org/2000/svg" id="Layer_1" data-name="Layer 1" width="20" height="20" viewBox="0 0 20 20"><defs><style>.cls-1{fill:#6b11c9;fill-rule:evenodd;}</style></defs><title>Artboard 1 copy 121</title><polygon class="cls-1" points="9.498 14.568 10.105 9.362 5.908 5.8 9.498 14.568"></polygon><polygon class="cls-1" points="12.903 6.664 6.45 5.474 10.438 8.743 12.903 6.664"></polygon><polygon class="cls-1" points="10.214 14.565 14.881 8.942 10.798 9.6 10.214 14.565"></polygon><path class="cls-1" d="M12.4171.3156a9.998,9.998,0,0,0-4.836,19.4023L7.58,19.7171A9.9977,9.9977,0,1,0,12.4171.3156Zm3.5055,8.4837c-.5491.701-5.9771,7.2836-5.9771,7.2836s-.3036.401-.3748.401h-.03c-.1331-.0112-.2043-.2324-.2418-.3486-.6223-1.7131-3.7823-9.0135-4.5827-11.242V4.74l.0094-.0244a.417.417,0,0,1,.0975-.1574L4.8587,4.53a.2643.2643,0,0,1,.1087-.0412c.1387-.0168,7.2479,1.312,8.7754,1.597a.7144.7144,0,0,1,.2081.1161l.0375.0262C14.6219,6.79,15.4,7.5829,15.962,8.1021a.4517.4517,0,0,1,.1481.42A1.7629,1.7629,0,0,1,15.9226,8.7993Z"></path><polygon class="cls-1" points="11.338 8.869 15.014 8.2 13.655 6.947 11.338 8.869"></polygon></svg> 