<?xml version="1.0" encoding="UTF-8"?> <svg xmlns="http://www.w3.org/2000/svg" id="Layer_1" data-name="Layer 1" width="20" height="20" viewBox="0 0 20 20"><defs><style>.cls-1{fill:#6b11c9;fill-rule:evenodd;}</style></defs><title>Artboard 1 copy 126</title><path class="cls-1" d="M12.4171.3156a9.998,9.998,0,0,0-4.836,19.4023L7.58,19.7171A9.9977,9.9977,0,1,0,12.4171.3156ZM7.5264,11.31a.239.239,0,0,1-.2386.2386H4.0254a.2389.2389,0,0,1-.2385-.2386V8.6269a.1838.1838,0,0,1,.1849-.18h.5259a.18.18,0,0,1,.18.18v2.04H6.6548v-2.04a.18.18,0,0,1,.18-.18h.5112a.18.18,0,0,1,.18.18Zm4.3921.0633a.1717.1717,0,0,1-.17.18h-.5259a.18.18,0,0,1-.18-.18V9.99l-.92.5745a.2374.2374,0,0,1-.2533,0L8.9531,9.99v1.3828a.18.18,0,0,1-.18.18h-.521a.18.18,0,0,1-.18-.18V8.7048A.2389.2389,0,0,1,8.31,8.4662a.2135.2135,0,0,1,.1315.0438l1.4511.9982a.168.168,0,0,0,.2,0L11.5436,8.51a.241.241,0,0,1,.3311.0633.2651.2651,0,0,1,.0438.1315Zm2.8631-.7693a.18.18,0,0,1-.18.18H14.08a.18.18,0,0,1-.18-.18v-.5356a.1788.1788,0,0,1,.18-.1753h.5211a.18.18,0,0,1,.18.18Zm1.4316.7645a.1787.1787,0,0,1-.1753.18H15.512a.18.18,0,0,1-.18-.18V9.4449a.1185.1185,0,0,0-.1168-.1169H13.4767a.1186.1186,0,0,0-.1169.1169v1.9234a.18.18,0,0,1-.18.18h-.5259a.18.18,0,0,1-.18-.18V8.6853a.239.239,0,0,1,.2386-.2386h3.2624a.239.239,0,0,1,.2386.2386Z"></path></svg> 