<?xml version="1.0" encoding="UTF-8"?> <svg xmlns="http://www.w3.org/2000/svg" id="Layer_1" data-name="Layer 1" width="20" height="20" viewBox="0 0 20 20"><defs><style>.cls-1{fill:#6b11c9;fill-rule:evenodd;}</style></defs><title>Artboard 1 copy 155</title><path class="cls-1" d="M9.55,13.5352c.0011.03.0008.0553.0019.0856a3.3361,3.3361,0,0,0,.0877.7912.4966.4966,0,0,0,.2322.2578.8044.8044,0,0,0,.3974-.4732,3.0492,3.0492,0,0,0,.1339-.6553,4.3392,4.3392,0,0,1-.505.03C9.7759,13.5711,9.6665,13.5458,9.55,13.5352Z"></path><path class="cls-1" d="M7.5287,8.0644a3.0245,3.0245,0,0,0-.36,1.4989,3.7681,3.7681,0,0,0,.4405,1.7783,3.6782,3.6782,0,0,0,.78.9866c.0239-.73.0375-1.4911.0375-2.2923,0-.69-.0209-1.6556-.06-2.8644A2.5058,2.5058,0,0,0,7.5287,8.0644Z"></path><path class="cls-1" d="M9.7475,6.7482c-.0555,0-.1066.0172-.1613.0207Q9.52,7.73,9.52,9.4056q0,2.3.0041,2.9094c.0015.2307.01.49.0158.7378a2.6265,2.6265,0,0,0,.82.1315c.0266,0,.0517-.009.078-.01.0143-.1842.0263-.3834.0345-.608q.0439-1.1988.0439-2.53c0-.75-.0242-1.82-.0707-3.1841A2.606,2.606,0,0,0,9.7475,6.7482Z"></path><path class="cls-1" d="M10.4229,6.4055a2.8415,2.8415,0,0,0-.11-.7178.6473.6473,0,0,0-.332-.3294.6193.6193,0,0,0-.1979.2058,2.7657,2.7657,0,0,0-.1657.8378,3.7114,3.7114,0,0,1,.4686-.03A3.3226,3.3226,0,0,1,10.4229,6.4055Z"></path><path class="cls-1" d="M11.91,7.8038a3.2613,3.2613,0,0,0-.2715-.2632c-.0187.5247-.029,1.1393-.029,1.865q0,2.3.004,2.9094c.0009.1556.0076.3343.0106.4976a2.3627,2.3627,0,0,0,.8311-.8694,3.1245,3.1245,0,0,0,.36-1.5633,4.1362,4.1362,0,0,0-.239-1.4075A3.73,3.73,0,0,0,11.91,7.8038Z"></path><path class="cls-1" d="M12.4171.3157a9.9979,9.9979,0,0,0-4.836,19.4022L7.58,19.7171A9.9976,9.9976,0,1,0,12.4171.3157Zm.7365,11.4315a3.5626,3.5626,0,0,1-1.33,1.33c-.0621.0361-.1284.0625-.1922.0946.0039.1528.0041.29.0095.4494a3.34,3.34,0,0,0,.0878.7912.571.571,0,0,0,.3909.347,3.4018,3.4018,0,0,0,1.0293.1237l-.0319.3032q-.1118,0-.4429-.012t-.686-.02q-.3552-.008-.5466-.012t-.4388-.0039q-.351,0-.5864.0039c-.01,0-.0407-.0035-.0622-.0054-.3241,0-.8955.0076-1.0022.0054q-.1914-.004-.4388-.0039-.351,0-.5864.0039t-.6263.012q-.3909.008-.7061.02t-.3789.012L6.6,14.8827a3.3986,3.3986,0,0,0,1.1648-.2.8049.8049,0,0,0,.4149-.4866,4.1086,4.1086,0,0,0,.1659-.991A3.4208,3.4208,0,0,1,7.29,12.3784a3.85,3.85,0,0,1-.693-1.1738,3.5824,3.5824,0,0,1-.2283-1.233,3.3349,3.3349,0,0,1,.5184-1.8051,3.7948,3.7948,0,0,1,1.378-1.3108c.03-.0167.06-.0279.09-.0437-.0028-.0814-.0048-.1524-.0078-.236a3.14,3.14,0,0,0-.1236-.8883.6925.6925,0,0,0-.4468-.3949,3.4759,3.4759,0,0,0-1.0811-.1356V4.8141q.9016.0479,1.125.0638.8137.032,1.093.032c.0488,0,.9854.0247,1.6428.0269.384-.0177.9588-.0451,1.2766-.0589q.734-.0318,1.38-.0638v.375a3.9619,3.9619,0,0,0-.9574.0757.63.63,0,0,0-.3829.2993A3.919,3.919,0,0,0,11.6749,6.78a3.7346,3.7346,0,0,1,.85.5723,3.4248,3.4248,0,0,1,.8059,1.1362,3.6529,3.6529,0,0,1-.1773,3.2584Z"></path></svg> 