<?xml version="1.0" encoding="UTF-8"?> <svg xmlns="http://www.w3.org/2000/svg" id="Layer_1" data-name="Layer 1" width="20" height="20" viewBox="0 0 20 20"><defs><style>.cls-1{fill:#6b11c9;fill-rule:evenodd;}</style></defs><title>Artboard 1 copy 128</title><path class="cls-1" d="M12.4171.3157a9.9979,9.9979,0,0,0-4.836,19.4022L7.58,19.7171A9.9976,9.9976,0,1,0,12.4171.3157ZM8.3878,15.84c0,.0717,0,.1075-.0358.1433a.2178.2178,0,0,1-.3224.1434,6.447,6.447,0,0,1,0-12.2884.2154.2154,0,0,1,.1433-.0358.2724.2724,0,0,1,.2149.2866V4.59a.36.36,0,0,1-.2149.3583,5.361,5.361,0,0,0,0,10.0671.4774.4774,0,0,1,.2149.3225Zm2.1855-1.8271c-.0359.1791-.1434.2866-.2867.2866H9.7492c-.1791-.0358-.2866-.1433-.2866-.2866v-.86a2.001,2.001,0,0,1-1.8987-1.72v-.0359a.2448.2448,0,0,1,.2507-.2508h.6091a.2617.2617,0,0,1,.2507.215c.1075.5373.43.9315,1.3614.9315.6807,0,1.1823-.3941,1.1823-.9673s-.3224-.7882-1.3256-.9673c-1.5047-.1792-2.2212-.6449-2.2212-1.8271A1.8269,1.8269,0,0,1,9.4268,6.7757v-.824c.0358-.1792.1433-.2867.2866-.2867h.5374c.1791.0358.2866.1433.2866.2867v.86A1.79,1.79,0,0,1,12.15,8.28v.0359a.2448.2448,0,0,1-.2507.2507h-.5732a.2693.2693,0,0,1-.2508-.1791,1.06,1.06,0,0,0-1.1823-.7523c-.7165,0-1.0747.3223-1.0747.8239s.2149.7883,1.29.9316c1.5047.179,2.257.609,2.257,1.8629a1.9625,1.9625,0,0,1-1.7912,1.8988Zm1.3972,2.15a.2158.2158,0,0,1-.1434.0358.2724.2724,0,0,1-.2149-.2866V15.41a.36.36,0,0,1,.2149-.3584,5.361,5.361,0,0,0,0-10.067.4756.4756,0,0,1-.2149-.3583V4.1245c0-.0717,0-.1074.0358-.1433a.2179.2179,0,0,1,.3225-.1433,6.4746,6.4746,0,0,1,0,12.3242Z"></path></svg> 