<?xml version="1.0" encoding="UTF-8"?> <svg xmlns="http://www.w3.org/2000/svg" id="Layer_1" data-name="Layer 1" width="20" height="20" viewBox="0 0 20 20"><defs><style>.cls-1{fill:#6b11c9;fill-rule:evenodd;}</style></defs><title>Artboard 1 copy 129</title><path class="cls-1" d="M12.4171.3157a9.9979,9.9979,0,0,0-4.836,19.4022L7.58,19.7171A9.9976,9.9976,0,1,0,12.4171.3157ZM11.9713,13.49l-1.8636,2.9731a.1139.1139,0,0,1-.0412.0389.1167.1167,0,0,1-.1123,0,.115.115,0,0,1-.0413-.0389L3.4786,6.2071a.1124.1124,0,0,1,.0389-.16.1141.1141,0,0,1,.06-.016H7.3181a.1155.1155,0,0,1,.0573.0137.1133.1133,0,0,1,.0412.039l4.5547,7.2825A.1118.1118,0,0,1,11.9713,13.49Zm4.5548-7.2824-2.5032,3.9976a.1136.1136,0,0,1-.0413.039.1167.1167,0,0,1-.1123,0,.1133.1133,0,0,1-.0412-.039L11.3226,6.2071a.1126.1126,0,0,1,.039-.16.1135.1135,0,0,1,.0573-.016H16.43a.114.114,0,0,1,.06.016.1162.1162,0,0,1,.0367.0435.1179.1179,0,0,1,.0137.06A.1157.1157,0,0,1,16.5261,6.2071Z"></path></svg> 