<?xml version="1.0" encoding="UTF-8"?> <svg xmlns="http://www.w3.org/2000/svg" id="Layer_1" data-name="Layer 1" width="20" height="20" viewBox="0 0 20 20"><defs><style>.cls-1{fill:#6b11c9;fill-rule:evenodd;}</style></defs><title>Artboard 1 copy 158</title><path class="cls-1" d="M12.4171.3157a9.9979,9.9979,0,0,0-4.836,19.4022L7.58,19.7171A9.9976,9.9976,0,1,0,12.4171.3157Zm-1.6089,15.246a.9269.9269,0,0,1-1.6644,0L3.921,4.93a.27.27,0,0,1,.0915-.3352.2538.2538,0,0,1,.1149-.0415h1.84l.005,0a.2594.2594,0,0,1,.22.1394l3.8142,7.7175a.926.926,0,0,0,1.6638,0l3.802-7.7114a.26.26,0,0,1,.2308-.14h.2246a.1754.1754,0,0,1,.1582.2552Z"></path></svg> 