<?xml version="1.0" encoding="UTF-8"?> <svg xmlns="http://www.w3.org/2000/svg" id="Layer_1" data-name="Layer 1" width="20" height="20" viewBox="0 0 20 20"><defs><style>.cls-1{fill:#6b11c9;fill-rule:evenodd;}</style></defs><title>Artboard 1 copy 131</title><path class="cls-1" d="M12.4171.3157a9.9979,9.9979,0,0,0-4.836,19.4022L7.58,19.7171A9.9976,9.9976,0,1,0,12.4171.3157ZM16.2778,5.704c-.0665.1283-.1363.2549-.2047.3823l-.0641.1192-.0152.027a.1922.1922,0,0,1-.0936.201l-.0054.01a.1913.1913,0,0,1-.0972.2109l-.0077.01c-.0019.0886-.0144.1709-.1109.2059-.0033.09-.01.1777-.1133.2128.0037.0929-.0043.18-.11.2161.0022.0925-.0026.1815-.112.2149.0117.0965.0119.1873-.1071.22-.3709,1.0341-.9154,1.9885-1.3723,2.9831-.6175,1.3443-1.253,2.6805-1.8935,4.014a2.061,2.061,0,0,1-1.9085,1.2948,2.257,2.257,0,0,1-2.0683-1.26A76.2839,76.2839,0,0,1,4.1307,6.9206c-.16-.383-.333-.7607-.48-1.1484-.1634-.43-.04-.6359.4016-.6476a18.2114,18.2114,0,0,1,1.843.0081,1.5958,1.5958,0,0,1,1.4388.9781c.863,1.8862,1.7582,3.7577,2.6426,5.6341a2.1621,2.1621,0,0,0,.14.224Q11.4035,9.1995,12.69,6.43A1.8536,1.8536,0,0,1,14.8192,5.152c.3588.0234.721-.0026,1.0815-.0116C16.4667,5.1264,16.53,5.218,16.2778,5.704Z"></path></svg> 