<?xml version="1.0" encoding="UTF-8"?> <svg xmlns="http://www.w3.org/2000/svg" id="Layer_1" data-name="Layer 1" width="20" height="20" viewBox="0 0 20 20"><defs><style>.cls-1{fill:#6b11c9;fill-rule:evenodd;}</style></defs><title>Artboard 1 copy 132</title><path class="cls-1" d="M4.8408,11.9161a.455.455,0,0,0-.4357.4531.4855.4855,0,0,0,.4573.4618.4577.4577,0,0,0-.0216-.9149Z"></path><path class="cls-1" d="M14.61,7.01a.4454.4454,0,0,0,.44-.4432.4483.4483,0,1,0-.8962.0161A.4468.4468,0,0,0,14.61,7.01Z"></path><path class="cls-1" d="M12.4171.3157a9.9979,9.9979,0,0,0-4.836,19.4022L7.58,19.7171A9.9976,9.9976,0,1,0,12.4171.3157Zm3.5885,11.2766a5.9784,5.9784,0,0,1-1.9691,3.2562c-.0428.0362-.0892.0679-.134.1018a5.8074,5.8074,0,0,1-1.7964,1.0077,5.9766,5.9766,0,0,1-2.52.3327,6.1974,6.1974,0,0,1-3.31-1.3009.2357.2357,0,0,1-.0351-.0425,5.68,5.68,0,0,1-1.4644-1.7418.574.574,0,0,0-.2538-.2623.6609.6609,0,0,1,.4333-1.2249.6251.6251,0,0,1,.5554.6525.941.941,0,0,0,.2361.6986,4.8079,4.8079,0,0,0,.74.91,4.9018,4.9018,0,0,0,1.0283.7453c.0538.03.1033.0669.1549.1007a1.6035,1.6035,0,0,1,.4123.1665,5.5186,5.5186,0,0,0,1.281.3592,7.096,7.096,0,0,0,1.3163.0354,3.3688,3.3688,0,0,0,.84-.185,9.2556,9.2556,0,0,0,.9314-.3739,5.8748,5.8748,0,0,0,1.6028-1.2767,4.5634,4.5634,0,0,0,1.0418-2.4465,6.3611,6.3611,0,0,0-.0234-1.7016c-.0157-.11-.0541-.1424-.1653-.1411-.4635.0055-.9275.01-1.3907-.0051a.4744.4744,0,0,0-.4516.2388c-.1233.1921-.2435.3863-.3663.5787q-1.3212,2.0693-2.643,4.138c-.1315.2056-.1469.2059-.289.0026-.76-1.0881-1.5278-2.1713-2.2742-3.2688a.7371.7371,0,0,0-.709-.36c-.9267.0207-1.8542.0041-2.7814.0022-.0746,0-.1468.0145-.1522-.1049A6.4074,6.4074,0,0,1,4.3955,7.26a5.8764,5.8764,0,0,1,.9721-1.5312,6.1316,6.1316,0,0,1,7.0592-1.507,5.87,5.87,0,0,1,2.1408,1.5861.37.37,0,0,0,.1985.1256.6224.6224,0,0,1,.4843.7.63.63,0,0,1-.65.5937.6481.6481,0,0,1-.6523-.6031.475.475,0,0,0-.1351-.295A5.2331,5.2331,0,0,0,9.7364,4.5971a2.7687,2.7687,0,0,0-.6707.0471,5.8661,5.8661,0,0,0-1.814.7059,6.7568,6.7568,0,0,0-1.3079,1.11,3.8871,3.8871,0,0,0-.5227.7927c-.0319.06-.07.1167-.1055.1749a5.7246,5.7246,0,0,0-.5383,2.0127c-.0133.1554.0317.1889.1791.1879.89-.0063,1.78.0007,2.6693-.0065a.4308.4308,0,0,1,.4037.21c.5663.8342,1.1425,1.6616,1.715,2.4916.126.1826.1251.1827.248-.0089.7769-1.2106,1.5582-2.4185,2.3019-3.65.0355-.0586.0647-.1211.1-.18a.3473.3473,0,0,1,.3175-.1925q1.532.0039,3.0639.0022a.1282.1282,0,0,1,.1515.1185A6.6884,6.6884,0,0,1,16.0056,11.5923Z"></path></svg> 