<?xml version="1.0" encoding="UTF-8"?> <svg xmlns="http://www.w3.org/2000/svg" id="Layer_1" data-name="Layer 1" width="20" height="20" viewBox="0 0 20 20"><defs><style>.cls-1{fill:#6b11c9;fill-rule:evenodd;}</style></defs><title>Artboard 1 copy 133</title><path class="cls-1" d="M12.4171.3157a9.9979,9.9979,0,0,0-4.836,19.4022L7.58,19.7171A9.9976,9.9976,0,1,0,12.4171.3157Zm3.8571,9.6968c-.02-.0051-.0254.0138-.0348.0232Q13.2,13.0741,10.1611,16.1133c-.0473.0473-.0952.094-.1426.1412-.0051.0051-.0159.0095-.0059.02H9.9875c0-.0181-.0142-.0268-.0249-.0374Q6.8564,13.13,3.75,10.0239c-.0069-.0069-.0113-.0182-.0239-.0176V9.9875c.02.0074.0242-.0123.0328-.0209Q6.8634,6.8633,9.967,3.7591l.0238-.025c.0033-.0037.0023-.0073-.0033-.0082h.0251c-.0065.0194.0125.024.0213.0327Q13.137,6.863,16.241,9.9665l.0249.0238c.0035.0032.0072.003.0083-.0028Z"></path></svg> 