<?xml version="1.0" encoding="UTF-8"?> <svg xmlns="http://www.w3.org/2000/svg" id="Layer_1" data-name="Layer 1" width="20" height="20" viewBox="0 0 20 20"><defs><style>.cls-1{fill:#6b11c9;fill-rule:evenodd;}</style></defs><title>Artboard 1 copy 134</title><path class="cls-1" d="M12.4171.3157a9.9979,9.9979,0,0,0-4.836,19.4022L7.58,19.7171A9.9976,9.9976,0,1,0,12.4171.3157Zm3.3162,8.2506,1.3363.0011-1.3352,1.13-.6622-.5678Zm-.01,2.896-.996-.8529-.9924.8493H12.548l-.5672-.6889H10.0256l.4947-.6113h.9616L10.75,9.2629,8.1927,12.3757H7.0066l.74-.9039H6.5107L5.8425,9.5985,5.18,11.4575H3.9258L2.8728,8.54H3.835l.708,1.9873.7055-1.9784H6.4364L7.14,10.5227l.7031-1.9749h.9652l-1.062,2.924.2364-.2887,2.1691-2.64h1.1938l1.8049,2.2023.8684-.7466L11.2711,7.6242h1.41l4.4456,3.8381Z"></path></svg> 