<?xml version="1.0" encoding="UTF-8"?> <svg xmlns="http://www.w3.org/2000/svg" id="Layer_1" data-name="Layer 1" width="20" height="20" viewBox="0 0 20 20"><defs><style>.cls-1{fill:#6b11c9;fill-rule:evenodd;}</style></defs><title>Artboard 1 copy 185</title><path class="cls-1" d="M12.4171.3156a9.998,9.998,0,0,0-4.836,19.4023L7.58,19.7171A9.9977,9.9977,0,1,0,12.4171.3156ZM14.48,6.0838c.3158.1688.6209.3575.9343.5308a.3982.3982,0,0,1,.2334.4c-.0125.3478-.0072.6964-.0053,1.0446a.2392.2392,0,0,1-.15.2509c-.3079.1568-.6014.3419-.9019.5135-.0529.03-.112.05-.2176.0952,0-.4327-.0079-.8093.0035-1.1853a.36.36,0,0,0-.209-.3645c-.3363-.19-.6635-.3953-1.0125-.6053a.7268.7268,0,0,1,.1177-.1219c.3221-.19.6436-.3817.9728-.5588A.2887.2887,0,0,1,14.48,6.0838ZM6.7819,5.3432C7.8025,4.7553,8.8248,4.17,9.843,3.5784a.2971.2971,0,0,1,.3383.0034q1.52.8823,3.0434,1.7577c.1861.1074.1927.1827.0133.2888-.2973.1759-.6.3432-.9011.5122a1.2435,1.2435,0,0,1-.1512.0592,1.8431,1.8431,0,0,1-.17-.0773c-.6033-.3475-1.2079-.6929-1.8066-1.0482a.34.34,0,0,0-.3951-.0015c-.6.3532-1.2114.6873-1.8106,1.0421a.3208.3208,0,0,1-.3764-.0019c-.2779-.1657-.5648-.3164-.8463-.4765C6.6031,5.5355,6.604,5.4457,6.7819,5.3432Zm4.4337,1.4224c-.1137.0713-.2071.1326-.3029.19-.2408.1432-.4794.2911-.7264.4229a.3424.3424,0,0,1-.26.0422c-.3813-.1966-.752-.4139-1.1643-.6455A2.42,2.42,0,0,1,9.02,6.5661c.2789-.1626.5605-.3209.8462-.4713a.2787.2787,0,0,1,.2153-.0318c.3528.1924.6975.4,1.0437.6042C11.1489,6.6811,11.1643,6.7088,11.2156,6.7656Zm-6.8581.9229c.0379-.2407-.0087-.4936.015-.7378a.4436.4436,0,0,1,.1617-.2977c.3243-.2117.6655-.3977,1.0032-.5882a.1714.1714,0,0,1,.1411-.0138c.3717.2162.7394.4393,1.1075.6617.01.0059.0114.0249.0321.0741-.24.143-.4853.2888-.7305.4342a.34.34,0,0,1-.04.0161.6168.6168,0,0,0-.428.7216,4.2,4.2,0,0,1,.0089.6734,2.8438,2.8438,0,0,1-.04.2994c-.2774-.156-.5148-.3148-.7722-.4282A.6786.6786,0,0,1,4.3575,7.6885Zm3.47,7.5775c-.2148-.1175-.3955-.2115-.5716-.3135-.8778-.508-1.7523-1.0219-2.6332-1.5245a.4543.4543,0,0,1-.263-.4487c.0088-1.1388.002-2.2777.0028-3.4166a2.271,2.271,0,0,1,.0344-.2641c.2759.1574.5205.29.758.4338.5851.3544.4677.1767.4761.837q.011.87.0033,1.7409a.3222.3222,0,0,0,.1731.3191c.6.3427,1.1945.6941,1.7969,1.0321a.3818.3818,0,0,1,.226.38C7.821,14.4308,7.8274,14.8208,7.8274,15.266ZM6.5445,10.5611c.2128.1113.3829.1986.5514.2888.1457.078.2911.1567.4339.2395a.4848.4848,0,0,1,.2984.4953c-.0244.3016.0023.607.0016.9107a1.35,1.35,0,0,1-.0446.2242c-.1957-.1059-.365-.1941-.5309-.2882-.15-.0851-.2914-.1869-.4458-.2625a.4417.4417,0,0,1-.2679-.4673C6.5552,11.3415,6.5445,10.98,6.5445,10.5611ZM11.26,15.6839a.274.274,0,0,1-.124.1824c-.3235.2-.65.397-.9855.5764a.3528.3528,0,0,1-.2839.0006c-.3375-.174-.6676-.3637-.992-.5613a.299.299,0,0,1-.1259-.2091c-.0141-.4047-.0108-.81-.0107-1.215,0-.0251.0238-.05.0486-.0992.1526.087.2989.171.4458.2537a5.0235,5.0235,0,0,0,.5843.3175.5152.5152,0,0,0,.3748.001c.3024-.1484.5884-.331.8773-.5059.1382-.0837.1959-.0155.198.1078C11.2735,14.9165,11.2731,15.3005,11.26,15.6839Zm.0241-4.7522q-.0255,1.0332-.0112,2.0672a.3839.3839,0,0,1-.2285.3963,6.3981,6.3981,0,0,0-.8166.4758c-.2216.161-.385.0407-.5545-.0529-.2647-.1462-.5114-.3256-.7783-.4671a.282.282,0,0,1-.1648-.2946c.0042-.3554.0014-.7109.0014-1.0664H8.7256c0-.3482-.0061-.6965.0028-1.0445a.3118.3118,0,0,0-.18-.3122c-.6131-.3479-1.2209-.7051-1.8341-1.0526a.3066.3066,0,0,1-.1763-.3113c.0105-.3552-.0055-.7114.0138-1.0659a.3949.3949,0,0,1,.1549-.2724c.3208-.2064.653-.3966.9907-.5743a.3384.3384,0,0,1,.277.01c.6182.3473,1.2305.705,1.8414,1.0652a.3347.3347,0,0,0,.38,0q.9274-.5453,1.8663-1.0711a.316.316,0,0,1,.2592-.0059c.33.1766.6561.3636.97.5671a.4.4,0,0,1,.1642.27,10.11,10.11,0,0,1,.006,1.0872.4153.4153,0,0,1-.1653.294c-.61.3647-1.2349.7052-1.8453,1.0695A.4044.4044,0,0,0,11.2844,10.9317Zm2.1686-.0467c.0016.3114.0063.6232-.009.9339a.3628.3628,0,0,1-.1142.26c-.3285.2075-.6714.3926-1.01.5839a.434.434,0,0,1-.1068.021,2.5546,2.5546,0,0,1-.028-.2584c-.0023-.2824.0135-.5656-.0018-.8472a.4287.4287,0,0,1,.2388-.46c.3268-.1729.6449-.3621,1.0043-.5658C13.4379,10.6907,13.4525,10.7878,13.453,10.885Zm2.2032,2.1037a.4243.4243,0,0,1-.2381.4186q-1.4006.7935-2.796,1.5958c-.13.0741-.2556.1542-.4384.2649a5.7637,5.7637,0,0,0-.0067-.8181.83.83,0,0,1,.56-.9923c.4637-.2094.89-.5,1.3384-.7453a.5.5,0,0,0,.3037-.5135c-.0238-.6593-.0155-1.32-.0038-1.98a.3877.3877,0,0,1,.1474-.277c.3413-.2226.6977-.4217,1.097-.658a2.9752,2.9752,0,0,1,.0371.31C15.6567,10.7253,15.6492,11.857,15.6562,12.9887Z"></path></svg> 