<?xml version="1.0" encoding="UTF-8"?> <svg xmlns="http://www.w3.org/2000/svg" id="Layer_1" data-name="Layer 1" width="20" height="20" viewBox="0 0 20 20"><defs><style>.cls-1{fill:#6b11c9;fill-rule:evenodd;}</style></defs><title>Artboard 1 copy 136</title><path class="cls-1" d="M12.0323,9.8621c.031.0206.0433.0361.0769.0083.04-.0331.0529-.0711.0148-.1039a1.4074,1.4074,0,0,0-.2394-.1812,2.56,2.56,0,0,0-1.4-.3186,1.3385,1.3385,0,0,0-.9937.3033,5.8821,5.8821,0,0,1,.985-.1224A3.0336,3.0336,0,0,1,12.0323,9.8621Z"></path><path class="cls-1" d="M7.65,8.02a2.0846,2.0846,0,0,1-.4563.7749.0709.0709,0,0,0-.0007.1115,1.6428,1.6428,0,0,1,.4613.74c.1123-.3147.1547-.5874.412-.739.07-.041.052-.1264-.0053-.1736A1.5828,1.5828,0,0,1,7.65,8.02Z"></path><path class="cls-1" d="M9.2683,10.3036c.0455.0961.13.0289.197.0109.1133-.03.2243-.0709.3388-.0956a1.5819,1.5819,0,0,1,1.4344.226.2441.2441,0,0,0,.1883.0489,2.5083,2.5083,0,0,1,.781.06.5207.5207,0,0,0-.2123-.3146A2.5948,2.5948,0,0,0,9.51,9.9908a.8944.8944,0,0,0-.1621.1155C9.29,10.1576,9.2336,10.23,9.2683,10.3036Z"></path><path class="cls-1" d="M11.29,7.7944a2.1764,2.1764,0,0,0-1.58.514c-.1251.0965-.279.2528-.2.4515a.3835.3835,0,0,0,.4.21,3.3028,3.3028,0,0,0,.72-.0638,2.1691,2.1691,0,0,0,.9818-.5115c.1042-.0941.2137-.2119.1624-.3693-.0531-.163-.206-.2036-.36-.2239C11.3734,7.7957,11.3314,7.7965,11.29,7.7944Z"></path><path class="cls-1" d="M11.9385,6.2693c.0531.1688.13.33.2131.5363.14-.3324.1684-.6745.4851-.8472a.0855.0855,0,0,0,.0089-.1494,1.7425,1.7425,0,0,1-.4936-.9238c-.09.2494-.1547.4288-.2191.6084-.0595.1661-.2859.25-.2985.3817C11.62,6.0258,11.882,6.09,11.9385,6.2693Z"></path><path class="cls-1" d="M12.838,12.1747c-.0776.1178-.1871.22-.3331.1112-.1369-.1021-.0318-.2026.032-.3014a.6591.6591,0,0,0-.2893-1.0273,1.1968,1.1968,0,0,0-.6332-.1261c-.11-.0256-.1551.02-.1483.13a1.12,1.12,0,0,1-.4073.8978c-.1175.0373-.2492.1145-.3386-.0292-.1034-.1663.0714-.2035.1539-.2848a.67.67,0,0,0,.2283-.6328c-.0555-.26-.2755-.3486-.503-.3928a1.57,1.57,0,0,0-.819.0621,2.9376,2.9376,0,0,1-1.1344.1749.2161.2161,0,0,0-.2473.1567,2.1892,2.1892,0,0,0,.3085,2.1818c.1524.2389.2937.52.599.5608a7.6969,7.6969,0,0,0,1.3051.1241,4.9309,4.9309,0,0,0,1.182-.094,1.6223,1.6223,0,0,0,1-.7c.3525-.4265.4477-.9063.2322-1.1641C12.9641,11.94,12.911,12.0638,12.838,12.1747Z"></path><path class="cls-1" d="M9.52,7.5452a3.261,3.261,0,0,1,.8252-.3888c.1015-.0356.27.0117.29-.1435.0174-.1328-.4059-.3159-.506-.3316a1.7148,1.7148,0,0,0-.76.0021,1.3687,1.3687,0,0,0-.86.3687c-.1239.1121-.1781.2469-.0393.3933A.9823.9823,0,0,0,9.52,7.5452Z"></path><path class="cls-1" d="M9.5391,8l.556-.3115a4.7519,4.7519,0,0,1,1.3508-.2417,1.7337,1.7337,0,0,0-1.37.1563A1.2126,1.2126,0,0,0,9.5391,8Z"></path><path class="cls-1" d="M12.4171.3157a9.9979,9.9979,0,0,0-4.836,19.4022L7.58,19.7171A9.9976,9.9976,0,1,0,12.4171.3157ZM11.17,16.2806A6.2087,6.2087,0,0,1,5.244,14.279c-.0484-.0516-.1232-.0949-.1095-.1862-.15-.031-.18-.15-.2-.2751a12.87,12.87,0,0,1,3.661-.2294l-.4069-.6056a2.99,2.99,0,0,1-.2227-1.9693c.1308-.266.1311-.2715-.1452-.2857a35.3441,35.3441,0,0,0-4.1656.0378,1.08,1.08,0,0,1-.0284-.35A6.39,6.39,0,1,1,11.17,16.2806Z"></path><path class="cls-1" d="M10.493,6.5456a.3747.3747,0,0,0-.205-.2117A1.1094,1.1094,0,0,0,9.9,6.24a2.2275,2.2275,0,0,0-.6276.0213,2.5585,2.5585,0,0,0-.8046.422l.6637-.2368A2.3,2.3,0,0,1,10.493,6.5456Z"></path></svg> 