<?xml version="1.0" encoding="UTF-8"?> <svg xmlns="http://www.w3.org/2000/svg" id="Layer_1" data-name="Layer 1" width="20" height="20" viewBox="0 0 20 20"><defs><style>.cls-1{fill:#6b11c9;fill-rule:evenodd;}</style></defs><title>Artboard 1 copy 138</title><path class="cls-1" d="M13.797,6.5264q-1.727-.8231-3.434-1.6879a.615.615,0,0,0-.6067.0067c-1.0095.4893-2.01,1.002-3.0416,1.4389-.6747.2857-1.1113.6355-.8915,1.3a11.7475,11.7475,0,0,0,.39,3.1441,6.55,6.55,0,0,0,3.31,4.3311,1.0947,1.0947,0,0,0,1.12-.002,6.5051,6.5051,0,0,0,3.2517-4.5017,12.495,12.495,0,0,0,.2908-3.3808A.6343.6343,0,0,0,13.797,6.5264ZM9.4227,5.7471c.0514-.0227.1394-.044.1707-.018.3143.2608.6181.446.9149-.0208a.09.09,0,0,1,.0836-.0231,4,4,0,0,1,1.6207.901A5.6213,5.6213,0,0,0,10.6549,6.48c-.1145-.0008-.2713-.0638-.3362.07-.0711.1471.0924.2086.1737.2871a.566.566,0,0,1,.0647.8786c-.2125.2786-.2533.1595-.3523-.041a3.5354,3.5354,0,0,0-.34-.6438,1.2339,1.2339,0,0,0-1.2276-.5663.58.58,0,0,1-.5708-.1085C8.543,6.1411,8.9817,5.9415,9.4227,5.7471ZM8.3035,12.878c-.2426-.1893-.3-.6393-.7762-.4887-.1369.0434-.2254-.1881-.2854-.3242a8.5987,8.5987,0,0,1-.9261-3.6673,5.6981,5.6981,0,0,1-.0068-.984c.0263-.1379-.0045-.2649.1665-.3248.1745-.0612.34-.08.46.0819a3.8869,3.8869,0,0,1,.2842.4662c.4457.8209.8851,1.6453,1.3343,2.4643A.8867.8867,0,0,1,8.63,10.55c.0037.5564-.0074,1.1131.0072,1.6691A.658.658,0,0,1,8.3035,12.878Zm.5115,1.016h2.417C10.2681,14.72,9.8194,14.7158,8.815,13.894Zm1.7968-.34c-.4181.0007-.8362.0022-1.2543.0016-.651-.001-.863-.3307-.5393-.87a1.5875,1.5875,0,0,0,.17-.5962A5.7485,5.7485,0,0,0,7.9312,8.1255,8.17,8.17,0,0,0,7.0934,6.75a19.5086,19.5086,0,0,1,2.0194.02c.3508.0377.5762.3775.7277.7121a6.7227,6.7227,0,0,0,.3.6257c.0876.15.0774.4313.2943.4177.19-.0119.2305-.2713.3022-.4343.1812-.4121.5068-.8035.2161-1.3284a4.525,4.525,0,0,1,1.3491-.0008c.3824.0512.5019.352.3274.71q-.7629,1.5643-1.53,3.1259h0q.0021,1.1046.0047,2.2069C11.457,13.5521,11.457,13.5522,10.6118,13.5536Zm2.5476-2.2917a4.9116,4.9116,0,0,1-.385.8466c-.0416.0758-.0526.2435-.1954.2188-.4664-.08-.6353.2718-.8535.5605-.0531.07-.1147.1613-.2223.1163-.08-.0337-.0854-.1248-.0837-.2017.0236-1.0651-.1836-2.1463.47-3.1413a21.6121,21.6121,0,0,0,1.07-2.0876c.0939-.1842.1816-.3606.05-.5609-.0245-.0476-.08-.1259-.0685-.1377.0632-.0641.1292-.0345.1826.0284h0c.4014.0559.5505.2646.5557.6888A11.4388,11.4388,0,0,1,13.1594,11.2619Z"></path><path class="cls-1" d="M12.4171.3157a9.9979,9.9979,0,0,0-4.836,19.4022L7.58,19.7171A9.9976,9.9976,0,1,0,12.4171.3157Zm1.8714,11.8214A7.3344,7.3344,0,0,1,10.73,16.1907a1.417,1.417,0,0,1-1.3775.009,7.4911,7.4911,0,0,1-3.6122-4.2125,13.6662,13.6662,0,0,1-.8342-5.5794.4711.4711,0,0,1,.3-.463q2.28-1.1052,4.55-2.231a.5655.5655,0,0,1,.6012-.002c1.368.8017,2.8382,1.4,4.2524,2.11a.6811.6811,0,0,1,.4509.6436c.0217.3238.0415.6469.0442.8885A13.33,13.33,0,0,1,14.2885,12.1371Z"></path></svg> 