<?xml version="1.0" encoding="UTF-8"?> <svg xmlns="http://www.w3.org/2000/svg" xmlns:xlink="http://www.w3.org/1999/xlink" width="1240" height="358" viewBox="0 0 1240 358"><defs><style>.cls-1{fill:#f4f5f8;}.cls-2,.cls-3,.cls-4,.cls-5,.cls-7,.cls-8,.cls-9{fill:none;}.cls-3{stroke:url(#linear-gradient);}.cls-4{stroke:url(#linear-gradient-2);}.cls-5{stroke:url(#linear-gradient-3);}.cls-6{fill:#6b11c9;}.cls-7{stroke:url(#linear-gradient-4);}.cls-8{stroke:url(#linear-gradient-5);}.cls-9{stroke:url(#linear-gradient-6);}.cls-10{mask:url(#mask);}.cls-11{clip-path:url(#clip-path);}.cls-12{fill:url(#linear-gradient-7);}.cls-13{fill:url(#linear-gradient-8);}.cls-14{fill:url(#linear-gradient-9);}.cls-15{fill:url(#linear-gradient-10);}.cls-16{fill:url(#linear-gradient-11);}.cls-17{fill:url(#linear-gradient-12);}.cls-18{fill:url(#linear-gradient-13);}.cls-19{fill:url(#linear-gradient-14);}.cls-20{fill:url(#linear-gradient-15);}.cls-21{fill:url(#linear-gradient-16);}.cls-22{fill:url(#linear-gradient-17);}.cls-23{fill:url(#linear-gradient-18);}.cls-24{fill:url(#linear-gradient-19);}.cls-25{fill:url(#linear-gradient-20);}.cls-26{fill:url(#linear-gradient-21);}.cls-27{fill:url(#linear-gradient-22);}.cls-28{fill:url(#linear-gradient-23);}.cls-29{fill:url(#linear-gradient-24);}.cls-30{fill:url(#linear-gradient-25);}.cls-31{fill:url(#linear-gradient-26);}.cls-32{fill:url(#linear-gradient-27);}.cls-33{fill:url(#linear-gradient-28);}.cls-34{fill:url(#linear-gradient-29);}.cls-35{fill:url(#linear-gradient-30);}.cls-36{fill:url(#linear-gradient-31);}.cls-37{fill:url(#linear-gradient-32);}.cls-38{fill:url(#linear-gradient-33);}.cls-39{fill:url(#linear-gradient-34);}.cls-40{fill:url(#linear-gradient-35);}.cls-41{fill:url(#linear-gradient-36);}.cls-42{fill:url(#linear-gradient-37);}.cls-43{fill:url(#linear-gradient-38);}.cls-44{fill:url(#linear-gradient-39);}.cls-45{fill:url(#linear-gradient-40);}.cls-46{fill:url(#linear-gradient-41);}.cls-47{fill:url(#linear-gradient-42);}.cls-48{fill:url(#linear-gradient-43);}.cls-49{fill:url(#linear-gradient-44);}.cls-50{fill:url(#linear-gradient-45);}.cls-51{fill:url(#linear-gradient-46);}.cls-52{mask:url(#mask-2);}.cls-53{clip-path:url(#clip-path-2);}.cls-54{fill:url(#linear-gradient-47);}.cls-55{fill:url(#linear-gradient-48);}.cls-56{fill:url(#linear-gradient-49);}.cls-57{fill:url(#linear-gradient-50);}.cls-58{fill:url(#linear-gradient-51);}.cls-59{fill:url(#linear-gradient-52);}.cls-60{fill:url(#linear-gradient-53);}.cls-61{fill:url(#linear-gradient-54);}.cls-62{fill:url(#linear-gradient-55);}.cls-63{fill:url(#linear-gradient-56);}.cls-64{fill:url(#linear-gradient-57);}.cls-65{fill:url(#linear-gradient-58);}.cls-66{fill:url(#linear-gradient-59);}.cls-67{fill:url(#linear-gradient-60);}.cls-68{fill:url(#linear-gradient-61);}.cls-69{fill:url(#linear-gradient-62);}.cls-70{fill:url(#linear-gradient-63);}.cls-71{fill:url(#linear-gradient-64);}.cls-72{fill:url(#linear-gradient-65);}.cls-73{fill:url(#linear-gradient-66);}.cls-74{fill:url(#linear-gradient-67);}.cls-75{fill:url(#linear-gradient-68);}.cls-76{fill:url(#linear-gradient-69);}.cls-77{fill:url(#linear-gradient-70);}.cls-78{fill:url(#linear-gradient-71);}.cls-79{fill:url(#linear-gradient-72);}.cls-80{fill:url(#linear-gradient-73);}.cls-81{fill:url(#linear-gradient-74);}.cls-82{fill:url(#linear-gradient-75);}.cls-83{fill:url(#linear-gradient-76);}.cls-84{fill:url(#linear-gradient-77);}.cls-85{fill:url(#linear-gradient-78);}.cls-86{fill:url(#linear-gradient-79);}.cls-87{fill:url(#linear-gradient-80);}.cls-88{fill:url(#linear-gradient-81);}.cls-89{fill:url(#linear-gradient-82);}.cls-90{fill:url(#linear-gradient-83);}.cls-91{fill:url(#linear-gradient-84);}.cls-92{fill:url(#linear-gradient-85);}.cls-93{fill:url(#linear-gradient-86);}</style><linearGradient id="linear-gradient" x1="1471.1918" y1="621.0742" x2="1466.6848" y2="765.3843" gradientTransform="matrix(-0.9768, -0.2141, 0.2141, -0.9768, 1990.1166, 1030.2915)" gradientUnits="userSpaceOnUse"><stop offset="0" stop-color="#6b11c9"></stop><stop offset="1" stop-color="#f5f5f5"></stop></linearGradient><linearGradient id="linear-gradient-2" x1="1471.4423" y1="613.0827" x2="1466.9343" y2="757.3925" gradientTransform="matrix(-0.9768, -0.2141, 0.2141, -0.9768, 1990.1166, 1030.2915)" gradientUnits="userSpaceOnUse"><stop offset="0" stop-color="#e21284"></stop><stop offset="1" stop-color="#f5f5f5"></stop></linearGradient><linearGradient id="linear-gradient-3" x1="1471.7534" y1="603.0917" x2="1467.2454" y2="747.4014" xlink:href="#linear-gradient"></linearGradient><linearGradient id="linear-gradient-4" x1="483.0894" y1="683.5258" x2="496.5764" y2="539.7768" gradientTransform="matrix(0.971, 0.2389, 0.2389, -0.971, -42.876, 776.9016)" xlink:href="#linear-gradient"></linearGradient><linearGradient id="linear-gradient-5" x1="482.3409" y1="691.4876" x2="495.8279" y2="547.7386" gradientTransform="matrix(0.971, 0.2389, 0.2389, -0.971, -42.876, 776.9016)" xlink:href="#linear-gradient-2"></linearGradient><linearGradient id="linear-gradient-6" x1="481.4088" y1="701.4408" x2="494.8958" y2="557.6918" gradientTransform="matrix(0.971, 0.2389, 0.2389, -0.971, -42.876, 776.9016)" xlink:href="#linear-gradient"></linearGradient><mask id="mask" x="536.0314" y="80.662" width="108.5786" height="109.2237" maskUnits="userSpaceOnUse"><g id="mask0_1506_15265" data-name="mask0 1506 15265"><rect class="cls-1" x="553.9058" y="94.5747" width="72.83" height="81.3982" transform="translate(60.8469 429.2722) rotate(-41.9486)"></rect></g></mask><clipPath id="clip-path"><rect class="cls-2" x="561.5641" y="116.5277" width="44.2596" height="44.2596" transform="translate(161.1476 564.5437) rotate(-58.5886)"></rect></clipPath><linearGradient id="linear-gradient-7" x1="-130.4794" y1="1814.8301" x2="-107.7011" y2="1821.6379" gradientTransform="matrix(0.6685, 0.7437, 0.7437, -0.6685, -680.9874, 1447.5469)" gradientUnits="userSpaceOnUse"><stop offset="0" stop-color="#ff489c"></stop><stop offset="1" stop-color="#e8236f"></stop></linearGradient><linearGradient id="linear-gradient-8" x1="-116.5632" y1="1820.3825" x2="-146.1863" y2="1836.3729" gradientTransform="matrix(0.6685, 0.7437, 0.7437, -0.6685, -680.9874, 1447.5469)" gradientUnits="userSpaceOnUse"><stop offset="0" stop-color="#d665c6"></stop><stop offset="1" stop-color="#cf5ec1"></stop></linearGradient><linearGradient id="linear-gradient-9" x1="-131.9885" y1="1828.6914" x2="-122.1621" y2="1818.9943" gradientTransform="matrix(0.6685, 0.7437, 0.7437, -0.6685, -680.9874, 1447.5469)" gradientUnits="userSpaceOnUse"><stop offset="0" stop-color="#fff"></stop><stop offset="0.2282" stop-color="#f2f2f2"></stop><stop offset="0.5158" stop-color="#ededed"></stop><stop offset="0.7118" stop-color="#e7e7e7"></stop><stop offset="1" stop-color="#fff"></stop></linearGradient><linearGradient id="linear-gradient-10" x1="-123.4666" y1="1800.0849" x2="-121.1402" y2="1792.3012" gradientTransform="matrix(0.6685, 0.7437, 0.7437, -0.6685, -680.9874, 1447.5469)" gradientUnits="userSpaceOnUse"><stop offset="0" stop-color="#ed2675" stop-opacity="0"></stop><stop offset="1" stop-color="#ec2775"></stop></linearGradient><linearGradient id="linear-gradient-11" x1="-130.1652" y1="1807.4618" x2="-146.5749" y2="1816.3197" gradientTransform="matrix(0.6685, 0.7437, 0.7437, -0.6685, -680.9874, 1447.5469)" gradientUnits="userSpaceOnUse"><stop offset="0" stop-color="#d766c6"></stop><stop offset="1" stop-color="#b746af"></stop></linearGradient><linearGradient id="linear-gradient-12" x1="-141.0636" y1="1813.3446" x2="-132.457" y2="1808.6988" gradientTransform="matrix(0.6685, 0.7437, 0.7437, -0.6685, -680.9874, 1447.5469)" gradientUnits="userSpaceOnUse"><stop offset="0" stop-color="#ffe548"></stop><stop offset="1" stop-color="#ffb211"></stop></linearGradient><linearGradient id="linear-gradient-13" x1="-126.8433" y1="1796.3472" x2="-143.253" y2="1805.2051" gradientTransform="matrix(0.6685, 0.7437, 0.7437, -0.6685, -680.9874, 1447.5469)" gradientUnits="userSpaceOnUse"><stop offset="0" stop-color="#d666c6"></stop><stop offset="1" stop-color="#b948b0"></stop></linearGradient><linearGradient id="linear-gradient-14" x1="-137.7415" y1="1802.2299" x2="-129.1349" y2="1797.5843" gradientTransform="matrix(0.6685, 0.7437, 0.7437, -0.6685, -680.9874, 1447.5469)" gradientUnits="userSpaceOnUse"><stop offset="0" stop-color="#fff458"></stop><stop offset="1" stop-color="#ffcb39"></stop></linearGradient><linearGradient id="linear-gradient-15" x1="-119.3824" y1="1810.6845" x2="-135.7921" y2="1819.5424" gradientTransform="matrix(0.6685, 0.7437, 0.7437, -0.6685, -680.9874, 1447.5469)" gradientUnits="userSpaceOnUse"><stop offset="0" stop-color="#d767c7"></stop><stop offset="1" stop-color="#b848b0"></stop></linearGradient><linearGradient id="linear-gradient-16" x1="-130.2808" y1="1816.5673" x2="-121.6741" y2="1811.9215" gradientTransform="matrix(0.6685, 0.7437, 0.7437, -0.6685, -680.9874, 1447.5469)" gradientUnits="userSpaceOnUse"><stop offset="0" stop-color="#fff858"></stop><stop offset="1" stop-color="#f19b4e"></stop></linearGradient><linearGradient id="linear-gradient-17" x1="-116.0606" y1="1799.5698" x2="-132.4702" y2="1808.4277" gradientTransform="matrix(0.6685, 0.7437, 0.7437, -0.6685, -680.9874, 1447.5469)" gradientUnits="userSpaceOnUse"><stop offset="0" stop-color="#d766c6"></stop><stop offset="1" stop-color="#b544ad"></stop></linearGradient><linearGradient id="linear-gradient-18" x1="-126.9589" y1="1805.4526" x2="-118.3522" y2="1800.807" gradientTransform="matrix(0.6685, 0.7437, 0.7437, -0.6685, -680.9874, 1447.5469)" gradientUnits="userSpaceOnUse"><stop offset="0" stop-color="#fffe50"></stop><stop offset="1" stop-color="#ffb211"></stop><stop offset="1" stop-color="#f59150"></stop></linearGradient><linearGradient id="linear-gradient-19" x1="-100.9557" y1="1805.12" x2="-128.7196" y2="1820.107" gradientTransform="matrix(0.6685, 0.7437, 0.7437, -0.6685, -680.9874, 1447.5469)" gradientUnits="userSpaceOnUse"><stop offset="0" stop-color="#d666c6"></stop><stop offset="1" stop-color="#ba49b1"></stop></linearGradient><linearGradient id="linear-gradient-20" x1="-120.3946" y1="1814.3417" x2="-106.5781" y2="1810.5368" gradientTransform="matrix(0.6685, 0.7437, 0.7437, -0.6685, -680.9874, 1447.5469)" gradientUnits="userSpaceOnUse"><stop offset="0" stop-color="#ffde35"></stop><stop offset="1" stop-color="#ffbe2c"></stop></linearGradient><linearGradient id="linear-gradient-21" x1="-113.6144" y1="1812.0241" x2="-117.4929" y2="1816.7379" gradientTransform="matrix(0.6685, 0.7437, 0.7437, -0.6685, -680.9874, 1447.5469)" gradientUnits="userSpaceOnUse"><stop offset="0" stop-color="#ffb211" stop-opacity="0"></stop><stop offset="1" stop-color="#ff4b3e"></stop></linearGradient><linearGradient id="linear-gradient-22" x1="-112.3782" y1="1807.8879" x2="-116.2566" y2="1812.6017" xlink:href="#linear-gradient-21"></linearGradient><linearGradient id="linear-gradient-23" x1="-119.4084" y1="1813.702" x2="-112.7658" y2="1815.6873" gradientTransform="matrix(0.6685, 0.7437, 0.7437, -0.6685, -680.9874, 1447.5469)" gradientUnits="userSpaceOnUse"><stop offset="0" stop-color="#d767c7"></stop><stop offset="0.3227" stop-color="#d363c4"></stop><stop offset="0.665" stop-color="#c656bb"></stop><stop offset="1" stop-color="#b342ac"></stop></linearGradient><linearGradient id="linear-gradient-24" x1="-132.0439" y1="1799.1452" x2="-138.9965" y2="1802.8981" xlink:href="#linear-gradient-21"></linearGradient><linearGradient id="linear-gradient-25" x1="-138.7061" y1="1800.0535" x2="-132.2749" y2="1801.9754" xlink:href="#linear-gradient-23"></linearGradient><linearGradient id="linear-gradient-26" x1="-120.2719" y1="1801.8429" x2="-127.3488" y2="1805.663" xlink:href="#linear-gradient-21"></linearGradient><linearGradient id="linear-gradient-27" x1="-127.2534" y1="1803.4721" x2="-122.1739" y2="1804.9903" xlink:href="#linear-gradient-23"></linearGradient><linearGradient id="linear-gradient-28" x1="-134.0061" y1="1809.5172" x2="-142.2305" y2="1813.9568" xlink:href="#linear-gradient-21"></linearGradient><linearGradient id="linear-gradient-29" x1="-141.54" y1="1811.3141" x2="-136.0843" y2="1812.9447" xlink:href="#linear-gradient-23"></linearGradient><linearGradient id="linear-gradient-30" x1="-126.4954" y1="1816.4781" x2="-129.7658" y2="1818.2434" xlink:href="#linear-gradient-21"></linearGradient><linearGradient id="linear-gradient-31" x1="-123.2234" y1="1812.7398" x2="-131.4478" y2="1817.1793" xlink:href="#linear-gradient-21"></linearGradient><linearGradient id="linear-gradient-32" x1="-125.25" y1="1811.8979" x2="-127.7791" y2="1813.2631" xlink:href="#linear-gradient-21"></linearGradient><linearGradient id="linear-gradient-33" x1="-130.7574" y1="1814.5368" x2="-125.3017" y2="1816.1674" xlink:href="#linear-gradient-23"></linearGradient><linearGradient id="linear-gradient-34" x1="-129.6096" y1="1817.4176" x2="-127.8421" y2="1817.9458" xlink:href="#linear-gradient-23"></linearGradient><linearGradient id="linear-gradient-35" x1="-128.217" y1="1812.7583" x2="-126.4495" y2="1813.2865" xlink:href="#linear-gradient-23"></linearGradient><linearGradient id="linear-gradient-36" x1="-118.1721" y1="1809.5657" x2="-111.5298" y2="1811.5509" xlink:href="#linear-gradient-23"></linearGradient><linearGradient id="linear-gradient-37" x1="240.8755" y1="-942.4082" x2="243.8341" y2="-942.4082" gradientTransform="translate(-123.811 792.5052) rotate(31.9937)" xlink:href="#linear-gradient-23"></linearGradient><linearGradient id="linear-gradient-38" x1="244.3936" y1="-942.4323" x2="246.7799" y2="-942.4323" gradientTransform="translate(-123.811 792.5052) rotate(31.9937)" xlink:href="#linear-gradient-23"></linearGradient><linearGradient id="linear-gradient-39" x1="247.2668" y1="-942.4648" x2="249.2457" y2="-942.4648" gradientTransform="translate(-123.811 792.5052) rotate(31.9937)" xlink:href="#linear-gradient-23"></linearGradient><linearGradient id="linear-gradient-40" x1="249.5406" y1="-942.486" x2="252.3678" y2="-942.486" gradientTransform="translate(-123.811 792.5052) rotate(31.9937)" xlink:href="#linear-gradient-23"></linearGradient><linearGradient id="linear-gradient-41" x1="252.1774" y1="-942.5208" x2="254.5674" y2="-942.5208" gradientTransform="translate(-123.811 792.5052) rotate(31.9937)" xlink:href="#linear-gradient-23"></linearGradient><linearGradient id="linear-gradient-42" x1="256.1399" y1="-942.5494" x2="258.8192" y2="-942.5494" gradientTransform="translate(-123.811 792.5052) rotate(31.9937)" xlink:href="#linear-gradient-23"></linearGradient><linearGradient id="linear-gradient-43" x1="259.3132" y1="-942.5856" x2="261.2921" y2="-942.5856" gradientTransform="translate(-123.811 792.5052) rotate(31.9937)" xlink:href="#linear-gradient-23"></linearGradient><linearGradient id="linear-gradient-44" x1="261.5871" y1="-942.6068" x2="264.4142" y2="-942.6068" gradientTransform="translate(-123.811 792.5052) rotate(31.9937)" xlink:href="#linear-gradient-23"></linearGradient><linearGradient id="linear-gradient-45" x1="264.7766" y1="-942.6333" x2="266.6698" y2="-942.6333" gradientTransform="translate(-123.811 792.5052) rotate(31.9937)" xlink:href="#linear-gradient-23"></linearGradient><linearGradient id="linear-gradient-46" x1="267.0996" y1="-942.6308" x2="267.7947" y2="-942.6308" gradientTransform="translate(-123.811 792.5052) rotate(31.9937)" xlink:href="#linear-gradient-23"></linearGradient><mask id="mask-2" x="848.4032" y="192.4399" width="58.418" height="54.6584" maskUnits="userSpaceOnUse"><g id="mask0_1506_15265-2" data-name="mask0 1506 15265"><rect class="cls-1" x="853.0224" y="197.7677" width="49.1795" height="44.0027" transform="translate(-27.0984 220.4344) rotate(-14.1009)"></rect></g></mask><clipPath id="clip-path-2"><rect class="cls-2" x="864.179" y="210.8937" width="26.7409" height="26.7409" transform="translate(8.6723 480.0766) rotate(-30.7409)"></rect></clipPath><linearGradient id="linear-gradient-47" x1="95.2458" y1="2118.4337" x2="109.0081" y2="2122.5469" gradientTransform="matrix(0.9699, -0.2436, -0.2436, -0.9699, 1299.9907, 2302.8417)" xlink:href="#linear-gradient-7"></linearGradient><linearGradient id="linear-gradient-48" x1="103.6537" y1="2121.7884" x2="85.7559" y2="2131.4496" gradientTransform="matrix(0.9699, -0.2436, -0.2436, -0.9699, 1299.9907, 2302.8417)" xlink:href="#linear-gradient-8"></linearGradient><linearGradient id="linear-gradient-49" x1="94.334" y1="2126.8085" x2="100.271" y2="2120.9497" gradientTransform="matrix(0.9699, -0.2436, -0.2436, -0.9699, 1299.9907, 2302.8417)" xlink:href="#linear-gradient-9"></linearGradient><linearGradient id="linear-gradient-50" x1="99.4828" y1="2109.5249" x2="100.8884" y2="2104.8222" gradientTransform="matrix(0.9699, -0.2436, -0.2436, -0.9699, 1299.9907, 2302.8417)" xlink:href="#linear-gradient-10"></linearGradient><linearGradient id="linear-gradient-51" x1="95.4356" y1="2113.9819" x2="85.5211" y2="2119.3337" gradientTransform="matrix(0.9699, -0.2436, -0.2436, -0.9699, 1299.9907, 2302.8417)" xlink:href="#linear-gradient-11"></linearGradient><linearGradient id="linear-gradient-52" x1="88.851" y1="2117.5362" x2="94.051" y2="2114.7293" gradientTransform="matrix(0.9699, -0.2436, -0.2436, -0.9699, 1299.9907, 2302.8417)" xlink:href="#linear-gradient-12"></linearGradient><linearGradient id="linear-gradient-53" x1="97.4426" y1="2107.2666" x2="87.5282" y2="2112.6185" gradientTransform="matrix(0.9699, -0.2436, -0.2436, -0.9699, 1299.9907, 2302.8417)" xlink:href="#linear-gradient-13"></linearGradient><linearGradient id="linear-gradient-54" x1="90.8581" y1="2110.8209" x2="96.0581" y2="2108.0141" gradientTransform="matrix(0.9699, -0.2436, -0.2436, -0.9699, 1299.9907, 2302.8417)" xlink:href="#linear-gradient-14"></linearGradient><linearGradient id="linear-gradient-55" x1="101.9504" y1="2115.929" x2="92.0359" y2="2121.2808" gradientTransform="matrix(0.9699, -0.2436, -0.2436, -0.9699, 1299.9907, 2302.8417)" xlink:href="#linear-gradient-15"></linearGradient><linearGradient id="linear-gradient-56" x1="95.3658" y1="2119.4833" x2="100.5658" y2="2116.6764" gradientTransform="matrix(0.9699, -0.2436, -0.2436, -0.9699, 1299.9907, 2302.8417)" xlink:href="#linear-gradient-16"></linearGradient><linearGradient id="linear-gradient-57" x1="103.9574" y1="2109.2137" x2="94.0429" y2="2114.5655" gradientTransform="matrix(0.9699, -0.2436, -0.2436, -0.9699, 1299.9907, 2302.8417)" xlink:href="#linear-gradient-17"></linearGradient><linearGradient id="linear-gradient-58" x1="97.3728" y1="2112.768" x2="102.5728" y2="2109.9612" gradientTransform="matrix(0.9699, -0.2436, -0.2436, -0.9699, 1299.9907, 2302.8417)" xlink:href="#linear-gradient-18"></linearGradient><linearGradient id="linear-gradient-59" x1="113.0836" y1="2112.567" x2="96.309" y2="2121.622" gradientTransform="matrix(0.9699, -0.2436, -0.2436, -0.9699, 1299.9907, 2302.8417)" xlink:href="#linear-gradient-19"></linearGradient><linearGradient id="linear-gradient-60" x1="101.3389" y1="2118.1386" x2="109.6866" y2="2115.8398" gradientTransform="matrix(0.9699, -0.2436, -0.2436, -0.9699, 1299.9907, 2302.8417)" xlink:href="#linear-gradient-20"></linearGradient><linearGradient id="linear-gradient-61" x1="105.4354" y1="2116.7384" x2="103.092" y2="2119.5864" gradientTransform="matrix(0.9699, -0.2436, -0.2436, -0.9699, 1299.9907, 2302.8417)" xlink:href="#linear-gradient-21"></linearGradient><linearGradient id="linear-gradient-62" x1="106.1822" y1="2114.2394" x2="103.8389" y2="2117.0874" gradientTransform="matrix(0.9699, -0.2436, -0.2436, -0.9699, 1299.9907, 2302.8417)" xlink:href="#linear-gradient-21"></linearGradient><linearGradient id="linear-gradient-63" x1="101.9347" y1="2117.7521" x2="105.9481" y2="2118.9517" gradientTransform="matrix(0.9699, -0.2436, -0.2436, -0.9699, 1299.9907, 2302.8417)" xlink:href="#linear-gradient-23"></linearGradient><linearGradient id="linear-gradient-64" x1="94.3005" y1="2108.9572" x2="90.0999" y2="2111.2246" gradientTransform="matrix(0.9699, -0.2436, -0.2436, -0.9699, 1299.9907, 2302.8417)" xlink:href="#linear-gradient-21"></linearGradient><linearGradient id="linear-gradient-65" x1="90.2753" y1="2109.5059" x2="94.1609" y2="2110.6672" gradientTransform="matrix(0.9699, -0.2436, -0.2436, -0.9699, 1299.9907, 2302.8417)" xlink:href="#linear-gradient-23"></linearGradient><linearGradient id="linear-gradient-66" x1="101.413" y1="2110.5871" x2="97.1372" y2="2112.8951" gradientTransform="matrix(0.9699, -0.2436, -0.2436, -0.9699, 1299.9907, 2302.8417)" xlink:href="#linear-gradient-21"></linearGradient><linearGradient id="linear-gradient-67" x1="97.1949" y1="2111.5714" x2="100.2639" y2="2112.4887" gradientTransform="matrix(0.9699, -0.2436, -0.2436, -0.9699, 1299.9907, 2302.8417)" xlink:href="#linear-gradient-23"></linearGradient><linearGradient id="linear-gradient-68" x1="93.115" y1="2115.2238" x2="88.1459" y2="2117.9061" gradientTransform="matrix(0.9699, -0.2436, -0.2436, -0.9699, 1299.9907, 2302.8417)" xlink:href="#linear-gradient-21"></linearGradient><linearGradient id="linear-gradient-69" x1="88.5631" y1="2116.3094" x2="91.8594" y2="2117.2946" gradientTransform="matrix(0.9699, -0.2436, -0.2436, -0.9699, 1299.9907, 2302.8417)" xlink:href="#linear-gradient-23"></linearGradient><linearGradient id="linear-gradient-70" x1="97.6528" y1="2119.4294" x2="95.6769" y2="2120.496" gradientTransform="matrix(0.9699, -0.2436, -0.2436, -0.9699, 1299.9907, 2302.8417)" xlink:href="#linear-gradient-21"></linearGradient><linearGradient id="linear-gradient-71" x1="99.6297" y1="2117.1708" x2="94.6607" y2="2119.8531" gradientTransform="matrix(0.9699, -0.2436, -0.2436, -0.9699, 1299.9907, 2302.8417)" xlink:href="#linear-gradient-21"></linearGradient><linearGradient id="linear-gradient-72" x1="98.4053" y1="2116.6621" x2="96.8772" y2="2117.487" gradientTransform="matrix(0.9699, -0.2436, -0.2436, -0.9699, 1299.9907, 2302.8417)" xlink:href="#linear-gradient-21"></linearGradient><linearGradient id="linear-gradient-73" x1="95.0778" y1="2118.2565" x2="98.3741" y2="2119.2417" gradientTransform="matrix(0.9699, -0.2436, -0.2436, -0.9699, 1299.9907, 2302.8417)" xlink:href="#linear-gradient-23"></linearGradient><linearGradient id="linear-gradient-74" x1="95.7713" y1="2119.997" x2="96.8392" y2="2120.3162" gradientTransform="matrix(0.9699, -0.2436, -0.2436, -0.9699, 1299.9907, 2302.8417)" xlink:href="#linear-gradient-23"></linearGradient><linearGradient id="linear-gradient-75" x1="96.6127" y1="2117.182" x2="97.6806" y2="2117.5011" gradientTransform="matrix(0.9699, -0.2436, -0.2436, -0.9699, 1299.9907, 2302.8417)" xlink:href="#linear-gradient-23"></linearGradient><linearGradient id="linear-gradient-76" x1="102.6816" y1="2115.2531" x2="106.6948" y2="2116.4525" gradientTransform="matrix(0.9699, -0.2436, -0.2436, -0.9699, 1299.9907, 2302.8417)" xlink:href="#linear-gradient-23"></linearGradient><linearGradient id="linear-gradient-77" x1="545.8256" y1="-1166.5656" x2="547.6131" y2="-1166.5656" gradientTransform="matrix(0.8646, -0.5024, 0.5024, 0.8646, 981.0775, 1504.2057)" xlink:href="#linear-gradient-23"></linearGradient><linearGradient id="linear-gradient-78" x1="547.9512" y1="-1166.5802" x2="549.393" y2="-1166.5802" gradientTransform="matrix(0.8646, -0.5024, 0.5024, 0.8646, 981.0775, 1504.2057)" xlink:href="#linear-gradient-23"></linearGradient><linearGradient id="linear-gradient-79" x1="549.6871" y1="-1166.5998" x2="550.8827" y2="-1166.5998" gradientTransform="matrix(0.8646, -0.5024, 0.5024, 0.8646, 981.0775, 1504.2057)" xlink:href="#linear-gradient-23"></linearGradient><linearGradient id="linear-gradient-80" x1="551.061" y1="-1166.6126" x2="552.7691" y2="-1166.6126" gradientTransform="matrix(0.8646, -0.5024, 0.5024, 0.8646, 981.0775, 1504.2057)" xlink:href="#linear-gradient-23"></linearGradient><linearGradient id="linear-gradient-81" x1="552.6541" y1="-1166.6336" x2="554.098" y2="-1166.6336" gradientTransform="matrix(0.8646, -0.5024, 0.5024, 0.8646, 981.0775, 1504.2057)" xlink:href="#linear-gradient-23"></linearGradient><linearGradient id="linear-gradient-82" x1="555.0481" y1="-1166.6509" x2="556.6669" y2="-1166.6509" gradientTransform="matrix(0.8646, -0.5024, 0.5024, 0.8646, 981.0775, 1504.2057)" xlink:href="#linear-gradient-23"></linearGradient><linearGradient id="linear-gradient-83" x1="556.9654" y1="-1166.6728" x2="558.161" y2="-1166.6728" gradientTransform="matrix(0.8646, -0.5024, 0.5024, 0.8646, 981.0775, 1504.2057)" xlink:href="#linear-gradient-23"></linearGradient><linearGradient id="linear-gradient-84" x1="558.3392" y1="-1166.6856" x2="560.0473" y2="-1166.6856" gradientTransform="matrix(0.8646, -0.5024, 0.5024, 0.8646, 981.0775, 1504.2057)" xlink:href="#linear-gradient-23"></linearGradient><linearGradient id="linear-gradient-85" x1="560.2663" y1="-1166.7016" x2="561.4101" y2="-1166.7016" gradientTransform="matrix(0.8646, -0.5024, 0.5024, 0.8646, 981.0775, 1504.2057)" xlink:href="#linear-gradient-23"></linearGradient><linearGradient id="linear-gradient-86" x1="561.6698" y1="-1166.7001" x2="562.0898" y2="-1166.7001" gradientTransform="matrix(0.8646, -0.5024, 0.5024, 0.8646, 981.0775, 1504.2057)" xlink:href="#linear-gradient-23"></linearGradient></defs><title>Artboard 1 copy</title><g id="Layer_1" data-name="Layer 1"><path class="cls-3" d="M61.1732-95.5833s69.2383-57.7968,178.66-17.3232S391.0365,44.8036,488.5824,58.0493c130.3081,17.6946,266.3281-109.3866,349.9892,8.735s166.8511-74.8081,264.8865,25.1615,243.7384-40.2589,244.2082,74.4559"></path><path class="cls-4" d="M59.218-87.83s69.2383-57.7968,178.6605-17.3233S389.0814,52.5568,486.637,65.8047c130.2983,17.6924,266.3193-109.3885,349.98,8.7332S1003.4685-.27,1101.5039,99.6994s243.7374-40.2591,244.2072,74.4557"></path><path class="cls-5" d="M56.7762-78.1368s69.2286-57.7988,178.6606-17.323C344.859-54.9863,386.64,62.2508,484.1856,75.4955,614.4915,93.1906,750.5125-33.891,834.1737,84.2307S1001.0248,9.4225,1099.06,109.3922s243.7374-40.2591,244.2072,74.4557"></path></g><g id="Layer_9" data-name="Layer 9"><path class="cls-6" d="M-.2979,78.3085v65.7242c4.7825-20.1542,14.2224-39.9811,39.4587-55.3744a94.8381,94.8381,0,0,0,14.0672-10.35Z"></path><path class="cls-7" d="M1294.9428,379.3664s-63.1611,64.3751-176.0586,34.9423S952.799,272.3573,854.4121,268.8422C722.9974,264.1475,600.24,404.0813,505.285,294.8308s-158.6172,90.9736-266.0761,1.2108S.66,360.2544-11.1747,246.1507s-118.1992-78.7295-118.1992-78.7295"></path><path class="cls-8" d="M1296.1169,371.4558s-63.1611,64.3752-176.0586,34.9423S953.976,264.4474,855.59,260.9326c-131.4146-4.6947-254.1736,135.2388-349.128,25.9883s-158.6172,90.9736-266.0761,1.2108S1.837,352.3446-9.9975,238.2409s-118.1994-78.7295-118.1994-78.7295"></path><path class="cls-9" d="M1297.5917,361.57s-63.1608,64.3742-176.0585,34.9423S955.447,254.5605,857.061,251.0457C725.6464,246.351,602.8875,386.2845,507.9331,277.034s-158.6173,90.9736-266.0762,1.2108S3.3082,342.4577-8.5264,228.354s-118.1995-78.7295-118.1995-78.7295"></path><rect class="cls-2" x="165.7021" y="4.0106" width="1199.4894" height="472.3404" transform="translate(1530.8936 480.3617) rotate(180)"></rect></g><g id="Layer_8" data-name="Layer 8"><g class="cls-10"><path class="cls-6" d="M587.6851,110.2993c9.2846,17.0238,28.0316,5.6893,32.7519,21.3s-24.0756,42.9974-43.09,32.9379c-8.6048-4.5526-17.3457-12.5978-20.7909-31.4992C552.9884,113.4633,576.0794,89.02,587.6851,110.2993Z"></path><g class="cls-11"><path class="cls-12" d="M585.6355,165.7729l-26.95-16.4575a3.056,3.056,0,0,1-1.0158-4.2008l19.8819-32.5572a3.0562,3.0562,0,0,1,4.2011-1.0152L608.7025,128a3.0561,3.0561,0,0,1,1.0157,4.2009l-19.8816,32.5569A3.0562,3.0562,0,0,1,585.6355,165.7729Z"></path><path class="cls-13" d="M601.0287,138.9261l-25.491-15.5667a1.2761,1.2761,0,0,1-.4238-1.7544l3.8358-6.2813a1.276,1.276,0,0,1,1.7541-.424l25.491,15.5667a1.2761,1.2761,0,0,1,.424,1.7542l-3.8358,6.2813A1.2762,1.2762,0,0,1,601.0287,138.9261Z"></path><path class="cls-14" d="M600.8283,138.0738l-24.4408-14.9254A1.1664,1.1664,0,0,1,576,121.545l3.3011-5.4059a1.1665,1.1665,0,0,1,1.6036-.3873l24.4408,14.9254a1.1662,1.1662,0,0,1,.3876,1.6033l-3.3012,5.4057A1.1661,1.1661,0,0,1,600.8283,138.0738Z"></path><path class="cls-15" d="M561.8951,138.1956l-4.2254,6.919a3.0565,3.0565,0,0,0,1.0158,4.2008l26.95,16.4575a3.0558,3.0558,0,0,0,4.2011-1.0153l4.225-6.9186Z"></path><path class="cls-16" d="M573.9271,138.4982l-4.84-2.9556a1.9173,1.9173,0,0,1-.637-2.6356l2.9555-4.84a1.9173,1.9173,0,0,1,2.6358-.6374l4.84,2.9555a1.9176,1.9176,0,0,1,.6372,2.6361l-2.9556,4.84A1.9175,1.9175,0,0,1,573.9271,138.4982Z"></path><path class="cls-17" d="M573.9343,137.8041l-4.2327-2.5847a1.6773,1.6773,0,0,1-.5574-2.3053l2.5849-4.2329a1.6773,1.6773,0,0,1,2.3054-.557l4.2326,2.5848a1.6769,1.6769,0,0,1,.5572,2.305l-2.5849,4.2329A1.677,1.677,0,0,1,573.9343,137.8041Z"></path><path class="cls-18" d="M567.8812,148.3985l-4.84-2.9557a1.9168,1.9168,0,0,1-.6372-2.6356l2.9555-4.84a1.9172,1.9172,0,0,1,2.6357-.6372l4.84,2.9555a1.9176,1.9176,0,0,1,.6376,2.6356l-2.9558,4.84A1.9176,1.9176,0,0,1,567.8812,148.3985Z"></path><path class="cls-19" d="M567.8882,147.7045l-4.2322-2.5851a1.6767,1.6767,0,0,1-.5576-2.3051l2.5847-4.2326a1.6769,1.6769,0,0,1,2.3053-.5569l4.2327,2.5847a1.6766,1.6766,0,0,1,.5573,2.3049l-2.585,4.2329A1.677,1.677,0,0,1,567.8882,147.7045Z"></path><path class="cls-20" d="M583.5318,144.3635l-4.84-2.9556a1.9172,1.9172,0,0,1-.637-2.6356l2.9555-4.84a1.9174,1.9174,0,0,1,2.6358-.6373l4.84,2.9556a1.9173,1.9173,0,0,1,.6371,2.636l-2.9555,4.84A1.9173,1.9173,0,0,1,583.5318,144.3635Z"></path><path class="cls-21" d="M583.5389,143.67l-4.2325-2.5848a1.6768,1.6768,0,0,1-.5572-2.305l2.5849-4.2329a1.6768,1.6768,0,0,1,2.3051-.5572l4.2326,2.5847a1.677,1.677,0,0,1,.5572,2.3051l-2.5849,4.2329A1.6771,1.6771,0,0,1,583.5389,143.67Z"></path><path class="cls-22" d="M577.4859,154.2638l-4.84-2.9554a1.9176,1.9176,0,0,1-.6371-2.6355l2.9558-4.84a1.9173,1.9173,0,0,1,2.6356-.6371l4.84,2.9556a1.9172,1.9172,0,0,1,.6374,2.6357l-2.9559,4.84A1.917,1.917,0,0,1,577.4859,154.2638Z"></path><path class="cls-23" d="M577.4929,153.57l-4.2326-2.5847a1.6773,1.6773,0,0,1-.557-2.3053l2.5847-4.2325a1.6768,1.6768,0,0,1,2.3052-.5573l4.2325,2.5848a1.6767,1.6767,0,0,1,.5572,2.3051l-2.5848,4.2327A1.6771,1.6771,0,0,1,577.4929,153.57Z"></path><path class="cls-24" d="M598.0909,142.1164l-4.84-2.9556a1.9176,1.9176,0,0,0-2.6361.6372l-9.0015,14.74a1.9178,1.9178,0,0,0,.6373,2.6358l4.84,2.9555a1.9175,1.9175,0,0,0,2.6354-.637l9.0014-14.74A1.9175,1.9175,0,0,0,598.0909,142.1164Z"></path><path class="cls-25" d="M597.4763,142.44l-4.2326-2.5848a1.6767,1.6767,0,0,0-2.305.5572l-8.6306,14.1329a1.6771,1.6771,0,0,0,.557,2.3053l4.2326,2.5847a1.6774,1.6774,0,0,0,2.3053-.557l8.6306-14.1332A1.6767,1.6767,0,0,0,597.4763,142.44Z"></path><path class="cls-26" d="M594.1933,149.2827l-.0021-.0184a.688.688,0,0,0-.31-.5133l-4.6283-2.8263a.6378.6378,0,0,0-.6069-.0467,1.12,1.12,0,0,0-.527.4755,1.0631,1.0631,0,0,0-.1824.6862l2.4491,10.1183.0013.02c.0032.0238.0073.046.0119.0685l4.0988-6.7117Z"></path><path class="cls-27" d="M591.9431,152.9669l-.0019-.0185a.6876.6876,0,0,0-.31-.5128l-4.6283-2.8265a.6388.6388,0,0,0-.6068-.0469,1.1212,1.1212,0,0,0-.5271.4758,1.0624,1.0624,0,0,0-.1825.6862l2.4493,10.1185.0012.02a.6425.6425,0,0,0,.0123.0681l4.0986-6.7114Z"></path><path class="cls-28" d="M588.1192,146.3535a1.12,1.12,0,0,1,.527-.4755.6378.6378,0,0,1,.6069.0467l4.6283,2.8263a.6871.6871,0,0,1,.31.5133,1.0193,1.0193,0,0,1-.1552.7025.9726.9726,0,0,1-.5541.4593.7077.7077,0,0,1-.5867-.06l-4.6285-2.8265a.6566.6566,0,0,1-.33-.5A1.0639,1.0639,0,0,1,588.1192,146.3535Z"></path><path class="cls-29" d="M567.8882,147.7045a1.6769,1.6769,0,0,0,2.3051-.5572l1.07-1.7526-1.1918-4.9477a.8086.8086,0,0,0-.3771-.442.8481.8481,0,0,0-.5655-.1333.5326.5326,0,0,0-.4118.2436l-1.0344,1.6938-1.708-1.0432a.5011.5011,0,0,0-.4776-.029.9082.9082,0,0,0-.428.3858.8609.8609,0,0,0-.1476.5567.5677.5677,0,0,0,.0405.154c0,.0052,0,.01,0,.0146l1.1568,4.7759Z"></path><path class="cls-30" d="M566.1966,145.7334a.9084.9084,0,0,1-.3859-.4277.5018.5018,0,0,1,.029-.4781l1.0428-1.7077-1.708-1.0432a.5147.5147,0,0,1-.2527-.3973.8609.8609,0,0,1,.1476-.5567.9082.9082,0,0,1,.428-.3858.5025.5025,0,0,1,.4776.029l1.708,1.0432,1.0344-1.6938a.5313.5313,0,0,1,.4118-.2436.8481.8481,0,0,1,.5655.1333.8086.8086,0,0,1,.3771.442.548.548,0,0,1-.0438.4687l-1.0344,1.6939,1.694,1.034a.5348.5348,0,0,1,.2436.412.8513.8513,0,0,1-.1333.5655.808.808,0,0,1-.442.3766.5472.5472,0,0,1-.4688-.0434l-1.6936-1.0343-1.0432,1.7081a.5141.5141,0,0,1-.397.2529A.8633.8633,0,0,1,566.1966,145.7334Z"></path><path class="cls-31" d="M579.7985,153.0122l1.6-2.6194-.5908-2.4431a.85.85,0,0,0-.3056-.4941.5312.5312,0,0,0-.4635-.1188l-1.9291.4662-.0062-.0244-.4329-1.7931-.0311-.1278a.5022.5022,0,0,0-.3173-.3584.91.91,0,0,0-.5751-.03.8641.8641,0,0,0-.4985.289.5159.5159,0,0,0-.1018.46l.4706,1.9455-1.9457.47a.5035.5035,0,0,0-.3585.3174.9166.9166,0,0,0-.03.5756l.5929,2.4445,2.6175,1.5985A1.6774,1.6774,0,0,0,579.7985,153.0122Z"></path><path class="cls-32" d="M574.2826,149.5269a.9084.9084,0,0,1,.03-.5756.5022.5022,0,0,1,.358-.317l1.9457-.47-.47-1.9459a.5156.5156,0,0,1,.1018-.46.8651.8651,0,0,1,.4985-.2889.9071.9071,0,0,1,.5751.03.5015.5015,0,0,1,.3174.3581l.47,1.9455,1.929-.4662a.532.532,0,0,1,.4635.1189.8486.8486,0,0,1,.3059.4942.8077.8077,0,0,1-.0467.5792.5461.5461,0,0,1-.3619.3l-1.9287.4663.4662,1.9287a.5333.5333,0,0,1-.119.4636.8477.8477,0,0,1-.4942.3058.8074.8074,0,0,1-.5792-.046.5484.5484,0,0,1-.3005-.3624l-.4664-1.9289-1.9455.47a.5154.5154,0,0,1-.46-.102A.8686.8686,0,0,1,574.2826,149.5269Z"></path><path class="cls-33" d="M573.9343,137.8041a1.6768,1.6768,0,0,0,2.3051-.5572l.7943-1.3-.498-2.06v-.0012a.5581.5581,0,0,0-.2515-.4163l-3.8288-2.3382a.5024.5024,0,0,0-.4777-.029.9092.9092,0,0,0-.4275.3859.8625.8625,0,0,0-.148.5565.6.6,0,0,0,.0329.136l0,.0009,1.1618,4.8066Z"></path><path class="cls-34" d="M571.55,131.4876a.9092.9092,0,0,1,.4275-.3859.5024.5024,0,0,1,.4777.029l3.8288,2.3382a.5565.5565,0,0,1,.2515.4163.8272.8272,0,0,1-.1258.57.7849.7849,0,0,1-.45.3723.574.574,0,0,1-.4764-.0479l-3.8288-2.3382a.515.515,0,0,1-.2528-.3973A.8625.8625,0,0,1,571.55,131.4876Z"></path><path class="cls-35" d="M586.9153,141.3581l-1.0709,1.7536a1.68,1.68,0,0,1-.3065.3711l-1.5572-6.4423a.9215.9215,0,1,1,1.7857-.4316Z"></path><path class="cls-36" d="M583.5388,143.67a1.677,1.677,0,0,0,2.3051-.5572l.7943-1.3006-.498-2.06v-.0012a.5583.5583,0,0,0-.2515-.4163l-3.8288-2.3382a.5032.5032,0,0,0-.4777-.029.91.91,0,0,0-.4275.3859.8631.8631,0,0,0-.148.5565.602.602,0,0,0,.0332.1362v.0007l1.1618,4.8066Z"></path><path class="cls-37" d="M583.9811,143.8589a1.6674,1.6674,0,0,1-.4418-.19l-1.7528-1.07-.3405-1.4076a.9215.9215,0,1,1,1.7857-.4316Z"></path><path class="cls-38" d="M586.14,139.7506a.5578.5578,0,0,0-.2515-.4163l-3.8288-2.3382a.5032.5032,0,0,0-.4777-.029.91.91,0,0,0-.4275.3859.8631.8631,0,0,0-.148.5565.5151.5151,0,0,0,.253.397l3.8288,2.3382a.5729.5729,0,0,0,.4762.0482.7849.7849,0,0,0,.45-.3723A.8266.8266,0,0,0,586.14,139.7506Z"></path><path class="cls-39" d="M585.6434,137.2351a.9224.9224,0,1,1-.3067-1.2679A.922.922,0,0,1,585.6434,137.2351Z"></path><path class="cls-40" d="M583.1089,141.3855a.9224.9224,0,1,1-.3065-1.2681A.9223.9223,0,0,1,583.1089,141.3855Z"></path><path class="cls-41" d="M585.8692,150.038a1.12,1.12,0,0,1,.5269-.4755.6383.6383,0,0,1,.607.0466l4.6283,2.8265a.6857.6857,0,0,1,.31.513,1.0194,1.0194,0,0,1-.1552.7025.9669.9669,0,0,1-.5542.4592.7063.7063,0,0,1-.5866-.0595l-4.6283-2.8264a.6555.6555,0,0,1-.33-.5A1.0624,1.0624,0,0,1,585.8692,150.038Z"></path></g></g><path class="cls-42" d="M580.2588,121.2a.9575.9575,0,0,0,.2748,1.4345.7745.7745,0,0,0,1.1651-.2285l.0068-.0109-.8092-.4941.2528-.4137,1.2448.76-.9191,1.5047-.3955-.2415.1584-.3256a1.1665,1.1665,0,0,1-1.0251-.1486,1.473,1.473,0,0,1-.4375-2.1472,1.522,1.522,0,0,1,2.1863-.5751,1.2764,1.2764,0,0,1,.61,1.6095l-.4945-.3021a.7513.7513,0,0,0-.3951-.8749A.9832.9832,0,0,0,580.2588,121.2Z"></path><path class="cls-43" d="M581.9792,124.0606l1.6349-2.6762,1.0211.6238a.9691.9691,0,0,1,.4528,1.423.873.873,0,0,1-.9372.448l-.162,1.4092-.5123-.313.1565-1.277-.5749-.3511-.61,1Zm1.3317-1.127.5526.3375a.4843.4843,0,0,0,.734-.14.4778.4778,0,0,0-.2174-.7062l-.5525-.3374Z"></path><path class="cls-44" d="M584.4311,125.5585l1.6349-2.6762,1.6621,1.0152-.2642.4318-1.193-.7286-.4206.688,1.0689.653-.2529.4136-1.0689-.6529-.4339.71,1.1935.7289-.2638.4321Z"></path><path class="cls-45" d="M586.3449,126.7276l2.6015-2.0857.48.293-.6687,3.2666-.4941-.3018.162-.7508-1-.6109-.5936.4873Zm1.4617-.5.7247.4429.2205-1.0518a1.7,1.7,0,0,1,.07-.2386,2.2593,2.2593,0,0,1-.1836.17Z"></path><path class="cls-46" d="M590.2568,125.4424l2.0352,1.2431-.2637.4321-.7837-.4788-1.3707,2.2444-.4687-.2861,1.3711-2.2441-.7837-.4788Z"></path><path class="cls-47" d="M592.0036,130.1843l1.6349-2.6762.9372.5726a1.4948,1.4948,0,0,1,.515,2.1595,1.4774,1.4774,0,0,1-2.1245.5323Zm1.8393-1.9581-1.1069,1.8123.45.2749a.9549.9549,0,0,0,1.41-.375.9708.9708,0,0,0-.3289-1.4526Z"></path><path class="cls-48" d="M594.7118,131.8386l1.6349-2.6762,1.6621,1.0152-.2642.4318-1.1935-.7289-.42.6883,1.0689.653-.2528.4136-1.0689-.6529-.4339.71,1.1935.7289-.2638.4321Z"></path><path class="cls-49" d="M596.6256,133.0077l2.6015-2.0857.48.293-.6687,3.2666-.4941-.3019.1619-.7507-1-.6109-.5935.4872Zm1.4616-.5.7248.4429.22-1.0518a1.7129,1.7129,0,0,1,.07-.2386,2.2459,2.2459,0,0,1-.1837.17Z"></path><path class="cls-50" d="M600.1068,134.5409l1.12.6843-.2638.4321-1.5889-.97,1.6349-2.6762.4688.286Z"></path><path class="cls-51" d="M601.48,135.6414a.3476.3476,0,1,1,.1235.4724A.3489.3489,0,0,1,601.48,135.6414Zm.4594-.4887a10.454,10.454,0,0,1,.6887-1.3087l.376-.6147.5272.3219-.3761.6148a9.4272,9.4272,0,0,1-.857,1.2059Z"></path><g class="cls-52"><path class="cls-6" d="M863.5266,214.1286c11.7147-.1554,10.9506-13.3693,20.6224-11.4851s16.175,24.9966,5.4347,32.3153c-4.8606,3.312-11.6254,5.7109-22.6951,2.2169C855.4244,233.557,848.8831,214.3228,863.5266,214.1286Z"></path><g class="cls-53"><path class="cls-54" d="M892.583,230.88l-16.3979,9.7524a1.8466,1.8466,0,0,1-2.5309-.643l-11.7813-19.81a1.8465,1.8465,0,0,1,.6434-2.5308l16.3978-9.7522a1.8465,1.8465,0,0,1,2.5309.6431l11.7812,19.8095A1.8465,1.8465,0,0,1,892.583,230.88Z"></path><path class="cls-55" d="M882.5854,215.08l-15.51,9.2243a.7709.7709,0,0,1-1.0568-.2687l-2.273-3.8219a.771.771,0,0,1,.2686-1.0568l15.51-9.2243a.7711.7711,0,0,1,1.0568.2686l2.273,3.8219A.771.771,0,0,1,882.5854,215.08Z"></path><path class="cls-56" d="M882.0735,214.946,867.2022,223.79a.7047.7047,0,0,1-.966-.2453l-1.9562-3.2893a.7046.7046,0,0,1,.2457-.9659l14.8713-8.8443a.7045.7045,0,0,1,.9658.2454l1.9562,3.2893A.7045.7045,0,0,1,882.0735,214.946Z"></path><path class="cls-57" d="M871.1505,235.7791l2.5037,4.21a1.8468,1.8468,0,0,0,2.5309.643L892.583,230.88a1.8462,1.8462,0,0,0,.6432-2.5308l-2.5036-4.21Z"></path><path class="cls-58" d="M874.7079,229.4369l-2.9448,1.7513a1.1584,1.1584,0,0,1-1.5878-.4035L868.424,227.84a1.1584,1.1584,0,0,1,.4034-1.588l2.9448-1.7513a1.1587,1.1587,0,0,1,1.5881.4035l1.7513,2.9449A1.1585,1.1585,0,0,1,874.7079,229.4369Z"></path><path class="cls-59" d="M874.3392,229.2371l-2.5754,1.5317a1.0134,1.0134,0,0,1-1.3888-.3529l-1.5318-2.5755a1.0134,1.0134,0,0,1,.3531-1.3888l2.5754-1.5316a1.0133,1.0133,0,0,1,1.3887.3529l1.5317,2.5755A1.0132,1.0132,0,0,1,874.3392,229.2371Z"></path><path class="cls-60" d="M878.2905,235.4608l-2.9449,1.7512a1.158,1.158,0,0,1-1.5877-.4035l-1.7514-2.9447a1.1583,1.1583,0,0,1,.4035-1.5879l2.9448-1.7514a1.1585,1.1585,0,0,1,1.5879.4033l1.7515,2.945A1.1587,1.1587,0,0,1,878.2905,235.4608Z"></path><path class="cls-61" d="M877.9218,235.2612l-2.5755,1.5313a1.013,1.013,0,0,1-1.3888-.3527l-1.5316-2.5753a1.0132,1.0132,0,0,1,.3531-1.3888l2.5754-1.5317a1.013,1.013,0,0,1,1.3886.3529l1.5317,2.5756A1.0133,1.0133,0,0,1,877.9218,235.2612Z"></path><path class="cls-62" d="M880.552,225.9612l-2.9448,1.7514a1.1584,1.1584,0,0,1-1.5878-.4036l-1.7514-2.9448a1.1585,1.1585,0,0,1,.4034-1.5879l2.9449-1.7514a1.1584,1.1584,0,0,1,1.588.4036l1.7514,2.9448A1.1585,1.1585,0,0,1,880.552,225.9612Z"></path><path class="cls-63" d="M880.1833,225.7615l-2.5754,1.5316a1.0131,1.0131,0,0,1-1.3887-.3529l-1.5317-2.5755a1.0132,1.0132,0,0,1,.3529-1.3887l2.5754-1.5316a1.0131,1.0131,0,0,1,1.3886.3529l1.5318,2.5755A1.0132,1.0132,0,0,1,880.1833,225.7615Z"></path><path class="cls-64" d="M884.1346,231.9851l-2.9448,1.7516a1.1587,1.1587,0,0,1-1.5878-.4035l-1.7514-2.9451a1.1584,1.1584,0,0,1,.4035-1.5878l2.9448-1.7513a1.1584,1.1584,0,0,1,1.5879.4034l1.7515,2.9451A1.1581,1.1581,0,0,1,884.1346,231.9851Z"></path><path class="cls-65" d="M883.7658,231.7855l-2.5753,1.5317a1.0134,1.0134,0,0,1-1.3888-.3531l-1.5316-2.5753A1.0131,1.0131,0,0,1,878.623,229l2.5754-1.5316a1.013,1.013,0,0,1,1.3887.3529l1.5316,2.5754A1.0131,1.0131,0,0,1,883.7658,231.7855Z"></path><path class="cls-66" d="M883.4605,217.5493l-2.9448,1.7514a1.1585,1.1585,0,0,0-.4036,1.588l5.334,8.9689a1.1587,1.1587,0,0,0,1.5879.4034l2.9449-1.7516a1.1585,1.1585,0,0,0,.4035-1.5876l-5.334-8.9688A1.1586,1.1586,0,0,0,883.4605,217.5493Z"></path><path class="cls-67" d="M883.46,217.9689l-2.5754,1.5316a1.0131,1.0131,0,0,0-.3529,1.3887l5.1142,8.5993a1.0133,1.0133,0,0,0,1.3887.353L889.61,228.31a1.0135,1.0135,0,0,0,.353-1.3888l-5.1143-8.5993A1.013,1.013,0,0,0,883.46,217.9689Z"></path><path class="cls-68" d="M886.1889,221.654l-.01-.0041a.416.416,0,0,0-.3617.0207l-2.8161,1.6748a.3856.3856,0,0,0-.1962.3111.6769.6769,0,0,0,.1053.4157.6423.6423,0,0,0,.3151.2911l6.0965,1.5473.0109.0049c.0136.005.0267.0091.04.013l-2.4287-4.0839Z"></path><path class="cls-69" d="M887.522,223.8959l-.01-.0042a.415.415,0,0,0-.3614.0208l-2.8162,1.6747a.3859.3859,0,0,0-.1963.311.6775.6775,0,0,0,.1054.4158.6426.6426,0,0,0,.3151.2912l6.0967,1.5473.0109.0049a.41.41,0,0,0,.04.0127l-2.4287-4.0837Z"></path><path class="cls-70" d="M882.91,224.0722a.6769.6769,0,0,1-.1053-.4157.3856.3856,0,0,1,.1962-.3111l2.8161-1.6748a.4153.4153,0,0,1,.3617-.0207.6163.6163,0,0,1,.3315.2812.5877.5877,0,0,1,.0889.4257.4274.4274,0,0,1-.1974.2966l-2.8162,1.6748a.3967.3967,0,0,1-.36.0351A.6424.6424,0,0,1,882.91,224.0722Z"></path><path class="cls-71" d="M877.9217,235.2612a1.0132,1.0132,0,0,0,.353-1.3887l-.6342-1.0664-2.98-.76a.489.489,0,0,0-.3425.0767.513.513,0,0,0-.2308.2645.3216.3216,0,0,0,.0139.2887l.6129,1.0307-1.0393.618a.3027.3027,0,0,0-.15.2469.548.548,0,0,0,.0853.3375.52.52,0,0,0,.2557.236.3427.3427,0,0,0,.0937.0219l.0079.004,2.8778.73Z"></path><path class="cls-72" d="M876.3913,235.6086a.5487.5487,0,0,1-.3373.0854.3029.3029,0,0,1-.2472-.15l-.6181-1.0391-1.0393.6181a.3112.3112,0,0,1-.2836.0228.52.52,0,0,1-.2557-.236.548.548,0,0,1-.0853-.3375.3036.3036,0,0,1,.15-.2469l1.0393-.618-.6129-1.0307a.321.321,0,0,1-.0139-.2887.513.513,0,0,1,.2308-.2645.489.489,0,0,1,.3425-.0767.3312.3312,0,0,1,.2381.1557l.6129,1.0306,1.0305-.6131a.3232.3232,0,0,1,.2889-.0138.5137.5137,0,0,1,.2644.2308.4878.4878,0,0,1,.0765.3424.3308.3308,0,0,1-.1555.2382l-1.03.6128.6181,1.0394a.3105.3105,0,0,1,.023.2834A.5215.5215,0,0,1,876.3913,235.6086Z"></path><path class="cls-73" d="M884.1186,230.3965l-.9479-1.5938-1.4719-.3739a.5141.5141,0,0,0-.35.0239.3214.3214,0,0,0-.1943.214l-.2953,1.1622-.0148-.0036-1.08-.2748-.0771-.0194a.3032.3032,0,0,0-.281.0683.55.55,0,0,0-.178.2989.5216.5216,0,0,0,.0137.3479.3113.3113,0,0,0,.2168.184l1.1721.2978-.298,1.172a.304.304,0,0,0,.0683.2811.5533.5533,0,0,0,.2991.1784l1.4732.3732,1.5927-.9472A1.0133,1.0133,0,0,0,884.1186,230.3965Z"></path><path class="cls-74" d="M880.7,232.36a.5488.5488,0,0,1-.2991-.1784.3035.3035,0,0,1-.0683-.2807l.298-1.1721-1.1722-.298a.3112.3112,0,0,1-.2168-.1841.522.522,0,0,1-.0136-.3478.5474.5474,0,0,1,.1781-.2989.3028.3028,0,0,1,.2808-.0685l1.1721.2979.2953-1.1621a.3217.3217,0,0,1,.1944-.2141.5132.5132,0,0,1,.35-.0239.4888.4888,0,0,1,.2963.1884.33.33,0,0,1,.0584.2782l-.2953,1.1619,1.1619.2953a.322.322,0,0,1,.2141.1944.5122.5122,0,0,1,.0239.35.487.487,0,0,1-.1881.2964.3311.3311,0,0,1-.2784.0583l-1.1621-.2952-.2978,1.172a.3117.3117,0,0,1-.1842.2168A.5247.5247,0,0,1,880.7,232.36Z"></path><path class="cls-75" d="M874.3392,229.2371a1.0132,1.0132,0,0,0,.3529-1.3887l-.4706-.7913-1.241-.3154-.0007,0a.3373.3373,0,0,0-.2933.0168l-2.33,1.3855a.3033.3033,0,0,0-.15.247.5487.5487,0,0,0,.0854.3373.5207.5207,0,0,0,.2556.2361.3641.3641,0,0,0,.0819.0209h.0006l2.8956.7359Z"></path><path class="cls-76" d="M870.2919,228.728a.5487.5487,0,0,1-.0854-.3373.3033.3033,0,0,1,.15-.247l2.33-1.3855a.3363.3363,0,0,1,.2933-.0168.4992.4992,0,0,1,.2691.2281.4744.4744,0,0,1,.0719.3452.3469.3469,0,0,1-.16.241l-2.33,1.3855a.3112.3112,0,0,1-.2836.0229A.5207.5207,0,0,1,870.2919,228.728Z"></path><path class="cls-77" d="M879.9014,223.3055l.6346,1.067a1.0154,1.0154,0,0,1,.1117.2685l-3.8811-.9864a.5567.5567,0,1,1,.2734-1.0757Z"></path><path class="cls-78" d="M880.1833,225.7616a1.0132,1.0132,0,0,0,.3529-1.3887l-.4707-.7913-1.241-.3154-.0006,0a.3375.3375,0,0,0-.2934.0168l-2.33,1.3855a.304.304,0,0,0-.15.247.55.55,0,0,0,.0855.3373.5209.5209,0,0,0,.2555.2361.36.36,0,0,0,.0822.0207l0,0,2.8957.7359Z"></path><path class="cls-79" d="M880.4092,225.5787a1.0049,1.0049,0,0,1-.2261.1825l-1.0665.6342-.848-.2153a.5568.5568,0,1,1,.2733-1.0758Z"></path><path class="cls-80" d="M878.8239,223.2659a.3372.3372,0,0,0-.2934.0168l-2.33,1.3855a.304.304,0,0,0-.15.247.55.55,0,0,0,.0855.3373.5209.5209,0,0,0,.2555.2361.3113.3113,0,0,0,.2835-.023l2.33-1.3856a.3461.3461,0,0,0,.16-.2407.4747.4747,0,0,0-.072-.3453A.4994.4994,0,0,0,878.8239,223.2659Z"></path><path class="cls-81" d="M877.34,222.8213a.5573.5573,0,1,1-.7639-.194A.5572.5572,0,0,1,877.34,222.8213Z"></path><path class="cls-82" d="M878.8418,225.3467a.5573.5573,0,1,1-.764-.1942A.5572.5572,0,0,1,878.8418,225.3467Z"></path><path class="cls-83" d="M884.2431,226.314a.6766.6766,0,0,1-.1053-.4157.3856.3856,0,0,1,.1962-.3111l2.8162-1.6747a.4143.4143,0,0,1,.3614-.0207.6164.6164,0,0,1,.3315.2812.584.584,0,0,1,.0889.4257.4269.4269,0,0,1-.1974.2966l-2.8161,1.6748a.3958.3958,0,0,1-.36.0351A.6426.6426,0,0,1,884.2431,226.314Z"></path></g></g><path class="cls-84" d="M867.2541,221.1724a.5785.5785,0,0,0,.8439.258.4678.4678,0,0,0,.2067-.6869l-.0039-.0067-.4923.2928-.15-.2518.7575-.45.5445.9156-.2406.1431-.1292-.1765a.7051.7051,0,0,1-.3687.5057.89.89,0,0,1-1.2706-.3723.92.92,0,0,1,.31-1.33.771.771,0,0,1,1.032.1283l-.301.1789a.4538.4538,0,0,0-.5788-.0359A.5941.5941,0,0,0,867.2541,221.1724Z"></path><path class="cls-85" d="M869.2677,221.0606l-.9683-1.6287.6215-.37a.5854.5854,0,0,1,.8879.16.5273.5273,0,0,1-.0251.6271l.7071.4842-.3118.1854-.6381-.444-.35.208.3618.6082Zm-.2262-1.0295.3362-.2a.2926.2926,0,0,0,.1326-.4315.2887.2887,0,0,0-.4386-.0832l-.3362.2Z"></path><path class="cls-86" d="M870.76,220.1735l-.9683-1.6287,1.0115-.6014.1561.263-.726.4317.2489.4189.6505-.3868.15.2519-.65.3867.257.4323.7263-.4319.1564.2629Z"></path><path class="cls-87" d="M871.9246,219.4811l-.38-1.9785.292-.1736,1.5563,1.2792-.3007.1787-.3553-.2984-.6085.3616.0927.4546Zm.1454-.922.4412-.2621-.5-.4146a1.0334,1.0334,0,0,1-.1076-.1048,1.3653,1.3653,0,0,1,.0387.1459Z"></path><path class="cls-88" d="M872.342,217.0285l1.2385-.7364.1564.2629-.4769.2835.8121,1.3657-.2851.17-.8119-1.3659-.4769.2836Z"></path><path class="cls-89" d="M875.3683,217.4337,874.4,215.805l.57-.3391a.9031.9031,0,0,1,1.299.3344.8926.8926,0,0,1-.3153,1.2851Zm-.527-1.5352.6558,1.1028.2739-.1631a.5769.5769,0,0,0,.1977-.8592.5865.5865,0,0,0-.8688-.2342Z"></path><path class="cls-90" d="M877.0163,216.4538l-.9682-1.6287,1.0114-.6014.1561.263-.7262.4319.2491.4187.65-.3867.15.2518-.65.3867.257.4323.7263-.4319.1564.2629Z"></path><path class="cls-91" d="M878.181,215.7614l-.38-1.9784.292-.1737,1.5563,1.2792-.3007.1787-.3553-.2984-.6085.3616.0928.4546Zm.1455-.9219.4411-.2622-.5-.4146a1.0254,1.0254,0,0,1-.1077-.1048,1.3418,1.3418,0,0,1,.0387.1459Z"></path><path class="cls-92" d="M879.9825,214.3343l.6818-.4052.1564.2628-.9669.575-.9682-1.6287.2851-.17Z"></path><path class="cls-93" d="M880.958,213.9113a.21.21,0,1,1,.2873.0674A.2109.2109,0,0,1,880.958,213.9113Zm-.1314-.3833a6.3086,6.3086,0,0,1-.5047-.7373l-.2223-.3744.3207-.1907.2223.3744a5.695,5.695,0,0,1,.4024.7982Z"></path></g></svg> 