<?xml version="1.0" encoding="UTF-8"?> <svg xmlns="http://www.w3.org/2000/svg" xmlns:xlink="http://www.w3.org/1999/xlink" width="184" height="256" viewBox="0 0 184 256"><defs><style>.cls-1{fill:#f4f5f8;}.cls-2{mask:url(#mask);}.cls-3,.cls-4,.cls-5{fill:none;}.cls-3{stroke:url(#linear-gradient);}.cls-4{stroke:url(#linear-gradient-2);}.cls-5{stroke:url(#linear-gradient-3);}.cls-6{fill:#6b11c9;}.cls-7{fill:#e69a24;}.cls-8{fill:#e68b25;}.cls-9{fill:#fcc901;}.cls-10{fill:#8f89c1;}.cls-11{fill:#fff378;}.cls-12{fill:#1fadf7;}.cls-13{fill:#388cb9;}.cls-14{fill:#22c6fa;}.cls-15{fill:#b6e4fa;}</style><mask id="mask" x="0" y="0" width="184.0474" height="282.0657" maskUnits="userSpaceOnUse"><g id="mask0_45_1705" data-name="mask0 45 1705"><rect class="cls-1" width="184" height="256"></rect></g></mask><linearGradient id="linear-gradient" x1="70.6629" y1="-18.9966" x2="103.0038" y2="224.8335" gradientTransform="matrix(1, 0, 0, -1, 0, 256)" gradientUnits="userSpaceOnUse"><stop offset="0" stop-color="#fff"></stop><stop offset="0.3267" stop-color="#e21284"></stop><stop offset="1" stop-color="#f5f5f5"></stop></linearGradient><linearGradient id="linear-gradient-2" x1="75.0447" y1="14.0994" x2="102.0251" y2="217.5103" gradientTransform="matrix(1, 0, 0, -1, 0, 256)" gradientUnits="userSpaceOnUse"><stop offset="0" stop-color="#fff"></stop><stop offset="0.0129" stop-color="#eee3f9"></stop><stop offset="0.036" stop-color="#d3b8ef"></stop><stop offset="0.0608" stop-color="#bb91e6"></stop><stop offset="0.0872" stop-color="#a771de"></stop><stop offset="0.1154" stop-color="#9657d8"></stop><stop offset="0.1464" stop-color="#8a42d4"></stop><stop offset="0.1813" stop-color="#8134d1"></stop><stop offset="0.2236" stop-color="#7c2ccf"></stop><stop offset="0.2937" stop-color="#7a29ce"></stop><stop offset="1" stop-color="#f5f5f5"></stop></linearGradient><linearGradient id="linear-gradient-3" x1="139.5155" y1="72.0318" x2="26.9583" y2="96.0318" gradientTransform="matrix(1, 0, 0, -1, 0, 256)" gradientUnits="userSpaceOnUse"><stop offset="0" stop-color="#e21284"></stop><stop offset="1" stop-color="#f5f5f5"></stop></linearGradient></defs><title>Artboard 1 copy 4</title><g id="Layer_2" data-name="Layer 2"><g class="cls-2"><path class="cls-3" d="M9.0263,266.74c7.156-23.659,41.59-66.382,122.0787-47.992C231.715,241.736,170.064,34.0747,92.32,109.041s-106.0248-2.613-80.637-28.1734,49.57-23.86,52.5555-46.3654c2.3888-18.01-49.6595-10.3033-62.4551,2.8654"></path><path class="cls-4" d="M8.0369,274.143c7.156-23.66,41.59-66.382,122.0781-47.992C230.726,249.138,169.074,41.477,91.33,116.443s-106.0248-2.612-80.637-28.173,49.57-23.86,52.5555-46.3655C65.6377,23.895,13.59,31.6013.7938,44.77"></path><path class="cls-5" d="M7.6079,281.921c7.1561-23.66,41.59-66.382,122.0781-47.992,100.611,22.987,38.959-184.6741-38.7845-109.708s-106.0248-2.612-80.637-28.1732,49.57-23.86,52.5555-46.3654c2.3888-18.01-49.6595-10.3033-62.4551,2.8654"></path><path class="cls-6" d="M149.045,92.8339c-46.697-41.1-74.0481-2.0173-81.8888,22.6641-9.21,28.994-28.3457,45.845-6.81,66.288s38.7932-18.569,76.1391-22.58C169.543,155.655,172.017,113.053,149.045,92.8339Z"></path></g></g><g id="Layer_1" data-name="Layer 1"><path class="cls-7" d="M88.4186,95.0678l-.1908-.0173q-.513-.0462-1.0281-.0729l-.2876-.0131q-.475-.02-.9517-.0216c-.1078-.0009-.2155-.0019-.3234-.0017-.32.0028-.6405.0124-.9619.0256l-.2954.0109c-.4152.023-.8308.053-1.2474.0956l-.0138,0q-1.0191.103-2.04.2881l-.1.0176q-.487.0887-.9737.1975l-.1138.026q-.448.1015-.896.2192l-.112.03q-.4635.1242-.9261.2669L77.76,96.18c-.312.0984-.6244.2-.9349.31a27.1675,27.1675,0,0,0-3.3107,1.4268q-.5288.2715-1.0405.5626-.8784.4993-1.707,1.0583-.276.1869-.547.3785-.5414.3849-1.0605.7934-.7784.6133-1.504,1.2773t-1.398,1.3761q-.2238.2372-.4416.4787a27.0387,27.0387,0,0,0-3.0766,4.1673q-.1661.2769-.3256.5584-.3193.5611-.6108,1.1384c-.0973.1922-.1924.3847-.2849.58a26.8761,26.8761,0,0,0-2.57,13.29q.0421.6628.1182,1.3272.0382.3323.0843.6637.0933.6649.22,1.3291a27.0967,27.0967,0,0,0,1.0777,3.9681c.0966.2722.1983.54.3026.8078l.09.2255q.127.3156.26.6269l.0776.18q.1706.3893.3523.7712l.0728.1486q.1533.3165.3136.6271l.1033.1983c.1259.2384.2543.4759.3861.7087l.0171.0309c.1413.2486.2872.4944.4354.7371l.0975.1567q.1884.3042.3846.602l.0827.1261q.2406.3611.4914.7139l.0187.0258q.2407.3358.4908.6616l.0863.1126q.534.6915,1.1086,1.344l.0352.039q.2838.3206.5758.63l.0258.0267c.237.25.48.4942.7258.7348l.1945.1872q.2931.28.5941.5523l.1808.1629q.7888.6984,1.628,1.3322l.1291.0962q.3753.28.7593.5462l.1163.0807q.8968.6148,1.8394,1.1554l.0432.0239q.4605.2628.9311.5076l.0424.0218a26.86,26.86,0,0,0,17.7427,2.4849l.98,2.7633L105.85,189.609l.3362.948.8118,2.2894a3.7672,3.7672,0,0,0,7.1012-2.5182l-.8118-2.2894-.3362-.948-14.103-39.7692-.5634-1.5888a26.924,26.924,0,0,0-9.8658-50.665Z"></path><path class="cls-7" d="M92.1631,151.0143,105.85,189.609l7.1012-2.5182-14.103-39.7692A16.9775,16.9775,0,0,0,92.1631,151.0143Z"></path><path class="cls-8" d="M91.1832,148.251l.98,2.7633a16.9775,16.9775,0,0,1,6.6847-3.6927l-.5634-1.5888a27.0583,27.0583,0,0,1-7.1012,2.5182Z"></path><path class="cls-9" d="M90.7719,138.6279a20.28,20.28,0,0,0,10.0778-30.37,20.1541,20.1541,0,0,1,2.3457,3.1594,20.27,20.27,0,1,0-33.9281,22.14c-.0991-.1405-.2-.28-.2963-.424A20.2747,20.2747,0,0,0,90.7719,138.6279ZM89.4167,121.733a1.9523,1.9523,0,1,1-2.6286-.2536A1.87,1.87,0,0,1,89.4167,121.733ZM74.1844,111.6765c3.1734-2.3961,7.5288-1.9764,9.7283.9374s1.41,7.2173-1.7638,9.6125-7.5293,1.9764-9.7287-.9373S71.0107,114.0716,74.1844,111.6765Z"></path><path class="cls-8" d="M104.5557,114.1237c-.074-.1806-.1563-.3561-.2353-.5328-.06-.1343-.1154-.27-.1775-.4013-.1119-.2366-.2312-.4673-.3506-.6967l-.1037-.206c-.1432-.2681-.2937-.53-.4479-.79l-.0453-.08a20.1541,20.1541,0,0,0-2.3457-3.1594A20.2723,20.2723,0,0,1,68.971,133.1325c.0962.1436.1972.2835.2963.424.078.111.1546.2214.2347.3306.1005.1366.2051.2707.3083.4041.0841.1078.1677.2157.2534.3218.1055.13.2135.26.3227.3878.0883.1041.1778.2066.2683.3087.1109.1251.222.2491.3365.3717.0928.0992.188.1974.2829.2946.116.1188.2308.2391.3494.3559.0966.0944.1969.1865.2957.2789q.3315.312.6752.6073c.1061.091.2109.1848.3189.273.1235.1027.25.2.3754.2986.1117.0879.2229.176.3359.2611.1266.095.2552.1881.3839.28.1167.0828.2338.1655.352.2466q.1932.1327.39.2612c.1231.0805.248.1581.3728.2358.1292.0806.2585.1612.3895.2389.1364.08.2747.1564.4129.2338.1227.0683.2446.1393.3689.2059q.3745.1995.7561.3829l.358.1628c.1543.0706.3094.142.4655.2086.1286.055.2586.1063.3886.1586.1507.0606.3023.121.4545.1778.1312.05.2631.0968.3955.1438q.2337.0816.4707.1586c.1289.0416.2586.0839.3881.1231.17.0515.3412.0993.5127.1459.1194.0325.2382.0676.3585.0977.24.0615.4811.1169.7226.1688l.29.06q.3685.0741.7406.1356c.1127.0182.2263.0327.34.0494.1886.0271.3782.0538.5683.0758.1237.0144.2481.0262.3721.0382q.2745.0267.5506.0464c.1248.0083.25.0165.3748.0225.1908.01.3815.0158.5728.0207.1171.002.2335.0054.3512.0062.2241.0011.4493-.0027.6744-.01l.25-.0049q.4607-.0192.9219-.06l.2431-.0258c.23-.0232.46-.0478.69-.079.1126-.0153.2255-.033.3383-.0506.2-.0307.4-.0625.5995-.1.1205-.0214.24-.0449.36-.0694q.2952-.0594.5893-.1284c.1174-.0271.2347-.0542.3514-.0833.21-.0533.4209-.1112.6307-.171.1-.0288.2-.0554.3-.0852.3086-.0939.6168-.1931.9238-.3019a20.2687,20.2687,0,0,0,12.3288-25.8775Q104.7529,114.6,104.5557,114.1237Z"></path><path class="cls-10" d="M60.7511,131.6714c-.1043-.2674-.206-.5356-.3026-.8078C60.5451,131.1358,60.6468,131.404,60.7511,131.6714Z"></path><path class="cls-7" d="M111.1981,112.8667A26.9313,26.9313,0,0,0,83.1323,95.0733a26.8151,26.8151,0,0,1,10.2682.9617,26.92,26.92,0,0,0-11.4587,52.4718,27.0371,27.0371,0,0,1-15.6853-8.1419,26.9488,26.9488,0,0,0,24.9267,7.8861,27.0583,27.0583,0,0,0,7.1012-2.5182A26.9283,26.9283,0,0,0,111.1981,112.8667Zm-18.6,28.1015c-.307.1088-.6152.208-.9238.3019-.1.03-.2.0564-.3.0852-.21.06-.42.1177-.6307.171-.1172.0293-.234.0562-.3514.0833q-.2943.0691-.5893.1284c-.1194.0245-.2391.048-.36.0694-.1994.0371-.3995.0689-.5995.1-.1128.0176-.2257.0353-.3383.0506-.23.0312-.46.0558-.69.079l-.2431.0258q-.4617.04-.9219.06l-.25.0049c-.2251.0071-.45.0109-.6744.01-.1177-.0008-.2341-.0042-.3512-.0062-.1913-.0049-.382-.0112-.5728-.0207-.1251-.006-.25-.0142-.3748-.0225q-.2764-.02-.5506-.0464c-.124-.012-.2484-.0238-.3721-.0382-.19-.022-.38-.0487-.5683-.0758-.1139-.0167-.2275-.0312-.34-.0494q-.3723-.0609-.7406-.1356l-.29-.06c-.2415-.0519-.4827-.1073-.7226-.1688-.12-.03-.2391-.0652-.3585-.0977-.1715-.0466-.3427-.0944-.5127-.1459-.1295-.0392-.2592-.0815-.3881-.1231q-.237-.0769-.4707-.1586c-.1324-.047-.2643-.0941-.3955-.1438-.1522-.0568-.3038-.1172-.4545-.1778-.13-.0523-.26-.1036-.3886-.1586-.1561-.0666-.3112-.138-.4655-.2086l-.358-.1628q-.3822-.1832-.7561-.3829c-.1243-.0666-.2462-.1376-.3689-.2059-.1382-.0774-.2765-.1536-.4129-.2338-.131-.0777-.26-.1583-.3895-.2389-.1248-.0777-.25-.1553-.3728-.2358q-.1965-.1284-.39-.2612c-.1182-.0811-.2353-.1638-.352-.2466-.1287-.0919-.2573-.185-.3839-.28-.113-.0851-.2242-.1732-.3359-.2611-.1256-.0987-.2519-.1959-.3754-.2986-.108-.0882-.2128-.182-.3189-.273q-.3441-.2956-.6752-.6073c-.0988-.0924-.1991-.1845-.2957-.2789-.1186-.1168-.2334-.2371-.3494-.3559-.0949-.0972-.19-.1954-.2829-.2946-.1145-.1226-.2256-.2466-.3365-.3717-.0905-.1021-.18-.2046-.2683-.3087-.1092-.1279-.2172-.2574-.3227-.3878-.0857-.1061-.1693-.214-.2534-.3218-.1032-.1334-.2078-.2675-.3083-.4041-.08-.1092-.1567-.22-.2347-.3306a20.27,20.27,0,1,1,33.9281-22.1395l.0453.08c.1542.26.3047.5217.4479.79l.1037.206c.1194.2294.2387.46.3506.6967.0621.1312.1176.267.1775.4013.079.1767.1613.3522.2353.5328q.1967.4756.371.967A20.2687,20.2687,0,0,1,92.5979,140.9682Z"></path><path class="cls-10" d="M61.5308,133.4755q-.1816-.3819-.3523-.7712Q61.3491,133.0936,61.5308,133.4755Z"></path><path class="cls-10" d="M61.1009,132.5238q-.1338-.3115-.26-.6269Q60.9677,132.2125,61.1009,132.5238Z"></path><path class="cls-10" d="M61.9172,134.2512q-.16-.3105-.3136-.6271Q61.7569,133.9406,61.9172,134.2512Z"></path><path class="cls-10" d="M64.4248,138.2123q-.25-.3258-.4908-.6616Q64.1747,137.8866,64.4248,138.2123Z"></path><path class="cls-10" d="M63.3412,136.6849q-.1962-.2979-.3846-.602Q63.145,136.3871,63.3412,136.6849Z"></path><path class="cls-10" d="M62.8591,135.9262c-.1482-.2427-.2941-.4885-.4354-.7371C62.565,135.4377,62.7109,135.6835,62.8591,135.9262Z"></path><path class="cls-10" d="M65.62,139.6689q-.5743-.6519-1.1086-1.344Q65.0451,139.0164,65.62,139.6689Z"></path><path class="cls-10" d="M66.2307,140.3382q-.293-.31-.5758-.63C65.8436,139.9217,66.0359,140.131,66.2307,140.3382Z"></path><path class="cls-10" d="M63.9153,137.5249q-.2514-.3521-.4914-.7139Q63.665,137.1734,63.9153,137.5249Z"></path><path class="cls-10" d="M62.4066,135.1582c-.1318-.2328-.26-.47-.3861-.7087C62.1464,134.6879,62.2748,134.9254,62.4066,135.1582Z"></path><path class="cls-7" d="M81.9418,148.5068A26.9206,26.9206,0,0,1,93.4005,96.035a26.8151,26.8151,0,0,0-10.2682-.9617l-.0138,0q-1.0191.103-2.04.2881l-.1.0176q-.487.0887-.9737.1975l-.1138.026q-.448.1015-.896.2192l-.112.03q-.4635.1242-.9261.2669L77.76,96.18c-.312.0984-.6244.2-.9349.31a27.0858,27.0858,0,0,0-4.3512,1.9894q-.8784.4993-1.707,1.0583-.276.1869-.547.3785-.5414.3849-1.0605.7934-.7784.6133-1.504,1.2773t-1.398,1.3761q-.2238.2372-.4416.4787a27.0387,27.0387,0,0,0-3.0766,4.1673q-.1661.2769-.3256.5584-.3193.5611-.6108,1.1384c-.0973.1922-.1924.3847-.2849.58a26.8761,26.8761,0,0,0-2.57,13.29q.0421.6628.1182,1.3272.0382.3323.0843.6637.0933.6649.22,1.3291a27.0967,27.0967,0,0,0,1.0777,3.9681c.0966.2722.1983.54.3026.8078l.09.2255q.127.3156.26.6269l.0776.18q.1706.3893.3523.7712l.0728.1486q.1533.3165.3136.6271l.1033.1983c.1259.2384.2543.4759.3861.7087l.0171.0309c.1413.2486.2872.4944.4354.7371l.0975.1567q.1884.3042.3846.602l.0827.1261q.2406.3611.4914.7139l.0187.0258q.2407.3358.4908.6616l.0863.1126q.534.6915,1.1086,1.344l.0352.039q.2838.3206.5758.63l.0258.0267A27.0371,27.0371,0,0,0,81.9418,148.5068Z"></path><path class="cls-11" d="M82.1489,122.2264c3.1738-2.3952,3.9632-6.6988,1.7638-9.6125s-6.5549-3.3335-9.7283-.9374-3.9633,6.7-1.7642,9.6126S78.975,124.6226,82.1489,122.2264Z"></path><path class="cls-11" d="M86.3116,124.077a1.9523,1.9523,0,1,0,.4765-2.5976A1.8708,1.8708,0,0,0,86.3116,124.077Z"></path><path class="cls-12" d="M145.7456,75.6025l-.0813-.0567q-.2188-.1524-.4438-.2965l-.1259-.08q-.2088-.1307-.4225-.2538c-.0483-.0281-.0965-.0562-.1451-.0837-.1446-.0809-.2912-.1588-.4391-.2352l-.1357-.0709c-.1926-.0962-.3872-.1893-.5856-.277l-.0063-.0034q-.4846-.2151-.9912-.3935l-.0494-.0178q-.242-.085-.4886-.1609l-.0579-.0175q-.2276-.0693-.4592-.1313l-.058-.0154q-.24-.063-.4849-.1175l-.1046-.0232c-.1655-.0357-.3321-.07-.5-.1a14.0522,14.0522,0,0,0-1.855-.2075q-.3075-.0135-.6123-.0139c-.3488,0-.6953.0128-1.0392.0381q-.172.0134-.3431.03-.3423.0342-.68.0848-.5075.0762-1.0041.1886t-.9818.26q-.1614.0492-.3214.102a13.9954,13.9954,0,0,0-2.4526,1.0851q-.1458.0819-.29.1676-.2875.1705-.5667.3553c-.0931.0615-.1853.1237-.2769.1877a13.9178,13.9178,0,0,0-4.5648,5.3181q-.1511.309-.2873.6273-.0679.1591-.1323.32-.1287.323-.2419.6543a14.0353,14.0353,0,0,0-.5331,2.0611c-.0264.1473-.0494.294-.0711.441l-.0176.1244q-.0238.1745-.0437.3487l-.0115.1011q-.0229.2187-.0393.4372l-.0054.0855q-.0121.1817-.02.3625l-.0044.1157c-.0045.14-.0077.2792-.0081.4178l0,.0182c0,.1481.0024.2961.0068.4432l.0036.0955q.0068.1853.0186.3694l.0049.078c.01.1494.0226.2986.0378.4471l.0018.0164q.0222.2128.0511.4235l.01.0727q.0627.4481.1539.8889l.0058.0266c.03.1446.0626.2879.0973.4311l.0047.0187c.0424.1734.0892.3454.138.5166l.0394.1341c.04.1342.0817.2681.1256.4008l.04.12q.1756.5166.3905,1.0168l.0334.0764q.0971.222.2014.44l.0316.0662q.2457.5066.5309.9914l.0133.0219q.14.2362.2886.4671l.0134.0207a13.9081,13.9081,0,0,0,7.3426,5.6688l-.2681,1.4942-3.7443,20.8691-.0919.5126-.2222,1.2379a1.9506,1.9506,0,0,0,3.84.6889l.2221-1.2379.092-.5126,3.8583-21.5042.1541-.8591a13.94,13.94,0,0,0,8.5588-25.3178Z"></path><path class="cls-12" d="M133.0789,101.7256l-3.7443,20.8691,3.84.6889,3.8583-21.5042A8.7912,8.7912,0,0,0,133.0789,101.7256Z"></path><path class="cls-13" d="M133.347,100.2314l-.2681,1.4942a8.7912,8.7912,0,0,1,3.9538.0538l.1541-.8591a14.0071,14.0071,0,0,1-3.84-.6889Z"></path><path class="cls-14" d="M135.63,95.7978a10.5,10.5,0,0,0,12.3229-11.0743,10.4359,10.4359,0,0,1,.2446,2.0227,10.4952,10.4952,0,1,0-20.9385,1.2545c-.0085-.0886-.0181-.1774-.0245-.2667A10.4976,10.4976,0,0,0,135.63,95.7978Zm3.7243-7.9463a1.0109,1.0109,0,1,1-1.1172-.7883A.9685.9685,0,0,1,139.3547,87.8515Zm-4.2713-8.43a3.4346,3.4346,0,1,1-3.2593,3.8709A3.5844,3.5844,0,0,1,135.0834,79.4212Z"></path><path class="cls-13" d="M148.1154,88.3125c.0131-.1.0211-.2.0309-.3.0075-.0758.0174-.1511.0231-.2261.01-.1351.0159-.2694.021-.4033l.0062-.1192c.0044-.1573.0039-.3137.0011-.47l0-.0476a10.4359,10.4359,0,0,0-.2446-2.0227,10.4963,10.4963,0,0,1-20.7184,3.01c.0064.0893.016.1781.0245.2667.0066.07.0127.1393.0207.2089.01.0872.0229.1744.0351.2608.01.07.02.14.0314.21q.021.1286.0456.2572.02.1041.0415.2076c.0178.0848.036.169.056.2535.0163.0684.034.137.0517.2051.0217.0832.0425.1667.0659.25.0192.0672.0407.1344.0614.2013q.069.2253.1479.4463c.0244.0682.0475.1372.0734.2046.0292.0779.0611.154.0922.2306.0277.0681.0551.1363.0841.2036.0326.0752.0666.15.1009.2244.0312.0672.0627.1344.0951.2012q.0528.1092.1082.2174c.0347.0678.071.1347.1072.2017.0375.0694.0749.1388.1139.2074.0408.0711.0834.1408.1257.2111.0377.0621.0743.1253.1131.1872q.1173.1857.2419.3661l.1193.1651c.0512.0713.1027.1432.1558.2132.0437.0577.0891.1141.1341.171.0522.0659.1049.132.1588.1965.0463.0561.0935.1111.141.1662q.0842.0966.171.1921c.0473.0517.0948.104.143.1549.0632.0667.128.1321.1932.1971.0453.0453.09.0915.1361.1359q.1383.1338.2817.2613l.1149.1015q.1468.1279.2983.251c.046.0371.0934.0728.14.1095.0779.0606.1563.1212.2362.18.0519.0382.1049.0754.1576.1126q.1165.0825.2357.1621c.054.0357.1081.0715.1628.1062.0834.0533.1675.105.2523.1563.0522.0309.1037.0624.1564.0929.1.0579.2028.114.3058.1686l.1139.062q.2121.1095.43.21l.1159.0507c.1092.0485.219.0965.3305.1414.0545.022.11.043.1651.064.0978.0375.1959.0745.2952.109.06.0213.12.0414.18.061q.148.049.298.0934c.06.018.1194.0359.1794.0527.1083.03.2178.0579.3275.0849.0523.0127.1042.0264.1569.0387.1628.0369.3269.0713.4929.1011a10.4943,10.4943,0,0,0,12.1829-8.4762Q148.0819,88.5773,148.1154,88.3125Z"></path><path class="cls-10" d="M123.9127,84.9684c.0217-.147.0447-.2937.0711-.441C123.9574,84.6747,123.9344,84.8214,123.9127,84.9684Z"></path><path class="cls-12" d="M151.4254,89.4509a13.9441,13.9441,0,0,0-8.0588-15.2019,13.884,13.884,0,0,1,4.3716,3.0664A13.9385,13.9385,0,0,0,129.125,97.9759a13.999,13.999,0,0,1-4.9662-7.6853,13.9534,13.9534,0,0,0,9.1882,9.9408,14.0071,14.0071,0,0,0,3.84.6889A13.9426,13.9426,0,0,0,151.4254,89.4509Zm-15.574,7.8678c-.166-.03-.33-.0642-.4929-.1011-.0527-.0123-.1046-.026-.1569-.0387-.11-.027-.2192-.0549-.3275-.0849-.06-.0169-.12-.0347-.1794-.0527q-.15-.0444-.298-.0934c-.06-.02-.12-.04-.18-.061-.0993-.0345-.1974-.0715-.2952-.109-.0553-.021-.1106-.042-.1651-.064-.1115-.0449-.2213-.0929-.3305-.1414l-.1159-.0507q-.2178-.1006-.43-.21l-.1139-.062c-.103-.0546-.2053-.1107-.3058-.1686-.0527-.0305-.1042-.062-.1564-.0929-.0848-.0513-.1689-.103-.2523-.1563-.0547-.0347-.1088-.0705-.1628-.1062q-.1192-.08-.2357-.1621c-.0527-.0372-.1057-.0744-.1576-.1126-.08-.0587-.1583-.1193-.2362-.18-.0469-.0367-.0943-.0724-.14-.1095q-.1518-.1228-.2983-.251l-.1149-.1015q-.143-.128-.2817-.2613c-.0464-.0444-.0908-.0906-.1361-.1359-.0652-.065-.13-.13-.1932-.1971-.0482-.0509-.0957-.1032-.143-.1549q-.0869-.0954-.171-.1921c-.0475-.0551-.0947-.11-.141-.1662-.0539-.0645-.1066-.1306-.1588-.1965-.045-.0569-.09-.1133-.1341-.171-.0531-.07-.1046-.1419-.1558-.2132l-.1193-.1651q-.125-.18-.2419-.3661c-.0388-.0619-.0754-.1251-.1131-.1872-.0423-.07-.0849-.14-.1257-.2111-.039-.0686-.0764-.138-.1139-.2074-.0362-.067-.0725-.1339-.1072-.2017q-.0555-.1082-.1082-.2174c-.0324-.0668-.0639-.134-.0951-.2012-.0343-.0744-.0683-.1492-.1009-.2244-.029-.0673-.0564-.1355-.0841-.2036-.0311-.0766-.063-.1527-.0922-.2306-.0259-.0674-.049-.1364-.0734-.2046q-.0789-.2213-.1479-.4463c-.0207-.0669-.0422-.1341-.0614-.2013-.0234-.083-.0442-.1665-.0659-.25-.0177-.0681-.0354-.1367-.0517-.2051-.02-.0845-.0382-.1687-.056-.2535q-.0217-.1036-.0415-.2076-.0245-.1284-.0456-.2572c-.0114-.07-.0213-.14-.0314-.21-.0122-.0864-.0249-.1736-.0351-.2608-.008-.07-.0141-.1389-.0207-.2089a10.4951,10.4951,0,1,1,20.9385-1.2545l0,.0476c.0028.1564.0033.3128-.0011.47l-.0062.1192c-.0051.1339-.0107.2682-.021.4033-.0057.075-.0156.15-.0231.2261-.01.1-.0178.2-.0309.3q-.0336.2643-.0811.53A10.4943,10.4943,0,0,1,135.8514,97.3187Z"></path><path class="cls-10" d="M123.8006,85.98q.0162-.2184.0393-.4372Q123.817,85.7613,123.8006,85.98Z"></path><path class="cls-10" d="M123.8514,85.4415q.02-.1745.0437-.3487Q123.8713,85.2673,123.8514,85.4415Z"></path><path class="cls-10" d="M123.7754,86.4278q.0075-.1808.02-.3625Q123.7831,86.247,123.7754,86.4278Z"></path><path class="cls-10" d="M123.8872,88.8526q-.0288-.2107-.0511-.4235Q123.8583,88.642,123.8872,88.8526Z"></path><path class="cls-10" d="M123.7916,87.8876q-.0119-.1842-.0186-.3694Q123.78,87.7035,123.7916,87.8876Z"></path><path class="cls-10" d="M123.7694,87.4227c-.0044-.1471-.007-.2951-.0068-.4432C123.7624,87.1276,123.765,87.2756,123.7694,87.4227Z"></path><path class="cls-10" d="M124.051,89.8142q-.0912-.4406-.1539-.8889Q123.96,89.3734,124.051,89.8142Z"></path><path class="cls-10" d="M124.1541,90.2719c-.0347-.1432-.067-.2865-.0973-.4311C124.0868,89.9853,124.12,90.1288,124.1541,90.2719Z"></path><path class="cls-10" d="M123.8343,88.4127c-.0152-.1485-.0275-.2977-.0378-.4471C123.8067,88.1155,123.8194,88.2642,123.8343,88.4127Z"></path><path class="cls-10" d="M123.7629,86.9613c0-.1386.0036-.2783.0081-.4178C123.7665,86.683,123.7633,86.8227,123.7629,86.9613Z"></path><path class="cls-12" d="M129.125,97.9759a13.9386,13.9386,0,0,1,18.6132-20.66,13.884,13.884,0,0,0-4.3716-3.0664l-.0063-.0034q-.4846-.2151-.9912-.3935l-.0494-.0178q-.242-.085-.4886-.1609l-.0579-.0175q-.2276-.0693-.4592-.1313l-.058-.0154q-.24-.063-.4849-.1175l-.1046-.0232c-.1655-.0357-.3321-.07-.5-.1a14.0234,14.0234,0,0,0-2.4673-.2214c-.3488,0-.6953.0128-1.0392.0381q-.172.0134-.3431.03-.3423.0342-.68.0848-.5075.0762-1.0041.1886t-.9818.26q-.1614.0492-.3214.102a13.9954,13.9954,0,0,0-2.4526,1.0851q-.1458.0819-.29.1676-.2875.1705-.5667.3553c-.0931.0615-.1853.1237-.2769.1877a13.9178,13.9178,0,0,0-4.5648,5.3181q-.1511.309-.2873.6273-.0679.1591-.1323.32-.1287.323-.2419.6543a14.0353,14.0353,0,0,0-.5331,2.0611c-.0264.1473-.0494.294-.0711.441l-.0176.1244q-.0238.1745-.0437.3487l-.0115.1011q-.0229.2187-.0393.4372l-.0054.0855q-.0121.1817-.02.3625l-.0044.1157c-.0045.14-.0077.2792-.0081.4178l0,.0182c0,.1481.0024.2961.0068.4432l.0036.0955q.0068.1853.0186.3694l.0049.078c.01.1494.0226.2986.0378.4471l.0018.0164q.0222.2128.0511.4235l.01.0727q.0627.4481.1539.8889l.0058.0266c.03.1446.0626.2879.0973.4311l.0047.0187A13.999,13.999,0,0,0,129.125,97.9759Z"></path><path class="cls-15" d="M135.9593,86.2091a3.4346,3.4346,0,1,0-4.1352-2.917A3.5842,3.5842,0,0,0,135.9593,86.2091Z"></path><path class="cls-15" d="M137.3568,88.1092a1.0109,1.0109,0,1,0,.8807-1.046A.9686.9686,0,0,0,137.3568,88.1092Z"></path></g></svg> 