<?xml version="1.0" encoding="UTF-8"?> <svg xmlns="http://www.w3.org/2000/svg" xmlns:xlink="http://www.w3.org/1999/xlink" width="184" height="256" viewBox="0 0 184 256"><defs><style>.cls-1{fill:#f4f5f8;}.cls-2{isolation:isolate;}.cls-3{mask:url(#mask);}.cls-4,.cls-5,.cls-6{fill:none;}.cls-4{stroke:url(#linear-gradient);}.cls-5{stroke:url(#linear-gradient-2);}.cls-6{stroke:url(#linear-gradient-3);}.cls-7{fill:#6b11c9;}.cls-8{fill:#e09623;}.cls-9{fill:#f8c601;}.cls-10{fill:#f0a217;}.cls-11{fill:#f4ede8;mix-blend-mode:multiply;}.cls-12{fill:#1fadf7;}.cls-13{fill:#23caff;}</style><mask id="mask" x="0" y="0" width="184.0474" height="282.0657" maskUnits="userSpaceOnUse"><g id="mask0_45_1705" data-name="mask0 45 1705"><rect class="cls-1" width="184" height="256"></rect></g></mask><linearGradient id="linear-gradient" x1="70.6629" y1="-18.9966" x2="103.0038" y2="224.8335" gradientTransform="matrix(1, 0, 0, -1, 0, 256)" gradientUnits="userSpaceOnUse"><stop offset="0" stop-color="#fff"></stop><stop offset="0.3267" stop-color="#e21284"></stop><stop offset="1" stop-color="#f5f5f5"></stop></linearGradient><linearGradient id="linear-gradient-2" x1="75.0447" y1="14.0994" x2="102.0251" y2="217.5103" gradientTransform="matrix(1, 0, 0, -1, 0, 256)" gradientUnits="userSpaceOnUse"><stop offset="0" stop-color="#fff"></stop><stop offset="0.0129" stop-color="#eee3f9"></stop><stop offset="0.036" stop-color="#d3b8ef"></stop><stop offset="0.0608" stop-color="#bb91e6"></stop><stop offset="0.0872" stop-color="#a771de"></stop><stop offset="0.1154" stop-color="#9657d8"></stop><stop offset="0.1464" stop-color="#8a42d4"></stop><stop offset="0.1813" stop-color="#8134d1"></stop><stop offset="0.2236" stop-color="#7c2ccf"></stop><stop offset="0.2937" stop-color="#7a29ce"></stop><stop offset="1" stop-color="#f5f5f5"></stop></linearGradient><linearGradient id="linear-gradient-3" x1="139.5155" y1="72.0318" x2="26.9583" y2="96.0318" gradientTransform="matrix(1, 0, 0, -1, 0, 256)" gradientUnits="userSpaceOnUse"><stop offset="0" stop-color="#e21284"></stop><stop offset="1" stop-color="#f5f5f5"></stop></linearGradient></defs><title>Artboard 1 copy 3</title><g class="cls-2"><g id="Layer_2" data-name="Layer 2"><g class="cls-3"><path class="cls-4" d="M9.0263,266.74c7.156-23.659,41.59-66.382,122.0787-47.992C231.715,241.736,170.064,34.0747,92.32,109.041s-106.0248-2.613-80.637-28.1734,49.57-23.86,52.5555-46.3654c2.3888-18.01-49.6595-10.3033-62.4551,2.8654"></path><path class="cls-5" d="M8.0369,274.143c7.156-23.66,41.59-66.382,122.0781-47.992C230.726,249.138,169.074,41.477,91.33,116.443s-106.0248-2.612-80.637-28.173,49.57-23.86,52.5555-46.3655C65.6377,23.895,13.59,31.6013.7938,44.77"></path><path class="cls-6" d="M7.6079,281.921c7.1561-23.66,41.59-66.382,122.0781-47.992,100.611,22.987,38.959-184.6741-38.7845-109.708s-106.0248-2.612-80.637-28.1732,49.57-23.86,52.5555-46.3654c2.3888-18.01-49.6595-10.3033-62.4551,2.8654"></path><path class="cls-7" d="M149.045,92.8339c-46.697-41.1-74.0481-2.0173-81.8888,22.6641-9.21,28.994-28.3457,45.845-6.81,66.288s38.7932-18.569,76.1391-22.58C169.543,155.655,172.017,113.053,149.045,92.8339Z"></path></g></g><g id="Layer_3" data-name="Layer 3"><polygon class="cls-8" points="99.79 135.137 97.441 135.45 95.323 126.008 100.218 125.356 99.79 135.137"></polygon><polygon class="cls-8" points="105.132 135.186 102.281 134.67 103.158 125.034 107.737 125.401 105.132 135.186"></polygon><polygon class="cls-9" points="91.792 131.835 45.675 122.778 35.169 176.268 81.287 185.326 127.404 194.383 137.91 140.893 91.792 131.835"></polygon><rect class="cls-8" x="86.0703" y="137.0245" width="45.7928" height="52.343" transform="translate(33.4934 -17.9406) rotate(11.1114)"></rect><path class="cls-9" d="M81.4558,184.4643c17.21-2.9648,37.6477,3.7261,44.0362,7.4964l10.0907-51.3785c-12.3579-7.3993-32.3539-11.5368-43.7907-8.7467Z"></path><path class="cls-10" d="M81.4558,184.4643c11.5806-1.8075,30.2317-.2178,43.1932,5.999L134.74,139.0849c-12.3578-7.4-31.5109-10.04-42.9477-7.2494Z"></path><path class="cls-9" d="M81.4558,184.4643c11.1957-2.1915,28.5021-2.0356,41.9527,3.9846L133.4992,137.07c-11.9229-7.9618-29.9131-8.9934-41.7072-5.2349Z"></path><path class="cls-8" d="M95.7708,142.09l-.1751-.7779c.1247-.0281,12.6693-2.7425,29.63,3.2979l-.2674.7514C108.2283,139.4021,95.8935,142.0625,95.7708,142.09Z"></path><path class="cls-8" d="M94.2646,149.7591l-.1751-.7779c.1245-.0282,12.6688-2.7422,29.63,3.2981l-.2673.7514C106.722,147.0714,94.3873,149.7314,94.2646,149.7591Z"></path><path class="cls-8" d="M92.7584,157.4284l-.1752-.778c.1248-.028,12.6694-2.7424,29.63,3.298l-.2674.7514C105.2158,154.7407,92.8811,157.4007,92.7584,157.4284Z"></path><path class="cls-8" d="M91.2522,165.0975l-.1752-.778c.1246-.0281,12.6689-2.7423,29.63,3.2982l-.2674.7514C103.71,162.41,91.3748,165.07,91.2522,165.0975Z"></path><path class="cls-8" d="M89.7459,172.7668l-.1751-.778c.1247-.028,12.6693-2.7424,29.63,3.298l-.2674.7514C102.2033,170.0793,89.8686,172.7393,89.7459,172.7668Z"></path><rect class="cls-8" x="41.1359" y="128.1994" width="45.7927" height="52.343" transform="translate(97.1143 318.1882) rotate(-168.8886)"></rect><path class="cls-9" d="M81.4558,184.4643c-14.81-9.2535-36.26-10.7894-43.6-9.7153L47.9462,123.37c14.2385-2.1758,34.314,1.5567,43.8458,8.4651Z"></path><path class="cls-10" d="M81.4558,184.4643c-10.0368-6.0531-27.9036-11.6356-42.2536-10.7827l10.0907-51.3785c14.2384-2.1759,32.9673,2.624,42.4991,9.5324Z"></path><path class="cls-9" d="M81.4558,184.4643c-9.5353-6.2631-25.615-12.6642-40.3434-12.1784l10.0907-51.3784c14.0485-2.861,31.0925,2.988,40.5889,10.928Z"></path><path class="cls-8" d="M84.2305,139.8235c-.1031-.0718-10.5147-7.2-28.2565-8.0106l.0367-.7967c17.9863.8234,28.5713,8.08,28.6762,8.1534Z"></path><path class="cls-8" d="M82.7243,147.4926c-.1031-.072-10.5149-7.1986-28.2565-8.01l.0366-.7967c17.9862.8233,28.5714,8.08,28.6763,8.1532Z"></path><path class="cls-8" d="M81.2181,155.1619c-.1032-.0718-10.515-7.1986-28.2565-8.0106l.0366-.7967c17.9863.8235,28.5714,8.08,28.6762,8.1534Z"></path><path class="cls-8" d="M79.7119,162.831c-.1031-.072-10.515-7.1986-28.2566-8.01l.0367-.7967c17.9861.8233,28.5714,8.08,28.6762,8.1532Z"></path><path class="cls-8" d="M78.2056,170.5c-.1031-.0719-10.5148-7.1994-28.2565-8.0106l.0367-.7967c17.9863.8231,28.5713,8.08,28.6762,8.1534Z"></path><path class="cls-11" d="M89.6418,130.1707c.2585.1867-4.6588,23.49-5.717,28.8787-1.0208,4.03-1.9278,8.3588-4.3962,11.793a12.1836,12.1836,0,0,1-9.96,4.9171c-2.0226.0616-4.0809-.0762-6.0994-.2033q-.7458-.0471-1.49-.1131a79.7962,79.7962,0,0,1,19.4775,9.0212l10.3362-52.6288C91.1141,131.2685,90.3936,130.7137,89.6418,130.1707Z"></path><polygon class="cls-12" points="136.343 84.047 135.337 84.866 131.645 81.067 133.742 79.361 136.343 84.047"></polygon><polygon class="cls-12" points="138.849 82.541 137.371 83.116 135.022 78.369 137.263 77.229 138.849 82.541"></polygon><polygon class="cls-13" points="131.666 84.797 107.557 93.777 117.973 121.741 142.082 112.761 166.191 103.781 155.776 75.817 131.666 84.797"></polygon><rect class="cls-12" x="136.1254" y="80.1835" width="25.0676" height="28.6532" transform="translate(-23.6387 57.8336) rotate(-20.4292)"></rect><path class="cls-13" d="M141.9144,112.3105c7.18-6.3113,18.6313-9.0422,22.6914-9.1125l-10.0047-26.86c-7.8843.0866-18.3981,3.8822-22.9348,8.4589Z"></path><path class="cls-13" d="M141.9144,112.3105c4.8853-4.1594,14.042-8.7585,21.8693-9.57l-10.0046-26.86c-7.8843.0866-17.5761,4.3394-22.1128,8.9161Z"></path><path class="cls-13" d="M141.9144,112.3105c4.5957-4.2284,12.7145-9.1114,20.7137-10.1543l-10.0046-26.86c-7.8425-.3-16.5311,4.37-20.9572,9.5007Z"></path><path class="cls-12" d="M136.459,88.4419l-.3045-.3128c.05-.0488,5.1254-4.9074,14.768-6.946l.09.4271C141.5012,83.6207,136.5083,88.394,136.459,88.4419Z"></path><path class="cls-12" d="M137.9523,92.4512l-.3045-.3128c.05-.0488,5.1254-4.9071,14.7681-6.9459l.09.4271C142.9946,87.63,138.0016,92.4031,137.9523,92.4512Z"></path><path class="cls-12" d="M139.4457,96.4606l-.3045-.3128c.05-.0489,5.1255-4.9074,14.7681-6.946l.09.4271C144.488,91.6394,139.495,96.4125,139.4457,96.4606Z"></path><path class="cls-12" d="M140.9391,100.47l-.3045-.3128c.05-.0487,5.1253-4.9072,14.7681-6.9459l.09.4272C145.9814,95.6488,140.9884,100.4219,140.9391,100.47Z"></path><path class="cls-12" d="M142.4325,104.4792l-.3045-.3128c.05-.0488,5.1254-4.9074,14.768-6.946l.0905.4271C147.4748,99.6582,142.4818,104.4313,142.4325,104.4792Z"></path><rect class="cls-12" x="112.6345" y="88.9333" width="25.0675" height="28.6532" transform="translate(278.5067 156.3353) rotate(159.5708)"></rect><path class="cls-13" d="M141.9144,112.3105c-9.5593-.0763-20.0067,5.35-23.1235,7.9525l-10.0046-26.86c6.02-5.0923,16.4547-9.1,22.88-8.606Z"></path><path class="cls-13" d="M141.9144,112.3105c-6.416.05-16.35,2.5618-22.8008,7.0689L109.1089,92.52c6.02-5.0924,16.1321-8.2161,22.5574-7.7225Z"></path><path class="cls-13" d="M141.9144,112.3105c-6.2421-.1915-15.577,1.4265-22.3093,5.8707l-10.0046-26.86c5.735-5.3576,15.3616-7.5093,22.0658-6.5243Z"></path><path class="cls-12" d="M130.4259,90.6891c-.0687-.004-6.9673-.3481-15.4768,4.354l-.211-.3821c8.6272-4.7664,15.6436-4.4118,15.7134-4.4077Z"></path><path class="cls-12" d="M131.9192,94.6984c-.0687-.0041-6.967-.3475-15.4767,4.3541l-.211-.3822c8.6271-4.7663,15.6435-4.4118,15.7134-4.4077Z"></path><path class="cls-12" d="M133.4126,98.7077c-.0687-.0039-6.967-.3475-15.4767,4.3541l-.211-.3822c8.6272-4.7662,15.6435-4.4117,15.7134-4.4076Z"></path><path class="cls-12" d="M134.906,102.717c-.0687-.0041-6.967-.3475-15.4767,4.3542l-.211-.3822c8.627-4.7663,15.6435-4.4119,15.7133-4.4078Z"></path><path class="cls-12" d="M136.3994,106.7264c-.0687-.004-6.9672-.3479-15.4768,4.354l-.211-.3821c8.6271-4.7665,15.6436-4.4118,15.7134-4.4077Z"></path><path class="cls-11" d="M130.1864,84.6361c.174.0131,4.553,12.2934,5.6022,15.11.6777,2.1724,1.4942,4.4518,1.326,6.7609a6.67,6.67,0,0,1-3.239,5.1462c-.926.6079-1.9257,1.133-2.9039,1.6517q-.3614.1917-.7276.374a43.6812,43.6812,0,0,1,11.67-1.3686L131.6663,84.797C131.1876,84.7267,130.6926,84.6742,130.1864,84.6361Z"></path></g></g></svg> 