<svg width="40" height="40" viewBox="0 0 40 40" fill="none" xmlns="http://www.w3.org/2000/svg">
<path d="M39.9991 19.9997C39.9907 28.5842 34.4998 36.2039 26.3589 38.9278C18.2181 41.6518 9.2471 38.8711 4.07411 32.0203C-1.09887 25.1694 -1.31752 15.7799 3.53097 8.69575C8.37946 1.61156 17.2113 -1.58371 25.4701 0.758343C25.6456 0.811986 25.7899 0.938121 25.8664 1.10495C25.943 1.27178 25.9446 1.46338 25.8708 1.63145C25.1089 3.51125 25.6007 5.66675 27.1025 7.03007C27.5628 7.44153 27.6963 8.10747 27.4301 8.66455C26.7562 10.0816 26.7171 11.7184 27.3224 13.166C27.9278 14.6136 29.1205 15.7353 30.6025 16.2508C30.9628 16.3773 31.2516 16.6522 31.3956 17.0059C31.9788 18.4279 33.2042 19.4872 34.6956 19.8586C36.187 20.23 37.7661 19.869 38.948 18.8866C39.1429 18.7378 39.4051 18.7115 39.6256 18.8187C39.8461 18.926 39.9874 19.1483 39.9908 19.3935C39.9963 19.5944 39.9991 19.7965 39.9991 19.9997V19.9997Z" fill="#CB936A"/>
<path d="M18.6202 11.0342C20.5246 11.0342 22.0684 9.4904 22.0684 7.58597C22.0684 5.68154 20.5246 4.1377 18.6202 4.1377C16.7157 4.1377 15.1719 5.68154 15.1719 7.58597C15.1719 9.4904 16.7157 11.0342 18.6202 11.0342Z" fill="#A16A43"/>
<path d="M15.1709 28.9649C17.0754 28.9649 18.6192 27.4211 18.6192 25.5166C18.6192 23.6122 17.0754 22.0684 15.1709 22.0684C13.2665 22.0684 11.7227 23.6122 11.7227 25.5166C11.7227 27.4211 13.2665 28.9649 15.1709 28.9649Z" fill="#A16A43"/>
<path d="M9.6549 12.4133C10.7976 12.4133 11.7239 11.487 11.7239 10.3444C11.7239 9.2017 10.7976 8.27539 9.6549 8.27539C8.51224 8.27539 7.58594 9.2017 7.58594 10.3444C7.58594 11.487 8.51224 12.4133 9.6549 12.4133Z" fill="#A16A43"/>
<path d="M25.5162 30.345C26.6589 30.345 27.5852 29.4187 27.5852 28.276C27.5852 27.1333 26.6589 26.207 25.5162 26.207C24.3736 26.207 23.4473 27.1333 23.4473 28.276C23.4473 29.4187 24.3736 30.345 25.5162 30.345Z" fill="#A16A43"/>
<path d="M6.20548 27.5858C6.96725 27.5858 7.58479 26.9682 7.58479 26.2065C7.58479 25.4447 6.96725 24.8271 6.20548 24.8271C5.44371 24.8271 4.82617 25.4447 4.82617 26.2065C4.82617 26.9682 5.44371 27.5858 6.20548 27.5858Z" fill="#A16A43"/>
<path d="M14.4809 35.8621C15.2426 35.8621 15.8602 35.2446 15.8602 34.4828C15.8602 33.7211 15.2426 33.1035 14.4809 33.1035C13.7191 33.1035 13.1016 33.7211 13.1016 34.4828C13.1016 35.2446 13.7191 35.8621 14.4809 35.8621Z" fill="#A16A43"/>
<path d="M23.4477 35.8621C24.2094 35.8621 24.827 35.2446 24.827 34.4828C24.827 33.7211 24.2094 33.1035 23.4477 33.1035C22.6859 33.1035 22.0684 33.7211 22.0684 34.4828C22.0684 35.2446 22.6859 35.8621 23.4477 35.8621Z" fill="#A16A43"/>
<path d="M15.86 17.9309C17.0026 17.9309 17.9289 17.0046 17.9289 15.8619C17.9289 14.7193 17.0026 13.793 15.86 13.793C14.7173 13.793 13.791 14.7193 13.791 15.8619C13.791 17.0046 14.7173 17.9309 15.86 17.9309Z" fill="#A16A43"/>
<path d="M6.89534 20.6891C8.41888 20.6891 9.65396 19.454 9.65396 17.9305C9.65396 16.407 8.41888 15.1719 6.89534 15.1719C5.3718 15.1719 4.13672 16.407 4.13672 17.9305C4.13672 19.454 5.3718 20.6891 6.89534 20.6891Z" fill="#A16A43"/>
<path d="M24.1375 22.7585C25.6611 22.7585 26.8961 21.5234 26.8961 19.9998C26.8961 18.4763 25.6611 17.2412 24.1375 17.2412C22.614 17.2412 21.3789 18.4763 21.3789 19.9998C21.3789 21.5234 22.614 22.7585 24.1375 22.7585Z" fill="#A16A43"/>
<path d="M32.4127 27.5862C33.5554 27.5862 34.4817 26.6599 34.4817 25.5172C34.4817 24.3745 33.5554 23.4482 32.4127 23.4482C31.2701 23.4482 30.3438 24.3745 30.3438 25.5172C30.3438 26.6599 31.2701 27.5862 32.4127 27.5862Z" fill="#A16A43"/>
<path d="M35.861 4.82739C35.861 2.54207 34.0084 0.689453 31.7231 0.689453C30.9613 0.689453 30.3438 1.30699 30.3438 2.06876V4.82739C30.3438 5.58916 30.9613 6.2067 31.7231 6.2067H34.4817C35.2435 6.2067 35.861 5.58916 35.861 4.82739Z" fill="#CB936A"/>
<path d="M38.9911 15.524C38.7778 15.7391 38.4875 15.8601 38.1846 15.8601C37.8816 15.8601 37.5913 15.7391 37.378 15.524L35.758 13.9102C35.5429 13.6968 35.4219 13.4064 35.4219 13.1033C35.4219 12.8003 35.5429 12.5099 35.758 12.2965L37.3787 10.6758C37.593 10.4635 37.8826 10.3445 38.1842 10.3447C38.4861 10.3455 38.7757 10.4643 38.9911 10.6758C39.6364 11.3174 39.9992 12.1899 39.9992 13.0999C39.9992 14.0099 39.6364 14.8824 38.9911 15.524V15.524Z" fill="#CB936A"/>
<path d="M32.4692 11.9533C32.3942 12.1366 32.2489 12.2821 32.0658 12.3575C31.8827 12.4328 31.677 12.4315 31.4948 12.354L30.1154 11.7795C29.9322 11.7041 29.7868 11.5585 29.7116 11.3751C29.6365 11.1918 29.6379 10.986 29.7154 10.8037L30.2892 9.42437C30.3648 9.24107 30.5117 9.09641 30.6961 9.02368C30.878 8.94914 31.0819 8.94914 31.2637 9.02368C31.8139 9.25006 32.2509 9.68696 32.4773 10.2372C32.7037 10.7874 32.7008 11.4053 32.4692 11.9533V11.9533Z" fill="#CB936A"/>
</svg>
