<svg width="52" height="45" viewBox="0 0 52 45" fill="none" xmlns="http://www.w3.org/2000/svg">
<mask id="mask0_26_1342" style="mask-type:alpha" maskUnits="userSpaceOnUse" x="0" y="0" width="52" height="45">
<rect width="52" height="45" fill="#6B11C9"/>
</mask>
<g mask="url(#mask0_26_1342)">
<circle cx="16" cy="8.99902" r="36" transform="rotate(-180 16 8.99902)" fill="white"/>
<path d="M17.4223 12.5415C17.4223 15.3124 18.9885 16.999 21.3377 16.999C24.1689 16.999 26.4579 14.71 26.4579 11.6982C26.4579 9.71033 25.1929 8.44535 23.2653 8.44535C22.6027 8.44535 22.1208 8.56582 21.6389 8.80677C22.1208 6.63823 24.0484 5.13231 26.5783 4.65041L27 1.75902C21.6991 2.42163 17.4223 7.36108 17.4223 12.5415ZM5.61581 12.5415C5.61581 15.3124 7.18197 16.999 9.53123 16.999C12.3624 16.999 14.6514 14.71 14.6514 11.6982C14.6514 9.71033 13.3864 8.44535 11.4588 8.44535C10.7962 8.44535 10.3143 8.56582 9.83241 8.80677C10.3143 6.63823 12.2419 5.13231 14.7719 4.65041L15.1935 1.75902C9.89265 2.42163 5.61581 7.36108 5.61581 12.5415Z" fill="#6B11C9"/>
</g>
</svg>
