<svg width="23" height="18" viewBox="0 0 23 18" fill="none" xmlns="http://www.w3.org/2000/svg">
<path fill-rule="evenodd" clip-rule="evenodd" d="M10.7536 4.84472C10.8573 2.14112 13.1062 0 15.8498 0C17.0895 0 18.24 0.443389 19.1309 1.18481C19.7794 1.0117 20.3832 0.765029 20.9286 0.440593C21.2856 0.228178 21.7368 0.258641 22.062 0.517123C22.3873 0.775605 22.5188 1.20826 22.3925 1.60404C22.3574 1.7141 22.3185 1.82242 22.276 1.92888C22.4653 1.98326 22.6392 2.0936 22.7712 2.25355C23.0545 2.59695 23.0767 3.08631 22.8257 3.45396C22.3069 4.21359 21.6895 4.89645 20.9598 5.47691C20.9598 5.4879 20.9598 5.49893 20.9598 5.51C20.9598 11.2952 16.4934 18 8.28985 18C5.77598 18 3.43951 17.2837 1.45119 16.0125C1.05743 15.7608 0.890552 15.2699 1.04932 14.8303C1.20808 14.3907 1.65013 14.1198 2.11388 14.1777C2.39179 14.2125 2.67035 14.23 2.96985 14.23C3.85785 14.23 4.71205 14.0733 5.49933 13.787C4.45622 13.1621 3.65592 12.1777 3.27057 11.0144C3.18728 10.763 3.20819 10.493 3.32103 10.2616C2.38597 9.34916 1.79985 8.08169 1.79985 6.67V6.63C1.79985 6.29084 1.97164 5.97593 2.25416 5.792C1.98187 5.17616 1.82985 4.49516 1.82985 3.78C1.82985 2.83823 2.09458 1.97583 2.52607 1.23613C2.69062 0.954044 2.98254 0.770078 3.30802 0.743354C3.63349 0.71663 3.95151 0.850515 4.15987 1.10198C5.78659 3.06527 8.10889 4.43221 10.7536 4.84472ZM4.16397 8.09907C4.5919 8.88627 5.36141 9.47257 6.28001 9.66024C6.73365 9.75292 7.06434 10.1449 7.07933 10.6076C7.09431 11.0704 6.78966 11.4829 6.34297 11.6048C6.23249 11.6349 6.12032 11.6604 6.00717 11.6816C6.5495 12.1832 7.27223 12.4968 8.06661 12.5101C8.49077 12.5172 8.86428 12.7912 8.99849 13.1936C9.13269 13.5961 8.99838 14.0394 8.6634 14.2997C7.8597 14.9241 6.94216 15.4165 5.95053 15.7476C6.70228 15.9134 7.4844 16 8.28985 16C15.1863 16 18.9598 10.4048 18.9598 5.51C18.9598 5.36386 18.9518 5.22239 18.9416 5.04872C18.9276 4.81103 18.9989 4.58007 19.1367 4.3942C18.9354 4.27697 18.7752 4.08983 18.6946 3.85644C18.6269 3.66035 18.6235 3.4553 18.6752 3.26636C18.4641 3.2311 18.2664 3.12842 18.1146 2.96851C17.548 2.37163 16.7378 2 15.8498 2C14.1193 2 12.7498 3.37505 12.7498 5.04C12.7498 5.29846 12.7742 5.54014 12.8191 5.75739C12.8818 6.06049 12.8006 6.37554 12.5993 6.6106C12.3979 6.84565 12.099 6.97421 11.7899 6.95875C8.72881 6.8057 5.94943 5.58313 3.83265 3.65043C3.83079 3.69337 3.82985 3.73656 3.82985 3.78C3.82985 4.82629 4.37567 5.75797 5.19565 6.29208C5.56889 6.53521 5.73633 6.99589 5.60629 7.42193C5.47625 7.84797 5.08009 8.13663 4.6347 8.12988C4.47664 8.12749 4.31948 8.11702 4.16397 8.09907Z" fill="white"/>
</svg>
