<svg width="22" height="22" viewBox="0 0 22 22" fill="none" xmlns="http://www.w3.org/2000/svg">
<path fill-rule="evenodd" clip-rule="evenodd" d="M2 3.66C2 2.74228 2.74228 2 3.66 2H18.33C19.2602 2 20 2.74473 20 3.66V18.33C20 19.2602 19.2553 20 18.34 20H3.66C2.74228 20 2 19.2577 2 18.34V3.66ZM3.66 0C1.63772 0 0 1.63772 0 3.66V18.34C0 20.3623 1.63772 22 3.66 22H18.34C20.3647 22 22 20.3598 22 18.33V3.66C22 1.63527 20.3598 0 18.33 0H3.66ZM12.5236 6.16568C12.2697 6.31171 12 6.62002 12 7.3501V9H13.5C14.0523 9 14.5 9.44772 14.5 10C14.5 10.5523 14.0523 11 13.5 11H12V17.0001C12 17.5524 11.5523 18.0001 11 18.0001C10.4477 18.0001 10 17.5524 10 17.0001V11H8.5C7.94772 11 7.5 10.5523 7.5 10C7.5 9.44772 7.94772 9 8.5 9H10V7.3501C10 6.03018 10.5503 4.99349 11.5264 4.43202C12.4477 3.9021 13.5709 3.89846 14.5716 4.20356C15.0999 4.36462 15.3976 4.92344 15.2365 5.45172C15.0755 5.98 14.5167 6.27769 13.9884 6.11663C13.3491 5.92173 12.8323 5.98809 12.5236 6.16568Z" fill="white"/>
</svg>
