<svg width="767" height="439" viewBox="0 0 767 439" fill="none" xmlns="http://www.w3.org/2000/svg">
<g clip-path="url(#clip0_1585_15374)">
<path d="M893.365 72.8344C893.365 72.8344 852.729 20.4111 767.743 32.2595C682.758 44.1079 634.288 121.754 562.119 115.911C465.722 108.107 388.012 -4.60611 309.311 67.0817C230.609 138.769 201.221 -12.9317 115.051 43.4523C28.882 99.8362 -53.7141 -23.8463 -72.1132 58.4922" stroke="url(#paint0_linear_1585_15374)"/>
<path d="M893.548 78.7133C893.548 78.7133 852.912 26.29 767.927 38.1384C682.941 49.9869 634.471 127.633 562.302 121.79C465.905 113.986 388.195 1.2728 309.494 72.9606C230.792 144.648 201.404 -7.05283 115.235 49.3312C29.0651 105.715 -53.531 -17.9674 -71.9301 64.3711" stroke="url(#paint1_linear_1585_15374)"/>
<path d="M893.778 86.061C893.778 86.061 853.142 33.6377 768.157 45.4861C683.171 57.3345 634.701 134.981 562.532 129.138C466.135 121.333 388.425 8.62046 309.724 80.3082C231.022 151.996 201.634 0.29483 115.465 56.6788C29.295 113.063 -53.301 -10.6197 -71.7001 71.7188" stroke="url(#paint2_linear_1585_15374)"/>
<path d="M532.197 101.7C547.217 101.7 559.394 89.9027 559.394 75.35C559.394 60.7973 547.217 49 532.197 49C517.176 49 505 60.7973 505 75.35C505 89.9027 517.176 101.7 532.197 101.7Z" fill="#F1D33D"/>
<path d="M532.197 101.7C539.41 101.7 546.328 98.9235 551.428 93.9819C556.529 89.0403 559.394 82.3381 559.394 75.3496H505C505 82.3381 507.865 89.0403 512.966 93.9819C515.491 96.4287 518.489 98.3696 521.789 99.6938C525.089 101.018 528.625 101.7 532.197 101.7Z" fill="#E7A324"/>
<path d="M532.197 99.9792C546.043 99.9792 557.267 89.1045 557.267 75.6898C557.267 62.2751 546.043 51.4004 532.197 51.4004C518.351 51.4004 507.127 62.2751 507.127 75.6898C507.127 89.1045 518.351 99.9792 532.197 99.9792Z" fill="url(#paint3_linear_1585_15374)"/>
<path d="M532.197 99.9714C525.584 99.9702 519.24 97.4371 514.546 92.9241C509.852 88.411 507.189 82.2837 507.138 75.877V76.0798C507.087 82.5719 509.697 88.8182 514.396 93.4473C519.094 98.0764 525.496 100.71 532.197 100.77C538.899 100.713 545.304 98.0807 550.004 93.4519C554.705 88.8231 557.317 82.5759 557.267 76.0825C557.267 76.014 557.267 75.9481 557.267 75.8796C557.215 82.2877 554.55 88.4159 549.854 92.9287C545.158 97.4415 538.811 99.973 532.197 99.9714Z" fill="#D38E26"/>
<path d="M532.197 95.3762C543.613 95.3762 552.867 86.4103 552.867 75.3502C552.867 64.2902 543.613 55.3242 532.197 55.3242C520.781 55.3242 511.527 64.2902 511.527 75.3502C511.527 86.4103 520.781 95.3762 532.197 95.3762Z" fill="#F9EE60"/>
<path d="M532.197 55.3242C526.715 55.3242 521.458 57.4341 517.581 61.1897C513.705 64.9453 511.527 70.039 511.527 75.3502H552.867C552.867 70.039 550.689 64.9453 546.813 61.1897C542.936 57.4341 537.679 55.3242 532.197 55.3242Z" fill="#E3A22C"/>
<path d="M532.197 93.7953C542.711 93.7953 551.235 85.5372 551.235 75.3503C551.235 65.1634 542.711 56.9053 532.197 56.9053C521.682 56.9053 513.159 65.1634 513.159 75.3503C513.159 85.5372 521.682 93.7953 532.197 93.7953Z" fill="url(#paint4_linear_1585_15374)"/>
<path d="M539.617 78.9474C539.617 75.3654 537.394 74.1269 532.946 73.6041C529.77 73.1777 529.142 72.3693 529.142 70.9417C529.142 69.5141 530.206 68.6019 532.315 68.6019C533.067 68.4854 533.838 68.6398 534.481 69.036C535.124 69.4323 535.595 70.0429 535.805 70.7526L535.855 70.8898C535.892 70.9912 535.96 71.079 536.051 71.1414C536.141 71.2038 536.249 71.2376 536.36 71.2383H538.496C538.577 71.2387 538.657 71.2213 538.73 71.1874C538.803 71.1535 538.867 71.104 538.918 71.0427C538.968 70.9813 539.004 70.9096 539.021 70.833C539.039 70.7564 539.039 70.677 539.02 70.6006C538.842 69.598 538.389 68.6603 537.707 67.8863C536.914 67.0423 535.85 66.482 534.688 66.2955L534.251 66.2436V63.5182C534.251 63.3805 534.195 63.2484 534.095 63.1511C533.994 63.0537 533.858 62.999 533.716 62.999H531.53C531.388 62.999 531.252 63.0537 531.151 63.1511C531.051 63.2484 530.994 63.3805 530.994 63.5182V66.1472C529.634 66.2029 528.344 66.7524 527.382 67.6866C526.42 68.6209 525.855 69.8715 525.801 71.1901C525.801 74.5793 527.91 75.9253 532.349 76.4222C535.327 76.9191 536.288 77.5346 536.288 79.1959C536.288 80.8571 534.814 81.9584 532.789 81.9584C530.198 81.9584 529.207 80.9609 528.84 79.5518L528.744 79.0957C528.718 78.978 528.651 78.8725 528.554 78.797C528.457 78.7214 528.336 78.6803 528.212 78.6804H525.973C525.893 78.6808 525.814 78.6985 525.743 78.7323C525.671 78.766 525.607 78.8148 525.558 78.8753C525.508 78.9357 525.472 79.0062 525.454 79.0815C525.436 79.1569 525.436 79.2352 525.453 79.3108C525.657 80.6552 526.325 81.8933 527.346 82.8241C528.368 83.755 529.685 84.324 531.083 84.439V87.183C531.084 87.321 531.141 87.4531 531.242 87.5503C531.343 87.6476 531.48 87.7021 531.622 87.7021H533.796C533.938 87.7021 534.075 87.6476 534.176 87.5503C534.277 87.4531 534.335 87.321 534.336 87.183V84.439C535.747 84.2957 537.057 83.6647 538.027 82.6616C538.997 81.6586 539.562 80.3505 539.617 78.9771V78.9474Z" fill="#E3A22C"/>
<path d="M538.98 78.9474C538.98 75.3654 536.756 74.1269 532.309 73.6041C529.132 73.1777 528.505 72.3693 528.505 70.9417C528.505 69.5141 529.569 68.6019 531.677 68.6019C532.43 68.4854 533.2 68.6398 533.844 69.036C534.487 69.4323 534.958 70.0429 535.168 70.7526L535.218 70.8898C535.255 70.9912 535.323 71.079 535.413 71.1414C535.504 71.2038 535.612 71.2376 535.723 71.2383H537.858C537.939 71.2387 538.019 71.2213 538.093 71.1874C538.166 71.1535 538.23 71.104 538.28 71.0427C538.331 70.9813 538.366 70.9096 538.384 70.833C538.402 70.7564 538.401 70.677 538.383 70.6006C538.205 69.598 537.751 68.6603 537.07 67.8863C536.277 67.0423 535.213 66.482 534.05 66.2955L533.614 66.2436V63.5182C533.614 63.3805 533.558 63.2484 533.457 63.1511C533.357 63.0537 533.22 62.999 533.078 62.999H530.893C530.751 62.999 530.614 63.0537 530.514 63.1511C530.413 63.2484 530.357 63.3805 530.357 63.5182V66.1472C528.996 66.2029 527.707 66.7524 526.744 67.6866C525.782 68.6209 525.218 69.8715 525.163 71.1901C525.163 74.5793 527.272 75.9253 531.712 76.4222C534.689 76.9191 535.65 77.5346 535.65 79.1959C535.65 80.8571 534.177 81.9584 532.152 81.9584C529.561 81.9584 528.57 80.9609 528.202 79.5518L528.107 79.0957C528.08 78.978 528.013 78.8725 527.916 78.797C527.82 78.7214 527.699 78.6803 527.575 78.6804H525.336C525.256 78.6808 525.177 78.6986 525.105 78.7323C525.033 78.766 524.97 78.8148 524.92 78.8753C524.87 78.9357 524.835 79.0062 524.817 79.0815C524.799 79.1569 524.798 79.2352 524.815 79.3108C525.02 80.6552 525.687 81.8933 526.709 82.8241C527.731 83.755 529.047 84.324 530.445 84.4391V87.183C530.446 87.321 530.503 87.4531 530.604 87.5503C530.706 87.6476 530.842 87.7022 530.985 87.7021H533.159C533.301 87.7022 533.438 87.6476 533.539 87.5503C533.64 87.4531 533.697 87.321 533.698 87.183V84.4391C535.109 84.2957 536.42 83.6647 537.39 82.6616C538.36 81.6586 538.924 80.3505 538.98 78.9771V78.9474Z" fill="white"/>
<path d="M1126.62 256.014C1126.62 256.014 1080.66 333.615 964.004 332.011C847.344 330.407 768.813 233.855 672.437 253.95C543.707 280.79 457.939 446.003 339.632 362.605C221.324 279.207 207.345 488.843 81.5516 427.355C-44.2421 365.868 -134.745 546.706 -173.501 438.736C-212.256 330.765 -307.088 390.529 -307.088 390.529" stroke="url(#paint5_linear_1585_15374)"/>
<path d="M1125.87 248.053C1125.87 248.053 1079.92 325.654 963.257 324.05C846.597 322.446 768.066 225.894 671.69 245.989C542.96 272.83 457.192 438.042 338.885 354.644C220.577 271.246 206.598 480.882 80.8046 419.394C-44.9892 357.907 -135.492 538.746 -174.248 430.775C-213.003 322.804 -307.835 382.568 -307.835 382.568" stroke="url(#paint6_linear_1585_15374)"/>
<path d="M1124.94 238.101C1124.94 238.101 1078.98 315.702 962.323 314.098C845.663 312.494 767.133 215.942 670.756 236.037C542.026 262.877 456.259 428.09 337.951 344.692C219.643 261.294 205.665 470.93 79.871 409.442C-45.9228 347.955 -136.426 528.793 -175.181 420.822C-213.937 312.852 -308.768 372.616 -308.768 372.616" stroke="url(#paint7_linear_1585_15374)"/>
<path d="M235.828 395.74C261.691 395.74 282.657 375.427 282.657 350.37C282.657 325.313 261.691 305 235.828 305C209.966 305 189 325.313 189 350.37C189 375.427 209.966 395.74 235.828 395.74Z" fill="#F1D33D"/>
<path d="M235.828 395.739C248.248 395.739 260.159 390.959 268.941 382.451C277.723 373.942 282.657 362.402 282.657 350.369H189C189 362.402 193.934 373.942 202.716 382.451C207.064 386.664 212.226 390.006 217.908 392.286C223.589 394.566 229.679 395.739 235.828 395.739Z" fill="#E7A324"/>
<path d="M235.828 392.777C259.668 392.777 278.995 374.053 278.995 350.955C278.995 327.857 259.668 309.133 235.828 309.133C211.988 309.133 192.662 327.857 192.662 350.955C192.662 374.053 211.988 392.777 235.828 392.777Z" fill="url(#paint8_linear_1585_15374)"/>
<path d="M235.828 392.764C224.442 392.762 213.518 388.4 205.436 380.629C197.354 372.859 192.77 362.309 192.681 351.277V351.627C192.593 362.805 197.088 373.56 205.178 381.53C213.267 389.501 224.291 394.035 235.828 394.138C247.368 394.04 258.396 389.508 266.489 381.538C274.583 373.568 279.081 362.812 278.995 351.631C278.995 351.513 278.995 351.4 278.995 351.282C278.904 362.315 274.316 372.867 266.231 380.637C258.145 388.408 247.217 392.766 235.828 392.764Z" fill="#D38E26"/>
<path d="M235.828 384.851C255.484 384.851 271.418 369.413 271.418 350.37C271.418 331.326 255.484 315.889 235.828 315.889C216.173 315.889 200.239 331.326 200.239 350.37C200.239 369.413 216.173 384.851 235.828 384.851Z" fill="#F9EE60"/>
<path d="M235.828 315.889C226.389 315.889 217.337 319.522 210.663 325.988C203.988 332.454 200.239 341.225 200.239 350.37H271.418C271.418 341.225 267.668 332.454 260.994 325.988C254.32 319.522 245.267 315.889 235.828 315.889Z" fill="#E3A22C"/>
<path d="M235.828 382.129C253.932 382.129 268.608 367.91 268.608 350.37C268.608 332.83 253.932 318.611 235.828 318.611C217.724 318.611 203.048 332.83 203.048 350.37C203.048 367.91 217.724 382.129 235.828 382.129Z" fill="url(#paint9_linear_1585_15374)"/>
<path d="M248.605 356.564C248.605 350.396 244.776 348.264 237.118 347.364C231.649 346.629 230.568 345.237 230.568 342.779C230.568 340.321 232.4 338.751 236.031 338.751C237.327 338.55 238.654 338.816 239.761 339.498C240.868 340.18 241.679 341.232 242.041 342.454L242.127 342.69C242.19 342.865 242.308 343.016 242.464 343.123C242.619 343.231 242.805 343.289 242.997 343.29H246.674C246.813 343.291 246.951 343.261 247.077 343.203C247.203 343.144 247.313 343.059 247.4 342.953C247.487 342.848 247.548 342.724 247.579 342.592C247.609 342.46 247.608 342.324 247.577 342.192C247.27 340.466 246.489 338.851 245.316 337.518C243.95 336.065 242.118 335.101 240.117 334.779L239.366 334.69V329.997C239.366 329.76 239.268 329.533 239.095 329.365C238.922 329.198 238.688 329.104 238.443 329.104H234.68C234.436 329.104 234.201 329.198 234.028 329.365C233.855 329.533 233.758 329.76 233.758 329.997V334.524C231.414 334.62 229.194 335.566 227.537 337.175C225.881 338.783 224.909 340.937 224.815 343.207C224.815 349.043 228.446 351.36 236.09 352.216C241.217 353.071 242.871 354.131 242.871 356.992C242.871 359.852 240.334 361.748 236.848 361.748C232.387 361.748 230.68 360.031 230.048 357.604L229.883 356.819C229.838 356.616 229.722 356.435 229.555 356.305C229.389 356.175 229.181 356.104 228.967 356.104H225.112C224.974 356.105 224.839 356.135 224.715 356.193C224.591 356.251 224.482 356.336 224.396 356.44C224.31 356.544 224.25 356.665 224.218 356.795C224.187 356.924 224.186 357.059 224.216 357.189C224.568 359.504 225.717 361.636 227.476 363.239C229.236 364.842 231.503 365.821 233.909 366.019V370.744C233.911 370.982 234.01 371.209 234.184 371.376C234.358 371.544 234.593 371.638 234.838 371.638H238.581C238.827 371.638 239.062 371.544 239.236 371.376C239.41 371.209 239.509 370.982 239.511 370.744V366.019C241.94 365.773 244.196 364.686 245.866 362.959C247.536 361.232 248.509 358.98 248.605 356.615V356.564Z" fill="#E3A22C"/>
<path d="M247.507 356.564C247.507 350.396 243.679 348.264 236.021 347.364C230.552 346.629 229.471 345.237 229.471 342.779C229.471 340.321 231.303 338.751 234.934 338.751C236.23 338.55 237.556 338.816 238.663 339.498C239.771 340.18 240.582 341.232 240.944 342.454L241.029 342.69C241.093 342.865 241.211 343.016 241.366 343.123C241.522 343.231 241.708 343.289 241.899 343.29H245.576C245.716 343.291 245.854 343.261 245.98 343.203C246.105 343.144 246.216 343.059 246.303 342.953C246.39 342.848 246.451 342.724 246.481 342.592C246.512 342.46 246.511 342.324 246.479 342.192C246.173 340.466 245.392 338.851 244.219 337.518C242.853 336.065 241.021 335.101 239.02 334.779L238.268 334.69V329.997C238.268 329.76 238.171 329.533 237.998 329.365C237.825 329.198 237.59 329.104 237.346 329.104H233.583C233.338 329.104 233.104 329.198 232.931 329.365C232.758 329.533 232.66 329.76 232.66 329.997V334.524C230.317 334.62 228.097 335.566 226.44 337.175C224.783 338.783 223.812 340.937 223.718 343.207C223.718 349.043 227.349 351.36 234.993 352.216C240.12 353.071 241.774 354.131 241.774 356.992C241.774 359.852 239.237 361.748 235.751 361.748C231.29 361.748 229.583 360.031 228.95 357.604L228.785 356.819C228.74 356.616 228.625 356.435 228.458 356.305C228.291 356.175 228.084 356.104 227.87 356.104H224.014C223.877 356.105 223.741 356.135 223.618 356.193C223.494 356.251 223.385 356.336 223.299 356.44C223.213 356.544 223.152 356.665 223.121 356.795C223.09 356.924 223.089 357.059 223.118 357.189C223.47 359.504 224.62 361.636 226.379 363.239C228.139 364.842 230.405 365.821 232.812 366.019V370.744C232.814 370.982 232.912 371.209 233.086 371.376C233.26 371.544 233.496 371.638 233.741 371.638H237.484C237.729 371.638 237.965 371.544 238.139 371.376C238.313 371.209 238.412 370.982 238.413 370.744V366.019C240.843 365.773 243.099 364.686 244.769 362.959C246.439 361.232 247.411 358.98 247.507 356.615V356.564Z" fill="white"/>
</g>
<defs>
<linearGradient id="paint0_linear_1585_15374" x1="365.13" y1="122.666" x2="361.815" y2="16.5311" gradientUnits="userSpaceOnUse">
<stop stop-color="#6B11C9"/>
<stop offset="1" stop-color="#F5F5F5"/>
</linearGradient>
<linearGradient id="paint1_linear_1585_15374" x1="365.313" y1="128.545" x2="361.998" y2="22.4101" gradientUnits="userSpaceOnUse">
<stop stop-color="#E21284"/>
<stop offset="1" stop-color="#F5F5F5"/>
</linearGradient>
<linearGradient id="paint2_linear_1585_15374" x1="365.543" y1="135.892" x2="362.228" y2="29.7577" gradientUnits="userSpaceOnUse">
<stop stop-color="#6B11C9"/>
<stop offset="1" stop-color="#F5F5F5"/>
</linearGradient>
<linearGradient id="paint3_linear_1585_15374" x1="532.197" y1="51.1949" x2="532.197" y2="100.05" gradientUnits="userSpaceOnUse">
<stop stop-color="#FAEE5E"/>
<stop offset="1" stop-color="#EDC12D"/>
</linearGradient>
<linearGradient id="paint4_linear_1585_15374" x1="532.197" y1="56.7103" x2="532.197" y2="93.6688" gradientUnits="userSpaceOnUse">
<stop stop-color="#EFC938"/>
<stop offset="1" stop-color="#F1B62E"/>
</linearGradient>
<linearGradient id="paint5_linear_1585_15374" x1="405.532" y1="278.17" x2="419.019" y2="421.919" gradientUnits="userSpaceOnUse">
<stop stop-color="#6B11C9"/>
<stop offset="1" stop-color="#F5F5F5"/>
</linearGradient>
<linearGradient id="paint6_linear_1585_15374" x1="404.785" y1="270.209" x2="418.272" y2="413.958" gradientUnits="userSpaceOnUse">
<stop stop-color="#E21284"/>
<stop offset="1" stop-color="#F5F5F5"/>
</linearGradient>
<linearGradient id="paint7_linear_1585_15374" x1="403.852" y1="260.257" x2="417.339" y2="404.006" gradientUnits="userSpaceOnUse">
<stop stop-color="#6B11C9"/>
<stop offset="1" stop-color="#F5F5F5"/>
</linearGradient>
<linearGradient id="paint8_linear_1585_15374" x1="235.828" y1="308.779" x2="235.828" y2="392.899" gradientUnits="userSpaceOnUse">
<stop stop-color="#FAEE5E"/>
<stop offset="1" stop-color="#EDC12D"/>
</linearGradient>
<linearGradient id="paint9_linear_1585_15374" x1="235.828" y1="318.276" x2="235.828" y2="381.912" gradientUnits="userSpaceOnUse">
<stop stop-color="#EFC938"/>
<stop offset="1" stop-color="#F1B62E"/>
</linearGradient>
<clipPath id="clip0_1585_15374">
<path d="M0 0H767V439H0V0Z" fill="white"/>
</clipPath>
</defs>
</svg>
