<svg width="1095" height="354" viewBox="0 0 1095 354" fill="none" xmlns="http://www.w3.org/2000/svg">
<mask id="mask0_1585_15312" style="mask-type:alpha" maskUnits="userSpaceOnUse" x="0" y="0" width="1095" height="354">
<rect width="1095" height="354" rx="20" fill="#6B11C9"/>
</mask>
<g mask="url(#mask0_1585_15312)">
<path d="M1113.24 262.034C1091.51 267.641 1045.46 259.22 1035.04 180.674C1022.01 82.4925 870.829 239.008 957.139 268.719C1043.45 298.43 988.634 361.427 959.561 352.262C930.488 343.098 924.213 321.402 904.761 330.031C889.194 336.936 912.047 377.973 926.935 382.449" stroke="url(#paint0_linear_1585_15312)"/>
<path d="M1119.64 259.202C1097.91 264.809 1051.86 256.388 1041.44 177.842C1028.41 79.6605 877.229 236.176 963.539 265.887C1049.85 295.598 995.034 358.595 965.961 349.43C936.888 340.266 930.613 318.57 911.161 327.199C895.595 334.104 918.447 375.141 933.335 379.617" stroke="url(#paint1_linear_1585_15312)"/>
<path d="M1126.17 255.701C1104.44 261.308 1058.39 252.887 1047.97 174.341C1034.95 76.1595 883.761 232.675 970.07 262.386C1056.38 292.097 1001.57 355.094 972.493 345.929C943.419 336.765 937.144 315.069 917.692 323.698C902.126 330.603 924.978 371.64 939.866 376.116" stroke="url(#paint2_linear_1585_15312)"/>
<path d="M969.664 223.124C947.206 234.238 938.01 261.454 949.124 283.912C960.239 306.371 987.455 315.567 1009.91 304.452C1032.37 293.338 1041.57 266.122 1030.45 243.664C1019.34 221.206 992.123 212.009 969.664 223.124Z" fill="#FABE2C"/>
<path d="M949.124 283.912C960.195 306.283 987.542 315.523 1009.91 304.452L969.664 223.124C947.294 234.194 938.053 261.542 949.124 283.912Z" fill="#FABE2C"/>
<path d="M974.459 232.813C957.353 241.279 950.348 262.01 958.814 279.117C967.28 296.224 988.011 303.229 1005.12 294.763C1022.22 286.297 1029.23 265.566 1020.76 248.459C1012.3 231.352 991.566 224.347 974.459 232.813Z" fill="#FED843"/>
<path d="M958.814 279.117C967.266 296.196 988.039 303.215 1005.12 294.763L974.46 232.813C957.381 241.265 950.362 262.038 958.814 279.117Z" fill="#FED843"/>
<path d="M972.673 280.508C973.382 281.232 974.438 281.492 975.4 281.178L987.497 277.233L997.607 284.961C998.411 285.577 999.48 285.555 1000.35 285.125C1001.22 284.696 1001.88 283.859 1001.88 282.847L1001.87 270.121L1012.34 262.896C1013.17 262.321 1013.61 261.325 1013.46 260.324C1013.32 259.323 1012.61 258.491 1011.65 258.179L999.544 254.259L995.908 242.064C995.619 241.095 994.805 240.374 993.808 240.204C992.802 240.033 991.796 240.45 991.21 241.264L983.74 251.565L971.018 251.257C970.008 251.229 969.064 251.78 968.6 252.68C968.13 253.575 968.209 254.66 968.805 255.477L976.297 265.764L972.068 277.769C971.732 278.723 971.968 279.785 972.673 280.508Z" fill="#FABE2C"/>
<path d="M968.6 252.679C968.13 253.575 968.209 254.66 968.805 255.477L976.297 265.763L972.068 277.769C971.732 278.723 971.968 279.785 972.673 280.508C973.382 281.232 974.438 281.492 975.4 281.177L987.497 277.233L997.607 284.961C998.411 285.577 999.48 285.555 1000.35 285.125L983.74 251.565L971.018 251.257C970.008 251.229 969.064 251.78 968.6 252.679Z" fill="#FABE2C"/>
<path d="M895.888 -75.4865C895.888 -75.4865 865.823 -17.9964 780.086 -7.53166C694.349 2.93309 632.111 -55.1503 562.295 -31.893C469.043 -0.828133 413.894 120.373 323.071 75.2037C232.249 30.0347 231.918 174.426 136.636 144.946C41.3549 115.465 -16.5312 247.794 -50.1044 177.98C-83.6776 108.166 -150.479 158.332 -150.479 158.332" stroke="url(#paint3_linear_1585_15312)"/>
<path d="M894.962 -80.844C894.962 -80.844 864.897 -23.3538 779.16 -12.8891C693.423 -2.42433 631.185 -60.5077 561.369 -37.2504C468.117 -6.18556 412.968 115.015 322.145 69.8462C231.323 24.6773 230.992 169.069 135.71 139.588C40.4289 110.108 -17.4572 242.437 -51.0304 172.623C-84.6036 102.809 -151.405 152.974 -151.405 152.974" stroke="url(#paint4_linear_1585_15312)"/>
<path d="M893.804 -87.5402C893.804 -87.5402 863.74 -30.0501 778.003 -19.5854C692.265 -9.12061 630.027 -67.204 560.212 -43.9467C466.96 -12.8818 411.81 108.319 320.988 63.15C230.165 17.981 229.834 162.373 134.553 132.892C39.2714 103.411 -18.6147 235.741 -52.1879 165.927C-85.7611 96.1124 -152.563 146.278 -152.563 146.278" stroke="url(#paint5_linear_1585_15312)"/>
<path d="M981.921 309.125C1006.64 313.239 1030.01 296.536 1034.12 271.819C1038.24 247.102 1021.54 223.73 996.819 219.616C972.102 215.502 948.73 232.204 944.616 256.921C940.502 281.638 957.204 305.011 981.921 309.125Z" fill="#F1D33D"/>
<path d="M981.921 309.123C993.791 311.099 1005.96 308.278 1015.75 301.282C1025.54 294.286 1032.15 283.688 1034.12 271.818L944.616 256.92C942.64 268.79 945.461 280.958 952.457 290.748C955.921 295.595 960.306 299.713 965.361 302.866C970.417 306.019 976.044 308.145 981.921 309.123V309.123Z" fill="#E7A324"/>
<path d="M982.407 306.202C1005.19 309.994 1026.74 294.598 1030.53 271.814C1034.32 249.029 1018.92 227.485 996.14 223.693C973.356 219.9 951.812 235.296 948.019 258.081C944.227 280.865 959.623 302.409 982.407 306.202Z" fill="url(#paint6_linear_1585_15312)"/>
<path d="M982.409 306.188C971.528 304.375 961.804 298.335 955.356 289.384C948.908 280.434 946.258 269.297 947.984 258.402L947.927 258.746C946.008 269.759 948.538 281.083 954.961 290.232C961.383 299.381 971.174 305.608 982.184 307.544C993.228 309.283 1004.51 306.567 1013.56 299.993C1022.6 293.418 1028.66 283.523 1030.42 272.481C1030.44 272.364 1030.46 272.252 1030.47 272.136C1028.58 283.006 1022.46 292.684 1013.46 299.063C1004.45 305.441 993.293 308.003 982.409 306.188V306.188Z" fill="#D38E26"/>
<path d="M983.709 298.384C1002.49 301.511 1020.26 288.817 1023.38 270.032C1026.51 251.247 1013.82 233.484 995.031 230.358C976.246 227.231 958.483 239.925 955.357 258.71C952.23 277.495 964.924 295.257 983.709 298.384Z" fill="#F9EE60"/>
<path d="M995.031 230.358C986.01 228.856 976.762 231 969.322 236.317C961.882 241.634 956.858 249.689 955.357 258.71L1023.38 270.032C1024.88 261.011 1022.74 251.763 1017.42 244.323C1012.11 236.882 1004.05 231.859 995.031 230.358V230.358Z" fill="#E3A22C"/>
<path d="M984.156 295.698C1001.46 298.578 1017.82 286.887 1020.7 269.585C1023.58 252.283 1011.89 235.922 994.584 233.042C977.282 230.163 960.922 241.854 958.042 259.156C955.162 276.458 966.854 292.819 984.156 295.698Z" fill="url(#paint7_linear_1585_15312)"/>
<path d="M1000.56 272.513C1001.58 266.429 998.267 263.716 991.097 261.61C985.99 260.016 985.186 258.471 985.589 256.046C985.993 253.621 988.002 252.364 991.472 252.941C992.743 252.949 993.967 253.423 994.914 254.272C995.86 255.121 996.462 256.287 996.608 257.55L996.651 257.797C996.683 257.979 996.771 258.147 996.902 258.278C997.033 258.408 997.201 258.495 997.383 258.527L1000.9 259.112C1001.03 259.135 1001.17 259.127 1001.3 259.09C1001.43 259.052 1001.55 258.986 1001.65 258.895C1001.75 258.805 1001.83 258.693 1001.88 258.567C1001.93 258.442 1001.95 258.307 1001.94 258.172C1001.93 256.421 1001.45 254.704 1000.55 253.203C999.481 251.552 997.889 250.309 996.029 249.674L995.325 249.466L996.096 244.837C996.135 244.603 996.079 244.363 995.941 244.171C995.803 243.978 995.595 243.847 995.361 243.809L991.765 243.21C991.531 243.171 991.291 243.227 991.098 243.365C990.905 243.502 990.775 243.711 990.736 243.945L989.993 248.41C987.738 248.132 985.46 248.712 983.613 250.036C981.766 251.359 980.483 253.328 980.021 255.553C979.063 261.309 982.153 264.173 989.318 266.233C994.077 267.893 995.484 269.201 995.014 272.023C994.545 274.844 991.809 276.311 988.477 275.756C984.213 275.047 982.864 273.081 982.658 270.587L982.629 269.786C982.619 269.579 982.539 269.382 982.401 269.227C982.263 269.072 982.076 268.969 981.871 268.935L978.187 268.322C978.055 268.301 977.921 268.309 977.793 268.347C977.665 268.385 977.547 268.45 977.448 268.539C977.349 268.628 977.271 268.738 977.22 268.861C977.168 268.984 977.145 269.117 977.152 269.25C977.109 271.59 977.857 273.875 979.275 275.736C980.694 277.597 982.699 278.924 984.967 279.502L984.191 284.163C984.154 284.398 984.211 284.637 984.35 284.83C984.488 285.023 984.698 285.153 984.932 285.192L988.51 285.788C988.744 285.827 988.984 285.772 989.178 285.634C989.372 285.497 989.504 285.288 989.544 285.054L990.32 280.393C992.682 280.536 995.017 279.824 996.897 278.386C998.777 276.947 1000.08 274.88 1000.56 272.563L1000.56 272.513Z" fill="#E3A22C"/>
<path d="M999.515 272.338C1000.53 266.254 997.218 263.541 990.048 261.435C984.941 259.841 984.137 258.296 984.54 255.871C984.944 253.447 986.953 252.189 990.423 252.766C991.694 252.775 992.918 253.248 993.864 254.097C994.811 254.946 995.413 256.112 995.558 257.375L995.602 257.622C995.634 257.804 995.721 257.972 995.853 258.103C995.984 258.234 996.152 258.321 996.334 258.352L999.849 258.937C999.982 258.96 1000.12 258.952 1000.25 258.915C1000.38 258.877 1000.5 258.811 1000.6 258.72C1000.7 258.63 1000.78 258.518 1000.83 258.393C1000.88 258.267 1000.9 258.132 1000.89 257.998C1000.88 256.246 1000.4 254.529 999.499 253.028C998.432 251.377 996.84 250.134 994.979 249.499L994.276 249.291L995.047 244.662C995.086 244.428 995.03 244.189 994.892 243.996C994.754 243.803 994.546 243.673 994.312 243.634L990.716 243.035C990.482 242.996 990.242 243.052 990.049 243.19C989.856 243.328 989.726 243.536 989.687 243.77L988.944 248.235C986.689 247.957 984.411 248.537 982.564 249.861C980.717 251.184 979.434 253.153 978.972 255.378C978.014 261.135 981.103 263.998 988.269 266.058C993.028 267.718 994.435 269.026 993.965 271.848C993.496 274.669 990.76 276.136 987.428 275.582C983.164 274.872 981.815 272.906 981.609 270.413L981.58 269.612C981.57 269.404 981.49 269.207 981.352 269.052C981.214 268.897 981.027 268.794 980.822 268.761L977.138 268.147C977.006 268.126 976.872 268.135 976.744 268.172C976.616 268.21 976.498 268.275 976.399 268.364C976.3 268.453 976.222 268.563 976.171 268.686C976.119 268.809 976.096 268.942 976.103 269.075C976.06 271.415 976.808 273.7 978.226 275.561C979.645 277.422 981.65 278.749 983.918 279.328L983.142 283.988C983.105 284.223 983.162 284.463 983.3 284.656C983.439 284.848 983.649 284.979 983.883 285.018L987.461 285.613C987.695 285.652 987.935 285.597 988.129 285.459C988.323 285.322 988.455 285.113 988.495 284.879L989.271 280.219C991.633 280.362 993.968 279.649 995.848 278.211C997.727 276.773 999.026 274.706 999.506 272.388L999.515 272.338Z" fill="white"/>
<path d="M185.906 160.523C199.978 160.523 211.386 149.47 211.386 135.836C211.386 122.202 199.978 111.149 185.906 111.149C171.833 111.149 160.426 122.202 160.426 135.836C160.426 149.47 171.833 160.523 185.906 160.523Z" fill="#F1D33D"/>
<path d="M185.906 160.523C192.664 160.523 199.145 157.922 203.923 153.292C208.702 148.662 211.386 142.383 211.386 135.836L160.426 135.836C160.426 142.383 163.11 148.662 167.889 153.292C170.255 155.585 173.064 157.403 176.155 158.644C179.246 159.884 182.56 160.523 185.906 160.523V160.523Z" fill="#E7A324"/>
<path d="M185.906 158.911C198.878 158.911 209.394 148.723 209.394 136.155C209.394 123.587 198.878 113.398 185.906 113.398C172.934 113.398 162.418 123.587 162.418 136.155C162.418 148.723 172.934 158.911 185.906 158.911Z" fill="url(#paint8_linear_1585_15312)"/>
<path d="M185.906 158.904C179.71 158.903 173.766 156.529 169.369 152.301C164.971 148.073 162.477 142.332 162.428 136.33L162.428 136.52C162.381 142.602 164.826 148.454 169.228 152.791C173.63 157.128 179.628 159.596 185.906 159.652C192.185 159.598 198.185 157.132 202.589 152.796C206.993 148.459 209.44 142.606 209.394 136.523C209.394 136.458 209.394 136.397 209.394 136.333C209.344 142.336 206.848 148.078 202.448 152.306C198.049 156.533 192.103 158.905 185.906 158.904V158.904Z" fill="#D38E26"/>
<path d="M185.906 154.598C196.601 154.598 205.271 146.198 205.271 135.836C205.271 125.474 196.601 117.074 185.906 117.074C175.211 117.074 166.541 125.474 166.541 135.836C166.541 146.198 175.211 154.598 185.906 154.598Z" fill="#F9EE60"/>
<path d="M185.906 117.074C180.77 117.074 175.844 119.051 172.213 122.569C168.581 126.088 166.541 130.86 166.541 135.836L205.271 135.836C205.271 130.86 203.231 126.088 199.599 122.569C195.967 119.051 191.042 117.074 185.906 117.074V117.074Z" fill="#E3A22C"/>
<path d="M185.906 153.116C195.756 153.116 203.742 145.379 203.742 135.835C203.742 126.292 195.756 118.555 185.906 118.555C176.055 118.555 168.07 126.292 168.07 135.835C168.07 145.379 176.055 153.116 185.906 153.116Z" fill="url(#paint9_linear_1585_15312)"/>
<path d="M192.858 139.206C192.858 135.85 190.774 134.69 186.608 134.2C183.632 133.801 183.044 133.043 183.044 131.706C183.044 130.368 184.041 129.514 186.016 129.514C186.721 129.405 187.443 129.549 188.046 129.921C188.648 130.292 189.089 130.864 189.286 131.529L189.333 131.657C189.368 131.752 189.432 131.835 189.516 131.893C189.601 131.952 189.702 131.983 189.806 131.984L191.807 131.984C191.883 131.984 191.958 131.968 192.026 131.936C192.095 131.904 192.155 131.858 192.202 131.801C192.25 131.743 192.283 131.676 192.299 131.604C192.316 131.532 192.316 131.458 192.298 131.386C192.132 130.447 191.707 129.569 191.068 128.843C190.325 128.053 189.328 127.528 188.239 127.353L187.831 127.304L187.831 124.751C187.831 124.622 187.778 124.498 187.684 124.407C187.589 124.316 187.462 124.265 187.329 124.265L185.281 124.265C185.148 124.265 185.02 124.316 184.926 124.407C184.832 124.498 184.779 124.622 184.779 124.751L184.779 127.214C183.504 127.266 182.296 127.781 181.395 128.656C180.493 129.532 179.964 130.703 179.913 131.939C179.913 135.114 181.889 136.375 186.048 136.841C188.838 137.306 189.738 137.883 189.738 139.439C189.738 140.995 188.358 142.027 186.461 142.027C184.033 142.027 183.105 141.093 182.76 139.773L182.671 139.345C182.646 139.235 182.583 139.136 182.493 139.065C182.402 138.995 182.289 138.956 182.172 138.956L180.075 138.956C180 138.957 179.926 138.973 179.859 139.005C179.791 139.036 179.732 139.082 179.685 139.139C179.639 139.195 179.606 139.261 179.589 139.332C179.572 139.403 179.571 139.476 179.587 139.547C179.779 140.806 180.404 141.966 181.361 142.838C182.319 143.71 183.552 144.244 184.862 144.351L184.862 146.922C184.863 147.051 184.916 147.175 185.011 147.266C185.106 147.357 185.234 147.409 185.367 147.409L187.404 147.409C187.537 147.409 187.665 147.357 187.76 147.266C187.855 147.175 187.909 147.051 187.909 146.922L187.909 144.351C189.231 144.217 190.459 143.626 191.368 142.686C192.277 141.746 192.805 140.521 192.858 139.234L192.858 139.206Z" fill="#E3A22C"/>
<path d="M192.261 139.206C192.261 135.85 190.177 134.69 186.011 134.2C183.035 133.801 182.447 133.043 182.447 131.706C182.447 130.368 183.443 129.514 185.419 129.514C186.124 129.405 186.846 129.549 187.448 129.921C188.051 130.292 188.492 130.864 188.689 131.529L188.736 131.657C188.77 131.752 188.834 131.835 188.919 131.893C189.004 131.952 189.105 131.983 189.209 131.984L191.21 131.984C191.286 131.984 191.361 131.968 191.429 131.936C191.498 131.904 191.558 131.858 191.605 131.801C191.652 131.743 191.686 131.676 191.702 131.604C191.719 131.532 191.718 131.458 191.701 131.386C191.534 130.447 191.11 129.569 190.471 128.843C189.728 128.053 188.731 127.528 187.642 127.353L187.233 127.304L187.233 124.751C187.233 124.622 187.181 124.498 187.086 124.407C186.992 124.316 186.865 124.265 186.731 124.265L184.684 124.265C184.551 124.265 184.423 124.316 184.329 124.407C184.235 124.498 184.182 124.622 184.182 124.751L184.182 127.214C182.907 127.266 181.699 127.781 180.797 128.656C179.896 129.532 179.367 130.703 179.316 131.939C179.316 135.114 181.292 136.375 185.451 136.841C188.241 137.306 189.141 137.883 189.141 139.439C189.141 140.995 187.76 142.027 185.864 142.027C183.436 142.027 182.507 141.093 182.163 139.773L182.074 139.345C182.049 139.235 181.986 139.136 181.895 139.065C181.805 138.995 181.692 138.956 181.575 138.956L179.478 138.956C179.403 138.957 179.329 138.973 179.262 139.005C179.194 139.036 179.135 139.082 179.088 139.139C179.042 139.195 179.008 139.261 178.991 139.332C178.974 139.403 178.974 139.476 178.99 139.547C179.182 140.806 179.807 141.966 180.764 142.838C181.722 143.71 182.955 144.244 184.264 144.351L184.264 146.922C184.265 147.051 184.319 147.175 184.414 147.266C184.509 147.357 184.637 147.409 184.77 147.409L186.807 147.409C186.94 147.409 187.068 147.357 187.163 147.266C187.258 147.175 187.311 147.051 187.312 146.922L187.312 144.351C188.634 144.217 189.862 143.626 190.771 142.686C191.679 141.746 192.208 140.521 192.261 139.234L192.261 139.206Z" fill="white"/>
</g>
<defs>
<linearGradient id="paint0_linear_1585_15312" x1="1100.41" y1="204.862" x2="879.79" y2="254.363" gradientUnits="userSpaceOnUse">
<stop stop-color="#E21284"/>
<stop offset="1" stop-color="#F5F5F5"/>
</linearGradient>
<linearGradient id="paint1_linear_1585_15312" x1="1106.81" y1="202.03" x2="886.19" y2="251.531" gradientUnits="userSpaceOnUse">
<stop stop-color="#6B11C9"/>
<stop offset="1" stop-color="#F5F5F5"/>
</linearGradient>
<linearGradient id="paint2_linear_1585_15312" x1="1113.34" y1="198.529" x2="892.722" y2="248.03" gradientUnits="userSpaceOnUse">
<stop stop-color="#E21284"/>
<stop offset="1" stop-color="#F5F5F5"/>
</linearGradient>
<linearGradient id="paint3_linear_1585_15312" x1="367.46" y1="11.0753" x2="388.841" y2="106.757" gradientUnits="userSpaceOnUse">
<stop stop-color="#6B11C9"/>
<stop offset="1" stop-color="#F5F5F5"/>
</linearGradient>
<linearGradient id="paint4_linear_1585_15312" x1="366.534" y1="5.71789" x2="387.915" y2="101.4" gradientUnits="userSpaceOnUse">
<stop stop-color="#E21284"/>
<stop offset="1" stop-color="#F5F5F5"/>
</linearGradient>
<linearGradient id="paint5_linear_1585_15312" x1="365.377" y1="-0.978395" x2="386.758" y2="94.7034" gradientUnits="userSpaceOnUse">
<stop stop-color="#6B11C9"/>
<stop offset="1" stop-color="#F5F5F5"/>
</linearGradient>
<linearGradient id="paint6_linear_1585_15312" x1="996.198" y1="223.344" x2="982.387" y2="306.323" gradientUnits="userSpaceOnUse">
<stop stop-color="#FAEE5E"/>
<stop offset="1" stop-color="#EDC12D"/>
</linearGradient>
<linearGradient id="paint7_linear_1585_15312" x1="994.639" y1="232.711" x2="984.192" y2="295.484" gradientUnits="userSpaceOnUse">
<stop stop-color="#EFC938"/>
<stop offset="1" stop-color="#F1B62E"/>
</linearGradient>
<linearGradient id="paint8_linear_1585_15312" x1="185.906" y1="113.206" x2="185.906" y2="158.978" gradientUnits="userSpaceOnUse">
<stop stop-color="#FAEE5E"/>
<stop offset="1" stop-color="#EDC12D"/>
</linearGradient>
<linearGradient id="paint9_linear_1585_15312" x1="185.906" y1="118.372" x2="185.906" y2="152.998" gradientUnits="userSpaceOnUse">
<stop stop-color="#EFC938"/>
<stop offset="1" stop-color="#F1B62E"/>
</linearGradient>
</defs>
</svg>
