<svg width="128" height="100" viewBox="0 0 128 100" fill="none" xmlns="http://www.w3.org/2000/svg">
<path d="M146.919 126.973C149.575 100.494 132.982 43.7995 45.3646 28.8457C-64.157 10.1535 82.8917 -170.849 129.229 -64.2119C175.566 42.4252 235.72 -23.0262 221.034 -58.9231C206.348 -94.8201 181.603 -103.115 187.929 -126.723C192.991 -145.615 241.556 -116.46 248.84 -98.0837" stroke="url(#paint0_linear_1506_15916)"/>
<path d="M144.846 134.74C147.502 108.262 130.909 51.5671 43.2916 36.6133C-66.23 17.921 80.8187 -163.081 127.156 -56.4443C173.493 50.1928 233.647 -15.2586 218.961 -51.1555C204.275 -87.0525 179.53 -95.3476 185.856 -118.956C190.918 -137.848 239.483 -108.693 246.767 -90.3161" stroke="url(#paint1_linear_1506_15916)"/>
<path d="M142.061 142.65C144.716 116.172 128.123 59.4772 40.5062 44.5234C-69.0154 25.8312 78.0333 -155.171 124.371 -48.5341C170.708 58.103 230.862 -7.3484 216.176 -43.2454C201.49 -79.1423 176.745 -87.4374 183.071 -111.046C188.133 -129.938 236.698 -100.782 243.982 -82.4059" stroke="url(#paint2_linear_1506_15916)"/>
<defs>
<linearGradient id="paint0_linear_1506_15916" x1="82.3034" y1="109.659" x2="150.838" y2="-146.117" gradientUnits="userSpaceOnUse">
<stop stop-color="#E21284"/>
<stop offset="1" stop-color="#F5F5F5"/>
</linearGradient>
<linearGradient id="paint1_linear_1506_15916" x1="80.2304" y1="117.426" x2="148.765" y2="-138.35" gradientUnits="userSpaceOnUse">
<stop stop-color="#B385E2"/>
<stop offset="1" stop-color="#F5F5F5"/>
</linearGradient>
<linearGradient id="paint2_linear_1506_15916" x1="77.445" y1="125.337" x2="145.98" y2="-130.44" gradientUnits="userSpaceOnUse">
<stop stop-color="#E21284"/>
<stop offset="1" stop-color="#F5F5F5"/>
</linearGradient>
</defs>
</svg>
