<svg width="1240" height="50" viewBox="0 0 1240 50" fill="none" xmlns="http://www.w3.org/2000/svg">
<mask id="mask0_93_4885" style="mask-type:alpha" maskUnits="userSpaceOnUse" x="0" y="0" width="1240" height="50">
<path d="M0 20C0 8.9543 8.9543 0 20 0H1220C1231.05 0 1240 8.95431 1240 20V50H0V20Z" fill="#6B11C9"/>
</mask>
<g mask="url(#mask0_93_4885)">
<path d="M1191.22 -163.599C1186.93 -137.335 1156.23 -86.8668 1067.72 -95.0995C957.096 -105.39 1052.29 107.503 1124.65 16.4929C1197 -74.5176 1238.17 4.27241 1214.69 35.1452C1191.22 66.0181 1165.17 67.626 1165.17 92.067C1165.17 111.625 1219.62 96.0333 1231.41 80.1681" stroke="url(#paint0_linear_93_4885)"/>
<path d="M1191.22 -171.639C1186.94 -145.375 1156.23 -94.9068 1067.73 -103.14C957.104 -113.431 1052.3 99.4634 1124.65 8.45287C1197.01 -82.5577 1238.18 -3.76763 1214.7 27.1052C1191.22 57.978 1165.17 59.586 1165.17 84.027C1165.17 103.585 1219.63 87.9933 1231.42 72.1281" stroke="url(#paint1_linear_93_4885)"/>
<path d="M1190.58 -180C1186.29 -153.737 1155.59 -103.268 1067.09 -111.501C956.461 -121.792 1051.65 91.1021 1124.01 0.0915384C1196.37 -90.919 1237.53 -12.129 1214.06 18.7439C1190.58 49.6167 1164.53 51.2247 1164.53 75.6657C1164.53 95.224 1218.99 79.632 1230.78 63.7668" stroke="url(#paint2_linear_93_4885)"/>
<path d="M76.3368 -10.4925C50.2486 -15.7417 -7.80436 -4.81009 -31.3103 80.9097C-60.6926 188.059 -226.341 23.9076 -115.661 -11.7077C-4.98007 -47.3231 -64.1923 -113.627 -101.361 -102.546C-138.529 -91.4655 -149.219 -67.657 -172.09 -76.276C-190.392 -83.1731 -156.598 -128.632 -137.594 -134.072" stroke="url(#paint3_linear_93_4885)"/>
<path d="M83.8632 -7.66434C57.7749 -12.9135 -0.277993 -1.98197 -23.7839 83.7378C-53.1663 190.887 -218.815 26.7358 -108.134 -8.87962C2.54629 -44.495 -56.6659 -110.799 -93.8342 -99.7182C-131.002 -88.6373 -141.693 -64.8289 -164.564 -73.4478C-182.866 -80.345 -149.072 -125.804 -130.067 -131.244" stroke="url(#paint4_linear_93_4885)"/>
<path d="M91.4603 -4.11454C65.3721 -9.36373 7.31918 1.56784 -16.1867 87.2876C-45.5691 194.437 -211.218 30.2856 -100.537 -5.32982C10.1435 -40.9452 -49.0688 -107.249 -86.237 -96.1684C-123.405 -85.0875 -134.096 -61.2791 -156.967 -69.898C-175.269 -76.7952 -141.475 -122.255 -122.47 -127.694" stroke="url(#paint5_linear_93_4885)"/>
</g>
<defs>
<linearGradient id="paint0_linear_93_4885" x1="1124.32" y1="-163.599" x2="1124.32" y2="101.2" gradientUnits="userSpaceOnUse">
<stop stop-color="#E21284"/>
<stop offset="1" stop-color="#F5F5F5"/>
</linearGradient>
<linearGradient id="paint1_linear_93_4885" x1="1124.33" y1="-171.639" x2="1124.33" y2="93.1603" gradientUnits="userSpaceOnUse">
<stop stop-color="#6B11C9"/>
<stop offset="1" stop-color="#F5F5F5"/>
</linearGradient>
<linearGradient id="paint2_linear_93_4885" x1="1123.68" y1="-180" x2="1123.68" y2="84.799" gradientUnits="userSpaceOnUse">
<stop stop-color="#E21284"/>
<stop offset="1" stop-color="#F5F5F5"/>
</linearGradient>
<linearGradient id="paint3_linear_93_4885" x1="52.7466" y1="52.1052" x2="-195.041" y2="-41.2746" gradientUnits="userSpaceOnUse">
<stop stop-color="#E21284"/>
<stop offset="1" stop-color="#F5F5F5"/>
</linearGradient>
<linearGradient id="paint4_linear_93_4885" x1="60.273" y1="54.9333" x2="-187.515" y2="-38.4465" gradientUnits="userSpaceOnUse">
<stop stop-color="#6B11C9"/>
<stop offset="1" stop-color="#F5F5F5"/>
</linearGradient>
<linearGradient id="paint5_linear_93_4885" x1="32.5001" y1="100.5" x2="67.0001" y2="-18.4995" gradientUnits="userSpaceOnUse">
<stop stop-color="#E21284"/>
<stop offset="1" stop-color="#F5F5F5"/>
</linearGradient>
</defs>
</svg>
