<svg width="738" height="100" viewBox="0 0 738 100" fill="none" xmlns="http://www.w3.org/2000/svg">
<mask id="mask0_1476_15163" style="mask-type:alpha" maskUnits="userSpaceOnUse" x="0" y="0" width="738" height="100">
<rect width="738" height="100" fill="#D9D9D9"/>
</mask>
<g mask="url(#mask0_1476_15163)">
<path d="M695.023 -141.598C690.735 -115.334 660.033 -64.8658 571.531 -73.0986C460.904 -83.3895 556.095 129.504 628.453 38.4939C700.811 -52.5167 741.975 26.2734 718.499 57.1462C695.023 88.0191 668.974 89.627 668.974 114.068C668.974 133.626 723.43 118.034 735.222 102.169" stroke="url(#paint0_linear_1476_15163)"/>
<path d="M695.03 -149.639C690.742 -123.375 660.041 -72.9068 571.539 -81.1396C460.911 -91.4305 556.103 121.463 628.461 30.4529C700.819 -60.5577 741.983 18.2324 718.507 49.1052C695.03 79.978 668.981 81.586 668.981 106.027C668.981 125.585 723.438 109.993 735.229 94.1281" stroke="url(#paint1_linear_1476_15163)"/>
<path d="M694.387 -158C690.099 -131.737 659.398 -81.2681 570.896 -89.5009C460.268 -99.7918 555.46 113.102 627.818 22.0915C700.176 -68.919 741.34 9.87104 717.863 40.7439C694.387 71.6167 668.338 73.2247 668.338 97.6657C668.338 117.224 722.795 101.632 734.586 85.7668" stroke="url(#paint2_linear_1476_15163)"/>
<path d="M310.144 11.508C284.056 6.25883 226.003 17.1904 202.497 102.91C173.114 210.06 7.46606 45.9081 118.147 10.2927C228.827 -25.3227 169.615 -91.6268 132.447 -80.5459C95.2784 -69.465 84.5877 -45.6565 61.7168 -54.2755C43.415 -61.1726 77.209 -106.632 96.2133 -112.071" stroke="url(#paint3_linear_1476_15163)"/>
<path d="M317.67 14.3361C291.582 9.08696 233.529 20.0185 210.023 105.738C180.641 212.888 14.9924 48.7363 125.673 13.1209C236.353 -22.4945 177.141 -88.7987 139.973 -77.7178C102.805 -66.6369 92.1141 -42.8284 69.2432 -51.4473C50.9413 -58.3445 84.7354 -103.804 103.74 -109.243" stroke="url(#paint4_linear_1476_15163)"/>
<path d="M325.267 17.885C299.179 12.6358 241.126 23.5673 217.62 109.287C188.238 216.437 22.5896 52.2851 133.27 16.6697C243.951 -18.9457 184.738 -85.2498 147.57 -74.1689C110.402 -63.088 99.7112 -39.2795 76.8404 -47.8985C58.5385 -54.7957 92.3326 -100.255 111.337 -105.694" stroke="url(#paint5_linear_1476_15163)"/>
<path d="M310.144 11.508C284.056 6.25883 226.003 17.1904 202.497 102.91C173.114 210.06 7.46606 45.9081 118.147 10.2927C228.827 -25.3227 169.615 -91.6268 132.447 -80.5459C95.2784 -69.465 84.5877 -45.6565 61.7168 -54.2755C43.415 -61.1726 77.209 -106.632 96.2133 -112.071" stroke="url(#paint6_linear_1476_15163)"/>
<path d="M317.67 14.3361C291.582 9.08696 233.529 20.0185 210.023 105.738C180.641 212.888 14.9924 48.7363 125.673 13.1209C236.353 -22.4945 177.141 -88.7987 139.973 -77.7178C102.805 -66.6369 92.1141 -42.8284 69.2432 -51.4473C50.9413 -58.3445 84.7354 -103.804 103.74 -109.243" stroke="url(#paint7_linear_1476_15163)"/>
<path d="M325.267 17.885C299.179 12.6358 241.126 23.5673 217.62 109.287C188.238 216.437 22.5896 52.2851 133.27 16.6697C243.951 -18.9457 184.738 -85.2498 147.57 -74.1689C110.402 -63.088 99.7112 -39.2795 76.8404 -47.8985C58.5385 -54.7957 92.3326 -100.255 111.337 -105.694" stroke="url(#paint8_linear_1476_15163)"/>
</g>
<defs>
<linearGradient id="paint0_linear_1476_15163" x1="628.127" y1="-141.598" x2="628.127" y2="123.201" gradientUnits="userSpaceOnUse">
<stop stop-color="#E21284"/>
<stop offset="1" stop-color="#F5F5F5"/>
</linearGradient>
<linearGradient id="paint1_linear_1476_15163" x1="628.135" y1="-149.639" x2="628.135" y2="115.16" gradientUnits="userSpaceOnUse">
<stop stop-color="#6B11C9"/>
<stop offset="1" stop-color="#F5F5F5"/>
</linearGradient>
<linearGradient id="paint2_linear_1476_15163" x1="627.492" y1="-158" x2="627.492" y2="106.799" gradientUnits="userSpaceOnUse">
<stop stop-color="#E21284"/>
<stop offset="1" stop-color="#F5F5F5"/>
</linearGradient>
<linearGradient id="paint3_linear_1476_15163" x1="286.554" y1="74.1057" x2="38.7661" y2="-19.2741" gradientUnits="userSpaceOnUse">
<stop stop-color="#E21284"/>
<stop offset="1" stop-color="#F5F5F5"/>
</linearGradient>
<linearGradient id="paint4_linear_1476_15163" x1="294.08" y1="76.9338" x2="46.2925" y2="-16.446" gradientUnits="userSpaceOnUse">
<stop stop-color="#6B11C9"/>
<stop offset="1" stop-color="#F5F5F5"/>
</linearGradient>
<linearGradient id="paint5_linear_1476_15163" x1="266.307" y1="122.5" x2="300.807" y2="3.50001" gradientUnits="userSpaceOnUse">
<stop stop-color="#E21284"/>
<stop offset="1" stop-color="#F5F5F5"/>
</linearGradient>
<linearGradient id="paint6_linear_1476_15163" x1="286.554" y1="74.1057" x2="38.7661" y2="-19.2741" gradientUnits="userSpaceOnUse">
<stop stop-color="#E21284"/>
<stop offset="1" stop-color="#F5F5F5"/>
</linearGradient>
<linearGradient id="paint7_linear_1476_15163" x1="294.08" y1="76.9338" x2="46.2925" y2="-16.446" gradientUnits="userSpaceOnUse">
<stop stop-color="#6B11C9"/>
<stop offset="1" stop-color="#F5F5F5"/>
</linearGradient>
<linearGradient id="paint8_linear_1476_15163" x1="266.307" y1="122.5" x2="300.807" y2="3.50001" gradientUnits="userSpaceOnUse">
<stop stop-color="#E21284"/>
<stop offset="1" stop-color="#F5F5F5"/>
</linearGradient>
</defs>
</svg>
