<svg width="195" height="98" viewBox="0 0 195 98" fill="none" xmlns="http://www.w3.org/2000/svg">
<path d="M159.215 -167.599C154.927 -141.335 124.226 -90.8668 35.7237 -99.0995C-74.904 -109.39 20.2873 103.503 92.6455 12.4929C165.004 -78.5176 206.167 0.272408 182.691 31.1452C159.215 62.0181 133.166 63.626 133.166 88.067C133.166 107.625 187.622 92.0333 199.414 76.1681" stroke="url(#paint0_linear_1506_15902)"/>
<path d="M159.223 -175.639C154.935 -149.375 124.234 -98.9068 35.7317 -107.14C-74.8959 -117.431 20.2953 95.4634 92.6535 4.45287C165.012 -86.5577 206.175 -7.76763 182.699 23.1052C159.223 53.978 133.174 55.586 133.174 80.027C133.174 99.5854 187.63 83.9933 199.422 68.1281" stroke="url(#paint1_linear_1506_15902)"/>
<path d="M158.58 -184C154.292 -157.737 123.591 -107.268 35.0885 -115.501C-75.5391 -125.792 19.6521 87.1021 92.0103 -3.90846C164.369 -94.919 205.532 -16.129 182.056 14.7439C158.58 45.6167 132.531 47.2247 132.531 71.6657C132.531 91.224 186.987 75.632 198.779 59.7668" stroke="url(#paint2_linear_1506_15902)"/>
<defs>
<linearGradient id="paint0_linear_1506_15902" x1="92.3199" y1="-167.599" x2="92.3199" y2="97.2003" gradientUnits="userSpaceOnUse">
<stop stop-color="#E21284"/>
<stop offset="1" stop-color="#F5F5F5"/>
</linearGradient>
<linearGradient id="paint1_linear_1506_15902" x1="92.3279" y1="-175.639" x2="92.3279" y2="89.1603" gradientUnits="userSpaceOnUse">
<stop stop-color="#6B11C9"/>
<stop offset="1" stop-color="#F5F5F5"/>
</linearGradient>
<linearGradient id="paint2_linear_1506_15902" x1="91.6847" y1="-184" x2="91.6847" y2="80.799" gradientUnits="userSpaceOnUse">
<stop stop-color="#E21284"/>
<stop offset="1" stop-color="#F5F5F5"/>
</linearGradient>
</defs>
</svg>
