<svg width="610" height="88" viewBox="0 0 610 88" fill="none" xmlns="http://www.w3.org/2000/svg">
<mask id="mask0_93_5119" style="mask-type:alpha" maskUnits="userSpaceOnUse" x="0" y="0" width="610" height="88">
<path d="M0 14C0 6.26802 6.26801 0 14 0H596C603.732 0 610 6.26801 610 14V88H0V14Z" fill="#6B11C9"/>
</mask>
<g mask="url(#mask0_93_5119)">
<path d="M60.1894 138.962C62.8451 112.484 46.2521 55.7887 -41.3652 40.835C-150.887 22.1427 -3.83804 -158.86 42.4993 -52.2226C88.8367 54.4145 148.99 -11.0369 134.304 -46.9339C119.619 -82.8308 94.8735 -91.1259 101.199 -114.734C106.261 -133.626 154.827 -104.471 162.11 -86.0944" stroke="url(#paint0_linear_93_5119)"/>
<path d="M58.1164 146.729C60.7721 120.251 44.1791 63.5563 -43.4382 48.6025C-152.96 29.9103 -5.91105 -151.092 40.4263 -44.455C86.7637 62.1821 146.917 -3.26931 132.231 -39.1663C117.546 -75.0632 92.8004 -83.3584 99.1262 -106.967C104.188 -125.858 152.753 -96.7034 160.037 -78.3269" stroke="url(#paint1_linear_93_5119)"/>
<path d="M55.331 154.64C57.9867 128.161 41.3937 71.4665 -46.2236 56.5127C-155.745 37.8205 -8.69644 -143.182 37.6409 -36.5449C83.9783 70.0922 144.132 4.64083 129.446 -31.2561C114.76 -67.1531 90.0151 -75.4482 96.3409 -99.0564C101.403 -117.948 149.968 -88.7932 157.252 -70.4167" stroke="url(#paint2_linear_93_5119)"/>
<path d="M574.215 -172.599C569.927 -146.335 539.226 -95.8668 450.724 -104.1C340.096 -114.39 435.288 98.5035 507.646 7.49291C580.004 -83.5176 621.168 -4.72759 597.692 26.1452C574.215 57.0181 548.166 58.626 548.166 83.067C548.166 102.625 602.623 87.0333 614.414 71.1681" stroke="url(#paint3_linear_93_5119)"/>
<path d="M574.223 -180.639C569.935 -154.375 539.234 -103.907 450.732 -112.14C340.104 -122.431 435.295 90.4634 507.654 -0.547133C580.012 -91.5577 621.176 -12.7676 597.699 18.1052C574.223 48.978 548.174 50.586 548.174 75.027C548.174 94.5854 602.63 78.9933 614.422 63.1281" stroke="url(#paint4_linear_93_5119)"/>
<path d="M573.58 -189C569.292 -162.737 538.591 -112.268 450.089 -120.501C339.461 -130.792 434.652 82.1021 507.011 -8.90846C579.369 -99.919 620.533 -21.129 597.056 9.74388C573.58 40.6167 547.531 42.2247 547.531 66.6657C547.531 86.224 601.987 70.632 613.779 54.7668" stroke="url(#paint5_linear_93_5119)"/>
</g>
<defs>
<linearGradient id="paint0_linear_93_5119" x1="-4.42633" y1="121.648" x2="64.1086" y2="-134.128" gradientUnits="userSpaceOnUse">
<stop stop-color="#E21284"/>
<stop offset="1" stop-color="#F5F5F5"/>
</linearGradient>
<linearGradient id="paint1_linear_93_5119" x1="-6.49933" y1="129.416" x2="62.0357" y2="-126.36" gradientUnits="userSpaceOnUse">
<stop stop-color="#6B11C9"/>
<stop offset="1" stop-color="#F5F5F5"/>
</linearGradient>
<linearGradient id="paint2_linear_93_5119" x1="-9.28473" y1="137.326" x2="59.2502" y2="-118.45" gradientUnits="userSpaceOnUse">
<stop stop-color="#E21284"/>
<stop offset="1" stop-color="#F5F5F5"/>
</linearGradient>
<linearGradient id="paint3_linear_93_5119" x1="507.32" y1="-172.599" x2="507.32" y2="92.2003" gradientUnits="userSpaceOnUse">
<stop stop-color="#E21284"/>
<stop offset="1" stop-color="#F5F5F5"/>
</linearGradient>
<linearGradient id="paint4_linear_93_5119" x1="507.328" y1="-180.639" x2="507.328" y2="84.1603" gradientUnits="userSpaceOnUse">
<stop stop-color="#6B11C9"/>
<stop offset="1" stop-color="#F5F5F5"/>
</linearGradient>
<linearGradient id="paint5_linear_93_5119" x1="506.685" y1="-189" x2="506.685" y2="75.799" gradientUnits="userSpaceOnUse">
<stop stop-color="#E21284"/>
<stop offset="1" stop-color="#F5F5F5"/>
</linearGradient>
</defs>
</svg>
