<?xml version="1.0" encoding="utf-8"?>
<!-- Generator: Adobe Illustrator 23.0.1, SVG Export Plug-In . SVG Version: 6.00 Build 0)  -->
<svg version="1.1" id="Layer_1" xmlns="http://www.w3.org/2000/svg" xmlns:xlink="http://www.w3.org/1999/xlink" x="0px" y="0px"
	 viewBox="0 0 500 250" style="enable-background:new 0 0 500 250;" xml:space="preserve">
<style type="text/css">
	.st0{fill:none;}
	.st1{fill-rule:evenodd;clip-rule:evenodd;fill:#2F4398;}
</style>
<rect x="0" y="0.4" class="st0" width="500" height="250"/>
<g>
	<path d="M9.8,203.9V57.8h37.9c13.9,0,27-0.3,33.6,0.9s15.4,4.4,19.9,7.3c6.1,3.7,10.6,9.2,13.9,16.5s4.7,16,4.7,26.1
		c0,16.7-3.6,29.7-12.4,38.4s-28.3,12.3-45.2,12.3h-9.7v44.6L9.8,203.9L9.8,203.9z M52.2,132.5c0.6,0.1,0.6,0.1,2,0.2
		c13.2,0.5,16.7-2.8,18.7-5.3c3.1-3.8,3.2-12.5,3.2-20.5c0-6.6,0.2-12.1-4.6-17.3C68.4,86.2,60.6,85,52.2,85l0.1,2.4L52.2,132.5
		L52.2,132.5z"/>
	<polygon points="399.5,203.3 303.6,203.3 303.6,56.9 350.9,56.9 350.9,159.4 399.5,159.4 	"/>
	<rect x="407.7" y="107.5" width="45.3" height="96.1"/>
	<rect x="407" y="57.6" width="46.3" height="39.7"/>
	<polygon points="473.4,189.3 460,189.3 460,192.1 465,192.1 465,202.7 468.4,202.7 468.4,192.1 473.4,192.1 	"/>
	<path class="st1" d="M240.1,193.2c6.1-2.2,12.1-6.8,17.3-11.5c14.7-13.3,30-35.9,28.8-63.5c-1.3-29-16.8-47.6-37.5-59.2
		c6,1.3,10.9,5.3,15.5,9c13.3,10.7,23.4,27.4,23.8,50.8c0.6,31.1-16,52.4-32.4,67.1c5.1-2.6,9.1-7.3,13-11.9
		c10.9-13.1,20.9-31.6,20.9-54.8c0-32.7-18.5-51.5-40-63.8c7.1,2.1,13.5,6.3,18.7,10.8c13.1,11,24.7,30.5,23.1,56.3
		c-1.5,25.5-12.8,45.6-28.1,60.2c-15.3,14.7-36.3,25.1-60.6,27.4c-2.4,0.2-6.2,0.2-9,0c-37.6-3.1-64.9-27.2-67.8-64.2
		c-0.3-3.8-0.3-7.6,0-11.5c1.7-23.3,12.1-41.9,25.9-56.3c15.1-15.6,34-27.4,60.5-29.2c0.6-2.9,1.4-6.2,1.8-8.3
		c8.7,9.3,19.3,19.4,30.3,30.3c-13.2,6.7-26,13.9-38.9,20.9c0.3-2.6,0.9-5.7,1-7.6c-22.2,3.9-40.8,20-44.7,42.5
		c-4.7,27.5,13.6,48.5,40,48.7c26.7,0.2,49.3-20.4,53.3-44c3.3-19.1-5.1-32.3-15.9-41.1c10,6.6,20.9,18.6,19.5,36.4
		c-2.2,27.9-28.4,51-55.9,51.2c-15,0.1-28.3-6.6-37.9-17.7c9,13.1,24.7,19.9,42.5,18.7c14-1,25.9-7.8,34.6-16.3
		c9-8.6,15.9-20.5,17.7-32.8c0.6-4.6,0.7-9.8,0-14.8c-2.2-14.4-11-21.1-19-30.3c11.4,9.1,23.4,21.2,22.6,40.8
		c-1.2,28.7-28.6,54-57.3,55.9c-18.8,1.3-30.4-5.1-40.4-14.4c9.4,11.9,27.1,18.1,45.8,15.1c26.5-4.2,50.1-26.3,53-53.7
		c2.6-24.7-9.9-36.3-21.9-48.4c12.7,9.7,23.6,20.3,24.4,40.1c0.7,17.1-7.7,33.9-18.4,44.7c-17.1,17.1-50.5,28.4-76.5,12.7
		c22.1,16.9,56.4,7.2,74.6-9.4c13.2-12,22.9-28,21.3-51.9c-1.3-19.2-12.2-29.1-24.5-39.3c12.7,6.5,24.9,19.5,26.7,38.2
		c2.3,24.5-9,42.7-22.7,54.8c-16.6,14.7-40,23.4-66.4,16.6c43.6,13.6,84.3-18.8,90.2-56.2c4.2-26.9-9.6-42.8-22.7-54.1
		c-1.4-1.1-2.1-2-3.9-3.6c18.7,9.8,34.3,31.2,28.1,61.7c-7.1,35.4-42.6,64.1-88.3,56.6c6.6,2.6,14.4,2.1,21.1,1.8
		c20.8-1.1,39.6-11.5,49.7-22.7c12.3-13.6,21.9-30.7,20-55.5c-1.7-22.3-14.2-33.1-29.5-44.9c6.4,2.3,12,6.8,16.6,11.8
		c7.7,8.3,13.9,19.7,15,33.9c1.8,25.5-9.8,44.4-22.7,57.7c-13.7,14.2-32.3,23.2-55.9,23.5c37,1.1,61.7-21.6,73.6-46.8
		c6.8-14.5,8.8-34.9,3.3-50.8c-5.1-14.7-16.9-24.8-28.5-33c20.3,10.8,37.2,31.1,33.5,62.5c-1.4,11.9-5.2,21.7-10.6,30.7
		c-11,18.5-29.1,31.5-49.3,38.6c15-3.3,29.2-12.3,39.6-23.8c12.8-14.2,22.7-32.1,22-56.9C281.5,89.8,265,74.3,248,62.1
		c0.2,0,0.6,0.2,0.6,0.2c18.5,9,32.5,24.8,35.4,49.2C289.1,150.4,263.6,178.6,240.1,193.2"/>
	<polygon points="486.8,203 486.8,196.5 484.9,199.8 482.8,199.7 480.8,196.5 480.8,203 477.5,203 477.5,189.3 480.8,189.3 
		483.8,195.3 486.9,189.3 490.2,189.3 490.2,203 	"/>
</g>
</svg>
