<?xml version="1.0" encoding="UTF-8"?>
<svg width="17px" height="17px" viewBox="0 0 17 17" version="1.1" xmlns="http://www.w3.org/2000/svg" xmlns:xlink="http://www.w3.org/1999/xlink">
    <title>roulette</title>
    <g id="Icons" stroke="none" stroke-width="1" fill="none" fill-rule="evenodd">
        <g id="Artboard" transform="translate(-185.000000, -264.000000)" fill="#000000" fill-rule="nonzero">
            <g id="roulette" transform="translate(185.173914, 264.173920)">
                <path d="M7.82608596,2.66453526e-14 C6.27826596,2.66453526e-14 4.76513596,0.458991 3.47814596,1.31894 C2.19115596,2.17887 1.18806596,3.40114 0.595727964,4.83117 C0.00338796402,6.26122 -0.151589736,7.83478 0.150378964,9.3529 C0.452347964,10.87098 1.19771596,12.26548 2.29220596,13.35998 C3.38670596,14.45448 4.78118596,15.19988 6.29926596,15.50178 C7.81739596,15.80378 9.39095596,15.64878 10.820986,15.05638 C12.251086,14.46418 13.473286,13.46098 14.333186,12.17408 C15.193186,10.88698 15.652186,9.37391 15.652186,7.82609 C15.649786,5.75123 14.824486,3.762 13.357386,2.29484 C11.890186,0.82768 9.90098596,0.002379 7.82608596,2.66453526e-14 Z M14.105586,10.99958 L12.747786,10.21598 C13.053186,9.59033 13.235386,8.91179 13.284486,8.21739 L14.849786,8.21739 C14.797586,9.18643 14.544186,10.13388 14.105586,10.99958 Z M7.43478596,13.28448 L7.43478596,14.84978 C6.46559596,14.79768 5.51791596,14.54418 4.65217596,14.10538 L5.43610596,12.74788 C6.06177596,13.05328 6.74031596,13.23548 7.43478596,13.28448 Z M8.21738596,13.28448 C8.91186596,13.23548 9.59039596,13.05328 10.216086,12.74788 L10.999986,14.10538 C10.134286,14.54418 9.18657596,14.79768 8.21738596,14.84978 L8.21738596,13.28448 Z M7.82608596,12.52178 C6.89739596,12.52178 5.98949596,12.24628 5.21732596,11.73038 C4.44512596,11.21438 3.84327596,10.48108 3.48787596,9.62303 C3.13247596,8.76501 3.03947596,7.82087 3.22066596,6.90998 C3.40184596,5.99916 3.84906596,5.16246 4.50575596,4.50576 C5.16246596,3.84906 5.99916596,3.40184 6.90998596,3.22066 C7.82086596,3.03948 8.76500596,3.13247 9.62302596,3.48787 C10.481086,3.84327 11.214386,4.44513 11.730386,5.21732 C12.246286,5.9895 12.521786,6.89739 12.521786,7.82609 C12.520386,9.07103 12.025286,10.26458 11.144886,11.14488 C10.264586,12.02528 9.07102596,12.52038 7.82608596,12.52178 Z M0.802448964,8.21739 L2.36766596,8.21739 C2.41672596,8.91179 2.59888596,9.59026 2.90422596,10.21598 L1.54659596,10.99958 C1.10795596,10.13388 0.854525964,9.18643 0.802448964,8.21739 Z M1.54659596,4.65261 L2.90442596,5.43624 C2.59901596,6.06184 2.41679596,6.74038 2.36766596,7.43478 L0.802448964,7.43478 C0.854525964,6.46574 1.10795596,5.51826 1.54659596,4.65261 Z M8.21738596,2.36767 L8.21738596,0.802448 C9.18657596,0.85453 10.134286,1.10803 10.999986,1.54679 L10.216086,2.9043 C9.59039596,2.59891 8.91186596,2.41672 8.21738596,2.36767 Z M7.43478596,2.36767 C6.74031596,2.41672 6.06177596,2.59891 5.43610596,2.9043 L4.65217596,1.54679 C5.51791596,1.10804 6.46559596,0.85454 7.43478596,0.802448 L7.43478596,2.36767 Z M13.284486,7.43478 C13.235486,6.74038 13.053286,6.06191 12.747986,5.43624 L14.105786,4.65261 C14.544386,5.51826 14.797686,6.46581 14.849786,7.43478 L13.284486,7.43478 Z M13.715586,3.97393 L12.360586,4.75611 C11.969086,4.17981 11.471986,3.6828 10.895686,3.2913 L11.678286,1.93641 C12.489586,2.46906 13.182986,3.16253 13.715586,3.97393 Z M3.97408596,1.93641 L4.75650596,3.29138 C4.18020596,3.68285 3.68317596,4.17983 3.29165596,4.75611 L1.93656596,3.97393 C2.46919596,3.16252 3.16267596,2.46904 3.97408596,1.93641 Z M1.93656596,11.67828 L3.29165596,10.89608 C3.68317596,11.47238 4.18020596,11.96928 4.75650596,12.36078 L3.97408596,13.71578 C3.16267596,13.18318 2.46919596,12.48968 1.93656596,11.67828 Z M11.678086,13.71578 L10.895486,12.36088 C11.471786,11.96938 11.968786,11.47238 12.360386,10.89608 L13.715386,11.67828 C13.182786,12.48968 12.489486,13.18308 11.678086,13.71578 Z" id="Shape"></path>
                <path d="M10.173886,7.04347 C10.038986,7.04507 9.90678596,7.08208 9.79053596,7.15074 C9.67429596,7.2194 9.57815596,7.31735 9.51158596,7.43478 L8.92792596,7.43478 C8.86956596,7.27109 8.77551596,7.12243 8.65265596,6.99951 C8.52973596,6.87666 8.38107596,6.7826 8.21739596,6.72424 L8.21739596,6.14059 C8.33481596,6.07401 8.43276596,5.97787 8.50142596,5.86163 C8.57008596,5.74539 8.60702596,5.61321 8.60869596,5.47826 C8.60869596,5.27069 8.52625596,5.07163 8.37947596,4.92487 C8.23269596,4.7781 8.03366596,4.69565 7.82608596,4.69565 C7.61850596,4.69565 7.41947596,4.7781 7.27269596,4.92487 C7.12591596,5.07163 7.04347596,5.27069 7.04347596,5.47826 C7.04514596,5.61321 7.08208596,5.74539 7.15074596,5.86163 C7.21940596,5.97787 7.31735596,6.07401 7.43478596,6.14059 L7.43478596,6.72424 C7.27109596,6.7826 7.12243596,6.87666 6.99951596,6.99951 C6.87665596,7.12243 6.78260596,7.27109 6.72424596,7.43478 L6.14058596,7.43478 C6.07401596,7.31735 5.97787596,7.2194 5.86163596,7.15074 C5.74545596,7.08208 5.61321596,7.04507 5.47825596,7.04347 C5.27069596,7.04347 5.07163596,7.12591 4.92487596,7.27269 C4.77810596,7.41947 4.69565596,7.6185 4.69565596,7.82608 C4.69565596,8.03367 4.77810596,8.23269 4.92487596,8.37947 C5.07163596,8.52626 5.27069596,8.60869 5.47825596,8.60869 C5.61321596,8.60709 5.74545596,8.57008 5.86163596,8.50142 C5.97787596,8.43276 6.07401596,8.33481 6.14058596,8.21739 L6.72424596,8.21739 C6.78260596,8.38107 6.87665596,8.52974 6.99951596,8.65266 C7.12243596,8.77551 7.27109596,8.86956 7.43478596,8.92793 L7.43478596,9.51158 C7.31735596,9.57808 7.21940596,9.67429 7.15074596,9.79054 C7.08208596,9.90678 7.04514596,10.03898 7.04347596,10.17388 C7.04347596,10.38148 7.12591596,10.58048 7.27269596,10.72728 C7.41947596,10.87408 7.61850596,10.95648 7.82608596,10.95648 C8.03366596,10.95648 8.23269596,10.87408 8.37947596,10.72728 C8.52625596,10.58048 8.60869596,10.38148 8.60869596,10.17388 C8.60702596,10.03898 8.57008596,9.90678 8.50142596,9.79054 C8.43276596,9.67429 8.33481596,9.57808 8.21739596,9.51158 L8.21739596,8.92793 C8.38107596,8.86956 8.52973596,8.77551 8.65265596,8.65266 C8.77551596,8.52974 8.86956596,8.38107 8.92792596,8.21739 L9.51158596,8.21739 C9.57815596,8.33481 9.67429596,8.43276 9.79053596,8.50142 C9.90678596,8.57008 10.038986,8.60709 10.173886,8.60869 C10.381486,8.60869 10.580486,8.52626 10.727286,8.37947 C10.874086,8.23269 10.956486,8.03367 10.956486,7.82608 C10.956486,7.6185 10.874086,7.41947 10.727286,7.27269 C10.580486,7.12591 10.381486,7.04347 10.173886,7.04347 Z M7.82608374,8.21739 C7.74865596,8.21739 7.67304596,8.19443 7.60869596,8.15144 C7.54434596,8.10845 7.49419596,8.0473 7.46455596,7.97586 C7.43492596,7.90434 7.42719596,7.82567 7.44229596,7.74977 C7.45739596,7.6738 7.49467596,7.6041 7.54942596,7.54942 C7.60410596,7.49467 7.67380596,7.45739 7.74977596,7.44229 C7.82566596,7.4272 7.90434596,7.43492 7.97585596,7.46455 C8.04730596,7.49419 8.10845596,7.54434 8.15144596,7.60869 C8.19443596,7.67304 8.21739596,7.74866 8.21739596,7.82608 C8.21725596,7.9298 8.17599596,8.02928 8.10260596,8.1026 C8.02928596,8.176 7.92980596,8.21725 7.82608374,8.21739 Z" id="Shape"></path>
            </g>
        </g>
    </g>
</svg>