<?xml version="1.0" encoding="utf-8"?>
<!-- Generator: Adobe Illustrator 23.0.1, SVG Export Plug-In . SVG Version: 6.00 Build 0)  -->
<svg version="1.1" id="Layer_1" xmlns="http://www.w3.org/2000/svg" xmlns:xlink="http://www.w3.org/1999/xlink" x="0px" y="0px"
	 viewBox="0 0 500 250" style="enable-background:new 0 0 500 250;" xml:space="preserve">
<style type="text/css">
	.st0{fill:none;}
	.st1{fill-rule:evenodd;clip-rule:evenodd;fill:#009430;}
	.st2{fill:#009430;}
</style>
<rect x="-0.1" y="0.8" class="st0" width="500" height="250"/>
<g id="g3272" transform="matrix(1.25,0,0,-1.25,-613.66016,871.8259)">
	<g id="g3286" transform="matrix(3.1603297,0,0,3.1603297,-49.009362,-101.60273)">
		<g id="g3274" transform="matrix(0.1,0,0,0.1,169.943,161.927)">
			<path id="path3276" class="st1" d="M358.8,407.7L225.9,772.5H168L36.7,407.7h56.8l30.2,86.5h145.9l30.8-86.5H358.8L358.8,407.7z
				 M253,543.2H140.4l29.2,83.4c9.4,27.1,22.4,68.8,26.6,84.4c4.2-15.6,18.8-57.9,27.6-83.9L253,543.2"/>
			<path id="path3278" class="st2" d="M637.2,407.7l-82.4,181.9l69.3,91.7h-61l-56.8-79.7c-8.9-13-22.9-33.9-30.2-44.8
				c0,13.6,0.5,41.7,0.5,58.4v172.5l-53.7-28.1V407.7h53.7v80.8l41.7,55.2l60.5-136H637.2"/>
			<path id="path3280" class="st2" d="M828.9,461.9c-9.9-5.7-25.5-10.9-39.6-10.9c-19.8,0-28.1,7.3-28.1,32.8v148.5h67.8v49h-67.8
				v106.3l-52.6-28.1v-78.2h-39.1v-49h39.1V474.4c0-49,23.5-72.4,61.5-72.4c21.4,0,39.6,5.2,52.6,12.5L828.9,461.9"/>
			<path id="path3282" class="st1" d="M966,751.2c0,19.3-15.6,34.9-34.4,34.9c-19.3,0-34.9-15.6-34.9-34.9
				c0-18.8,15.6-34.4,34.9-34.4C950.3,716.8,966,732.4,966,751.2z M958.2,407.7v273.6h-53.7V407.7H958.2"/>
			<path id="path3284" class="st1" d="M1249.4,407.7v187.6c0,62-41.7,91.7-102.7,91.7c-38.6,0-67.8-8.3-93.8-24.5l20.8-40.7
				c21.4,12,43.3,17.2,71.4,17.2c33.4,0,51.6-16.7,51.6-46.4v-20.3c-15.1,6.8-35.4,10.4-61,10.4c-62,0-108.9-27.6-108.9-88.6
				c0-67.2,50.6-92.3,94.9-92.3c29.7,0,56.3,14.1,75.1,32.8v-27.1L1249.4,407.7L1249.4,407.7z M1196.8,485.3
				c-12.5-17.2-37.5-34.9-66.2-34.9c-35.4,0-52.6,18.2-52.6,45.3c0,25,21.9,40.7,56.3,40.7c29.2,0,48-4.7,62.5-12V485.3"/>
		</g>
	</g>
</g>
</svg>
