<?xml version="1.0" encoding="utf-8"?>
<!-- Generator: Adobe Illustrator 23.0.1, SVG Export Plug-In . SVG Version: 6.00 Build 0)  -->
<svg version="1.1" id="Layer_1" xmlns="http://www.w3.org/2000/svg" xmlns:xlink="http://www.w3.org/1999/xlink" x="0px" y="0px"
	 viewBox="0 0 500 250" style="enable-background:new 0 0 500 250;" xml:space="preserve">
<style type="text/css">
	.st0{fill:none;}
	.st1{fill-rule:evenodd;clip-rule:evenodd;fill:#00C7B1;}
</style>
<rect x="0" y="0" class="st0" width="500" height="250"/>
<g>
	<path class="st1" d="M38.7,85.7C22.1,85.7,9.8,99.1,9.8,116c0,16.9,13.5,30.3,31,30.3c8.4,0,16.6-2.9,23.1-8.3
		c-4.1-7.7-7.2-7-19.7-5.3l0,0c-1.1,0.2-2.3,0.2-3.4,0.2c-9.1,0-15.1-6.6-16.2-11.7h43c0.1-2.2,0.1-4.4,0.1-5.5
		C67.8,98,54.5,85.7,38.7,85.7z M24.6,110.6c0.5-5.1,4.7-11.7,14.1-11.7c9.6,0,14.2,6.7,14.5,11.7H24.6z"/>
	<path class="st1" d="M257,85.7c-16.7,0.3-30.1,14-29.8,30.8s14,30.1,30.8,29.8c16.5-0.3,29.8-13.7,29.8-30.3
		c0-16.7-13.5-30.3-30.2-30.3C257.4,85.7,257.2,85.7,257,85.7z M257,132.6c-9.9,0-15.9-7.7-15.9-16.7c0-9,6.1-16.7,15.9-16.7
		c9.8,0,15.9,7.7,15.9,16.7C272.9,125,266.9,132.6,257,132.6L257,132.6z"/>
	<path class="st1" d="M107.6,85.7c-7.1,0-13.7,3.7-17.3,9.8v-0.1h0l0,0V95l0,0c-0.3-4.4-4-7.9-8.5-7.8v0h-5.1v57.6h14.6v-38.1
		c0,0,3.9-7.4,11.4-7.4c6.3,0,11.4,3.5,11.4,11.8v33.7h14.6v-37.3C128.7,93.6,118.8,85.7,107.6,85.7z"/>
	<path class="st1" d="M218.4,85.7c-10.7,0-15.7,9.8-15.7,9.8v-0.7l0,0c-0.3-4.5-4.2-7.9-8.7-7.7v0h-5.1v57.6h14.6v-37.7
		c2.6-4.7,7.5-7.6,12.9-7.8c2.4-0.1,4.7,0.4,6.9,1.3l5.1-13.1C225.2,86.4,221.8,85.7,218.4,85.7z"/>
	<path class="st1" d="M325.7,85.7c-6.9-0.1-13.4,3.3-17.4,9l0,0V94c0,0,0,0.2-0.1-0.2c-0.4-3.8-3.5-6.7-7.3-6.7l0,0h-0.5l-0.1,0v0
		h-5.6v85.6h14.6v-33.9c4,4.8,10,7.6,16.3,7.4c15,0,28.1-12.5,28.1-30.3C353.8,98.2,340.7,85.7,325.7,85.7z M323.2,132.6
		c-5.7,0-10.9-3.1-13.7-8v-17.3c2.8-4.9,8.1-8,13.7-8c9.8,0,15.8,7.2,15.8,16.7S333,132.6,323.2,132.6L323.2,132.6z"/>
	<path class="st1" d="M404.4,94.7c-3.9-5.7-10.4-9.1-17.4-9c-15,0-28.1,12.5-28.1,30.3c0,17.7,13.1,30.3,28.1,30.3
		c7,0.2,13.6-3.2,17.4-9v0.3c0,0,0,0,0.1-0.1c0.6,4.1,4,7.2,8.2,7.3l0,0h5.2V87.1h-13.5L404.4,94.7z M403.3,124.6
		c-2.8,4.9-8,7.9-13.6,8c-9.8,0-15.9-7.2-15.9-16.7s6.1-16.7,15.9-16.7c5.6,0.1,10.8,3.2,13.6,8V124.6z"/>
	<path class="st1" d="M474.5,87.1l-15.2,42.2l-19.5-42.2h-16.2l28.1,59c0,0-2.5,6.3-2.5,6.5h0c-1.6,3.5-3.9,6.7-6.8,9.3
		c-0.5,0.4-1,0.8-1.5,1.2c-4.4,3.2-6.1,6.2-4.5,10.7c0,0,0,0,0,0l0.2,0.5l0,0h0l2.2,5.6c6-1.7,11.4-5.1,15.5-9.8
		c3.6-4.1,7-9.3,13-25.3l22.9-57.8H474.5z"/>
	<path class="st1" d="M167.5,132.6c-3.9,0-7.5-2.1-7.5-9.1v-23.2h17.4V87.1H160V75.9l0,1.3c0-6.4-4.7-7.2-7.1-7.2l0.9,0h-8.4v17.1
		h-11.3v13.1h11.3v25.5c0,12.3,8.5,20.4,19.7,20.4c4.9,0.1,9.7-1.3,13.9-3.8l-5.3-11.9C171.8,131.8,169.7,132.5,167.5,132.6z"/>
</g>
</svg>
