<?xml version="1.0" encoding="utf-8"?>
<!-- Generator: Adobe Illustrator 23.0.1, SVG Export Plug-In . SVG Version: 6.00 Build 0)  -->
<svg version="1.1" id="Layer_1" xmlns="http://www.w3.org/2000/svg" xmlns:xlink="http://www.w3.org/1999/xlink" x="0px" y="0px"
	 viewBox="0 0 500 250" style="enable-background:new 0 0 500 250;" xml:space="preserve">
<style type="text/css">
	.st0{fill:none;}
	.st1{fill:#FF6300;}
</style>
<rect x="0" y="0" class="st0" width="500" height="250"/>
<g id="Page-1_1_">
	<g id="Reis-LP-UI-Homepage" transform="translate(-427.000000, -37.000000)">
		<g id="Group-12" transform="translate(414.000000, 0.000000)">
			<g id="Group-Copy" transform="translate(13.000000, 37.000000)">
				<path id="Logo-Copy-2" class="st1" d="M76.3,61v-0.9h34.7v86.5c0,23.9-19.4,43.3-43.4,43.3s-43.4-19.3-43.4-43.2h34.7
					c0,4.8,3.9,8.6,8.7,8.6c4.8,0,8.7-3.9,8.7-8.6V61z M201.8,106.6c3.8,4.2,6.8,9.2,8.8,15c2,5.7,3,12.2,3,19.2
					c0,1.7-0.1,3.2-0.2,4.6c-0.2,1.9-0.4,2.7-0.7,3.4l-0.9,1.9h-60.1c0.3,1.4,0.7,2.7,1.3,3.9c1.1,2.3,2.5,4.2,4.3,5.9
					c1.8,1.6,3.8,3,6.1,3.9c2.3,0.9,4.8,1.4,7.5,1.4c5.3,0,9.3-1.2,11.9-3.4l1.4-1.2l25.5,7.1l-2.7,4c-2.4,3.5-5.4,6.7-9,9.3
					c-3.5,2.6-7.6,4.7-12.1,6.2c-4.5,1.5-9.6,2.3-15,2.3c-6.2,0-12.2-1.1-17.7-3.3c-5.6-2.2-10.7-5.4-14.9-9.6
					c-4.2-4.2-7.7-9.3-10.2-15.3s-3.8-12.9-3.8-20.5c0-7.1,1.2-13.7,3.7-19.5c2.4-5.8,5.7-10.9,9.8-15c4.1-4.2,8.9-7.5,14.3-9.8
					c5.4-2.3,11.1-3.5,16.8-3.5c6.9,0,13.2,1.1,18.8,3.4C193.1,99.1,197.9,102.4,201.8,106.6z M152.4,129h33.3
					c-0.2-0.8-0.4-1.6-0.7-2.3c-0.7-1.8-1.7-3.4-3.1-4.8c-1.4-1.4-3.2-2.5-5.3-3.4c-2.1-0.9-4.7-1.3-7.7-1.3c-2.6,0-5,0.5-7,1.4
					c-2.1,0.9-3.8,2.1-5.2,3.6c-1.5,1.5-2.6,3.2-3.5,5.1C152.8,127.8,152.6,128.4,152.4,129z M367.6,107.3c4.2,4.3,7.6,9.4,10,15.2
					c2.3,5.8,3.5,12.3,3.5,19.1s-1.2,13.3-3.5,19.2c-2.4,5.9-5.7,11-10,15.3c-4.2,4.3-9.3,7.7-15,10.1c-5.7,2.4-12.1,3.7-18.9,3.7
					c-6.7,0-13-1.2-18.8-3.6c-5.8-2.4-10.9-5.8-15-10.1c-4.2-4.3-7.5-9.4-9.8-15.3c-2.3-5.9-3.5-12.3-3.5-19.2
					c0-6.9,1.2-13.3,3.5-19.1c2.3-5.8,5.7-10.9,9.8-15.2c4.2-4.3,9.3-7.7,15-10.1c5.8-2.4,12.1-3.6,18.8-3.6
					c6.8,0,13.2,1.2,18.9,3.7C358.3,99.6,363.4,103,367.6,107.3z M352.2,152c1.1-2.9,1.7-6.4,1.7-10.4c0-3.9-0.6-7.4-1.7-10.3
					c-1.1-2.8-2.6-5.2-4.4-7.1c-1.8-1.9-4-3.3-6.3-4.2c-2.4-0.9-5-1.4-7.7-1.4s-5.3,0.5-7.7,1.4c-2.3,0.9-4.4,2.3-6.2,4.2
					c-1.8,1.9-3.3,4.4-4.5,7.2c-1.2,2.9-1.7,6.3-1.7,10.2c0,3.9,0.6,7.4,1.8,10.3c1.2,2.9,2.7,5.4,4.5,7.3c1.8,1.9,3.9,3.3,6.3,4.3
					c2.4,1,5,1.5,7.6,1.5s5.2-0.5,7.6-1.5c2.4-1,4.5-2.4,6.4-4.3C349.6,157.3,351.1,154.8,352.2,152z M473.7,116.5
					c1.4,4.4,2.1,9.1,2.1,14v56.7h-27.1V134c0-4.4-1.1-8.2-3.3-11.2c-1.9-2.7-5.4-4-10.6-4c-4.7,0-8.1,1.4-10.3,4.4
					c-2.5,3.3-3.7,7.2-3.7,12v52.1h-27.1V96.1h26.6v5c1.9-1.6,3.9-2.9,6.1-3.9c5-2.3,10.2-3.5,15.5-3.5c5.7,0,10.7,1,15,2.9
					c4.3,1.9,7.9,4.7,10.7,8.2C470.2,108.1,472.3,112.1,473.7,116.5L473.7,116.5z M269.7,163.3c1.7-0.2,2.3-0.3,2.4-0.4l4.3-1.1
					v23.4l-2.2,0.9c-0.5,0.2-1.4,0.5-4.2,1.3c-2.3,0.6-5.4,0.9-9.4,0.9c-8.8,0-15.8-2.6-21-7.6c-5.2-5-7.8-12.1-7.8-21v-38.9h-10.4
					V96.1h10.4V70.3h26.9v25.8h17.5v24.7h-17.5v35.6c0,2.7,0.5,4.6,1.5,5.6c1,1,3,1.5,5.8,1.5C267.2,163.6,268.5,163.5,269.7,163.3z
					"/>
			</g>
		</g>
	</g>
</g>
</svg>
