<?xml version="1.0" encoding="utf-8"?>
<!-- Generator: Adobe Illustrator 23.0.1, SVG Export Plug-In . SVG Version: 6.00 Build 0)  -->
<svg version="1.1" id="Layer_1" xmlns="http://www.w3.org/2000/svg" xmlns:xlink="http://www.w3.org/1999/xlink" x="0px" y="0px"
	 viewBox="0 0 500 250" style="enable-background:new 0 0 500 250;" xml:space="preserve">
<style type="text/css">
	.st0{fill:none;}
	.st1{fill:#39366F;}
	.st2{fill:#F7CE39;}
</style>
<rect x="-0.6" y="0.7" class="st0" width="500" height="250"/>
<path class="st1" d="M185.9,126.5c0,13.1,10.8,23.9,24.7,23.9c5.4,0,11.6-2.3,15.4-7c0.8,0,0.8-0.8,0.8-1.6l-5.4-5.4
	c-0.8-0.8-1.5-0.8-1.5,0c-2.3,1.5-6.2,3.1-9.2,3.1c-7.7,0-13.1-6.2-13.1-13.9c0-7,5.4-13.1,13.1-13.1c3.1,0,6.2,0.8,9.2,3.1
	c0,0.8,0.8,0.8,1.5,0l4.6-5.4c0.8-0.8,0.8-1.5,0-1.5c-3.9-4.6-9.2-6.2-15.4-6.2C196.7,102.5,185.9,113.3,185.9,126.5z M248.4,131.8
	c0,10,8.5,18.5,18.5,18.5c10.8,0,19.3-8.5,19.3-18.5v-27.8c0-0.8-0.8-0.8-1.5-0.8h-7.7c-0.8,0-1.5,0-1.5,0.8v27
	c0,4.6-3.1,8.5-8.5,8.5c-4.6,0-7.7-3.9-7.7-8.5v-27c0-0.8-0.8-0.8-1.5-0.8h-7.7c-0.8,0-1.5,0-1.5,0.8L248.4,131.8L248.4,131.8z
	 M311.7,148c0,0.8,0.8,1.5,1.5,1.5h16.2c7.7,0,14.7-5.4,14.7-13.1c0-6.2-5.4-9.3-9.3-10.8c3.1-1.5,7.7-5.4,7.7-10
	c0-7.7-6.2-12.3-13.9-12.3h-15.4c-0.8,0-1.5,0-1.5,0.8V148L311.7,148z M321.7,121.8v-9.2h5.4c2.3,0,4.6,1.5,4.6,4.6
	c0,2.3-2.3,4.6-4.6,4.6L321.7,121.8L321.7,121.8z M321.7,140.4v-10.1h5.4c3.1,0,6.2,2.3,6.2,4.6c0,3.1-2.3,5.4-5.4,5.4
	C327.8,140.4,321.7,140.4,321.7,140.4z M367.2,148c0,0.8,0.8,1.5,0.8,1.5h8.5c0.8,0,0.8-0.8,0.8-1.5v-44c0-0.8,0-0.8-0.8-0.8H368
	c0,0-0.8,0-0.8,0.8V148z M409.7,148c0,0.8,0.8,1.5,1.6,1.5h7.7c0.8,0,1.5-0.8,1.5-1.5v-35.5h9.3c0.8,0,1.5-0.8,1.5-0.8v-7.7
	c0-0.8-0.8-0.8-1.5-0.8h-29.3c-0.8,0-1.5,0-1.5,0.8v7.7c0,0,0.8,0.8,1.5,0.8h9.2V148z M449.8,145c1.5,1.5,6.2,5.4,15.4,5.4
	c9.2,0,15.4-7,15.4-13.9c0-9.3-8.5-13.1-13.1-15.4c-5.4-2.3-7.7-3.9-7.7-6.2c0-1.5,2.3-3.9,4.6-3.9c3.9,0,8.5,3.9,9.3,4.6
	c0.8,0,1.5-0.8,2.3-0.8l3.1-5.4c0.8-0.8,0.8-1.5,0-2.3c-2.3-1.5-7.7-4.6-14.7-4.6c-10.1,0-15.4,6.2-15.4,13.1
	c0,7.7,7.7,12.3,13.1,14.7c4.6,1.5,7,3.9,7,7c0,2.3-1.5,3.9-4.6,3.9c-4.6,0-9.3-3.9-9.3-3.9c-0.8,0-1.5-0.8-2.3,0l-3.1,6.2
	C449,144.2,449,144.2,449.8,145z"/>
<polygon class="st2" points="114.8,177.4 94.8,141.9 80.9,141.9 77,139.6 70.1,128 70.1,123.4 77,111.8 80.9,109.5 94.8,109.5 
	114.8,73.2 60,73.2 56.2,75.5 29.2,123.4 29.2,128 56.2,175.1 60,177.4 "/>
<path class="st1" d="M122.6,64.7l17.8,30.1l17.8,30.9l-17.8,30.1l-17.8,30.9H87.8H52.3l-17-30.9l-17.8-30.1l17.8-30.9l17-30.1h35.5
	C87.8,64.7,122.6,64.7,122.6,64.7z M94.8,109.5l20.1-36.3h-27H60.1l20.8,36.3h7H94.8z M118.7,75.5l-21.6,37.8H83.2l6.2,10h57.1
	l-13.9-23.9L118.7,75.5z M97.1,137.3l21.6,37.8l13.9-23.9l13.9-23.2H89.4l-6.2,9.3H97.1z M114.8,177.4l-20.1-35.5h-7h-6.9L60,177.4
	h27.8H114.8z M29.2,123.4h40.9l3.9-6.2l3.1-5.4L56.2,75.5L43,99.4L29.2,123.4z M70.1,128H29.2L43,151.1l13.1,23.9L77,139.6L70.1,128
	z M79.3,134.9l6.2-9.3l-6.2-10l-5.4,10L79.3,134.9z"/>
</svg>
