<?xml version="1.0" encoding="utf-8"?>
<!-- Generator: Adobe Illustrator 23.0.1, SVG Export Plug-In . SVG Version: 6.00 Build 0)  -->
<svg version="1.1" id="Layer_1" xmlns="http://www.w3.org/2000/svg" xmlns:xlink="http://www.w3.org/1999/xlink" x="0px" y="0px"
	 viewBox="0 0 500 250" style="enable-background:new 0 0 500 250;" xml:space="preserve">
<style type="text/css">
	.st0{fill:none;}
	.st1{fill:url(#XMLID_2_);}
	.st2{fill:url(#XMLID_3_);}
	.st3{fill:url(#XMLID_4_);}
	.st4{fill:url(#XMLID_5_);}
	.st5{opacity:0.25;fill:url(#XMLID_6_);enable-background:new    ;}
	.st6{fill:#222222;}
	.st7{fill:#FFFFFF;}
</style>
<rect x="1.1" y="1" class="st0" width="500" height="250"/>
<g>
	<g id="pugglepay">
		<g id="Слой_3">
			
				<linearGradient id="XMLID_2_" gradientUnits="userSpaceOnUse" x1="113.738" y1="89.1029" x2="32.4976" y2="185.9213" gradientTransform="matrix(1 0 0 -1 0 250)">
				<stop  offset="0.5" style="stop-color:#98C848"/>
				<stop  offset="1" style="stop-color:#DFEAB2"/>
			</linearGradient>
			<circle id="XMLID_280_" class="st1" cx="73.1" cy="112.5" r="63.2"/>
			
				<linearGradient id="XMLID_3_" gradientUnits="userSpaceOnUse" x1="139.4668" y1="132.2776" x2="81.9463" y2="200.8279" gradientTransform="matrix(1 0 0 -1 0 250)">
				<stop  offset="0.5" style="stop-color:#FACE31"/>
				<stop  offset="1" style="stop-color:#FBEE65"/>
			</linearGradient>
			<path id="XMLID_279_" class="st2" d="M136.3,112.5c0-32.2-24-58.7-55.1-62.7c0.4,5,1.4,10.5,3.3,16.9c7.5,25.2,27.1,44,51.3,54.1
				C136.1,118.1,136.3,115.3,136.3,112.5z"/>
			
				<linearGradient id="XMLID_4_" gradientUnits="userSpaceOnUse" x1="99.8363" y1="77.4415" x2="18.6003" y2="174.2548" gradientTransform="matrix(1 0 0 -1 0 250)">
				<stop  offset="0.5" style="stop-color:#548D44"/>
				<stop  offset="1" style="stop-color:#CCE098"/>
			</linearGradient>
			<path id="XMLID_278_" class="st3" d="M47.1,76.9c-2.3-7.8-3.4-14.5-3.5-20.3c-20,10.6-33.7,31.6-33.7,55.9
				c0,34.9,28.3,63.2,63.2,63.2c25.4,0,47.3-15,57.4-36.7C92.7,135.5,57.7,112.7,47.1,76.9z"/>
			
				<linearGradient id="XMLID_5_" gradientUnits="userSpaceOnUse" x1="90.1662" y1="69.3298" x2="12.1725" y2="162.279" gradientTransform="matrix(1 0 0 -1 0 250)">
				<stop  offset="0.4041" style="stop-color:#46505E"/>
				<stop  offset="1" style="stop-color:#C5CEDD"/>
			</linearGradient>
			<path id="XMLID_277_" class="st4" d="M20.4,96.8c-1.5-4.4-2.7-8.7-3.6-12.9c-4.4,8.6-6.8,18.3-6.8,28.6
				c0,34.9,28.3,63.2,63.2,63.2c16.1,0,30.7-6,41.9-15.9C72.4,161.5,33.6,136.5,20.4,96.8z"/>
			
				<linearGradient id="XMLID_6_" gradientUnits="userSpaceOnUse" x1="94.5286" y1="121.1061" x2="51.8681" y2="194.9961" gradientTransform="matrix(1 0 0 -1 0 250)">
				<stop  offset="0" style="stop-color:#FFFFFF;stop-opacity:0"/>
				<stop  offset="1" style="stop-color:#FFFFFF"/>
			</linearGradient>
			<circle id="XMLID_276_" class="st5" cx="73.2" cy="91.9" r="42.7"/>
			<path id="XMLID_275_" class="st6" d="M136.3,112.5c0-6-0.8-11.8-2.4-17.3c-3.2-8.8-9-15.7-17-18.9C98.4,69,75.2,83.8,65,109.5
				s-3.4,52.4,15.1,59.7c7.1,2.8,15,2.3,22.5-0.8C122.6,157.8,136.3,136.7,136.3,112.5z"/>
		</g>
		<g id="Слой_2">
			<g id="XMLID_281_">
				<path id="XMLID_302_" class="st6" d="M290.8,92.8c2-0.1,4.2-0.1,6,1c1.5,0.9,2.2,2.6,2.3,4.4c0.1,0.3,0.1,0.6,0.1,0.9
					c0,15.9,0,31.8,0,47.7c-0.1,1.6-0.3,3.2-1.4,4.4c-1.2,1.4-3.2,1.7-4.9,1.8c-2,0.1-4.3,0-6.1-1.1c-1.7-1.1-2.1-3.2-2.1-5.1
					c0-15.9,0-31.8,0-47.7c0-1.6,0.4-3.3,1.5-4.5C287.3,93.2,289.1,92.9,290.8,92.8z"/>
				<path id="XMLID_301_" class="st6" d="M150.9,109c1.5,0,3-0.1,4.5,0.5c1.2,0.4,2.1,1.3,2.7,2.4c0.8,1.5,1,3.4,1.1,5.2
					c0,4.8,0,9.6,0,14.4c0,1.7,0.1,3.6,0.6,5.2c0.4,1.5,1.3,2.9,2.8,3.5c1.7,0.7,4,0.5,5.4-0.7c1.2-1,1.8-2.4,2.2-3.8
					c0.3-0.5,0.1-1.1,0.4-1.6c0-1.2,0.3-2.4,0.3-3.7c0.1-4.7,0-9.4,0.1-14.1c0.2-1.8,0.4-3.8,1.6-5.2c1.2-1.5,3.2-1.9,5-2
					c1.8,0,3.8,0,5.4,0.8c1.1,0.6,1.8,1.6,2.1,2.8c0.4,1.4,0.4,2.9,0.4,4.4c0,9.6,0,19.2,0,28.8c0,1.6-0.2,3.6-1.1,5
					c-0.7,1-1.9,1.7-3.1,1.9c-1.5,0.3-3.2,0.3-4.7,0.2c-1.8-0.2-3.4-0.6-4.5-2.1c-1.1-1.6-1.2-3.9-1.1-5.8c-0.4,0.2-0.2,0.6-0.5,1
					c-1.5,3.4-4.7,5.9-8.3,6.8c-3.5,0.9-7.5,1.1-10.9-0.7c-2.8-1.5-4.6-4.1-5.7-7c-0.7-2-1-4-1.2-6.1c0-7.8,0-15.7,0-23.5
					c0.2-1.8,0.4-3.6,1.7-4.9C147.5,109.4,149.2,109.1,150.9,109z"/>
				<path id="XMLID_300_" class="st6" d="M454.5,109c1.7,0,3.8,0.3,5.1,1.7c1.1,1,1.5,2.4,1.8,3.8c2.1,8.3,3.8,16.8,6.5,25
					c0.2,0.3,0,0.7,0.4,0.8c1.3-4.4,2.5-8.3,3.6-12.9c1.3-5,2.1-8.8,3.1-13.9c0.2-1.1,0.7-2.1,1.5-2.9c1.3-1.3,3.4-1.6,5.2-1.6
					c2.3,0,4.8-0.2,6.8,1c1,0.6,1.6,1.5,1.8,2.6v1.1c-0.9,3.4-1.6,6.6-2.6,10.1c-3.5,13.2-8.2,26-13.8,38.5
					c-0.8,1.8-1.7,3.7-2.9,5.2c-1.2,1.4-2.8,2.5-4.7,2.5c-1.4,0-2.9,0-4.3,0c-1.4,0-3-0.4-4-1.5c-1.1-1.1-1.4-2.8-1-4.2
					c0.4-2,1.5-3.8,2.4-5.6c1.2-2.1,2.4-4.1,3.5-6.3c-1.5-0.2-2.9-1.3-3.9-2.3c-1.9-2-3.2-4.8-4.4-7.2c-4-8.4-6.2-17.3-8.3-26.3
					c-0.3-1.3-0.7-2.5-0.6-3.8c0-1.5,1.2-2.7,2.5-3.2C450.2,108.8,452.4,109,454.5,109z"/>
				<path id="XMLID_297_" class="st6" d="M395.4,110.8c-0.6-3.1-1.8-6-3.9-8.4c-2.3-2.5-5.3-4.2-8.5-5.1c-2.6-0.8-5.3-1-8.1-1.1
					c-5.5,0-10.9,0-16.4,0c-1.8,0.1-3.8,0.4-5.1,1.8c-1.2,1.3-1.4,3.1-1.5,4.8c0,14.7,0,29.3,0,44c0.1,1.8,0.3,3.6,1.7,4.8
					c1.6,1.4,4.1,1.4,6.1,1.4c2,0,4.3-0.1,5.9-1.3c1.5-1.2,1.9-3.1,2-4.9c0-4.2,0-8.3,0-12.5c4.7-0.1,9,0.3,13.4-0.6
					c3.2-0.6,6.4-2,8.9-4.1c2.2-1.9,3.8-4.3,4.7-7C395.9,118.8,396.1,114.6,395.4,110.8z M378.9,120.4c-1.3,1.2-3.2,1.6-5,1.7
					c-2.1,0-4.2,0-6.3,0c0-4.1,0-8.3,0-12.4c2.1,0,4.4,0,6.5,0c1.9,0,4,0.6,5.2,2.1c1,1.1,1.4,2.7,1.3,4.2
					C380.7,117.6,380.1,119.4,378.9,120.4z"/>
				<path id="XMLID_294_" class="st6" d="M230,145.7c-2.4-1.8-5.7-2.6-8.6-3c-4.2-0.5-8.7-0.2-13-0.3c-1-0.1-2-0.4-2.3-1.4
					c0.2-0.9,1.1-1.1,1.9-1.4c1-0.3,2-0.3,3-0.2c3.8,0.1,7.9-0.6,11.3-2.2c2.6-1.3,4.8-3.1,6.2-5.7c1.3-2.3,1.8-4.9,1.8-7.5
					c0-2.2-0.5-4.5-1.7-6.3c-0.2-0.2-0.5-0.4-0.5-0.7c2.5-1.1,5-3.3,5.5-6.1c0.3-2.1-0.3-4.4-1.9-5.9c-1.8-1.6-4.4-2.1-6.7-2
					c0,0.3,0,0.5-0.1,0.8c-0.5,2.6-1.4,5.5-3.2,7.6c-2.1-1.3-4.4-2.2-6.8-2.6c-2.6-0.5-5.4-0.4-8,0c-3.5,0.6-6.9,1.8-9.7,4.1
					c-3.4,2.6-5.3,6.9-5.2,11.2c-0.1,4.3,1.6,8.6,5,11.3c0.8,0.7,1.8,1.1,2.6,1.7c-2.1,0.5-4.3,1.5-5.8,3.1
					c-2.2,2.4-2.3,6.5-0.2,8.9c1.6,1.8,4,2.6,6.3,3.1c4.8,1,9.8,1,14.7,1.1c1.6,0,3.6,0,5.1,0.8c1.3,0.7,1.6,2.5,0.7,3.5
					c-0.7,0.8-1.8,1.1-2.7,1.4c-2.8,0.6-5.5,0.6-8.4,0.5c-2.4-0.2-5.3-0.5-7.2-2.3c-1.2-1.1-1.5-2.7-1.2-4.3c-2.4,0-4.9,0.2-7.1,1.1
					c-1.5,0.6-2.7,1.7-3.3,3.3c-0.6,1.9-0.5,4.1,0.5,5.9c0.7,1.4,2,2.6,3.3,3.4c3.8,2.4,8.6,3.2,13,3.5c3,0.1,6,0.2,9-0.3
					c5.5-0.8,11.2-3,14.6-7.5c2.6-3.3,3.3-7.7,2.2-11.7C232.7,148.6,231.5,146.9,230,145.7z M205.8,122.2c0.1-0.7,0.6-1.5,1.1-2
					c1.3-1.5,3.3-1.9,5.2-1.8c2,0.1,3.9,1.3,4.6,3.3c0.7,2.1,0.7,4.6-0.5,6.5c-1.2,1.8-3.3,2.4-5.4,2.3c-1.9-0.1-3.7-1.1-4.6-2.8
					C205.3,126,205.3,123.9,205.8,122.2z"/>
				<path id="XMLID_291_" class="st6" d="M275.4,145.5c-2.3-1.7-5.3-2.4-8.1-2.7c-4.4-0.5-8.9-0.2-13.3-0.3c-0.8,0-2.3-0.6-2.1-1.6
					c0.3-0.7,1.3-1,2-1.2c0.9-0.3,1.8-0.3,2.8-0.2c2,0.1,3.9-0.1,5.8-0.4c3.9-0.7,7.8-2.3,10.5-5.4c2.7-3.1,3.4-7.2,3-11.2
					c-0.2-1.9-0.8-3.7-2.1-5.2c2.1-0.9,4.1-2.5,5.1-4.5c0.9-1.9,0.8-4.1-0.2-6c-0.7-1.2-1.8-2.1-3.1-2.7c-1.5-0.7-3-0.8-4.7-0.9
					c-0.1,0.2-0.1,0.4-0.2,0.6c-0.2,1.4-0.6,2.8-1.1,4.2c-0.5,1.2-1.2,2.8-2.1,3.7c-2-1.3-4.3-2.1-6.6-2.6
					c-3.8-0.7-7.8-0.3-11.5,0.8c-3.3,1-6.4,2.8-8.6,5.5c-3.3,4.1-3.8,9.9-2,14.7c1.1,2.9,3.3,5.3,6,6.8c0.2,0.2,0.6,0.1,0.6,0.4
					c-2.3,0.6-4.8,1.8-6.3,3.7c-1.9,2.6-1.6,6.8,0.9,8.9c2.6,2.3,6.8,2.8,10.1,3.2c2.7,0.2,5.4,0.4,8.1,0.4c1.7,0.1,3.4-0.1,5.1,0.2
					c1.1,0.1,2.4,0.5,3,1.5c0.6,1,0.4,2.2-0.5,3c-1.1,0.9-2.7,1.1-4,1.4c-3.4,0.3-6.9,0.4-10.2-0.2c-1.6-0.4-3-0.9-4.1-2.2
					c-0.9-1.1-1-2.5-0.9-3.9c-2.4,0-5.1,0.2-7.3,1.2c-1.5,0.7-2.8,1.9-3.2,3.6c-0.5,2-0.3,4.3,0.9,6c1.3,2.1,3.6,3.4,5.8,4.3
					c4.9,2,10.4,2.3,15.7,2.1c4.3-0.2,8.7-1.1,12.5-3.2c2.7-1.5,5.1-3.5,6.6-6.3c1.5-2.6,2-5.8,1.4-8.8
					C278.9,149.3,277.5,146.9,275.4,145.5z M252.2,120.6c0.7-1.1,1.9-1.8,3.1-2.1c2.1-0.5,4.6-0.1,6.1,1.5c1.4,1.6,1.6,3.7,1.3,5.8
					c-0.3,1.6-1.1,3-2.5,3.8c-1.9,1-4.3,1.1-6.3,0.1c-1.7-0.9-2.7-2.8-2.7-4.7C251.2,123.5,251.4,122,252.2,120.6z"/>
				<path id="XMLID_288_" class="st6" d="M340,138.3l-0.2,0c-2.6,2.6-6.1,3.3-9.6,3.4c-1.9,0-3.8-0.2-5.6-0.7
					c-2.1-0.6-4.1-1.6-5.5-3.4c-0.7-1-1-2.1-1.1-3.3c0.5,0,0.9,0.3,1.4,0.4c3.4,1.2,7,1.4,10.6,1.4c1.8-0.2,3.5-0.3,5.2-0.9
					c2.9-0.8,5.8-2.6,7.5-5.2c1.5-2.3,2-5,1.8-7.7c-0.2-4.4-2.6-8.6-6.3-11c-4.2-2.8-9.7-3.4-14.6-2.9c-4.4,0.5-8.6,2.2-11.9,5.2
					c-4.2,3.8-6.3,9.3-6.8,14.8c-0.4,4.8,0.1,10.1,2.4,14.4c2,4,5.5,7,9.6,8.6c4.5,1.8,9.5,2.2,14.3,1.7c3-0.4,6-1.2,8.6-2.8
					c1.7-1.1,3.2-2.6,3.7-4.6C344.3,143,342.8,139.7,340,138.3z M325.6,119.9c2.1-0.2,4.5,0.4,6,1.9c1.2,1.3,1.3,3.4,0.2,4.9
					c-0.8,1-2.2,1.5-3.4,1.6c-1.3,0.2-2.7,0-4-0.1c-1.8-0.3-3.7-0.5-5.2-1.4l-0.1-0.2C319.3,123.1,322.1,120.1,325.6,119.9z"/>
				<path id="XMLID_285_" class="st6" d="M442.5,146.4c-1.5-1.2-2.1-3.3-2.4-5.2c-0.3-2-0.2-3.8-0.2-5.8c0-3.8,0.1-7.7-0.2-11.4
					c-0.3-2.8-0.9-5.6-2.4-8.1c-1.7-2.9-4.4-5-7.6-6.1c-4-1.4-8.4-1.6-12.6-1.3c-2.4,0.3-4.7,0.6-7,1.4c-2.3,0.9-4.6,2.1-6,4.2
					c-1.5,2.1-1.5,5-0.3,7.2c0.7,1.4,1.8,2.1,3.1,2.8c1.9-1.5,4.4-2.4,6.8-2.8c2.6-0.4,5.3-0.4,7.9,0.1c1.5,0.4,3.2,1,4.2,2.4
					c0.8,1.1,0.8,2.4,0.7,3.7c-0.9-0.4-1.9-0.5-2.9-0.8c-4.3-0.9-9.1-0.9-13.3,0.4c-2.8,0.9-5.4,2.5-7.3,4.8c-2.2,2.7-3,6.5-2.5,9.9
					c0.2,2,0.9,3.9,2,5.5c1.9,2.9,5,4.7,8.4,5.4c2.6,0.6,5.4,0.6,8,0c3-0.7,5.7-2.5,7.4-5.2c0.2-0.2,0.2-0.7,0.5-0.8
					c0.6,2.1,1.6,4,3.4,5.2c1.8,1.2,3.8,1.3,5.9,1.1c2.2-0.2,4.3-1.3,5.6-3.1c0.7-0.9,1.1-2.1,1.3-3.2
					C443.2,146.7,442.7,146.6,442.5,146.4z M425,140.5c-1.3,1.6-3.3,2.5-5.4,2.4c-1.7,0-3.6-0.5-4.8-1.8c-1.4-1.6-1.2-4.4,0.6-5.7
					c1.6-1.3,4.2-1.6,6.2-1.4c1.7,0.1,3.4,0.5,4.9,1.2C426.8,137.2,426.2,139.1,425,140.5z"/>
				<path id="XMLID_282_" class="st7" d="M127.1,113.1c-0.2-0.7-0.2-1.5-0.3-2.2c0-0.3-0.1-0.6-0.2-1l-0.1-0.3
					c0-0.2-0.1-0.5-0.1-0.7l-0.1-0.1c0-0.7-0.4-1.2-0.6-1.9c-0.7-1.7-1.6-3.2-2.8-4.6c-2.2-2.5-5.4-4.3-8.6-5.1
					c-2.6-0.8-5.4-1-8.1-1.1c-5.1,0-10.3,0-15.4,0c-1.1,0-2.1,0.1-3.2,0.3c-1,0.3-2,0.7-2.8,1.4c-0.8,0.8-1.2,1.9-1.4,3.1
					c-0.2,0.5-0.1,1.1-0.2,1.6c0,14.8,0,29.6,0,44.5c0,0.4,0,0.9,0.1,1.2l0.1,0.1c0,0.8,0.4,1.8,0.9,2.5l0.2,0.2
					c0.6,0.7,1.5,1.2,2.4,1.5c0.4,0.2,0.9,0.1,1.3,0.3c1.9,0.1,3.9,0.2,5.8,0c1-0.3,2-0.4,2.9-1.1c0.4-0.2,0.6-0.4,0.9-0.8
					c0.2-0.3,0.4-0.6,0.6-0.9c0.2-0.4,0.4-0.8,0.4-1.3c0-0.2,0.1-0.3,0.2-0.5c0.2-1,0.1-2,0.1-3c0-3.6,0-7.4,0-11
					c0.3,0.1,0.6,0.1,0.8,0.1c3-0.1,6.1,0.1,9.2-0.1l0.4-0.1c0.5,0,1,0,1.5-0.1c0.2-0.1,0.3-0.1,0.5-0.1c0.3,0,0.7,0,1-0.1
					c0.7-0.2,1.5-0.3,2.2-0.6c1.4-0.4,2.7-0.9,3.9-1.6c3.5-1.9,6.3-5,7.6-8.8c0.3-0.4,0.2-0.9,0.5-1.3l0.1-0.5c0-0.2,0-0.3,0.1-0.5
					c0.1-0.2,0.1-0.5,0.1-0.7c0-0.2,0-0.4,0.1-0.6c0.1-0.4,0.1-0.8,0.1-1.2l0.1-0.4C127.2,116,127.1,114.5,127.1,113.1z
					 M110.7,119.7c-1.2,1.6-3,2.1-4.9,2.4c0,0-4.7,0.1-6.7,0c0-3.8-0.1-8.3-0.1-12.2c0,0,5.3,0,6.5,0c1,0,4.3,0.7,5.4,2.6
					C112.2,114.6,112.1,117.7,110.7,119.7z"/>
			</g>
		</g>
	</g>
</g>
</svg>
