<?xml version="1.0" encoding="utf-8"?>
<!-- Generator: Adobe Illustrator 23.0.1, SVG Export Plug-In . SVG Version: 6.00 Build 0)  -->
<svg version="1.1" id="Layer_1" xmlns="http://www.w3.org/2000/svg" xmlns:xlink="http://www.w3.org/1999/xlink" x="0px" y="0px"
	 viewBox="0 0 500 250" style="enable-background:new 0 0 500 250;" xml:space="preserve">
<style type="text/css">
	.st0{fill:none;}
	.st1{fill:#049BE0;}
</style>
<rect x="0" y="0.2" class="st0" width="500" height="250"/>
<g>
	<path class="st1" d="M182.3,108.2c-3.5,0-6.5,0.8-8.9,2.2c-2.4,1.3-4.6,3.2-5.9,5.9H167c0.3-3.5,0.5-6.5,0.5-9.4V88H157v72.8h10.5
		v-25.6c0-6.5,1.1-11,3.2-14c2.2-2.7,5.4-4,9.7-4c3.2,0,5.7,1.1,7.3,3c1.6,1.9,2.4,4.9,2.4,8.9v31.8h10.5v-33.4
		C200.4,114.7,194.4,108.2,182.3,108.2z"/>
	<path class="st1" d="M363.4,108.2c-7.5,0-13.2,2.4-17.2,7c-4,4.9-6.2,11.3-6.2,19.7c0,5.4,1.1,10.2,3,14.3s4.6,7.3,8.1,9.4
		s7.5,3.2,12.1,3.2c7.3,0,13.2-2.4,17.2-7c4-4.9,6.2-11.3,6.2-19.9c0-8.1-2.2-14.6-6.2-19.4C376.3,110.6,370.7,108.2,363.4,108.2z
		 M363.4,152.9c-8.4,0-12.7-5.9-12.7-18.1c0-5.7,1.1-10,3-13.2c1.9-3,5.1-4.6,9.7-4.6c8.4,0,12.7,5.9,12.7,17.8
		C375.8,147,371.8,152.9,363.4,152.9z"/>
	<path class="st1" d="M100.1,112.5c-3.2-3-7.8-4.3-14.3-4.3c-2.7,0-5.9,0.3-8.9,1.1c-3.2,0.8-6.2,1.9-8.9,3.2l3.5,7.8
		c2.2-1.1,4.3-1.9,6.7-2.7c2.4-0.8,4.9-1.1,7.3-1.1c3,0,5.4,0.8,6.7,2.4c1.3,1.6,2.2,4,2.2,7.5v2.7l-8.6,0.3
		c-7.8,0.3-13.5,1.6-17.2,4.6c-3.8,2.7-5.7,6.7-5.7,12.1c0,5.1,1.3,8.9,4,11.6c2.7,2.7,6.5,4,11.3,4c3.8,0,7-0.5,9.2-1.6
		c2.4-1.1,4.9-3.2,7.3-6.5H95l2.2,7.3h7.5v-35C105,120.1,103.4,115.5,100.1,112.5z M94.5,140.8c0,4-1.1,7.3-3.5,9.4
		s-5.4,3.2-9.2,3.2c-2.7,0-4.6-0.5-5.9-1.9c-1.3-1.3-1.9-3-1.9-5.4c0-3.2,1.1-5.7,3.5-7c2.2-1.6,5.9-2.4,10.8-2.7l6.5-0.3
		C94.5,136.2,94.5,140.8,94.5,140.8z"/>
	<path class="st1" d="M41.1,101.2c2.7,0,5.4,0.5,7.8,1.3s4.9,1.9,7,3l3.5-9.7c-5.7-3-11.9-4.3-18.6-4.3c-6.2,0-11.6,1.3-16.4,4.3
		c-4.6,3-8.4,7-10.8,12.4s-3.8,11.6-3.8,18.6c0,11.3,2.4,19.9,7.8,26.1c5.1,6.2,12.4,9.2,22.1,9.2c6.5,0,12.4-1.1,17.5-3v-9.7
		c-2.7,0.8-5.4,1.6-8.1,2.2c-2.7,0.5-5.4,0.8-8.1,0.8c-6.5,0-11.3-2.2-14.6-6.5c-3.5-4.3-5.4-10.8-5.4-19.1c0-8.1,1.9-14.3,5.4-18.9
		S34.9,101.2,41.1,101.2z"/>
	<path class="st1" d="M143.8,135.1c-1.9-1.3-4.9-3-8.9-4.6c-4.9-1.9-8.1-3.5-9.4-4.6c-1.3-1.1-2.2-2.4-2.2-4c0-3.2,2.7-4.9,8.4-4.9
		c3.5,0,8.1,1.1,13.5,3.5l3.5-8.4c-5.1-2.4-10.8-3.8-16.4-3.8c-5.9,0-10.5,1.3-14,3.8c-3.5,2.4-5.1,5.9-5.1,10.2
		c0,3.8,1.1,6.7,3,8.9c1.9,2.4,5.9,4.6,11.6,7c3,1.1,5.1,2.2,6.7,3.2c1.6,0.8,2.7,1.9,3.5,2.7c0.8,0.8,1.1,1.9,1.1,3.2
		c0,4-3.2,6.2-9.7,6.2c-5.1,0-10.5-1.3-16.2-4.3v9.4c4,2.2,9.2,3.2,15.9,3.2c6.5,0,11.6-1.3,15.1-4c3.5-2.7,5.4-6.5,5.4-11.6
		c0-2.4-0.5-4.6-1.3-6.5C147,138.1,145.7,136.5,143.8,135.1z"/>
	<path class="st1" d="M426.7,106.8c0,2.2,0.3,5.1,0.8,8.9H427c-3.5-5.1-8.4-7.5-14.8-7.5c-6.2,0-11,2.4-14.6,7
		c-3.5,4.6-5.1,11.3-5.1,19.9c0,8.4,1.6,15.1,5.1,19.7c3.5,4.6,8.4,7,14.6,7c6.5,0,11.3-2.7,14.8-7.8h0.5l1.9,6.7h8.1V88H427
		L426.7,106.8L426.7,106.8z M427.3,136.8c0,5.7-1.1,10-3,12.4c-1.9,2.4-5.1,3.8-9.4,3.8c-3.8,0-6.7-1.6-8.6-4.6c-1.9-3-3-7.3-3-13.2
		s1.1-10.2,3-13.5c1.9-3.2,4.9-4.6,8.6-4.6c4.3,0,7.5,1.3,9.4,4c2.2,2.7,3,7.3,3,14V136.8z"/>
	<path class="st1" d="M489.5,131.6c0-7.3-1.9-12.9-5.7-17.2c-3.8-4-8.9-6.2-15.4-6.2c-7,0-12.7,2.4-16.4,7.3
		c-4,4.9-5.9,11.6-5.9,19.9s2.2,14.8,6.5,19.4c4.3,4.6,10.2,7,18.1,7c3.5,0,6.5-0.3,8.9-0.8c2.7-0.5,5.1-1.3,7.8-2.7v-8.9
		c-3,1.3-5.7,2.4-8.1,3c-2.4,0.5-5.1,0.8-8.1,0.8c-4.3,0-7.8-1.3-10.2-4c-2.4-2.7-3.8-6.5-3.8-11.6h32.9L489.5,131.6L489.5,131.6z
		 M456.6,129.5c0.3-4.3,1.6-7.5,3.5-9.7c1.9-2.2,4.6-3.2,8.1-3.2c3.2,0,5.9,1.1,7.8,3.2c1.9,2.2,3,5.4,3,9.7H456.6z"/>
	<path class="st1" d="M257.8,109c-6.7,0-11.9,2.4-15.9,7c-4,4.6-5.7,11-5.7,19.4c0,5.4,0.8,10,2.7,14c1.6,4,4.3,7,7.5,9.2
		s7,3.2,11.3,3.2c6.7,0,12.1-2.4,15.9-7c3.8-4.6,5.7-11,5.7-19.4c0-8.1-1.9-14.6-5.7-19.4C269.9,111.4,264.5,109,257.8,109z
		 M270.2,151.9c-3,4-7,5.9-12.4,5.9c-5.4,0-9.4-1.9-12.4-5.9c-3-4-4.3-9.4-4.3-16.4s1.3-12.4,4.3-16.4c3-3.8,7-5.7,12.4-5.7
		c5.4,0,9.4,1.9,12.4,5.9c3,3.8,4.3,9.4,4.3,16.4C274.7,142.4,273.1,147.8,270.2,151.9z"/>
	<path class="st1" d="M317.3,101.2c2.7,0,5.4,0.5,7.8,1.3s4.9,1.9,7,3l3.8-9.4c-5.7-3-11.9-4.3-18.6-4.3c-6.5,0-11.9,1.3-16.4,4.3
		c-4.6,3-8.4,7-10.8,12.4s-3.8,11.6-3.8,18.6c0,11.3,2.4,19.9,7.8,26.1c5.1,6.2,12.4,9.2,22.1,9.2c6.5,0,12.4-1.1,17.5-3v-9.7
		c-2.7,0.8-5.4,1.6-8.1,2.2c-2.7,0.5-5.4,0.8-8.1,0.8c-6.5,0-11.3-2.2-14.6-6.5c-3.5-4.3-5.1-10.8-5.1-19.1c0-8.1,1.9-14.3,5.4-18.9
		C306.5,103.3,311.4,101.2,317.3,101.2z"/>
	<path class="st1" d="M218.7,155.1c-1.3-1.9-1.9-4.9-1.9-8.6v-32.3h14.3v-4h-14.3V97.7h-2.2l-2.4,11.6l-7.3,2.2v2.7h7.3V147
		c0,5.1,1.1,8.9,3,11.3c2.2,2.4,5.1,3.5,9.4,3.5c2.7,0,5.4-0.3,7.5-1.1V157c-2.2,0.5-4.6,0.8-7.3,0.8S220,157,218.7,155.1z"/>
</g>
</svg>
