<?xml version="1.0" encoding="utf-8"?>
<!-- Generator: Adobe Illustrator 23.0.1, SVG Export Plug-In . SVG Version: 6.00 Build 0)  -->
<svg version="1.1" id="Layer_1" xmlns="http://www.w3.org/2000/svg" xmlns:xlink="http://www.w3.org/1999/xlink" x="0px" y="0px"
	 viewBox="0 0 500 250" style="enable-background:new 0 0 500 250;" xml:space="preserve">
<style type="text/css">
	.st0{fill:none;}
	.st1{fill-rule:evenodd;clip-rule:evenodd;fill:none;stroke:#2D78BB;stroke-width:1.889;stroke-miterlimit:2.613;}
	.st2{fill-rule:evenodd;clip-rule:evenodd;fill:#2D78BB;}
	.st3{fill-rule:evenodd;clip-rule:evenodd;fill:#F8E14B;}
	.st4{fill-rule:evenodd;clip-rule:evenodd;fill:#FFFFFF;}
</style>
<rect x="0" y="0" class="st0" width="500" height="250"/>
<g>
	<path class="st1" d="M250,12.6h161.1c21.3,0,28,15.6,28,26.7v171.5c0,10.6-6.6,26.7-28,26.7H88.9c-21.1,0-28-16.1-28-26.7V39.3
		c0-11.1,6.8-26.7,28-26.7H250L250,12.6z"/>
	<path class="st2" d="M174.2,142.9H233l32.9-35.3h59l-50.1,55.9H89.5v-37.3h99.4L174.2,142.9z"/>
	<path class="st3" d="M325,107.7h-59L233,143.1h-59.2l50.1-55.9h185.5v37.1H310L325,107.7z"/>
	<path class="st2" d="M385.6,73.5c-2.7,1.7-6.2,2.5-9.5,2.5c-9.5,0-18-7.1-18-16.9c0-9.8,7.7-16.9,17.4-16.9c3.5,0,7.5,0.6,10.1,2.3
		v10.4c-2.1-1.9-5.2-2.5-8.7-2.5c-3.3,0-7.2,2.7-7.2,7.1c0,3.8,3.9,6,7.2,6c3.7,0,6-0.2,8.7-2.3V73.5L385.6,73.5z M409.8,65.5v7.9
		c-8.5,6.3-18.2,1-18.2-6.3V52.6h-4.1V43h4.1v-7.7l11.6-6.3v14h6.6v8.8h-6v13.6C403.8,67.8,408,67.6,409.8,65.5L409.8,65.5z
		 M326,53.5l1.9-9c11.6-4,28.2-1.7,28.2,8.8v22.1h-10.8l-0.4-1c-5,3.1-23.2,4.6-20.7-9.8c1.4-8.6,11.2-10.6,17.2-10.6
		c3.1,0,4.3-2.9,0.4-3.1C338.2,50.5,331.2,50.9,326,53.5z M130.5,53.5l1.7-9c11.6-4,28.2-1.7,28.2,8.8v22.1h-11l-0.2-1
		c-4.8,3.1-23.6,4.6-20.7-9.8c1.5-8.6,11-10.6,17-10.6c3.1,0,4.3-2.9,0.6-3.1C142.5,50.5,135.3,50.9,130.5,53.5z M263.3,59.5
		c0,9.8-8.1,16.7-17.8,16.7c-9.7,0-18-7.3-18-17.1c0-9.6,8.3-17.1,17.8-17.1C255.2,42,263.3,49.5,263.3,59.5L263.3,59.5z
		 M322.1,65.5v7.9c-8.7,6.3-18.2,1-18.2-6.3V52.6h-4.1V43h4.1v-7.7l11.8-6.3v14h6.4v8.8h-6.2v13.6C315.8,67.8,320.2,67.6,322.1,65.5
		z"/>
	<path class="st2" d="M111.3,26.7c10.8,0,18.6,14.4,8.7,23.4c12.4,7.7,6.8,24.8-7,25H89.7V26.7H111.3z M225.4,73.5
		c-2.7,1.7-5.8,2.5-9.3,2.5c-9.7,0-18-7.1-18-16.9c0-9.8,7.7-16.9,17.2-16.9c3.5,0,7.5,0.6,10.1,2.3v10.4c-2.3-1.9-5-2.5-8.5-2.5
		s-7.5,2.7-7.5,7.1c0,3.8,4.1,6,7.5,6c3.5,0,5.8-0.2,8.5-2.3V73.5L225.4,73.5z M195.8,54.3v21.1h-11.6V57.2c0-6.5-9.3-6.3-9.3,0
		v18.1h-11.6V43h11.8v2.7C184.8,38.4,195.8,45.1,195.8,54.3L195.8,54.3z M298,54.3v21.1h-11.6V57.2c0-6.5-9.3-6.3-9.3,0v18.1h-11.6
		V43h11.6v2.7C287.1,38.4,298,45.1,298,54.3z M341.7,50.7c3.9,0.2,2.7,3.1-0.4,3.1c-6,0-15.7,2.1-17.2,10.6
		c-2.5,14.4,15.7,12.9,20.7,9.8l0.4,1H356V53.2c0-10.4-16.6-12.7-28.2-8.8l-1.9,9C331.2,50.9,338.2,50.5,341.7,50.7z"/>
	<path class="st2" d="M146.1,50.7c3.7,0.2,2.5,3.1-0.6,3.1c-6,0-15.5,2.1-17,10.6c-2.9,14.4,15.9,12.9,20.7,9.8l0.2,1h11V53.2
		c0-10.4-16.6-12.7-28.2-8.8l-1.7,9C135.3,50.9,142.5,50.5,146.1,50.7z M245.2,42c-9.5,0-17.8,7.5-17.8,17.1c0,9.8,8.3,17.1,18,17.1
		c9.7,0,17.8-6.9,17.8-16.7C263.3,49.5,255.2,42,245.2,42L245.2,42z M315.8,65.3V51.8h6.2V43h-6.4V29l-11.8,6.3V43h-4.1v9.6h4.1
		v14.6c0,7.3,9.5,12.5,18.2,6.3v-7.9C320.2,67.6,315.8,67.8,315.8,65.3L315.8,65.3z"/>
	<path class="st2" d="M89.7,26.7v48.4h23.2c13.9-0.2,19.5-17.3,7-25c9.9-9,2.1-23.4-8.7-23.4L89.7,26.7L89.7,26.7z M225.4,63.3
		c-2.7,2.1-5,2.3-8.5,2.3c-3.3,0-7.5-2.3-7.5-6c0-4.4,3.9-7.1,7.5-7.1c3.5,0,6.2,0.6,8.5,2.5V44.5c-2.7-1.7-6.6-2.3-10.1-2.3
		c-9.5,0-17.2,7.1-17.2,16.9c0,9.8,8.3,16.9,18,16.9c3.5,0,6.6-0.8,9.3-2.5V63.3z M175,45.7V43h-11.8v32.3h11.6V57.2
		c0-6.3,9.3-6.5,9.3,0v18.1h11.6V54.3C195.8,45.1,184.8,38.4,175,45.7L175,45.7z M277.1,45.7V43h-11.6v32.3h11.6V57.2
		c0-6.3,9.3-6.5,9.3,0v18.1H298V54.3C298,45.1,287.1,38.4,277.1,45.7L277.1,45.7z M385.6,63.3c-2.7,2.1-5,2.3-8.7,2.3
		c-3.3,0-7.2-2.3-7.2-6c0-4.4,3.9-7.1,7.2-7.1c3.5,0,6.6,0.6,8.7,2.5V44.5c-2.7-1.7-6.6-2.3-10.1-2.3c-9.7,0-17.4,7.1-17.4,16.9
		c0,9.8,8.5,16.9,18,16.9c3.3,0,6.8-0.8,9.5-2.5V63.3z M403.8,65.3V51.8h6V43h-6.6V29l-11.6,6.3V43h-4.1v9.6h4.1v14.6
		c0,7.3,9.7,12.5,18.2,6.3v-7.9C408,67.6,403.8,67.8,403.8,65.3L403.8,65.3z M252.1,59.5c0,3.5-3.1,6.5-6.6,6.5
		c-3.5,0-6.4-2.9-6.4-6.9c0-4.2,2.9-6.5,6.4-6.5C249,52.6,252.1,54.9,252.1,59.5z"/>
	<path class="st2" d="M103,55.7h5.2c6.4,0,7,9.8,0.2,9.8H103V55.7z M148.8,61.2v4c0,4.4-8.7,5.6-8.7,1
		C140.1,62,146.3,60.8,148.8,61.2z M344.4,61.2v4c0,4.4-8.5,5.6-8.5,1C335.9,62,342.1,60.8,344.4,61.2z M108.2,36.6
		c6,2.7,3.9,9.2,0.2,9.2H103v-9.2C103,36.3,106.7,36.1,108.2,36.6L108.2,36.6z"/>
	<path class="st4" d="M245.4,52.6c-3.5,0-6.4,2.3-6.4,6.5c0,4,2.9,6.9,6.4,6.9c3.5,0,6.6-2.9,6.6-6.5
		C252.1,54.9,249,52.6,245.4,52.6z M335.9,66.2c0,4.6,8.5,3.3,8.5-1v-4C342.1,60.8,335.9,62,335.9,66.2z M103,36.6v9.2h5.4
		c3.7,0,5.8-6.5-0.2-9.2C106.7,36.1,103,36.3,103,36.6z M140.1,66.2c0,4.6,8.7,3.3,8.7-1v-4C146.3,60.8,140.1,62,140.1,66.2z
		 M103,65.5h5.4c6.8,0,6.2-9.8-0.2-9.8H103V65.5z"/>
	<path class="st2" d="M233.6,207.2c0-11.3-4.6-18.6-15.9-18.6c-10.8,0-17.2,8.1-17.2,17.3c0,10,7.7,17.3,18.4,17.3
		c9.3,0,14.1-3.8,14.1-3.8v-9.6c-3.9,2.1-8.3,3.3-11.4,3.3c-6.2,0-9.5-1.7-9.5-6.1L233.6,207.2L233.6,207.2z M112.1,208.9l9.5-13.8
		v27.3h12.4l0.2-47.4h-12.6l-9.5,14.2l-9.7-14.2H89.7l0.2,47.4h12.4v-27.3L112.1,208.9L112.1,208.9z M247.1,203.4
		c1.2-2.7,3.9-5,7.5-5c1.9,0,3.9,0.8,5.4,1.9v-10.2c-1-1.3-2.7-1.7-4.3-1.7c-2.9,0-6.8,1.7-8.5,3.8v-3.3h-11.2v33.6h11.2V203.4
		L247.1,203.4z M151.9,220.3c3.9,1.7,8.7,2.3,11.8,2.3c12,0,15.5-6.3,15.5-11.5c0-6.1-6.2-9.4-11.8-10.2c-0.8,0-3.1-0.6-3.1-1.7
		c0-0.8,0.6-1.9,3.3-1.9c2.3,0,6.4,0.8,8.5,1.9l-0.4-8.8c-3.1-1-7.5-1.9-10.8-1.9c-6.8,0-12.8,4.2-12.8,10.8c0,5.2,3.7,7.9,9.7,9.2
		c2.5,0.2,4.8,1.3,4.8,2.5c0,1.7-1.7,2.1-3.3,2.1c-1.4,0-5.2,0.4-11.4-2.1L151.9,220.3L151.9,220.3z"/>
	<path class="st2" d="M194.3,212.2v-13.8h6.4v-9h-6.8v-14.4l-11.8,6.3v8.1h-4.1v9.6h4.1v15c0,7.5,9.7,12.5,18.6,6.3v-8.1
		C198.9,214.1,194.3,214.5,194.3,212.2L194.3,212.2z M149.8,222v-32.5h-12.4V222H149.8z M143.6,188.4c3.7,0,6.8-3.1,6.8-6.9
		c0-3.5-3.1-6.5-6.8-6.5c-3.5,0-6.4,2.9-6.4,6.5C137.2,185.3,140.1,188.4,143.6,188.4z M347.7,220.3c3.9,1.7,8.7,2.3,11.8,2.3
		c12,0,15.7-6.3,15.7-11.5c0-6.1-6.2-9.4-12-10.2c-0.8,0-3.1-0.6-3.1-1.7c0-0.8,0.6-1.9,3.5-1.9c2.3,0,6.2,0.8,8.5,1.9l-0.6-8.8
		c-3.1-1-7.5-1.9-10.8-1.9c-6.8,0-12.8,4.2-12.8,10.8c0,5.2,3.7,7.9,9.7,9.2c2.5,0.2,4.8,1.3,4.8,2.5c0,1.7-1.7,2.1-3.3,2.1
		c-1.4,0-5.2,0.4-11.4-2.1L347.7,220.3L347.7,220.3z M311.3,208.7c-3.9,2.9-7,3.5-12.2,3.5c-7.9,0-14.9-6.5-14.9-13.1
		c0-7.3,3.9-14.2,14.9-14.2c5,0,9.1,0.8,12.2,3.8v-11.3c-3.9-2.3-9.3-2.9-14.1-2.9c-14.3,0-25.3,10.2-25.3,24.2
		c0,13.8,12,24.2,26.1,24.2c4.8,0,9.3-1,13.3-3.3V208.7z M331.2,196.8c3.9,0.2,2.7,3.3-0.4,3.3c-6.2,0-16.1,2.1-17.4,10.6
		c-2.7,14.6,15.9,13.4,20.9,10.2l0.4,0.8h11.2v-22.5c0-10.6-17-12.7-29-8.8l-1.7,9C320.4,197,327.6,196.6,331.2,196.8L331.2,196.8z
		 M388.5,192v-16.9h-11.6v47.4h11.6v-18.6c0-6.3,9.5-6.5,9.5,0v18.6h11.8v-21.5C409.8,191.3,398.7,184.7,388.5,192L388.5,192z"/>
	<path class="st4" d="M211.7,200.7c0.6-3.1,3.1-4.2,5.4-4.2s5.2,1,5.2,4.2H211.7z M333.9,207.4v4c0,4.6-8.7,5.6-8.7,1
		C325.2,208.2,331.6,207.2,333.9,207.4L333.9,207.4z"/>
</g>
</svg>
