<?xml version="1.0" encoding="utf-8"?>
<!-- Generator: Adobe Illustrator 23.0.1, SVG Export Plug-In . SVG Version: 6.00 Build 0)  -->
<svg version="1.1" id="Layer_1" xmlns="http://www.w3.org/2000/svg" xmlns:xlink="http://www.w3.org/1999/xlink" x="0px" y="0px"
	 viewBox="0 0 500 250" style="enable-background:new 0 0 500 250;" xml:space="preserve">
<style type="text/css">
	.st0{fill:none;}
	.st1{fill-rule:evenodd;clip-rule:evenodd;fill:#FDB913;}
	.st2{fill-rule:evenodd;clip-rule:evenodd;}
</style>
<rect x="0.5" y="-0.3" class="st0" width="500" height="250"/>
<a>
</a>
<g>
	<path class="st1" d="M356.2,212.8c0,9.7-7.9,17.6-17.6,17.6H162.3c-9.7,0-17.6-7.9-17.6-17.6V36.6c0-9.7,7.9-17.6,17.6-17.6h176.3
		c9.7,0,17.6,7.9,17.6,17.6L356.2,212.8L356.2,212.8z"/>
	<path d="M176,137.7c-3-0.3-5,0.7-5,0.7v-27.3l10-2.4v4.3c0,0,2.7-6,9.9-7.7c7.9-1.9,10.4,2.7,10.4,9.3v27.2l-10.5,2.5v-25.7
		c0-4-1.9-4.8-4.1-4.3c-3,0.7-5.1,4-5.1,8.2v17.6C181.5,140.3,179.5,138.1,176,137.7"/>
	<path d="M262.7,127.4V89.5l9.9-2.4v5c0,0,2.6-6.5,8.5-8c1.8-0.5,2.7-0.2,2.7-0.2v9.6c0,0-2.2-0.1-5.2,1.1c-3.6,1.4-5.5,4.6-5.5,9.4
		V125L262.7,127.4z"/>
	<path d="M210.7,139.7c0,0-1.6-2.4-1.6-10.9v-18.9l-5.1,1.2v-7.7l5.1-1.2v-8.5l10.5-2.5v8.5l7.4-1.8v7.7l-7.4,1.7c0,0,0,15.4,0,19.2
		c0,8.8,2.3,10.4,2.3,10.4L210.7,139.7z"/>
	<path d="M228.1,117.2c0-6.7,1-11.6,3-15.4c2.5-4.5,6.5-7.4,12.3-8.7c11.5-2.6,15.7,4.2,15.5,13.4c0,3.3,0,4.9,0,4.9l-20.3,4.8v0.3
		c0,6.4,1.4,9.4,5.4,8.6c3.5-0.8,4.5-2.9,4.8-5.7c0-0.4,0.1-1.6,0.1-1.6l9.5-2.3c0,0,0,0.8,0,1.6c-0.1,3.6-1.1,12.6-14.4,15.8
		C231.4,135.9,228.1,128.2,228.1,117.2 M243.9,100.1c-3.4,0.8-5.2,4.1-5.2,9.6l10.2-2.5c0-0.3,0-0.8,0-1.6
		C248.9,101.4,247.6,99.2,243.9,100.1"/>
	<path d="M319.5,95c-0.4-11.5,2.6-20.7,15.4-23.6c8.2-1.9,11.3,0.3,12.9,2.3c1.5,1.9,2.1,4.6,2.1,8.3v0.7l-10.1,2.4c0,0,0-1.4,0-1.4
		c0-4.4-1.2-6.1-4.4-5.3c-3.8,1-5.3,4.6-5.3,11.8v3.4c0,7.3,1,10.7,5.4,9.7c3.8-0.8,4.3-4.1,4.4-7.1c0-0.5,0-1.9,0-1.9l10.1-2.4
		c0,0,0,0.8,0,1.6c0,9.6-5.1,15.6-14.5,17.8C322.4,114.4,319.9,106.8,319.5,95"/>
	<path d="M284.7,111.2c0-8.8,5.1-11.5,12.9-14.8c6.9-2.9,7.1-4.3,7.1-6.8c0-2.1-0.9-3.9-4.4-3c-3.2,0.8-4,3.1-4.2,4.9
		c-0.1,1,0,1.9,0,1.9l-9.8,2.3c0,0-0.1-3,0.7-5.8c1.6-5.2,6.2-8.8,14.2-10.6c10.4-2.4,13.8,2.2,13.9,9.2c0,0,0,9.6,0,16.8
		c0,8.1,1.5,9.3,1.5,9.3l-9.6,2.2c0,0-0.9-1.9-1.3-3.4c0,0-2.1,5.3-9.3,7C288.7,122.3,284.7,117.6,284.7,111.2 M304.6,99.2
		c0,0-2,1.5-5.1,3c-3.2,1.6-4.6,3.5-4.6,6.4c0,2.6,1.6,4.3,4.5,3.6c3.1-0.8,5.2-3.7,5.2-7.7C304.6,102.2,304.6,99.9,304.6,99.2"/>
	<path class="st2" d="M184.9,154.2l16.8,11.4c2.3,1.6,3.8,4.2,3.8,7.2c0,0.5,0,41.1,0,49.8c-4.1,0-13.9,0-19,0
		c-10.1,0-18.2-8.2-18.2-18.2v-56.8c0-3.6,2.5-6.5,6.6-6.6c3.8,0,6.5,3,6.5,6.6s0,32.6,0,32.6c0,1,0.6,1.8,1.8,1.8
		c1.2,0,1.8-0.8,1.8-2C184.9,178.8,184.9,154.2,184.9,154.2"/>
	<path d="M150.9,157.6c-0.6,0.9-0.9,2-0.9,3.1c0,3.2,2.6,5.8,5.8,5.8c0.4,0,0.8,0,1.2-0.1c0.8-0.1,4.5-1,7.9-1.8v-10.2L150.9,157.6z
		"/>
	<path d="M150.9,171.6c-0.6,0.9-0.9,2-0.9,3.2c0,3.2,2.6,5.8,5.8,5.8c0.4,0,0.8,0,1.2-0.1c0.8-0.2,4.5-1,7.9-1.9v-10.2L150.9,171.6z
		"/>
	<path d="M150.9,185.7c-0.6,0.9-0.9,2-0.9,3.1c0,3.2,2.6,5.8,5.8,5.8c0.4,0,0.8,0,1.2-0.1c0.8-0.2,4.5-1,7.9-1.8v-10.3L150.9,185.7z
		"/>
	<polygon points="153.7,153.1 153.7,92.4 164.8,89.7 164.8,150.5 	"/>
	<path d="M338.9,64.9c-6,0-10.8-4.9-10.8-10.8s4.9-10.8,10.8-10.8s10.8,4.9,10.8,10.8C349.7,60,344.9,64.9,338.9,64.9 M338.9,44.6
		c-5.2,0-9.5,4.2-9.5,9.5c0,5.2,4.2,9.5,9.5,9.5c5.2,0,9.5-4.2,9.5-9.5C348.4,48.8,344.1,44.6,338.9,44.6"/>
	<path d="M335,47.6h4.7c1.9,0,3.3,0.9,3.3,3.4c0,1.7-0.8,3-2.2,3.3l0,0c1.3,0.1,2,0.8,2.1,2.7c0,0.8,0,1.9,0.1,2.7
		c0,0.6,0.3,1,0.6,1.1h-2.4c-0.2-0.3-0.3-0.6-0.3-1.2c-0.1-0.8,0-1.5-0.1-2.5c0-1.4-0.5-2.1-1.9-2.1h-1.7v5.8H335L335,47.6L335,47.6
		z M338.8,53.5c1.4,0,2.1-0.8,2.1-2.2c0-1.4-0.6-2.2-2-2.2h-1.8v4.3L338.8,53.5L338.8,53.5z"/>
</g>
</svg>
