<?xml version="1.0" encoding="utf-8"?>
<!-- Generator: Adobe Illustrator 23.0.1, SVG Export Plug-In . SVG Version: 6.00 Build 0)  -->
<svg version="1.1" id="Layer_1" xmlns="http://www.w3.org/2000/svg" xmlns:xlink="http://www.w3.org/1999/xlink" x="0px" y="0px"
	 viewBox="0 0 500 250" style="enable-background:new 0 0 500 250;" xml:space="preserve">
<style type="text/css">
	.st0{fill:none;}
	.st1{fill:#5A78FF;}
	.st2{opacity:0.7;fill:url(#SVGID_1_);enable-background:new    ;}
	.st3{opacity:0.7;fill:url(#SVGID_2_);enable-background:new    ;}
	.st4{opacity:0.4;}
	.st5{opacity:0.9;fill:url(#SVGID_3_);enable-background:new    ;}
	.st6{opacity:0.7;fill:url(#SVGID_4_);enable-background:new    ;}
</style>
<rect x="-0.2" y="0" class="st0" width="500" height="250"/>
<g>
	<path class="st1" d="M68.2,202.3c-5.3,0-10.1-3.2-12.1-8.1L11,85.3C8.2,78.7,11.4,71,18,68.3l47.2-19.6c6.7-2.8,14.3,0.4,17.1,7.1
		c0,0,0,0,0,0l45.1,108.9c2.8,6.7-0.4,14.3-7.1,17.1l-47.2,19.6C71.6,201.9,69.9,202.3,68.2,202.3L68.2,202.3z M70.3,54.7
		c-0.8,0-1.6,0.2-2.3,0.5L20.7,74.8c-3.1,1.3-4.5,4.8-3.3,7.9c0,0,0,0,0,0l45.1,108.9c1.3,3.1,4.8,4.5,7.9,3.3l47.2-19.6
		c3.1-1.3,4.5-4.8,3.3-7.9c0,0,0,0,0,0L75.8,58.5C74.9,56.2,72.7,54.7,70.3,54.7L70.3,54.7z"/>
	
		<linearGradient id="SVGID_1_" gradientUnits="userSpaceOnUse" x1="-7.8241" y1="250.4975" x2="-7.8169" y2="250.6484" gradientTransform="matrix(32.9477 -13.6474 -90.5939 -218.713 23046.8848 54777.3633)">
		<stop  offset="0" style="stop-color:#504678"/>
		<stop  offset="0.302" style="stop-color:#504678;stop-opacity:0.616"/>
		<stop  offset="0.608" style="stop-color:#504678;stop-opacity:0.283"/>
		<stop  offset="0.852" style="stop-color:#504678;stop-opacity:7.600000e-02"/>
		<stop  offset="1" style="stop-color:#504678;stop-opacity:0"/>
	</linearGradient>
	<path class="st2" d="M78.8,65.6l6.5-2.7l17.9,43.1l-6.5,2.7L78.8,65.6z"/>
	
		<linearGradient id="SVGID_2_" gradientUnits="userSpaceOnUse" x1="8.8187" y1="247.7243" x2="8.8259" y2="247.8752" gradientTransform="matrix(-32.9477 13.6474 102.5489 247.575 -25007.3906 -61329.0469)">
		<stop  offset="0" style="stop-color:#504678"/>
		<stop  offset="0.302" style="stop-color:#504678;stop-opacity:0.616"/>
		<stop  offset="0.608" style="stop-color:#504678;stop-opacity:0.283"/>
		<stop  offset="0.852" style="stop-color:#504678;stop-opacity:7.600000e-02"/>
		<stop  offset="1" style="stop-color:#504678;stop-opacity:0"/>
	</linearGradient>
	<path class="st3" d="M124.4,157.4l-6.5,2.7l-20.2-48.8l6.5-2.7L124.4,157.4z"/>
	<path class="st1" d="M109.7,127.8c-13.5,5.6-24.8,13.3-32.2,22.6l-19-46c8.7-10.1,19.7-17.9,32.2-22.6c13.5-5.6,27.2-8.3,38.8-6.7
		l19,46C135.2,120,121.9,122.3,109.7,127.8z"/>
	<g class="st4">
		
			<linearGradient id="SVGID_3_" gradientUnits="userSpaceOnUse" x1="-0.4921" y1="250.0511" x2="-0.406" y2="250.1006" gradientTransform="matrix(456.4822 0 0 -384.5635 295.4435 96285.375)">
			<stop  offset="0" style="stop-color:#504678"/>
			<stop  offset="0.179" style="stop-color:#504678;stop-opacity:0.872"/>
			<stop  offset="0.526" style="stop-color:#504678;stop-opacity:0.536"/>
			<stop  offset="1" style="stop-color:#504678;stop-opacity:0"/>
		</linearGradient>
		<path class="st5" d="M109.7,127.8c-13.5,5.6-24.8,13.3-32.2,22.6l-19-46c8.7-10.1,19.7-17.9,32.2-22.6c13.5-5.6,27.2-8.3,38.8-6.7
			l19,46C135.2,120,121.9,122.3,109.7,127.8L109.7,127.8z"/>
		
			<linearGradient id="SVGID_4_" gradientUnits="userSpaceOnUse" x1="-0.4249" y1="250.1129" x2="-0.4298" y2="250.1456" gradientTransform="matrix(456.4822 0 0 -384.5635 295.4435 96285.375)">
			<stop  offset="0" style="stop-color:#504678"/>
			<stop  offset="0.643" style="stop-color:#504678;stop-opacity:0.332"/>
			<stop  offset="1" style="stop-color:#504678;stop-opacity:0"/>
		</linearGradient>
		<path class="st6" d="M109.7,127.8c-13.5,5.6-24.8,13.3-32.2,22.6l-19-46c8.7-10.1,19.7-17.9,32.2-22.6c13.5-5.6,27.2-8.3,38.8-6.7
			l19,46C135.2,120,121.9,122.3,109.7,127.8L109.7,127.8z"/>
	</g>
	<path class="st1" d="M115.9,141.8c-14.6,0-28,2.8-38.4,8.6v-46.5c11.9-6,25.1-9,38.4-8.6c14.6,0,28.3,2.7,38.4,8.6v46.5
		C142.4,144.4,129.3,141.4,115.9,141.8z M190.7,141.8l11.8-37.4c0.1-0.5,0.6-0.9,1.1-0.9h5.9c0.5,0.1,1,0.4,1.2,0.9l9.2,23.6
		c0.2,0.5,0.6,0.5,0.8,0l9.1-23.6c0.2-0.5,0.6-0.9,1.2-0.9h5.9c0.5,0,1,0.4,1.1,0.9l11.7,37.4c0.2,0.4,0,1-0.4,1.2
		c-0.1,0.1-0.3,0.1-0.4,0.1h-7.1c-0.5,0-0.9-0.3-1.1-0.8l-7.5-24.3c-0.1-0.5-0.6-0.5-0.8,0l-9,24.1c-0.2,0.6-0.7,1-1.3,1h-4.1
		c-0.6,0-1-0.4-1.2-1l-9.1-24.1c-0.2-0.5-0.6-0.5-0.8,0l-7.7,24.3c-0.1,0.5-0.6,0.8-1.1,0.8h-6.7c-0.5,0-0.9-0.4-0.9-0.9
		C190.6,142.1,190.6,141.9,190.7,141.8L190.7,141.8z M252,128.4c-0.2-8.7,6.7-15.8,15.4-16c8.7-0.2,15.8,6.7,16,15.4
		s-6.7,15.8-15.4,16c-0.1,0-0.2,0-0.3,0c-8.4,0.3-15.4-6.3-15.7-14.6C252,128.9,252,128.6,252,128.4z M275.3,128.4
		c-0.3-4.2-4-7.5-8.2-7.2s-7.5,4-7.2,8.2c0.3,4.1,3.7,7.2,7.8,7.2C272,136.4,275.4,132.7,275.3,128.4L275.3,128.4z M297.2,140.7
		c-0.6-0.5-1.1-0.3-1.1,0.5v0.8c0,0.6-0.5,1.1-1.1,1.1h-5.5c-0.6,0-1.1-0.5-1.1-1.1v-37.4c0-0.6,0.5-1.1,1.1-1.1h5.8
		c0.6,0,1.1,0.5,1.1,1.1v10.7c0,0.8,0.5,1,1.3,0.4c2.2-1.7,4.9-2.5,7.6-2.6c8,0,14.1,6.7,14.1,15.4c0.4,8.1-5.9,15-14,15.4
		c-0.1,0-0.2,0-0.3,0C302.2,143.8,299.3,142.7,297.2,140.7L297.2,140.7z M311.5,128.5c0.3-4.2-2.9-7.9-7.1-8.3
		c-4.2-0.3-7.9,2.9-8.3,7.1c0,0.4,0,0.8,0,1.2c-0.2,4.3,3.2,7.9,7.5,8.1c0,0,0.1,0,0.1,0C308.1,136.4,311.6,132.8,311.5,128.5
		C311.5,128.4,311.5,128.4,311.5,128.5L311.5,128.5z M324.3,106.2c0-2.5,2-4.5,4.5-4.5c2.5,0,4.5,2,4.5,4.5c0,2.5-2,4.5-4.5,4.5
		C326.3,110.7,324.3,108.7,324.3,106.2z M324.7,142.1v-27.1c0-0.6,0.5-1.1,1.1-1.1h5.8c0.6,0,1.2,0.5,1.2,1.1c0,0,0,0,0,0v27
		c0,0.6-0.5,1.1-1.1,1.1h-5.8C325.1,143,324.7,142.6,324.7,142.1L324.7,142.1z M339.1,133.2v-28.6c0-0.6,0.5-1.1,1.1-1.1h5.8
		c0.6,0,1.1,0.5,1.1,1.1v28.8c0,1.9,0.8,3.1,2.8,3.1c0.6,0,1.1,0.5,1.1,1.1c0,0,0,0,0,0v4.8c0,0.6-0.5,1.1-1.1,1.1
		C342.2,143.4,339.1,140.9,339.1,133.2L339.1,133.2z M353.1,128.6c0-8.4,6.8-15.1,15.2-15.1c8.4,0,15.1,6.8,15.1,15.2
		c0,1.1-0.3,1.9-1.3,1.9h-20c-0.5,0-0.7,0.3-0.6,0.8c0.5,3.5,3.6,6,7.2,5.8c2.1,0,4.2-0.9,5.5-2.5c0.4-0.6,1.1-1,1.9-0.9h5.4
		c0.9,0,1.3,0.6,1,1.6c-3.7,7.6-12.9,10.8-20.5,7C356.5,139.7,353.1,134.4,353.1,128.6L353.1,128.6z M374.3,125.9
		c0.4,0,0.6-0.2,0.5-0.6c-0.6-3.2-3.4-5.5-6.7-5.5c-3.2,0-6,2.2-6.7,5.3c-0.1,0.4,0,0.8,0.5,0.8H374.3z M388.2,142v-37.4
		c0-0.6,0.5-1.1,1.1-1.1h18.4c8.4,0,14.1,4.9,14.1,13.1s-6.5,13.3-14.5,13.3h-9.7c-0.5-0.1-1,0.3-1.1,0.9c0,0.1,0,0.2,0,0.2v11
		c0,0.6-0.5,1.1-1.1,1.1h-6.1C388.7,143,388.2,142.6,388.2,142L388.2,142z M407.2,123.1c3.5-0.1,6.2-3,6.1-6.5
		c0.1-3.3-2.5-6.1-5.8-6.2c-0.1,0-0.2,0-0.3,0h-9.8c-0.7,0-1,0.4-1,1.1v10.6c0,0.7,0.3,1.1,1,1.1L407.2,123.1z M424.5,128.4
		c-0.3-8.2,6.1-15.1,14.2-15.4c0.1,0,0.1,0,0.2,0c2.9,0,5.6,1.1,7.8,3c0.5,0.5,1.1,0.4,1.1-0.3v-0.8c0-0.6,0.5-1.1,1.1-1.1h5.5
		c0.6,0,1.1,0.5,1.1,1.1v19.2c0,1.5,0.5,2.1,1.5,2.2c0.5,0,1,0.4,1,0.9v5.1c0,0.5-0.4,1-1,1l0,0c-3.9,0-6.1-1.1-7.4-3.3
		c-0.4-0.6-0.8-0.7-1.3-0.1c-2.5,2.5-5.9,3.9-9.4,3.9c-8.2-0.2-14.6-7-14.3-15.2C424.5,128.6,424.5,128.5,424.5,128.4z M447.8,128.4
		c0.3-4.2-2.8-7.9-7.1-8.3c-4.2-0.3-7.9,2.8-8.3,7.1c0,0.4,0,0.8,0,1.2c-0.3,4.2,2.8,7.9,7.1,8.3c4.2,0.3,7.9-2.8,8.3-7.1
		C447.9,129.2,447.9,128.8,447.8,128.4z M460.7,153.3v-4.8c0-0.6,0.5-1.1,1.1-1.1c3.7,0.3,7.2-2,8.4-5.6c0.2-0.7,0.1-1.5-0.2-2.2
		l-10.7-24.2c-0.3-0.5-0.1-1.1,0.4-1.4c0.2-0.1,0.4-0.1,0.5-0.1h5.8c0.6,0,0.9,0.5,1.2,1.1l6.7,15.5c0.5,1.2,1.2,1.2,1.7,0l6.4-15.6
		c0.2-0.6,0.5-0.9,1.1-0.9h5.5c0.6,0,1,0.4,1.1,1c0,0.1,0,0.3-0.1,0.4l-11,26.1c-4,9.5-8.3,13-16.8,13
		C461.2,154.4,460.7,153.9,460.7,153.3L460.7,153.3z"/>
</g>
</svg>
