<?xml version="1.0" encoding="utf-8"?>
<!-- Generator: Adobe Illustrator 23.0.1, SVG Export Plug-In . SVG Version: 6.00 Build 0)  -->
<svg version="1.1" id="Layer_1" xmlns="http://www.w3.org/2000/svg" xmlns:xlink="http://www.w3.org/1999/xlink" x="0px" y="0px"
	 viewBox="0 0 500 250" style="enable-background:new 0 0 500 250;" xml:space="preserve">
<style type="text/css">
	.st0{fill:none;}
	.st1{fill:#D13239;}
	.st2{fill:#B3B2B1;}
</style>
<rect x="0.2" y="0" class="st0" width="500" height="250"/>
<g>
	<polygon class="st1" points="110.8,137.4 150.4,137.3 149,146.3 115.8,177.9 143.6,177.9 142,187.6 101.1,187.6 102.8,177.6 
		134.5,147.1 109.2,147.1 	"/>
	<path class="st1" d="M67.5,121.9c-0.9-0.9-2.1-1.6-3.4-2.2c-1.4-0.6-3-1-4.6-1.3c-2-0.3-3.9-0.5-5.3-0.6c-1.3-0.1-2.1-0.1-2.1-0.1
		H34.7H21.9l-11.5,69.7h10.8l4.2-25.8l20.9,0.1c0,0,8.2,0.3,13.9-2.7c5.8-3,7.4-10,7.4-10s0.6-2.6,1.2-5.8c0.6-3.4,1.2-7.6,1.4-9.8
		c0.2-1,0.2-1.6,0.2-1.6s0.2-0.7,0.2-1.8c0-1.5-0.2-3.8-1.4-6.1C68.6,123.3,68.2,122.6,67.5,121.9z M59.2,134.2
		c0,0.2-1,5.8-2.2,12.4c-0.5,2.6-2.4,3.9-4.6,4.4c-3.7,0.8-7.7,0.6-7.7,0.6l-17.5-0.1l3.8-23.2l15.8,0.1c0,0,1,0,2.6,0
		c1.7,0,3.9,0.1,5.8,0.3c1.6,0.2,2.9,0.6,3.3,1c0.6,0.6,0.7,1.5,0.8,2.3C59.4,133.2,59.2,134.2,59.2,134.2z"/>
	<polygon class="st1" points="204.1,117.9 214.5,117.9 202.9,187.6 192.5,187.6 	"/>
	<polygon class="st1" points="259.5,137.4 269.5,137.3 273,172.7 288.3,137.3 300.6,137.3 304.2,172.9 319.5,137.3 329.9,137.3 
		307.9,187.6 295.6,187.6 292.1,152.4 276.6,187.6 264.6,187.6 	"/>
	<g>
		<path class="st1" d="M185,137.8c-2.9-1-7.9-1.1-12.2-1.1c-4.2,0.1-6,0.2-7.6,0.6c0,0-7.4,1-11.5,6.2c-4.2,5.2-5.4,16.5-5.4,16.5
			s-2.5,12.5-1.8,16.6c0.7,4.2,2,8,6.7,9.8c4.7,1.8,8.7,1.8,8.7,1.8s8.4,0.6,14.7-0.8s9.7-5.9,9.7-5.9s1.5-1.9,2.6-4.2
			c1-2.3,1.4-3.8,1.4-4.1l0.6-2.7h-10.8c0,0-0.6,7.1-6.4,7.8c-5.8,0.6-8.9,0.4-10.1,0.3c-1.1-0.1-7.4,0.2-6.9-5c0-0.1,0-0.2,0-0.3
			c0.2-5.9,1-7.4,1-7.4l33.8-0.1l1.4-8.4C194.8,147.8,193.6,140.6,185,137.8z M182.7,156.1h-23.2l0.9-3.7c0,0,0.8-2.9,2.4-4.1
			c1.6-1.2,3.7-1.4,5.6-1.6c1.9-0.2,7-0.6,11.3,0.3c1.4,0.2,2.7,1,3,2.2C183.5,151.9,182.7,156.1,182.7,156.1z"/>
		<path class="st1" d="M157,173.3c0,0.1,0,0.2,0,0.2C156.9,173.9,157,173.3,157,173.3z"/>
	</g>
	<g>
		<path class="st1" d="M248.7,137.8c-2.9-1-7.9-1.1-12.2-1.1c-4.2,0.1-6,0.2-7.6,0.6c0,0-7.4,1-11.5,6.2c-4.2,5.2-5.4,16.5-5.4,16.5
			s-2.5,12.5-1.8,16.6c0.7,4.2,2,8,6.7,9.8c4.7,1.8,8.7,1.8,8.7,1.8s8.4,0.6,14.7-0.8c6.3-1.5,9.7-5.9,9.7-5.9s1.5-1.9,2.6-4.2
			c1-2.3,1.4-3.8,1.4-4.1l0.6-2.7h-10.8c0,0-0.6,7.1-6.4,7.8c-5.8,0.6-8.9,0.4-10.1,0.4c-1.1-0.1-7.4,0.2-6.9-5c0-0.1,0-0.2,0-0.3
			c0.2-5.9,1-7.4,1-7.4l33.8-0.1l1.4-8.4C258.5,147.8,257.4,140.6,248.7,137.8z M246.4,156.1h-23.2l0.9-3.7c0,0,0.8-2.9,2.4-4.1
			c1.6-1.2,3.7-1.4,5.6-1.6c1.9-0.2,7-0.6,11.3,0.3c1.4,0.2,2.7,1,3,2.2C247.3,151.9,246.4,156.1,246.4,156.1z"/>
	</g>
	<path class="st1" d="M341.8,137.4l6.6,36.8l18.8-36.8l10.6,0.1L350.7,190c0,0-4.9,9.5-7.9,11.9c-3,2.4-4.9,3.5-7.4,3.8
		c-2.5,0.2-3.5,0.4-5.8,0l-2.6-0.5l1.6-9.4c0,0,4.2,0.8,6.7-0.2c2.5-1,4.5-5.3,4.5-5.3l1.3-2.2l-9.8-50.9L341.8,137.4L341.8,137.4z"
		/>
	<path class="st2" d="M381.7,142.3h10.9l0.6-4.2c0,0,1.2-7.7,3.8-9.1c0.8-0.5,2.2-0.9,3.8-1.2c2.9-0.5,6.5-0.6,9.4-0.5
		c4.6,0.2,6.2,0.2,10.9,0.7c4.6,0.6,3.4,5,3.4,5l-0.9,6.6c0,0-0.4,3-1.4,4.8c-1,1.7-3.5,2.8-5,3.3c-3.6,1.2-15.9,4.3-15.9,4.3
		l-9.7,2.8c0,0-5.9,1.8-9.3,5.4c-3.4,3.7-4.6,7.8-5.1,10.1c-0.5,2.2-3,17.3-3,17.3h52.2l1.8-10.4l-41.3,0.1l0.7-4.2
		c0,0,0.5-4.4,2.2-5.8c0.6-0.5,0.8-1,4.2-2.2c2-0.7,8.7-2.5,8.7-2.5l15.6-4.2c0,0,8.5-2.2,11.8-6.9c3.4-4.6,4.6-13.5,4.6-13.5
		s0.9-8.6,0.2-11.4c-0.7-2.7-3.3-5.9-6.3-7.4c-3.1-1.4-6.3-2.2-15.8-2.1c-9.4,0.2-14.1,0.6-18.8,2.3c-4.8,1.8-7.5,5-9.3,9.4
		C382.8,133.1,381.7,142.3,381.7,142.3L381.7,142.3z"/>
	<path class="st2" d="M479.9,161.8l7.4-43.8h-13L434,161.3l-1.8,11h35.3l-2.6,15.4h10.9l2.6-15.4h10l1.8-10.5L479.9,161.8z
		 M469.2,161.8h-22.8l27.7-29.6L469.2,161.8z"/>
	<path class="st2" d="M90.4,123.6h33.3c0,0,7.4-6,12.7-9.9c5.3-3.8,15-10,15-10l-18.8-8.8c0,0-15.9,9.8-22.6,14.5
		C103.3,113.7,90.4,123.6,90.4,123.6L90.4,123.6z"/>
	<path class="st2" d="M161.8,97.5l-15.4-10.4c0,0,13.9-7.9,32.5-15.4c18.6-7.4,28.5-10.5,28.5-10.5l3.1,14.7c0,0-17.8,6-28.1,10.8
		C171.9,91.4,161.8,97.5,161.8,97.5L161.8,97.5z"/>
	<path class="st2" d="M221.9,72.8l-2.7-15c0,0,19-5,36.5-8.3c17.4-3.3,40.5-4.8,40.5-4.8L288.5,68c0,0-20.3-2.8-39.4-0.2
		C234.3,69.6,221.9,72.8,221.9,72.8L221.9,72.8z"/>
	<path class="st2" d="M300.7,70l12.9-25.8c0,0,28.1-0.6,52.5,3.2c24.3,3.8,46.5,9.5,46.1,9.8l-61.6,32.2c0,0-14.4-9.1-32.3-14.7
		C308,71.6,300.7,70,300.7,70L300.7,70z"/>
	<path class="st2" d="M361.5,96.3l13.5,10.3h111.3c0,0-0.2-3.6-3.2-8.7c-1.8-3.2-5.2-6.6-8.7-10.1c-1.3-1.3-6.4-5.3-10.2-7.8
		c-9.8-6.4-15.4-8.9-25.5-13.4L361.5,96.3L361.5,96.3z"/>
	<path class="st1" d="M97.6,137.3c-4.2,0-8.2,1.7-11.5,3.5l0.6-3.5h-11l-8.9,50.1h11.1l4.9-27.7c1-5.6,5.2-12.6,13.4-12.6h5.8
		l1.8-9.8L97.6,137.3L97.6,137.3z"/>
</g>
</svg>
