<?xml version="1.0" encoding="utf-8"?>
<!-- Generator: Adobe Illustrator 23.0.1, SVG Export Plug-In . SVG Version: 6.00 Build 0)  -->
<svg version="1.1" id="Layer_1" xmlns="http://www.w3.org/2000/svg" xmlns:xlink="http://www.w3.org/1999/xlink" x="0px" y="0px"
	 viewBox="0 0 500 250" style="enable-background:new 0 0 500 250;" xml:space="preserve">
<style type="text/css">
	.st0{fill:none;}
	.st1{fill:#0EE06E;}
</style>
<rect x="-0.3" y="0" class="st0" width="500" height="250"/>
<g>
	<g id="Layer_2-2">
		<path class="st1" d="M169.7,154.6V89.8h-23.4V74.4h63.4v15.4h-23.2v64.8H169.7z"/>
		<path class="st1" d="M207.1,154.6V96.3h15.4v9.2c3.6-7.8,8.4-9.2,13.4-9.2h5.9v15.6h-5.1c-7.3,0-13.8,4.2-13.8,16.9v25.8H207.1z"
			/>
		<path class="st1" d="M249.1,133.4v-37H265v33.3c0,6.8,3.3,11.9,10.1,11.9c6.8,0,10.8-5.1,10.8-11.8V96.4h16v58.3h-15.2v-7.3
			c-3.7,5.7-10.1,9-16.8,8.7C257.1,156,249.1,147.2,249.1,133.4z"/>
		<path class="st1" d="M308.7,138.3l13.9-3.2c0.7,4.5,4.3,7.9,11.2,7.9c5.5,0,8.4-2.2,8.4-5c0-2.2-1.2-3.8-6.7-5.1l-9.1-2
			c-11.7-2.5-16.6-7.9-16.6-17.7s8.3-18,23.7-18c16.5,0,23.1,9.9,23.7,16.4l-13.9,3.1c-0.7-3.4-3.2-7.1-10.1-7.1
			c-4.4,0-7.7,2-7.7,4.8c0,2.4,1.6,3.7,4.5,4.4l13.3,3.1c10.1,2.3,14.8,8.4,14.8,16.9c0,9.2-7.3,18.9-24.2,18.9
			C315.4,155.8,309.4,144.7,308.7,138.3z"/>
		<path class="st1" d="M388.8,154.6c-10.3,0-17.3-5.7-17.3-17.1v-27.4h-9.8V96.4h9.8V83.5l16-4.6v17.6h11.8v14h-11.8v24.4
			c0,4.3,2.2,5.9,6.5,5.9h6.2v13.8H388.8z"/>
		<path class="st1" d="M408.9,154.6V74.4h16v80.2H408.9z"/>
		<path class="st1" d="M472.8,96.4h17l-24.3,79.2h-17.1l6.7-21h-8.8l-16.1-58.4h17.1l12,45.1L472.8,96.4z"/>
		<polygon class="st1" points="9.5,109.6 46.9,109.6 46.9,79.7 76.8,109.6 46.9,139.4 46.9,154.7 83.2,154.7 83.2,109.6 
			116.5,109.6 116.5,74.4 9.5,74.4 		"/>
	</g>
</g>
</svg>
