<?xml version="1.0" encoding="utf-8"?>
<!-- Generator: Adobe Illustrator 23.0.1, SVG Export Plug-In . SVG Version: 6.00 Build 0)  -->
<svg version="1.1" id="Layer_1" xmlns="http://www.w3.org/2000/svg" xmlns:xlink="http://www.w3.org/1999/xlink" x="0px" y="0px"
	 viewBox="0 0 500 250" style="enable-background:new 0 0 500 250;" xml:space="preserve">
<style type="text/css">
	.st0{fill:none;}
	.st1{fill:#010101;}
	.st2{fill:url(#XMLID_2_);}
	.st3{fill:#99E3FB;}
</style>
<rect class="st0" width="500" height="250"/>
<g id="lobanet">
	<path id="XMLID_789_" class="st1" d="M455.1,93.8l-0.1,22h10v12.3c-2.9-0.1-9.8,0-9.8,0l-0.1,47.2h-14.6l0-47.2h-8v-12.3h8l0.2-22
		L455.1,93.8z M48.9,94.8L48.5,160c0,0,22.7-0.3,22.7,0l0,15.3l-37.9-0.1c0.2-26.8,0.1-53.6,0.1-80.4H48.9z M349.9,114.1
		c5.3,0,9.8,2.2,13.7,5.3c3.4,2.9,5.8,7,5.9,10.8c0.5,6.1-0.1,12.2,0.1,18.4c0.3,8.9,0,17.9,0.1,26.8c-5.1-0.2-10.1,0.1-15.2,0
		c0-11.1,0.1-22.4,0-33.6c0-11.9-4.9-14-11-14c-5.7,0-11.5,2-11.5,16c-0.2,10.3-0.3,21.3,0,31.6l-15.5,0c0,0,0-58.9,0-59.3
		c0,0.5,15.5,0,15.5,0v5.2c0,0,0.3-0.7,1.2-1.3C337.5,116.2,344,114.3,349.9,114.1z M430.1,127.5c-2-4-5.4-6.2-8.9-8.7
		c-6.8-4.5-16-5.5-23.9-4.2c-14.1,2.2-24.8,16-24.8,30.1c-0.4,7.6,2.2,15.5,7.2,21.3c1.5,1.6,3,3.2,4.8,4.5c6.4,5.5,15.4,7,23.5,6.4
		c8.1-0.6,19.7-8.9,23-12.6l-11.2-6.8c0,0-3.6,2.1-5.3,3.4c-6.6,5-17.8,4.1-23.3-2.3c-2.1-2.6-4-6.1-4.1-9.5h48.3
		C435.8,141.6,434.3,133.8,430.1,127.5z M388.2,138.2c0.9-5.7,7.8-11.3,16.1-11.3c11.8,0,15.6,11.3,15.6,11.3H388.2z M202.2,176.8
		v-7.7c3.2,2.7,6.1,5.3,10.2,6.5c4.1,1.1,8.8,1.8,12.9,0.7c10.4-2.3,18.9-10.7,21.8-20.9c1.7-7,1.7-11.1-0.2-21.4
		c-2.4-7-7.3-13.4-13.8-16.9c-8.2-4.4-18.5-4.1-26.4,0.8c-1.8,1.4-2.4,2.1-4.5,3.6V92.8h-15.4c0,0,0.2,62.4,0,84H202.2z M222,162.4
		c-4.4,0.8-10,0.8-13.6-2.2c-6.7-4.4-8.6-13.4-6.5-20.9c1.5-5,5.6-9.5,10.8-10.8c7.9-2.8,16.9,1.9,19.6,9.7
		C235.9,147.4,231.8,159.3,222,162.4z M310.5,115.9L310.5,115.9c-4.5-0.1-10.2,0-14.8-0.1c0.1,2.1,0.2,4.2,0.1,6.4
		c-0.7-0.6-1.5-1.2-2.2-1.9c-2.1-1.7-4.2-3.3-6.7-4.4c-6.1-2.3-12.8-2.5-19-0.2c-6.8,2.5-12.4,8-15.6,14.4
		c-2.4,5.4-3.4,7.8-3.4,16.6c0,4.5,1.7,10.1,3.1,13c3.2,6.6,8.8,12,15.4,15.1c6.8,2.6,14.3,2.9,20.9-0.6c5.6-2.7,2.4-1.1,7.8-5.1
		c0.1,1.8,0.3,6.2,0.3,6.2c4-0.2,10.1-0.2,14.2-0.2C310.8,174.5,310.6,131.6,310.5,115.9z M294.2,154.9c-2.1,3.3-5.3,6.2-9,7.3
		c-4,0.8-9,0.9-12.5-1.3c-3.6-1.9-6.1-5.2-7.4-9.1c-1.6-4.7-1.5-9.9,0.4-14.6c2.3-4.9,6.3-8,11.5-9.2c2.5-0.4,4.9-0.4,7.4,0.4
		c6.3,1.4,10.8,7,11.7,13.3C296.6,146.3,296.5,150.9,294.2,154.9z"/>
	
		<linearGradient id="XMLID_2_" gradientUnits="userSpaceOnUse" x1="123.5344" y1="145.7362" x2="138.2676" y2="76.8305" gradientTransform="matrix(1 0 0 -1 0 252)">
		<stop  offset="0" style="stop-color:#25C3FB"/>
		<stop  offset="1" style="stop-color:#2794D4"/>
	</linearGradient>
	<circle id="XMLID_733_" class="st2" cx="128.9" cy="131.3" r="52.4"/>
	<path id="XMLID_750_" class="st3" d="M113.4,125.8c-0.1,0-0.2,0-0.2,0.1C113.3,125.8,113.3,125.8,113.4,125.8z M131.6,155.4
		c1.6,0.8,0.8,2.2,1.3,2.9c1,1.5,3.3,2.4,4.9,2.8c1.3,0.3,0.3-2.1,0.7-2.5c0.3-1.6-1.3-0.8-1.5-1.9c0,0.3-0.1-2.6-0.5-3.1
		c0.3,0,0.6-0.1,0.8,0c0.4-0.9-0.9-1.4,0.3-1.8c0.7-0.2,1.2-0.7,1.5-1.4c0.1-0.9-0.9-1-1.5-1.3c0.8,0.1,2.7-2.5,2.7-2.9
		c0.3-1.1,0.9-3.1,0.1-4.1c-0.6-0.9,1.2-2.7,2.1-2.9c1.8-0.3,1.1-3.8,0.9-4.9c-0.8-3.9,2.6-7.7-3.3-8.1c-0.9,0-3.1,1.2-3.3,0.4
		c-0.2-1-1.5-0.4-2.3,0.1c-0.2-0.2-1.6,0-2.3,0.3c0.1-0.9,0.2-2.6-1-3.3c-1.3-0.8-2.1,0.1-3.4-0.1c-1.2-0.2-2.1-1-3.2-1.3
		c-1.1-0.3-4.1-0.2-5.2,0c-1.6,0.3,0,1.8-0.8,2.1c-0.7,0.3-0.4-2.2-0.7-2.1c-0.6,0.3-1.8,1.7-1.9,2.4c-0.3,1.7-1,0.6-2,0.9
		c-0.3,0.1-0.5,0.1-0.7,0.2c0.6,0.1,1.8,1.3,1.9,1.5c0.6,1-1.2,6-0.1,5.9c-1.3,0.1,1.5,2.9,1.7,3.1c1.3,1.2,2.6,3.1,4.2,3.9
		c2.2,1,4.4,0.7,5.1,3.4c0.7,2.5,1.8,4.7,2.8,7.1C129.8,152.2,129.9,154.5,131.6,155.4z M129.6,80.3c-0.4,0.6-0.8,1.3-1.2,1.9
		c-0.3,1.2,1,2.7,2,2.9c1.4,0.3,1.8-0.4,2.2-1.7c0.6-1.8,1.7-2.2,3.2-3.2c0.1-0.1,0.5-0.4,1-0.7c-2.6-0.4-5.2-0.6-7.8-0.6
		c-0.1,0-0.3,0-0.4,0C128.5,79.3,129.8,79.3,129.6,80.3z M87.7,106.1c0.1,0,0.1,0,0.1,0C87.8,106.1,87.8,106.1,87.7,106.1
		C87.8,106.1,87.8,106.1,87.7,106.1z M87.8,106.1C87.8,106.1,87.8,106.1,87.8,106.1c0.4,0.3,0.8,0.3,1.1,0.1
		c-0.1-0.4-1.1-1.1-1.6-0.7C87.1,105.8,87.2,106,87.8,106.1C87.6,106,87.4,105.9,87.8,106.1z M165,93.2c-0.7,0.1-1.3,0.1-1.7-0.5
		c-0.1-0.2-0.1-1-0.4-1.4c-0.1-0.1-0.2-0.1-0.2-0.2c-0.1,0-0.1,0-0.2,0c-2.7,0.1-4.9,3.4-7.2,3.7c-3.2,0.5-2.1,3.1-3.5,5.3
		c-0.8,1.1-3.2,5-1.8,6.4c0.3,0.3,0.9,4.8,1.3,4.7c-0.1,0,2.9,2.4,3.5,2.8c2.3,1.5,4.4,0.7,6.7-0.4c1-0.5,1.9-1.7,3-2
		c1.2-0.4,1.6,1,2.5,0.6c1.8-0.8,2.5,1,2.5,2.4c0,1.8,1.9,1.8,2.7,3c1.6,2.4,2.1,2.9,1.9,5.7c-0.1,2.4,3,5.9,4.4,7.7
		c0.5,0.7,2,2.5,2.9,3.3c0.1-1,0.1-1.9,0.1-2.9C181.3,116.3,175,102.8,165,93.2z M168,112.8C168,112.8,168,112.8,168,112.8
		C168,112.8,168,112.8,168,112.8z M113.2,125.9c-0.1,0.1-0.1,0.3,0,0.6c0.3,1-3.2-0.2-3.5-0.3c-1.8-0.6-1.4-1.2-3.4-1.4
		c-1.6-0.1-2.2-1.4-3.7-0.3c-0.7,0.6-3.6-0.2-4.3-0.4c-1.9-0.4-3.4-3.5-5.1-4.8c-5.9-4.9,0.8,2.8,0.6,2.9c-1,0.2-2.5-2.4-2.8-2.9
		c-1.1-1.8-2.6-2.7-3.7-4.4c-1-1.5-0.7-2.8-0.2-4.5c0.6-1.8,1.1-2.7,1.9-3.3c2-1.6-1.8-2.1-1.4-2.9c0.7-1.5-0.3-2.7-1.5-3.4
		c2.7-3.7,5.8-7.1,9.4-10c2.5-0.9,5-1.6,5.3-0.9c-0.2,0.2-0.2,0.4-0.1,0.6c1.2,0,1.8-1.1,2.7,0c0.9-2.5,3.4-1.5,5.3-2.1
		c1.1-0.3,1.6-3.9,2.6-3.3c0.3,0.1,1.2,1.9,1.4,1.9c0,0,2.9-2.7,3-1.8c0,2.5-3.8,1.9-4.4,3.2c-0.1,0.2,0.6,0.5,0.7,0.5
		c-0.6,0.4-6.6,5-5,5.4c1.2,0.3,2.1,0.7,3.5,0.8c1.3,0.1,1.4,2.5,2.1,2.2c2.8-0.9,1.4-8.1,4.5-8.6c2.7-0.4,2.6,3.7,4.6-0.2
		c0.3,0.6,1.4,3.5,1.5,3.5c0.5-0.2,1.1-0.4,1.7-0.5c1.2,0.5-1.3,2.2-1.6,2.5c-0.8,0.5-6.2,2.1-5.8,3.5c0.2,0.5,2.2-1.6,2.8-1.4
		c0.3,0.1-0.6,3.1,2.1,1.4c-0.4,0.6-2.2,2.5-2.9,2.3c-0.6-0.1,1.1-1.1,0.9-1.4c-0.5-0.7-7.5,6.5-7,7.2c0.9,1-1.9,3.9-2.6,5
		c-0.5,0.8,0.6,4.6,0.1,4.6c-2.1-0.1-0.6-3-4.2-2.3c-0.7,0.2-0.7,0.9-1.1,1.3c-0.8,0.7-1.8-0.3-2.8,0.6c-1.3,1.4-2.5,3.4-1.8,5.5
		c0.7,2,4.7,3.4,4.7,0.2c0-1.1,2-2,1.8-0.1c-0.7,5.2,2.6-0.3,3.1,3.6C111.1,126.3,111.9,126.2,113.2,125.9z M111.2,103.3
		c-0.5-0.3-1.3,0.7-1.4,1c0.5,0.3,0.8,0.2,1.1-0.4c0,0,0,0,0-0.1c0.2-0.2,0.2-0.1,0.1-0.1C111.4,103.6,111.4,103.4,111.2,103.3z
		 M112.1,102.4c0.4,0.1,0.7,0,1-0.3c0,0,0,0,0.1-0.1C113.9,101.3,111.9,101.8,112.1,102.4z M105.4,102.2c0.5-0.2,3.1-1.2,3.6-0.8
		c-0.3-0.2-3.1,3-1.9,3.7c0.7,0.4,0.9-1,1-1.2c0,0.3,1.3-2.9,1.6-1.9c0.1,0.3-0.3,0.7-0.3,1c1.1,0.1,1.1-0.8,1.8-0.8
		c2-0.1-1.3-0.8-1.5-0.8c-0.3-0.3-0.5-0.7-0.8-1c-0.9-0.6-1.9,0.7-2.7,0.8C106,101.1,105.5,101.9,105.4,102.2z M158.6,88.1
		c-1.5-1-3-2-4.6-2.8c-0.8,0.8-1.6,1.5-1.6,1.3c0.1,0.1,4.4,1.7,1.6,2.9c-1.7,0.6-3.5,0-3.1,2.1c0.5,2.7,3.3,4.5,5,1
		c0.4-0.8,0.1-2.7,1.4-3.2C157.1,89.4,157.9,88.7,158.6,88.1z M168,112.8C168,112.6,168,112.7,168,112.8L168,112.8z M168,112.9
		C168,112.8,168,112.8,168,112.9C168,112.8,168,112.8,168,112.9C168,112.8,168,112.8,168,112.9C168,112.9,168,112.9,168,112.9
		C168.1,112.9,168.1,112.9,168,112.9z M109.7,101.3C109.7,101.3,109.7,101.3,109.7,101.3C109.6,101.2,109.6,101.3,109.7,101.3z
		 M113.2,102.1c0,0,0.1-0.1,0.1-0.1C113.5,101.8,113.2,102.1,113.2,102.1z M118.7,117.4c-0.5-0.4-2.1-0.1-2.6,0.3
		c-0.1,0-0.7,0.7-1,1.1c0,0,1.6-0.3,1.7-0.3C117,118.4,118.8,117.6,118.7,117.4z M98.5,88.8c0.4,0.2,1.3-0.4,2.3-1.1
		c0,0,0,0.1,0,0.1c0.2,0,0.5,0,0.7,0.1c-0.1,0.2-0.3,0.3-0.5,0.4c0.2,0,1.5-0.4,1.5-0.2c0.1,0.2-1.7,0.8-1.9,0.9
		c0.6,0.1,1.4,0.2,2,0.1c0.4-0.1,0.2,0,0.1,0c1.3-0.3,3.9-1.5,4.9-2.4c-0.4-0.1-0.7-0.2-1.1-0.2c0-0.3,0.3-0.9,0.2-1.2
		c0.2,0.7-3.2,0.9-5,1.6c0.5-0.4,0.9-0.7,1.2-0.8c-0.3,0-0.8,0.1-1.5,0.4c-1.1,0.7-2.1,1.3-3.1,2.1C98.4,88.7,98.4,88.8,98.5,88.8z
		 M152.7,84.5c-0.2,0.3-0.4,0.6-0.7,0.7c0,0,0.6-0.2,1.2-0.5C153,84.7,152.8,84.6,152.7,84.5z M110.5,83.7c-1,0.3-1.4,1.1-2.4,1.3
		c0.2,0.1,0.9,0.2,1,0.3C109.3,86.2,110.9,83.5,110.5,83.7z M114,88.6C114,88.6,114,88.6,114,88.6C114.1,88.6,114.3,88.6,114,88.6z
		 M111.2,84.2c0.3,0.2,1.7-0.8,1.8-1C113.3,82.8,110.5,83.6,111.2,84.2z M108.9,118.2c-0.2-0.6,4.6-0.5,5.2-0.2
		c0.4-0.1,0.8-0.2,1.1-0.5C115.2,116.7,108.4,116.7,108.9,118.2z M113.6,87.9c-0.4,0-1.6,1.1-1.2,1.2c0.5-0.2,1-0.4,1.5-0.5
		c-0.1,0-0.1,0,0,0C114.9,88.8,114.3,87.9,113.6,87.9z M139.9,161.9c0.8-0.1,1.6-0.4,2.4-0.7c-0.9-0.1-1.9-0.3-2.8-0.5
		C138.5,160.5,138.8,161.8,139.9,161.9z M114.1,118C114,118,114.2,118.1,114.1,118L114.1,118z M108.4,87.3c0.4,0.2,1.1-0.3,1.1-0.7
		C109.6,86.2,107.9,87.1,108.4,87.3z M151.8,84.4c0.2,0,0.3,0,0.5,0c-0.1-0.1-0.3-0.2-0.4-0.2C151.8,84.2,151.8,84.3,151.8,84.4z
		 M149.3,85.2C149.2,85.2,149.2,85.2,149.3,85.2C149.3,85.3,149.3,85.3,149.3,85.2c0.4,0.4,1.4-0.6,1.7-1.5
		c-0.5-0.2-0.9-0.4-1.4-0.6C149.1,83.7,148.9,84.7,149.3,85.2z M123.7,96c0.4-0.1,2.3-0.4,2.6-1.1c0-0.1-2.1-1.1-1.7-1.4
		C123.7,94,123.3,95.8,123.7,96z M151.9,85.3C152.1,85.1,151.7,85.4,151.9,85.3L151.9,85.3z M119.7,87.4c0.1,0,0.1,0,0.1,0
		C119.7,87.4,119.6,87.4,119.7,87.4z M115.5,81.7c1.3-0.3,2.2-0.5,3.1-1.4c-0.6,0.1-5.5,1.5-4.9,1.8C114.3,82,114.9,81.9,115.5,81.7
		z M122.4,83.4c-0.6-0.2-2.4-2.4-3.4-1.4c0.2-0.2-3.4,0.5-4,1.1c0.1-0.3,0.4-0.8,0.4-0.9c-0.7,0.3-2.4,1.4-2.1,2.3
		c0.3,0.9,3.6-1,4.2-1.1c0.2-0.1,3.1,1.3,3.1,1.4c0,0.2-4.1,2.6-4.1,2.6c0.6-0.1,1.1-0.3,1.6-0.6c0.6,0.2,1.1,0.5,1.7,0.8
		c0.6,0.2,1.1,0.1,1.6-0.4c-0.3-0.1-0.7-0.3-0.9-0.5c-0.1-0.4,1.3-0.1,1.4-0.2c0.6-0.3-0.4-1.1-0.5-1.4
		C121.2,84.6,125.6,84.4,122.4,83.4z M119.8,87.5C120,87.5,119.9,87.5,119.8,87.5L119.8,87.5z M124.7,93.5c0,0,0.1,0,0.1-0.1
		C124.8,93.5,124.7,93.5,124.7,93.5z"/>
	<path id="XMLID_747_" class="st3" d="M142.9,64.2c0,0-1.7,0.4-4.6,1.1c-2.9,0.7-7.1,1.9-12.1,3.3c-9.9,3-19,5.7-31.4,11.7
		c-6.2,3-12.2,6.5-17.3,10.5c-0.6,0.5-1.2,1-1.9,1.5c-0.6,0.5-1.2,1.1-1.8,1.6c-1.1,1.1-2.2,2.1-3.2,3.2c-1.9,2.2-3.5,4.5-4.5,6.9
		c-1,2.3-1.4,4.7-1.3,6.8c0.1,2.1,0.7,3.8,1.3,5.2c0.7,1.4,1.4,2.3,1.9,2.9c0.5,0.6,0.9,0.9,0.9,0.9s-0.3-0.3-0.9-0.9
		c-0.5-0.6-1.3-1.5-2-2.9c-0.7-1.3-1.4-3.1-1.6-5.3c-0.2-2.1,0.1-4.6,1.1-7.1c0.9-2.5,2.5-4.9,4.3-7.3c0.9-1.2,2-2.3,3.1-3.5
		c0.6-0.5,1.1-1.1,1.7-1.6c0.6-0.5,1.2-1.1,1.9-1.6c5-4.2,11-8,17.2-11.3c12.4-6.6,21.4-9.9,31.3-13.2c5-1.7,9.2-3,12.1-3.8
		c2.9-0.9,4.7-1.3,4.7-1.3l0,0c1.1-0.3,2.3,0.4,2.5,1.5C144.8,62.7,144.1,63.9,142.9,64.2C143,64.2,142.9,64.2,142.9,64.2z
		 M145.6,70.4c0,0,0.1,0,0.1,0c1.1-0.2,1.9-1.3,1.7-2.4c-0.2-1.1-1.3-1.9-2.4-1.7c0,0-0.2,0-0.6,0.1c-0.4,0.1-1,0.2-1.8,0.4
		c-1.5,0.3-3.7,0.8-6.2,1.5c-2.6,0.7-5.5,1.5-8.7,2.5c-1.6,0.5-3.2,1-4.8,1.6c-1.6,0.6-3.3,1.2-4.9,1.8c-1.6,0.6-3.2,1.3-4.8,2
		c-1.6,0.6-3.1,1.4-4.6,2.1c-1.5,0.7-2.9,1.4-4.2,2.1c-1.3,0.7-2.6,1.3-3.7,2c-1.1,0.6-2.2,1.2-3.1,1.7c-0.9,0.6-1.7,1-2.4,1.4
		c-1.3,0.8-2,1.2-2,1.2s0.8-0.4,2.1-1.1c0.7-0.3,1.5-0.8,2.4-1.2c0.9-0.5,2-0.9,3.2-1.5c1.2-0.6,2.5-1.1,3.9-1.7
		c1.4-0.6,2.8-1.2,4.4-1.8c1.5-0.6,3.1-1.2,4.7-1.7c1.6-0.5,3.3-1.1,4.9-1.6c1.7-0.5,3.3-1,5-1.5c1.6-0.5,3.3-0.9,4.8-1.3
		c3.2-0.8,6.1-1.4,8.7-1.8c2.5-0.5,4.7-0.8,6.2-1c0.7-0.1,1.3-0.2,1.7-0.2C145.3,70.4,145.6,70.4,145.6,70.4L145.6,70.4z"/>
	<path id="XMLID_744_" d="M142.3,65.2c0,0-1.5,0.3-4.3,1c-2.7,0.7-6.6,1.7-11.2,3.1c-9.2,2.8-21.5,6.9-33.1,12.6
		c-5.8,2.8-11.3,6.1-16.1,9.8c-0.6,0.5-1.2,0.9-1.7,1.4c-0.6,0.5-1.1,1-1.7,1.5c-1,1-2,2-2.9,3c-1.8,2.1-3.3,4.3-4.2,6.5
		c-0.9,2.2-1.3,4.4-1.2,6.4c0.1,2,0.6,3.6,1.3,4.9c0.6,1.3,1.3,2.2,1.8,2.8c0.5,0.6,0.8,0.9,0.8,0.9s-0.3-0.3-0.8-0.8
		c-0.5-0.6-1.2-1.4-1.9-2.7c-0.7-1.3-1.3-2.9-1.5-4.9c-0.2-2,0.1-4.3,1-6.6c0.8-2.3,2.3-4.6,4-6.8c0.9-1.1,1.9-2.2,2.9-3.2
		c0.5-0.5,1.1-1,1.6-1.5c0.6-0.5,1.1-1,1.7-1.5c4.7-4,10.2-7.5,16-10.6c11.5-6.2,23.7-10.9,33-14c4.6-1.6,8.5-2.8,11.3-3.6
		c2.7-0.8,4.3-1.2,4.3-1.2l0,0c1-0.3,2.1,0.3,2.4,1.4S143.4,64.9,142.3,65.2C142.4,65.2,142.3,65.2,142.3,65.2z M144.8,71
		c0,0,0.1,0,0.1,0c1.1-0.2,1.8-1.2,1.6-2.3c-0.2-1.1-1.2-1.8-2.3-1.6c0,0-0.2,0-0.6,0.1c-0.4,0.1-0.9,0.2-1.7,0.3
		c-1.4,0.3-3.4,0.7-5.8,1.4c-2.4,0.6-5.1,1.4-8.1,2.4c-1.5,0.5-3,1-4.5,1.5c-1.5,0.5-3,1.1-4.6,1.7c-1.5,0.6-3,1.2-4.5,1.9
		c-1.5,0.6-2.9,1.3-4.3,1.9c-1.4,0.6-2.7,1.3-3.9,2c-1.3,0.6-2.4,1.3-3.5,1.9c-1.1,0.6-2.1,1.1-2.9,1.6c-0.8,0.5-1.6,1-2.2,1.3
		c-1.2,0.7-1.9,1.2-1.9,1.2s0.7-0.4,2-1c0.6-0.3,1.4-0.7,2.3-1.2c0.9-0.4,1.9-0.9,3-1.4c1.1-0.5,2.3-1.1,3.6-1.6
		c1.3-0.5,2.6-1.1,4.1-1.6c1.4-0.5,2.9-1.1,4.4-1.6c1.5-0.5,3-1.1,4.6-1.5c1.5-0.5,3.1-0.9,4.6-1.4c1.5-0.4,3-0.8,4.5-1.2
		c2.9-0.7,5.7-1.3,8-1.7c2.4-0.4,4.3-0.7,5.7-0.9c0.7-0.1,1.2-0.1,1.6-0.2C144.6,71,144.8,71,144.8,71L144.8,71z"/>
</g>
</svg>
