<?xml version="1.0" encoding="utf-8"?>
<!-- Generator: Adobe Illustrator 23.0.1, SVG Export Plug-In . SVG Version: 6.00 Build 0)  -->
<svg version="1.1" id="Layer_1" xmlns="http://www.w3.org/2000/svg" xmlns:xlink="http://www.w3.org/1999/xlink" x="0px" y="0px"
	 viewBox="0 0 500 250" style="enable-background:new 0 0 500 250;" xml:space="preserve">
<style type="text/css">
	.st0{fill:none;}
	.st1{fill-rule:evenodd;clip-rule:evenodd;}
</style>
<rect x="0.2" y="0.28" class="st0" width="500" height="250"/>
<path d="M368.58,221.8c2.76,0.01,5.41-1.08,7.37-3.04v-0.02c1.96-1.95,3.05-4.6,3.05-7.37h9.2c0,5.2-2.06,10.2-5.75,13.87v-0.02
	c-3.67,3.69-8.67,5.76-13.87,5.76L368.58,221.8L368.58,221.8z"/>
<path d="M379,211.38V38.62h9.2v172.75L379,211.38L379,211.38z"/>
<path d="M379,38.62c0.01-2.77-1.09-5.43-3.05-7.39v0.02c-1.95-1.96-4.6-3.05-7.37-3.05V19c5.42,0,10.32,2.2,13.87,5.75v0.02
	c3.68,3.67,5.75,8.66,5.75,13.86L379,38.62L379,38.62L379,38.62z M368.58,28.2H131.43V19h237.15V28.2z M131.43,28.2
	c-2.88,0-5.49,1.17-7.37,3.05c-1.88,1.88-3.05,4.49-3.05,7.37h-9.2c0-5.42,2.2-10.32,5.75-13.88S126.01,19,131.43,19L131.43,28.2
	L131.43,28.2L131.43,28.2z M121.01,38.62v172.75h-9.2V38.62H121.01z"/>
<path d="M121.01,211.38c0,2.88,1.17,5.48,3.05,7.37c1.88,1.88,4.49,3.05,7.37,3.05v9.2c-5.21,0.01-10.2-2.06-13.87-5.75
	c-3.68-3.68-5.75-8.67-5.75-13.87L121.01,211.38L121.01,211.38L121.01,211.38z M131.43,221.8h237.15v9.2H131.43V221.8z"/>
<path class="st1" d="M367.61,80.23c0-12.84-10.4-23.24-23.23-23.27v0h-84.66v46.56h84.66v-0.03
	C357.22,103.47,367.61,93.06,367.61,80.23z M367.61,129.61c0-12.84-10.4-23.24-23.23-23.26v0h-84.66v46.56h84.66v-0.03
	C357.22,152.85,367.61,142.44,367.61,129.61z M195.94,106.34v-2.82h62.16v-3.92c0-23.38-18.95-42.33-42.33-42.33h-39.5
	c-23.38,0-42.33,18.95-42.33,42.33v11.29c0,23.38,18.95,42.33,42.33,42.33h39.5c23.38,0,42.33-18.95,42.33-42.33v-4.54H195.94z
	 M156.37,192.49c-2.47,5.34-6.08,7.97-10.97,7.97c-6.95,0-12.34-5.74-12.34-13.1c0-7.31,5.44-13.15,12.2-13.15
	c4.98,0,9.32,3.2,11.11,8.18h-3.38c-1.74-3.3-4.66-5.28-7.77-5.28c-5.21,0-9.28,4.47-9.28,10.21c0,5.74,4.02,10.26,9.14,10.26
	c3.29,0,5.58-1.47,7.91-5.08H156.37z M159.55,182.59c0.32-5.84,4.83-8.35,11.09-8.35c4.83,0,10.08,1.35,10.08,8.01v13.21
	c0,1.16,0.64,1.83,1.96,1.83c0.37,0,0.8-0.1,1.06-0.19v2.55c-0.72,0.14-1.45,0.21-2.18,0.2c-3.4,0-3.93-1.74-3.93-4.34h-0.1
	c-2.33,3.23-4.72,5.06-9.98,5.06c-5.04,0-9.18-2.27-9.18-7.28c0-7,7.48-7.24,14.7-8.01c2.76-0.29,4.3-0.63,4.3-3.38
	c0-4.1-3.24-5.11-7.17-5.11c-4.14,0-7.22,1.73-7.32,5.79L159.55,182.59L159.55,182.59L159.55,182.59z M177.38,186.26h-0.11
	c-0.43,0.73-1.91,0.96-2.81,1.11c-5.68,0.92-12.74,0.87-12.74,5.74c0,3.04,2.97,4.93,6.1,4.93c5.1,0,9.6-2.95,9.55-7.82
	L177.38,186.26L177.38,186.26z M186.2,174.82h3.2v3.61c1.03-1.9,3.5-3.51,7.37-3.76v2.95c-2.18,0.2-3.2,0.56-4.57,1.73
	c-1.93,1.57-2.59,3.15-2.59,5.94v14.58h-3.4V174.82L186.2,174.82z M257.76,170.5h3.4v8.64c2.18-3.25,5.53-4.93,9.8-4.93
	c7.27,0,13.31,5.89,13.31,13c0,7.31-5.94,13.26-13.26,13.26c-4.22,0-7.82-1.77-10.06-4.93v4.32h-3.2V170.5L257.76,170.5z
	 M260.91,187.52c0,5.59,4.52,10.06,10.16,10.06c5.53,0,10-4.62,10-10.26c0-5.69-4.42-10.21-9.9-10.21
	C265.18,177.11,260.91,181.48,260.91,187.52L260.91,187.52z M285.76,170.5h3.2v29.36h-3.2V170.5z M294.26,188.54
	c0.25,4.98,4.67,9.04,9.8,9.04c3.61,0,7.37-2.55,8.69-5.89h3.51c-1.78,5.13-6.86,8.78-12.19,8.78c-7.31,0-13.15-5.79-13.15-13.1
	c0-7.31,5.79-13.15,13.05-13.15c4.77,0,9.19,2.69,11.48,6.96c1.07,1.98,1.47,3.86,1.57,7.36L294.26,188.54L294.26,188.54z
	 M313.61,185.64c-1.21-5.18-4.97-8.53-9.55-8.53c-4.82,0-8.83,3.51-9.7,8.53H313.61z M345.2,188.54c0.25,4.98,4.67,9.04,9.8,9.04
	c3.61,0,7.36-2.55,8.68-5.89h3.51c-1.78,5.13-6.86,8.78-12.19,8.78c-7.31,0-13.15-5.79-13.15-13.1c0-7.31,5.79-13.15,13.05-13.15
	c4.77,0,9.19,2.69,11.48,6.96c1.07,1.98,1.47,3.86,1.57,7.36L345.2,188.54L345.2,188.54z M364.55,185.64
	c-1.22-5.18-4.98-8.53-9.55-8.53c-4.82,0-8.84,3.51-9.7,8.53H364.55L364.55,185.64z M213.73,188.54c0.25,4.98,4.67,9.04,9.8,9.04
	c3.61,0,7.36-2.55,8.69-5.89h3.5c-1.78,5.13-6.85,8.78-12.19,8.78c-7.31,0-13.15-5.79-13.15-13.1c0-7.31,5.79-13.15,13.05-13.15
	c4.77,0,9.19,2.69,11.48,6.96c1.07,1.98,1.47,3.86,1.57,7.36L213.73,188.54L213.73,188.54z M233.08,185.64
	c-1.22-5.18-4.98-8.53-9.55-8.53c-4.82,0-8.84,3.51-9.7,8.53H233.08z"/>
<path class="st1" d="M202.74,174.73h8.71v2.84h-8.71v15.76c0,2.2,0.32,3.48,2.73,3.64c0.97,0,5.02-0.05,5.98-0.16v2.9
	c-1.02,0-5.07,0.11-6.09,0.11c-4.5,0-6.06-1.5-6-6.22v-16.03h-0.85v-2.84h0.85v-4.23h3.38V174.73L202.74,174.73z M336.99,174.9
	v13.82c0,5.56-2.87,8.91-7.71,8.94c-4.84-0.03-7.71-3.38-7.71-8.94V174.9h-3.2v13.82c0,7.52,3.81,11.84,10.46,11.84
	c0.16,0,0.29-0.02,0.45-0.03c0.15,0.01,0.29,0.03,0.44,0.03c6.65,0,10.46-4.32,10.46-11.84V174.9H336.99z"/>
</svg>
