<?xml version="1.0" encoding="utf-8"?>
<!-- Generator: Adobe Illustrator 23.0.1, SVG Export Plug-In . SVG Version: 6.00 Build 0)  -->
<svg version="1.1" id="Layer_1" xmlns="http://www.w3.org/2000/svg" xmlns:xlink="http://www.w3.org/1999/xlink" x="0px" y="0px"
	 viewBox="0 0 500 250" style="enable-background:new 0 0 500 250;" xml:space="preserve">
<style type="text/css">
	.st0{fill:none;}
	.st1{fill:#FF0000;}
	.st2{fill:#FFFFFF;}
</style>
<rect x="0" y="-0.2" class="st0" width="500" height="250"/>
<g>
	<g>
		<path d="M42,39l-32,93.8h18.8l9-27.4h26l9.3,27.4h19.2L60.3,39H42z M59.3,89.8H42.5l7-20.6c0.5-1.4,1-2.8,1.4-4.2
			c0.5,1.4,0.9,2.9,1.4,4.4L59.3,89.8z"/>
		<path d="M124,90.1c-8.6-3.4-9.6-5-9.6-7.5c0-3.2,2.6-5.1,7-5.1c5,0,9,2,11,3.2L136,83l4.9-14.9l-2.2-1.4
			c-4.2-2.8-10.6-4.4-17.1-4.4c-14.5,0-25,9.1-25,21.8c0,11.6,10.2,17.8,18.9,20.9c8.6,3.2,9.3,5.4,9.3,8.2c0,5.1-5.4,5.8-8.6,5.8
			c-5,0-10.3-2.1-13.4-3.9l-3.7-2.2l-4.8,15.1l2.3,1.4c5.3,3.1,12.3,4.9,19.3,4.9c15.9,0,26.6-9,26.6-22.2
			C142.5,98.6,131.9,93,124,90.1z"/>
		<path d="M170.8,47.3l-17.9,5.4v10.7h-9.7V79h9.7v30.7c0,8.6,1.7,14.6,5.3,18.7c3.5,3.8,8.7,5.9,14.8,5.9c5.4,0,9.4-1.1,11.2-1.8
			l2.4-0.8l-1-15.5l-4.2,1.2c-1.2,0.3-2.6,0.6-5.6,0.6c-2.2,0-5.1,0-5.1-8.7V79h16.2V63.5h-16.2V47.3L170.8,47.3z"/>
		<path d="M230.7,62.9l-3.3-0.5c-1-0.2-1.9-0.2-3.2-0.2c-5.7,0-10.9,2.3-14.9,6.4l-0.2-5h-16.8l0.2,3.6c0.3,5.4,0.6,11.4,0.6,19.3
			v46.4h18.2V96.2c0-1.7,0.2-3.4,0.3-4.6c1.4-7.2,5.8-11.7,11.9-11.7c1.4,0,2.3,0,3.1,0.2l4.2,0.9L230.7,62.9L230.7,62.9z"/>
		<path d="M263.8,62.2c-20.2,0-34.4,15-34.4,36.5c0,21,13.7,35.5,33.4,35.5c16.6,0,34.5-11.4,34.5-36.6
			C297.3,76.8,283.5,62.2,263.8,62.2z M278.9,98c0,12.1-6.6,20.9-15.5,20.9s-15.4-8.7-15.4-20.6c0-7.7,3.3-20.7,15.7-20.7
			C275.7,77.5,278.9,91,278.9,98z"/>
		<path d="M356.8,46.5c-5.9-5.4-15-8.1-26.6-8.1c-7.8,0-15.3,0.6-22.2,1.7l-2.8,0.5v92.3h18V98.6c1.8,0.2,3.8,0.2,5.7,0.2
			c12.2,0,22.5-3.8,29-10.6c5.1-5.3,7.7-12.3,7.7-21C365.6,58.9,362.4,51.5,356.8,46.5z M347.6,67.8c0,13.1-11.5,15-18.4,15
			c-2.3,0-4.2-0.1-5.8-0.3V54.4c1.8-0.2,4.2-0.3,7.2-0.3C338.2,54.1,347.6,56.5,347.6,67.8z"/>
		<path d="M420.8,114.4V91c0-18.6-9.7-28.8-27.1-28.8c-8.1,0-16.6,2.2-22.4,5.9l-2.3,1.4l4.9,14.4l3.7-2.5c3.8-2.6,9.2-4.1,14.5-4.1
			c3.7-0.1,6.3,0.8,8.1,2.5c1.4,1.4,2.3,3.6,2.6,6.3c-14.2,0.4-24.5,3.8-30.9,10.1c-4.4,4.4-6.6,9.9-6.6,16.6
			c0,10.6,7.7,21.4,22.6,21.4c6.3,0,12.2-2,16.9-5.5l0.5,4.2h17.2l-0.6-3.9C421.1,125.1,420.8,120.2,420.8,114.4z M390.5,119
			c-2.7,0-7.2-1-7.2-7.4c0-2.5,0.7-4.5,2.3-6c2.1-2.1,6.8-4.5,17.4-4.6v7.4c0,0.6-0.1,1.5-0.3,2.5C401.4,114.6,397.5,119,390.5,119z
			"/>
		<path d="M470.8,63.5l-13.2,38.9c-0.3,1-0.6,2-1,3c-0.3-1-0.6-1.9-1-2.8l-14.4-39.1h-19.8l24.8,62.2l0.1,0.2
			c0.4,0.8,0.6,1.3,0.6,1.4c-0.2,0.3-0.4,1-0.6,1.4c-2.2,4.6-5.4,8.9-8.6,11.4l-0.1,0.1c-3.6,3.1-7.3,4.5-8.8,4.9l-3.2,1l4.6,15.5
			l3-0.6c1.8-0.3,8.2-1.8,15.6-8c8.8-7.8,14.6-20.2,22.3-40.4L490,63.4L470.8,63.5L470.8,63.5z"/>
		<path class="st1" d="M76.3,64.8c11.7-11.9,31.5-19,53.1-19c8.4,0,16.6,1,24.3,3.2l0.6,0.2l13.8-4.2l-6.2-2.4
			c-11.8-4.5-25.3-6.9-39.2-6.9c-20.2,0-39.1,4.9-53.1,13.8l-1.5,1l5.8,17L76.3,64.8z"/>
	</g>
	<path class="st1" d="M393.8,210.3c-1.7,2.2-4.3,3.6-7.3,3.6H260.2c-5,0-9.1-4.2-9.1-9.1v-45.1c0-5,4.1-9.1,9.1-9.1h126.3
		c3,0,5.6,1.4,7.3,3.7l0,0c3.5,4.6,7,9.4,10.6,14c12.5,16.6,12.5,11.4,0,28.1L393.8,210.3z"/>
	<g>
		<path class="st2" d="M291.7,183.1c0,5.4-1.5,9.4-4.5,12.2c-3,2.8-7.3,4.2-12.8,4.2h-9v-32.4h10c5.1,0,9.2,1.4,12,4.2
			C290.3,174.2,291.7,178.1,291.7,183.1z M286.1,183.3c0-7.8-3.6-11.6-10.9-11.6h-4.6v23.5h3.8C282.2,195.2,286.1,191.3,286.1,183.3
			z"/>
		<path class="st2" d="M297.8,168.7c0-1,0.2-1.6,0.7-2.2c0.5-0.5,1.2-0.7,2.2-0.7c1,0,1.6,0.2,2.1,0.7c0.6,0.6,0.7,1.2,0.7,2.2
			c0,0.9-0.2,1.6-0.7,2.1c-0.5,0.6-1.2,0.7-2.1,0.7c-1,0-1.7-0.2-2.2-0.7C298,170.3,297.8,169.5,297.8,168.7z M303.4,199.7h-5.2
			v-24.6h5.2V199.7z"/>
		<path class="st2" d="M323.2,174.7c1,0,1.9,0.1,2.6,0.2l-0.6,4.9c-0.7-0.2-1.5-0.2-2.3-0.2c-2.1,0-3.8,0.7-5,2
			c-1.3,1.4-1.9,3.1-1.9,5.3v12.8h-5.2v-24.6h4.1l0.7,4.3h0.2c0.8-1.4,1.8-2.6,3.2-3.5C320.3,175.1,321.7,174.7,323.2,174.7z"/>
		<path class="st2" d="M341.1,200.1c-3.8,0-6.8-1.1-9-3.4c-2.2-2.2-3.2-5.3-3.2-9.2c0-4,1-7.1,3-9.4c2-2.3,4.7-3.4,8.2-3.4
			c3.3,0,5.8,1,7.7,3c1.9,2,2.8,4.6,2.8,8.1v2.8h-16.3c0.1,2.4,0.7,4.2,1.9,5.5c1.2,1.3,2.9,1.9,5.1,1.9c1.4,0,2.8-0.2,4.1-0.4
			c1.2-0.2,2.6-0.7,4-1.4v4.2c-1.3,0.6-2.6,1-3.8,1.3C344.2,200,342.8,200.1,341.1,200.1z M340.1,178.7c-1.7,0-3,0.6-4,1.6
			c-1,1-1.6,2.6-1.8,4.6h11.1c0-2-0.6-3.6-1.4-4.6C343.1,179.2,341.8,178.7,340.1,178.7z"/>
		<path class="st2" d="M366.4,200.1c-3.8,0-6.6-1.1-8.5-3.3s-2.9-5.3-2.9-9.4c0-4.2,1-7.3,3-9.5c2-2.2,5-3.3,8.8-3.3
			c2.6,0,4.9,0.5,7,1.4l-1.6,4.2c-2.2-0.8-4-1.3-5.4-1.3c-4.2,0-6.3,2.8-6.3,8.5c0,2.7,0.6,4.8,1.6,6.2s2.6,2.1,4.6,2.1
			c2.3,0,4.6-0.6,6.6-1.7v4.6c-1,0.6-1.9,1-3,1.2C369.2,200,368,200.1,366.4,200.1z"/>
		<path class="st2" d="M388.2,195.9c1.3,0,2.5-0.2,3.8-0.6v3.9c-0.6,0.2-1.4,0.5-2.2,0.6c-1,0.2-1.8,0.2-2.8,0.2
			c-5,0-7.4-2.6-7.4-7.8V179h-3.4v-2.3l3.6-1.9l1.8-5.2h3.2v5.4h7v4h-7v13.1c0,1.3,0.3,2.2,1,2.8
			C386.3,195.6,387.2,195.9,388.2,195.9z"/>
	</g>
</g>
</svg>
