<?xml version="1.0" encoding="utf-8"?>
<!-- Generator: Adobe Illustrator 23.0.1, SVG Export Plug-In . SVG Version: 6.00 Build 0)  -->
<svg version="1.1" id="Layer_1" xmlns="http://www.w3.org/2000/svg" xmlns:xlink="http://www.w3.org/1999/xlink" x="0px" y="0px"
	 viewBox="0 0 500 250" style="enable-background:new 0 0 500 250;" xml:space="preserve">
<style type="text/css">
	.st0{fill:none;}
	.st1{fill:#FECB31;}
	.st2{fill:#E92730;}
	.st3{fill:#020202;}
	.st4{fill:#CCA74D;}
</style>
<rect x="0" y="0" class="st0" width="500" height="250"/>
<g id="yandex-money">
	<path id="svg_2" class="st1" d="M384.1,86.8c21.6-16.6,43-33.4,64.2-50.5c0.2,24.2-0.1,48.3,0.1,72.5c0.4,4.2,0.2,8.5,0.2,12.7
		c0,9.2,0,18.5,0,27.7c0.1,1.1-0.3,2.1-1.3,2.7c-24.9,16.9-49.8,33.8-74.6,50.8c31.4-10,62.7-20.4,94-30.5c0.5-0.3,1.5-0.4,1.7-1.1
		c-0.2-20.8,0-41.5-0.1-62.3c7.2,0.1,14.4,0.1,21.6,0c0.4,5.9,0.1,11.9,0.2,17.9c0,28.9,0,57.9,0,86.8c-40,0.1-80,0-120,0
		c-3.1,0-6.4-0.2-9-2c-2.5-1.6-4.4-4.1-5.5-6.8c-0.9-2.2-0.6-4.6-0.7-6.9c0-25.8,0-51.6,0-77.4c0.3-4.9,2.2-9.7,5.4-13.5
		C367,98.9,375.9,93.2,384.1,86.8L384.1,86.8z"/>
	<path id="svg_3" class="st2" d="M61,87.8c1.8-0.6,3.6-0.4,5.5-0.4c2.3,0,4.7-0.1,7,0.2c-0.1,0.8-0.1,1.6-0.4,2.3
		C64,114.4,55,139.1,46,163.7c-0.3,0.9-0.3,1.8-0.3,2.8c0.1,12.5,0,25.1,0,37.6c-1,0.3-2,0.4-3.1,0.4c-2.6,0-5.3,0.1-7.9-0.1
		c-0.2-13.3,0-26.6-0.1-39.8c-7.9-20.3-15.7-40.7-23.5-61.2c-0.6-1.7-1.6-3.4-1.3-5.3c3.1-0.4,6.3-0.1,9.4-0.2c1-0.1,2,0.1,2.9,0.6
		c4.4,12.9,9,25.8,13.5,38.7c1.8,5,3.6,9.9,5.5,14.9c1.7-7,3.5-13.9,5.8-20.8C51.6,116.7,56.4,102.3,61,87.8z"/>
	<path id="svg_5" class="st3" d="M412.6,107.9c2.4-3.3,5.9-6.2,10.1-6.6c1.8-0.2,3.7,0,5.1,1.1c6.2,4.2-0.4,15.6-5.1,18.6
		c-2.3,1.8-5.3,2.4-8.1,2.1c-2.6-0.4-4.3-2.7-5-5.1C409.1,114.5,410.5,110.8,412.6,107.9L412.6,107.9z"/>
	<path id="svg_6" class="st4" d="M448.5,108.8c6.6,0.1,13.3,0,19.9,0.1c0.1,20.8-0.1,41.6,0.1,62.3c-0.2,0.7-1.1,0.8-1.7,1.1
		c-31.4,10.1-62.6,20.5-94,30.5c24.8-17,49.7-33.9,74.6-50.8c0.9-0.6,1.4-1.6,1.3-2.7c0-9.2,0-18.5,0-27.7
		C448.6,117.3,448.9,113.1,448.5,108.8L448.5,108.8z"/>
	<path id="XMLID_1360_" class="st3" d="M157.4,146.4c0,19.1,0,38.2,0,57.4c-0.3,0.2-0.8,0.5-1,0.7c-3.3-0.2-6.7,0.4-10-0.4
		c0-18.9,0-37.8,0-56.8c-0.9-2.5-2.8-4.8-5.5-5.4c-4.2-0.9-8.9,0-12.5,2.4c0,18,0,36.1,0,54.1c0,2,0.1,3.9-0.1,5.9
		c-3.3,0.3-6.6,0.1-9.9,0.1c-0.2-0.2-0.7-0.5-1-0.7c0-23.3,0-46.7,0-70c0.6-0.3,1.3-0.6,2-0.6c3,0,5.9-0.1,8.9,0.1
		c0.1,1.3,0.1,2.7,0.1,4c1.3-0.6,2.6-1.4,3.9-2.1c0.2-0.1,0.7-0.4,1-0.5l0,0c5-2.4,11-3.1,16.3-1.2
		C154.8,135.3,157.8,141.1,157.4,146.4z M103.9,203.3c0.1,0.8-0.9,1.2-1.6,1.1c-1.8,0.1-3.6,0-5.4-0.1c-0.4-0.7-0.7-1.3-1-2
		c-0.4-1-0.8-2-1.3-3c-3,3.3-6.8,6.1-11.4,6.7c-4.1,0.8-8.4-0.7-11.5-3.3c-3.1-2.3-4.8-6-6.4-9.4c-0.2-0.7-0.5-1.4-0.7-2.1
		c-0.2-0.6-0.4-1.2-0.6-1.9c-0.2-0.8-0.3-1.6-0.4-2.4c-0.5-3.1-0.4-6.3,0-9.5c0.3-2.3,1-4.6,1.8-6.8c1.6-3.8,3.6-7.7,7.2-10.2
		c5.7-4.6,14-4.2,20.3-0.9c0-3.5,0-5.8,0-6.1c-0.4-1.7-0.6-3.5-1-5.2c-0.1-0.5-0.3-1-0.4-1.5c-0.8-2.3-2.2-4.6-4.4-5.7
		c-2.5-1.2-5.3-0.5-7.6,0.5c-0.2,0.1-0.7,0.4-0.9,0.6c-0.5,0.2-1,0.5-1.5,0.7c-1.7,0.7-3.3,3-5.3,1.7c-0.4-1-0.9-2-1.3-3.1
		c-0.8-1.9-2.1-3.6-2.2-5.6c0.3-0.2,0.9-0.5,1.2-0.7c2-0.9,4.1-1.7,6.3-2.2l0.3-0.1v0c3.2-1,6.4-1.2,9.7-1.5c1.7,0.3,3.4,0.3,5,0.8
		c3.9,1,7,3.8,9.4,6.9c0.2,0.5,0.5,1,0.7,1.6c0.3,0.8,0.7,1.6,1,2.4c0.2,0.6,0.4,1.2,0.6,1.8c0.2,0.6,0.3,1.3,0.5,1.9
		c0.1,0.7,0.2,1.3,0.3,2c0.5,2.3,0.2,4.8,0.7,7.1C104,171.7,103.9,187.5,103.9,203.3z M92.9,168.7c-1.2-0.7-8.7-4.8-12.9-1.5
		c-4.9,4.6-4.9,13.5-4.8,16.7c0.1,3.2,2.2,12.6,8.8,13.1c6.7,0,9-4.1,9-4.2C92.8,192.2,92.9,179.5,92.9,168.7z M92.9,168.8
		C92.9,168.8,92.9,168.8,92.9,168.8C93,168.9,93,168.9,92.9,168.8z M263.3,154.5c0.8,5.6,0.7,11.2,0.7,16.9
		c-2.4,0-23.4,0.5-29.2-0.7c0,2.9-0.3,5.8,0.3,8.7c0.1,0.8,0.3,1.6,0.4,2.4c0.2,0.6,0.4,1.2,0.5,1.9c0.1,0.5,0.3,1,0.5,1.4
		c0.4,1,0.8,2,1.2,3c1.6,3.7,4.9,6.6,8.8,7.6c4.9,1.3,9.9-0.2,14.8-0.7c0.2,0.5,0.3,1.1,0.5,1.6c0.1,0.6,0.2,1.3,0.4,2
		c0.2,0.7,0.4,1.4,0.6,2.1c-0.1,0.2-0.3,0.7-0.5,1c-4.1,2.2-8.5,4.1-13.2,4.3c-5.2,0.7-10.6-0.6-14.7-3.9c-3.3-2.2-5.4-5.6-7.3-9.1
		c-0.1-0.2-0.3-0.7-0.5-1c-0.3-0.8-0.7-1.6-1-2.3c-0.3-0.8-0.5-1.7-0.8-2.5c-0.2-0.6-0.3-1.3-0.5-1.9c-0.8-3.6-1.4-7.3-1.3-11
		c0.1-4.1-0.3-8.3,0.4-12.4c0.3-2.6,0.8-5.1,1.5-7.6c0.3-1.1,0.6-2.2,1-3.3c0.1-0.5,0.3-1,0.5-1.4c0.2-0.5,0.3-0.9,0.5-1.4
		c0.3-0.8,0.6-1.6,0.9-2.4c0.3-0.8,0.6-1.6,1-2.4c1.6-3.2,4-5.9,6.7-8.2l0,0c4.5-3.5,11-4,16.2-1.6c2.2,1.4,4.2,3.1,5.8,5.2
		c1.3,1.9,2.2,4,3.1,6c0.6,1.5,1.1,3.1,1.6,4.7c0.1,0.8,0.3,1.6,0.5,2.4C262.9,152.6,263.1,153.5,263.3,154.5z M244.9,140.7
		c-6.2-0.7-9.5,10.8-9.5,22.6c4.4-0.7,15.2-1.1,17.4-0.7C252.9,141.8,246.1,140.7,244.9,140.7z M308.4,195.6
		c-0.5-1.1-0.9-2.2-1.4-3.3c-1.7-4.1-3.5-8.3-5.3-12.4c-0.4-1.1-0.9-2.2-1.4-3.3c-0.9-2.1-1.8-4.2-2.7-6.3c-0.4-0.9-0.8-1.8-0.9-2.8
		c1-1.7,1.7-3.6,2.5-5.4c0.7-1.5,1.4-3.1,2.1-4.7c0.7-1.6,1.5-3.2,2.2-4.8c0.8-1.8,1.6-3.5,2.4-5.3c0.7-1.4,1.3-2.8,1.9-4.3
		c0.7-1.6,1.4-3.1,2.1-4.7c0.6-1.5,1.6-2.9,1.7-4.5c-0.2-0.1-0.5-0.3-0.6-0.4c-2.8-0.3-5.7-0.1-8.5-0.1c-1.4,0.1-1.6,1.7-2,2.7
		c-0.2,0.6-0.5,1.2-0.7,1.8c-0.2,0.7-0.5,1.4-0.7,2c-0.2,0.6-0.5,1.2-0.7,1.8c-0.2,0.7-0.5,1.3-0.7,2c-0.2,0.6-0.5,1.2-0.7,1.8
		c-0.7,1.9-1.5,3.9-2.1,5.8c-0.2,0.5-0.3,0.9-0.5,1.4c-0.2,0.6-0.4,1.2-0.7,1.8c-0.4,1.3-0.9,2.5-1.3,3.8c-0.7-1.5-1.2-3.1-1.8-4.7
		c-0.2-0.6-0.5-1.2-0.7-1.8c-0.2-0.7-0.5-1.4-0.7-2c-0.2-0.6-0.5-1.2-0.7-1.8c-0.5-1.5-1.1-2.9-1.7-4.4c-0.5-1.3-1-2.5-1.5-3.8
		c-0.2-0.6-0.5-1.2-0.7-1.8c-0.5-1.4-1.1-2.8-1.6-4.2c-1.9-0.9-4-0.4-5.9-0.5c-1.9,0.2-4.2-0.6-5.6,1.1l0,0c0.7,1.3,1.2,2.6,1.8,4
		c0.5,1.3,1.2,2.6,1.7,3.9c0.6,1.2,1.1,2.5,1.7,3.7c0.7,1.6,1.5,3.2,2.1,4.9c0.6,1.2,1.1,2.5,1.7,3.7c1.6,3.5,3,7,4.7,10.5
		c0.8,1.4,0.3,3-0.3,4.4c-0.4,0.9-0.8,1.8-1.2,2.8c-0.5,1.1-0.9,2.2-1.4,3.4c-0.5,1.1-0.9,2.2-1.4,3.3c-0.4,1-0.8,2-1.2,3
		c-0.4,0.9-0.8,1.8-1.2,2.8c-0.4,1.1-0.9,2.2-1.4,3.3c-0.4,1.1-1,2.2-1.4,3.3c-0.4,1-0.8,1.9-1.2,2.9c-0.5,1.1-1,2.2-1.4,3.3
		c-0.6,1.2-1.1,2.5-1.7,3.7c-0.3,0.8-0.6,1.6-0.7,2.4c0.3,0.2,1,0.6,1.3,0.8c3.1-0.2,6.3,0.5,9.3-0.4c0.5-1.2,0.9-2.4,1.4-3.5
		c0.2-0.7,0.5-1.4,0.7-2.1c0.2-0.6,0.4-1.2,0.7-1.8c0.2-0.5,0.3-0.9,0.5-1.4c0.2-0.7,0.5-1.4,0.7-2.1c0.2-0.6,0.4-1.2,0.7-1.8
		c0.2-0.5,0.3-0.9,0.5-1.4c1.2-3.3,2.2-6.7,3.4-10c0.2-0.8,0.5-1.5,0.7-2.3c0.2,0,0.5-0.1,0.7-0.1c0.5,1.8,1.2,3.5,1.7,5.2
		c0.2,0.6,0.4,1.2,0.7,1.8c0.2,0.5,0.3,0.9,0.5,1.4c0.2,0.7,0.5,1.4,0.7,2c0.2,0.6,0.5,1.2,0.7,1.8c0.3,0.8,0.6,1.6,0.9,2.4
		c0.5,1.3,0.9,2.5,1.5,3.8c0.5,1.3,0.9,2.5,1.4,3.8c0.2,0.7,0.5,1.4,0.8,2c0.2,0.5,0.3,1.1,0.4,1.6c0.6,0.3,1.2,1,2,0.9
		c2.9,0,5.8,0.1,8.7,0c0.2-0.3,0.6-0.8,0.8-1.1c-0.8-1.6-1.4-3.2-2.1-4.9C309.2,197.5,308.8,196.6,308.4,195.6z M212.3,99
		c0,34.9,0,69.9,0,104.8c-0.3,0.2-0.8,0.5-1,0.6c-1.9-0.1-3.9,0.2-5.8-0.2c-1.1-1-1.6-2.5-2.4-3.7c-4.1,3.6-9.6,6.6-15.2,5.6
		c-4.5-0.4-8.5-3-11.5-6.2c-1.7-1.8-2.7-4-3.9-6.1c-0.4-1-0.9-2-1.3-2.9c-0.2-0.5-0.3-0.9-0.5-1.4c-0.1-0.5-0.3-1-0.4-1.5
		c-0.2-0.6-0.3-1.3-0.5-1.9c-0.2-0.8-0.3-1.6-0.5-2.4c-1.2-5.3-0.9-10.8-0.9-16.2c0-4,0.6-8,1.3-11.9c0.1-0.8,0.3-1.6,0.5-2.4
		c0.2-0.6,0.3-1.3,0.5-1.9c0.1-0.5,0.3-1,0.5-1.5c0.2-0.7,0.5-1.3,0.7-2c0.5-1.1,1-2.2,1.5-3.3c0.5-1,1-1.9,1.6-2.9
		c1.9-3.3,5-5.7,8.1-7.8c4.6-2.3,11.6-2.5,18.3-0.3c0.1-11.8-0.1-23.7,0.1-35.5c3.2-0.3,6.5-0.1,9.7-0.1
		C211.8,97.7,212.5,98.3,212.3,99z M201.3,194.7c-0.1-2.4-0.1-34.3,0-51.2c0,0,0,0,0,0c-2.9-1.8-6.7-4.1-11.1-2.6
		c-12.6,3.9-15.4,52.5,0.8,55.6C191.2,196.7,197,197.6,201.3,194.7z M201.4,98L201.4,98C201.4,98,201.4,98,201.4,98L201.4,98z"/>
</g>
</svg>
