<?xml version="1.0" encoding="utf-8"?>
<!-- Generator: Adobe Illustrator 23.0.1, SVG Export Plug-In . SVG Version: 6.00 Build 0)  -->
<svg version="1.1" id="Layer_1" xmlns="http://www.w3.org/2000/svg" xmlns:xlink="http://www.w3.org/1999/xlink" x="0px" y="0px"
	 viewBox="0 0 500 250" style="enable-background:new 0 0 500 250;" xml:space="preserve">
<style type="text/css">
	.st0{fill:none;}
	.st1{fill:#F19600;}
</style>
<rect x="0" y="1.6" class="st0" width="500" height="250"/>
<g>
	<path class="st1" d="M52.2,149.2c-0.6,3.1-1.3,6.5-1.9,10c-0.6,3.7-1.3,7.4-1.9,10.8c-0.2,1.4-1.1,2.2-2.8,2.2c-3.6,0-7,0-10.6,0
		c-2.1,0-2.6-1-2.3-2.7c2.3-13.1,4.9-26.2,7.2-39.3c1.5-8.2,3-16.2,4.5-24.3c0.2-1.8,1.1-2.7,3-2.7c3.4,0,6.8,0,10.2,0
		c2.3,0,2.8,0.6,2.6,2.9c-0.2,1-0.2,2-0.4,3.7c1.3-0.8,1.7-1.2,2.3-1.8c6.6-5.1,14-6.1,21.9-4.1c6.8,1.8,10.4,7.2,11.7,13.5
		c2.3,11-4,25-13.8,31.1c-6,3.7-12.8,5.5-19.8,4.1C58.5,152.5,55.6,150.7,52.2,149.2z M65.8,141.1c7.7,0,14-5.3,15.7-13.3
		c1.5-7.6-4.3-13.1-12.1-11.9c-6.8,1.2-12.3,6.8-13.6,13.5C54.5,135.9,59,141.1,65.8,141.1z"/>
	<path class="st1" d="M147,110c1.1-1.8,1.9-3.1,2.6-4.3c0.6-1.4,1.7-2,3.4-1.8c2.6,0.2,5.1,0.2,7.9,0c2.1,0,3,0.6,2.6,2.9
		c-1.3,7-2.6,13.7-3.8,20.7c-1.5,7.6-2.8,15.1-4.3,22.7c-0.6,3.1-1.5,3.9-4.7,3.9c-1.9,0-4-0.2-6,0c-2.3,0.2-4-0.4-4.7-2.7
		c-0.2-0.6-0.6-1-0.9-1.6c-2.3,1-4.7,2-7,2.9c-9.8,3.1-20.8,1.4-26.8-6.8c-4.5-6.1-4.9-12.9-2.6-19.8c3.4-10.8,10.2-18.4,21.9-21.1
		c4-1,8.3-0.8,12.3-0.6C141.1,104,144.3,106.3,147,110z M126,141.3c8.1,0,16-7.8,15.7-15.5c0-5.1-3.6-9-8.9-9.8
		c-7.4-1-15.3,5.1-17,13.5C114.7,135.9,119.2,141.3,126,141.3z"/>
	<path class="st1" d="M435.1,107.5c3.2-1.2,6.4-2.9,9.8-3.5c7.9-1.4,14.9,0.6,20.2,6.7c2.3,2.7,2.8,5.7,2.1,9.4
		c-2.1,10.2-3.8,20.2-5.7,30.5c-0.4,2-1.5,2.9-3.4,2.9c-3,0-6.2,0-9.1,0c-2.3,0-3.2-1-2.8-3.3c1.5-8.2,3-16.4,4.5-24.5
		c0.9-4.9-1.9-8.2-7-8.6c-6.2-0.4-10.8,3.5-12.1,10.4c-1.5,8-3,16-4.3,23.9c-0.2,1.6-1.1,2.2-2.6,2.2c-3.6,0-7.2,0-10.8,0
		c-1.7,0-2.3-0.8-2.1-2.5c2.6-13.9,5.1-27.8,7.7-41.7c1.1-5.7,1.3-5.5,7.2-5.5c2.1,0,4.3,0,6.4,0c2.6,0,2.8,0.2,2.6,2.7
		C434.9,106.9,435.1,107.3,435.1,107.5z"/>
	<path class="st1" d="M387,149.4c-3.2,1.2-6.2,2.9-9.4,3.5c-7.2,1.4-13.8-0.2-19.4-5.3c-4-3.9-3.8-8.2-3-13.1
		c1.7-9.2,3.4-18.4,5.1-27.6c0.4-2.9,1.1-3.3,4-3.3c2.8,0,5.7,0,8.5,0c2.6,0,3.6,1,3.2,3.5c-0.9,5.3-1.9,10.6-3,16
		c-0.6,2.9-1.1,5.7-1.7,8.6c-0.9,5.7,4.3,9.4,10.6,7.8c4.9-1.2,7.4-4.7,8.5-9.2c1.5-8,3-16,4.3-23.9c0.4-2.2,1.1-3.3,3.8-3.1
		c3,0.2,5.7,0,8.7,0c3.2,0,3.6,0.4,3.2,3.5c-0.9,5.5-1.9,10.8-3,16.2c-1.7,9-3.4,18.2-4.9,27.2c-0.4,2-1.3,3.1-3.6,2.9
		c-3-0.2-6,0-8.9,0c-3.2,0-3.4-0.2-3.2-3.3C387,149.8,387,149.4,387,149.4z"/>
	<path class="st1" d="M189.4,134.3c2.3-4.1,4.9-8,7.2-12.1c3.2-5.5,6.6-10.8,9.8-16.4c0.9-1.6,1.9-2.2,4-2.2c3,0.2,6.2,0,9.1,0
		c3.6,0,3.8,0.6,2.1,3.7c-5.7,9.6-11.7,19.4-17.4,29c-6.8,11.5-13.8,22.7-20.6,34.2c-0.9,1.4-1.7,1.8-3.4,1.8c-3.4,0-6.6,0-10,0
		c-3.2,0-3.6-0.6-1.9-3.3c2.3-4.1,4.7-8.4,7.4-12.3c1.7-2.5,1.7-4.7,1.3-7.6c-2.8-14.3-5.3-28.6-7.9-43c-0.4-2,0.2-2.7,2.3-2.7
		c3,0,6.2,0.2,9.1,0c1.9,0,2.6,0.8,2.8,2.2c1.5,8,3,16,4.5,24.1c0.2,1.4,0.6,2.7,0.9,4.1C188.9,134.1,189.2,134.1,189.4,134.3z"/>
	<path class="st1" d="M319.6,139.2c-2.8,0-4.9,0-7.2,0c-2.1,0-3-1-2.6-2.9c0.4-2.9,1.1-5.7,1.5-8.4c0.2-1.4,1.1-2,2.8-2
		c1.9,0,3.8,0,5.7,0c1.9,0.2,2.6-0.6,3-2.5c0.6-4.1,1.3-8.2,3.8-11.7c3.8-5.1,8.9-8.2,15.7-8.2c3,0,6,0,8.9,0c1.7,0,2.3,0.6,1.9,2.2
		c-0.6,2.9-1.3,5.9-1.7,9c-0.2,1.6-1.1,2.2-2.8,2c-1.3,0-2.8,0-4,0c-4.3,0-7.7,3.9-6.8,8c0,0.4,1.1,0.8,1.5,0.8c2.3,0,4.7,0,7,0
		c2.1,0,2.8,0.8,2.3,2.9c-0.4,2.5-1.1,5.1-1.3,7.6c-0.4,1.8-1.3,2.9-3.4,2.9c-2.3-0.2-4.5,0-6.8,0c-1.5,0-2.1,0.4-2.3,1.8
		c-0.9,5.1-1.9,10-2.8,15.1c-1.7,9.6-9.8,16.2-20,16.4c-2.1,0-4.5,0-6.6,0c-1.5,0-2.1-0.6-1.9-2c0.4-3.1,0.9-6.1,1.7-9.2
		c0.2-0.6,1.3-1.2,1.9-1.6c0.9-0.2,1.9,0,2.8,0c4.7,0,6-1.2,6.8-5.5C317.9,149.2,318.7,144.5,319.6,139.2z"/>
	<path class="st1" d="M266.2,145.6c7.9,0,15.7,0,23.6,0c1.9,0,3,0.6,2.8,2.7c0,2.9,0,5.5,0,8.4c0,1.6-0.6,2.5-2.3,2.2
		c-1.9,0-3.6,0-5.5,0c-2.1,0-3.2,1-3.2,3.1c0,2.7,0,5.5,0,8.2c0,1.8-0.6,2.7-2.6,2.7c-3.8,0-7.7,0-11.5,0c-1.7,0-2.6-0.6-2.6-2.5
		c0-2.7,0-5.1,0-7.8c0-2.9-0.9-3.7-3.8-3.7c-6.4,0-12.6,0-18.9,0c-1.9,0-2.6-0.6-2.3-2.2c0.2-2.9,0.2-5.7,0-8.6
		c0-1.8,0.6-2.5,2.3-2.2C250.2,145.6,258.1,145.6,266.2,145.6z"/>
	<path class="st1" d="M257.4,80.5c0.9,0.2,1.7,0.2,2.6,0.6c3.6,1.2,4,2,2.1,5.3c-11.3,18.6-22.5,37.4-33.8,56
		c-1.3,2.2-2.1,2.2-4.5,1c-4-2.2-5.1-6.3-2.6-10.6c5.7-9.4,11.3-18.8,17-28.2c4-6.5,7.9-13.3,11.9-19.8
		C251.9,82.1,254,80.3,257.4,80.5z"/>
	<path class="st1" d="M287,95.9c-3.4-1.8-7-3.9-10.4-5.7c-3.2-1.6-4.9-1.2-6.6,1.6c-4.5,7.4-8.9,14.9-13.4,22.3
		c-3.4,5.5-6.6,11-10,16.4c-1.9,3.3-0.4,5.9,3.4,5.9c3.6,0,7.2,0,10.8,0c3.8,0,7.7,0,11.3,0c1.9,0,3.2-0.6,4-2.2
		c4.9-8.2,10-16.4,14.9-24.7C294.2,104.2,292.5,98.9,287,95.9z M277.6,102l3,1.6l-4.5,7.6l-3-1.6L277.6,102z M271.5,101.2
		c0.6-1.2,2.1-1.6,3.4-0.8l0.9,0.4l-4.5,7.6l-3-1.6L271.5,101.2z M279.8,116.3c-0.6,1.2-2.1,1.6-3.4,0.8l-8.7-4.9
		c-1.3-0.6-1.7-2-0.9-3.3l0.2-0.4l13.2,7.4L279.8,116.3z M284.5,108.5l-3.2,5.5l-3-1.6l4.5-7.6l0.9,0.4
		C284.9,105.9,285.3,107.3,284.5,108.5z"/>
</g>
</svg>
