<?xml version="1.0" encoding="utf-8"?>
<!-- Generator: Adobe Illustrator 23.0.1, SVG Export Plug-In . SVG Version: 6.00 Build 0)  -->
<svg version="1.1" id="Layer_1" xmlns="http://www.w3.org/2000/svg" xmlns:xlink="http://www.w3.org/1999/xlink" x="0px" y="0px"
	 viewBox="0 0 500 250" style="enable-background:new 0 0 500 250;" xml:space="preserve">
<style type="text/css">
	.st0{fill:none;}
	.st1{fill:#D2F0FF;}
	.st2{fill:#73C8F0;}
	.st3{fill:#41B4E6;}
	.st4{fill:#0073AA;}
</style>
<rect x="-0.1" y="0.8" class="st0" width="500" height="250"/>
<path class="st1" d="M428,222.4H72c-6.2,0-11.2-5-11.2-11.2V38.9c0-6.2,5-11.2,11.2-11.2h356c6.2,0,11.2,5,11.2,11.2v172.2
	C439.2,217.3,434.2,222.4,428,222.4z"/>
<path class="st2" d="M428,27.6H250v194.7h178c6.2,0,11.2-5,11.2-11.2V38.9C439.2,32.7,434.2,27.6,428,27.6z"/>
<g>
	<path class="st3" d="M250,185.9c-6.2,0-11.2-5-11.2-11.2V75.3c0-6.2,5-11.2,11.2-11.2c6.2,0,11.2,5,11.2,11.2v99.4
		C261.2,180.9,256.2,185.9,250,185.9z"/>
	<path class="st3" d="M165.4,177.1H113c-6.2,0-11.2-5-11.2-11.2s5-11.2,11.2-11.2h52.4c6.2,0,11.2,5,11.2,11.2
		C176.6,172.1,171.6,177.1,165.4,177.1z"/>
	<path class="st3" d="M217.8,136.2H113c-6.2,0-11.2-5-11.2-11.2c0-6.2,5-11.2,11.2-11.2h104.8c6.2,0,11.2,5,11.2,11.2
		C229,131.2,224,136.2,217.8,136.2z"/>
	<path class="st3" d="M217.8,95.3H113c-6.2,0-11.2-5-11.2-11.2s5-11.2,11.2-11.2h104.8c6.2,0,11.2,5,11.2,11.2S224,95.3,217.8,95.3z
		"/>
</g>
<g>
	<path class="st4" d="M338.8,115c0,0-0.1,0-0.1,0c-1.4,0-3-0.6-3.6-1.9c-0.9-2.2-0.4-3.7,0.2-4.6c0.8-1.2,2.1-1.9,3.5-1.9h15.4
		c6.2,0,11.2-5,11.2-11.2s-5-11.2-11.2-11.2h-4.2v-2c0-6.2-5-11.2-11.2-11.2s-11.2,5-11.2,11.2v4.5c-4.4,2-8.2,5.3-11,9.5
		c-5.1,7.6-5.8,17-2.2,25.7c4,9.5,13.5,15.6,24.2,15.6c0,0,0.1,0,0.1,0c1.6,0,2.6,0.9,3.1,1.4c0.6,0.6,1.2,1.7,1.1,3.3
		c-0.2,2.1-2.2,3.7-4.5,3.7h-15.1c-6.2,0-11.2,5-11.2,11.2s5,11.2,11.2,11.2h4.2v2c0,6.2,5,11.2,11.2,11.2s11.2-5,11.2-11.2v-4.6
		c8.3-3.9,14.3-11.8,15.3-21.3c0.8-7.6-1.7-15.1-6.8-20.7C353.5,118.2,346.3,115,338.8,115z"/>
	<path class="st4" d="M250,64.1C250,64.1,250,64.1,250,64.1l0,121.8c0,0,0,0,0,0c6.2,0,11.2-5,11.2-11.2V75.3
		C261.2,69.1,256.2,64.1,250,64.1z"/>
</g>
</svg>
