<?xml version="1.0" encoding="utf-8"?>
<!-- Generator: Adobe Illustrator 23.0.1, SVG Export Plug-In . SVG Version: 6.00 Build 0)  -->
<svg version="1.1" id="Layer_1" xmlns="http://www.w3.org/2000/svg" xmlns:xlink="http://www.w3.org/1999/xlink" x="0px" y="0px"
	 viewBox="0 0 500 250" style="enable-background:new 0 0 500 250;" xml:space="preserve">
<style type="text/css">
	.st0{fill:none;}
	.st1{clip-path:url(#SVGID_2_);}
	.st2{fill:#669E24;}
</style>
<rect x="-0.6" y="0.7" class="st0" width="500" height="250"/>
<g id="layer1" transform="translate(0,-1031.6312)">
	<g id="g13704" transform="matrix(1.25,0,0,-1.25,-1067.37,1250.9697)">
		<g>
			<defs>
				<polygon id="SVGID_1_" points="869.6,38.5 1236.3,38.5 1236.3,111.8 869.6,111.8 869.6,38.5 				"/>
			</defs>
			<clipPath id="SVGID_2_">
				<use xlink:href="#SVGID_1_"  style="overflow:visible;"/>
			</clipPath>
			<g id="g13706" class="st1">
				<g id="g13712" transform="translate(933.1194,173.2685)">
					<path id="path13714" class="st2" d="M286.8-71.2c0,3.7,3,6.6,6.6,6.6c3.6,0,6.6-3,6.6-6.6c0-3.6-2.9-6.6-6.6-6.6
						C289.8-77.8,286.8-74.8,286.8-71.2 M122.5-84.2v-1.2c4.8-2.7,4.2-5.7,4.2-10.6v-25.3c0-4.9,0.7-7.9-4.2-10.5v-1.3h18.3v1.3
						c-4.8,2.7-4.2,5.5-4.2,10.4v17c0,7.7,4.5,14.2,12.6,14.2c8.8,0,12.2-5.3,12.2-15v-16.3c0-4.8,0.7-7.8-4.2-10.4v-1.3h18.3v1.3
						c-4.8,2.7-4.2,5.5-4.2,10.4v19.9c0,16.1-11.6,18.7-19.3,18.7c-6.4,0-12.4-3.2-15.4-8.2v8.2h-1.3c-2.3-1.3-4-1.4-6.4-1.4
						C129-84.2,122.5-84.2,122.5-84.2z M-18.5-64.2c-5.2,1.6-10.7,2.3-16.2,2.3c-13.9,0-27.2-5.1-27.2-18.4
						c0-22.7,36.7-20.1,36.7-35.9c0-6.2-7.8-9.8-15.2-9.8c-8.5,0-17.7,3.4-23.1,8.5l2.8-14.1c6.2-2.2,12.8-3.2,19.4-3.2
						c18.1,0,29.1,8.4,29.1,20.6c0,19.5-36.5,20.6-36.5,35.1c0,6.2,7.2,8.9,13.4,8.9c6.1,0,13-2.4,16.9-5.9
						C-18.5-76.1-18.5-64.2-18.5-64.2z M-4.3-95.5c0.9,1,2.4,1.8,3.5,1.8h22.6c1.2,0,1.1-0.8,0.2-1.8l-4-4.4c-0.9-1-2.4-1.8-3.5-1.8
						H-8.1c-1.1,0-1.1,0.8-0.2,1.8L-4.3-95.5z M180.6-63.1v-1.2c4.7-2.7,4.1-5.7,4.1-10.6v-46.4c0-4.9,0.7-7.9-4.1-10.5v-1.3h18.3
						v1.3c-4.9,2.7-4.3,5.6-4.3,10.5v59.9h-1.3c-1.4-1.6-3.1-1.7-5.5-1.7C187.8-63.1,180.6-63.1,180.6-63.1z M212.9-127.2
						c2.1-2.9,4.8-6,11.1-6h8.5c-4.9,3-8.2,7.6-11.6,11.9l-13.3,16.5l18.3,20.5h-16.6v-1.2c1-0.2,2.1-0.7,2.1-2.2
						c0-2.7-3.9-6.7-5.6-8.5l-9.1-9.7C196.7-105.8,212.9-127.2,212.9-127.2z M284.9-84.2v-1.2c4.8-2.7,4.2-5.6,4.2-10.5v-25.4
						c0-4.9,0.7-7.9-4.2-10.5v-1.3h18.3v1.3c-4.8,2.7-4.2,5.6-4.2,10.5v38.8h-1.3c-1.9-1.6-3.7-1.7-6.2-1.7
						C291.6-84.2,284.9-84.2,284.9-84.2z M26.2-63.1v-1.2c5.5-2.1,4.8-9,4.8-13.8v-40.1c0-4.8,0.7-11.7-4.9-13.6v-1.3h21.8v1.3
						c-5.8,3.2-5.7,6.5-5.7,12.4v48.3c6.8,0,0.5,0,7.7,0c9.1,0,15.6-3.8,15.6-13.2c0-9.3-7.6-14.9-19.7-14.9v-1.2
						c1.9-0.8,5.4-1.2,8.1-1.3c12.6-0.2,23.6,7.7,23.6,19.9c0,11.9-10.5,18.6-24.8,18.6C52.8-63.1,26.2-63.1,26.2-63.1z M22.6-98.9
						h2c1.2,0,1.1-0.8,0.2-1.8l-4-4.4c-0.9-1-2.4-1.8-3.5-1.8H-5.3c-1.1,0-1.1,0.8-0.2,1.8l0.6,0.7h20.6c1.2,0,2.6,0.8,3.5,1.8
						C19.2-102.7,22.6-98.9,22.6-98.9z M232.5-63.1v-1.2c4.7-2.7,4-5.7,4-10.6v-46.4c0-4.9,0.7-7.9-4-10.5v-1.3h18.3v1.3
						c-4.9,2.7-4.3,5.6-4.3,10.5v59.9h-1.3c-1.4-1.6-3.1-1.7-5.5-1.7C239.7-63.1,232.5-63.1,232.5-63.1z M264.7-127.2
						c2.1-2.9,4.8-6,11.1-6h8.5c-4.9,3-8.2,7.6-11.6,11.9l-13.3,16.5l18.2,20.5h-16.6v-1.2c1-0.2,2.1-0.7,2.1-2.2
						c0-2.7-3.9-6.7-5.6-8.5l-9.1-9.7L264.7-127.2z M122.6-126.9c-9.4,0-10.4,2.2-10.4,11.8l0.2,15.3c0,14.1-7.9,17-19.6,17
						c-1.9,0-10.1,0.1-11-3.4c-1.3-4.9-3.5-8-3.5-8c4,2.4,8.6,3.8,14.1,3.8c4,0,10-1.2,10-5.7c0-11-32.3-5.6-32.3-23.9
						c0-9.4,7.6-14.6,18.4-14.6c1.9,0,2.2,0,5.1,0l6.2,7.6c-3.1,0-3.9,0-6.5,0c-7.5,0-12.1,1.7-12.1,7.6c0,4.9,6.1,7.3,11.3,8.5
						c4.1,0.9,7.5,1.7,10,3.6v-16.2c0-8.5,6.6-10.9,14.1-10.9C116.5-134.3,122.6-126.9,122.6-126.9z"/>
				</g>
			</g>
		</g>
	</g>
</g>
</svg>
