<?xml version="1.0" encoding="utf-8"?>
<!-- Generator: Adobe Illustrator 23.0.1, SVG Export Plug-In . SVG Version: 6.00 Build 0)  -->
<svg version="1.1" id="Layer_1" xmlns="http://www.w3.org/2000/svg" xmlns:xlink="http://www.w3.org/1999/xlink" x="0px" y="0px"
	 viewBox="0 0 500 250" style="enable-background:new 0 0 500 250;" xml:space="preserve">
<style type="text/css">
	.st0{fill:none;}
</style>
<rect x="0" y="0" class="st0" width="500" height="250"/>
<path d="M321.5,110.3c-8.1-7.1-17.9-10.6-29.2-10.6c-11.1,0-20.9,3.5-29,10.6c-8.1,7-12.2,16.6-12.2,29c0,12.4,4.1,22.1,12.2,29.2
	c8.1,7,17.9,10.4,29,10.4c11.3,0,21.1-3.5,29.2-10.4c8.2-7.1,12.4-16.8,12.4-29.2S329.7,117.3,321.5,110.3z M277.1,155.3
	c-4.3-4.1-6.4-9.4-6.4-15.9c0-6.5,2.1-11.8,6.4-15.7c4.3-4.1,9.3-6,15.3-6c5.9,0,11.1,2,15.4,6c4.4,3.9,6.6,9.2,6.6,15.7
	s-2.1,11.8-6.6,15.9c-4.3,3.9-9.5,5.9-15.4,5.9C286.4,161.2,281.4,159.2,277.1,155.3z M362.7,176.9V73.1h-19.2v103.8H362.7z
	 M424.8,101.9v41.4c0,10-5.4,16.6-15.8,16.6c-10.5,0-15.8-6.6-15.8-16.6v-41.4h-19.3v44.6c0,17.3,11,32.5,35.1,32.5h0.1
	c24,0,34.9-15.6,34.9-32.5v-44.6H424.8z M230.6,101.9l-19.2,50.8l-19.2-50.8h-20.5l30.7,75h18l30.7-75H230.6z M171.8,137.3
	c0-10.9-3.5-19.8-10.4-26.9c-6.9-7.1-15.7-10.6-26.6-10.6c-11.1,0-20.6,3.8-28.4,11.2c-7.6,7.4-11.4,16.8-11.4,28.4
	c0,11.6,3.8,21.2,11.3,28.6c7.6,7.4,16.8,11,27.6,11c16.6,0,28.4-7.3,35.6-21.9l-14.3-8.2c-4.7,9.2-11.6,13.8-20.9,13.8
	c-11.4,0-19.5-7.3-20.8-18.8h58.3L171.8,137.3L171.8,137.3z M134.3,114.3c10.8,0,18,6,19.8,15.7h-40.6
	C116.4,121.1,124.3,114.3,134.3,114.3z M95,176.9l-25.8-44.8c16.3-5.9,24.4-16.2,24.4-31.2c0-18.3-14.6-30-38-30H10v105.9h20.2v-43
	h17.1l24.7,43H95z M55.6,88.6c11.9,0,17.9,4.7,17.9,13.9c0,9.2-6,13.9-17.9,13.9H30.2V88.6H55.6z M476.7,179
	c-12.4,0-22.4-10-22.4-22.2V81.6h19.2v20.3H490v15.4h-16.5v38.2c0,3.6,2.9,6.5,6.6,6.5h9.9V179H476.7z"/>
</svg>
