<?xml version="1.0" encoding="utf-8"?>
<!-- Generator: Adobe Illustrator 23.0.1, SVG Export Plug-In . SVG Version: 6.00 Build 0)  -->
<svg version="1.1" id="Layer_1" xmlns="http://www.w3.org/2000/svg" xmlns:xlink="http://www.w3.org/1999/xlink" x="0px" y="0px"
	 viewBox="0 0 500 250" style="enable-background:new 0 0 500 250;" xml:space="preserve">
<style type="text/css">
	.st0{fill:none;}
	.st1{fill:#000268;}
	.st2{fill:#FFFFFF;}
	.st3{fill:#FF0007;}
</style>
<rect x="0" y="0" class="st0" width="500" height="250"/>
<g id="layer1">
	<path id="_92653320" class="st1" d="M9.8,58.8c0-20.4,16.7-37,37.3-37h405.9c20.6,0,37.3,16.6,37.3,37v132.4
		c0,20.4-16.6,37-37.3,37H47.1c-20.6,0.1-37.3-16.5-37.3-37V58.8z"/>
	<path id="_92186184" class="st2" d="M25.1,60.1V190c0,12.8,10.4,23.2,23.3,23.2H261V36.9H48.4C35.5,36.9,25.1,47.3,25.1,60.1
		L25.1,60.1z M316,124.4c0,8.3-4.1,13.9-10.8,13.9c-6,0-11-5.7-11-13.3c0-7.8,4.4-13.6,11-13.6C312.1,111.6,316,117.5,316,124.4z
		 M276.2,171.9h17.9v-28.2h0.2c3.4,6.2,10.2,8.5,16.4,8.5c15.5,0,23.7-12.7,23.7-28.1c0-12.6-7.9-26.2-22.2-26.2
		c-8.2,0-15.7,3.3-19.4,10.6h-0.2V99h-16.5L276.2,171.9L276.2,171.9z M359,134.4c0-5,4.8-6.9,10.8-6.9c2.7,0,5.3,0.2,7.6,0.3
		c0,6.1-4.3,12.3-11.1,12.3C362.2,140.1,359,138.1,359,134.4L359,134.4z M395.2,150.9c-0.8-4.1-1-8.2-1-12.3v-19.4
		c0-15.8-11.4-21.5-24.7-21.5c-7.6,0-14.4,1.1-20.7,3.7l0.3,12.1c5-2.8,10.7-3.9,16.5-3.9c6.5,0,11.8,1.9,11.9,9
		c-2.3-0.4-5.5-0.7-8.4-0.7c-9.5,0-26.8,1.9-26.8,17.7c0,11.3,9.2,16.3,19.4,16.3c7.4,0,12.4-2.9,16.4-9.4h0.2
		c0,2.7,0.3,5.4,0.4,8.2L395.2,150.9L395.2,150.9z M403.2,171.9c3.7,0.8,7.4,1.2,11.2,1.2c16.4,0,20.3-12.7,25.4-25.7l19-48.3h-17.9
		l-10.7,33.9h-0.2L418.9,99h-19.3l21,53.1c-1.3,4.6-4.7,7.2-9.1,7.2c-2.5,0-4.7-0.3-7.1-1.1L403.2,171.9L403.2,171.9z"/>
	<path id="_47303032" class="st3" d="M68.9,124.5c0-7.1,3.5-13,10.2-13c8.1,0,11.4,6.5,11.4,12.3c0,8-5.1,13.3-11.4,13.3
		C73.7,137.1,68.9,132.6,68.9,124.5L68.9,124.5z M107.9,99H91.6v9.4h-0.2c-3.8-6.4-10-10.6-17.6-10.6c-16.2,0-23.4,11.6-23.4,27
		c0,15.3,8.9,26.1,23.1,26.1c7.2,0,13.2-2.8,17.5-8.9h0.2v2.8c0,10.1-5.6,15-15.9,15c-7.5,0-12.1-1.6-17.6-4.3l-0.9,14.2
		c4.2,1.5,11.3,3.3,19.8,3.3c20.9,0,31.3-6.9,31.3-28.2V99z M138.2,77.3h-17.9v13.2h17.9V77.3L138.2,77.3z M120.3,150.9h17.9V99
		h-17.9V150.9z M188.2,98.4c-1.8-0.3-4-0.6-6.1-0.6c-7.8,0-12.3,4.2-15.3,10.8h-0.2V99h-16.3V151h17.9v-21.9
		c0-10.2,4.7-16.3,13.1-16.3c2.1,0,4.1,0,6.1,0.6L188.2,98.4L188.2,98.4z M219.1,139.5c-8.3,0-11.7-6.9-11.7-14.5
		c0-7.8,3.4-14.6,11.7-14.6c8.3,0,11.7,6.9,11.7,14.6C230.7,132.6,227.3,139.5,219.1,139.5z M219.1,152.1c17.1,0,30.2-10,30.2-27.1
		c0-17.2-13.1-27.2-30.2-27.2s-30.2,10-30.2,27.2C188.9,142.1,201.9,152.1,219.1,152.1z"/>
</g>
</svg>
