<?xml version="1.0" encoding="utf-8"?>
<!-- Generator: Adobe Illustrator 23.0.1, SVG Export Plug-In . SVG Version: 6.00 Build 0)  -->
<svg version="1.1" id="Layer_1" xmlns="http://www.w3.org/2000/svg" xmlns:xlink="http://www.w3.org/1999/xlink" x="0px" y="0px"
	 viewBox="0 0 500 250" style="enable-background:new 0 0 500 250;" xml:space="preserve">
<style type="text/css">
	.st0{fill:none;}
	.st1{fill:#FF3399;}
	.st2{fill:#FFFFFF;}
</style>
<rect x="0.1" y="0.6" class="st0" width="500" height="250"/>
<g id="neosurf" transform="translate(0,6.3154782e-5)">
	<path id="XMLID_423_" class="st1" d="M169.4,38.7c9.6,0.5,19,1.3,28.6,1.5c-1.9,2.1-4.1,4.3-5.7,6.7c-1,3.9,1.5,7,4.7,8.9
		c5.2,3.1,12,4,17.9,4.6c22.3,1.6,45.9-1.6,68.1-4.3c40.6-5.3,84.8-14.4,125.7-11.4c28.7,1.7,56.8,10.3,81.6,24.9v143.6H9.9V61.4
		c24.2-7.5,49.4-12.2,74.3-17.2C112.4,38.4,140.8,37.4,169.4,38.7z"/>
	<path id="XMLID_425_" class="st2" d="M465.2,86.3c0.3,6.3-0.1,13.3,0.2,19.7c-3.8,1.1-8.8-0.2-12.7,0.7c-3.3,1-4.6,5.5-3.8,8.4
		c4.1,0.1,8.5-0.4,12.5,0.2c0.3,6.3,0.1,12.7,0.1,19l-0.4,0.8c-4.1,0.1-8.5-0.4-12.5,0.2c-0.1,15.5-0.1,31.1,0,46.5l-1,0.3
		c-6.9-0.2-14.4,0.3-21.2-0.3c-0.3-23.5,0-48.1-0.1-71.7c-0.1-9.5,5.7-17.9,14.4-21.4C448.6,85.2,456.6,86.4,465.2,86.3L465.2,86.3z
		 M53.9,90.7c6,0,11.1,3.5,13.7,8.8c6.5,12.8,13.6,26.5,19.8,39.1l0.9,0.7c-0.3-15.4,0-30.8-0.2-46.2l0.4-0.9c7.3-0.1,14.8,0,22.1,0
		l0.2,1c0,25.9,0,52,0,77.9c-0.1,4.4-2.4,8.5-6.2,10.8c-2.9,1.9-6.8,2-10,1.1c-5-1.7-8.3-7-10.8-11.4c-6.7-12.6-13.3-25.3-19.9-38
		c-0.7-1.2-1-3.3-2.6-3.5c0.3,17.1,0.3,34.6,0,51.7c-6.3,0.5-12.8,0.2-19.2,0.2l-0.6-0.7c0.2-26.2,0-52.5,0.1-78.7
		C42,96.3,47.4,90.6,53.9,90.7L53.9,90.7z M169.5,117.7c7.2,3.8,12.1,9.8,16.3,16.7l0,0.9c-10.9,7.5-21.9,14.9-32.8,22.4
		c-3.1-3.7-5.9-8.7-8.6-12.9c5.2-4,12-7.9,17.5-11.6l-0.5-0.9c-5-2.3-11.2-2.5-15.5,1.3c-7.9,6.9-8.3,20.1-0.5,27.3
		c3.7,3.5,9,4.5,13.9,3c6.7-2.2,11.8-7.5,14.9-13.6l0.8-0.4c5,2.8,10.4,5.1,15.2,8l0.1,0.3c-6.5,14.1-19.4,24.9-35.3,25.5
		c-14,1-27.5-7.6-33.4-20.2c-4.3-8.7-4.5-19.4-0.5-28.3c3.3-7.7,9.5-14.1,17-17.8C147.7,112.5,159.9,112.7,169.5,117.7z
		 M286.5,115.5c7.3,0,14.7,0,22,0c0.6,5.7,0.4,11.9,0.1,17.7c-5.9,0.5-12,0-17.9,0.2c-1.6,0.1-3,0.9-3.8,2.3
		c-0.6,1.8,1.6,2.9,2.9,3.8c5,2.4,10.1,4,14.7,7.3c3.8,2.5,7,6.2,7.9,10.8c0.9,6.3-0.1,13.1-4.6,17.9c-4.4,4.7-10.8,6.4-17,6.5
		c-8.4,0-16.9,0-25.3,0l-0.7-0.5c0.1-5.9,0.1-11.8,0-17.6l0.7-0.5c7.3,0,14.7,0.1,22,0c1.9-0.3,3.5-2.8,1.8-4.5
		c-2.6-2.4-6.8-3.2-10-4.8c-6.1-2.5-11.3-6.7-13.1-13.3c-1.3-5.7-1.2-12.2,2.5-17C272.8,118.4,280,115.5,286.5,115.5L286.5,115.5z
		 M318.2,115.5c6.9,0,13.9,0,20.8,0l0.3,0.9c0.1,12.6,0,25.3,0,37.9c0,2,0.5,3.9,1.6,5.6c2,2.9,6.1,3.9,9.2,2.3
		c3.3-1.7,4.3-5.3,4.3-8.9c-0.1-12.3,0.1-24.6-0.1-36.9l0.5-0.8c7,0.1,13.9-0.1,20.9,0.1c0.1,12.8,0,25.9,0,38.7
		c0,5.6-1.2,11-3.9,15.9c-3.8,7.2-11.1,11.9-19.1,13.1c-7.7,0.9-15.3,0.5-22.1-3.7c-8.6-5.1-12.4-14.6-12.8-24.2c0-12.9,0-26,0-38.9
		L318.2,115.5z M383.5,115.5c6.2,0,12.5,0,18.7,0c0.9,3.2-0.2,6.9,0.4,10.2c1.5-1.6,2-4,3.7-5.5c4.1-4.3,10.2-4.9,15.8-4.6
		c-0.1,6.7,0.1,13.4-0.1,20.1c-4.2,0-9.8,0.1-13.3,2.8c-3.2,2.5-3.2,6.8-3.4,10.5c0.1,10.9-0.1,21.8,0.1,32.6l-0.9,0.4
		c-7-0.2-14.3,0.2-21.2-0.2c-0.3-21.4,0-43.9-0.2-65.5L383.5,115.5z M233.9,114.6c-5-1.2-10.3-1-15.3,0.3c-15.5,4-27.3,19-26.5,35.2
		c0.5,17.9,16.3,33.7,34.4,33.6c18.7,0.6,35.3-16,35.2-34.6C262,132.8,249.7,118,233.9,114.6z M234,160.8
		c-5.6,3.7-13.3,2.4-17.3-2.9c-5.8-7-3.3-18.3,5-22.1c5.3-2.3,11.7-0.8,15.3,3.7C242.4,145.9,241,156.2,234,160.8z"/>
</g>
</svg>
