<?xml version="1.0" encoding="utf-8"?>
<!-- Generator: Adobe Illustrator 23.0.1, SVG Export Plug-In . SVG Version: 6.00 Build 0)  -->
<svg version="1.1" id="Layer_1" xmlns="http://www.w3.org/2000/svg" xmlns:xlink="http://www.w3.org/1999/xlink" x="0px" y="0px"
	 viewBox="0 0 500 250" style="enable-background:new 0 0 500 250;" xml:space="preserve">
<style type="text/css">
	.st0{fill:none;}
	.st1{fill-rule:evenodd;clip-rule:evenodd;fill:#F7E122;}
	.st2{fill:#0055A3;}
</style>
<rect x="0" y="0" class="st0" width="500" height="250"/>
<g>
	<rect x="9.8" y="54.1" class="st1" width="480.4" height="141.8"/>
	<g>
		<path class="st2" d="M71.8,96.4c2.3-1,5.1-1.4,7.6-1.4c5.1,0,9.3,1.6,12.5,4.7c3.3,3.1,5.1,7.6,5.6,13c0.4,3.9,0,8.2-1.2,12.7
			c-1,4.5-2.5,8.4-4.7,11.7c-2.3,4.1-5.5,7.2-9.3,9.3c-3.1,1.9-6.6,2.9-10.5,3.3v-7.8c1.4-0.4,2.7-1,3.9-1.6c2.5-1.6,4.7-3.9,6.4-7
			c1.8-3.1,3.1-6.4,4.1-10.1c1-3.7,1.2-7.2,1-10.5c-0.4-3.5-1.6-6.2-3.5-8.4c-2.1-2.1-4.9-3.1-8-3.1c-1.4,0-2.7,0.2-3.9,0.6V96.4z
			 M37.3,168.4l13.4-59c0.4-2.3,0.8-4.5,1.2-6.8c0.2-2.3,0.4-4.5,0.6-6.8h9.3l-0.8,8c2.9-2.9,5.8-5.3,8.8-6.6
			c0.6-0.4,1.4-0.6,1.9-0.8v5.5c-1.4,0.4-2.7,1.2-4.1,1.9c-2.5,1.8-4.7,4.3-6.2,7.4c-1.8,3.1-3.1,6.8-4.1,10.9
			c-1,4.3-1.2,7.6-1,10.3c0.2,3.1,1.4,5.5,3.3,7.4c1.9,1.8,4.5,2.7,7.6,2.7c1.6,0,3.1-0.2,4.5-0.6v7.8c-0.6,0-1.2,0-1.8,0
			c-3.7,0-6.6-0.8-9.3-2.1c-2.5-1.4-4.9-3.5-6.8-6.2l-6.2,27.1H37.3z"/>
		<path class="st2" d="M321.6,104.2c-1.2,0-2.1,0.2-3.3,0.4V97c0.6-0.2,1-0.4,1.4-0.6c2.7-1.4,5.8-1.9,9.2-1.9
			c5.1,0,9.2,1.6,12.1,4.5c2.9,2.9,4.7,7.2,5.1,12.9c1,10.5-1,19.5-6,26.7c-4.9,7.4-11.5,11.1-19.7,11.1c-0.6,0-1.4-0.2-1.9-0.2
			v-10.1c1.2-0.2,2.3-0.8,3.3-1.6c1.8-1.4,3.1-3.3,4.5-6c1.4-2.9,2.5-6.2,3.3-9.7c0.8-3.5,1-6.4,0.8-9c-0.2-2.9-1.2-5.1-2.5-6.4
			C326.1,104.9,324.1,104.2,321.6,104.2z M318.3,104.6c-3.1,1-5.8,3.5-8,7.2c-3.1,5.3-4.3,11.1-3.7,17.5c0.4,3.3,1.2,5.8,2.9,7.6
			c1.6,1.8,3.7,2.7,6.4,2.7c0.8,0,1.6-0.2,2.3-0.4v10.1c-2.9-0.2-5.5-1-7.6-2.1c-2.7-1.4-4.9-3.7-6.4-6.6l-6.2,27.8h-16.2l12.5-56.5
			c1.6-7.2,2.5-12.7,2.9-16.2h14.6l-0.4,6.4c2.3-2.1,4.5-3.9,6.8-5.3V104.6z"/>
		<path class="st2" d="M382.4,123.4c-0.4-0.2-0.8-0.2-1.2-0.2c-0.6,0-1,0-1.8,0c-2.5,0-4.9,0.2-6.8,0.8v-8.6
			c2.1-0.2,4.7-0.2,7.2-0.2c1.2,0,2.1,0,2.7,0s1.2,0,1.8,0c0.4-1.9,0.8-3.3,0.8-4.5c0.2-1,0.2-1.8,0.2-2.5c-0.2-1.6-0.8-2.7-1.9-3.5
			c-1-0.8-2.5-1.2-4.5-1.2c-2.3,0-4.1,0.6-5.3,1.6c-0.4,0.4-0.8,0.6-1,1.2V95.4c1.9-0.4,4.1-0.4,6.2-0.4c6.8,0,11.9,1,15.6,3.3
			c3.5,2.3,5.5,5.6,5.8,10.1c0.2,1.4,0.2,2.7,0,4.3c-0.2,1.4-0.6,3.1-1,4.9l-4.1,17.9c-0.6,2.1-0.8,4.3-1.2,6.6
			c-0.2,2.3-0.2,4.5-0.2,6.8h-14.8c0-1.2,0-2.3,0-3.7s0.2-2.5,0.2-3.9c-1.9,2.7-4.3,4.9-6.6,6v-8.2c1.6-0.8,3.1-1.9,4.7-3.7
			C379.8,132.4,381.6,128.3,382.4,123.4z M372.6,124c-2.1,0.6-3.9,1.4-5.5,2.5c-3.3,2.1-4.7,4.9-4.3,8c0,1.8,0.6,3.1,1.8,4.1
			c1,1,2.3,1.4,4.1,1.4c1.4,0,2.7-0.2,3.9-0.8v8.2l-0.4,0.2c-2.5,1.4-5.3,2.1-8.6,2.1c-4.7,0-8.4-1.4-11.3-3.9
			c-2.9-2.5-4.5-5.8-4.9-10.1c-0.6-6.6,1.9-11.7,7.4-15.2c4.3-2.7,10.1-4.5,17.7-5.1V124L372.6,124z M372.6,95.4v10.9
			c-0.8,1-1.2,2.3-1.6,3.9h-15.4c0.4-4.9,2.7-8.6,6.6-11.3C365.2,97.2,368.5,96,372.6,95.4z"/>
		<polygon class="st2" points="403,168.2 415.9,148.8 406.5,95.4 422.5,95.4 427,132 447.6,95.4 462.8,95.4 429.7,150.9 
			420.1,168.2 		"/>
		<path class="st2" d="M128,100.9c-1.4,0-2.5,0.2-3.9,0.6v-6.8c1.6-0.2,3.3-0.2,5.1-0.2c6.2,0,11.1,1.6,14.8,4.5
			c3.9,3.1,5.8,7.4,6.4,12.9c0.4,4.3,0,9-1.4,13.8c-1.2,4.9-2.9,9.2-5.3,12.7c-2.7,4.1-5.8,7-9.7,8.8c-2.7,1.4-6,2.1-9.9,2.5v-6.8
			c1.6-0.4,3.1-1,4.3-1.8c2.3-1.4,4.3-3.5,6-6.4c1.9-3.3,3.3-7,4.3-11.1c1-4.3,1.4-7.8,1.2-10.9c-0.4-4.1-1.6-7-3.5-8.8
			C134.5,101.8,131.7,100.9,128,100.9z M124.2,101.4c-1.4,0.4-2.9,1-4.3,1.8c-2.3,1.8-4.5,4.1-6.2,7.2c-1.8,2.9-3.1,6.4-4.1,10.7
			c-1,4.3-1.2,8-1,11.1c0.2,3.5,1.6,6,3.5,8c2.1,1.9,4.9,2.9,8.4,2.9c1.4,0,2.5-0.2,3.7-0.4v6.8c-1.4,0-2.9,0.2-4.5,0.2
			c-6.2,0-11.3-1.6-15-4.9c-3.9-3.1-6-7.6-6.4-13.2c-0.4-4.7,0-9.3,1.6-14.4c1.4-5.1,3.3-9.3,6-13c2.5-3.3,5.6-5.6,9.5-7.4
			c2.5-1,5.6-1.8,8.8-2.1V101.4z"/>
		<path class="st2" d="M161.2,131.4c-0.4,1-0.6,1.8-0.6,2.5c-0.2,0.8-0.2,1.4,0,1.9c0.2,2.1,1,3.7,2.5,4.7c1.6,1.2,3.7,1.6,6.8,1.6
			c4.1,0,7.2-0.8,9.5-2.3c2.3-1.8,3.3-3.9,3.1-6.4c0-1.6-0.8-2.9-2.1-4.1s-4.1-2.7-8.4-4.7c-5.5-2.5-9.3-4.9-11.5-7
			c-2.3-1.9-3.5-4.5-3.7-7.2c-0.4-4.7,1.4-8.4,5.1-11.5c3.9-2.9,9.2-4.5,15.8-4.5c6,0,10.5,1,13.4,2.7c3.1,1.8,4.7,4.3,5.1,8
			c0,0.6,0,1.2,0,1.9c0,0.6,0,1.6-0.2,2.9h-9.5c0-0.6,0-1.2,0-1.6c0-0.4,0-1,0-1.4c-0.2-1.9-1-3.5-2.5-4.5c-1.4-1-3.5-1.6-6.4-1.6
			c-3.3,0-5.8,0.8-7.6,2.1c-1.9,1.4-2.7,3.3-2.5,5.6c0.2,1.4,0.8,2.7,2.1,3.7c1.2,1.2,4.1,2.7,8.6,4.9c6.2,2.9,10.5,5.5,12.3,7.4
			c1.8,1.9,2.9,4.5,3.1,7.4c0.4,4.9-1.6,9.2-6.2,12.5c-4.5,3.3-10.5,5.1-17.9,5.1c-5.8,0-10.3-1.2-13.8-3.1c-3.3-2.1-5.1-5.1-5.5-9
			c-0.2-0.8-0.2-1.8,0-2.9c0.2-1,0.4-2.1,0.6-3.3H161.2z"/>
		<path class="st2" d="M225.2,149c-1.9,0.2-3.7,0.4-5.3,0.6c-1.6,0-3.1,0.2-4.5,0.2c-3.9,0-6.8-0.6-8.6-1.9
			c-1.9-1.2-2.9-3.3-3.1-6.2c-0.2-1,0-2.7,0.2-4.9c0.2-2.3,0.8-4.7,1.2-7.2l6-26.5h-9.7l1.8-6.8h9.5l2.7-12.1l10.3-2.5l-3.1,14.6
			h11.5l-1.6,6.8h-11.5l-5.8,27.7c-0.6,2.1-1,3.7-1,4.7c-0.2,1.2-0.4,1.9-0.2,2.5c0,1.6,0.6,2.5,1.6,3.1c1,0.8,2.7,1.2,5.1,1.2
			c0.8,0,1.9-0.2,3.1-0.4c1,0,2.1-0.4,3.1-0.6L225.2,149z"/>
		<path class="st2" d="M258.9,116.2h13.2c0.2-1.8,0.4-3.1,0.4-4.1c0.2-1,0.2-1.8,0-2.5c-0.2-2.9-1.4-5.1-3.3-6.6
			c-2.1-1.6-4.9-2.5-8.4-2.5c-0.6,0-1.4,0.2-1.9,0.2v-6.4c0.8,0,1.4,0,2.1,0c6.8,0,12.1,1.4,15.6,3.9c3.3,2.5,5.5,6.6,5.8,12.3
			c0.2,1.9,0.2,4.1,0,6.2c0,2.1-0.4,4.5-1,6.8h-22.6V116.2L258.9,116.2z M258.9,149.3v-8c1.2-0.4,2.3-1,3.3-1.6
			c2.3-1.6,4.1-3.9,5.1-6.8h11.5c-1.4,5.3-4.3,9.3-8.8,12.3C266.9,147.4,263.2,148.8,258.9,149.3z M245.3,116.2h13.6v7.2h-15.4
			c-0.6,1.6-0.8,2.9-1,4.5c-0.2,1.4-0.2,2.7-0.2,3.9c0.4,3.3,1.6,5.8,3.5,7.6c2.1,1.8,4.9,2.7,8.6,2.7c1.6,0,3.1-0.2,4.5-0.8v8
			c-1.8,0.2-3.7,0.4-5.6,0.4c-6.2,0-11.1-1.6-14.8-4.5c-3.5-2.9-5.6-7.2-6-12.7c-0.4-4.1,0-8.8,1.4-14c1.2-5.1,3.1-9.5,5.3-13.2
			c2.3-3.5,5.5-6.4,9.2-8.2c3.1-1.8,6.6-2.5,10.7-2.9v6.4c-3.1,0.4-5.8,1.6-8,3.9C248.2,107.1,246.2,111,245.3,116.2z"/>
	</g>
</g>
</svg>
