<?xml version="1.0" encoding="utf-8"?>
<!-- Generator: Adobe Illustrator 23.0.1, SVG Export Plug-In . SVG Version: 6.00 Build 0)  -->
<svg version="1.1" id="Layer_1" xmlns="http://www.w3.org/2000/svg" xmlns:xlink="http://www.w3.org/1999/xlink" x="0px" y="0px"
	 viewBox="0 0 500 250" style="enable-background:new 0 0 500 250;" xml:space="preserve">
<style type="text/css">
	.st0{fill:none;}
	.st1{fill:#FF0000;}
	.st2{fill:#FFFFFF;}
</style>
<rect x="0" y="0.3" class="st0" width="500" height="250"/>
<g>
	<g>
		<path d="M42,40.3L10,134h18.8l9-27.4h26l9.3,27.4h19.2l-32-93.8L42,40.3L42,40.3z M59.4,91.1H42.6l7-20.6c0.5-1.4,1-2.8,1.4-4.2
			c0.5,1.4,0.9,2.9,1.4,4.3L59.4,91.1z"/>
		<path d="M124,91.4c-8.6-3.4-9.6-5-9.6-7.5c0-3.1,2.6-5.1,6.9-5.1c5.1,0,9,2,11,3.2l3.7,2.3l4.9-14.9l-2.2-1.4
			c-4.2-2.8-10.6-4.4-17.1-4.4c-14.5,0-25,9.1-25,21.8c0,11.6,10.2,17.8,18.9,20.9c8.6,3.2,9.3,5.4,9.3,8.2c0,5.1-5.4,5.9-8.6,5.9
			c-5,0-10.3-2.2-13.4-3.9l-3.7-2.2l-4.8,15.2l2.3,1.4c5.3,3.1,12.2,4.9,19.3,4.9c15.9,0,26.6-9,26.6-22.2
			C142.6,99.9,131.9,94.3,124,91.4z"/>
		<path d="M170.8,48.7l-17.9,5.4v10.7h-9.6v15.4h9.7v30.6c0,8.6,1.8,14.6,5.3,18.7c3.4,3.8,8.7,5.9,14.7,5.9c5.4,0,9.4-1.1,11.2-1.8
			l2.4-0.9l-1-15.5l-4.1,1.3c-1.3,0.3-2.6,0.6-5.6,0.6c-2.2,0-5.1,0-5.1-8.7V80.3h16.2V64.8h-16.2L170.8,48.7L170.8,48.7z"/>
		<path d="M230.7,64.2l-3.3-0.4c-1-0.2-1.9-0.2-3.2-0.2c-5.7,0-10.9,2.3-14.9,6.4l-0.2-5.1h-16.8l0.2,3.6c0.3,5.3,0.6,11.4,0.6,19.3
			v46.4h18.2V97.4c0-1.8,0.2-3.4,0.3-4.7c1.4-7.2,5.8-11.7,11.8-11.7c1.4,0,2.3,0,3.1,0.2l4.1,0.9V64.2z"/>
		<path d="M263.8,63.5c-20.2,0-34.4,15-34.4,36.5c0,20.9,13.7,35.5,33.3,35.5c16.6,0,34.5-11.4,34.5-36.6
			C297.3,78.1,283.5,63.5,263.8,63.5z M278.9,99.3c0,12.1-6.6,20.9-15.5,20.9s-15.4-8.7-15.4-20.6c0-7.7,3.4-20.7,15.8-20.7
			C275.7,78.8,278.9,92.2,278.9,99.3z"/>
		<path d="M356.8,47.7c-6-5.4-15-8.1-26.6-8.1c-7.8,0-15.3,0.6-22.1,1.8l-2.8,0.5v92.2h18V99.8c1.8,0.2,3.8,0.2,5.6,0.2
			c12.2,0,22.5-3.8,29-10.6c5.1-5.2,7.7-12.2,7.7-21C365.5,60.1,362.5,52.7,356.8,47.7z M347.5,69.1c0,13.1-11.5,15-18.4,15
			c-2.3,0-4.2-0.1-5.9-0.3V55.6c1.8-0.2,4.2-0.3,7.2-0.3C338.3,55.4,347.5,57.8,347.5,69.1z"/>
		<path d="M420.8,115.7V92.3c0-18.6-9.7-28.8-27.1-28.8c-8.1,0-16.6,2.2-22.5,5.9l-2.2,1.4l4.9,14.4l3.8-2.6
			c3.8-2.6,9.2-4.1,14.6-4.1c3.6-0.1,6.3,0.8,8.1,2.6c1.4,1.4,2.3,3.6,2.6,6.3c-14.2,0.4-24.6,3.8-30.8,10.1
			c-4.4,4.3-6.6,9.9-6.6,16.6c0,10.6,7.7,21.4,22.5,21.4c6.3,0,12.2-2,16.9-5.6l0.5,4.1h17.2l-0.6-3.9
			C421.1,126.3,420.8,121.5,420.8,115.7z M390.6,120.3c-2.7,0-7.2-1-7.2-7.4c0-2.5,0.7-4.4,2.3-6c2.2-2.1,6.8-4.5,17.4-4.7v7.4
			c0,0.6-0.1,1.5-0.3,2.6C401.4,115.9,397.5,120.3,390.6,120.3z"/>
		<path d="M470.7,64.8l-13.1,39c-0.3,1-0.6,2-1,3c-0.3-1-0.6-1.9-1-2.8l-14.3-39.1h-19.8l24.8,62.2l0.1,0.2c0.4,0.8,0.6,1.3,0.6,1.4
			c-0.2,0.3-0.4,1-0.6,1.4c-2.2,4.6-5.4,8.9-8.6,11.4l-0.1,0.1c-3.6,3-7.4,4.5-8.8,4.9l-3.2,1l4.6,15.5l3-0.6
			c1.8-0.3,8.2-1.8,15.6-8c8.8-7.8,14.6-20.2,22.3-40.5L490,64.7L470.7,64.8L470.7,64.8z"/>
		<path class="st1" d="M76.3,66.1c11.7-11.9,31.5-19,53-19c8.4,0,16.6,1,24.2,3.2l0.6,0.2l13.8-4.2l-6.2-2.3
			c-11.8-4.5-25.4-6.9-39.3-6.9c-20.2,0-39,4.9-53.2,13.8l-1.5,1l5.8,17L76.3,66.1z"/>
	</g>
	<path class="st1" d="M416.1,204c0,5.2-4.2,9.5-9.5,9.5H303.3c-5.2,0-9.5-4.2-9.5-9.5v-44.7c0-5.2,4.3-9.5,9.5-9.5h103.3
		c5.2,0,9.5,4.3,9.5,9.5V204L416.1,204z"/>
	<g>
		<path class="st2" d="M322.2,170.3c-3,0-5.5,1.1-7.2,3.3c-1.8,2.2-2.6,5.1-2.6,9c0,4,0.9,7,2.6,9.1c1.7,2.1,4.1,3,7.3,3
			c1.4,0,2.7-0.1,4-0.5c1.4-0.2,2.6-0.6,4-1v4.6c-2.6,1-5.4,1.4-8.7,1.4c-4.8,0-8.5-1.4-11-4.3c-2.6-2.9-3.8-7-3.8-12.4
			c0-3.4,0.6-6.4,1.8-8.9c1.3-2.6,3-4.5,5.4-5.8c2.3-1.4,5.1-2,8.2-2c3.4,0,6.4,0.7,9.3,2.1l-1.9,4.5c-1-0.6-2.2-1-3.4-1.4
			C324.8,170.5,323.5,170.3,322.2,170.3z"/>
		<path class="st2" d="M352.2,198.8l-1-3.4H351c-1.1,1.4-2.3,2.5-3.6,3c-1.1,0.6-2.7,0.9-4.6,0.9c-2.4,0-4.3-0.6-5.7-2
			c-1.4-1.4-2-3.1-2-5.5c0-2.6,1-4.5,2.8-5.8c1.8-1.3,4.7-2,8.6-2.1l4.3-0.2v-1.4c0-1.6-0.3-2.7-1.1-3.5c-0.7-0.8-1.8-1.2-3.4-1.2
			c-1.3,0-2.5,0.2-3.6,0.6c-1.2,0.4-2.2,0.8-3.4,1.4l-1.7-3.8c1.4-0.7,2.8-1.3,4.4-1.6c1.6-0.4,3.1-0.6,4.6-0.6
			c3.1,0,5.5,0.7,7.1,2.1c1.6,1.4,2.4,3.4,2.4,6.4v16.6L352.2,198.8L352.2,198.8z M344.3,195.2c1.8,0,3.4-0.6,4.6-1.6
			c1.1-1,1.8-2.6,1.8-4.5v-2.1l-3.1,0.2c-2.5,0.1-4.3,0.6-5.4,1.3c-1.1,0.7-1.6,1.8-1.6,3.4c0,1.1,0.3,1.9,1,2.6
			S343.1,195.2,344.3,195.2z"/>
		<path class="st2" d="M375,173.7c1,0,1.9,0.1,2.6,0.2l-0.5,4.9c-0.7-0.2-1.5-0.2-2.3-0.2c-2.1,0-3.8,0.6-5.1,2.1
			c-1.3,1.4-1.9,3.1-1.9,5.3v12.9h-5.2v-24.6h4.1l0.7,4.3h0.2c0.9-1.4,1.8-2.6,3.2-3.5C372,174.1,373.5,173.7,375,173.7z"/>
		<path class="st2" d="M390.5,199.3c-3,0-5.4-1.1-7.2-3.4c-1.8-2.2-2.6-5.4-2.6-9.4c0-4.1,0.9-7.2,2.6-9.4c1.7-2.2,4.1-3.4,7.2-3.4
			c3.2,0,5.7,1.2,7.4,3.6h0.2c-0.2-1.8-0.3-3.1-0.3-4.2v-9h5.2v34.7h-4.1l-0.9-3.2h-0.2C396.3,198,393.7,199.3,390.5,199.3z
			 M391.9,195c2.2,0,3.8-0.6,4.7-1.8c1-1.2,1.5-3.2,1.5-5.9v-0.7c0-3.1-0.6-5.4-1.5-6.6c-1-1.3-2.6-1.9-4.7-1.9
			c-1.8,0-3.3,0.7-4.3,2.2c-1,1.5-1.4,3.6-1.4,6.4s0.5,4.8,1.4,6.2C388.5,194.3,389.9,195,391.9,195z"/>
	</g>
</g>
</svg>
