<?xml version="1.0" encoding="utf-8"?>
<!-- Generator: Adobe Illustrator 23.0.1, SVG Export Plug-In . SVG Version: 6.00 Build 0)  -->
<svg version="1.1" id="Layer_1" xmlns="http://www.w3.org/2000/svg" xmlns:xlink="http://www.w3.org/1999/xlink" x="0px" y="0px"
	 viewBox="0 0 500 250" style="enable-background:new 0 0 500 250;" xml:space="preserve">
<style type="text/css">
	.st0{fill:none;}
	.st1{fill:#459BBE;}
	.st2{fill:#235971;}
</style>
<rect x="0" y="0" class="st0" width="500" height="250"/>
<g>
	<path class="st1" d="M403,143.8l5.2-33.4c-2.1,0-5.7,0-5.7,0c-2.6,0-6.1-1.4-7.1-4.2c-0.4-1-1.1-4.2,3.3-7.3
		c1.5-1.1,2.6-2.3,2.7-3.2c0.2-1,0-1.8-0.7-2.5c-0.8-0.8-2.7-1.4-5.1-1.4c-4,0-6.9,2.4-7.1,4c-0.2,1.3,0.8,2.3,1.7,2.9
		c2.5,1.9,3.1,4.6,1.5,7.3c-1.7,2.6-5.1,4.4-8.8,4.4c0,0-3.7,0-5.8,0c-0.5,3.2-8.3,53.2-8.9,57.1h31.4
		C399.7,165.8,401.1,156.3,403,143.8L403,143.8z"/>
	<path class="st2" d="M445,81.1h-31.9l-4.3,27h5.5c3,0,5.8-1.3,7-3.3c0.4-0.6,0.6-1.2,0.6-1.7c0-1.1-0.7-2-1.5-2.5
		c-2.1-1.5-2.5-3.2-2.5-4.4c0-0.2,0-0.5,0-0.6c0.5-2.9,4.3-6,9.4-6c3.1,0,5.4,0.7,6.8,2c1.2,1.2,1.8,2.9,1.4,4.5
		c-0.5,2-2.5,3.7-3.7,4.5c-3.1,2.1-2.7,4-2.5,4.6c0.6,1.7,3.1,2.7,5,2.7h8.3l0,0c11.3,0.1,17.4,5.2,15.4,17.4
		c-1.8,11.2-10.4,16-20.6,16.2l-4.3,25.8h6c25.3,0,45.9-16.3,50.1-41.9C494.2,93.9,474,81.1,445,81.1z"/>
	<g>
		<g>
			<path class="st2" d="M23.9,80.4h51.5c21.9,0,27.1,11,25.7,21.5c-1.4,8.1-6.6,14.3-16.6,18.1c12.4,4.8,17.1,11.9,15.2,23.4
				c-2.4,14.3-14.7,24.7-31,24.7H10.1L23.9,80.4z M57.7,117.1c10,0,14.7-5.2,15.7-11.5c1-6.6-1.9-11.5-11.9-11.5h-9l-3.8,22.9H57.7z
				 M52,155.2c10.5,0,16.2-4.3,17.6-12.9c1-7.1-2.9-11.9-12.9-11.9h-10l-3.8,24.7L52,155.2L52,155.2z"/>
			<path class="st2" d="M171.1,169.1c-13.4,1-20-0.5-22.9-6.2c-7.1,4.3-14.7,6.6-23.4,6.6c-15.2,0-20.5-7.6-19.1-16.6
				c0.5-4.3,2.9-8.1,7.1-11.5c8.1-7.1,29.1-8.1,37.1-13.9c0.5-6.2-1.9-8.6-9.5-8.6c-9,0-16.2,2.9-29.1,11.5l2.9-20
				c11-8.1,21.5-11.5,33.8-11.5c15.7,0,29.5,6.2,26.7,23.4l-2.9,19.5c-1,6.6-1,9,6.6,9L171.1,169.1z M148.3,139
				c-7.1,4.3-20.5,3.8-21.9,12.9c-0.5,4.3,1.9,7.6,6.2,7.6c4.2,0,9.5-1.9,13.4-4.8c-0.5-1.4,0-3.4,0.5-6.2L148.3,139z"/>
			<path class="st2" d="M196.4,100.5H223l-1.4,9c8.6-7.1,14.7-10,23.4-10c14.7,0,21.9,9,19.5,24.2l-7.2,44.8h-26.7l5.7-37.1
				c1-6.6-1-10-6.2-10c-4.3,0-8.1,2.4-11.9,7.1l-6.2,39.5h-26.7L196.4,100.5z"/>
			<path class="st2" d="M285.4,80.4h26.8l-6.6,43.3l25.7-23.4h32.9l-32.9,29.1l26.2,39.2h-33.8l-20.5-31.5h-0.5l-4.8,31.5h-26.7
				L285.4,80.4z"/>
		</g>
		<g>
			<path class="st2" d="M23.9,80.4h51.5c21.9,0,27.1,11,25.7,21.5c-1.4,8.1-6.6,14.3-16.6,18.1c12.4,4.8,17.1,11.9,15.2,23.4
				c-2.4,14.3-14.7,24.7-31,24.7H10.1L23.9,80.4z M57.7,117.1c10,0,14.7-5.2,15.7-11.5c1-6.6-1.9-11.5-11.9-11.5h-9l-3.8,22.9H57.7z
				 M52,155.2c10.5,0,16.2-4.3,17.6-12.9c1-7.1-2.9-11.9-12.9-11.9h-10l-3.8,24.7L52,155.2L52,155.2z"/>
			<path class="st2" d="M171.1,169.1c-13.4,1-20-0.5-22.9-6.2c-7.1,4.3-14.7,6.6-23.4,6.6c-15.2,0-20.5-7.6-19.1-16.6
				c0.5-4.3,2.9-8.1,7.1-11.5c8.1-7.1,29.1-8.1,37.1-13.9c0.5-6.2-1.9-8.6-9.5-8.6c-9,0-16.2,2.9-29.1,11.5l2.9-20
				c11-8.1,21.5-11.5,33.8-11.5c15.7,0,29.5,6.2,26.7,23.4l-2.9,19.5c-1,6.6-1,9,6.6,9L171.1,169.1z M148.3,139
				c-7.1,4.3-20.5,3.8-21.9,12.9c-0.5,4.3,1.9,7.6,6.2,7.6c4.2,0,9.5-1.9,13.4-4.8c-0.5-1.4,0-3.4,0.5-6.2L148.3,139z"/>
			<path class="st2" d="M196.4,100.5H223l-1.4,9c8.6-7.1,14.7-10,23.4-10c14.7,0,21.9,9,19.5,24.2l-7.2,44.8h-26.7l5.7-37.1
				c1-6.6-1-10-6.2-10c-4.3,0-8.1,2.4-11.9,7.1l-6.2,39.5h-26.7L196.4,100.5z"/>
			<path class="st2" d="M285.4,80.4h26.8l-6.6,43.3l25.7-23.4h32.9l-32.9,29.1l26.2,39.2h-33.8l-20.5-31.5h-0.5l-4.8,31.5h-26.7
				L285.4,80.4z"/>
		</g>
	</g>
</g>
</svg>
