<?xml version="1.0" encoding="utf-8"?>
<!-- Generator: Adobe Illustrator 23.0.1, SVG Export Plug-In . SVG Version: 6.00 Build 0)  -->
<svg version="1.1" id="Layer_1" xmlns="http://www.w3.org/2000/svg" xmlns:xlink="http://www.w3.org/1999/xlink" x="0px" y="0px"
	 viewBox="0 0 500 250" style="enable-background:new 0 0 500 250;" xml:space="preserve">
<style type="text/css">
	.st0{fill:none;}
	.st1{fill:#106DB3;}
</style>
<rect x="0" y="0" class="st0" width="500" height="250"/>
<path class="st1" d="M76.4,59.1c10.1,0,20.1,2.3,29.3,6.7l4.2,2.2l-6.1,5.4l-9.2-9.4L78.8,77.8l-9.3-9.9l-29,25.8l18.6,20.3
	l-7.2,6.3l18.3,20.3l-7.2,6.3l26.2,28.8l15.5-14.1l13.5,15.1c-2.7,2-5.6,4-8.7,5.8c-10,5.6-21.3,8.6-32.8,8.6
	c-36.9-0.1-66.8-29.6-66.8-66C9.7,88.8,39.6,59.1,76.4,59.1z M64.1,120.9l15.9-14.1l14.3,15.7l-15.9,14.1L64.1,120.9z M75.5,148.1
	l15.8-14.2l14.4,15.7l-15.9,14.1L75.5,148.1z M52.8,94.1L68.7,80L83,95.7l-15.9,14.1L52.8,94.1z M82,86.5L93.8,76l10.7,11.7
	L92.7,98.4L82,86.5z M103.1,135l11.8-10.6l10.7,11.8l-11.8,10.6L103.1,135z M113.6,158.8l11.8-10.6l10.7,11.7l-11.8,10.7
	L113.6,158.8z M118.4,104.4l7.9-7l7.1,7.8l-7.9,7L118.4,104.4z M108.2,81.2l7.9-7.2l7.1,7.9l-7.9,7L108.2,81.2z M128.5,127.7l7.9-7
	l7.2,7.8l-8,7L128.5,127.7z M93,110.2l11.8-10.6l10.7,11.7l-11.8,10.6L93,110.2z M175.3,92.6h6.4l10,38.2h0.5l7.3-38.2h8.4
	l-11.6,51.1h-7.8l-9.8-36h-0.5l-9.5,36H161l-11.7-51.2h8l8,38.2h0.5L175.3,92.6z M218.1,122h16.4c-0.4-7.6-4-10.6-7.9-10.6
	C222.3,111.4,218.9,114.8,218.1,122 M240.3,135.6v5.5c-3.2,1.9-7.5,3.3-12.7,3.3c-12.1,0-17-7.5-17-18.9c0-11,5.5-18.9,16.3-18.9
	c9,0,14.5,5.9,14.5,17.6v2.7H218c0,8.7,3.5,12.5,10.9,12.5C232.8,139.3,236.4,138,240.3,135.6 M258.1,138.6c2.3,1,4.8,1.2,6.6,1.2
	c5.3,0,9.3-3.3,9.3-15c0-9.2-3.3-12.1-8.1-12.1c-2.9,0-5,0.8-7.8,2.4V138.6z M258.2,109.7c2.1-1.2,5.8-2.7,9.7-2.7
	c8.9,0,13.7,6.2,13.7,17.8c0,13.5-6.5,20.1-16.9,20.1c-4.9-0.1-9.7-1.3-14-3.5V90.8l7.4-1.8v20.5L258.2,109.7z M315.5,143.8h-4.6
	l-14.7-36.2h-0.6v36.2h-6.5V92.6h8.7l16.1,40.4h0.4l15.4-40.4h8.9v51.2h-7.8v-37.1h-0.6L315.5,143.8z M370.3,125.5
	c0-9.7-3.9-13.9-8.8-13.9c-4.7,0-8.8,4.1-8.8,13.9c0,9.9,3.7,13.9,8.8,13.9S370.3,135.4,370.3,125.5 M345.1,125.5
	c0-12.6,6.9-18.9,16.4-18.9s16.4,6.3,16.4,18.9c0,12.3-6.5,18.9-16.4,18.9S345.1,137.8,345.1,125.5 M383.4,111.9
	c3.2-2,10.1-5.3,18.3-5.3c8.6,0,11.8,3.4,11.8,10.8v26.1h-7.4V119c0-5.7-2.8-6.7-6.5-6.7c-2.9,0-6.5,1.3-8.8,2.6v28.6h-7.4
	L383.4,111.9z M429.4,122h16.4c-0.3-7.6-4-10.6-7.9-10.6C433.6,111.4,430.2,114.7,429.4,122 M451.6,135.5v5.5
	c-3.2,1.9-7.5,3.3-12.7,3.3c-12.1,0-17-7.5-17-18.9c0-11,5.5-18.9,16.3-18.9c9,0,14.5,5.9,14.5,17.6v2.7h-23.4
	c0,8.7,3.5,12.5,10.9,12.5C444.1,139.3,447.7,137.9,451.6,135.5 M482.6,106.5h7.6l-13,36.1c-3.6,10-8,15.2-16.2,15.2v-5.9
	c4.9,0,7.9-3.9,9.6-9.2l-13.8-36.1h7.9l9.2,26.6h0.4L482.6,106.5z"/>
</svg>
