<?xml version="1.0" encoding="utf-8"?>
<!-- Generator: Adobe Illustrator 23.0.1, SVG Export Plug-In . SVG Version: 6.00 Build 0)  -->
<svg version="1.1" id="Layer_1" xmlns="http://www.w3.org/2000/svg" xmlns:xlink="http://www.w3.org/1999/xlink" x="0px" y="0px"
	 viewBox="0 0 500 250" style="enable-background:new 0 0 500 250;" xml:space="preserve">
<style type="text/css">
	.st0{fill:none;}
	.st1{fill:#002D6A;}
	.st2{fill:#FFFFFF;}
</style>
<rect x="0" y="0.3" class="st0" width="500" height="250"/>
<g>
	<g>
		<path class="st1" d="M479,16.1H21c-4.9,0-8.9,4-8.9,8.9v200.6c0,4.9,4,8.9,8.9,8.9H479c4.9,0,8.9-4,8.9-8.9V25
			C487.9,20.1,483.9,16.1,479,16.1L479,16.1z"/>
		<path class="st2" d="M445.9,66.4c-6,0-8.7-0.1-11.2-0.1c-2.7,0-5.8,0.5-7.2,4.7l-5.3,9.6l-21.4,37.8l-21.4-37.8l-5.3-9.6
			c-1.5-4.2-4.5-4.7-7.2-4.7c-2.5,0-5.2,0.1-11.2,0.1c-5.9,0-3.6,4.5-3.6,4.5s21.7,38.5,39.2,69.6c0,0-0.3,37-0.3,39.5
			c0,2.6,1.4,4.2,4.2,4.2h10.2c1.8,0,5.1-0.2,5.1-4.1l-0.1-39.6c17.5-31.1,39.2-69.6,39.2-69.6S451.7,66.4,445.9,66.4L445.9,66.4z
			 M477.3,219.5c0,2.3-1.1,4.5-4.5,4.5H26.9c-0.1,0-0.2,0-0.3,0c-2.2-0.1-3.9-1.9-3.9-4.1c0,0,0-81.4,0-137.4h46.7l-18.8,6.9v103.2
			c0,2.9,1.6,4.4,4,4.6h63.5c21.7-0.7,39-18.5,39-40.3c0-14.3-7.5-26.9-18.7-34c7-6.2,12.4-16.4,12.4-26.4c0-26.7-18.9-41.8-46-41.8
			H78.5V26.6c117.6,0,394.3,0,394.3,0c3.5,0,4.5,2.3,4.5,4.5V219.5L477.3,219.5z M22.7,30.8L22.7,30.8c0-2.2,1.7-4,3.8-4.2
			c0,0,8.9,0,24,0v27.9H22.7C22.7,40.1,22.7,30.8,22.7,30.8L22.7,30.8z M78.1,81.6h30.3c7.9,0,14.4,6.8,14.4,14.7
			c0,7.9-6.4,14.4-14.4,14.4l-5.2,0.3c-2.8,0.1-4.3,1.8-4.4,4.3l0,17.7c0.2,2.8,1.9,4.3,4.6,4.3h13c8.6,0,15.6,7,15.6,15.6
			c0,8.1-6.3,14.8-14.3,15.5l-35.2,0c-2.6-0.1-4.3-1.6-4.4-4.4V81.6L78.1,81.6z M481.1,13.9H18.9c-4.9,0-8.9,4-8.9,8.9v205
			c0,4.9,4,8.9,8.9,8.9h462.2c4.9,0,8.9-4,8.9-8.9v-205C490,17.9,486,13.9,481.1,13.9L481.1,13.9z M226.3,123.1h-27.5V85.8l27.5,0
			c10.3,0,18.6,8.3,18.6,18.6C245,114.7,236.6,123.1,226.3,123.1L226.3,123.1z M226.7,66.5h-42.8c-3.7,0-4.3,3.1-4.3,5
			c0,1.9,0,108.5,0,108.5c0,4.5,4.1,4.3,4.6,4.3h10.9c1.8,0,3.8-1.5,3.8-3.5l0-38.9h27.8c20.8,0,37.7-16.9,37.7-37.7
			C264.3,83.4,247.5,66.5,226.7,66.5L226.7,66.5z M293.4,140.5l19.3-54.8l20.5,54.8H293.4L293.4,140.5z M327.4,71.4
			c-1.5-3-2.5-4.9-7.8-4.9h-13.9c-5.3,0-6.3,1.9-7.8,4.9c-1.3,2.9-40.2,108.2-40.2,108.2s-2.3,4.5,3.6,4.5c6,0,7.3,0.1,9.8,0.1
			c2.7,0,5.8-0.5,7.2-4.7c1.3-3.7,7.1-19.8,7.1-19.8H340c0,0,5.8,16.2,7.1,19.8c1.5,4.2,4.5,4.7,7.2,4.7c2.5,0,3.8-0.1,9.8-0.1
			c5.9,0,3.6-4.5,3.6-4.5S328.8,74.4,327.4,71.4L327.4,71.4z"/>
	</g>
</g>
</svg>
