<?xml version="1.0" encoding="utf-8"?>
<!-- Generator: Adobe Illustrator 23.0.1, SVG Export Plug-In . SVG Version: 6.00 Build 0)  -->
<svg version="1.1" id="Layer_1" xmlns="http://www.w3.org/2000/svg" xmlns:xlink="http://www.w3.org/1999/xlink" x="0px" y="0px"
	 viewBox="0 0 500 250" style="enable-background:new 0 0 500 250;" xml:space="preserve">
<style type="text/css">
	.st0{fill:none;}
	.st1{fill:#3B3B3B;}
	.st2{opacity:0.6;enable-background:new    ;}
	.st3{opacity:0.45;enable-background:new    ;}
	.st4{opacity:0.8;enable-background:new    ;}
</style>
<rect x="-0.2" y="1.8" class="st0" width="500" height="250"/>
<g>
	<g id="Layer_1-2">
		<path class="st1" d="M145.8,135.8c0,0.9-0.7,1.6-1.6,1.6h-29.5c0.8,7.3,6.2,14,14,14c5.3,0,9.2-2,12.1-6.2
			c0.3-0.5,0.8-0.7,1.3-0.8c0.8,0,1.4,0.6,1.5,1.4c0,0,0,0.1,0,0.1c0,0.3-0.1,0.5-0.2,0.8c-3,5.2-8.9,7.7-14.7,7.7
			c-9.9,0-17-8.9-17-18.4c0-9.5,7.1-18.4,17-18.4S145.7,126.4,145.8,135.8L145.8,135.8z M142.6,134.5c-0.6-7.3-6.2-14-14-14
			s-13.2,6.7-14,14H142.6z"/>
		<path class="st1" d="M181.6,118.3c0.8,0,1.4,0.7,1.5,1.5c0,0.8-0.6,1.4-1.4,1.5c0,0-0.1,0-0.1,0h-7.9v31.1c0,0.8-0.7,1.5-1.5,1.5
			c-0.8,0-1.4-0.7-1.5-1.5v-31.1h-7.6c-0.8,0-1.4-0.6-1.5-1.4c0,0,0-0.1,0-0.1c0-0.8,0.7-1.5,1.5-1.5h7.6v-11.3
			c0-0.8,0.6-1.4,1.3-1.6c0.8-0.1,1.5,0.5,1.6,1.3c0,0.1,0,0.1,0,0.2v11.4H181.6z"/>
		<path class="st1" d="M229.9,133.3v18.8c0,0.8-0.7,1.4-1.5,1.5c-0.8,0-1.4-0.6-1.5-1.4c0,0,0-0.1,0-0.1v-18.8
			c0-6.4-3.6-12.7-10.7-12.7c-9.1,0-13,7.9-12.5,16.1c0,0.2,0.1,1.2,0.1,1.3v14.1c0,0.8-0.6,1.4-1.3,1.6c-0.8,0.1-1.5-0.5-1.6-1.3
			c0-0.1,0-0.1,0-0.2V90.3c0-0.8,0.7-1.5,1.5-1.5c0.8,0,1.4,0.7,1.5,1.5v35c2.5-4.5,7.1-7.6,12.4-7.6
			C225,117.6,229.9,125.3,229.9,133.3z"/>
		<path class="st1" d="M282.9,135.8c0,0.9-0.7,1.6-1.6,1.6h-29.5c0.8,7.3,6.2,14,14,14c5.3,0,9.2-2,12.1-6.2
			c0.3-0.5,0.8-0.7,1.3-0.8c0.8,0,1.4,0.6,1.5,1.4c0,0,0,0.1,0,0.1c0,0.3-0.1,0.5-0.2,0.8c-3,5.2-8.9,7.7-14.7,7.7
			c-9.9,0-17-8.9-17-18.4c0-9.5,7.1-18.4,17-18.4C275.6,117.6,282.8,126.4,282.9,135.8L282.9,135.8z M279.7,134.5
			c-0.6-7.3-6.2-14-14-14c-7.7,0-13.2,6.7-14,14H279.7z"/>
		<path class="st1" d="M319.1,119.7c0.1,0.8-0.6,1.5-1.4,1.6c-8.7,1.3-12.6,8.4-12.6,16.6V152c0,0.8-0.6,1.4-1.3,1.6
			c-0.8,0.1-1.5-0.5-1.6-1.3c0-0.1,0-0.1,0-0.2v-32.2c0-0.8,0.6-1.4,1.3-1.6c0.8-0.1,1.5,0.5,1.6,1.3c0,0.1,0,0.1,0,0.2v6.5
			c2.4-4.1,7.3-8.1,12.4-8.1C318.3,118.3,319.1,118.8,319.1,119.7z"/>
		<path class="st1" d="M367.6,135.8c0,0.9-0.7,1.6-1.6,1.6h-29.5c0.8,7.3,6.2,14,14,14c5.3,0,9.2-2,12.1-6.2
			c0.3-0.5,0.8-0.7,1.3-0.8c0.8,0,1.4,0.6,1.5,1.4c0,0,0,0.1,0,0.1c0,0.3-0.1,0.5-0.2,0.8c-3,5.2-8.9,7.7-14.7,7.7
			c-9.9,0-17-8.9-17-18.4c0-9.5,7.1-18.4,17-18.4S367.6,126.4,367.6,135.8L367.6,135.8z M364.5,134.5c-0.6-7.3-6.2-14-14-14
			c-7.7,0-13.2,6.7-14,14H364.5z"/>
		<path class="st1" d="M415.3,120v32.3c0,0.8-0.7,1.4-1.5,1.5c-0.8,0-1.4-0.6-1.5-1.4c0,0,0-0.1,0-0.1v-6.1
			c-2.4,4.8-6.8,8.4-12.3,8.4c-8.8,0-13.6-7.6-13.6-15.7V120c0-0.8,0.7-1.5,1.5-1.5c0.8,0,1.4,0.7,1.5,1.5v18.9
			c0,6.4,3.6,12.7,10.7,12.7c9.9,0,12.3-9.3,12.3-19.6v-12.1c0-0.8,0.7-1.5,1.5-1.5c0.2,0,0.3,0,0.5,0.1
			C415,118.8,415.3,119.4,415.3,120z"/>
		<path class="st1" d="M490,133.2v18.9c0,0.8-0.7,1.4-1.5,1.5c-0.8,0-1.4-0.6-1.5-1.4c0,0,0-0.1,0-0.1v-18.9
			c0-6.4-3.6-12.6-10.7-12.6c-8.9,0-12.3,9.5-12.3,16.9v14.6c0,0.8-0.7,1.4-1.5,1.5c-0.8,0-1.4-0.6-1.5-1.4c0,0,0-0.1,0-0.1v-18.9
			c0-6.4-3.6-12.6-10.7-12.6c-9,0-12.7,7.1-12.4,16.5c0,0.2,0.1,0.6,0,0.8V152c0,0.8-0.6,1.4-1.3,1.6c-0.8,0.1-1.5-0.5-1.6-1.3
			c0-0.1,0-0.1,0-0.2v-32.3c0-0.8,0.6-1.4,1.3-1.6c0.8-0.1,1.5,0.5,1.6,1.3c0,0.1,0,0.1,0,0.2v5.4c2.5-4.5,7.1-7.5,12.4-7.5
			c6,0,10.7,3.8,12.6,9.4c2.4-5.5,7.2-9.4,13.3-9.4C485.1,117.6,490,125.2,490,133.2L490,133.2z"/>
		<path class="st2" d="M46.5,111.1L9.5,127.9l36.9,21.8l37-21.8L46.5,111.1z"/>
		<path class="st3" d="M9.5,127.9l36.9,21.8V66.6L9.5,127.9z"/>
		<path class="st4" d="M46.5,66.6v83.2l37-21.8L46.5,66.6z"/>
		<path class="st3" d="M9.5,134.9L46.5,187v-30.3L9.5,134.9z"/>
		<path class="st4" d="M46.5,156.7V187l37-52.1L46.5,156.7z"/>
	</g>
</g>
</svg>
