<?xml version="1.0" encoding="utf-8"?>
<!-- Generator: Adobe Illustrator 23.0.1, SVG Export Plug-In . SVG Version: 6.00 Build 0)  -->
<svg version="1.1" id="Layer_1" xmlns="http://www.w3.org/2000/svg" xmlns:xlink="http://www.w3.org/1999/xlink" x="0px" y="0px"
	 viewBox="0 0 500 250" style="enable-background:new 0 0 500 250;" xml:space="preserve">
<style type="text/css">
	.st0{fill:none;}
	.st1{fill:#EF5232;}
	.st2{fill:#59595A;}
</style>
<rect x="-0.2" y="0" class="st0" width="500" height="250"/>
<g id="iDebit">
	<path id="XMLID_382_" class="st1" d="M25.3,14.1c9.6-3.2,20.4,0.2,26.2,8.5c7.6,10.4,4.9,26.1-6,33.1C34.2,63,18.3,59.1,12.1,47
		C5.5,34.4,11.8,18.5,25.3,14.1z M14.4,77.6c12.2,0,24.5,0,36.7,0c0,52.9,0,105.7,0,158.6c-12.2,0-24.5,0-36.7,0
		C14.4,183.3,14.4,130.4,14.4,77.6z"/>
	<path id="XMLID_355_" class="st2" d="M380.8,13.9c11.6-3.6,24.7,2.7,28.6,14.3c4.2,11.1-1.1,24-11.8,29c-11,5.1-24.7,1-30.4-9.8
		C360.4,34.5,366.7,18.1,380.8,13.9z M69.5,16.9c9.5,1.2,18.7,2.7,27.5,7c12.1,5.6,21.9,15.6,27.1,27.8c5.1,11.7,6.3,23.8,6.4,36.3
		c0,26.2,0,52.3,0,78.5c-0.1,17-3.7,35.1-13.1,49.4c-6,9.3-15.4,16.2-26.2,18.9c-7.3,1.9-14.8,1.3-22.5,1.4c0-13.4,0-26.8,0-40.2
		c5.7-0.4,11.7,0.2,16.2-4.1c5.7-5.4,6.6-12.9,6.8-20.3c0-29.5,0-59,0-88.5c0-8-2.1-16.8-8.6-22c-4.3-3.5-9.2-3.9-14.5-4.8
		C73.7,45,75.3,33.4,71,21.6C70.5,20,70,18.4,69.5,16.9z M425.1,33.3c12.1,0,24.2,0,36.3,0c0,15,0,30,0,45.1c9.6,0,19.2,0,28.8,0
		c0,9.7,0,19.5,0,29.2c-9.6,0-19.2,0-28.8,0c0,23,0,45.9-0.1,68.8c0.1,6.4,0.8,13.4,6,17.9c3.6,3.2,8,3.4,12.4,4.3
		c-0.1,12.5,0,25-0.1,37.5c-3.8,0-7.5,0.1-11.3,0.1c-11.1,0.4-22.4-5.1-30.1-13c-9.7-10.1-13.4-24.7-13.3-38.4
		C425.1,134.3,425.1,83.8,425.1,33.3z M369.2,77.6c12.2,0,24.5,0,36.7,0c0,52.9,0,105.7,0,158.6c-12.2,0-24.5,0-36.7,0
		C369.2,183.3,369.2,130.4,369.2,77.6z M238.2,118c0.1-7.4-0.6-14.6-3.5-21.5c-6.3-16.3-24.4-27.1-41.6-26.6
		c-8.5-0.1-16.4-0.2-24.2,3.9c-10.2,5.4-16.4,16-20.1,26.6c-3.3,9.9-5.1,20.4-5,30.9c0.1,17.8,0.1,35.7,0,53.5
		c0,10.8,1.5,21.2,6.8,30.7c7.2,13.2,22.4,21.7,37.4,21.5c11.7,0.2,22.2,0.5,31.8-7.1c12.7-9.9,18.1-28.8,17.6-44.3
		c-11.4-0.1-22.7,0.1-34.1-0.1c-0.7,5.3,0.1,11.3-5,14.6c-6.9,4.1-17.5-0.4-18.9-8.7c-1.3-8.3-0.4-17.1-0.6-25.5
		c19.7,0,39.5,0,59.2,0C238.2,150,238.1,134,238.2,118z M203.1,136.4c-7.8,0-15.6,0-23.3,0c0.2-7.6-0.7-15.5,0.6-23.1
		c1.6-8.1,14-12.2,19-4.9C204.8,115.7,202.7,127.8,203.1,136.4z M350.8,118c0.1-11-1.6-22.6-7.1-32.2c-5.3-9.3-14.7-16-25.6-16.4
		c-10.4-0.3-19.4,3.9-27.1,10.6c0.2-20.4,0-40.8,0.1-61.3c-11.6,0-23.1,0-34.7,0c0,72.5,0,145,0,217.4c11.6,0,23.1,0,34.7,0
		c0-3.7-0.1-7.4-0.2-11.1c5.8,5.9,11.9,11,20.5,11.8c8.4,0.4,17.3,0.7,24.4-4.4c10.1-6.8,14.7-21,14.9-32.7
		C350.8,172.6,350.8,145.3,350.8,118z M315.7,134.7c0,16.1-0.1,32.3,0.1,48.4c0,3.3,0.1,6.8-0.7,10c-1.7,6-8.8,10.4-14.9,7.9
		c-5.5-2.1-8-7.1-7.9-12.8c0-22.8,0-45.7,0-68.5c-0.1-5.7,2.4-10.7,7.9-12.8c6.6-2.9,14.5,2.7,15.2,9.5
		C316.1,122.4,315.7,128.6,315.7,134.7z"/>
</g>
</svg>
