<?xml version="1.0" encoding="utf-8"?>
<!-- Generator: Adobe Illustrator 23.0.1, SVG Export Plug-In . SVG Version: 6.00 Build 0)  -->
<svg version="1.1" id="Layer_1" xmlns="http://www.w3.org/2000/svg" xmlns:xlink="http://www.w3.org/1999/xlink" x="0px" y="0px"
	 viewBox="0 0 500 250" style="enable-background:new 0 0 500 250;" xml:space="preserve">
<style type="text/css">
	.st0{fill:none;}
	.st1{fill:#FF671B;}
	.st2{fill:#221F1F;}
</style>
<rect x="0" y="0.8" class="st0" width="500" height="250"/>
<g>
	<g>
		<path class="st1" d="M30.2,116.5c-5.6,0.1-10.4,2.2-14.3,6.4s-5.8,9.2-5.8,15.1c0.1,5.8,2.2,10.8,6.2,14.9s8.8,6.1,14.5,6
			c5.7-0.1,10.5-2.2,14.4-6.4s5.8-9.2,5.7-15.2c-0.1-5.9-2.1-10.9-6.1-15C40.8,118.4,35.9,116.4,30.2,116.5"/>
		<path class="st2" d="M238.7,89.3c-13.8,0-25.5,4.7-35,14.1c-9.5,9.4-14.3,20.9-14.3,34.4c0,13.4,4.7,24.9,14.2,34.3
			c9.5,9.5,20.9,14.2,34.3,14.2c13.5,0,24.9-4.7,34.4-14.2c9.4-9.5,14.2-20.9,14.2-34.4c0-13.2-4.7-24.6-14-34.2
			C263.1,94,251.8,89.3,238.7,89.3 M252.6,152.6c-3.9,4.2-8.7,6.3-14.4,6.4c-5.6,0.1-10.4-1.9-14.5-6.1c-4.1-4.1-6.1-9.1-6.2-14.9
			s1.8-10.9,5.8-15.1c3.9-4.2,8.7-6.3,14.3-6.4c5.7-0.1,10.5,1.9,14.5,6c4,4.1,6,9.1,6.1,15C258.4,143.4,256.4,148.4,252.6,152.6"/>
		<path class="st2" d="M134.3,89.3c-8,0-15.2,1.6-21.8,4.7V65.3H84.9v72.3c0,13.4,4.8,24.9,14.2,34.3c9.5,9.5,20.9,14.2,34.3,14.2
			c13.5,0,24.9-4.7,34.4-14.2c9.4-9.4,14.2-20.9,14.2-34.4c0-13.2-4.7-24.6-14-34.2C158.6,94,147.3,89.3,134.3,89.3 M147.9,152.8
			c-3.9,4.2-8.8,6.2-14.5,6.2c-5.6,0-10.4-2.1-14.4-6.2s-6-9.2-6-15s2-10.8,5.9-15c4-4.2,8.8-6.2,14.4-6.2c5.7,0,10.5,2.1,14.5,6.2
			c3.9,4.2,5.9,9.2,5.9,15.1C153.8,143.6,151.8,148.7,147.9,152.8"/>
		<polygon class="st2" points="386.6,91.7 356,91.7 323.4,136.5 323.4,65.4 295.9,65.4 295.9,184.1 317.3,184.1 341.2,152.2 
			364.3,184.1 396,184.1 356.7,131.5 		"/>
		<path class="st2" d="M462.5,91.6v46.2c0,5.9-2.6,10.9-6.6,15.1c-3.9,4.2-8.8,6.2-14.5,6.2c-5.6,0-10.4-2.1-14.4-6.2
			s-6.6-9.2-6.6-15V91.7h-27.5v46.1c0,13.4,4.8,24.9,14.2,34.3c9.5,9.5,20.9,14.2,34.3,14.2c13.5,0,24.9-4.7,34.3-14.2
			c9.5-9.4,14.2-20.9,14.2-34.4V91.6H462.5z"/>
	</g>
</g>
</svg>
