<?xml version="1.0" encoding="utf-8"?>
<!-- Generator: Adobe Illustrator 23.0.1, SVG Export Plug-In . SVG Version: 6.00 Build 0)  -->
<svg version="1.1" id="Layer_1" xmlns="http://www.w3.org/2000/svg" xmlns:xlink="http://www.w3.org/1999/xlink" x="0px" y="0px"
	 viewBox="0 0 500 250" style="enable-background:new 0 0 500 250;" xml:space="preserve">
<style type="text/css">
	.st0{fill:none;}
</style>
<rect y="0.2" class="st0" width="500" height="250"/>
<g>
	<g>
		<g>
			<path d="M205.9,91.9c3.7-1.8,10.9-5.4,10.9-18.2c0-9.1-5.6-22.7-27.3-22.7h-43.1v88.7h37.6c18.2,0,23-3.1,28-8.1
				c4.7-4.5,7.6-11.2,7.6-18.2C219.6,104.6,216.8,96,205.9,91.9z M164.2,66.3h21.2c8.4,0,13.6,2.2,13.6,9.5c0,7.1-5.8,9.9-13.1,9.9
				h-21.7V66.3z M186.9,124.4h-22.7v-23.7h23.6c6.7,0,13.3,3,13.3,10.7C201.1,120.4,195.9,124.4,186.9,124.4z"/>
		</g>
	</g>
	<g>
		<g>
			<polygon points="146.4,153.7 146.4,161.8 160.1,161.8 160.1,199.1 169.6,199.1 169.6,161.8 183.3,161.8 183.3,153.7 			"/>
		</g>
	</g>
	<g>
		<g>
			<polygon points="451.7,87.3 487.9,51 464,51 430.1,87 430.1,51 411.6,51 411.6,139.6 430.1,139.6 430.1,109.6 438.8,100.7 
				466.2,139.6 490,139.6 			"/>
		</g>
	</g>
	<g>
		<g>
			<path d="M277.9,51h-21.4L225,139.7h19.5l6.2-18.3h32.7l5.7,18.2h20.1L277.9,51z M255.6,106.1L266.9,71h0.3l11,35.1H255.6z"/>
		</g>
	</g>
	<g>
		<g>
			<path d="M104.4,74.4c-4.3-5.1-9.1-9.9-14.8-14.1c-2.8-2.1-5.8-4-9-5.8c-3.3-1.7-6.7-3.3-10.7-4.5c0.1,4.2,0.8,7.9,1.7,11.5
				c0.8,3.5,1.9,6.8,3.2,9.9c-3.1,0.9-6.8,2.2-11,3.8c-2.7,1.2-5.7,2.3-8.7,3.9c-3,1.5-6.1,3.2-9.2,5.2c-3.2,1.8-6.1,4.3-9.2,6.5
				c-2.8,2.7-5.9,5-8.5,8.1c-2.6,2.9-5.2,5.9-7.1,9.2c-1,1.6-2.1,3.1-3,4.8c-0.8,1.7-1.6,3.3-2.3,5c-1.7,3.2-2.5,6.5-3.3,9.6
				c-1,3.1-1.4,6.1-1.7,8.8c-0.2,2.8-0.8,5.2-0.7,7.5c0.1,2.2,0.1,4.1,0.2,5.7c0.1,3.1,0.1,4.9,0.1,4.9s0.3-1.8,0.9-4.9
				c0.3-1.5,0.6-3.4,1-5.5c0.3-2.1,1.4-4.4,2.2-6.9c0.8-2.5,1.8-5.1,3.3-7.7c1.4-2.6,2.7-5.4,4.8-7.8c0.9-1.2,1.9-2.5,2.9-3.8
				c1-1.2,2.3-2.3,3.4-3.5c2.2-2.4,4.9-4.3,7.5-6.3c2.5-2,5.6-3.4,8.3-5c3-1.2,5.7-2.7,8.7-3.6c2.9-1,5.7-1.9,8.4-2.5
				c2.7-0.8,5.4-1.1,7.7-1.6c1.5-0.2,2.9-0.4,4.2-0.6c-0.2,0.4-0.3,0.8-0.5,1.2c-1.4,3.7-2.4,7.7-3.2,11.8c-0.3,2.1-0.6,4.2-0.8,6.4
				c-0.2,2.2-0.2,4.5-0.1,6.9c2.3-0.9,4.3-1.8,6.3-2.9c1.9-1.1,3.7-2.2,5.5-3.4c3.5-2.4,6.6-5,9.5-7.8c5.7-5.6,10.5-11.8,14.5-18.4
				l0.5-0.8C107.9,83.7,107.7,78.3,104.4,74.4z"/>
		</g>
	</g>
	<g>
		<g>
			<path d="M225,188.9c0-8.5-2-9.9-5.8-11.5c4.5-1.5,7-5.8,7-10.8c0-3.9-2.2-12.8-14.3-12.8h-23v45.4h9.3v-17.8h9.8
				c7,0,7.4,2.4,7.4,8.6c0,4.7,0.4,7,1,9.2H227v-1.2C225,197.2,225,195.5,225,188.9z M209.4,173.7h-11.1v-12.2h11.8
				c5.6,0,6.6,3.5,6.6,5.9C216.7,172,214.3,173.7,209.4,173.7z"/>
		</g>
	</g>
	<g>
		<g>
			<polygon points="399.4,161.8 399.4,153.7 367.1,153.7 367.1,199.2 376.6,199.2 376.6,180.1 396.6,180.1 396.6,172 376.6,172 
				376.6,161.8 			"/>
		</g>
	</g>
	<g>
		<g>
			<polygon points="415.1,191.1 415.1,179.4 437.2,179.4 437.2,171.3 415.1,171.3 415.1,161.8 439.2,161.8 439.2,153.7 405.8,153.7 
				405.8,199.1 440.3,199.1 440.3,191.1 			"/>
		</g>
	</g>
	<g>
		<g>
			<path d="M348,173.3l-11-2.7c-1.9-0.5-4.8-1.2-4.8-4.8c0-4.1,4.3-5.4,7.9-5.4c8.3,0,9.1,4.8,9.3,6.8h9.1
				c-0.1-5.6-3.8-14.7-17.7-14.7c-14.7,0-17.5,8.9-17.5,14c0,10,7.1,11.7,14.4,13.4l4.9,1.2c4.8,1.2,8.2,2.1,8.2,5.7
				c0,4.7-5,5.9-9.5,5.9c-8.3,0-9.6-4.8-9.6-7.3h-9.1c0,5.7,2.8,15.2,19.4,15.2c4,0,17.9-1.2,17.9-14.9
				C359.8,177.3,354.1,174.8,348,173.3z"/>
		</g>
	</g>
	<g>
		<g>
			<path d="M484,188.9c0-8.5-2.1-9.9-5.8-11.5c4.5-1.5,7-5.8,7-10.8c0-3.9-2.2-12.8-14.3-12.8h-23v45.4h9.3v-17.8h9.8
				c7,0,7.4,2.4,7.4,8.6c0,4.7,0.4,7,1,9.2H486v-1.2C484,197.2,484,195.5,484,188.9z M468.4,173.7h-11.1v-12.2h11.8
				c5.6,0,6.7,3.5,6.7,5.9C475.8,172,473.4,173.7,468.4,173.7z"/>
		</g>
	</g>
	<g>
		<g>
			<polygon points="375.1,51 375.1,112.7 374.9,112.7 339.7,51 320.2,51 320.2,139.7 337.5,139.7 337.5,76.5 337.7,76.5 
				373.9,139.7 392.4,139.7 392.4,51 			"/>
		</g>
	</g>
	<g>
		<g>
			<path d="M257,153.7h-11l-16.2,45.4h10l3.2-9.4h16.8l2.9,9.4H273L257,153.7z M245.6,181.9l5.8-18h0.1l5.7,18H245.6z"/>
		</g>
	</g>
	<g>
		<g>
			<polygon points="306.8,153.7 306.8,185.3 306.7,185.3 288.7,153.7 278.7,153.7 278.7,199.1 287.5,199.1 287.5,166.7 287.7,166.7 
				306.2,199.1 315.7,199.1 315.7,153.7 			"/>
		</g>
	</g>
	<g>
		<g>
			<path d="M122.8,99.1c-0.2-3.1-0.3-4.9-0.3-4.9s-0.3,1.8-0.8,4.9c-0.3,1.5-0.5,3.4-0.9,5.5c-0.3,2.1-1.3,4.4-2,6.9
				c-0.7,2.5-1.6,5.2-3.1,7.8c-1.3,2.6-2.5,5.5-4.6,7.9c-0.9,1.3-1.8,2.6-2.7,3.9c-1,1.3-2.2,2.4-3.4,3.6c-2.1,2.4-4.7,4.5-7.3,6.5
				c-2.4,2.1-5.5,3.5-8.1,5.3c-3,1.3-5.6,2.9-8.6,3.9c-2.8,1.1-5.6,2.1-8.3,2.8c-2.6,0.9-5.3,1.3-7.6,1.9c-1.5,0.3-2.9,0.5-4.2,0.7
				c0.1-0.4,0.3-0.8,0.4-1.2c1.2-3.8,2.2-7.8,2.8-11.9c0.3-2.1,0.5-4.3,0.6-6.4c0.1-2.2,0.1-4.5-0.1-6.9c-2.2,0.9-4.3,2-6.2,3.1
				c-1.9,1.2-3.6,2.3-5.4,3.6c-3.4,2.5-6.5,5.2-9.2,8.1c-5.6,5.7-10.1,12.1-13.9,18.9l-0.5,0.8c-2.3,4.2-1.9,9.6,1.5,13.4
				c4.5,5,9.4,9.6,15.2,13.6c2.8,2,5.9,3.9,9.2,5.5c3.3,1.6,6.7,3.2,10.8,4.1c-0.2-4.2-1.1-7.8-2-11.4c-0.9-3.5-2.1-6.7-3.5-9.8
				c3-1,6.7-2.4,10.9-4.1c2.7-1.3,5.6-2.5,8.6-4.2c3-1.5,6-3.4,9-5.5c3.1-1.9,6-4.5,9.1-6.8c2.7-2.8,5.8-5.2,8.2-8.3
				c2.5-3,5-6,6.8-9.4c1-1.7,2-3.2,2.8-4.9c0.7-1.7,1.5-3.4,2.1-5c1.6-3.2,2.3-6.6,3.1-9.7c0.9-3.1,1.2-6.1,1.4-8.9
				c0.2-2.8,0.7-5.2,0.5-7.5C123,102.7,122.9,100.7,122.8,99.1z"/>
		</g>
	</g>
</g>
</svg>
