<?xml version="1.0" encoding="utf-8"?>
<!-- Generator: Adobe Illustrator 23.0.1, SVG Export Plug-In . SVG Version: 6.00 Build 0)  -->
<svg version="1.1" id="Layer_1" xmlns="http://www.w3.org/2000/svg" xmlns:xlink="http://www.w3.org/1999/xlink" x="0px" y="0px"
	 viewBox="0 0 500 250" style="enable-background:new 0 0 500 250;" xml:space="preserve">
<style type="text/css">
	.st0{fill:none;}
</style>
<rect x="0" y="1.7" class="st0" width="500" height="250"/>
<g>
	<path d="M250.7,41.9c-34.9-0.8-64.3,27.9-64.9,63.3c-0.7,35.9,27.7,64.9,64,65.5c34.9,0.6,64-28.1,64.6-63.6
		C314.9,71.7,286.7,42.7,250.7,41.9z M271.5,131.2c-6.3,13.3-17.4,20.4-32,20.9c-13.3,0.4-23.8-5.4-31.7-16.6
		c3.6-2.4,6.9-4.7,10.6-7.1c4.8,6.6,11.2,10.4,19.3,10.7c5,0.2,9.8-1.2,14-4.1c10.2-7.2,12.4-17.7,6.6-32.5c3.4-2.2,6.9-4.4,10.9-7
		C276.2,107.3,277.3,119.2,271.5,131.2z M283.1,87.3c-12.7-11.6-23.3-13.6-33.5-6.4c-7.8,5.5-14.6,17.7-6.5,32.5
		c-3.6,2.3-7,4.5-10.4,6.6c-10.1-13.4-8.8-37.7,10.1-50.4c16.7-11.3,41.1-6.3,50.7,10.6C290,82.6,286.5,84.9,283.1,87.3z
		 M283.2,194.8c1,1,1.6,2.5,1.6,4.3c0,1.6-0.4,3.3-1.2,5c-0.8,1.7-1.8,3-3.1,3.8s-2.6,1.3-3.9,1.3c-1.7,0-3-0.5-4-1.6
		c-1-1.1-1.5-2.4-1.5-4c0-2.6,0.8-4.9,2.3-7.1c1.5-2.2,3.5-3.2,6-3.2C280.8,193.2,282.1,193.7,283.2,194.8z M239.1,194.8
		c1,1,1.5,2.5,1.5,4.3c0,1.6-0.4,3.3-1.2,5c-0.8,1.7-1.8,3-3.1,3.8c-1.2,0.8-2.5,1.3-3.9,1.3c-1.7,0-3-0.5-4-1.6
		c-1-1.1-1.5-2.4-1.5-4c0-2.6,0.8-4.9,2.3-7.1c1.5-2.2,3.5-3.2,6-3.2C236.7,193.2,238.1,193.7,239.1,194.8z M406.3,18.2H93.7
		c-4.7,0-8.5,3.8-8.5,8.5v196.6c0,4.7,3.8,8.5,8.5,8.5h312.5c4.7,0,8.5-3.8,8.5-8.5V26.7C414.7,22,410.9,18.2,406.3,18.2z
		 M206.9,197.1c0.5,0.4,1.8,1,3.6,1.8c2.8,1.1,4.6,2.1,5.4,2.8c1.1,1.1,1.7,2.4,1.7,4c0,2-0.9,3.8-2.6,5.2c-1.7,1.4-4.1,2.2-7.1,2.2
		c-2.1,0-3.9-0.3-5.4-1c-1.5-0.7-2.6-1.6-3.2-2.8c-0.6-1.2-0.9-2.5-0.9-4.1l4.8-0.2c0.1,1.4,0.3,2.4,0.8,2.9
		c0.7,0.8,2.1,1.2,4.1,1.2c1.6,0,2.8-0.3,3.6-0.8c0.7-0.5,1.1-1.2,1.1-2c0-0.7-0.3-1.3-0.9-1.7c-0.4-0.3-1.6-0.9-3.5-1.7
		c-1.9-0.8-3.3-1.4-4.1-1.9c-0.9-0.5-1.6-1.2-2.1-2c-0.5-0.8-0.7-1.8-0.7-2.9c0-1.9,0.7-3.5,2.2-4.8c1.5-1.3,3.6-1.9,6.4-1.9
		c2.9,0,5.1,0.6,6.6,1.9c1.6,1.3,2.4,3,2.6,5.1l-4.8,0.2c-0.1-1.1-0.5-1.9-1.3-2.5c-0.7-0.6-1.8-0.9-3.2-0.9c-1.4,0-2.4,0.2-3,0.7
		c-0.6,0.5-0.9,1.1-0.9,1.8C206.1,196.1,206.4,196.7,206.9,197.1z M243.8,206c-1.2,2.3-2.9,4-4.9,5.2c-2.1,1.2-4.4,1.8-7,1.8
		c-2.3,0-4.2-0.5-5.7-1.5c-1.5-1-2.6-2.2-3.3-3.6c-0.6-1.4-1-2.9-1-4.4c0-1.3,0.2-2.8,0.6-4.3c0.6-2,1.4-3.8,2.6-5.3
		c1.2-1.5,2.6-2.7,4.4-3.5c1.8-0.9,3.8-1.3,6-1.3c3,0,5.5,0.9,7.3,2.7c1.9,1.8,2.8,4.1,2.8,7C245.6,201.4,245,203.7,243.8,206z
		 M264.4,212.7H247l5.1-23h5l-4.2,19.2h12.4L264.4,212.7z M287.9,206c-1.2,2.3-2.8,4-4.9,5.2c-2.1,1.2-4.4,1.8-7,1.8
		c-2.3,0-4.2-0.5-5.7-1.5c-1.5-1-2.6-2.2-3.3-3.6c-0.6-1.4-1-2.9-1-4.4c0-1.3,0.2-2.8,0.6-4.3c0.6-2,1.4-3.8,2.6-5.3
		s2.6-2.7,4.4-3.5c1.8-0.9,3.8-1.3,6-1.3c3,0,5.5,0.9,7.3,2.7c1.9,1.8,2.8,4.1,2.8,7C289.7,201.4,289.1,203.7,287.9,206z M250,175.7
		c-37.8,0.3-69.4-31-69.5-69.1c-0.1-38.4,30.9-69.5,69.5-69.7c37.6-0.2,69.1,30.8,69.4,68.4C319.8,144.2,289,175.4,250,175.7z"/>
</g>
</svg>
