<?xml version="1.0" encoding="utf-8"?>
<!-- Generator: Adobe Illustrator 23.0.1, SVG Export Plug-In . SVG Version: 6.00 Build 0)  -->
<svg version="1.1" id="Layer_1" xmlns="http://www.w3.org/2000/svg" xmlns:xlink="http://www.w3.org/1999/xlink" x="0px" y="0px"
	 viewBox="0 0 500 250" style="enable-background:new 0 0 500 250;" xml:space="preserve">
<style type="text/css">
	.st0{fill:none;}
	.st1{fill:#D70D0D;}
	.st2{fill:#FFFFFF;}
	.st3{fill:#F00F0F;}
</style>
<rect x="-0.6" y="0.7" class="st0" width="500" height="250"/>
<g>
	<ellipse class="st1" cx="57.3" cy="125.8" rx="45.9" ry="47.2"/>
	<path class="st2" d="M29.1,122.7c0,0,0-0.6,0-0.9c0-0.2,0-0.5,0-0.9v-0.4v-2.1v-3v-3.5v-2.4v-1.5v-1.1c0-0.6-0.2-1.2-1-1.2
		c-1.1,0-3.8,0-3.8,0v-1.2h6.2h4.2c1.4,0,2.8,0,4.1,0c1.6,0.1,2.8,0.4,3.7,0.6c1.4,0.4,2.2,1,2.5,1.1c0.6,0.4,1,0.7,1.3,1
		c0.4,0.4,0.8,0.8,1.2,1.3c0,0,0.5,0.7,1,1.4c1.4,2.3,1.2,5.1,1.2,5.1c0,0.5-0.2,3.6-2.4,5.8c-0.9,1-1.8,1.5-2.3,1.7
		c-0.9,0.5-1.7,0.7-2.3,1c-0.4,0.1-1.2,0.4-2.5,0.6c-3.7,0.6-9.2,0.4-9.2,0.4c-8.1,0-11.4-1-13.7-2c0,0,2.8,0.6,6.8,0.9
		c1.5,0.1,3.2,0.1,6.9,0c3.5-0.1,4.6-0.4,5.6-0.6c0.4-0.1,1.7-0.4,3-1c1-0.4,2.9-1.3,4.2-3.3c1.5-2.4,1.6-5.5,0.4-7.8
		c-0.2-0.4-0.7-1.4-1.8-2.3c-0.5-0.4-1.2-0.8-2.5-1.1c-2.3-0.6-4.7-0.7-6.2-0.2c-0.8,0.3-1.3,0.6-1.5,1.1c-0.1,0.3-0.1,1.3-0.1,1.4
		c0,3.3,0,9.1,0,11.2v1c0,0.1,0,0.4,0,0.4s0,0.1,0,0.1c0,0.1,0,0.1,0,0.1L29.1,122.7z"/>
	<path class="st2" d="M87.2,105.6c-0.6,0-0.8,0.4-0.8,1c0,1.1,0,4.8,0,4.8s0,13,0,19.5v5.1v5.1v3c0,0,0,0.2,0.1,0.4s0.3,0.1,0.4,0.1
		c1,0,1.9,0,2.9,0c0,0.4,0,0.9,0,1.4H79.7v-1.4h0.8h1.8c0,0,0.2,0,0.4-0.2c0.1-0.1,0.1-0.4,0.1-0.4c0-10,0.1-20.5,0.1-30.5L70,145.8
		c-4.6-11-9-21.9-13.7-32.9c0,10.1-0.2,20.3-0.2,30.4c0,0.3,0,0.5,0,0.6s0.1,0.3,0.1,0.3s0.1,0,0.1,0c0,0,1.4,0,1.5,0
		c0.5,0,1.1,0,1.6,0v1.6h-2.8c-2.3,0-3.9,0-6.1,0c0-0.5,0-1.1,0-1.6c0.5,0,0.5,0,1.1,0c0.4,0,2.5,0,2.5,0s0-37,0-37.4
		c0-0.5-0.3-1.2-1-1.2c-0.6,0-2.7,0-2.7,0v-1.2h6.8l13.4,34.4l13.1-34.4h6.3v1.2"/>
	<path class="st2" d="M25.5,145.2v-1.1c0,0,2.1,0,3.1,0c0.3,0,0.5-0.2,0.5-0.6c0-0.6,0-1.6,0-1.6c0-4.8,0-9.5,0-14.3
		c0-0.4,0-0.8,0-1.2c0-0.1,0-0.2,0-0.4c0-0.1,0-0.9,0-0.9l3.1,0.1v1.4v9.5c0,3.9,0,5.7,0,7.5c0,0.3,0.1,0.6,0.5,0.6
		c0.7,0,3.3,0,3.3,0v1C36,145.2,25.8,145.2,25.5,145.2z"/>
	<g>
		<path class="st3" d="M162.1,127.5c-1.7,0-1.8,0.1-1.8,1.8c0,6.6,3.8,12.2,10.8,12.2c2.1,0,4-0.6,6-3.2c0.6-0.2,1.1,0.2,1.2,0.8
			c-2.1,4.4-6.8,6-10.2,6c-4.2,0-7.5-1.8-9.4-4.3c-2-2.5-2.7-5.6-2.7-8.5c0-8,5.3-14.7,13.1-14.7c5.6,0,9.2,3.8,9.2,7.7
			c0,0.9-0.1,1.4-0.3,1.7c-0.2,0.4-1.1,0.5-3.8,0.5L162.1,127.5L162.1,127.5z M166.1,125.6c4.8,0,6.2-0.3,6.8-0.6
			c0.2-0.1,0.4-0.4,0.4-1.2c0-1.8-1.2-4.1-5-4.1c-3.8,0-7.2,3.5-7.2,5.7c0,0.1,0,0.3,0.5,0.3L166.1,125.6L166.1,125.6z"/>
		<path class="st3" d="M185.7,125.5c0-2.5,0-2.9-1.8-4l-0.6-0.4c-0.3-0.3-0.3-1,0.1-1.2c1.5-0.5,5-2.2,6.6-3.2
			c0.3,0.1,0.5,0.2,0.5,0.5v3.8c0,0.3,0.1,0.5,0.2,0.6c2.3-1.9,4.7-3.9,7.2-3.9c1.6,0,2.9,1,2.9,2.6c0,2.1-1.8,3-2.8,3
			c-0.6,0-1-0.2-1.4-0.5c-1-0.6-2-1-2.9-1c-1,0-1.8,0.6-2.3,1.3c-0.6,0.9-0.9,2.8-0.9,5v8.9c0,4.7,0.1,5.5,2.6,5.7l2.3,0.2
			c0.5,0.3,0.3,1.4-0.1,1.6c-3-0.1-5-0.2-7.2-0.2c-2.3,0-4.3,0.1-6,0.2c-0.5-0.2-0.6-1.3-0.1-1.6l1.2-0.2c2.4-0.4,2.5-1,2.5-5.7
			L185.7,125.5L185.7,125.5z"/>
		<path class="st3" d="M213.6,121.3c-1.1,0-1.1,0.1-1.1,1.9v13.7c0,4.7,0.1,5.5,2.5,5.7l2.3,0.2c0.5,0.3,0.3,1.4-0.1,1.6
			c-2.9-0.1-4.8-0.2-7.1-0.2c-2.3,0-4.3,0.1-6.2,0.2c-0.5-0.2-0.6-1.3-0.1-1.6l1.5-0.2c2.4-0.3,2.5-1,2.5-5.7v-13.7
			c0-1.8,0-1.9-1.3-1.9h-2.3c-0.4-0.3-0.5-0.9-0.2-1.2l2.8-1.4c0.5-0.3,1-0.6,1-1.3c0-3.8,0.5-7.8,2-11.4c1.6-3.7,5.3-8.3,11.7-8.3
			c3.5,0,6.4,1.6,6.4,3.9c0,1.3-1.2,2.3-2.5,2.3c-0.7,0-1.1-0.3-1.6-0.8c-1.2-1.4-3-2.9-5.2-2.9c-2,0-3.6,1.2-4.6,3.6
			c-1.2,3-1.4,7.7-1.4,11v1.9c0,1.8,0,1.8,1.1,1.8h7.4c0.7,0.6,0.3,2.5-0.5,2.7L213.6,121.3L213.6,121.3z"/>
		<path class="st3" d="M228.8,127.5c-1.7,0-1.8,0.1-1.8,1.8c0,6.6,3.8,12.2,10.8,12.2c2.1,0,4-0.6,6-3.2c0.6-0.2,1.1,0.2,1.2,0.8
			c-2.1,4.4-6.8,6-10.2,6c-4.2,0-7.5-1.8-9.4-4.3c-2-2.5-2.7-5.6-2.7-8.5c0-8,5.3-14.7,13.1-14.7c5.6,0,9.2,3.8,9.2,7.7
			c0,0.9-0.1,1.4-0.3,1.7c-0.2,0.4-1.1,0.5-3.8,0.5L228.8,127.5L228.8,127.5z M232.8,125.6c4.8,0,6.2-0.3,6.8-0.6
			c0.2-0.1,0.4-0.4,0.4-1.2c0-1.8-1.2-4.1-5-4.1c-3.8,0-7.2,3.5-7.2,5.7c0,0.1,0,0.3,0.5,0.3L232.8,125.6L232.8,125.6z"/>
		<path class="st3" d="M270,118.7c0.5,0.5,1,1.5,1,2.6c0,1.2-0.6,2.4-1.4,2.4c-0.3,0-0.6-0.1-0.9-0.5c-1.4-1.8-3.8-3.5-6.5-3.5
			c-4.5,0-9,3.6-9,10.5c0,5.1,3.5,11.1,10.5,11.1c3.8,0,5.7-1.7,7.2-3.9c0.5-0.1,1.1,0.3,1.2,0.9c-2.2,4.8-7.1,6.6-10.9,6.6
			c-3.5,0-6.6-1.1-8.9-3.3c-2.3-2.2-3.8-5.4-3.8-9.6c0-7,5-14.5,15.7-14.5C265.7,117.6,268.2,117.9,270,118.7z"/>
		<path class="st3" d="M283.8,121.3c-1.1,0-1.2,0.2-1.2,1.6V135c0,3.8,0.5,7.2,4.8,7.2c0.6,0,1.2-0.1,1.8-0.3
			c0.6-0.2,1.4-0.9,1.6-0.9c0.5,0,0.8,0.7,0.6,1.1c-1.2,1.4-3.5,3-6.8,3c-5.6,0-6.8-3.1-6.8-7v-14.9c0-1.8-0.1-1.9-1.4-1.9h-1.8
			c-0.4-0.3-0.5-1-0.2-1.4c1.9-0.6,3.5-1.4,4.2-2c0.9-0.8,2.1-2.5,2.7-3.8c0.3-0.1,1.1-0.1,1.4,0.3v2.9c0,1.2,0.1,1.2,1.2,1.2h7.2
			c0.8,0.6,0.6,2.3,0.1,2.7L283.8,121.3L283.8,121.3z"/>
		<path class="st3" d="M333.7,126.8c1.5,3,2.9,6,4.5,8.9h0.1c1.8-3,3.4-6.5,5-9.8l6.1-12.4c2.9-5.9,4.8-9.5,5-12.5
			c2.2,0.2,3.6,0.2,4.9,0.2c1.6,0,3.8-0.1,5.8-0.2c0.4,0.3,0.4,1.4,0.1,1.6l-1.4,0.1c-4.1,0.4-4.6,1.6-4.5,6.2
			c0.1,6.9,0.2,18.9,0.7,28.3c0.2,3.3,0.1,5,3.2,5.3l2.1,0.2c0.4,0.4,0.3,1.4-0.1,1.6c-2.7-0.1-5.3-0.2-7.7-0.2
			c-2.3,0-5.2,0.1-7.9,0.2c-0.5-0.3-0.5-1.2-0.1-1.6l1.9-0.2c3.2-0.3,3.2-1.4,3.2-5.5l-0.2-27.1h-0.1c-0.5,0.7-2.9,5.9-4.2,8.5
			l-5.8,11.4c-2.9,5.7-5.9,11.8-7,14.8c-0.1,0.2-0.4,0.3-0.6,0.3c-0.1,0-0.5-0.1-0.6-0.3c-1.1-3.5-4.2-9.8-5.7-13l-5.9-12.5
			c-1.4-3-2.7-6.4-4.2-9.4H320c-0.3,4-0.5,7.8-0.6,11.6c-0.2,4-0.5,9.8-0.5,15.3c0,4.8,0.4,5.9,2.9,6l2.5,0.2
			c0.5,0.4,0.4,1.4-0.1,1.6c-2.2-0.1-4.7-0.2-7.2-0.2c-2.1,0-4.4,0.1-6.6,0.2c-0.4-0.3-0.5-1.3-0.1-1.6l1.4-0.2
			c2.7-0.4,3.6-0.8,4-5.3c0.4-4.3,0.7-7.9,1.1-14.3c0.3-5.4,0.6-10.9,0.7-14.5c0.1-4.1-0.4-5.1-4.4-5.6l-1-0.1
			c-0.3-0.4-0.3-1.4,0.3-1.6c2,0.1,3.5,0.2,5.1,0.2c1.5,0,3.3,0,5.4-0.2c-0.3,2.5,1.4,6.6,3.4,10.7L333.7,126.8z"/>
		<path class="st3" d="M395.5,131.1c0,8.1-5.6,14-13.7,14c-7.5,0-13.3-5.3-13.3-13.4c0-8.2,6.2-14,13.9-14
			C389.5,117.6,395.5,123.1,395.5,131.1z M381.5,119.6c-4.3,0-7.5,4.1-7.5,11.3c0,5.9,2.7,12.3,8.4,12.3c5.7,0,7.5-6,7.5-11
			C389.9,126.6,387.6,119.6,381.5,119.6z"/>
		<path class="st3" d="M404.1,125.5c0-2.5,0-2.9-1.8-4l-0.6-0.4c-0.3-0.3-0.3-1,0.1-1.2c1.5-0.5,5.2-2.2,6.5-3.2
			c0.3,0,0.6,0.1,0.7,0.5c-0.1,1.5-0.1,2.5-0.1,3c0,0.4,0.3,0.7,0.7,0.7c2.7-1.7,5.8-3.3,9.1-3.3c5.4,0,7.6,3.7,7.6,8.1v11.2
			c0,4.7,0.1,5.3,2.5,5.7l1.4,0.2c0.5,0.3,0.3,1.4-0.1,1.6c-2-0.1-3.8-0.2-6.1-0.2c-2.3,0-4.3,0.1-6,0.2c-0.5-0.2-0.6-1.3-0.1-1.6
			l1.2-0.2c2.4-0.4,2.5-1,2.5-5.7v-9.7c0-3.7-1.7-6.5-6.1-6.5c-2.5,0-4.6,1-5.5,2.3c-0.9,1.1-1,2-1,3.9v9.9c0,4.7,0.1,5.3,2.5,5.7
			l1.2,0.2c0.5,0.3,0.3,1.4-0.1,1.6c-1.8-0.1-3.6-0.2-5.9-0.2c-2.3,0-4.3,0.1-6.1,0.2c-0.5-0.2-0.6-1.3-0.1-1.6l1.4-0.2
			c2.4-0.3,2.5-1,2.5-5.7L404.1,125.5L404.1,125.5z"/>
		<path class="st3" d="M440.3,127.5c-1.7,0-1.8,0.1-1.8,1.8c0,6.6,3.8,12.2,10.8,12.2c2.1,0,4-0.6,6-3.2c0.6-0.2,1.1,0.2,1.2,0.8
			c-2.1,4.4-6.8,6-10.2,6c-4.2,0-7.5-1.8-9.4-4.3c-2-2.5-2.7-5.6-2.7-8.5c0-8,5.3-14.7,13.1-14.7c5.6,0,9.2,3.8,9.2,7.7
			c0,0.9-0.1,1.4-0.3,1.7c-0.2,0.4-1.1,0.5-3.8,0.5L440.3,127.5L440.3,127.5z M444.4,125.6c4.8,0,6.2-0.3,6.8-0.6
			c0.2-0.1,0.4-0.4,0.4-1.2c0-1.8-1.2-4.1-5-4.1c-3.8,0-7.2,3.5-7.2,5.7c0,0.1,0,0.3,0.5,0.3L444.4,125.6L444.4,125.6z"/>
		<path class="st3" d="M459.2,157.6c0-1.8,1.2-2.6,2.6-2.6h1.2c1,0,1.7-0.5,2.1-1.2c1.9-2.9,3.2-5.7,3.8-7.2
			c0.2-0.5,0.6-1.9,0.6-2.8c0-1.3-0.3-2.1-1.1-4.5l-5-13.9c-1.1-3-1.6-4.6-3.8-5.1l-1.6-0.3c-0.4-0.3-0.3-1.4,0.2-1.6
			c2.1,0.1,4,0.2,6.2,0.2c1.8,0,3.6-0.1,5.7-0.2c0.5,0.2,0.6,1.3,0.1,1.6l-1.6,0.3c-0.9,0.2-1.4,0.4-1.4,0.9c0,0.8,1.5,5,1.9,6.1
			l2.1,6c0.4,1,1.6,4.5,1.9,4.6c0.2-0.1,1.2-2.1,2.4-4.8l2.2-5.1c1.4-3.4,2.3-5.8,2.3-6.5c0-0.5-0.4-0.9-1.6-1.1l-2-0.3
			c-0.5-0.3-0.4-1.4,0.1-1.6c2.1,0.1,4,0.2,5.7,0.2c1.6,0,3.1-0.1,5-0.2c0.5,0.3,0.6,1.2,0.1,1.6l-1.1,0.2c-2.1,0.4-3.3,2.3-5.5,6.9
			l-3.6,7.5c-2.1,4.4-7.5,15.7-10.7,22.8c-1.1,2.5-2.7,3-4.2,3C460.2,160.4,459.2,159.2,459.2,157.6z"/>
		<path class="st3" d="M141.8,100.5c-0.5,0-2.9,0-4.4,0c0,0,0,0-0.1,0c-0.3,0-0.7,0-1,0l0,0l0,0c-4.9,0-8.7,0.1-11.9,0.5
			c-0.5,0.3-0.6,1.2-0.1,1.6l2.3,0.3c2.9,0.3,3,1.4,3,7v13.5c0.7,0,1.6,0,2.9-0.1c1,0,1.8-0.1,2.4-0.2v-18.2c0-2.1,0.1-2.3,3.5-2.3
			c6.8,0,10.5,4.1,10.5,10.4c0,4.2-1.4,7.5-5,9.4c-0.1,0-0.2,0.1-0.3,0.1c-1.4,0.7-3,1.1-3.5,1.2c-1.2,0.3-2.4,0.5-6.5,0.7
			c-4.3,0.2-6.3,0.1-8,0c-4.6-0.3-7.9-1.1-7.9-1.1c2.6,1.2,6.5,2.5,15.9,2.5c0,0,6.3,0.3,10.6-0.5c1.5-0.3,2.5-0.5,3-0.7
			c0.8-0.3,1.7-0.5,2.7-1.2c0.5-0.3,1.6-1,2.6-2.2c2.5-2.9,2.8-6.7,2.8-7.4C155.5,103.6,146.2,100.5,141.8,100.5z"/>
		<g>
			<path class="st3" d="M141.1,142.7l-1.8-0.2c-4.2-0.5-4.3-1.3-4.3-8.1v-7.7c-0.8,0.1-1.8,0.1-3,0.1c-1,0-1.8-0.1-2.3-0.1v7.7
				c0,6.8-0.1,7.6-3.9,8.1l-1.4,0.2c-0.4,0.4-0.3,1.4,0.1,1.6c2.9-0.1,5.2-0.2,7.9-0.2c2.6,0,4.7,0.1,8.5,0.2
				C141.4,144.2,141.5,143.1,141.1,142.7z"/>
		</g>
	</g>
</g>
</svg>
