<?xml version="1.0" encoding="utf-8"?>
<!-- Generator: Adobe Illustrator 23.0.1, SVG Export Plug-In . SVG Version: 6.00 Build 0)  -->
<svg version="1.1" id="Layer_1" xmlns="http://www.w3.org/2000/svg" xmlns:xlink="http://www.w3.org/1999/xlink" x="0px" y="0px"
	 viewBox="0 0 500 250" style="enable-background:new 0 0 500 250;" xml:space="preserve">
<style type="text/css">
	.st0{fill:none;}
	.st1{fill:#0073BC;}
	.st2{fill:#007CC4;}
	.st3{fill:#0093D8;}
</style>
<rect x="-0.1" y="0.8" class="st0" width="500" height="250"/>
<g>
	<path class="st1" d="M270.5,193.9c-3.4-1.3-5.9-3.3-7.6-6.4c-1.7-2.8-1.8-3.1-1.9-14l-0.3-11.2l-1.6,0.4
		c-3.1,0.9-13.6,0.4-17.4-0.7c-6.1-1.8-11.7-5.1-16.3-9.6l-4-4.1l-0.4,4.1c-0.4,5.3-2.5,9.1-6.4,11.6c-5.1,3.3-11,3.1-16.3-0.4
		l-3-2.1l-5,1c-14.9,3.1-30.5-3.7-38.7-16.7l-2.5-3.8l-2.6,4c-12.9,20.1-41.2,23.1-58,6.4l-4-4.1l-0.3,4.1
		c-0.4,5.3-2.5,9.1-6.4,11.6c-5.1,3.3-11,3.1-16.2-0.4l-3.1-2.1l-4.9,1c-18.1,3.7-36.2-6.9-42.6-24.7c-1.1-3.4-1.3-5.1-1.3-12.2
		s0.1-8.8,1.3-12.3c6.4-17.9,24.5-28.4,42.8-24.7c7.6,1.5,13.4,4.6,19,10.2l4.7,4.6V85.7c0-19.3,0.1-20,3.4-23.9
		c6.4-7.6,18.9-5.9,23.6,3.2c1.2,2.2,1.3,3.7,1.5,13.3l0.3,10.7l2.9-0.4c10.7-1.8,22.6,1.8,30.8,9.2c2.2,2.1,5.1,5.5,6.5,7.6l2.5,4
		l2.4-3.8c10.2-16.2,31.1-22,48.4-13.5c5.4,2.6,11.5,8.2,14.8,13.4l2.6,4l2.4-3.8c10.2-16.2,31.1-22,48.4-13.5
		c5.4,2.6,11.5,8.2,14.8,13.4l2.5,4l3.1-4.6c14.8-22.3,48.1-22,62.7,0.6l2.5,4l3-4.6c1.8-2.5,4.4-5.8,6.2-7.3
		c14.3-12.5,36.1-12.3,50,0.4l4,3.5l0.4-3.1c1.2-9.2,9.4-15.1,18-12.7c1.3,0.4,3.3,1.3,4.6,2.2c2.2,1.5,2.4,1.5,6.6,0.9
		c17.6-3,35.1,7.6,41.3,25c1.2,3.4,1.4,5.1,1.4,12.2c0,7.1-0.2,8.8-1.4,12.2c-7.7,21.7-31.9,31.6-52.5,21.5
		c-4.4-2.2-11.6-8.4-14.3-12.4l-1.1-1.5l-1.1,1.5c-2,3.1-7,8-10.4,10.2c-1.9,1.2-5.7,3.1-8.7,4.1c-4.5,1.6-6.1,1.8-11.9,1.8
		c-4.8,0-7.8-0.3-10.4-1.1c-8.8-2.6-16.1-7.9-21-15.2l-3.1-4.6l-2.5,3.9c-4.8,7.5-12.2,13.1-20.8,15.7c-5.9,1.8-15.5,1.9-21.1,0.3
		c-6.1-1.9-11.7-5.2-16.3-9.7l-4.1-4.1v17.2c-0.1,18.4-0.3,19.9-3.3,23.9C283.1,193.5,275.3,195.7,270.5,193.9L270.5,193.9
		L270.5,193.9z M280,185.7c2.8-2.5,2.9-3.4,2.9-33.3s-0.3-33-3.1-39.3c-4.2-9.4-13.4-16.3-24.2-17.8c-17.6-2.5-34.3,12.3-34.3,30.4
		c0,11.5,6.8,22.3,17.3,27.4c9.2,4.5,16.7,4.4,28-0.3c1-0.4,1,0.4,1,14c0,15.2,0.2,16.3,2.9,18.9C273,188,277.3,188,280,185.7
		L280,185.7L280,185.7z M74.3,158.1c3.3-2.4,3.6-4,3.6-19.2c0-7.7-0.2-15.5-0.5-17.4c-2.3-13.9-12.8-24.2-26.7-26.2
		c-17.6-2.5-34.4,12.4-34.4,30.4c0,11.4,6.9,22.3,17.3,27.4c8.3,4.1,16.4,4.4,25,0.9c3.6-1.4,4.6-1.4,4.6,0c0,1.3,2.5,4,4.5,5
		C69.9,160,72.1,159.6,74.3,158.1z M210.9,158.1c3.3-2.4,3.6-4,3.6-19.2c0-7.7-0.3-15.5-0.5-17.4c-2.3-13.9-12.8-24.2-26.7-26.2
		c-17.6-2.5-34.4,12.4-34.4,30.4c0,11.4,6.9,22.3,17.3,27.4c8.3,4.1,16.4,4.4,25,0.9c3.6-1.4,4.6-1.4,4.6,0c0,1.3,2.5,4,4.5,5
		C206.5,160,208.7,159.6,210.9,158.1z M123.7,155.2c11.6-3.2,20.1-13,22.1-25.6c1.5-10.2-3.5-22-12.3-28.6s-20.6-7.9-29.9-3.6
		c-1.8,0.9-3.5,1.5-3.8,1.5s-0.6-6.7-0.6-14.8c0-14.5,0-14.9-1.3-16.9c-0.9-1.3-2.2-2.3-3.7-2.9c-2-0.7-2.6-0.6-5,0.4
		c-4.7,2.1-4.6,1-4.6,34.4c0,19.2,0.3,30.7,0.7,32.8c1.9,8.9,8.3,17.1,16.7,21.3C109.3,156.9,115.7,157.5,123.7,155.2L123.7,155.2z
		 M328.6,155.2c4.3-1.2,6.3-2.2,10.3-5.2c8.3-6.3,13.3-18.1,11.7-28.2c-2.2-14.3-12.2-24.2-26.2-26.5c-14.6-2.4-30,8.1-33.8,22.9
		c-3.5,13.8,3.3,28.6,16.4,35C314.2,156.7,320.7,157.4,328.6,155.2L328.6,155.2z M396.9,155.2c11.6-3.2,19.9-12.9,22-25.5
		c1.7-10.4-3.3-22.1-12.2-28.6c-12.3-9-28.2-7.9-39.3,2.6c-15.4,14.9-11.4,40,7.9,49.5C382.4,156.7,388.9,157.4,396.9,155.2z
		 M463.5,154.4c11.9-4.4,20.1-16.3,20.1-28.7c0-11.4-6.9-22.4-17.3-27.5c-8-3.9-15.5-4.4-23.6-1.4c-2.5,0.9-2.8,0.9-3.3-0.1
		c-1.1-1.9-3.9-4.4-5.5-4.7c-2.5-0.4-5.5,0.7-7.2,2.8c-1.5,1.8-1.5,2-1.5,11.9c0,10.8,0.4,12.6,3.3,14.5c1.8,1.2,5.6,1.3,7.5,0.2
		c0.7-0.4,2.4-2.3,3.7-4.1c3.2-4.5,6.9-6.8,12-7.2c9.8-0.8,17.2,6.2,17.1,16c-0.2,8.4-6,14.6-14.4,15.4c-6.1,0.6-11.6-2.2-14.9-7.4
		c-2-3.1-4.2-4.6-7-4.6c-5.8,0-9.1,6.4-6,11.6c8,13.2,23.3,18.7,37.2,13.4L463.5,154.4L463.5,154.4z M456.6,133.7
		c3.3-1.5,5.1-4.3,5.1-7.9c0-3.8-1.8-6.5-5.3-8.1c-4.7-2.1-7.6-0.9-11.9,4.7l-2.5,3.4l2.6,3.5c2.6,3.5,5.8,5.6,8.1,5.6
		C453.4,134.9,455.2,134.4,456.6,133.7L456.6,133.7L456.6,133.7z M247.5,141.1c-5.1-1.6-9.2-5.7-10.6-10.5c-1.2-4-1.2-5.6,0-9.6
		c2.5-8.3,11.8-13,20.1-10.2c14.1,4.6,14.3,25.2,0.4,29.9C254.5,141.7,250.1,141.8,247.5,141.1L247.5,141.1L247.5,141.1z
		 M256.6,133.2c5.4-4,5.6-10.1,0.6-14.3c-2.6-2.3-5.4-2.6-8.8-1.1c-7,3.1-7.1,12.8-0.2,16c3,1.4,6,1.2,8.3-0.4
		C256.6,133.3,256.6,133.2,256.6,133.2z M41.7,140.7c-7.5-2.5-11.7-10.4-10.1-18.2c2.3-11.3,15.9-16.3,25.1-9.2
		c5.9,4.5,7.8,13.3,4.3,19.9C57.4,140.2,49.1,143.5,41.7,140.7L41.7,140.7z M51.7,133.2c5.4-4,5.6-10.1,0.6-14.3
		c-2.6-2.3-5.4-2.6-8.8-1.1c-7,3.1-7.1,12.8-0.2,16c3,1.4,6,1.2,8.3-0.4C51.7,133.4,51.7,133.2,51.7,133.2z M179.2,141.2
		c-4.7-1.4-9-5.4-10.5-9.6c-1-3.1-1-9.1,0.2-11.9c2.3-5.4,7.4-9.1,13.3-9.6c9.5-0.9,17,6.1,17,15.8c0,9-6.8,15.8-15.8,15.7
		C181.9,141.6,179.9,141.3,179.2,141.2C179.1,141.1,179.2,141.2,179.2,141.2z M188.3,133.2c5.4-4,5.6-10.1,0.6-14.3
		c-2.6-2.3-5.4-2.6-8.8-1.1c-7,3.1-7.1,12.8-0.2,16c3,1.4,6,1.2,8.3-0.4C188.3,133.4,188.3,133.2,188.3,133.2z M110,140.7
		c-9.8-3.4-13.7-16-7.5-24.2c7.3-9.6,21.3-8.6,26.8,1.9c3.3,6.5,1.8,15.2-3.7,19.6C121.6,141.5,115.1,142.6,110,140.7L110,140.7z
		 M120,133.2c5.4-4,5.6-10.1,0.6-14.3c-2.6-2.3-5.4-2.6-8.8-1.1c-7,3.1-7.1,12.8-0.2,16c3,1.4,6,1.2,8.3-0.4
		C120,133.4,120,133.2,120,133.2z M315.8,141.2c-5.1-1.6-9.2-5.7-10.6-10.5c-1.2-4-1.2-5.6,0-9.6c3.8-13,21.8-14.9,28.7-3.3
		c1.5,2.5,1.8,3.5,1.8,8s-0.2,5.5-1.8,8c-1.9,3.4-4.6,5.6-8.3,6.9C322.8,141.7,318.3,141.8,315.8,141.2
		C315.8,141.1,315.8,141.2,315.8,141.2z M324.9,133.2c2.9-2.1,4-4.3,4-7.5c0-5-3.8-8.8-8.8-8.8c-4.9,0.1-8.8,4-8.8,8.9
		c0,6.7,8.4,11.3,13.6,7.5V133.2z M384.1,141.2c-6.6-2-11.6-8.7-11.6-15.4c0-3.1,1.9-7.9,4.2-10.5c7.2-8,20.1-6.8,25.6,2.5
		c1.5,2.5,1.8,3.5,1.8,8c0,4.5-0.2,5.5-1.8,7.9C398.7,139.9,390.8,143.1,384.1,141.2L384.1,141.2L384.1,141.2z M393.2,133.2
		c2.9-2.1,4-4.3,4-7.5c0-6.9-7.9-11.3-13.5-7.4c-5.7,4.1-5.1,12,1.1,15.2c3.1,1.6,6,1.4,8.3-0.4L393.2,133.2L393.2,133.2z"/>
	<path class="st2" d="M18.2,150c-3.8-4.7-6.4-10-7.7-15.5c-1.3-5.8-0.9-15.6,0.9-21.1c6.1-17.8,24.5-28.3,42.8-24.7
		c7.6,1.5,13.4,4.6,19,10.2l4.7,4.6V85.7c0-19.3,0.1-20,3.4-23.9c6.4-7.6,18.9-5.9,23.6,3.2c1.2,2.2,1.3,3.7,1.5,13.3l0.3,10.7
		l2.9-0.4c10.7-1.8,22.6,1.8,30.8,9.2c2.2,2.1,5.1,5.5,6.5,7.6l2.5,4l2.4-3.8c10.2-16.2,31.1-22,48.4-13.5
		c5.4,2.6,11.5,8.2,14.8,13.4l2.6,4l2.4-3.8c10.2-16.2,31.1-22,48.4-13.5c5.4,2.6,11.6,8.2,14.9,13.4l2.5,4l3.1-4.6
		c14.8-22.3,48.1-22,62.7,0.6l2.5,4l3-4.6c1.8-2.5,4.4-5.8,6.2-7.3c14.3-12.5,36.1-12.3,50,0.4l4,3.5l0.4-3.1
		c1.1-9.2,9.4-15.1,18-12.7c1.3,0.4,3.3,1.3,4.6,2.2c2.2,1.6,2.4,1.6,6.6,0.9c17.6-3,35.1,7.6,41.3,25c1.2,3.4,1.4,5.1,1.4,12.2
		c0,9.2-1,13.2-4.8,19.5c-1.9,3.2-7.6,9.8-6.6,7.9c0.3-0.7,0.2-0.8-0.4-0.1c-0.5,0.5-2.7,0.8-6.3,0.7c-4.7,0-5.3-0.1-4-0.7
		c0.9-0.4,3.6-2.8,6.1-5.3c5-5,7.8-9.8,9-15.8c2.8-13.5-4.1-27.5-16.7-33.6c-7.9-4-15.4-4.4-23.5-1.5c-2.5,0.9-2.8,0.9-3.3-0.1
		c-1.1-1.9-3.9-4.4-5.5-4.6c-2.5-0.5-5.5,0.7-7.2,2.6c-1.5,1.8-1.5,2-1.5,11.9c0,10.9,0.4,12.6,3.3,14.6c1.8,1.1,5.6,1.3,7.5,0.2
		c0.7-0.4,2.4-2.3,3.7-4.1c3.2-4.5,6.9-6.8,12-7.2c9.8-0.8,17.2,6.2,17.1,16c-0.2,8.4-6,14.6-14.4,15.4c-6.1,0.6-11.6-2.2-14.9-7.4
		c-2.8-4.4-6.9-5.8-10.6-3.6c-4.1,2.5-4.7,7-1.5,11.9c2.3,3.4,9.2,10.4,9.8,9.8c0.2-0.2,0.3,0,0.3,0.3s0.4,0.8,1.1,0.9
		c0.6,0.2-1.5,0.4-4.7,0.4h-5.7l-2.5-2.5c-1.4-1.5-3.1-3.3-3.6-4.2l-1.1-1.5l-1.1,1.5c-0.5,0.9-2.1,2.6-3.5,4.1l-2.6,2.6h-5.7
		c-4.7-0.1-5.4-0.2-4.4-0.8c2.9-1.8,7.4-5.9,9.8-9.2c8.1-10.8,8-25.3-0.1-36.3c-11-14.9-32.1-16.7-45.7-3.7
		c-9.8,9.5-12.3,23.7-6,36.1c1.9,3.6,11.4,13.5,12.6,12.9c0.4-0.3,0.5-0.2,0.3,0.2c-0.6,1.1-9.7,1-10.7,0c-0.7-0.6-0.7-0.6-0.4,0.2
		c1.4,2.5-3.2-2.6-5.7-6.6l-2.9-4.3l-2.5,3.9c-1.4,2.2-3.5,4.8-4.8,5.8c-2.1,1.8-2.5,1.8-7.6,1.8c-3.4,0-5.3-0.3-5-0.6
		c0.2-0.4,0.8-0.6,1.2-0.6c1.3,0,9-7.8,10.9-11c8-13.8,4.6-31.2-8.1-40.5c-12.6-9.3-29.5-7.7-40.2,3.6c-2,2.2-4.4,5.4-5.3,7
		c-4.5,8.8-4.4,19.8,0.2,28.3c2,3.7,8.8,11,11.1,12.1c1,0.4,1.6,0.9,1.4,1.2c-0.5,0.8-9.7,0.5-10.5-0.3c-0.7-0.6-0.9-0.6-0.4,0.2
		c0.2,0.4-0.9-0.4-2.3-2.2l-2.8-2.9v1.9c0,3.4-0.4,3.9-3.7,3.9h-3V139c0-19.6-1.1-24.5-6.8-32.1c-4.7-6.2-12.2-10.5-20.4-11.7
		c-15.1-2.2-30.1,8.6-33.7,24.2c-1.6,6.9,0.2,16.3,4.2,22.6c2.2,3.4,7.3,8.5,9.8,9.9c1,0.5,1.7,1.1,1.4,1.3
		c-0.7,0.8-9.7,0.4-10.5-0.3c-0.6-0.6-0.7-0.6-0.4,0.2c0.3,0.4-0.7-0.4-2.2-2.2l-2.9-3l-0.1,2.4v3c0,0.3-1.4,0.4-3.3,0.4h-3.3v-14.5
		c0-7.9-0.3-16-0.6-17.8c-2.8-16.9-18.1-28.4-34.6-26.2c-6.4,0.9-13.2,4.5-17.7,9.4c-11.6,12.4-11.6,29.9,0.2,42.4
		c2.2,2.2,4.8,4.4,5.7,4.8c0.9,0.4,1.7,1,1.5,1.3c-0.5,0.9-9.7,0.7-10.5-0.2c-0.7-0.6-0.9-0.6-0.4,0.2c0.9,1.9-4.2-4.1-6.4-7.5
		l-2.3-3.6l-1.9,3.1c-1.3,2.1-2.9,4.1-4.6,5.9l-2.6,2.8l-5.7-0.1c-3.2,0-5.4-0.2-4.8-0.4c0.4-0.2,1.2-0.7,1.5-1.1
		c0.4-0.4,1.8-1.6,3.3-2.7c7.8-5.9,12.6-18,11.2-27.6c-2.3-14.1-12.4-24.3-26.4-26.6c-4.8-0.8-11.3,0.1-15.7,2.1
		c-1.8,0.9-3.5,1.5-3.8,1.5s-0.5-6.7-0.5-14.8c0-14.5,0-14.9-1.3-16.9c-0.9-1.3-2.2-2.3-3.8-2.9c-2-0.7-2.6-0.6-4.9,0.4
		c-4.7,2.1-4.6,1-4.6,34.4c0,31.8,0.1,33.5,3.2,39.9c2,4.3,8.6,11.8,11.4,12.9c1,0.4,1.7,1,1.5,1.3c-0.4,0.9-9.7,0.7-10.5-0.2
		c-0.7-0.6-0.8-0.6-0.4,0.2c0.3,0.4-0.8-0.4-2.3-2.2l-2.7-3v1.9c0,3.4-0.5,3.9-3.7,3.9h-3v-14.5c0-7.9-0.3-16-0.6-17.8
		c-2.8-16.9-18.1-28.4-34.6-26.2c-6.4,0.9-13.2,4.5-17.7,9.4c-11.6,12.4-11.6,29.9,0.2,42.4c2.2,2.3,4.8,4.4,5.7,4.8
		c0.9,0.4,1.7,1,1.5,1.3c-0.5,0.9-9.7,0.7-10.5-0.2c-0.7-0.6-0.9-0.6-0.4,0c1,1.8-0.4,0.4-3.3-3L18.2,150L18.2,150z M456.5,133.7
		c3.3-1.5,5.1-4.3,5.1-7.9c0-3.8-1.8-6.5-5.3-8.1c-4.7-2.1-7.7-0.9-11.9,4.7l-2.5,3.4l2.6,3.5c2.6,3.5,5.8,5.6,8.1,5.6
		C453.4,134.9,455.1,134.4,456.5,133.7L456.5,133.7L456.5,133.7z M41.7,140.7c-7.5-2.6-11.7-10.5-10.1-18.3
		c2.3-11.3,15.9-16.3,25.1-9.2c5.9,4.5,7.8,13.3,4.3,19.9C57.4,140.1,49.1,143.4,41.7,140.7L41.7,140.7z M51.7,133.2
		c5.4-4,5.6-10.2,0.6-14.4c-2.6-2.3-5.4-2.6-8.8-1.1c-7,3.1-7.1,12.8-0.2,16C46.4,135.2,49.3,134.9,51.7,133.2
		C51.7,133.3,51.7,133.2,51.7,133.2z M110,140.7c-9.9-3.5-13.7-16.1-7.5-24.3c7.2-9.5,21.2-8.6,26.7,1.9c3.4,6.5,1.8,15.2-3.6,19.6
		C121.6,141.4,115.1,142.6,110,140.7L110,140.7z M120,133.2c5.4-4,5.6-10.2,0.6-14.4c-2.6-2.3-5.4-2.6-8.8-1.1
		c-7,3.1-7.1,12.8-0.2,16C114.7,135.2,117.6,134.9,120,133.2C120,133.3,120,133.2,120,133.2z M179.2,141.1c-4.7-1.4-9-5.4-10.5-9.6
		c-1-3.1-1-9.1,0.2-11.9c2.3-5.4,7.4-9.1,13.3-9.6c9.5-0.9,17,6.1,17,15.8c0,9-6.8,15.8-15.8,15.7
		C181.9,141.5,179.9,141.2,179.2,141.1C179.1,141,179.2,141.1,179.2,141.1z M188.3,133.2c5.4-4,5.6-10.1,0.6-14.3
		c-2.6-2.3-5.4-2.6-8.8-1.1c-7,3.1-7.1,12.8-0.2,16c3,1.4,6,1.2,8.3-0.4C188.3,133.3,188.3,133.2,188.3,133.2z M247.5,141.1
		c-5.1-1.6-9.2-5.7-10.6-10.5c-1.2-4-1.2-5.6,0-9.6c2.5-8.3,11.8-13,20.1-10.2c14.1,4.6,14.3,25.2,0.4,29.9
		C254.5,141.7,250.1,141.8,247.5,141.1L247.5,141.1L247.5,141.1z M256.6,133.2c5.4-4,5.6-10.1,0.6-14.3c-2.6-2.3-5.4-2.6-8.8-1.1
		c-7,3.1-7.1,12.8-0.2,16c3,1.4,6,1.2,8.3-0.4C256.6,133.3,256.6,133.2,256.6,133.2z M315.8,141.1c-5.1-1.6-9.2-5.7-10.6-10.5
		c-1.2-4-1.2-5.6,0-9.6c3.8-13,21.8-14.9,28.7-3.3c1.5,2.5,1.8,3.5,1.8,8c0,4.5-0.2,5.5-1.8,8c-1.9,3.4-4.6,5.6-8.3,6.9
		C322.8,141.6,318.3,141.7,315.8,141.1L315.8,141.1z M324.9,133.2c2.9-2.1,4-4.3,4-7.5c0-5-3.8-8.8-8.8-8.8c-4.9,0.1-8.8,4-8.8,8.9
		c0,6.7,8.4,11.3,13.6,7.5V133.2z M384.1,141.1c-6.6-2-11.6-8.7-11.6-15.4c0-3.1,1.9-7.9,4.2-10.5c7.2-8,20.1-6.8,25.6,2.5
		c1.5,2.5,1.8,3.5,1.8,8c0,4.5-0.2,5.5-1.8,7.9C398.7,139.8,390.8,143,384.1,141.1L384.1,141.1L384.1,141.1z M393.2,133.2
		c2.9-2.1,4-4.3,4-7.5c0-6.9-7.9-11.3-13.5-7.4c-5.7,4.1-5.1,12,1.1,15.2c3.1,1.6,6,1.4,8.3-0.4L393.2,133.2L393.2,133.2z"/>
	<path class="st3" d="M402.3,132.2c0-0.9-0.4-1-3.3-0.9c-2.8,0.2-3.3,0-3-0.7c2-4.8,1.8-7.5-1.1-10.7c-3.5-4-8.6-4.3-12.4-0.7
		c-3.1,3.1-3.7,6.4-1.8,11c0.4,0.9,0,1.1-3.2,1.1c-2.1,0-3.9-0.3-4-0.5c-1-1.6-1.1-6.2-0.1-9.5c3.9-13.2,22-15.4,28.9-3.5
		c1.4,2.4,1.8,3.5,1.8,7.5c-0.1,4.3-0.5,7-1.3,7.8C402.5,133.2,402.4,132.8,402.3,132.2L402.3,132.2L402.3,132.2z M61.1,132
		c0.3-0.6-0.4-0.8-3.3-0.8h-3.7l1-1.8c2.5-4.8-1.1-11.6-6.7-12.7c-2.9-0.4-7.2,1.5-8.9,4.2c-1.2,1.9-1.4,6-0.5,9
		c0.2,0.7-0.4,0.9-3.4,0.9H32l-0.5-2.6c-1.4-7.5,3.8-15.7,11.4-17.8c7.9-2.2,16.7,2.5,19.3,10.3c0.9,2.7,0.4,10.2-0.6,11.3
		c-0.7,0.7-0.7,0.7-0.4,0.1C61.1,132.2,61.1,132,61.1,132z M236.6,129.9c-1-3.7-0.9-5.1,0.2-9c1.8-6,7.2-10.3,13.6-10.9
		c9.7-0.9,17.1,6.1,17.1,15.6c-0.1,5.7-0.3,5.8-4.7,5.8h-3.7l0.9-2c1.8-4,0.7-7.7-2.8-10.6c-2.6-2.3-5.4-2.6-8.8-1.1
		c-3.8,1.8-5.4,4.3-5.1,8.3c0.1,1.8,0.4,3.5,0.7,4.2c0.4,0.9,0.1,1.1-2.9,1.1c-2.2,0-3.5,0.3-3.6,0.7
		C237.5,132.5,237,131.5,236.6,129.9L236.6,129.9L236.6,129.9z M304.9,129.9c-1-3.7-0.9-5.1,0.2-9c3.8-13,22-14.9,28.7-3.3
		c1.4,2.5,1.8,3.5,1.7,7.5c-0.1,6.7,0.1,6.4-4.5,6.4h-4l1-2.1c1.3-2.5,1.4-4.3,0.3-6.9c-2.5-5.9-9.5-7.6-14.1-3.3
		c-3.2,3-3.7,6.3-1.8,10.9c0.4,0.9,0,1.1-2.9,1.1c-2.2,0-3.5,0.3-3.6,0.7C305.7,132.4,305.3,131.4,304.9,129.9L304.9,129.9
		L304.9,129.9z M350.2,131.9c0.8-1.3,0.9-6.4,0.3-10.3c-2.2-14-12.3-24-26.2-26.4c-9.2-1.4-19.3,2.2-26.2,9.6
		c-6.1,6.6-8.8,13.6-8.4,22.1l0.2,4.3h-7v-3.5c0-16.9-11.2-30.1-27.2-32.4c-9.2-1.3-19.1,2.2-25.7,9.3c-5.9,6.3-8.7,13.2-8.7,21.8
		v4.7h-6.7V128c0-17.3-11-30.5-27.2-32.7c-5.7-0.9-11.2,0.1-17,3c-10.9,5.4-17.7,16.7-17.3,28.8l0.2,3.8l-7.5,0.4l0.3-3.1
		c0.6-6.7-1.8-14.8-6.1-20.8c-8.3-11.2-24-15.6-36.1-10.1c-1.8,0.9-3.5,1.5-3.8,1.5c-0.3,0-0.5-6.7-0.5-14.8c0-14.5,0-14.9-1.3-16.9
		c-0.9-1.3-2.2-2.3-3.8-2.9c-2-0.7-2.6-0.6-4.9,0.4c-4.7,2.1-4.6,0.9-4.6,35.6v30.6l-6.7,0.4V128c0-17.3-11-30.5-27.2-32.8
		c-5.7-0.9-11.2,0.1-17,3C22.9,103.6,16,115,16.5,127.1l0.2,3.8l-6.9,0.4l0.2-6.9c0.2-5.3,0.6-7.9,1.6-11
		C17.7,95.6,35.9,85,54.3,88.7c7.6,1.5,13.4,4.6,19,10.2l4.7,4.6V85.7c0-19.3,0.1-20,3.4-23.9c6.4-7.6,18.9-5.9,23.6,3.2
		c1.2,2.2,1.3,3.7,1.5,13.3l0.3,10.7l2.9-0.4c10.7-1.8,22.6,1.8,30.8,9.2c2.2,2.1,5.1,5.5,6.5,7.6l2.6,4l2.4-3.8
		c10.2-16.2,31.1-22,48.4-13.5c5.4,2.6,11.5,8.2,14.8,13.4l2.6,4l2.4-3.8c10.2-16.2,31.1-22,48.4-13.5c5.4,2.6,11.6,8.2,14.9,13.4
		l2.5,4l3.1-4.6c14.8-22.3,48.1-22,62.7,0.6l2.5,4l3-4.6c1.8-2.5,4.4-5.8,6.2-7.3c14.3-12.5,36.1-12.3,50,0.4l4,3.5l0.4-3.1
		c1.1-9.2,9.4-15.1,18-12.7c1.3,0.4,3.3,1.3,4.6,2.2c2.2,1.6,2.4,1.6,6.6,0.9c17.6-3,35.2,7.8,41.3,25c1,3,1.4,5.7,1.6,10.8l0.2,6.9
		l-6.9-0.4l0.2-3.8c0.4-12-6.3-23.5-17.3-28.8c-8-4-15.5-4.4-23.6-1.5c-2.5,0.9-2.8,0.9-3.3-0.1c-1.1-1.9-3.9-4.4-5.5-4.6
		c-2.5-0.5-5.5,0.7-7.2,2.6c-1.5,1.8-1.5,2-1.5,11.9c0,10.9,0.4,12.6,3.3,14.6c1.8,1.1,5.6,1.3,7.5,0.2c0.7-0.4,2.4-2.2,3.7-4.1
		c3.2-4.5,6.9-6.8,12-7.1c3-0.3,4.8-0.1,6.9,0.7c3.9,1.4,7.8,5.3,9.1,8.7c1.2,3.1,1.4,10.1,0.4,11.2c-0.4,0.3-2.2,0.5-4,0.4
		c-2.6-0.1-3.3-0.4-3.1-1.1c0.2-0.5,0.4-2.3,0.4-4c0.4-4-1.2-6.7-5-8.3c-4.7-2.1-7.7-1-11.9,4.7l-2.4,3.3l1.9,2.5l1.9,2.6l-4.4,0.2
		c-3.1,0.1-4.7-0.1-5.6-0.8c-1.8-1.2-5.4-1.2-7,0c-0.7,0.5-2.5,0.9-5.1,0.9c-2.3,0-4.4,0.3-4.7,0.7c-0.4,0.4-0.4-0.3-0.1-2.6
		c1.7-9.8-3.6-21.8-12.3-28.2c-12.2-9-28.2-7.9-39.4,2.8c-6.5,6.2-9.7,14.2-9.2,23.1l0.2,4.3h-3.3c-1.9,0-3.8,0.4-4.2,0.9
		C350,132.6,349.9,132.5,350.2,131.9L350.2,131.9L350.2,131.9z M126.5,131.4c-3.3-0.2-3.5-0.3-3.1-1.5c1.5-4.8,0.9-7.8-2.5-10.8
		c-2.8-2.4-5.6-2.9-9-1.3c-3.8,1.8-5.4,4.4-5.1,8.3c0.1,1.8,0.3,3.5,0.4,4c0.2,0.7-0.4,1-3,1.1c-1.8,0.2-3.6,0-4-0.4
		c-0.9-1-0.7-8.6,0.4-11.1c2.3-5.4,7.4-9.1,13.2-9.6c6.8-0.6,12.4,2.5,15.5,8.3c1.4,2.6,1.8,4,1.7,7.3
		C130.9,131.4,130.7,131.6,126.5,131.4C126.5,131.4,126.5,131.4,126.5,131.4z M172.5,131.3c-4-0.4-4-0.4-4.4-2.5
		c-1.1-4.6,0.4-9.9,3.8-13.7c2.6-3,6.1-4.7,10.4-5.1c9.4-0.9,17,6.1,17,15.4c0,6.1-0.1,6.1-4.6,5.9l-4-0.3l0.9-1.7
		c2.5-4.8-1-11.4-6.6-12.6c-2.9-0.4-7.4,1.5-9,4.2c-1.4,2.5-1.6,6.6-0.3,9c0.6,1.1,0.9,1.8,0.9,1.8
		C176.5,131.7,174.6,131.5,172.5,131.3C172.4,131.4,172.5,131.3,172.5,131.3z"/>
</g>
</svg>
