<?xml version="1.0" encoding="utf-8"?>
<!-- Generator: Adobe Illustrator 23.0.1, SVG Export Plug-In . SVG Version: 6.00 Build 0)  -->
<svg version="1.1" id="Layer_1" xmlns="http://www.w3.org/2000/svg" xmlns:xlink="http://www.w3.org/1999/xlink" x="0px" y="0px"
	 viewBox="0 0 500 250" style="enable-background:new 0 0 500 250;" xml:space="preserve">
<style type="text/css">
	.st0{fill:none;}
	.st1{fill:#10298E;}
	.st2{fill:#FFBE00;}
</style>
<rect x="0" y="0" class="st0" width="500" height="250"/>
<g>
	<path id="path5689" class="st1" d="M116.5,101.2H83.7c0-5.4-0.6-9-1.9-10.9c-2-2.7-7.4-4.1-16.2-4.1c-8.6,0-14.3,0.8-17,2.4
		c-2.8,1.6-4.2,5-4.2,10.3c0,4.8,1.2,7.9,3.7,9.4c1.8,1.1,4.1,1.7,7,1.9l6.6,0.5c14.2,0.9,23.1,1.6,26.6,2c11.2,1.1,19.4,4.1,24.4,9
		c4,3.8,6.3,8.7,7.1,14.8c0.4,3.6,0.7,7.8,0.7,12.4c0,10.6-1,18.3-3,23.2c-3.7,9-11.9,14.7-24.7,17.1c-5.4,1-13.6,1.5-24.6,1.5
		c-18.4,0-31.2-1.1-38.5-3.3c-8.9-2.7-14.8-8.2-17.6-16.4c-1.6-4.6-2.4-12.2-2.4-22.9h32.9c0,1.2,0,2.1,0,2.7c0,5.7,1.6,9.4,4.9,11
		c2.3,1.1,5,1.7,8.2,1.8h12.1c6.2,0,10.1-0.3,11.8-1c3-1.2,5-3.1,6-5.7c0.5-1.6,0.8-3.7,0.8-6.3c0-5.8-2.1-9.3-6.3-10.6
		c-1.6-0.5-8.9-1.2-22-2.1c-10.5-0.8-17.8-1.5-21.9-2.2c-10.8-2-17.9-6.2-21.5-12.4C11.5,118,10,109.9,10,99.1
		c0-8.2,0.9-14.8,2.6-19.8c1.7-5,4.4-8.7,8.2-11.3c5.5-4,12.6-6.3,21.3-7c7.2-0.6,15.1-0.9,23.9-0.9c13.8,0,23.6,0.8,29.5,2.4
		c14.3,3.8,21.5,14.6,21.5,32.3C116.9,96.2,116.7,98.3,116.5,101.2"/>
	<path id="path5693" class="st1" d="M261.1,190.6V59.4h51.5h8.1h6.2c9,0,15.9,0.7,20.7,2.2c10.8,3.4,18.1,10.3,21.8,20.8
		c1.9,5.5,2.9,13.8,2.9,24.9c0,13.3-1.1,22.9-3.2,28.7c-4.2,11.5-12.9,18.2-26,19.9c-1.5,0.3-8.1,0.5-19.7,0.7l-5.9,0.2h-21.1v33.9
		H261.1z M296.4,126.3h22c7-0.3,11.2-0.8,12.8-1.6c2.1-1.1,3.5-3.4,4.2-6.9c0.4-2.3,0.7-5.7,0.7-10.2c0-5.6-0.4-9.7-1.3-12.4
		c-1.3-3.8-4.3-6.1-9.1-6.9c-1-0.1-3.2-0.2-6.9-0.2h-22.3V126.3z"/>
	<path id="path5697" class="st1" d="M447.7,168h-47.2l-6.3,22.7h-36.6L397,59.4h53.3l39.9,131.3h-35.8L447.7,168z M440.7,142.4
		l-16.6-56.9L408,142.4H440.7z"/>
	<path id="path5701" class="st2" d="M212.3,77.8c14.6,0,27.6,6.7,36.1,17.2l7.6-16.3c-11.9-11.3-28.1-18.2-46-18.2
		c-27.8,0-51.7,16.8-61.4,40.6h-14.9l-8.8,18.8h19.1c-0.1,1.7-0.2,3.5-0.2,5.3c0,2.2,0.1,4.3,0.3,6.4h-9.6l-8.8,18.8h23.3
		c10.1,23.2,33.6,39.5,61,39.5c13.8,0,26.6-4.1,37.2-11.2v-23c-8.5,9.7-21,15.9-35,15.9c-16.3,0-30.6-8.4-39-21.1H222l8.8-18.8
		h-64.6c-0.3-2.3-0.5-4.6-0.5-6.9c0-1.6,0.1-3.2,0.2-4.7h70.3l8.8-18.8h-73C180.1,87.2,195.1,77.8,212.3,77.8"/>
	<path id="path5705" class="st1" d="M212.3,78.4c13.9,0,26.9,6.2,35.7,17l0.6,0.7l0.4-0.8l7.6-16.3l0.2-0.4l-0.3-0.3
		c-12.5-11.8-29-18.3-46.4-18.3c-13.6,0-26.7,4-37.8,11.5c-10.9,7.3-19.2,17.5-24.1,29.5l0.5-0.4h-14.9h-0.4l-0.2,0.3l-8.8,18.8
		l-0.4,0.8h0.9h19.1l-0.6-0.6c-0.2,2-0.2,3.7-0.2,5.3c0,2.1,0.1,4.3,0.3,6.4l0.6-0.6h-9.6h-0.4l-0.2,0.3l-8.8,18.8l-0.4,0.8h0.9
		h23.3l-0.5-0.3c10.5,24.2,34.6,39.8,61.5,39.8c13.5,0,26.5-3.9,37.5-11.3l0.2-0.2v-0.3v-23v-1.5l-1,1.1
		c-8.8,10-21.3,15.7-34.6,15.7c-15.5,0-29.9-7.8-38.5-20.9l-0.5,0.9H222h0.4l0.2-0.3l8.8-18.8l0.4-0.8h-0.9h-64.6l0.6,0.5
		c-0.3-2.3-0.5-4.6-0.5-6.9c0-1.5,0.1-3.1,0.2-4.7l-0.6,0.5h70.3h0.4l0.2-0.3l8.8-18.8l0.4-0.8H245h-73l0.5,0.8
		C180.7,87.2,196,78.4,212.3,78.4 M172,101.7h73l-0.5-0.8l-8.8,18.8l0.5-0.3h-70.3h-0.5l-0.1,0.5c-0.2,1.6-0.2,3.2-0.2,4.8
		c0,2.3,0.2,4.7,0.5,7l0.1,0.5h0.5h64.6l-0.5-0.8l-8.8,18.8l0.5-0.3h-48.7h-1l0.6,0.9c8.8,13.4,23.5,21.4,39.4,21.4
		c13.5,0,26.4-5.9,35.4-16.1l-1-0.4v23l0.3-0.5c-10.9,7.3-23.7,11.1-36.9,11.1c-26.4,0-50.2-15.4-60.5-39.1l-0.2-0.3h-0.4h-23.3
		l0.5,0.8l8.8-18.8l-0.5,0.3h9.6h0.6l-0.1-0.6c-0.2-2.1-0.3-4.3-0.3-6.3c0-1.6,0.1-3.3,0.2-5.2l0.1-0.6h-0.6H125l0.5,0.8l8.8-18.8
		l-0.5,0.3h14.9h0.4l0.1-0.4c4.8-11.7,13-21.8,23.7-29c11-7.4,23.8-11.3,37.2-11.3c17.1,0,33.3,6.4,45.6,18l-0.1-0.7l-7.6,16.3
		l0.9-0.1c-9-11.1-22.3-17.4-36.6-17.4c-16.7,0-32.4,9-40.8,23.6l-0.5,0.8H172z"/>
</g>
</svg>
