<?xml version="1.0" encoding="utf-8"?>
<!-- Generator: Adobe Illustrator 23.0.1, SVG Export Plug-In . SVG Version: 6.00 Build 0)  -->
<svg version="1.1" id="Layer_1" xmlns="http://www.w3.org/2000/svg" xmlns:xlink="http://www.w3.org/1999/xlink" x="0px" y="0px"
	 viewBox="0 0 500 250" style="enable-background:new 0 0 500 250;" xml:space="preserve">
<style type="text/css">
	.st0{fill:none;}
	.st1{fill:#231F20;}
	.st2{fill:#FF5F00;}
	.st3{fill:#EB001B;}
	.st4{fill:#F79E1B;}
</style>
<rect x="-0.1" y="0.8" class="st0" width="500" height="250"/>
<g>
	<g id="Layer_1-2">
		<rect x="-12.1" y="65.1" class="st0" width="518.1" height="118.9"/>
		<path class="st1" d="M221.9,137.6v-16.2c0-6.1-3.9-10.2-10.2-10.3c-3.6-0.2-7.1,1.5-9.1,4.6c-1.8-3-5.1-4.8-8.6-4.6
			c-3-0.1-5.9,1.3-7.6,3.9v-3.2h-5.6v25.9h5.7v-14.4c0-4.5,2.5-6.9,6.3-6.9c3.9,0,5.6,2.4,5.6,6.8v14.4h5.7v-14.4
			c0-4.5,2.6-6.9,6.3-6.9c3.7,0,5.7,2.4,5.7,6.8v14.4H221.9z M306.1,111.7h-9.2v-7.9h-5.7v7.9h-5.3v5.1h5.3v11.8c0,6,2.3,9.6,9,9.6
			c2.5,0,4.9-0.7,7-2l-1.6-4.8c-1.5,0.9-3.2,1.4-5,1.5c-2.8,0-3.7-1.7-3.7-4.3v-11.7h9.2L306.1,111.7z M354.2,111.1
			c-2.8-0.1-5.4,1.4-6.8,3.8v-3.1h-5.6v25.9h5.6v-14.5c0-4.3,1.8-6.7,5.5-6.7c1.2,0,2.4,0.2,3.5,0.6l1.7-5.3
			C356.9,111.3,355.5,111.1,354.2,111.1z M281.5,113.8c-3.2-1.9-6.9-2.8-10.6-2.7c-6.6,0-10.8,3.1-10.8,8.3c0,4.2,3.1,6.8,8.9,7.6
			l2.7,0.4c3.1,0.4,4.6,1.2,4.6,2.7c0,2-2.1,3.1-5.9,3.1c-3.1,0.1-6.2-0.9-8.7-2.7l-2.6,4.4c3.3,2.3,7.2,3.5,11.2,3.4
			c7.5,0,11.8-3.5,11.8-8.4c0-4.6-3.4-6.9-9-7.7l-2.7-0.4c-2.4-0.3-4.4-0.8-4.4-2.5c0-1.9,1.8-3,4.9-3c2.8,0,5.6,0.8,8.1,2.2
			L281.5,113.8z M432.4,111.1c-2.8-0.1-5.4,1.4-6.8,3.8v-3.1H420v25.9h5.6v-14.5c0-4.3,1.8-6.7,5.5-6.7c1.2,0,2.4,0.2,3.5,0.6
			l1.7-5.3C435.1,111.3,433.8,111.1,432.4,111.1z M359.8,124.7c0,7.9,5.5,13.6,13.8,13.6c3.4,0.2,6.7-0.9,9.3-3.1l-2.7-4.6
			c-1.9,1.5-4.3,2.3-6.8,2.3c-4.5,0-7.8-3.3-7.8-8.3c0-5,3.3-8.2,7.8-8.3c2.4,0,4.8,0.8,6.8,2.3l2.7-4.6c-2.6-2.2-5.9-3.3-9.3-3.1
			C365.3,111.1,359.8,116.8,359.8,124.7L359.8,124.7z M412.6,124.7v-13H407v3.1c-1.9-2.5-5-3.9-8.2-3.8c-7.3,0-13,5.7-13,13.6
			s5.7,13.6,13,13.6c3.2,0.1,6.2-1.3,8.2-3.8v3.1h5.6V124.7z M391.6,124.7c0-4.6,3-8.3,7.9-8.3c4.7,0,7.8,3.6,7.8,8.3
			s-3.1,8.3-7.8,8.3C394.6,133,391.6,129.2,391.6,124.7z M323.7,111.1c-7.6,0-12.9,5.5-12.9,13.6c0,8.2,5.5,13.6,13.3,13.6
			c3.9,0.1,7.6-1.2,10.6-3.6l-2.8-4.2c-2.2,1.7-4.8,2.7-7.6,2.7c-3.6,0-6.9-1.7-7.7-6.3h19.2c0.1-0.7,0.1-1.4,0.1-2.2
			C335.9,116.6,330.9,111.1,323.7,111.1L323.7,111.1z M323.5,116.1c3.6,0,6,2.3,6.6,6.3h-13.4C317.3,118.7,319.5,116.1,323.5,116.1
			L323.5,116.1z M464.9,124.7v-23.4h-5.6v13.5c-1.9-2.5-5-3.9-8.2-3.8c-7.3,0-13,5.7-13,13.6s5.7,13.6,13,13.6
			c3.2,0.1,6.2-1.3,8.2-3.8v3.1h5.6V124.7z M471.5,135.2c0.2,0,0.4,0,0.6,0.1c0.2,0.1,0.4,0.2,0.5,0.4c0.2,0.1,0.3,0.3,0.4,0.5
			c0.2,0.4,0.2,0.9,0,1.3c-0.1,0.2-0.2,0.4-0.4,0.5c-0.2,0.2-0.3,0.3-0.5,0.4c-0.2,0.1-0.4,0.1-0.6,0.1c-0.7,0-1.3-0.4-1.6-1
			c-0.2-0.4-0.2-0.9,0-1.3c0.2-0.4,0.5-0.7,0.9-0.9C471,135.3,471.2,135.2,471.5,135.2L471.5,135.2z M471.5,138.2
			c0.2,0,0.3,0,0.5-0.1c0.1-0.1,0.3-0.2,0.4-0.3c0.5-0.5,0.5-1.3,0-1.8c-0.1-0.1-0.3-0.2-0.4-0.3c-0.2-0.1-0.3-0.1-0.5-0.1
			c-0.2,0-0.3,0-0.5,0.1c-0.7,0.3-1,1-0.7,1.7c0.1,0.1,0.2,0.3,0.3,0.4c0.1,0.1,0.3,0.2,0.4,0.3
			C471.1,138.1,471.3,138.2,471.5,138.2L471.5,138.2z M471.5,136.1c0.2,0,0.3,0,0.5,0.1c0.1,0.1,0.2,0.2,0.2,0.4
			c0,0.1,0,0.2-0.1,0.3c-0.1,0.1-0.2,0.1-0.4,0.2l0.5,0.6h-0.4l-0.5-0.6h-0.2v0.6h-0.3v-1.5L471.5,136.1z M471.2,136.4v0.4h0.4
			c0.1,0,0.1,0,0.2,0c0,0,0.1-0.1,0.1-0.2c0-0.1,0-0.1-0.1-0.2c-0.1,0-0.1,0-0.2,0L471.2,136.4z M443.9,124.7c0-4.6,3-8.3,7.9-8.3
			c4.7,0,7.8,3.6,7.8,8.3s-3.1,8.3-7.8,8.3C446.9,133,443.9,129.2,443.9,124.7z M253.7,124.7v-13H248v3.1c-1.9-2.5-5-3.9-8.1-3.8
			c-7.3,0-13,5.7-13,13.6s5.7,13.6,13,13.6c3.2,0.1,6.2-1.3,8.2-3.8v3.1h5.6L253.7,124.7z M232.7,124.7c0-4.6,3-8.3,7.9-8.3
			c4.7,0,7.8,3.6,7.8,8.3s-3.1,8.3-7.8,8.3C235.7,133,232.7,129.2,232.7,124.7L232.7,124.7z"/>
		<g id="_Group_">
			<rect x="74.9" y="93.9" class="st2" width="34.1" height="61.2"/>
			<path id="_Path_" class="st3" d="M77,124.5c0-11.9,5.5-23.2,14.9-30.6C75,80.6,50.5,83.6,37.2,100.5s-10.4,41.4,6.6,54.7
				c14.1,11.1,34,11.1,48.1,0C82.5,147.8,77,136.5,77,124.5z"/>
			<path class="st4" d="M154.9,124.5c0,21.5-17.4,38.9-38.9,38.9c-8.7,0-17.2-2.9-24.1-8.3c16.9-13.3,19.8-37.8,6.6-54.7
				c-1.9-2.4-4.1-4.6-6.6-6.6c16.9-13.3,41.4-10.4,54.7,6.5C152,107.3,154.9,115.8,154.9,124.5z"/>
			<path class="st4" d="M151.2,148.7v-1.3h0.5v-0.2h-1.3v0.3h0.5v1.3L151.2,148.7z M153.7,148.7v-1.5h-0.3l-0.5,1.1l-0.5-1.1H152
				v1.5h0.2v-1.1l0.4,1h0.3l0.4-1v1.1L153.7,148.7z"/>
		</g>
	</g>
</g>
</svg>
