<?xml version="1.0" encoding="utf-8"?>
<!-- Generator: Adobe Illustrator 23.0.1, SVG Export Plug-In . SVG Version: 6.00 Build 0)  -->
<svg version="1.1" id="Layer_1" xmlns="http://www.w3.org/2000/svg" xmlns:xlink="http://www.w3.org/1999/xlink" x="0px" y="0px"
	 viewBox="0 0 500 250" style="enable-background:new 0 0 500 250;" xml:space="preserve">
<style type="text/css">
	.st0{fill:none;}
	.st1{fill:url(#SVGID_1_);}
	.st2{fill:url(#SVGID_2_);}
	.st3{fill:url(#SVGID_3_);}
	.st4{fill:url(#SVGID_4_);}
	.st5{fill:url(#SVGID_5_);}
	.st6{fill:url(#SVGID_6_);}
	.st7{fill:url(#SVGID_7_);}
	.st8{fill:url(#SVGID_8_);}
	.st9{fill:#253982;}
</style>
<rect x="1.1" y="0" class="st0" width="500" height="250"/>
<g>
	<g>
		
			<linearGradient id="SVGID_1_" gradientUnits="userSpaceOnUse" x1="75.9967" y1="-89.972" x2="143.0363" y2="-157.0118" gradientTransform="matrix(1 0 0 1 0 248)">
			<stop  offset="0" style="stop-color:#E94E1B"/>
			<stop  offset="1" style="stop-color:#F39200"/>
		</linearGradient>
		<path class="st1" d="M168.5,125c0,4.4-1.7,8.6-4.8,11.8l-42.9,42.9c-3.2,3.1-7.3,4.8-11.8,4.8s-8.6-1.7-11.8-4.8l-6.3-6.4l5.8-5.8
			l1.9-1.9l2.5-2.5l5.3,5.2c0.7,0.8,1.7,1.2,2.6,1.2c1,0,2-0.4,2.6-1.2l40.8-40.7c0.8-0.7,1.1-1.7,1.1-2.6c0-1-0.3-2-1.1-2.6
			l-40.8-40.8c-0.7-0.7-1.7-1.1-2.6-1.1c-1,0-2,0.4-2.6,1.1l-5.3,5.2l-1.8,1.8l-5.9,5.8l-1.8,1.8l-2.5,2.5l-1.8,1.8l-21.7,21.8
			c-1.4,1.5-1.4,3.8,0,5.3l21.7,21.7l-2.6,2.6l-1.8,1.7l-5.8,5.9l-22.9-22.8c-3.1-3.2-4.7-7.4-4.7-11.8c0-4.5,1.7-8.6,4.8-11.8
			L79,88.6l2.5-2.5l1.9-1.8l5.8-5.8l1.8-1.8l6.3-6.3c3.2-3.1,7.3-4.8,11.7-4.8s8.6,1.7,11.8,4.8l42.9,42.9
			C166.8,116.4,168.5,120.5,168.5,125z"/>
		
			<linearGradient id="SVGID_2_" gradientUnits="userSpaceOnUse" x1="35.8345" y1="-89.5441" x2="104.0938" y2="-157.8032" gradientTransform="matrix(1 0 0 1 0 248)">
			<stop  offset="0" style="stop-color:#2D2E83"/>
			<stop  offset="1" style="stop-color:#1D71B8"/>
		</linearGradient>
		<path class="st2" d="M128.8,125c0,4.4-1.7,8.6-4.8,11.8l-24.7,24.6l-2.5,2.6l-1.8,1.8l-5.8,5.9l-1.8,1.8l-6.3,6.4
			c-3.2,3.1-7.4,4.8-11.8,4.8c-4.5,0-8.6-1.7-11.8-4.8l-42.9-42.9c-3.1-3.2-4.8-7.4-4.8-11.8c0-4.5,1.7-8.6,4.8-11.8l42.9-42.9
			c3.2-3.1,7.3-4.8,11.8-4.8c4.4,0,8.6,1.7,11.8,4.8l6.3,6.3l-5.8,5.8l-1.8,1.9l-2.5,2.5l-5.3-5.2c-0.7-0.7-1.7-1.1-2.6-1.1
			c-1,0-2,0.4-2.6,1.1l-40.8,40.7c-1.4,1.5-1.4,3.8,0,5.3l40.8,40.7c0.6,0.8,1.7,1.2,2.6,1.2c1,0,1.9-0.4,2.6-1.2l5.3-5.2l1.8-1.8
			l5.8-5.8l1.9-1.9l2.5-2.5l1.8-1.8l21.7-21.7c0.8-0.7,1.2-1.7,1.2-2.6c0-1-0.4-2-1.2-2.6L91,100.5l2.5-2.5l1.9-1.8l5.8-5.8
			l22.9,22.8C127,116.4,128.8,120.5,128.8,125z"/>
		<g>
			
				<linearGradient id="SVGID_3_" gradientUnits="userSpaceOnUse" x1="120.1678" y1="-151.5497" x2="99.9751" y2="-99.9459" gradientTransform="matrix(1 0 0 1 0 248)">
				<stop  offset="0" style="stop-color:#FFFFFF;stop-opacity:0"/>
				<stop  offset="1" style="stop-color:#FFFFFF;stop-opacity:0.3"/>
			</linearGradient>
			<path class="st3" d="M168.5,125c0,4.4-1.7,8.6-4.8,11.8l-5.6,5.4c-6.4,0.8-13.6,1.1-21.1,0.8l15.4-15.3c0.8-0.7,1.1-1.7,1.1-2.6
				c0-1-0.3-2-1.1-2.6l-40.8-40.8c-0.7-0.7-1.7-1.1-2.6-1.1c-1,0-2,0.4-2.6,1.1l-5.3,5.2l-1.8,1.8l-5.9,5.8l-1.8,1.8l-2.5,2.5
				l-1.8,1.8l-21.7,21.8c-1.4,1.5-1.4,3.8,0,5.3l0.8,0.9c-5.8-2.2-11.3-4.5-16.6-7c0.7-3.1,2.2-5.9,4.5-8.2L79,88.6l2.5-2.5l1.9-1.8
				l5.8-5.8l1.8-1.8l6.3-6.3c3.2-3.1,7.3-4.8,11.7-4.8s8.6,1.7,11.8,4.8l42.9,42.9C166.8,116.4,168.5,120.5,168.5,125z"/>
			
				<linearGradient id="SVGID_4_" gradientUnits="userSpaceOnUse" x1="120.1678" y1="-151.5497" x2="99.9751" y2="-99.9459" gradientTransform="matrix(1 0 0 1 0 248)">
				<stop  offset="0" style="stop-color:#FFFFFF;stop-opacity:0"/>
				<stop  offset="1" style="stop-color:#FFFFFF;stop-opacity:0.3"/>
			</linearGradient>
			<path class="st4" d="M168.5,125c0,4.4-1.7,8.6-4.8,11.8l-5.6,5.4c-6.4,0.8-13.6,1.1-21.1,0.8l15.4-15.3c0.8-0.7,1.1-1.7,1.1-2.6
				c0-1-0.3-2-1.1-2.6l-40.8-40.8c-0.7-0.7-1.7-1.1-2.6-1.1c-1,0-2,0.4-2.6,1.1l-5.3,5.2l-1.8,1.8l-5.9,5.8l-1.8,1.8l-2.5,2.5
				l-1.8,1.8l-21.7,21.8c-1.4,1.5-1.4,3.8,0,5.3l0.8,0.9c-5.8-2.2-11.3-4.5-16.6-7c0.7-3.1,2.2-5.9,4.5-8.2L79,88.6l2.5-2.5l1.9-1.8
				l5.8-5.8l1.8-1.8l6.3-6.3c3.2-3.1,7.3-4.8,11.7-4.8s8.6,1.7,11.8,4.8l42.9,42.9C166.8,116.4,168.5,120.5,168.5,125z"/>
			
				<linearGradient id="SVGID_5_" gradientUnits="userSpaceOnUse" x1="117.3011" y1="-152.6334" x2="97.1391" y2="-101.1082" gradientTransform="matrix(1 0 0 1 0 248)">
				<stop  offset="0" style="stop-color:#FFFFFF;stop-opacity:0"/>
				<stop  offset="1" style="stop-color:#FFFFFF;stop-opacity:0.3"/>
			</linearGradient>
			<path class="st5" d="M128.8,125c0,4.4-1.7,8.6-4.8,11.8l-4.9,4.8c-5.6-0.6-11.4-1.7-17.3-2.9l11-11c0.8-0.7,1.2-1.7,1.2-2.6
				c0-1-0.4-2-1.2-2.6L91,100.6l2.5-2.5l1.9-1.8l5.8-5.8l22.9,22.8C127,116.4,128.8,120.5,128.8,125z"/>
			
				<linearGradient id="SVGID_6_" gradientUnits="userSpaceOnUse" x1="117.3011" y1="-152.6334" x2="97.1391" y2="-101.1082" gradientTransform="matrix(1 0 0 1 0 248)">
				<stop  offset="0" style="stop-color:#FFFFFF;stop-opacity:0"/>
				<stop  offset="1" style="stop-color:#FFFFFF;stop-opacity:0.3"/>
			</linearGradient>
			<path class="st6" d="M128.8,125c0,4.4-1.7,8.6-4.8,11.8l-4.9,4.8c-5.6-0.6-11.4-1.7-17.3-2.9l11-11c0.8-0.7,1.2-1.7,1.2-2.6
				c0-1-0.4-2-1.2-2.6L91,100.6l2.5-2.5l1.9-1.8l5.8-5.8l22.9,22.8C127,116.4,128.8,120.5,128.8,125z"/>
			
				<linearGradient id="SVGID_7_" gradientUnits="userSpaceOnUse" x1="61.7907" y1="-174.4016" x2="41.6116" y2="-122.8329" gradientTransform="matrix(1 0 0 1 0 248)">
				<stop  offset="0" style="stop-color:#FFFFFF;stop-opacity:0"/>
				<stop  offset="1" style="stop-color:#FFFFFF;stop-opacity:0.3"/>
			</linearGradient>
			<path class="st7" d="M87.3,76.7l-5.8,5.8l-1.8,1.9l-2.5,2.5l-5.3-5.2c-0.7-0.7-1.7-1.1-2.6-1.1c-1,0-2,0.4-2.6,1.1l-31.9,31.7
				c-4.4-2.7-8.4-5.3-12.1-8.2l34.8-34.9c3.2-3.1,7.3-4.8,11.8-4.8c4.4,0,8.6,1.7,11.8,4.8L87.3,76.7z"/>
			
				<linearGradient id="SVGID_8_" gradientUnits="userSpaceOnUse" x1="61.7907" y1="-174.4016" x2="41.6116" y2="-122.8329" gradientTransform="matrix(1 0 0 1 0 248)">
				<stop  offset="0" style="stop-color:#FFFFFF;stop-opacity:0"/>
				<stop  offset="1" style="stop-color:#FFFFFF;stop-opacity:0.3"/>
			</linearGradient>
			<path class="st8" d="M87.3,76.7l-5.8,5.8l-1.8,1.9l-2.5,2.5l-5.3-5.2c-0.7-0.7-1.7-1.1-2.6-1.1c-1,0-2,0.4-2.6,1.1l-31.9,31.7
				c-4.4-2.7-8.4-5.3-12.1-8.2l34.8-34.9c3.2-3.1,7.3-4.8,11.8-4.8c4.4,0,8.6,1.7,11.8,4.8L87.3,76.7z"/>
		</g>
	</g>
	<g>
		<path class="st9" d="M255.2,138c-0.4,1-0.8,1.9-1.3,2.9c-1.1,2.3-2.8,4.5-4.8,6.6c-2.2,2.3-4.8,3.9-7.7,5.2c-3,1.2-6,1.8-9.1,2
			c-3.1,0.1-6.2-0.3-9.2-1.3c-3-1-5.7-2.5-7.9-4.6l41.2-41.2c-0.4-0.2-0.6-0.5-0.8-0.8c-0.2-0.3-0.5-0.6-0.8-0.8c-2-2-4.3-3.9-7-5.4
			c-2.7-1.6-5.8-2.9-9.2-3.7c-2.2-0.6-4.6-1-7.3-1c-2.6-0.2-5.3,0.1-8,0.6c-2.9,0.6-5.7,1.7-8.4,3.1c-2.9,1.4-5.5,3.3-8,5.8
			c-3.2,3.4-5.6,7.2-7.2,11.3c-1.5,4.1-2.3,8.2-2.3,12.6c0,4.3,0.9,8.4,2.5,12.6c1.7,4.1,4.1,7.6,7.3,10.9c3.3,3.3,7.1,5.8,11.2,7.4
			c4.1,1.6,8.3,2.3,12.7,2.3c4.2,0,8.4-0.8,12.5-2.5c4.1-1.7,7.7-4,10.8-7.2c2.6-2.5,4.7-5.4,6.2-8.6c0.6-1.1,1.1-2.3,1.5-3.5
			L255.2,138z M205.5,134.1c-0.7-3.1-0.8-6.2-0.5-9.1c0.4-2.9,1.2-5.7,2.6-8.2c1.2-2.5,2.8-4.6,4.5-6.4c1.9-1.8,4-3.3,6.5-4.6
			c2.5-1.3,5.2-2.1,8.2-2.5c2.9-0.4,6-0.2,9.1,0.5c3.3,0.7,6.4,2.2,9.5,4.3L210,143.6C207.7,140.5,206.2,137.4,205.5,134.1z"/>
		<path class="st9" d="M276.2,97.1h8.2v11.2h0.2c1.9-2.6,3.9-4.8,6-6.5c2.2-1.7,4.3-3,6.5-3.9c2.3-1,4.4-1.7,6.6-1.9
			c2.1-0.3,4.1-0.6,5.8-0.6c5.2,0,10,1,14.2,2.8c4.2,1.9,7.8,4.4,10.8,7.5c3,3.1,5.3,6.7,6.9,10.7c1.7,3.9,2.5,8.1,2.5,12.3
			c0,4.7-0.8,9-2.6,13.1c-1.7,4.1-4.1,7.7-7,10.7c-3.1,3-6.7,5.5-10.9,7.3c-4.2,1.7-8.8,2.7-13.8,2.7c-1.7,0-3.5-0.2-5.7-0.6
			c-2.2-0.3-4.4-1-6.6-1.8c-2.3-1-4.4-2.3-6.7-3.9c-2.2-1.7-4.1-3.9-6-6.4h-0.2v33.6h-8.2V97.1L276.2,97.1z M335.7,129.2
			c0-4.1-0.6-7.7-2.1-11c-1.4-3.3-3.3-6.1-5.8-8.3c-2.4-2.2-5.1-4-8.3-5.2c-3.2-1.2-6.5-1.9-10-1.9c-3.7,0-7,0.6-10.2,2.1
			c-3.2,1.4-5.8,3.4-8.1,5.8c-2.3,2.4-4.1,5.1-5.3,8.4c-1.2,3.1-1.8,6.5-1.8,10c0,3.8,0.6,7.2,2.1,10.4c1.3,3.2,3.1,5.9,5.6,8.2
			c2.3,2.3,5,4.1,8.1,5.3c3.1,1.4,6.4,2.1,9.8,2.1c3.9,0,7.4-0.7,10.7-2.1c3.2-1.4,6-3.2,8.2-5.6c2.3-2.3,4.1-5.1,5.3-8.2
			C335.1,136.2,335.7,132.8,335.7,129.2z"/>
		<path class="st9" d="M421,160.9h-8.2v-11.1h-0.2c-1.7,2.6-3.8,4.7-5.9,6.4c-2.2,1.7-4.4,2.9-6.7,3.9c-2.3,0.8-4.4,1.5-6.6,1.8
			c-2.1,0.4-4,0.6-5.6,0.6c-5.1,0-9.7-1-13.9-2.7c-4.2-1.8-7.8-4.3-10.9-7.3c-3-3-5.4-6.6-7-10.7s-2.5-8.4-2.5-13.1
			c0-4.2,0.8-8.4,2.5-12.3c1.7-4.1,3.9-7.6,6.8-10.7c3-3.1,6.6-5.6,10.9-7.5c4.1-1.9,8.9-2.8,14.1-2.8c1.7,0,3.6,0.2,5.9,0.6
			c2.2,0.3,4.4,1,6.6,1.9c2.3,0.9,4.5,2.3,6.6,3.9c2.2,1.7,4.1,3.8,5.8,6.5h0.2V97.1h8.2L421,160.9L421,160.9z M361.6,129.2
			c0,3.6,0.6,7,1.9,10.1c1.2,3.2,3,5.9,5.3,8.2c2.3,2.4,5.1,4.2,8.4,5.6c3.1,1.4,6.8,2.1,10.6,2.1c3.4,0,6.7-0.6,9.8-2.1
			c3.1-1.2,5.9-3.1,8.2-5.3c2.3-2.3,4.2-5.1,5.6-8.2c1.3-3.2,2.1-6.7,2.1-10.4c0-3.5-0.6-6.9-2-10c-1.3-3.2-3.1-6-5.4-8.4
			c-2.3-2.3-5-4.3-8.1-5.8c-3.1-1.5-6.5-2.1-10.2-2.1c-3.5,0-6.9,0.6-10,1.9c-3.1,1.2-5.9,3-8.3,5.2c-2.4,2.3-4.3,5.1-5.7,8.3
			C362.3,121.5,361.6,125.1,361.6,129.2z"/>
		<path class="st9" d="M455,158.9L430,97.1h8.7l20.4,50.9l21.7-50.9h8.7l-37,86.3h-8.5L455,158.9z"/>
	</g>
</g>
</svg>
