<?xml version="1.0" encoding="utf-8"?>
<!-- Generator: Adobe Illustrator 23.0.1, SVG Export Plug-In . SVG Version: 6.00 Build 0)  -->
<svg version="1.1" id="Layer_1" xmlns="http://www.w3.org/2000/svg" xmlns:xlink="http://www.w3.org/1999/xlink" x="0px" y="0px"
	 viewBox="0 0 500 250" style="enable-background:new 0 0 500 250;" xml:space="preserve">
<style type="text/css">
	.st0{fill:none;}
	.st1{fill:#BF232F;}
	.st2{fill:#FFFFFF;}
</style>
<rect x="0" y="1" class="st0" width="500" height="250"/>
<g id="siru-mobile">
	<path id="XMLID_238_" class="st1" d="M149.5,29.6L87.9,91.1c-6.1,6.1-9.5,14.3-9.5,22.9v99.8c0,10,8.1,18.1,18.1,18.1h307
		c10,0,18.1-8.1,18.1-18.1V38.2c0-10-8.1-18.1-18.1-18.1H172.3C163.7,20.1,155.5,23.5,149.5,29.6z"/>
	<path id="XMLID_262_" class="st2" d="M186.4,81.8c-1.7,4.9-3.4,9.8-4.9,14.8c-6.6-5-16.4-8.2-24.7-5.8c-4.3,1.3-7,5.2-5.2,9.6
		c2,4.7,8.9,6.5,13.5,7.9c8,2.4,17.4,5.2,21.6,12.9c4.5,9.2,2.4,22.1-6.1,28.5c-5.7,4.5-12.7,6.3-19.9,6.7
		c-9.8,0.4-19.6-1.8-27.9-7.1c1.7-4.9,3.3-9.9,4.9-14.8c6.6,4.6,14.8,7.1,22.9,6.6c3.4-0.2,7-1.1,9.4-3.7c2.4-2.4,2.5-6.9,0-9.2
		c-2.4-2.5-6.4-3.6-9.6-4.7c-7.4-2.4-15-4.2-20.7-9.8c-6-6-6.9-16.2-4.2-23.8c2.7-7.2,9-11.7,16.4-13.8
		C163.5,73.1,176.6,75.2,186.4,81.8z M350.5,76.1c5.6-0.2,11.2,0,16.8,0c-0.2,15.1,0.1,30.3-0.1,45.4c-0.3,9.9-3.2,21.1-11.1,28
		c-7.6,6.7-18.9,8.2-28.7,6.6c-7.8-1.2-15-5.4-19.3-11.8c-5.3-8-6.5-17.3-6.7-26.7c0-13.8,0-27.7,0-41.5c5.6,0,11.3,0,16.9,0
		c0,13.8,0,27.7,0,41.5c0,5.7,0.5,12.4,3.4,17.4c4.8,8.8,20.6,8.7,25.3-0.2c2.6-4.4,3.2-10.2,3.3-15.2
		C350.6,105,350.3,90.5,350.5,76.1z M197.7,76c5.6,0,11.3,0,16.9,0c0,26.4,0,52.7,0,79.1c-5.6,0-11.3,0-16.9,0
		C197.7,128.7,197.7,102.4,197.7,76z M275.1,123.6c4-1.9,7.7-4.2,10.3-7.9c4.5-6,5.2-14.1,3.7-21.2c-1.2-5.8-4.8-11.1-10.1-14
		c-6.7-3.8-15-4.6-22.7-4.5c-9.9,0.1-19.9-0.1-29.8,0.1c-0.3,3.1-0.1,6.3-0.1,9.4c0,23.2,0,46.3,0,69.5c5.6,0.1,11.3,0,16.9,0
		c0-9.5,0-19,0-28.6c4.8,0.3,10-0.4,14.6,0.3c6.5,9.3,12.8,18.8,19.1,28.2c6.5,0.1,13,0.1,19.5,0
		C289.3,144.6,282.2,134.1,275.1,123.6z M272.1,105.8c-1.8,3.5-5.8,4.9-9.6,5.3c-6.3,0.5-12.8,0-19.1,0.3c-0.2-6.7,0-13.5-0.1-20.2
		c5.7,0.1,11.5-0.1,17.2,0.1c3.7,0.2,8.3,0.8,10.7,3.9C273.4,98.1,273.5,102.5,272.1,105.8z"/>
	<path id="XMLID_252_" class="st2" d="M138.7,165.8c2.3,3.5,4.7,7,7,10.6c2.4-3.5,4.7-7.1,7.1-10.6c1.7,0,3.4,0,5,0
		c0,8.3,0,16.6,0,24.9c-1.8,0-3.6,0-5.4,0c0-5.1,0-10.2,0-15.4c-2.4,3.2-4.4,6.7-6.8,9.9c-2.2-3.4-4.4-6.8-6.8-10.2
		c0.1,5.2,0.1,10.4,0.1,15.6c-1.8,0-3.5,0-5.3,0c0-8.3,0.1-16.6-0.1-24.9C135.3,165.8,137,165.8,138.7,165.8z M275.8,165.8
		c1.8,0,3.6,0,5.4,0c0,8.3,0,16.6,0,24.9c-1.8,0-3.6,0-5.4,0C275.7,182.4,275.8,174.1,275.8,165.8z M312.7,165.8
		c-0.1,6.7,0,13.4-0.1,20c3.8,0,7.7,0,11.5,0c0,1.6,0,3.2,0,4.8c-5.6,0-11.2,0-16.8,0c0-8.3,0.1-16.6,0-24.9
		C309.1,165.8,310.9,165.8,312.7,165.8z M348.8,165.8c6.2-0.1,12.3-0.1,18.5,0c-0.1,1.6-0.1,3.2-0.1,4.8c-4.3,0-8.6,0-12.9,0
		c0,1.5,0,3,0,4.6c3.8,0,7.6,0,11.5,0c0,1.6,0,3.2,0,4.8c-3.8,0-7.7,0-11.5,0c0,2,0,3.9,0,5.9c4.3,0,8.7,0,13,0c0,1.6,0,3.2,0,4.8
		c-6.1,0-12.3,0-18.4,0C349,182.4,349.1,174.1,348.8,165.8z M202.4,168.9c-2.9-3.6-8.2-4.2-12.5-2.9c-3.8,1.2-5.9,4.7-6.4,8.4
		c-0.6,4.1-0.5,9.3,2,12.9c2.7,4,8.8,4.5,13.1,3c3.8-1.5,5.8-5.1,6-8.9C205,177.4,205.2,172.2,202.4,168.9z M199.5,180.4
		c-0.1,2.3-0.9,4.6-3.2,5.5c-2,0.5-4.6,0.5-6-1.2c-1.7-1.9-1.6-5-1.6-7.3c0.1-2.4,0.2-4.8,2.4-6.4c2.4-1.6,6.2-1,7.5,1.6
		C199.8,174.9,199.5,177.9,199.5,180.4z M246.5,177.6c2.8-3.8,2.2-9.6-2.6-11.3c-2.8-1-8.6-0.5-13.5-0.5c0,8.3,0,16.6,0,24.9
		c4.7,0,12.6,0,14,0c4.1,0,6-3.5,6-6.5C250.4,178.7,247.8,178.7,246.5,177.6z M235.7,170h4.5c2.9,0,4,1.6,4,2.9c0,1.2-1,2.9-4,2.9
		h-4.5V170z M241,185.8h-5.3v-5.8h5.3c2.9,0,4,1.6,4,2.9C245,184.2,244.1,185.8,241,185.8z"/>
</g>
</svg>
