<?xml version="1.0" encoding="utf-8"?>
<!-- Generator: Adobe Illustrator 23.0.1, SVG Export Plug-In . SVG Version: 6.00 Build 0)  -->
<svg version="1.1" id="Layer_1" xmlns="http://www.w3.org/2000/svg" xmlns:xlink="http://www.w3.org/1999/xlink" x="0px" y="0px"
	 viewBox="0 0 500 250" style="enable-background:new 0 0 500 250;" xml:space="preserve">
<style type="text/css">
	.st0{fill:none;}
	.st1{fill:#FCB316;}
	.st2{fill:#0269B3;}
</style>
<rect x="0" y="0" class="st0" width="500" height="250"/>
<path class="st1" d="M162.4,164.9c-0.2,0-0.3,0.2-0.5,0.2c-0.4,0.9-0.2,2.2,0,3.1c1.2,2.5,1.6,5.7,4.2,6.7c1.3-0.4,1.1-2.2,1.1-4
	c-0.6-2.2-1.4-4.1-2.7-5.5C163.7,165,163.1,164.4,162.4,164.9z M146.9,171.1c0-0.1-0.2-0.2-0.2,0c-2.2-0.3-2.9,0.9-4,1.8
	c-1.9,5,1.1,9.8,6.5,9.8c2.1-0.5,3.4-1.9,3.8-4.2C152.6,174.3,150.8,171.6,146.9,171.1L146.9,171.1z"/>
<g>
	<path class="st1" d="M203.9,220.9c-0.9-2.5-2.6-4.2-3.8-6.5c-2.9-3.8-6.3-7.1-9.8-10.5c-1.2-0.4-1.7-1.5-2.9-2
		c-0.7-1-1.9-1.5-2.9-2.2c-1.9-1.5-4.1-2.7-6.2-4c-4.1-2.6-9.2-4.3-14.2-6c-5.4-1.3-11.1-2.3-17.1-3.1c-5.9-0.9-11.8-1.7-16.2-4
		c-2.6-0.7-4.5-2.2-6.7-3.3c-2.1-1.4-4.3-2.5-6-4.2c-2.1-1.3-3.4-3.4-5.1-5.1c-0.6-1.1-1.5-1.8-2-3.1c-0.6-0.2-0.7-0.9-1.1-1.3
		c-0.4-0.5-0.4-1.4-1.1-1.5c-0.3,2.3-0.2,5.1,0,7.5c0.3,1,0.4,2.3,0.7,3.3c0.2,0.9,1,2.4,0.7,3.1c-17.8-0.9-30.9-6.6-42.2-14
		c-5.6-3.7-10.4-8.2-14.9-13.1c-1.9-2.7-4.1-5.3-5.8-8.2c-1.8-2.9-3.3-6.2-4.9-9.3c-2.6-6.7-5.1-13.5-6-22
		c-1.2-7.8-0.9-17.8,0.9-25.1c0.6-4,1.9-7.4,3.1-10.9c0.7-1.6,1.5-3.2,2.2-4.9c1-1.4,1.5-3.3,2.7-4.5C48.7,60,53.5,55.4,58.5,51
		c5.4-3.9,11.5-7.1,18.9-9.1c7.1-1.6,16.7-1.9,24.4-0.2c15.5,3.2,27.3,10.2,37.1,19.1c9.9,8.7,17.6,19.8,22.9,33.3
		c5.4,12.8,7.3,32.8,2.5,47.3c-2-1.1-4-2.2-6-3.3c-2.4-0.7-4.7-1.5-7.5-1.8c-3.4-0.1-6.7,0-8.9,1.1c4.4-0.5,7.9,0.7,10.7,1.8
		c1.6,0.6,2.5,1,3.8,1.8c2.5,1.4,4.6,2.7,6.5,4.7c5.2,4.6,8.9,10.6,10.7,18.6c0,0.2,0.3,0.2,0.2-0.2c0.2-0.1,0.3-0.2,0.5-0.5
		c0.3-0.3,0.6-0.7,0.9-1.1c0.6-0.7,1.1-1.4,1.5-2.2c1.2-1.4,2.2-3,3.1-4.7c2.1-3.1,3.7-6.6,5.5-10c3.1-7.2,5.7-15,7.3-23.8
		c3.2-19.6-0.6-38.1-7.3-51.7c-6.9-13.8-16.5-24.8-28.9-33.1c-12.5-8.2-27.2-14.3-47.3-14.9c-0.1-0.4-0.3,0.1-0.7,0
		c-10.6-0.3-19.2,1.1-27.7,3.3c-3.9,1.3-8.1,2.5-11.5,4.2c-4,1.3-7.2,3.5-10.9,5.1c-1.3,1.3-3.3,1.9-4.7,3.1
		c-1.8,0.9-3.1,2.2-4.9,3.1c-2.9,2.5-5.9,4.7-8.7,7.3c-2.7,2.5-5.1,5.4-7.8,8c-0.4,0.9-1.1,1.5-1.8,2.2c-0.5,0.9-1,1.6-1.8,2.2
		c-0.3,1-1.2,1.4-1.5,2.5c-0.7,0.6-0.9,1.7-1.8,2.2c-0.7,1.8-2.1,3.1-2.9,4.9c-1,1.7-1.8,3.5-2.9,5.1c-1.6,3.7-3.3,7.3-4.6,11.3
		c-1.4,3.9-2.5,8-3.3,12.5c-0.9,4.2-1.7,9.6-1.5,14c-0.6,1.6-0.1,4.6,0,6.5c0,0.3-0.2,0.5-0.2,0.7c0,2.1,0.6,4.7,0.7,6
		c0.5,4.9,1.3,9.4,2.7,13.3c0.9,4.4,2.7,7.8,4,11.8c2,3.3,3.4,7.3,5.8,10.2c1.8,3.5,4.3,6.2,6.7,9.1c2.6,2.7,5.1,5.5,8.2,7.8
		c5.7,4.9,12.3,8.9,19.6,12.2c13.5,6.6,33.8,10.9,52,9.8c4.6-0.6,9.3-1.2,13.5-2.2c3.9-1.4,8.4-2.3,13.1-2.9
		c10.7-0.7,20,0.3,28.2,2.7c8.3,2.2,15.5,5.6,21.8,10c3.3,1.9,6.1,4.5,8.9,6.9c2.9,2.5,5.1,5.5,7.8,8.2c0.3,1,1,1.8,1.5,2.7
		c0.7,0.7,0.3,2.5,2,2.2c1-1-0.2-2.5-0.2-3.8C205,223.2,204.7,221.8,203.9,220.9L203.9,220.9z"/>
	<path class="st2" d="M275,150.4c0.9,3.6,2.7,6.2,4.7,8.6c2.1,2.4,4.5,4.4,7.4,5.9c2.7,1.7,5.7,3.1,9.1,4.1c1.7,0.6,3.3,1.3,5.3,1.5
		c1.4,0.8,3.1,1.2,3.3,3.3c-0.1,2.5-1.7,3.4-3.8,3.8c-2.1-0.5-4.7-0.4-6.5-1.2c-4.5-0.5-8.1-1.9-11.8-3.3
		c-7.2-2.8-13.3-6.9-18.3-11.8c-1-1.7-2.5-3.1-3.5-4.7c-1.1-1.7-1.8-3.7-3-5.3c-8.8-1.1-14.8-5.1-20.1-9.8
		c-4.9-5.5-8.7-12.2-10.3-21c-1.9-8.5-1.3-19,0.9-27.2c4.9-15.8,15-26.4,34.2-27.8c5.3,0.2,9.9,0.8,14.2,2.4
		c4.3,1.5,8.3,4.4,11.5,7.4c0.3,0.2,0.4,0.3,0.6,0.6c0.7,1,2.3,2.3,3.3,3.5c0.2,0.2,0.1,0.6,0.3,0.9c0.3,0.5,0.9,0.7,1.2,1.2
		c0.2,0.3,0.1,0.6,0.3,0.9c0.2,0.3,0.5,0.9,0.9,1.5c0.1,0.2,0.5,0.4,0.6,0.6c0.5,1,0.7,2.2,1.2,3.3c0.5,1.1,1.1,2.1,1.5,3.3
		c1.1,3.4,1.9,7.4,2.3,11.5c1.1,11.9-1.2,22.5-5.6,30.4c-2.1,4.1-4.9,7.5-8.3,10.3C283.4,146.4,279.2,148.4,275,150.4L275,150.4z
		 M260.9,76c-2.6,0.2-4.1,1.4-6.2,2.1c-1.4,1.3-3.1,2.2-4.1,3.8c-1.7,1-2.2,3.1-3.5,4.4c-1.1,2.9-2.2,6.1-3,9.8
		c-0.7,3.7-1.1,7.8-1.2,11.8c-0.1,10.2,2.1,20.3,6.2,26.3c2.4,2.9,5.3,5.3,8.9,7.1c2.1,0.2,3.7,0.9,5.9,0.9c1.3-0.5,3.3,0,4.1-0.9
		c1.8,0.1,2.2-1.1,3.8-1.2c0.9-0.9,1.8-1.5,3-2.1c1.1-1.2,2.1-2.4,3.3-3.5c0.6-0.9,0.9-2.1,1.8-2.7c5.1-9.8,5.7-27.8,2.3-39.3
		c-1.3-4.2-3-7.5-5-10.3c-2.2-2.2-4.7-4.1-7.7-5.6c-2.3-0.5-4.6-1.1-7.7-0.9c-0.2,0-0.3,0.1-0.3,0.3C261.3,76,261.1,76,260.9,76
		L260.9,76z M323.2,67.7c4.6,0.2,10.1-0.4,14.2,0.3c0.9,1.4,0.6,3.1,0.6,4.7c0.3,21.7,0,44.9,0,67.1c0,1.8,0.1,3.6,0,5.3
		c-0.1,1.5,0.3,3.1-0.6,4.5c-2.1,0.5-5,0.3-7.7,0.3c-2.8,0-5.5,0.4-7.4-0.6c-0.5-26.2-0.5-54.4,0-80.7
		C322.5,68.2,322.8,67.9,323.2,67.7L323.2,67.7z M358.7,67.7h13.9c1.3,1.7,1.7,4.3,2.1,6.8c4.2,15.9,8.3,31.8,12.1,48.1
		c0.9,0.1,0.6-1,0.9-1.5c0.4-0.4,0.2-1.4,0.6-1.8c0.2-1.3,1-2,0.9-3.5c1-2,1.4-4.7,2.3-6.8c1.2-4.8,2.8-9.3,4.2-13.9
		c1.3-4.8,3.1-9.1,4.1-14.2c1.9-4.1,2.4-9.6,4.7-13.3h5.9c2.1,4,2.9,9.3,4.7,13.6c1.2,4.8,2.9,9.1,4.1,13.9
		c2.9,9.2,5.9,18.3,8.6,27.8c1.2-1.8,1.2-4.7,2.1-6.8c0.5-2.3,1-4.7,1.8-6.8c2.3-9.4,4.5-18.8,7.1-27.8c1-4.7,1.9-9.5,3.5-13.6
		c3.4-0.5,8.7-0.5,12.1,0c0.3,3.5-1.3,7.3-2.3,10.3c-0.6,3.8-1.9,6.7-2.7,10.3c-2.1,6.7-3.7,13.8-5.9,20.4
		c-1.7,7.1-3.9,13.6-5.6,20.7c-1.1,3.3-1.9,6.9-3,10.3c-1.1,3.2-1.5,7.1-3.3,9.8h-8.3c-2.1-3.7-2.9-8.7-4.7-12.7
		c-4.1-13-8.7-25.6-12.7-38.7c-1.4,1.4-1.4,4.3-2.3,6.2c-0.6,2.2-1.3,4.5-2.1,6.5c-1.1,4.5-2.9,8.3-3.8,13c-1.7,4.1-2.9,8.6-4.1,13
		c-1.7,3.9-2.3,8.9-4.5,12.4c-2.2,0.7-5.6,0.1-8.3,0.3c-2.1-2.3-2.3-6.6-3.5-9.8c-1-3.3-1.7-7-2.9-10.1c-1.6-7.2-4-13.5-5.6-20.7
		c-2.1-6.6-3.9-13.5-5.9-20.4c-1.1-3.3-1.9-6.7-3-10.1c-0.5-3.5-2.9-6.7-2.1-10.6C358,68,358.3,67.8,358.7,67.7L358.7,67.7z
		 M475.4,67.7c4.6,0.2,10-0.4,14.2,0.3c1,3.1,0.6,6.4,0.6,9.7v62c0,3.4,0.4,6.6-0.6,9.8c-3.2,0.3-7.9,0.5-11.8,0.3
		c-1.1-0.1-2.5,0.3-3.3-0.6c-1-3.1-0.6-6.3-0.6-9.8V78.1c0-3.7-0.3-7.3,0.6-9.8C474.7,68,475,67.8,475.4,67.7L475.4,67.7z"/>
</g>
</svg>
