<?xml version="1.0" encoding="utf-8"?>
<!-- Generator: Adobe Illustrator 23.0.1, SVG Export Plug-In . SVG Version: 6.00 Build 0)  -->
<svg version="1.1" id="Layer_1" xmlns="http://www.w3.org/2000/svg" xmlns:xlink="http://www.w3.org/1999/xlink" x="0px" y="0px"
	 viewBox="0 0 500 250" style="enable-background:new 0 0 500 250;" xml:space="preserve">
<style type="text/css">
	.st0{fill:none;}
	.st1{fill:#862565;}
</style>
<rect x="0" y="0.7" class="st0" width="500" height="250"/>
<path class="st1" d="M354.8,83.1c10.9,0,19.7-8.8,19.7-19.7s-8.8-19.7-19.7-19.7c-10.9,0-19.7,8.8-19.7,19.7
	C335.1,74.3,343.9,83.1,354.8,83.1C354.8,83.1,354.8,83.1,354.8,83.1 M203.9,93.7c-0.9,2.3-7.3,20.3-22.8,39V52.7l-41.2,8.1V206
	h41.2v-44.9C193.1,179,199,206,199,206h49.4c-4.9-20.3-26.3-57.8-26.3-57.8c12.7-16.4,22.5-34.8,28.9-54.5L203.9,93.7z M312.3,92.2
	c-36.9,1.2-55.7,17.8-55.7,50.7V206h40.3v-51.5c0-19.7,2.6-28.1,26-29V92.8C318.9,92,312.3,92.2,312.3,92.2 M70.7,109.7
	c-5-0.3-16.7-1.1-16.7-11.6c0-12.7,16.8-12.7,23.1-12.7c11.1,0,25.5,3.3,35.8,6.4c3.5,1.5,7,2.8,10.6,4.1L124,96V61.2l-0.6-0.2
	c-12.1-4.2-26.2-8.3-52.3-8.3c-45,0-61,26.2-61,48.7c0,13,5.6,43.5,57.1,47c4.4,0.3,16,0.9,16,11.8c0,9-9.5,14.3-25.5,14.3
	c-17.5,0-34.5-4.5-44.8-8.7v35.8c15.4,4,32.9,6.1,53.3,6.1c44,0,63.8-24.8,63.8-49.4C129.9,130.3,107.8,112.2,70.7,109.7 M334.8,206
	h40V93.8h-40L334.8,206z M450,59.8V206h40V52.7L450,59.8z M391.7,59.8l39.9-7.1V206h-39.9V59.8L391.7,59.8z"/>
</svg>
