<?xml version="1.0" encoding="utf-8"?>
<!-- Generator: Adobe Illustrator 23.0.1, SVG Export Plug-In . SVG Version: 6.00 Build 0)  -->
<svg version="1.1" id="Layer_1" xmlns="http://www.w3.org/2000/svg" xmlns:xlink="http://www.w3.org/1999/xlink" x="0px" y="0px"
	 viewBox="0 0 500 250" style="enable-background:new 0 0 500 250;" xml:space="preserve">
<style type="text/css">
	.st0{fill:none;}
	.st1{fill:#85C552;}
	.st2{fill:#153C65;}
</style>
<rect x="-0.2" y="0" class="st0" width="500" height="250"/>
<g>
	<path class="st1" d="M92.4,68.2c-45.8,0-82.8,21.7-82.8,48.6c0,11.4,6.7,21.9,18,30.3c-5.6-6.9-8.7-14.6-8.7-22.8
		c0-27.9,36.3-50.5,80.9-50.5c28.8,0,54.1,9.3,68.5,23.6C155.5,80.1,126.3,68.2,92.4,68.2L92.4,68.2z"/>
	<path class="st2" d="M55.6,110.9c2.4-2,5.3-3,8.9-3c3.4,0,6.4,1,8.8,3c2.4,2,3.8,4.6,4,7.7H51C51.7,115.5,53.2,112.9,55.6,110.9
		L55.6,110.9z M85.2,130.5c3.4,0,6.1-0.7,8.1-2.1c2.4-1.6,3.6-3.8,3.6-6.8c0-5.5-1.8-10.6-5.4-15.3c-3.6-4.7-8.3-8.2-13.9-10.6
		c-3.9-1.6-8.3-2.5-13.2-2.5c-9.8,0-17.8,3.2-24.1,9.5c-6.3,6.3-9.4,14-9.4,23c0,9,3.3,16.6,9.9,22.8c6.6,6.2,14.8,9.2,24.6,9.2
		c5.3,0,10.3-0.7,15.1-2.2c5.7-1.7,9.9-4.2,12.6-7.5c1.5-1.8,2.2-3.6,2.2-5.4c0-4.7-2.6-7.1-7.9-7.1c-1.2,0-4.1,1-8.9,3
		c-4.8,2-8.8,3-12.2,3c-4,0-7.4-0.9-10.2-2.8c-2.8-1.9-4.4-4.6-4.8-8.1H85.2L85.2,130.5z"/>
	<path class="st2" d="M107.9,148.2c6.1,6.2,14.1,9.3,24.1,9.3c6,0,11-0.9,15-2.7c5.6-2.5,8.4-5.6,8.4-9.3c0-2.2-0.7-4-2.2-5.5
		c-1.4-1.5-3.3-2.3-5.6-2.3c-1.6,0-3.5,0.4-5.9,1.3c-2.4,0.9-5,1.3-7.8,1.3c-4.8,0-8.5-1.5-11.1-4.5c-2.3-2.7-3.4-6.3-3.4-10.7
		c0-4.3,1.1-7.8,3.3-10.6c2.5-3.1,6-4.7,10.5-4.7c2.8,0,5.4,0.5,7.9,1.4c2.5,0.9,4.5,1.4,6.1,1.4c2.4,0,4.4-0.7,5.9-2.2
		c1.6-1.5,2.3-3.3,2.3-5.5c0-4.2-2.7-7.3-8.1-9.4c-4-1.5-8.7-2.2-14.2-2.2c-10.3,0-18.6,3-24.9,9c-6.2,6-9.4,13.8-9.4,23.2
		C99.1,134.7,102,142.3,107.9,148.2L107.9,148.2L107.9,148.2z"/>
	<path class="st2" d="M179.7,115c2.4-3.2,5.7-4.8,10.1-4.8c4.3,0,7.6,1.6,10,4.9c2.1,2.8,3.2,6.3,3.2,10.3c0,4.2-1,7.7-3.1,10.4
		c-2.4,3.3-5.7,4.9-10.1,4.9c-4.3,0-7.6-1.6-10-4.9c-2.1-2.8-3.2-6.3-3.2-10.4C176.7,121.3,177.7,117.8,179.7,115L179.7,115
		L179.7,115z M165.3,148.3c6.4,6.3,14.6,9.5,24.5,9.5c10,0,18.2-3.1,24.5-9.4c6.1-6.1,9.1-13.8,9.1-23c0-9.3-3.1-17-9.2-23.2
		c-6.2-6.2-14.3-9.3-24.4-9.3c-9.9,0-18,3.1-24.3,9.3c-6.3,6.2-9.4,13.9-9.4,23.1C156.1,134.6,159.2,142.2,165.3,148.3L165.3,148.3
		L165.3,148.3z"/>
	<path class="st1" d="M251.4,143.8v-13.9h13.8c9.7,0,17.3-2.4,22.9-7.3c5.6-4.9,8.4-11.7,8.4-20.5c0-8.9-3.1-15.8-9.2-20.7
		c-5.8-4.7-13.7-7.1-23.6-7.1h-18.5c-5.3,0-9,1-11.1,2.9c-2.1,1.9-3.1,5.3-3.1,10.2v56.4c0,8.8,3.4,13.2,10.2,13.2
		C248,157,251.4,152.6,251.4,143.8L251.4,143.8L251.4,143.8z M251.4,91.5h8.9c9.4,0,14,3.5,14,10.6c0,7.2-4.7,10.9-14,10.9h-8.9
		V91.5L251.4,91.5z"/>
	<path class="st1" d="M354.1,157c6.6,0,9.9-4.4,9.9-13.2v-36.5c0-8.7-3.3-13.1-9.9-13.1c-4,0-7.2,1.9-9.5,5.7c-4-4.3-9.4-6.5-16-6.5
		c-9.1,0-16.6,3.4-22.5,10.1c-5.6,6.3-8.4,13.6-8.4,22.1c0,8.4,2.7,15.6,8,21.8c5.8,6.7,13.2,10.1,22.2,10.1
		c7.1,0,12.6-2.3,16.8-6.8C346.5,154.8,349.7,157,354.1,157L354.1,157L354.1,157z M321.4,115.3c2.4-3.1,5.6-4.6,9.7-4.6
		c4.2,0,7.4,1.5,9.7,4.6c2,2.7,2.9,6,2.9,10c0,4-1,7.3-2.9,10.1c-2.3,3.1-5.5,4.7-9.7,4.7c-4.2,0-7.4-1.6-9.8-4.7
		c-2-2.8-3.1-6.1-3.1-10.1C318.2,121.4,319.3,118.1,321.4,115.3L321.4,115.3L321.4,115.3z"/>
	<path class="st1" d="M410.1,101.3l-12.2,28.9l-11.3-27.3c-1.2-3.1-2.3-5.1-3.3-6.2c-1.6-1.7-3.9-2.6-6.8-2.6c-2.8,0-5.1,0.9-7,2.6
		c-1.8,1.7-2.8,3.8-2.8,6.4c0,1.8,0.4,3.5,1.1,5l20.1,42.6l-8.2,16.2c-1.1,2.3-1.6,4.3-1.6,6.1c0,2.7,0.9,4.8,2.7,6.3
		c1.8,1.6,4.2,2.3,7.1,2.3c3.5,0,6.4-2.4,8.7-7.3l30.4-65.5c1.1-2.3,1.6-4.4,1.6-6.3c0-5.7-3.3-8.6-9.9-8.6
		C415.1,94.1,412.1,96.5,410.1,101.3L410.1,101.3L410.1,101.3z"/>
	<path class="st1" d="M477.6,139.3H458l26.4-30.9c2.7-3.1,4-5.8,4-8c0-2.4-1-3.9-3.1-4.5c-2.1-0.6-5.2-1-9.5-1H444
		c-8.5,0-12.7,2.7-12.7,8.2c0,5.5,4.2,8.3,12.6,8.3H461l-27.3,32.1c-2,2.3-3,4.6-3,6.9c0,3.7,3.5,5.6,10.5,5.6h36.3
		c8.4,0,12.6-2.8,12.6-8.3C490,142.1,485.9,139.3,477.6,139.3L477.6,139.3L477.6,139.3z"/>
</g>
</svg>
