<?xml version="1.0" encoding="utf-8"?>
<!-- Generator: Adobe Illustrator 23.0.1, SVG Export Plug-In . SVG Version: 6.00 Build 0)  -->
<svg version="1.1" id="Layer_1" xmlns="http://www.w3.org/2000/svg" xmlns:xlink="http://www.w3.org/1999/xlink" x="0px" y="0px"
	 viewBox="0 0 500 250" style="enable-background:new 0 0 500 250;" xml:space="preserve">
<style type="text/css">
	.st0{fill:none;}
	.st1{fill-rule:evenodd;clip-rule:evenodd;fill:#00A4F0;}
	.st2{fill-rule:evenodd;clip-rule:evenodd;}
</style>
<rect x="0.1" y="0" class="st0" width="500" height="250"/>
<g id="trustpay_logo-2">
	<g id="trustpay_logo-3">
		<g id="trustpay_logo">
			<path id="Combined-Shape" class="st1" d="M9.9,84l3-15.3h70.1L80,84H54l-14.2,71.5H21.9L36.1,84H9.9z M272.4,105.4h10.9l2.7-13.5
				H275l3.1-15.7h-16.8l-3.1,15.7h-8.4l-2.7,13.5h8.3L250,133c-3.4,17.2-4.7,23.6,11.1,23.6c4.1,0,8.2-0.4,12.2-1l2.5-12.5
				c-1.4,0.2-2.8,0.3-4.2,0.2c-6.7,0-6.4-1.7-4.7-10.5l0-0.2L272.4,105.4z M207.2,144.7c-9.1,0-12.5-1.7-11.7-8.7l-16.8,0
				c-2.4,15.7,9.5,21.2,26,21.2c17.5,0,30.1-6.1,33-21.1c2.1-10.8-2.8-15.3-13.9-18l-15-3.8c-5.1-1.3-6.5-2.9-5.8-5.9
				c0.7-3.6,3.2-5.7,12-5.7c7.8,0,9.4,1.6,9.1,7.3h16.8c2.2-15.5-7.6-19.7-23.2-19.7c-20.3,0-29.4,7.1-31.9,20
				c-2.2,11.3,2.7,15.3,11.6,17.6l16.8,4.2c5.5,1.6,6.9,2.9,6.2,6.5C219.4,142.9,216.1,144.7,207.2,144.7z M75.1,91.8l-12.6,63.8
				h16.9L84,132c2.9-14.5,6.3-25.4,19.6-25.4c1.7,0,3.5,0.1,5.2,0.4l3.2-16.1c-1.4-0.3-2.9-0.4-4.3-0.4c-8.4,0-13.1,2.7-18.3,9.3
				l1.6-8H75.1z M129.2,157.2c7.5,0,15.7-1.4,21.4-8.4l-1.3,6.8h15.9l12.6-63.8h-16.8l-7.3,36.8c-2.3,11.9-6.9,14.8-15.8,14.8
				c-8.5,0-10.7-2.7-8.9-11.3l8-40.3h-16.9l-8.2,41.4C108.3,151.5,113.8,157.2,129.2,157.2z"/>
			<path id="Fill-5" class="st2" d="M316.2,83.7l-5,25.3h11.3c14.4,0,19.5-1.5,22-13.7c1.9-9.8-0.9-11.6-15.9-11.6H316.2z
				 M301.3,68.8h32.8c18,0,33.5,1.7,28.4,27.2c-4.9,24.6-20.2,27.8-37.4,27.8h-16.9l-6.3,31.7h-17.9L301.3,68.8z M397.8,126.1
				l-12.2,1.9c-6.6,1-11.5,2.3-12.8,9.1c-1,4.8,0.9,7.5,8.4,7.5c10.3,0,13.9-5.6,15.5-13.4L397.8,126.1z M363,111.2
				c4.1-16.5,14.4-21,31.7-21c17.7,0,26.1,4.7,23.3,18.6l-9.3,46.7h-16.1l1-4.8c-3.9,3.5-10.7,6.4-20.9,6.4
				c-15.3,0-19.4-6.8-17.2-17.7c2.8-14.2,13.1-19.5,22.6-20.9l21.7-3.3l0.8-3.9c1.2-5.9-1.5-7.6-9.4-7.6c-8.4,0-10.4,1.9-12.4,7.4
				H363z M444.4,91.8c0.1,15.6,1.8,31.2,5,46.5l23.2-46.5h17.7l-35.4,63.8c-11.2,20.2-14.7,25.7-30.2,25.7c-2.8,0-5.6-0.2-8.4-0.5
				l2.6-13.2c0.9,0.1,1.8,0.2,2.7,0.2c6.5,0,11.2-0.7,15.2-10.5c-5.5-21.5-9.2-43.4-10.9-65.5H444.4z"/>
		</g>
	</g>
</g>
</svg>
