<?xml version="1.0" encoding="utf-8"?>
<!-- Generator: Adobe Illustrator 23.0.1, SVG Export Plug-In . SVG Version: 6.00 Build 0)  -->
<svg version="1.1" id="Layer_1" xmlns="http://www.w3.org/2000/svg" xmlns:xlink="http://www.w3.org/1999/xlink" x="0px" y="0px"
	 viewBox="0 0 500 250" style="enable-background:new 0 0 500 250;" xml:space="preserve">
<style type="text/css">
	.st0{fill:none;}
	.st1{fill:#C2A633;}
</style>
<rect x="0" y="1.2" class="st0" width="500" height="250"/>
<g>
	<path d="M484.7,165.3c-5.2,0.9-7.9-1.1-9.9-6.2c-5.3-13.8-11.3-27.3-17.1-40.9c-0.5-1.1-1-2.2-2.5-3.1c0,8.3,0,16.7,0,25
		c0,8.2,0,16.4,0,24.9c-3.2,0-5.7,0-8.8,0c0-25.8,0-51.7,0-77.7c4.7-1.9,7.1-0.2,8.9,4.3c6.1,14.8,12.5,29.5,19.9,44.1
		c0-16.1,0-32.2,0-48.7c3.5-0.2,6.5-0.4,9.4-0.6C484.7,112.8,484.7,139,484.7,165.3z"/>
	<path d="M125.4,165.3c0-26.4,0-52,0-78.4c10-0.1,19.9-1.2,29.4,2.3c6.7,2.5,9.7,8.6,9.9,15.2c0.5,14.2,0.8,28.5-0.1,42.7
		c-0.9,12.4-8.1,18-20.7,18.3C137.9,165.4,131.9,165.3,125.4,165.3z M136.3,95.7c0,20.4,0,40.9,0,61.3c14.3,1.4,17.6-1.5,17.6-15.3
		c0-10.9,0-21.7,0-32.6C153.9,96.8,148.7,92.9,136.3,95.7z"/>
	<path d="M216.8,126.5c0,6.6,0.4,13.1-0.1,19.7c-1.3,16.8-16.5,25.3-31.8,18c-5.8-2.7-9.3-7.7-9.5-13.6c-0.6-16-1.1-32.2-0.1-48.1
		c0.7-10.8,8.1-15.8,19.5-16c12.3-0.2,19.3,4.3,21.1,15.5c1.3,8.1,1.1,16.4,1.5,24.6C217.2,126.4,217,126.5,216.8,126.5z
		 M185.3,125.9C185.3,125.9,185.3,125.9,185.3,125.9c0.1,7.1-0.2,14.2,0.1,21.3c0.4,7.3,3.4,10.1,10,10.2c6.7,0.1,10-2.5,10.2-9.8
		c0.4-14.2,0.4-28.4,0-42.6c-0.2-7.6-3.7-10.5-10.4-10.4c-6.4,0.1-9.6,3.6-9.9,11.1C185.1,112.4,185.3,119.2,185.3,125.9z"/>
	<path d="M410.3,126c0,6.7,0.4,13.5-0.1,20.2c-1.3,16.8-16.6,25.2-31.9,17.9c-5.8-2.8-9.3-7.8-9.5-13.7c-0.6-16-1-32.2,0-48.1
		c0.7-10.8,8.1-15.8,19.5-16c12.1-0.2,19.1,4.3,20.9,15c1.4,8,1.2,16.4,1.7,24.6C410.8,125.9,410.6,125.9,410.3,126z M378.9,126
		C378.9,126,378.9,126,378.9,126c0.1,7.1-0.2,14.2,0.2,21.3c0.4,7.3,3.5,10,10.1,10.1c6.7,0.1,9.9-2.5,10.1-9.9
		c0.4-14,0.5-28,0.1-42c-0.2-8.1-3.7-11.1-10.5-10.9c-6.5,0.2-9.6,3.8-9.8,11.7C378.7,112.9,378.9,119.5,378.9,126z"/>
	<path d="M268.7,165.1c-2.4,0-4.2,0-6.4,0c-0.3-2.2-0.6-4.3-0.8-5.3c-4.4,2.2-8.5,5.5-13,6.2c-10.8,1.6-19.3-4.4-20.1-15.5
		c-1.1-16.2-1.1-32.6,0-48.8c0.7-10.6,8.4-15.5,20-15.4c11.9,0.1,17.8,4.7,19.6,15.8c0.5,3.1,0.5,6.2,0.8,9.7c-3.6,0-6.7,0-10,0
		c-0.4-3.5-0.7-6.8-1.1-10.1c-0.6-4.8-3.8-6.6-8.2-6.9c-4.4-0.3-8.2,0.8-10.1,5.4c-0.4,0.9-0.8,1.8-0.8,2.7
		c0,15.4-0.3,30.7,0.3,46.1c0.2,6.4,3.7,8.6,9.7,8.5c5.9,0,8.8-2.4,9.8-8.6c0.7-4.5,0.8-9.2,1.3-14.1c-3.7-0.3-6.7-0.5-10-0.7
		c0-2.3,0-4.4,0-7c6.3,0,12.5,0,19.1,0C268.7,139.7,268.7,152.2,268.7,165.1z"/>
	<path d="M348.4,136.5c4,0,6.9,0,10.4,0c0.6,7.9,0.6,15.5-3.5,22.3c-6.3,10.5-27.2,9.8-33.1-1.2c-1.7-3.2-3.2-7-3.2-10.6
		c-0.3-14.6-0.9-29.2,0.4-43.7c1.4-15.2,18.5-22.6,31.4-14.3c2.9,1.8,5.5,5.4,6.5,8.7c1.6,5.2,1.6,10.9,2.4,16.8
		c-4.2,0-7.2,0-11.2,0c0-3.9,0.1-7.6,0-11.3c-0.2-5.1-2.7-8-7.9-8.4c-5.6-0.5-9.2,1.8-10.5,7c-0.4,1.6-0.6,3.3-0.6,5
		c0,12.9-0.2,25.9,0,38.8c0.1,8.6,3.1,11.9,10,11.9c5.5,0,8.4-2.3,8.9-8C348.7,145.4,348.4,141.3,348.4,136.5z"/>
	<path d="M291.5,128.6c0,9.9,0,18.9,0,28.7c6.3,0,12.6,0,19,0c0,3,0,5.2,0,7.7c-9.9,0-19.5,0-29.6,0c0-25.9,0-51.6,0-77.8
		c9.7,0,19.3,0,29.4,0c0,2.4,0,4.7,0,7.7c-6.2,0-12.3,0-18.6,0c0,9.1,0,17.4,0,26.2c5.1,0,9.9,0,15,0c0,2.7,0,4.8,0,7.5
		C301.6,128.6,296.8,128.6,291.5,128.6z"/>
	<path d="M431.9,165.1c-3.5,0-6.5,0-9.8,0c0-26,0-51.9,0-78.1c3.3,0,6.4,0,9.8,0C431.9,113.1,431.9,138.9,431.9,165.1z"/>
	<g>
		<path class="st1" d="M68,108.7h-7.3v14.5h11.6v6.1H60.6v14.5h7.7c2,0,16.3,0.2,16.2-16.8S70.7,108.7,68,108.7z"/>
		<path class="st1" d="M66.7,74.8c-28.4,0-51.4,23-51.4,51.4s23,51.4,51.4,51.4s51.4-23,51.4-51.4S95.1,74.8,66.7,74.8z M68.8,153.9
			H50.1v-24.7h-6.6v-6.1h6.6V98.4h16c3.8,0,28.8-0.8,28.8,28.2C94.9,156.1,68.8,153.9,68.8,153.9L68.8,153.9z"/>
	</g>
</g>
</svg>
