<?xml version="1.0" encoding="utf-8"?>
<!-- Generator: Adobe Illustrator 23.0.1, SVG Export Plug-In . SVG Version: 6.00 Build 0)  -->
<svg version="1.1" id="Layer_1" xmlns="http://www.w3.org/2000/svg" xmlns:xlink="http://www.w3.org/1999/xlink" x="0px" y="0px"
	 viewBox="0 0 500 250" style="enable-background:new 0 0 500 250;" xml:space="preserve">
<style type="text/css">
	.st0{fill:none;}
	.st1{fill-rule:evenodd;clip-rule:evenodd;fill:#EE3424;}
</style>
<rect x="-0.2" y="0.6" class="st0" width="500" height="250"/>
<path class="st1" d="M64,41.2c11.5,0,15.1,8.2,18.1,16.5c1.3,3.5,31.1,85.2,32,87.7c0.3,0.7,0.1,1.8-1,2.2
	c-1.1,0.4-16.6,6.4-17.4,6.8c-0.9,0.3-1.8-0.2-2.1-1c-0.3-0.9-6.7-18.7-7.5-20.7H41.9c-0.7,2-7.2,19.8-7.5,20.7
	c-0.3,0.8-1.2,1.4-2.1,1c-0.9-0.4-16.5-6.4-17.4-6.8c-0.9-0.3-1.3-1.4-1-2.2c1.1-3.1,30.5-83.5,32-87.7C48.7,49.6,52.5,41.2,64,41.2
	L64,41.2z M11.4,187.5c-0.9,0-1.7,0.8-1.7,1.7v19.1c0,1,0.7,1.7,1.7,1.7h105c0.9,0,1.7-0.8,1.7-1.7v-19.1c0-1-0.7-1.7-1.7-1.7H11.4z
	 M63.9,67.9l-15,44.9h30.1L64,67.9H63.9L63.9,67.9z M288.2,141.5c-2.2,0.8-3.7,0.9-5.4,0.9c-3.6,0-5.6-1.4-5.6-5.1
	c0-3.8,2.5-5.1,7.5-5.1c1.2,0,2.4,0.2,3,0.4v2.7C287.7,138.3,287.9,140.3,288.2,141.5L288.2,141.5z M300.9,145.9
	c-2.6-4-3.3-6.4-3.3-11.4v-10.3c0-5.5-0.6-7.5-2.1-9.5c-2-2.9-5.4-4.1-11.6-4.1c-4.4,0-8.7,0.5-12.8,1.5l1.5,7.3
	c2.8-0.4,5.7-0.7,7.8-0.7c6.6,0,7.4,1,7.4,5.9v1.9c-1.5-0.4-3.1-0.7-5.1-0.7c-10,0-15.2,4.9-15.2,12.9c0,7.6,5.6,11.7,12.5,11.7
	c2.6,0,5.2-0.5,7.3-1.3c1.3-0.6,1.8-0.9,3.5-2c1,1.5,3,2.9,3.8,3.2L300.9,145.9L300.9,145.9z M399.5,141.5c-2.2,0.8-3.6,0.9-5.4,0.9
	c-3.6,0-5.6-1.4-5.6-5.1c0-3.8,2.6-5.1,7.5-5.1c1.2,0,2.4,0.2,2.9,0.4v2.7C399,138.3,399.1,140.3,399.5,141.5L399.5,141.5z
	 M412.2,145.9c-2.6-4-3.3-6.4-3.3-11.4v-10.3c0-5.5-0.6-7.5-2.1-9.5c-2-2.9-5.4-4.1-11.6-4.1c-4.4,0-8.7,0.5-12.9,1.5l1.5,7.3
	c2.8-0.4,5.8-0.7,7.9-0.7c6.6,0,7.4,1,7.4,5.9v1.9c-1.5-0.4-3.1-0.7-5-0.7c-10,0-15.3,4.9-15.3,12.9c0,7.6,5.6,11.7,12.5,11.7
	c2.6,0,5.2-0.5,7.3-1.3c1.3-0.6,1.8-0.9,3.5-2c1,1.5,3,2.9,3.8,3.2L412.2,145.9L412.2,145.9z M489.8,149.6c0,0-5.5-11.6-6.8-14.3
	c-1.5-3-2.9-5.1-6-5.8v-0.2c2.1-0.4,3.7-1.6,5.5-5.4c1.7-3.7,2.2-4.5,3.2-5.4c1-0.9,2.3-0.6,2.3-0.6l0.5-6.9c-1.4-0.2-3-0.2-4.7-0.1
	c-2.7,0.2-4.1,0.9-5.4,2.3c-1,1-1.7,2.6-2.6,4.3l-2.6,5.4c-1,2-1.4,2.9-4,2.9h-1.7V95.5h-10v54.1h10V134l1.4,0
	c2.9,0,3.4,0.7,4.9,3.7c1.8,3.6,5.2,11.9,5.2,11.9L489.8,149.6L489.8,149.6z M208.8,149.6h11.5l-17.4-53.2c-1.8-0.6-4.1-1-6.5-1
	c-2.6,0-3.6,0.4-5.7,1l-18.4,53.2h11c0,0,1.5-4.7,3.3-10.5h19.1C207.4,144.9,208.8,149.6,208.8,149.6L208.8,149.6z M189.4,130.2
	c0,0,3.2-10.7,3.7-12.3c1.3-4.3,3.2-11.1,3.2-11.1h0.3c0,0,1.8,7.1,2.9,11.1l3.5,12.4H189.4z M317.9,124.1c-3.5,0-6.4,2.9-6.4,6.4
	c0,3.5,2.9,6.4,6.4,6.4c3.5,0,6.4-2.8,6.4-6.4C324.3,127,321.5,124.1,317.9,124.1z M234,95.5h-10v54.1h10V95.5z M432.7,119.2
	c5.5,0.1,6.2,1.3,6.2,5.9v24.5h9.9v-25.3c0-5.5-0.6-7.5-2.1-9.5c-2-2.9-6-4.1-12.8-4.1c-6.7,0-10.9,0.7-16.4,2.3v36.6h10v-29.9
	C430.1,119.3,430.5,119.2,432.7,119.2L432.7,119.2z M258.7,94.5c-6.2,0-9.6,1.2-11.7,4.1c-1.5,2-2.1,4.1-2.1,9.6v4.7h-5v8.1h5v28.6
	h9.9l0-28.6h9.9v-8.1h-9.9l0-4.3c0-5,0.8-5.9,7.4-5.9c0.7,0,1.5,0,2.4,0.1l1.6-7.8C263.7,94.7,261.2,94.5,258.7,94.5L258.7,94.5z
	 M338.3,95c3.4-0.2,11-0.5,15.8-0.5c0.8,0,1.7,0,2.7,0c9.4,0,14.8,6.8,14.8,14.9c0,5.5-2.5,9.1-8.3,11.2c6.9,1.5,10.5,6.9,10.5,13.5
	c0,4.8-1.4,8.7-3.9,11.3c-3.2,3.2-8.1,5-14.7,5c-5.8,0-13.1-0.2-16.8-0.4L338.3,95L338.3,95L338.3,95z M354,103.9
	c-1.7,0-3.7,0-5.7,0.1v13h5.7c2.3,0,4.1-0.6,5.3-1.9c1.2-1.1,1.8-2.8,1.8-4.7c0-4.1-2.2-6.5-6.4-6.5L354,103.9L354,103.9z
	 M354.2,141.1h0.5c5.2,0,8.4-2.8,8.4-8.3c-0.1-2-0.8-3.9-2.2-5.2c-1.5-1.5-3.6-2.3-6.1-2.3h-6.5v15.8
	C350.1,141.1,352.1,141.1,354.2,141.1L354.2,141.1z"/>
</svg>
