<?xml version="1.0" encoding="utf-8"?>
<!-- Generator: Adobe Illustrator 23.0.1, SVG Export Plug-In . SVG Version: 6.00 Build 0)  -->
<svg version="1.1" id="Layer_1" xmlns="http://www.w3.org/2000/svg" xmlns:xlink="http://www.w3.org/1999/xlink" x="0px" y="0px"
	 viewBox="0 0 500 250" style="enable-background:new 0 0 500 250;" xml:space="preserve">
<style type="text/css">
	.st0{fill:none;}
	.st1{fill:#11466B;}
	.st2{opacity:0.3;}
	.st3{fill:#FFFFFF;}
	.st4{fill:#FF9735;}
</style>
<rect x="0" y="0.7" class="st0" width="500" height="250"/>
<g>
	<rect x="9.8" y="42.3" class="st1" width="344" height="166.7"/>
	<g class="st2">
		<g>
			<path class="st3" d="M123.9,83.4c0.7,2,1.9,3.6,3.6,4.7s3.6,1.7,5.8,1.7c1.4,0,2.9-0.3,4.4-0.9l-0.4,6.4
				c-1.3,0.4-2.8,0.6-4.4,0.6c-3.9,0-7.2-1.2-9.9-3.4c-2.7-2.2-4.5-5.3-5.3-9.2l-3.1,0l1.1-3.7l1.7,0c0-0.3,0-0.8,0-1.5
				c0-0.6,0.1-1.1,0.1-1.4l-2.5,0l1.1-3.7l2.2,0c1.3-3.8,3.5-6.8,6.5-9c3.1-2.2,6.5-3.2,10.2-3.2c1.4,0,2.9,0.3,4.3,0.7l-1.7,5.9
				c-1.1-0.4-2.1-0.6-3.1-0.6c-2,0-4,0.5-5.7,1.6c-1.8,1.1-3.2,2.6-4.2,4.6l11.4,0.1l-1,3.7l-11.7-0.1c-0.1,0.6-0.1,1.1-0.2,1.4
				c0,0.4,0,0.9,0,1.5l11.1,0.1l-1.1,3.7L123.9,83.4z"/>
		</g>
		<g>
			<rect x="28.9" y="77.1" class="st3" width="74.9" height="2.5"/>
		</g>
		<g>
			<rect x="10" y="192.6" class="st3" width="344" height="2.5"/>
		</g>
	</g>
	<g>
		<path class="st3" d="M114,121.5l-13.2,12.6c-9-9.5-19.1-14.3-30.3-14.3c-9.5,0-17.5,3.2-24,9.7s-9.8,14.5-9.8,24
			c0,6.6,1.4,12.5,4.3,17.6c2.9,5.1,6.9,9.2,12.2,12.1c5.3,2.9,11.1,4.4,17.5,4.4c5.5,0,10.5-1,15-3.1s9.5-5.8,15-11.2l12.8,13.4
			c-7.3,7.2-14.3,12.1-20.8,14.9c-6.5,2.8-14,4.2-22.3,4.2c-15.4,0-28.1-4.9-37.9-14.7c-9.8-9.8-14.7-22.3-14.7-37.6
			c0-9.9,2.2-18.7,6.7-26.4c4.5-7.7,10.9-13.9,19.2-18.5c8.4-4.7,17.3-7,27-7c8.2,0,16.1,1.7,23.7,5.2
			C101.9,110.2,108.5,115.1,114,121.5z M150.8,104H170l38.2,99.3h-19.6l-7.8-20.4h-40.5l-8.1,20.4h-19.7L150.8,104z M160.5,130.4
			l-13.3,34.1h26.6L160.5,130.4z M264.9,117.5l-14,12.3c-4.9-6.8-9.9-10.3-15-10.3c-2.5,0-4.5,0.7-6.1,2c-1.6,1.3-2.4,2.8-2.4,4.5
			c0,1.7,0.6,3.2,1.7,4.7c1.5,2,6.1,6.2,13.9,12.8c7.2,6,11.6,9.8,13.1,11.4c3.8,3.9,6.5,7.6,8.1,11.1c1.6,3.5,2.4,7.4,2.4,11.6
			c0,8.1-2.8,14.9-8.5,20.2c-5.6,5.3-13,8-22,8c-7.1,0-13.2-1.7-18.5-5.2c-5.3-3.5-9.8-8.9-13.5-16.3l15.9-9.6
			c4.8,8.8,10.3,13.2,16.5,13.2c3.2,0,6-0.9,8.2-2.8c2.2-1.9,3.3-4.1,3.3-6.5c0-2.3-0.8-4.5-2.5-6.7c-1.7-2.3-5.3-5.7-11-10.3
			c-10.8-8.8-17.8-15.6-20.9-20.4c-3.2-4.8-4.8-9.6-4.8-14.4c0-6.9,2.6-12.8,7.9-17.7c5.2-4.9,11.7-7.4,19.4-7.4
			c4.9,0,9.7,1.2,14.1,3.4C254.9,107.3,259.7,111.5,264.9,117.5z M274.7,104h19.2v37.5H327V104h19.1v99.3H327v-43.5h-33.1v43.5
			h-19.2V104z"/>
		<path class="st4" d="M359.7,101.6h18.4v101.8h-18.4V101.6z M397.9,99.7c3.2,0,6,1.2,8.3,3.5c2.3,2.3,3.5,5.2,3.5,8.5
			c0,3.3-1.2,6.1-3.4,8.4s-5,3.5-8.2,3.5c-3.3,0-6.1-1.2-8.4-3.6c-2.3-2.4-3.5-5.2-3.5-8.6c0-3.2,1.2-6,3.4-8.3
			C391.9,100.8,394.7,99.7,397.9,99.7z M388.7,129.9h18.4v73.4h-18.4C388.7,203.3,388.7,129.9,388.7,129.9z M432.4,101.6V138
			c3.3-3.3,6.9-5.8,10.8-7.5c3.9-1.7,8-2.5,12.4-2.5c9.6,0,17.7,3.6,24.4,10.9c6.7,7.3,10.1,16.5,10.1,27.9
			c0,10.9-3.5,20.1-10.4,27.4c-6.9,7.3-15.1,11-24.6,11c-4.2,0-8.2-0.7-11.8-2.3c-3.7-1.5-7.3-4-10.9-7.4v7.8h-18.3V101.5
			L432.4,101.6L432.4,101.6L432.4,101.6z M451.8,145c-5.8,0-10.6,2-14.5,5.9c-3.8,4-5.7,9.1-5.7,15.5c0,6.5,1.9,11.8,5.7,15.8
			c3.8,4,8.6,6,14.5,6c5.6,0,10.4-2,14.2-6.1c3.8-4.1,5.8-9.3,5.8-15.7c0-6.3-1.9-11.5-5.7-15.5C462.3,147,457.6,145,451.8,145z"/>
	</g>
</g>
</svg>
