<?xml version="1.0" encoding="utf-8"?>
<!-- Generator: Adobe Illustrator 23.0.1, SVG Export Plug-In . SVG Version: 6.00 Build 0)  -->
<svg version="1.1" id="Layer_1" xmlns="http://www.w3.org/2000/svg" xmlns:xlink="http://www.w3.org/1999/xlink" x="0px" y="0px"
	 viewBox="0 0 500 250" style="enable-background:new 0 0 500 250;" xml:space="preserve">
<style type="text/css">
	.st0{fill:none;}
	.st1{clip-path:url(#SVGID_2_);}
	.st2{fill:#010101;}
	.st3{fill:#231F20;}
</style>
<rect x="-0.6" y="0.7" class="st0" width="500" height="250"/>
<g>
	<g id="Layer_1-2">
		<g id="Layer_2-2">
			<g id="Layer_1-2-2">
				<g>
					<defs>
						<rect id="SVGID_1_" x="12.1" y="65.8" width="71.3" height="120.4"/>
					</defs>
					<clipPath id="SVGID_2_">
						<use xlink:href="#SVGID_1_"  style="overflow:visible;"/>
					</clipPath>
					<g class="st1">
						<path class="st2" d="M71.8,65.2H20.9c-4.9,0-8.8,3.9-8.8,8.8v103.2c-0.1,4.9,3.7,8.9,8.6,9c0,0,0,0,0,0h51
							c4.9,0,8.8-3.9,8.8-8.8l0,0l0,0V74C80.6,69.2,76.6,65.2,71.8,65.2C71.8,65.2,71.8,65.2,71.8,65.2z M33.8,70.7h25.1
							c0.7,0,1.2,0.9,1.2,2.1S59.6,75,58.9,75H33.8c-0.7,0-1.2-0.9-1.2-2.1S33.2,70.7,33.8,70.7z M46.4,177.5c-3,0-5.5-2.5-5.5-5.5
							c0-3,2.5-5.5,5.5-5.5s5.5,2.5,5.5,5.5C51.9,175,49.4,177.5,46.4,177.5z M73.9,158.2H18.7V80.1h55L73.9,158.2z"/>
					</g>
				</g>
				<path class="st3" d="M157.7,115.4V70.7h-20.3l-7,24H130l-7.9-24h-19.9v44.6h14l-0.7-25.3h0.3l8.2,25.3h10.6l8.4-25.2h0.4
					l-0.4,25.1L157.7,115.4z M211.8,102.5c1.3-3.1,2-6.4,1.9-9.8c0.1-3.3-0.6-6.6-1.9-9.7c-1.3-2.8-3.2-5.3-5.5-7.4
					c-2.2-2.1-4.8-3.8-7.7-5c-6.4-2.2-13.3-2.2-19.7,0c-2.9,1-5.6,2.6-7.9,4.7c-2.3,2-4.2,4.5-5.5,7.4c-1.2,3.2-1.8,6.6-1.6,10
					c-0.1,3.4,0.6,6.7,1.9,9.8c1.3,2.9,3.2,5.4,5.5,7.5c2.2,2,4.8,3.6,7.6,4.7c6.4,2.3,13.3,2.3,19.7,0c2.9-1.1,5.6-2.7,7.9-4.8
					C208.8,107.8,210.6,105.3,211.8,102.5z M197,97c-0.4,1.2-1,2.2-1.9,3.1c-1.6,1.8-3.9,2.8-6.3,2.8c-1.2,0-2.4-0.2-3.5-0.7
					c-1-0.6-1.9-1.4-2.6-2.3c-0.8-0.9-1.4-2-1.8-3.1c-0.6-1.3-0.9-2.7-0.9-4.1c0-1.3,0.2-2.7,0.7-4c0.5-1.1,1.2-2.2,2.1-3
					c0.8-0.8,1.7-1.5,2.8-1.9c1.1-0.5,2.3-0.7,3.5-0.7c2.4,0,4.7,0.9,6.3,2.6c0.8,0.9,1.5,1.9,1.9,3c0.5,1.3,0.7,2.6,0.7,4
					c-0.1,1.4-0.4,2.7-0.9,4V97z M255.1,95.5c-0.8-0.9-1.7-1.6-2.7-2.1c-1-0.5-2-1-3.1-1.2l0,0c1.9-0.7,3.6-2,4.9-3.7
					c1.3-1.7,1.9-3.8,1.8-5.9c0.1-2.2-0.6-4.4-1.8-6.3c-1.1-1.5-2.6-2.8-4.3-3.6c-1.7-0.8-3.6-1.4-5.5-1.7c-2-0.1-4-0.1-6,0H220
					v44.3h20.3c2.1,0,4.3-0.2,6.4-0.6c2-0.4,3.8-1.1,5.5-2.2c3.5-2.2,5.7-6.1,5.5-10.2c0-1.4-0.2-2.8-0.7-4.1
					C256.5,97.2,255.9,96.3,255.1,95.5z M234.1,82.3h3.6c1-0.1,2,0.1,2.9,0.6c0.7,0.4,1.1,1.1,1.1,1.9c0.1,0.9-0.3,1.7-1,2.3
					c-0.8,0.5-1.7,0.8-2.6,0.7H234L234.1,82.3z M241.4,102.8c-0.8,0.5-1.8,0.8-2.9,0.8h-4.5v-6.1h5.1c0.5,0.1,1,0.3,1.5,0.5
					c0.4,0.2,0.8,0.5,1.2,0.9c0.3,0.4,0.5,0.9,0.5,1.4C242.5,101.2,242.1,102.2,241.4,102.8z M279,70.7h-15.2v44.6H279V70.7z
					 M317.5,102.5h-14.9V70.7h-15.5v44.6h30L317.5,102.5z M354,103h-17.9v-4.3h15.6V87.2h-15.6v-3.9h16.5V70.7H322v44.6h31.9
					L354,103z M119,149.1c0.9-0.9,2-1.5,3.1-1.9c1.1-0.4,2.3-0.7,3.5-0.7c1.5,0,2.9,0.3,4.2,0.9c1.2,0.6,2.3,1.4,3.1,2.5l9.2-11
					c-2.2-2-4.9-3.5-7.7-4.5c-3.1-1.1-6.5-1.7-9.8-1.7c-3.2,0-6.5,0.5-9.5,1.7c-2.9,1.1-5.5,2.7-7.8,4.8c-2.2,2.1-4,4.7-5.2,7.5
					c-1.4,3-2.1,6.2-2.2,9.5c-0.1,3.3,0.6,6.6,1.9,9.6c1.2,2.8,3,5.4,5.2,7.5c2.2,2.1,4.9,3.8,7.8,4.8c6.3,2.3,13.3,2.3,19.6,0
					c2.8-1.1,5.3-2.7,7.5-4.8l-9.2-11c-0.8,1-1.8,1.9-2.9,2.5c-1.4,0.8-2.9,1.1-4.5,1.1c-1.2,0-2.4-0.2-3.5-0.7
					c-1.1-0.4-2.1-1.1-2.9-1.9c-0.8-0.9-1.5-1.9-2-3c-0.5-1.3-0.7-2.6-0.7-4c0-1.4,0.2-2.7,0.7-4C117.5,151.1,118.2,150,119,149.1z
					 M186,138.9c-2.3-2.1-5-3.7-7.9-4.7c-6.4-2.2-13.3-2.2-19.7,0c-2.9,1-5.6,2.6-7.9,4.7c-2.3,2-4.2,4.5-5.5,7.4
					c-1.3,3.1-1.9,6.4-1.9,9.7c-0.1,3.4,0.6,6.7,1.9,9.8c1.3,2.9,3.2,5.4,5.5,7.5c2.3,2.1,4.9,3.8,7.9,4.8c6.4,2.3,13.3,2.3,19.7,0
					c2.9-1.1,5.6-2.7,7.9-4.8c2.4-2.1,4.2-4.7,5.5-7.5c1.4-3.1,2.1-6.4,2.1-9.8c0.1-3.3-0.6-6.6-1.9-9.7c-1.3-2.8-3.2-5.3-5.5-7.4
					L186,138.9z M176.5,160c-0.4,1.2-1,2.2-1.9,3.1c-1.6,1.8-3.9,2.8-6.3,2.8c-1.2,0-2.4-0.2-3.5-0.7c-1.1-0.5-2-1.2-2.8-2
					c-0.8-0.9-1.4-2-1.8-3.1c-0.5-1.3-0.7-2.7-0.7-4.1c0-1.3,0.2-2.7,0.7-4c0.4-1.1,1-2.2,1.8-3c0.8-0.8,1.7-1.5,2.8-1.9
					c1.1-0.5,2.3-0.7,3.5-0.7c2.4,0,4.7,0.9,6.3,2.6c0.8,0.9,1.5,1.9,1.9,3c0.5,1.3,0.7,2.6,0.7,4
					C177.1,157.4,176.9,158.7,176.5,160L176.5,160z M227.6,157.9h-0.3l-8.1-24.1h-19.6v44.7h14l-0.7-25.3h0.3l8,25.3h11l8.2-25.3
					h0.4l-0.4,25.1H255v-44.6h-20.4L227.6,157.9z M291.3,157.9h-0.3l-8.1-24.1h-19.6v44.7h14l-0.7-25.3h0.3l8.2,25.3h10.6l8.4-25.3
					h0.4l-0.4,25.1h14.7v-44.6h-20.5L291.3,157.9z M340.8,161.9h15.6v-11.7h-15.3v-3.9h16.5v-12.5h-30.7v44.7h31.8v-12.5h-17.6
					L340.8,161.9z M400.1,155.6c1.4-2.2,2.1-4.7,2-7.3c0.1-2.4-0.5-4.9-1.6-7c-0.9-1.8-2.2-3.4-3.9-4.6c-1.8-1.2-3.8-2-5.8-2.4
					c-2.2-0.4-4.3-0.7-6.5-0.7H365v44.8h14.6v-16h0.4l8.6,16h17.3l-11.3-18.2C396.8,159.4,398.7,157.7,400.1,155.6L400.1,155.6z
					 M386.8,150.9c-0.3,0.5-0.8,0.9-1.3,1.2c-0.5,0.3-1.1,0.5-1.7,0.6h-4.6v-7.2h5.1c0.5,0.1,1,0.2,1.5,0.4c0.5,0.2,0.9,0.6,1.2,1
					c0.3,0.6,0.5,1.2,0.4,1.9c0.2,0.7,0.2,1.4,0,2L386.8,150.9z M426.6,149.1c0.8-0.8,1.8-1.5,2.9-1.9c1.1-0.4,2.3-0.7,3.5-0.7
					c1.5,0,2.9,0.3,4.2,0.9c1.2,0.6,2.3,1.4,3.1,2.5l9.2-11c-2.2-2-4.9-3.5-7.7-4.5c-3.1-1.1-6.5-1.7-9.8-1.7
					c-3.2,0-6.5,0.5-9.5,1.7c-2.9,1.1-5.5,2.7-7.8,4.8c-2.2,2.1-4,4.7-5.2,7.5c-1.1,3-1.6,6.3-1.5,9.5c-0.1,3.3,0.6,6.6,1.9,9.6
					c1.2,2.8,3,5.4,5.2,7.5c2.2,2.1,4.9,3.8,7.8,4.8c6.3,2.3,13.3,2.3,19.6,0c2.8-1.1,5.3-2.7,7.5-4.8l-9.2-11
					c-0.8,1-1.8,1.9-2.9,2.5c-1.4,0.8-2.9,1.1-4.5,1.1c-1.2,0-2.4-0.2-3.5-0.7c-1.1-0.4-2.1-1.1-2.9-1.9c-0.8-0.9-1.5-1.9-2-3
					c-0.5-1.3-0.7-2.6-0.7-4c0-1.4,0.2-2.7,0.7-4c0.4-1.2,1-2.3,1.8-3.2L426.6,149.1z M468,166.1v-4.2h15.6v-11.7h-15.3v-3.9h16.5
					v-12.5h-30.6v44.7H486v-12.5H468z"/>
			</g>
		</g>
	</g>
</g>
</svg>
