<?xml version="1.0" encoding="utf-8"?>
<!-- Generator: Adobe Illustrator 23.0.1, SVG Export Plug-In . SVG Version: 6.00 Build 0)  -->
<svg version="1.1" id="Layer_1" xmlns="http://www.w3.org/2000/svg" xmlns:xlink="http://www.w3.org/1999/xlink" x="0px" y="0px"
	 viewBox="0 0 500 250" style="enable-background:new 0 0 500 250;" xml:space="preserve">
<style type="text/css">
	.st0{fill:none;}
	.st1{fill-rule:evenodd;clip-rule:evenodd;fill:#231F20;}
	.st2{fill-rule:evenodd;clip-rule:evenodd;fill:#FFFFFF;}
	.st3{fill:#231F20;}
</style>
<rect x="0" y="0.2" class="st0" width="500" height="250"/>
<g id="surface1">
	<path class="st1" d="M43,18h22.9V232H43V18"/>
	<path class="st1" d="M73.1,18h7.1V232h-7.1V18"/>
	<path class="st1" d="M86.3,18H99V232H86.3V18"/>
	<path class="st1" d="M111.3,18h7.1V232h-7.1V18"/>
	<path class="st1" d="M121.4,18h5.5V232h-5.5V18"/>
	<path class="st1" d="M25.6,18h7.1V232h-7.1V18"/>
	<path class="st1" d="M10,18h12.7V232H10V18"/>
	<path class="st1" d="M164.7,18h22.9V232h-22.9V18"/>
	<path class="st1" d="M194.8,18h7.1V232h-7.1V18"/>
	<path class="st1" d="M208.1,18h12.7V232h-12.7V18"/>
	<path class="st1" d="M233,18h7.1V232H233V18"/>
	<path class="st1" d="M243.1,18h5.5V232h-5.5V18"/>
	<path class="st1" d="M147.4,18h7.1V232h-7.1V18"/>
	<path class="st1" d="M131.7,18h12.7V232h-12.7V18"/>
	<path class="st1" d="M257.6,18h12.7V232h-12.7V18"/>
	<path class="st1" d="M282.5,18h7.1V232h-7.1V18"/>
	<path class="st1" d="M292.7,18h5.4V232h-5.4V18"/>
	<path class="st1" d="M318.6,18h7.1V232h-7.1V18"/>
	<path class="st1" d="M303,18h12.7V232H303V18"/>
	<path class="st1" d="M335.1,18h7.1V232h-7.1V18"/>
	<path class="st1" d="M345.3,18h5.5V232h-5.5V18"/>
	<path class="st1" d="M371.2,18h7.1V232h-7.1V18"/>
	<path class="st1" d="M355.6,18h12.7V232h-12.7V18"/>
	<path class="st1" d="M384.5,18h22.9V232h-22.9V18"/>
	<path class="st1" d="M414.6,18h7.1V232h-7.1V18"/>
	<path class="st1" d="M427.8,18h12.7V232h-12.7V18"/>
	<path class="st1" d="M452.7,18h7.1V232h-7.1V18"/>
	<path class="st1" d="M462.9,18h5.5V232h-5.5V18"/>
	<path class="st1" d="M477.3,18H490V232h-12.7V18"/>
	<path class="st2" d="M35.9,232.5h438.2v-120H35.9V232.5"/>
	<path class="st3" d="M44.1,227.9V119.4h40.7c8.3,0,14.9,1.1,20,3.3c5,2.2,8.9,5.6,11.7,10.2c2.9,4.5,4.3,9.3,4.3,14.3
		c0,4.6-1.3,9-3.8,13.1c-2.5,4.1-6.3,7.4-11.4,9.9c6.6,1.9,11.6,5.2,15.1,9.9c3.5,4.6,5.3,10.1,5.3,16.4c0,5.1-1.1,9.8-3.2,14.2
		c-2.1,4.4-4.8,7.7-8,10.1c-3.2,2.3-7.1,4.2-11.9,5.4c-4.8,1.2-10.6,1.8-17.5,1.8H44.1z M58.5,165H82c6.4,0,10.9-0.4,13.7-1.3
		c3.7-1.1,6.4-2.9,8.3-5.4c1.8-2.5,2.8-5.7,2.8-9.5c0-3.6-0.9-6.8-2.6-9.5c-1.7-2.8-4.2-4.7-7.4-5.7c-3.2-1-8.7-1.5-16.5-1.5H58.5
		V165z M58.5,215.2h27c4.6,0,7.9-0.2,9.8-0.5c3.3-0.6,6.1-1.6,8.3-3c2.2-1.4,4-3.4,5.5-6.1c1.4-2.6,2.1-5.7,2.1-9.2
		c0-4.1-1-7.6-3.1-10.6c-2.1-3-5-5.1-8.6-6.3c-3.7-1.2-9-1.8-15.9-1.8H58.5V215.2"/>
	<path class="st3" d="M139.2,188.6c0-14.5,4-25.3,12.2-32.3c6.7-5.8,15-8.7,24.7-8.7c10.8,0,19.6,3.5,26.5,10.6
		c6.9,7,10.3,16.8,10.3,29.3c0,10.1-1.5,18.1-4.5,23.8c-3,5.8-7.5,10.3-13.3,13.5c-5.8,3.2-12.1,4.8-19,4.8
		c-11,0-19.9-3.5-26.7-10.6C142.6,212,139.2,201.8,139.2,188.6z M152.8,188.6c0,10.1,2.2,17.6,6.6,22.6c4.4,5,10,7.5,16.7,7.5
		c6.6,0,12.1-2.5,16.6-7.5c4.4-5,6.6-12.7,6.6-23c0-9.7-2.2-17.1-6.6-22c-4.4-5-9.9-7.5-16.5-7.5c-6.7,0-12.2,2.5-16.7,7.5
		C155,171.1,152.8,178.6,152.8,188.6"/>
	<path class="st3" d="M228.2,227.9V119.4h13.3v108.6H228.2"/>
	<path class="st3" d="M315.9,202.4l13.8,1.8c-2.1,8-6.2,14.3-12,18.7c-5.9,4.4-13.3,6.6-22.5,6.6c-11.5,0-20.6-3.5-27.3-10.6
		c-6.7-7-10.1-17-10.1-29.7c0-13.2,3.4-23.5,10.2-30.7c6.8-7.3,15.6-10.9,26.5-10.9c10.5,0,19.1,3.6,25.7,10.7
		c6.6,7.1,10,17.2,10,30.2c0,0.8,0,2-0.1,3.5h-58.6c0.5,8.6,2.9,15.2,7.3,19.8c4.4,4.6,9.9,6.9,16.4,6.9c4.9,0,9.1-1.3,12.5-3.9
		C311.1,212.2,313.8,208.1,315.9,202.4z M272.2,181.1H316c-0.6-6.6-2.3-11.6-5-14.9c-4.2-5.1-9.7-7.7-16.5-7.7
		c-6.1,0-11.2,2.1-15.4,6.1C275,168.7,272.7,174.2,272.2,181.1"/>
	<path class="st3" d="M375.5,216l1.8,11.8c-3.7,0.8-7.1,1.2-10,1.2c-4.8,0-8.6-0.8-11.3-2.3c-2.6-1.5-4.5-3.5-5.6-6
		c-1.1-2.5-1.6-7.8-1.6-15.8v-45.3h-9.9v-10.3h9.9v-19.4l13.3-8v27.5h13.3v10.3h-13.3v46.1c0,3.8,0.2,6.3,0.7,7.4
		c0.5,1.1,1.2,2,2.3,2.6c1.1,0.6,2.6,1,4.5,1C371.1,216.6,373.1,216.4,375.5,216"/>
	<path class="st3" d="M383.6,188.6c0-14.5,4.1-25.3,12.2-32.3c6.7-5.8,15-8.7,24.7-8.7c10.8,0,19.6,3.5,26.5,10.6
		c6.8,7,10.3,16.8,10.3,29.3c0,10.1-1.5,18.1-4.6,23.8c-3,5.8-7.5,10.3-13.3,13.5c-5.8,3.2-12.1,4.8-19,4.8
		c-11,0-19.9-3.5-26.7-10.6C387,212,383.6,201.8,383.6,188.6z M397.3,188.6c0,10.1,2.2,17.6,6.6,22.6c4.4,5,10,7.5,16.6,7.5
		c6.6,0,12.1-2.5,16.6-7.5c4.4-5,6.6-12.7,6.6-23c0-9.7-2.2-17.1-6.6-22c-4.4-5-9.9-7.5-16.5-7.5c-6.7,0-12.2,2.5-16.6,7.5
		C399.5,171.1,397.3,178.6,397.3,188.6"/>
</g>
</svg>
