<?xml version="1.0" encoding="UTF-8"?> <svg xmlns="http://www.w3.org/2000/svg" width="250" height="190" viewBox="0 0 250 190" fill="none"><path d="M17.6864 17.1875V163.281C17.6864 165.56 18.5918 167.746 20.2035 169.358C21.8151 170.97 24.0009 171.875 26.2802 171.875H223.936C226.216 171.875 228.401 170.97 230.013 169.358C231.625 167.746 232.53 165.56 232.53 163.281V34.375H34.8739C30.3155 34.375 25.9438 32.5642 22.7205 29.3409C19.4972 26.1176 17.6864 21.7459 17.6864 17.1875Z" fill="#5E34FF"></path><path d="M155.186 171.875H223.936C226.216 171.875 228.401 170.97 230.013 169.358C231.625 167.746 232.53 165.56 232.53 163.281V94.5312C232.536 104.69 230.539 114.75 226.654 124.136C222.769 133.522 217.072 142.051 209.889 149.234C202.706 156.417 194.178 162.114 184.791 165.999C175.405 169.884 165.345 171.881 155.186 171.875Z" fill="#4224B3" fill-opacity="0.81"></path><path d="M34.874 6.69147e-08C32.4743 -0.000211666 30.1012 0.502058 27.9075 1.47447C25.7137 2.44688 23.7479 3.86788 22.1365 5.64601C20.5251 7.42413 19.304 9.51997 18.5516 11.7986C17.7992 14.0772 17.5323 16.4882 17.7681 18.8762C18.307 23.2057 20.4273 27.1833 23.7213 30.0443C27.0154 32.9052 31.2506 34.4476 35.613 34.375H232.53V8.59375C232.53 6.31455 231.625 4.12869 230.013 2.51705C228.402 0.905412 226.216 6.69147e-08 223.936 6.69147e-08H34.874Z" fill="#5EEAA7"></path><path d="M241.124 85.9375H189.561V120.312H241.124C243.403 120.312 245.589 119.407 247.201 117.795C248.812 116.184 249.718 113.998 249.718 111.719V94.5312C249.718 92.252 248.812 90.0662 247.201 88.4545C245.589 86.8429 243.403 85.9375 241.124 85.9375Z" fill="#6E48FF"></path><path d="M52.0614 85.9375V189.062C65.7366 189.062 78.8517 183.63 88.5216 173.96C98.1914 164.29 103.624 151.175 103.624 137.5C103.624 123.825 98.1914 110.71 88.5216 101.04C78.8517 91.37 65.7366 85.9375 52.0614 85.9375Z" fill="#5EEAA7"></path><path d="M0.498901 137.5C0.498901 151.175 5.93136 164.29 15.6012 173.96C25.2711 183.63 38.3862 189.062 52.0614 189.062V85.9375C38.3862 85.9375 25.2711 91.37 15.6012 101.04C5.93136 110.71 0.498901 123.825 0.498901 137.5Z" fill="#48D898"></path><path d="M52.0614 116.016C59.0481 116.016 64.952 119.952 64.952 124.609C64.952 125.749 65.4047 126.842 66.2105 127.648C67.0164 128.454 68.1093 128.906 69.2489 128.906C70.3885 128.906 71.4814 128.454 72.2873 127.648C73.0931 126.842 73.5458 125.749 73.5458 124.609C73.5458 116.308 66.1509 109.368 56.3583 107.77V103.125C56.3583 101.985 55.9056 100.892 55.0998 100.087C54.2939 99.2808 53.201 98.8281 52.0614 98.8281C50.9218 98.8281 49.8289 99.2808 49.0231 100.087C48.2172 100.892 47.7645 101.985 47.7645 103.125V107.77C37.9719 109.368 30.577 116.308 30.577 124.609C30.577 134.088 40.2149 141.797 52.0614 141.797C59.0481 141.797 64.952 145.733 64.952 150.391C64.952 155.048 59.0481 158.984 52.0614 158.984C45.0747 158.984 39.1708 155.048 39.1708 150.391C39.1708 149.251 38.7181 148.158 37.9123 147.352C37.1064 146.546 36.0135 146.094 34.8739 146.094C33.7343 146.094 32.6414 146.546 31.8356 147.352C31.0297 148.158 30.577 149.251 30.577 150.391C30.577 158.692 37.9719 165.632 47.7645 167.23V171.875C47.7645 173.015 48.2172 174.108 49.0231 174.913C49.8289 175.719 50.9218 176.172 52.0614 176.172C53.201 176.172 54.2939 175.719 55.0998 174.913C55.9056 174.108 56.3583 173.015 56.3583 171.875V167.23C66.1509 165.632 73.5458 158.692 73.5458 150.391C73.5458 140.912 63.9079 133.203 52.0614 133.203C45.0747 133.203 39.1708 129.267 39.1708 124.609C39.1708 119.952 45.0747 116.016 52.0614 116.016Z" fill="#6461FC"></path><path d="M34.8739 21.4844H215.343C216.482 21.4844 217.575 21.0317 218.381 20.2259C219.187 19.42 219.64 18.3271 219.64 17.1875C219.64 16.0479 219.187 14.955 218.381 14.1491C217.575 13.3433 216.482 12.8906 215.343 12.8906H34.8739C33.7343 12.8906 32.6414 13.3433 31.8356 14.1491C31.0297 14.955 30.577 16.0479 30.577 17.1875C30.577 18.3271 31.0297 19.42 31.8356 20.2259C32.6414 21.0317 33.7343 21.4844 34.8739 21.4844Z" fill="#48D898"></path><path d="M211.046 98.8281H206.749C205.609 98.8281 204.516 99.2808 203.711 100.087C202.905 100.892 202.452 101.985 202.452 103.125C202.452 104.265 202.905 105.358 203.711 106.163C204.516 106.969 205.609 107.422 206.749 107.422H211.046C212.185 107.422 213.278 106.969 214.084 106.163C214.89 105.358 215.343 104.265 215.343 103.125C215.343 101.985 214.89 100.892 214.084 100.087C213.278 99.2808 212.185 98.8281 211.046 98.8281Z" fill="#4224B3" fill-opacity="0.81"></path></svg> 