<?xml version="1.0" encoding="UTF-8"?> <svg xmlns="http://www.w3.org/2000/svg" width="276" height="200" viewBox="0 0 276 200" fill="none"><path d="M266.016 184.912H9.98224V9.48124C9.98224 4.24442 14.2267 0 19.4635 0H256.532C261.771 0 266.016 4.24442 266.016 9.48124V184.912Z" fill="#5E34FF"></path><path d="M247.051 71.7691C235.321 112.722 203.308 144.734 162.356 156.465H247.051V71.7691Z" fill="white" fill-opacity="0.22"></path><rect x="28.9657" y="19.2059" width="218.104" height="137.5" fill="#5EEAA7"></rect><path d="M161.705 170.69C161.69 175.92 157.454 180.156 152.224 180.171H119.034C113.802 180.156 109.566 175.92 109.551 170.69H0.498901V180.171C0.498901 190.647 8.98985 199.137 19.4656 199.137H256.532C267.008 199.137 275.499 190.647 275.499 180.171V170.69H161.705Z" fill="#542FE3"></path><circle cx="137.999" cy="87.9558" r="32.2266" fill="#5E34FF"></circle><path d="M147.464 85.3577C149.464 86.5124 149.464 89.3992 147.464 90.5539L133.905 98.3819C131.905 99.5366 129.405 98.0933 129.405 95.7839L129.405 80.1278C129.405 77.8184 131.905 76.375 133.905 77.5297L147.464 85.3577Z" fill="#5EEAA7"></path></svg> 