<?xml version="1.0" encoding="UTF-8"?> <svg xmlns="http://www.w3.org/2000/svg" width="208" height="251" viewBox="0 0 208 251" fill="none"><path d="M103.999 0.890625L0.873904 35.2656V102.941C0.868844 131.67 8.86619 159.832 23.9693 184.27C39.0724 208.708 60.6842 228.457 86.3817 241.301L103.999 250.109L121.616 241.301C147.314 228.457 168.925 208.708 184.028 184.27C199.132 159.832 207.129 131.67 207.124 102.941V35.2656L103.999 0.890625Z" fill="#5E34FF"></path><path d="M103.999 0.890625V250.109L121.616 241.301C147.314 228.457 168.925 208.708 184.028 184.27C199.132 159.832 207.129 131.67 207.124 102.941V35.2656L103.999 0.890625Z" fill="white" fill-opacity="0.15"></path><path d="M103.999 28.0468L26.6553 53.8281V102.941C26.5656 126.896 33.1934 150.396 45.7862 170.774C58.3791 191.152 76.4326 207.592 97.8975 218.227L103.999 221.277L110.101 218.227C131.565 207.592 149.619 191.152 162.212 170.774C174.805 150.396 181.432 126.896 181.343 102.941V53.8281L103.999 28.0468Z" fill="black" fill-opacity="0.11"></path><path d="M103.999 28.0468V221.277L110.1 218.227C131.565 207.592 149.619 191.152 162.212 170.774C174.805 150.396 181.432 126.896 181.343 102.941V53.8281L103.999 28.0468Z" fill="#5E34FF"></path><path d="M158.689 96.5906L146.534 84.4391L95.4051 135.568L71.0977 111.26L58.9461 123.416L95.4051 159.875L158.689 96.5906Z" fill="#5EEAA7"></path></svg> 