<?xml version="1.0" encoding="utf-8"?>
<!-- Generator: Adobe Illustrator 22.0.0, SVG Export Plug-In . SVG Version: 6.00 Build 0)  -->
<svg version="1.1" id="Capa_1" xmlns="http://www.w3.org/2000/svg" xmlns:xlink="http://www.w3.org/1999/xlink" x="0px" y="0px"
	 width="112px" height="80px" viewBox="0 0 112 80" enable-background="new 0 0 112 80" xml:space="preserve">
<g>
	<ellipse transform="matrix(0.7071 -0.7071 0.7071 0.7071 -9.2547 33.6568)" cx="36" cy="28" rx="12" ry="12"/>
	<path d="M100,0H12C5.4,0,0,5.4,0,12v56c0,6.6,5.4,12,12,12h88c6.6,0,12-5.4,12-12V12C112,5.4,106.6,0,100,0z M104,46.3L104,46.3
		L78.8,21.2c-1.6-1.6-4.1-1.6-5.7,0L40,54.3L26.8,41.2c-1.6-1.6-4.1-1.6-5.7,0L8,54.3V12c0-2.2,1.8-4,4-4h88c2.2,0,4,1.8,4,4V46.3z"
		/>
</g>
</svg>
