<?xml version="1.0" encoding="UTF-8"?> <svg xmlns="http://www.w3.org/2000/svg" xmlns:xlink="http://www.w3.org/1999/xlink" width="184" height="256" viewBox="0 0 184 256"><defs><style>.cls-1{fill:#f4f5f8;}.cls-2{fill:#1fadf7;}.cls-3{mask:url(#mask);}.cls-4,.cls-5,.cls-6,.cls-8{fill:none;}.cls-4{stroke:url(#linear-gradient);}.cls-5{stroke:url(#linear-gradient-2);}.cls-6{stroke:url(#linear-gradient-3);}.cls-7{fill:#6b11c9;}.cls-9{fill:#f0a217;}.cls-10{fill:#fcd415;}.cls-11{fill:#fcc901;}.cls-12{fill:#e39824;}.cls-13{isolation:isolate;}.cls-14{clip-path:url(#clip-path);}.cls-15{fill:#23baff;}.cls-16{fill:#23caff;}.cls-17{fill:#1facf5;}</style><mask id="mask" x="0" y="0" width="184.0474" height="282.0657" maskUnits="userSpaceOnUse"><g id="mask0_45_1705" data-name="mask0 45 1705"><rect class="cls-1" width="184" height="256"></rect></g></mask><linearGradient id="linear-gradient" x1="70.6629" y1="-18.9966" x2="103.0038" y2="224.8335" gradientTransform="matrix(1, 0, 0, -1, 0, 256)" gradientUnits="userSpaceOnUse"><stop offset="0" stop-color="#fff"></stop><stop offset="0.3267" stop-color="#e21284"></stop><stop offset="1" stop-color="#f5f5f5"></stop></linearGradient><linearGradient id="linear-gradient-2" x1="75.0447" y1="14.0994" x2="102.0251" y2="217.5103" gradientTransform="matrix(1, 0, 0, -1, 0, 256)" gradientUnits="userSpaceOnUse"><stop offset="0" stop-color="#fff"></stop><stop offset="0.0129" stop-color="#eee3f9"></stop><stop offset="0.036" stop-color="#d3b8ef"></stop><stop offset="0.0608" stop-color="#bb91e6"></stop><stop offset="0.0872" stop-color="#a771de"></stop><stop offset="0.1154" stop-color="#9657d8"></stop><stop offset="0.1464" stop-color="#8a42d4"></stop><stop offset="0.1813" stop-color="#8134d1"></stop><stop offset="0.2236" stop-color="#7c2ccf"></stop><stop offset="0.2937" stop-color="#7a29ce"></stop><stop offset="1" stop-color="#f5f5f5"></stop></linearGradient><linearGradient id="linear-gradient-3" x1="139.5155" y1="72.0318" x2="26.9583" y2="96.0318" gradientTransform="matrix(1, 0, 0, -1, 0, 256)" gradientUnits="userSpaceOnUse"><stop offset="0" stop-color="#e21284"></stop><stop offset="1" stop-color="#f5f5f5"></stop></linearGradient><clipPath id="clip-path"><path class="cls-2" d="M123.7356,58.8857l-2.9418,1.7407c-11.8141,6.9908-16.3888,22.3-10.16,35.4442,6.618,13.9666,22.9262,20.1984,36.4269,13.92q1.1922-.5544,2.3012-1.2117l2.9419-1.7408q-1.1087.6561-2.3013,1.2118c-13.5007,6.2786-29.8089.0467-36.4269-13.92C107.3468,81.1855,111.9215,65.8764,123.7356,58.8857Z"></path></clipPath></defs><title>Artboard 1</title><g id="Layer_2" data-name="Layer 2"><g class="cls-3"><path class="cls-4" d="M9.0263,266.74c7.156-23.659,41.59-66.382,122.0787-47.992C231.715,241.736,170.064,34.0747,92.32,109.041s-106.0248-2.613-80.637-28.1734,49.57-23.86,52.5555-46.3654c2.3888-18.01-49.6595-10.3033-62.4551,2.8654"></path><path class="cls-5" d="M8.0369,274.143c7.156-23.66,41.59-66.382,122.0781-47.992C230.726,249.138,169.074,41.477,91.33,116.443s-106.0248-2.612-80.637-28.173,49.57-23.86,52.5555-46.3655C65.6377,23.895,13.59,31.6013.7938,44.77"></path><path class="cls-6" d="M7.6079,281.921c7.1561-23.66,41.59-66.382,122.0781-47.992,100.611,22.987,38.959-184.6741-38.7845-109.708s-106.0248-2.612-80.637-28.1732,49.57-23.86,52.5555-46.3654c2.3888-18.01-49.6595-10.3033-62.4551,2.8654"></path><path class="cls-7" d="M149.045,92.8339c-46.697-41.1-74.0481-2.0173-81.8888,22.6641-9.21,28.994-28.3457,45.845-6.81,66.288s38.7932-18.569,76.1391-22.58C169.543,155.655,172.017,113.053,149.045,92.8339Z"></path></g></g><g id="Layer_1" data-name="Layer 1"><path class="cls-8" d="M81.1926,95.7336l5.3812.5616c21.6041,2.2548,38.2941,21.2567,38.0136,44.2781-.298,24.4521-19.6426,44.1849-43.2006,44.0676q-2.0812-.01-4.1106-.2236l-5.3812-.5616q2.0279.2116,4.1106.2235c23.558.1174,42.9026-19.6154,43.2006-44.0675C119.4867,116.99,102.7967,97.9884,81.1926,95.7336Z"></path><path class="cls-9" d="M81.1926,95.7336l5.3812.5616a40.914,40.914,0,0,1,9.8529,2.2831l-5.3812-.5616a40.9092,40.9092,0,0,0-9.8529-2.2831"></path><path class="cls-9" d="M91.0455,98.0167l5.3812.5616a41.99,41.99,0,0,1,15.0875,9.6343l-5.3813-.5616a41.9894,41.9894,0,0,0-15.0874-9.6343"></path><path class="cls-9" d="M106.1329,107.651l5.3813.5616a44.6435,44.6435,0,0,1,13.0732,32.3607,46.45,46.45,0,0,1-.3781,5.384l-5.3812-.5616a46.4721,46.4721,0,0,0,.3781-5.384,44.6436,44.6436,0,0,0-13.0733-32.3607"></path><path class="cls-9" d="M118.8281,145.3957l5.3812.5616a45.4089,45.4089,0,0,1-5.9613,17.3479l-5.3812-.5616a45.4112,45.4112,0,0,0,5.9613-17.3479"></path><path class="cls-9" d="M112.8668,162.7436l5.3812.5616a42.7235,42.7235,0,0,1-36.8612,21.3357q-2.0812-.01-4.1106-.2236l-5.3812-.5616q2.0279.2116,4.1106.2235a42.7236,42.7236,0,0,0,36.8612-21.3356"></path><path class="cls-10" d="M77.0848,95.51c23.5581.1173,42.4194,20.0405,42.1214,44.5015-.298,24.4521-19.6426,44.1849-43.2006,44.0675-23.5667-.1174-42.4281-20.04-42.13-44.4925C34.1736,115.1256,53.5181,95.3928,77.0848,95.51Z"></path><path class="cls-11" d="M77.4077,102.4837c20.0555,0,36.236,16.8275,36.1422,37.5963-.0938,20.76-16.4264,37.5963-36.4819,37.5963-20.0642,0-36.2447-16.8365-36.1509-37.5963C41.0109,119.3112,57.3435,102.4837,77.4077,102.4837Z"></path><g id="LkW7Tg.tif"><path class="cls-12" d="M94.1319,146.622a9.3174,9.3174,0,0,1-3.5255,8.7467,12.1794,12.1794,0,0,1-6.3492,2.6006c-.374.045-.5137.171-.5068.5669,0,1.9257-.0173,3.8424-.026,5.7682H78.717c-.0079-.171-.0159-.342-.0151-.504-.0013-1.6468-.0025-3.3025.0223-4.9492.01-.3773-.0947-.4968-.4114-.4968-.3452.0134-.6172.0167-.8891.0167-.3627,0-.7252-.0059-1.0879-.0059h-.2174c-.5563,0-.4868,0-.49.72-.0165,1.7368-.033,3.4735-.05,5.2193H70.5714l.0244-5.4172c.0024-.522.0024-.522-.4931-.522H60.6878c-.53,0-.5389-.0089-.5365-.5579.0061-1.35.0035-2.7086.0184-4.0584.0022-.4949.0284-.5219.5065-.5309.1526,0,.3053.0005.4578.0005.5338,0,1.0665-.0055,1.5941-.0545a1.5358,1.5358,0,0,0,1.5546-1.5927,18.1359,18.1359,0,0,0,.0691-1.8178l.0879-19.446c.0025-.5669-.021-1.1338-.0532-1.7007A1.5852,1.5852,0,0,0,62.89,127.041a13.1654,13.1654,0,0,0-1.4708-.0727c-.2312,0-.4623.0039-.6935.01-.33,0-.4429-.117-.4414-.45.0152-1.4218.03-2.8346.0192-4.2563.0017-.36.1412-.45.4715-.45q1.5734.0045,3.1492.004,3.151,0,6.3005-.004c.539,0,.539,0,.5415-.5489.0074-1.6378.0234-3.2755.0135-4.9133.0017-.3742.1161-.5043.4618-.5043.714.0094,1.392.0139,2.07.0139s1.3562-.0045,2.0343-.0135c.3967,0,.4859.146.4758.513-.0162,1.6647-.0063,3.3294-.0312,4.9852-.01.3534.0957.4787.401.4787.4184-.0108.7727-.0131,1.128-.0131s.7118.0023,1.0683.0023c.4954,0,.5041,0,.5064-.5039l.0218-4.8323c.0028-.6209.0028-.6209.62-.6209h3.8424c.5651,0,.5651,0,.5712.5669-.0077,1.7188-.0068,3.4285-.0319,5.1472-.01.378.1281.513.4756.5579a10.5735,10.5735,0,0,1,6.1426,2.7087,7.5347,7.5347,0,0,1,1.8739,2.79,8.0188,8.0188,0,0,1-.4231,7.0639,8.7622,8.7622,0,0,1-3.859,3.6535c-.4706.2519-.9669.4409-1.4464.7289.59.198,1.1893.3869,1.7795.6029a8.3212,8.3212,0,0,1,5.6714,6.9379ZM81.3457,152.03a5.269,5.269,0,0,0,2.93-7.73,4.653,4.653,0,0,0-3.3465-2.0157,18.0914,18.0914,0,0,0-2.4159-.198c-.7387-.0321-1.4777-.0367-2.2166-.0367q-.4434,0-.8867.0007c-.3261,0-.65.0023-.9726.0023s-.6444-.0023-.966-.0113c-.2,0-.2786.081-.28.306.0021,1.4668-.0133,2.9335-.02,4.4.0129,1.0169-.0092,2.0337.0036,3.06a9.9508,9.9508,0,0,0,.07,1.7637.8547.8547,0,0,0,.8917.81c.7033.0622,1.4068.0812,2.109.0812.6167,0,1.2324-.0146,1.8463-.0273a12.8057,12.8057,0,0,0,3.2531-.4049m-8.0908-19.833c-.0059,1.3048-.0031,2.61-.0264,3.9054-.01.3821.1186.5044.4558.5044.0122,0,.0247,0,.0375,0,.4434-.0135.8846-.018,1.3258-.018s.8823.0045,1.3257.009q.2586.0048.5167.0049a20.7152,20.7152,0,0,0,3.7618-.32,4.1425,4.1425,0,0,0,3.676-3.5635,3.82,3.82,0,0,0-2.258-4.3463,9.9422,9.9422,0,0,0-3.44-.54c-.9823-.018-1.9646-.018-2.9383-.018-.652,0-1.304,0-1.9559-.009-.3652,0-.47.126-.4718.4949.0116,1.2958-.003,2.6006-.0088,3.8964"></path></g><g class="cls-13"><g class="cls-13"><path class="cls-2" d="M123.7356,58.8857l-2.9418,1.7407c-11.8141,6.9908-16.3888,22.3-10.16,35.4442,6.618,13.9666,22.9262,20.1984,36.4269,13.92q1.1922-.5544,2.3012-1.2117l2.9419-1.7408q-1.1087.6561-2.3013,1.2118c-13.5007,6.2786-29.8089.0467-36.4269-13.92C107.3468,81.1855,111.9215,65.8764,123.7356,58.8857Z"></path><g class="cls-14"><g class="cls-13"><path class="cls-2" d="M123.7356,58.8857l-2.9418,1.7407a25.8619,25.8619,0,0,0-5.0581,3.91l2.9418-1.7407a25.8581,25.8581,0,0,1,5.0581-3.91"></path><path class="cls-2" d="M118.6775,62.7953l-2.9418,1.7407a26.5315,26.5315,0,0,0-6.1247,9.51l2.9418-1.7408a26.53,26.53,0,0,1,6.1247-9.5094"></path><path class="cls-2" d="M112.5528,72.3047l-2.9418,1.7408a28.2021,28.2021,0,0,0,1.0225,22.0251,29.3611,29.3611,0,0,0,1.6371,2.9937l2.9418-1.7408a29.34,29.34,0,0,1-1.6371-2.9937,28.2021,28.2021,0,0,1-1.0225-22.0251"></path><path class="cls-2" d="M115.2124,97.3235l-2.9418,1.7408a28.6967,28.6967,0,0,0,7.9971,8.3921l2.9418-1.7407a28.6958,28.6958,0,0,1-7.9971-8.3922"></path><path class="cls-2" d="M123.21,105.7157l-2.9418,1.7407A26.9945,26.9945,0,0,0,147.06,109.99q1.1922-.5544,2.3012-1.2117l2.9418-1.7408q-1.1085.6561-2.3012,1.2118a26.9948,26.9948,0,0,1-26.7927-2.534"></path></g></g></g><ellipse class="cls-15" cx="138.0195" cy="82.9618" rx="26.9487" ry="27.9925" transform="translate(-23.011 81.8502) rotate(-30.614)"></ellipse></g><path class="cls-16" d="M127.69,61.7631c-11.5156,5.2858-16.3688,19.2175-10.8435,31.1128s19.3406,17.2579,30.8562,11.9721c11.5206-5.2881,16.3738-19.22,10.8485-31.1151S139.21,56.475,127.69,61.7631Z"></path><g id="LkW7Tg.tif-2" data-name="LkW7Tg.tif"><path class="cls-17" d="M150.1569,81.5172a5.9515,5.9515,0,0,1,.4442,5.9571,7.8989,7.8989,0,0,1-2.8537,3.3295.3116.3116,0,0,0-.1283.4679c.5438,1.08,1.07,2.1687,1.5968,3.2485-.9366.495-1.882.9809-2.8187,1.4758-.0526-.099-.1051-.1889-.149-.2789-.4563-.9359-.9212-1.8627-1.3688-2.7986-.0654-.14-.13-.203-.218-.203a.3985.3985,0,0,0-.1912.068c-.3468.207-.7111.378-1.0667.5669-.4423.234-.4253.153-.2059.6119.4739.9809.9565,1.9618,1.43,2.9516-.9367.4859-1.8821.9808-2.8187,1.4667-.5-1.0168-1-2.0337-1.5-3.0595-.0823-.1686-.1163-.2385-.1862-.2385a.6493.6493,0,0,0-.2317.0945l-5.3079,2.7536a.7032.7032,0,0,1-.2551.1071c-.076,0-.1144-.0767-.2064-.26-.3685-.765-.7458-1.53-1.1231-2.2947-.1317-.279-.1231-.297.1458-.4409.3816-.207.7719-.405,1.136-.639a.9878.9878,0,0,0,.4372-1.35c-.1407-.36-.3074-.7019-.4741-1.0439l-5.37-10.9873c-.1579-.3149-.3245-.63-.5-.9359a.9712.9712,0,0,0-.8548-.529,1.1739,1.1739,0,0,0-.4337.0881,10.3975,10.3975,0,0,0-1.2318.5939.3616.3616,0,0,1-.1664.0536c-.0844,0-.1461-.0582-.208-.18-.3861-.8008-.7722-1.6017-1.1758-2.4026-.0965-.1979-.0448-.2969.1461-.3869q2.6539-1.3768,5.3252-2.7716c.2948-.153.2948-.162.1456-.4679-.4475-.9269-.8951-1.8538-1.36-2.7716-.1053-.225-.08-.324.1372-.4319.772-.387,1.5351-.7829,2.2983-1.1969a.4081.4081,0,0,1,.1843-.06c.0948,0,.156.072.225.2134.4476.9449.9212,1.8717,1.3689,2.8166.0661.1355.1284.1966.215.1966a.41.41,0,0,0,.1855-.0617c.39-.2249.7978-.4229,1.1968-.63.2775-.144.2775-.144.1371-.432-.4387-.9089-.8862-1.8177-1.3337-2.7266-.1667-.3509-.1667-.3509.18-.54.72-.369,1.4484-.7469,2.1682-1.1248a.73.73,0,0,1,.2654-.107c.08,0,.1215.0765.2135.26.4651.9718.9476,1.9347,1.4127,2.9065.0722.1543.1481.2154.2559.2154a.5377.5377,0,0,0,.1709-.0354,7.2,7.2,0,0,1,2.57-.5025,6.1626,6.1626,0,0,1,1.6455.2235,4.4451,4.4451,0,0,1,1.83,1.0259,4.9992,4.9992,0,0,1,1.731,4.1034,5.7327,5.7327,0,0,1-1.15,3.1944,9.9726,9.9726,0,0,0-.6135.828c.3909-.0631.7818-.1261,1.1728-.18a6.12,6.12,0,0,1,.878-.0657,4.7978,4.7978,0,0,1,1.6788.2906A5.0894,5.0894,0,0,1,150.1569,81.5172Zm-5.6982,6.794a3.3555,3.3555,0,0,0-.51-5.2192,2.3593,2.3593,0,0,0-1.2659-.3471,4.2,4.2,0,0,0-1.1776.1941,12.3943,12.3943,0,0,0-1.4143.5939c-.9717.45-1.8995.9809-2.8536,1.4578-.1127.054-.1385.126-.0771.2519.4124.8279.816,1.6558,1.22,2.4837.29.5759.5616,1.1518.851,1.7187a6.6275,6.6275,0,0,0,.5348.9809.5424.5424,0,0,0,.43.2622.7868.7868,0,0,0,.3006-.0733A20.8737,20.8737,0,0,0,142.734,89.49a8.0838,8.0838,0,0,0,1.7247-1.1788m-8.7924-6.393a.398.398,0,0,0,.1916-.068c.4943-.27.9973-.5309,1.4917-.7739a14.7634,14.7634,0,0,0,2.3234-1.4308,2.7049,2.7049,0,0,0,1.0814-3.0865,2.37,2.37,0,0,0-2.2328-1.8041,2.3959,2.3959,0,0,0-.2529.0134,6.3949,6.3949,0,0,0-2.0919.7019c-.9281.4589-1.8387.9538-2.7581,1.4217-.2081.108-.2338.207-.1285.414.3684.7288.72,1.4668,1.0792,2.2046.36.7289.7282,1.4668,1.0706,2.2047.0708.14.1379.203.2263.203"></path></g></g></svg> 