<?xml version="1.0" encoding="UTF-8"?> <svg xmlns="http://www.w3.org/2000/svg" xmlns:xlink="http://www.w3.org/1999/xlink" width="184" height="256" viewBox="0 0 184 256"><defs><style>.cls-1{fill:#f4f5f8;}.cls-2,.cls-5,.cls-6,.cls-7{fill:none;}.cls-3{fill:#f0a217;}.cls-4{mask:url(#mask);}.cls-5{stroke:url(#linear-gradient);}.cls-6{stroke:url(#linear-gradient-2);}.cls-7{stroke:url(#linear-gradient-3);}.cls-8{fill:#6b11c9;}.cls-9{isolation:isolate;}.cls-10{clip-path:url(#clip-path);}.cls-11{fill:#bd9701;}.cls-12{clip-path:url(#clip-path-2);}.cls-13{clip-path:url(#clip-path-3);}.cls-14{fill:#f8c601;}.cls-15{fill:#e09623;}.cls-16{clip-path:url(#clip-path-4);}.cls-17{fill:#1ca3ce;}.cls-18{clip-path:url(#clip-path-5);}.cls-19{fill:#1ca2cc;}.cls-20{fill:#1ca2cd;}.cls-21{clip-path:url(#clip-path-6);}.cls-22{fill:#23caff;}.cls-23{fill:#1fadf7;}</style><mask id="mask" x="0" y="0" width="184.0474" height="282.0657" maskUnits="userSpaceOnUse"><g id="mask0_45_1705" data-name="mask0 45 1705"><rect class="cls-1" width="184" height="256"></rect></g></mask><linearGradient id="linear-gradient" x1="70.6629" y1="-18.9966" x2="103.0038" y2="224.8335" gradientTransform="matrix(1, 0, 0, -1, 0, 256)" gradientUnits="userSpaceOnUse"><stop offset="0" stop-color="#fff"></stop><stop offset="0.3267" stop-color="#e21284"></stop><stop offset="1" stop-color="#f5f5f5"></stop></linearGradient><linearGradient id="linear-gradient-2" x1="75.0447" y1="14.0994" x2="102.0251" y2="217.5103" gradientTransform="matrix(1, 0, 0, -1, 0, 256)" gradientUnits="userSpaceOnUse"><stop offset="0" stop-color="#fff"></stop><stop offset="0.0129" stop-color="#eee3f9"></stop><stop offset="0.036" stop-color="#d3b8ef"></stop><stop offset="0.0608" stop-color="#bb91e6"></stop><stop offset="0.0872" stop-color="#a771de"></stop><stop offset="0.1154" stop-color="#9657d8"></stop><stop offset="0.1464" stop-color="#8a42d4"></stop><stop offset="0.1813" stop-color="#8134d1"></stop><stop offset="0.2236" stop-color="#7c2ccf"></stop><stop offset="0.2937" stop-color="#7a29ce"></stop><stop offset="1" stop-color="#f5f5f5"></stop></linearGradient><linearGradient id="linear-gradient-3" x1="139.5155" y1="72.0318" x2="26.9583" y2="96.0318" gradientTransform="matrix(1, 0, 0, -1, 0, 256)" gradientUnits="userSpaceOnUse"><stop offset="0" stop-color="#e21284"></stop><stop offset="1" stop-color="#f5f5f5"></stop></linearGradient><clipPath id="clip-path"><path class="cls-2" d="M57.2069,194.098H60.68a2.5282,2.5282,0,0,1-.3157.02h-3.473A2.5282,2.5282,0,0,0,57.2069,194.098Z"></path></clipPath><clipPath id="clip-path-2"><path class="cls-3" d="M100.7463,96.43h3.4729c1.6723,0,3.1769,1.6544,3.436,3.8613h-3.473C103.9231,98.0841,102.4185,96.43,100.7463,96.43Z"></path></clipPath><clipPath id="clip-path-3"><path class="cls-3" d="M114.0028,182.83h3.4729c.2748,2.349-.9484,4.419-2.7387,4.644h-3.473C113.0544,187.249,114.2775,185.179,114.0028,182.83Z"></path></clipPath><clipPath id="clip-path-4"><path class="cls-2" d="M161.7274,102.6362l-1.4331,1.2184a1.3906,1.3906,0,0,1-.1184.09l1.4331-1.2184A1.35,1.35,0,0,0,161.7274,102.6362Z"></path></clipPath><clipPath id="clip-path-5"><path class="cls-2" d="M109.0148,80.1638l1.4332-1.2183a2.0887,2.0887,0,0,0-.0511,2.7339l-1.4331,1.2183A2.0888,2.0888,0,0,1,109.0148,80.1638Z"></path></clipPath><clipPath id="clip-path-6"><path class="cls-2" d="M137.6266,118.874l-1.4332,1.2183a1.4232,1.4232,0,0,1-.78.2343,2.4005,2.4005,0,0,1-1.9165-1.1342l1.4331-1.2184a2.4007,2.4007,0,0,0,1.9165,1.1343A1.4232,1.4232,0,0,0,137.6266,118.874Z"></path></clipPath></defs><title>Artboard 1 copy</title><g id="Layer_2" data-name="Layer 2"><g class="cls-4"><path class="cls-5" d="M9.0263,266.74c7.156-23.659,41.59-66.382,122.0787-47.992C231.715,241.736,170.064,34.0747,92.32,109.041s-106.0248-2.613-80.637-28.1734,49.57-23.86,52.5555-46.3654c2.3888-18.01-49.6595-10.3033-62.4551,2.8654"></path><path class="cls-6" d="M8.0369,274.143c7.156-23.66,41.59-66.382,122.0781-47.992C230.726,249.138,169.074,41.477,91.33,116.443s-106.0248-2.612-80.637-28.173,49.57-23.86,52.5555-46.3655C65.6377,23.895,13.59,31.6013.7938,44.77"></path><path class="cls-7" d="M7.6079,281.921c7.1561-23.66,41.59-66.382,122.0781-47.992,100.611,22.987,38.959-184.6741-38.7845-109.708s-106.0248-2.612-80.637-28.1732,49.57-23.86,52.5555-46.3654c2.3888-18.01-49.6595-10.3033-62.4551,2.8654"></path><path class="cls-8" d="M149.045,92.8339c-46.697-41.1-74.0481-2.0173-81.8888,22.6641-9.21,28.994-28.3457,45.845-6.81,66.288s38.7932-18.569,76.1391-22.58C169.543,155.655,172.017,113.053,149.045,92.8339Z"></path></g></g><g id="Layer_1" data-name="Layer 1"><g class="cls-9"><g class="cls-10"><g class="cls-9"><path class="cls-11" d="M57.2069,194.098H60.68a2.5282,2.5282,0,0,1-.3157.02h-3.473a2.5282,2.5282,0,0,0,.3157-.02"></path></g></g></g><path class="cls-3" d="M100.7463,96.43h3.4729c1.6723,0,3.1769,1.6544,3.436,3.8613h-3.473C103.9231,98.0841,102.4185,96.43,100.7463,96.43Z"></path><g class="cls-12"><g class="cls-9"><polyline class="cls-3" points="100.746 96.43 104.219 96.43 104.219 96.43 100.746 96.43 100.746 96.43"></polyline><path class="cls-3" d="M100.7464,96.43h3.473a2.6147,2.6147,0,0,1,.8228.1346h-3.473a2.6142,2.6142,0,0,0-.8228-.1346"></path><path class="cls-3" d="M101.5692,96.5643h3.473a3.174,3.174,0,0,1,1.07.62H102.64a3.1754,3.1754,0,0,0-1.07-.62"></path><path class="cls-3" d="M102.64,97.1838h3.4729A4.5707,4.5707,0,0,1,107.44,99.28h-3.473a4.57,4.57,0,0,0-1.3274-2.0958"></path><path class="cls-3" d="M103.9669,99.28h3.473a5.5172,5.5172,0,0,1,.2153,1.0114h-3.473a5.509,5.509,0,0,0-.2153-1.0114"></path></g></g><polygon class="cls-3" points="111.264 187.474 114.737 187.474 60.68 194.098 57.207 194.098 111.264 187.474"></polygon><polygon class="cls-3" points="104.182 100.291 107.655 100.291 117.476 182.83 114.003 182.83 104.182 100.291"></polygon><path class="cls-3" d="M114.0028,182.83h3.4729c.2748,2.349-.9484,4.419-2.7387,4.644h-3.473C113.0544,187.249,114.2775,185.179,114.0028,182.83Z"></path><g class="cls-13"><g class="cls-9"><path class="cls-3" d="M114.0028,182.83h3.4729a5.5689,5.5689,0,0,1,.0216,1.0876h-3.4729a5.5845,5.5845,0,0,0-.0216-1.0876"></path><path class="cls-3" d="M114.0244,183.9176h3.4729a4.9526,4.9526,0,0,1-.3467,1.4858h-3.4729a4.9557,4.9557,0,0,0,.3467-1.4858"></path><path class="cls-3" d="M113.6777,185.4034h3.4729a3.1294,3.1294,0,0,1-2.4136,2.0706h-3.473a3.13,3.13,0,0,0,2.4137-2.0706"></path></g></g><path class="cls-14" d="M100.7463,96.43c1.6722,0,3.1768,1.6544,3.4359,3.8613l9.8206,82.539c.2747,2.349-.9484,4.419-2.7388,4.644l-54.0571,6.624a2.5282,2.5282,0,0,1-.3157.02c-1.6677,0-3.1661-1.6524-3.4246-3.8628l-9.8205-82.539c-.2748-2.34.9484-4.419,2.73-4.635l54.0659-6.633A2.5394,2.5394,0,0,1,100.7463,96.43Z"></path><path class="cls-15" d="M51.628,115.0007a1.4577,1.4577,0,0,1,1.4422,1.393,3.2578,3.2578,0,0,1-1.17,2.394,17.2434,17.2434,0,0,0-1.2142,1.53,14.5617,14.5617,0,0,0-1.5334-1.188c-.8509-.585-1.5954-1.161-1.6929-2.043a1.4624,1.4624,0,0,1,1.2054-1.737,1.7328,1.7328,0,0,1,.2736-.0218,1.2123,1.2123,0,0,1,1.2509.8228,1.3011,1.3011,0,0,1,1.2941-1.143Q51.556,115.0007,51.628,115.0007Z"></path><path class="cls-15" d="M52.978,112.4247l.0177.153-2.207.27-.0177-.1529a.8816.8816,0,0,0,.4343-.1711.2818.2818,0,0,0,.0886-.252,1.634,1.634,0,0,0-.23-.5579l-.4343-.7741-2.1626.261-.2748.945a1.7149,1.7149,0,0,0-.08.513.2858.2858,0,0,0,.1507.207.7789.7789,0,0,0,.3812.0686q.0735,0,.16-.0056l.0177.162-1.7549.207-.0178-.153a.9562.9562,0,0,0,.4255-.216,2.651,2.651,0,0,0,.3722-.873l1.4093-4.905.1418-.018,2.5083,4.473a2.2638,2.2638,0,0,0,.5141.6931.9217.9217,0,0,0,.5013.1271C52.94,112.4259,52.9586,112.4255,52.978,112.4247Zm-4.4228-1.548,1.9233-.234-1.2231-2.1779-.7,2.4119"></path><path class="cls-15" d="M106.5171,170.2317a13.6,13.6,0,0,0,1.5334,1.188c.842.594,1.5865,1.17,1.6929,2.052a1.4653,1.4653,0,0,1-1.2054,1.728,1.77,1.77,0,0,1-.28.0223,1.2114,1.2114,0,0,1-1.2538-.8143,1.2947,1.2947,0,0,1-1.294,1.143q-.0645.0055-.1288.0055a1.4612,1.4612,0,0,1-1.4489-1.4,3.2263,3.2263,0,0,1,1.17-2.394A17.6624,17.6624,0,0,0,106.5171,170.2317Z"></path><path class="cls-15" d="M110.137,177.2517l.0177.153a1.0046,1.0046,0,0,0-.4343.216,2.5,2.5,0,0,0-.3634.8731l-1.4093,4.9139-.1506.018-2.4995-4.482a2.1935,2.1935,0,0,0-.514-.684.7884.7884,0,0,0-.4614-.13c-.0314,0-.0638.0012-.0971.0038l-.0177-.153,2.207-.27.0177.153a.7709.7709,0,0,0-.4431.171.29.29,0,0,0-.0887.243,1.868,1.868,0,0,0,.2393.567l.4343.774,2.1627-.27.2659-.945a1.22,1.22,0,0,0,.08-.504l-.1418-.216a.9.9,0,0,0-.4175-.0652q-.0584,0-.1231.0022l-.0178-.153Zm-2.1982,4.833.7-2.412-1.9144.234,1.2142,2.178"></path><path class="cls-15" d="M85.385,132.3847c3.2293,0,6.2669,2.2537,6.7743,6.545.4964,4.14-2.26,7.605-5.4686,11.241a74.9217,74.9217,0,0,0-5.6814,7.164,74.6428,74.6428,0,0,0-7.2058-5.589c-3.9707-2.754-7.454-5.445-7.95-9.585-.5407-4.581,2.2424-7.596,5.6724-8.127a8.204,8.204,0,0,1,1.27-.0991c2.7207,0,5.2686,1.3639,5.8825,3.8341.0177-2.943,2.8894-5.076,6.0713-5.355Q85.0681,132.3848,85.385,132.3847Z"></path><g class="cls-9"><g class="cls-9"><g class="cls-16"><g class="cls-9"><path class="cls-17" d="M161.7274,102.6362l-1.4331,1.2184a1.3906,1.3906,0,0,1-.1184.09l1.4331-1.2184a1.35,1.35,0,0,0,.1184-.09"></path></g></g></g><g class="cls-9"><g class="cls-18"><g class="cls-9"><path class="cls-17" d="M110.3969,81.6794l-1.4331,1.2183a2.0888,2.0888,0,0,1,.051-2.7339l1.4332-1.2183a2.0887,2.0887,0,0,0-.0511,2.7339"></path></g></g></g><polygon class="cls-19" points="161.609 102.726 160.176 103.945 136.193 120.092 137.627 118.874 161.609 102.726"></polygon><polygon class="cls-20" points="134.93 117.974 133.497 119.192 108.964 82.898 110.397 81.679 134.93 117.974"></polygon><g class="cls-9"><g class="cls-21"><g class="cls-9"><path class="cls-17" d="M137.6266,118.874l-1.4332,1.2183a1.4232,1.4232,0,0,1-.78.2343,2.4005,2.4005,0,0,1-1.9165-1.1342l1.4331-1.2184a2.4007,2.4007,0,0,0,1.9165,1.1343,1.4232,1.4232,0,0,0,.78-.2343"></path></g></g></g><path class="cls-22" d="M135.3345,62.4649a2.4164,2.4164,0,0,1,1.9178,1.1294L161.785,99.889a2.0468,2.0468,0,0,1-.176,2.8372L137.6266,118.874a1.4232,1.4232,0,0,1-.78.2343,2.4007,2.4007,0,0,1-1.9165-1.1343L110.3969,81.6794a2.0274,2.0274,0,0,1,.1762-2.8283l23.9825-16.1477A1.39,1.39,0,0,1,135.3345,62.4649Z"></path></g><path class="cls-23" d="M136.9075,85.4834a13.294,13.294,0,0,1-4.6438-1.3977l-.0024.0015a13.2887,13.2887,0,0,1-.598,4.8126c-.68,2.6868-1.2155,4.8546-.0426,6.6548a3.3987,3.3987,0,0,0,4.7031.9926,3.59,3.59,0,0,0,1.783-3.0041c.5773,1.2305,1.4061,3.1021,1.0234,4.0449l2.7072-1.7637c-1.0169-.0309-2.3933-1.5451-3.2858-2.57a3.59,3.59,0,0,0,3.4679-.4173,3.3989,3.3989,0,0,0,.9926-4.7031C141.8392,86.3333,139.64,85.9469,136.9075,85.4834Z"></path><path class="cls-23" d="M116.7731,83.089a2.7326,2.7326,0,0,1-.9546-.287l-.0005,0a2.7216,2.7216,0,0,1-.1231.9892c-.14.5522-.2495.9977-.0086,1.3675a.6989.6989,0,0,0,.9666.2043.7359.7359,0,0,0,.3652-.62c.1188.2528.2907.639.2116.834l.5563-.3625c-.21-.0063-.494-.32-.6774-.5309a.7354.7354,0,0,0,.7151-.083.6984.6984,0,0,0,.2038-.9666C117.7865,83.264,117.3347,83.1843,116.7731,83.089Z"></path><path class="cls-23" d="M115.1836,80.7951l-.9764.6361.0881.5094a.7517.7517,0,0,0,.08.2608.152.152,0,0,0,.1209.0655.57.57,0,0,0,.2741-.0977l.0448.0688-.7941.5174-.0449-.0689a.511.511,0,0,0,.1574-.2058,1.36,1.36,0,0,0-.0261-.5l-.4651-2.6536.0651-.0425,2.2447,1.5262a1.1385,1.1385,0,0,0,.4064.2028.4688.4688,0,0,0,.2959-.0722l.0448.0688-.995.6482-.0448-.0688a.4438.4438,0,0,0,.1709-.183.1545.1545,0,0,0-.0148-.1386.9242.9242,0,0,0-.2429-.21Zm-.1418-.1038-1.0917-.74.225,1.3052Z"></path><path class="cls-23" d="M156.093,96.43a.7358.7358,0,0,0-.365.62c-.1187-.2528-.2905-.6388-.2114-.8337l-.5563.3625c.21.0064.4941.32.6774.5309a.7352.7352,0,0,0-.7151.083.6984.6984,0,0,0-.2038.9666c.241.37.6928.45,1.2545.5449a2.7217,2.7217,0,0,1,.9541.2873l.0009-.0006a2.7236,2.7236,0,0,1,.1226-.9888c.14-.5523.25-.9981.0091-1.368A.699.699,0,0,0,156.093,96.43Z"></path><path class="cls-23" d="M157.5626,100.9978l.9765-.6361-.0882-.51a.7518.7518,0,0,0-.08-.2607.1522.1522,0,0,0-.1209-.0656.5719.5719,0,0,0-.2741.0978l-.0448-.0689.7941-.5173.0449.0688a.5108.5108,0,0,0-.1573.2058,1.36,1.36,0,0,0,.026.5l.4651,2.6536-.0651.0424-2.2446-1.5261a1.14,1.14,0,0,0-.4064-.2028.4683.4683,0,0,0-.296.0722l-.0448-.0688.995-.6482.0449.0688a.4435.4435,0,0,0-.171.1829.1541.1541,0,0,0,.0149.1386.92.92,0,0,0,.2428.21Zm.1418.1038,1.0917.74-.225-1.3052Z"></path></g></svg> 