<?xml version="1.0" encoding="UTF-8"?> <svg xmlns="http://www.w3.org/2000/svg" xmlns:xlink="http://www.w3.org/1999/xlink" width="184" height="256" viewBox="0 0 184 256"><defs><style>.cls-1{fill:#f4f5f8;}.cls-2{fill:#f0a217;}.cls-3{fill:#1fadf7;}.cls-4{mask:url(#mask);}.cls-5,.cls-6,.cls-7{fill:none;}.cls-5{stroke:url(#linear-gradient);}.cls-6{stroke:url(#linear-gradient-2);}.cls-7{stroke:url(#linear-gradient-3);}.cls-8{fill:#6b11c9;}.cls-9{clip-path:url(#clip-path);}.cls-10{isolation:isolate;}.cls-11{clip-path:url(#clip-path-2);}.cls-12{clip-path:url(#clip-path-3);}.cls-13{clip-path:url(#clip-path-4);}.cls-14{clip-path:url(#clip-path-5);}.cls-15{clip-path:url(#clip-path-6);}.cls-16{fill:#fcc901;}.cls-17{clip-path:url(#clip-path-7);}.cls-18{fill:#eda017;}.cls-19{fill:#e39824;}.cls-20{clip-path:url(#clip-path-8);}.cls-21{clip-path:url(#clip-path-9);}.cls-22{clip-path:url(#clip-path-10);}.cls-23{clip-path:url(#clip-path-11);}.cls-24{clip-path:url(#clip-path-12);}.cls-25{clip-path:url(#clip-path-13);}.cls-26{clip-path:url(#clip-path-14);}.cls-27{clip-path:url(#clip-path-15);}.cls-28{fill:#22c6fa;}</style><mask id="mask" x="0" y="0" width="184.0474" height="282.0657" maskUnits="userSpaceOnUse"><g id="mask0_45_1705" data-name="mask0 45 1705"><rect class="cls-1" width="184" height="256"></rect></g></mask><linearGradient id="linear-gradient" x1="70.6629" y1="-18.9966" x2="103.0038" y2="224.8335" gradientTransform="matrix(1, 0, 0, -1, 0, 256)" gradientUnits="userSpaceOnUse"><stop offset="0" stop-color="#fff"></stop><stop offset="0.3267" stop-color="#e21284"></stop><stop offset="1" stop-color="#f5f5f5"></stop></linearGradient><linearGradient id="linear-gradient-2" x1="75.0447" y1="14.0994" x2="102.0251" y2="217.5103" gradientTransform="matrix(1, 0, 0, -1, 0, 256)" gradientUnits="userSpaceOnUse"><stop offset="0" stop-color="#fff"></stop><stop offset="0.0129" stop-color="#eee3f9"></stop><stop offset="0.036" stop-color="#d3b8ef"></stop><stop offset="0.0608" stop-color="#bb91e6"></stop><stop offset="0.0872" stop-color="#a771de"></stop><stop offset="0.1154" stop-color="#9657d8"></stop><stop offset="0.1464" stop-color="#8a42d4"></stop><stop offset="0.1813" stop-color="#8134d1"></stop><stop offset="0.2236" stop-color="#7c2ccf"></stop><stop offset="0.2937" stop-color="#7a29ce"></stop><stop offset="1" stop-color="#f5f5f5"></stop></linearGradient><linearGradient id="linear-gradient-3" x1="139.5155" y1="72.0318" x2="26.9583" y2="96.0318" gradientTransform="matrix(1, 0, 0, -1, 0, 256)" gradientUnits="userSpaceOnUse"><stop offset="0" stop-color="#e21284"></stop><stop offset="1" stop-color="#f5f5f5"></stop></linearGradient><clipPath id="clip-path"><path class="cls-2" d="M64.6688,121.0289l3.62,2.0953a23.0209,23.0209,0,0,1,4.7917,3.6951,14.6539,14.6539,0,0,1,2.4577,4.0074l-3.62-2.0953a14.6539,14.6539,0,0,0-2.4577-4.0074A23.0243,23.0243,0,0,0,64.6688,121.0289Z"></path></clipPath><clipPath id="clip-path-2"><path class="cls-2" d="M30.8528,185.5l-3.6195-2.0953a10.078,10.078,0,0,0,4.1435,1.3025c9.3434.8888,21.5739-9.5381,29.06-17.0355l3.62,2.0953c-7.4865,7.4974-19.717,17.9243-29.06,17.0355A10.078,10.078,0,0,1,30.8528,185.5Z"></path></clipPath><clipPath id="clip-path-3"><path class="cls-2" d="M68.2531,174.0493l-3.62-2.0953a11.157,11.157,0,0,0,4.5482,1.4491,11.7988,11.7988,0,0,0,12.71-10.3909l3.62,2.0953a11.7988,11.7988,0,0,1-12.71,10.3909A11.1561,11.1561,0,0,1,68.2531,174.0493Z"></path></clipPath><clipPath id="clip-path-4"><path class="cls-2" d="M95.0961,176.6008l-3.62-2.0952a11.1794,11.1794,0,0,0,4.556,1.4518,11.61,11.61,0,0,0,9.83-3.9643l3.62,2.0953a11.61,11.61,0,0,1-9.83,3.9643A11.178,11.178,0,0,1,95.0961,176.6008Z"></path></clipPath><clipPath id="clip-path-5"><path class="cls-2" d="M131.2461,127.3631l3.6195,2.0953A23.3084,23.3084,0,0,1,145.8433,144.35l-3.6195-2.0953A23.3084,23.3084,0,0,0,131.2461,127.3631Z"></path></clipPath><clipPath id="clip-path-6"><path class="cls-2" d="M142.2238,142.255l3.6195,2.0953c.0017.0087.0338.1744.1045.4963l-3.6195-2.0953C142.2576,142.4294,142.2255,142.2637,142.2238,142.255Z"></path></clipPath><clipPath id="clip-path-7"><path class="cls-2" d="M127.8108,194.0227l-3.62-2.0953a15.7982,15.7982,0,0,0,6.3444,2.2127,10.2446,10.2446,0,0,0,5.45-.9449c14.294-6.7549,7.827-42.9807,6.47-49.8284-.04-.202-.087-.4136-.1266-.6155l3.6195,2.0953c.04.2019.0869.4135.1266.6155,1.3574,6.8477,7.8244,43.0735-6.47,49.8284a10.2446,10.2446,0,0,1-5.45.9449A15.7982,15.7982,0,0,1,127.8108,194.0227Z"></path></clipPath><clipPath id="clip-path-8"><path class="cls-3" d="M161.1674,105.2923l-3.0135.8535q-.1071.03-.216.0562c-4.4139,1.0492-10.9415-3.3469-15.0109-6.5906l3.0134-.8534c4.0694,3.2437,10.5971,7.64,15.0109,6.5906Q161.06,105.3227,161.1674,105.2923Z"></path></clipPath><clipPath id="clip-path-9"><path class="cls-3" d="M141.6911,74.7l3.0135-.8534a10.9716,10.9716,0,0,0-5.8815,4.1259,7.4237,7.4237,0,0,0-.9211,2.1523l-3.0135.8534a7.4218,7.4218,0,0,1,.9212-2.1522A10.9721,10.9721,0,0,1,141.6911,74.7Z"></path></clipPath><clipPath id="clip-path-10"><path class="cls-3" d="M142.3454,102.1236l-3.0134.8535q-.1089.0308-.22.0572a5.7273,5.7273,0,0,1-6.7611-4.35l3.0135-.8534a5.7272,5.7272,0,0,0,6.7611,4.35Q142.2366,102.1544,142.3454,102.1236Z"></path></clipPath><clipPath id="clip-path-11"><path class="cls-3" d="M128.5367,104.77l-3.089.5167q-.1116.0186-.2249.0327a5.5,5.5,0,0,1-4.79-1.8736l3.089-.5167a5.5,5.5,0,0,0,4.79,1.8736Q128.4252,104.7886,128.5367,104.77Z"></path></clipPath><clipPath id="clip-path-12"><path class="cls-3" d="M110.2377,82.1771l3.0135-.8534A11.4131,11.4131,0,0,0,105.14,91.4186l-3.0135.8534A11.4132,11.4132,0,0,1,110.2377,82.1771Z"></path></clipPath><clipPath id="clip-path-13"><path class="cls-3" d="M105.1227,91.6725l-3.0134.8534c.0056-.1585.017-.2491.0176-.2539l3.0135-.8534C105.14,91.4233,105.1283,91.5139,105.1227,91.6725Z"></path></clipPath><clipPath id="clip-path-14"><path class="cls-3" d="M105.095,91.9936l-3.0135.8534c.01-.1041.0178-.2169.0278-.3211l3.0134-.8534C105.1128,91.7766,105.1049,91.89,105.095,91.9936Z"></path></clipPath><clipPath id="clip-path-15"><path class="cls-3" d="M114.3343,116.4254l-3.0135.8534q-.1119.0316-.2245.0585a4.7811,4.7811,0,0,1-2.6733-.1163c-7.2816-2.4315-6.5412-20.8762-6.3415-24.374l3.0135-.8534c-.2,3.4977-.94,21.9425,6.3415,24.374a4.7807,4.7807,0,0,0,2.6732.1163Q114.2224,116.457,114.3343,116.4254Z"></path></clipPath></defs><title>Artboard 1 copy 2</title><g id="Layer_2" data-name="Layer 2"><g class="cls-4"><path class="cls-5" d="M9.0263,266.74c7.156-23.659,41.59-66.382,122.0787-47.992C231.715,241.736,170.064,34.0747,92.32,109.041s-106.0248-2.613-80.637-28.1734,49.57-23.86,52.5555-46.3654c2.3888-18.01-49.6595-10.3033-62.4551,2.8654"></path><path class="cls-6" d="M8.0369,274.143c7.156-23.66,41.59-66.382,122.0781-47.992C230.726,249.138,169.074,41.477,91.33,116.443s-106.0248-2.612-80.637-28.173,49.57-23.86,52.5555-46.3655C65.6377,23.895,13.59,31.6013.7938,44.77"></path><path class="cls-7" d="M7.6079,281.921c7.1561-23.66,41.59-66.382,122.0781-47.992,100.611,22.987,38.959-184.6741-38.7845-109.708s-106.0248-2.612-80.637-28.1732,49.57-23.86,52.5555-46.3654c2.3888-18.01-49.6595-10.3033-62.4551,2.8654"></path><path class="cls-8" d="M149.045,92.8339c-46.697-41.1-74.0481-2.0173-81.8888,22.6641-9.21,28.994-28.3457,45.845-6.81,66.288s38.7932-18.569,76.1391-22.58C169.543,155.655,172.017,113.053,149.045,92.8339Z"></path></g></g><g id="Layer_1" data-name="Layer 1"><path class="cls-2" d="M64.6688,121.0289l3.62,2.0953a23.0209,23.0209,0,0,1,4.7917,3.6951,14.6539,14.6539,0,0,1,2.4577,4.0074l-3.62-2.0953a14.6539,14.6539,0,0,0-2.4577-4.0074A23.0243,23.0243,0,0,0,64.6688,121.0289Z"></path><g class="cls-9"><g class="cls-10"><path class="cls-2" d="M64.6688,121.0289l3.62,2.0953a23.0209,23.0209,0,0,1,4.7917,3.6951,14.6539,14.6539,0,0,1,2.4577,4.0074l-3.62-2.0953a14.6539,14.6539,0,0,0-2.4577-4.0074,23.0243,23.0243,0,0,0-4.7917-3.6951"></path></g></g><path class="cls-2" d="M30.8528,185.5l-3.6195-2.0953a10.078,10.078,0,0,0,4.1435,1.3025c9.3434.8888,21.5739-9.5381,29.06-17.0355l3.62,2.0953c-7.4865,7.4974-19.717,17.9243-29.06,17.0355A10.078,10.078,0,0,1,30.8528,185.5Z"></path><g class="cls-11"><g class="cls-10"><path class="cls-2" d="M60.4372,167.6719l3.62,2.0953c-7.4865,7.4974-19.717,17.9243-29.06,17.0355A10.078,10.078,0,0,1,30.8528,185.5l-3.6195-2.0953a10.078,10.078,0,0,0,4.1435,1.3025c9.3434.8888,21.5739-9.5381,29.06-17.0355"></path></g></g><path class="cls-2" d="M68.2531,174.0493l-3.62-2.0953a11.157,11.157,0,0,0,4.5482,1.4491,11.7988,11.7988,0,0,0,12.71-10.3909l3.62,2.0953a11.7988,11.7988,0,0,1-12.71,10.3909A11.1561,11.1561,0,0,1,68.2531,174.0493Z"></path><g class="cls-12"><g class="cls-10"><path class="cls-2" d="M81.8918,163.0122l3.62,2.0953a11.7988,11.7988,0,0,1-12.71,10.3909,11.1561,11.1561,0,0,1-4.5481-1.4491l-3.62-2.0953a11.157,11.157,0,0,0,4.5482,1.4491,11.7988,11.7988,0,0,0,12.71-10.3909"></path></g></g><polygon class="cls-2" points="85.893 163.393 89.513 165.488 85.511 165.107 81.892 163.012 85.893 163.393"></polygon><path class="cls-2" d="M95.0961,176.6008l-3.62-2.0952a11.1794,11.1794,0,0,0,4.556,1.4518,11.61,11.61,0,0,0,9.83-3.9643l3.62,2.0953a11.61,11.61,0,0,1-9.83,3.9643A11.178,11.178,0,0,1,95.0961,176.6008Z"></path><g class="cls-13"><g class="cls-10"><path class="cls-2" d="M105.863,171.9931l3.62,2.0953a11.61,11.61,0,0,1-9.83,3.9643,11.178,11.178,0,0,1-4.556-1.4519l-3.62-2.0952a11.1794,11.1794,0,0,0,4.556,1.4518,11.61,11.61,0,0,0,9.83-3.9643"></path></g></g><path class="cls-2" d="M131.2461,127.3631l3.6195,2.0953A23.3084,23.3084,0,0,1,145.8433,144.35l-3.6195-2.0953A23.3084,23.3084,0,0,0,131.2461,127.3631Z"></path><g class="cls-14"><g class="cls-10"><path class="cls-2" d="M131.2461,127.3631l3.6195,2.0953A23.3084,23.3084,0,0,1,145.8433,144.35l-3.6195-2.0953a23.3084,23.3084,0,0,0-10.9777-14.8919"></path></g></g><path class="cls-2" d="M142.2238,142.255l3.6195,2.0953c.0017.0087.0338.1744.1045.4963l-3.6195-2.0953C142.2576,142.4294,142.2255,142.2637,142.2238,142.255Z"></path><g class="cls-15"><g class="cls-10"><path class="cls-2" d="M142.2238,142.255l3.6195,2.0953c.0017.0087.0338.1744.1045.4963l-3.6195-2.0953c-.0707-.3219-.1028-.4876-.1045-.4963"></path></g></g><path class="cls-16" d="M121.88,124.3788a23.1229,23.1229,0,0,1,20.3439,17.8762c.0017.0087.0338.1744.1045.4963.04.2019.0869.4135.1266.6155,1.3574,6.8477,7.8244,43.0735-6.47,49.8284a10.2446,10.2446,0,0,1-5.45.9449c-9.3411-.8886-18.9988-13.3983-24.6727-22.147a11.61,11.61,0,0,1-9.83,3.9643,11.3318,11.3318,0,0,1-10.1391-12.5645l-4.0017-.3807a11.7988,11.7988,0,0,1-12.71,10.3909,11.1756,11.1756,0,0,1-8.7445-5.7312c-7.4865,7.4974-19.717,17.9243-29.06,17.0355a9.9972,9.9972,0,0,1-5.1259-1.9508c-12.4955-9.3033,1.864-43.5479,4.7105-49.9958.0835-.19.1768-.3885.26-.5787l.2122-.4661a24.1054,24.1054,0,0,1,23.8771-13.67,22.916,22.916,0,0,1,14.1495,6.6777,14.6539,14.6539,0,0,1,2.4577,4.0074l31.3364,2.9809a15.3707,15.3707,0,0,1,3.2941-3.46A23.63,23.63,0,0,1,121.88,124.3788Z"></path><path class="cls-2" d="M127.8108,194.0227l-3.62-2.0953a15.7982,15.7982,0,0,0,6.3444,2.2127,10.2446,10.2446,0,0,0,5.45-.9449c14.294-6.7549,7.827-42.9807,6.47-49.8284-.04-.202-.087-.4136-.1266-.6155l3.6195,2.0953c.04.2019.0869.4135.1266.6155,1.3574,6.8477,7.8244,43.0735-6.47,49.8284a10.2446,10.2446,0,0,1-5.45.9449A15.7982,15.7982,0,0,1,127.8108,194.0227Z"></path><g class="cls-17"><g class="cls-10"><path class="cls-2" d="M142.3283,142.7513l3.6195,2.0953c.04.2019.0869.4135.1266.6155,1.3574,6.8477,7.8244,43.0735-6.47,49.8284a10.2446,10.2446,0,0,1-5.45.9449,15.7982,15.7982,0,0,1-6.3444-2.2127l-3.62-2.0953a15.7982,15.7982,0,0,0,6.3444,2.2127,10.2446,10.2446,0,0,0,5.45-.9449c14.294-6.7549,7.827-42.9807,6.47-49.8284-.04-.202-.087-.4136-.1266-.6155"></path></g></g><path class="cls-18" d="M59.0927,160.7546a11.595,11.595,0,0,0,1.3758,6.929l-1.36,1.334a11.5451,11.5451,0,0,1-.935-6.0433,11.717,11.717,0,0,1,1.346-4.3131A10.9916,10.9916,0,0,0,59.0927,160.7546Z"></path><path class="cls-18" d="M108.7105,163.4738a11.8044,11.8044,0,0,1-1.8813,10.2243l-1.0335-1.57a11.8667,11.8667,0,0,0,2.8753-6.52A11.4071,11.4071,0,0,0,108.7105,163.4738Z"></path><path class="cls-19" d="M98.4893,156.7621a8.4586,8.4586,0,0,1,7.535,9.4406,8.7865,8.7865,0,0,1-8.935,7.8407q-.2572-.009-.5168-.0338a8.4639,8.4639,0,0,1-7.535-9.4407,8.7864,8.7864,0,0,1,8.9349-7.8407Q98.23,156.7372,98.4893,156.7621Z"></path><path class="cls-19" d="M71.6623,154.1835a8.4639,8.4639,0,0,1,7.535,9.4407,8.7809,8.7809,0,0,1-8.934,7.8407c-.1721-.006-.3442-.0172-.5178-.0339a8.464,8.464,0,0,1-7.535-9.4407,8.7871,8.7871,0,0,1,8.9349-7.8406C71.3172,154.1557,71.4891,154.1668,71.6623,154.1835Z"></path><path class="cls-19" d="M76.4792,142.9984q.0484.0017.0975.0064l4.8231.4645a1.5853,1.5853,0,0,1,1.4122,1.7718,1.6451,1.6451,0,0,1-1.6763,1.47q-.0486-.0017-.0975-.0064L76.215,146.24a1.591,1.591,0,0,1-1.4121-1.7717A1.6451,1.6451,0,0,1,76.4792,142.9984Z"></path><path class="cls-19" d="M89.3582,143.7724c.0323.0011.0648.0033.0975.0064l4.8232.4645a1.5852,1.5852,0,0,1,1.4121,1.7718,1.645,1.645,0,0,1-1.6763,1.47q-.0486-.0017-.0975-.0064l-4.8144-.4642a1.5921,1.5921,0,0,1-1.421-1.772A1.6453,1.6453,0,0,1,89.3582,143.7724Z"></path><path class="cls-19" d="M49.191,142.5332l-.2332,2.1181c-1.33,1.0928-2.0786,1.7126-3.4092,2.8145l-7.49-.7191a.7312.7312,0,0,1-.6481-.8121l.7609-6.8543a.7532.7532,0,0,1,.7647-.6747c.0161.0006.0322.0016.0484.0033l7.49.7191C47.5381,140.457,48.1275,141.2042,49.191,142.5332Z"></path><path class="cls-19" d="M52.4966,141.7246l-2.086-.1984c-1.0636-1.329-1.653-2.0763-2.7166-3.4053l.8439-7.605a.7578.7578,0,0,1,.779-.6733l.0341.002,6.7507.6483a.7311.7311,0,0,1,.648.8122l-.8438,7.605C54.5753,140.0119,53.8272,140.6228,52.4966,141.7246Z"></path><path class="cls-19" d="M64.3679,140.8473a.7243.7243,0,0,1,.6392.8118l-.7609,6.8544a.75.75,0,0,1-.7709.6736l-.0333-.002-7.49-.7191c-1.0636-1.3289-1.6618-2.0765-2.7165-3.4052l.2332-2.118c1.3307-1.1019,2.0786-1.7127,3.4092-2.8145Z"></path><path class="cls-19" d="M49.93,145.8694l2.0861.1985c1.0547,1.3286,1.653,2.0762,2.7165,3.4052l-.8439,7.605a.7515.7515,0,0,1-.7641.6657c-.0161-.0006-.0322-.0016-.0484-.0033l-6.7508-.6484a.7172.7172,0,0,1-.6484-.8031l.8438-7.6051C47.8511,147.5821,48.6,146.9623,49.93,145.8694Z"></path><path class="cls-19" d="M109.7466,142.0082q.1449.0051.2908.019a4.8137,4.8137,0,0,1,4.2862,5.38,5.0024,5.0024,0,0,1-5.087,4.4692q-.1447-.0049-.2907-.0189a4.8317,4.8317,0,0,1-4.2951-5.38A5.01,5.01,0,0,1,109.7466,142.0082Z"></path><path class="cls-19" d="M129.1966,143.8806q.1454.005.2919.019a4.8212,4.8212,0,0,1,4.2951,5.38,5.0085,5.0085,0,0,1-5.0942,4.46c-.097-.0034-.1941-.01-.2919-.019a4.8185,4.8185,0,0,1-4.2955-5.3713A5.01,5.01,0,0,1,129.1966,143.8806Z"></path><path class="cls-19" d="M120.5662,133.0649q.1448.0051.2907.019a4.8317,4.8317,0,0,1,4.2951,5.38,5.01,5.01,0,0,1-5.0958,4.469q-.1449-.0051-.2908-.019a4.8264,4.8264,0,0,1-4.295-5.38A5.0169,5.0169,0,0,1,120.5662,133.0649Z"></path><path class="cls-19" d="M118.3682,152.8235c.097.0034.1941.01.2919.019a4.8127,4.8127,0,0,1,4.2956,5.3713,4.9974,4.9974,0,0,1-5.0938,4.4691q-.1458-.0051-.2928-.0191a4.8145,4.8145,0,0,1-4.2863-5.38A4.9945,4.9945,0,0,1,118.3682,152.8235Z"></path><path class="cls-3" d="M161.1674,105.2923l-3.0135.8535q-.1071.03-.216.0562c-4.4139,1.0492-10.9415-3.3469-15.0109-6.5906l3.0134-.8534c4.0694,3.2437,10.5971,7.64,15.0109,6.5906Q161.06,105.3227,161.1674,105.2923Z"></path><g class="cls-20"><g class="cls-10"><path class="cls-3" d="M161.1674,105.2923l-3.0135.8535q-.1071.03-.216.0562c-4.4139,1.0492-10.9415-3.3469-15.0109-6.5906l3.0134-.8534c4.0694,3.2437,10.5971,7.64,15.0109,6.5906q.1089-.026.2161-.0563"></path></g></g><path class="cls-3" d="M141.6911,74.7l3.0135-.8534a10.9716,10.9716,0,0,0-5.8815,4.1259,7.4237,7.4237,0,0,0-.9211,2.1523l-3.0135.8534a7.4218,7.4218,0,0,1,.9212-2.1522A10.9721,10.9721,0,0,1,141.6911,74.7Z"></path><g class="cls-21"><g class="cls-10"><path class="cls-3" d="M137.902,80.1247l-3.0135.8534a7.4218,7.4218,0,0,1,.9212-2.1522,10.9721,10.9721,0,0,1,5.8814-4.126l3.0135-.8534a10.9716,10.9716,0,0,0-5.8815,4.1259,7.4237,7.4237,0,0,0-.9211,2.1523"></path></g></g><path class="cls-3" d="M142.3454,102.1236l-3.0134.8535q-.1089.0308-.22.0572a5.7273,5.7273,0,0,1-6.7611-4.35l3.0135-.8534a5.7272,5.7272,0,0,0,6.7611,4.35Q142.2366,102.1544,142.3454,102.1236Z"></path><g class="cls-22"><g class="cls-10"><path class="cls-3" d="M142.3454,102.1236l-3.0134.8534q-.1089.0309-.22.0573a5.7273,5.7273,0,0,1-6.7611-4.35l3.0135-.8534a5.7272,5.7272,0,0,0,6.7611,4.35q.111-.0264.22-.0572"></path></g></g><polygon class="cls-3" points="135.364 97.831 132.351 98.685 130.463 99.133 133.477 98.28 135.364 97.831"></polygon><path class="cls-3" d="M128.5367,104.77l-3.089.5167q-.1116.0186-.2249.0327a5.5,5.5,0,0,1-4.79-1.8736l3.089-.5167a5.5,5.5,0,0,0,4.79,1.8736Q128.4252,104.7886,128.5367,104.77Z"></path><g class="cls-23"><g class="cls-10"><path class="cls-3" d="M128.5367,104.77l-3.089.5167q-.1116.0186-.2249.0327a5.5,5.5,0,0,1-4.79-1.8736l3.089-.5167a5.5,5.5,0,0,0,4.79,1.8736q.1133-.0141.2248-.0327"></path></g></g><path class="cls-3" d="M110.2377,82.1771l3.0135-.8534A11.4131,11.4131,0,0,0,105.14,91.4186l-3.0135.8534A11.4132,11.4132,0,0,1,110.2377,82.1771Z"></path><g class="cls-24"><g class="cls-10"><path class="cls-3" d="M105.14,91.4186l-3.0135.8534a11.4132,11.4132,0,0,1,8.1108-10.0949l3.0135-.8534A11.4131,11.4131,0,0,0,105.14,91.4186"></path></g></g><path class="cls-3" d="M105.1227,91.6725l-3.0134.8534c.0056-.1585.017-.2491.0176-.2539l3.0135-.8534C105.14,91.4233,105.1283,91.5139,105.1227,91.6725Z"></path><g class="cls-25"><g class="cls-10"><path class="cls-3" d="M105.1227,91.6725l-3.0134.8534c.0056-.1585.017-.2491.0176-.2539l3.0135-.8534c-.0006.0047-.0121.0953-.0177.2539"></path></g></g><path class="cls-3" d="M105.095,91.9936l-3.0135.8534c.01-.1041.0178-.2169.0278-.3211l3.0134-.8534C105.1128,91.7766,105.1049,91.89,105.095,91.9936Z"></path><g class="cls-26"><g class="cls-10"><path class="cls-3" d="M105.095,91.9936l-3.0135.8534c.01-.1041.0178-.2169.0278-.3211l3.0134-.8534c-.01.1041-.0178.217-.0277.3211"></path></g></g><path class="cls-3" d="M114.3343,116.4254l-3.0135.8534q-.1119.0316-.2245.0585a4.7811,4.7811,0,0,1-2.6733-.1163c-7.2816-2.4315-6.5412-20.8762-6.3415-24.374l3.0135-.8534c-.2,3.4977-.94,21.9425,6.3415,24.374a4.7807,4.7807,0,0,0,2.6732.1163Q114.2224,116.457,114.3343,116.4254Z"></path><g class="cls-27"><g class="cls-10"><path class="cls-3" d="M114.3343,116.4254l-3.0135.8534q-.1119.0316-.2245.0585a4.7811,4.7811,0,0,1-2.6733-.1163c-7.2816-2.4315-6.5412-20.8762-6.3415-24.374l3.0135-.8534c-.2,3.4977-.94,21.9425,6.3415,24.374a4.7807,4.7807,0,0,0,2.6732.1163q.1126-.0269.2246-.0585"></path></g></g><path class="cls-28" d="M145.1569,73.7288a11.5152,11.5152,0,0,1,12.3174,5.2488c.0023.0041.0461.0816.132.2184.0587.0971.1153.1854.1635.2756,1.7879,3.0252,10.8855,19.1313,5.51,24.5717a4.7476,4.7476,0,0,1-2.3284,1.3053c-4.4138,1.0492-10.9415-3.3469-15.0109-6.5906a5.4467,5.4467,0,0,1-3.8148,3.4228,5.7272,5.7272,0,0,1-6.7611-4.35l-1.8878.4488a5.6753,5.6753,0,0,1-4.0333,6.9158,5.5,5.5,0,0,1-4.967-1.3352c-2.1412,4.72-5.9508,11.5736-10.3667,12.6234a4.7807,4.7807,0,0,1-2.6732-.1163c-7.2817-2.4315-6.5412-20.8763-6.3415-24.374.01-.1041.0178-.217.0277-.3211.0056-.1586.0171-.2492.0177-.2539a11.3845,11.3845,0,0,1,8.5646-10.213,11.0481,11.0481,0,0,1,7.5959.9323,7.6322,7.6322,0,0,1,1.7982,1.5057l14.8029-3.5189a7.4237,7.4237,0,0,1,.9211-2.1523A10.9562,10.9562,0,0,1,145.1569,73.7288Z"></path><path class="cls-3" d="M124.4949,103.8875a5.81,5.81,0,0,1-2.0051-4.1,5.8172,5.8172,0,0,0,1.5806,4.9566"></path><path class="cls-3" d="M145.8781,98.8655a5.8092,5.8092,0,0,0-.08-4.5636,5.818,5.818,0,0,1,.8476,5.133"></path><path class="cls-3" d="M128.67,103.6322a4.3468,4.3468,0,1,1,3.2091-5.2432A4.3519,4.3519,0,0,1,128.67,103.6322Zm16.5568-8.4554a4.3471,4.3471,0,1,0-3.2094,5.2432A4.352,4.352,0,0,0,145.2263,95.1768Z"></path><path class="cls-3" d="M131.04,90.1531l-2.3993.5774a.8153.8153,0,0,1-.9835-.6019h0a.8153.8153,0,0,1,.6019-.9835l2.3994-.5774a.8153.8153,0,0,1,.9834.6019h0A.8153.8153,0,0,1,131.04,90.1531Z"></path><path class="cls-3" d="M134.92,89.152l2.3758-.6676a.8154.8154,0,0,0,.5644-1.0055h0a.8154.8154,0,0,0-1.0055-.5644l-2.3758.6676a.8154.8154,0,0,0-.5644,1.0055h0A.8154.8154,0,0,0,134.92,89.152Z"></path><path class="cls-3" d="M116.5341,92.6434l-.7.1968-2.1416-1.2021-.98-3.4892a.4124.4124,0,0,1,.2855-.5086l3.25-.9132a.4126.4126,0,0,1,.5087.2855l.98,3.4892Zm.592,2.1068-.7.1968-1.202,2.1415.9805,3.4893a.4125.4125,0,0,0,.5087.2855l3.25-.9132a.4125.4125,0,0,0,.2855-.5087l-.98-3.4892Zm2.6472.3011,3.4892-.98a.4125.4125,0,0,0,.2856-.5087l-.9132-3.25a.4125.4125,0,0,0-.5087-.2855l-3.4892.98-1.202,2.1415.1968.7Zm-4.2483-.61-.1968-.7-2.1416-1.202-3.4892.98a.4124.4124,0,0,0-.2855.5087l.9131,3.25a.4126.4126,0,0,0,.5087.2855l3.4892-.9805Z"></path><path class="cls-3" d="M145.126,88.3179A2.4763,2.4763,0,1,1,146.84,85.264,2.4789,2.4789,0,0,1,145.126,88.3179Z"></path><path class="cls-3" d="M154.7119,85.6243A2.4763,2.4763,0,1,1,156.426,82.57,2.479,2.479,0,0,1,154.7119,85.6243Z"></path><path class="cls-3" d="M148.5721,82.1781a2.4763,2.4763,0,1,1,1.7141-3.0538A2.4788,2.4788,0,0,1,148.5721,82.1781Z"></path><path class="cls-3" d="M151.2658,91.764A2.4763,2.4763,0,1,1,152.98,88.71,2.479,2.479,0,0,1,151.2658,91.764Z"></path></g></svg> 