<?xml version="1.0" encoding="UTF-8"?>
<svg width="24px" height="16px" viewBox="0 0 24 16" version="1.1" xmlns="http://www.w3.org/2000/svg" xmlns:xlink="http://www.w3.org/1999/xlink">
    <title>baccarat</title>
    <g id="Icons" stroke="none" stroke-width="1" fill="none" fill-rule="evenodd">
        <g id="Artboard" transform="translate(-250.000000, -264.000000)" fill="#333333" fill-rule="nonzero">
            <g id="baccarat" transform="translate(250.000000, 264.000000)">
                <path d="M16.3636,0 L7.6364,0 C5.6111,0 3.6687,0.842855 2.2366,2.34315 C0.8045,3.84344 0,5.87827 0,8 C0,10.1217 0.8045,12.1566 2.2366,13.6569 C3.6687,15.1571 5.6111,16 7.6364,16 L16.3636,16 C18.3889,16 20.3313,15.1571 21.7634,13.6569 C23.1955,12.1566 24,10.1217 24,8 C24,5.87827 23.1955,3.84344 21.7634,2.34315 C20.3313,0.842855 18.3889,0 16.3636,0 Z M7.6364,12.5714 C6.4791,12.5714 5.3691,12.0898 4.5508,11.2325 C3.7325,10.3752 3.2727,9.21242 3.2727,8 C3.2727,6.78758 3.7325,5.62482 4.5508,4.76751 C5.3691,3.9102 6.4791,3.42857 7.6364,3.42857 L16.3636,3.42857 C17.5209,3.42857 18.6309,3.9102 19.4492,4.76751 C20.2675,5.62482 20.7273,6.78758 20.7273,8 C20.7273,9.21242 20.2675,10.3752 19.4492,11.2325 C18.6309,12.0898 17.5209,12.5714 16.3636,12.5714 L7.6364,12.5714 Z M1.1186,8.57143 L2.2367,8.57143 C2.3251,9.55297 2.6567,10.4933 3.1985,11.2994 L2.3409,12.0143 C1.6401,11.0057 1.2172,9.81472 1.1186,8.57143 Z M2.3409,3.98566 L3.1988,4.70063 C2.6569,5.50669 2.3254,6.44703 2.237,7.42857 L1.1188,7.42857 C1.2174,6.18531 1.6401,4.99432 2.3409,3.98566 Z M3.9207,3.84074 L3.0503,3.11503 C4.0048,2.13128 5.225,1.47882 6.5455,1.24611 L6.5455,2.4012 C5.5601,2.61698 4.6514,3.11537 3.9207,3.84074 Z M3.9207,12.1593 C4.6514,12.8846 5.5601,13.383 6.5455,13.5988 L6.5455,14.7539 C5.225,14.5211 4.0048,13.8686 3.0503,12.8847 L3.9207,12.1593 Z M20.0793,3.84074 C19.3486,3.11536 18.4399,2.61697 17.4545,2.4012 L17.4545,1.24611 C18.775,1.47888 19.9952,2.13142 20.9497,3.11526 L20.0793,3.84074 Z M20.0793,12.1593 L20.9497,12.885 C19.9952,13.8687 18.775,14.5212 17.4545,14.7539 L17.4545,13.5988 C18.4399,13.383 19.3486,12.8846 20.0793,12.1593 Z M21.6591,12.0143 L20.8012,11.2994 C21.3431,10.4933 21.6746,9.55297 21.763,8.57143 L22.8812,8.57143 C22.7826,9.81469 22.3599,11.0057 21.6591,12.0143 Z M21.763,7.42857 C21.6746,6.44703 21.3431,5.50669 20.8012,4.70063 L21.6591,3.98566 C22.3599,4.99429 22.7828,6.18528 22.8814,7.42857 L21.763,7.42857 Z M16.3636,2.28571 L12.5455,2.28571 L12.5455,1.14286 L16.3636,1.14286 L16.3636,2.28571 Z M11.4545,1.14286 L11.4545,2.28571 L7.6364,2.28571 L7.6364,1.14286 L11.4545,1.14286 Z M7.6364,13.7143 L11.4545,13.7143 L11.4545,14.8571 L7.6364,14.8571 L7.6364,13.7143 Z M12.5455,14.8571 L12.5455,13.7143 L16.3636,13.7143 L16.3636,14.8571 L12.5455,14.8571 Z" id="Shape"></path>
            </g>
        </g>
    </g>
</svg>