<?xml version="1.0" encoding="UTF-8"?>
<svg width="19px" height="16px" viewBox="0 0 19 16" version="1.1" xmlns="http://www.w3.org/2000/svg" xmlns:xlink="http://www.w3.org/1999/xlink">
    <title>slots</title>
    <g id="Icons" stroke="none" stroke-width="1" fill="none" fill-rule="evenodd">
        <g id="Artboard" transform="translate(-324.000000, -206.000000)" fill="#000000" fill-rule="nonzero">
            <g id="slots" transform="translate(324.000000, 206.000000)">
                <path d="M18.667011,4.88889 C18.668,4.64421 18.601,4.40396 18.475,4.19447 C18.349,3.98497 18.167,3.81428 17.95,3.70112 C17.733,3.58796 17.489,3.53667 17.245,3.55287 C17.001,3.56908 16.766,3.65215 16.566,3.793 C16.366,3.93384 16.208,4.12703 16.111,4.3514 C16.013,4.57577 15.979,4.82267 16.012,5.06507 C16.046,5.30746 16.145,5.536 16.3,5.72566 C16.454,5.91532 16.658,6.05879 16.889,6.14036 L16.889,9.77778 L15.111,9.77778 L15.111,0.444444 C15.111,0.326571 15.064,0.213524 14.981,0.130175 C14.898,0.0468253 14.785,0 14.667,0 L0.444,0 C0.327,0 0.214,0.0468253 0.13,0.130175 C0.047,0.213524 0,0.326571 0,0.444444 L0,15.5556 C0,15.6734 0.047,15.7865 0.13,15.8699 C0.214,15.9532 0.327,16 0.444,16 L14.667,16 C14.785,16 14.898,15.9532 14.981,15.8699 C15.064,15.7865 15.111,15.6734 15.111,15.5556 L15.111,10.6667 L17.333,10.6667 C17.451,10.6667 17.564,10.6198 17.648,10.5365 C17.731,10.4532 17.778,10.3401 17.778,10.2222 L17.778,6.14036 C18.037,6.04904 18.262,5.87972 18.421,5.65564 C18.58,5.43157 18.666,5.16373 18.667011,4.88889 Z M14.222,15.1111 L0.889,15.1111 L0.889,0.888889 L14.222,0.888889 L14.222,15.1111 Z" id="Shape"></path>
                <path d="M12.889,3.55556 L2.222,3.55556 C2.104,3.55556 1.991,3.60238 1.908,3.68574 C1.825,3.76908 1.778,3.88213 1.778,4 L1.778,10.2222 C1.778,10.3401 1.825,10.4532 1.908,10.5365 C1.991,10.6198 2.104,10.6667 2.222,10.6667 L12.889,10.6667 C13.007,10.6667 13.12,10.6198 13.203,10.5365 C13.286,10.4532 13.333,10.3401 13.333,10.2222 L13.333,4 C13.333,3.88213 13.286,3.76908 13.203,3.68574 C13.12,3.60238 13.007,3.55556 12.889,3.55556 Z M2.667,4.44445 L5.333,4.44445 L5.333,9.77778 L2.667,9.77778 L2.667,4.44445 Z M6.222,4.44445 L8.889,4.44445 L8.889,9.77778 L6.222,9.77778 L6.222,4.44445 Z M12.444,9.77778 L9.778,9.77778 L9.778,4.44445 L12.444,4.44445 L12.444,9.77778 Z" id="Shape"></path>
                <path d="M12.889,11.5556 L2.222,11.5556 C2.104,11.5556 1.991,11.6024 1.908,11.6857 C1.825,11.7691 1.778,11.8821 1.778,12 L1.778,13.7778 C1.778,13.8956 1.825,14.0087 1.908,14.0921 C1.991,14.1754 2.104,14.2222 2.222,14.2222 L12.889,14.2222 C13.007,14.2222 13.12,14.1754 13.203,14.0921 C13.286,14.0087 13.333,13.8956 13.333,13.7778 L13.333,12 C13.333,11.8821 13.286,11.7691 13.203,11.6857 C13.12,11.6024 13.007,11.5556 12.889,11.5556 Z M12.444,13.3333 L2.667,13.3333 L2.667,12.4444 L12.444,12.4444 L12.444,13.3333 Z" id="Shape"></path>
                <path d="M3.111,2.66668 L4.889,2.66668 C5.007,2.66668 5.12,2.61985 5.203,2.5365 C5.287,2.45316 5.333,2.34011 5.333,2.222235 C5.333,2.10436 5.287,1.99131 5.203,1.90796 C5.12,1.82461 5.007,1.77779 4.889,1.77779 L3.111,1.77779 C2.993,1.77779 2.88,1.82461 2.797,1.90796 C2.713,1.99131 2.667,2.10436 2.667,2.222235 C2.667,2.34011 2.713,2.45316 2.797,2.5365 C2.88,2.61985 2.993,2.66668 3.111,2.66668 Z" id="Path"></path>
                <path d="M6.667,2.66668 L8.444,2.66668 C8.562,2.66668 8.675,2.61985 8.759,2.5365 C8.842,2.45316 8.889,2.34011 8.889,2.222235 C8.889,2.10436 8.842,1.99131 8.759,1.90796 C8.675,1.82461 8.562,1.77779 8.444,1.77779 L6.667,1.77779 C6.549,1.77779 6.436,1.82461 6.352,1.90796 C6.269,1.99131 6.222,2.10436 6.222,2.222235 C6.222,2.34011 6.269,2.45316 6.352,2.5365 C6.436,2.61985 6.549,2.66668 6.667,2.66668 Z" id="Path"></path>
                <path d="M10.222,2.66668 L12,2.66668 C12.118,2.66668 12.231,2.61985 12.314,2.5365 C12.398,2.45316 12.444,2.34011 12.444,2.222235 C12.444,2.10436 12.398,1.99131 12.314,1.90796 C12.231,1.82461 12.118,1.77779 12,1.77779 L10.222,1.77779 C10.104,1.77779 9.991,1.82461 9.908,1.90796 C9.825,1.99131 9.778,2.10436 9.778,2.222235 C9.778,2.34011 9.825,2.45316 9.908,2.5365 C9.991,2.61985 10.104,2.66668 10.222,2.66668 Z" id="Path"></path>
            </g>
        </g>
    </g>
</svg>