<?xml version="1.0" encoding="UTF-8"?>
<svg width="13px" height="16px" viewBox="0 0 13 16" version="1.1" xmlns="http://www.w3.org/2000/svg" xmlns:xlink="http://www.w3.org/1999/xlink">
    <title>poker</title>
    <g id="Icons" stroke="none" stroke-width="1" fill="none" fill-rule="evenodd">
        <g id="Artboard" transform="translate(-219.000000, -264.000000)" fill="#000000" fill-rule="nonzero">
            <g id="Group" transform="translate(219.000000, 264.000000)">
                <path d="M12.0028,2.06796 L10.8901,2.06796 L10.8901,0.955321 C10.8901,0.906609 10.8806,0.858372 10.862,0.813359 C10.8433,0.768345 10.816,0.727453 10.7815,0.693009 C10.7471,0.658559 10.7062,0.631242 10.6612,0.612616 C10.6162,0.593989 10.568,0.584441947 10.5192,0.584441947 L0.8764,0.584441947 C0.8277,0.584441947 0.7794,0.593989 0.7344,0.612616 C0.6894,0.631242 0.6485,0.658559 0.6141,0.693009 C0.5796,0.727453 0.5523,0.768345 0.5337,0.813359 C0.515,0.858372 0.5055,0.906609 0.5055,0.955321 L0.5055,13.5652 C0.5055,13.6636 0.5446,13.7579 0.6141,13.8275 C0.6837,13.897 0.778,13.9361 0.8764,13.9361 L1.989,13.9361 L1.989,15.0488 C1.989,15.1471 2.0281,15.2414 2.0976,15.311 C2.1672,15.3805 2.2615,15.4196 2.3599,15.4196 L12.0028,15.4196 C12.1011,15.4196 12.1955,15.3805 12.265,15.311 C12.3345,15.2414 12.3736,15.1471 12.3736,15.0488 L12.3736,2.43884 C12.3736,2.39013 12.3641,2.34189 12.3455,2.29688 C12.3268,2.25186 12.2995,2.21097 12.265,2.17653 C12.2306,2.14207 12.1897,2.11476 12.1447,2.09613 C12.0997,2.07751 12.0515,2.06793 12.0028,2.06796 Z M1.2473,1.3262 L10.1484,1.3262 L10.1484,13.1944 L1.2473,13.1944 L1.2473,1.3262 Z M11.6319,14.6779 L2.7308,14.6779 L2.7308,13.9361 L10.5192,13.9361 C10.6176,13.9361 10.712,13.897 10.7815,13.8275 C10.851,13.7579 10.8901,13.6636 10.8901,13.5652 L10.8901,2.80972 L11.6319,2.80972 L11.6319,14.6779 Z" id="Shape"></path>
                <path d="M4.4286,9.0299 L4.2672,9.29864 C4.2333,9.35488 4.2149,9.41917 4.214,9.48484 C4.2131,9.55051 4.2297,9.61526 4.2621,9.67242 C4.2944,9.72952 4.3414,9.77706 4.3982,9.81009 C4.4549,9.84313 4.5195,9.86047 4.5852,9.86040021 L6.8104,9.86040021 C6.8761,9.86047 6.9407,9.84313 6.9974,9.81009 C7.0542,9.77706 7.1011,9.72952 7.1335,9.67242 C7.1658,9.61526 7.1824,9.55051 7.1815,9.48484 C7.1807,9.41917 7.1623,9.35488 7.1284,9.29864 L6.9669,9.0299 C7.1432,8.97029 7.305,8.87442 7.4421,8.74849 C7.6226,8.56783 7.7592,8.3482 7.8415,8.10642 C7.9237,7.86464 7.9495,7.60724 7.9166,7.35398 C7.8332,6.26086 6.1215,4.89134 5.9267,4.73898 C5.8613,4.68793 5.7807,4.6602 5.6978,4.6602 C5.6149,4.6602 5.5343,4.68793 5.4689,4.73898 C5.274,4.89148 3.5623,6.26086 3.479,7.35398 C3.4461,7.60724 3.4718,7.86464 3.554,8.10642 C3.6363,8.3482 3.773,8.56783 3.9535,8.74849 C4.0904,8.87455 4.2523,8.97042 4.4286,9.0299 Z M5.6978,5.51014 C6.3251,6.0444 7.1371,6.89554 7.1762,7.41056 C7.1998,7.55165 7.1909,7.69631 7.1501,7.83346 C7.1094,7.97067 7.0378,8.09666 6.9408,8.2019 C6.8687,8.26532 6.7833,8.31168 6.6908,8.33765 C6.5984,8.36363 6.5013,8.36845 6.4067,8.35183 C6.337,8.34049 6.2654,8.34939 6.2004,8.37735 C6.1355,8.40537 6.0799,8.45139 6.0402,8.50994 C6.0006,8.56849 5.9785,8.63713 5.9765,8.70781 C5.9746,8.77855 5.9929,8.84831 6.0293,8.90891 L6.1555,9.11864 L5.24,9.11864 L5.3661,8.90891 C5.4025,8.84831 5.4208,8.77855 5.4189,8.70781 C5.4169,8.63713 5.3948,8.56849 5.3552,8.50994 C5.3155,8.45139 5.2599,8.40537 5.195,8.37735 C5.13,8.34939 5.0584,8.34049 4.9887,8.35183 C4.8941,8.36891 4.7969,8.36429 4.7044,8.33831 C4.6119,8.31234 4.5265,8.26572 4.4546,8.2019 C4.3576,8.09666 4.2861,7.97067 4.2453,7.83346 C4.2045,7.69631 4.1956,7.55165 4.2192,7.41056 C4.2585,6.89554 5.0705,6.0444 5.6978,5.51014 Z" id="Shape"></path>
            </g>
        </g>
    </g>
</svg>