<?xml version="1.0" encoding="UTF-8"?>
<svg width="16px" height="16px" viewBox="0 0 16 16" version="1.1" xmlns="http://www.w3.org/2000/svg" xmlns:xlink="http://www.w3.org/1999/xlink">
    <title>scratch cards</title>
    <g id="Icons" stroke="none" stroke-width="1" fill="none" fill-rule="evenodd">
        <g id="Artboard" transform="translate(-222.000000, -206.000000)" fill="#333333" fill-rule="nonzero">
            <g id="scratch-cards" transform="translate(222.000000, 206.000000)">
                <path d="M15.6,10.4 L11.2,10.4 L11.2,5.6 L15.6,5.6 C15.7061,5.6 15.8078,5.55786 15.8828,5.48284 C15.9579,5.40783 16,5.30609 16,5.2 C16,5.09391 15.9579,4.99217 15.8828,4.91716 C15.8078,4.84214 15.7061,4.8 15.6,4.8 L11.2,4.8 L11.2,0.4 C11.2,0.293913 11.1579,0.192172 11.0828,0.117157 C11.0078,0.0421428 10.9061,0 10.8,0 C10.6939,0 10.5922,0.0421428 10.5172,0.117157 C10.4421,0.192172 10.4,0.293913 10.4,0.4 L10.4,4.8 L5.6,4.8 L5.6,0.4 C5.6,0.293913 5.5579,0.192172 5.4828,0.117157 C5.4078,0.0421428 5.3061,0 5.2,0 C5.0939,0 4.9922,0.0421428 4.9172,0.117157 C4.8421,0.192172 4.8,0.293913 4.8,0.4 L4.8,4.8 L0.4,4.8 C0.2939,4.8 0.1922,4.84214 0.1172,4.91716 C0.0421,4.99217 0,5.09391 0,5.2 C0,5.30609 0.0421,5.40783 0.1172,5.48284 C0.1922,5.55786 0.2939,5.6 0.4,5.6 L4.8,5.6 L4.8,10.4 L0.4,10.4 C0.2939,10.4 0.1922,10.4421 0.1172,10.5172 C0.0421,10.5922 0,10.6939 0,10.8 C0,10.9061 0.0421,11.0078 0.1172,11.0828 C0.1922,11.1579 0.2939,11.2 0.4,11.2 L4.8,11.2 L4.8,15.6 C4.8,15.7061 4.8421,15.8078 4.9172,15.8828 C4.9922,15.9579 5.0939,16 5.2,16 C5.3061,16 5.4078,15.9579 5.4828,15.8828 C5.5579,15.8078 5.6,15.7061 5.6,15.6 L5.6,11.2 L10.4,11.2 L10.4,15.6 C10.4,15.7061 10.4421,15.8078 10.5172,15.8828 C10.5922,15.9579 10.6939,16 10.8,16 C10.9061,16 11.0078,15.9579 11.0828,15.8828 C11.1579,15.8078 11.2,15.7061 11.2,15.6 L11.2,11.2 L15.6,11.2 C15.7061,11.2 15.8078,11.1579 15.8828,11.0828 C15.9579,11.0078 16,10.9061 16,10.8 C16,10.6939 15.9579,10.5922 15.8828,10.5172 C15.8078,10.4421 15.7061,10.4 15.6,10.4 Z M5.6,10.4 L5.6,5.6 L10.4,5.6 L10.4,10.4 L5.6,10.4 Z" id="Shape"></path>
                <path d="M3.6828,12.3172 C3.6457,12.2801 3.6016,12.2506 3.5531,12.2305 C3.5046,12.2103 3.4526,12.2 3.4,12.2 C3.3475,12.2 3.2955,12.2103 3.247,12.2305 C3.1984,12.2506 3.1544,12.2801 3.1172,12.3172 L2.4,13.0344 L1.6828,12.3172 C1.6074,12.2443 1.5064,12.204 1.4015,12.2049 C1.2966,12.2059 1.1963,12.2479 1.1221,12.3221 C1.0479,12.3962 1.0059,12.4966 1.005,12.6014 C1.0041,12.7063 1.0444,12.8074 1.1172,12.8828 L1.8344,13.6 L1.1172,14.3172 C1.079,14.3541 1.0486,14.3982 1.0276,14.447 C1.0066,14.4959 0.9956,14.5483 0.995088568,14.6014 C0.9947,14.6546 1.0048,14.7072 1.0249,14.7564 C1.045,14.8056 1.0747,14.8502 1.1123,14.8878 C1.1498,14.9253 1.1945,14.955 1.2437,14.9751 C1.2928,14.9953 1.3455,15.0054 1.3986,15.0049177 C1.4517,15.0044 1.5042,14.9934 1.553,14.9725 C1.6018,14.9515 1.6459,14.921 1.6828,14.8828 L2.4,14.1657 L3.1172,14.8828 C3.1927,14.9557 3.2937,14.996 3.3986,14.9951 C3.5035,14.9942 3.6038,14.9521 3.678,14.8779 C3.7521,14.8038 3.7942,14.7035 3.7951,14.5986 C3.796,14.4937 3.7557,14.3927 3.6828,14.3172 L2.9657,13.6 L3.6828,12.8828 C3.72,12.8457 3.7495,12.8016 3.7696,12.7531 C3.7897,12.7046 3.8,12.6525 3.8,12.6 C3.8,12.5475 3.7897,12.4955 3.7696,12.4469 C3.7495,12.3984 3.72,12.3543 3.6828,12.3172 Z" id="Path"></path>
                <path d="M14.8828,12.3172 C14.8457,12.28 14.8016,12.2506 14.7531,12.2304 C14.7045,12.2103 14.6525,12.2 14.6,12.2 C14.5475,12.2 14.4955,12.2103 14.4469,12.2304 C14.3984,12.2506 14.3543,12.28 14.3172,12.3172 L13.6,13.0344 L12.8828,12.3172 C12.8074,12.2443 12.7063,12.204 12.6014,12.2049 C12.4966,12.2058 12.3962,12.2479 12.3221,12.3221 C12.2479,12.3962 12.2058,12.4966 12.2049,12.6014 C12.204,12.7063 12.2443,12.8074 12.3172,12.8828 L13.0344,13.6 L12.3172,14.3172 C12.279,14.3541 12.2485,14.3982 12.2276,14.447 C12.2066,14.4958 12.1956,14.5483 12.1950825,14.6014 C12.1946,14.6545 12.2048,14.7072 12.2249,14.7564 C12.245,14.8055 12.2747,14.8502 12.3122,14.8878 C12.3498,14.9253 12.3945,14.955 12.4436,14.9751 C12.4928,14.9952 12.5454,15.0054 12.5986,15.0049175 C12.6517,15.0044 12.7042,14.9934 12.753,14.9724 C12.8018,14.9515 12.8459,14.921 12.8828,14.8828 L13.6,14.1656 L14.3172,14.8828 C14.3926,14.9557 14.4937,14.996 14.5986,14.9951 C14.7034,14.9942 14.8038,14.9521 14.8779,14.8779 C14.9521,14.8038 14.9942,14.7034 14.9951,14.5986 C14.996,14.4937 14.9557,14.3926 14.8828,14.3172 L14.1656,13.6 L14.8828,12.8828 C14.92,12.8457 14.9494,12.8016 14.9695,12.7531 C14.9897,12.7045 15,12.6525 15,12.6 C15,12.5475 14.9897,12.4955 14.9695,12.4469 C14.9494,12.3984 14.92,12.3543 14.8828,12.3172 Z" id="Path"></path>
                <path d="M14.8828,6.7172 C14.8457,6.68005 14.8016,6.65057 14.7531,6.63046 C14.7045,6.61034 14.6525,6.59999 14.6,6.59999 C14.5475,6.59999 14.4955,6.61034 14.4469,6.63046 C14.3984,6.65057 14.3543,6.68005 14.3172,6.7172 L13.6,7.43436 L12.8828,6.7172 C12.8074,6.64434 12.7063,6.60402 12.6014,6.60493 C12.4966,6.60585 12.3962,6.64791 12.3221,6.72208 C12.2479,6.79624 12.2058,6.89657 12.2049,7.00144 C12.204,7.10632 12.2443,7.20736 12.3172,7.28281 L13.0344,8.00001 L12.3172,8.71721 C12.279,8.7541 12.2485,8.79824 12.2276,8.84704 C12.2066,8.89585 12.1956,8.94833 12.1950825,9.00145 C12.1946,9.05456 12.2048,9.10723 12.2249,9.15639 C12.245,9.20555 12.2747,9.25021 12.3122,9.28776 C12.3498,9.32532 12.3945,9.35502 12.4436,9.37513 C12.4928,9.39525 12.5454,9.40537 12.5986,9.40492501 C12.6517,9.40444 12.7042,9.39341 12.753,9.37245 C12.8018,9.35148 12.8459,9.32101 12.8828,9.28281 L13.6,8.56565 L14.3172,9.28281 C14.3926,9.35567 14.4937,9.39599 14.5986,9.39508 C14.7034,9.39416 14.8038,9.3521 14.8779,9.27793 C14.9521,9.20377 14.9942,9.10344 14.9951,8.99857 C14.996,8.89369 14.9557,8.79265 14.8828,8.71721 L14.1656,8.00001 L14.8828,7.28281 C14.92,7.24568 14.9494,7.20159 14.9695,7.15307 C14.9897,7.10454 15,7.05253 15,7 C15,6.94748 14.9897,6.89546 14.9695,6.84694 C14.9494,6.79842 14.92,6.75433 14.8828,6.7172 Z" id="Path"></path>
                <path d="M6.7172,3.6828 C6.7543,3.71996 6.7984,3.74943 6.8469,3.76954 C6.8955,3.78965 6.9475,3.8 7,3.8 C7.0525,3.8 7.1045,3.78965 7.1531,3.76954 C7.2016,3.74943 7.2457,3.71996 7.2828,3.6828 L8,2.96564 L8.7172,3.6828 C8.7926,3.75567 8.8937,3.79598 8.9986,3.79507 C9.1034,3.79416 9.2038,3.75209 9.2779,3.67793 C9.3521,3.60377 9.3942,3.50344 9.3951,3.39856 C9.396,3.29368 9.3557,3.19264 9.2828,3.1172 L8.5656,2.4 L9.2828,1.6828 C9.321,1.6459 9.3515,1.60177 9.3724,1.55296 C9.3934,1.50416 9.4044,1.45167 9.40491753,1.39856 C9.4054,1.34545 9.3952,1.29278 9.3751,1.24362 C9.355,1.19446 9.3253,1.1498 9.2878,1.11224 C9.2502,1.07469 9.2055,1.04499 9.1564,1.02487 C9.1072,1.00476 9.0546,0.99464 9.0014,0.995086866 C8.9483,0.995563 8.8958,1.0066 8.847,1.02756 C8.7982,1.04853 8.7541,1.079 8.7172,1.1172 L8,1.83436 L7.2828,1.1172 C7.2459,1.079 7.2018,1.04853 7.153,1.02756 C7.1042,1.0066 7.0517,0.995563 6.9986,0.995086866 C6.9455,0.99464 6.8928,1.00476 6.8436,1.02487 C6.7945,1.04499 6.7498,1.07469 6.7123,1.11224 C6.6747,1.1498 6.645,1.19446 6.6249,1.24362 C6.6048,1.29278 6.5946,1.34545 6.59508247,1.39856 C6.5956,1.45167 6.6066,1.50416 6.6276,1.55296 C6.6485,1.60177 6.679,1.6459 6.7172,1.6828 L7.4344,2.4 L6.7172,3.1172 C6.68,3.15433 6.6506,3.19841 6.6305,3.24694 C6.6103,3.29546 6.6,3.34747 6.6,3.4 C6.6,3.45253 6.6103,3.50454 6.6305,3.55307 C6.6506,3.60159 6.68,3.64568 6.7172,3.6828 Z" id="Path"></path>
                <path d="M1.1172,9.28281 C1.1543,9.31996 1.1984,9.34944 1.2469,9.36955 C1.2955,9.38966 1.3475,9.40001 1.4,9.40001 C1.4525,9.40001 1.5045,9.38966 1.5531,9.36955 C1.6016,9.34944 1.6457,9.31996 1.6828,9.28281 L2.4,8.56565 L3.1172,9.28281 C3.1926,9.35567 3.2937,9.39599 3.3986,9.39508 C3.5034,9.39417 3.6038,9.3521 3.6779,9.27794 C3.7521,9.20377 3.7942,9.10345 3.79511476,8.99857 C3.796,8.89369 3.7557,8.79265 3.6828,8.71721 L2.9656,8.00001 L3.6828,7.28281 C3.7557,7.20737 3.796,7.10633 3.79511476,7.00145 C3.7942,6.89657 3.7521,6.79624 3.6779,6.72208 C3.6038,6.64792 3.5034,6.60585 3.3986,6.60494 C3.2937,6.60403 3.1926,6.64434 3.1172,6.71721 L2.4,7.43437 L1.6828,6.71721 C1.6459,6.679 1.6018,6.64853 1.553,6.62757 C1.5042,6.6066 1.4517,6.59557 1.3986,6.59509499 C1.3455,6.59465 1.2928,6.60477 1.2436,6.62488 C1.1945,6.64499 1.1498,6.67469 1.1122,6.71225 C1.0747,6.74981 1.045,6.79447 1.0249,6.84363 C1.0048,6.89279 0.9946,6.94546 0.995082466,6.99857 C0.9956,7.05168 1.0066,7.10417 1.0276,7.15297 C1.0485,7.20177 1.079,7.24591 1.1172,7.28281 L1.8344,8.00001 L1.1172,8.71721 C1.08,8.75433 1.0506,8.79842 1.0305,8.84694 C1.0103,8.89547 1,8.94748 1,9.00001 C1,9.05254 1.0103,9.10455 1.0305,9.15307 C1.0506,9.2016 1.08,9.24568 1.1172,9.28281 Z" id="Path"></path>
            </g>
        </g>
    </g>
</svg>