<?xml version="1.0" encoding="UTF-8"?>
<svg width="16px" height="16px" viewBox="0 0 16 16" version="1.1" xmlns="http://www.w3.org/2000/svg" xmlns:xlink="http://www.w3.org/1999/xlink">
    <title>esports</title>
    <g id="Icons" stroke="none" stroke-width="1" fill="none" fill-rule="evenodd">
        <g id="Artboard" transform="translate(-290.000000, -206.000000)" stroke="#000000">
            <g id="esports" transform="translate(291.417000, 207.417140)">
                <path d="M6.583,10.24006 C8.603,10.24006 10.24,8.60266 10.24,6.58287 C10.24,4.56308 8.603,2.92572 6.583,2.92572 C4.563,2.92572 2.926,4.56308 2.926,6.58287 C2.926,8.60266 4.563,10.24006 6.583,10.24006 Z" id="Path"></path>
                <path d="M6.583,13.16576 C10.219,13.16576 13.166,10.21846 13.166,6.58286 C13.166,2.94725 10.219,-1.15463195e-14 6.583,-1.15463195e-14 C2.947,-1.15463195e-14 -2.84217094e-14,2.94725 -2.84217094e-14,6.58286 C-2.84217094e-14,10.21846 2.947,13.16576 6.583,13.16576 Z" id="Path"></path>
                <path d="M6.583,7.68001 C7.189,7.68001 7.68,7.1888 7.68,6.58287 C7.68,5.97693 7.189,5.48572 6.583,5.48572 C5.977,5.48572 5.486,5.97693 5.486,6.58287 C5.486,7.1888 5.977,7.68001 6.583,7.68001 Z" id="Path"></path>
                <path d="M0.732,12.43456 L2.963,10.20326 M2.963,2.96248 L0.732,0.73166 L2.963,2.96248 Z M10.203,2.96248 L12.434,0.73166 L10.203,2.96248 Z M12.434,12.43456 L10.203,10.20326 L12.434,12.43456 Z" id="Shape" stroke-linecap="round"></path>
            </g>
        </g>
    </g>
</svg>