<?xml version="1.0" encoding="UTF-8"?> <!-- Generator: Adobe Illustrator 18.0.0, SVG Export Plug-In . SVG Version: 6.00 Build 0) --> <svg xmlns="http://www.w3.org/2000/svg" xmlns:xlink="http://www.w3.org/1999/xlink" version="1.1" id="Layer_1" x="0px" y="0px" width="65px" height="69.3px" viewBox="0 0 65 69.3" xml:space="preserve"> <g> <path fill="#00CC95" d="M32.5,69.3c-3.4,0-6.7-0.5-9.9-1.5l-2.9-1.1C7.8,61.5,0,49.7,0,36.6C0,21.4,10.7,8,25.5,4.8l0.9-0.2L24.6,1 c-0.1-0.2-0.1-0.5,0-0.7C24.8,0.1,25,0,25.3,0h14.4c0.3,0,0.5,0.1,0.6,0.3c0.1,0.2,0.1,0.5,0,0.7l-1.8,3.6l0.9,0.2 C54.3,8,65,21.4,65,36.6c0,13.1-7.8,24.9-19.8,30l-2.9,1.1C39.2,68.8,35.9,69.3,32.5,69.3z M26.6,6C12,8.9,1.4,21.8,1.4,36.6 c0,17.2,13.9,31.2,31.1,31.2s31.1-14,31.1-31.2C63.6,21.8,53,8.9,38.4,6l-0.5-0.1l-2.1,4.3l1,0.2c6.2,1,11.9,4.2,16,9 c4.2,4.9,6.5,11,6.5,17.4c0,14.8-12,26.8-26.7,26.8S5.8,51.5,5.8,36.8c0-6.3,2.3-12.5,6.5-17.4c4.1-4.8,9.8-8,16-9l1-0.2l-2.1-4.3 L26.6,6z M15.2,55.2l0.6,0.5c4.3,3.8,9.5,6,15.2,6.3l0.7,0V44.7l-0.5-0.1c-1.2-0.2-2.3-0.7-3.2-1.4l-0.5-0.4L15.2,55.2z M37.1,43.3 c-1,0.7-2.1,1.2-3.3,1.4l-0.7,0.1V62l0.8,0c5.7-0.3,11-2.5,15.3-6.3l0.6-0.5L37.6,42.9L37.1,43.3z M40.3,38.1 c-0.2,1.2-0.7,2.3-1.4,3.3l-0.4,0.5l12.2,12.2l0.5-0.6c3.8-4.3,6-9.5,6.3-15.3l0-0.7H40.4L40.3,38.1z M7.3,38.3 c0.3,5.7,2.5,11,6.3,15.3l0.5,0.6l12.2-12.2L26,41.4c-0.7-1-1.1-2-1.4-3.2v-0.7l-0.7,0H7.3L7.3,38.3z M32.5,30.3 c-3.6,0-6.5,2.9-6.5,6.5s2.9,6.5,6.5,6.5s6.5-2.9,6.5-6.5S36.1,30.3,32.5,30.3z M38.6,31.7l0.4,0.5c0.7,1,1.2,2.1,1.4,3.3l0.1,0.6 h17.3l0-0.8c-0.3-5.6-2.6-11.1-6.3-15.3l-0.5-0.6L38.6,31.7z M13.6,20c-3.8,4.2-6,9.7-6.3,15.3l0,0.8h17.3l0.1-0.6 c0.2-1.2,0.7-2.3,1.4-3.3l0.4-0.5L14.1,19.4L13.6,20z M33.1,15.3v13.6l0.7,0.1c1.2,0.2,2.3,0.7,3.3,1.4l0.5,0.4l12.3-12.3l-0.6-0.5 c-3.8-3.4-8.6-5.6-13.7-6.2L35,11.6L33.1,15.3z M29.4,11.7c-5.1,0.6-9.9,2.8-13.7,6.2l-0.6,0.5l12.3,12.3l0.5-0.4 c1-0.7,2-1.2,3.2-1.4l0.5-0.1V15.3l-1.8-3.7L29.4,11.7z M32.5,13.6l6.1-12.1H26.4L32.5,13.6z"></path> </g> </svg> 