<?xml version="1.0" encoding="UTF-8"?> <!-- Generator: Adobe Illustrator 18.0.0, SVG Export Plug-In . SVG Version: 6.00 Build 0) --> <svg xmlns="http://www.w3.org/2000/svg" xmlns:xlink="http://www.w3.org/1999/xlink" version="1.1" id="Layer_1" x="0px" y="0px" width="65px" height="65px" viewBox="0 0 65 65" xml:space="preserve"> <g> <path fill="#00CC95" d="M59.5,48.9c0,0.5-0.4,0.8-0.8,0.8H6.3c-0.5,0-0.8-0.4-0.8-0.8V28.1c0-0.5,0.4-0.8,0.8-0.8h52.4 c0.5,0,0.8,0.4,0.8,0.8V48.9z M42.1,48.1h15.8V29H42.1V48.1z M24.6,48.1h15.8V29H24.6V48.1z M7.1,48.1h15.8V29H7.1V48.1z"></path> <path fill="#00CC95" d="M0.8,65C0.3,65,0,64.6,0,64.2V16.1c0-0.5,0.3-0.8,0.8-0.8h4.6l-1.9-1.9c-0.2-0.2-0.2-0.4-0.2-0.6 c0-0.5,0.4-0.8,0.8-0.8h5l2.5-5c0.1-0.1,0.2-0.2,0.3-0.3c0.1-0.1,0.3-0.1,0.4-0.1c0.3,0,0.6,0.2,0.7,0.4l2.5,5h4.9c0,0,0.1,0,0.1,0 h0.9l-2.5-1.8c-0.2-0.2-0.3-0.4-0.3-0.7c0-0.5,0.4-0.8,0.8-0.8h9.3l3.1-8.2c0.1-0.2,0.3-0.4,0.5-0.5C32.3,0,32.4,0,32.5,0 c0.3,0,0.6,0.2,0.8,0.5l3.1,8.2h9.3c0.3,0,0.5,0.1,0.7,0.3c0.3,0.4,0.2,0.9-0.2,1.2l-2.7,1.9h0l-4.4,3.1h6.8l-1.9-1.9 c-0.2-0.2-0.3-0.6-0.2-0.9c0,0,0-0.1,0-0.2v-0.3l0.7-0.1c0,0,0.1,0,0.1,0l0,0l4.9,0l2.5-5c0.1-0.1,0.2-0.2,0.3-0.3 c0.1-0.1,0.3-0.1,0.4-0.1c0.3,0,0.6,0.2,0.7,0.4l2.5,5h5c0.2,0,0.4,0.1,0.6,0.2c0.2,0.2,0.2,0.4,0.2,0.6c0,0.2-0.1,0.4-0.2,0.6 l-1.9,1.9h4.6c0.5,0,0.9,0.4,0.9,0.8v48.1c0,0.5-0.4,0.8-0.9,0.8H0.8z M1.6,63.4h61.7V16.9h-5.4l-0.5,0.5l1,3.9c0,0.2,0,0.4,0,0.5 c-0.1,0.3-0.4,0.5-0.7,0.5c-0.1,0-0.2,0-0.3-0.1l-4.6-2l-4.6,2c-0.1,0-0.2,0.1-0.3,0.1c-0.1,0-0.1,0-0.2,0c-0.4-0.1-0.7-0.6-0.6-1 l1-3.9l-0.5-0.5h-8.2l1.7,6.6c0,0.1,0,0.1,0,0.2c0,0.5-0.4,0.8-0.8,0.8c-0.1,0-0.3,0-0.4-0.1l-7.2-4.1l-7.2,4.1 c-0.1,0.1-0.3,0.1-0.4,0.1c-0.1,0-0.1,0-0.2,0c-0.4-0.1-0.7-0.6-0.6-1l1.7-6.6h-8.2L17,17.5l1,3.9c0,0.2,0,0.4,0,0.5 c-0.1,0.3-0.4,0.5-0.7,0.5c-0.1,0-0.2,0-0.3-0.1l-4.6-2l-4.6,2c-0.1,0-0.2,0.1-0.3,0.1c-0.1,0-0.1,0-0.2,0c-0.4-0.1-0.7-0.6-0.6-1 l1-3.9L7,16.9H1.6V63.4z M32.5,18.6c0.1,0,0.3,0,0.4,0.1l6,3.4l-1.7-6.9c-0.1-0.3,0-0.7,0.3-0.9l5.6-4h-7.3c-0.3,0-0.6-0.2-0.8-0.5 l-2.5-6.7l-2.5,6.7c-0.1,0.3-0.4,0.5-0.8,0.5h-7.3l5.6,4c0.3,0.2,0.4,0.5,0.3,0.9l-1.7,6.9l6-3.4C32.2,18.6,32.3,18.6,32.5,18.6z M52.7,18.6c0.1,0,0.2,0,0.3,0.1l3.4,1.5l-0.7-2.7c-0.1-0.3,0-0.6,0.2-0.8l3-3h-3.5c-0.3,0-0.6-0.2-0.7-0.5l-2-4l-2,4 c-0.1,0.3-0.4,0.5-0.7,0.5h-3.5l3,3c0.2,0.2,0.3,0.5,0.2,0.8l-0.7,2.7l3.4-1.5C52.4,18.6,52.5,18.6,52.7,18.6z M12.2,18.6 c0.1,0,0.2,0,0.3,0.1l3.4,1.5l-0.7-2.7c-0.1-0.3,0-0.6,0.2-0.8l3-3H15c-0.3,0-0.6-0.2-0.7-0.5l-2-4l-2,4c-0.1,0.3-0.4,0.5-0.7,0.5 H6l3,3c0.2,0.2,0.3,0.5,0.2,0.8l-0.7,2.7l3.4-1.5C12,18.6,12.1,18.6,12.2,18.6z M21.2,12.6c0.1,0.3,0,0.6-0.2,0.9l-1.9,1.9H26 l-4.4-3.1L21.2,12.6c0-0.1,0-0.1,0-0.1L21.2,12.6L21.2,12.6L21.2,12.6L21.2,12.6L21.2,12.6z"></path> <path fill="#00CC95" d="M15,45.3c-0.5,0-0.8-0.4-0.8-0.8c0-3.8,1.1-7.6,3.2-10.8l0.3-0.4h-6.2v1.4c0,0.5-0.4,0.8-0.8,0.8 c-0.5,0-0.8-0.4-0.8-0.8v-2.2c0-0.5,0.3-0.8,0.8-0.8h8.7c0.2,0,0.4,0.1,0.5,0.2c0.2,0.1,0.3,0.3,0.3,0.5c0,0.2,0,0.4-0.2,0.6 l-0.3,0.3c-2.5,3.2-3.9,7.1-3.9,11.2C15.8,45,15.4,45.3,15,45.3z"></path> <path fill="#00CC95" d="M32.5,45.3c-0.5,0-0.8-0.4-0.8-0.8c0-3.8,1.1-7.6,3.2-10.8l0.3-0.4h-6.2v1.4c0,0.5-0.4,0.8-0.8,0.8 c-0.5,0-0.8-0.4-0.8-0.8v-2.2c0-0.5,0.3-0.8,0.8-0.8h8.7c0.2,0,0.4,0.1,0.5,0.2c0.2,0.1,0.3,0.3,0.3,0.5c0,0.2,0,0.4-0.2,0.6 l-0.3,0.3c-2.5,3.2-3.9,7.1-3.9,11.2C33.3,45,32.9,45.3,32.5,45.3z"></path> <path fill="#00CC95" d="M49.9,45.3c-0.5,0-0.8-0.4-0.8-0.8c0-3.8,1.1-7.6,3.2-10.8l0.3-0.4h-6.2v1.4c0,0.5-0.4,0.8-0.8,0.8 c-0.5,0-0.8-0.4-0.8-0.8v-2.2c0-0.5,0.3-0.8,0.8-0.8h8.7c0.2,0,0.4,0.1,0.5,0.2c0.2,0.1,0.3,0.3,0.3,0.5c0,0.2,0,0.4-0.2,0.6 l-0.3,0.3c-2.5,3.2-3.9,7.1-3.9,11.2C50.8,45,50.4,45.3,49.9,45.3z"></path> <path fill="#00CC95" d="M10.6,60.6c-2.3,0-4.1-1.8-4.1-4.1c0-2.3,1.8-4.1,4.1-4.1s4.1,1.8,4.1,4.1C14.7,58.8,12.9,60.6,10.6,60.6z M10.6,54.1c-1.4,0-2.5,1.1-2.5,2.5c0,1.4,1.1,2.5,2.5,2.5s2.5-1.1,2.5-2.5C13.1,55.2,12,54.1,10.6,54.1z"></path> <path fill="#00CC95" d="M21.5,60.6c-2.3,0-4.1-1.8-4.1-4.1c0-2.3,1.8-4.1,4.1-4.1s4.1,1.8,4.1,4.1C25.6,58.8,23.8,60.6,21.5,60.6z M21.5,54.1c-1.4,0-2.5,1.1-2.5,2.5c0,1.4,1.1,2.5,2.5,2.5s2.5-1.1,2.5-2.5C24,55.2,22.9,54.1,21.5,54.1z"></path> <path fill="#00CC95" d="M32.5,60.6c-2.3,0-4.1-1.8-4.1-4.1c0-2.3,1.8-4.1,4.1-4.1s4.1,1.8,4.1,4.1C36.6,58.8,34.7,60.6,32.5,60.6z M32.5,54.1c-1.4,0-2.5,1.1-2.5,2.5c0,1.4,1.1,2.5,2.5,2.5c1.4,0,2.5-1.1,2.5-2.5C34.9,55.2,33.8,54.1,32.5,54.1z"></path> <path fill="#00CC95" d="M43.4,60.6c-2.3,0-4.1-1.8-4.1-4.1c0-2.3,1.8-4.1,4.1-4.1s4.1,1.8,4.1,4.1C47.5,58.8,45.6,60.6,43.4,60.6z M43.4,54.1c-1.4,0-2.5,1.1-2.5,2.5c0,1.4,1.1,2.5,2.5,2.5c1.4,0,2.5-1.1,2.5-2.5C45.8,55.2,44.7,54.1,43.4,54.1z"></path> <path fill="#00CC95" d="M54.3,60.6c-2.3,0-4.1-1.8-4.1-4.1c0-2.3,1.8-4.1,4.1-4.1s4.1,1.8,4.1,4.1C58.4,58.8,56.6,60.6,54.3,60.6z M54.3,54.1c-1.4,0-2.5,1.1-2.5,2.5c0,1.4,1.1,2.5,2.5,2.5c1.4,0,2.5-1.1,2.5-2.5C56.8,55.2,55.7,54.1,54.3,54.1z"></path> </g> </svg> 