<?xml version="1.0" encoding="UTF-8"?> <!-- Generator: Adobe Illustrator 18.0.0, SVG Export Plug-In . SVG Version: 6.00 Build 0) --> <svg xmlns="http://www.w3.org/2000/svg" xmlns:xlink="http://www.w3.org/1999/xlink" version="1.1" id="Layer_1" x="0px" y="0px" width="65.8px" height="65px" viewBox="0 0 65.8 65" xml:space="preserve"> <g> <path fill="#00CC95" d="M33,31.7h-0.2c-2.8,0-5.1-2.3-5.1-5c0-2.8,2.3-5,5.1-5s5.1,2.3,5.1,5c0,0.4,0.4,0.8,0.8,0.8 c0.5,0,0.8-0.4,0.8-0.8c0-3.4-2.6-6.2-5.9-6.6v-1.8c0-0.4-0.4-0.8-0.8-0.8c-0.5,0-0.8,0.4-0.8,0.8v1.8c-3.3,0.4-5.9,3.2-5.9,6.6 c0,3.7,3,6.7,6.7,6.7H33c2.8,0,5.1,2.3,5.1,5c0,2.8-2.3,5-5.1,5c-2.8,0-5.1-2.3-5.1-5c0-0.4-0.4-0.8-0.8-0.8 c-0.5,0-0.8,0.4-0.8,0.8c0,3.3,2.5,6.1,5.7,6.6v1.8c0,0.4,0.4,0.8,0.8,0.8c0.5,0,0.8-0.4,0.8-0.8V45c3.4-0.3,6.2-3.1,6.2-6.6 C39.8,34.7,36.8,31.7,33,31.7z M32.9,0C14.8,0,0,14.6,0,32.5C0,50.4,14.8,65,32.9,65c18.2,0,32.9-14.6,32.9-32.5 C65.8,14.6,51.1,0,32.9,0z M63.5,26.2l-6.6,1.1c-0.5-2.3-1.3-4.4-2.4-6.4l5.8-3.3C61.8,20.3,62.9,23.2,63.5,26.2z M59.5,16.3 l-5.8,3.3c-1.2-1.9-2.7-3.7-4.4-5.2l4.3-5.1C55.9,11.4,57.9,13.7,59.5,16.3z M52.3,8.3L48,13.4c-1.8-1.4-3.8-2.5-6-3.4l2.3-6.2 C47.2,4.9,49.9,6.4,52.3,8.3z M33.7,1.6c3.2,0.1,6.2,0.6,9.1,1.6l-2.3,6.2c-2.1-0.7-4.4-1.1-6.8-1.2V1.6z M32.1,1.6v6.6 c-2.4,0.1-4.6,0.5-6.8,1.2L23,3.2C25.9,2.3,28.9,1.7,32.1,1.6z M21.5,3.8l2.3,6.2c-2.2,0.9-4.2,2-6,3.4l-4.3-5.1 C15.9,6.4,18.6,4.9,21.5,3.8z M12.3,9.3l4.3,5.1c-1.7,1.5-3.2,3.3-4.4,5.2l-5.8-3.3C7.9,13.7,10,11.4,12.3,9.3z M5.5,17.7l5.8,3.3 c-1.1,2-1.9,4.1-2.4,6.4l-6.6-1.1C2.9,23.2,4,20.3,5.5,17.7z M1.6,32.5c0-1.6,0.1-3.1,0.4-4.7L8.6,29c-0.2,1.2-0.3,2.3-0.3,3.5 c0,1.1,0.1,2.2,0.2,3.3L2,36.9C1.8,35.5,1.6,34,1.6,32.5z M2.3,38.5l6.6-1.1c0.5,2.3,1.3,4.4,2.3,6.4l-5.8,3.3 C3.9,44.5,2.9,41.6,2.3,38.5z M6.2,48.5l5.8-3.3c1.2,2,2.7,3.7,4.4,5.3l-4.3,5.1C9.8,53.5,7.8,51.2,6.2,48.5z M13.4,56.6l4.3-5.1 c1.8,1.4,3.8,2.6,6,3.4l-2.3,6.2C18.5,60.1,15.8,58.5,13.4,56.6z M32.1,63.4c-3.2-0.1-6.3-0.6-9.1-1.6l2.3-6.2 c2.2,0.7,4.5,1.1,6.8,1.2V63.4z M10,32.5C10,20,20.3,9.9,32.9,9.9c12.6,0,22.9,10.2,22.9,22.6c0,12.5-10.3,22.6-22.9,22.6 C20.3,55.1,10,45,10,32.5z M33.7,63.4v-6.6c2.4-0.1,4.7-0.5,6.8-1.2l2.3,6.2C40,62.7,36.9,63.3,33.7,63.4z M44.4,61.2L42.1,55 c2.2-0.9,4.2-2,6-3.4l4.3,5.1C50,58.5,47.3,60.1,44.4,61.2z M53.7,55.6l-4.3-5.1c1.7-1.5,3.2-3.3,4.4-5.3l5.8,3.3 C58,51.2,56,53.5,53.7,55.6z M60.4,47.1l-5.8-3.3c1.1-2,1.9-4.2,2.3-6.4l6.6,1.1C63,41.6,61.9,44.5,60.4,47.1z M57.3,35.8 c0.1-1.1,0.2-2.2,0.2-3.3c0-1.2-0.1-2.4-0.3-3.5l6.6-1.1c0.2,1.5,0.4,3.1,0.4,4.7c0,1.5-0.1,3-0.3,4.4L57.3,35.8z"></path> </g> </svg> 