<?xml version="1.0" encoding="UTF-8"?> <!-- Generator: Adobe Illustrator 18.0.0, SVG Export Plug-In . SVG Version: 6.00 Build 0) --> <svg xmlns="http://www.w3.org/2000/svg" xmlns:xlink="http://www.w3.org/1999/xlink" version="1.1" id="Layer_1" x="0px" y="0px" width="67.5px" height="67.5px" viewBox="0 0 67.5 67.5" xml:space="preserve"> <g> <path fill="#00CC95" d="M65.7,29.5L38,1.8C36.9,0.6,35.4,0,33.8,0c-1.6,0-3.1,0.6-4.2,1.8L1.8,29.5C0.6,30.6,0,32.1,0,33.8 c0,1.6,0.6,3.1,1.8,4.2l27.8,27.8c1.1,1.1,2.6,1.8,4.2,1.8c1.6,0,3.1-0.6,4.2-1.8L65.7,38c1.1-1.1,1.8-2.6,1.8-4.2 C67.5,32.1,66.9,30.6,65.7,29.5z M65.7,33.8c0,1.1-0.4,2.2-1.2,3L36.7,64.5c-0.8,0.8-1.9,1.2-3,1.2s-2.2-0.4-3-1.2L3,36.7 c-0.8-0.8-1.2-1.9-1.2-3c0-1.1,0.4-2.2,1.2-3L30.8,3c0.8-0.8,1.9-1.2,3-1.2s2.2,0.4,3,1.2l27.8,27.8C65.3,31.6,65.7,32.6,65.7,33.8 z"></path> <path fill="#00CC95" d="M18.1,27.4c-1.7,0-3.2,0.6-4.4,1.8c-2.4,2.4-2.4,6.4,0,8.8c1.2,1.2,2.8,1.8,4.4,1.8s3.2-0.6,4.4-1.8 c2.4-2.4,2.4-6.4,0-8.8C21.4,28.1,19.8,27.4,18.1,27.4z M21.3,36.9c-0.8,0.8-2,1.3-3.2,1.3s-2.3-0.5-3.2-1.3 c-1.7-1.7-1.7-4.6,0-6.3c0.8-0.8,2-1.3,3.2-1.3s2.3,0.5,3.2,1.3C23.1,32.3,23.1,35.1,21.3,36.9z"></path> <path fill="#00CC95" d="M33.7,24.4c1.7,0,3.2-0.6,4.4-1.8c1.2-1.2,1.8-2.8,1.8-4.4c0-1.7-0.6-3.2-1.8-4.4c-1.2-1.2-2.8-1.8-4.4-1.8 s-3.2,0.6-4.4,1.8c-2.4,2.4-2.4,6.4,0,8.8C30.5,23.7,32,24.4,33.7,24.4z M29.2,18.1c0-1.2,0.5-2.3,1.3-3.2s2-1.3,3.2-1.3 c1.2,0,2.3,0.5,3.2,1.3s1.3,2,1.3,3.2c0,1.2-0.5,2.3-1.3,3.2s-2,1.3-3.2,1.3c-1.2,0-2.3-0.5-3.2-1.3S29.2,19.3,29.2,18.1z"></path> <path fill="#00CC95" d="M33.8,43.1c-1.7,0-3.2,0.6-4.4,1.8c-2.4,2.4-2.4,6.4,0,8.8c1.2,1.2,2.8,1.8,4.4,1.8s3.2-0.6,4.4-1.8 c2.4-2.4,2.4-6.4,0-8.8C37,43.8,35.5,43.1,33.8,43.1z M38.3,49.4c0,1.2-0.5,2.3-1.3,3.2s-2,1.3-3.2,1.3c-1.2,0-2.3-0.5-3.2-1.3 c-1.7-1.7-1.7-4.6,0-6.3c0.8-0.8,2-1.3,3.2-1.3c1.2,0,2.3,0.5,3.2,1.3S38.3,48.2,38.3,49.4z"></path> <path fill="#00CC95" d="M49.4,27.6c-1.7,0-3.2,0.6-4.4,1.8c-2.4,2.4-2.4,6.4,0,8.8c1.2,1.2,2.8,1.8,4.4,1.8s3.2-0.6,4.4-1.8 c2.4-2.4,2.4-6.4,0-8.8C52.6,28.2,51,27.6,49.4,27.6z M49.4,38.3c-1.2,0-2.3-0.5-3.2-1.3c-1.7-1.7-1.7-4.6,0-6.3 c0.8-0.8,2-1.3,3.2-1.3s2.3,0.5,3.2,1.3c1.7,1.7,1.7,4.6,0,6.3C51.7,37.8,50.6,38.3,49.4,38.3z"></path> <path fill="#00CC95" d="M33.8,40c1.7,0,3.2-0.6,4.4-1.8c2.4-2.4,2.4-6.4,0-8.8c-1.2-1.2-2.8-1.8-4.4-1.8s-3.2,0.6-4.4,1.8 c-2.4,2.4-2.4,6.4,0,8.8C30.5,39.4,32.1,40,33.8,40z M33.8,29.3c1.2,0,2.3,0.5,3.2,1.3c1.7,1.7,1.7,4.6,0,6.3 c-0.8,0.8-2,1.3-3.2,1.3s-2.3-0.5-3.2-1.3c-1.7-1.7-1.7-4.6,0-6.3C31.4,29.7,32.6,29.3,33.8,29.3z"></path> </g> </svg> 