<?xml version="1.0" encoding="UTF-8"?> <!-- Generator: Adobe Illustrator 18.0.0, SVG Export Plug-In . SVG Version: 6.00 Build 0) --> <svg xmlns="http://www.w3.org/2000/svg" xmlns:xlink="http://www.w3.org/1999/xlink" version="1.1" id="Layer_1" x="0px" y="0px" width="55.8px" height="64.5px" viewBox="0 0 55.8 64.5" xml:space="preserve"> <g> <path fill="#00CC95" d="M55.8,63.7c0,0.5-0.4,0.8-0.8,0.8H0.8c-0.5,0-0.8-0.4-0.8-0.8V0.8C0,0.4,0.4,0,0.8,0H55 c0.5,0,0.8,0.4,0.8,0.8V63.7z M1.5,62.8h52.6v-61H1.5V62.8z"></path> <path fill="#00CC95" d="M51.3,55c0,0.5-0.4,0.8-0.8,0.8H5.1c-0.5,0-0.8-0.4-0.8-0.8V9.6c0-0.5,0.4-0.8,0.8-0.8h45.4 c0.5,0,0.8,0.4,0.8,0.8V55z M36.1,54.1h13.5V40.6H36.1V54.1z M20.9,54.1h13.5V40.6H20.9V54.1z M6,54.1h13.5V40.6H6V54.1z M36.1,39.1h13.5V25.4H36.1V39.1z M20.9,39.1h13.5V25.4H20.9V39.1z M6,39.1h13.5V25.4H6V39.1z M36.1,23.9h13.5V10.5H36.1V23.9z M20.9,23.9h13.5V10.5H20.9V23.9z M6,23.9h13.5V10.5H6V23.9z"></path> <path fill="#00CC95" d="M9.4,21.2c-0.1,0-0.1,0-0.2,0c-0.3-0.1-0.5-0.3-0.6-0.6c-0.1-0.3,0-0.6,0.2-0.8l2.7-2.7l-2.7-2.7 c-0.3-0.3-0.3-0.9,0-1.2c0.2-0.2,0.4-0.2,0.6-0.2c0.2,0,0.4,0.1,0.6,0.2l2.7,2.7l2.7-2.7c0.2-0.2,0.4-0.2,0.6-0.2 c0.2,0,0.4,0.1,0.6,0.2c0.3,0.3,0.3,0.9,0,1.2l-2.7,2.7l2.7,2.7c0.3,0.3,0.3,0.9,0,1.2c-0.2,0.2-0.4,0.2-0.6,0.2h0 c-0.2,0-0.4-0.1-0.6-0.2l-2.7-2.7L10,21C9.8,21.1,9.6,21.2,9.4,21.2z"></path> <path fill="#00CC95" d="M24.5,36.4c-0.1,0-0.1,0-0.2,0c-0.3-0.1-0.5-0.3-0.6-0.6c-0.1-0.3,0-0.6,0.2-0.8l2.7-2.7l-2.7-2.7 c-0.3-0.3-0.3-0.9,0-1.2c0.2-0.2,0.4-0.2,0.6-0.2c0.2,0,0.4,0.1,0.6,0.2l2.7,2.7l2.7-2.7c0.2-0.2,0.4-0.2,0.6-0.2 c0.2,0,0.4,0.1,0.6,0.2c0.3,0.3,0.3,0.9,0,1.2l-2.7,2.7l2.7,2.7c0.3,0.3,0.3,0.9,0,1.2c-0.2,0.2-0.4,0.2-0.6,0.2h0 c-0.2,0-0.4-0.1-0.6-0.2l-2.7-2.7l-2.7,2.7C25,36.3,24.7,36.4,24.5,36.4z"></path> <path fill="#00CC95" d="M39.7,51.5c-0.2,0-0.4-0.1-0.6-0.2c-0.3-0.3-0.3-0.9,0-1.2l2.7-2.7l-2.7-2.7c-0.3-0.3-0.3-0.9,0-1.2 c0.2-0.2,0.4-0.2,0.6-0.2c0.2,0,0.4,0.1,0.6,0.2l2.7,2.7l2.7-2.7c0.2-0.2,0.4-0.2,0.6-0.2c0.2,0,0.4,0.1,0.6,0.2 c0.3,0.3,0.3,0.9,0,1.2l-2.7,2.7l2.7,2.7c0.3,0.3,0.3,0.9,0,1.2c-0.2,0.2-0.4,0.2-0.6,0.2c-0.2,0-0.4-0.1-0.6-0.2l-2.7-2.7 l-2.7,2.7C40.1,51.4,39.9,51.5,39.7,51.5z"></path> <path fill="#00CC95" d="M12.6,35.3c-1.7,0-3-1.3-3-3c0-1.7,1.3-3,3-3c1.7,0,3,1.3,3,3C15.6,33.9,14.3,35.3,12.6,35.3z M12.6,30.9 c-0.7,0-1.3,0.6-1.3,1.3c0,0.7,0.6,1.3,1.3,1.3c0.7,0,1.3-0.6,1.3-1.3C13.9,31.5,13.4,30.9,12.6,30.9z"></path> <path fill="#00CC95" d="M42.9,35.3c-1.7,0-3-1.3-3-3c0-1.7,1.3-3,3-3c1.7,0,3,1.3,3,3C45.9,33.9,44.6,35.3,42.9,35.3z M42.9,30.9 c-0.7,0-1.3,0.6-1.3,1.3c0,0.7,0.6,1.3,1.3,1.3c0.7,0,1.3-0.6,1.3-1.3C44.2,31.5,43.6,30.9,42.9,30.9z"></path> <path fill="#00CC95" d="M42.9,20.1c-1.7,0-3-1.3-3-3c0-1.7,1.3-3,3-3c1.7,0,3,1.3,3,3C45.9,18.8,44.6,20.1,42.9,20.1L42.9,20.1z M42.9,15.8c-0.7,0-1.3,0.6-1.3,1.3c0,0.7,0.6,1.3,1.3,1.3c0.7,0,1.3-0.6,1.3-1.3S43.6,15.8,42.9,15.8L42.9,15.8z"></path> <path fill="#00CC95" d="M27.8,20.1c-1.7,0-3-1.3-3-3c0-1.7,1.3-3,3-3c1.7,0,3,1.3,3,3C30.8,18.8,29.4,20.1,27.8,20.1L27.8,20.1z M27.8,15.8c-0.7,0-1.3,0.6-1.3,1.3c0,0.7,0.6,1.3,1.3,1.3c0.7,0,1.3-0.6,1.3-1.3S28.5,15.8,27.8,15.8L27.8,15.8z"></path> <path fill="#00CC95" d="M12.6,50.4c-1.7,0-3-1.3-3-3c0-1.7,1.3-3,3-3c1.7,0,3,1.3,3,3C15.6,49.1,14.3,50.4,12.6,50.4z M12.6,46.1 c-0.7,0-1.3,0.6-1.3,1.3c0,0.7,0.6,1.3,1.3,1.3c0.7,0,1.3-0.6,1.3-1.3C13.9,46.7,13.4,46.1,12.6,46.1z"></path> <path fill="#00CC95" d="M27.8,50.4c-1.7,0-3-1.3-3-3c0-1.7,1.3-3,3-3c1.7,0,3,1.3,3,3C30.8,49.1,29.4,50.4,27.8,50.4z M27.8,46.1 c-0.7,0-1.3,0.6-1.3,1.3c0,0.7,0.6,1.3,1.3,1.3c0.7,0,1.3-0.6,1.3-1.3C29.1,46.7,28.5,46.1,27.8,46.1z"></path> </g> </svg> 