<?xml version="1.0" encoding="UTF-8"?> <!-- Generator: Adobe Illustrator 18.0.0, SVG Export Plug-In . SVG Version: 6.00 Build 0) --> <svg xmlns="http://www.w3.org/2000/svg" xmlns:xlink="http://www.w3.org/1999/xlink" version="1.1" id="Layer_1" x="0px" y="0px" width="66.8px" height="54px" viewBox="0 0 66.8 54" xml:space="preserve"> <g> <g> <path fill="#00CC95" d="M33.4,8.2c-10.2,0-18.8,8.7-18.8,18.8c0,10.2,8.7,18.8,18.8,18.8c6.7,0,12.8-3.8,16.2-9.4 c1.7-2.9,2.7-6.2,2.7-9.4C52.2,16.9,43.5,8.2,33.4,8.2z M48.7,35.1l-2.7-1.6c0.9-1.8,1.5-3.8,1.6-5.8h3.2 C50.6,30.3,49.9,32.8,48.7,35.1z M26.9,39.6c1.8,0.9,3.8,1.5,5.8,1.6v3.2c-2.5-0.1-5-0.8-7.3-2.1L26.9,39.6z M34.1,41.2 c2-0.1,4-0.7,5.8-1.6l1.6,2.7c-2.3,1.2-4.8,2-7.3,2.1V41.2z M33.4,39.7c-6.9,0-12.7-5.8-12.7-12.7c0-6.9,5.9-12.7,12.7-12.7 c6.9,0,12.7,5.9,12.7,12.7C46.1,33.9,40.3,39.7,33.4,39.7z M18.1,35.1c-1.2-2.3-2-4.8-2.1-7.3h3.2c0.1,2,0.7,4,1.6,5.8L18.1,35.1z M18.1,19l2.7,1.6c-0.9,1.8-1.5,3.8-1.6,5.8h-3.2C16.2,23.8,16.9,21.3,18.1,19z M39.9,14.5c-1.8-0.9-3.8-1.5-5.8-1.6V9.7 c2.5,0.1,5,0.8,7.3,2.1L39.9,14.5z M32.7,12.9c-2,0.1-4,0.7-5.8,1.6l-1.6-2.7c2.3-1.2,4.8-2,7.3-2.1V12.9z M47.6,26.3 c-0.1-2-0.7-4-1.6-5.8l2.7-1.6c1.2,2.3,2,4.8,2.1,7.3L47.6,26.3L47.6,26.3z M47.9,17.7l-2.7,1.6c-1.1-1.6-2.4-3-4-4l1.6-2.7 C44.8,13.9,46.5,15.7,47.9,17.7z M24.1,12.5l1.6,2.7c-1.6,1.1-3,2.4-4,4l-2.7-1.6C20.3,15.7,22,13.9,24.1,12.5z M18.9,36.3 l2.7-1.6c1.1,1.6,2.4,3,4,4l-1.6,2.7C22,40.2,20.3,38.4,18.9,36.3z M42.7,41.5l-1.6-2.7c1.6-1.1,3-2.4,4-4l2.7,1.6 C46.5,38.4,44.8,40.2,42.7,41.5z"></path> <path fill="#00CC95" d="M40.7,24.8c-1,0-1.8,0.6-2.1,1.5H37c-0.3-1.4-1.4-2.6-2.9-2.9v-1.7c0.9-0.3,1.5-1.1,1.5-2.1 c0-1.2-1-2.2-2.2-2.2s-2.2,1-2.2,2.2c0,1,0.6,1.8,1.5,2.1v1.7c-1.4,0.3-2.6,1.4-2.9,2.9h-1.7c-0.3-0.9-1.1-1.5-2.1-1.5 c-1.2,0-2.2,1-2.2,2.2s1,2.2,2.2,2.2c1,0,1.8-0.6,2.1-1.5h1.7c0.3,1.4,1.4,2.6,2.9,2.9v1.7c-0.9,0.3-1.5,1.1-1.5,2.1 c0,1.2,1,2.2,2.2,2.2s2.2-1,2.2-2.2c0-1-0.6-1.8-1.5-2.1v-1.7c1.4-0.3,2.6-1.4,2.9-2.9h1.7c0.3,0.9,1.1,1.5,2.1,1.5 c1.2,0,2.2-1,2.2-2.2S42,24.8,40.7,24.8z M33.4,18.9c0.4,0,0.7,0.3,0.7,0.7s-0.3,0.7-0.7,0.7c-0.4,0-0.7-0.3-0.7-0.7 S33,18.9,33.4,18.9z M26.1,27.8c-0.4,0-0.7-0.3-0.7-0.7s0.3-0.7,0.7-0.7s0.7,0.3,0.7,0.7S26.5,27.8,26.1,27.8z M33.4,35.1 c-0.4,0-0.7-0.3-0.7-0.7c0-0.4,0.3-0.7,0.7-0.7c0.4,0,0.7,0.3,0.7,0.7C34.1,34.8,33.8,35.1,33.4,35.1z M33.4,29.2 c-1.2,0-2.2-1-2.2-2.2s1-2.2,2.2-2.2s2.2,1,2.2,2.2S34.6,29.2,33.4,29.2z M40.7,27.8c-0.4,0-0.7-0.3-0.7-0.7s0.3-0.7,0.7-0.7 c0.4,0,0.7,0.3,0.7,0.7S41.2,27.8,40.7,27.8z"></path> </g> <g> <path fill="#00CC95" d="M61.1,54H5.7C2.6,54,0,51.5,0,48.3V5.7C0,2.6,2.6,0,5.7,0h55.3c3.2,0,5.7,2.6,5.7,5.7v42.5 C66.8,51.5,64.2,54,61.1,54z M5.7,1.8c-2.2,0-3.9,1.8-3.9,3.9v42.5c0,2.2,1.8,3.9,3.9,3.9h55.3c2.2,0,3.9-1.8,3.9-3.9V5.7 c0-2.2-1.8-3.9-3.9-3.9H5.7z"></path> </g> </g> </svg> 