<svg width="2000" height="899" viewBox="0 0 2000 899" fill="none" xmlns="http://www.w3.org/2000/svg">
<path d="M0 0.914307H2000V898.086H0V0.914307Z" fill="white"/>
<path opacity="0.1" d="M0 0.914307H2000V898.086H0V0.914307Z" fill="url(#paint0_linear)"/>
<mask id="mask0" mask-type="alpha" maskUnits="userSpaceOnUse" x="0" y="0" width="2000" height="899">
<path d="M0 0.914307H2000V898.086H0V0.914307Z" fill="#261D9D"/>
</mask>
<g mask="url(#mask0)">
<g opacity="0.2">
<path fill-rule="evenodd" clip-rule="evenodd" d="M960.54 -101.93C1101.74 -99.6897 1079.3 169.833 1204.3 235.494C1338.12 305.79 1550.55 145.656 1649.43 259.943C1739.42 363.949 1555.47 520.641 1569.37 657.435C1585.71 818.281 1833.85 976.268 1735.25 1104.44C1629.09 1242.44 1394.27 1086.19 1221.67 1109.44C1127.76 1122.09 1046.72 1169.46 960.54 1208.81C805.9 1279.41 655.3 1525.23 512.326 1433.29C365.34 1338.77 579.995 1077.64 508.609 918.2C448.848 784.721 209.792 796.633 164.961 657.435C122.976 527.074 194.554 362.24 302.306 277.634C412.435 191.161 590.965 297.638 712.274 227.686C833.527 157.767 820.568 -104.152 960.54 -101.93Z" fill="white"/>
<path opacity="0.2" fill-rule="evenodd" clip-rule="evenodd" d="M2006.05 1268.88C1909.96 1315.44 1807.19 1249.2 1701.72 1265.61C1474.54 1300.95 1231.13 1572.68 1063.49 1415.51C905.148 1267.05 1155.04 1023.38 1223.54 817.274C1294.71 603.149 1261.92 325.415 1461.07 219.294C1678.68 103.34 1957.35 175.117 2156.6 320.079C2341.76 454.786 2456.44 691.072 2420.54 917.325C2390.67 1105.53 2177.57 1185.78 2006.05 1268.88Z" fill="#F15D4E"/>
<g opacity="0.5" filter="url(#filter0_f)">
<path d="M77.7784 54.4595C34.0552 -108.55 142.818 -279.297 320.708 -326.913C498.597 -374.53 678.25 -280.985 721.973 -117.975C765.696 45.0346 656.933 215.781 479.043 263.398C301.154 311.014 121.502 217.469 77.7784 54.4595Z" fill="#34ECE1"/>
</g>
<path opacity="0.2" fill-rule="evenodd" clip-rule="evenodd" d="M-314.927 274.79C-266.3 203.1 -167.217 207.952 -99.7585 153.632C45.5261 36.6429 106.328 -253.043 287.876 -210.611C459.364 -170.53 382.628 102.062 418.107 274.669C454.966 453.994 590.676 635.842 493.792 791.199C387.931 960.952 163.005 1023.57 -35.8095 1002.54C-220.558 983.005 -396.99 863.5 -463.548 689.959C-518.913 545.604 -401.731 402.763 -314.927 274.79Z" fill="#F15D4E"/>
</g>
</g>
<defs>
<filter id="filter0_f" x="-73.0356" y="-480.478" width="945.823" height="897.44" filterUnits="userSpaceOnUse" color-interpolation-filters="sRGB">
<feFlood flood-opacity="0" result="BackgroundImageFix"/>
<feBlend mode="normal" in="SourceGraphic" in2="BackgroundImageFix" result="shape"/>
<feGaussianBlur stdDeviation="70.575" result="effect1_foregroundBlur"/>
</filter>
<linearGradient id="paint0_linear" x1="1116.67" y1="354.977" x2="709.904" y2="1381.64" gradientUnits="userSpaceOnUse">
<stop stop-color="#261D9D"/>
<stop offset="1" stop-color="#F15D4E"/>
</linearGradient>
</defs>
</svg>
