<?xml version="1.0" encoding="utf-8"?>
<!-- Generator: Adobe Illustrator 22.0.0, SVG Export Plug-In . SVG Version: 6.00 Build 0)  -->
<svg version="1.1" id="Layer_1" xmlns="http://www.w3.org/2000/svg" xmlns:xlink="http://www.w3.org/1999/xlink" x="0px" y="0px"
	 viewBox="0 0 60 30" enable-background="new 0 0 60 30" xml:space="preserve">
<g>
	<path fill="#00247D" d="M0,0v30h60V0H0z"/>
</g>
<g>
	<path d="M0,0l60,30 M60,0L0,30"/>
	<polygon fill="#FFFFFF" points="58.7,32.7 30,18.4 1.3,32.7 -1.3,27.3 23.3,15 -1.3,2.7 1.3,-2.7 30,11.6 58.7,-2.7 61.3,2.7 
		36.7,15 61.3,27.3 	"/>
</g>
<g>
	<g>
		<path d="M0,0l60,30 M60,0L0,30"/>
		<polygon fill="#CF142B" points="59.1,31.8 30,17.2 0.9,31.8 -0.9,28.2 25.5,15 -0.9,1.8 0.9,-1.8 30,12.8 59.1,-1.8 60.9,1.8 
			34.5,15 60.9,28.2 		"/>
	</g>
</g>
<g>
	<path d="M30,0v30 M0,15h60"/>
	<polygon fill="#FFFFFF" points="35,30 25,30 25,20 0,20 0,10 25,10 25,0 35,0 35,10 60,10 60,20 35,20 	"/>
</g>
<g>
	<path d="M30,0v30 M0,15h60"/>
	<polygon fill="#CF142B" points="33,30 27,30 27,18 0,18 0,12 27,12 27,0 33,0 33,12 60,12 60,18 33,18 	"/>
</g>
</svg>
