<?xml version="1.0" encoding="UTF-8"?> <svg xmlns="http://www.w3.org/2000/svg" width="28" height="28" viewBox="0 0 28 28" fill="none"><rect width="28" height="28" rx="14" fill="white"></rect><path d="M4.11328 12.6069V10.8569L6.53528 9.42894H8.01928V18.5849H6.35328V11.2489L4.11328 12.6069Z" fill="#303030"></path><path d="M12.7149 17.3389C13.2189 17.3389 13.6015 17.2129 13.8629 16.9609C14.1242 16.7089 14.2549 16.4056 14.2549 16.0509C14.2549 15.6776 14.1195 15.3649 13.8489 15.1129C13.5875 14.8609 13.2095 14.7349 12.7149 14.7349C12.2202 14.7443 11.8469 14.8843 11.5949 15.1549C11.3429 15.4163 11.2169 15.7336 11.2169 16.1069C11.2169 16.4523 11.3429 16.7463 11.5949 16.9889C11.8469 17.2223 12.2202 17.3389 12.7149 17.3389ZM12.7009 10.6609C12.2715 10.6609 11.9402 10.7869 11.7069 11.0389C11.4829 11.2816 11.3709 11.5803 11.3709 11.9349C11.3709 12.3549 11.5015 12.6769 11.7629 12.9009C12.0242 13.1249 12.3509 13.2369 12.7429 13.2369C13.1255 13.2369 13.4429 13.1249 13.6949 12.9009C13.9562 12.6769 14.0869 12.3549 14.0869 11.9349C14.0869 11.5616 13.9795 11.2583 13.7649 11.0249C13.5502 10.7823 13.1955 10.6609 12.7009 10.6609ZM14.5209 13.9509C15.4729 14.3243 15.9489 15.0383 15.9489 16.0929C15.9489 16.8769 15.6455 17.5116 15.0389 17.9969C14.4322 18.4729 13.6529 18.7109 12.7009 18.7109C11.7489 18.7109 10.9789 18.4823 10.3909 18.0249C9.81219 17.5676 9.52286 16.9469 9.52286 16.1629C9.52286 15.1363 10.0035 14.4129 10.9649 13.9929C10.0969 13.5543 9.66286 12.8776 9.66286 11.9629C9.66286 11.1229 9.95219 10.4696 10.5309 10.0029C11.1189 9.52694 11.8422 9.28894 12.7009 9.28894C13.5969 9.28894 14.3342 9.51294 14.9129 9.96094C15.4915 10.4089 15.7809 11.0763 15.7809 11.9629C15.7809 12.8496 15.3609 13.5123 14.5209 13.9509Z" fill="#303030"></path><path d="M23.8871 13.0829V14.5949H21.3111V17.1569H19.7571V14.5949H17.2231V13.0829H19.7571V10.4929H21.3111V13.0829H23.8871Z" fill="#303030"></path></svg> 