<?xml version="1.0" encoding="UTF-8"?> <svg xmlns="http://www.w3.org/2000/svg" width="132" height="14" viewBox="0 0 132 14" fill="none"><path fill-rule="evenodd" clip-rule="evenodd" d="M4.49418 1.21117C6.50757 1.21117 7.19068 1.28087 7.78991 1.52165C8.90062 2.05573 9.60646 3.23501 9.58758 4.52507C9.58758 5.79233 9.23404 6.42597 8.04757 7.0596C9.2946 7.47236 10.1055 8.74274 10.001 10.12C10.001 12.1857 8.46104 13.5607 6.21395 13.5607H0V11.5267H0.886851V3.21345H0V1.21117H4.49418ZM127.429 3.52685C128.782 3.5146 130.049 4.25576 130.793 5.49502C131.399 6.55986 131.704 7.7976 131.668 9.05188H125.403C125.638 11.5282 127.082 11.6247 127.487 11.6247C128.307 11.6632 129.046 11.0889 129.284 10.2289L131.486 10.171V10.1968C131.081 12.2871 129.519 13.5607 127.429 13.5607C124.998 13.5607 123.201 11.4639 123.201 8.54376C123.201 5.62366 124.998 3.52685 127.429 3.52685ZM121.442 3.5267C121.775 3.53817 122.105 3.58264 122.431 3.6596V5.95213C122.084 5.87655 121.731 5.83432 121.378 5.82588C120.307 5.73808 119.374 6.64341 119.289 7.8526V11.6602H120.336V13.5607H116.271V11.6602H117.142V5.62653H116.271V3.72605H119.213L119.236 5.30092C119.824 4.05166 120.454 3.5267 121.442 3.5267ZM52.981 3.5267C54.2854 3.5267 55.0209 4.49794 55.0209 6.18449V12.3335H56.2104V13.5016H53.8372V6.72261C53.8372 5.36418 53.4407 4.7145 52.5902 4.7145C51.1134 4.7145 50.2917 6.72261 50.2917 7.43135V12.3532H51.5386V13.5213H49.0735V6.50605C49.0735 5.27887 48.677 4.75388 47.8265 4.75388C46.5221 4.75388 45.528 6.63073 45.528 7.53635V12.3925H46.8152V13.5607H43.1203V12.3991H44.3672V4.88513H43.1203V3.72358H45.6142L45.6659 5.60043C46.0624 4.94419 46.8152 3.59233 48.3897 3.59233C49.5389 3.59233 50.1136 4.24857 50.3721 5.60043C50.5842 5.1505 50.8512 4.7373 51.1651 4.37326C51.658 3.84443 52.3049 3.54284 52.981 3.5267ZM60.1446 0.439331V5.90284C60.4778 5.20957 61.4264 3.82938 62.8776 3.82938C64.7693 3.82938 66.2205 6.02369 66.2205 8.79043C66.2205 11.3346 64.6563 13.5607 62.8776 13.5607C61.3699 13.5607 60.6189 12.4285 60.1446 11.6526V13.408H57.7504V12.3013H58.9193V1.57147H57.7899V0.439331H60.1446ZM76.1983 3.5267C78.3388 3.5267 80.0806 5.39012 80.0806 8.79771H73.7704C73.8877 10.2116 74.175 11.0521 74.7556 11.6906C75.1962 12.148 75.7715 12.412 76.3742 12.4333C77.3594 12.4333 77.9928 11.9186 78.4561 10.7589L79.8964 10.6933L79.8565 10.8656C79.7306 11.3378 79.5109 11.7735 79.2126 12.1401C78.5211 13.0477 77.5031 13.5679 76.4329 13.5606C74.0871 13.5606 72.3805 11.5016 72.3805 8.54361C72.3805 5.7159 74.0577 3.5267 76.1983 3.5267ZM26.5066 1.21225C27.9965 1.17801 29.3814 1.96153 30.0962 3.24312V1.39358H31.3729V5.15311H30.0468C29.9244 4.63689 29.6979 4.14985 29.3807 3.72062C28.7541 2.9497 27.8247 2.47348 26.8211 2.40901C25.3594 2.40901 23.1699 3.66018 23.1699 7.29882C23.1699 10.1638 24.755 12.2491 26.8211 12.2491C28.452 12.1789 29.8164 11.0124 30.1085 9.43848C30.1597 9.1248 30.1803 8.80705 30.1702 8.48953H27.3084L27.3701 7.41366V7.4197H31.5702V13.2645H30.2072V11.415C29.9538 11.8305 29.647 12.2124 29.2944 12.5513C28.5293 13.1898 27.5608 13.5468 26.5559 13.5607C23.7558 13.5607 21.5601 10.877 21.5601 7.4197C21.5601 3.96239 23.7805 1.21225 26.5066 1.21225ZM15.7806 3.52685C17.1354 3.5146 18.4032 4.25576 19.1474 5.49502C19.7519 6.56057 20.0545 7.79826 20.017 9.05188H13.7535C13.9826 11.5282 15.4339 11.6247 15.8394 11.6247C16.6589 11.6609 17.3976 11.0875 17.6374 10.2289L19.8408 10.171V10.1968C19.4353 12.2871 17.8724 13.5607 15.7806 13.5607C13.3481 13.5607 11.5501 11.4639 11.5501 8.54376C11.5501 5.62366 13.3481 3.52685 15.7806 3.52685ZM88.0748 1.21117L91.4741 11.5635H92.4006V13.5607H89.6211L88.8198 10.8809H84.494L83.6927 13.5607H80.8506V11.5635H81.7771L85.1138 1.21117H88.0748ZM36.8414 3.52774C38.677 3.52774 40.2186 4.42467 40.2186 6.86197V12.185H41.4603L41.5803 13.3419H39.0069V11.6066C38.4168 12.8074 37.2632 13.5574 36.0076 13.5564C34.5093 13.6422 33.2223 12.4152 33.1102 10.7941V10.6057C33.1102 8.74032 34.5859 7.84339 38.1431 7.45992L38.9709 7.39493V6.41351C38.9469 5.3216 38.1731 4.61315 36.9314 4.61315C35.6896 4.61315 35.0358 5.06162 34.8018 6.34201H33.4402C33.5671 5.57226 33.9333 4.87274 34.4779 4.35967C35.156 3.80023 35.9893 3.5069 36.8414 3.52774ZM110.319 3.5267C112.76 3.5267 114.037 4.74182 114.037 6.92513L113.978 11.4737V11.5062H114.731V13.3646H112.007V12.208C111.353 13.089 110.368 13.5876 109.337 13.5595C107.572 13.5595 106.261 12.2599 106.261 10.5445C106.261 7.71788 109.161 7.39948 111.949 7.14606C111.949 5.67103 111.484 5.19668 110.378 5.19668C109.272 5.19668 108.872 5.7685 108.814 6.67171V6.73019L106.72 6.67171C106.837 4.72233 108.231 3.5267 110.319 3.5267ZM96.7412 3.5267V5.31654H95.8501L97.0965 10.8112L98.5837 3.5267H100.896L102.383 10.7048L103.587 5.32906H102.696V3.5267H106.261V5.31654H105.484L103.587 12.7888H101.209L99.7217 6.36792L98.2947 12.7888H95.8862L93.9474 5.31654H93.1706V3.5267H96.7412ZM69.6202 0.439331V11.7128H70.8405V12.7888H66.9905V11.7128H68.3145V1.43672H67.0271V0.439331H69.6202ZM39.0189 8.33735H39.0069L38.1731 8.46734C35.4497 8.85081 34.5739 9.36426 34.5739 10.5862C34.6192 11.6426 35.4336 12.4673 36.4095 12.445C37.7205 12.3968 38.8154 11.3468 39.0189 9.94272V8.33735ZM62.5275 4.89155C61.194 5.05041 60.1577 6.27148 60.0768 7.77914L60.1333 9.40738L60.1446 9.41374C60.139 10.9448 61.1738 12.2264 62.5275 12.3649C63.9787 12.3649 64.8709 10.9211 64.8709 8.59962C64.8709 6.2781 63.9335 4.89155 62.5275 4.89155ZM111.949 8.80954H111.89C109.855 9.00447 108.519 9.19291 108.519 10.5445C108.519 11.3112 109.108 11.8441 109.972 11.8441C111.019 11.8461 111.886 10.9455 111.949 9.79072V8.80954ZM5.56079 8.08608L3.31371 8.14945V11.5267H5.79449C6.24214 11.5742 6.68899 11.4289 7.03406 11.1236C7.37912 10.8183 7.59327 10.3789 7.62812 9.90461V9.84124C7.62812 8.77674 6.80119 8.08608 5.56079 8.08608ZM86.5912 3.51801L84.9886 9.01019H88.2L86.5912 3.51801ZM76.3156 4.69297C75.216 4.74013 74.2688 5.56879 73.9698 6.74534C73.8855 7.06001 73.8286 7.38291 73.7997 7.70963L78.632 7.70311C78.6294 6.79836 78.3194 5.92806 77.7641 5.26633C77.3721 4.86317 76.8487 4.65596 76.3156 4.69297ZM127.464 5.4693H127.405C126.434 5.49208 125.611 6.26128 125.438 7.30883L129.202 7.37315L129.225 7.39887C129.225 6.3332 128.437 5.4693 127.464 5.4693ZM15.8746 5.4693H15.8159C14.8428 5.48958 14.0184 6.25996 13.8475 7.30883L17.6139 7.37315L17.6374 7.39887C17.6374 6.3332 16.8482 5.4693 15.8746 5.4693ZM5.44095 3.21345H3.31371V6.21053H5.62072C6.45168 6.29157 7.1894 5.64998 7.27457 4.77219V4.6518C7.27457 3.83441 6.50757 3.21345 5.44095 3.21345Z" fill="white"></path></svg> 