<?xml version="1.0" encoding="UTF-8"?> <svg xmlns="http://www.w3.org/2000/svg" width="83" height="16" viewBox="0 0 83 16" fill="none"><path fill-rule="evenodd" clip-rule="evenodd" d="M50.0026 4.88061H53.6641V4.36495C53.6641 3.32827 53.547 2.43508 53.3129 2.00267C53.0788 1.57028 52.6012 1.21173 51.8802 0.927029C51.1591 0.642355 50.2866 0.500012 49.2628 0.5C48.3264 0.500012 47.4044 0.63027 46.7426 0.890773C46.0808 1.1513 45.6017 1.51253 45.3052 1.97446C45.0086 2.43642 44.8604 3.32558 44.8604 4.32466C44.8604 5.01759 44.9649 5.58696 45.1741 6.03279C45.3832 6.47863 45.647 6.82777 45.9654 7.08023C46.1991 7.26554 46.6773 7.53334 47.3027 7.88361C47.5294 8.01054 47.7754 8.14829 48.0361 8.29686C49.0162 8.85013 49.6311 9.24493 49.8809 9.48127C50.1243 9.71762 50.2461 10.2199 50.2461 10.988C50.2461 11.3371 50.1821 11.6003 50.0541 11.7776C49.9261 11.9548 49.731 12.0435 49.4688 12.0435C49.2066 12.0435 49.024 11.9736 48.921 11.834C48.818 11.6943 48.7665 11.3801 48.7665 10.8913V9.30402H45.105V10.1581C45.105 11.1357 45.2205 11.8904 45.4515 12.4221C45.6825 12.9539 46.171 13.3917 46.917 13.7355C47.663 14.0793 48.5636 14.2511 49.6187 14.2511C50.5801 14.2511 51.4229 14.1021 52.1471 13.804C52.8712 13.5058 53.3597 13.1366 53.6126 12.6961C53.8654 12.2556 53.9918 11.5708 53.9919 10.6415C53.9918 9.3631 53.764 8.43653 53.3082 7.86177C52.8525 7.28703 51.7475 6.55114 49.9932 5.6541C49.3814 5.34257 49.01 5.07668 48.8789 4.85644C48.7415 4.63622 48.6728 4.30856 48.6728 3.87346C48.6728 3.53507 48.7337 3.28261 48.8554 3.11608C48.9772 2.94958 49.1567 2.86632 49.3939 2.86631C49.6124 2.86632 49.7685 2.92809 49.8621 3.05163C49.9558 3.17518 50.0026 3.46255 50.0026 3.91374V4.88061ZM59.2781 3.14652V1.85916H55.3216V3.14652H54.5069V4.83853H55.3216V10.6657C55.3216 11.7292 55.3559 12.4047 55.4246 12.6921C55.4933 12.9794 55.6681 13.2346 55.949 13.4575C56.23 13.6804 56.5546 13.8228 56.9229 13.8845C57.2913 13.9463 57.9062 13.9772 58.7677 13.9772H60.2941V12.2529C59.6761 12.2529 59.4888 12.2127 59.4045 12.1321C59.3202 12.0515 59.2781 11.6594 59.2781 10.9557V4.83853H60.3398V3.14652H59.2781ZM69.8142 9.65853V7.03994C69.8142 6.28257 69.7534 5.71857 69.6316 5.34793C69.5099 4.97731 69.2836 4.61742 68.9527 4.26826C68.6218 3.91913 68.152 3.63578 67.5434 3.41823C66.9347 3.2007 66.2058 3.09192 65.3568 3.09191C64.3454 3.09192 63.5151 3.26113 62.8658 3.59952C62.2165 3.93793 61.7671 4.38644 61.5173 4.94507C61.2676 5.50371 61.1428 6.27988 61.1428 7.2736V10.013C61.1428 10.9208 61.2114 11.6017 61.3488 12.0555C61.4861 12.5094 61.7156 12.8962 62.0371 13.2158C62.3586 13.5354 62.8096 13.7744 63.3902 13.9329C63.9708 14.0913 64.6794 14.1706 65.516 14.1706C66.2651 14.1706 66.9284 14.0779 67.5059 13.8926C68.0834 13.7073 68.5563 13.4199 68.9246 13.0305C69.2929 12.641 69.5333 12.2221 69.6457 11.7735C69.758 11.325 69.8142 10.62 69.8142 9.65853ZM65.928 5.19887C65.9967 5.34122 66.031 5.68634 66.031 6.23422V11.1652C66.031 11.6272 65.9951 11.928 65.9233 12.0676C65.8515 12.2073 65.7032 12.2771 65.4785 12.2771C65.26 12.2771 65.1133 12.2006 65.0384 12.0475C64.9635 11.8944 64.926 11.5654 64.926 11.0605V6.23422C64.926 5.68634 64.9635 5.34122 65.0384 5.19887C65.1133 5.05653 65.2631 4.98536 65.4879 4.98536C65.7126 4.98536 65.8593 5.05653 65.928 5.19887ZM74.6475 4.22798L74.713 3.28528H70.8642V15.5H74.6475V13.0506C74.9784 13.4212 75.3436 13.7006 75.7431 13.8886C77.1685 14.482 79.2018 14.2547 79.9454 12.821C80.0796 12.4101 80.1467 11.7185 80.1467 10.7463V6.24228C80.1198 4.20298 79.3365 3.01307 77.0916 3.09191C76.6109 3.09192 76.1676 3.18592 75.7618 3.37391C75.356 3.56193 74.9846 3.84661 74.6475 4.22798ZM75.7057 5.19484C75.7618 5.33451 75.7899 5.73468 75.7899 6.39537V10.9799C75.7899 11.5493 75.7603 11.9078 75.701 12.0555C75.6417 12.2033 75.4903 12.2771 75.2468 12.2771C74.9971 12.2771 74.8348 12.1965 74.7599 12.0354C74.6849 11.8743 74.6475 11.4714 74.6475 10.8268V6.39537C74.6475 5.77766 74.6834 5.38822 74.7552 5.22707C74.827 5.06594 74.9877 4.98536 75.2374 4.98536C75.4934 4.98536 75.6495 5.05519 75.7057 5.19484ZM5.8869 6.03404H9.82933V5.47004C9.82932 4.40113 9.71383 3.58601 9.48285 3.02468C9.25185 2.46337 8.75553 1.9786 7.9939 1.57035C7.23225 1.16213 6.27396 0.95802 5.11901 0.958008C3.94533 0.95802 2.9886 1.19302 2.24881 1.66301C1.50902 2.13303 1.06108 2.65003 0.90501 3.21402C0.748935 3.77804 0.670898 4.68313 0.670898 5.9293V9.80481C0.670898 10.7018 0.708355 11.3746 0.783272 11.8231C0.858187 12.2717 1.04548 12.7 1.34514 13.1083C1.6448 13.5165 2.08337 13.8589 2.66084 14.1356C3.23832 14.4122 3.85793 14.5505 4.51969 14.5505C5.07531 14.5505 5.55758 14.4498 5.9665 14.2484C6.3754 14.0469 6.71409 13.7448 6.98254 13.3419L7.34775 14.2766H9.82933V7.27485H5.21266V9.25692H6.00864V10.8039C6.00863 11.4109 5.95713 11.8191 5.85412 12.0286C5.75111 12.2381 5.55602 12.3428 5.26885 12.3428C5.00664 12.3428 4.83183 12.2502 4.74444 12.0649C4.65703 11.8795 4.61333 11.4941 4.61333 10.9086V4.6482C4.61333 3.98215 4.65703 3.56855 4.74444 3.4074C4.83183 3.24626 4.99727 3.16569 5.24075 3.16568C5.52168 3.16569 5.6996 3.25969 5.77453 3.44768C5.84944 3.63569 5.88689 4.10301 5.8869 4.84963V6.03404ZM10.7562 7.72605H14.3054V6.6061C14.3054 6.00988 14.3366 5.64059 14.399 5.49824C14.4614 5.3559 14.6206 5.28473 14.8766 5.28472C15.1013 5.28473 15.2621 5.36933 15.3589 5.53853C15.4556 5.70774 15.504 6.07165 15.504 6.63028C15.504 7.07611 15.4603 7.37155 15.3729 7.51657C15.2855 7.6616 14.6206 7.94361 13.3783 8.36257C12.2171 8.74932 11.4898 9.08772 11.1964 9.37778C10.903 9.66784 10.7562 10.213 10.7562 11.0134V11.8916C10.7562 12.9713 11.0325 13.6709 11.585 13.9905C12.1375 14.3101 12.7446 14.4699 13.4064 14.4699C13.9121 14.4699 14.3475 14.3746 14.7127 14.1839C15.0779 13.9932 15.376 13.7072 15.607 13.3258V14.2766H19.4511V8.91047C19.4511 7.14326 19.3856 5.97631 19.2545 5.40961C19.1234 4.84293 18.7332 4.36487 18.0839 3.97543C17.4346 3.58601 16.3062 3.39129 15.0264 3.39128C13.9589 3.39129 13.0911 3.56318 12.4231 3.90694C11.7551 4.25072 11.3103 4.64687 11.0887 5.09538C10.8671 5.54391 10.7562 6.18176 10.7562 7.00896V7.72605ZM14.4505 10.1513C14.5473 9.89345 14.8984 9.57384 15.504 9.19247V11.3921C15.504 11.9292 15.4681 12.2609 15.3963 12.3871C15.3245 12.5134 15.17 12.5765 14.9328 12.5765C14.6831 12.5765 14.5161 12.4959 14.4318 12.3348C14.3475 12.1736 14.3054 11.8164 14.3054 11.2632C14.3054 10.7797 14.3538 10.4091 14.4505 10.1513ZM24.2598 4.59986L24.3253 3.58465H20.466V14.2766H24.2598V6.86393C24.2598 6.34828 24.266 6.01122 24.2785 5.85275C24.291 5.6943 24.3565 5.56002 24.4752 5.4499C24.5938 5.33979 24.7374 5.28473 24.9059 5.28472C25.1744 5.28473 25.3383 5.38947 25.3976 5.59895C25.4569 5.80845 25.4865 6.43691 25.4865 7.48434V14.2766H29.1574V7.30708C29.1574 6.38857 29.1964 5.82188 29.2745 5.60701C29.3525 5.39216 29.5257 5.28473 29.7942 5.28472C30.0564 5.28473 30.2234 5.3935 30.2952 5.61104C30.367 5.82859 30.4029 6.39394 30.4029 7.30708V14.2766H34.0737V6.67862C34.0737 5.80308 34.0144 5.17059 33.8958 4.78115C33.7772 4.39172 33.5072 4.06273 33.0858 3.79414C32.6644 3.52558 32.1322 3.39129 31.4891 3.39128C31.0022 3.39129 30.5589 3.49201 30.1594 3.69343C29.7598 3.89487 29.4009 4.19701 29.0825 4.59986C28.5019 3.79415 27.7059 3.39129 26.6945 3.39128C26.1764 3.39129 25.7144 3.49201 25.3086 3.69343C24.9028 3.89487 24.5532 4.19701 24.2598 4.59986ZM39.0556 9.11995H43.9532V7.70188C43.9532 6.6652 43.8143 5.86082 43.5365 5.28875C43.2587 4.7167 42.7749 4.25744 42.085 3.91097C41.3952 3.56452 40.5196 3.39129 39.4583 3.39128C38.5905 3.39129 37.8226 3.53498 37.1546 3.82234C36.4866 4.10972 36.0059 4.52333 35.7125 5.06315C35.4191 5.60299 35.2724 6.34023 35.2724 7.27485V10.393C35.2724 11.188 35.3379 11.7936 35.469 12.2099C35.6001 12.6262 35.8358 13.0076 36.1761 13.354C36.5163 13.7005 36.9923 13.9731 37.6041 14.1718C38.2159 14.3706 38.9214 14.4699 39.7205 14.4699C40.5446 14.4699 41.2297 14.3692 41.776 14.1678C42.3223 13.9664 42.7733 13.6642 43.1292 13.2613C43.485 12.8585 43.7113 12.4798 43.8081 12.1253C43.9048 11.7708 43.9532 11.2632 43.9532 10.6025V9.81287H40.3666V11.2229C40.3666 11.7547 40.3183 12.1132 40.2215 12.2985C40.1247 12.4838 39.9328 12.5765 39.6456 12.5765C39.4146 12.5765 39.2585 12.5067 39.1774 12.367C39.0962 12.2273 39.0556 11.9158 39.0556 11.4324V9.11995ZM40.1606 6.59805V7.3796H39.0556V6.59805C39.0556 5.99645 39.0868 5.62716 39.1493 5.49018C39.2117 5.35322 39.374 5.28473 39.6362 5.28472C39.8485 5.28473 39.9889 5.36531 40.0576 5.52644C40.1263 5.68759 40.1606 6.0448 40.1606 6.59805ZM81.4131 3.24065V2.27002H81.8576C81.947 2.27002 82.0149 2.27874 82.0614 2.29617C82.1079 2.31361 82.1451 2.3444 82.1729 2.38853C82.2007 2.43267 82.2146 2.48145 82.2146 2.53486C82.2146 2.60372 82.1916 2.66176 82.1456 2.70899C82.0995 2.75622 82.0284 2.78623 81.9322 2.79903C81.9673 2.81536 81.994 2.83148 82.0122 2.84737C82.051 2.8818 82.0877 2.92483 82.1223 2.97647L82.2967 3.24065H82.1298L81.9972 3.03871C81.9584 2.98045 81.9265 2.93586 81.9014 2.90497C81.8763 2.87407 81.8539 2.85244 81.834 2.84008C81.8142 2.82772 81.794 2.81912 81.7735 2.81426C81.7585 2.81118 81.7338 2.80962 81.6996 2.80962H81.5458V3.24065L81.4131 3.24065ZM81.5458 2.6984H81.831C81.8916 2.6984 81.939 2.69233 81.9732 2.68019C82.0074 2.66805 82.0334 2.64863 82.0512 2.62192C82.069 2.59522 82.0779 2.5662 82.0779 2.53486C82.0779 2.48895 82.0606 2.45121 82.0262 2.42164C81.9918 2.39207 81.9374 2.37728 81.8631 2.37728H81.5458V2.6984ZM81.7925 3.64376C82.2916 3.64376 82.7017 3.25128 82.7017 2.76035C82.7017 2.26943 82.2916 1.87695 81.7925 1.87695C81.2935 1.87695 80.8833 2.26943 80.8833 2.76035C80.8833 3.25128 81.2935 3.64376 81.7925 3.64376ZM82.6017 2.76035C82.6017 3.19302 82.2394 3.54376 81.7925 3.54376C81.3456 3.54376 80.9833 3.19302 80.9833 2.76035C80.9833 2.32769 81.3456 1.97695 81.7925 1.97695C82.2394 1.97695 82.6017 2.32769 82.6017 2.76035Z" fill="white"></path></svg> 