<?xml version="1.0" encoding="UTF-8"?> <svg xmlns="http://www.w3.org/2000/svg" width="24" height="24" viewBox="0 0 24 24" fill="none"><path fill-rule="evenodd" clip-rule="evenodd" d="M12 24C18.6274 24 24 18.6274 24 12C24 5.37258 18.6274 0 12 0C5.37258 0 0 5.37258 0 12C0 18.6274 5.37258 24 12 24ZM13.0131 10.1666C13.623 9.54659 14.4361 9.13326 15.3508 9.13326C17.0787 9.13326 18.4 10.4766 18.4 12.2333V17.3999H15.859V12.6466C15.859 11.8199 15.2492 11.1999 14.4361 11.1999C13.623 11.1999 13.0131 11.8199 13.0131 12.6466V17.3999H10.1672V9.13326H13.0131V10.1666ZM8.74426 17.3999H6.20328V9.13326H8.74426V17.3999ZM6 6.54992C6 5.72326 6.71148 4.99992 7.52459 4.99992C8.3377 4.99992 9.04918 5.72326 9.04918 6.54992C9.04918 7.37659 8.3377 8.09992 7.52459 8.09992C6.71148 8.09992 6 7.37659 6 6.54992Z" fill="#E21284"></path></svg> 