<?xml version="1.0" encoding="UTF-8"?> <svg xmlns="http://www.w3.org/2000/svg" width="24" height="24" viewBox="0 0 24 24" fill="none"><path fill-rule="evenodd" clip-rule="evenodd" d="M12 24C18.6274 24 24 18.6274 24 12C24 5.37258 18.6274 0 12 0C5.37258 0 0 5.37258 0 12C0 18.6274 5.37258 24 12 24ZM9.34138 17.8003C7.67098 17.8003 6.11271 17.334 4.79906 16.5282C7.21644 16.8503 9.17623 15.3181 9.17623 15.3181C6.88799 15.1459 6.43586 13.3042 6.43586 13.3042C7.24436 13.4365 7.75115 13.2509 7.75115 13.2509C5.17561 12.6681 5.39469 10.3887 5.39469 10.3887C5.99113 10.7333 6.68247 10.76 6.68247 10.76C4.40822 8.82521 5.83326 6.94369 5.83326 6.94369C8.21766 9.73634 11.7226 9.92639 11.9527 9.93552C11.9022 9.72561 11.8755 9.507 11.8755 9.28239C11.8755 7.6907 13.2101 6.40031 14.8571 6.40031C15.7157 6.40031 16.4893 6.75092 17.0335 7.31265C17.1844 7.27173 17.3307 7.22757 17.4704 7.18267C18.3147 6.91035 18.9177 6.59907 18.9177 6.59907C18.7722 7.44221 17.6973 8.14984 17.6205 8.19952C17.6176 8.20149 17.616 8.20229 17.616 8.20229L17.6213 8.20191C18.4556 8.12119 19.3082 7.77854 19.3082 7.77854C19.0508 8.30169 18.001 9.11546 17.8313 9.24465C17.8358 9.35678 17.8383 9.46925 17.8383 9.58256C17.8383 14.1208 14.0342 17.8003 9.34138 17.8003Z" fill="#A711A7"></path></svg> 