<?xml version="1.0" encoding="UTF-8"?> <svg xmlns="http://www.w3.org/2000/svg" width="243" height="44" viewBox="0 0 243 44" fill="none"><g clip-path="url(#clip0_741_15139)"><path fill-rule="evenodd" clip-rule="evenodd" d="M60.9767 17.5184C60.9767 19.9449 59.0098 21.9119 56.5833 21.9119C56.0684 21.9119 55.5742 21.8233 55.115 21.6605L49.6471 36.9664L33.3144 43.8L40.2606 24.3561L52.5322 19.2216C52.3118 18.6979 52.1899 18.1224 52.1899 17.5184C52.1899 15.092 54.1569 13.125 56.5833 13.125C59.0098 13.125 60.9767 15.092 60.9767 17.5184Z" fill="#E21284"></path><path fill-rule="evenodd" clip-rule="evenodd" d="M6.90629 21.653C6.44127 21.8206 5.93985 21.9119 5.41711 21.9119C2.99067 21.9119 1.02368 19.9449 1.02368 17.5184C1.02368 15.092 2.99067 13.125 5.41711 13.125C7.84354 13.125 9.81053 15.092 9.81053 17.5184C9.81053 18.1192 9.68997 18.6917 9.47172 19.2133L21.7635 24.3562L28.7097 43.8001L12.3769 36.9664L6.90629 21.653Z" fill="#6B11C9"></path><path fill-rule="evenodd" clip-rule="evenodd" d="M32.4882 9.05578C34.1822 8.44604 35.3935 6.82487 35.3935 4.92077C35.3935 2.49433 33.4265 0.527344 31.0001 0.527344C28.5737 0.527344 26.6067 2.49433 26.6067 4.92077C26.6067 6.83294 27.8282 8.45977 29.5336 9.06347L24.0667 24.3682L31.0122 43.8126L37.9578 24.3682L32.4882 9.05578Z" fill="#A711A7"></path><path fill-rule="evenodd" clip-rule="evenodd" d="M163.524 13.0477C162.609 13.0477 161.854 12.7694 161.257 12.1729C160.661 11.5763 160.382 10.8207 160.382 9.90614C160.382 8.95173 160.661 8.19611 161.257 7.59948C161.814 7.04278 162.609 6.72461 163.524 6.72461C164.478 6.72461 165.194 7.04278 165.791 7.59948C166.348 8.19611 166.666 8.95173 166.666 9.90614C166.666 10.8207 166.348 11.5763 165.751 12.1729C165.194 12.7694 164.439 13.0477 163.524 13.0477ZM161.257 35.9539C161.098 35.9539 161.019 35.9141 160.899 35.7949C160.82 35.7153 160.78 35.5961 160.78 35.4767V15.8713C160.78 15.7122 160.82 15.6326 160.899 15.5134C161.019 15.4338 161.098 15.3941 161.257 15.3941H165.91C166.069 15.3941 166.189 15.4338 166.268 15.5134C166.348 15.6326 166.387 15.7122 166.387 15.8713V35.4767C166.387 35.5961 166.348 35.7153 166.268 35.7949C166.189 35.9141 166.069 35.9539 165.91 35.9539H161.257ZM143.362 15.0741C145.152 15.0741 146.544 15.6309 147.498 16.7841C148.452 17.9772 148.93 19.6077 148.93 21.7948V29.5496C148.93 31.6573 148.452 33.2878 147.498 34.4808C146.583 35.6738 145.191 36.2704 143.362 36.2704C141.851 36.2704 140.658 35.7533 139.743 34.7592C139.704 34.6796 139.624 34.6796 139.584 34.6796C139.544 34.6796 139.505 34.7592 139.505 34.8387V35.475C139.505 35.5943 139.465 35.7136 139.385 35.7931C139.266 35.9124 139.147 35.9521 139.027 35.9521H134.335C134.216 35.9521 134.096 35.9124 134.017 35.7931C133.897 35.7136 133.858 35.5943 133.858 35.475V8.43289C133.858 8.2738 133.897 8.15454 134.017 8.075C134.096 7.99556 134.216 7.91602 134.335 7.91602H139.027C139.146 7.91602 139.265 7.99519 139.385 8.07445L139.385 8.075C139.465 8.15454 139.505 8.2738 139.505 8.43289V16.5456C139.505 16.5853 139.544 16.6251 139.584 16.6251C139.704 16.6251 139.783 16.5456 139.902 16.4262C140.817 15.5116 141.97 15.0741 143.362 15.0741ZM143.283 22.1926C143.283 21.5165 143.084 20.9598 142.766 20.5223C142.408 20.1246 141.931 19.886 141.374 19.886C140.897 19.886 140.499 20.0452 140.141 20.3633C139.783 20.6813 139.584 21.1189 139.505 21.6756V29.6689C139.584 30.1859 139.783 30.6233 140.141 30.9415C140.499 31.2596 140.897 31.4188 141.374 31.4188C141.931 31.4188 142.408 31.2197 142.766 30.7824C143.084 30.3449 143.283 29.828 143.283 29.1519V22.1926ZM79.535 15.8706C79.535 15.7388 79.5896 15.6616 79.6536 15.5712L79.6536 15.5711C79.6668 15.5524 79.6805 15.5332 79.6941 15.5127C79.7736 15.4332 79.8929 15.3935 80.0122 15.3935H84.7048C84.8639 15.3935 84.9434 15.4332 85.0627 15.5127C85.1422 15.632 85.182 15.7115 85.182 15.8706V34.9988C85.182 37.9417 84.506 40.2084 83.0743 41.839C81.6825 43.4296 79.1771 44.225 75.5582 44.225C74.8424 44.225 74.2857 44.225 73.888 44.1852C73.5301 44.1455 73.371 43.9864 73.371 43.6683V39.7312C73.371 39.4131 73.5698 39.254 73.9277 39.2938C75.4787 39.3734 76.6717 39.2143 77.5068 38.8564C78.3022 38.4984 78.859 37.9417 79.1373 37.2259C79.4157 36.51 79.535 35.5556 79.535 34.4024C79.535 34.3228 79.535 34.2831 79.4555 34.2831C79.4157 34.2831 79.3759 34.3228 79.2964 34.4024C78.8192 35.0386 78.2624 35.4761 77.5864 35.7147C76.9103 35.993 76.2343 36.1124 75.598 36.1124C73.7687 36.1124 72.3768 35.5159 71.4621 34.3228C70.5475 33.1298 70.11 31.4993 70.11 29.3916V21.7959C70.11 19.6088 70.5873 17.9783 71.5019 16.7852C72.4166 15.632 73.7687 15.0752 75.598 15.0752C77.2285 15.0752 78.4613 15.6717 79.2964 16.8648C79.3759 16.9443 79.4157 16.984 79.4555 16.9443C79.535 16.9045 79.535 16.8648 79.535 16.7852V15.8706ZM77.6261 31.2208C78.1829 31.2208 78.6601 31.022 79.018 30.5847C79.3759 30.1472 79.535 29.5905 79.535 28.9542V22.1937C79.535 21.5176 79.3759 20.9609 79.018 20.5235C78.6601 20.1257 78.1829 19.8871 77.6261 19.8871C77.0694 19.8871 76.632 20.1257 76.274 20.5235C75.9161 20.9609 75.7571 21.5176 75.7571 22.1937V28.9542C75.7571 29.5905 75.9161 30.1472 76.274 30.5847C76.632 31.022 77.0694 31.2208 77.6261 31.2208ZM95.7998 15.0752C98.0666 15.0752 99.8959 15.6717 101.328 16.9045C102.719 18.1375 103.435 19.728 103.435 21.7562V35.4761C103.435 35.5954 103.395 35.7147 103.316 35.7942C103.197 35.9135 103.117 35.9532 102.958 35.9532H98.2654C98.1461 35.9532 98.0268 35.9135 97.9473 35.7942C97.8677 35.7147 97.7882 35.5954 97.7882 35.4761V34.6012C97.7882 34.5216 97.7882 34.4421 97.7087 34.4421C97.6689 34.4024 97.6291 34.4421 97.5496 34.5216C96.6747 35.6351 95.3226 36.2317 93.4933 36.2715C91.9424 36.2715 90.5902 35.834 89.4767 34.9988C88.3235 34.1239 87.7667 32.4935 87.7667 30.1075C87.7667 27.6419 88.4428 25.9319 89.8347 24.9775C91.1868 24.0628 93.1751 23.5855 95.76 23.5855H97.5894C97.7484 23.5855 97.7882 23.506 97.7882 23.3867V22.3925C97.7882 21.6767 97.6291 21.0803 97.2315 20.6029C96.8338 20.1257 96.3566 19.8871 95.76 19.8871C95.3226 19.8871 94.9249 20.0463 94.6068 20.3247C94.3284 20.6029 94.1296 21.0007 94.05 21.5176C94.0103 21.8357 93.8512 21.9949 93.533 21.9949L88.7212 21.9551C88.403 21.9551 88.2439 21.7959 88.2439 21.4779C88.3633 19.5292 89.1188 17.9783 90.5107 16.7852C91.9026 15.632 93.6524 15.0752 95.7998 15.0752ZM95.4021 31.897C95.9987 31.897 96.5554 31.6982 97.0724 31.3004C97.5496 30.8631 97.7882 30.3063 97.7882 29.6303V27.7612C97.7882 27.6021 97.7484 27.5624 97.5894 27.5624H95.9589C95.2431 27.5624 94.6465 27.7612 94.2091 28.1588C93.7717 28.5963 93.5728 29.153 93.5728 29.8688C93.5728 30.5449 93.7319 31.022 94.05 31.38C94.4079 31.7379 94.8454 31.897 95.4021 31.897ZM129.284 16.9045C128.409 15.6717 127.017 15.0752 125.228 15.0752C124.433 15.0752 123.637 15.2343 122.842 15.5525C122.047 15.9104 121.371 16.4672 120.814 17.342C120.694 17.5011 120.615 17.5807 120.535 17.5807L120.456 17.5408C119.541 15.8706 118.07 15.0752 115.962 15.0752C115.405 15.0752 114.769 15.1547 114.133 15.3935C113.496 15.5923 112.9 15.9501 112.383 16.5069C112.303 16.5467 112.264 16.5467 112.224 16.5467C112.144 16.5069 112.144 16.4672 112.144 16.3876V15.8706C112.144 15.7115 112.105 15.632 111.985 15.5127C111.906 15.4332 111.786 15.3935 111.667 15.3935H106.975C106.855 15.3935 106.736 15.4332 106.617 15.5127C106.537 15.632 106.497 15.7115 106.497 15.8706V35.4761C106.497 35.5954 106.537 35.7147 106.617 35.7942C106.736 35.9135 106.855 35.9532 106.975 35.9532H111.667C111.786 35.9532 111.906 35.9135 111.985 35.7942C112.105 35.7147 112.144 35.5954 112.144 35.4761V22.4323C112.144 21.6369 112.303 21.0007 112.622 20.5632C112.98 20.1257 113.417 19.8871 114.013 19.8871C114.53 19.8871 114.968 20.1257 115.286 20.5632C115.604 21.0007 115.763 21.6369 115.763 22.4323V35.4761C115.763 35.5954 115.803 35.7147 115.922 35.7942C116.002 35.9135 116.121 35.9532 116.24 35.9532H120.893C121.013 35.9532 121.132 35.9135 121.251 35.7942C121.331 35.7147 121.371 35.5954 121.371 35.4761V22.4323C121.371 21.6369 121.53 21.0007 121.888 20.5632C122.206 20.1257 122.683 19.8871 123.24 19.8871C123.796 19.8871 124.234 20.1257 124.552 20.5632C124.87 21.0007 125.029 21.6369 125.029 22.4323V35.4761C125.029 35.5954 125.069 35.7147 125.148 35.7942C125.268 35.9135 125.347 35.9532 125.506 35.9532H130.159C130.318 35.9532 130.438 35.9135 130.517 35.7942C130.597 35.7147 130.676 35.5954 130.676 35.4761V22.0744C130.676 19.8474 130.199 18.1375 129.284 16.9045ZM151.992 35.7931C152.071 35.9124 152.191 35.9521 152.31 35.9521H157.002C157.122 35.9521 157.241 35.9124 157.32 35.7931C157.44 35.7136 157.48 35.5943 157.48 35.475V8.43289C157.48 8.2738 157.44 8.15454 157.32 8.075C157.241 7.99556 157.122 7.91602 157.002 7.91602H152.31C152.191 7.91602 152.071 7.99556 151.992 8.075C151.872 8.15454 151.833 8.2738 151.833 8.43289V35.475C151.833 35.5943 151.872 35.7136 151.992 35.7931ZM181.34 17.1038C180.465 15.9903 179.193 15.4336 177.562 15.4336C176.727 15.4336 175.972 15.5927 175.216 15.9107C174.5 16.2687 173.904 16.7459 173.426 17.422C173.387 17.5015 173.347 17.5412 173.307 17.5015C173.228 17.4617 173.228 17.422 173.228 17.3823V16.1096C173.228 15.8312 173.069 15.7119 172.79 15.7119H170.762C170.484 15.7119 170.364 15.8312 170.364 16.1096V35.556C170.364 35.7946 170.484 35.9536 170.762 35.9536H172.79C173.069 35.9536 173.228 35.7946 173.228 35.556V22.2339C173.228 20.8816 173.506 19.8478 174.103 19.0523C174.699 18.2968 175.534 17.8991 176.608 17.8991C177.642 17.8991 178.437 18.2571 178.994 18.9728C179.551 19.6887 179.869 20.7227 179.869 22.0351V35.556C179.869 35.7946 179.988 35.9536 180.267 35.9536H182.295C182.573 35.9536 182.692 35.7946 182.692 35.556V21.7963C182.692 19.7682 182.255 18.2173 181.34 17.1038ZM199.435 26.4877C199.435 26.7661 199.276 26.8854 199.037 26.8854H189.891C189.771 26.8854 189.732 26.965 189.732 27.0444V29.9873C189.732 31.1007 190.05 32.0154 190.686 32.7312C191.282 33.4471 192.117 33.7651 193.151 33.7651C193.987 33.7651 194.702 33.5266 195.299 33.0095C195.935 32.4926 196.293 31.8166 196.492 30.9814C196.572 30.7428 196.731 30.6235 196.929 30.6235L198.918 30.7031C199.037 30.7031 199.156 30.7428 199.236 30.8223C199.316 30.9019 199.316 31.0211 199.316 31.1405C199.077 32.7312 198.441 33.9639 197.367 34.8786C196.293 35.7933 194.861 36.2706 193.151 36.2706C191.243 36.2706 189.732 35.7138 188.578 34.6003C187.465 33.4471 186.908 31.9756 186.908 30.1463V21.5167C186.908 19.6874 187.465 18.216 188.578 17.0627C189.732 15.9492 191.243 15.3926 193.151 15.3926C195.06 15.3926 196.572 15.9492 197.725 17.0627C198.838 18.216 199.435 19.6874 199.435 21.5167V26.4877ZM193.151 17.8581C192.117 17.8581 191.282 18.216 190.686 18.9318C190.05 19.6079 189.732 20.5623 189.732 21.7155V24.3799C189.732 24.4993 189.771 24.539 189.891 24.539H196.452C196.572 24.539 196.611 24.4993 196.611 24.3799V21.7155C196.611 20.5623 196.293 19.6079 195.657 18.9318C195.021 18.216 194.185 17.8581 193.151 17.8581ZM215.302 26.8854C215.58 26.8854 215.7 26.7661 215.7 26.4877V21.5167C215.7 19.6874 215.143 18.216 213.99 17.0627C212.876 15.9492 211.325 15.3926 209.416 15.3926C207.508 15.3926 205.996 15.9492 204.883 17.0627C203.73 18.216 203.173 19.6874 203.173 21.5167V30.1463C203.173 31.9756 203.73 33.4471 204.883 34.6003C205.996 35.7138 207.508 36.2706 209.416 36.2706C211.166 36.2706 212.558 35.7933 213.632 34.8786C214.706 33.9639 215.382 32.7312 215.58 31.1405C215.62 31.0211 215.58 30.9019 215.501 30.8223C215.421 30.7428 215.342 30.7031 215.223 30.7031L213.234 30.6235C212.995 30.6235 212.876 30.7428 212.797 30.9814C212.598 31.8166 212.2 32.4926 211.604 33.0095C211.007 33.5266 210.291 33.7651 209.416 33.7651C208.422 33.7651 207.587 33.4471 206.951 32.7312C206.315 32.0154 206.036 31.1007 206.036 29.9873V27.0444C206.036 26.965 206.076 26.8854 206.195 26.8854H215.302ZM206.951 18.9318C207.587 18.216 208.422 17.8581 209.416 17.8581C210.45 17.8581 211.286 18.216 211.922 18.9318C212.598 19.6079 212.916 20.5623 212.916 21.7155V24.3799C212.916 24.4993 212.837 24.539 212.757 24.539H206.195C206.076 24.539 206.036 24.4993 206.036 24.3799V21.7155C206.036 20.5623 206.315 19.6079 206.951 18.9318ZM226.755 15.5127C227.431 15.5127 227.988 15.632 228.465 15.95C228.664 16.0296 228.704 16.2284 228.664 16.4671L228.187 18.535C228.147 18.7736 227.988 18.8531 227.709 18.7736C227.391 18.6146 226.993 18.535 226.516 18.535C226.278 18.535 226.119 18.535 226.039 18.5748C225.085 18.6146 224.289 19.1316 223.653 20.086C223.056 21.0404 222.738 22.1936 222.738 23.5457V35.5556C222.738 35.7942 222.619 35.9532 222.341 35.9532H220.312C220.034 35.9532 219.915 35.7942 219.915 35.5556V16.1091C219.915 15.8308 220.034 15.7115 220.312 15.7115H222.341C222.619 15.7115 222.738 15.8308 222.738 16.1091V18.4952C222.738 18.5748 222.778 18.6146 222.818 18.6146C222.858 18.6146 222.897 18.5748 222.937 18.535C223.733 16.5068 225.005 15.5127 226.755 15.5127ZM232.442 34.7204C233.555 35.6748 235.027 36.1522 236.856 36.1522C238.725 36.1522 240.236 35.6351 241.31 34.6807C242.424 33.6866 242.94 32.3742 242.94 30.7039C242.94 29.5507 242.702 28.5963 242.145 27.8407C241.628 27.0452 240.992 26.4487 240.276 26.0114C239.6 25.6136 238.685 25.1364 237.572 24.6591C236.697 24.2615 235.981 23.9036 235.464 23.6252C234.947 23.3468 234.55 22.989 234.192 22.5515C233.834 22.1141 233.675 21.5971 233.675 20.921C233.675 20.0463 233.953 19.3304 234.51 18.7338C235.106 18.1374 235.862 17.8191 236.816 17.8191C237.771 17.8191 238.566 18.0975 239.163 18.694C239.759 19.2906 240.077 20.0463 240.077 20.921V21.1995C240.077 21.438 240.196 21.5971 240.475 21.5971H242.304C242.583 21.5971 242.702 21.438 242.702 21.1995V21.0802C242.702 19.3702 242.185 18.0179 241.111 17.0238C240.037 15.9899 238.606 15.5127 236.777 15.5127C234.987 15.5127 233.595 15.9899 232.521 16.984C231.487 17.9782 230.931 19.3304 230.931 21.0404C230.931 22.1936 231.209 23.148 231.686 23.9036C232.163 24.699 232.76 25.2558 233.436 25.6932C234.112 26.0908 234.987 26.5283 236.021 26.926C237.015 27.3634 237.771 27.7214 238.248 27.9998C238.725 28.2383 239.163 28.636 239.56 29.0734C239.918 29.5507 240.117 30.1471 240.117 30.8232C240.117 31.7379 239.799 32.4935 239.242 33.0502C238.646 33.6467 237.85 33.9251 236.896 33.9251C235.902 33.9251 235.066 33.6467 234.43 33.0502C233.834 32.4935 233.516 31.7379 233.516 30.9027V30.6642C233.516 30.3859 233.356 30.2664 233.118 30.2664H231.169C230.931 30.2664 230.772 30.3859 230.772 30.6642V30.9426C230.772 32.5332 231.328 33.766 232.442 34.7204Z" fill="#303030"></path></g><defs><clipPath id="clip0_741_15139"><rect width="243" height="44" fill="white"></rect></clipPath></defs></svg> 