<?xml version="1.0" encoding="utf-8"?>
<!-- Generator: Adobe Illustrator 22.0.0, SVG Export Plug-In . SVG Version: 6.00 Build 0)  -->
<svg version="1.1" id="Layer_1" xmlns="http://www.w3.org/2000/svg" xmlns:xlink="http://www.w3.org/1999/xlink" x="0px" y="0px"
	 width="1920px" height="1000px" viewBox="0 0 1920 1000" style="enable-background:new 0 0 1920 1000;" xml:space="preserve">
<style type="text/css">
	.st0{clip-path:url(#SVGID_2_);}
	.st1{fill:#6B11C9;}
	.st2{fill:#F4F5F8;}
	.st3{fill:none;stroke:url(#SVGID_3_);}
	.st4{fill:none;stroke:url(#SVGID_4_);}
	.st5{fill:none;stroke:url(#SVGID_5_);}
</style>
<g>
	<defs>
		<rect id="SVGID_1_" y="-1" width="1920" height="951"/>
	</defs>
	<clipPath id="SVGID_2_">
		<use xlink:href="#SVGID_1_"  style="overflow:visible;"/>
	</clipPath>
	<g class="st0">
		<path class="st1" d="M141.5,761.5c57.9,2.6,32.6,11.9,75,0c20.3-5.7-51.6,95.1-22.5,83.5c10.6-4.2,94.3-32.7,126.5-14.5
			c17.3,9.8,35.8,31.3,44.5,65.5c28.5,111.1,130-31,249.5,42c120,63.5,162-152.5,269.5-42c119,79.5,219-80,346.5-80
			c97,0,133,67.5,249,80c85.5-66.5,176.5-67.3,214.5-94.5c17.9-17.2,42.1-21.9,65-31.5c81.6-34.1,145-42.1,161,31.5V-98H0v859.5
			C14.6,755.4,141.5,761.5,141.5,761.5z"/>
		<path class="st2" d="M62,843c57.9,2.6,86.1,46.9,128.5,35c25-12.5,12.4-15.4,41.5-27c10.6-4.2,51.8-24.2,84-6
			c31,14.5,41.5,40.5,48.5,72.5c35.5,99,128.7-68.3,248.2,4.6s153-134.5,263-40.4s210.8-62.4,341.5-77.1c97.8-11,167,92.5,283,105
			c71.8,7.7,130.8-36,168.8-63.2c17.9-17.2,38.1-29.9,61-39.5c81.6-34.1,162.5,3.4,190,16.5V-122H0v980C14.6,851.9,38.9,842,62,843z
			"/>
		
			<linearGradient id="SVGID_3_" gradientUnits="userSpaceOnUse" x1="959.9911" y1="155.503" x2="959.9911" y2="0.672" gradientTransform="matrix(1 0 0 -1 0 950)">
			<stop  offset="0" style="stop-color:#6B11C9"/>
			<stop  offset="1" style="stop-color:#F5F5F5"/>
		</linearGradient>
		<path class="st3" d="M1919.8,824.2c-17.4-9-104.9-52.2-194.5-14.5c-22.7,9.6-39.7,25.1-61.2,40.6c-37.8,27.2-96.5,68.2-167.7,60.5
			C1383,895,1319,797,1215.4,805.8c-129.7,14.7-229.8,171.2-338.9,77.1S732.6,996,614,923s-223.4,98.9-251.6-12.2
			c-8.7-34.2-24.1-53-41.2-62.8c-32-18.2-75.8-1.9-86.3,2.3c-28.9,11.6-26.3,22.3-45,27.6c-42.1,11.9-67.8-31-125.3-33.6
			c-26.9-1.2-49.4,7-64.2,14.1"/>
		
			<linearGradient id="SVGID_4_" gradientUnits="userSpaceOnUse" x1="959.9911" y1="163.496" x2="959.9911" y2="8.624" gradientTransform="matrix(1 0 0 -1 0 950)">
			<stop  offset="0" style="stop-color:#E21284"/>
			<stop  offset="1" style="stop-color:#F5F5F5"/>
		</linearGradient>
		<path class="st4" d="M1919.8,816.2c-17.4-9-104.9-52.2-194.5-14.5c-22.7,9.6-38.2,22.3-61.2,40.6c-37.8,27.2-96.5,68.2-167.7,60.5
			c-115.1-12.5-183.8-116-280.9-105c-129.7,14.7-229.8,171.2-338.9,77.1s-142.4,113.3-261,40.4c-118.6-73-224.8,98.6-253.1-12.5
			c-8.7-34.1-24.1-53-41.2-62.8c-32-18.2-75.8-1.9-86.3,2.3c-28.9,11.6-22.3,15.7-45,27.6c-42.1,11.9-67.8-31-125.3-33.6
			c-26.9-1.2-49.4,7-64.2,14.1"/>
		
			<linearGradient id="SVGID_5_" gradientUnits="userSpaceOnUse" x1="959.9912" y1="173.496" x2="959.9912" y2="18.582" gradientTransform="matrix(1 0 0 -1 0 950)">
			<stop  offset="0" style="stop-color:#6B11C9"/>
			<stop  offset="1" style="stop-color:#F5F5F5"/>
		</linearGradient>
		<path class="st5" d="M1919.8,806.2c-17.4-9-104.9-52.2-194.5-14.5c-22.7,9.6-35.2,20.3-61.2,40.6c-37.8,27.2-96.5,68.2-167.7,60.5
			c-115.1-12.5-183.8-116-280.9-105C1085.7,802.5,985.6,959,876.5,865s-142.4,113.3-261,40.4c-118.6-73-224.8,98.6-253.1-12.5
			c-8.7-34.1-24.1-53-41.2-62.8c-32-18.2-75.8-1.9-86.3,2.3c-28.9,11.6-28.3,22.9-45,27.6c-42.1,11.8-67.8-31.1-125.3-33.6
			c-26.9-1.2-49.4,7-64.2,14.1"/>
	</g>
</g>
</svg>
