<?xml version="1.0" encoding="UTF-8"?> <svg xmlns="http://www.w3.org/2000/svg" width="18" height="18" viewBox="0 0 18 18" fill="none"><path fill-rule="evenodd" clip-rule="evenodd" d="M9.7603 3.33094L9.51908 3.02994C9.36018 2.83166 9.17058 2.74984 8.99998 2.74984C8.82899 2.74984 8.639 2.83196 8.48003 3.0309L8.23835 3.33335L8.24607 3.34134L8.23948 3.75502L8.23911 3.77039V4.98203H4.47784C4.37033 4.98203 4.26605 4.97437 4.16519 4.95965L4.17759 4.98203H1.1739C1.17098 4.982 1.14126 4.98163 1.09584 5.03345C1.04776 5.08831 1 5.18711 1 5.32134V8H8H10H17V5.32139C17 5.18716 16.9522 5.08832 16.9041 5.03345C16.8578 4.98055 16.8279 4.98203 16.8261 4.98203H13.8189L13.837 4.94933C13.7159 4.97087 13.5913 4.98211 13.464 4.98211H9.76085V3.76893L9.76078 3.76635L9.7604 3.74417L9.75675 3.33461L9.7603 3.33094ZM17 9H17.413C17.7372 9 18 8.70018 18 8.33033V5.32134C18 4.58168 17.4744 3.98203 16.8261 3.98203H15.5158C15.6836 3.6792 15.7959 3.34037 15.8321 2.98203L15.8352 2.94924C15.9391 1.76532 15.3926 0.704011 14.4622 0.233482C13.607 -0.199023 12.6459 -0.0222186 11.9539 0.693903L10.2994 2.40459C10.198 2.27806 10.0827 2.16633 9.95615 2.0726C9.68065 1.86851 9.35226 1.74984 8.99998 1.74984C8.64858 1.74984 8.32096 1.86787 8.04588 2.071C7.91784 2.16555 7.80118 2.27853 7.69882 2.40664L6.04226 0.693703C5.34908 -0.0224191 4.38841 -0.198542 3.53358 0.233723C2.60342 0.704292 2.05681 1.76596 2.16102 2.94984L2.16406 2.98203C2.20027 3.34031 2.3126 3.67919 2.48037 3.98203H1.1739C0.52555 3.98203 0 4.58168 0 5.32134V8.33033C0 8.70014 0.262792 9 0.586968 9H1V16.8C1 17.4628 1.55303 18 2.23529 18H8V9H10V18H15.7647C16.447 18 17 17.4628 17 16.8V9ZM16 9H11V17H15.7647C15.9222 17 16 16.8834 16 16.8V9ZM2 16.8V9H7V17H2.23529C2.07779 17 2 16.8834 2 16.8ZM5.25437 1.68618C4.8942 1.31424 4.41917 1.24164 3.99033 1.46778C3.67804 1.63247 3.43659 1.95781 3.35633 2.33945C3.17411 3.20607 3.74828 3.98203 4.47784 3.98203H7.23911V3.75882L7.23937 3.74742L7.23961 3.73909L5.25437 1.68618ZM10.7604 3.73528L10.7606 3.74602L10.7609 3.7589V3.98211H13.464C14.0757 3.98211 14.6267 3.46746 14.6705 2.77144C14.7113 2.12186 14.3835 1.58029 13.8253 1.39033C13.4363 1.25797 13.0156 1.40313 12.7148 1.7141L10.7604 3.73528Z" fill="#A4A4A4"></path></svg> 