<?xml version="1.0" encoding="UTF-8"?> <svg xmlns="http://www.w3.org/2000/svg" width="70" height="48" viewBox="0 0 70 48" fill="none"><rect x="0.500092" y="0.5" width="69" height="47" rx="5.5" fill="white" stroke="white"></rect><g clip-path="url(#clip0)"><path d="M18.81 25.3324C18.0431 28.2788 14.9274 30.072 11.8508 29.3372C8.77543 28.6026 6.90328 25.6183 7.67059 22.672C8.43718 19.7253 11.5529 17.932 14.6286 18.6665C17.705 19.4011 19.577 22.3859 18.81 25.3324V25.3324Z" fill="#F7931A"></path><path d="M15.773 23.2172C15.8873 22.4854 15.3055 22.092 14.51 21.8295L14.7681 20.8382L14.1381 20.6878L13.8868 21.653C13.7212 21.6135 13.5511 21.5762 13.382 21.5392L13.6351 20.5676L13.0054 20.4172L12.7472 21.4083C12.6101 21.3783 12.4755 21.3488 12.3449 21.3177L12.3456 21.3146L11.4767 21.1068L11.3091 21.7513C11.3091 21.7513 11.7766 21.8539 11.7667 21.8603C12.0219 21.9213 12.068 22.083 12.0603 22.2112L11.7663 23.3406C11.7839 23.3449 11.8067 23.3511 11.8318 23.3607C11.8108 23.3557 11.7884 23.3502 11.7652 23.3449L11.3532 24.927C11.322 25.0012 11.2429 25.1126 11.0645 25.0703C11.0708 25.0791 10.6066 24.9609 10.6066 24.9609L10.2938 25.6516L11.1137 25.8474C11.2662 25.884 11.4157 25.9223 11.5628 25.9584L11.3021 26.9611L11.9314 27.1115L12.1896 26.1194C12.3615 26.1641 12.5284 26.2054 12.6917 26.2442L12.4344 27.2316L13.0644 27.382L13.3252 26.3812C14.3995 26.5759 15.2074 26.4974 15.5474 25.5667C15.8214 24.8173 15.5338 24.3851 14.9685 24.1032C15.3802 24.0123 15.6903 23.7529 15.773 23.2172V23.2172ZM14.3335 25.1506C14.1388 25.9 12.8215 25.4949 12.3944 25.3933L12.7404 24.0649C13.1674 24.167 14.537 24.3691 14.3335 25.1506ZM14.5283 23.2064C14.3507 23.888 13.2543 23.5417 12.8986 23.4568L13.2123 22.252C13.568 22.3369 14.7134 22.4953 14.5283 23.2064Z" fill="white"></path><path d="M24.3271 21.8285C24.7928 21.8285 25.1951 21.9084 25.5332 22.0654C25.8729 22.2238 26.1532 22.4373 26.378 22.7057C26.5998 22.9756 26.7649 23.291 26.8715 23.6524C26.9774 24.0149 27.0305 24.4045 27.0305 24.8217C27.0305 25.4624 26.9079 26.0677 26.6605 26.6384C26.413 27.2098 26.0773 27.7055 25.6502 28.1283C25.2235 28.5506 24.7196 28.8835 24.1385 29.1295C23.5584 29.3756 22.9277 29.4987 22.2504 29.4987C22.1629 29.4987 22.0089 29.4963 21.7914 29.492C21.5739 29.4877 21.3239 29.4662 21.044 29.4299C20.7623 29.3923 20.4644 29.3366 20.1498 29.262C19.8354 29.1888 19.5369 29.0862 19.2557 28.9559L21.77 18.8367L24.0221 18.5024L23.1218 22.0934C23.3145 22.0102 23.5087 21.9457 23.7025 21.8988C23.8965 21.8526 24.1046 21.8285 24.3271 21.8285V21.8285ZM22.4381 27.7875C22.7773 27.7875 23.0969 27.7076 23.3971 27.5507C23.6982 27.3936 23.958 27.1815 24.1757 26.9173C24.3934 26.6519 24.5656 26.3531 24.6912 26.0191C24.8168 25.6852 24.8804 25.3368 24.8804 24.9743C24.8804 24.529 24.8027 24.1816 24.6478 23.9305C24.4929 23.6804 24.2064 23.5546 23.7902 23.5546C23.6539 23.5546 23.4782 23.5795 23.2603 23.6241C23.0418 23.6713 22.8462 23.7695 22.6709 23.9171L21.7123 27.7306C21.77 27.7404 21.8212 27.7497 21.8648 27.7585C21.9075 27.7679 21.9547 27.7746 22.0017 27.7793C22.0514 27.7846 22.1083 27.7873 22.177 27.7873C22.2458 27.7873 22.3317 27.7875 22.4381 27.7875V27.7875Z" fill="#4D4D4D"></path><path d="M29.366 29.3048H27.215L29.0315 21.9835H31.1972L29.366 29.3048ZM30.4127 21.0915C30.1125 21.0915 29.8402 21.0059 29.5987 20.8344C29.3552 20.6639 29.2346 20.4014 29.2346 20.0477C29.2346 19.8532 29.2759 19.6706 29.3577 19.4984C29.4408 19.3266 29.5494 19.1786 29.6854 19.0528C29.8212 18.928 29.9786 18.8283 30.1573 18.7532C30.3371 18.6793 30.5284 18.6423 30.7323 18.6423C31.0323 18.6423 31.3031 18.7279 31.5455 18.8995C31.787 19.0718 31.9085 19.3343 31.9085 19.6861C31.9085 19.8814 31.8674 20.0646 31.7849 20.2364C31.7029 20.4083 31.5943 20.5563 31.4583 20.6821C31.3235 20.8071 31.1647 20.9064 30.9864 20.9808C30.8064 21.0559 30.6158 21.0915 30.4127 21.0915Z" fill="#4D4D4D"></path><path d="M33.0823 20.1595L35.3352 19.8252L34.782 21.9832H37.1948L36.7591 23.681H34.3608L33.722 26.2419C33.6631 26.4553 33.6298 26.6547 33.6204 26.84C33.6098 27.0261 33.6344 27.186 33.6926 27.3206C33.7503 27.4555 33.8542 27.5595 34.005 27.633C34.155 27.7078 34.3698 27.7454 34.6515 27.7454C34.8835 27.7454 35.1096 27.7243 35.3282 27.6823C35.5455 27.6411 35.7657 27.5837 35.9886 27.5086L36.149 29.096C35.8583 29.1981 35.5435 29.2859 35.2044 29.3598C34.8647 29.4348 34.4626 29.4708 33.9978 29.4708C33.3295 29.4708 32.8115 29.3758 32.4424 29.1866C32.0738 28.996 31.8132 28.7356 31.6573 28.4059C31.5035 28.0775 31.4348 27.6988 31.454 27.2723C31.4739 26.8446 31.5412 26.3952 31.6573 25.9219L33.0823 20.1595V20.1595Z" fill="#4D4D4D"></path><path d="M37.1001 26.3814C37.1001 25.7508 37.2067 25.1562 37.4197 24.5995C37.6323 24.0422 37.9386 23.555 38.3361 23.1368C38.7321 22.7207 39.2147 22.3911 39.7826 22.1491C40.3478 21.9084 40.9807 21.7871 41.6783 21.7871C42.1148 21.7871 42.5048 21.8266 42.8479 21.9059C43.1924 21.9858 43.5041 22.0891 43.786 22.2187L43.0442 23.8343C42.8504 23.759 42.6492 23.6927 42.4413 23.6325C42.2331 23.5711 41.979 23.5416 41.6784 23.5416C40.9605 23.5416 40.3929 23.7786 39.9705 24.2511C39.5497 24.7239 39.3377 25.3603 39.3377 26.1587C39.3377 26.6318 39.4443 27.0144 39.6582 27.3071C39.8711 27.5998 40.2642 27.7454 40.835 27.7454C41.1168 27.7454 41.3886 27.7172 41.649 27.6622C41.9114 27.6065 42.143 27.5364 42.347 27.4536L42.5077 29.1097C42.2356 29.2108 41.9356 29.3021 41.6065 29.382C41.2767 29.4591 40.884 29.4992 40.4288 29.4992C39.8278 29.4992 39.3191 29.415 38.903 29.2491C38.4866 29.0807 38.1426 28.8571 37.8717 28.5738C37.5993 28.2899 37.4037 27.9584 37.2827 27.5778C37.1618 27.1977 37.1001 26.7982 37.1001 26.3814V26.3814Z" fill="#4D4D4D"></path><path d="M46.6555 29.4992C46.1421 29.4992 45.6962 29.4243 45.3179 29.2759C44.9407 29.1276 44.6283 28.9195 44.3812 28.6496C44.1338 28.3812 43.9486 28.063 43.8217 27.6964C43.6948 27.33 43.6338 26.9242 43.6338 26.4796C43.6338 25.9218 43.7273 25.3643 43.9163 24.8083C44.1043 24.2511 44.3834 23.7504 44.7527 23.3054C45.1191 22.8598 45.5711 22.4954 46.1034 22.2113C46.6351 21.9291 47.2466 21.7871 47.9335 21.7871C48.4376 21.7871 48.8812 21.8622 49.2646 22.0105C49.6463 22.1585 49.9607 22.3684 50.2093 22.6368C50.4551 22.9067 50.6419 23.2234 50.7675 23.5906C50.894 23.9563 50.9565 24.3631 50.9565 24.8081C50.9565 25.3641 50.8642 25.9217 50.6812 26.4794C50.498 27.0344 50.2261 27.5362 49.8672 27.9822C49.5091 28.4272 49.0612 28.7914 48.5232 29.0743C47.9859 29.3572 47.3629 29.4992 46.6555 29.4992V29.4992ZM47.7306 23.5418C47.4117 23.5418 47.1298 23.6304 46.8884 23.8056C46.6462 23.9828 46.4427 24.2055 46.2787 24.4742C46.1129 24.744 45.99 25.0382 45.9069 25.3581C45.8245 25.6786 45.7841 25.9817 45.7841 26.2695C45.7841 26.7341 45.8624 27.0959 46.0162 27.3563C46.1721 27.6153 46.4522 27.7456 46.8594 27.7456C47.1793 27.7456 47.4598 27.6576 47.7026 27.4806C47.9434 27.3047 48.1471 27.0818 48.3123 26.8127C48.4771 26.5442 48.6011 26.2491 48.6841 25.9287C48.7654 25.6092 48.8069 25.3045 48.8069 25.0171C48.8069 24.5537 48.729 24.1911 48.5738 23.931C48.4187 23.672 48.1374 23.5418 47.7306 23.5418Z" fill="#4D4D4D"></path><path d="M53.3004 29.3048H51.1476L52.9641 21.9835H55.1309L53.3004 29.3048V29.3048ZM54.3455 21.0915C54.0454 21.0915 53.7734 21.0059 53.5322 20.8344C53.29 20.6639 53.1683 20.4014 53.1683 20.0477C53.1683 19.8532 53.2101 19.6706 53.2921 19.4984C53.3741 19.3266 53.4834 19.1786 53.6194 19.0528C53.7546 18.928 53.9134 18.8283 54.0917 18.7532C54.2705 18.6793 54.4617 18.6423 54.6649 18.6423C54.9656 18.6423 55.2373 18.7279 55.4792 18.8995C55.7213 19.0718 55.8435 19.3343 55.8435 19.6861C55.8435 19.8814 55.8001 20.0646 55.7188 20.2364C55.6375 20.4083 55.5282 20.5563 55.3927 20.6821C55.2563 20.8071 55.0995 20.9064 54.9208 20.9808C54.7406 21.0559 54.5497 21.0915 54.3455 21.0915V21.0915Z" fill="#4D4D4D"></path><path d="M56.6811 22.3164C56.8444 22.2707 57.0267 22.2157 57.225 22.1559C57.424 22.0961 57.6464 22.0404 57.8947 21.9902C58.1404 21.9384 58.4176 21.8965 58.7225 21.864C59.0274 21.8309 59.3748 21.8147 59.7608 21.8147C60.8952 21.8147 61.6772 22.1311 62.109 22.7621C62.5404 23.393 62.615 24.2565 62.3351 25.351L61.3456 29.304H59.1804L60.1394 25.4342C60.1979 25.1925 60.2438 24.9589 60.2778 24.7307C60.312 24.5045 60.31 24.3051 60.27 24.1326C60.2318 23.9621 60.1417 23.8225 60.0019 23.7144C59.86 23.608 59.6456 23.5546 59.3547 23.5546C59.0742 23.5546 58.7889 23.5834 58.4976 23.6391L57.0877 29.3039H54.9217L56.6811 22.3164V22.3164Z" fill="#4D4D4D"></path></g><defs><clipPath id="clip0"><rect width="55" height="11" fill="white" transform="translate(7.50009 18.5)"></rect></clipPath></defs></svg> 