<?xml version="1.0" encoding="UTF-8"?> <svg xmlns="http://www.w3.org/2000/svg" width="75" height="75" viewBox="0 0 75 75" fill="none"><g clip-path="url(#clip0)"><path d="M72.6347 32.0291L61.5818 24.02C61.5576 23.9962 61.5277 23.9792 61.4956 23.9701C61.078 23.6851 60.584 23.5338 60.0783 23.5372L15.8169 23.5372C15.2779 23.5377 14.7516 23.706 14.3117 24.02L3.22104 32.0291C2.38493 32.6275 2.0004 33.6803 2.25375 34.6782C2.34479 35.0902 2.54426 35.4704 2.83025 35.7798L35.9484 72.2226C36.4022 72.7297 37.0426 73.0289 37.7221 73.0522H37.8327C38.55 73.0561 39.2359 72.7547 39.7208 72.2226L73.0081 35.7798C73.1767 35.6064 73.3149 35.4052 73.4164 35.1854C73.4527 35.1185 73.4817 35.0482 73.5033 34.9751C73.9138 33.9075 73.5571 32.6977 72.6347 32.0291Z" fill="#AED3DB"></path><path d="M37.7842 72.8663L37.7222 73.0522C37.0428 73.0289 36.4023 72.7297 35.9486 72.2226L2.83041 35.7798C2.54442 35.4704 2.34494 35.0902 2.25391 34.6782H26.8255L37.7842 72.8663Z" fill="#F7F7FC"></path><path d="M26.8255 34.6782H2.25389C2.00054 33.6804 2.38507 32.6275 3.22119 32.0291L14.3119 24.02L26.8255 34.6782Z" fill="#5eeaa7"></path><path d="M37.9477 23.5371L26.8255 34.6781L14.3119 24.0199C14.7517 23.706 15.2781 23.5377 15.8171 23.5371H37.9477Z" fill="#F7F7FC"></path><path d="M61.4957 23.9701L61.4708 24.02L48.9071 34.6782L37.9478 23.5372H60.0784C60.5841 23.5338 61.0782 23.6851 61.4957 23.9701Z" fill="#F7F7FC"></path><path d="M73.5031 34.9752C73.4815 35.0483 73.4526 35.1186 73.4163 35.1855L72.4433 34.6783H48.9068L59.2961 25.8645L61.4705 24.0201L61.4954 23.9702C61.5276 23.9793 61.5574 23.9963 61.5816 24.0201L72.6346 32.0292C73.5569 32.6979 73.9136 33.9077 73.5031 34.9752Z" fill="#F7F7FC"></path><path d="M68.7692 34.6783C68.7458 34.7786 68.7168 34.8777 68.6822 34.9752C68.6611 35.0483 68.6316 35.1186 68.5953 35.1854L67.6229 34.6783H48.9068L59.2961 25.8645L67.8136 32.0292C68.6475 32.6275 69.0272 33.6804 68.7692 34.6783Z" fill="#5eeaa7"></path><path d="M73.4163 35.1854C73.3148 35.4052 73.1766 35.6064 73.008 35.7798L39.7207 72.2226C39.2358 72.7547 38.5499 73.0561 37.8326 73.0522L37.7839 72.8663L39.2876 67.6922L48.9068 34.6782H72.4434L73.4163 35.1854Z" fill="#DCDDE3"></path><path d="M69.4477 34.6782L39.2876 67.6922L48.9069 34.6782H69.4477Z" fill="#F7F7FC"></path><path d="M56.4746 9.2519L49.6819 14.2283C48.6141 14.9649 47.1914 14.9043 46.1933 14.0798L46.1809 14.0673L37.9871 6.54102L36.1337 8.23702L29.7584 14.0673C28.7569 14.902 27.3261 14.9678 26.2566 14.2283L26.0475 14.0798L15.7949 6.54102L15.7716 16.5805C15.9149 17.8084 17.0055 18.6969 18.2328 18.5859H57.6861C58.9122 18.6969 60.0069 17.8084 60.1565 16.5805L60.1798 6.54102L56.4746 9.2519Z" fill="#5eeaa7"></path><path d="M60.1799 6.54077L60.1566 16.5802C60.007 17.8082 58.9123 18.6967 57.6862 18.5856H53.9872C55.2139 18.6967 56.3086 17.8082 56.4576 16.5802L56.4746 9.25165L60.1799 6.54077Z" fill="#F7F7FC"></path><path d="M56.4746 9.2519L56.4576 16.5805C56.3085 17.8084 55.2138 18.6969 53.9871 18.5859H18.2328C17.0055 18.6969 15.9149 17.8084 15.7716 16.5805L15.7949 6.54102L26.0475 14.0798L26.2566 14.2283C27.3261 14.9678 28.7569 14.902 29.7584 14.0673L36.1337 8.23702L37.9871 6.54102L46.1809 14.0673L46.1933 14.0798C47.1914 14.9043 48.6141 14.9649 49.6819 14.2283L56.4746 9.2519Z" fill="#5eeaa7"></path><path d="M18.2672 3.73085C18.2641 5.09819 17.157 6.20657 15.7957 6.20657C14.4338 6.20657 13.3319 5.09819 13.3351 3.73085C13.3382 2.36351 14.4453 1.25513 15.8072 1.25513C17.1685 1.25513 18.2704 2.36351 18.2672 3.73085Z" fill="#5eeaa7"></path><path d="M40.4596 3.73085C40.4564 5.09819 39.3499 6.20657 37.988 6.20657C36.6261 6.20657 35.5248 5.09819 35.5279 3.73085C35.5311 2.36351 36.6376 1.25513 37.9995 1.25513C39.3614 1.25513 40.4627 2.36351 40.4596 3.73085Z" fill="#5eeaa7"></path><path d="M62.6519 3.73085C62.6488 5.09819 61.5422 6.20657 60.1804 6.20657C58.8185 6.20657 57.7172 5.09819 57.7203 3.73085C57.7235 2.36351 58.83 1.25513 60.1919 1.25513C61.5537 1.25513 62.6551 2.36351 62.6519 3.73085Z" fill="#F7F7FC"></path><path d="M48.9072 34.6782L37.7843 72.8663L26.8257 34.6782H48.9072Z" fill="#DCDDE3"></path><path d="M48.9073 34.6781H26.8257L37.9479 23.5371L48.9073 34.6781Z" fill="#5eeaa7"></path><path d="M15.7958 6.20656C16.5063 6.20486 17.1821 5.8932 17.6467 5.35261C16.8271 4.42896 16.8303 3.03272 17.6542 2.10907C16.9101 1.24492 15.6713 1.00636 14.6581 1.53278C13.6449 2.05921 13.1219 3.21292 13.3919 4.32356C13.6625 5.43478 14.6557 6.21336 15.7958 6.20656Z" fill="white"></path><path d="M29.7583 14.0671L29.7436 14.0785L29.7459 14.0796L29.9555 14.2281" fill="white"></path><path d="M2.83025 35.7797L35.9484 72.2225C36.4022 72.7296 37.0426 73.0288 37.7221 73.0521H37.8327C38.532 73.0538 39.202 72.7659 39.684 72.2559C39.6716 72.244 39.6581 72.2349 39.6468 72.2225L6.52923 35.7797C6.24267 35.4703 6.04376 35.0901 5.95216 34.6781C5.69881 33.6802 6.08334 32.6274 6.92002 32.029L18.0101 24.0199C18.4505 23.706 18.9764 23.5377 19.5153 23.5371H15.8169C15.2779 23.5377 14.7516 23.706 14.3117 24.0199L3.22104 32.029C2.38493 32.6274 2.0004 33.6802 2.25375 34.6781C2.34479 35.0901 2.54426 35.4703 2.83025 35.7797Z" fill="white"></path><path d="M15.7716 16.5805C15.9149 17.8084 17.0055 18.6969 18.2328 18.5859H21.9312C20.7039 18.6969 19.6139 17.8084 19.47 16.5805L19.487 9.25586L15.7949 6.54102L15.7716 16.5805Z" fill="white"></path><path d="M3.73762 34.9468L14.5288 46.8205L36.8553 71.3833L35.0329 73.0544L12.7064 48.4916L1.9136 36.6178L3.73762 34.9468Z" fill="white"></path><path d="M9.28792 41.8578C9.20549 41.8697 9.12473 41.8924 9.04846 41.9258C8.97335 41.9473 8.90103 41.9802 8.8349 42.0221C8.76538 42.0669 8.69867 42.1168 8.63589 42.1712C8.39833 42.3956 8.25314 42.7021 8.2298 43.0285C8.20175 43.4456 8.38819 43.8468 8.72343 44.0927C9.05923 44.3386 9.49706 44.3947 9.88402 44.2417C10.0365 44.1873 10.1767 44.1035 10.2966 43.9941C10.6687 43.6569 10.8015 43.1277 10.6321 42.6545C10.4628 42.1819 10.025 41.8595 9.52444 41.8391L9.28792 41.8578Z" fill="#1D1D1F"></path><path d="M14.5602 7.21702L14.5385 16.5787C14.6734 18.4952 16.3192 19.9418 18.2299 19.8234L57.6833 19.8234C59.5929 19.9418 61.2453 18.4952 61.3892 16.5787L61.4109 7.21702C63.0089 6.65263 64.0239 5.07223 63.8755 3.3802C63.7276 1.6876 62.4536 0.314588 60.783 0.0465593C59.1119 -0.220902 57.4709 0.684048 56.7973 2.24462C56.1243 3.80519 56.5908 5.62302 57.9305 6.65887L48.9523 13.2196C48.3571 13.6129 47.5794 13.584 47.0178 13.1465L40.0827 6.7875C41.4196 5.86555 42.0054 4.17918 41.5287 2.62598C41.0515 1.07221 39.6226 0.0136934 38.0023 0.0136934C36.3825 0.0136934 34.9482 1.07221 34.4643 2.62598C33.9798 4.17918 34.5578 5.86555 35.8904 6.7875L28.9258 13.151C28.3616 13.5879 27.5843 13.6174 26.9915 13.2241L18.0432 6.6634C19.3894 5.63039 19.8671 3.81312 19.2031 2.25142C18.5396 0.689714 16.9033 -0.218069 15.231 0.0476927C13.5586 0.313454 12.2766 1.6842 12.118 3.3768C11.96 5.06883 12.9654 6.65093 14.5602 7.21702ZM60.1893 2.49338C60.8699 2.49338 61.4206 3.04757 61.419 3.73096C61.4174 4.41491 60.8642 4.9691 60.1835 4.9691C59.5023 4.9691 58.9516 4.41491 58.9532 3.73096C58.9548 3.04757 59.5081 2.49338 60.1893 2.49338ZM37.9965 2.49338C38.6777 2.49338 39.2284 3.04757 39.2268 3.73096C39.2252 4.41491 38.672 4.9691 37.9908 4.9691C37.3101 4.9691 36.7595 4.41491 36.761 3.73096C36.7626 3.04757 37.3159 2.49338 37.9965 2.49338ZM30.5837 14.9808L37.9832 8.21944L45.3514 14.9808C46.7781 16.2167 48.861 16.3187 50.406 15.2284L58.941 8.97989L58.9234 16.5787C58.9226 16.942 58.3939 17.3477 57.689 17.3477L18.2357 17.3477C17.5302 17.3477 17.0034 16.942 17.0043 16.5787L17.0219 8.97989L25.533 15.225C27.0707 16.3147 29.1518 16.2138 30.5837 14.9808ZM15.8043 2.49338C16.485 2.49338 17.0357 3.04757 17.0341 3.73096C17.0325 4.41491 16.4793 4.9691 15.7986 4.9691C15.1174 4.9691 14.5667 4.41491 14.5683 3.73096C14.5699 3.04757 15.1231 2.49338 15.8043 2.49338Z" fill="#1D1D1F"></path><path d="M1.17917 35.3809C1.34234 35.8376 1.59308 36.2581 1.9162 36.619L5.23647 40.2717C5.6987 40.7585 6.46451 40.7845 6.95997 40.3295C7.45542 39.875 7.49953 39.1072 7.05879 38.6006L4.61785 35.9158H25.8969L35.7078 70.1209L13.6948 45.9065C13.4061 45.5507 12.9448 45.3846 12.4959 45.4759C12.047 45.5665 11.685 45.8997 11.5553 46.3406C11.4251 46.782 11.5493 47.258 11.877 47.5782L35.0316 73.0522C35.6537 73.7248 36.4981 74.1481 37.4083 74.2433C37.5098 74.2711 37.6147 74.2864 37.7203 74.2875C37.735 74.2875 37.7485 74.2813 37.7643 74.2813H37.8162H37.8422C38.9021 74.2779 39.914 73.8285 40.6314 73.0437L73.9182 36.6179C74.6441 35.8246 74.9971 34.7587 74.8889 33.6889C74.7802 32.619 74.2209 31.6478 73.3521 31.021L62.3053 23.0182C61.6602 22.5501 60.8842 22.2979 60.0873 22.2991L15.8136 22.2991C15.0832 22.3013 14.3688 22.5161 13.7566 22.9179H13.7493C13.6973 22.953 13.6408 22.9791 13.5899 23.0159L2.506 31.021C1.63425 31.6506 1.07043 32.623 0.9562 33.694C0.928468 33.9705 0.93177 34.2498 0.965557 34.5258C0.951332 34.5757 0.941055 34.6267 0.934162 34.6782C0.93978 34.9327 1.02556 35.1786 1.17917 35.3809ZM37.7892 68.4226L28.4648 35.9158H47.2633L37.7892 68.4226ZM29.8048 33.4401L37.9435 25.2922L45.9558 33.4401H29.8048ZM40.9037 24.7748H58.6824L48.9898 32.993L40.9037 24.7748ZM26.7604 32.997L17.1008 24.7748H34.9687L26.7604 32.997ZM39.8116 70.2965L49.8313 35.9158H71.2198L39.8116 70.2965ZM72.2764 33.4401H52.2769L61.5827 25.55L71.9083 33.0304C72.0593 33.1386 72.1848 33.278 72.2764 33.4401ZM14.2437 25.5919L23.4628 33.4401H3.57328C3.66565 33.278 3.7924 33.1381 3.9439 33.0304L14.2437 25.5919Z" fill="#1D1D1F"></path></g><defs><clipPath id="clip0"><rect width="73.9899" height="74.2878" fill="white" transform="matrix(1 0 -0.00232068 0.999997 1 0)"></rect></clipPath></defs></svg> 