<?xml version="1.0" encoding="UTF-8"?> <!-- Generator: Adobe Illustrator 22.0.0, SVG Export Plug-In . SVG Version: 6.00 Build 0) --> <svg xmlns="http://www.w3.org/2000/svg" xmlns:xlink="http://www.w3.org/1999/xlink" version="1.1" id="Layer_1" x="0px" y="0px" width="190.4px" height="118.7px" viewBox="0 0 190.4 118.7" style="enable-background:new 0 0 190.4 118.7;" xml:space="preserve"> <style type="text/css"> .st0{fill:#AED3DB;} .st1{fill:#F7F7FC;} .st2{fill:#5eeaa7;} .st3{fill:#DCDDE3;} .st4{fill:#5eeaa7;} .st5{fill:#FFFFFF;} .st6{fill:#1D1D1F;} </style> <g> <path class="st0" d="M186.4,39l-17.9-6.8c0,0-0.1,0-0.1,0c-0.7-0.2-1.4-0.3-2.1-0.1l-60,16.1c-0.7,0.2-1.4,0.6-1.9,1.2L92.3,64.4 c-0.9,1.1-1.1,2.7-0.3,3.9c0.3,0.5,0.7,1,1.2,1.3l58.2,37.3c0.8,0.5,1.8,0.7,2.7,0.5l0.2,0c1-0.3,1.8-0.9,2.3-1.8L188.3,44 c0.2-0.3,0.3-0.6,0.3-1c0-0.1,0-0.2,0-0.3C188.8,41.1,187.9,39.6,186.4,39z"></path> <path class="st1" d="M154.1,107.1l0,0.3c-0.9,0.2-1.9,0-2.7-0.5L93.2,69.6c-0.5-0.3-0.9-0.8-1.2-1.3l33.3-9L154.1,107.1z"></path> <path class="st2" d="M125.3,59.3l-33.3,9c-0.7-1.3-0.6-2.8,0.3-3.9l12.1-14.9L125.3,59.3z"></path> <path class="st1" d="M136.3,40.2l-11,19.2l-20.8-9.9c0.5-0.6,1.1-1,1.9-1.2L136.3,40.2z"></path> <path class="st1" d="M168.4,32.2L168.4,32.2l-13.2,19.1l-18.9-11.1l30-8.1C167,31.9,167.7,32,168.4,32.2z"></path> <path class="st1" d="M188.6,42.7c0,0.1,0,0.2,0,0.3l-1.5-0.3l-31.9,8.6l10.9-15.7l2.3-3.3l0-0.1c0,0,0.1,0,0.1,0l17.9,6.8 C187.9,39.6,188.8,41.1,188.6,42.7z"></path> <path class="st2" d="M182.1,44c0,0.1,0,0.3,0,0.4c0,0.1,0,0.2,0,0.3l-1.5-0.3l-25.4,6.8l10.9-15.7l13.8,5.2 C181.2,41.3,182.1,42.6,182.1,44z"></path> <path class="st3" d="M188.6,43c-0.1,0.3-0.2,0.7-0.3,1l-31.8,61.5c-0.5,0.9-1.3,1.6-2.3,1.8l-0.1-0.2l0.1-7.6l1-48.2l31.9-8.6 L188.6,43z"></path> <path class="st1" d="M183,43.8l-28.8,55.7l1-48.2L183,43.8z"></path> <path class="st4" d="M156.2,14.1l-7.4,9.2c-1.2,1.4-3.1,1.8-4.8,1.1l0,0l-13.8-7.2l-1.9,3l-6.5,10.2c-1.1,1.5-3,2.1-4.7,1.5 l-0.3-0.1l-16.6-6.5l3.6,13.6c0.6,1.6,2.4,2.4,4.1,1.8l53.5-14.4c1.7-0.3,2.9-1.9,2.6-3.6L160.2,9L156.2,14.1z"></path> <path class="st1" d="M160.2,9l3.6,13.6c0.2,1.7-0.9,3.3-2.6,3.6l-5,1.3c1.7-0.3,2.9-1.9,2.6-3.6l-2.7-9.9L160.2,9z"></path> <path class="st4" d="M156.2,14.1l2.7,9.9c0.2,1.7-0.9,3.3-2.6,3.6l-48.4,13c-1.6,0.6-3.4-0.2-4.1-1.8l-3.6-13.6l16.6,6.5l0.3,0.1 c1.7,0.6,3.6,0,4.7-1.5l6.5-10.2l1.9-3l13.8,7.2l0,0c1.7,0.8,3.6,0.3,4.8-1.1L156.2,14.1z"></path> <path class="st4" d="M102.4,20.5c0.5,1.9-0.6,3.8-2.4,4.3c-1.8,0.5-3.7-0.6-4.2-2.5c-0.5-1.9,0.6-3.8,2.4-4.3 C100,17.6,101.9,18.7,102.4,20.5z"></path> <path class="st4" d="M132.5,12.4c0.5,1.9-0.6,3.8-2.4,4.3c-1.8,0.5-3.7-0.6-4.2-2.5c-0.5-1.9,0.6-3.8,2.4-4.3 C130.1,9.5,132,10.6,132.5,12.4z"></path> <path class="st1" d="M162.5,4.3c0.5,1.9-0.6,3.8-2.4,4.3c-1.8,0.5-3.7-0.6-4.2-2.5c-0.5-1.9,0.6-3.8,2.4-4.3 C160.1,1.4,162,2.5,162.5,4.3z"></path> <path class="st3" d="M155.2,51.3l-1.1,55.8l-28.8-47.7L155.2,51.3z"></path> <path class="st2" d="M155.2,51.3l-29.9,8.1l11-19.2L155.2,51.3z"></path> <path class="st5" d="M100,24.8c1-0.3,1.8-0.9,2.2-1.8c-1.4-1-2-2.8-1.2-4.4c-1.3-0.9-3.1-0.8-4.3,0.3c-1.2,1.1-1.5,2.8-0.7,4.2 C96.8,24.5,98.4,25.2,100,24.8z"></path> <path class="st5" d="M121.7,30.3L121.7,30.3L121.7,30.3l0.3,0.1"></path> <path class="st5" d="M93.2,69.6l58.2,37.3c0.8,0.5,1.8,0.7,2.7,0.5l0.2,0c0.9-0.3,1.8-0.9,2.2-1.8c0,0,0,0-0.1,0L98.2,68.2 c-0.5-0.3-0.9-0.8-1.2-1.3c-0.7-1.3-0.6-2.8,0.3-3.9l12.1-14.9c0.5-0.6,1.1-1,1.9-1.2l-5,1.3c-0.7,0.2-1.4,0.6-1.9,1.2L92.3,64.4 c-0.9,1.1-1.1,2.7-0.3,3.9C92.3,68.8,92.7,69.3,93.2,69.6z"></path> <path class="st5" d="M103.7,38.8c0.6,1.6,2.4,2.4,4.1,1.8l5-1.3c-1.6,0.6-3.4-0.2-4.1-1.8l-2.6-9.9l-6-2.3L103.7,38.8z"></path> <path class="st5" d="M94.1,68.1l19,12.2l39.2,25.1l-1.9,2.9l-39.2-25.1l-19-12.2L94.1,68.1z"></path> <path class="st6" d="M104.1,75.5c-0.1,0-0.2,0.1-0.3,0.2c-0.1,0.1-0.2,0.1-0.3,0.2c-0.1,0.1-0.2,0.2-0.2,0.3 c-0.2,0.4-0.3,0.9-0.2,1.3c0.1,0.6,0.5,1.1,1.1,1.3c0.5,0.2,1.2,0.1,1.6-0.2c0.2-0.1,0.3-0.3,0.5-0.5c0.4-0.6,0.4-1.4,0-1.9 c-0.4-0.6-1.1-0.9-1.8-0.7L104.1,75.5z"></path> <path class="st6" d="M98.6,26.6l3.4,12.7c0.9,2.5,3.6,3.9,6.2,3L161.7,28c2.6-0.5,4.3-3.1,3.8-5.7l-3.4-12.7c2-1.3,2.8-3.9,1.9-6.1 c-0.8-2.2-3-3.6-5.4-3.4c-2.4,0.2-4.3,2.1-4.6,4.4c-0.3,2.4,1,4.7,3.1,5.6l-9.8,12.2c-0.7,0.8-1.7,1-2.6,0.6l-11.7-6.1 c1.5-1.7,1.7-4.2,0.4-6.2c-1.2-1.9-3.5-2.8-5.7-2.3c-2.2,0.6-3.8,2.5-3.8,4.8c-0.1,2.3,1.3,4.4,3.4,5.1l-7.1,11.2 c-0.6,0.8-1.6,1.1-2.6,0.8l-14.5-5.6c1.4-1.9,1.4-4.5,0-6.4c-1.5-1.9-4-2.5-6.2-1.5c-2.2,1-3.4,3.3-3,5.6 C94.3,24.6,96.3,26.4,98.6,26.6z M158.7,3.6c0.9-0.2,1.9,0.3,2.1,1.2c0.2,0.9-0.3,1.9-1.2,2.1c-0.9,0.2-1.9-0.3-2.1-1.2 C157.3,4.8,157.8,3.8,158.7,3.6z M128.7,11.7c0.9-0.2,1.9,0.3,2.1,1.2c0.2,0.9-0.3,1.9-1.2,2.1c-0.9,0.2-1.9-0.3-2.1-1.2 C127.2,12.9,127.8,11.9,128.7,11.7z M123.2,31.3l7.6-11.9l12.4,6.5c2.4,1.2,5.2,0.5,6.9-1.5l9.3-11.6l2.7,10.3 c0.1,0.5-0.4,1.2-1.4,1.5L107.3,39c-1,0.3-1.8-0.1-1.9-0.6l-2.7-10.3l13.8,5.4C118.9,34.4,121.7,33.5,123.2,31.3z M98.6,19.7 c0.9-0.2,1.9,0.3,2.1,1.2c0.2,0.9-0.3,1.9-1.2,2.1c-0.9,0.2-1.9-0.3-2.1-1.2C97.1,21,97.7,20,98.6,19.7z"></path> <path class="st6" d="M90.8,69.6c0.4,0.6,0.9,1,1.5,1.4l5.8,3.7c0.8,0.5,1.9,0.2,2.4-0.6c0.5-0.8,0.3-1.9-0.5-2.4l-4.3-2.7l28.8-7.8 l25.8,42.8l-38.7-24.8c-0.5-0.4-1.2-0.4-1.8-0.1c-0.6,0.3-0.9,0.9-1,1.5c0,0.6,0.3,1.2,0.9,1.6l40.7,26.1c1.1,0.7,2.4,1,3.7,0.7 c0.1,0,0.3,0,0.4-0.1c0,0,0,0,0.1,0l0.1,0l0,0c1.4-0.4,2.6-1.4,3.3-2.7l31.8-61.5c0.7-1.3,0.8-2.9,0.2-4.3 c-0.5-1.4-1.6-2.5-3.1-3.1l-17.9-6.8c-1-0.4-2.2-0.5-3.3-0.2l-60,16.1c-1,0.3-1.9,0.8-2.6,1.6l0,0c-0.1,0.1-0.1,0.1-0.2,0.2 L91,63.3c-1,1.2-1.4,2.7-1.1,4.2c0.1,0.4,0.2,0.8,0.3,1.1c0,0.1,0,0.1,0,0.2C90.3,69.1,90.5,69.4,90.8,69.6z M152.4,101.1L128,60.4 l25.5-6.9L152.4,101.1z M128.9,56.6l8.1-14l13.8,8.1L128.9,56.6z M140.7,40.8l24.1-6.5L154.7,49L140.7,40.8z M124.6,57.1l-16.1-7.6 l24.2-6.5L124.6,57.1z M155.9,102.9l1-50.2l29-7.8L155.9,102.9z M186.4,41.1l-27.1,7.3l9.7-14.1l16.7,6.4 C186,40.8,186.2,40.9,186.4,41.1z M104.9,51.6l15.4,7.3l-27,7.3c0.1-0.3,0.2-0.5,0.4-0.7L104.9,51.6z"></path> </g> <g> <path class="st3" d="M89.1,117.2H1.5c19.7,0,56.7-33.4,65.8-42c0.1-0.1,0.1-0.1,0.2-0.2c1.1-1.1,2.9-1.1,4.1-0.1 C76.7,79.6,89.1,93.1,89.1,117.2z"></path> <path class="st1" d="M84.5,117.2h-83c19.7,0,56.7-33.4,65.8-42C72.6,80,84.5,93.5,84.5,117.2z"></path> <path class="st3" d="M40.4,75c-5.5,5.2-22.2,20.4-38.9,31.1v11.1c14.2,0,37.3-17.3,52.6-30.2c-2.6-4.5-5.8-8.5-9.6-12 C43.3,74,41.5,74,40.4,75z"></path> <path class="st2" d="M77,97.5c-3-3-6.3,0.2-6.3,0.2s3.2-3.2,0.2-6.3c-3-3-7.3-0.8-8.3,0.3c-5.4,5.4,1.7,12.5-3.7,17.9 c5.4-5.4,12.4,1.7,17.8-3.8C77.8,104.8,80,100.5,77,97.5z"></path> <path class="st4" d="M42.3,91.4c-3-3-7.3-0.8-8.3,0.3c-3.6,3.6-1.7,7.9-1.6,12c3.7-2.5,7.4-5.2,10.9-7.9 C43.9,94.3,43.5,92.5,42.3,91.4z"></path> <path class="st4" d="M19.6,29.3l6.5,10.2l11.6,3.1L30.2,52l0.7,12.1l-11.2-4.4L8.4,64.1L9.1,52l-7.6-9.4l11.6-3.1L19.6,29.3z"></path> <path class="st5" d="M9.6,116.9c0.1,0,0.3,0,0.4-0.1C9.9,116.8,9.8,116.9,9.6,116.9z"></path> <path class="st5" d="M7.7,117.1c0.2,0,0.3,0,0.5-0.1C8.1,117.1,7.9,117.1,7.7,117.1z"></path> <path class="st5" d="M11.9,116.4c0.1,0,0.2-0.1,0.4-0.1C12.2,116.3,12,116.4,11.9,116.4z"></path> <path class="st5" d="M13.9,115.8l0.5-0.2L13.9,115.8z"></path> <path class="st5" d="M25.6,110.7l0.3-0.2L25.6,110.7z"></path> <path class="st5" d="M16.3,115L16.3,115L16.3,115z"></path> <path class="st5" d="M20.8,113.1l0.3-0.2L20.8,113.1z"></path> <path class="st5" d="M18.5,114.1l0.4-0.2L18.5,114.1z"></path> <path class="st5" d="M8.4,64.1l4.6-1.8L13.6,52L6,42.6l11.6-3.1l4.2-6.7l-2.3-3.6l-6.5,10.2L1.5,42.6L9.1,52L8.4,64.1z"></path> <path class="st5" d="M6,106.1C22.5,95.6,39,80.6,44.7,75.3c-0.1-0.1-0.2-0.2-0.2-0.2c-1.2-1.1-2.9-1-4.1,0 c-5.5,5.2-22.2,20.4-38.8,31.1v11.1H6V106.1z M3.7,117.1c-0.2,0-0.3,0-0.5,0.1C3.4,117.1,3.5,117.1,3.7,117.1z M5.5,116.8 c-0.1,0-0.3,0-0.4,0.1C5.3,116.9,5.4,116.8,5.5,116.8z"></path> <path class="st5" d="M21.9,60.6l8.9,3.5l-0.1-1.8l-6.6-2.6L21.9,60.6z"></path> <path class="st5" d="M0.7,104.9c5.4-3.5,10.7-7.3,15.9-11.4c7.9-6.2,15.5-12.7,22.8-19.6l2.1,2.2c-7.4,6.9-15.1,13.5-23,19.7 c-5.2,4.1-10.5,7.9-16.1,11.5L0.7,104.9z"></path> <path class="st6" d="M72.6,73.9c-1.7-1.6-4.4-1.5-6.1,0.1c-2,1.9-6.4,5.9-12.1,10.8c-2.5-4-5.5-7.7-9-10.8 c-1.7-1.6-4.4-1.6-6.1,0.1C32,80.8,24.4,87.3,16.6,93.5l-1.2,0.9c-0.7,0.5-0.8,1.5-0.3,2.1c0.5,0.7,1.5,0.8,2.1,0.3l1.2-0.9 c8-6.2,15.6-12.8,23-19.7c0.6-0.5,1.5-0.5,2,0c3.4,3.1,6.3,6.6,8.7,10.5c-2.3,1.9-4.8,3.9-7.3,6c-0.3-0.9-0.8-1.6-1.4-2.3 c-3.6-3.6-8.7-1.5-10.5,0.3c-3.2,3.2-2.7,7-2.3,10.2c0.1,0.7,0.2,1.4,0.2,2l-0.3,0.2l-0.9,0.6c-9.9,6.5-18.2,10.5-24.6,11.7h0 c-0.6,0.1-1.3,0.2-1.9,0.3c0,0-0.1,0-0.2,0V107c1.5-1,2.9-1.9,4.4-2.9c0.3-0.2,0.6-0.6,0.6-1c0.1-0.4,0-0.8-0.2-1.1 c-0.5-0.7-1.4-0.9-2.1-0.4c-1.6,1.2-3.3,2.2-5,3.3l0,0c-0.4,0.3-0.7,0.7-0.7,1.3v11.1c0,0.8,0.7,1.5,1.5,1.5h87.6 c0.8,0,1.5-0.7,1.5-1.5C90.6,92.6,78,78.7,72.6,73.9z M35,92.8c1-0.8,2.3-1.3,3.6-1.4c1,0,1.9,0.4,2.6,1.1c0.7,0.6,1,1.5,0.8,2.3 c-1.8,1.4-3.7,2.8-5.5,4.1c-0.5,0.3-0.9,0.7-1.4,1c-0.5,0.3-1,0.7-1.5,1c0-0.2,0-0.3-0.1-0.5C33.2,97.5,32.8,95,35,92.8z M14.2,115.7c0.2-0.1,0.3-0.1,0.5-0.2c0.3-0.2,0.7-0.3,1-0.5c0.3-0.1,0.5-0.2,0.8-0.4c0.3-0.1,0.6-0.3,1-0.5 c0.3-0.2,0.6-0.3,0.9-0.4c0.3-0.1,0.6-0.3,0.8-0.4c0.4-0.2,0.7-0.4,1.1-0.5c0.2-0.1,0.4-0.2,0.6-0.3c18.7-10,40-29.1,47.7-36.3 c0.6-0.5,1.5-0.5,2,0c5,4.5,16.5,17.2,16.9,39.6H14.2z"></path> <path class="st6" d="M11.7,97.8c-0.4-0.1-0.8,0-1.1,0.3c-0.3,0.2-0.5,0.6-0.6,1l0,0.3c0,0.1,0,0.2,0,0.3c0,0.1,0,0.2,0.1,0.3 c0,0.1,0.1,0.2,0.2,0.3c0.2,0.3,0.6,0.5,1,0.6c0.2,0,0.4,0,0.6,0c0.4-0.1,0.7-0.3,0.9-0.7c0.2-0.3,0.3-0.8,0.2-1.2 c0-0.2-0.1-0.4-0.2-0.5C12.4,98,12.1,97.8,11.7,97.8z"></path> <path class="st6" d="M72,90.4c-1.6-1.6-4-2.3-6.3-1.8c-1.6,0.3-3,1-4.2,2.1c-3.2,3.2-2.7,7-2.3,10.2c0.4,3,0.7,5.5-1.4,7.7 c-0.4,0.4-0.5,0.9-0.4,1.5c0.1,0.5,0.6,0.9,1.1,1.1c0.5,0.1,1.1,0,1.5-0.4c2.2-2.2,4.7-1.8,7.6-1.4c3.3,0.4,7,0.9,10.2-2.3 c1.8-1.8,3.8-7,0.3-10.5c-1.1-1.2-2.7-1.8-4.3-1.7C73.8,93.1,73.2,91.5,72,90.4z M75.9,98.6c2.4,2.4,0.1,5.8-0.3,6.2 c-2.2,2.2-4.7,1.8-7.6,1.4c-1.2-0.2-2.4-0.3-3.6-0.3c-0.7,0-1.3,0.1-2,0.2c0.2-1.9,0.2-3.8-0.2-5.6c-0.4-3-0.7-5.5,1.4-7.7 c0.8-0.6,1.7-1.1,2.7-1.3c1.3-0.3,2.6,0.1,3.5,1c0.6,0.6,0.8,1.3,0.8,2.1c0,0.8-0.4,1.5-1,2c0,0,0,0,0,0c-0.5,0.6-0.5,1.5,0.1,2.1 c0.6,0.6,1.5,0.6,2.1,0c0.5-0.6,1.2-1,2-1C74.6,97.7,75.4,98,75.9,98.6z"></path> <path class="st6" d="M39.2,42.1c-0.2-0.5-0.6-0.9-1-1l-11-3l-6.2-9.7c-0.3-0.4-0.8-0.7-1.3-0.7c-0.5,0-1,0.2-1.3,0.7l-6.2,9.7 l-11,3c-0.5,0.1-0.9,0.5-1,1c-0.2,0.5-0.1,1,0.3,1.4l7.2,9L6.9,64.1c0,0.5,0.2,1,0.6,1.3c0.4,0.3,1,0.4,1.4,0.2l10.6-4.2l10.6,4.2 c0.5,0.2,1,0.1,1.4-0.2c0.4-0.3,0.6-0.8,0.6-1.3l-0.6-11.6l7.2-9C39.2,43.1,39.3,42.6,39.2,42.1z M29,51c-0.2,0.3-0.4,0.7-0.3,1 l0.5,9.8l-9-3.5c-0.4-0.1-0.7-0.1-1.1,0l-9,3.5l0.5-9.8c0-0.4-0.1-0.7-0.3-1l-6.1-7.6l9.4-2.5c0.4-0.1,0.7-0.3,0.9-0.6l5.2-8.2 l5.2,8.2c0.2,0.3,0.5,0.6,0.9,0.6l9.4,2.5L29,51z"></path> <path class="st6" d="M44.8,32.7c-0.6-0.6-1.5-0.6-2.1,0l-3,3c-0.4,0.4-0.6,0.9-0.4,1.5c0.1,0.5,0.6,0.9,1.1,1.1 c0.5,0.1,1.1,0,1.5-0.4l3-3C45.4,34.3,45.4,33.3,44.8,32.7z"></path> <path class="st6" d="M43.8,42.9h3c0.8,0,1.5-0.7,1.5-1.5c0-0.8-0.7-1.5-1.5-1.5h-3c-0.8,0-1.5,0.7-1.5,1.5 C42.3,42.2,42.9,42.9,43.8,42.9z"></path> </g> </svg> 