<?xml version="1.0" encoding="UTF-8"?> <svg xmlns="http://www.w3.org/2000/svg" width="70" height="48" viewBox="0 0 70 48" fill="none"><rect x="0.500092" y="0.5" width="69" height="47" rx="5.5" fill="white" stroke="white"></rect><path d="M6.48227 23.8494C5.7881 23.8589 5.19853 24.1252 4.71356 24.6386C4.22859 25.1521 3.99086 25.7798 4.00037 26.5024C4.00988 27.2251 4.26662 27.8432 4.7611 28.3472C5.25558 28.8512 5.85466 29.0985 6.54883 29.089C7.25251 29.0794 7.84208 28.8132 8.32705 28.2997C8.81202 27.7862 9.04024 27.1586 9.03073 26.4264C9.02122 25.6942 8.77398 25.0761 8.27951 24.5721C7.78503 24.0871 7.18595 23.8399 6.48227 23.8494Z" fill="#FF671B"></path><path d="M32.2522 20.4834C30.5501 20.4834 29.1047 21.0635 27.9255 22.2236C26.7464 23.3837 26.1568 24.8006 26.1568 26.4742C26.1568 28.1288 26.7369 29.5457 27.916 30.7153C29.0856 31.8849 30.5025 32.4745 32.1571 32.4745C33.8212 32.4745 35.2381 31.8944 36.4077 30.7248C37.5679 29.5552 38.1574 28.1478 38.1574 26.4742C38.1574 24.8386 37.5774 23.4313 36.4268 22.2521C35.2571 21.073 33.8688 20.4834 32.2522 20.4834ZM33.9639 28.3095C33.4789 28.823 32.8893 29.0892 32.1857 29.0987C31.4915 29.1082 30.9019 28.861 30.3979 28.3475C29.8939 27.8435 29.6467 27.2254 29.6372 26.5027C29.6277 25.78 29.8654 25.1524 30.3504 24.6389C30.8353 24.1159 31.4249 23.8592 32.1191 23.8497C32.8228 23.8401 33.4218 24.0874 33.9163 24.5914C34.4108 25.0954 34.658 25.7135 34.6676 26.4457C34.6771 27.1684 34.4393 27.796 33.9639 28.3095Z" fill="#221F1F"></path><path d="M19.3387 20.4832C18.3498 20.4832 17.4559 20.6829 16.6476 21.0633V17.5259H13.2433V26.4645C13.2433 28.1191 13.8329 29.536 15.0025 30.7056C16.1721 31.8753 17.589 32.4648 19.2436 32.4648C20.9077 32.4648 22.3246 31.8848 23.4942 30.7152C24.6544 29.555 25.2439 28.1382 25.2439 26.4645C25.2439 24.829 24.6639 23.4216 23.5133 22.2424C22.3436 21.0728 20.9553 20.4832 19.3387 20.4832ZM21.0218 28.3283C20.5369 28.8418 19.9378 29.0891 19.2341 29.0891C18.5399 29.0891 17.9504 28.8323 17.4559 28.3188C16.9614 27.8053 16.7142 27.1872 16.7142 26.4645C16.7142 25.7418 16.9614 25.1237 17.4464 24.6102C17.9409 24.0967 18.5304 23.84 19.2246 23.84C19.9283 23.84 20.5179 24.0967 21.0123 24.6007C21.4973 25.1142 21.7445 25.7323 21.7445 26.4645C21.754 27.1967 21.5068 27.8244 21.0218 28.3283Z" fill="#221F1F"></path><path d="M50.5194 20.778H46.7442L42.7123 26.3219V17.5354H39.3175V32.2081H41.9611L44.9089 28.2618L47.7712 32.1986H51.6795L46.8298 25.7038L50.5194 20.778Z" fill="#221F1F"></path><path d="M59.905 20.7686V26.4741C59.905 27.2063 59.5816 27.8244 59.0872 28.3379C58.6022 28.8514 58.0031 29.0986 57.2994 29.0986C56.6053 29.0986 56.0157 28.8419 55.5212 28.3284C55.0267 27.8149 54.7034 27.1968 54.7034 26.4741V20.7781H51.2991V26.4741C51.2991 28.1287 51.8887 29.5456 53.0583 30.7152C54.228 31.8848 55.6448 32.4744 57.2994 32.4744C58.9635 32.4744 60.3804 31.8943 61.5405 30.7247C62.7102 29.5646 63.2902 28.1477 63.2902 26.4741V20.7686H59.905V20.7686Z" fill="#221F1F"></path></svg> 