<svg width="83" height="78" viewBox="0 0 83 78" fill="none" xmlns="http://www.w3.org/2000/svg">
<path d="M62.5503 9.10327H26.4585V54.7178H62.5503V9.10327Z" fill="#5EEAA7"/>
<path d="M62.5504 55.3726H26.426C26.068 55.3726 25.7751 55.0779 25.7751 54.7177V9.10315C25.7751 8.74295 26.068 8.44824 26.426 8.44824H62.5504C62.9084 8.44824 63.2013 8.74295 63.2013 9.10315V54.7177C63.2013 55.0779 62.9084 55.3726 62.5504 55.3726ZM27.1095 54.0628H61.9321V9.75806H27.1095V54.0628Z" fill="#5E34FF"/>
<path d="M62.7456 47.5136H57.7663H52.1686C52.1686 47.3826 52.2011 47.2189 52.2011 47.0879V33.0073H36.8727V47.0879C36.8727 47.2189 36.8727 47.3826 36.9052 47.5136H31.275H26.2957C20.9259 47.5136 16.5649 51.9015 16.5649 57.3045V77.3448H72.4438V57.3045C72.4438 51.9015 68.1154 47.5136 62.7456 47.5136Z" fill="#F3FCF8"/>
<path d="M26.2957 47.5137H29.7129C24.3431 47.5137 19.9821 51.9016 19.9821 57.3046V77.3449H16.5649V57.3046C16.5649 51.9016 20.9259 47.5137 26.2957 47.5137Z" fill="white"/>
<path d="M72.4438 77.9998H16.565C16.207 77.9998 15.9141 77.7051 15.9141 77.3449V57.3046C15.9141 51.5414 20.5679 46.8588 26.2958 46.8588H36.1893V33.0075C36.1893 32.6472 36.4822 32.3525 36.8402 32.3525H52.1686C52.5266 32.3525 52.8195 32.6472 52.8195 33.0075V46.8588H62.713C68.4408 46.8588 73.0947 51.5414 73.0947 57.3046V77.3449C73.0947 77.7051 72.8018 77.9998 72.4438 77.9998ZM17.2158 76.69H71.7929V57.3046C71.7929 52.2618 67.7249 48.1686 62.713 48.1686H52.1361C51.9408 48.1686 51.7781 48.1031 51.6479 47.9722C51.5177 47.8412 51.4526 47.6775 51.4852 47.481V47.35C51.4852 47.2518 51.4852 47.1863 51.4852 47.088V33.6624H37.4585V47.088C37.4585 47.1863 37.4585 47.2518 37.4585 47.35V47.481C37.4585 47.6447 37.3934 47.8412 37.2958 47.9722C37.1656 48.1031 37.0029 48.1686 36.8076 48.1686H26.2958C21.2839 48.1686 17.2158 52.2618 17.2158 57.3046V76.69Z" fill="#5E34FF"/>
<path d="M36.8729 47.5137L44.5208 52.5565L37.6865 61.9545H32.5444V47.5137H36.8729Z" fill="#F3FCF8"/>
<path d="M52.1685 47.5137L44.5205 52.5565L51.3223 61.9545H56.4643V47.5137H52.1685Z" fill="#F3FCF8"/>
<path d="M37.6865 62.6095H32.5444C32.1865 62.6095 31.8936 62.3148 31.8936 61.9546V47.5138C31.8936 47.1536 32.1865 46.8589 32.5444 46.8589H36.8729C37.003 46.8589 37.1332 46.8916 37.2308 46.9571L44.8788 51.9999C45.0415 52.0982 45.1392 52.2619 45.1717 52.4256C45.2042 52.5894 45.1717 52.7858 45.0415 52.9168L38.2072 62.3148C38.1095 62.5113 37.9143 62.6095 37.6865 62.6095ZM33.1953 61.2997H37.361L43.577 52.7203L36.6776 48.136H33.1953V61.2997Z" fill="#5E34FF"/>
<path d="M56.4646 62.6095H51.3226C51.1273 62.6095 50.932 62.5112 50.8019 62.3475L43.9675 52.9495C43.8699 52.8185 43.8048 52.6221 43.8373 52.4583C43.8699 52.2946 43.9675 52.1309 44.1302 52.0327L51.7782 46.9898C51.8758 46.9243 52.006 46.8916 52.1362 46.8916H56.4646C56.8226 46.8916 57.1155 47.1863 57.1155 47.5465V61.9873C57.1155 62.3148 56.8226 62.6095 56.4646 62.6095ZM51.648 61.2997H55.8137V48.1687H52.3314L45.432 52.7531L51.648 61.2997Z" fill="#5E34FF"/>
<path d="M55.5208 47.5137C55.5208 53.7353 52.5593 59.5968 47.5474 63.2643L44.5208 65.4582L41.4942 63.2643C36.4823 59.5968 33.5208 53.7681 33.5208 47.5137H26.2959V77.3449H44.5208H62.7457V47.5137H55.5208Z" fill="white"/>
<path d="M62.7457 77.9999H26.2959C25.9379 77.9999 25.645 77.7052 25.645 77.345V47.5138C25.645 47.1536 25.9379 46.8589 26.2959 46.8589H33.5208C33.8788 46.8589 34.1717 47.1536 34.1717 47.5138C34.1717 53.5062 37.0681 59.204 41.8847 62.7077L44.5208 64.6397L47.1569 62.7077C51.9735 59.1712 54.87 53.5062 54.87 47.5138C54.87 47.1536 55.1629 46.8589 55.5209 46.8589H62.7457C63.1037 46.8589 63.3966 47.1536 63.3966 47.5138V77.345C63.3966 77.7052 63.1037 77.9999 62.7457 77.9999ZM26.9468 76.6901H62.0948V48.1687H56.1717C55.9765 54.3576 52.9173 60.1536 47.938 63.7883L44.9114 65.9823C44.6835 66.146 44.3906 66.146 44.1628 65.9823L41.1362 63.7883C36.1243 60.1536 33.0652 54.3576 32.8699 48.1687H26.9468V76.6901Z" fill="#5E34FF"/>
<path d="M37.1982 67.98H30.2012V70.9598H37.1982V67.98Z" fill="#F3FCF8"/>
<path d="M36.8729 47.5138C36.8729 50.2972 39.1184 52.5566 41.8847 52.5566H47.1244C49.8907 52.5566 52.1362 50.2972 52.1362 47.5138V37.199H36.8403L36.8729 47.5138Z" fill="white"/>
<path d="M47.1241 53.2114H41.8844C38.7601 53.2114 36.2217 50.6573 36.2217 47.5137V37.1989C36.2217 37.0351 36.2868 36.8714 36.4169 36.7404C36.5471 36.6094 36.7098 36.5439 36.8726 36.5439H52.1685C52.5265 36.5439 52.8194 36.8387 52.8194 37.1989V47.5137C52.8194 50.6573 50.2484 53.2114 47.1241 53.2114ZM37.5235 37.8538V47.5137C37.5235 49.9369 39.4761 51.9016 41.8844 51.9016H47.1241C49.5324 51.9016 51.485 49.9369 51.485 47.5137V37.8538H37.5235Z" fill="#5E34FF"/>
<path d="M29.7446 18.9595H28.7034C25.97 18.9595 23.7573 21.1862 23.7573 23.9368C23.7573 26.6874 25.97 28.9141 28.7034 28.9141H29.7446V18.9595Z" fill="white"/>
<path d="M60.3372 18.9595H59.2959V28.9141H60.3372C63.0705 28.9141 65.2832 26.6874 65.2832 23.9368C65.2832 21.1862 63.0705 18.9595 60.3372 18.9595Z" fill="white"/>
<path d="M44.5208 44.2392C36.3521 44.2392 29.7456 37.4936 29.7456 29.1763V18.7304C29.7456 10.4131 36.3521 3.66748 44.5208 3.66748C52.6895 3.66748 59.296 10.4131 59.296 18.7304V29.1435C59.296 37.4936 52.6895 44.2392 44.5208 44.2392Z" fill="white"/>
<path d="M44.5208 44.8943C36.0267 44.8943 29.0947 37.854 29.0947 29.1764V18.7306C29.0947 10.053 36.0267 3.0127 44.5208 3.0127C53.0149 3.0127 59.9469 10.053 59.9469 18.7306V29.1764C59.9469 37.854 53.0149 44.8943 44.5208 44.8943ZM44.5208 4.32252C36.7427 4.32252 30.3965 10.7734 30.3965 18.7306V29.1764C30.3965 37.1336 36.7427 43.5844 44.5208 43.5844C52.2989 43.5844 58.6451 37.1336 58.6451 29.1764V18.7306C58.6451 10.8061 52.2989 4.32252 44.5208 4.32252Z" fill="#5E34FF"/>
<path d="M29.7455 29.5692H28.7041C25.6124 29.5692 23.1064 27.0478 23.1064 23.9369C23.1064 20.8261 25.6124 18.3047 28.7041 18.3047H29.7455C30.1035 18.3047 30.3964 18.5994 30.3964 18.9596V28.9142C30.3964 29.2745 30.1035 29.5692 29.7455 29.5692ZM28.6716 19.6145C26.2958 19.6145 24.3757 21.5465 24.3757 23.9369C24.3757 26.3273 26.2958 28.2593 28.6716 28.2593H29.0621V19.6145H28.6716Z" fill="#5E34FF"/>
<path d="M60.3373 29.5692H59.2959C58.9379 29.5692 58.645 29.2745 58.645 28.9142V18.9596C58.645 18.5994 58.9379 18.3047 59.2959 18.3047H60.3373C63.4291 18.3047 65.935 20.8261 65.935 23.9369C65.935 27.0478 63.4291 29.5692 60.3373 29.5692ZM59.9468 28.2593H60.3373C62.7131 28.2593 64.6332 26.3273 64.6332 23.9369C64.6332 21.5465 62.7131 19.6145 60.3373 19.6145H59.9468V28.2593Z" fill="#5E34FF"/>
<path d="M37.1982 71.5817H30.2012C29.8432 71.5817 29.5503 71.287 29.5503 70.9268V67.9469C29.5503 67.5867 29.8432 67.292 30.2012 67.292H37.1982C37.5562 67.292 37.8491 67.5867 37.8491 67.9469V70.9268C37.8491 71.287 37.5562 71.5817 37.1982 71.5817ZM30.8521 70.2718H36.5474V68.6018H30.8521V70.2718Z" fill="#5E34FF"/>
<path d="M44.5209 51.869L38.6304 48.8564V56.2897L44.5209 53.2771L50.3789 56.2897V48.8564L44.5209 51.869Z" fill="white"/>
<path d="M50.4113 56.9444C50.3137 56.9444 50.2161 56.9116 50.1184 56.8789L44.5208 54.03L38.9231 56.8789C38.7278 56.9771 38.4675 56.9771 38.2722 56.8461C38.077 56.7152 37.9468 56.5187 37.9468 56.2895V48.8562C37.9468 48.627 38.077 48.4305 38.2722 48.2995C38.4675 48.1686 38.6953 48.1686 38.9231 48.2668L44.5208 51.1157L50.1184 48.2668C50.3137 48.1686 50.574 48.1686 50.7693 48.2995C50.9646 48.4305 51.0948 48.627 51.0948 48.8562V56.2895C51.0948 56.5187 50.9646 56.7152 50.7693 56.8461C50.6391 56.9116 50.5089 56.9444 50.4113 56.9444ZM44.5208 52.622C44.6184 52.622 44.716 52.6547 44.8137 52.6875L49.7604 55.2089V49.9041L44.8137 52.4255C44.6184 52.5237 44.4231 52.5237 44.2279 52.4255L39.2811 49.9041V55.2089L44.2279 52.6875C44.3255 52.6547 44.4231 52.622 44.5208 52.622Z" fill="#5E34FF"/>
<path d="M46.6356 52.5565C46.6356 53.7353 45.6919 54.7177 44.4879 54.7177C43.3165 54.7177 42.3403 53.7681 42.3403 52.5565C42.3403 51.3776 43.284 50.3953 44.4879 50.3953C45.6919 50.428 46.6356 51.3776 46.6356 52.5565Z" fill="white"/>
<path d="M44.5203 55.3725C42.991 55.3725 41.7219 54.1281 41.7219 52.5564C41.7219 51.0173 42.9584 49.7402 44.5203 49.7402C46.0497 49.7402 47.3188 50.9846 47.3188 52.5564C47.2862 54.1281 46.0497 55.3725 44.5203 55.3725ZM44.5203 51.0828C43.7068 51.0828 43.0235 51.7377 43.0235 52.5891C43.0235 53.4077 43.6743 54.0954 44.5203 54.0954C45.3338 54.0954 46.0172 53.4405 46.0172 52.5891C45.9846 51.7377 45.3338 51.0828 44.5203 51.0828Z" fill="#5E34FF"/>
<path d="M52.5919 12.1485V10.3475V8.97216C52.4618 13.7203 48.589 17.5515 43.8375 17.5515H33.4883C28.9646 17.5515 25.2871 13.8512 25.2871 9.29961V0.654785H52.6245H54.1215C59.4263 0.654785 63.7547 4.9772 63.7547 10.3475C63.7872 15.685 59.4914 20.0402 54.1541 20.0402H52.5919V12.1485Z" fill="#5EEAA7"/>
<path d="M28.2487 9.29961V0.654785H25.2871V9.29961C25.2871 13.8512 28.9646 17.5515 33.4883 17.5515H36.4499C31.9262 17.5842 28.2487 13.884 28.2487 9.29961Z" fill="white"/>
<path d="M54.1541 20.6952H52.5919C52.2339 20.6952 51.941 20.4005 51.941 20.0403V13.5894C50.3138 16.3728 47.2872 18.2065 43.8375 18.2065H33.4883C28.6067 18.2065 24.6362 14.2116 24.6362 9.29974V0.654911C24.6362 0.29471 24.9291 0 25.2871 0H54.1215C59.7843 0 64.4056 4.64987 64.4056 10.3476C64.4056 13.0982 63.3642 15.6851 61.4115 17.6499C59.4914 19.6146 56.8878 20.6952 54.1541 20.6952ZM53.2428 19.3854H54.1541C56.5624 19.3854 58.8079 18.4358 60.5002 16.733C62.1926 15.0302 63.1038 12.7708 63.1038 10.3476C63.1038 5.37027 59.0683 1.30982 54.1215 1.30982H25.938V9.29974C25.938 13.4912 29.3226 16.8967 33.4883 16.8967H43.8375C48.2635 16.8967 51.8109 13.3929 51.941 8.93954C51.941 8.57934 52.2339 8.31737 52.5919 8.31737C52.9499 8.31737 53.2428 8.61208 53.2428 8.97229V12.1159V19.3854Z" fill="#5E34FF"/>
<path d="M64.3725 28.1939C64.3725 29.209 63.559 30.0276 62.5502 30.0276C61.5415 30.0276 60.728 29.209 60.728 28.1939C60.728 27.1787 61.5415 26.3601 62.5502 26.3601C63.559 26.3601 64.3725 27.1787 64.3725 28.1939Z" fill="white"/>
<path d="M62.5502 30.6826C61.1835 30.6826 60.0771 29.5693 60.0771 28.194C60.0771 26.8187 61.1835 25.7053 62.5502 25.7053C63.9168 25.7053 65.0232 26.8187 65.0232 28.194C65.0232 29.5693 63.9168 30.6826 62.5502 30.6826ZM62.5502 27.0151C61.8994 27.0151 61.3787 27.5391 61.3787 28.194C61.3787 28.8489 61.8994 29.3728 62.5502 29.3728C63.201 29.3728 63.7216 28.8489 63.7216 28.194C63.7216 27.5391 63.201 27.0151 62.5502 27.0151Z" fill="#5E34FF"/>
<path d="M28.1178 28.1939C28.1178 29.209 27.3043 30.0276 26.2956 30.0276C25.2869 30.0276 24.4734 29.209 24.4734 28.1939C24.4734 27.1787 25.2869 26.3601 26.2956 26.3601C27.3043 26.3601 28.1178 27.1787 28.1178 28.1939Z" fill="white"/>
<path d="M26.2958 30.6826C24.9291 30.6826 23.8228 29.5693 23.8228 28.194C23.8228 26.8187 24.9291 25.7053 26.2958 25.7053C27.6624 25.7053 28.7688 26.8187 28.7688 28.194C28.7688 29.5693 27.6624 30.6826 26.2958 30.6826ZM26.2958 27.0151C25.645 27.0151 25.1243 27.5391 25.1243 28.194C25.1243 28.8489 25.645 29.3728 26.2958 29.3728C26.9466 29.3728 27.4672 28.8489 27.4672 28.194C27.4672 27.5391 26.9466 27.0151 26.2958 27.0151Z" fill="#5E34FF"/>
<path d="M61.2162 72.5969H73.1275C73.7458 72.5969 74.2665 73.1209 74.2665 73.743V76.1989C74.2665 76.8211 73.7458 77.345 73.1275 77.345H61.2162C60.5979 77.345 60.0771 76.8211 60.0771 76.1989V73.743C60.0771 73.1209 60.5979 72.5969 61.2162 72.5969Z" fill="#F3FCF8"/>
<path d="M73.1271 72.5969H70.8494C71.4676 72.5969 71.9883 73.1209 71.9883 73.743V76.1989C71.9883 76.8211 71.4676 77.345 70.8494 77.345H73.1271C73.7454 77.345 74.266 76.8211 74.266 76.1989V73.743C74.266 73.1209 73.7454 72.5969 73.1271 72.5969Z" fill="#E12579"/>
<path d="M73.1275 78.0001H61.2162C60.2399 78.0001 59.4263 77.1814 59.4263 76.1991V73.7431C59.4263 72.7608 60.2399 71.9421 61.2162 71.9421H73.1275C74.1038 71.9421 74.9174 72.7608 74.9174 73.7431V76.1991C74.9174 77.2142 74.1038 78.0001 73.1275 78.0001ZM61.2162 73.252C60.9559 73.252 60.728 73.4812 60.728 73.7431V76.1991C60.728 76.461 60.9559 76.6902 61.2162 76.6902H73.1275C73.3878 76.6902 73.6157 76.461 73.6157 76.1991V73.7431C73.6157 73.4812 73.3878 73.252 73.1275 73.252H61.2162Z" fill="#5E34FF"/>
<path d="M61.2162 67.8489H73.1275C73.7458 67.8489 74.2665 68.3728 74.2665 68.995V71.4509C74.2665 72.0731 73.7458 72.597 73.1275 72.597H61.2162C60.5979 72.597 60.0771 72.0731 60.0771 71.4509V68.995C60.0771 68.3728 60.5979 67.8489 61.2162 67.8489Z" fill="#F3FCF8"/>
<path d="M73.1271 67.8489H70.8494C71.4676 67.8489 71.9883 68.3728 71.9883 68.995V71.4509C71.9883 72.0731 71.4676 72.597 70.8494 72.597H73.1271C73.7454 72.597 74.266 72.0731 74.266 71.4509V68.995C74.266 68.3728 73.7454 67.8489 73.1271 67.8489Z" fill="#5D8E33"/>
<path d="M73.1275 73.2518H61.2162C60.2399 73.2518 59.4263 72.4331 59.4263 71.4508V68.9949C59.4263 68.0125 60.2399 67.1938 61.2162 67.1938H73.1275C74.1038 67.1938 74.9174 68.0125 74.9174 68.9949V71.4508C74.9174 72.4331 74.1038 73.2518 73.1275 73.2518ZM61.2162 68.5037C60.9559 68.5037 60.728 68.7329 60.728 68.9949V71.4508C60.728 71.7127 60.9559 71.942 61.2162 71.942H73.1275C73.3878 71.942 73.6157 71.7127 73.6157 71.4508V68.9949C73.6157 68.7329 73.3878 68.5037 73.1275 68.5037H61.2162Z" fill="#5E34FF"/>
<path d="M61.2162 63.1006H73.1275C73.7458 63.1006 74.2665 63.6245 74.2665 64.2467V66.7026C74.2665 67.3248 73.7458 67.8487 73.1275 67.8487H61.2162C60.5979 67.8487 60.0771 67.3248 60.0771 66.7026V64.2467C60.0771 63.6245 60.5979 63.1006 61.2162 63.1006Z" fill="#5EEAA7"/>
<path d="M73.1275 68.5037H61.2162C60.2399 68.5037 59.4263 67.6851 59.4263 66.7027V64.2468C59.4263 63.2644 60.2399 62.4458 61.2162 62.4458H73.1275C74.1038 62.4458 74.9174 63.2644 74.9174 64.2468V66.7027C74.9174 67.6851 74.1038 68.5037 73.1275 68.5037ZM61.2162 63.7556C60.9559 63.7556 60.728 63.9848 60.728 64.2468V66.7027C60.728 66.9647 60.9559 67.1939 61.2162 67.1939H73.1275C73.3878 67.1939 73.6157 66.9647 73.6157 66.7027V64.2468C73.6157 63.9848 73.3878 63.7556 73.1275 63.7556H61.2162Z" fill="#5E34FF"/>
<path d="M80.2222 72.597H68.3109C67.6926 72.597 67.1719 72.0731 67.1719 71.4509V68.995C67.1719 68.3728 67.6926 67.8489 68.3109 67.8489H80.2222C80.8406 67.8489 81.3613 68.3728 81.3613 68.995V71.4509C81.3613 72.0731 80.8406 72.597 80.2222 72.597Z" fill="white"/>
<path d="M80.2222 73.2518H68.3109C67.3346 73.2518 66.521 72.4331 66.521 71.4508V68.9949C66.521 68.0125 67.3346 67.1938 68.3109 67.1938H80.2222C81.1986 67.1938 82.0122 68.0125 82.0122 68.9949V71.4508C82.0122 72.4331 81.1986 73.2518 80.2222 73.2518ZM68.3109 68.5037C68.0506 68.5037 67.8228 68.7329 67.8228 68.9949V71.4508C67.8228 71.7127 68.0506 71.942 68.3109 71.942H80.2222C80.4826 71.942 80.7104 71.7127 80.7104 71.4508V68.9949C80.7104 68.7329 80.4826 68.5037 80.2222 68.5037H68.3109Z" fill="#5E34FF"/>
<path d="M80.2222 77.345H68.3109C67.6926 77.345 67.1719 76.8211 67.1719 76.1989V73.743C67.1719 73.1209 67.6926 72.5969 68.3109 72.5969H80.2222C80.8406 72.5969 81.3613 73.1209 81.3613 73.743V76.1989C81.3613 76.8538 80.8406 77.345 80.2222 77.345Z" fill="#5EEAA7"/>
<path d="M80.2222 78.0001H68.3109C67.3346 78.0001 66.521 77.1814 66.521 76.1991V73.7431C66.521 72.7608 67.3346 71.9421 68.3109 71.9421H80.2222C81.1986 71.9421 82.0122 72.7608 82.0122 73.7431V76.1991C82.0122 77.2142 81.1986 78.0001 80.2222 78.0001ZM68.3109 73.252C68.0506 73.252 67.8228 73.4812 67.8228 73.7431V76.1991C67.8228 76.461 68.0506 76.6902 68.3109 76.6902H80.2222C80.4826 76.6902 80.7104 76.461 80.7104 76.1991V73.7431C80.7104 73.4812 80.4826 73.252 80.2222 73.252H68.3109Z" fill="#5E34FF"/>
<path d="M12.1716 77.9998C11.2604 77.9998 10.3816 77.4758 10.0237 76.559L0.195229 53.2769C-0.0325828 52.6874 -0.0651273 52.0653 0.195229 51.4759C0.42304 50.8864 0.878663 50.428 1.43192 50.1988L16.4675 43.7806C17.6391 43.2895 19.0385 43.8461 19.5266 45.025L29.3551 68.3071C29.5829 68.8965 29.6154 69.5187 29.3551 70.1081C29.1273 70.6975 28.6716 71.1559 28.1184 71.3852L13.0828 77.8033C12.7899 77.9343 12.4645 77.9998 12.1716 77.9998ZM17.3787 44.894C17.2485 44.894 17.1184 44.9267 16.9882 44.9922L1.92009 51.4104C1.65973 51.5086 1.46446 51.7051 1.36683 51.967C1.2692 52.229 1.2692 52.491 1.36683 52.7529L11.1953 76.035C11.4231 76.559 12.0414 76.8209 12.5621 76.5917L27.5977 70.1736C27.858 70.0753 28.0533 69.8789 28.1509 69.6169C28.2486 69.3549 28.2486 69.093 28.1509 68.831L18.3225 45.5162C18.1598 45.1232 17.8018 44.894 17.3787 44.894Z" fill="#5E34FF"/>
<path d="M28.5742 73.4481L12.3996 75.6421C11.4884 75.7731 10.6422 75.1182 10.5121 74.2013L7.12743 49.1182C6.99725 48.2013 7.64814 47.3499 8.55938 47.2189L24.7665 45.025C25.6778 44.894 26.5239 45.5489 26.6541 46.4658L30.0062 71.5489C30.1689 72.4658 29.518 73.3172 28.5742 73.4481Z" fill="#5EEAA7"/>
<path d="M12.1706 76.297C11.6499 76.297 11.1618 76.1333 10.7712 75.8059C10.2831 75.4129 9.95762 74.889 9.85998 74.2668L6.5079 49.1837C6.41027 48.5615 6.57299 47.9394 6.96352 47.4482C7.35406 46.957 7.87477 46.6296 8.49312 46.5313L24.7003 44.3374C25.9695 44.1736 27.1411 45.0578 27.3364 46.3676L30.6884 71.4507C30.8512 72.7278 29.9725 73.9066 28.6707 74.1031L12.4635 76.297C12.3659 76.297 12.2683 76.297 12.1706 76.297ZM24.9932 45.6472C24.9606 45.6472 24.8955 45.6472 24.863 45.6472L8.65584 47.8411C8.39548 47.8739 8.13513 48.0049 7.9724 48.2341C7.80968 48.4633 7.74459 48.7253 7.77714 48.9872L11.1292 74.0703C11.1618 74.3323 11.2919 74.5943 11.5198 74.758C11.7476 74.9217 12.0079 74.9872 12.2683 74.9545L28.4754 72.7605C29.0287 72.695 29.4518 72.1711 29.3541 71.5817L26.0346 46.5313C25.9695 46.0401 25.5139 45.6472 24.9932 45.6472Z" fill="#5E34FF"/>
<path d="M28.5091 77.3448H12.1718C11.228 77.3448 10.4795 76.5917 10.4795 75.642V50.3297C10.4795 49.3801 11.228 48.627 12.1718 48.627H28.5091C29.4529 48.627 30.2014 49.3801 30.2014 50.3297V75.642C30.2014 76.5917 29.4529 77.3448 28.5091 77.3448Z" fill="white"/>
<path d="M28.5091 77.9998H12.1718C10.87 77.9998 9.82861 76.952 9.82861 75.6422V50.3298C9.82861 49.02 10.87 47.9722 12.1718 47.9722H28.5091C29.8109 47.9722 30.8523 49.02 30.8523 50.3298V75.6422C30.8523 76.952 29.8109 77.9998 28.5091 77.9998ZM12.1718 49.3147C11.586 49.3147 11.1304 49.7732 11.1304 50.3626V75.6422C11.1304 76.2316 11.586 76.69 12.1718 76.69H28.5091C29.0949 76.69 29.5506 76.2316 29.5506 75.6422V50.3298C29.5506 49.7404 29.0949 49.282 28.5091 49.282H12.1718V49.3147Z" fill="#5E34FF"/>
<path d="M16.8578 60.0555C16.0116 60.9069 16.0116 62.2822 16.8578 63.1336L20.34 66.6374L23.8223 63.1336C24.6684 62.2822 24.6684 60.9069 23.8223 60.0555C22.9761 59.2041 21.6093 59.2041 20.7631 60.0555L20.34 60.4812L19.9169 60.0555C19.0708 59.2041 17.7039 59.2041 16.8578 60.0555Z" fill="#5EEAA7"/>
<path d="M20.3403 67.2595C20.1776 67.2595 20.0148 67.194 19.8847 67.063L16.4024 63.5592C15.2959 62.4459 15.2959 60.6776 16.4024 59.5642C16.9231 59.0403 17.6391 58.7456 18.3876 58.7456C19.1036 58.7456 19.8196 59.0076 20.3403 59.5315C21.4468 58.4836 23.2042 58.4836 24.2782 59.5642C25.3847 60.6776 25.3847 62.4459 24.2782 63.5592L20.7959 67.063C20.6657 67.194 20.503 67.2595 20.3403 67.2595ZM18.3876 60.0554C17.9971 60.0554 17.6065 60.2192 17.3136 60.5139C16.7278 61.1033 16.7278 62.0529 17.3136 62.6751L20.3077 65.6877L23.3018 62.6751C23.8876 62.0857 23.8876 61.136 23.3018 60.5139C22.716 59.9244 21.7722 59.9244 21.1539 60.5139L20.7308 60.9396C20.4705 61.2015 20.0799 61.2015 19.8196 60.9396L19.3965 60.5139C19.1687 60.2192 18.8107 60.0554 18.3876 60.0554Z" fill="#5E34FF"/>
<path d="M13.6357 52.4584H12.5293L12.3016 53.0478C12.269 53.146 12.1714 53.2115 12.0738 53.2115C12.0412 53.2115 12.0087 53.2115 11.9762 53.2115C11.846 53.146 11.7809 53.015 11.8135 52.8841L12.8222 50.1662C12.8547 50.0679 12.9524 50.0024 13.05 50.0024C13.1476 50.0024 13.2452 50.0679 13.2778 50.1662L14.2865 52.8841C14.319 53.015 14.2539 53.1788 14.1238 53.2115C14.0913 53.2115 14.0587 53.2115 14.0262 53.2115C13.9286 53.2115 13.8309 53.146 13.7984 53.0478L13.6357 52.4584ZM13.4405 51.9344L13.0825 50.9521L12.7246 51.9344H13.4405Z" fill="#5E34FF"/>
<path d="M27.0443 73.7102H28.1507L28.3785 73.1208C28.411 73.0225 28.5086 72.957 28.6062 72.957C28.6388 72.957 28.6713 72.957 28.7039 72.957C28.834 73.0225 28.8991 73.1535 28.8666 73.2845L27.8578 76.0024C27.8253 76.1006 27.7277 76.1661 27.6301 76.1661C27.5324 76.1661 27.4348 76.1006 27.4023 76.0024L26.3935 73.2845C26.361 73.1535 26.4261 72.9898 26.5562 72.957C26.5888 72.957 26.6213 72.957 26.6539 72.957C26.7515 72.957 26.8491 73.0225 26.8816 73.1208L27.0443 73.7102ZM27.2396 74.2341L27.5975 75.2165L27.9555 74.2341H27.2396Z" fill="#5E34FF"/>
<path d="M12.9526 60.8741C12.5946 60.8741 12.3018 60.5793 12.3018 60.2191V56.2897C12.3018 55.9295 12.5946 55.6348 12.9526 55.6348C13.3105 55.6348 13.6033 55.9295 13.6033 56.2897V60.2191C13.6033 60.5793 13.3105 60.8741 12.9526 60.8741Z" fill="#5E34FF"/>
</svg>
