<svg width="72" height="82" viewBox="0 0 72 82" fill="none" xmlns="http://www.w3.org/2000/svg">
<path d="M53.3033 0.650391H50.063C51.6507 0.650391 52.9469 1.95198 52.9469 3.54642V78.4528C52.9469 80.0472 51.6507 81.3488 50.063 81.3488H53.3033C54.8911 81.3488 56.1872 80.0472 56.1872 78.4528V3.54642C56.2196 1.95198 54.9235 0.650391 53.3033 0.650391Z" fill="#D6D1CF"/>
<path d="M3.53208 81.3488H6.77241C5.18465 81.3488 3.88852 80.0472 3.88852 78.4528V3.54642C3.88852 1.95198 5.18465 0.650391 6.77241 0.650391H3.53208C1.94432 0.650391 0.648193 1.95198 0.648193 3.54642V78.4528C0.648193 80.0472 1.94432 81.3488 3.53208 81.3488Z" fill="#5EEAA7"/>
<path d="M53.3033 82H3.53195C1.58776 82 0 80.4056 0 78.4532V3.54683C0 1.59444 1.58776 0 3.53195 0H53.3033C55.2475 0 56.8353 1.59444 56.8353 3.54683V78.4532C56.8677 80.4056 55.2799 82 53.3033 82ZM3.53195 1.30159C2.30063 1.30159 1.29613 2.31032 1.29613 3.54683V78.4532C1.29613 79.6897 2.30063 80.6984 3.53195 80.6984H53.3033C54.5347 80.6984 55.5392 79.6897 55.5392 78.4532V3.54683C55.5392 2.31032 54.5347 1.30159 53.3033 1.30159H3.53195Z" fill="#5E34FF"/>
<path d="M5.76765 10.8031C5.99448 11.519 6.67495 12.0396 7.45262 12.0396C8.42472 12.0396 9.2348 11.2262 9.2348 10.2825V5.1087C9.2348 4.71822 9.55883 4.39282 9.94767 4.39282C10.3365 4.39282 10.6605 4.71822 10.6605 5.1087V10.25C10.6605 12.0071 9.2024 13.4714 7.45262 13.4714C6.02688 13.4714 4.82796 12.5277 4.40672 11.2587C4.27711 10.8682 4.50393 10.4777 4.86036 10.3801C5.2492 10.2174 5.67044 10.4127 5.76765 10.8031Z" fill="#5E34FF"/>
<path d="M50.6463 71.6524C50.4195 70.9366 49.739 70.4159 48.9613 70.4159C47.9892 70.4159 47.1792 71.2294 47.1792 72.1731V77.3143C47.1792 77.7048 46.8551 78.0302 46.4663 78.0302C46.0774 78.0302 45.7534 77.7048 45.7534 77.3143V72.1731C45.7534 70.4159 47.2116 68.9517 48.9613 68.9517C50.3871 68.9517 51.586 69.8953 52.0072 71.1644C52.1368 71.5548 51.91 71.9453 51.5536 72.0429C51.1648 72.2382 50.7759 72.0429 50.6463 71.6524Z" fill="#5E34FF"/>
<path d="M68.468 81.3488H18.6966C17.1089 81.3488 15.8127 80.0472 15.8127 78.4528V3.54642C15.8127 1.95198 17.1089 0.650391 18.6966 0.650391H68.468C70.0558 0.650391 71.3519 1.95198 71.3519 3.54642V78.4528C71.3519 80.0472 70.0558 81.3488 68.468 81.3488Z" fill="white"/>
<path d="M47.8595 53.723L46.1745 48.1913C48.9936 49.7532 52.5904 49.3302 54.9558 46.9548C57.8397 44.0587 57.8397 39.3405 54.9558 36.4444L43.5499 24.9905L32.1763 36.4444C29.2925 39.3405 29.2925 44.0587 32.1763 46.9548C34.5742 49.3627 38.1709 49.7532 40.9576 48.1913L39.2727 53.723H47.8595Z" fill="#5EEAA7"/>
<path d="M47.8596 54.3737H39.2727C39.0783 54.3737 38.8839 54.2761 38.7542 54.1134C38.6246 53.9507 38.5922 53.7229 38.657 53.5277L39.9208 49.3626C37.0693 50.3063 33.8614 49.5904 31.6903 47.4102C28.5472 44.2539 28.5472 39.1452 31.6903 35.9888L43.0963 24.5348C43.3555 24.2745 43.7443 24.2745 44.0036 24.5348L55.4095 35.9888C58.5526 39.1452 58.5526 44.2539 55.4095 47.4102C53.2385 49.5904 50.0306 50.3063 47.1791 49.3626L48.4428 53.5277C48.5076 53.7229 48.4752 53.9507 48.3456 54.1134C48.2484 54.2761 48.054 54.3737 47.8596 54.3737ZM40.1476 53.0721H46.9847L45.5589 48.3864C45.4941 48.1261 45.5589 47.8658 45.7858 47.7031C45.9802 47.5404 46.2718 47.5079 46.4986 47.638C49.1233 49.1023 52.4284 48.6142 54.5346 46.4991C55.7984 45.2301 56.5112 43.5055 56.5112 41.7158C56.5112 39.8936 55.7984 38.2015 54.5346 36.9325L43.5823 25.934L32.63 36.9325C30.0054 39.5682 30.0054 43.8634 32.63 46.4991C34.7362 48.6142 38.0414 49.1023 40.666 47.638C40.8929 47.5079 41.1845 47.5404 41.3789 47.7031C41.5733 47.8658 41.6705 48.1586 41.6057 48.3864L40.1476 53.0721Z" fill="#5E34FF"/>
<path d="M68.4681 82H18.6967C16.7526 82 15.1648 80.4056 15.1648 78.4532V3.54683C15.1648 1.59444 16.7526 0 18.6967 0H68.4681C70.4123 0 72.0001 1.59444 72.0001 3.54683V78.4532C72.0001 80.4056 70.4123 82 68.4681 82ZM18.6967 1.30159C17.4654 1.30159 16.4609 2.31032 16.4609 3.54683V78.4532C16.4609 79.6897 17.4654 80.6984 18.6967 80.6984H68.4681C69.6995 80.6984 70.7039 79.6897 70.7039 78.4532V3.54683C70.7039 2.31032 69.6995 1.30159 68.4681 1.30159H18.6967Z" fill="#5E34FF"/>
<path d="M18.3727 23.5262C18.0162 23.5262 17.7246 23.2333 17.7246 22.8754V18.9706C17.7246 18.6127 18.0162 18.3198 18.3727 18.3198C18.7291 18.3198 19.0207 18.6127 19.0207 18.9706V22.8754C19.0207 23.2333 18.7291 23.5262 18.3727 23.5262Z" fill="#5E34FF"/>
<path d="M24.6912 11.3237H21.5481L20.9 13.0158C20.7704 13.3086 20.5112 13.4713 20.2195 13.4713C20.1223 13.4713 20.0575 13.4713 19.9603 13.4388C19.5715 13.3086 19.4094 12.8856 19.5391 12.4951L22.3905 4.88085C22.5202 4.58799 22.7794 4.42529 23.071 4.42529C23.3626 4.42529 23.6543 4.58799 23.7515 4.88085L26.603 12.4951C26.7326 12.8856 26.5382 13.2761 26.1817 13.4388C26.1169 13.4713 26.0197 13.4713 25.9225 13.4713C25.6309 13.4713 25.3716 13.3086 25.2744 13.0158L24.6912 11.3237ZM24.1403 9.89196L23.1034 7.09355L22.0665 9.89196H24.1403Z" fill="#5E34FF"/>
<path d="M62.4732 71.1318H65.6164L66.232 69.4397C66.3616 69.1468 66.6209 68.9841 66.9125 68.9841C67.0097 68.9841 67.0745 68.9841 67.1717 69.0167C67.5605 69.1468 67.7226 69.5698 67.5929 69.9603L64.7415 77.5746C64.6119 77.8675 64.3526 78.0302 64.061 78.0302C63.7694 78.0302 63.4777 77.8675 63.3805 77.5746L60.5291 69.9603C60.3994 69.5698 60.5939 69.1794 60.9503 69.0167C61.0151 68.9841 61.1123 68.9841 61.2095 68.9841C61.5011 68.9841 61.7604 69.1468 61.8576 69.4397L62.4732 71.1318ZM62.9917 72.5635L64.0286 75.3619L65.0655 72.5635H62.9917Z" fill="#5E34FF"/>
</svg>
