<svg width="90" height="77" viewBox="0 0 90 77" fill="none" xmlns="http://www.w3.org/2000/svg">
<path d="M45.0001 7.66801L52.5715 0.709961L56.8572 10.011L66.5358 6.461L66.9286 16.7206L77.2501 17.1111L73.6429 26.6961L83.0358 30.9917L76.0001 38.5177L83.0358 46.0083L73.6429 50.3038L77.2501 59.9244L66.9286 60.3149L66.5358 70.5389L56.8572 66.9889L52.5715 76.29L45.0001 69.3319L37.4286 76.29L33.1429 66.9889L23.4644 70.5389L23.0715 60.3149L12.7501 59.9244L16.3572 50.3038L6.96436 46.0083L14.0001 38.5177L6.96436 30.9917L16.3572 26.6961L12.7501 17.1111L23.0715 16.7206L23.4644 6.461L33.1429 10.011L37.4286 0.709961L45.0001 7.66801Z" fill="#5EEAA7"/>
<path d="M45.0001 20.5191L41.4286 22.3651L42.1072 18.4246L39.2144 15.5845L43.2144 15.0165L45.0001 11.3955L46.7858 15.0165L50.7858 15.5845L47.8929 18.4246L48.5715 22.3651L45.0001 20.5191Z" fill="#F3FCF8"/>
<path d="M45.0001 56.5165L48.5715 54.635L47.8929 58.611L50.7858 61.4156L46.7858 61.9836L45.0001 65.6046L43.2144 61.9836L39.2144 61.4156L42.1072 58.611L41.4286 54.635L45.0001 56.5165Z" fill="#F3FCF8"/>
<path d="M52.5714 77C52.3929 77 52.2143 76.929 52.0714 76.8225L45 70.2905L37.9286 76.8225C37.75 76.9645 37.5357 77.0355 37.2857 77C37.0714 76.9645 36.8571 76.8225 36.7857 76.6095L32.75 67.8765L23.7143 71.2135C23.5 71.2845 23.25 71.249 23.0714 71.1425C22.8929 71.0005 22.75 70.823 22.75 70.5745L22.3929 60.9894L12.75 60.6344C12.5357 60.6344 12.3214 60.4924 12.1786 60.3149C12.0357 60.1374 12.0357 59.8889 12.1071 59.6759L15.4643 50.6944L6.71428 46.6828C6.5 46.5763 6.35714 46.3988 6.32143 46.1858C6.28571 45.9728 6.35714 45.7243 6.5 45.5823L13.0714 38.5533L6.46428 31.4532C6.32143 31.2757 6.25 31.0627 6.28571 30.8497C6.32143 30.6367 6.46428 30.4237 6.67857 30.3527L15.4286 26.3412L12.0714 17.3596C12 17.1466 12.0357 16.8981 12.1429 16.7206C12.2857 16.5431 12.4643 16.4011 12.7143 16.4011L22.3571 16.0461L22.7143 6.46106C22.7143 6.24806 22.8571 6.03505 23.0357 5.89305C23.2143 5.75105 23.4643 5.75105 23.6786 5.82205L32.7143 9.15907L36.7857 0.426016C36.8929 0.213015 37.0714 0.0710139 37.2857 0.0355137C37.5 1.34669e-05 37.75 0.071014 37.9286 0.213015L45 6.70956L52.0714 0.177515C52.25 0.0355137 52.4643 -0.0354868 52.7143 1.34641e-05C52.9286 0.0355137 53.1429 0.177515 53.2143 0.390516L57.25 9.12358L66.2857 5.78655C66.5 5.71555 66.75 5.75105 66.9286 5.85755C67.1071 5.99955 67.25 6.17706 67.25 6.42556L67.6071 16.0106L77.25 16.3656C77.4643 16.3656 77.6786 16.5076 77.8214 16.6851C77.9643 16.8626 77.9643 17.1111 77.8929 17.3241L74.5357 26.3057L83.2857 30.3172C83.5 30.4237 83.6429 30.6012 83.6786 30.8142C83.7143 31.0272 83.6429 31.2757 83.5 31.4177L76.9286 38.4468L83.5 45.4758C83.6429 45.6533 83.7143 45.8663 83.6786 46.0793C83.6429 46.2923 83.5 46.5053 83.2857 46.5763L74.5357 50.5879L77.8929 59.5694C77.9643 59.7824 77.9286 60.0309 77.8214 60.2084C77.6786 60.3859 77.5 60.5279 77.25 60.5279L67.6071 60.8829L67.25 70.468C67.25 70.681 67.1071 70.894 66.9286 71.036C66.75 71.178 66.5 71.178 66.2857 71.107L57.25 67.77L53.2143 76.6095C53.1071 76.8225 52.9286 76.9645 52.7143 77C52.6429 77 52.6071 77 52.5714 77ZM45 68.622C45.1786 68.622 45.3571 68.693 45.5 68.7995L52.3571 75.083L56.25 66.6695C56.3929 66.3145 56.7857 66.1725 57.1429 66.3145L65.8929 69.545L66.25 60.2794C66.25 59.9244 66.5714 59.6049 66.9286 59.6049L76.25 59.2499L73 50.5523C72.8571 50.1973 73.0357 49.8068 73.3571 49.6648L81.8214 45.7953L75.5 38.9793C75.25 38.6953 75.25 38.2693 75.5 38.0208L81.8214 31.2402L73.3571 27.3352C73 27.1932 72.8571 26.8027 73 26.4477L76.25 17.7501L66.9286 17.3951C66.5714 17.3951 66.25 17.0756 66.25 16.7206L65.8929 7.45506L57.1429 10.6856C56.7857 10.8276 56.3929 10.6501 56.25 10.3306L52.3214 1.88153L45.4643 8.16507C45.1786 8.41357 44.75 8.41357 44.5 8.16507L37.6786 1.88153L33.7857 10.3306C33.6429 10.6856 33.25 10.8276 32.8929 10.6856L24.1429 7.45506L23.7857 16.7206C23.7857 17.0756 23.4643 17.3951 23.1071 17.3951L13.7857 17.7501L17.0357 26.4477C17.1786 26.8027 17 27.1932 16.6786 27.3352L8.17857 31.2402L14.5 38.0563C14.75 38.3403 14.75 38.7663 14.5 39.0148L8.17857 45.7953L16.6429 49.6648C17 49.8068 17.1429 50.1973 17 50.5523L13.75 59.2499L23.0714 59.6049C23.4286 59.6049 23.75 59.9244 23.75 60.2794L24.1071 69.545L32.8571 66.3145C33.2143 66.1725 33.6071 66.35 33.75 66.6695L37.6429 75.083L44.5 68.7995C44.6429 68.693 44.8214 68.622 45 68.622Z" fill="#5E34FF"/>
<path d="M48.5714 23.0752C48.4643 23.0752 48.3572 23.0397 48.25 23.0042L45 21.3002L41.75 23.0042C41.5 23.1462 41.2143 23.1107 41 22.9332C40.7857 22.7912 40.6786 22.5072 40.7143 22.2232L41.3215 18.6377L38.6786 16.0817C38.5 15.9042 38.4286 15.6202 38.5 15.3362C38.5715 15.0877 38.8215 14.8747 39.0715 14.8392L42.7143 14.3067L44.3572 11.0406C44.4643 10.7921 44.7143 10.6501 45 10.6501C45.2857 10.6501 45.5357 10.7921 45.6429 11.0406L47.2857 14.3067L50.9286 14.8392C51.2143 14.8747 51.4286 15.0522 51.5 15.3362C51.5714 15.5847 51.5 15.8687 51.3214 16.0817L48.6786 18.6377L49.2857 22.2232C49.3214 22.5072 49.2143 22.7557 49 22.9332C48.8929 23.0397 48.75 23.0752 48.5714 23.0752ZM45 19.8092C45.1072 19.8092 45.2143 19.8447 45.3215 19.8802L47.6429 21.0872L47.2143 18.5312C47.1786 18.3182 47.25 18.0697 47.4286 17.8922L49.2857 16.0817L46.7143 15.7267C46.4643 15.6912 46.2857 15.5492 46.1786 15.3362L45.0357 13.0287L43.8929 15.3362C43.7857 15.5492 43.5715 15.6912 43.3572 15.7267L40.7857 16.0817L42.6429 17.8922C42.8215 18.0697 42.8929 18.2827 42.8572 18.5312L42.4286 21.0872L44.75 19.8802C44.7857 19.8092 44.8929 19.8092 45 19.8092Z" fill="#5E34FF"/>
<path d="M45 66.3145C44.7143 66.3145 44.4643 66.1725 44.3572 65.924L42.7143 62.658L39.0715 62.1255C38.7857 62.09 38.5715 61.9125 38.5 61.6285C38.4286 61.38 38.5 61.096 38.6786 60.883L41.3215 58.327L40.7143 54.7414C40.6786 54.4574 40.7857 54.2089 41 54.0314C41.2143 53.8894 41.5 53.8539 41.75 53.9604L45 55.6644L48.25 53.9604C48.5 53.8184 48.7857 53.8539 49 54.0314C49.2143 54.1734 49.3214 54.4574 49.2857 54.7414L48.6786 58.327L51.3214 60.883C51.5 61.0605 51.5714 61.3445 51.5 61.6285C51.4286 61.877 51.1786 62.09 50.9286 62.1255L47.2857 62.658L45.6429 65.924C45.5357 66.1725 45.2857 66.3145 45 66.3145ZM40.7143 60.9185L43.2857 61.2735C43.5357 61.309 43.7143 61.451 43.8215 61.664L44.9643 63.9715L46.1072 61.664C46.2143 61.451 46.4286 61.309 46.6429 61.2735L49.2143 60.9185L47.3572 59.108C47.1786 58.9305 47.1072 58.7175 47.1429 58.469L47.5714 55.9129L45.25 57.1199C45.0357 57.2264 44.7857 57.2264 44.5715 57.1199L42.25 55.9129L42.6786 58.469C42.7143 58.682 42.6429 58.9305 42.4643 59.108L40.7143 60.9185Z" fill="#5E34FF"/>
<path d="M35.6427 18.6732H29.3928C28.9999 18.6732 28.6785 18.3537 28.6785 17.9632C28.6785 17.5727 28.9999 17.2532 29.3928 17.2532H35.6427C36.0356 17.2532 36.357 17.5727 36.357 17.9632C36.357 18.3537 36.0356 18.6732 35.6427 18.6732Z" fill="#5E34FF"/>
<path d="M60.6071 18.6732H54.3571C53.9643 18.6732 53.6428 18.3537 53.6428 17.9632C53.6428 17.5727 53.9643 17.2532 54.3571 17.2532H60.6071C61 17.2532 61.3214 17.5727 61.3214 17.9632C61.3214 18.3537 61 18.6732 60.6071 18.6732Z" fill="#5E34FF"/>
<path d="M35.6427 59.7469H29.3928C28.9999 59.7469 28.6785 59.4274 28.6785 59.0369C28.6785 58.6464 28.9999 58.3269 29.3928 58.3269H35.6427C36.0356 58.3269 36.357 58.6464 36.357 59.0369C36.357 59.4629 36.0356 59.7469 35.6427 59.7469Z" fill="#5E34FF"/>
<path d="M60.6071 59.7469H54.3571C53.9643 59.7469 53.6428 59.4274 53.6428 59.0369C53.6428 58.6464 53.9643 58.3269 54.3571 58.3269H60.6071C61 58.3269 61.3214 58.6464 61.3214 59.0369C61.3214 59.4629 61 59.7469 60.6071 59.7469Z" fill="#5E34FF"/>
<path d="M76.7858 50.9073H13.2144C6.3215 50.9073 0.714355 45.3338 0.714355 38.4822C0.714355 31.6307 6.3215 26.0571 13.2144 26.0571H76.7858C83.6786 26.0571 89.2858 31.6307 89.2858 38.4822C89.2858 45.3693 83.6786 50.9073 76.7858 50.9073Z" fill="white"/>
<path d="M65.9285 29.9978H24.0714C23.0714 29.9978 22.2856 29.2168 22.2856 28.2228V26.0928H67.6785V28.2228C67.7142 29.2168 66.8928 29.9978 65.9285 29.9978Z" fill="white"/>
<path d="M24.0714 47.0024H65.8928C66.8928 47.0024 67.6785 47.7834 67.6785 48.7775V50.9075H22.2856V48.7775C22.2856 47.7834 23.1071 47.0024 24.0714 47.0024Z" fill="white"/>
<path d="M76.7857 51.6173H13.2143C5.92857 51.6173 0 45.7243 0 38.4823C0 31.2402 5.92857 25.3472 13.2143 25.3472H76.7857C84.0714 25.3472 90 31.2402 90 38.4823C90 45.7243 84.0714 51.6173 76.7857 51.6173ZM13.2143 26.8027C6.71429 26.8027 1.42857 32.0567 1.42857 38.5178C1.42857 44.9788 6.71429 50.2328 13.2143 50.2328H76.7857C83.2857 50.2328 88.5714 44.9788 88.5714 38.5178C88.5714 32.0567 83.2857 26.8027 76.7857 26.8027H13.2143Z" fill="#5E34FF"/>
<path d="M4.10711 39.4053C3.71425 39.4053 3.39282 39.0858 3.39282 38.6953C3.39282 37.1688 3.64282 35.6423 4.17854 34.1868C4.32139 33.8318 4.71425 33.6188 5.10711 33.7608C5.46425 33.9028 5.67854 34.2933 5.53568 34.6838C5.07139 35.9618 4.85711 37.3108 4.85711 38.6953C4.82139 39.0858 4.49996 39.4053 4.10711 39.4053Z" fill="#5E34FF"/>
<path d="M12 40.8253C12.2858 41.6418 13.0715 42.2453 14 42.2453C15.1429 42.2453 16.0715 41.3223 16.0715 40.1863V34.2223C16.0715 33.7608 16.4643 33.4058 16.9286 33.4058C17.3929 33.4058 17.75 33.7608 17.75 34.2223V40.1863C17.75 42.2453 16.0715 43.9138 13.9643 43.9138C12.2858 43.9138 10.8929 42.8133 10.3929 41.3223C10.25 40.8608 10.5 40.3993 10.9286 40.2928C11.3929 40.1508 11.8572 40.3993 12 40.8253Z" fill="#5E34FF"/>
<path d="M25.2142 41.4287H21.5357L20.7857 43.3812C20.6428 43.7007 20.3214 43.9137 20 43.9137C19.8928 43.9137 19.7857 43.9137 19.7142 43.8782C19.2857 43.7007 19.0714 43.2392 19.2142 42.7777L22.5714 33.9026C22.7142 33.5831 23.0357 33.3701 23.3571 33.3701C23.7142 33.3701 24.0357 33.5831 24.1428 33.9026L27.5 42.7777C27.6428 43.2037 27.4285 43.7007 27 43.8782C26.9285 43.9137 26.8214 43.9137 26.7142 43.9137C26.3928 43.9137 26.0714 43.7007 25.9285 43.3812L25.2142 41.4287ZM24.5714 39.7957L23.3571 36.5651L22.1428 39.7957H24.5714Z" fill="#5E34FF"/>
<path d="M28.5 38.5177C28.5 35.5357 31.0357 33.1217 34.0714 33.0862C35.3929 33.0862 36.6072 33.5122 37.5714 34.2577C37.9286 34.5417 38 35.0742 37.7143 35.4647C37.4286 35.8552 36.8572 35.8907 36.5 35.6422C35.8214 35.1097 35 34.8257 34.0714 34.8257C33.0357 34.8257 32.0714 35.2517 31.3571 35.9262C30.6786 36.6362 30.25 37.5237 30.25 38.5532C30.25 39.5827 30.6786 40.5057 31.3571 41.1802C32.0714 41.8547 33.0357 42.2807 34.0714 42.2807C35 42.2807 35.8214 41.9967 36.5 41.4642C36.8572 41.2157 37.3929 41.2512 37.7143 41.6417C38 42.0322 37.9286 42.5647 37.5714 42.8487C36.6072 43.5943 35.3929 44.0203 34.0714 44.0203C31.0357 43.9138 28.5357 41.4997 28.5 38.5177Z" fill="#5E34FF"/>
<path d="M40.6428 43.0974V34.2933C40.6428 33.8673 41 33.4768 41.4642 33.4768C41.9285 33.4768 42.2857 33.8673 42.2857 34.2933V38.6243L47.2142 33.7253C47.5357 33.4058 48.0714 33.4058 48.3928 33.7253C48.7142 34.0448 48.7142 34.5773 48.3928 34.8968L45.0714 38.1983L48.4285 42.5649C48.7143 42.9199 48.6785 43.4524 48.3214 43.7364C48.1785 43.8784 48 43.9494 47.7857 43.9494C47.5714 43.9494 47.3214 43.8429 47.1785 43.6654L43.8928 39.4053L42.3214 41.0029V43.1329C42.3214 43.5944 41.9642 43.9494 41.5 43.9494C41 43.9139 40.6428 43.5589 40.6428 43.0974Z" fill="#5E34FF"/>
<path d="M55.0001 39.8313H53.1429V43.0973C53.1429 43.5588 52.7501 43.9138 52.2858 43.9138C51.8215 43.9138 51.4644 43.5233 51.4644 43.0973V34.2223C51.4644 33.7608 51.8572 33.4058 52.2858 33.4058H54.9643C56.7501 33.4058 58.2143 34.8613 58.2143 36.6363C58.2501 38.3758 56.8215 39.8313 55.0001 39.8313ZM53.1429 38.1628H55.0001C55.8929 38.1628 56.5715 37.4528 56.5715 36.6363C56.5715 35.7488 55.8572 35.0743 55.0001 35.0743H53.1429V38.1628Z" fill="#5E34FF"/>
<path d="M68.643 34.6837C69.5715 35.6777 70.1787 36.9912 70.1787 38.4822C70.1787 39.9732 69.5715 41.3222 68.643 42.2807C67.7501 43.2748 66.4287 43.8783 65.0358 43.8783C63.5715 43.8783 62.2501 43.2393 61.3215 42.2807C60.393 41.2867 59.8215 39.9732 59.8215 38.4822C59.8215 36.9912 60.393 35.6777 61.3215 34.6837C62.2501 33.6897 63.5715 33.0862 65.0358 33.0862C66.4287 33.0862 67.7501 33.6897 68.643 34.6837ZM68.4644 38.5177C68.4644 37.4882 68.0715 36.5297 67.4287 35.8907C66.7858 35.2162 65.9287 34.8257 65.0358 34.8257C64.0715 34.8257 63.2144 35.2162 62.5715 35.8907C61.9287 36.5652 61.5358 37.4882 61.5358 38.5177C61.5358 39.5472 61.9287 40.5057 62.5715 41.1447C63.2144 41.8192 64.0715 42.2452 65.0358 42.2452C65.9287 42.2452 66.7858 41.8547 67.4287 41.1447C68.0358 40.4702 68.4644 39.5117 68.4644 38.5177Z" fill="#5E34FF"/>
<path d="M78.8213 35.0743H76.4284V43.0973C76.4284 43.5588 76.0713 43.9138 75.607 43.9138C75.1427 43.9138 74.7856 43.5588 74.7856 43.0973V35.0743H72.3927C71.9284 35.0743 71.5713 34.6838 71.5713 34.2223C71.5713 33.7608 71.9284 33.4058 72.3927 33.4058H78.857C79.3213 33.4058 79.6784 33.7608 79.6784 34.2223C79.6427 34.6838 79.2499 35.0743 78.8213 35.0743Z" fill="#5E34FF"/>
<path d="M65.9287 30.7076H24.0715C22.6787 30.7076 21.5715 29.6071 21.5715 28.2226V26.0926C21.5715 25.7021 21.893 25.3826 22.2858 25.3826H67.6787C68.0715 25.3826 68.393 25.7021 68.393 26.0926V28.2226C68.4287 29.6071 67.2858 30.7076 65.9287 30.7076ZM23.0001 26.8026V28.2226C23.0001 28.8261 23.4644 29.2876 24.0715 29.2876H65.893C66.5001 29.2876 66.9644 28.8261 66.9644 28.2226V26.8026H23.0001Z" fill="#5E34FF"/>
<path d="M67.7144 51.6173H22.2858C21.893 51.6173 21.5715 51.2978 21.5715 50.9073V48.7773C21.5715 47.3927 22.6787 46.2922 24.0715 46.2922H65.893C67.2858 46.2922 68.393 47.3927 68.393 48.7773V50.9073C68.4287 51.2978 68.1073 51.6173 67.7144 51.6173ZM23.0001 50.1973H66.9644V48.7773C66.9644 48.1738 66.5001 47.7122 65.893 47.7122H24.0715C23.4644 47.7122 23.0001 48.1738 23.0001 48.7773V50.1973Z" fill="#5E34FF"/>
</svg>
