<?xml version="1.0" encoding="UTF-8"?> <!-- Generator: Adobe Illustrator 22.0.0, SVG Export Plug-In . SVG Version: 6.00 Build 0) --> <svg xmlns="http://www.w3.org/2000/svg" xmlns:xlink="http://www.w3.org/1999/xlink" version="1.1" id="Layer_1" x="0px" y="0px" width="78px" height="78px" viewBox="0 0 78 78" style="enable-background:new 0 0 78 78;" xml:space="preserve"> <style type="text/css"> .st0{fill:#C0446B;} </style> <path id="path-1" class="st0" d="M72.8,78H43.3c1.8-0.9,3.7-1.8,5.5-2.8c9.6-5.3,18.3-11.6,25.4-19c1.3-1.4,2.6-2.8,3.8-4.2v21.6 C78,76,75.7,78,72.8,78z M48.3,15.2c2.8-0.4,5.4-0.6,7.8-0.5c0,0,0,0,0,0c0,0,0,0,0,0c0,0,0,0,0,0c0,0,0,0,0,0 c0.3,0,0.6,0.1,0.8,0.2c0.2,0.1,0.4,0.3,0.6,0.4c0.1,0.2,0.3,0.4,0.3,0.6c0.1,0.2,0.1,0.4,0,0.6c-0.1,0.6-0.9,1.4-2.4,2.4 c-1.6,1-4,2.2-7.1,3.4c-3.3,1.3-7.4,2.6-12.2,3.7c-5.2,1.2-11.3,2.2-18.1,2.8c3.5-2.9,7.2-5.2,10.8-7.2c3.4-1.8,6.9-3.3,10.2-4.4 C42.3,16.3,45.4,15.6,48.3,15.2z M61.7,53.5c-6.3,2.7-12.8,4.3-19,5.3c-2,0.3-4,0.6-5.9,0.7c-2,0.2-3.8,0.3-5.6,0.4 C29.2,60,27.5,60,25.9,60c-1.7,0-3.2,0-4.6-0.1c-2.7-0.1-5.5-0.4-8-1.1c-2.5-0.7-4.8-1.6-6.5-2.9c-1.7-1.3-2.8-2.9-3.1-4.9 c-0.2-1.9,0.4-4.1,2-6.6l4.9-5.3c16.1-2,27.7-4.1,36.2-6.2c7.6-1.9,13-3.8,16.8-5.8c3.6-1.8,5.8-3.6,7.2-5.3c1.3-1.6,1.9-3.2,2-4.7 c0-1.2-0.3-2.2-0.9-3c-0.6-0.9-1.5-1.6-2.5-2.3c-1-0.6-2.2-1.2-3.5-1.7c-1.3-0.5-2.6-0.9-3.9-1.2c-0.6-0.2-1.2-0.3-1.8-0.4 c-0.6-0.1-1.2-0.3-1.8-0.4c-0.6-0.1-1.3-0.2-1.9-0.3c-0.6-0.1-1.3-0.2-1.9-0.2c-5.3-0.6-11.2-0.5-17.3,0.1c-6.7,0.7-14,2.3-21.3,4.6 C10.7,14.1,5.3,16.2,0,18.7V4.4C0,2,2.3,0,5.2,0h67.5C75.7,0,78,2,78,4.4v38.8c-0.1,0.1-0.3,0.2-0.4,0.3 C72.9,47.8,67.4,51.1,61.7,53.5z"></path> </svg> 