<?xml version="1.0" encoding="UTF-8"?> <svg xmlns="http://www.w3.org/2000/svg" width="113" height="50" viewBox="0 0 113 50" fill="none"><path d="M13.0875 17.2752C11.7822 17.2752 10.5905 16.9599 9.51253 16.3292C8.44186 15.6912 7.59119 14.7562 6.96053 13.5242C6.32986 12.2849 6.01453 10.7559 6.01453 8.93723C6.01453 7.1259 6.34819 5.59323 7.01553 4.33923C7.69019 3.08523 8.59219 2.13556 9.72153 1.49023C10.8582 0.837563 12.1232 0.51123 13.5165 0.51123C14.6899 0.51123 15.6835 0.69823 16.4975 1.07223C17.3189 1.4389 17.9825 1.9119 18.4885 2.49123C19.0019 3.07056 19.3722 3.67923 19.5995 4.31723C19.8342 4.95523 19.9515 5.53823 19.9515 6.06623C19.9515 6.08823 19.9515 6.11023 19.9515 6.13223C19.9515 6.15423 19.9515 6.17623 19.9515 6.19823H16.1345C16.1345 6.17623 16.1345 6.15423 16.1345 6.13223C16.1345 6.11023 16.1345 6.08823 16.1345 6.06623C16.1345 5.75823 16.0759 5.45756 15.9585 5.16423C15.8485 4.8709 15.6799 4.6069 15.4525 4.37223C15.2252 4.13756 14.9502 3.95056 14.6275 3.81123C14.3049 3.6719 13.9345 3.60223 13.5165 3.60223C12.9519 3.60223 12.3982 3.76723 11.8555 4.09723C11.3202 4.4199 10.8765 4.9699 10.5245 5.74723C10.1799 6.51723 10.0075 7.58056 10.0075 8.93723C10.0075 9.9639 10.1065 10.8182 10.3045 11.5002C10.5025 12.1749 10.7629 12.7102 11.0855 13.1062C11.4155 13.5022 11.7859 13.7846 12.1965 13.9532C12.6072 14.1146 13.0252 14.1952 13.4505 14.1952C14.0445 14.1952 14.5469 14.0962 14.9575 13.8982C15.3755 13.7002 15.7055 13.4546 15.9475 13.1612C16.1895 12.8679 16.3435 12.5819 16.4095 12.3032V11.4672H13.4505V8.69523H19.8855V17.0002H17.9495L17.5755 15.2072C17.5242 15.3539 17.3995 15.5446 17.2015 15.7792C17.0109 16.0139 16.7395 16.2449 16.3875 16.4722C16.0355 16.6996 15.5845 16.8902 15.0345 17.0442C14.4919 17.1982 13.8429 17.2752 13.0875 17.2752Z" fill="#261D9D"></path><path d="M21.0893 17.0002L24.9943 0.76423H31.2203L35.1143 17.0002H31.0883L28.1073 3.12923H28.1293L25.1043 17.0002H21.0893ZM24.1913 13.4142V10.4112H32.0453V13.4142H24.1913Z" fill="#261D9D"></path><path d="M48.4929 0.77523H55.1149V17.0002H51.3859V2.96423L51.4519 3.00823L48.6139 17.0002H43.5539L40.6499 2.97523L40.7159 2.94223V17.0002H36.9869V0.77523H43.6089L46.2159 15.3392H45.8529L48.4929 0.77523Z" fill="#261D9D"></path><path d="M64.5347 0.77523C65.708 0.77523 66.665 0.940231 67.4057 1.27023C68.1464 1.60023 68.689 2.06223 69.0337 2.65623C69.3857 3.25023 69.5617 3.9359 69.5617 4.71323C69.5617 5.4979 69.4077 6.17256 69.0997 6.73723C68.7917 7.29456 68.403 7.7309 67.9337 8.04623C67.4717 8.35423 66.9987 8.52656 66.5147 8.56323C67.006 8.5779 67.5194 8.7099 68.0547 8.95923C68.59 9.20856 69.0447 9.60823 69.4187 10.1582C69.7927 10.7082 69.9797 11.4452 69.9797 12.3692C69.9797 13.2272 69.8074 14.0082 69.4627 14.7122C69.118 15.4089 68.546 15.9662 67.7467 16.3842C66.9547 16.7949 65.8804 17.0002 64.5237 17.0002H57.7807V0.77523H64.5347ZM61.5207 8.25523L60.2337 7.19923H63.4347C64.1974 7.19923 64.7547 7.03056 65.1067 6.69323C65.466 6.3559 65.6457 5.91956 65.6457 5.38423C65.6457 5.0249 65.5687 4.72423 65.4147 4.48223C65.268 4.24023 65.037 4.0569 64.7217 3.93223C64.4064 3.80756 64.0067 3.74523 63.5227 3.74523H59.7497L61.5207 1.93023V8.25523ZM63.7537 14.0192C64.5017 14.0192 65.059 13.8432 65.4257 13.4912C65.7924 13.1392 65.9757 12.6846 65.9757 12.1272C65.9757 11.8339 65.9244 11.5662 65.8217 11.3242C65.7264 11.0822 65.5797 10.8732 65.3817 10.6972C65.191 10.5212 64.9527 10.3856 64.6667 10.2902C64.3807 10.1949 64.0544 10.1472 63.6877 10.1472H60.2337L61.5207 9.09123V15.8342L59.7497 14.0192H63.7537Z" fill="#261D9D"></path><path d="M72.1323 17.0002V0.77523H76.0703V15.8342L74.2993 13.8432H81.9773V17.0002H72.1323Z" fill="#261D9D"></path><path d="M86.1911 3.74523L87.9621 1.93023V8.45323L87.0821 7.37523H92.9891V10.3452H87.0821L87.9621 9.27823V15.8452L86.1911 14.0302H94.2101V17.0002H84.0131V0.77523H94.2101V3.74523H86.1911Z" fill="#261D9D"></path><path d="M96.7534 17.0002V0.77523H103.639C105.414 0.77523 106.73 1.1749 107.588 1.97423C108.454 2.76623 108.886 3.88823 108.886 5.34023C108.886 6.17623 108.729 6.88756 108.413 7.47423C108.098 8.05356 107.706 8.50456 107.236 8.82723C106.767 9.14256 106.309 9.31856 105.861 9.35523C106.323 9.38456 106.756 9.49823 107.159 9.69623C107.57 9.8869 107.9 10.1986 108.149 10.6312C108.406 11.0566 108.534 11.6286 108.534 12.3472C108.534 12.8459 108.534 13.3299 108.534 13.7992C108.534 14.2612 108.534 14.7416 108.534 15.2402C108.534 15.6142 108.564 15.9662 108.622 16.2962C108.681 16.6189 108.769 16.8536 108.886 17.0002H104.959C104.857 16.8316 104.772 16.5896 104.706 16.2742C104.648 15.9589 104.618 15.6142 104.618 15.2402C104.618 14.8002 104.618 14.3932 104.618 14.0192C104.618 13.6452 104.618 13.2382 104.618 12.7982C104.618 12.1896 104.472 11.7129 104.178 11.3682C103.892 11.0236 103.405 10.8512 102.715 10.8512H99.5584L100.592 9.63023V17.0002H96.7534ZM100.592 9.27823L99.5584 7.88123H102.759C103.163 7.88123 103.522 7.79323 103.837 7.61723C104.153 7.44123 104.398 7.1919 104.574 6.86923C104.758 6.53923 104.849 6.15423 104.849 5.71423C104.849 5.12756 104.659 4.6509 104.277 4.28423C103.903 3.91756 103.383 3.73423 102.715 3.73423H99.4594L100.592 2.51323V9.27823Z" fill="#261D9D"></path><path fill-rule="evenodd" clip-rule="evenodd" d="M13.3109 48.2262C14.6189 48.9822 16.0589 49.3602 17.6309 49.3602C19.2029 49.3602 20.6249 48.9822 21.8969 48.2262C22.6549 47.7799 23.3209 47.2395 23.8949 46.605V49.0002H26.9729V24H92.0055V49.0002H94.9215V40.6182L97.1885 38.6535L103.922 49.0002H107.215L99.1502 36.9195L107.144 29.8842H103.184L94.9215 36.959V24H112.993V21H94.9215V20.8662H92.0055V21H26.9729V20.8662H23.8949V21H0.99292V24H23.8949V32.2753C23.2842 31.6297 22.5762 31.0907 21.7709 30.6582C20.4869 29.9502 19.1069 29.5962 17.6309 29.5962C16.0829 29.5962 14.6549 29.9802 13.3469 30.7482C12.0389 31.5042 10.9889 32.6142 10.1969 34.0782C9.40491 35.5422 9.00891 37.3242 9.00891 39.4242C9.00891 41.5602 9.39891 43.3722 10.1789 44.8602C10.9589 46.3362 12.0029 47.4582 13.3109 48.2262ZM23.8949 37.9842V38.1102V38.2182V40.6842C23.8949 41.7642 23.6309 42.7422 23.1029 43.6182C22.5749 44.4822 21.8669 45.1722 20.9789 45.6882C20.1029 46.2042 19.1309 46.4622 18.0629 46.4622C16.3709 46.4622 14.9609 45.8862 13.8329 44.7342C12.7169 43.5702 12.1589 41.8002 12.1589 39.4242C12.1589 37.0362 12.7169 35.2722 13.8329 34.1322C14.9489 32.9802 16.3589 32.4042 18.0629 32.4042C19.0829 32.4042 20.0369 32.6562 20.9249 33.1602C21.8129 33.6522 22.5269 34.3182 23.0669 35.1582C23.6189 35.9982 23.8949 36.9402 23.8949 37.9842ZM40.0551 40.6662C40.1693 41.6264 40.4217 42.4844 40.8124 43.2402C41.3764 44.3082 42.1744 45.1302 43.2064 45.7062C44.2384 46.2822 45.4624 46.5702 46.8784 46.5702C47.8864 46.5702 48.7624 46.4682 49.5064 46.2642C50.2504 46.0482 50.8624 45.7662 51.3424 45.4182C51.8344 45.0582 52.2064 44.6682 52.4584 44.2482C52.7104 43.8282 52.8604 43.4082 52.9084 42.9882H55.9684C55.9084 43.7562 55.6684 44.5182 55.2484 45.2742C54.8284 46.0302 54.2344 46.7202 53.4664 47.3442C52.6984 47.9562 51.7564 48.4482 50.6404 48.8202C49.5244 49.1922 48.2404 49.3782 46.7884 49.3782C44.8684 49.3782 43.1764 48.9582 41.7124 48.1182C40.2484 47.2782 39.0964 46.1142 38.2564 44.6262C37.4284 43.1382 37.0144 41.4282 37.0144 39.4962C37.0144 37.5402 37.4344 35.8242 38.2744 34.3482C39.1144 32.8602 40.2724 31.6962 41.7484 30.8562C43.2244 30.0162 44.9104 29.5962 46.8064 29.5962C48.7384 29.5962 50.4124 30.0162 51.8284 30.8562C53.2444 31.6962 54.3364 32.8482 55.1044 34.3122C55.8724 35.7642 56.2564 37.4202 56.2564 39.2802C56.2564 39.4722 56.2504 39.7242 56.2384 40.0362C56.2264 40.3482 56.2084 40.5582 56.1844 40.6662H40.0551ZM40.0972 37.9302H52.9637C52.9026 37.0215 52.6742 36.1815 52.2784 35.4102C51.8224 34.4862 51.1384 33.7482 50.2264 33.1962C49.3144 32.6442 48.1864 32.3682 46.8424 32.3682C45.4864 32.3682 44.2924 32.6562 43.2604 33.2322C42.2284 33.8082 41.4244 34.6242 40.8484 35.6802C40.4805 36.347 40.2301 37.097 40.0972 37.9302ZM73.7338 49.3602C72.5818 49.3602 71.5138 49.2402 70.5298 49.0002C69.5578 48.7482 68.7058 48.3882 67.9738 47.9202C67.2538 47.4402 66.6898 46.8522 66.2818 46.1562C65.8858 45.4602 65.6878 44.6622 65.6878 43.7622V43.4742V43.2042H68.7658V43.3842V43.6002C68.7658 44.5722 69.2158 45.3162 70.1158 45.8322C71.0158 46.3362 72.2458 46.5882 73.8058 46.5882C74.7658 46.5882 75.6238 46.4922 76.3798 46.3002C77.1358 46.1082 77.7298 45.8142 78.1618 45.4182C78.6058 45.0222 78.8278 44.5242 78.8278 43.9242C78.8278 42.9282 78.3598 42.2202 77.4238 41.8002C76.4998 41.3682 75.1138 40.9962 73.2658 40.6842C72.2938 40.5162 71.3698 40.3002 70.4938 40.0362C69.6178 39.7602 68.8378 39.4062 68.1538 38.9742C67.4818 38.5422 66.9478 38.0082 66.5518 37.3722C66.1678 36.7242 65.9758 35.9502 65.9758 35.0502C65.9758 33.8862 66.3178 32.9022 67.0018 32.0982C67.6978 31.2822 68.6338 30.6642 69.8098 30.2442C70.9858 29.8122 72.2938 29.5962 73.7338 29.5962C75.1258 29.5962 76.4098 29.8182 77.5858 30.2622C78.7618 30.7062 79.7038 31.3542 80.4118 32.2062C81.1318 33.0462 81.4918 34.0842 81.4918 35.3202V35.5002V35.6802H78.4318V35.5362V35.4102C78.4318 34.7142 78.2098 34.1442 77.7658 33.7002C77.3218 33.2442 76.7458 32.9082 76.0378 32.6922C75.3298 32.4642 74.5738 32.3502 73.7698 32.3502C73.0138 32.3502 72.2698 32.4342 71.5378 32.6022C70.8058 32.7582 70.1998 33.0222 69.7198 33.3942C69.2398 33.7662 68.9998 34.2762 68.9998 34.9242C68.9998 35.5722 69.2218 36.0942 69.6658 36.4902C70.1218 36.8742 70.7578 37.1922 71.5738 37.4442C72.4018 37.6842 73.3738 37.9062 74.4898 38.1102C75.4858 38.2902 76.4278 38.5182 77.3158 38.7942C78.2038 39.0582 78.9838 39.4002 79.6558 39.8202C80.3398 40.2402 80.8738 40.7742 81.2578 41.4222C81.6538 42.0582 81.8518 42.8382 81.8518 43.7622C81.8518 44.6982 81.6358 45.5142 81.2038 46.2102C80.7838 46.9062 80.1958 47.4882 79.4398 47.9562C78.6958 48.4242 77.8318 48.7722 76.8478 49.0002C75.8758 49.2402 74.8378 49.3602 73.7338 49.3602Z" fill="#F15D4E"></path></svg> 