<?xml version="1.0" encoding="UTF-8"?> <svg xmlns="http://www.w3.org/2000/svg" width="112" height="49" viewBox="0 0 112 49" fill="none"><path d="M16.6381 48.8602C15.0661 48.8602 13.6261 48.4822 12.3181 47.7262C11.0101 46.9582 9.96611 45.8362 9.18611 44.3602C8.40611 42.8722 8.01611 41.0602 8.01611 38.9242C8.01611 36.8242 8.41211 35.0422 9.20411 33.5782C9.99611 32.1142 11.0461 31.0042 12.3541 30.2482C13.6621 29.4802 15.0901 29.0962 16.6381 29.0962C18.1141 29.0962 19.4941 29.4502 20.7781 30.1582C22.0741 30.8542 23.1181 31.8262 23.9101 33.0742C24.7021 34.3222 25.0981 35.7682 25.0981 37.4122C25.0981 37.4482 25.0981 37.4842 25.0981 37.5202C25.0981 37.5562 25.0981 37.5922 25.0981 37.6282L22.9021 37.7182C22.9021 37.6822 22.9021 37.6462 22.9021 37.6102C22.9021 37.5622 22.9021 37.5202 22.9021 37.4842C22.9021 36.4402 22.6261 35.4982 22.0741 34.6582C21.5341 33.8182 20.8201 33.1522 19.9321 32.6602C19.0441 32.1562 18.0901 31.9042 17.0701 31.9042C15.3661 31.9042 13.9561 32.4802 12.8401 33.6322C11.7241 34.7722 11.1661 36.5362 11.1661 38.9242C11.1661 41.3002 11.7241 43.0702 12.8401 44.2342C13.9681 45.3862 15.3781 45.9622 17.0701 45.9622C18.1381 45.9622 19.1101 45.7042 19.9861 45.1882C20.8741 44.6722 21.5821 43.9822 22.1101 43.1182C22.6381 42.2422 22.9021 41.2642 22.9021 40.1842L25.0981 40.2382C25.0981 41.8702 24.7201 43.3402 23.9641 44.6482C23.2081 45.9442 22.1881 46.9702 20.9041 47.7262C19.6321 48.4822 18.2101 48.8602 16.6381 48.8602ZM22.9021 48.5002V20.3662H25.9801V48.5002H22.9021Z" fill="#F15D4E"></path><path d="M37.7496 40.1662V37.4302H52.5276L51.9876 38.3302C51.9876 38.2582 51.9876 38.1922 51.9876 38.1322C51.9876 38.0602 51.9876 37.9942 51.9876 37.9342C51.9876 36.8302 51.7536 35.8222 51.2856 34.9102C50.8296 33.9862 50.1456 33.2482 49.2336 32.6962C48.3216 32.1442 47.1936 31.8682 45.8496 31.8682C44.4936 31.8682 43.2996 32.1562 42.2676 32.7322C41.2356 33.3082 40.4316 34.1242 39.8556 35.1802C39.2796 36.2242 38.9916 37.4722 38.9916 38.9242C38.9916 40.4002 39.2676 41.6722 39.8196 42.7402C40.3836 43.8082 41.1816 44.6302 42.2136 45.2062C43.2456 45.7822 44.4696 46.0702 45.8856 46.0702C46.8936 46.0702 47.7696 45.9682 48.5136 45.7642C49.2576 45.5482 49.8696 45.2662 50.3496 44.9182C50.8416 44.5582 51.2136 44.1682 51.4656 43.7482C51.7176 43.3282 51.8676 42.9082 51.9156 42.4882H54.9756C54.9156 43.2562 54.6756 44.0182 54.2556 44.7742C53.8356 45.5302 53.2416 46.2202 52.4736 46.8442C51.7056 47.4562 50.7636 47.9482 49.6476 48.3202C48.5316 48.6922 47.2476 48.8782 45.7956 48.8782C43.8756 48.8782 42.1836 48.4582 40.7196 47.6182C39.2556 46.7782 38.1036 45.6142 37.2636 44.1262C36.4356 42.6382 36.0216 40.9282 36.0216 38.9962C36.0216 37.0402 36.4416 35.3242 37.2816 33.8482C38.1216 32.3602 39.2796 31.1962 40.7556 30.3562C42.2316 29.5162 43.9176 29.0962 45.8136 29.0962C47.7456 29.0962 49.4196 29.5162 50.8356 30.3562C52.2516 31.1962 53.3436 32.3482 54.1116 33.8122C54.8796 35.2642 55.2636 36.9202 55.2636 38.7802C55.2636 38.9722 55.2576 39.2242 55.2456 39.5362C55.2336 39.8482 55.2156 40.0582 55.1916 40.1662H37.7496Z" fill="#F15D4E"></path><path d="M72.741 48.8602C71.589 48.8602 70.521 48.7402 69.537 48.5002C68.565 48.2482 67.713 47.8882 66.981 47.4202C66.261 46.9402 65.697 46.3522 65.289 45.6562C64.893 44.9602 64.695 44.1622 64.695 43.2622C64.695 43.1662 64.695 43.0702 64.695 42.9742C64.695 42.8662 64.695 42.7762 64.695 42.7042H67.773C67.773 42.7762 67.773 42.8362 67.773 42.8842C67.773 42.9322 67.773 43.0042 67.773 43.1002C67.773 44.0722 68.223 44.8162 69.123 45.3322C70.023 45.8362 71.253 46.0882 72.813 46.0882C73.773 46.0882 74.631 45.9922 75.387 45.8002C76.143 45.6082 76.737 45.3142 77.169 44.9182C77.613 44.5222 77.835 44.0242 77.835 43.4242C77.835 42.4282 77.367 41.7202 76.431 41.3002C75.507 40.8682 74.121 40.4962 72.273 40.1842C71.301 40.0162 70.377 39.8002 69.501 39.5362C68.625 39.2602 67.845 38.9062 67.161 38.4742C66.489 38.0422 65.955 37.5082 65.559 36.8722C65.175 36.2242 64.983 35.4502 64.983 34.5502C64.983 33.3862 65.325 32.4022 66.009 31.5982C66.705 30.7822 67.641 30.1642 68.817 29.7442C69.993 29.3122 71.301 29.0962 72.741 29.0962C74.133 29.0962 75.417 29.3182 76.593 29.7622C77.769 30.2062 78.711 30.8542 79.419 31.7062C80.139 32.5462 80.499 33.5842 80.499 34.8202C80.499 34.8682 80.499 34.9282 80.499 35.0002C80.499 35.0602 80.499 35.1202 80.499 35.1802H77.439C77.439 35.1202 77.439 35.0722 77.439 35.0362C77.439 35.0002 77.439 34.9582 77.439 34.9102C77.439 34.2142 77.217 33.6442 76.773 33.2002C76.329 32.7442 75.753 32.4082 75.045 32.1922C74.337 31.9642 73.581 31.8502 72.777 31.8502C72.021 31.8502 71.277 31.9342 70.545 32.1022C69.813 32.2582 69.207 32.5222 68.727 32.8942C68.247 33.2662 68.007 33.7762 68.007 34.4242C68.007 35.0722 68.229 35.5942 68.673 35.9902C69.129 36.3742 69.765 36.6922 70.581 36.9442C71.409 37.1842 72.381 37.4062 73.497 37.6102C74.493 37.7902 75.435 38.0182 76.323 38.2942C77.211 38.5582 77.991 38.9002 78.663 39.3202C79.347 39.7402 79.881 40.2742 80.265 40.9222C80.661 41.5582 80.859 42.3382 80.859 43.2622C80.859 44.1982 80.643 45.0142 80.211 45.7102C79.791 46.4062 79.203 46.9882 78.447 47.4562C77.703 47.9242 76.839 48.2722 75.855 48.5002C74.883 48.7402 73.845 48.8602 72.741 48.8602Z" fill="#F15D4E"></path><path d="M91.0127 48.5002V20.3662H93.9287V37.6102L93.0467 37.2142L102.191 29.3842H106.151L96.9887 37.4482L97.7987 35.8822L106.223 48.5002H102.929L95.8187 37.5742L96.4487 37.9342L93.4787 40.5082L93.9287 39.0502V48.5002H91.0127Z" fill="#F15D4E"></path><path d="M12.0945 16.7747C10.7892 16.7747 9.59748 16.4594 8.51948 15.8287C7.44882 15.1907 6.59815 14.2557 5.96748 13.0237C5.33682 11.7844 5.02148 10.2554 5.02148 8.43674C5.02148 6.62541 5.35515 5.09274 6.02248 3.83874C6.69715 2.58474 7.59915 1.63508 8.72848 0.989741C9.86515 0.337075 11.1302 0.0107422 12.5235 0.0107422C13.6968 0.0107422 14.6905 0.197742 15.5045 0.571742C16.3258 0.938408 16.9895 1.41141 17.4955 1.99074C18.0088 2.57008 18.3792 3.17874 18.6065 3.81674C18.8412 4.45474 18.9585 5.03774 18.9585 5.56574C18.9585 5.58774 18.9585 5.60974 18.9585 5.63174C18.9585 5.65374 18.9585 5.67574 18.9585 5.69774H15.1415C15.1415 5.67574 15.1415 5.65374 15.1415 5.63174C15.1415 5.60974 15.1415 5.58774 15.1415 5.56574C15.1415 5.25774 15.0828 4.95708 14.9655 4.66374C14.8555 4.37041 14.6868 4.10641 14.4595 3.87174C14.2322 3.63708 13.9572 3.45008 13.6345 3.31074C13.3118 3.17141 12.9415 3.10174 12.5235 3.10174C11.9588 3.10174 11.4052 3.26674 10.8625 3.59674C10.3272 3.91941 9.88348 4.46941 9.53148 5.24674C9.18682 6.01674 9.01448 7.08008 9.01448 8.43674C9.01448 9.46341 9.11348 10.3177 9.31148 10.9997C9.50948 11.6744 9.76982 12.2097 10.0925 12.6057C10.4225 13.0017 10.7928 13.2841 11.2035 13.4527C11.6142 13.6141 12.0322 13.6947 12.4575 13.6947C13.0515 13.6947 13.5538 13.5957 13.9645 13.3977C14.3825 13.1997 14.7125 12.9541 14.9545 12.6607C15.1965 12.3674 15.3505 12.0814 15.4165 11.8027V10.9667H12.4575V8.19474H18.8925V16.4997H16.9565L16.5825 14.7067C16.5312 14.8534 16.4065 15.0441 16.2085 15.2787C16.0178 15.5134 15.7465 15.7444 15.3945 15.9717C15.0425 16.1991 14.5915 16.3897 14.0415 16.5437C13.4988 16.6977 12.8498 16.7747 12.0945 16.7747Z" fill="white"></path><path d="M20.0963 16.4997L24.0013 0.263741H30.2273L34.1213 16.4997H30.0953L27.1143 2.62874H27.1363L24.1113 16.4997H20.0963ZM23.1983 12.9137V9.91074H31.0523V12.9137H23.1983Z" fill="white"></path><path d="M47.4999 0.274742H54.1219V16.4997H50.3929V2.46374L50.4589 2.50774L47.6209 16.4997H42.5609L39.6569 2.47474L39.7229 2.44174V16.4997H35.9939V0.274742H42.6159L45.2229 14.8387H44.8599L47.4999 0.274742Z" fill="white"></path><path d="M63.5417 0.274742C64.715 0.274742 65.672 0.439742 66.4127 0.769742C67.1533 1.09974 67.696 1.56174 68.0407 2.15574C68.3927 2.74974 68.5687 3.43541 68.5687 4.21274C68.5687 4.99741 68.4147 5.67208 68.1067 6.23674C67.7987 6.79408 67.41 7.23041 66.9407 7.54574C66.4787 7.85374 66.0057 8.02608 65.5217 8.06274C66.013 8.07741 66.5263 8.20941 67.0617 8.45874C67.597 8.70808 68.0517 9.10774 68.4257 9.65774C68.7997 10.2077 68.9867 10.9447 68.9867 11.8687C68.9867 12.7267 68.8143 13.5077 68.4697 14.2117C68.125 14.9084 67.553 15.4657 66.7537 15.8837C65.9617 16.2944 64.8873 16.4997 63.5307 16.4997H56.7877V0.274742H63.5417ZM60.5277 7.75474L59.2407 6.69874H62.4417C63.2043 6.69874 63.7617 6.53008 64.1137 6.19274C64.473 5.85541 64.6527 5.41908 64.6527 4.88374C64.6527 4.52441 64.5757 4.22374 64.4217 3.98174C64.275 3.73974 64.044 3.55641 63.7287 3.43174C63.4133 3.30708 63.0137 3.24474 62.5297 3.24474H58.7567L60.5277 1.42974V7.75474ZM62.7607 13.5187C63.5087 13.5187 64.066 13.3427 64.4327 12.9907C64.7993 12.6387 64.9827 12.1841 64.9827 11.6267C64.9827 11.3334 64.9313 11.0657 64.8287 10.8237C64.7333 10.5817 64.5867 10.3727 64.3887 10.1967C64.198 10.0207 63.9597 9.88507 63.6737 9.78974C63.3877 9.69441 63.0613 9.64674 62.6947 9.64674H59.2407L60.5277 8.59074V15.3337L58.7567 13.5187H62.7607Z" fill="white"></path><path d="M71.1392 16.4997V0.274742H75.0772V15.3337L73.3062 13.3427H80.9842V16.4997H71.1392Z" fill="white"></path><path d="M85.1981 3.24474L86.9691 1.42974V7.95274L86.0891 6.87474H91.9961V9.84474H86.0891L86.9691 8.77774V15.3447L85.1981 13.5297H93.2171V16.4997H83.0201V0.274742H93.2171V3.24474H85.1981Z" fill="white"></path><path d="M95.7603 16.4997V0.274742H102.646C104.421 0.274742 105.737 0.674408 106.595 1.47374C107.461 2.26574 107.893 3.38774 107.893 4.83974C107.893 5.67574 107.736 6.38708 107.42 6.97374C107.105 7.55307 106.713 8.00408 106.243 8.32674C105.774 8.64208 105.316 8.81808 104.868 8.85474C105.33 8.88408 105.763 8.99774 106.166 9.19574C106.577 9.38641 106.907 9.69807 107.156 10.1307C107.413 10.5561 107.541 11.1281 107.541 11.8467C107.541 12.3454 107.541 12.8294 107.541 13.2987C107.541 13.7607 107.541 14.2411 107.541 14.7397C107.541 15.1137 107.571 15.4657 107.629 15.7957C107.688 16.1184 107.776 16.3531 107.893 16.4997H103.966C103.864 16.3311 103.779 16.0891 103.713 15.7737C103.655 15.4584 103.625 15.1137 103.625 14.7397C103.625 14.2997 103.625 13.8927 103.625 13.5187C103.625 13.1447 103.625 12.7377 103.625 12.2977C103.625 11.6891 103.479 11.2124 103.185 10.8677C102.899 10.5231 102.412 10.3507 101.722 10.3507H98.5653L99.5993 9.12974V16.4997H95.7603ZM99.5993 8.77774L98.5653 7.38074H101.766C102.17 7.38074 102.529 7.29274 102.844 7.11674C103.16 6.94074 103.405 6.69141 103.581 6.36874C103.765 6.03874 103.856 5.65374 103.856 5.21374C103.856 4.62708 103.666 4.15041 103.284 3.78374C102.91 3.41707 102.39 3.23374 101.722 3.23374H98.4663L99.5993 2.01274V8.77774Z" fill="white"></path><rect y="20.5" width="112" height="3" fill="#F15D4E"></rect></svg> 