<?xml version="1.0" encoding="UTF-8"?> <svg xmlns="http://www.w3.org/2000/svg" width="15" height="18" viewBox="0 0 15 18" fill="none"><path d="M0.531494 11.3479C0.531494 10.8496 0.687259 10.0878 0.980179 9.11999C1.26932 8.16464 1.67858 7.05088 2.15606 5.86634C2.25086 5.63116 2.46591 5.53735 2.69765 5.58013C2.92927 5.62288 3.08661 5.78374 3.08661 6.02628C3.08661 7.43542 4.29737 8.52191 5.71968 8.52191C7.142 8.52191 8.35275 7.43542 8.35275 6.02628C8.35275 4.17999 8.35337 2.83479 8.44584 1.90182C8.4921 1.43513 8.55844 1.10807 8.64232 0.888149C8.7253 0.670592 8.80255 0.616143 8.8363 0.59967C8.99534 0.522029 9.19996 0.48583 9.38195 0.505078C9.43123 0.510289 9.53159 0.541633 9.69353 0.715908C9.857 0.891826 10.0434 1.17116 10.2631 1.58354C10.7026 2.40862 11.2121 3.64175 11.9104 5.33449C12.4433 6.62592 12.9071 7.85244 13.2369 8.90466C13.5712 9.97119 13.752 10.8105 13.752 11.3479C13.752 14.7148 10.8244 17.5 7.14173 17.5C3.45911 17.5 0.531494 14.7148 0.531494 11.3479Z" stroke="#A4A4A4"></path></svg> 