<svg width="164" height="170" viewBox="0 0 164 170" fill="none" xmlns="http://www.w3.org/2000/svg">
<path fill-rule="evenodd" clip-rule="evenodd" d="M83.9822 0.0309963C103.022 -0.979443 111.517 22.9625 125.127 35.5416C136.211 45.7851 150 53.3669 156.2 66.7754C162.827 81.1057 167.47 98.0853 160.632 112.327C153.962 126.218 134.61 128.587 121.956 138.094C108.379 148.296 101.29 168.538 83.9822 169.919C66.7188 171.298 54.6215 154.666 41.0232 144.556C28.07 134.925 13.2546 126.789 6.75501 112.504C-0.0967484 97.444 -3.24642 79.1986 4.64356 64.5966C12.2562 50.508 33.3729 50.0727 46.0736 39.7369C60.7323 27.8077 64.6391 1.05752 83.9822 0.0309963Z" fill="#F3FCF8"/>
<path d="M129.098 36.241C128.887 36.241 128.678 36.2515 128.47 36.266C127.338 32.199 123.61 29.214 119.183 29.214C113.857 29.214 109.541 33.531 109.541 38.856C109.541 38.9295 109.545 39.0015 109.546 39.0745C109.029 38.9585 108.492 38.895 107.94 38.895C103.909 38.895 100.64 42.1635 100.64 46.195C100.64 50.2265 103.909 53.495 107.94 53.495C108.111 53.495 108.28 53.487 108.448 53.4755L129.216 53.495V53.492C133.926 53.429 137.726 49.593 137.726 44.8675C137.725 40.104 133.863 36.241 129.098 36.241Z" fill="#1B989E"/>
<path d="M129.098 35.491C129.07 35.491 129.042 35.491 129.015 35.4915C127.589 31.325 123.629 28.464 119.183 28.464C113.675 28.464 109.154 32.7705 108.811 38.193C108.521 38.1615 108.23 38.145 107.94 38.145C103.501 38.145 99.8896 41.756 99.8896 46.195C99.8896 50.634 103.501 54.245 107.94 54.245C108.119 54.245 108.297 54.2375 108.473 54.2255L129.214 54.245H129.215C129.241 54.245 129.267 54.2435 129.293 54.241C134.362 54.1365 138.475 49.946 138.475 44.868C138.475 39.698 134.269 35.491 129.098 35.491ZM129.205 52.7425C129.186 52.7425 129.168 52.7435 129.149 52.7455L108.448 52.726C108.449 52.728 108.414 52.7265 108.395 52.7275C108.244 52.738 108.093 52.7455 107.94 52.7455C104.328 52.7455 101.39 49.8075 101.39 46.1955C101.39 42.584 104.328 39.6455 107.94 39.6455C108.421 39.6455 108.906 39.6995 109.382 39.8065C109.608 39.858 109.844 39.801 110.023 39.654C110.201 39.507 110.302 39.286 110.296 39.0545L110.29 38.856C110.29 33.9525 114.28 29.9635 119.183 29.9635C123.16 29.9635 126.682 32.6375 127.747 36.4665C127.843 36.8105 128.172 37.038 128.524 37.0135C128.714 37 128.905 36.9905 129.098 36.9905C133.442 36.9905 136.975 40.524 136.975 44.8675C136.975 49.153 133.489 52.6855 129.205 52.7425Z" fill="#1D1D1F"/>
<path d="M54.7329 123.531C54.5214 123.531 54.3124 123.541 54.1049 123.556C52.9729 119.489 49.2449 116.504 44.8174 116.504C39.4919 116.504 35.1754 120.821 35.1754 126.146C35.1754 126.219 35.1794 126.292 35.1809 126.365C34.6639 126.249 34.1269 126.185 33.5749 126.185C29.5434 126.185 26.2749 129.453 26.2749 133.485C26.2749 137.517 29.5434 140.785 33.5749 140.785C33.7459 140.785 33.9144 140.777 34.0824 140.766L44.7949 140.776L51.6554 140.782L54.8504 140.785V140.782C59.5609 140.719 63.3604 136.883 63.3604 132.158C63.3604 127.393 59.4979 123.531 54.7329 123.531Z" fill="#1B989E"/>
<path d="M54.7329 122.781C54.7049 122.781 54.6774 122.781 54.6494 122.782C53.2239 118.615 49.2639 115.754 44.8174 115.754C39.3099 115.754 34.7889 120.061 34.4459 125.483C34.1554 125.452 33.8644 125.435 33.5744 125.435C29.1359 125.435 25.5244 129.047 25.5244 133.486C25.5244 137.924 29.1359 141.536 33.5744 141.536C33.7534 141.536 33.9309 141.528 34.1069 141.516L44.7934 141.527H44.7939C45.2079 141.527 45.5434 141.191 45.5439 140.777C45.5444 140.363 45.2089 140.027 44.7944 140.027L34.0819 140.016C34.0814 140.016 34.0814 140.016 34.0814 140.016C34.0639 140.016 34.0464 140.017 34.0289 140.018C33.8784 140.029 33.7269 140.036 33.5739 140.036C29.9619 140.036 27.0239 137.098 27.0239 133.486C27.0239 129.874 29.9619 126.935 33.5739 126.935C34.0539 126.935 34.5389 126.989 35.0154 127.097C35.2414 127.147 35.4769 127.091 35.6554 126.945C35.8339 126.798 35.9354 126.578 35.9299 126.347L35.9244 126.146C35.9244 121.243 39.9134 117.254 44.8169 117.254C48.7939 117.254 52.3159 119.929 53.3819 123.757C53.4769 124.101 53.8044 124.337 54.1569 124.304C54.3474 124.291 54.5389 124.281 54.7324 124.281C59.0759 124.281 62.6094 127.815 62.6094 132.158C62.6094 136.443 59.1234 139.976 54.8389 140.033C54.8199 140.033 54.8014 140.034 54.7834 140.036L51.6549 140.033C51.2409 140.033 50.9054 140.368 50.9049 140.782C50.9044 141.196 51.2404 141.532 51.6544 141.533L54.8494 141.536H54.8499C54.8759 141.536 54.9019 141.534 54.9279 141.531C59.9974 141.427 64.1099 137.236 64.1099 132.158C64.1104 126.988 59.9039 122.781 54.7329 122.781Z" fill="#1D1D1F"/>
<path d="M48.7388 39.9271C44.4368 39.6701 42.8233 33.9151 42.8073 33.8571C42.7123 33.5061 42.3843 33.2776 42.0158 33.3061C41.6533 33.3391 41.3668 33.6271 41.3363 33.9896C40.9063 39.0971 35.6793 39.9711 35.4593 40.0056C35.0778 40.0631 34.8028 40.4006 34.8228 40.7861C34.8428 41.1711 35.1513 41.4781 35.5363 41.4966C40.0503 41.7091 41.2858 47.8561 41.2978 47.9181C41.3663 48.2736 41.6773 48.5266 42.0338 48.5266C42.0548 48.5266 42.0758 48.5261 42.0968 48.5241C42.4788 48.4921 42.7753 48.1776 42.7843 47.7946C42.8808 43.5401 48.8793 41.4061 48.9398 41.3851C49.2773 41.2676 49.4858 40.9276 49.4368 40.5736C49.3878 40.2191 49.0958 39.9486 48.7388 39.9271ZM41.9563 45.1006C41.2778 43.5356 40.1018 41.6471 38.1628 40.6626C39.6283 39.9601 41.3673 38.7061 42.2638 36.5261C43.0393 38.0616 44.3638 39.9661 46.4308 40.8871C44.9268 41.7071 42.9698 43.0896 41.9563 45.1006Z" fill="#1D1D1F"/>
<path d="M35.9549 46.479C33.0719 46.3065 31.9689 42.3865 31.9579 42.347C31.8629 41.996 31.5294 41.763 31.1669 41.796C30.8039 41.8285 30.5174 42.117 30.4869 42.48C30.1974 45.9155 26.6639 46.513 26.5159 46.5365C26.1344 46.594 25.8594 46.9315 25.8794 47.317C25.8994 47.702 26.2079 48.009 26.5929 48.0275C29.6109 48.1695 30.4549 52.3495 30.4624 52.3905C30.5299 52.747 30.8419 53.0005 31.1984 53.0005C31.2194 53.0005 31.2399 53 31.2609 52.998C31.6434 52.9665 31.9399 52.651 31.9489 52.2675C32.0139 49.413 36.1149 47.9505 36.1554 47.9365C36.4939 47.8195 36.7024 47.48 36.6534 47.1255C36.6044 46.771 36.3124 46.5005 35.9549 46.479ZM31.1629 49.8765C30.7009 48.9335 29.9929 47.903 28.9394 47.2365C29.8674 46.7155 30.7879 45.9215 31.3749 44.778C31.9034 45.715 32.7019 46.7555 33.8454 47.39C32.9204 47.9405 31.8509 48.7605 31.1629 49.8765Z" fill="#1D1D1F"/>
<path d="M35.9554 33.1505C33.0719 32.978 31.9689 29.0575 31.9584 29.018C31.8634 28.667 31.5299 28.4335 31.1674 28.467C30.8044 28.4995 30.5179 28.788 30.4874 29.151C30.1979 32.5865 26.6644 33.1845 26.5164 33.208C26.1349 33.2655 25.8599 33.603 25.8799 33.9885C25.8999 34.3735 26.2084 34.6805 26.5939 34.699C29.6114 34.841 30.4554 39.021 30.4634 39.062C30.5309 39.4185 30.8429 39.672 31.1994 39.672C31.2204 39.672 31.2409 39.6715 31.2619 39.6695C31.6444 39.638 31.9409 39.3225 31.9499 38.939C32.0149 36.0845 36.1159 34.622 36.1564 34.608C36.4944 34.491 36.7034 34.1515 36.6544 33.797C36.6044 33.4425 36.3124 33.172 35.9554 33.1505ZM31.1629 36.548C30.7009 35.6055 29.9929 34.5745 28.9394 33.908C29.8674 33.3875 30.7879 32.593 31.3749 31.45C31.9034 32.387 32.7024 33.427 33.8454 34.062C32.9204 34.612 31.8509 35.4315 31.1629 36.548Z" fill="#1D1D1F"/>
<path d="M137.712 80.1275C137.513 77.2175 134.976 75.016 132.059 75.016H112.6C106.525 75.016 101.6 79.941 101.6 86.016H132.225C133.745 86.016 135.12 85.401 136.115 84.406C137.195 83.327 137.827 81.801 137.712 80.1275Z" fill="#F3FCF8"/>
<path d="M138.46 80.076C138.237 76.818 135.425 74.266 132.059 74.266H112.6C106.121 74.266 100.85 79.537 100.85 86.016C100.85 86.43 101.186 86.766 101.6 86.766H132.225C133.896 86.766 135.465 86.116 136.646 84.9365C137.923 83.659 138.585 81.887 138.46 80.076ZM135.585 83.876C134.688 84.7725 133.495 85.266 132.225 85.266H102.378C102.763 79.963 107.201 75.766 112.6 75.766H132.059C134.64 75.766 136.794 77.704 136.964 80.1785C137.058 81.5575 136.556 82.905 135.585 83.876Z" fill="#1D1D1F"/>
<path d="M125.225 86.016H101.6V97.016H125.225C126.745 97.016 128.12 96.401 129.115 95.406C130.11 94.411 130.725 93.036 130.725 91.516C130.725 88.476 128.265 86.016 125.225 86.016Z" fill="#F3FCF8"/>
<path d="M125.225 85.266H101.6C101.186 85.266 100.85 85.602 100.85 86.016V97.016C100.85 97.43 101.186 97.766 101.6 97.766H125.225C126.896 97.766 128.466 97.116 129.646 95.9365C130.825 94.757 131.475 93.187 131.475 91.516C131.475 88.07 128.672 85.266 125.225 85.266ZM128.585 94.876C127.689 95.7725 126.495 96.266 125.225 96.266H102.35V86.766H125.225C127.844 86.766 129.975 88.897 129.975 91.516C129.975 92.786 129.482 93.9795 128.585 94.876Z" fill="#1D1D1F"/>
<path d="M118.225 97.016H101.6V108.016H118.225C119.745 108.016 121.12 107.401 122.115 106.406C123.11 105.411 123.725 104.036 123.725 102.516C123.725 99.476 121.265 97.016 118.225 97.016Z" fill="#F3FCF8"/>
<path d="M118.225 96.266H101.6C101.186 96.266 100.85 96.602 100.85 97.016V108.016C100.85 108.43 101.186 108.766 101.6 108.766H118.225C119.896 108.766 121.466 108.116 122.646 106.937C123.825 105.757 124.475 104.187 124.475 102.516C124.475 99.07 121.672 96.266 118.225 96.266ZM121.585 105.876C120.689 106.773 119.495 107.266 118.225 107.266H102.35V97.766H118.225C120.844 97.766 122.975 99.897 122.975 102.516C122.975 103.786 122.482 104.98 121.585 105.876Z" fill="#1D1D1F"/>
<path d="M51.5999 75.016H32.1414C29.2244 75.016 26.6879 77.2175 26.4884 80.1275C26.3739 81.801 27.0059 83.327 28.0849 84.406C29.0799 85.401 30.4549 86.016 31.9749 86.016H62.5999C62.5999 79.941 57.6754 75.016 51.5999 75.016Z" fill="#F3FCF8"/>
<path d="M51.5998 74.266H32.1414C28.7754 74.266 25.9634 76.818 25.7404 80.076C25.6164 81.8875 26.2779 83.659 27.5549 84.9365C28.7349 86.116 30.3049 86.766 31.9749 86.766H62.5998C63.0143 86.766 63.3498 86.43 63.3498 86.016C63.3498 79.537 58.0788 74.266 51.5998 74.266ZM31.9749 85.266C30.7049 85.266 29.5119 84.7725 28.6154 83.876C27.6449 82.905 27.1424 81.5575 27.2369 80.1785C27.4064 77.704 29.5609 75.766 32.1414 75.766H51.5998C56.9993 75.766 61.4373 79.963 61.8228 85.266H31.9749Z" fill="#1D1D1F"/>
<path d="M38.9751 86.016C35.9351 86.016 33.4751 88.476 33.4751 91.516C33.4751 93.036 34.0901 94.411 35.0851 95.406C36.0801 96.401 37.4551 97.016 38.9751 97.016H62.6001V86.016H38.9751Z" fill="#F3FCF8"/>
<path d="M62.6001 85.266H38.9751C35.5286 85.266 32.7251 88.0695 32.7251 91.516C32.7251 93.1865 33.3751 94.7565 34.5551 95.9365C35.7346 97.116 37.3046 97.766 38.9751 97.766H62.6001C63.0146 97.766 63.3501 97.43 63.3501 97.016V86.016C63.3501 85.602 63.0146 85.266 62.6001 85.266ZM61.8501 96.266H38.9751C37.7051 96.266 36.5121 95.7725 35.6156 94.876C34.7191 93.9795 34.2251 92.786 34.2251 91.516C34.2251 88.897 36.3561 86.766 38.9751 86.766H61.8501V96.266Z" fill="#1D1D1F"/>
<path d="M45.9751 97.016C42.9351 97.016 40.4751 99.476 40.4751 102.516C40.4751 104.036 41.0901 105.411 42.0851 106.406C43.0801 107.401 44.4551 108.016 45.9751 108.016H62.6001V97.016H45.9751Z" fill="#F3FCF8"/>
<path d="M62.6001 96.266H45.9751C42.5286 96.266 39.7251 99.0695 39.7251 102.516C39.7251 104.187 40.3751 105.757 41.5551 106.937C42.7346 108.116 44.3046 108.766 45.9751 108.766H62.6001C63.0146 108.766 63.3501 108.43 63.3501 108.016V97.016C63.3501 96.602 63.0146 96.266 62.6001 96.266ZM61.8501 107.266H45.9751C44.7051 107.266 43.5121 106.773 42.6156 105.876C41.7191 104.98 41.2251 103.786 41.2251 102.516C41.2251 99.897 43.3561 97.766 45.9751 97.766H61.8501V107.266Z" fill="#1D1D1F"/>
<path d="M95.1021 72.141L99.5191 60.068H99.5096C99.6801 59.5165 99.7726 58.931 99.7726 58.3235C99.7726 55.07 97.1351 52.433 93.8816 52.433C90.6281 52.433 87.9906 55.0705 87.9906 58.3235C87.9906 55.07 85.3531 52.433 82.0996 52.433C78.8461 52.433 76.2086 55.0705 76.2086 58.3235C76.2086 55.07 73.5711 52.433 70.3176 52.433C67.0641 52.433 64.4266 55.0705 64.4266 58.3235C64.4266 58.931 64.5186 59.5165 64.6896 60.068H64.6801L69.0971 72.141C59.0411 76.985 52.1001 87.274 52.1001 99.1845C52.1001 115.753 65.5316 117.6 82.1001 117.6C98.6686 117.6 112.1 115.753 112.1 99.1845C112.1 87.274 105.16 76.985 95.1021 72.141Z" fill="#5EEAA7"/>
<path d="M96.0371 71.7675L100.223 60.326C100.242 60.276 100.254 60.225 100.261 60.1735C100.435 59.5735 100.522 58.952 100.522 58.3235C100.522 54.662 97.5431 51.683 93.8816 51.683C91.3246 51.683 89.1001 53.136 87.9911 55.2595C86.8816 53.136 84.6571 51.683 82.1001 51.683C79.5426 51.683 77.3181 53.136 76.2091 55.2595C75.1001 53.136 72.8756 51.683 70.3186 51.683C66.6566 51.683 63.6776 54.662 63.6776 58.3235C63.6776 58.95 63.7651 59.5705 63.9381 60.1685C63.9451 60.2215 63.9581 60.2745 63.9771 60.326L68.1631 71.7675C57.9271 76.9845 51.3501 87.671 51.3501 99.1845C51.3501 116.87 66.5406 118.35 82.1001 118.35C97.6591 118.35 112.85 116.87 112.85 99.1845C112.85 87.6705 106.273 76.984 96.0371 71.7675ZM82.1001 116.85C63.5751 116.85 52.8501 113.959 52.8501 99.1845C52.8501 88.016 59.3556 77.666 69.4236 72.8165C69.7711 72.649 69.9351 72.245 69.8026 71.883L65.4261 59.9215C65.4211 59.896 65.4146 59.871 65.4071 59.846C65.2546 59.3545 65.1776 58.842 65.1776 58.323C65.1776 55.4885 67.4836 53.1825 70.3186 53.1825C73.1531 53.1825 75.4591 55.4885 75.4591 58.323C75.4591 58.7375 75.7946 59.073 76.2091 59.073C76.6236 59.073 76.9591 58.7375 76.9591 58.323C76.9591 55.4885 79.2651 53.1825 82.1001 53.1825C84.9351 53.1825 87.2411 55.4885 87.2411 58.323C87.2411 58.7375 87.5771 59.073 87.9911 59.073C88.4051 59.073 88.7411 58.7375 88.7411 58.323C88.7411 55.4885 91.0471 53.1825 93.8816 53.1825C96.7161 53.1825 99.0221 55.4885 99.0221 58.323C99.0221 58.8415 98.9451 59.354 98.7931 59.846C98.7851 59.87 98.7796 59.8945 98.7746 59.919L94.3976 71.883C94.2646 72.245 94.4291 72.649 94.7761 72.8165C104.845 77.6655 111.35 88.016 111.35 99.1845C111.35 113.959 100.625 116.85 82.1001 116.85Z" fill="#1D1D1F"/>
<path d="M87.4892 107.276C94.6287 104.316 98.0174 96.1295 95.058 88.99C92.0987 81.8505 83.9119 78.4618 76.7724 81.4211C69.6329 84.3805 66.2442 92.5672 69.2036 99.7067C72.1629 106.846 80.3496 110.235 87.4892 107.276Z" fill="#5E34FF"/>
<path d="M82.0999 79.6189C73.9719 79.6189 67.3594 86.2314 67.3594 94.3599C67.3594 102.488 73.9719 109.1 82.0999 109.1C90.2279 109.1 96.8404 102.487 96.8404 94.3599C96.8409 86.2314 90.2279 79.6189 82.0999 79.6189ZM82.0999 107.6C74.7989 107.6 68.8594 101.66 68.8594 94.3599C68.8594 87.0584 74.7989 81.1189 82.0999 81.1189C89.4009 81.1189 95.3404 87.0584 95.3404 94.3599C95.3409 101.66 89.4009 107.6 82.0999 107.6Z" fill="#1D1D1F"/>
<path d="M83.7637 92.7776C81.7262 92.0106 80.8867 91.5071 80.8867 90.7161C80.8867 90.0451 81.3902 89.3736 82.9487 89.3736C84.6742 89.3736 85.7772 89.9246 86.4007 90.1886L87.0962 87.4801C86.3052 87.0966 85.2262 86.7606 83.6202 86.6886V84.5791H81.2712V86.8561C78.7062 87.3596 77.2202 89.0136 77.2202 91.1231C77.2202 93.4486 78.9702 94.6471 81.5352 95.5101C83.3092 96.1091 84.0762 96.6851 84.0762 97.5951C84.0762 98.5541 83.1412 99.0816 81.7747 99.0816C80.2162 99.0816 78.8022 98.5781 77.7952 98.0271L77.0762 100.832C77.9872 101.359 79.5452 101.79 81.1512 101.862V104.139H83.5002V101.694C86.2567 101.215 87.7672 99.3931 87.7672 97.2596C87.7672 95.1031 86.6162 93.7846 83.7637 92.7776Z" fill="white"/>
<path d="M97.1953 67.896H67.3728C65.8478 67.896 64.6118 69.132 64.6118 70.6575C64.6118 72.1825 65.8478 73.419 67.3728 73.419H97.1953C98.7203 73.419 99.9568 72.1825 99.9568 70.6575C99.9568 69.132 98.7203 67.896 97.1953 67.896Z" fill="#F3FCF8"/>
<path d="M97.1953 67.146H79.1513C78.7368 67.146 78.4013 67.4815 78.4013 67.896C78.4013 68.3105 78.7368 68.646 79.1513 68.646H97.1953C98.3048 68.646 99.2068 69.5485 99.2068 70.657C99.2068 71.766 98.3043 72.6685 97.1953 72.6685H67.3728C66.2638 72.6685 65.3613 71.766 65.3613 70.657C65.3613 69.548 66.2638 68.646 67.3728 68.646H72.2988C72.7133 68.646 73.0488 68.3105 73.0488 67.896C73.0488 67.4815 72.7133 67.146 72.2988 67.146H67.3728C65.4368 67.146 63.8613 68.721 63.8613 70.657C63.8613 72.5935 65.4363 74.1685 67.3728 74.1685H97.1948C99.1313 74.1685 100.706 72.5935 100.706 70.657C100.707 68.721 99.1318 67.146 97.1953 67.146Z" fill="#1D1D1F"/>
<path d="M93.8799 53.1809C92.2649 53.1809 90.8199 53.9309 89.8799 55.1009C90.5949 55.9809 91.0199 57.1009 91.0199 58.3209C91.0199 58.8409 90.9449 59.3559 90.7949 59.8459C90.7849 59.8709 90.7799 59.8959 90.7749 59.9209L88.1299 67.1459H96.1299L98.7749 59.9209C98.7799 59.8959 98.7849 59.8709 98.7949 59.8459C98.9449 59.3559 99.0199 58.8409 99.0199 58.3209C99.0199 55.4909 96.7149 53.1809 93.8799 53.1809Z" fill="#232222" fill-opacity="0.1"/>
<path d="M97.2501 74.166H89.2501C97.8951 79.426 103.35 88.9609 103.35 99.1859C103.35 112.861 94.1601 116.356 78.1001 116.801C79.3901 116.836 80.7251 116.851 82.1001 116.851C100.625 116.851 111.35 113.961 111.35 99.1859C111.35 88.9609 105.895 79.426 97.2501 74.166Z" fill="#232222" fill-opacity="0.1"/>
<path d="M97.1948 68.646H89.1948C90.3048 68.646 91.2048 69.546 91.2048 70.656C91.2048 71.766 90.3048 72.666 89.1948 72.666H97.1948C98.3048 72.666 99.2048 71.766 99.2048 70.656C99.2048 69.546 98.3048 68.646 97.1948 68.646Z" fill="#232222" fill-opacity="0.1"/>
</svg>
