<svg width="158" height="146" viewBox="0 0 158 146" fill="none" xmlns="http://www.w3.org/2000/svg">
<path fill-rule="evenodd" clip-rule="evenodd" d="M77.2171 5.70435C102.65 -2.92229 137.47 -3.93011 152.771 18.1613C167.87 39.9617 146.393 67.3171 137.098 92.1593C130.106 110.843 124.71 131.239 107.019 140.428C88.788 149.898 67.4745 146.043 48.4942 138.184C27.7006 129.575 0.479938 118.64 0.00487852 96.1193C-0.459956 74.0833 32.4141 70.8854 46.7211 54.132C59.753 38.8718 58.2227 12.147 77.2171 5.70435Z" fill="#F3FCF8"/>
<path d="M131.042 86.745C130.207 86.705 129.357 86.885 128.577 87.29L111.797 96.0299H85.2269C79.4369 96.0299 73.7669 97.6649 68.8669 100.75L65.1269 103.1C63.6969 104 62.0369 104.48 60.3419 104.48H59.8669V108.415C59.8699 108.415 59.8719 108.414 59.8749 108.414V115.775C59.8719 115.775 59.8699 115.775 59.8669 115.775V120.285L95.4919 119.19C98.5469 118.99 101.487 117.965 104.002 116.215L133.612 93.4499C134.582 92.7749 134.897 91.8299 134.922 90.9199C134.977 88.7449 133.217 86.84 131.042 86.745Z" fill="#F3FCF8"/>
<path d="M131.077 85.9954C130.099 85.9469 129.113 86.1659 128.23 86.6249L111.613 95.2799H85.227C79.2875 95.2799 73.492 96.9519 68.468 100.115L64.727 102.465C63.413 103.292 61.896 103.73 60.3415 103.73H59.8665C59.452 103.73 59.1165 104.066 59.1165 104.48V108.415C59.117 108.844 59.4595 109.197 59.9145 109.163C60.3105 109.142 60.6245 108.815 60.6245 108.414C60.6245 108.377 60.622 108.34 60.6165 108.304V105.226C62.3575 105.177 64.0495 104.664 65.525 103.735L69.266 101.385C74.051 98.3724 79.57 96.7799 85.2265 96.7799H111.796C111.917 96.7799 112.036 96.7504 112.143 96.6949L128.922 87.9554C129.57 87.6189 130.29 87.4544 131.009 87.4939C132.768 87.5704 134.217 89.1309 134.172 90.8994C134.148 91.7549 133.825 92.3879 133.155 92.8549L103.573 115.599C101.176 117.267 98.365 118.25 95.469 118.44L60.617 119.511V115.886C60.6225 115.85 60.625 115.813 60.625 115.775C60.625 115.374 60.3105 115.047 59.9145 115.026C59.8985 115.025 59.882 115.025 59.867 115.025C59.4525 115.025 59.117 115.361 59.117 115.775V120.285C59.117 120.488 59.1995 120.682 59.345 120.823C59.485 120.959 59.6725 121.035 59.867 121.035C59.8745 121.035 59.8825 121.035 59.89 121.034L95.541 119.939C98.7355 119.729 101.809 118.655 104.459 116.81L134.04 94.0659C135.071 93.3484 135.635 92.2679 135.671 90.9394C135.737 88.3709 133.631 86.1074 131.077 85.9954Z" fill="#1D1D1F"/>
<path d="M112.546 96.419C112.389 96.036 111.951 95.853 111.568 96.01C111.184 96.167 111.001 96.605 111.158 96.9885C111.738 98.4025 110.91 100.11 109.793 101.065C108.49 102.18 106.674 102.722 105.073 103.201C101.458 104.28 98.18 104.944 94.7095 105.648C91.3575 106.328 87.8915 107.031 83.615 108.184C83.215 108.292 82.9785 108.703 83.086 109.103C83.176 109.438 83.479 109.658 83.8095 109.658C83.874 109.658 83.94 109.649 84.0055 109.632C88.236 108.491 91.6785 107.793 95.0075 107.118C98.512 106.408 101.822 105.736 105.502 104.638C107.246 104.117 109.223 103.527 110.768 102.205C112.248 100.939 113.435 98.589 112.546 96.419Z" fill="#1D1D1F"/>
<path d="M23.0769 96.5205H46.7019V128.719H23.0769V96.5205Z" fill="#5EEAA7"/>
<path d="M46.7019 95.7705H23.0769C22.6624 95.7705 22.3269 96.1065 22.3269 96.5205V128.719C22.3269 129.133 22.6624 129.469 23.0769 129.469H29.5644C29.9789 129.469 30.3144 129.133 30.3144 128.719C30.3144 128.305 29.9789 127.969 29.5644 127.969H23.8269V97.2705H45.9519V127.969H36.4354C36.0209 127.969 35.6854 128.305 35.6854 128.719C35.6854 129.133 36.0209 129.469 36.4354 129.469H46.7019C47.1164 129.469 47.4519 129.133 47.4519 128.719V96.5205C47.4519 96.1065 47.1159 95.7705 46.7019 95.7705Z" fill="#1D1D1F"/>
<path d="M55.8729 96.5205H46.7019V128.719H55.8729C58.0794 128.719 59.8684 126.93 59.8684 124.724V100.516C59.8684 98.3095 58.0794 96.5205 55.8729 96.5205Z" fill="#1B989E"/>
<path d="M59.8684 109.165C60.2829 109.165 60.6184 108.829 60.6184 108.415V100.516C60.6184 97.8995 58.4894 95.7705 55.8729 95.7705H46.7019C46.2874 95.7705 45.9519 96.1065 45.9519 96.5205V128.719C45.9519 129.133 46.2874 129.469 46.7019 129.469H55.8729C58.4894 129.469 60.6184 127.34 60.6184 124.724V115.775C60.6184 115.361 60.2829 115.025 59.8684 115.025C59.4539 115.025 59.1184 115.361 59.1184 115.775V124.724C59.1184 126.513 57.6624 127.969 55.8729 127.969H47.4519V97.2705H55.8729C57.6624 97.2705 59.1184 98.7265 59.1184 100.516V108.415C59.1184 108.829 59.4544 109.165 59.8684 109.165Z" fill="#1D1D1F"/>
<path d="M53.285 119.028C51.6205 119.028 50.271 120.377 50.271 122.042C50.271 123.706 51.6205 125.056 53.285 125.056C54.9495 125.056 56.299 123.706 56.299 122.042C56.299 120.377 54.9495 119.028 53.285 119.028Z" fill="#F3FCF8"/>
<path d="M53.285 118.278C51.2095 118.278 49.521 119.966 49.521 122.042C49.521 124.117 51.2095 125.805 53.285 125.805C55.3605 125.805 57.049 124.117 57.049 122.042C57.049 119.966 55.3605 118.278 53.285 118.278ZM53.285 124.305C52.0365 124.305 51.021 123.29 51.021 122.042C51.021 120.793 52.0365 119.778 53.285 119.778C54.5335 119.778 55.549 120.793 55.549 122.042C55.549 123.29 54.5335 124.305 53.285 124.305Z" fill="#1D1D1F"/>
<path d="M131.012 87.495C130.287 87.46 129.562 87.62 128.922 87.955L126.812 89.055C127.157 89.595 127.352 90.23 127.337 90.9C127.317 91.755 126.992 92.39 126.322 92.855L96.7371 115.6C93.2021 118.079 88.4566 118.585 88.4646 118.655L95.4721 118.44C98.3621 118.255 101.172 117.27 103.572 115.6L133.157 92.855C133.827 92.39 134.147 91.755 134.172 90.9C134.217 89.13 132.772 87.57 131.012 87.495Z" fill="#232222" fill-opacity="0.1"/>
<path d="M45.629 27.994C41.3265 27.736 39.713 21.9815 39.697 21.923C39.602 21.572 39.2715 21.3435 38.905 21.372C38.5425 21.405 38.256 21.693 38.2255 22.0555C37.7955 27.1635 32.569 28.0375 32.3485 28.0715C31.967 28.1295 31.692 28.467 31.712 28.852C31.732 29.2375 32.0405 29.5445 32.4255 29.5625C36.9395 29.7755 38.175 35.922 38.187 35.9845C38.2555 36.34 38.5665 36.593 38.923 36.593C38.944 36.593 38.965 36.592 38.986 36.5905C39.368 36.5585 39.6645 36.244 39.6735 35.8605C39.7705 31.606 45.769 29.472 45.83 29.451C46.1675 29.334 46.376 28.994 46.327 28.64C46.2775 28.286 45.986 28.0155 45.629 27.994ZM38.846 33.1665C38.1675 31.6015 36.9915 29.713 35.0525 28.7285C36.518 28.026 38.257 26.772 39.1535 24.592C39.929 26.1275 41.253 28.0325 43.32 28.9535C41.8165 29.7735 39.859 31.156 38.846 33.1665Z" fill="#1D1D1F"/>
<path d="M32.8451 34.5459C29.9616 34.3729 28.8586 30.4524 28.8481 30.4129C28.7531 30.0619 28.4211 29.8309 28.0571 29.8619C27.6941 29.8944 27.4076 30.1834 27.3771 30.5459C27.0876 33.9814 23.5541 34.5789 23.4061 34.6024C23.0246 34.6604 22.7496 34.9979 22.7696 35.3829C22.7896 35.7684 23.0981 36.0754 23.4831 36.0934C26.5011 36.2354 27.3451 40.4159 27.3526 40.4569C27.4201 40.8129 27.7321 41.0669 28.0886 41.0669C28.1091 41.0669 28.1301 41.0659 28.1511 41.0644C28.5336 41.0329 28.8301 40.7179 28.8391 40.3339C28.9041 37.4794 33.0046 36.0174 33.0456 36.0034C33.3836 35.8869 33.5926 35.5469 33.5436 35.1924C33.4941 34.8379 33.2021 34.5674 32.8451 34.5459ZM28.0521 37.9429C27.5901 36.9999 26.8821 35.9694 25.8286 35.3034C26.7566 34.7829 27.6771 33.9884 28.2641 32.8449C28.7926 33.7819 29.5916 34.8224 30.7346 35.4574C29.8101 36.0074 28.7406 36.8264 28.0521 37.9429Z" fill="#1D1D1F"/>
<path d="M32.841 21.198C29.9575 21.0375 28.839 17.121 28.828 17.0815C28.7315 16.731 28.3985 16.4955 28.035 16.534C27.6725 16.5675 27.3865 16.857 27.3575 17.2205C27.0815 20.657 23.55 21.269 23.402 21.293C23.021 21.3525 22.747 21.691 22.7685 22.0755C22.7895 22.461 23.1 22.767 23.485 22.7835C26.503 22.9135 27.3635 27.09 27.3715 27.131C27.4405 27.486 27.7515 27.738 28.107 27.738C28.1285 27.738 28.1505 27.737 28.1725 27.735C28.555 27.702 28.8505 27.386 28.8575 27.002C28.9115 24.1475 33.0065 22.669 33.0465 22.655C33.3845 22.537 33.5915 22.1965 33.5415 21.842C33.4915 21.4875 33.1985 21.2185 32.841 21.198ZM28.062 24.6145C27.5965 23.6735 26.8845 22.6455 25.828 21.983C26.754 21.459 27.6715 20.661 28.2535 19.515C28.786 20.45 29.5885 21.487 30.7345 22.1175C29.812 22.672 28.7455 23.496 28.062 24.6145Z" fill="#1D1D1F"/>
<path d="M104 67.5446C114.846 67.5446 123.639 58.7521 123.639 47.9061C123.639 37.06 114.846 28.2676 104 28.2676C93.154 28.2676 84.3616 37.06 84.3616 47.9061C84.3616 58.7521 93.154 67.5446 104 67.5446Z" fill="#5EEAA7"/>
<path d="M104 27.5176C92.7581 27.5176 83.6116 36.6636 83.6116 47.9056C83.6116 59.1476 92.7581 68.2941 104 68.2941C115.242 68.2941 124.389 59.1476 124.389 47.9056C124.389 36.6636 115.242 27.5176 104 27.5176ZM104 66.7946C93.5851 66.7946 85.1116 58.3211 85.1116 47.9061C85.1116 37.4911 93.5851 29.0176 104 29.0176C114.415 29.0176 122.889 37.4906 122.889 47.9056C122.889 58.3206 114.415 66.7946 104 66.7946Z" fill="#1D1D1F"/>
<path d="M81.8701 26.737L89.6446 34.5115C93.2291 30.6715 98.3326 28.2675 104 28.2675V17.281C95.2986 17.281 87.4456 20.91 81.8701 26.737Z" fill="#1B989E"/>
<path d="M104 16.531C95.3569 16.531 87.3054 19.9715 81.3279 26.219C81.0459 26.514 81.0514 26.9795 81.3394 27.268L89.1139 35.0425C89.2544 35.183 89.4454 35.262 89.6444 35.262H89.6574C89.8609 35.2585 90.0539 35.1725 90.1929 35.0235C93.7554 31.2065 98.7879 29.0175 104 29.0175C104.415 29.0175 104.75 28.6815 104.75 28.2675V17.281C104.75 16.8665 104.414 16.531 104 16.531ZM103.25 27.5315C98.1504 27.7215 93.2634 29.844 89.6364 33.4425L82.9249 26.732C88.3834 21.2915 95.5499 18.227 103.25 18.04V27.5315Z" fill="#1D1D1F"/>
<path d="M89.6445 34.5116L81.87 26.7371C76.608 32.2366 73.375 39.6936 73.375 47.9061C73.375 48.2276 73.3815 48.5481 73.3915 48.8676H84.386C84.3705 48.5491 84.3615 48.2286 84.3615 47.9061C84.3615 42.7276 86.369 38.0206 89.6445 34.5116Z" fill="#F3FCF8"/>
<path d="M90.1745 33.9816L82.4 26.2071C82.2575 26.0646 82.061 25.9796 81.8615 25.9876C81.66 25.9901 81.4675 26.0736 81.328 26.2191C75.716 32.0846 72.625 39.7866 72.625 47.9061C72.625 48.2356 72.632 48.5636 72.642 48.8911C72.6545 49.2961 72.9865 49.6176 73.3915 49.6176H84.3855C84.5905 49.6176 84.7865 49.5336 84.928 49.3851C85.0695 49.2366 85.144 49.0371 85.1345 48.8321C85.12 48.5256 85.111 48.2176 85.111 47.9061C85.111 43.1086 86.9155 38.5336 90.192 35.0236C90.4685 34.7281 90.4605 34.2671 90.1745 33.9816ZM83.6115 47.9061C83.6115 47.9771 83.612 48.0471 83.613 48.1176H74.126C74.1255 48.0471 74.125 47.9766 74.125 47.9061C74.125 40.4311 76.876 33.3276 81.8885 27.8166L88.6105 34.5386C85.3815 38.2506 83.6115 42.9691 83.6115 47.9061Z" fill="#1D1D1F"/>
<path d="M104 17.281V28.2675C109.668 28.2675 114.771 30.6715 118.355 34.5115L126.13 26.737C120.554 20.91 112.701 17.281 104 17.281Z" fill="#F3FCF8"/>
<path d="M126.672 26.219C120.694 19.971 112.643 16.531 104 16.531C103.585 16.531 103.25 16.867 103.25 17.281V28.268C103.25 28.682 103.585 29.018 104 29.018C109.212 29.018 114.245 31.207 117.807 35.024C117.946 35.173 118.139 35.259 118.343 35.2625H118.356C118.554 35.2625 118.745 35.1835 118.886 35.043L126.661 27.2685C126.949 26.9795 126.954 26.5135 126.672 26.219ZM118.363 33.443C114.736 29.8445 109.849 27.722 104.75 27.532V18.04C112.45 18.227 119.616 21.2915 125.075 26.732L118.363 33.443Z" fill="#1D1D1F"/>
<path d="M126.13 26.7371L118.355 34.5116C121.63 38.0206 123.638 42.7276 123.638 47.9061C123.638 48.2286 123.629 48.5486 123.613 48.8676H134.608C134.618 48.5481 134.624 48.2281 134.624 47.9061C134.625 39.6936 131.392 32.2366 126.13 26.7371Z" fill="#1B989E"/>
<path d="M126.672 26.219C126.532 26.0735 126.34 25.99 126.138 25.9875C125.931 25.9775 125.742 26.0645 125.6 26.207L117.825 33.9815C117.539 34.267 117.532 34.728 117.807 35.0235C121.084 38.5335 122.888 43.1085 122.888 47.906C122.888 48.217 122.879 48.525 122.865 48.832C122.855 49.037 122.93 49.237 123.071 49.385C123.213 49.5335 123.409 49.6175 123.614 49.6175H134.608C135.013 49.6175 135.345 49.2955 135.357 48.891C135.367 48.564 135.374 48.2355 135.374 47.906C135.375 39.786 132.284 32.0845 126.672 26.219ZM133.874 48.117H124.387C124.387 48.0465 124.388 47.9765 124.388 47.9055C124.388 42.969 122.618 38.25 119.389 34.5385L126.111 27.8165C131.124 33.327 133.875 40.431 133.875 47.906C133.875 47.976 133.875 48.047 133.874 48.117Z" fill="#1D1D1F"/>
<path d="M123.614 48.8671C123.36 54.1491 121.016 58.8806 117.394 62.2616L125.169 70.0361C130.78 64.6671 134.352 57.1846 134.608 48.8676H123.614V48.8671Z" fill="#F3FCF8"/>
<path d="M135.147 48.3451C135.006 48.1991 134.811 48.1171 134.608 48.1171H123.614C123.214 48.1171 122.884 48.4311 122.865 48.8311C122.627 53.7591 120.503 58.3341 116.883 61.7136C116.734 61.8521 116.648 62.0456 116.644 62.2491C116.641 62.4521 116.72 62.6486 116.864 62.7921L124.638 70.5666C124.784 70.7131 124.976 70.7861 125.168 70.7861C125.355 70.7861 125.542 70.7166 125.687 70.5781C131.668 64.8551 135.103 57.1521 135.358 48.8901C135.364 48.6876 135.288 48.4906 135.147 48.3451ZM125.174 68.9811L118.463 62.2701C121.863 58.8516 123.919 54.4081 124.316 49.6171H133.825C133.412 56.9476 130.364 63.7711 125.174 68.9811Z" fill="#1D1D1F"/>
<path d="M84.3859 48.8671H73.3914C73.6479 57.1846 77.2199 64.6666 82.8309 70.0356L90.6054 62.2611C86.9839 58.8811 84.6404 54.1491 84.3859 48.8671Z" fill="#1B989E"/>
<path d="M91.1174 61.7136C87.4974 58.3341 85.3724 53.7596 85.1349 48.8311C85.1159 48.4311 84.7859 48.1171 84.3859 48.1171H73.3919C73.1889 48.1171 72.9949 48.1991 72.8534 48.3451C72.7119 48.4906 72.6359 48.6876 72.6419 48.8901C72.8964 57.1521 76.3309 64.8551 82.3129 70.5781C82.4584 70.7166 82.6449 70.7861 82.8314 70.7861C83.0234 70.7861 83.2154 70.7131 83.3614 70.5666L91.1359 62.7921C91.2799 62.6486 91.3589 62.4521 91.3554 62.2491C91.3519 62.0456 91.2659 61.8521 91.1174 61.7136ZM82.8259 68.9811C77.6359 63.7711 74.5874 56.9476 74.1749 49.6171H83.6834C84.0809 54.4081 86.1374 58.8516 89.5364 62.2701L82.8259 68.9811Z" fill="#1D1D1F"/>
<path d="M117.395 62.2616C113.886 65.5371 109.179 67.5446 104 67.5446V78.5311C112.212 78.5311 119.669 75.2981 125.169 70.0361L117.395 62.2616Z" fill="#1B989E"/>
<path d="M125.699 69.506L117.925 61.7315C117.639 61.4455 117.178 61.4375 116.883 61.7135C113.373 64.99 108.797 66.7945 104 66.7945C103.586 66.7945 103.25 67.1305 103.25 67.5445V78.5309C103.25 78.9449 103.586 79.2809 104 79.2809C112.12 79.2809 119.822 76.19 125.688 70.5785C125.834 70.439 125.917 70.2465 125.919 70.045C125.922 69.8435 125.842 69.6485 125.699 69.506ZM104.75 77.7715V68.281C109.413 68.111 113.844 66.3605 117.368 63.2955L124.09 70.0175C118.764 74.8615 111.949 77.594 104.75 77.7715Z" fill="#1D1D1F"/>
<path d="M90.6056 62.2616L82.8311 70.0361C88.3306 75.2981 95.7876 78.5311 104 78.5311V67.5446C98.8216 67.5446 94.1146 65.5366 90.6056 62.2616Z" fill="#F3FCF8"/>
<path d="M104 66.7943C99.2031 66.7943 94.6276 64.9898 91.1176 61.7133C90.8226 61.4373 90.3611 61.4463 90.0756 61.7313L82.3011 69.5058C82.1581 69.6483 82.0791 69.8428 82.0811 70.0443C82.0831 70.2458 82.1666 70.4383 82.3126 70.5778C88.1781 76.1898 95.8801 79.2803 104 79.2803C104.415 79.2803 104.75 78.9443 104.75 78.5303V67.5438C104.75 67.1303 104.415 66.7943 104 66.7943ZM103.25 77.7713C96.0511 77.5938 89.2366 74.8613 83.9106 70.0173L90.6326 63.2953C94.1566 66.3603 98.5871 68.1108 103.25 68.2808V77.7713Z" fill="#1D1D1F"/>
<path d="M105.845 46.412C102.961 45.3265 101.774 44.614 101.774 43.4945C101.774 42.545 102.486 41.5945 104.692 41.5945C107.134 41.5945 108.695 42.3745 109.577 42.748L110.561 38.9145C109.441 38.3715 107.915 37.896 105.642 37.7945V34.8085H102.317V38.0315C98.6864 38.744 96.5829 41.085 96.5829 44.071C96.5829 47.3625 99.0599 49.059 102.69 50.28C105.201 51.1285 106.286 51.943 106.286 53.2315C106.286 54.589 104.963 55.3355 103.029 55.3355C100.824 55.3355 98.8224 54.623 97.3974 53.843L96.3794 57.812C97.6689 58.5585 99.8739 59.169 102.147 59.271V62.494H105.472V59.033C109.374 58.355 111.511 55.7765 111.511 52.7565C111.511 49.7035 109.882 47.837 105.845 46.412Z" fill="#F3FCF8"/>
<path d="M106.109 45.71C103.495 44.7265 102.523 44.1255 102.523 43.494C102.523 42.4935 103.882 42.344 104.691 42.344C106.764 42.344 108.127 42.937 109.03 43.329L109.284 43.4385C109.486 43.525 109.714 43.517 109.909 43.4205C110.105 43.3235 110.249 43.146 110.303 42.9345L111.287 39.101C111.376 38.7555 111.209 38.3955 110.888 38.2395C109.594 37.6115 108.117 37.2335 106.391 37.09V34.8085C106.391 34.3945 106.056 34.0585 105.641 34.0585H102.316C101.902 34.0585 101.566 34.3945 101.566 34.8085V37.432C98.0125 38.3385 95.8325 40.8385 95.8325 44.071C95.8325 48.231 99.3695 49.9545 102.449 50.9905C105.162 51.907 105.536 52.609 105.536 53.231C105.536 54.4875 103.617 54.585 103.029 54.585C100.667 54.585 98.7125 53.7075 97.757 53.1845C97.554 53.073 97.3105 53.062 97.0985 53.154C96.8865 53.246 96.728 53.4315 96.6705 53.656L95.6525 57.6255C95.569 57.9505 95.7125 58.2925 96.0035 58.461C97.333 59.23 99.349 59.789 101.396 59.9715V62.4935C101.396 62.9075 101.732 63.2435 102.146 63.2435H105.471C105.886 63.2435 106.221 62.9075 106.221 62.4935V59.645C109.912 58.7795 112.261 56.1295 112.261 52.7565C112.261 49.34 110.417 47.231 106.109 45.71ZM105.343 58.2945C104.984 58.3565 104.722 58.6685 104.722 59.0335V61.7445H102.897V59.2715C102.897 58.87 102.581 58.54 102.18 58.5225C100.4 58.4425 98.54 58.021 97.254 57.422L97.8935 54.9285C99.1015 55.477 100.918 56.086 103.03 56.086C105.464 56.086 107.037 54.966 107.037 53.232C107.037 51.233 105.063 50.2905 102.929 49.57C99.007 48.2505 97.3335 46.606 97.3335 44.072C97.3335 41.381 99.2505 39.3985 102.462 38.7685C102.814 38.6995 103.067 38.391 103.067 38.0325V35.5595H104.892V37.7955C104.892 38.197 105.208 38.527 105.609 38.5445C107.181 38.615 108.519 38.877 109.678 39.344L109.069 41.7165C108.092 41.318 106.66 40.8455 104.693 40.8455C101.988 40.8455 101.025 42.214 101.025 43.4955C101.025 45.2635 102.914 46.111 105.597 47.1205C109.884 48.634 110.762 50.469 110.762 52.758C110.761 55.592 108.685 57.714 105.343 58.2945Z" fill="#1D1D1F"/>
<path d="M43.745 84.7756C55.0478 84.7756 64.2105 75.6129 64.2105 64.3101C64.2105 53.0073 55.0478 43.8446 43.745 43.8446C32.4423 43.8446 23.2795 53.0073 23.2795 64.3101C23.2795 75.6129 32.4423 84.7756 43.745 84.7756Z" fill="#5E34FF"/>
<path d="M43.745 43.0946C32.0465 43.0946 22.5295 52.6116 22.5295 64.3101C22.5295 76.0086 32.0465 85.5256 43.745 85.5256C55.443 85.5256 64.9605 76.0086 64.9605 64.3101C64.9605 52.6116 55.4435 43.0946 43.745 43.0946ZM43.745 84.0256C32.874 84.0256 24.0295 75.1816 24.0295 64.3101C24.0295 53.4386 32.874 44.5946 43.745 44.5946C54.616 44.5946 63.4605 53.4386 63.4605 64.3101C63.4605 75.1816 54.616 84.0256 43.745 84.0256Z" fill="#1D1D1F"/>
<path d="M56.9386 55.3505C56.0136 54.3255 54.4326 54.2435 53.4071 55.169L39.3451 67.8545L34.4486 60.941C33.6501 59.814 32.0896 59.548 30.9636 60.3455C29.8366 61.1435 29.5701 62.704 30.3686 63.8305L36.8911 73.04C37.3036 73.623 37.9461 74.0015 38.6556 74.08C38.7481 74.09 38.8396 74.095 38.9311 74.095C39.5461 74.095 40.1441 73.8675 40.6061 73.451L56.7571 58.881C57.7816 57.9565 57.8631 56.3755 56.9386 55.3505Z" fill="#5EEAA7"/>
</svg>
