<svg width="170" height="149" viewBox="0 0 170 149" fill="none" xmlns="http://www.w3.org/2000/svg">
<path fill-rule="evenodd" clip-rule="evenodd" d="M120.74 0.0842091C141.98 1.67067 153.739 24.2283 163.84 43.0633C171.39 57.1412 170.918 72.7114 168.135 88.4559C165.089 105.686 163.437 126.319 147.769 133.968C132.072 141.632 116.575 125.39 99.4551 121.987C65.2753 115.194 13.3195 137.861 1.56882 104.912C-9.79301 73.0535 43.4308 58.2573 68.7759 35.9627C85.4123 21.3286 98.6874 -1.56297 120.74 0.0842091Z" fill="#F3FCF8"/>
<path d="M133.866 50.3134C132.784 48.5969 130.515 48.0829 128.799 49.1654C127.083 50.2474 126.569 52.5154 127.651 54.2319C132.233 61.4994 134.655 69.9034 134.655 78.5349C134.655 103.708 114.174 124.188 89.001 124.188C77.1475 124.188 66.336 119.647 58.212 112.213L53.6705 107.415C47.2225 99.5414 43.3475 89.4829 43.3475 78.5354C43.3475 53.3619 63.8275 32.8819 89.001 32.8819C96.1595 32.8819 103.059 34.5179 109.325 37.6464L107.534 38.0694C105.559 38.5359 104.337 40.5144 104.803 42.4889C105.224 44.2689 106.873 45.4379 108.64 45.3089C108.833 45.2949 109.028 45.2654 109.222 45.2199L119.715 42.7414C120.663 42.5174 121.483 41.9259 121.995 41.0969C122.507 40.2679 122.669 39.2699 122.445 38.3219L119.966 27.8289C119.5 25.8549 117.521 24.6344 115.547 25.0984C113.572 25.5649 112.35 27.5434 112.816 29.5174L113.261 31.3999C105.81 27.5469 97.563 25.5349 89 25.5349C59.776 25.5349 36 49.3109 36 78.5349C36 107.759 59.776 131.535 89 131.535C118.224 131.535 142 107.759 142 78.5349C142.002 68.5144 139.188 58.7554 133.866 50.3134V50.3134Z" fill="#1B989E" stroke="#1D1D1F" stroke-width="2"/>
<path d="M44.629 33.994C40.3265 33.736 38.713 27.9815 38.697 27.923C38.602 27.572 38.2715 27.3435 37.905 27.372C37.5425 27.405 37.256 27.693 37.2255 28.0555C36.7955 33.1635 31.569 34.0375 31.3485 34.0715C30.967 34.1295 30.692 34.467 30.712 34.852C30.732 35.2375 31.0405 35.5445 31.4255 35.5625C35.9395 35.7755 37.175 41.922 37.187 41.9845C37.2555 42.34 37.5665 42.593 37.923 42.593C37.944 42.593 37.965 42.592 37.986 42.5905C38.368 42.5585 38.6645 42.244 38.6735 41.8605C38.7705 37.606 44.769 35.472 44.83 35.451C45.1675 35.334 45.376 34.994 45.327 34.64C45.2775 34.286 44.986 34.0155 44.629 33.994V33.994ZM37.846 39.1665C37.1675 37.6015 35.9915 35.713 34.0525 34.7285C35.518 34.026 37.257 32.772 38.1535 30.592C38.929 32.1275 40.253 34.0325 42.32 34.9535C40.8165 35.7735 38.859 37.156 37.846 39.1665V39.1665Z" fill="#1D1D1F"/>
<path d="M31.8451 40.5459C28.9616 40.3729 27.8586 36.4524 27.8481 36.4129C27.7531 36.0619 27.4211 35.8309 27.0571 35.8619C26.6941 35.8944 26.4076 36.1834 26.3771 36.5459C26.0876 39.9814 22.5541 40.5789 22.4061 40.6024C22.0246 40.6604 21.7496 40.9979 21.7696 41.3829C21.7896 41.7684 22.0981 42.0754 22.4831 42.0934C25.5011 42.2354 26.3451 46.4159 26.3526 46.4569C26.4201 46.8129 26.7321 47.0669 27.0886 47.0669C27.1091 47.0669 27.1301 47.0659 27.1511 47.0644C27.5336 47.0329 27.8301 46.7179 27.8391 46.3339C27.9041 43.4794 32.0046 42.0174 32.0456 42.0034C32.3836 41.8869 32.5926 41.5469 32.5436 41.1924C32.4941 40.8379 32.2021 40.5674 31.8451 40.5459V40.5459ZM27.0521 43.9429C26.5901 42.9999 25.8821 41.9694 24.8286 41.3034C25.7566 40.7829 26.6771 39.9884 27.2641 38.8449C27.7926 39.7819 28.5916 40.8224 29.7346 41.4574C28.8101 42.0074 27.7406 42.8264 27.0521 43.9429Z" fill="#1D1D1F"/>
<path d="M31.841 27.1981C28.9575 27.0376 27.839 23.1211 27.828 23.0816C27.7315 22.7311 27.3985 22.4956 27.035 22.5341C26.6725 22.5676 26.3865 22.8571 26.3575 23.2206C26.0815 26.6571 22.55 27.2691 22.402 27.2931C22.021 27.3526 21.747 27.6911 21.7685 28.0756C21.7895 28.4611 22.1 28.7671 22.485 28.7836C25.503 28.9136 26.3635 33.0901 26.3715 33.1311C26.4405 33.4861 26.7515 33.7381 27.107 33.7381C27.1285 33.7381 27.1505 33.7371 27.1725 33.7351C27.555 33.7021 27.8505 33.3861 27.8575 33.0021C27.9115 30.1476 32.0065 28.6691 32.0465 28.6551C32.3845 28.5371 32.5915 28.1966 32.5415 27.8421C32.4915 27.4876 32.1985 27.2186 31.841 27.1981V27.1981ZM27.062 30.6146C26.5965 29.6736 25.8845 28.6456 24.828 27.9831C25.754 27.4591 26.6715 26.6611 27.2535 25.5151C27.786 26.4501 28.5885 27.4871 29.7345 28.1176C28.812 28.6721 27.7455 29.4961 27.062 30.6146Z" fill="#1D1D1F"/>
<path d="M66.8012 54.2997L72.4182 50.2177C77.3007 47.3921 82.9638 45.7675 89.0115 45.7675C107.341 45.7675 122.201 60.6263 122.201 78.9565C122.201 97.2862 107.341 112.145 89.0115 112.145C70.6818 112.145 55.8225 97.2862 55.8225 78.9565C55.8225 69.1693 60.0603 60.3761 66.8012 54.2997Z" fill="#5EEAA7" stroke="#1D1D1F" stroke-width="2"/>
<path d="M93.0759 75.0899C88.0964 73.2159 86.0459 71.9859 86.0459 70.0524C86.0459 68.4129 87.2759 66.7719 91.0839 66.7719C95.3009 66.7719 97.9959 68.1189 99.5189 68.7639L101.218 62.1449C99.2844 61.2074 96.6484 60.3864 92.7239 60.2114V55.0559H86.9829V60.6204C80.7149 61.8504 77.0834 65.8924 77.0834 71.0479C77.0834 76.7304 81.3594 79.6599 87.6274 81.7679C91.9624 83.2324 93.8369 84.6389 93.8369 86.8639C93.8369 89.2079 91.5519 90.4964 88.2134 90.4964C84.4054 90.4964 80.9499 89.2664 78.4894 87.9194L76.7324 94.7729C78.9584 96.0614 82.7659 97.1154 86.6904 97.2919V102.856H92.4314V96.8814C99.1679 95.7109 102.859 91.2584 102.859 86.0449C102.859 80.7724 100.046 77.5504 93.0759 75.0899V75.0899Z" fill="#F3FCF8" stroke="#1D1D1F" stroke-width="2"/>
<path d="M89.0115 45.5176C87.6565 45.5176 86.3215 45.5976 85.0115 45.7576C101.571 47.7376 114.451 61.8726 114.451 78.9576C114.451 96.0376 101.571 110.178 85.0115 112.158C86.3215 112.318 87.6565 112.398 89.0115 112.398C107.451 112.398 122.451 97.3926 122.451 78.9576C122.451 60.5176 107.451 45.5176 89.0115 45.5176Z" fill="#232222" fill-opacity="0.1"/>
<path d="M21.5919 107.658L21.5419 107.711L21.5001 107.771C18.6669 111.836 17 116.777 17 122.107C17 135.974 28.2412 147.215 42.1075 147.215C55.9738 147.215 67.215 135.974 67.215 122.107C67.215 108.241 55.9738 97 42.1075 97C36.216 97 30.8007 99.0359 26.5185 102.433L26.4614 102.478L26.4114 102.532L21.5919 107.658Z" fill="#5E34FF" stroke="#1D1D1F" stroke-width="2"/>
<path d="M44.6403 104.471L48.1463 111.575C48.5578 112.408 49.3533 112.986 50.2733 113.12L58.1133 114.259C60.4303 114.595 61.3553 117.442 59.6788 119.077L54.0058 124.606C53.3403 125.255 53.0363 126.19 53.1933 127.106L54.5323 134.914C54.9278 137.222 52.5063 138.981 50.4338 137.892L43.4218 134.205C42.5988 133.773 41.6158 133.773 40.7928 134.205L33.7808 137.892C31.7088 138.981 29.2868 137.222 29.6823 134.914L31.0213 127.106C31.1783 126.19 30.8748 125.255 30.2088 124.606L24.5358 119.077C22.8593 117.443 23.7843 114.595 26.1013 114.259L33.9413 113.12C34.8613 112.986 35.6563 112.408 36.0678 111.575L39.5738 104.471C40.6108 102.371 43.6043 102.371 44.6403 104.471V104.471Z" fill="#F3FCF8"/>
<path d="M30.3845 124.427L30.3847 124.428C31.109 125.134 31.4397 126.151 31.2685 127.149L30.3845 124.427ZM30.3845 124.427L24.7116 118.898M30.3845 124.427L24.7116 118.898M39.7992 104.582L39.7991 104.582L36.2923 111.686C36.2923 111.686 36.2922 111.686 36.2921 111.686C35.8448 112.593 34.9791 113.222 33.9774 113.367L26.1377 114.506C25.1589 114.648 24.3662 115.316 24.0596 116.258L39.7992 104.582ZM39.7992 104.582C40.2372 103.694 41.1176 103.146 42.1079 103.146C43.0977 103.146 43.9781 103.694 44.4162 104.582L44.4162 104.582M39.7992 104.582L44.4162 104.582M44.4162 104.582L47.922 111.685C47.9221 111.685 47.9221 111.685 47.9222 111.686C48.3701 112.594 49.2358 113.222 50.2367 113.368L50.2372 113.368M44.4162 104.582L50.2372 113.368M50.2372 113.368L58.0768 114.507M50.2372 113.368L58.0768 114.507M24.7116 118.898C24.7115 118.897 24.7115 118.897 24.7115 118.897M24.7116 118.898L24.7115 118.897M24.7115 118.897C24.0025 118.206 23.7541 117.199 24.0596 116.258L24.7115 118.897ZM58.0768 114.507C59.057 114.649 59.8495 115.318 60.1553 116.258L58.0768 114.507ZM29.9291 134.957L31.2685 127.149L60.1554 116.259C60.4611 117.2 60.2126 118.206 59.5039 118.898C59.5038 118.898 59.5037 118.898 59.5036 118.898L53.831 124.428C53.1061 125.134 52.7757 126.152 52.9468 127.15L52.9468 127.15L54.2863 134.957L54.2863 134.957C54.4539 135.933 54.0633 136.893 53.2623 137.475C52.8075 137.805 52.2805 137.97 51.7519 137.97C51.345 137.97 50.9338 137.872 50.5501 137.671L43.5386 133.985C42.6426 133.513 41.5727 133.513 40.6766 133.984C40.6765 133.984 40.6765 133.984 40.6765 133.984C40.6762 133.985 40.676 133.985 40.6758 133.985L33.665 137.671C33.6649 137.671 33.6647 137.671 33.6646 137.671C32.788 138.131 31.7538 138.056 30.9538 137.475C30.153 136.893 29.7619 135.932 29.929 134.957C29.9291 134.957 29.9291 134.957 29.9291 134.957Z" stroke="#1D1D1F" stroke-width="2"/>
<path d="M42.1099 98.7524C40.4799 98.7524 38.8949 98.9174 37.3599 99.2374C44.8949 100.802 51.1099 106.002 54.0799 112.917L58.2199 113.517C59.5749 113.712 60.6849 114.647 61.1049 115.947C61.5299 117.252 61.1849 118.657 60.1999 119.612L55.8999 123.802C55.7399 126.057 55.2599 128.222 54.4949 130.257L55.2699 134.787C55.5049 136.137 54.9599 137.477 53.8499 138.282C53.2249 138.737 52.4899 138.972 51.7499 138.972C51.1849 138.972 50.6149 138.832 50.0849 138.557L49.4849 138.242C46.2749 141.597 42.0749 144.002 37.3599 144.982C38.8949 145.302 40.4799 145.467 42.1099 145.467C54.9849 145.467 65.4649 134.987 65.4649 122.107C65.4649 109.227 54.9849 98.7524 42.1099 98.7524V98.7524Z" fill="#232222" fill-opacity="0.1"/>
</svg>
