<svg width="169" height="150" viewBox="0 0 169 150" fill="none" xmlns="http://www.w3.org/2000/svg">
<path fill-rule="evenodd" clip-rule="evenodd" d="M151.362 65.5029C156.874 82.5032 171.846 99.7421 164.55 116.099C157.339 132.266 135.402 135.445 118.125 140.022C102.794 144.083 87.3259 143.364 71.698 140.695C54.9259 137.831 36.4086 136.388 24.825 124.089C13.0589 111.597 13.7437 92.9155 10.8459 76.0871C7.5913 57.1867 -4.96359 35.2968 6.91894 20.1032C19.0138 4.63822 44.0118 11.1447 63.6204 8.60705C77.5466 6.80479 91.2613 3.45685 104.701 7.44888C117.643 11.2935 128.342 19.8778 136.74 30.3266C144.918 40.5012 147.35 53.1276 151.362 65.5029Z" fill="#F3FCF8"/>
<path d="M103.168 46.1533H102.953C102.823 32.0883 91.3879 20.7233 77.2879 20.7233C63.1879 20.7233 51.7529 32.0883 51.6279 46.1533C47.7729 46.1533 44.6479 49.2783 44.6479 53.1333V59.0633H110.148V53.1333C110.148 49.2783 107.023 46.1533 103.168 46.1533Z" fill="#5E34FF"/>
<path d="M103.686 45.4203C103.169 31.3238 91.4764 19.9733 77.2879 19.9733C63.091 19.9733 51.3964 31.3323 50.8939 45.4378C46.9744 45.8088 43.8979 49.1183 43.8979 53.1333V59.0633C43.8979 59.4773 44.2334 59.8133 44.6479 59.8133H110.148C110.562 59.8133 110.898 59.4773 110.898 59.0633V53.1333C110.898 49.0453 107.708 45.6883 103.686 45.4203ZM109.398 58.3133H45.3979V53.1333C45.3979 49.6983 48.1929 46.9033 51.6279 46.9033C52.0394 46.9033 52.3744 46.5718 52.3779 46.1603C52.4989 32.5478 63.6734 21.4738 77.2874 21.4738C90.8999 21.4738 102.077 32.5478 102.203 46.1603C102.207 46.5718 102.541 46.9033 102.953 46.9033H103.168C106.603 46.9033 109.398 49.6983 109.398 53.1333V58.3133Z" fill="#1D1D1F"/>
<path d="M133.713 33.7239C132.923 33.7239 132.163 33.5839 131.463 33.3239V85.8389H126.168V90.8389H133.963C135.343 90.8389 136.463 89.7239 136.463 88.3389V33.1134C135.628 33.5034 134.698 33.7239 133.713 33.7239Z" fill="#F3FCF8"/>
<path d="M136.865 32.481C136.649 32.344 136.378 32.3255 136.145 32.434C134.755 33.0825 133.131 33.143 131.723 32.6205C131.493 32.5355 131.236 32.5675 131.034 32.708C130.833 32.848 130.713 33.078 130.713 33.3235V46.12C130.713 46.534 131.048 46.87 131.463 46.87C131.877 46.87 132.213 46.534 132.213 46.12V34.319C133.359 34.5605 134.585 34.5185 135.713 34.194V88.3385C135.713 89.3035 134.928 90.0885 133.963 90.0885H126.918V86.5885H131.463C131.877 86.5885 132.213 86.2525 132.213 85.8385V53.257C132.213 52.843 131.877 52.507 131.463 52.507C131.048 52.507 130.713 52.843 130.713 53.257V85.0885H126.168C125.753 85.0885 125.418 85.4245 125.418 85.8385V90.8385C125.418 91.2525 125.753 91.5885 126.168 91.5885H133.963C135.755 91.5885 137.213 90.1305 137.213 88.3385V33.114C137.213 32.8575 137.082 32.619 136.865 32.481Z" fill="#1D1D1F"/>
<path d="M50.8125 31.4338C46.5105 31.1763 44.8965 25.4218 44.881 25.3633C44.7855 25.0118 44.4495 24.7793 44.0895 24.8123C43.727 24.8453 43.4405 25.1333 43.41 25.4958C42.98 30.6033 37.753 31.4778 37.5325 31.5118C37.151 31.5698 36.876 31.9073 36.896 32.2923C36.916 32.6778 37.2245 32.9848 37.6095 33.0028C42.1235 33.2158 43.359 39.3623 43.371 39.4248C43.4395 39.7803 43.7505 40.0333 44.107 40.0333C44.128 40.0333 44.149 40.0323 44.17 40.0308C44.552 39.9988 44.8485 39.6843 44.8575 39.3008C44.955 35.0458 50.9535 32.9118 51.014 32.8908C51.3515 32.7738 51.56 32.4338 51.511 32.0798C51.4615 31.7253 51.1695 31.4548 50.8125 31.4338ZM44.0295 36.6073C43.351 35.0418 42.1755 33.1533 40.236 32.1688C41.7015 31.4663 43.441 30.2118 44.3375 28.0323C45.113 29.5678 46.437 31.4723 48.5045 32.3938C47 33.2133 45.043 34.5963 44.0295 36.6073Z" fill="#1D1D1F"/>
<path d="M38.0282 37.9859C35.1452 37.8134 34.0422 33.8929 34.0317 33.8534C33.9367 33.5024 33.6052 33.2694 33.2407 33.3024C32.8782 33.3349 32.5912 33.6239 32.5607 33.9864C32.2712 37.4219 28.7377 38.0194 28.5897 38.0429C28.2082 38.1009 27.9332 38.4384 27.9532 38.8234C27.9732 39.2089 28.2817 39.5159 28.6667 39.5339C31.6842 39.6759 32.5287 43.8564 32.5362 43.8974C32.6037 44.2539 32.9157 44.5074 33.2727 44.5074C33.2932 44.5074 33.3142 44.5064 33.3352 44.5049C33.7177 44.4734 34.0142 44.1584 34.0232 43.7744C34.0882 40.9199 38.1892 39.4574 38.2292 39.4434C38.5677 39.3264 38.7762 38.9869 38.7272 38.6324C38.6782 38.2779 38.3857 38.0069 38.0282 37.9859ZM33.2362 41.3834C32.7742 40.4409 32.0662 39.4099 31.0127 38.7439C31.9407 38.2234 32.8612 37.4289 33.4482 36.2854C33.9767 37.2224 34.7752 38.2624 35.9187 38.8974C34.9937 39.4474 33.9242 40.2669 33.2362 41.3834Z" fill="#1D1D1F"/>
<path d="M38.0282 24.6574C35.1452 24.4849 34.0422 20.5644 34.0317 20.5249C33.9367 20.1739 33.6047 19.9444 33.2407 19.9739C32.8782 20.0064 32.5912 20.2954 32.5607 20.6579C32.2712 24.0929 28.7372 24.6909 28.5897 24.7144C28.2082 24.7724 27.9327 25.1099 27.9532 25.4949C27.9732 25.8804 28.2817 26.1874 28.6672 26.2054C31.6847 26.3474 32.5287 30.5279 32.5367 30.5689C32.6042 30.9254 32.9162 31.1789 33.2727 31.1789C33.2937 31.1789 33.3142 31.1779 33.3352 31.1764C33.7177 31.1449 34.0142 30.8299 34.0232 30.4459C34.0882 27.5914 38.1892 26.1289 38.2292 26.1149C38.5677 25.9979 38.7762 25.6584 38.7272 25.3039C38.6782 24.9494 38.3857 24.6784 38.0282 24.6574ZM33.2362 28.0549C32.7742 27.1119 32.0662 26.0814 31.0127 25.4149C31.9407 24.8944 32.8612 24.1004 33.4482 22.9569C33.9767 23.8939 34.7752 24.9339 35.9187 25.5689C34.9937 26.1189 33.9242 26.9384 33.2362 28.0549Z" fill="#1D1D1F"/>
<path d="M133.714 33.7208C137.304 33.7208 140.214 30.8107 140.214 27.2208C140.214 23.631 137.304 20.7208 133.714 20.7208C130.125 20.7208 127.214 23.631 127.214 27.2208C127.214 30.8107 130.125 33.7208 133.714 33.7208Z" fill="#5EEAA7"/>
<path d="M133.714 19.9713C129.717 19.9713 126.464 23.2238 126.464 27.2213C126.464 31.2188 129.717 34.4713 133.714 34.4713C137.712 34.4713 140.964 31.2188 140.964 27.2213C140.964 23.2238 137.712 19.9713 133.714 19.9713ZM133.714 32.9713C130.544 32.9713 127.964 30.3918 127.964 27.2213C127.964 24.0508 130.544 21.4713 133.714 21.4713C136.885 21.4713 139.464 24.0508 139.464 27.2213C139.464 30.3918 136.885 32.9713 133.714 32.9713Z" fill="#1D1D1F"/>
<path d="M121.577 59.0634H33.3523C30.8153 59.0634 28.7588 61.1199 28.7588 63.6569V113.238C28.7588 115.775 30.8153 117.832 33.3523 117.832H121.577C124.114 117.832 126.171 115.775 126.171 113.238V63.6569C126.17 61.1199 124.114 59.0634 121.577 59.0634Z" fill="#1B989E"/>
<path d="M121.577 58.3134H33.3523C30.4058 58.3134 28.0088 60.7104 28.0088 63.6569V113.238C28.0088 116.185 30.4058 118.582 33.3523 118.582H121.577C124.524 118.582 126.921 116.185 126.921 113.238V63.6569C126.92 60.7104 124.523 58.3134 121.577 58.3134ZM125.42 113.238C125.42 115.357 123.696 117.082 121.577 117.082H33.3523C31.2328 117.082 29.5088 115.358 29.5088 113.238V63.6569C29.5088 61.5379 31.2328 59.8134 33.3523 59.8134H121.577C123.696 59.8134 125.421 61.5374 125.421 63.6569V113.238H125.42Z" fill="#1D1D1F"/>
<path d="M114.121 72.1754H84.7753H77.8893H40.8073C38.3518 72.1754 36.3613 74.1659 36.3613 76.6214V100.049C36.3613 102.504 38.3518 104.495 40.8073 104.495H114.121C116.577 104.495 118.567 102.504 118.567 100.049V76.6214C118.567 74.1659 116.577 72.1754 114.121 72.1754Z" fill="#5EEAA7"/>
<path d="M114.122 71.4259H84.7758C84.3613 71.4259 84.0258 71.7619 84.0258 72.1759C84.0258 72.5899 84.3613 72.9259 84.7758 72.9259H114.122C116.16 72.9259 117.818 74.5834 117.818 76.6219V100.049C117.818 102.087 116.16 103.745 114.122 103.745H40.8073C38.7693 103.745 37.1113 102.087 37.1113 100.049V76.6214C37.1113 74.5834 38.7693 72.9254 40.8073 72.9254H77.8898C78.3043 72.9254 78.6398 72.5894 78.6398 72.1754C78.6398 71.7614 78.3043 71.4254 77.8898 71.4254H40.8073C37.9423 71.4254 35.6113 73.7564 35.6113 76.6214V100.048C35.6113 102.913 37.9423 105.245 40.8073 105.245H114.121C116.987 105.245 119.317 102.914 119.317 100.048V76.6214C119.318 73.7569 116.987 71.4259 114.122 71.4259Z" fill="#1D1D1F"/>
<path d="M59.3409 87.6149C60.2519 86.7269 59.7494 85.1799 58.4904 84.9969L54.5059 84.4179C54.0059 84.3454 53.5739 84.0314 53.3504 83.5784L51.5684 79.9679C51.0054 78.8274 49.3784 78.8274 48.8154 79.9679L47.0334 83.5784C46.8099 84.0314 46.3774 84.3454 45.8779 84.4179L41.8934 84.9969C40.6344 85.1799 40.1319 86.7269 41.0429 87.6149L43.9264 90.4254C44.2884 90.7779 44.4534 91.2859 44.3679 91.7839L43.6874 95.7524C43.4724 97.0064 44.7884 97.9624 45.9144 97.3704L49.4784 95.4969C49.9254 95.2619 50.4599 95.2619 50.9069 95.4969L54.4709 97.3704C55.5969 97.9624 56.9129 97.0064 56.6979 95.7524L56.0174 91.7839C55.9319 91.2859 56.0969 90.7779 56.4589 90.4254L59.3409 87.6149Z" fill="#5E34FF"/>
<path d="M59.8645 88.1518C60.492 87.5403 60.7135 86.6428 60.443 85.8093C60.172 84.9763 59.4655 84.3803 58.5985 84.2543L54.614 83.6758C54.3585 83.6388 54.137 83.4778 54.023 83.2463L52.241 79.6353C51.8535 78.8503 51.068 78.3618 50.192 78.3618C49.316 78.3618 48.531 78.8498 48.143 79.6353L46.361 83.2468C46.2465 83.4783 46.026 83.6388 45.7705 83.6758L41.7855 84.2543C40.9185 84.3803 40.212 84.9763 39.941 85.8098C39.6705 86.6428 39.892 87.5403 40.5195 88.1518L43.403 90.9623C43.588 91.1423 43.6725 91.4023 43.6285 91.6573L42.948 95.6258C42.8 96.4898 43.148 97.3453 43.857 97.8608C44.566 98.3758 45.488 98.4428 46.2635 98.0353L49.828 96.1613C50.0565 96.0413 50.3295 96.0408 50.5585 96.1618L54.1225 98.0353C54.4595 98.2123 54.8245 98.2998 55.1875 98.2998C55.6595 98.2998 56.128 98.1518 56.5285 97.8608C57.237 97.3458 57.5855 96.4898 57.4375 95.6258L56.757 91.6573C56.7135 91.4023 56.7975 91.1428 56.9825 90.9623L59.8645 88.1518ZM55.934 89.8883C55.395 90.4133 55.1495 91.1698 55.277 91.9113L55.9575 95.8798C56.009 96.1808 55.8925 96.4678 55.645 96.6473C55.398 96.8268 55.0895 96.8488 54.8185 96.7068L51.255 94.8338C50.9215 94.6583 50.5565 94.5708 50.1915 94.5708C49.826 94.5708 49.461 94.6588 49.128 94.8333L45.564 96.7068C45.2935 96.8488 44.984 96.8268 44.7375 96.6473C44.49 96.4678 44.3735 96.1803 44.425 95.8798L45.1055 91.9113C45.2325 91.1698 44.987 90.4133 44.448 89.8883L41.5645 87.0778C41.3455 86.8648 41.2715 86.5643 41.366 86.2738C41.4605 85.9828 41.6975 85.7833 41.9995 85.7393L45.985 85.1608C46.7295 85.0523 47.3725 84.5853 47.705 83.9108L49.4865 80.2998C49.622 80.0258 49.885 79.8623 50.1905 79.8623C50.496 79.8623 50.759 80.0258 50.894 80.2998L52.676 83.9108C53.009 84.5853 53.652 85.0523 54.3965 85.1608L58.381 85.7393C58.683 85.7833 58.9205 85.9828 59.0145 86.2733C59.109 86.5643 59.035 86.8648 58.816 87.0778L55.934 89.8883Z" fill="#1D1D1F"/>
<path d="M113.861 87.6149C114.772 86.7269 114.269 85.1799 113.01 84.9969L109.026 84.4179C108.526 84.3454 108.094 84.0314 107.87 83.5784L106.088 79.9679C105.525 78.8274 103.899 78.8274 103.335 79.9679L101.553 83.5784C101.33 84.0314 100.897 84.3454 100.398 84.4179L96.4134 84.9969C95.1544 85.1799 94.6519 86.7269 95.5629 87.6149L98.4464 90.4254C98.8084 90.7779 98.9734 91.2859 98.8879 91.7839L98.2074 95.7524C97.9924 97.0064 99.3084 97.9624 100.434 97.3704L103.998 95.4969C104.445 95.2619 104.98 95.2619 105.427 95.4969L108.991 97.3704C110.117 97.9624 111.433 97.0064 111.218 95.7524L110.537 91.7839C110.452 91.2859 110.617 90.7779 110.979 90.4254L113.861 87.6149Z" fill="#5E34FF"/>
<path d="M114.385 88.1518C115.012 87.5403 115.234 86.6428 114.963 85.8098C114.692 84.9763 113.986 84.3803 113.118 84.2543L109.134 83.6758C108.878 83.6388 108.657 83.4778 108.543 83.2463L106.761 79.6353C106.373 78.8498 105.588 78.3618 104.712 78.3618C103.836 78.3618 103.05 78.8498 102.663 79.6353L100.881 83.2463C100.766 83.4783 100.545 83.6388 100.29 83.6758L96.3048 84.2543C95.4378 84.3803 94.7308 84.9763 94.4603 85.8098C94.1893 86.6428 94.4113 87.5403 95.0388 88.1518L97.9223 90.9623C98.1073 91.1423 98.1918 91.4023 98.1478 91.6573L97.4673 95.6258C97.3193 96.4898 97.6673 97.3453 98.3763 97.8608C98.7768 98.1518 99.2453 98.2998 99.7173 98.2998C100.08 98.2998 100.445 98.2123 100.782 98.0353L104.347 96.1613C104.576 96.0408 104.848 96.0413 105.077 96.1618L108.641 98.0353C109.417 98.4428 110.339 98.3763 111.048 97.8608C111.756 97.3458 112.104 96.4898 111.956 95.6258L111.276 91.6578C111.232 91.4028 111.316 91.1428 111.502 90.9623L114.385 88.1518ZM110.454 89.8883C109.916 90.4133 109.67 91.1693 109.797 91.9113L110.477 95.8798C110.529 96.1808 110.412 96.4678 110.165 96.6473C109.918 96.8268 109.609 96.8488 109.338 96.7068L105.775 94.8338C105.442 94.6583 105.077 94.5708 104.711 94.5708C104.346 94.5708 103.981 94.6588 103.648 94.8333L100.084 96.7068C99.8133 96.8488 99.5043 96.8268 99.2573 96.6473C99.0098 96.4678 98.8933 96.1803 98.9448 95.8798L99.6253 91.9113C99.7523 91.1698 99.5068 90.4133 98.9683 89.8883L96.0848 87.0778C95.8658 86.8643 95.7918 86.5643 95.8858 86.2738C95.9803 85.9828 96.2173 85.7833 96.5193 85.7393L100.504 85.1608C101.249 85.0523 101.892 84.5853 102.225 83.9108L104.007 80.2998C104.142 80.0258 104.405 79.8623 104.711 79.8623C105.016 79.8623 105.279 80.0258 105.414 80.2998L107.196 83.9108C107.529 84.5853 108.172 85.0523 108.917 85.1608L112.901 85.7393C113.204 85.7833 113.441 85.9828 113.535 86.2738C113.63 86.5643 113.556 86.8653 113.337 87.0778L110.454 89.8883Z" fill="#1D1D1F"/>
<path d="M86.6012 87.6149C87.5122 86.7269 87.0097 85.1799 85.7507 84.9969L81.7662 84.4179C81.2662 84.3454 80.8342 84.0314 80.6107 83.5784L78.8287 79.9679C78.2657 78.8274 76.6387 78.8274 76.0757 79.9679L74.2937 83.5784C74.0702 84.0314 73.6377 84.3454 73.1382 84.4179L69.1537 84.9969C67.8946 85.1799 67.3922 86.7269 68.3032 87.6149L71.1867 90.4254C71.5487 90.7779 71.7137 91.2859 71.6282 91.7839L70.9477 95.7524C70.7327 97.0064 72.0487 97.9624 73.1747 97.3704L76.7387 95.4969C77.1857 95.2619 77.7202 95.2619 78.1672 95.4969L81.7312 97.3704C82.8572 97.9624 84.1732 97.0064 83.9582 95.7524L83.2777 91.7839C83.1922 91.2859 83.3572 90.7779 83.7192 90.4254L86.6012 87.6149Z" fill="#5E34FF"/>
<path d="M87.1248 88.1518C87.7518 87.5403 87.9738 86.6428 87.7033 85.8098C87.4323 84.9763 86.7258 84.3803 85.8588 84.2543L81.8743 83.6758C81.6183 83.6388 81.3973 83.4778 81.2833 83.2463L79.5013 79.6353C79.1138 78.8498 78.3283 78.3618 77.4523 78.3618C76.5763 78.3618 75.7913 78.8503 75.4033 79.6353L73.6213 83.2463C73.5068 83.4783 73.2858 83.6388 73.0303 83.6758L69.0453 84.2543C68.1783 84.3803 67.4713 84.9763 67.2008 85.8098C66.9303 86.6428 67.1518 87.5403 67.7793 88.1518L70.6628 90.9623C70.8478 91.1423 70.9323 91.4023 70.8883 91.6573L70.2078 95.6258C70.0598 96.4898 70.4078 97.3453 71.1168 97.8608C71.8258 98.3758 72.7478 98.4428 73.5233 98.0353L77.0878 96.1613C77.3163 96.0408 77.5893 96.0413 77.8183 96.1618L81.3823 98.0353C81.7193 98.2123 82.0843 98.2998 82.4473 98.2998C82.9188 98.2998 83.3878 98.1518 83.7883 97.8608C84.4968 97.3458 84.8453 96.4898 84.6973 95.6258L84.0168 91.6573C83.9733 91.4023 84.0573 91.1428 84.2423 90.9623L87.1248 88.1518ZM83.1948 89.8883C82.6558 90.4133 82.4103 91.1698 82.5373 91.9113L83.2178 95.8798C83.2698 96.1808 83.1528 96.4678 82.9058 96.6473C82.6583 96.8268 82.3498 96.8488 82.0793 96.7068L78.5158 94.8338C77.8498 94.4833 77.0548 94.4838 76.3888 94.8333L72.8248 96.7068C72.5548 96.8488 72.2448 96.8268 71.9983 96.6473C71.7508 96.4678 71.6343 96.1803 71.6858 95.8798L72.3663 91.9113C72.4933 91.1698 72.2478 90.4133 71.7093 89.8883L68.8258 87.0778C68.6068 86.8643 68.5328 86.5643 68.6268 86.2738C68.7213 85.9828 68.9583 85.7833 69.2603 85.7393L73.2453 85.1608C73.9898 85.0523 74.6328 84.5853 74.9658 83.9108L76.7478 80.2998C76.8828 80.0258 77.1458 79.8623 77.4513 79.8623C77.7568 79.8623 78.0203 80.0258 78.1553 80.2998L79.9373 83.9103C80.2698 84.5853 80.9128 85.0523 81.6578 85.1608L85.6423 85.7393C85.9443 85.7833 86.1813 85.9828 86.2758 86.2738C86.3703 86.5643 86.2963 86.8653 86.0773 87.0778L83.1948 89.8883Z" fill="#1D1D1F"/>
<path d="M86.6012 41.1149C87.5122 40.2269 87.0097 38.6799 85.7507 38.4969L81.7662 37.9179C81.2662 37.8454 80.8342 37.5314 80.6107 37.0784L78.8287 33.4679C78.2657 32.3274 76.6387 32.3274 76.0757 33.4679L74.2937 37.0784C74.0702 37.5314 73.6377 37.8454 73.1382 37.9179L69.1537 38.4969C67.8946 38.6799 67.3922 40.2269 68.3032 41.1149L71.1867 43.9254C71.5487 44.2779 71.7137 44.7859 71.6282 45.2839L70.9477 49.2524C70.7327 50.5064 72.0487 51.4624 73.1747 50.8704L76.7387 48.9969C77.1857 48.7619 77.7202 48.7619 78.1672 48.9969L81.7312 50.8704C82.8572 51.4624 84.1732 50.5064 83.9582 49.2524L83.2777 45.2839C83.1922 44.7859 83.3572 44.2779 83.7192 43.9254L86.6012 41.1149Z" fill="#F3FCF8"/>
<path d="M87.1248 41.6518C87.7518 41.0403 87.9738 40.1428 87.7033 39.3098C87.4323 38.4763 86.7258 37.8803 85.8588 37.7543L81.8743 37.1758C81.6183 37.1388 81.3973 36.9778 81.2833 36.7463L79.5013 33.1353C79.1138 32.3498 78.3283 31.8618 77.4523 31.8618C76.5763 31.8618 75.7913 32.3503 75.4033 33.1353L73.6213 36.7463C73.5068 36.9783 73.2858 37.1388 73.0303 37.1758L69.0453 37.7543C68.1783 37.8803 67.4713 38.4763 67.2008 39.3098C66.9303 40.1428 67.1518 41.0403 67.7793 41.6518L70.6628 44.4623C70.8478 44.6423 70.9323 44.9023 70.8883 45.1573L70.2078 49.1258C70.0598 49.9898 70.4078 50.8453 71.1168 51.3608C71.8258 51.8758 72.7478 51.9428 73.5233 51.5353L77.0878 49.6613C77.3163 49.5413 77.5893 49.5408 77.8183 49.6618L81.3823 51.5353C81.7193 51.7123 82.0843 51.7998 82.4473 51.7998C82.9188 51.7998 83.3878 51.6518 83.7883 51.3608C84.4968 50.8458 84.8453 49.9898 84.6973 49.1258L84.0168 45.1573C83.9733 44.9023 84.0573 44.6428 84.2423 44.4623L87.1248 41.6518ZM83.1948 43.3883C82.6558 43.9133 82.4103 44.6698 82.5373 45.4113L83.2178 49.3798C83.2698 49.6808 83.1528 49.9678 82.9058 50.1473C82.6583 50.3263 82.3498 50.3488 82.0793 50.2068L78.5158 48.3338C77.8498 47.9833 77.0548 47.9838 76.3888 48.3333L72.8248 50.2068C72.5548 50.3488 72.2448 50.3263 71.9983 50.1473C71.7508 49.9678 71.6343 49.6803 71.6858 49.3798L72.3663 45.4113C72.4933 44.6698 72.2478 43.9133 71.7093 43.3883L68.8258 40.5778C68.6068 40.3643 68.5328 40.0643 68.6268 39.7738C68.7213 39.4828 68.9583 39.2833 69.2603 39.2393L73.2453 38.6608C73.9898 38.5523 74.6328 38.0853 74.9658 37.4108L76.7478 33.7998C76.8828 33.5258 77.1458 33.3623 77.4513 33.3623C77.7568 33.3623 78.0203 33.5258 78.1553 33.7998L79.9373 37.4103C80.2698 38.0853 80.9128 38.5523 81.6578 38.6608L85.6423 39.2393C85.9443 39.2833 86.1813 39.4828 86.2758 39.7738C86.3703 40.0643 86.2963 40.3653 86.0773 40.5778L83.1948 43.3883Z" fill="#1D1D1F"/>
<path d="M63.8926 71.3983C63.4781 71.3983 63.1426 71.7343 63.1426 72.1483V104.522C63.1426 104.936 63.4781 105.272 63.8926 105.272C64.3071 105.272 64.6426 104.936 64.6426 104.522V72.1483C64.6426 71.7343 64.3071 71.3983 63.8926 71.3983Z" fill="#1D1D1F"/>
<path d="M91.0371 71.3983C90.6226 71.3983 90.2871 71.7343 90.2871 72.1483V104.522C90.2871 104.936 90.6226 105.272 91.0371 105.272C91.4516 105.272 91.7871 104.936 91.7871 104.522V72.1483C91.7871 71.7343 91.4511 71.3983 91.0371 71.3983Z" fill="#1D1D1F"/>
<path d="M121.578 59.8134H114.078C116.198 59.8134 117.918 61.5384 117.918 63.6584V73.0784C118.788 74.0134 119.318 75.2584 119.318 76.6234V100.048C119.318 101.418 118.788 102.663 117.918 103.588V113.238C117.918 115.358 116.198 117.083 114.078 117.083H121.578C123.698 117.083 125.418 115.358 125.418 113.238V63.6584C125.418 61.5384 123.698 59.8134 121.578 59.8134Z" fill="#232222" fill-opacity="0.1"/>
</svg>
