<svg width="158" height="146" viewBox="0 0 158 146" fill="none" xmlns="http://www.w3.org/2000/svg">
<path fill-rule="evenodd" clip-rule="evenodd" d="M77.2171 5.70435C102.65 -2.92229 137.47 -3.93011 152.771 18.1613C167.87 39.9617 146.393 67.3171 137.098 92.1593C130.106 110.843 124.71 131.239 107.019 140.428C88.788 149.898 67.4745 146.043 48.4942 138.184C27.7006 129.575 0.479938 118.64 0.00487852 96.1193C-0.459956 74.0833 32.4141 70.8854 46.7211 54.132C59.753 38.8718 58.2227 12.147 77.2171 5.70435Z" fill="#F3FCF8"/>
<path d="M54.8614 15.994C50.5589 15.736 48.9454 9.98152 48.9294 9.92302C48.8344 9.57202 48.5039 9.34352 48.1374 9.37202C47.7749 9.40502 47.4884 9.69302 47.4579 10.0555C47.0279 15.1635 41.8014 16.0375 41.5809 16.0715C41.1994 16.1295 40.9244 16.467 40.9444 16.852C40.9644 17.2375 41.2729 17.5445 41.6579 17.5625C46.1719 17.7755 47.4074 23.922 47.4194 23.9845C47.4879 24.34 47.7989 24.593 48.1554 24.593C48.1764 24.593 48.1974 24.592 48.2184 24.5905C48.6004 24.5585 48.8969 24.244 48.9059 23.8605C49.0029 19.606 55.0014 17.472 55.0624 17.451C55.3999 17.334 55.6084 16.994 55.5594 16.64C55.5099 16.286 55.2184 16.0155 54.8614 15.994ZM48.0784 21.1665C47.3999 19.6015 46.2239 17.713 44.2849 16.7285C45.7504 16.026 47.4894 14.772 48.3859 12.592C49.1614 14.1275 50.4854 16.0325 52.5524 16.9535C51.0489 17.7735 49.0914 19.156 48.0784 21.1665Z" fill="#1D1D1F"/>
<path d="M42.0775 22.5459C39.194 22.3729 38.091 18.4524 38.0805 18.4129C37.9855 18.0619 37.6535 17.8309 37.2895 17.8619C36.9265 17.8944 36.64 18.1834 36.6095 18.5459C36.32 21.9814 32.7865 22.5789 32.6385 22.6024C32.257 22.6604 31.982 22.9979 32.002 23.3829C32.022 23.7684 32.3305 24.0754 32.7155 24.0934C35.7335 24.2354 36.5775 28.4159 36.585 28.4569C36.6525 28.8129 36.9645 29.0669 37.321 29.0669C37.3415 29.0669 37.3625 29.0659 37.3835 29.0644C37.766 29.0329 38.0625 28.7179 38.0715 28.3339C38.1365 25.4794 42.237 24.0174 42.278 24.0034C42.616 23.8869 42.825 23.5469 42.776 23.1924C42.7265 22.8379 42.4345 22.5674 42.0775 22.5459ZM37.2845 25.9429C36.8225 24.9999 36.1145 23.9694 35.061 23.3034C35.989 22.7829 36.9095 21.9884 37.4965 20.8449C38.025 21.7819 38.824 22.8224 39.967 23.4574C39.0425 24.0074 37.973 24.8264 37.2845 25.9429Z" fill="#1D1D1F"/>
<path d="M42.0737 9.19814C39.1902 9.03764 38.0717 5.12114 38.0607 5.08164C37.9642 4.73114 37.6312 4.49564 37.2677 4.53414C36.9052 4.56764 36.6192 4.85714 36.5902 5.22064C36.3142 8.65714 32.7827 9.26914 32.6347 9.29314C32.2537 9.35264 31.9797 9.69114 32.0012 10.0756C32.0222 10.4611 32.3327 10.7671 32.7177 10.7836C35.7357 10.9136 36.5962 15.0901 36.6042 15.1311C36.6732 15.4861 36.9842 15.7381 37.3397 15.7381C37.3612 15.7381 37.3832 15.7371 37.4052 15.7351C37.7877 15.7021 38.0832 15.3861 38.0902 15.0021C38.1442 12.1476 42.2392 10.6691 42.2792 10.6551C42.6172 10.5371 42.8242 10.1966 42.7742 9.84214C42.7242 9.48764 42.4312 9.21864 42.0737 9.19814ZM37.2947 12.6146C36.8292 11.6736 36.1172 10.6456 35.0607 9.98314C35.9867 9.45914 36.9042 8.66114 37.4862 7.51514C38.0187 8.45014 38.8212 9.48714 39.9672 10.1176C39.0447 10.6721 37.9782 11.4961 37.2947 12.6146Z" fill="#1D1D1F"/>
<path d="M67.8862 48.2053V108.266C67.8862 109.592 68.9602 110.666 70.2855 110.666H113.714C115.039 110.666 116.113 109.591 116.113 108.266V48.2053H67.8862Z" fill="#1B989E"/>
<path d="M130.152 29.9375H53.8478C51.4523 29.9375 49.4922 31.8976 49.4922 34.2931V62.1174C49.4922 64.5129 51.4523 66.473 53.8478 66.473H67.8863C67.8863 59.9825 67.8863 53.639 67.8863 48.2052H116.114V66.473H130.152C132.548 66.473 134.508 64.5129 134.508 62.1174V34.2931C134.508 31.8976 132.548 29.9375 130.152 29.9375Z" fill="#5EEAA7"/>
<path d="M113.714 110.666C108.292 110.666 75.7575 110.666 70.2855 110.666C68.9602 110.666 67.8862 109.592 67.8862 108.267V114.965C67.8862 116.29 68.9602 117.364 70.2855 117.364H113.714C115.039 117.364 116.113 116.29 116.113 114.965V108.267C116.113 109.592 115.039 110.666 113.714 110.666Z" fill="#1B989E"/>
<path d="M113.714 117.364C108.292 117.364 75.7575 117.364 70.2855 117.364C68.9602 117.364 67.8862 116.29 67.8862 114.965V121.663C67.8862 122.989 68.9602 124.063 70.2855 124.063H113.714C115.039 124.063 116.113 122.988 116.113 121.663V114.965C116.113 116.29 115.039 117.364 113.714 117.364Z" fill="#1B989E"/>
<path d="M119.693 38.0566H64.3068C60.6086 38.0566 57.6108 41.0544 57.6108 44.7526V45.5135C57.6108 47.0004 58.8161 48.2056 60.303 48.2056H123.697C125.184 48.2056 126.389 47.0004 126.389 45.5135V44.7526C126.389 41.0544 123.391 38.0566 119.693 38.0566Z" fill="#F3FCF8"/>
<path d="M67.8862 48.2052H60.303C58.8161 48.2052 57.6108 47 57.6108 45.5131V55.6617C57.6108 57.1486 58.8161 58.3539 60.303 58.3539H67.8862C67.8862 54.8592 67.8862 51.4422 67.8862 48.2052Z" fill="#5EEAA7"/>
<path d="M123.697 48.2052H116.114V58.3542H123.697C125.184 58.3542 126.389 57.149 126.389 55.6621V45.5135C126.389 47 125.184 48.2052 123.697 48.2052Z" fill="#5EEAA7"/>
<path d="M67.8864 48.2053H61.5312V53.3248C61.5312 53.9244 62.0176 54.4108 62.6173 54.4108H67.8864C67.8864 52.289 67.8864 50.2126 67.8864 48.2053Z" fill="#232222" fill-opacity="0.2"/>
<path d="M116.114 48.2053V54.4108H121.383C121.983 54.4108 122.469 53.9248 122.469 53.3248V48.2053H116.114Z" fill="#232222" fill-opacity="0.2"/>
<path d="M116.113 108.267V95.8265C107.918 95.8265 101.274 102.47 101.274 110.666H113.714C115.039 110.666 116.113 109.592 116.113 108.267Z" fill="#232222" fill-opacity="0.2"/>
<path d="M67.8862 95.8265V108.266C67.8862 109.592 68.9602 110.666 70.2855 110.666H82.7257C82.7257 102.47 76.0819 95.8265 67.8862 95.8265Z" fill="#232222" fill-opacity="0.2"/>
<path d="M116.113 108.267C116.113 109.592 115.039 110.666 113.714 110.666C112.077 110.666 107.964 110.666 102.873 110.666C101.853 112.679 101.274 114.953 101.274 117.364H113.714C115.039 117.364 116.113 116.29 116.113 114.965V108.267Z" fill="#232222" fill-opacity="0.2"/>
<path d="M70.2855 110.666C68.9602 110.666 67.8862 109.592 67.8862 108.267V114.965C67.8862 116.29 68.9602 117.364 70.2855 117.364H82.7257C82.7257 114.953 82.1471 112.679 81.1267 110.666C76.044 110.666 71.9347 110.666 70.2855 110.666Z" fill="#232222" fill-opacity="0.2"/>
<path d="M70.2855 124.063H82.7257C82.7257 121.652 82.1471 119.377 81.1267 117.364C76.044 117.364 71.9347 117.364 70.2855 117.364C68.9602 117.364 67.8862 116.29 67.8862 114.965V121.663C67.8862 122.987 68.9599 124.063 70.2855 124.063Z" fill="#232222" fill-opacity="0.2"/>
<path d="M113.714 117.364C112.077 117.364 107.964 117.364 102.873 117.364C101.853 119.377 101.274 121.652 101.274 124.063H113.714C115.039 124.063 116.113 122.988 116.113 121.663V114.965C116.113 116.29 115.039 117.364 113.714 117.364Z" fill="#232222" fill-opacity="0.2"/>
<path d="M92 86.5726C101.015 86.5726 108.324 79.2642 108.324 70.2489C108.324 61.2335 101.015 53.9251 92 53.9251C82.9847 53.9251 75.6763 61.2335 75.6763 70.2489C75.6763 79.2642 82.9847 86.5726 92 86.5726Z" fill="#5EEAA7"/>
<path d="M88.2541 77.0068C85.6714 77.0068 83.5703 74.9057 83.5703 72.3234V65.6874C83.5703 65.1695 83.9899 64.7499 84.5078 64.7499C85.0257 64.7499 85.4453 65.1695 85.4453 65.6874V72.3234C85.4453 73.8718 86.7053 75.1318 88.2541 75.1318C89.8024 75.1318 91.0624 73.8718 91.0624 72.3234V68.1744C91.0624 65.5918 93.1636 63.4907 95.7458 63.4907C98.3281 63.4907 100.429 65.5918 100.429 68.1744V74.0548C100.429 74.5727 100.01 74.9923 99.4917 74.9923C98.9738 74.9923 98.5542 74.5727 98.5542 74.0548V68.1744C98.5542 66.6257 97.2946 65.3657 95.7458 65.3657C94.1971 65.3657 92.9374 66.6257 92.9374 68.1744V72.3234C92.9374 74.906 90.8363 77.0068 88.2541 77.0068Z" fill="#1D1D1F"/>
<path d="M102.055 71.1865H81.9453C81.4274 71.1865 81.0078 70.7668 81.0078 70.249C81.0078 69.7311 81.4274 69.3115 81.9453 69.3115H102.055C102.573 69.3115 102.992 69.7311 102.992 70.249C102.992 70.7668 102.573 71.1865 102.055 71.1865Z" fill="#1D1D1F"/>
<path d="M92 98.7658C91.4821 98.7658 91.0625 98.3461 91.0625 97.8283V94.1345C91.0625 93.6166 91.4821 93.197 92 93.197C92.5179 93.197 92.9375 93.6166 92.9375 94.1345V97.8283C92.9375 98.3461 92.5179 98.7658 92 98.7658Z" fill="#1D1D1F"/>
<path d="M113.714 111.604H70.2855C68.4454 111.604 66.9487 110.107 66.9487 108.267V48.2053C66.9487 47.6874 67.3684 47.2678 67.8862 47.2678H116.113C116.631 47.2678 117.051 47.6874 117.051 48.2053V108.267C117.051 110.107 115.554 111.604 113.714 111.604ZM68.8237 49.1428V108.267C68.8237 109.073 69.4796 109.729 70.2855 109.729H113.714C114.52 109.729 115.176 109.073 115.176 108.267V49.1428H68.8237Z" fill="#1D1D1F"/>
<path d="M130.152 67.4109H116.113C115.595 67.4109 115.176 66.9912 115.176 66.4734V49.1427H68.8238V66.473C68.8238 66.9909 68.4042 67.4105 67.8863 67.4105H53.8478C50.9292 67.4105 48.5547 65.036 48.5547 62.1174V34.2931C48.5547 31.3745 50.9292 29 53.8478 29H130.152C133.071 29 135.446 31.3745 135.446 34.2931V62.1174C135.445 65.0364 133.071 67.4109 130.152 67.4109ZM117.051 65.5359H130.152C132.037 65.5359 133.571 64.0025 133.571 62.1177V34.2931C133.571 32.4084 132.037 30.875 130.152 30.875H53.8478C51.9631 30.875 50.4297 32.4084 50.4297 34.2931V62.1174C50.4297 64.0021 51.9631 65.5355 53.8478 65.5355H66.9488V48.2052C66.9488 47.6874 67.3684 47.2677 67.8863 47.2677H116.114C116.631 47.2677 117.051 47.6874 117.051 48.2052V65.5359Z" fill="#1D1D1F"/>
<path d="M113.714 118.302H70.2855C68.4454 118.302 66.9487 116.805 66.9487 114.965V108.267C66.9487 107.749 67.3684 107.329 67.8862 107.329C68.4041 107.329 68.8237 107.749 68.8237 108.267C68.8237 109.073 69.4796 109.728 70.2855 109.728H113.714C114.52 109.728 115.176 109.073 115.176 108.267C115.176 107.749 115.595 107.329 116.113 107.329C116.631 107.329 117.051 107.749 117.051 108.267V114.965C117.051 116.805 115.554 118.302 113.714 118.302ZM68.8237 111.266V114.965C68.8237 115.77 69.4796 116.426 70.2855 116.426H113.714C114.52 116.426 115.176 115.77 115.176 114.965V111.266C114.734 111.482 114.238 111.603 113.714 111.603H70.2855C69.7616 111.603 69.2655 111.482 68.8237 111.266Z" fill="#1D1D1F"/>
<path d="M113.714 125H70.2855C68.4454 125 66.9487 123.503 66.9487 121.663V114.965C66.9487 114.447 67.3684 114.028 67.8862 114.028C68.4041 114.028 68.8237 114.447 68.8237 114.965C68.8237 115.771 69.4796 116.427 70.2855 116.427H113.714C114.52 116.427 115.176 115.771 115.176 114.965C115.176 114.447 115.595 114.028 116.113 114.028C116.631 114.028 117.051 114.447 117.051 114.965V121.663C117.051 123.503 115.554 125 113.714 125ZM68.8237 117.964V121.663C68.8237 122.469 69.4796 123.125 70.2855 123.125H113.714C114.52 123.125 115.176 122.469 115.176 121.663V117.964C114.734 118.181 114.238 118.302 113.714 118.302H70.2855C69.7616 118.302 69.2655 118.18 68.8237 117.964Z" fill="#1D1D1F"/>
<path d="M123.697 49.1427H60.303C58.3016 49.1427 56.6733 47.5145 56.6733 45.5131V44.7522C56.6733 40.5432 60.0978 37.1187 64.3068 37.1187H119.692C123.902 37.1187 127.326 40.5432 127.326 44.7522V45.5131C127.326 47.5148 125.698 49.1427 123.697 49.1427ZM64.3068 38.9941C61.1317 38.9941 58.5483 41.5775 58.5483 44.7526V45.5135C58.5483 46.481 59.3355 47.2681 60.303 47.2681H123.697C124.664 47.2681 125.451 46.481 125.451 45.5135V44.7526C125.451 41.5775 122.868 38.9941 119.693 38.9941H64.3068Z" fill="#1D1D1F"/>
<path d="M67.8862 59.2917H60.303C58.3016 59.2917 56.6733 57.6635 56.6733 55.6621V45.5135C56.6733 44.9956 57.093 44.576 57.6108 44.576C58.1287 44.576 58.5483 44.9956 58.5483 45.5135C58.5483 46.481 59.3355 47.2681 60.303 47.2681H67.8862C68.4041 47.2681 68.8237 47.6877 68.8237 48.2056V58.3542C68.8237 58.8721 68.4041 59.2917 67.8862 59.2917ZM58.5483 48.6897V55.6621C58.5483 56.6296 59.3355 57.4167 60.303 57.4167H66.9487V49.1427H60.303C59.667 49.1427 59.0688 48.9785 58.5483 48.6897Z" fill="#1D1D1F"/>
<path d="M123.697 59.2918H116.113C115.595 59.2918 115.176 58.8721 115.176 58.3543V48.2052C115.176 47.6874 115.595 47.2677 116.113 47.2677H123.697C124.664 47.2677 125.452 46.4806 125.452 45.5131C125.452 44.9952 125.871 44.5756 126.389 44.5756C126.907 44.5756 127.327 44.9952 127.327 45.5131V55.6618C127.327 57.6635 125.698 59.2918 123.697 59.2918ZM117.051 57.4168H123.697C124.665 57.4168 125.452 56.6296 125.452 55.6621V48.6897C124.931 48.9785 124.333 49.1427 123.697 49.1427H117.051V57.4168Z" fill="#1D1D1F"/>
<path d="M67.8864 55.3486H62.6173C61.5013 55.3486 60.5938 54.4411 60.5938 53.3251V48.2053C60.5938 47.6874 61.0134 47.2678 61.5313 47.2678H67.8864C68.4043 47.2678 68.8239 47.6874 68.8239 48.2053V54.4108C68.8239 54.929 68.4043 55.3486 67.8864 55.3486ZM62.4688 49.1428V53.3248C62.4688 53.4065 62.5355 53.4733 62.6173 53.4733H66.9489V49.1428H62.4688Z" fill="#1D1D1F"/>
<path d="M121.383 55.3486H116.113C115.595 55.3486 115.176 54.929 115.176 54.4111V48.2053C115.176 47.6874 115.595 47.2678 116.113 47.2678H122.468C122.986 47.2678 123.406 47.6874 123.406 48.2053V53.3248C123.406 54.4408 122.498 55.3486 121.383 55.3486ZM117.051 53.4736H121.383C121.465 53.4736 121.532 53.4069 121.532 53.3251V49.1428H117.052V53.4736H117.051Z" fill="#1D1D1F"/>
<path d="M113.714 111.604H101.274C100.756 111.604 100.336 111.184 100.336 110.666C100.336 101.966 107.414 94.889 116.113 94.889C116.631 94.889 117.051 95.3087 117.051 95.8265V108.267C117.051 110.107 115.554 111.604 113.714 111.604ZM102.243 109.729H113.714C114.52 109.729 115.176 109.073 115.176 108.267V96.7955C108.255 97.2579 102.706 102.808 102.243 109.729Z" fill="#1D1D1F"/>
<path d="M82.7257 111.604H70.2855C68.4454 111.604 66.9487 110.107 66.9487 108.267V95.8265C66.9487 95.3087 67.3684 94.889 67.8862 94.889C76.5859 94.889 83.6632 101.967 83.6632 110.666C83.6632 111.184 83.2436 111.604 82.7257 111.604ZM68.8237 96.7955V108.267C68.8237 109.073 69.4796 109.729 70.2855 109.729H81.7567C81.2944 102.808 75.7444 97.2579 68.8237 96.7955Z" fill="#1D1D1F"/>
<path d="M113.714 118.302H101.274C100.756 118.302 100.336 117.882 100.336 117.364C100.336 114.864 100.908 112.468 102.037 110.242C102.196 109.927 102.519 109.728 102.873 109.728H113.713C114.519 109.728 115.175 109.072 115.175 108.266C115.175 107.749 115.595 107.329 116.113 107.329C116.631 107.329 117.05 107.749 117.05 108.266V114.965C117.051 116.805 115.554 118.302 113.714 118.302ZM102.242 116.427H113.714C114.52 116.427 115.176 115.771 115.176 114.965V111.266C114.734 111.482 114.238 111.604 113.714 111.604H103.461C102.762 113.134 102.353 114.751 102.242 116.427Z" fill="#1D1D1F"/>
<path d="M82.7257 118.302H70.2855C68.4454 118.302 66.9487 116.805 66.9487 114.965V108.267C66.9487 107.749 67.3684 107.329 67.8862 107.329C68.4041 107.329 68.8237 107.749 68.8237 108.267C68.8237 109.073 69.4796 109.728 70.2855 109.728H81.1267C81.48 109.728 81.8032 109.927 81.963 110.242C83.0914 112.468 83.6632 114.864 83.6632 117.365C83.6632 117.882 83.2436 118.302 82.7257 118.302ZM68.8237 111.266V114.965C68.8237 115.77 69.4796 116.426 70.2855 116.426H81.7575C81.6469 114.75 81.2381 113.133 80.538 111.603H70.2855C69.7616 111.603 69.2655 111.482 68.8237 111.266Z" fill="#1D1D1F"/>
<path d="M82.7257 125H70.2855C68.4454 125 66.9487 123.503 66.9487 121.663V114.965C66.9487 114.447 67.3684 114.028 67.8862 114.028C68.4041 114.028 68.8237 114.447 68.8237 114.965C68.8237 115.771 69.4796 116.427 70.2855 116.427H81.1267C81.48 116.427 81.8032 116.625 81.963 116.941C83.0914 119.166 83.6632 121.562 83.6632 124.063C83.6632 124.58 83.2436 125 82.7257 125ZM68.8237 117.964V121.663C68.8237 122.469 69.4796 123.125 70.2855 123.125H81.7575C81.6469 121.448 81.2385 119.832 80.5384 118.302H70.2859C69.7616 118.302 69.2655 118.18 68.8237 117.964Z" fill="#1D1D1F"/>
<path d="M113.714 125H101.274C100.756 125 100.336 124.58 100.336 124.063C100.336 121.562 100.908 119.166 102.037 116.941C102.196 116.626 102.519 116.427 102.873 116.427H113.713C114.519 116.427 115.175 115.771 115.175 114.965C115.175 114.447 115.595 114.028 116.113 114.028C116.631 114.028 117.05 114.447 117.05 114.965V121.663C117.051 123.503 115.554 125 113.714 125ZM102.242 123.125H113.714C114.52 123.125 115.176 122.469 115.176 121.663V117.964C114.734 118.181 114.238 118.302 113.714 118.302H103.461C102.762 119.832 102.353 121.449 102.242 123.125Z" fill="#1D1D1F"/>
<path d="M92 87.5102C82.4821 87.5102 74.7388 79.7668 74.7388 70.2486C74.7388 60.7303 82.4821 52.9873 92 52.9873C101.518 52.9873 109.261 60.7307 109.261 70.2486C109.261 79.7664 101.518 87.5102 92 87.5102ZM92 54.8623C83.516 54.8623 76.6138 61.7646 76.6138 70.2486C76.6138 78.7329 83.516 85.6352 92 85.6352C100.484 85.6352 107.386 78.7329 107.386 70.2486C107.386 61.7649 100.484 54.8623 92 54.8623Z" fill="#1D1D1F"/>
<path d="M49 126C62.2548 126 73 115.255 73 102C73 88.7452 62.2548 78 49 78C35.7452 78 25 88.7452 25 102C25 115.255 35.7452 126 49 126Z" fill="#5E34FF"/>
<path d="M49 77C35.2147 77 24 88.2147 24 102C24 115.785 35.2147 127 49 127C62.7847 127 74 115.785 74 102C74 88.2147 62.7853 77 49 77ZM49 125.232C36.1898 125.232 25.7676 114.811 25.7676 102C25.7676 89.1892 36.1898 78.7676 49 78.7676C61.8102 78.7676 72.2324 89.1892 72.2324 102C72.2324 114.811 61.8102 125.232 49 125.232Z" fill="#1D1D1F"/>
<path d="M64.256 91.9702C63.1864 90.7656 61.3582 90.6692 60.1724 91.7569L43.9121 106.666L38.2502 98.5405C37.3269 97.216 35.5224 96.9034 34.2204 97.8407C32.9172 98.7785 32.6091 100.613 33.5324 101.936L41.0745 112.76C41.5515 113.445 42.2944 113.89 43.1149 113.982C43.2218 113.994 43.3276 114 43.4334 114C44.1446 114 44.8361 113.733 45.3703 113.243L64.0461 96.1195C65.2307 95.033 65.325 93.1749 64.256 91.9702Z" fill="#F3FCF8"/>
</svg>
