<?xml version="1.0" encoding="UTF-8"?> <svg xmlns="http://www.w3.org/2000/svg" width="613" height="186" viewBox="0 0 613 186" fill="none"><path d="M31.8536 15.6484C31.6583 15.4531 31.3417 15.4531 31.1464 15.6484L27.9645 18.8304C27.7692 19.0256 27.7692 19.3422 27.9645 19.5375C28.1597 19.7327 28.4763 19.7327 28.6716 19.5375L31.5 16.7091L34.3284 19.5375C34.5237 19.7327 34.8403 19.7327 35.0355 19.5375C35.2308 19.3422 35.2308 19.0256 35.0355 18.8304L31.8536 15.6484ZM32 172.002L32 16.002H31L31 172.002H32Z" fill="#303030"></path><path opacity="0.1" d="M31 33.9033H576" stroke="#303030"></path><path opacity="0.1" d="M31 49.9033H576" stroke="#303030"></path><path opacity="0.1" d="M31 65.9033H576" stroke="#303030"></path><path opacity="0.1" d="M31 81.9033H576" stroke="#303030"></path><path opacity="0.1" d="M31 97.9033H576" stroke="#303030"></path><path opacity="0.1" d="M31 113.903H576" stroke="#303030"></path><path opacity="0.1" d="M31 129.903H576" stroke="#303030"></path><path opacity="0.1" d="M31 145.903H576" stroke="#303030"></path><path opacity="0.1" d="M31 161.903H576" stroke="#303030"></path><path d="M586.354 172.257C586.549 172.062 586.549 171.745 586.354 171.55L583.172 168.368C582.976 168.173 582.66 168.173 582.464 168.368C582.269 168.563 582.269 168.88 582.464 169.075L585.293 171.903L582.464 174.732C582.269 174.927 582.269 175.244 582.464 175.439C582.66 175.634 582.976 175.634 583.172 175.439L586.354 172.257ZM31 172.403H586V171.403H31V172.403Z" fill="#303030"></path><path d="M4.704 34.832V34.136H4.016V30.216H3L0.272 34.136V34.832H3.264V36H4.016V34.832H4.704ZM1.12 34.136L3.264 31.048V34.136H1.12ZM5.47794 33.112C5.47794 34.912 6.36594 36.104 7.86194 36.104C9.34994 36.104 10.2379 34.912 10.2379 33.112C10.2379 31.32 9.30994 30.104 7.86194 30.104C6.40594 30.104 5.47794 31.32 5.47794 33.112ZM6.25394 33.112C6.25394 31.672 6.84594 30.808 7.86194 30.808C8.87794 30.808 9.46194 31.672 9.46194 33.112C9.46194 34.536 8.87794 35.4 7.86194 35.4C6.84594 35.4 6.25394 34.536 6.25394 33.112ZM11.0248 33.112C11.0248 34.912 11.9128 36.104 13.4088 36.104C14.8968 36.104 15.7848 34.912 15.7848 33.112C15.7848 31.32 14.8568 30.104 13.4088 30.104C11.9528 30.104 11.0248 31.32 11.0248 33.112ZM11.8008 33.112C11.8008 31.672 12.3928 30.808 13.4088 30.808C14.4248 30.808 15.0088 31.672 15.0088 33.112C15.0088 34.536 14.4248 35.4 13.4088 35.4C12.3928 35.4 11.8008 34.536 11.8008 33.112ZM16.5717 33.112C16.5717 34.912 17.4597 36.104 18.9557 36.104C20.4437 36.104 21.3317 34.912 21.3317 33.112C21.3317 31.32 20.4037 30.104 18.9557 30.104C17.4997 30.104 16.5717 31.32 16.5717 33.112ZM17.3477 33.112C17.3477 31.672 17.9397 30.808 18.9557 30.808C19.9717 30.808 20.5557 31.672 20.5557 33.112C20.5557 34.536 19.9717 35.4 18.9557 35.4C17.9397 35.4 17.3477 34.536 17.3477 33.112ZM22.1186 33.112C22.1186 34.912 23.0066 36.104 24.5026 36.104C25.9906 36.104 26.8786 34.912 26.8786 33.112C26.8786 31.32 25.9506 30.104 24.5026 30.104C23.0466 30.104 22.1186 31.32 22.1186 33.112ZM22.8946 33.112C22.8946 31.672 23.4866 30.808 24.5026 30.808C25.5186 30.808 26.1026 31.672 26.1026 33.112C26.1026 34.536 25.5186 35.4 24.5026 35.4C23.4866 35.4 22.8946 34.536 22.8946 33.112Z" fill="#303030"></path><path d="M4.048 49.008C4.968 49.008 5.448 49.472 5.448 50.168C5.448 50.912 4.96 51.392 4.208 51.392C3.48 51.392 3.016 50.952 3.016 50.2H2.24C2.24 51.4 3.056 52.096 4.192 52.096C5.368 52.096 6.248 51.352 6.248 50.184C6.248 49.144 5.504 48.48 4.52 48.36L6.104 46.848V46.216H2.512V46.912H5.112L3.472 48.488V49.008H4.048ZM8.86725 52.096C10.1153 52.096 10.9713 51.256 10.9713 50.056C10.9713 48.944 10.2113 48.12 9.03525 48.12C8.60325 48.12 8.21925 48.24 7.91525 48.472L8.29925 46.936H10.6273V46.216H7.73125L7.02725 49.184L7.69125 49.352C7.95525 49.024 8.40325 48.792 8.89125 48.792C9.69925 48.792 10.1713 49.344 10.1713 50.088C10.1713 50.872 9.66725 51.392 8.88325 51.392C8.14725 51.392 7.69125 50.936 7.69125 50.192H6.91525C6.91525 51.344 7.68325 52.096 8.86725 52.096ZM11.6498 49.112C11.6498 50.912 12.5378 52.104 14.0338 52.104C15.5218 52.104 16.4098 50.912 16.4098 49.112C16.4098 47.32 15.4818 46.104 14.0338 46.104C12.5778 46.104 11.6498 47.32 11.6498 49.112ZM12.4258 49.112C12.4258 47.672 13.0178 46.808 14.0338 46.808C15.0498 46.808 15.6338 47.672 15.6338 49.112C15.6338 50.536 15.0498 51.4 14.0338 51.4C13.0178 51.4 12.4258 50.536 12.4258 49.112ZM17.1967 49.112C17.1967 50.912 18.0847 52.104 19.5807 52.104C21.0687 52.104 21.9567 50.912 21.9567 49.112C21.9567 47.32 21.0287 46.104 19.5807 46.104C18.1247 46.104 17.1967 47.32 17.1967 49.112ZM17.9727 49.112C17.9727 47.672 18.5647 46.808 19.5807 46.808C20.5967 46.808 21.1807 47.672 21.1807 49.112C21.1807 50.536 20.5967 51.4 19.5807 51.4C18.5647 51.4 17.9727 50.536 17.9727 49.112ZM22.7436 49.112C22.7436 50.912 23.6316 52.104 25.1276 52.104C26.6156 52.104 27.5036 50.912 27.5036 49.112C27.5036 47.32 26.5756 46.104 25.1276 46.104C23.6716 46.104 22.7436 47.32 22.7436 49.112ZM23.5196 49.112C23.5196 47.672 24.1116 46.808 25.1276 46.808C26.1436 46.808 26.7276 47.672 26.7276 49.112C26.7276 50.536 26.1436 51.4 25.1276 51.4C24.1116 51.4 23.5196 50.536 23.5196 49.112Z" fill="#303030"></path><path d="M3.048 65.008C3.968 65.008 4.448 65.472 4.448 66.168C4.448 66.912 3.96 67.392 3.208 67.392C2.48 67.392 2.016 66.952 2.016 66.2H1.24C1.24 67.4 2.056 68.096 3.192 68.096C4.368 68.096 5.248 67.352 5.248 66.184C5.248 65.144 4.504 64.48 3.52 64.36L5.104 62.848V62.216H1.512V62.912H4.112L2.472 64.488V65.008H3.048ZM5.93888 65.112C5.93888 66.912 6.82688 68.104 8.32288 68.104C9.81088 68.104 10.6989 66.912 10.6989 65.112C10.6989 63.32 9.77087 62.104 8.32288 62.104C6.86688 62.104 5.93888 63.32 5.93888 65.112ZM6.71488 65.112C6.71488 63.672 7.30688 62.808 8.32288 62.808C9.33888 62.808 9.92288 63.672 9.92288 65.112C9.92288 66.536 9.33888 67.4 8.32288 67.4C7.30688 67.4 6.71488 66.536 6.71488 65.112ZM11.4858 65.112C11.4858 66.912 12.3738 68.104 13.8698 68.104C15.3578 68.104 16.2458 66.912 16.2458 65.112C16.2458 63.32 15.3177 62.104 13.8698 62.104C12.4138 62.104 11.4858 63.32 11.4858 65.112ZM12.2618 65.112C12.2618 63.672 12.8538 62.808 13.8698 62.808C14.8858 62.808 15.4698 63.672 15.4698 65.112C15.4698 66.536 14.8858 67.4 13.8698 67.4C12.8538 67.4 12.2618 66.536 12.2618 65.112ZM17.0326 65.112C17.0326 66.912 17.9206 68.104 19.4166 68.104C20.9046 68.104 21.7926 66.912 21.7926 65.112C21.7926 63.32 20.8646 62.104 19.4166 62.104C17.9606 62.104 17.0326 63.32 17.0326 65.112ZM17.8086 65.112C17.8086 63.672 18.4006 62.808 19.4166 62.808C20.4326 62.808 21.0166 63.672 21.0166 65.112C21.0166 66.536 20.4326 67.4 19.4166 67.4C18.4006 67.4 17.8086 66.536 17.8086 65.112ZM22.5795 65.112C22.5795 66.912 23.4675 68.104 24.9635 68.104C26.4515 68.104 27.3395 66.912 27.3395 65.112C27.3395 63.32 26.4115 62.104 24.9635 62.104C23.5075 62.104 22.5795 63.32 22.5795 65.112ZM23.3555 65.112C23.3555 63.672 23.9475 62.808 24.9635 62.808C25.9795 62.808 26.5635 63.672 26.5635 65.112C26.5635 66.536 25.9795 67.4 24.9635 67.4C23.9475 67.4 23.3555 66.536 23.3555 65.112Z" fill="#303030"></path><path d="M6.272 83.992V83.264H3.6L4.8 82.224C5.824 81.336 6.232 80.752 6.232 79.928C6.232 78.816 5.488 78.112 4.328 78.112C3.152 78.112 2.368 78.92 2.344 80.16H3.128C3.144 79.336 3.608 78.816 4.32 78.816C5.016 78.816 5.432 79.248 5.432 79.976C5.432 80.592 5.168 80.984 4.232 81.792L2.368 83.4V84L6.272 83.992ZM8.88288 84.096C10.1309 84.096 10.9869 83.256 10.9869 82.056C10.9869 80.944 10.2269 80.12 9.05088 80.12C8.61888 80.12 8.23488 80.24 7.93088 80.472L8.31488 78.936H10.6429V78.216H7.74688L7.04288 81.184L7.70688 81.352C7.97088 81.024 8.41888 80.792 8.90688 80.792C9.71488 80.792 10.1869 81.344 10.1869 82.088C10.1869 82.872 9.68288 83.392 8.89887 83.392C8.16288 83.392 7.70688 82.936 7.70688 82.192H6.93088C6.93088 83.344 7.69888 84.096 8.88288 84.096ZM11.6654 81.112C11.6654 82.912 12.5534 84.104 14.0494 84.104C15.5374 84.104 16.4254 82.912 16.4254 81.112C16.4254 79.32 15.4974 78.104 14.0494 78.104C12.5934 78.104 11.6654 79.32 11.6654 81.112ZM12.4414 81.112C12.4414 79.672 13.0334 78.808 14.0494 78.808C15.0654 78.808 15.6494 79.672 15.6494 81.112C15.6494 82.536 15.0654 83.4 14.0494 83.4C13.0334 83.4 12.4414 82.536 12.4414 81.112ZM17.2123 81.112C17.2123 82.912 18.1003 84.104 19.5963 84.104C21.0843 84.104 21.9723 82.912 21.9723 81.112C21.9723 79.32 21.0443 78.104 19.5963 78.104C18.1403 78.104 17.2123 79.32 17.2123 81.112ZM17.9883 81.112C17.9883 79.672 18.5803 78.808 19.5963 78.808C20.6123 78.808 21.1963 79.672 21.1963 81.112C21.1963 82.536 20.6123 83.4 19.5963 83.4C18.5803 83.4 17.9883 82.536 17.9883 81.112ZM22.7592 81.112C22.7592 82.912 23.6472 84.104 25.1432 84.104C26.6312 84.104 27.5192 82.912 27.5192 81.112C27.5192 79.32 26.5912 78.104 25.1432 78.104C23.6872 78.104 22.7592 79.32 22.7592 81.112ZM23.5352 81.112C23.5352 79.672 24.1272 78.808 25.1432 78.808C26.1592 78.808 26.7432 79.672 26.7432 81.112C26.7432 82.536 26.1592 83.4 25.1432 83.4C24.1272 83.4 23.5352 82.536 23.5352 81.112Z" fill="#303030"></path><path d="M6.272 99.992V99.264H3.6L4.8 98.224C5.824 97.336 6.232 96.752 6.232 95.928C6.232 94.816 5.488 94.112 4.328 94.112C3.152 94.112 2.368 94.92 2.344 96.16H3.128C3.144 95.336 3.608 94.816 4.32 94.816C5.016 94.816 5.432 95.248 5.432 95.976C5.432 96.592 5.168 96.984 4.232 97.792L2.368 99.4V100L6.272 99.992ZM8.88288 100.096C10.1309 100.096 10.9869 99.256 10.9869 98.056C10.9869 96.944 10.2269 96.12 9.05088 96.12C8.61888 96.12 8.23488 96.24 7.93088 96.472L8.31488 94.936H10.6429V94.216H7.74688L7.04288 97.184L7.70688 97.352C7.97088 97.024 8.41888 96.792 8.90688 96.792C9.71488 96.792 10.1869 97.344 10.1869 98.088C10.1869 98.872 9.68288 99.392 8.89887 99.392C8.16288 99.392 7.70688 98.936 7.70688 98.192H6.93088C6.93088 99.344 7.69888 100.096 8.88288 100.096ZM11.6654 97.112C11.6654 98.912 12.5534 100.104 14.0494 100.104C15.5374 100.104 16.4254 98.912 16.4254 97.112C16.4254 95.32 15.4974 94.104 14.0494 94.104C12.5934 94.104 11.6654 95.32 11.6654 97.112ZM12.4414 97.112C12.4414 95.672 13.0334 94.808 14.0494 94.808C15.0654 94.808 15.6494 95.672 15.6494 97.112C15.6494 98.536 15.0654 99.4 14.0494 99.4C13.0334 99.4 12.4414 98.536 12.4414 97.112ZM17.2123 97.112C17.2123 98.912 18.1003 100.104 19.5963 100.104C21.0843 100.104 21.9723 98.912 21.9723 97.112C21.9723 95.32 21.0443 94.104 19.5963 94.104C18.1403 94.104 17.2123 95.32 17.2123 97.112ZM17.9883 97.112C17.9883 95.672 18.5803 94.808 19.5963 94.808C20.6123 94.808 21.1963 95.672 21.1963 97.112C21.1963 98.536 20.6123 99.4 19.5963 99.4C18.5803 99.4 17.9883 98.536 17.9883 97.112ZM22.7592 97.112C22.7592 98.912 23.6472 100.104 25.1432 100.104C26.6312 100.104 27.5192 98.912 27.5192 97.112C27.5192 95.32 26.5912 94.104 25.1432 94.104C23.6872 94.104 22.7592 95.32 22.7592 97.112ZM23.5352 97.112C23.5352 95.672 24.1272 94.808 25.1432 94.808C26.1592 94.808 26.7432 95.672 26.7432 97.112C26.7432 98.536 26.1592 99.4 25.1432 99.4C24.1272 99.4 23.5352 98.536 23.5352 97.112Z" fill="#303030"></path><path d="M5.272 115.992V115.264H2.6L3.8 114.224C4.824 113.336 5.232 112.752 5.232 111.928C5.232 110.816 4.488 110.112 3.328 110.112C2.152 110.112 1.368 110.92 1.344 112.16H2.128C2.144 111.336 2.608 110.816 3.32 110.816C4.016 110.816 4.432 111.248 4.432 111.976C4.432 112.592 4.168 112.984 3.232 113.792L1.368 115.4V116L5.272 115.992ZM5.99356 113.112C5.99356 114.912 6.88156 116.104 8.37756 116.104C9.86556 116.104 10.7536 114.912 10.7536 113.112C10.7536 111.32 9.82556 110.104 8.37756 110.104C6.92156 110.104 5.99356 111.32 5.99356 113.112ZM6.76956 113.112C6.76956 111.672 7.36156 110.808 8.37756 110.808C9.39356 110.808 9.97756 111.672 9.97756 113.112C9.97756 114.536 9.39356 115.4 8.37756 115.4C7.36156 115.4 6.76956 114.536 6.76956 113.112ZM11.5404 113.112C11.5404 114.912 12.4284 116.104 13.9244 116.104C15.4124 116.104 16.3004 114.912 16.3004 113.112C16.3004 111.32 15.3724 110.104 13.9244 110.104C12.4684 110.104 11.5404 111.32 11.5404 113.112ZM12.3164 113.112C12.3164 111.672 12.9084 110.808 13.9244 110.808C14.9404 110.808 15.5244 111.672 15.5244 113.112C15.5244 114.536 14.9404 115.4 13.9244 115.4C12.9084 115.4 12.3164 114.536 12.3164 113.112ZM17.0873 113.112C17.0873 114.912 17.9753 116.104 19.4713 116.104C20.9593 116.104 21.8473 114.912 21.8473 113.112C21.8473 111.32 20.9193 110.104 19.4713 110.104C18.0153 110.104 17.0873 111.32 17.0873 113.112ZM17.8633 113.112C17.8633 111.672 18.4553 110.808 19.4713 110.808C20.4873 110.808 21.0713 111.672 21.0713 113.112C21.0713 114.536 20.4873 115.4 19.4713 115.4C18.4553 115.4 17.8633 114.536 17.8633 113.112ZM22.6342 113.112C22.6342 114.912 23.5222 116.104 25.0182 116.104C26.5062 116.104 27.3942 114.912 27.3942 113.112C27.3942 111.32 26.4662 110.104 25.0182 110.104C23.5622 110.104 22.6342 111.32 22.6342 113.112ZM23.4102 113.112C23.4102 111.672 24.0022 110.808 25.0182 110.808C26.0342 110.808 26.6182 111.672 26.6182 113.112C26.6182 114.536 26.0342 115.4 25.0182 115.4C24.0022 115.4 23.4102 114.536 23.4102 113.112Z" fill="#303030"></path><path d="M4.496 126.92V132H5.248V126.216H3.28V126.92H4.496ZM8.21881 132.096C9.46681 132.096 10.3228 131.256 10.3228 130.056C10.3228 128.944 9.56281 128.12 8.38681 128.12C7.95481 128.12 7.57081 128.24 7.26681 128.472L7.65081 126.936H9.97881V126.216H7.08281L6.37881 129.184L7.04281 129.352C7.30681 129.024 7.75481 128.792 8.24281 128.792C9.05081 128.792 9.52281 129.344 9.52281 130.088C9.52281 130.872 9.01881 131.392 8.23481 131.392C7.49881 131.392 7.04281 130.936 7.04281 130.192H6.26681C6.26681 131.344 7.03481 132.096 8.21881 132.096ZM11.0014 129.112C11.0014 130.912 11.8894 132.104 13.3854 132.104C14.8734 132.104 15.7614 130.912 15.7614 129.112C15.7614 127.32 14.8334 126.104 13.3854 126.104C11.9294 126.104 11.0014 127.32 11.0014 129.112ZM11.7774 129.112C11.7774 127.672 12.3694 126.808 13.3854 126.808C14.4014 126.808 14.9854 127.672 14.9854 129.112C14.9854 130.536 14.4014 131.4 13.3854 131.4C12.3694 131.4 11.7774 130.536 11.7774 129.112ZM16.5483 129.112C16.5483 130.912 17.4363 132.104 18.9323 132.104C20.4203 132.104 21.3083 130.912 21.3083 129.112C21.3083 127.32 20.3802 126.104 18.9323 126.104C17.4763 126.104 16.5483 127.32 16.5483 129.112ZM17.3243 129.112C17.3243 127.672 17.9163 126.808 18.9323 126.808C19.9483 126.808 20.5323 127.672 20.5323 129.112C20.5323 130.536 19.9483 131.4 18.9323 131.4C17.9163 131.4 17.3243 130.536 17.3243 129.112ZM22.0951 129.112C22.0951 130.912 22.9831 132.104 24.4791 132.104C25.9671 132.104 26.8551 130.912 26.8551 129.112C26.8551 127.32 25.9271 126.104 24.4791 126.104C23.0231 126.104 22.0951 127.32 22.0951 129.112ZM22.8711 129.112C22.8711 127.672 23.4631 126.808 24.4791 126.808C25.4951 126.808 26.0791 127.672 26.0791 129.112C26.0791 130.536 25.4951 131.4 24.4791 131.4C23.4631 131.4 22.8711 130.536 22.8711 129.112Z" fill="#303030"></path><path d="M3.496 142.92V148H4.248V142.216H2.28V142.92H3.496ZM5.30606 145.112C5.30606 146.912 6.19406 148.104 7.69006 148.104C9.17806 148.104 10.0661 146.912 10.0661 145.112C10.0661 143.32 9.13806 142.104 7.69006 142.104C6.23406 142.104 5.30606 143.32 5.30606 145.112ZM6.08206 145.112C6.08206 143.672 6.67406 142.808 7.69006 142.808C8.70606 142.808 9.29006 143.672 9.29006 145.112C9.29006 146.536 8.70606 147.4 7.69006 147.4C6.67406 147.4 6.08206 146.536 6.08206 145.112ZM10.8529 145.112C10.8529 146.912 11.7409 148.104 13.2369 148.104C14.7249 148.104 15.6129 146.912 15.6129 145.112C15.6129 143.32 14.6849 142.104 13.2369 142.104C11.7809 142.104 10.8529 143.32 10.8529 145.112ZM11.6289 145.112C11.6289 143.672 12.2209 142.808 13.2369 142.808C14.2529 142.808 14.8369 143.672 14.8369 145.112C14.8369 146.536 14.2529 147.4 13.2369 147.4C12.2209 147.4 11.6289 146.536 11.6289 145.112ZM16.3998 145.112C16.3998 146.912 17.2878 148.104 18.7838 148.104C20.2718 148.104 21.1598 146.912 21.1598 145.112C21.1598 143.32 20.2318 142.104 18.7838 142.104C17.3278 142.104 16.3998 143.32 16.3998 145.112ZM17.1758 145.112C17.1758 143.672 17.7678 142.808 18.7838 142.808C19.7998 142.808 20.3838 143.672 20.3838 145.112C20.3838 146.536 19.7998 147.4 18.7838 147.4C17.7678 147.4 17.1758 146.536 17.1758 145.112ZM21.9467 145.112C21.9467 146.912 22.8347 148.104 24.3307 148.104C25.8187 148.104 26.7067 146.912 26.7067 145.112C26.7067 143.32 25.7787 142.104 24.3307 142.104C22.8747 142.104 21.9467 143.32 21.9467 145.112ZM22.7227 145.112C22.7227 143.672 23.3147 142.808 24.3307 142.808C25.3467 142.808 25.9307 143.672 25.9307 145.112C25.9307 146.536 25.3467 147.4 24.3307 147.4C23.3147 147.4 22.7227 146.536 22.7227 145.112Z" fill="#303030"></path><path d="M8.336 164.096C9.584 164.096 10.44 163.256 10.44 162.056C10.44 160.944 9.68 160.12 8.504 160.12C8.072 160.12 7.688 160.24 7.384 160.472L7.768 158.936H10.096V158.216H7.2L6.496 161.184L7.16 161.352C7.424 161.024 7.872 160.792 8.36 160.792C9.168 160.792 9.64 161.344 9.64 162.088C9.64 162.872 9.136 163.392 8.352 163.392C7.616 163.392 7.16 162.936 7.16 162.192H6.384C6.384 163.344 7.152 164.096 8.336 164.096ZM11.1186 161.112C11.1186 162.912 12.0066 164.104 13.5026 164.104C14.9906 164.104 15.8786 162.912 15.8786 161.112C15.8786 159.32 14.9506 158.104 13.5026 158.104C12.0466 158.104 11.1186 159.32 11.1186 161.112ZM11.8946 161.112C11.8946 159.672 12.4866 158.808 13.5026 158.808C14.5186 158.808 15.1026 159.672 15.1026 161.112C15.1026 162.536 14.5186 163.4 13.5026 163.4C12.4866 163.4 11.8946 162.536 11.8946 161.112ZM16.6654 161.112C16.6654 162.912 17.5534 164.104 19.0494 164.104C20.5374 164.104 21.4254 162.912 21.4254 161.112C21.4254 159.32 20.4974 158.104 19.0494 158.104C17.5934 158.104 16.6654 159.32 16.6654 161.112ZM17.4414 161.112C17.4414 159.672 18.0334 158.808 19.0494 158.808C20.0654 158.808 20.6494 159.672 20.6494 161.112C20.6494 162.536 20.0654 163.4 19.0494 163.4C18.0334 163.4 17.4414 162.536 17.4414 161.112ZM22.2123 161.112C22.2123 162.912 23.1003 164.104 24.5963 164.104C26.0843 164.104 26.9723 162.912 26.9723 161.112C26.9723 159.32 26.0443 158.104 24.5963 158.104C23.1403 158.104 22.2123 159.32 22.2123 161.112ZM22.9883 161.112C22.9883 159.672 23.5803 158.808 24.5963 158.808C25.6123 158.808 26.1963 159.672 26.1963 161.112C26.1963 162.536 25.6123 163.4 24.5963 163.4C23.5803 163.4 22.9883 162.536 22.9883 161.112Z" fill="#303030"></path><path opacity="0.25" d="M41.2 180.811C41.2 182.071 41.97 183.001 43.47 183.001C44.86 183.001 45.76 182.121 45.76 180.831V175.561H44.48V180.761C44.48 181.401 44.18 181.811 43.46 181.811C42.74 181.811 42.43 181.371 42.43 180.811V180.381H41.2V180.811ZM48.6176 183.001C49.3876 183.001 50.0576 182.651 50.2676 182.141L50.3576 182.871H51.4276V179.871C51.4276 178.501 50.6076 177.781 49.2776 177.781C47.9376 177.781 47.0576 178.481 47.0576 179.551H48.0976C48.0976 179.031 48.4976 178.731 49.2176 178.731C49.8376 178.731 50.2376 179.001 50.2376 179.671V179.781L48.7576 179.891C47.5876 179.981 46.9276 180.551 46.9276 181.461C46.9276 182.391 47.5676 183.001 48.6176 183.001ZM49.0176 182.081C48.4676 182.081 48.1676 181.861 48.1676 181.411C48.1676 181.011 48.4576 180.761 49.2176 180.691L50.2476 180.611V180.871C50.2476 181.631 49.7676 182.081 49.0176 182.081ZM53.8461 182.871V180.211C53.8461 179.411 54.3061 178.891 55.0561 178.891C55.6861 178.891 56.0961 179.291 56.0961 180.121V182.871H57.3161V179.831C57.3161 178.551 56.6761 177.781 55.4361 177.781C54.7661 177.781 54.1661 178.071 53.8561 178.571L53.7561 177.931H52.6261V182.871H53.8461Z" fill="#303030"></path><path opacity="0.25" d="M92.81 179.881V178.731H90.09V176.741H93.33V175.561H88.81V182.871H90.09V179.881H92.81ZM96.133 183.001C97.423 183.001 98.323 182.351 98.533 181.271H97.403C97.263 181.741 96.823 182.001 96.153 182.001C95.343 182.001 94.883 181.561 94.793 180.691L98.513 180.681V180.311C98.513 178.771 97.573 177.781 96.093 177.781C94.643 177.781 93.633 178.851 93.633 180.401C93.633 181.931 94.663 183.001 96.133 183.001ZM96.103 178.781C96.833 178.781 97.303 179.231 97.303 179.911H94.823C94.943 179.171 95.383 178.781 96.103 178.781ZM100.619 182.871L100.699 182.101C100.989 182.671 101.619 183.001 102.359 183.001C103.779 183.001 104.709 181.951 104.709 180.431C104.709 178.871 103.849 177.771 102.439 177.771C101.689 177.771 101.029 178.101 100.709 178.651V175.431H99.4894V182.871H100.619ZM100.719 180.381C100.719 179.491 101.269 178.871 102.109 178.871C102.969 178.871 103.479 179.501 103.479 180.381C103.479 181.261 102.969 181.881 102.109 181.881C101.269 181.881 100.719 181.271 100.719 180.381Z" fill="#303030"></path><path opacity="0.25" d="M136.05 182.871V180.251C136.05 179.341 136.04 178.651 135.97 178.211L137.82 182.871H139L140.86 178.201C140.79 178.721 140.79 179.151 140.79 180.621V182.871H142.03V175.561H140.77L138.41 181.381L136.05 175.561H134.81V182.871H136.05ZM144.938 183.001C145.708 183.001 146.378 182.651 146.588 182.141L146.678 182.871H147.748V179.871C147.748 178.501 146.928 177.781 145.598 177.781C144.258 177.781 143.378 178.481 143.378 179.551H144.418C144.418 179.031 144.818 178.731 145.538 178.731C146.158 178.731 146.558 179.001 146.558 179.671V179.781L145.078 179.891C143.908 179.981 143.248 180.551 143.248 181.461C143.248 182.391 143.888 183.001 144.938 183.001ZM145.338 182.081C144.788 182.081 144.488 181.861 144.488 181.411C144.488 181.011 144.778 180.761 145.538 180.691L146.568 180.611V180.871C146.568 181.631 146.088 182.081 145.338 182.081ZM152.046 177.911C151.846 177.861 151.676 177.841 151.506 177.841C150.846 177.841 150.376 178.171 150.166 178.661L150.096 177.941H148.946V182.871H150.166V180.471C150.166 179.511 150.716 179.041 151.596 179.041H152.046V177.911Z" fill="#303030"></path><path opacity="0.25" d="M183.44 182.871L184.03 181.181H186.76L187.35 182.871H188.7L186.06 175.561H184.75L182.11 182.871H183.44ZM185.24 177.741C185.31 177.541 185.37 177.321 185.4 177.181C185.42 177.331 185.49 177.551 185.55 177.741L186.39 180.101H184.41L185.24 177.741ZM189.437 185.161H190.657V182.211C190.967 182.711 191.607 183.001 192.347 183.001C193.817 183.001 194.657 181.881 194.657 180.341C194.657 178.791 193.737 177.781 192.347 177.781C191.597 177.781 190.947 178.111 190.647 178.681L190.567 177.931H189.437V185.161ZM190.667 180.401C190.667 179.511 191.217 178.891 192.057 178.891C192.917 178.891 193.427 179.521 193.427 180.401C193.427 181.281 192.917 181.901 192.057 181.901C191.217 181.901 190.667 181.291 190.667 180.401ZM198.728 177.911C198.528 177.861 198.358 177.841 198.188 177.841C197.528 177.841 197.058 178.171 196.848 178.661L196.778 177.941H195.628V182.871H196.848V180.471C196.848 179.511 197.398 179.041 198.278 179.041H198.728V177.911Z" fill="#303030"></path><path opacity="0.25" d="M229.05 182.871V180.251C229.05 179.341 229.04 178.651 228.97 178.211L230.82 182.871H232L233.86 178.201C233.79 178.721 233.79 179.151 233.79 180.621V182.871H235.03V175.561H233.77L231.41 181.381L229.05 175.561H227.81V182.871H229.05ZM237.938 183.001C238.708 183.001 239.378 182.651 239.588 182.141L239.678 182.871H240.748V179.871C240.748 178.501 239.928 177.781 238.598 177.781C237.258 177.781 236.378 178.481 236.378 179.551H237.418C237.418 179.031 237.818 178.731 238.538 178.731C239.158 178.731 239.558 179.001 239.558 179.671V179.781L238.078 179.891C236.908 179.981 236.248 180.551 236.248 181.461C236.248 182.391 236.888 183.001 237.938 183.001ZM238.338 182.081C237.788 182.081 237.488 181.861 237.488 181.411C237.488 181.011 237.778 180.761 238.538 180.691L239.568 180.611V180.871C239.568 181.631 239.088 182.081 238.338 182.081ZM241.38 185.161C241.65 185.231 241.95 185.271 242.29 185.271C243.1 185.271 243.62 184.891 243.99 183.971L246.41 177.931H245.15L243.81 181.531L242.54 177.931H241.25L243.24 183.081L243.1 183.451C242.89 184.031 242.59 184.141 242.11 184.141H241.38V185.161Z" fill="#303030"></path><path opacity="0.25" d="M275.2 180.811C275.2 182.071 275.97 183.001 277.47 183.001C278.86 183.001 279.76 182.121 279.76 180.831V175.561H278.48V180.761C278.48 181.401 278.18 181.811 277.46 181.811C276.74 181.811 276.43 181.371 276.43 180.811V180.381H275.2V180.811ZM284.498 177.931V180.521C284.498 181.461 284.128 181.911 283.358 181.911C282.678 181.911 282.308 181.531 282.308 180.591V177.931H281.088V181.021C281.088 182.231 281.758 183.001 282.898 183.001C283.558 183.001 284.198 182.681 284.498 182.211L284.588 182.871H285.718V177.931H284.498ZM288.198 182.871V180.211C288.198 179.411 288.658 178.891 289.408 178.891C290.038 178.891 290.448 179.291 290.448 180.121V182.871H291.668V179.831C291.668 178.551 291.028 177.781 289.788 177.781C289.118 177.781 288.518 178.071 288.208 178.571L288.108 177.931H286.978V182.871H288.198Z" fill="#303030"></path><path opacity="0.25" d="M324.2 180.811C324.2 182.071 324.97 183.001 326.47 183.001C327.86 183.001 328.76 182.121 328.76 180.831V175.561H327.48V180.761C327.48 181.401 327.18 181.811 326.46 181.811C325.74 181.811 325.43 181.371 325.43 180.811V180.381H324.2V180.811ZM333.498 177.931V180.521C333.498 181.461 333.128 181.911 332.358 181.911C331.678 181.911 331.308 181.531 331.308 180.591V177.931H330.088V181.021C330.088 182.231 330.758 183.001 331.898 183.001C332.558 183.001 333.198 182.681 333.498 182.211L333.588 182.871H334.718V177.931H333.498ZM337.208 182.871V175.431H335.998V182.871H337.208Z" fill="#303030"></path><path opacity="0.25" d="M370.44 182.871L371.03 181.181H373.76L374.35 182.871H375.7L373.06 175.561H371.75L369.11 182.871H370.44ZM372.24 177.741C372.31 177.541 372.37 177.321 372.4 177.181C372.42 177.331 372.49 177.551 372.55 177.741L373.39 180.101H371.41L372.24 177.741ZM379.601 177.931V180.521C379.601 181.461 379.231 181.911 378.461 181.911C377.781 181.911 377.411 181.531 377.411 180.591V177.931H376.191V181.021C376.191 182.231 376.861 183.001 378.001 183.001C378.661 183.001 379.301 182.681 379.601 182.211L379.691 182.871H380.821V177.931H379.601ZM381.801 180.291C381.801 181.721 382.721 182.771 384.121 182.771C384.831 182.771 385.441 182.481 385.751 182.021V182.841C385.751 183.661 385.211 184.191 384.371 184.191C383.621 184.191 383.131 183.811 383.051 183.171H381.831C381.981 184.491 382.951 185.301 384.371 185.301C385.971 185.301 386.961 184.271 386.961 182.621V177.931H385.831L385.761 178.611C385.471 178.081 384.891 177.771 384.151 177.771C382.741 177.771 381.801 178.851 381.801 180.291ZM383.031 180.261C383.031 179.451 383.551 178.841 384.361 178.841C385.211 178.841 385.721 179.421 385.721 180.261C385.721 181.121 385.201 181.711 384.361 181.711C383.561 181.711 383.031 181.091 383.031 180.261Z" fill="#303030"></path><path d="M416.39 177.601C416.39 178.721 417.04 179.431 418.28 179.701L419.44 179.961C420.04 180.091 420.29 180.381 420.29 180.871C420.29 181.481 419.75 181.851 418.9 181.851C418.08 181.851 417.58 181.481 417.57 180.861H416.29C416.32 182.171 417.34 183.001 418.9 183.001C420.51 183.001 421.57 182.121 421.57 180.761C421.57 179.671 420.96 179.031 419.71 178.761L418.56 178.511C417.95 178.371 417.67 178.081 417.67 177.561C417.67 176.951 418.18 176.571 418.97 176.571C419.69 176.571 420.14 176.941 420.17 177.571H421.45C421.41 176.251 420.47 175.431 418.99 175.431C417.45 175.431 416.39 176.321 416.39 177.601ZM424.758 183.001C426.048 183.001 426.948 182.351 427.158 181.271H426.028C425.888 181.741 425.448 182.001 424.778 182.001C423.968 182.001 423.508 181.561 423.418 180.691L427.138 180.681V180.311C427.138 178.771 426.198 177.781 424.718 177.781C423.268 177.781 422.258 178.851 422.258 180.401C422.258 181.931 423.288 183.001 424.758 183.001ZM424.728 178.781C425.458 178.781 425.928 179.231 425.928 179.911H423.448C423.568 179.171 424.008 178.781 424.728 178.781ZM428.114 185.161H429.334V182.211C429.644 182.711 430.284 183.001 431.024 183.001C432.494 183.001 433.334 181.881 433.334 180.341C433.334 178.791 432.414 177.781 431.024 177.781C430.274 177.781 429.624 178.111 429.324 178.681L429.244 177.931H428.114V185.161ZM429.344 180.401C429.344 179.511 429.894 178.891 430.734 178.891C431.594 178.891 432.104 179.521 432.104 180.401C432.104 181.281 431.594 181.901 430.734 181.901C429.894 181.901 429.344 181.291 429.344 180.401Z" fill="#6B11C9"></path><path opacity="0.25" d="M471.48 179.211C471.48 176.981 470.02 175.431 467.93 175.431C465.84 175.431 464.39 176.991 464.39 179.211C464.39 181.441 465.83 182.991 467.92 182.991C470.02 182.991 471.48 181.431 471.48 179.211ZM470.13 179.211C470.13 180.751 469.27 181.761 467.93 181.761C466.59 181.761 465.73 180.771 465.73 179.211C465.73 177.651 466.59 176.661 467.93 176.661C469.27 176.661 470.13 177.651 470.13 179.211ZM472.201 180.391C472.201 181.961 473.181 183.001 474.681 183.001C475.971 183.001 476.931 182.211 477.081 181.061H475.851C475.721 181.601 475.291 181.901 474.681 181.901C473.901 181.901 473.421 181.321 473.421 180.391C473.421 179.461 473.941 178.871 474.721 178.871C475.301 178.871 475.711 179.161 475.851 179.721H477.071C476.941 178.531 476.021 177.781 474.671 177.781C473.211 177.781 472.201 178.861 472.201 180.391ZM479.669 182.871V178.951H480.629V177.931H479.669V176.391H478.449V177.931H477.499V178.951H478.449V182.871H479.669Z" fill="#303030"></path><path opacity="0.25" d="M512.07 182.871V177.691L515.51 182.871H516.77V175.561H515.51V180.741L512.08 175.561H510.81V182.871H512.07ZM517.918 180.391C517.918 181.931 519.028 182.991 520.558 182.991C522.088 182.991 523.198 181.931 523.198 180.391C523.198 178.851 522.088 177.791 520.558 177.791C519.028 177.791 517.918 178.851 517.918 180.391ZM519.138 180.391C519.138 179.491 519.718 178.881 520.558 178.881C521.398 178.881 521.978 179.491 521.978 180.391C521.978 181.291 521.398 181.901 520.558 181.901C519.718 181.901 519.138 181.291 519.138 180.391ZM525.321 182.871H526.521L528.581 177.931H527.321L526.421 180.201C526.211 180.741 526.031 181.261 525.961 181.571C525.901 181.301 525.731 180.791 525.521 180.201L524.661 177.931H523.361L525.321 182.871Z" fill="#303030"></path><path opacity="0.25" d="M560.44 182.871C562.56 182.871 564.02 181.381 564.02 179.231C564.02 177.051 562.53 175.561 560.37 175.561H557.81V182.871H560.44ZM560.25 176.741C561.76 176.741 562.67 177.681 562.67 179.231C562.67 180.751 561.78 181.691 560.32 181.691H559.09V176.741H560.25ZM567.242 183.001C568.532 183.001 569.432 182.351 569.642 181.271H568.512C568.372 181.741 567.932 182.001 567.262 182.001C566.452 182.001 565.992 181.561 565.902 180.691L569.622 180.681V180.311C569.622 178.771 568.682 177.781 567.202 177.781C565.752 177.781 564.742 178.851 564.742 180.401C564.742 181.931 565.772 183.001 567.242 183.001ZM567.212 178.781C567.942 178.781 568.412 179.231 568.412 179.911H565.932C566.052 179.171 566.492 178.781 567.212 178.781ZM570.309 180.391C570.309 181.961 571.289 183.001 572.789 183.001C574.079 183.001 575.039 182.211 575.189 181.061H573.959C573.829 181.601 573.399 181.901 572.789 181.901C572.009 181.901 571.529 181.321 571.529 180.391C571.529 179.461 572.049 178.871 572.829 178.871C573.409 178.871 573.819 179.161 573.959 179.721H575.179C575.049 178.531 574.129 177.781 572.779 177.781C571.319 177.781 570.309 178.861 570.309 180.391Z" fill="#303030"></path><path d="M21.86 8H23.18L25.9 0.69H24.57L22.99 4.9C22.85 5.27 22.7 5.72 22.52 6.36C22.36 5.77 22.22 5.34 22.06 4.9L20.46 0.69H19.1L21.86 8ZM27.242 2.07C27.642 2.07 27.972 1.74 27.972 1.33C27.972 0.92 27.642 0.6 27.242 0.6C26.822 0.6 26.492 0.92 26.492 1.33C26.492 1.74 26.822 2.07 27.242 2.07ZM26.632 8H27.852V3.06H26.632V8ZM28.7324 6.5C28.7324 7.47 29.5124 8.13 30.7424 8.13C31.9624 8.13 32.8124 7.51 32.8124 6.51C32.8124 5.75 32.3924 5.37 31.5624 5.18L30.6724 4.97C30.2524 4.87 30.0324 4.69 30.0324 4.41C30.0324 4.04 30.3124 3.82 30.7924 3.82C31.2624 3.82 31.5424 4.09 31.5524 4.51H32.7124C32.7024 3.55 31.9524 2.91 30.8424 2.91C29.7024 2.91 28.8824 3.49 28.8824 4.46C28.8824 5.25 29.3124 5.67 30.2024 5.87L31.0924 6.08C31.5324 6.18 31.6624 6.36 31.6624 6.61C31.6624 6.97 31.3524 7.2 30.7824 7.2C30.2224 7.2 29.9024 6.93 29.8924 6.5H28.7324ZM34.3513 2.07C34.7513 2.07 35.0813 1.74 35.0813 1.33C35.0813 0.92 34.7513 0.6 34.3513 0.6C33.9313 0.6 33.6013 0.92 33.6013 1.33C33.6013 1.74 33.9313 2.07 34.3513 2.07ZM33.7413 8H34.9613V3.06H33.7413V8ZM37.9018 8V4.08H38.8618V3.06H37.9018V1.52H36.6818V3.06H35.7318V4.08H36.6818V8H37.9018ZM39.2402 6.5C39.2402 7.47 40.0202 8.13 41.2502 8.13C42.4702 8.13 43.3202 7.51 43.3202 6.51C43.3202 5.75 42.9002 5.37 42.0702 5.18L41.1802 4.97C40.7602 4.87 40.5402 4.69 40.5402 4.41C40.5402 4.04 40.8202 3.82 41.3002 3.82C41.7702 3.82 42.0502 4.09 42.0602 4.51H43.2202C43.2102 3.55 42.4602 2.91 41.3502 2.91C40.2102 2.91 39.3902 3.49 39.3902 4.46C39.3902 5.25 39.8202 5.67 40.7102 5.87L41.6002 6.08C42.0402 6.18 42.1702 6.36 42.1702 6.61C42.1702 6.97 41.8602 7.2 41.2902 7.2C40.7302 7.2 40.4102 6.93 40.4002 6.5H39.2402Z" fill="#303030"></path><path d="M31 121.5L48.5 86L72 97L86.5 75" stroke="#6B11C9" stroke-width="2"></path><path d="M86 74.7473L106.271 97L118.695 81.6703L140 88.5L165.5 48L187.348 81.1758L205.01 61.8901L216.78 71.2857L235.089 52L250.782 66.3407L279.5 48L311.595 72.7692L327.943 58.9231L339.713 72.7692L359.984 54.4725L369.792 74.7473L393.986 63.3736L415.565 56.9451L436.49 69.8022L452.837 54.4725L478.993 71.2857L501.88 56.9451L526.074 72.7692L564 54.4725" stroke="#6B11C9" stroke-width="2"></path><line opacity="0.25" x1="425" y1="169.002" x2="425" y2="63.9977" stroke="#6B11C9" stroke-dasharray="3 3"></line></svg> 