<?xml version="1.0" encoding="UTF-8"?> <svg xmlns="http://www.w3.org/2000/svg" width="19" height="16" viewBox="0 0 19 16" fill="none"><path fill-rule="evenodd" clip-rule="evenodd" d="M11.3379 1H6.80273C5.17082 1 4.04828 1.00216 3.2048 1.11647C2.39091 1.22677 1.98783 1.42456 1.70615 1.70849C1.42339 1.99352 1.22568 2.40307 1.11575 3.22728C1.00209 4.07944 1 5.21285 1 6.85714V9.14286C1 10.7872 1.00209 11.9206 1.11575 12.7727C1.22568 13.5969 1.42339 14.0065 1.70615 14.2915C1.98783 14.5754 2.39091 14.7732 3.2048 14.8835C4.04828 14.9978 5.17082 15 6.80273 15H11.3379C12.9698 15 14.0923 14.9978 14.9358 14.8835C15.7497 14.7732 16.1528 14.5754 16.4345 14.2915C16.7172 14.0065 16.9149 13.5969 17.0249 12.7727C17.057 12.5322 17.0802 12.2692 17.0969 11.9786C16.8462 12 16.5346 12 16.1406 12H14.0938C13.1509 12 12.6795 12 12.3866 11.7071C12.0938 11.4142 12.0938 10.9428 12.0938 10C12.0938 9.05719 12.0938 8.58579 12.3866 8.29289C12.6795 8 13.1509 8 14.0938 8H16.1406C16.5578 8 16.8827 8 17.1406 8.02537V6.85714C17.1406 5.21285 17.1385 4.07944 17.0249 3.22728C16.9149 2.40307 16.7172 1.99352 16.4345 1.70849C16.1528 1.42456 15.7497 1.22677 14.9358 1.11647C14.0923 1.00216 12.9698 1 11.3379 1ZM18.1404 9.74159C18.1406 9.5484 18.1406 9.34892 18.1406 9.14286V6.85714C18.1406 3.62466 18.1406 2.00841 17.1444 1.00421C16.1481 0 14.5447 0 11.3379 0H6.80273C3.59589 0 1.99247 0 0.996237 1.00421C0 2.00841 0 3.62465 0 6.85714V9.14286C0 12.3753 0 13.9916 0.996237 14.9958C1.99247 16 3.59589 16 6.80273 16H11.3379C14.5447 16 16.1481 16 17.1444 14.9958C17.9755 14.1581 18.1132 12.8944 18.1361 10.6218C18.1406 10.4408 18.1406 10.2351 18.1406 10C18.1406 9.90962 18.1406 9.82356 18.1404 9.74159ZM17.1403 9.75044C17.1391 9.40401 17.1339 9.19181 17.1129 9.03598L17.1119 9.02869L17.1046 9.02769C16.9145 9.00212 16.6403 9 16.1406 9H14.0938C13.5941 9 13.3199 9.00212 13.1297 9.02769L13.1224 9.02869L13.1214 9.03598C13.0959 9.22617 13.0938 9.50033 13.0938 10C13.0938 10.4997 13.0959 10.7738 13.1214 10.964L13.1224 10.9713L13.1297 10.9723C13.3199 10.9979 13.5941 11 14.0938 11H16.1406C16.6403 11 16.9145 10.9979 17.1046 10.9723L17.1119 10.9713L17.1129 10.964C17.1253 10.872 17.1322 10.7602 17.136 10.6128C17.1387 10.3437 17.1398 10.0569 17.1403 9.75044ZM3.53125 4C3.53125 3.72386 3.75511 3.5 4.03125 3.5H7.05469C7.33083 3.5 7.55469 3.72386 7.55469 4C7.55469 4.27614 7.33083 4.5 7.05469 4.5H4.03125C3.75511 4.5 3.53125 4.27614 3.53125 4Z" fill="#A4A4A4"></path></svg> 