<?xml version="1.0" encoding="UTF-8"?> <svg xmlns="http://www.w3.org/2000/svg" width="45" height="28" viewBox="0 0 45 28" fill="none"><path d="M30.5 0H14.5C10.787 5.53285e-08 7.22601 1.475 4.6005 4.1005C1.975 6.72601 0.5 10.287 0.5 14C0.5 17.713 1.975 21.274 4.6005 23.8995C7.22601 26.525 10.787 28 14.5 28H30.5C34.213 28 37.774 26.525 40.3995 23.8995C43.025 21.274 44.5 17.713 44.5 14C44.5 10.287 43.025 6.72601 40.3995 4.1005C37.774 1.475 34.213 5.53285e-08 30.5 0ZM14.5 22C12.3783 22 10.3434 21.1571 8.84315 19.6569C7.34285 18.1566 6.5 16.1217 6.5 14C6.5 11.8783 7.34285 9.84344 8.84315 8.34315C10.3434 6.84285 12.3783 6 14.5 6H30.5C32.6217 6 34.6566 6.84285 36.1569 8.34315C37.6571 9.84344 38.5 11.8783 38.5 14C38.5 16.1217 37.6571 18.1566 36.1569 19.6569C34.6566 21.1571 32.6217 22 30.5 22H14.5ZM2.5507 15H4.6007C4.76274 16.7177 5.37056 18.3633 6.364 19.7739L4.7917 21.0251C3.50679 19.26 2.73157 17.1758 2.5507 15ZM4.7917 6.9749L6.3644 8.2261C5.37097 9.63671 4.76314 11.2823 4.6011 13H2.5511C2.73186 10.8243 3.50693 8.74006 4.7917 6.9749ZM7.688 6.7213L6.0922 5.4513C7.84216 3.72974 10.0792 2.58794 12.5 2.1807V4.2021C10.6936 4.57972 9.02758 5.4519 7.688 6.7213ZM7.688 21.2787C9.02758 22.5481 10.6936 23.4203 12.5 23.7979V25.8193C10.0791 25.412 7.84211 24.27 6.0922 22.5483L7.688 21.2787ZM37.312 6.7213C35.9724 5.45188 34.3065 4.5797 32.5 4.2021V2.1807C34.9209 2.58805 37.1579 3.72999 38.9078 5.4517L37.312 6.7213ZM37.312 21.2787L38.9078 22.5487C37.1578 24.2703 34.9208 25.4121 32.5 25.8193V23.7979C34.3065 23.4203 35.9724 22.5481 37.312 21.2787ZM40.2083 21.0251L38.6356 19.7739C39.629 18.3633 40.2369 16.7177 40.3989 15H42.4489C42.2681 17.1757 41.4931 19.2599 40.2083 21.0251ZM40.3989 13C40.2369 11.2823 39.629 9.63671 38.6356 8.2261L40.2083 6.9749C41.4932 8.74001 42.2684 10.8242 42.4493 13H40.3989ZM30.5 4H23.5V2H30.5V4ZM21.5 2V4H14.5V2H21.5ZM14.5 24H21.5V26H14.5V24ZM23.5 26V24H30.5V26H23.5Z" fill="#fff"></path><rect x="8.5" y="8" width="28" height="12" rx="6" fill="#5eeaa7"></rect></svg> 