<svg width="41" height="40" viewBox="0 0 41 40" fill="none" xmlns="http://www.w3.org/2000/svg">
<circle cx="20.5" cy="20" r="10" fill="#5eeaa7"/>
<path d="M20.5 0C16.5444 0 12.6776 1.17298 9.3886 3.37061C6.09962 5.56824 3.53617 8.69181 2.02242 12.3463C0.508666 16.0009 0.112599 20.0222 0.884303 23.9018C1.65601 27.7814 3.56082 31.3451 6.35787 34.1421C9.15492 36.9392 12.7186 38.844 16.5982 39.6157C20.4778 40.3874 24.4992 39.9913 28.1537 38.4776C31.8082 36.9638 34.9318 34.4004 37.1294 31.1114C39.327 27.8224 40.5 23.9556 40.5 20C40.4939 14.6975 38.3848 9.614 34.6354 5.86459C30.886 2.11518 25.8025 0.00608734 20.5 0ZM36.5475 28.1108L33.0775 26.1079C33.8582 24.509 34.324 22.7749 34.4493 21H38.4493C38.3163 23.4767 37.6686 25.8984 36.5475 28.1108ZM19.5 33.9493V37.9493C17.0234 37.8162 14.6016 37.1685 12.3892 36.0474L14.3921 32.5774C15.991 33.3581 17.7251 33.8239 19.5 33.9493ZM21.5 33.9493C23.2749 33.8239 25.009 33.3582 26.6079 32.5775L28.6108 36.0475C26.3984 37.1686 23.9767 37.8163 21.5 37.9493V33.9493ZM20.5 32C18.1266 32 15.8066 31.2962 13.8332 29.9776C11.8598 28.6591 10.3217 26.7849 9.41345 24.5922C8.5052 22.3995 8.26756 19.9867 8.73059 17.6589C9.19361 15.3311 10.3365 13.1929 12.0147 11.5147C13.693 9.83649 15.8312 8.6936 18.1589 8.23058C20.4867 7.76755 22.8995 8.00519 25.0922 8.91345C27.2849 9.8217 29.1591 11.3598 30.4776 13.3332C31.7962 15.3065 32.5 17.6266 32.5 20C32.4965 23.1815 31.2311 26.2318 28.9815 28.4815C26.7318 30.7311 23.6815 31.9965 20.5 32ZM2.55071 21H6.55071C6.67606 22.7749 7.1418 24.509 7.92251 26.1079L4.45251 28.1108C3.33144 25.8984 2.68374 23.4767 2.55071 21ZM4.45241 11.89L7.92241 13.8927C7.14194 15.4914 6.67624 17.2254 6.55071 19H2.55071C2.68378 16.5236 3.33145 14.1021 4.45241 11.89ZM21.5 6.0507V2.0507C23.9768 2.18379 26.3987 2.83163 28.6111 3.9529L26.6077 7.4221C25.0088 6.64167 23.2748 6.17607 21.5 6.0507ZM19.5 6.0507C17.7253 6.17607 15.9912 6.64167 14.3923 7.4221L12.3889 3.9529C14.6014 2.83166 17.0232 2.18382 19.5 2.0507V6.0507ZM34.4493 19C34.3239 17.2254 33.8584 15.4915 33.0781 13.8927L36.5481 11.89C37.6689 14.1022 38.3164 16.5237 38.4493 19H34.4493ZM35.551 10.1556L32.0881 12.1545C31.0875 10.6817 29.8173 9.4116 28.3445 8.4111L30.3445 4.9486C32.4179 6.30982 34.19 8.08204 35.551 10.1556ZM10.656 4.9486L12.6555 8.4113C11.1827 9.41173 9.91255 10.6818 8.91201 12.1545L5.44901 10.1556C6.81017 8.08199 8.5824 6.30976 10.656 4.9486ZM5.44821 29.8438L8.91171 27.8446C9.9124 29.3174 11.1826 30.5876 12.6554 31.5883L10.6563 35.0518C8.58219 33.6905 6.80958 31.9179 5.44821 29.8438ZM30.3438 35.0518L28.3446 31.5884C29.8174 30.5877 31.0877 29.3174 32.0884 27.8446L35.5518 29.8438C34.1904 31.9179 32.4179 33.6904 30.3438 35.0518Z" fill="#5e34ff"/>
<path fill-rule="evenodd" clip-rule="evenodd" d="M13.5 16C13.3687 15.9999 13.2386 16.0206 13.1172 16.0608C12.9959 16.1009 12.8856 16.1599 12.7927 16.2342C12.6998 16.3085 12.6262 16.3967 12.576 16.4938C12.5257 16.5909 12.4999 16.6949 12.5 16.8V23.2C12.5 23.4122 12.6054 23.6157 12.7929 23.7657C12.9804 23.9157 13.2348 24 13.5 24C13.7652 24 14.0196 23.9157 14.2071 23.7657C14.3946 23.6157 14.5 23.4122 14.5 23.2V16.8C14.5 16.5878 14.3946 16.3843 14.2071 16.2343C14.0196 16.0843 13.7652 16 13.5 16ZM18.5 16C17.7046 16.0007 16.9421 16.2538 16.3796 16.7037C15.8172 17.1537 15.5009 17.7637 15.5 18.4V21.6C15.5 22.2365 15.8161 22.847 16.3787 23.2971C16.9413 23.7471 17.7044 24 18.5 24C19.2956 24 20.0587 23.7471 20.6213 23.2971C21.1839 22.847 21.5 22.2365 21.5 21.6V18.4C21.4991 17.7637 21.1828 17.1537 20.6204 16.7037C20.0579 16.2538 19.2954 16.0007 18.5 16ZM19.5 21.6C19.5 21.8122 19.3946 22.0157 19.2071 22.1657C19.0196 22.3157 18.7652 22.4 18.5 22.4C18.2348 22.4 17.9804 22.3157 17.7929 22.1657C17.6054 22.0157 17.5 21.8122 17.5 21.6V18.4C17.5 18.1878 17.6054 17.9843 17.7929 17.8343C17.9804 17.6843 18.2348 17.6 18.5 17.6C18.7652 17.6 19.0196 17.6843 19.2071 17.8343C19.3946 17.9843 19.5 18.1878 19.5 18.4V21.6ZM23.3796 16.7037C23.9421 16.2538 24.7046 16.0007 25.5 16C26.2954 16.0007 27.0579 16.2538 27.6204 16.7037C28.1828 17.1537 28.4991 17.7637 28.5 18.4V21.6C28.5 22.2365 28.1839 22.847 27.6213 23.2971C27.0587 23.7471 26.2956 24 25.5 24C24.7043 24 23.9413 23.7471 23.3787 23.2971C22.8161 22.847 22.5 22.2365 22.5 21.6V18.4C22.5009 17.7637 22.8172 17.1537 23.3796 16.7037ZM26.2071 22.1657C26.3946 22.0157 26.5 21.8122 26.5 21.6V18.4C26.5 18.1878 26.3946 17.9843 26.2071 17.8343C26.0196 17.6843 25.7652 17.6 25.5 17.6C25.2348 17.6 24.9804 17.6843 24.7929 17.8343C24.6054 17.9843 24.5 18.1878 24.5 18.4V21.6C24.5 21.8122 24.6054 22.0157 24.7929 22.1657C24.9804 22.3157 25.2348 22.4 25.5 22.4C25.7652 22.4 26.0196 22.3157 26.2071 22.1657Z" fill="#5e34ff"/>
</svg>
