<?xml version="1.0" encoding="UTF-8"?> <svg xmlns="http://www.w3.org/2000/svg" width="45" height="33" viewBox="0 0 45 33" fill="none"><rect x="10.5" y="30" width="24" height="2" fill="#5eeaa7" fill-opacity="0.2"></rect><path d="M17.2023 18.9726L22.5 11L27.7977 18.9726C27.9156 19.1501 28.0901 19.2771 28.2894 19.3304C28.4887 19.3836 28.6995 19.3596 28.8834 19.2628L37.5 14.8431L37.4242 15.3259L34.6699 28.388H10.3301L7.50005 14.9846C7.49996 14.8431 7.50002 14.8431 7.50002 14.8431L16.1166 19.2628C16.3005 19.3594 16.5113 19.3833 16.7106 19.3301C16.9098 19.2768 17.0843 19.15 17.2023 18.9726Z" fill="#5eeaa7"></path><path d="M44.5 9.99976C44.5 9.20411 44.1839 8.44105 43.6213 7.87844C43.0587 7.31583 42.2956 6.99976 41.5 6.99976C40.7043 6.99976 39.9413 7.31583 39.3786 7.87844C38.816 8.44105 38.5 9.20411 38.5 9.99976C38.5047 10.1217 38.517 10.2432 38.5367 10.3637L29.8242 14.7198L24.093 6.53186C24.6447 6.18612 25.069 5.67026 25.3017 5.06217C25.5345 4.45408 25.5631 3.78677 25.3832 3.161C25.2034 2.53522 24.8248 1.98495 24.3046 1.59326C23.7845 1.20158 23.1511 0.989746 22.5 0.989746C21.8489 0.989746 21.2154 1.20158 20.6953 1.59326C20.1752 1.98495 19.7966 2.53522 19.6167 3.161C19.4368 3.78677 19.4654 4.45408 19.6982 5.06217C19.931 5.67026 20.3552 6.18612 20.907 6.53186L15.1758 14.7198L6.46326 10.3637C6.48296 10.2432 6.49522 10.1217 6.49996 9.99976C6.50278 9.42141 6.33836 8.85458 6.0265 8.3675C5.71464 7.88043 5.26864 7.49388 4.74219 7.25441C4.21574 7.01493 3.6313 6.93273 3.05922 7.01771C2.48714 7.10269 1.95181 7.35122 1.5177 7.73337C1.08359 8.11553 0.769202 8.61503 0.612384 9.17172C0.455566 9.72841 0.463006 10.3186 0.633808 10.8711C0.804611 11.4237 1.13149 11.9151 1.5751 12.2862C2.01871 12.6573 2.56012 12.8922 3.13416 12.9628L6.49996 28.1111V31.9998C6.49996 32.265 6.60532 32.5193 6.79286 32.7069C6.98039 32.8944 7.23475 32.9998 7.49996 32.9998H37.5C37.7652 32.9998 38.0195 32.8944 38.2071 32.7069C38.3946 32.5193 38.5 32.265 38.5 31.9998V28.1111L41.8658 12.9628C42.5906 12.8751 43.2585 12.5255 43.7436 11.9798C44.2288 11.4341 44.4978 10.7299 44.5 9.99976ZM41.5 8.99976C41.6977 8.99976 41.8911 9.05841 42.0555 9.16829C42.22 9.27817 42.3482 9.43435 42.4238 9.61708C42.4995 9.7998 42.5193 10.0009 42.4808 10.1949C42.4422 10.3888 42.3469 10.567 42.2071 10.7069C42.0672 10.8467 41.889 10.942 41.6951 10.9805C41.5011 11.0191 41.3 10.9993 41.1173 10.9236C40.9346 10.848 40.7784 10.7198 40.6685 10.5553C40.5586 10.3909 40.5 10.1975 40.5 9.99976C40.5001 9.73459 40.6055 9.48033 40.793 9.29283C40.9805 9.10533 41.2348 8.99992 41.5 8.99976ZM22.5 2.99976C22.6977 2.99976 22.8911 3.05841 23.0555 3.16829C23.22 3.27817 23.3482 3.43435 23.4238 3.61708C23.4995 3.7998 23.5193 4.00087 23.4807 4.19485C23.4422 4.38883 23.3469 4.56702 23.2071 4.70687C23.0672 4.84672 22.889 4.94196 22.6951 4.98055C22.5011 5.01913 22.3 4.99933 22.1173 4.92364C21.9346 4.84795 21.7784 4.71978 21.6685 4.55533C21.5586 4.39088 21.5 4.19754 21.5 3.99976C21.5001 3.73459 21.6055 3.48033 21.793 3.29283C21.9805 3.10533 22.2348 2.99992 22.5 2.99976ZM16.3193 16.573L22.5 7.74386L28.6807 16.573C28.8182 16.7695 29.0217 16.9101 29.2542 16.9691C29.4867 17.0281 29.7327 17.0015 29.9473 16.8943L39.4237 12.1565C39.5729 12.2989 39.7364 12.4256 39.9116 12.5345L36.6982 26.9998H8.30176L5.08836 12.5345C5.26357 12.4256 5.42707 12.2989 5.57626 12.1565L15.0527 16.8943C15.2673 17.0013 15.5132 17.0277 15.7456 16.9688C15.9781 16.9098 16.1816 16.7693 16.3193 16.573ZM2.49996 9.99976C2.49996 9.80198 2.55861 9.60864 2.66849 9.44419C2.77838 9.27974 2.93456 9.15157 3.11728 9.07588C3.30001 9.00019 3.50107 8.98039 3.69505 9.01898C3.88904 9.05756 4.06722 9.1528 4.20707 9.29265C4.34692 9.43251 4.44216 9.61069 4.48075 9.80467C4.51934 9.99865 4.49953 10.1997 4.42384 10.3824C4.34816 10.5652 4.21998 10.7214 4.05553 10.8312C3.89109 10.9411 3.69775 10.9998 3.49996 10.9998C3.2348 10.9996 2.98054 10.8942 2.79303 10.7067C2.60553 10.5192 2.50012 10.2649 2.49996 9.99976ZM36.5 30.9998H8.49996V28.9998H36.5V30.9998Z" fill="#5e34ff"></path></svg> 