<svg width="41" height="38" viewBox="0 0 41 38" fill="none" xmlns="http://www.w3.org/2000/svg">
<path d="M38.4807 26.8048C38.4355 26.5779 38.3131 26.3737 38.1343 26.227C37.9555 26.0803 37.7314 26 37.5001 26H25.5001C25.2689 26.0002 25.0449 26.0804 24.8662 26.2272C24.6875 26.3739 24.5652 26.578 24.5201 26.8047L22.5201 36.8047C22.4909 36.9497 22.4944 37.0994 22.5301 37.2429C22.5659 37.3864 22.6331 37.5202 22.7269 37.6345C22.8206 37.7489 22.9386 37.841 23.0724 37.9042C23.2061 37.9674 23.3522 38.0001 23.5001 38H39.5001C39.6479 38.0001 39.794 37.9674 39.9277 37.9042C40.0614 37.841 40.1794 37.7489 40.2732 37.6345C40.367 37.5201 40.4342 37.3864 40.4699 37.2429C40.5057 37.0994 40.5092 36.9497 40.4801 36.8047L38.4807 26.8048ZM24.7201 36L26.3201 28H36.6809L38.2809 36H24.7201Z" fill="#5e34ff"/>
<path d="M15.5 26H3.50003C3.26884 26.0002 3.04485 26.0804 2.86618 26.2272C2.6875 26.3739 2.56518 26.578 2.52003 26.8047L0.52003 36.8047C0.490916 36.9497 0.49437 37.0994 0.530142 37.2429C0.565914 37.3864 0.633111 37.5201 0.72688 37.6345C0.820648 37.7489 0.938647 37.841 1.07235 37.9042C1.20606 37.9674 1.35214 38.0001 1.50003 38H17.5C17.6479 38.0001 17.794 37.9674 17.9277 37.9042C18.0614 37.841 18.1795 37.7489 18.2732 37.6345C18.367 37.5202 18.4342 37.3864 18.47 37.2429C18.5057 37.0994 18.5092 36.9497 18.48 36.8047L16.48 26.8047C16.4349 26.578 16.3126 26.3739 16.1339 26.2272C15.9552 26.0804 15.7312 26.0002 15.5 26ZM2.72003 36L4.32003 28H14.6806L16.2806 36H2.72003Z" fill="#5e34ff"/>
<path d="M20.5 6C20.7652 6 21.0196 5.89464 21.2071 5.70711C21.3946 5.51957 21.5 5.26522 21.5 5V1C21.5 0.734784 21.3946 0.48043 21.2071 0.292893C21.0196 0.105357 20.7652 0 20.5 0C20.2348 0 19.9804 0.105357 19.7929 0.292893C19.6054 0.48043 19.5 0.734784 19.5 1V5C19.5 5.26522 19.6054 5.51957 19.7929 5.70711C19.9804 5.89464 20.2348 6 20.5 6Z" fill="#5e34ff"/>
<path d="M11.6337 7.23214C11.7217 7.38425 11.8481 7.51054 12.0003 7.5983C12.1526 7.68607 12.3252 7.73223 12.5009 7.73214C12.6763 7.7324 12.8485 7.68586 12.9999 7.59734C13.1137 7.53185 13.2135 7.44456 13.2935 7.34046C13.3735 7.23636 13.4322 7.11751 13.4662 6.9907C13.5002 6.86389 13.5089 6.73162 13.4917 6.60146C13.4745 6.47129 13.4318 6.34579 13.3661 6.23214L11.3661 2.76724C11.2335 2.53751 11.0151 2.36987 10.7589 2.30119C10.5026 2.23252 10.2296 2.26844 9.99991 2.40104C9.77018 2.53365 9.60254 2.75209 9.53386 3.0083C9.46518 3.26451 9.5011 3.53751 9.63371 3.76724L11.6337 7.23214Z" fill="#5e34ff"/>
<path d="M4.53595 11.8651L7.99985 13.8651C8.15123 13.9536 8.32349 14.0001 8.49885 13.9999C8.71884 13.9998 8.93267 13.9272 9.10722 13.7933C9.28177 13.6594 9.4073 13.4717 9.46437 13.2593C9.52143 13.0468 9.50685 12.8215 9.42287 12.6181C9.33889 12.4148 9.19021 12.2448 8.99985 12.1346L5.53595 10.1346C5.42233 10.0689 5.29688 10.0263 5.16678 10.0091C5.03667 9.99191 4.90446 10.0005 4.77768 10.0344C4.65091 10.0684 4.53205 10.1269 4.42791 10.2068C4.32376 10.2866 4.23636 10.3862 4.1707 10.4998C4.03809 10.7293 4.00208 11.0021 4.07057 11.2581C4.13907 11.5141 4.30647 11.7325 4.53595 11.8651Z" fill="#5e34ff"/>
<path d="M11.7266 21.6348C11.8206 21.7489 11.9387 21.8408 12.0725 21.9039C12.2062 21.9671 12.3522 21.9999 12.5001 22H28.5001C28.648 22.0001 28.794 21.9674 28.9277 21.9042C29.0614 21.841 29.1794 21.7489 29.2732 21.6345C29.367 21.5201 29.4342 21.3864 29.4699 21.2429C29.5057 21.0994 29.5092 20.9497 29.4801 20.8047L27.4801 10.8047C27.4349 10.578 27.3126 10.3739 27.1339 10.2272C26.9552 10.0804 26.7313 10.0002 26.5001 10H14.5001C14.2689 10.0002 14.0449 10.0804 13.8662 10.2272C13.6875 10.3739 13.5652 10.578 13.5201 10.8047L11.5201 20.8047C11.4912 20.9497 11.4947 21.0994 11.5304 21.2429C11.5661 21.3864 11.6331 21.5202 11.7266 21.6348ZM15.3194 12H25.6808L27.2808 20H13.7201L15.3194 12Z" fill="#5e34ff"/>
<path d="M3.5 20H7.5C7.76522 20 8.01957 19.8946 8.20711 19.7071C8.39464 19.5196 8.5 19.2652 8.5 19C8.5 18.7348 8.39464 18.4804 8.20711 18.2929C8.01957 18.1054 7.76522 18 7.5 18H3.5C3.23478 18 2.98043 18.1054 2.79289 18.2929C2.60536 18.4804 2.5 18.7348 2.5 19C2.5 19.2652 2.60536 19.5196 2.79289 19.7071C2.98043 19.8946 3.23478 20 3.5 20Z" fill="#5e34ff"/>
<path d="M32.5 19C32.5 19.2652 32.6054 19.5196 32.7929 19.7071C32.9804 19.8946 33.2348 20 33.5 20H37.5C37.7652 20 38.0196 19.8946 38.2071 19.7071C38.3946 19.5196 38.5 19.2652 38.5 19C38.5 18.7348 38.3946 18.4804 38.2071 18.2929C38.0196 18.1054 37.7652 18 37.5 18H33.5C33.2348 18 32.9804 18.1054 32.7929 18.2929C32.6054 18.4804 32.5 18.7348 32.5 19Z" fill="#5e34ff"/>
<path d="M28.0001 7.59734C28.1515 7.68586 28.3238 7.7324 28.4991 7.73214C28.6748 7.73223 28.8475 7.68607 28.9997 7.5983C29.1519 7.51054 29.2784 7.38425 29.3663 7.23214L31.3663 3.76724C31.4989 3.53751 31.5348 3.26451 31.4662 3.0083C31.3975 2.75209 31.2298 2.53365 31.0001 2.40104C30.7704 2.26844 30.4974 2.23252 30.2412 2.30119C29.985 2.36987 29.7665 2.53751 29.6339 2.76724L27.6339 6.23214C27.5682 6.34579 27.5255 6.47129 27.5083 6.60146C27.4912 6.73162 27.4998 6.86389 27.5338 6.9907C27.5679 7.11751 27.6266 7.23636 27.7066 7.34046C27.7866 7.44456 27.8863 7.53185 28.0001 7.59734Z" fill="#5e34ff"/>
<path d="M32.5012 13.9999C32.6766 14.0001 32.8488 13.9536 33.0002 13.8651L36.4641 11.8651C36.5777 11.7994 36.6773 11.712 36.7572 11.6079C36.837 11.5037 36.8956 11.3849 36.9295 11.2581C36.9634 11.1313 36.972 10.9991 36.9548 10.869C36.9377 10.7389 36.895 10.6134 36.8294 10.4998C36.7637 10.3862 36.6763 10.2866 36.5722 10.2068C36.468 10.1269 36.3492 10.0684 36.2224 10.0344C36.0956 10.0005 35.9634 9.99191 35.8333 10.0091C35.7032 10.0263 35.5777 10.0689 35.4641 10.1346L32.0002 12.1346C31.8099 12.2448 31.6612 12.4148 31.5772 12.6181C31.4932 12.8215 31.4786 13.0468 31.5357 13.2593C31.5928 13.4717 31.7183 13.6594 31.8928 13.7933C32.0674 13.9272 32.2812 13.9998 32.5012 13.9999Z" fill="#5e34ff"/>
<path fill-rule="evenodd" clip-rule="evenodd" d="M16.6799 14L15.5 20H25.5L24.3201 14H16.6799ZM5.67989 30L4.5 36H14.5L13.3201 30H5.67989ZM26.5 36L27.6799 30H35.3201L36.5 36H26.5Z" fill="#5eeaa7"/>
</svg>
