<?xml version="1.0" encoding="UTF-8"?> <svg xmlns="http://www.w3.org/2000/svg" width="70" height="48" viewBox="0 0 70 48" fill="none"><rect x="0.500305" y="0.5" width="69" height="47" rx="5.5" fill="white" stroke="white"></rect><path d="M15.927 20.1122H9.81186V18.685V18.6434C9.81186 16.987 11.1766 15.6431 12.8746 15.6431C14.5623 15.6431 15.9374 16.987 15.9374 18.6434V18.685L15.927 20.1122ZM14.9165 22.9875C14.9165 23.0812 14.9165 23.1541 14.7289 23.1541H13.7705C13.6663 23.1541 13.6143 23.175 13.6143 23.2792V26.5086C13.6143 26.6753 13.5205 26.7169 13.2809 26.7169H12.3329C12.0725 26.7169 11.9995 26.6961 11.9995 26.5086V23.2792C11.9995 23.175 11.9579 23.1541 11.8537 23.1541H10.9682C10.7807 23.1541 10.7807 23.0812 10.7807 22.9875V22.1957C10.7807 22.0395 10.8953 22.0186 11.0828 22.0186H14.6039C14.7914 22.0186 14.906 22.0395 14.906 22.1957C14.9165 22.1957 14.9165 22.9875 14.9165 22.9875ZM19.7189 20.1122H17.6146V18.9976C17.6146 18.9246 17.6146 18.8517 17.6146 18.7892C17.6146 16.2161 15.4894 14.1326 12.8642 14.1326C10.239 14.1326 8.1138 16.2161 8.1138 18.7892V18.8309V20.1226H6.00946C5.31149 20.1226 4.62393 20.456 4.76978 21.2477L6.33241 28.0816C6.46783 28.665 6.90537 29.0609 7.60335 29.0609H18.1355C18.8334 29.0609 19.271 28.665 19.4064 28.0816L20.969 21.2477C21.1045 20.456 20.4169 20.1122 19.7189 20.1122Z" fill="#33CC33"></path><path d="M11.5531 31.2687C11.5531 32.2896 10.7092 33.1126 9.66748 33.1126C8.62573 33.1126 7.78191 32.2896 7.78191 31.2687C7.78191 30.2478 8.62573 29.4248 9.66748 29.4248C10.7092 29.4248 11.5531 30.2478 11.5531 31.2687Z" fill="#33CC33"></path><path d="M17.9355 31.2687C17.9355 32.2896 17.0916 33.1126 16.0499 33.1126C15.0081 33.1126 14.1643 32.2896 14.1643 31.2687C14.1643 30.2478 15.0081 29.4248 16.0499 29.4248C17.102 29.4248 17.9355 30.2478 17.9355 31.2687Z" fill="#33CC33"></path><path d="M30.2302 22.2799H28.4071C28.2092 22.2799 28.1259 22.3216 28.1259 22.5091V28.6554C28.1259 28.9679 27.9384 29.0617 27.4904 29.0617H25.6986C25.1985 29.0617 25.0631 29.0096 25.0631 28.6554V22.5091C25.0631 22.3111 24.9798 22.2799 24.7818 22.2799H23.0942C22.7504 22.2799 22.7504 22.134 22.7504 21.9674V20.4568C22.7504 20.1651 22.9796 20.1235 23.3234 20.1235H30.0114C30.3552 20.1235 30.5844 20.1651 30.5844 20.4568V21.9674C30.5844 22.134 30.5844 22.2799 30.2302 22.2799ZM35.6369 22.4778C35.7411 22.4778 35.9182 22.4778 35.9182 22.6862V24.103C35.9182 24.2488 35.8453 24.3842 35.6369 24.3842C35.3035 24.3842 34.7514 24.4051 34.4701 24.5092C33.9284 24.7176 33.7618 24.978 33.7618 25.4781V28.395C33.7618 28.7075 33.7722 29.0513 33.3138 29.0513H31.647C31.1782 29.0513 31.0324 28.7909 31.0324 28.4783V23.9259C31.0324 23.1654 31.3553 22.4882 32.9179 22.4882C32.9075 22.4882 35.6369 22.4778 35.6369 22.4778ZM38.5538 29.0721C37.6892 29.0721 36.7516 28.6763 36.7516 27.1136V23.1445C36.7516 22.8008 36.887 22.4882 37.2412 22.4882H38.9809C39.2935 22.4882 39.5956 22.6966 39.5956 22.9987V26.176C39.5956 26.4677 39.6997 26.7907 40.0852 26.7907C40.4811 26.7907 40.6061 26.4886 40.6061 26.2073V23.155C40.6061 22.8424 40.5957 22.4987 41.054 22.4987H42.7208C43.1896 22.4987 43.3355 22.7591 43.3355 23.0716V27.1032C43.3355 28.8221 42.2625 29.0721 41.7833 29.0721H38.5538ZM47.2316 29.2388C45.919 29.2388 44.7314 28.9784 44.4501 28.8429C44.3251 28.7804 44.2105 27.0511 44.5856 27.1345C44.8564 27.197 45.3148 27.3532 46.3565 27.3532C46.9087 27.3532 47.2212 27.2803 47.2212 27.0199C47.2212 26.8532 46.9191 26.7282 46.5441 26.5719C45.7315 26.2281 44.471 25.7489 44.471 24.3113C44.471 22.832 46.1794 22.2486 47.8254 22.2486C49.138 22.2486 49.5235 22.3841 49.711 22.457C49.9506 22.5403 49.7006 24.0821 49.3672 24.0717C49.138 24.0613 48.3775 23.9259 47.9713 23.9259C47.5441 23.9259 47.3566 23.9988 47.3566 24.2071C47.3566 24.3217 47.5962 24.4467 47.9713 24.6238C48.8151 24.9989 50.1798 25.6239 50.1798 27.0928C50.1694 28.9888 48.4192 29.2388 47.2316 29.2388ZM55.0031 24.3113H54.2426V26.9574C54.2426 27.1866 54.4301 27.2907 54.701 27.2907C54.7635 27.2907 54.826 27.2907 54.8885 27.2803C55.076 27.2595 55.2635 28.9367 55.1385 28.9992C54.951 29.0825 54.2426 29.2284 53.5967 29.2284C51.9508 29.2284 51.5028 28.1866 51.4924 27.4574C51.482 26.7282 51.4924 24.2696 51.4924 24.2696H51.0861C50.7736 24.2696 50.7111 24.0717 50.7111 23.7696V22.9779C50.7111 22.6341 50.8257 22.4987 51.1694 22.4987H51.6278V21.6444C51.6278 21.3423 51.9403 21.1756 52.2424 21.134L53.6697 20.9048C54.1593 20.8319 54.1593 20.9985 54.1593 21.3423V22.5091H54.9406C55.2531 22.5091 55.3365 22.8008 55.3365 23.1029V23.8009C55.3365 24.1446 55.3365 24.3113 55.0031 24.3113ZM58.618 29.0617H56.8262C56.3886 29.0617 56.3365 29.0096 56.3365 28.6346V20.3318C56.3365 20.1443 56.4615 19.988 56.7116 19.988H58.493C59.0243 19.988 59.0659 20.1443 59.0659 20.4152V28.4992C59.0659 28.8221 59.0763 29.0617 58.618 29.0617Z" fill="#13120D"></path><path d="M63.6931 31.0132C63.5889 31.2424 63.3597 31.5029 63.1097 31.5029H61.7033C61.2554 31.5029 61.1929 31.357 61.3179 31.0757L62.2555 28.8985L59.7761 22.9188C59.6615 22.6375 59.7761 22.4917 60.1615 22.4917H62.193C62.443 22.4917 62.693 22.7313 62.7763 22.9813L63.6722 25.4711L64.6932 22.9813C64.7973 22.7417 65.0265 22.4917 65.2765 22.4917H66.8079C67.2559 22.4917 67.3184 22.6375 67.1934 22.9188C67.2038 22.9188 63.6931 31.0132 63.6931 31.0132Z" fill="#13120D"></path></svg> 