<?xml version="1.0" encoding="UTF-8"?> <svg xmlns="http://www.w3.org/2000/svg" width="156" height="16" viewBox="0 0 156 16" fill="none"><path d="M9.20229 11.0076C9.13675 12.1473 8.12738 12.9333 6.98693 12.8547H3.99815V9.01636L6.71164 8.95086C8.20603 8.95086 9.2154 9.73687 9.2154 10.9421V11.0076H9.20229ZM8.78281 5.16491C8.70416 6.17362 7.77345 6.88103 6.77719 6.80243H3.99815V3.39639H6.56745C7.8521 3.39639 8.78281 4.1038 8.78281 5.03391V5.16491ZM9.70042 7.73254C11.1293 7.02514 11.5619 6.30463 11.5619 4.88981C11.5619 3.39639 10.7753 2.11257 9.42514 1.47067C8.70416 1.18246 7.8521 1.11696 5.42699 1.11696H0V3.39639H1.07491V12.8678H0V15.1472H7.49816C10.2117 15.1472 12.0731 13.5883 12.0731 11.2303C12.2042 9.65827 11.2079 8.23035 9.70042 7.73254ZM16.2679 8.41375C16.4776 7.28714 17.4608 6.37013 18.6405 6.37013H18.7061C19.8203 6.37013 20.8035 7.28714 20.8035 8.47925L16.2679 8.41375ZM16.1237 10.3133H23.6743C23.7398 8.89846 23.3203 7.56224 22.6256 6.37013C21.7211 4.95531 20.1743 4.1824 18.5619 4.1824C15.6255 4.1824 13.4626 6.51423 13.4626 9.74997C13.4626 12.9857 15.6255 15.3175 18.5619 15.3175C21.0788 15.3175 22.9664 13.9027 23.4514 11.584L20.7904 11.6495C20.5151 12.5665 19.5975 13.2739 18.6274 13.1953C18.1555 13.2084 16.4121 13.0643 16.1237 10.3133ZM35.8785 15.1341H37.4384V8.07315L32.5489 8.06005V8.07315L32.4833 9.37006H35.8129C35.8129 9.72377 35.8129 10.1037 35.7474 10.4574C35.3934 12.2914 33.8335 13.6931 31.9196 13.7717C29.5076 13.7717 27.6724 11.3089 27.6724 7.92905C27.6724 3.63219 30.2155 2.15188 31.9196 2.15188C33.047 2.21738 34.1874 2.78068 34.8953 3.69769C35.2492 4.1955 35.5376 4.74571 35.6687 5.37452H37.2286V1.11696H35.7474V3.14749C34.8953 1.66717 33.3354 0.684657 31.5657 0.750158C28.3803 0.750158 25.8241 3.9859 25.8241 8.07315C25.8241 12.1604 28.3672 15.3175 31.6312 15.3175C32.7586 15.3175 33.899 14.8983 34.8167 14.1254C35.2361 13.7062 35.5901 13.3132 35.8785 12.8154V15.1341ZM46.1557 11.3744C45.9459 12.9202 44.5826 14.0337 43.0096 14.1123C41.8691 14.1123 40.8598 13.2739 40.7942 12.0818C40.7942 10.7456 41.8691 10.1954 45.1594 9.76307L46.1557 9.61897V11.3744ZM46.1557 15.1341H49.2231L49.0789 13.8372H47.5845V8.02075C47.5845 5.36141 45.7231 4.3789 43.5077 4.3789C42.5114 4.3789 41.4365 4.65401 40.65 5.29591C40.0077 5.85922 39.5751 6.60593 39.4309 7.44434H41.0695C41.3579 6.04262 42.1444 5.57102 43.6388 5.57102C45.1463 5.57102 46.0639 6.34393 46.0639 7.53604V8.58406L45.0676 8.64956C40.7811 9.06876 38.9983 10.0513 38.9983 12.0818V12.2914C39.1425 14.0468 40.7156 15.4485 42.4983 15.3044C43.9927 15.3044 45.4216 14.5184 46.1426 13.1822V15.1341H46.1557ZM63.7475 15.1341H66.7101V13.8372H65.2288V7.07754C65.2288 5.24351 64.3112 4.1824 62.6988 4.1824C61.8599 4.1824 61.0864 4.53611 60.4441 5.09941C60.0246 5.51862 59.7363 5.95092 59.461 6.43563C59.1857 4.95531 58.4123 4.1693 56.9965 4.1693C55.0302 4.1693 54.1126 5.72822 53.6145 6.43563L53.549 4.3658H50.4553V5.66272H52.0021V13.8372H50.4553V15.1341H55.0302V13.8372H53.4834V8.55785C53.4834 7.57534 54.6763 5.51862 56.3018 5.51862C57.3636 5.51862 57.8486 6.08192 57.8486 7.43124V15.1341H60.9423V13.8372H59.3823V8.42685C59.3823 7.65394 60.3655 5.45312 62.2007 5.45312C63.2494 5.45312 63.7475 6.16052 63.7475 7.64084V15.1341ZM77.4592 9.71067C77.4592 12.3307 76.3318 13.9551 74.5097 13.9551C72.8187 13.811 71.4947 12.3962 71.4947 10.6408L71.4292 8.80676C71.4292 7.24784 72.976 5.55792 74.5228 5.55792C76.2663 5.54482 77.4592 7.10374 77.4592 9.71067ZM79.1502 9.93337C79.1502 6.82863 77.3281 4.3658 74.9292 4.3658C73.1071 4.3658 71.9011 5.89852 71.4816 6.67143V0.750158H68.5322V2.04707H69.9348V13.8372H68.4535V15.1341H71.4816V13.1822C72.1108 14.0337 73.0285 15.3175 74.9292 15.3175C77.1839 15.3175 79.1502 12.8285 79.1502 9.93337ZM79.9761 15.1341H84.5248V13.8372H83.109V0.750158H80.0547V1.95537H81.5491V13.8372H79.9892V15.1341H79.9761ZM87.5004 8.92466C87.5004 8.57096 87.6446 8.21725 87.7102 7.87665C88.0641 6.60593 89.1915 5.70202 90.5285 5.62342C91.1578 5.55792 91.8001 5.83302 92.2982 6.25223C93.0061 7.02514 93.36 7.94215 93.36 8.92466H87.5004ZM87.4349 10.1168H95.1297C95.1297 6.39633 93.0192 4.3527 90.3975 4.3527C87.7888 4.3527 85.7439 6.73693 85.7439 9.82857C85.7439 13.0643 87.7888 15.3044 90.6858 15.3044C92.0229 15.3044 93.2289 14.7411 94.0679 13.7586C94.4874 13.2608 94.7758 12.7761 94.92 12.1473L93.1634 12.2128C92.5997 13.4835 91.8263 14.0337 90.6203 14.0337C89.9124 14.0337 89.2046 13.7586 88.6409 13.2608C87.933 12.5796 87.5791 11.6626 87.4349 10.1168ZM105.001 9.95957H101.33L103.165 3.72389L105.001 9.95957ZM106.626 15.1341H109.798V12.9071H108.736L104.869 1.11696H101.487L97.6728 12.9071H96.611V15.1341H99.8619L100.78 12.0949H105.721L106.626 15.1341ZM124.414 6.40943H125.332V4.3658H121.098V6.40943H122.16L120.744 12.6975L118.987 4.3658H116.235L114.465 12.8416L112.997 6.40943H114.046V4.3658H109.811V6.40943H110.729L113.049 15.1341H115.868L117.559 7.66704L119.328 15.1341H122.147L124.414 6.40943ZM132.883 11.1779C132.817 12.4486 131.755 13.4311 130.484 13.4311C129.422 13.4311 128.714 12.8678 128.714 12.0294C128.714 10.5491 130.34 10.3395 132.804 10.1299H132.87V11.1124V11.1779H132.883ZM132.961 15.1341H136.278V13.0774H135.36L135.426 8.08625C135.426 5.70202 133.866 4.3658 130.903 4.3658C128.36 4.3658 126.669 5.70202 126.525 7.81115L129.068 7.87665V7.81115C129.134 6.82863 129.632 6.19982 130.969 6.19982C132.306 6.19982 132.87 6.69763 132.87 8.30895C129.474 8.58406 125.948 8.93776 125.948 12.0294C125.948 13.9289 127.574 15.3306 129.697 15.3306C130.969 15.3306 132.175 14.8328 132.948 13.8634V15.1341H132.961ZM143.933 6.68453C144.353 6.68453 144.772 6.75003 145.192 6.82863V4.3265C144.772 4.261 144.418 4.1824 143.999 4.1824C142.806 4.1824 142.033 4.75881 141.338 6.12122V4.3658H137.759V6.47493H138.808V13.0774H137.759V15.1341H142.662V13.0774H141.403V8.91156C141.482 7.61464 142.596 6.61903 143.933 6.68453ZM148.521 8.41375C148.731 7.28714 149.714 6.37013 150.894 6.37013H150.96C152.074 6.37013 153.057 7.28714 153.057 8.47925L148.521 8.41375ZM148.443 10.3133H155.993C156.059 8.89846 155.639 7.56224 154.945 6.37013C154.04 4.95531 152.493 4.1824 150.881 4.1824C147.945 4.1824 145.769 6.51423 145.769 9.74997C145.769 12.9857 147.931 15.3175 150.881 15.3175C153.398 15.3175 155.285 13.9027 155.77 11.584L153.109 11.6495C152.834 12.5665 151.916 13.2739 150.946 13.1953C150.475 13.2084 148.731 13.0643 148.443 10.3133Z" fill="white"></path></svg> 