<?xml version="1.0" encoding="UTF-8"?> <svg xmlns="http://www.w3.org/2000/svg" width="83" height="15" viewBox="0 0 83 15" fill="none"><path fill-rule="evenodd" clip-rule="evenodd" d="M49.3317 4.38061H52.9932V3.86495C52.9932 2.82827 52.8761 1.93508 52.642 1.50267C52.4079 1.07028 51.9303 0.711731 51.2093 0.427029C50.4882 0.142355 49.6157 1.19732e-05 48.5919 0C47.6555 1.19732e-05 46.7335 0.13027 46.0717 0.390773C45.41 0.651301 44.9308 1.01253 44.6343 1.47446C44.3377 1.93642 44.1895 2.82558 44.1895 3.82466C44.1895 4.51759 44.294 5.08696 44.5032 5.53279C44.7123 5.97863 44.9761 6.32777 45.2945 6.58023C45.5282 6.76554 46.0064 7.03334 46.6318 7.38361C46.8585 7.51054 47.1045 7.64829 47.3652 7.79686C48.3453 8.35013 48.9602 8.74493 49.21 8.98127C49.4534 9.21762 49.5752 9.71985 49.5752 10.488C49.5752 10.8371 49.5112 11.1003 49.3832 11.2776C49.2552 11.4548 49.0601 11.5435 48.7979 11.5435C48.5357 11.5435 48.3531 11.4736 48.2501 11.334C48.1471 11.1943 48.0956 10.8801 48.0956 10.3913V8.80402H44.4341V9.65807C44.4341 10.6357 44.5496 11.3904 44.7806 11.9221C45.0116 12.4539 45.5001 12.8917 46.2461 13.2355C46.9921 13.5793 47.8927 13.7511 48.9478 13.7511C49.9092 13.7511 50.752 13.6021 51.4762 13.304C52.2003 13.0058 52.6888 12.6366 52.9417 12.1961C53.1945 11.7556 53.3209 11.0708 53.321 10.1415C53.3209 8.8631 53.0931 7.93653 52.6373 7.36177C52.1816 6.78703 51.0766 6.05114 49.3223 5.1541C48.7105 4.84257 48.3391 4.57668 48.208 4.35644C48.0706 4.13622 48.0019 3.80856 48.0019 3.37346C48.0019 3.03507 48.0628 2.78261 48.1846 2.61608C48.3063 2.44958 48.4858 2.36632 48.723 2.36631C48.9415 2.36632 49.0976 2.42809 49.1912 2.55163C49.2849 2.67518 49.3317 2.96255 49.3317 3.41374V4.38061ZM58.6072 2.64652V1.35916H54.6507V2.64652H53.836V4.33853H54.6507V10.1657C54.6507 11.2292 54.685 11.9047 54.7537 12.1921C54.8224 12.4794 54.9972 12.7346 55.2781 12.9575C55.5591 13.1804 55.8837 13.3228 56.252 13.3845C56.6204 13.4463 57.2353 13.4772 58.0968 13.4772H59.6232V11.7529C59.0052 11.7529 58.8179 11.7127 58.7336 11.6321C58.6493 11.5515 58.6072 11.1594 58.6072 10.4557V4.33853H59.6689V2.64652H58.6072ZM69.1433 9.15853V6.53994C69.1433 5.78257 69.0825 5.21857 68.9607 4.84793C68.839 4.47731 68.6127 4.11742 68.2818 3.76826C67.9509 3.41913 67.4811 3.13578 66.8725 2.91823C66.2638 2.7007 65.5349 2.59192 64.6859 2.59191C63.6745 2.59192 62.8442 2.76113 62.1949 3.09952C61.5457 3.43793 61.0962 3.88644 60.8464 4.44507C60.5967 5.00371 60.4719 5.77988 60.4719 6.7736V9.51304C60.4719 10.4208 60.5405 11.1017 60.6779 11.5555C60.8152 12.0094 61.0447 12.3962 61.3662 12.7158C61.6877 13.0354 62.1387 13.2744 62.7193 13.4329C63.2999 13.5913 64.0085 13.6706 64.8451 13.6706C65.5942 13.6706 66.2575 13.5779 66.835 13.3926C67.4125 13.2073 67.8854 12.9199 68.2537 12.5305C68.622 12.141 68.8624 11.7221 68.9748 11.2735C69.0872 10.825 69.1433 10.12 69.1433 9.15853ZM65.2571 4.69887C65.3258 4.84122 65.3601 5.18634 65.3601 5.73422V10.6652C65.3601 11.1272 65.3242 11.428 65.2524 11.5676C65.1806 11.7073 65.0323 11.7771 64.8076 11.7771C64.5891 11.7771 64.4424 11.7006 64.3675 11.5475C64.2926 11.3944 64.2551 11.0654 64.2551 10.5605V5.73422C64.2551 5.18634 64.2926 4.84122 64.3675 4.69887C64.4424 4.55653 64.5922 4.48536 64.817 4.48536C65.0417 4.48536 65.1884 4.55653 65.2571 4.69887ZM73.9766 3.72798L74.0421 2.78528H70.1933V15H73.9766V12.5506C74.3075 12.9212 74.6727 13.2006 75.0722 13.3886C76.4976 13.982 78.5309 13.7547 79.2745 12.321C79.4087 11.9101 79.4758 11.2185 79.4758 10.2463V5.74228C79.4489 3.70298 78.6656 2.51307 76.4207 2.59191C75.94 2.59192 75.4967 2.68592 75.091 2.87391C74.6852 3.06193 74.3137 3.34661 73.9766 3.72798ZM75.0348 4.69484C75.091 4.83451 75.119 5.23468 75.119 5.89537V10.4799C75.119 11.0493 75.0894 11.4078 75.0301 11.5555C74.9708 11.7033 74.8194 11.7771 74.5759 11.7771C74.3262 11.7771 74.1639 11.6965 74.089 11.5354C74.014 11.3743 73.9766 10.9714 73.9766 10.3268V5.89537C73.9766 5.27766 74.0125 4.88822 74.0843 4.72707C74.1561 4.56594 74.3168 4.48536 74.5665 4.48536C74.8225 4.48536 74.9786 4.55519 75.0348 4.69484ZM5.216 5.23395H9.15843V4.66994C9.15843 3.60103 9.04293 2.78591 8.81195 2.22458C8.58095 1.66327 8.08464 1.1785 7.323 0.770256C6.56135 0.362036 5.60306 0.157922 4.44811 0.15791C3.27443 0.157922 2.3177 0.392924 1.57791 0.862915C0.838117 1.33293 0.390185 1.84993 0.234112 2.41393C0.0780365 2.97794 0 3.88303 0 5.1292V9.00471C0 9.90175 0.037457 10.5745 0.112373 11.023C0.187288 11.4716 0.374577 11.8999 0.67424 12.3082C0.973901 12.7164 1.41247 13.0588 1.98995 13.3355C2.56742 13.6121 3.18703 13.7504 3.84879 13.7504C4.40441 13.7504 4.88668 13.6497 5.2956 13.4483C5.70451 13.2468 6.04319 12.9447 6.31164 12.5418L6.67686 13.4765H9.15843V6.47476H4.54176V8.45682H5.33774V10.0038C5.33773 10.6108 5.28623 11.019 5.18323 11.2285C5.08021 11.438 4.88512 11.5427 4.59795 11.5427C4.33574 11.5427 4.16093 11.4501 4.07354 11.2648C3.98613 11.0794 3.94243 10.694 3.94243 10.1085V3.84811C3.94243 3.18206 3.98613 2.76846 4.07354 2.6073C4.16093 2.44617 4.32637 2.36559 4.56985 2.36558C4.85078 2.36559 5.02871 2.45959 5.10363 2.64758C5.17854 2.8356 5.216 3.30291 5.216 4.04954V5.23395ZM10.0853 6.92596H13.6345V5.80601C13.6345 5.20978 13.6657 4.84049 13.7281 4.69814C13.7905 4.5558 13.9497 4.48464 14.2057 4.48463C14.4304 4.48464 14.5912 4.56924 14.688 4.73843C14.7847 4.90764 14.8331 5.27155 14.8331 5.83018C14.8331 6.27602 14.7894 6.57145 14.702 6.71647C14.6146 6.86151 13.9497 7.14351 12.7074 7.56248C11.5462 7.94923 10.8189 8.28763 10.5255 8.57768C10.2321 8.86775 10.0853 9.41295 10.0853 10.2133V11.0915C10.0853 12.1712 10.3616 12.8708 10.9141 13.1904C11.4666 13.51 12.0737 13.6698 12.7355 13.6698C13.2412 13.6698 13.6766 13.5745 14.0418 13.3838C14.407 13.1931 14.7051 12.9071 14.9361 12.5257V13.4765H18.7802V8.11037C18.7802 6.34316 18.7147 5.17621 18.5836 4.60951C18.4525 4.04283 18.0623 3.56477 17.413 3.17533C16.7637 2.78591 15.6353 2.59119 14.3555 2.59118C13.288 2.59119 12.4202 2.76308 11.7522 3.10684C11.0842 3.45063 10.6394 3.84677 10.4178 4.29528C10.1962 4.74381 10.0853 5.38167 10.0853 6.20887V6.92596ZM13.7796 9.35117C13.8764 9.09335 14.2276 8.77375 14.8331 8.39237V10.592C14.8331 11.1291 14.7972 11.4608 14.7254 11.5871C14.6536 11.7133 14.4991 11.7764 14.2619 11.7764C14.0122 11.7764 13.8452 11.6958 13.7609 11.5347C13.6766 11.3735 13.6345 11.0163 13.6345 10.4631C13.6345 9.97964 13.6829 9.60901 13.7796 9.35117ZM23.5889 3.79976L23.6544 2.78456H19.7951V13.4765H23.5889V6.06384C23.5889 5.54819 23.5951 5.21112 23.6076 5.05266C23.6201 4.89421 23.6856 4.75992 23.8043 4.6498C23.9229 4.53969 24.0665 4.48464 24.235 4.48463C24.5035 4.48464 24.6674 4.58938 24.7267 4.79886C24.786 5.00835 24.8156 5.63681 24.8156 6.68424V13.4765H28.4865V6.50698C28.4865 5.58847 28.5255 5.02178 28.6036 4.80692C28.6816 4.59207 28.8548 4.48464 29.1233 4.48463C29.3855 4.48464 29.5525 4.5934 29.6243 4.81094C29.6961 5.02849 29.732 5.59384 29.732 6.50698V13.4765H33.4028V5.87852C33.4028 5.00298 33.3435 4.37049 33.2249 3.98105C33.1063 3.59162 32.8363 3.26263 32.4149 2.99404C31.9935 2.72548 31.4613 2.59119 30.8182 2.59118C30.3313 2.59119 29.888 2.69191 29.4885 2.89333C29.0889 3.09477 28.73 3.39691 28.4116 3.79976C27.831 2.99406 27.035 2.59119 26.0236 2.59118C25.5055 2.59119 25.0435 2.69191 24.6377 2.89333C24.2319 3.09477 23.8823 3.39691 23.5889 3.79976ZM38.3847 8.31985H43.2823V6.90178C43.2823 5.8651 43.1434 5.06072 42.8656 4.48865C42.5878 3.9166 42.104 3.45734 41.4141 3.11087C40.7243 2.76442 39.8487 2.59119 38.7874 2.59118C37.9196 2.59119 37.1517 2.73488 36.4837 3.02224C35.8157 3.30963 35.335 3.72323 35.0416 4.26305C34.7482 4.80289 34.6015 5.54013 34.6015 6.47476V9.59289C34.6015 10.3879 34.667 10.9935 34.7981 11.4098C34.9292 11.8261 35.1649 12.2075 35.5052 12.5539C35.8454 12.9004 36.3214 13.173 36.9332 13.3717C37.545 13.5705 38.2505 13.6698 39.0496 13.6698C39.8737 13.6698 40.5588 13.5691 41.1051 13.3677C41.6514 13.1663 42.1024 12.8641 42.4583 12.4613C42.8141 12.0584 43.0404 11.6797 43.1372 11.3252C43.2339 10.9707 43.2823 10.4631 43.2823 9.80238V9.01277H39.6958V10.4228C39.6957 10.9546 39.6474 11.3131 39.5506 11.4984C39.4538 11.6837 39.2619 11.7764 38.9747 11.7764C38.7437 11.7764 38.5876 11.7066 38.5065 11.5669C38.4253 11.4272 38.3847 11.1157 38.3847 10.6323V8.31985ZM39.4897 5.79795V6.5795H38.3847V5.79795C38.3847 5.19635 38.4159 4.82706 38.4784 4.69008C38.5408 4.55312 38.7031 4.48464 38.9653 4.48463C39.1776 4.48464 39.318 4.56521 39.3867 4.72634C39.4554 4.8875 39.4897 5.2447 39.4897 5.79795ZM80.7422 2.44055V1.46992H81.1867C81.2761 1.46992 81.344 1.47865 81.3905 1.49607C81.437 1.51351 81.4742 1.5443 81.502 1.58844C81.5298 1.63258 81.5437 1.68135 81.5437 1.73476C81.5437 1.80362 81.5207 1.86166 81.4747 1.90889C81.4286 1.95612 81.3575 1.98614 81.2613 1.99894C81.2964 2.01527 81.3231 2.03138 81.3413 2.04727C81.3801 2.0817 81.4168 2.12473 81.4514 2.17637L81.6258 2.44055H81.4589L81.3263 2.23861C81.2875 2.18035 81.2556 2.13576 81.2305 2.10487C81.2054 2.07397 81.183 2.05234 81.1631 2.03998C81.1433 2.02762 81.1231 2.01902 81.1026 2.01416C81.0876 2.01108 81.0629 2.00952 81.0287 2.00952H80.8749V2.44055H80.7422ZM80.8749 1.8983H81.1601C81.2207 1.8983 81.2681 1.89223 81.3023 1.88009C81.3365 1.86795 81.3625 1.84853 81.3803 1.82183C81.3981 1.79512 81.407 1.7661 81.407 1.73476C81.407 1.68886 81.3897 1.65112 81.3553 1.62154C81.3209 1.59197 81.2665 1.57718 81.1922 1.57718H80.8749V1.8983ZM81.1216 2.84366C81.6207 2.84366 82.0308 2.45118 82.0308 1.96026C82.0308 1.46934 81.6207 1.07686 81.1216 1.07686C80.6226 1.07686 80.2124 1.46934 80.2124 1.96026C80.2124 2.45118 80.6226 2.84366 81.1216 2.84366ZM81.9308 1.96026C81.9308 2.39292 81.5685 2.74366 81.1216 2.74366C80.6747 2.74366 80.3124 2.39292 80.3124 1.96026C80.3124 1.5276 80.6747 1.17686 81.1216 1.17686C81.5685 1.17686 81.9308 1.5276 81.9308 1.96026Z" fill="white"></path></svg> 