<?xml version="1.0" encoding="UTF-8" standalone="no"?> <svg xmlns:inkscape="http://www.inkscape.org/namespaces/inkscape" xmlns:sodipodi="http://sodipodi.sourceforge.net/DTD/sodipodi-0.dtd" xmlns="http://www.w3.org/2000/svg" xmlns:svg="http://www.w3.org/2000/svg" id="flag-icons-kp" viewBox="0 0 720 480" version="1.1" sodipodi:docname="kp.svg" width="720" height="480" inkscape:version="1.1 (c68e22c387, 2021-05-23)"><defs id="defs5"><clipPath id="a"><path fill-opacity="0.7" d="M 5,0.1 H 687.6 V 512 H 5.1 Z" id="path2"></path></clipPath></defs><g id="g938" transform="translate(0.44479051,0.53854989)"><path fill="#ffffff" stroke="#000000" d="M 719.11042,479.01666 H 0 V -0.09375938 h 719.11042 z" id="path7" style="fill-rule:evenodd;stroke-width:0.889581"></path><path fill="#3e5698" d="M 719.11042,392.28924 H 0 v 86.72742 h 719.11042 z" id="path9" style="fill-rule:evenodd;stroke-width:0.889581"></path><path fill="#c60000" d="M 719.11042,372.22472 H 0 V 106.69817 h 719.11042 z" id="path11" style="fill-rule:evenodd;stroke-width:0.889581"></path></g><g id="g933" transform="translate(76.532521,0.10000016)"><path fill="#3e5698" d="M 643.02269,0.43854973 H -76.08773 V 87.072214 h 719.11042 z" id="path13" style="fill-rule:evenodd;stroke-width:0.889581"></path><g id="g927" transform="translate(-8.081184)"><path fill="#ffffff" d="m 303.22788,239.94608 c 0,59.54268 -49.69704,107.8332 -111.20885,107.8332 -61.51181,0 -111.208846,-48.29052 -111.208846,-107.8332 0,-59.54268 49.697036,-107.64566 111.208846,-107.64566 61.41804,0 111.20885,48.19675 111.20885,107.73943 z" id="path15" style="fill-rule:evenodd;stroke-width:0.93768"></path><path fill="#c40000" d="m 160.04414,253.63621 -53.44776,-38.16358 66.57528,-0.18753 21.28534,-62.26196 19.78505,61.98065 66.57528,-0.37507 -54.29167,38.63242 19.97258,61.98064 -53.44776,-38.16357 -54.38544,38.72618 z" id="path17" style="fill-rule:evenodd;stroke-width:0.93768"></path></g></g></svg> 