<?xml version="1.0" encoding="UTF-8" standalone="no"?> <svg xmlns:inkscape="http://www.inkscape.org/namespaces/inkscape" xmlns:sodipodi="http://sodipodi.sourceforge.net/DTD/sodipodi-0.dtd" xmlns:xlink="http://www.w3.org/1999/xlink" xmlns="http://www.w3.org/2000/svg" xmlns:svg="http://www.w3.org/2000/svg" id="flag-icons-kr" viewBox="0 0 720 480" version="1.1" sodipodi:docname="kr.svg" width="720" height="480" inkscape:version="1.1 (c68e22c387, 2021-05-23)"><defs id="defs5"><clipPath id="a"><path fill-opacity="0.7" d="m -95.8,-0.4 h 682.7 v 512 H -95.8 Z" id="path2"></path></clipPath></defs><g id="g873"><path fill="#ffffff" d="M 0,0 H 720 V 480 H 0 Z" id="path7" style="fill-rule:evenodd;stroke-width:0.994272"></path><g transform="matrix(5.548446,-8.3195438,8.3195438,5.548446,360,240.13158)" id="g21" style="fill-rule:evenodd"><g id="c"><path id="b" d="M -6,-26 H 6 v 2 H -6 Z m 0,3 H 6 v 2 H -6 Z m 0,3 H 6 v 2 H -6 Z"></path><use xlink:href="#b" width="100%" height="100%" y="44" id="use10" x="0"></use></g><path stroke="#ffffff" d="M 0,17 V 27" id="path13"></path><path fill="#cd2e3a" d="M 0,-12 A 12,12 0 0 1 0,12 Z" id="path15"></path><path fill="#0047a0" d="M 0,-12 A 12,12 0 0 0 0,12 6,6 0 0 0 0,0 Z" id="path17"></path><circle cy="-6" r="6" fill="#cd2e3a" id="circle19" cx="0"></circle></g><g transform="matrix(-5.548446,-8.3195438,8.3195438,-5.548446,360,240.16964)" id="g27" style="fill-rule:evenodd"><use xlink:href="#c" width="100%" height="100%" id="use23" x="0" y="0"></use><path stroke="#ffffff" d="m 0,-23.5 v 3 M 0,17 v 3.5 m 0,3 v 3" id="path25"></path></g></g></svg> 