<?xml version="1.0" encoding="UTF-8" standalone="no"?> <svg xmlns:inkscape="http://www.inkscape.org/namespaces/inkscape" xmlns:sodipodi="http://sodipodi.sourceforge.net/DTD/sodipodi-0.dtd" xmlns="http://www.w3.org/2000/svg" xmlns:svg="http://www.w3.org/2000/svg" id="flag-icons-me" viewBox="0 0 720 480" version="1.1" sodipodi:docname="me.svg" width="720" height="480" inkscape:version="1.1 (c68e22c387, 2021-05-23)"><defs id="defs233"></defs><path fill="#d3ae3b" d="M 0,0 H 720 V 480 H 0 Z" id="path2" style="stroke-width:1.06066"></path><path fill="#c40308" d="M 24,24 H 696 V 456 H 24 Z" id="path4" style="stroke-width:1.06543"></path><g id="g1162" transform="translate(41.118675)"><path fill="#b96b29" d="m 424.5,236.1 a 58,58 0 0 0 19.4,-9.2 c 7,-5.6 8.3,-10.1 8.8,-12.5 0.6,-2.4 0.8,-4.3 -1,-3 -1.8,1.4 -7.1,5.6 -10.7,7.6 -3.7,2 -7,3 -9,3.6 -2,0.5 -3.6,0.9 -1.7,0.1 2,-0.7 8.1,-2.9 13,-7.7 4.7,-4.8 8.5,-12 8.6,-16.4 0,-4.4 -0.3,-4 -1.7,-3 -1.4,1.1 -6.4,7.3 -9.3,9.7 a 90,90 0 0 1 -9.7,6.9 c -2.3,1.3 -5.5,2.8 -1,-0.3 4.5,-3 13,-10.3 16.5,-19.7 a 35.4,35.4 0 0 0 2.7,-15.8 c 0,-1 -0.8,-2.8 -1.6,-1.1 -0.8,1.7 -6.5,13 -11,18 -4.6,4.8 -3.5,3.9 -4.6,4.7 -1,0.8 -2.7,2.2 -0.5,-0.6 a 51.2,51.2 0 0 0 12.2,-31.7 c 0,-3.6 -1.5,-8.6 -2.2,-10.1 -0.7,-1.5 -1.4,-2.6 -1.7,-0.9 a 191,191 0 0 1 -5.8,18.4 75,75 0 0 1 -6.7,12.8 c -0.8,1.1 -2.8,3.6 -0.6,-0.5 a 77.4,77.4 0 0 0 7,-27.6 44,44 0 0 0 -2.6,-20.9 c -1.6,-3.1 -3,-4.2 -3,-4.2 0,0 0.3,7.8 -2,19 -2.3,11.2 -5.7,17 -5.7,17 0,0 -1.5,1.7 -0.5,-1 a 62.4,62.4 0 0 0 1.4,-34.5 c -2.3,-7.5 -6.2,-11.3 -6.2,-11.3 -1,10.7 -0.9,24.5 -4.8,35.7 -0.7,-0.7 -1.7,-1.9 -2.1,0.6 a 63.1,63.1 0 0 1 -7,19.4 c -4.8,8.8 -6.8,10 -6.8,10 l -1.5,-3.4 c -0.6,-1.2 -1,-1.8 -1.8,-0.2 -0.8,1.6 -3.5,7.8 -9.4,14.6 -5.9,6.8 -9.2,10.2 -9,15.3 0.1,5 2.8,7.7 6.4,10 3.6,2.3 4.2,3.6 3.7,6.4 -0.6,2.8 -3.8,3.7 -6.6,3.8 -2.7,0.1 -6.2,-0.1 -7.5,0.6 -1.2,0.7 -1.3,2.5 -2.6,3.7 -1.2,1.3 -1.8,2 -3,2.2 l -1,0.1 c -0.2,-13.5 5,-19.5 5,-19.5 l -14.6,-17.1 a 50.8,50.8 0 0 1 -2.2,1 4,4 0 0 0 -0.4,-0.6 11,11 0 0 1 -2.6,-7.8 c 0.7,0 2.2,0.6 3.5,0.3 1.3,-0.2 0.3,-1.6 0,-2.8 -0.5,-1.3 -0.9,-5.7 -0.6,-7.3 l 0.4,-2.3 c 0,0 2.1,2.3 3.4,2.3 1.3,0 1.2,-1.3 1.4,-2.8 0.3,-2.2 1.3,-5 3,-6.5 0,0 2.4,1.6 5,1.6 2.6,0 6.2,-0.7 9,-3.5 3,-2.7 2.9,-3.3 2.9,-3.3 0,0 5.3,1.8 9.3,2 4,0.2 8.3,-0.4 10.4,-4.7 2,-4.2 -0.6,-8.2 -1,-8.8 -0.6,-0.7 -1.9,-1.2 -1.9,0 0,1.2 0.1,4.4 -2.4,6 -2.4,1.6 -4.3,1.5 -6.6,0.8 a 20.5,20.5 0 0 0 -13.1,-0.4 17,17 0 0 1 6.1,-4.2 c 3,-0.9 4.8,0.4 5.8,1.6 1,1.2 1.9,3 2.7,0.3 0.8,-2.8 0.3,-6 -1,-8 a 7.6,7.6 0 0 0 -7.2,-3 c -3,0.2 -4,0.7 -4,0.7 0,0 -1.5,-4.3 -5.3,-5 a 21,21 0 0 0 -14,3 c 0,0 -3.1,0.7 -6.4,-0.2 a 21,21 0 0 1 -5.4,-2.8 l 1.1,-3.5 1.9,-0.6 c 1,-0.4 0.7,-0.7 0.9,-1.5 0.1,-0.8 -1.8,-2.2 -1.8,-2.2 0,0 -0.3,-2.5 2.9,-4.1 l 2.8,-1.4 c 0,0 1.9,0.3 2.6,-0.2 0.8,-0.6 0.8,-1 0.8,-1 0,0 1.4,-0.4 2,-1.2 0.4,-0.9 0.5,-2.1 0.2,-3.1 -0.4,-1 -0.9,-1.2 -0.4,-1.7 0.5,-0.5 1,-1.6 1,-2.4 l 0.1,-1 c 0,0 1.1,-0.4 1,-2 0,-1.7 -0.9,-2.3 -1.4,-2.5 l -0.9,-0.1 c 0,0 0,-1 -0.9,-2.3 -0.8,-1.4 -1.4,-2 -1.4,-2 0,0 0.6,-0.4 0.3,-1.5 -0.3,-1.1 -1.1,-1.7 -1.9,-2 -0.7,-0.2 -1.5,0 -1.5,0 l -3.7,-2.1 -1.5,-0.8 c 0,0 0,-1 -0.4,-1.6 -0.5,-0.5 -1.5,-0.8 -2,-0.8 -0.5,0 -1,0.3 -1,0.3 l -6,-1.4 c -1.8,-0.2 -1.9,-0.4 -1.9,-0.4 0,0 -3.8,-1.8 -5.2,-2 l -2,-0.5 c 0,0 1.6,-1.8 1.7,-4 a 6,6 0 0 0 -2.8,-5 l -1.6,-0.8 V 93 l 2.8,0.3 0.2,-4.6 -2.7,0.3 0.4,-2.7 h -5.8 l 0.4,2.7 -2.8,-0.2 0.3,4.5 3,-0.4 -0.4,1.7 c 0,0 -1,0.2 -2,0.9 a 5.4,5.4 0 0 0 -2.6,4.7 c 0,2.2 1.3,4 1.3,4 l -1.8,0.4 c -1.5,0.3 -5.3,2.1 -5.3,2.1 0,0 0,0.2 -1.8,0.4 l -6,1.4 c 0,0 -0.6,-0.3 -1,-0.3 -0.4,0 -1.6,0.3 -2,0.8 -0.4,0.6 -0.5,1.6 -0.5,1.6 l -1.4,0.8 -3.7,2.1 c 0,0 -0.8,-0.2 -1.6,0 -0.7,0.3 -1.5,1 -1.8,2 -0.3,1.1 0.3,1.6 0.3,1.6 0,0 -0.6,0.5 -1.5,1.9 a 6,6 0 0 0 -0.9,2.3 l -0.8,0.1 c -0.6,0.2 -1.5,0.8 -1.5,2.5 0,1.6 1,2 1,2 v 1 c 0.1,0.8 0.6,2 1.1,2.4 0.5,0.5 0,0.7 -0.3,1.7 -0.4,1 -0.3,2.2 0.2,3 0.5,1 2,1.4 2,1.4 0,0 0,0.3 0.7,0.9 0.7,0.6 2.6,0.2 2.6,0.2 l 2.9,1.4 c 3.2,1.6 2.9,4 2.9,4 0,0 -2,1.5 -1.8,2.3 0.1,0.8 0,1.1 0.9,1.5 l 1.9,0.6 1,3.5 a 21,21 0 0 1 -5.4,2.8 c -3.2,0.9 -6.4,0.2 -6.4,0.2 a 21,21 0 0 0 -13.9,-3 c -3.8,0.7 -5.4,5 -5.4,5 0,0 -1,-0.4 -4,-0.8 -3,-0.3 -5.8,1 -7.1,3 -1.4,2.1 -1.8,5.3 -1,8.1 0.8,2.8 1.6,0.9 2.6,-0.3 1,-1.2 2.8,-2.5 5.8,-1.6 3,1 6,4 6.2,4.2 0,0 -0.5,-0.3 -3.9,-0.8 -3.7,-0.5 -6.9,0.4 -9.2,1.2 -2.3,0.7 -4.2,0.8 -6.7,-0.8 -2.4,-1.6 -2.4,-4.8 -2.4,-6 0,-1.2 -1.3,-0.7 -1.8,0 -0.4,0.6 -3,4.6 -1,8.8 2,4.3 6.3,5 10.4,4.7 4,-0.2 9.3,-2 9.3,-2 0,0 0,0.6 2.8,3.3 a 13,13 0 0 0 9,3.5 c 2.7,0 5,-1.6 5,-1.6 1.7,1.5 2.7,4.3 3,6.5 0.2,1.5 0.1,2.8 1.4,2.8 1.4,0 3.5,-2.3 3.5,-2.3 l 0.4,2.3 a 26,26 0 0 1 -0.6,7.3 c -0.4,1.2 -1.4,2.6 0,2.8 1.3,0.3 2.7,-0.2 3.5,-0.3 0,3.2 -0.7,5.3 -2.6,7.8 a 4.4,4.4 0 0 0 -0.4,0.6 53.9,53.9 0 0 1 -2.2,-1 l -14.6,17.1 c 0,0 5.3,6 5,19.6 a 20.6,20.6 0 0 1 -1,-0.2 c -1.2,-0.2 -1.8,-1 -3,-2.2 -1.3,-1.2 -1.4,-3 -2.6,-3.7 -1.3,-0.8 -4.8,-0.5 -7.5,-0.6 -2.8,0 -6,-1 -6.6,-3.8 -0.5,-2.8 0.1,-4 3.7,-6.4 3.6,-2.3 6.3,-5 6.4,-10 0.2,-5.1 -3,-8.5 -9,-15.3 -5.9,-6.8 -8.6,-13 -9.4,-14.6 -0.8,-1.6 -1.2,-1 -1.8,0.2 l -1.5,3.3 c 0,0 -2,-1.2 -6.8,-10 a 63,63 0 0 1 -7,-19.3 c -0.4,-2.5 -1.4,-1.3 -2,-0.6 -4,-11.2 -3.8,-25 -4.9,-35.7 0,0 -3.9,3.8 -6.2,11.3 -2,6.8 -2,14.9 -1.3,22 0.6,6.7 2,10.7 2.7,12.5 1,2.7 -0.5,1 -0.5,1 0,0 -3.4,-5.8 -5.7,-17 -2.3,-11.2 -2,-19 -2,-19 0,0 -1.4,1 -3,4.2 a 44,44 0 0 0 -2.6,21 77.4,77.4 0 0 0 7,27.5 c 2.2,4 0.2,1.6 -0.6,0.5 a 71,71 0 0 1 -6.7,-12.8 c -2,-5.5 -5.6,-16.6 -5.8,-18.4 -0.3,-1.7 -1,-0.6 -1.7,0.9 -0.7,1.5 -2.3,6.5 -2.2,10.2 a 51.2,51.2 0 0 0 12.2,31.6 c 2.2,2.8 0.5,1.4 -0.5,0.6 -1,-0.8 0,0.1 -4.5,-4.7 a 91.7,91.7 0 0 1 -11,-18 c -0.9,-1.7 -1.6,0.1 -1.7,1.1 -0.1,1 -0.7,6.5 2.7,15.8 3.5,9.4 12,16.7 16.5,19.7 4.5,3.1 1.3,1.6 -1,0.3 a 90,90 0 0 1 -9.7,-6.9 c -2.9,-2.4 -7.9,-8.6 -9.3,-9.7 -1.4,-1 -1.7,-1.4 -1.7,3 0.1,4.4 3.9,11.6 8.7,16.4 4.8,4.8 11,7 12.9,7.7 1.9,0.8 0.3,0.4 -1.7,-0.1 a 40.2,40.2 0 0 1 -9,-3.6 93,93 0 0 1 -10.7,-7.6 c -1.8,-1.4 -1.6,0.6 -1,3 0.5,2.4 1.9,6.9 8.8,12.5 a 57.7,57.7 0 0 0 19.4,9.2 c 2.9,0.8 0.9,0.8 0.9,0.8 l -6.8,-1.4 a 71.3,71.3 0 0 1 -16.7,-7.3 c -2.3,-1.5 -2.7,-2 -2.4,1 a 20,20 0 0 0 8.9,12.9 49.6,49.6 0 0 0 17.2,4.8 c 2.5,0.1 1.8,0.4 0.7,0.5 a 50.5,50.5 0 0 1 -19.2,-3.2 l -0.5,-2 c -0.2,-1.2 -0.9,-1 -1.2,-0.8 -0.4,0.3 -0.7,0.5 -2,1.1 -1.3,0.7 -1.3,-0.1 -1.4,-0.5 l -0.3,-3 c 0,-0.8 -0.5,-0.9 -1.1,-0.6 l -4.7,2 c -1,0.4 0,1.3 0.5,2.3 a 147.3,147.3 0 0 0 1.5,2.6 l -3.7,1 c -0.8,0.2 -0.6,0.8 -0.3,1.4 l 1.9,4.6 c 0.3,0.8 1.1,0.3 1.1,0.3 l 2.7,-1.6 1,3.7 c 0,0 -1.3,0.3 -2.7,1.2 -1.3,1 -1,2.3 0.7,2.7 1.6,0.5 3.6,1.4 5.7,5.3 2.2,3.9 2.7,10.9 4,22 1.4,11 8.4,16.6 9.4,17.3 1,0.7 0.4,1.3 0.4,1.3 0,0 -1,1.4 -0.5,3.5 a 5.3,5.3 0 0 0 3.2,3.8 c 1,0.3 0.7,1.3 0.7,1.3 0,0 -0.5,2.3 0,6.7 0.5,4.3 4,9.1 5,10 1,0.8 1,1.2 1,1.6 -0.2,0.3 -0.9,0 -2,1 a 12.2,12.2 0 0 0 -3.4,3.6 c -0.8,1.6 -0.5,2.5 -0.2,4.5 0.2,2.1 3.3,4 3.3,4 0,0 -0.6,0.1 -0.7,1.7 -0.1,1.5 1,3.2 2.4,4.4 1.3,1 4,1.6 4,1.6 l 0.3,2.2 c 0.2,1 1.9,1.9 3,2.5 1.1,0.6 3.3,0.3 4.2,-0.2 0.9,-0.4 1.5,0.1 2,1 0.6,1 0.4,4.4 0.4,5.8 0,1.4 -0.8,2.8 -0.4,3.5 0.5,0.7 1.8,0.2 3.2,-0.5 1.3,-0.8 1.6,-0.2 2.8,0.5 a 9,9 0 0 0 3.5,1.4 c 0.5,0 0.3,-1.3 0.3,-2.3 0,-1 0.2,-3.4 0.7,-3.8 0.2,-0.2 2.3,-0.3 3.8,-1 0.7,-0.3 1.7,-0.6 1.7,-1.3 0.1,-0.7 -1,-0.7 -3.2,-1.9 -2.3,-1.1 -2.7,-1.8 -4.2,-2.8 -1.4,-1 -0.7,-1.3 -0.7,-1.8 0,-0.4 0.7,-0.9 1,-1.4 0.2,-0.6 0,-1.8 0,-1.8 l 1.8,-1.8 2,-2.3 c 0.8,-0.6 2,-3.6 2.7,-4.5 0.8,-1 2.5,-2 3.6,-3.4 a 29.7,29.7 0 0 1 11.3,-7.6 c 0,0 -0.1,2.6 1,3.9 1.1,1.3 2.6,-1 7.5,-4.5 5,-3.5 8.6,-4.7 8.6,-4.7 l 2.4,3.3 c 1.3,1.6 2.5,-0.1 8.5,-8.5 4.8,-6.5 11,-12.6 13.5,-14.8 l 1.3,0.6 -0.4,1 c -0.5,1.8 -1.4,3 -2.6,5.3 -1.1,2.4 -3,3 -5,6.2 -2,3.2 -2.4,5.5 -2.6,8.8 -0.2,3.3 1.7,4 1.7,4 0,0 -3,3 -4,5.2 -0.9,2.2 -1.3,6.7 -1.3,6.7 0,0 -0.5,0.2 -1.6,2.5 -1.1,2.3 -3.1,2.6 -6,5.5 -3,3 -6.2,4.2 -7.7,5 -1.5,1 -1,1.9 -0.7,3 0.4,1.2 2.5,2.4 5,3.3 2.3,0.9 3.2,0.5 4.8,0.5 1.7,-0.1 0.4,1.2 -0.3,1.9 -0.7,0.7 -1.6,3.1 -1.5,5.8 0.2,2.7 2.2,2 4.7,1.6 a 28,28 0 0 0 5.3,-1.6 l -0.2,0.8 c -0.3,0.7 -0.4,1.3 -0.4,3.4 0,2.1 0.3,3.2 1,3.7 0.5,0.6 1.8,-0.6 2.7,-0.9 0.9,-0.2 2.4,-1.1 4.6,-1.6 2.2,-0.5 3,-1.5 3,-1.5 0,0 -0.5,0.7 -0.6,2.2 -0.2,1.6 -0.1,3.8 0.2,5.2 a 9.4,9.4 0 0 0 2.9,4.2 c 1.5,1.4 1.8,0.8 3,-1 1,-1.7 3.3,-3.9 3.3,-3.9 l 1.7,5.5 c 1.5,4.9 6.5,9 6.5,9 0,0 5,-4.1 6.5,-9 l 1.6,-5.5 c 0,0 2.3,2.2 3.4,4 1.1,1.7 1.5,2.3 3,1 a 9.4,9.4 0 0 0 2.8,-4.3 c 0.3,-1.4 0.4,-3.6 0.3,-5.2 -0.2,-1.5 -0.7,-2.2 -0.7,-2.2 0,0 0.8,1 3,1.5 2.2,0.5 3.8,1.4 4.7,1.6 0.9,0.3 2.1,1.5 2.7,1 0.6,-0.6 1,-1.7 1,-3.8 0,-2.1 -0.1,-2.7 -0.4,-3.4 l -0.3,-0.8 c 0,0 2.9,1.2 5.4,1.6 2.5,0.5 4.5,1 4.6,-1.6 a 10,10 0 0 0 -1.4,-5.8 c -0.7,-0.7 -2,-2 -0.4,-2 1.7,0.1 2.5,0.5 5,-0.4 2.3,-1 4.4,-2.1 4.8,-3.3 0.4,-1.1 0.9,-2 -0.7,-3 -1.5,-0.8 -4.7,-2 -7.6,-5 -3,-2.9 -5,-3.2 -6,-5.5 -1.1,-2.3 -1.6,-2.5 -1.6,-2.5 0,0 -0.5,-4.5 -1.4,-6.7 -1,-2.2 -4,-5.2 -4,-5.2 0,0 2,-0.7 1.7,-4 -0.2,-3.3 -0.5,-5.5 -2.5,-8.8 -2.1,-3.2 -4,-3.8 -5,-6.2 -1.3,-2.4 -2.2,-3.5 -2.7,-5.2 l -0.4,-1 a 146,146 0 0 1 1.8,-0.8 c 2.4,2.2 8.7,8.2 13.5,14.8 6,8.4 7.2,10.1 8.5,8.4 l 2.4,-3.2 c 0,0 3.7,1.2 8.6,4.7 5,3.5 6.4,5.7 7.5,4.4 0.6,-0.6 0.8,-1.7 0.8,-2.6 a 104,104 0 0 1 11.8,4.2 c 4.3,1.8 4.7,2.8 8.1,5.4 3.4,2.7 8.2,2.5 12.8,1 a 304,304 0 0 0 21.6,-7.5 c 4.9,-2 8.4,-4 9,-4.9 0.4,-1 1,-3.7 1,-4.7 0,-1 -1,-2.4 -1.4,-2.7 -0.4,-0.2 -0.2,-1 -0.1,-1.6 0,-0.6 -0.3,-2.5 -1,-3.3 -0.8,-0.8 -0.7,-1.1 -0.6,-3.5 0.2,-5 -3.4,-11.4 -8.4,-13.4 0,0 -0.2,-0.6 -0.6,-1 l -1,-0.6 v -3.5 c 0,-0.6 0.2,-0.5 0.6,-0.4 0.3,0.2 0.9,0.9 1.7,1.1 0.8,0.2 1.3,-0.4 1.5,-1.3 0.2,-1 0.8,-2.8 1.2,-3.7 0.3,-1 -0.1,-1 -0.5,-1.2 l -2.2,-0.4 c -0.6,-0.1 -0.6,-0.2 -0.4,-0.5 l 1,-2 c 0.8,-1 0.1,-1.1 -0.6,-1.4 a 58.4,58.4 0 0 0 -4.9,-1.3 c -0.9,-0.2 -1,0.6 -1,1 v 2.6 c 0,0.6 -0.5,0.4 -0.9,0.3 a 12.6,12.6 0 0 1 -1.7,-1.2 c -0.7,-0.4 -1,0 -1.3,0.7 l -1.3,4.3 c -0.2,0.9 -0.1,1.5 0.2,1.6 0.3,0.2 2,0 3,0 0.9,0 0.3,0.6 0.3,0.6 l -1.3,2.3 c -0.4,0.7 -1,0.8 -1.8,0.8 h -2 c 0,0 -5.3,0.2 -9.2,3 -3.9,2.8 -5,5.3 -5.6,6.7 -0.6,1.4 -1.3,1.1 -1.9,1.6 -0.6,0.5 -2.3,2.3 -2.3,3.4 0,1.1 0.4,1.7 -1.3,2.8 -1.7,1.1 -3,5.9 -0.8,8.3 2.3,2.5 3.2,5 4,6.2 0.6,1.2 0,1.7 -0.7,1.7 -0.7,0 -1.8,-1 -2.9,-1.8 l -8.5,-6.5 c -2.3,-1.7 -0.6,-1.5 -0.6,-1.5 0,0 0.6,0 1.9,-0.5 1.3,-0.6 1.5,-1.3 0.2,-1.7 a 16.7,16.7 0 0 1 -4.6,-2.6 c -0.7,-0.7 -1,-1.4 0.3,-2.1 1.3,-0.7 4.2,-2.6 2,-3.2 -2.4,-0.7 -5,-1.1 -7.3,-1.8 -2.2,-0.6 -2.4,-1.2 -2.4,-1.2 l 1.5,-2.1 c 0,0 1.1,-1.7 -0.2,-1.9 -1.4,-0.2 -4.8,-0.6 -7.8,-2 A 18.8,18.8 0 0 1 361.8,290 v -0.1 c 1.2,2.2 3.8,6.4 7.8,6.5 5.5,0.2 6.1,-1.5 4.9,-3.3 -1.3,-1.8 -2.7,-3.4 -3,-4 -0.4,-0.5 -0.5,-1.2 1,0.2 1.4,1.3 4,5.9 12.3,5.4 8.2,-0.6 8.2,-2.2 8.2,-2.6 0,-1.6 -1.7,-1.9 -2.7,-2.9 -0.5,-0.5 -0.8,-1.2 0.9,-0.6 1.7,0.6 5.7,1.4 11.3,0.2 2.1,-0.5 8,-3 8.5,-6 0,0 -3.7,-0.2 -6.3,-1.3 -2.5,-1 -4,-2 -1.3,-1.4 2.7,0.5 8,1.6 12.7,0 2.7,-0.9 6.2,-3 6.2,-7.1 0,0 -5,-1 -6.9,-1.8 -1.9,-0.6 -2.5,-1.2 -2.5,-1.2 0,0 7.3,2.3 13.8,-1 6.6,-3.3 6.9,-7.9 6.9,-9 0,-1 -0.2,-1.3 -0.2,-1.3 0,0 -6,1.4 -10.4,1.4 -4.5,0 -5.9,-0.4 -5.9,-0.4 0,0 12.5,-0.4 18.8,-4.2 6.3,-3.9 6.7,-11.5 6.7,-11.5 0,0 -7.1,2.6 -11.6,3.1 -4.5,0.5 -7.2,0.5 -8.3,0.4 -1.1,0 -1.8,-0.4 0.7,-0.5 a 49,49 0 0 0 17.2,-4.8 c 5.3,-3.1 8.6,-9.7 8.9,-12.8 0.3,-3.1 0,-2.6 -2.4,-1 -2.3,1.4 -11,5.9 -16.7,7.2 l -6.8,1.4 c 0,0 -2.2,-0.1 0.7,-0.9 z m -225.2,14.4 -2.5,1.4 -1.3,-2.7 c -0.2,-0.6 -0.1,-0.8 0.2,-0.8 L 198,248 h 0.3 c 0.3,0.7 0.6,1.6 1.1,2.4 h -0.1 z m 76.8,45 a 20.1,20.1 0 0 1 -8.8,7 c -3,1.4 -6.3,1.8 -7.7,2 -1.4,0.2 -0.2,2 -0.2,2 l 1.4,2 c 0,0 -0.2,0.6 -2.4,1.3 -2.2,0.6 -5,1 -7.2,1.7 -2.3,0.6 0.6,2.5 2,3.2 1.2,0.7 1,1.5 0.2,2.1 -0.7,0.7 -3.2,2.2 -4.6,2.6 -1.3,0.4 -1,1.1 0.2,1.7 1.4,0.5 5,1.2 5,1.2 l -2.3,1.8 a 18.9,18.9 0 0 1 -8.7,3 c -2.5,0.1 -6.6,0.3 -11.7,0 l -5.8,-0.3 -0.5,-4.3 a 21.5,21.5 0 0 0 -3,-7.8 l -3.7,-5 0.2,-1.5 c 0.2,-0.8 0,-1.7 -0.5,-3.3 -0.6,-1.5 -3.6,-3.8 -3.6,-3.8 l -0.2,-3.2 c 0,-1.6 -1,-7.7 -2,-10.6 -1,-2.9 -5.7,-10.5 -7.8,-14 a 39.2,39.2 0 0 1 -4.3,-19.8 l 0.5,-1.3 a 12.9,12.9 0 0 0 3.5,3.2 c 6.3,3.8 18.8,4.2 18.8,4.2 0,0 -1.4,0.4 -5.9,0.4 -4.5,0 -10.4,-1.4 -10.4,-1.4 0,0 -0.2,0.3 -0.2,1.4 0,1 0.3,5.6 6.9,9 6.5,3.2 13.8,1 13.8,1 0,0 -0.6,0.5 -2.5,1.1 -1.8,0.7 -7,1.8 -7,1.8 0,4 3.6,6.2 6.3,7.2 4.7,1.5 10,0.4 12.7,-0.1 2.8,-0.6 1.2,0.3 -1.3,1.4 -2.6,1.1 -6.3,1.3 -6.3,1.3 0.6,3 6.4,5.5 8.6,6 5.5,1.2 9.6,0.4 11.2,-0.2 1.7,-0.6 1.4,0.1 0.9,0.6 -1,1 -2.7,1.3 -2.7,2.9 0,0.4 0,2 8.2,2.6 8.2,0.5 11,-4 12.4,-5.4 1.4,-1.4 1.3,-0.7 1,-0.1 -0.4,0.5 -1.8,2.1 -3,4 -1.3,1.7 -0.7,3.4 4.8,3.2 4,0 6.6,-4.4 7.8,-6.6 v 0.1 l 0.3,0.3 a 51.7,51.7 0 0 1 -2.4,5.3 z m 66.4,-178.2 -1.1,-2 c 0,0 3,1.4 5,3.5 1.8,2 1.7,3.2 2,4.2 0.3,1 0,2.9 -0.3,4.7 -0.3,1.7 -0.3,2.8 0.1,3.4 0.3,0.7 0.7,1 0.7,1 l -2.7,0.8 c -1.3,0.6 -3,1 -4,0.2 -0.9,-0.8 -1.1,-1.3 -0.5,-1.8 0.6,-0.5 2.8,-1.2 3,-5 0.3,-3.7 -1.5,-7.6 -2.2,-9 z m -17,10.3 c 0.8,-1.8 1,-3.5 0.5,-7.2 -0.4,-3.1 -1,-5.7 -1.2,-9 0,0 2.3,0.4 5.6,3.4 3.3,3 4,6.1 4,7.6 0,1.5 -0.7,3.4 -0.9,4.8 0,1.5 0.4,2.8 0.4,2.8 0,0 -1.1,0.5 -2.2,1.3 -1.1,0.7 -1.9,1.2 -3.5,1 -1.7,0 -2.7,-0.7 -3.7,-1.2 l -1.5,-0.6 c 0,0 1.9,-1.1 2.6,-3 z m -16,-12.8 a 14,14 0 0 1 5.6,-3.5 c -0.1,3.4 -0.7,6 -1.2,9 -0.5,3.8 -0.3,5.5 0.5,7.3 0.7,1.8 2.6,2.9 2.6,2.9 0,0 -0.6,0 -1.6,0.6 -1,0.5 -2,1.2 -3.6,1.3 -1.7,0 -2.4,-0.4 -3.5,-1.1 A 14,14 0 0 0 306,130 c 0,0 0.5,-1.3 0.4,-2.7 -0.1,-1.5 -1,-3.3 -1,-4.8 0.1,-1.6 0.8,-4.6 4.1,-7.7 z m -11.8,18.3 c -1,0.8 -2.7,0.4 -4,-0.2 l -2.6,-0.8 c 0,0 0.3,-0.3 0.6,-1 0.4,-0.6 0.4,-1.7 0.1,-3.4 -0.3,-1.8 -0.5,-3.7 -0.3,-4.7 0.3,-1 0.3,-2.2 2.1,-4.2 1.9,-2.1 5,-3.6 5,-3.6 l -1.2,2.1 c -0.7,1.4 -2.5,5.3 -2.2,9 0.3,3.8 2.5,4.5 3,5 0.6,0.5 0.4,1 -0.6,1.8 z m 43.8,31.7 c -3.2,1.7 -5,1.3 -5,2.7 0.2,1.3 3.1,2.3 3.1,2.3 0,0 -3,3.2 -5.3,4.6 -2.3,1.5 -5,2.4 -5,2.4 0,0 -1,0.2 -0.4,1.6 a 5.4,5.4 0 0 0 2.2,2.9 l 1.1,0.5 c 0,0 -4,4.3 -5.8,5.7 a 15.3,15.3 0 0 1 -4.3,2.5 c -1.4,0.6 -0.7,3 -0.4,4 0.4,1 1.6,2.5 2.4,2.7 0.7,0.2 1,0.8 0,2.2 -0.7,1.1 -3,4 -4,5.6 H 320 l -4.2,-5.6 c -0.9,-1.4 -0.6,-2 0,-2.2 0.8,-0.2 2,-1.6 2.4,-2.7 0.3,-1 1,-3.4 -0.4,-4 a 15.2,15.2 0 0 1 -4.2,-2.5 80.2,80.2 0 0 1 -5.8,-5.7 l 1,-0.5 a 5.4,5.4 0 0 0 2.3,-2.9 c 0.5,-1.4 -0.4,-1.6 -0.4,-1.6 0,0 -2.7,-1 -5,-2.4 -2.4,-1.4 -5.4,-4.6 -5.4,-4.6 0,0 3,-1 3,-2.3 0.2,-1.4 -1.6,-1 -4.9,-2.7 -3.2,-1.8 -4.3,-4.1 -4.3,-4.1 0,0 3.8,-1.3 5.7,-5 a 7,7 0 0 0 0.7,-3.6 h 0.1 c 6,2 13.1,2.8 19.4,2.8 a 63,63 0 0 0 19.3,-2.8 h 0.2 a 7,7 0 0 0 0.7,3.6 c 1.9,3.7 5.6,5 5.6,5 0,0 -1,2.3 -4.3,4 z" id="path6"></path><path fill="#d4af3a" d="m 361.2,237.8 c 0,-10.2 4.7,-16.7 4.7,-16.7 l -12.7,-14.6 c -12.2,4.7 -23.3,5 -33.2,0 -9.9,5 -21,4.7 -33.1,0 L 274,221.1 c 0,0 4.7,6.5 4.7,16.6 0,10.1 -2,17.8 -3.1,22.7 -1.2,5 -2.1,14.1 0.5,20.7 a 26.3,26.3 0 0 0 16.7,17 c 11.3,4.8 17.3,7.3 21.2,10.6 4,3.2 5.9,5.9 5.9,5.9 0,0 2,-2.7 6,-6 3.9,-3.2 9.8,-5.7 21,-10.4 a 26.4,26.4 0 0 0 16.8,-17.1 c 2.7,-6.6 1.7,-15.8 0.5,-20.7 -1.1,-5 -3,-12.5 -3,-22.6 z" id="path8"></path><path fill="#b96b29" d="m 357.2,242 c -1.6,-9.8 4,-18.3 4,-18.3 l -10.9,-12.8 c -8.4,4.7 -20.1,4.1 -30.3,-0.6 -10.1,4.7 -21.8,5.3 -30.2,0.6 l -11,12.8 c 0,0 5.7,8.5 4,18.3 -1.5,9.7 -5,25 -4.1,31.3 0.9,6.3 5.3,13.6 9.8,17.4 a 58,58 0 0 0 16.2,8.7 46.7,46.7 0 0 1 15.3,10 c 0,0 1.5,-1.5 3.7,-3.2 2.3,-1.7 7,-5 11.7,-6.8 a 59,59 0 0 0 16.1,-8.7 c 4.6,-3.8 9,-11.1 9.9,-17.4 0.8,-6.3 -2.6,-21.7 -4.2,-31.4 z" id="path10"></path><path fill="#1d5e91" d="m 356.1,243.1 a 32.5,32.5 0 0 1 3.2,-19 l -9.8,-11 c -8.4,4.4 -18.5,3.3 -29.5,-0.6 -11,3.9 -21.1,5 -29.4,0.7 l -9.9,11 c 0,0 4.7,8.4 3.2,18.9 -1.5,10.5 -4,22.4 -3.6,29.4 l 0.2,1.4 h 9 c 0,0 0.5,-0.6 1.5,-1 1,-0.4 1.3,-0.7 1.3,-0.7 0,0 0.2,-1.8 1.2,-2.2 1.1,-0.4 1.6,-0.4 2,-0.4 0.5,0 0.8,-0.1 1.3,-0.6 0.5,-0.6 2,-1.8 2.6,-3.6 0.6,-1.9 1,-2.6 1,-3.8 0,-1.2 0.4,-3 0.4,-3 0,0 -0.2,-0.6 -1.1,-0.3 -1,0.3 -1,-0.6 -1.2,-1.5 0,-0.9 0,-2.7 0.5,-3.6 l 0.7,-1.1 -0.4,-1.5 c 0,0 -5.7,1.2 -6.7,-3.3 -1,-4.5 -1.1,-6.5 -1.3,-7 -0.1,-0.5 -0.3,-0.7 -1,-0.7 -0.8,0 -2.4,-0.4 -3.6,-2.7 -1,-2.3 -1.2,-3.3 -0.8,-4.2 0.3,-0.9 0.9,-0.5 1,-0.3 0.3,0.3 1.8,2.5 2.4,1.9 0.6,-0.6 0.3,-0.6 -0.6,-2.3 -0.8,-1.8 -0.5,-2.3 -0.4,-3.2 l -0.3,-2.5 c 0,-0.4 0.5,-0.8 1,-0.6 0.6,0.3 1,0.6 1.3,1 0.2,0.2 0.3,0.6 0.8,0.4 0.5,-0.3 0.2,-1.9 0.2,-2.4 0,-0.6 0.6,-1 1.3,-0.5 a 2.2,2.2 0 0 1 1.2,1.8 c 0,0.6 0,1.1 0.3,1.1 0.3,0 0.6,-0.9 0.7,-1.4 0,-0.6 0.4,-1.5 0.9,-0.7 0.5,0.7 0.7,1.7 0.5,2.8 -0.2,1.1 0.2,0.5 -0.2,2.4 -0.4,2 -0.6,2.8 -0.5,4.2 0,1.5 0,2.3 0.8,4 0.7,1.8 1.3,3.8 2.6,3.9 h 1.7 c 0,0 1.5,-2.8 2.6,-3.5 1.2,-0.6 2.8,-0.7 4,-0.9 1,-0.1 1.5,-0.5 1.5,-0.8 0,-0.2 -0.3,-0.3 -1.7,-0.5 -1.4,-0.2 -2.5,-0.5 -2.6,-1.6 0,-1 0.3,-2 -0.6,-2 -1,0 -3.2,-0.8 -4,-2.2 -0.8,-1.5 -0.6,-1.8 -0.5,-2.7 0,-0.8 1.1,-2.4 1.8,-0.9 0.7,1.6 1.1,1.8 1.7,2 0.5,0.4 1.3,0.5 1,-0.5 -0.5,-1 -0.7,-1.7 -0.6,-2.5 0,-0.8 0.6,-1.1 1.2,-1.2 l 3.4,-1 1,-0.2 c 0,0 0.1,-0.7 1.4,-1 a 9,9 0 0 1 3,-0.5 c 0.8,0 1.5,0.1 2.7,-0.4 a 5.7,5.7 0 0 1 2.9,-0.7 3.7,3.7 0 0 1 1.9,0.8 c 0.5,0.3 0.4,0.9 0.4,1.4 0,0.5 0,0.8 0.8,0.8 0.9,0 1.6,0 2.3,0.3 0.8,0.3 1.8,0.7 1.2,1.5 -0.7,0.8 -0.7,1.7 -1.2,1.7 -0.4,0 -0.4,0.4 -0.5,0.7 -0.2,0.3 -0.4,0.5 0.1,0.8 0.5,0.3 0.5,0.6 1.2,1.2 0.6,0.6 1.6,1.3 0.6,2.3 -1,1 -2.7,1.8 -2.7,1.8 0,0 -1,0.5 0.1,1.1 1.2,0.7 1.7,2 2.1,2.3 l 1.2,0.8 c 0.3,0.1 0.2,1 0.2,1 l -1.5,0.8 c -0.8,0.4 -1.7,0.8 -2.5,0.8 -0.8,0 -1.3,0 -1,0.7 0.4,0.8 1,1.6 1.1,2 l 0.3,1.2 c 0,0 1.4,0.3 2.6,0.3 l 4.3,-0.2 c 2.6,-0.3 3.4,-0.4 5.9,-0.1 2.5,0.2 2.9,0.2 3.5,0.4 l 1.4,0.6 c 0,0 3.5,0 5.5,-0.5 2,-0.4 2.4,-1.7 2.1,-2.4 -0.3,-0.6 -0.2,-1.6 -3.6,-2 -3.5,-0.6 -4.8,-0.4 -7.5,-0.9 -2.8,-0.5 -7,-1.9 -7.7,-5.3 -0.8,-3.4 2,-4.8 3.3,-5.5 l 5.8,-2.3 c 1.4,-0.5 3.9,-1 6.5,-0.7 2.7,0.4 4.2,1 5.3,0.5 1,-0.7 1.9,-0.2 1.7,0.8 -0.2,1 -1.3,2.9 -4.3,3.8 -3,0.9 -6.6,1 -8.5,0.5 -2,-0.6 -3.4,-1.3 -4.6,-0.9 -1.2,0.4 -2.5,1.9 -1.3,3.7 1.3,1.7 7.9,2.3 9.6,2.4 1.8,0.2 8.3,-0.2 10.2,3 1.8,3.2 0.3,6.9 -1.8,7.7 a 29,29 0 0 1 -5.7,1.5 l -1.7,0.3 c 0,0 0.8,1.7 0.8,2.4 0,0.7 -0.1,2 0.7,2.6 0.8,0.5 2,0.9 3.3,0.7 1.4,-0.1 3,0.8 3.1,2 0.1,1.3 0.5,3 0.6,5.5 0.2,2.5 0,4.5 0,4.5 0,0 0,1 -0.4,1.9 -0.3,1 -2,4.4 -2,4.4 h 9.5 l 0.2,-1.4 c 0.4,-7.1 -2,-19 -3.6,-29.5 z" id="path12"></path><path fill="#6d8c3e" d="m 281.6,278.6 a 27.4,27.4 0 0 0 11.6,14.3 c 8.2,5 11.8,4.3 19.5,9.3 7.7,5 7.2,5.8 7.3,5.8 0.1,0 -0.4,-0.8 7.3,-5.8 7.7,-5 11.3,-4.4 19.5,-9.3 a 27.4,27.4 0 0 0 11.6,-14.3 h -76.7 z" id="path14"></path><path fill="#d4af3a" d="m 288.3,237.2 c 0.9,1 1.5,1.2 2.9,1 1.3,0 1.7,0.9 1.9,2 0.2,1 0.2,3.5 1.2,5.8 1,2.3 4.2,2.5 4.2,2.5 0,-1.1 0.5,-2.6 1,-3.9 0,-0.2 0.5,-1.2 -0.7,-1.2 -1.2,0 -1.1,-0.5 -1.8,-1.6 -0.7,-1 -2,-4 -2.4,-6 a 16,16 0 0 1 0.6,-5.7 c 0.4,-1 0.4,-1.7 0,-1.9 h -1 c 0,0 0.2,1 -0.1,1 -0.3,0.2 -0.6,-0.4 -0.8,-1 -0.3,-0.7 -0.5,-0.6 -1,-0.6 -0.5,0 -0.5,0.5 -0.1,1 0.3,0.4 0.1,1.3 0.1,1.3 l -1.4,-1 c -0.5,-0.2 -1.4,0.2 -1.5,0.8 -0.1,0.5 0.3,2 1.2,2.7 0.9,0.7 1,2.2 0.6,3 -0.2,0.6 -1.5,0.5 -1.8,0.2 a 0.8,0.8 0 0 0 -1.2,0 c -0.4,0.5 -0.8,0.7 0.1,1.6 z m -0.5,-2.5 -0.7,-0.6 a 35.1,35.1 0 0 1 -0.5,-0.7 l -0.1,0.7 c 0,0.5 0.6,1.2 0.6,1.2 z m 2,-6.4 c 0.4,-0.1 0.7,-0.2 0.4,-0.7 -0.4,-0.5 -0.6,-1 -1,-1 -0.3,-0.2 -0.6,-0.1 -0.6,-0.1 l 0.5,1.3 c 0,0.5 0.2,0.7 0.6,0.5 z m 2.4,-2 c 0,0.5 0,0.7 0.4,0.5 0.4,-0.2 0.5,-0.7 0.3,-1 a 2,2 0 0 0 -0.6,-0.7 l -0.3,-0.2 c 0,0 0.2,1 0.1,1.5 z m 3.4,0.6 -0.1,-1 c 0,0 0,0.6 -0.3,1 -0.2,0.3 -0.1,0.2 0,0.5 0.3,0.2 0.4,0 0.4,-0.5 z m 5.4,23.5 c 0.7,1.6 2.4,-0.9 4,-2.9 1.6,-2 1.5,-0.4 1.3,1.2 a 7.6,7.6 0 0 0 1,4.5 c 0.7,1 1.2,0.4 1.5,-0.4 0.2,-0.7 0.5,-2.4 1,-3.2 0.5,-0.7 1,0 1,0.6 0.1,0.7 1,2.2 1.7,3.1 0.8,1 1.2,-0.3 1.5,-1.4 l 0.7,-3.5 c 0.2,-0.6 1,0 1,0 l 1.6,1.5 c 1,1 1.1,-0.6 1.2,-1.4 0.1,-0.8 -0.1,-2.5 0.2,-2.8 0.3,-0.3 1.2,0.4 2.5,1 1.4,0.7 1.3,-0.6 1.2,-1.3 a 7.4,7.4 0 0 0 -2,-3.4 c -1.2,-1 -1.3,-2 -1,-2.5 0.4,-0.5 1.7,0 2.6,-0.1 l 1.8,-0.3 c 0.7,-0.2 0.7,-0.8 0.7,-0.8 0,0 -0.5,-0.8 -1.4,-1.6 -0.9,-0.8 -1.4,-1.4 -2.5,-1.6 -1.1,-0.3 -2.6,0 -2.6,0 l -0.2,-0.4 c -0.1,-0.3 -0.4,-0.3 -0.6,0 l -1.2,1.1 c -0.4,0.4 -0.7,0.6 -1,0.5 -0.2,-0.2 0.3,-0.6 0.3,-0.6 0,0 0.5,-0.4 1,-1.4 0.6,-1 0.7,-2 0.3,-2.6 -0.4,-0.4 -1.5,0 -2.2,0 -0.6,0 -1,0.2 -1,-0.2 0,-0.3 0.6,-0.1 1.4,-0.2 0.8,-0.1 1.3,-1 1.5,-1.9 0.2,-0.9 0.5,-0.6 1,-0.2 0.4,0.5 0.9,0.4 1,0 l 1,-1.8 c 0.5,-0.8 0.8,-1.9 0.3,-2.6 -0.6,-0.8 -2,-0.7 -2.6,-0.2 -0.6,0.5 -1,1 -1.1,2.1 -0.2,1.2 -0.5,0.5 -0.5,0.2 0,-0.4 -0.4,-1 -0.2,-1.5 0.2,-0.4 0,-1 0,-1 0,0 -0.1,-1 -1.2,-1.1 a 8.6,8.6 0 0 0 -3.5,0.3 c -1,0.2 -0.9,1.2 -0.9,1.2 l -1.7,0.1 c -0.9,0.1 -2,0.5 -2.8,0.7 -0.8,0.2 -1.1,0.3 -1.1,0.7 l 0.1,1.1 c 0,0 0.7,0 1,0.3 0.3,0.3 0.2,0.5 -0.2,0.7 -0.4,0.2 -0.6,0.2 -0.6,0.7 0,0.5 0.2,0.7 0.7,0.7 0.4,0 1.3,0 2.3,0.4 1,0.4 1.3,1.4 1.2,2 0,0.5 -1.5,1.2 -2.3,1.2 -0.8,0 -1,0.1 -1,0.6 0,0.5 1,0.4 1,0.4 l 2.6,0.3 c 1.7,0.2 2,0.6 2.8,1.2 0.7,0.7 0.2,0.9 -0.2,1 -0.4,0.3 -1,0.8 -1.5,1 -0.6,0.2 -1,0.6 -1.5,0.7 -0.5,0.1 -1.8,0 -4.2,1 -2.4,1 -3.3,4.1 -3.3,4.1 l 1.4,-0.7 c 1.1,-0.5 2.5,-1.2 3.8,-2 1.2,-0.7 1.2,0.4 0.6,1.5 -0.6,1.1 0.6,0.9 1,0.6 l 2,-1.3 c 1.2,-0.6 0.8,0.4 0.8,0.4 0,0 -0.4,0.7 -0.5,2.5 -0.1,1.7 1.7,0 2.5,-1 0.9,-1.1 1.2,0 0.6,1.2 -0.6,1.3 -1.8,2.3 -2.5,2.3 -0.7,0 -1.2,-0.8 -1.3,-1.2 0,-0.4 0.3,-1.7 -0.1,-2 -0.5,-0.3 -1.7,0 -2.6,0.6 -0.9,0.5 -1,0.1 -1.3,-0.4 -0.2,-0.4 0.3,-0.6 0.1,-1 -0.2,-0.2 -0.6,0 -1,0.2 l -2.8,1.5 c -1.7,0.9 -1.6,1.3 -1.6,2.5 0,1.2 0.3,1.5 1,3 z" id="path16"></path><path fill="#d4af3a" d="m 316.7,224.2 1,-0.5 1.5,-0.3 c 0.7,0 0.6,-0.5 0.4,-0.8 -0.1,-0.4 -0.4,-0.5 -1.4,-0.5 -0.9,0 -1.5,0.5 -2,0.7 l -1.1,0.4 0.4,0.6 c 0.4,0.5 0.9,0.6 1.2,0.4 z m 3.8,3.7 0.8,-0.2 1.3,-0.6 c 0.6,-0.2 0.8,-0.3 1.2,-1 0.4,-0.8 -0.4,-0.8 -1.5,-1 -1,-0.3 -1.6,0 -1.7,0.5 -0.1,0.4 0,0.8 -0.5,1.6 -0.5,0.8 0,0.7 0.4,0.7 z m -0.3,1 c -1,0 -2.3,1.5 -2.7,1.8 -0.4,0.3 -0.2,0.6 -0.2,0.6 l 0.4,1.2 c 0.2,0.7 0.2,1.7 0.2,1.7 h 0.8 c 0.6,0 1,-0.2 1.6,-0.7 a 4,4 0 0 1 1.8,-0.7 c 0.9,-0.2 1.3,-0.3 2.2,-0.8 1,-0.5 -0.5,-1.4 -1.5,-2.2 a 3.7,3.7 0 0 0 -2.6,-1 z m -14,3.6 c 0.8,-0.1 1.2,-0.5 1.2,-1 0,-0.5 -0.4,-1 -1.5,-0.9 -2.6,0.3 -5.1,-0.7 -5.6,-3.2 0,0 -0.8,1.6 0.8,3.4 1.6,1.8 4.3,1.8 5.1,1.7 z m -8.9,41 0.5,0.4 h 4 c 0.7,-0.2 0.7,-0.8 0.7,-1.2 0,-0.5 0.4,-2 1,-4.7 0.5,-2.6 1.5,-4.5 1.9,-5.6 0.4,-1 -0.4,-1.4 -0.7,-2 l -0.8,-2.5 c -0.1,-0.6 -1,-0.5 -1.6,-0.5 -0.5,0 -0.6,0.9 -0.7,1.7 0,0.8 -0.4,3.1 -0.8,5.1 -0.4,2 -2.7,4.7 -3.3,5.3 -0.6,0.6 -1.2,0.8 -1.6,0.8 -0.4,0 -1.4,0 -1.8,0.3 a 2.4,2.4 0 0 0 -1,1.6 c 0,0.6 0.9,1 0.9,1 l 1,-0.8 c 0.3,-0.4 1,-0.5 1.5,-0.6 0.7,-0.1 0.7,0.1 0.5,0.4 -0.2,0.3 -0.1,0.4 0.3,1.2 z m -6,-0.2 c -0.4,0 -0.6,0.4 -0.7,0.6 h 2.6 a 1.4,1.4 0 0 0 -0.3,-0.7 c -0.3,-0.3 -1.1,-0.1 -1.7,0 z" id="path18"></path><path fill="#d4af3a" d="m 294.8,273.2 a 3,3 0 0 0 -1,0.7 h 2.9 c 0,-0.2 0.1,-0.6 -0.2,-0.9 -0.7,-0.5 -1.3,0 -1.7,0.2 z M 319,272 c -0.3,0 -0.6,0.3 -1,0.6 -0.5,0.3 -0.6,0.8 -0.7,1.2 a 0.3,0.3 0 0 0 0,0.1 h 1.3 a 0.2,0.2 0 0 0 0,-0.1 c 0,-0.4 0.2,-0.7 0.7,-1.1 0.5,-0.5 0,-0.7 -0.3,-0.7 z m 2.3,1.3 c 0,-0.4 -0.1,-0.7 -0.4,-0.7 -0.2,0 -0.7,0.5 -1,0.8 a 2.4,2.4 0 0 0 -0.5,0.5 h 1.7 z" id="path20"></path><path fill="#d4af3a" d="m 332.3,260.4 c 0.8,-0.6 0.7,-0.8 0.7,-1.5 0,-0.6 0,-0.8 -0.3,-1 a 5.9,5.9 0 0 0 -2.8,-0.8 c -1.1,0 -3.4,0.3 -4.2,0.8 -0.9,0.6 -1.3,2.7 -1.3,3.8 0,1 0.2,1.2 0.5,1.2 0.3,0 0.8,-0.8 0.8,-0.8 l 1.8,2.5 c 0.7,1 0.4,1.4 0,2.2 -0.2,0.8 -1.4,2.9 -2.2,3.3 -1,0.5 -1.6,0 -2.6,-0.1 -1.1,-0.2 -1.7,0.1 -2.3,0.7 -0.6,0.6 0,1.1 0.4,1.1 0.3,0 0.8,0 1.2,0.5 0.3,0.3 0.1,1.2 0,1.6 h 5.2 c 0.9,-0.4 1.5,-1.6 1.7,-2.3 0.3,-0.7 1.4,-1.7 2,-2.2 0.5,-0.5 0.5,-0.8 0.5,-2 0,-1.2 -0.2,-1.7 -0.6,-2.5 -0.5,-0.8 -0.8,-2 -0.6,-2.6 0,-0.7 1.2,-1.4 2,-2 z" id="path22"></path><path fill="#d4af3a" d="m 323.7,247.4 c 0.6,0.9 0.3,1 -0.4,1.2 a 8.5,8.5 0 0 1 -2.8,0.2 c -1.1,-0.1 -1.1,0 -1.1,0.6 a 5,5 0 0 1 -0.8,2.7 c -0.7,1 -1.6,0.6 -2,0.2 -0.6,-0.3 -0.9,-0.2 -1,0.4 l -1.2,2.1 c -0.5,1 -0.9,1 -1.3,0.9 -0.4,-0.1 -0.7,-0.7 -1.1,-0.7 -0.4,0 -1,-0.8 -1.6,-1.8 -0.6,-0.9 -0.9,0.1 -1.3,1 -0.4,0.8 -0.7,1.3 -1.5,1.2 -0.7,0 -1.6,-1.5 -2,-2.3 -0.4,-0.8 -0.7,-1.6 -1.3,-1.6 -0.7,0 -1.7,1.4 -2.4,1.7 -0.7,0.4 -1,0.3 -1.3,-0.2 -0.3,-0.4 -0.7,0.2 -1.1,1.2 -0.4,1.1 0,2 0.6,2.3 0.6,0.3 1.7,-0.5 2.5,-1 0.8,-0.6 1.1,-0.5 2,-0.5 0.8,0 0.7,1.4 1,3.3 0.4,2 1.5,2.2 1.5,2.2 0,0 0.4,0.3 1.3,-1.1 0.9,-1.5 1,-3 1.8,-3 0.9,0 1,0.2 1.8,1.4 0.8,1.1 1.5,2 2,1.1 0.5,-0.8 0.9,-2.1 1.5,-2.6 0.5,-0.4 1,-0.6 0.4,0.3 -0.5,0.8 -0.8,1.7 0.4,1.4 1.2,-0.4 5.7,-2.2 7.6,-2.6 l 4.7,-0.5 4,-0.3 c 1,0 1,0 1.1,-0.7 0,-0.7 -0.5,-0.5 -2.3,-0.5 -1.8,0 -3,0.2 -4.3,0.4 -1.3,0.2 -1.8,0.2 -1.6,-0.2 0.2,-0.3 0.6,-0.5 2,-0.7 a 58,58 0 0 1 6,-0.5 c 1.6,0 1,0.5 1,1.5 -0.2,1 0,2.6 0.2,3.5 0,1 0.1,1.3 1,2.7 0.9,1.4 3.7,2.2 4.5,2.6 0.9,0.5 0.7,0 0.7,-0.8 0,-0.8 0.7,-0.8 1.4,-0.3 0.7,0.4 2,0.7 2.9,1 0.8,0.2 1,0.4 1,0.8 0,0.5 0,1.5 0.2,2.4 0,1 0,1.2 -0.4,1.8 l -2,2.3 c 0,0 -0.8,0 -2.3,0.4 -1.6,0.3 -2.1,1.1 -2.3,1.7 -0.1,0.7 0.3,0.9 0.4,1.1 v 0.8 h 0.4 c 0,-0.2 0.3,-0.5 0.5,-0.8 0.6,-0.7 2,-0.9 2.9,-0.5 0.6,0.3 0.6,1 0.5,1.3 h 3.6 l 2,-3.9 a 6,6 0 0 0 0.6,-2.6 c 0,-1.2 0.2,-5.8 0,-6 -0.3,-0.3 0,-1.1 0,-2.4 -0.1,-1.3 0,-2.3 -2.4,-2.5 -2.4,-0.2 -3.2,-1.2 -4,-2 -0.8,-0.8 -0.6,-2.7 -1.2,-5 -0.7,-2.2 -2.3,-2.6 -5,-3.1 a 23.3,23.3 0 0 0 -7,-0.5 c -2.2,0.2 -4.8,0.5 -6.2,0.4 -1.5,-0.2 -1.2,0.2 -0.7,1 z" id="path24"></path><path fill="#d4af3a" d="m 337.3,273.4 -0.5,0.5 h 2.4 a 1,1 0 0 0 -0.2,-0.7 c -0.4,-0.4 -1,-0.2 -1.7,0.2 z m 4.4,-0.2 a 2.2,2.2 0 0 0 -0.8,0.7 h 2.5 a 1,1 0 0 0 0,-0.3 c -0.1,-0.4 -0.9,-0.8 -1.7,-0.4 z m -61,1.6 a 24.1,24.1 0 0 0 0.5,2.3 h 77.6 l 0.6,-2.3 H 280.6 Z M 333,237.7 c 2.4,1.6 10.2,1.7 13.9,2.4 3.6,0.8 3.4,3.6 2.3,5 -1.2,1.5 -6.3,1.7 -7.2,1.8 0.5,0.3 1.2,1.4 1.2,1.4 l 2.1,-0.2 a 11,11 0 0 0 6.1,-2 c 1.9,-1.6 1.8,-4 0.1,-5.8 -1.6,-1.6 -4.3,-1.8 -7,-2.1 -2.8,-0.3 -5,-0.5 -8,-1 -3.2,-0.6 -4.7,-1.8 -4.7,-3.6 0,-1.8 1.7,-2.8 2.9,-3.1 1.2,-0.4 3.1,-0.9 4.9,-0.2 1.7,0.6 3.7,0.7 7.1,0.3 3.4,-0.5 4.2,-2.8 4.2,-2.8 0,0 -0.4,0.2 -2.2,0.2 -1.7,0 -3,-0.7 -6,-0.7 -3.2,0 -4.3,1 -5.8,1.6 -1.5,0.5 -5.4,0.9 -6.5,3.4 -1.2,2.5 0.1,3.7 2.6,5.4 z" id="path26"></path><ellipse cx="312.60001" cy="226" fill="#b96b29" rx="1.5" ry="1.4" id="ellipse28"></ellipse><path fill="#b96b29" d="m 344,228.4 c -2,-0.2 -4.5,0.4 -4.5,0.4 0,0 0.5,0.4 1.2,0.3 0.6,0 1.8,0 3.7,0.3 1.9,0.3 3.2,-0.6 3.2,-0.6 z" id="path30"></path><path fill="#1d5e91" d="m 325.6,264.6 c -0.5,-0.8 -0.6,-0.7 -1.2,-0.2 -0.5,0.4 -1,-1.2 -1.1,-2.2 l 0.4,-4.1 c 0,0 -2.6,0.5 -4,1 l -4,0.9 c -1.1,0.2 -1.8,0.5 -2.4,0.4 -0.6,-0.2 -1.9,-0.2 -2.9,-0.2 -1,0 -1,0.2 -2,1.2 -1,1 -1.3,1.5 -2,3.4 a 20,20 0 0 0 -1.4,6 15.6,15.6 0 0 1 -0.7,3.1 h 12.2 l 0.5,-1.2 a 3,3 0 0 1 1.4,-1.4 c 0.5,-0.2 1,-0.2 1.2,-0.8 0.2,-0.5 0.8,-1 1.4,-1.2 0.7,-0.3 1.8,-0.2 2.8,0.1 1,0.3 1.4,-0.4 1.7,-0.8 0.3,-0.4 0.4,-1 1,-1.6 0.5,-0.7 0,-1.3 0,-1.3 l -1,-1.1 z m 19.5,0.3 c -0.1,-0.7 0,-0.8 -0.5,-0.9 -0.4,0 -1.1,-0.2 -1.7,-0.5 -0.6,-0.2 -0.5,1.4 -0.5,1.4 0,0 -1.5,0.2 -3.1,0 -1.6,-0.2 -3.5,-1.7 -4.2,-2.2 a 5.5,5.5 0 0 1 -1.4,-1.5 l -1,0.7 c -0.5,0.3 -0.8,1.3 -1,2.4 0,1 1.3,2.2 1.4,3.2 0,1 -1.2,3.1 -1.8,4 a 9,9 0 0 0 -1.2,2.4 h 5.9 a 3,3 0 0 1 0.6,-1 c 0.6,-0.6 1.6,-0.7 1.6,-0.7 l 0.2,-0.8 c 0.2,-0.5 0.9,-1.2 2.3,-1.8 1.5,-0.5 3.3,-0.6 3.3,-0.6 0,0 0.7,-0.6 1.2,-1.4 0.5,-0.8 0,-2 0,-2.7 z" id="path32"></path><path fill="#d4af3a" d="m 296.2,329.6 c 1.1,0.4 3.2,-0.4 4.2,-1.6 1,-1.3 1.4,-3.2 2.1,-4.3 l 1.3,-1.9 c 0,0 -0.2,1.8 -1.2,4.3 a 15.5,15.5 0 0 0 -0.8,6.8 c 0.4,2.7 2.2,3.1 3.2,2.7 0.8,-0.2 2,-1.4 3,-3.2 l 1,-2 c 0.6,-1.3 1.2,-3.5 1.5,-3.4 0.7,0.1 0.3,1.6 0,2.6 -0.5,2 -1.5,5 -1.6,7 0,1.7 0.2,5 2,5.2 1.8,0.1 2.8,-1.5 3.8,-5.2 1,-3.7 1.2,-5 1.7,-5 0.4,0 0.4,2.6 0.4,3.7 a 18.2,18.2 0 0 0 1.6,7.4 c 0.9,0.8 1.6,0.7 1.6,0.7 0,0 0.7,0.1 1.6,-0.7 0.9,-0.8 1.6,-6.3 1.6,-7.4 0,-1 0,-3.6 0.5,-3.6 0.5,0 0.6,1.2 1.6,4.9 1,3.7 2,5.3 3.8,5.2 1.9,-0.2 2,-3.5 2,-5.3 0,-1.8 -1.1,-4.8 -1.6,-6.9 -0.5,-2 0.2,-1.9 1.6,0.8 l 1.3,2.5 c 1,1.6 2,2.5 2.6,2.7 1,0.4 2.8,0 3.2,-2.7 0.5,-2.7 -1.6,-10.5 -1.6,-10.5 l 1,1.3 c 0.7,1.1 1,3 2,4.3 1,1.2 3.1,2 4.2,1.7 1,-0.4 1.2,-2.4 0.4,-6.1 -0.8,-3.7 -4,-5.7 -6.4,-8.6 a 31.6,31.6 0 0 1 -4,-8.2 27,27 0 0 0 -7.9,5.6 l -5.9,6.3 c 0,0 -1,-1.3 -5.8,-6.3 a 27,27 0 0 0 -8,-5.6 c -0.2,0.6 -2.2,5.2 -4.4,7.9 -1,1.3 -2.5,2.3 -3.6,3.6 a 12.4,12.4 0 0 0 -2.4,5.3 c -0.8,3.6 -0.6,5.7 0.5,6 z" id="path34"></path><path fill="#d4af3a" d="m 296,342 c 1.5,-1.2 2.2,-2 2.2,-2 0,0 1,-0.8 0.8,0.9 -0.3,1.6 -0.8,5 -0.5,6.4 0.4,1.4 0.5,2.7 2.3,1.6 1.8,-1 2.3,-1.7 3.1,-2.6 0.9,-0.9 1.8,-1.3 1.6,0.1 -0.3,1.4 -0.9,3.6 -0.6,6.4 0.3,3 1.7,3.3 3.6,0.9 a 32.3,32.3 0 0 0 3.5,-5.9 c 0.5,-1.2 1.6,-2.2 1.6,0 0,4.8 1.1,11.8 6.4,13.6 5.3,-1.8 6.4,-8.8 6.4,-13.6 0,-2.2 1.1,-1.2 1.7,0 a 32.4,32.4 0 0 0 3.5,5.9 c 1.8,2.4 3.2,2 3.5,-0.9 0.3,-2.8 -0.3,-5 -0.5,-6.4 -0.2,-1.4 0.6,-1 1.5,-0.1 0.9,0.9 1.3,1.5 3,2.6 1.9,1 2,-0.2 2.4,-1.6 0.3,-1.5 -0.2,-4.8 -0.5,-6.4 -0.2,-1.7 0.8,-0.8 0.8,-0.8 l 2.1,2 a 6,6 0 0 0 3.4,1.2 c 0,0 0.9,-5 -1.2,-8 -2,-3 -2.9,-4 -2.9,-4 0,0 -1.1,0 -2,-0.4 -1,-0.3 -1.8,-1 -1.8,-1 v 2.8 l 3.1,3.1 c 0.6,0.8 1.8,2 0,0.8 a 50.5,50.5 0 0 1 -3.1,-2.4 c 0,0 -0.4,2.5 -1.1,3.2 -0.7,0.6 -1.8,0.7 -2.2,0.5 l -0.4,-0.1 -0.2,1 c 0,0 1.6,3 1.8,4.1 0.3,1.2 0,1 -0.8,-0.5 -0.7,-1.5 -2.2,-3.5 -2.8,-4.5 -0.6,-1.1 -1.6,-1.8 -1.5,-0.5 0.1,1.4 -0.5,3.9 -1,4.8 -0.4,0.9 -0.7,1.2 -0.7,1.2 l 1.1,4 c 0.1,0.7 0,1.5 -0.5,0.6 -0.6,-0.8 -2.1,-4.2 -2.1,-4.2 0,0 -2.1,0 -2.7,-0.7 -0.6,-0.6 -1.6,-2.9 -1.6,-2.9 0,0 -0.8,3 -1.5,4 -0.7,0.9 -2.4,1.8 -2.4,1.8 l -0.2,6 c -0.2,1 -0.2,1.3 -0.6,1.3 -0.4,0 -0.4,-0.4 -0.5,-1.3 l -0.3,-6 c 0,0 -1.6,-1 -2.3,-1.9 -0.7,-1 -1.6,-3.9 -1.6,-3.9 0,0 -1,2.3 -1.5,3 -0.6,0.5 -2.7,0.6 -2.7,0.6 0,0 -1.6,3.4 -2.2,4.2 -0.5,0.9 -0.6,0.1 -0.5,-0.5 l 1.1,-4.1 c 0,0 -0.3,-0.3 -0.7,-1.2 -0.5,-1 -1,-3.4 -1,-4.8 0.1,-1.3 -0.8,-0.6 -1.5,0.5 -0.7,1.1 -2,3 -2.8,4.5 -0.8,1.5 -1,1.7 -0.8,0.5 0.2,-1.2 1.8,-4.1 1.8,-4.1 l -0.1,-1 -0.5,0.1 c -0.4,0.2 -1.4,0.1 -2.2,-0.5 -0.7,-0.6 -1,-3.2 -1,-3.2 l -3.2,2.4 c -1.8,1.2 -0.6,0 0,-0.8 l 3.2,-3.1 v -2.8 c 0,0 -1,0.7 -1.8,1 -1,0.4 -2.1,0.4 -2.1,0.4 l -2.9,4 c -2,3 -1.2,8 -1.2,8 0,0 2,0 3.4,-1.3 z m 25.8,33.5 -1.8,-2.5 c 0,0 -0.4,0.8 -1.8,2.4 a 43,43 0 0 1 -4.5,4 c 0,0 0.3,4.2 1.8,6.5 1.3,1.9 2.5,3.6 4.5,5 2,-1.4 3.3,-3.1 4.5,-5 1.6,-2.3 1.9,-6.5 1.9,-6.5 0,0 -3.2,-2.4 -4.6,-4 z" id="path36"></path><path fill="#b96b29" d="m 319.4,380.6 c 0,1 0,3.4 0.6,3.4 0.6,0 0.5,-2.4 0.6,-3.4 l 0.2,-3.3 h -1.6 c 0,0 0,2.3 0.2,3.3 z" id="path38"></path><path fill="#d4af3a" d="m 320,151.3 c -5.7,0.1 -12.3,-0.7 -16,-2 l -3.8,0.8 a 52,52 0 0 0 19.8,3.3 c 8.8,-0.1 13.8,-1 19.8,-3.3 l -4,-0.8 a 50.7,50.7 0 0 1 -15.8,2 z m 20.5,-4.7 c -0.4,-0.4 -3,-2.2 -3.7,-2.5 -0.6,-0.4 -0.1,-1.3 0,-1.6 0.1,-0.4 3,-1.2 4.6,-1.7 1.6,-0.4 1.4,-0.7 1.4,-0.7 0,0 -1,-1.1 -6.8,-1.7 -5.8,-0.7 -16,-0.5 -16,-0.5 0,0 -10.2,-0.2 -16,0.5 -5.8,0.6 -6.8,1.7 -6.8,1.7 0,0 -0.2,0.3 1.4,0.7 a 19,19 0 0 1 4.6,1.6 c 0.1,0.4 0.6,1.3 0,1.6 a 45,45 0 0 0 -3.7,2.6 c -0.5,0.4 -0.5,1 0.2,1 0.7,0 0.7,0 2.7,-0.4 a 94.4,94.4 0 0 1 35.2,0 c 2,0.4 2,0.4 2.7,0.4 0.7,0 0.7,-0.6 0.2,-1 z" id="path40"></path><path fill="#d4af3a" d="m 333.9,149 c -4,-0.4 -6.5,-1 -13.9,-0.9 -7.4,0.1 -10,0.5 -13.9,1 2.5,1 6.6,1.5 13.9,1.5 7.3,0 11.4,-0.5 13.9,-1.5 z m -15,-57.5 -0.1,2.8 3,-0.2 -0.3,-2.7 3.3,0.5 0.1,-2.6 -3.4,0.3 0.6,-2.9 h -3.8 l 0.7,2.9 -3.3,-0.3 v 2.6 z m 6.5,7.1 h -4 V 95.2 A 6,6 0 0 0 320.1,95 l -1,0.1 v 3.5 h -4.3 a 4.6,4.6 0 0 0 -0.2,2 h 11 V 100 a 5.4,5.4 0 0 0 -0.2,-1.4 z" id="path42"></path><path fill="#1d5e91" d="m 320.1,105 a 5.5,5.5 0 0 0 5.2,-3.4 H 315 a 5.5,5.5 0 0 0 5.2,3.5 z m 2.3,-9.5 v 2.4 h 2.7 a 5.3,5.3 0 0 0 -2.7,-2.4 z m -4.5,0 a 5.3,5.3 0 0 0 -2.8,2.4 h 2.8 z" id="path44"></path><path fill="#b96b29" d="m 323.3,140 -3.3,-1.5 -3.3,1.7 c -1.2,0.5 -1,0.4 -1.4,1.2 -0.3,0.9 0,1.2 0.6,1.4 l 4.1,2 4.6,-2 c 0.8,-0.4 0.7,-0.8 0.4,-1.5 -0.2,-0.6 -0.7,-0.8 -1.7,-1.3 z" id="path46"></path><path fill="#d4af3a" d="m 320,139.3 -3.5,1.7 3.6,1.9 3.5,-1.9 z m 0,-12.3 c 0,0 -0.3,1.2 -0.7,1.8 -0.4,0.5 -0.7,1 -0.6,1.7 0,0.6 0.8,1 1.3,1 0.4,0 1.2,-0.4 1.3,-1 0,-0.7 -0.2,-1.2 -0.6,-1.7 -0.4,-0.6 -0.7,-1.8 -0.7,-1.8 z" id="path48"></path><circle cx="320" cy="132.8" r="0.69999999" fill="#d4af3a" id="circle50"></circle><path fill="#d4af3a" d="m 317.6,129.4 c 0,0 1.1,-1.3 1.6,-2.2 l 0.8,-1.5 0.8,1.5 c 0.4,0.9 1.6,2.2 1.6,2.2 0,0 1.6,-1 2.6,-4 1,-3.2 -0.3,-6.6 -0.7,-10.1 a 208,208 0 0 1 -0.8,-9.8 7.3,7.3 0 0 1 -3.5,1 7.3,7.3 0 0 1 -3.6,-1 c 0,0 -0.3,6.2 -0.8,9.8 -0.4,3.6 -1.6,6.9 -0.6,10 1,3.2 2.6,4 2.6,4 z" id="path52"></path><ellipse cx="320" cy="122.3" fill="#b96b29" rx="2.8" ry="2.7" id="ellipse54"></ellipse><ellipse cx="320" cy="115.8" fill="#b96b29" rx="2.7" ry="2.5999999" id="ellipse56"></ellipse><ellipse cx="320" cy="109.7" fill="#b96b29" rx="2.5999999" ry="2.5" id="ellipse58"></ellipse><ellipse cx="320" cy="121.8" fill="#d4af3a" rx="1.5" ry="1.4" id="ellipse60"></ellipse><circle cx="320" cy="115.4" r="1.4" fill="#d4af3a" id="circle62"></circle><ellipse cx="320" cy="109.2" fill="#d4af3a" rx="1.3" ry="1.2" id="ellipse64"></ellipse><path fill="#b96b29" d="m 319.9,336 c 0.2,0.1 0.2,-0.3 0.2,-1.2 l 0.4,-4 c 0.2,-1.2 -0.3,-1.1 -0.6,-1 -0.3,0 -0.5,0.9 -0.5,1.4 l 0.1,4.2 c 0,0.6 0.2,0.6 0.4,0.7 z" id="path66"></path><path fill="#d4af3a" d="m 290.4,359.1 5.2,-3.6 a 11.8,11.8 0 0 0 4,-4 h -1 c -0.6,0 -1,-0.7 -1.1,-1.5 0,-0.8 0,-2.3 0.2,-4.1 0.2,-1.8 -0.3,-3.3 -0.3,-3.3 0,0 -1.2,1.1 -3,2 -2,1 -2.7,0.6 -2.7,0.6 l -0.4,-1.9 -2,3.7 c -1.1,2 -4.2,4.2 -6.4,5.8 a 28.6,28.6 0 0 1 -6.4,4 c -1.8,0.7 -0.7,1.5 -0.7,1.5 0,0 1.8,1.8 6.5,2.7 4.6,0.8 6.9,-1 8.1,-1.9 z" id="path68"></path><path fill="#d4af3a" d="m 306.8,357.3 c -1.7,-0.2 -2.7,-0.8 -3,-2.6 -0.2,-1.2 0,-5.7 0,-5.7 l -1.1,1.2 c -0.7,0.8 -2,1 -2,1 l -1,1.6 a 9.3,9.3 0 0 1 -3,3.2 50.7,50.7 0 0 0 -4.6,3.2 28.1,28.1 0 0 1 -4.3,3.1 7,7 0 0 0 -3.6,4.7 c -0.5,2.4 0,3.1 1.8,3 1.8,-0.1 2,0 5,-0.7 3,-0.8 7.3,-4.1 10.4,-6 3,-2 5.4,-6 5.4,-6 z" id="path70"></path><path fill="#d4af3a" d="m 315,360 c 0,0 -1.2,-1.6 -1.7,-3.4 l -1.3,-5.4 -1.5,3.3 c -1,2.1 -2.7,2.7 -2.7,2.7 0,0 0,0.9 -1.5,2.7 a 21,21 0 0 1 -5.7,4.8 c -2.1,1.2 -5,3 -6.4,5.1 -1.5,2.2 -1.7,4.4 -1,5.4 0.8,1 1.8,-0.1 3.2,-0.9 1.4,-0.7 5.5,-1.3 11.2,-4.4 5.6,-3 7.4,-9.9 7.4,-9.9 z" id="path72"></path><path fill="#d4af3a" d="m 317.5,372.7 c 1.5,-2.4 1.8,-8 1.8,-8 l -1.3,-1 c -0.8,-0.7 -2.2,-2.9 -2.2,-2.9 l -2,3.8 c -1,1.8 -1.5,2.4 -3.6,4.3 -2.1,2 -5,3.9 -6.2,6 -1.2,2 -0.5,6.1 0.3,7.5 0.8,1.5 2,1 3,-0.1 L 311,379 c 2.1,-1.8 5,-4 6.5,-6.3 z" id="path74"></path><path fill="#b96b29" d="m 299,325.3 c 0.8,-1.7 1.7,-3.7 2.5,-4.8 a 15,15 0 0 0 1.3,-2.2 c 0,0 -2,1.8 -2.8,3.1 -0.8,1.4 -1.3,2.6 -1.7,4 -0.3,1.4 -0.2,1.6 0.7,0 z m 8,1.5 0.5,-1.9 c 0,0 0.3,-1 0.1,-1.1 -0.2,-0.1 -1,0.6 -1.6,2.5 -0.5,1.8 -1.4,4.5 -1.2,4.6 0.2,0 1.8,-3 2.2,-4.1 z m 6.3,5 0.3,-0.8 c 0,0 0.7,-2 0.7,-2.5 0,-0.4 -0.2,-1 -0.8,0.1 -0.6,1.1 -0.6,2.2 -0.7,2.6 0,0.5 -0.7,2.1 -0.5,2.3 0.2,0.1 0.6,-0.9 1,-1.7 z m -19.6,19.2 -0.8,-0.5 -1.3,1.5 c -0.7,0.7 -1.5,1 -2,1.7 a 8,8 0 0 1 -2.7,2.3 c -1.3,0.7 -1.8,1 -1.6,1.1 0.3,0.2 1.2,-0.3 1.2,-0.3 0,0 0.3,0 1.9,-1 1.6,-0.9 2,-1.4 3,-2.3 1,-0.9 2.3,-2.5 2.3,-2.5 z m 6.8,8.1 c 0.6,-0.6 1.3,-1 1,-1.4 -0.4,-0.3 -0.8,-0.3 -1.4,0.2 l -2.8,2.6 -2,1.5 c -0.7,0.6 -2.3,1.4 -3,1.8 -0.8,0.5 -0.1,0.5 -0.1,0.5 l 1.2,-0.5 2.5,-1 c 0,0 0.7,-0.3 1.6,-1 1,-0.7 2.4,-2 3,-2.7 z m 7.9,5.5 c 0.5,-1 0,-0.8 -0.9,-0.4 -0.8,0.3 -2.7,2.4 -3.8,3.1 -1.1,0.8 -2,1.1 -3,1.6 -0.9,0.4 -0.9,0.7 -0.8,0.9 0,0.2 0.4,0.2 0.8,0 l 1.6,-0.9 1,-0.2 c 0.6,0 1.3,-0.6 2.4,-1.6 1.2,-1 2.2,-1.5 2.7,-2.5 z m 3.7,7.2 c -1.4,0.8 -3.8,2.7 -4.5,4 -0.6,1.2 -1,2.1 -0.8,2.3 0.2,0.2 0.9,-0.2 1.2,-0.7 l 0.9,-1.2 c 0,0 2.4,-2.4 3.3,-3 a 8.3,8.3 0 0 0 2.6,-3 c 0.4,-1 0.1,-1.4 0.1,-1.4 0,0 -1.5,2.1 -2.8,3 z" id="path76"></path><path fill="#c52126" d="m 275,170 a 22.3,22.3 0 0 0 -8.3,-2.6 c -3.7,-0.3 -6.5,0.2 -9.5,1 -2.2,0.6 -4,0.7 -5.7,0.3 -2.6,-0.7 -4.6,-3 -5.3,-6 0,0 -2.4,3.1 0,6.5 a 7.2,7.2 0 0 0 4.4,2.9 c 5,1 10,-2 14.3,-2.4 4,-0.2 7.3,2.4 7.3,2.4 0,0 1,0.8 2.3,0 1.4,-0.8 1.8,-1.4 0.5,-2.2 z" id="path78"></path><path fill="#d4af3a" d="m 260.3,317.5 -1.2,-0.2 c -0.7,0 -2.2,-0.6 -2.7,-0.8 -0.4,-0.2 -1.1,-0.2 -1.6,0.3 -0.4,0.5 -4,2.7 -4,2.7 h 6 c 2,0 3.5,-2 3.5,-2 z" id="path80"></path><path fill="#d4af3a" d="m 277.4,316.4 v -0.5 l -0.8,-1.8 c 0,0 -1,0.6 -1.9,1.5 -1.2,1.3 -2.4,3 -3,3.7 -1,1.3 -2.4,2.5 -1.2,0.5 1.2,-2 1.6,-3 2.6,-4.4 1,-1.3 1.7,-2 1.5,-2 l -3.4,-0.5 c -2.5,-0.3 -4.1,-1.3 -5.3,-2 l -3.3,-1.9 c 0,0 -4.3,1.9 -5.9,2.3 -1.6,0.4 -2.6,0.6 -1,1.4 1.6,0.8 2.9,1 3.7,1.5 a 11,11 0 0 0 4.6,1.2 c 1.4,0 3.9,0 3,1 -1,1.1 -2.1,3 -3.2,6 a 20.3,20.3 0 0 0 -1,7 v 2.5 c 0,0 1.8,-2 6.6,-5 4.8,-3 6.6,-4 7.5,-4.4 0.9,-0.4 1.3,-0.4 1.1,-1.5 z" id="path82"></path><path fill="#d4af3a" d="m 295.6,302 a 68.5,68.5 0 0 1 -0.9,-0.4 1,1 0 0 0 -0.2,0 15,15 0 0 0 -4.6,4.2 c -1.2,1.9 -2.4,2 -1.1,0 a 17.9,17.9 0 0 1 3.2,-4.2 23.5,23.5 0 0 1 1,-0.8 53.3,53.3 0 0 1 -7.3,-4.2 l -1.6,2.5 c -1,1 -3.3,2 -3.3,2 0,0 1.8,-2 2.4,-3.3 l 0.8,-2.5 a 31.6,31.6 0 0 1 -4.8,-4.6 17.8,17.8 0 0 1 -4.1,7.4 c -3.8,4.2 -11.3,6.3 -11.3,6.3 0,0 -2.6,0.3 -0.5,0.9 2.2,0.5 3.7,1.5 7.8,0.8 l 5,-1.1 c 0.6,-0.2 2,0 0,0.7 -2,0.8 -6.9,1.5 -8.7,1.4 -1.9,-0.2 -4.4,-0.6 -1.8,0.8 2.7,1.4 3.8,2 5.4,2 1.6,0 2.3,0.5 3.9,0.5 1.6,0 2,-0.3 3,-0.5 1.2,-0.3 2,0.1 2,0.6 0,0.4 -1.6,1.7 -1.5,4.7 0,3.1 0.3,5.1 0.5,6 0.3,1 1,2.4 1.4,3.2 0.5,0.8 0.7,1.7 1.1,-0.1 0.5,-1.8 1.5,-4.4 1.9,-6.1 0.3,-1.7 0.6,-1.8 0.7,-2.7 0.2,-0.9 1.2,-1.6 0.7,0 a 133.4,133.4 0 0 0 -1.3,5.2 c -0.3,1.5 -1.1,4.2 0.2,2 1.4,-2 6.4,-7.7 7.3,-8.8 l 2,-2.8 c 0.7,-0.8 2.4,-1.9 3.3,-3.1 a 28.5,28.5 0 0 1 3.9,-4 z M 226.1,172.8 c 0,3.1 3.5,9 5.5,12.2 1.9,3.1 2.4,4.4 2,4.6 -0.2,0.2 -1,-1.4 -2.1,-2.8 -1.1,-1.4 -3.2,-4.7 -5,-7.2 -1.6,-2.5 -4.2,-8.4 -4.5,-8.9 -0.4,-0.5 -0.5,-0.9 -1.4,-0.2 -0.8,0.7 -2.5,7.2 -0.5,11.6 2,4.4 5,7.6 6.3,9.2 1.3,1.5 3,4 2.7,4.1 -0.3,0.2 -0.8,-0.4 -2.3,-2 L 221,187 a 51.6,51.6 0 0 1 -3.8,-6 c -0.2,-0.5 -0.6,-0.4 -0.8,-0.2 -0.5,0.6 -1.4,1.9 -1,5.4 a 17,17 0 0 0 5.3,10.2 c 2.3,2.4 4.6,4.5 4.2,4.9 -0.3,0.3 -2.7,-1.8 -4.3,-3.3 -1.6,-1.6 -5.5,-5.4 -6.4,-6.5 -0.9,-1 -2.1,-0.5 -2,3.7 0,4.3 4.7,8.5 6.6,10.9 2,2.3 4.4,3.7 4.2,4.2 -0.2,0.5 -2.2,-0.7 -3.4,-1.6 l -7,-4.6 c -1,-0.7 -1.4,0.6 -0.2,4.6 1.2,4 4.7,7.2 6.8,8.7 2,1.5 5.4,3.3 5.2,3.8 -0.2,0.4 -1.6,-0.2 -3.6,-1.1 a 39.4,39.4 0 0 0 -6,-2.3 c -1.6,-0.5 -1.6,0.7 -1.6,0.7 0,0 -0.3,3.5 2.2,6.2 a 13.3,13.3 0 0 0 8,4.3 c 2.6,0.5 3,0.6 3,1 -0.1,0.4 -0.4,0.5 -1,0.5 l -5.4,0.2 c -2.2,0 -3.4,0.6 -3.4,1.6 0,1 -0.1,2.3 3.3,4.6 3.4,2.3 7.2,2.6 8.8,3 1.6,0.3 1.7,0.4 1.4,0.9 -0.4,0.5 -1.1,0.4 -3.6,0.7 -2.6,0.2 -4.1,1.2 -4.5,2 -0.3,0.6 0.2,2.6 2.3,4 2,1.4 4.8,1.9 8.8,1.6 4,-0.3 5,-0.3 5.1,0.3 0.2,0.7 -1.2,1 -3.2,1.2 -2,0.4 -3.5,0.4 -4.7,1.3 -1.1,1 -0.2,2.9 1.7,4.3 2,1.4 6.8,1.4 8.8,1.3 2,-0.2 5,-0.9 5.3,-0.4 0.2,0.6 -1.5,1.4 -3.6,2.1 -2,0.8 -2.7,1.2 -3,2.1 -0.5,0.9 -0.1,1.7 2.3,2.6 2.5,1 6.1,1 8,0 1.9,-0.8 2.9,-1.1 3.2,-0.8 0.4,0.3 0,0.7 -0.4,1.1 -0.4,0.5 -2,1.8 -4,2.3 -2.1,0.6 -2.3,0.6 -3,2.2 -0.8,1.7 1,3 4.8,3.2 3.8,0.1 8.8,-1.4 10.4,-2.3 1.6,-1 2.2,-1.1 2.5,-0.8 0.2,0.3 0.2,0.5 -0.6,1.1 -0.8,0.6 -3.4,2.5 -4.7,2.8 -1.2,0.3 -1.4,1.3 -1.4,2.1 0,1 -0.3,2.6 3,3.5 3.4,0.8 7.3,0.2 11,-2.4 a 8.3,8.3 0 0 0 2.2,-2 28,28 0 0 1 0.2,-8 c -0.7,0 -2,-0.3 -3.4,-0.9 -2,-0.8 -2.8,-2.6 -3.3,-3.6 -0.4,-1 -1.1,-1 -2,-0.8 -0.7,0.3 -1.5,0.6 -2.6,0.6 a 7.9,7.9 0 0 1 -5.3,-2.8 c -1.8,-2 -1.4,-4 -1.5,-5 0,-1 -1.7,-0.3 -2.5,-0.3 -0.8,0 -3.1,-0.4 -5.3,-1.9 -2.1,-1.4 -2.1,-3.4 -2.3,-4.3 -0.2,-0.8 -1,-1.3 -1.7,-1.6 -0.7,-0.2 -1.8,-0.5 -3.3,-1.7 a 6.9,6.9 0 0 1 -2,-4.4 c -0.1,-0.8 -1,-0.8 -4,-2.4 -3,-1.5 -2.7,-4.7 -2.6,-6 0.1,-1.3 1.5,-2.3 1.5,-2.8 0,-0.5 -1,-0.6 -2,-1.2 -1,-0.6 -3.5,-1.6 -3.6,-5.4 0,-3.7 2.4,-4.1 2.4,-4.1 l -1.4,-0.8 c -1,-0.6 -3.8,-2.5 -3.8,-4.7 0,-2.2 1,-3.2 1.8,-3.8 0.8,-0.6 2.7,-1 2.7,-1 0,0 -1.3,-0.9 -1.8,-2.6 -0.5,-1.7 -0.7,-3.9 0.5,-5.4 1.3,-1.6 3.4,-1.6 4.6,-1.6 1.1,0 2.1,0.6 2.5,0.3 0.4,-0.3 0.5,-0.6 0,-1.5 a 6.6,6.6 0 0 1 0,-3.7 c 0.3,-0.8 0.4,-2.2 3.2,-3.2 2.9,-0.9 6,1 6.9,1.6 0.9,0.5 0.5,-0.8 0.5,-1.7 0,-1 -2,-3.3 -4.2,-6.6 a 73,73 0 0 1 -5.6,-10.2 65.7,65.7 0 0 1 -4.5,-13.4 c -0.3,-1.6 -1,-0.8 -1,-0.8 0,0 -0.6,0.2 -2.2,4.1 a 25,25 0 0 0 -1.6,10.5 z" id="path84"></path><path fill="#d4af3a" d="m 276.5,241.4 c -1.7,-0.1 -4,-1 -5.7,-3.6 -1.7,-2.5 -4.3,-3 -8.8,-3 -4.4,0.1 -6.5,-2 -7.6,-5.2 -1.1,-3 0.1,-6.6 4.7,-8.9 4.6,-2.2 6.7,-4.7 6.8,-8.6 0.2,-3.9 -4.5,-8.7 -9.3,-14.1 -4.7,-5.5 -8.4,-13.2 -8.4,-13.2 0,0 -1.4,1.8 -1.4,3.7 0,1.8 0.7,3.7 0,4.2 -0.7,0.5 -1,-0.8 -3.7,-2 -2.8,-1.2 -5,-1.4 -6.7,0.6 -1.8,2 0,5.4 1.5,7 1.6,1.7 2.9,3 2.4,3.5 -0.4,0.6 -2.7,-0.9 -3.5,-1.4 -0.8,-0.5 -2.6,-2.5 -5.3,-2.3 -2.6,0.3 -3.6,1 -3.8,3.3 -0.3,2.3 2.4,4.2 4.1,5.1 1.7,0.9 2.4,1.6 2,2 -0.5,0.3 -0.9,0 -1.7,-0.3 a 8,8 0 0 0 -4.3,0 c -1.4,0.6 -3.6,2.5 -1.5,4.8 2.1,2.3 6.4,3.2 7.2,3.3 0.9,0.2 1.3,0 1.4,0.6 0,0.7 -1.8,0.7 -4.1,0.8 -2.4,0.1 -3,2.4 -2.7,4 0.3,1.8 4.2,3.7 6.4,4 2.1,0.4 2.9,0 3,0.7 0.2,0.6 -0.2,0.8 -1.4,1.2 -1.2,0.3 -3.5,0.6 -4,2.5 -0.4,1.9 -0.5,2.7 1.3,4.4 1.8,1.6 4.8,1.4 5.6,1.2 0.9,-0.2 2,-1.1 2.8,-0.3 0.9,0.9 -0.8,1.6 -2.3,2.6 -1.4,1 -1.3,3 1.2,4.4 2.5,1.4 5,0.9 6,0.5 1,-0.3 2.4,-2 3.1,-1 0.7,1.1 -2.2,1.5 -3.4,3 -1.2,1.4 -0.7,3.8 1.7,5.3 2.4,1.5 6.4,0.4 7,-0.2 0.7,-0.6 1.6,-0.8 2.1,-0.3 0.5,0.5 -0.2,1.9 -0.8,3 -0.5,1.3 -1.4,4.8 2.2,6.2 3.6,1.4 6.9,-1.7 7.5,-2.3 0.6,-0.6 1.2,-0.7 1.7,-0.5 0.5,0.3 0.3,0.8 -0.1,1.4 -0.5,0.6 -1.4,3.2 1.2,5 a 6.3,6.3 0 0 0 4.7,1 l 2,-7.2 H 275 c -0.3,0 -0.4,0.5 -0.4,0.7 0,0.2 0,0.4 -0.2,0.4 -0.3,0 -0.4,0.2 -0.8,0.5 -0.5,0.3 -0.9,0.7 -1.1,0.5 -0.3,-0.2 1,-0.8 1.2,-1.2 0.3,-0.4 1,-1 1,-1.4 0,-0.4 0.2,-0.6 0.9,-1.1 l 0.4,-0.6 a 100.5,100.5 0 0 0 1.7,-12.7 z M 203,187.6 a 37.3,37.3 0 0 0 9.3,12.1 l -1,-3.2 c -0.4,-1.4 -0.2,-2.9 -0.2,-2.9 0,0 -1.3,-1.7 -3.8,-5.6 -2.6,-3.9 -3.9,-9.6 -3.9,-9.6 0,0 2.4,5.7 4.2,8.8 1.8,3 4,5.5 4,5.5 0,0 0.6,-2.7 1.2,-2.8 0.5,-0.2 0.9,0.2 1.3,0.8 0.5,0.6 0.9,0.6 0.9,0.6 l -1.6,-2.8 -1.5,-2.2 c -1.5,-2.3 -4.6,-6.6 -6.1,-10.9 -1.6,-4.3 -5.1,-15.1 -5.7,-18.3 -0.6,-3.2 -1.2,-1.4 -1.8,0.9 a 27.6,27.6 0 0 0 -1,10.7 53.5,53.5 0 0 0 5.7,18.9 z m 5,21 a 135.9,135.9 0 0 0 3.5,2.5 l -0.6,-1.7 -0.3,-2.9 -2.8,-2.5 a 41.7,41.7 0 0 1 -5.6,-6 c -3,-3.6 -0.6,-1.4 1.8,1.2 2.4,2.6 7,6.3 7,6.3 v -0.8 a 3.1,3.1 0 0 1 0.7,-1.9 c 0.4,-0.6 0.2,-0.6 -2.4,-2.6 a 74.5,74.5 0 0 1 -17.6,-24.4 c 0,0 -1.4,9 4,18.7 5.4,9.9 10.8,13 12.2,14.1 z m 28.5,56.3 c 3,-1.2 2.1,-4.1 2.1,-4.1 0,0 -1.8,0.5 -3.5,1.2 -1.7,0.6 -5.8,1.8 -7.4,1.8 -1.7,0 -1.7,-0.2 -1.7,-0.4 0,-0.2 1.2,0 3.6,-0.4 a 29,29 0 0 0 7.2,-3.1 c 0.7,-0.5 0.6,-0.6 -0.4,-0.7 a 4.5,4.5 0 0 1 -2.4,-0.9 c -0.4,-0.3 -1.5,0.1 -4.2,0.8 a 50.8,50.8 0 0 1 -21.5,0.7 c -0.6,-0.2 -1.3,0.2 0.7,3.7 2.1,3.5 9.4,5.3 14.4,5.3 5,0 10.1,-2.8 13,-3.9 z m -13.4,-7.2 c 5.2,0 7.1,-1.5 7.1,-1.5 l -0.7,-1.3 c -0.7,-1 -0.6,-2.9 -0.6,-2.9 l -3.4,0.6 c -2.1,0.3 -4.6,0.6 -7.4,0.1 -2.8,-0.5 -1.6,-0.8 0.6,-0.5 2.2,0.2 6.4,-0.6 7.8,-1 1.4,-0.5 0.8,-1 -0.1,-1.3 -1,-0.3 -3.5,-1.9 -3.5,-1.9 0,0 -6.3,0.8 -12.1,0.2 -6,-0.7 -9.6,-2.2 -10.8,-2.4 -1.2,-0.2 -1.2,0.3 -1.2,0.3 0,0 -0.3,0.6 1.8,3.7 2,3.2 6,5.3 9.3,6.3 3.4,1 8,1.6 13.2,1.6 z m -1.4,-12.2 -0.5,-1.3 c -0.3,-1 0.6,-1.9 0.6,-1.9 0,0 -1.2,-0.3 -5.1,-0.8 -3.9,-0.5 -4.1,-0.8 -6.5,-1.3 -2.4,-0.6 -4,-1.3 -4,-1.5 0.1,-0.3 0.9,0 2.3,0.6 1.4,0.5 7.4,1.2 9.9,1.5 2.5,0.4 3.9,0.6 4.3,0.4 0.5,-0.3 2,-0.7 2,-0.7 l -2.4,-0.5 a 8.4,8.4 0 0 1 -3.2,-1.3 c -0.7,-0.5 -0.9,-0.6 -4,-1 -3.3,-0.3 -5.8,-1.3 -11.5,-3.4 -5.7,-2 -10,-4.6 -11.1,-5.5 -1.2,-1 -1,-0.3 -0.8,1 0.3,1.1 0.3,2.6 3.2,6 2.8,3.3 4.2,4.8 11.5,7.4 7.2,2.7 15.3,2.3 15.3,2.3 z M 200.2,228 a 40.6,40.6 0 0 0 15.5,6.4 c 0.4,-0.4 -0.4,-2 0,-2.8 0.4,-1.1 1,-1.1 2.6,-1.2 1.6,-0.1 0.5,-0.4 0.2,-0.4 l -3,-0.7 c -2.6,-0.7 -5.2,-1.1 -8.7,-2.4 -3.5,-1.4 -4.6,-2.3 -4.5,-2.6 0.1,-0.3 1.6,0.8 5,2 3.2,1.3 7,1.8 9,2.3 2.1,0.4 0.3,-0.5 -0.7,-1 -1,-0.6 -2.3,-2.8 -2.3,-2.8 0,0 -2.3,-0.4 -6,-1.5 a 48.8,48.8 0 0 1 -10,-4.2 c -1.1,-0.6 -2.2,-1.4 -3.3,-2.2 l -5.1,-3.7 c -1.3,-1 -1,-0.2 -0.8,0.4 0.2,0.6 1,3.2 3,6.1 2,3 2.7,3.8 9.1,8.3 z m -1,-12.7 c 6.3,5 11.7,6.6 12.6,7 1,0.4 0.9,-0.2 0.7,-0.7 -0.2,-0.5 -0.3,-2.2 -0.3,-2.2 l -4.8,-2.8 a 79.6,79.6 0 0 1 -7.1,-4.7 c -1.9,-1.3 -0.8,-1.2 -0.2,-0.7 0.6,0.5 3.1,2 5.7,3.6 l 6.4,3.9 c 0,0 0.1,-0.9 0.7,-1.4 0.5,-0.5 1.8,-0.4 1.8,-0.4 l -1,-1.3 c -0.4,-0.6 -2.5,-1.3 -4.9,-2.4 a 57.5,57.5 0 0 1 -9.6,-6.8 c -3,-2.6 -9,-9.1 -9.5,-9.7 -0.4,-0.5 -0.6,-0.4 -0.7,0.3 0,0.6 -0.2,1 0.4,4 0.7,3 3.5,9.4 9.8,14.3 z m 22.3,-47.2 c 0.7,1.5 1.5,2.6 2,3.6 a 52,52 0 0 1 1.4,2.4 c 0,0 0.2,-0.5 0,-1.4 -0.1,-0.8 -0.2,-2 0,-3.5 l 0.3,-2.3 c 0,-0.7 -0.4,-1.4 -0.5,-1.9 l -1.5,-7 c -0.5,-2.7 -1,-6.4 -0.9,-9.7 0,-3.2 0.5,-1.6 0.5,0 a 62.2,62.2 0 0 0 2.8,17.2 c 0,0 0,-0.9 0.5,-2.1 0.5,-1.3 1.3,-2.7 2,-4.2 0.5,-1.6 0.3,-1.9 0.3,-1.9 0,0 -2.2,-10.6 -2.8,-15.6 -0.6,-5 -1.5,-18.1 -1.5,-18.1 -3.3,3.2 -5.7,11.8 -6,20 -0.4,6 0.6,11.7 0.9,14 0.5,4.5 1.3,8 2.5,10.5 z m -7.2,16.8 c 0.1,-2.4 0.7,-4.3 2.2,-4.8 0,0 -1.3,-2.4 -2.5,-5.8 a 45.7,45.7 0 0 1 -1.9,-7.7 c -0.8,-5.6 -1.5,-11.5 0.2,-2 1.7,9.7 3.7,13 3.7,13 l 2.5,4 a 17.3,17.3 0 0 1 -0.4,-4.9 c 0.1,-1.9 0.4,-4.5 1,-6.5 0,0 -3,-6 -4.9,-13 A 82.2,82.2 0 0 1 211,134.5 c 0,0 -3,2.3 -4,13.9 a 69,69 0 0 0 7.3,36.5 z m 33.3,88.6 -2,-1.3 c -1.4,-0.9 -1,-3.7 -1,-3.7 l -1.4,1 a 19.2,19.2 0 0 1 -3.7,2.2 c -1.5,0.6 -2.2,1 -3,1.2 -1,0.3 -0.8,0 0,-0.5 0.8,-0.4 1,-0.7 3,-1.4 1.9,-0.8 5.7,-4.2 5.7,-4.2 l -2.5,-0.1 c -1.6,0 -3.6,-0.9 -3.6,-0.9 0,0 -1.6,1.4 -8,4.2 a 50,50 0 0 1 -11.8,3.5 c 0,0 0.7,3.2 3.8,4.3 2.5,1.1 6,1.8 12.9,0.2 a 43.5,43.5 0 0 0 11.6,-4.5 z m 8.4,6.5 c 0.5,-2.7 -1,-4.6 -1,-4.6 l -1.3,1.1 c -1,0.9 -2.4,2.5 -5,3.9 -2.8,1.3 -3.7,1.2 -1.1,-0.2 2.6,-1.4 6.4,-5.3 6.4,-5.3 l -1,-0.4 c -1,-0.4 -2.8,0.3 -10,4.6 -7.2,4.3 -11.4,4.5 -11.4,4.5 0,0 3.2,3.9 12,3.6 8.7,-0.3 11.8,-4.5 12.4,-7.2 z m 16.5,-3.1 c 0,0 -1,1.3 -2.3,2.2 -1.3,0.9 -4.7,1.4 -4.7,1.4 l -0.8,1.2 c -0.7,1 -2.2,3 -3.7,4 -1.6,1.2 -4,2 -4.1,1.6 -0.1,-0.3 1.4,-0.8 2.9,-1.8 1.5,-0.9 2.8,-2.6 3.8,-3.7 1,-1.2 -0.4,-1 -0.4,-1 h -3.5 c -1.7,-0.2 -1.4,0 -1.9,0.7 l -2.4,3 -4.4,5.1 c -1,1.2 -0.2,1.5 -0.2,1.5 0,0 0.4,0.7 4.3,1.2 2.4,0.2 5,0 7.8,-1.6 a 23,23 0 0 0 5.2,-4.5 c 4.6,-5.1 4.4,-9.3 4.4,-9.3 z m 2,10.5 -1.4,1.8 1.2,-3 c 0.3,-0.6 0.7,-1 1,-1.4 -0.7,-1.4 -1.3,-3 -1.6,-4.7 -0.5,1.4 -1.8,5.5 -3.4,8.1 -2,3.2 -3.8,4.4 -2.7,5.3 1.2,0.8 3.4,1 6,-0.2 2.4,-1.2 3.1,-3.3 3.5,-5 a 24.8,24.8 0 0 1 -1.2,-2.1 5,5 0 0 0 -1.3,1.2 z" id="path86"></path><ellipse cx="274" cy="158.60001" fill="#d4af3a" rx="1.8" ry="1.6" id="ellipse88"></ellipse><path fill="#d4af3a" d="m 270.3,155.5 c 1.6,0 2.4,-0.8 4.2,-0.6 2.2,0.2 5,1.4 8.6,3.3 a 14.6,14.6 0 0 0 9.8,0.9 c 1,-0.3 2,-0.9 2.9,-1.4 4.2,-2.4 3.2,-7.1 3.2,-7.1 a 16.7,16.7 0 0 1 -10.7,3.2 l 1,0.8 c 0.5,0.6 1.7,1.4 1.3,1.7 -0.4,0.3 -2,-1.2 -3.2,-2.2 a 19.4,19.4 0 0 0 -6.5,-3.2 c -3.3,-1 -7,-1 -9.5,0.4 -2.5,1.3 -2.7,3 -2.3,3.7 0.2,0.4 0.6,0.5 1.1,0.5 z m 46.2,34.7 c -0.8,-0.2 -2.1,-0.4 -3.8,-2 a 71.4,71.4 0 0 1 -6.3,-7 c -0.5,-0.8 -0.3,-1.5 0.9,-2 1.1,-0.5 2,-2 2,-2 0,0 -2.6,-1 -4.3,-2.2 a 44,44 0 0 1 -6.2,-5.7 c -0.6,-1 -0.3,-1 0.5,-1.3 0.8,-0.3 1,-0.8 1,-0.8 0,0 -1.8,-1.2 -3.5,-2.6 a 71,71 0 0 1 -4,-3.6 c -2.6,1 -6.7,0.6 -8.9,0.2 -3.8,-0.7 -6.6,-2.3 -6.6,-2.3 l -0.6,1.8 c -0.5,1.2 -2.3,1.8 -4,0.7 -1.8,-1.2 -1.4,-3.7 -1.4,-3.7 0,0 -1.5,-1 -4.4,-2 -3,-1.1 -5.4,-1.3 -7.8,-0.2 -2.4,1.1 -3.6,4.4 -3.6,7 0,2.4 1.4,1.3 1.6,1 0.3,-0.3 0.9,-2.1 3.9,-2.6 3,-0.5 5.7,1 9.2,3.8 3.4,2.8 4.1,3 5.9,4.8 1.7,1.8 0.3,2.7 -2.6,3.7 -3,1 -6.8,-1 -6.9,-0.9 -0.6,0.3 1.3,3 3.8,4 2.6,1 5.8,0.3 8.3,-0.8 1.7,-0.6 2,0 2.6,0.6 a 15,15 0 0 1 4,9 4,4 0 0 0 2.6,-3 c 0,-0.6 0.2,-1.8 1.2,-1 1,1 1.7,6 1.7,8.2 0,2.2 -0.7,5.3 -0.7,5.3 h 0.7 l 2.3,-1.2 c 1.1,-0.7 1.2,0 1.2,1.3 0,1.3 0.4,3.6 2,7.8 1.7,4.2 4.1,5.5 4.1,5.5 0,0 0.5,-0.8 1,-2.5 0.5,-1.7 0.8,-4.8 0.8,-7.7 0,-2.8 -0.8,-8.8 -0.8,-8.8 0,0 3.5,4.2 7,5.2 3.6,1 7.2,0.4 8.7,-1.3 1.5,-1.7 0.1,-2.5 -0.6,-2.7 z" id="path90"></path><path fill="#d4af3a" d="m 293,201 c 0,0 -1,2.5 -1.7,3.3 l -0.8,1 c 0,0 1,1 2.6,1.4 l 3,0.8 c 0,0 -1.8,-2.4 -2.4,-4.1 l -0.7,-2.3 z m 21.4,-1.3 a 71.6,71.6 0 0 0 -0.8,-2.1 15,15 0 0 1 -8.2,-1.7 c 0,0 1.7,3.3 3.3,4.5 l 1.9,1.2 c 0,0 -1.7,0.3 -3.9,-2 -2.2,-2 -3.1,-4.6 -3.1,-4.6 0,0 0.5,5.8 -0.4,9.3 l -1.1,4 c 0,0 4.6,0.9 9.8,-0.6 5.2,-1.4 5.6,-1.9 5.6,-1.9 0,0 0.6,-0.1 -0.2,-1.2 a 28,28 0 0 1 -2.9,-5 z" id="path92"></path><path fill="#b96b29" d="m 305,187 a 11,11 0 0 1 -1.8,-2.3 c 0,0 -0.5,0.5 0,1.3 a 15,15 0 0 0 4.3,3.7 11.1,11.1 0 0 0 3,1.2 v -0.4 c 0,0 -3.9,-1.7 -5.5,-3.5 z m -6.3,12 -0.4,-8.3 c 0,-1 -0.7,-0.8 -0.7,-0.8 l -0.8,0.3 1.6,10.6 c 0.1,1.2 0.7,1 1,1 -0.6,-0.3 -0.7,-2.5 -0.7,-2.8 z m -9.8,-31.4 c -0.6,-0.6 -2,-1 -0.7,0.4 1.3,1.4 3,3.2 3.5,4.7 0.5,1.4 0.8,3.3 0,2.9 -0.9,-0.4 -1.5,-0.4 -2.4,-1.2 a 15,15 0 0 0 -3.2,-2.1 c -0.7,-0.2 -2,0 -1,1 a 24.8,24.8 0 0 0 4,3.6 c 1.8,1.3 3,2 4,2.6 a 36.9,36.9 0 0 0 1.9,1.3 c 0,0 -0.9,-6 -2.5,-8.5 a 26.3,26.3 0 0 0 -3.6,-4.7 z m -32,99.2 a 7,7 0 0 1 -2.8,1.3 c 0,0 -0.8,0 -0.8,0.2 0,0.2 1,0 1.8,-0.1 a 8,8 0 0 0 2.6,-1.4 c 0.5,-0.4 1.2,-0.8 1,-1.4 -0.3,-0.6 -0.6,0.5 -1.8,1.4 z m 10.3,5.5 -2.2,1.8 -1.3,0.7 c -0.7,0.2 -0.9,0.6 -0.9,0.6 0,0 0.2,0.2 0.9,0 0.7,-0.2 2.7,-1.7 3.4,-2.3 0.7,-0.6 1,-0.7 0.7,-1 -0.3,-0.3 -0.4,0 -0.6,0.2 z M 225.3,198 c 0.4,0.4 0.8,1 1,0.9 0.2,-0.2 0,-0.5 -0.5,-1 l -0.8,-0.9 -1.1,-1.5 c -0.4,-0.4 -1,-0.7 -0.3,0.3 z m -3.2,7 1.4,1.3 c 0.5,0.5 0.8,1.1 1.1,0.8 0.3,-0.3 -0.7,-0.9 -1.2,-1.5 a 7.5,7.5 0 0 0 -1.4,-1.4 10,10 0 0 0 -1.2,-0.8 z m 1.2,11.2 c 0.8,0.9 2,1.1 2.1,0.8 0.2,-0.4 0,-0.6 -0.7,-1 a 24,24 0 0 1 -2.3,-1.4 l -1.4,-1.1 c -0.4,-0.4 -0.8,-0.7 -1,-0.6 -0.1,0.1 1.1,1.5 1.5,1.7 0.4,0.2 1,0.8 1.8,1.6 z m 2.3,9 c 0,-0.3 0,-0.5 -0.6,-0.5 a 26.9,26.9 0 0 1 -1.6,-0.2 c 0,0 -1.3,-0.5 -1.3,-0.2 -0.1,0.3 1,0.8 1.5,0.8 l 1.4,0.4 c 0.3,0.2 0.6,0 0.6,-0.3 z m 1,9.8 c -1.4,0 -2.6,-0.3 -2.7,0 -0.1,0.1 0.6,0.5 1.3,0.7 0.8,0.3 2,0.3 3,0.4 1,0 1,-0.2 1,-0.6 0,-0.5 -1.2,-0.5 -2.6,-0.5 z m 11,10.8 c -0.2,-0.2 -0.7,0 -1.5,0 -0.8,0.3 -2,0.5 -2.8,0.5 l -2.4,-0.1 -0.9,0.2 c 0,0.2 1.2,0.2 3,0.4 1.7,0.2 2.9,-0.2 3.7,-0.3 0.8,-0.2 1.1,-0.5 1,-0.7 z m 4.6,7.6 a 5.6,5.6 0 0 1 -2.2,0.4 l -2.2,0.3 c 0,0 -0.8,0 -0.6,0.4 0,0.3 0.3,0 1,-0.1 h 2.3 c 1.1,0 1.8,-0.4 2.5,-0.5 0.7,-0.1 1.5,-0.5 1.2,-1 -0.4,-0.4 -1.2,0.2 -2,0.5 z m 8.9,5.8 -2.4,1.8 -1.2,0.6 c -0.7,0.4 -0.7,0.6 -0.6,0.8 0.2,0.2 0.6,-0.3 1,-0.5 0.5,-0.1 1.8,-1 2.5,-1.6 0.7,-0.6 1.6,-1 1.5,-1.5 -0.2,-0.4 -0.3,-0.1 -0.8,0.4 z m -14.8,-74.8 1.7,2.3 c 1.6,1.9 0.7,0.1 0.3,-0.4 l -3.4,-4.5 c -0.8,-0.9 -0.9,-0.5 -0.5,0 z m -3.2,9.8 c 0.2,-0.2 -0.3,-0.4 -1.2,-1.5 l -2.6,-3.3 c 0,0 -0.5,-1 -0.7,-1 -0.1,0.1 0.6,1.8 1.3,2.5 0.7,0.7 1.7,2 2.2,2.7 0.5,0.6 0.7,0.9 1,0.6 z m 4.2,18.5 c 0,-0.5 -1.7,-0.5 -2.5,-0.6 l -2.2,-0.5 c 0,0 -1.6,-0.3 -1.7,0 0,0.1 0.3,0.3 1.2,0.5 l 3.4,0.8 c 1,0.1 1.8,0.3 1.8,-0.2 z m -4.2,-10 c 1.1,1 1.9,1.4 2.5,1.7 0.6,0.4 1,0.8 1.4,0.5 0.3,-0.4 -0.3,-0.7 -1.3,-1.1 -1,-0.5 -1.4,-0.9 -1.4,-0.9 l -1,-0.5 c -0.6,-0.3 -1.4,-0.6 -0.2,0.3 z m 9.9,-6.5 -1.4,-1 c 0,0 -0.8,-0.8 -1,-0.5 -0.2,0.3 1,1 1.5,1.6 0.6,0.5 1.6,1.9 2,1.6 0.6,-0.3 -0.4,-1.1 -1.1,-1.7 z m -6.5,25.7 -1.6,0.4 c -0.6,0.2 -0.7,0.4 0.5,0.4 1.1,0 1.5,-0.3 2.7,-0.5 1,-0.2 1.5,-0.3 1.3,-0.7 -0.2,-0.3 -0.8,-0.2 -1.2,0 z m 1.7,9.3 c 0,0.2 0.8,0 1.4,-0.2 0.6,-0.2 1.8,-0.9 2.5,-1 0.7,-0.3 0.7,-0.4 0.7,-0.8 0,-0.4 -0.8,0 -1.7,0.2 -0.9,0.3 -2,1.2 -2,1.2 0,0 -0.8,0.4 -0.9,0.6 z m 12,5.6 c 0.9,-0.5 1,-0.8 0.7,-1 -0.3,-0.3 -0.5,-0.3 -1.2,0.2 a 51,51 0 0 1 -2,1.5 l -1,0.5 c -0.6,0.2 -1.2,0.7 -1,1 0.1,0.1 1.2,0 1.7,-0.6 0.5,-0.6 2,-1 2.8,-1.6 z m 5.7,7.5 c 0.3,-0.3 1.3,-0.6 1.8,-1 0.4,-0.3 0.7,-1.3 0.3,-1.4 -0.3,-0.1 -0.5,0.4 -1.3,1 l -3.5,2.4 -0.7,0.3 c -0.8,0.2 -0.4,0.5 0.2,0.4 0.6,-0.1 1,-0.1 1.8,-0.7 z m 8.3,7.1 a 10,10 0 0 0 2.3,-1.7 c 0.5,-0.4 1.1,-1 0.7,-1.3 -0.3,-0.3 -0.7,0.1 -1.3,0.6 l -2.1,2.2 c 0,0 -0.3,0 -1,0.7 -1,0.7 0,0.5 0.2,0.3 a 3,3 0 0 1 1.2,-0.8 z" id="path94"></path><path fill="#d4af3a" d="m 295.2,143.5 3.2,1.4 3.4,-2.4 -4,-1 z" id="path96"></path><ellipse cx="309.20001" cy="142.10001" fill="#b96b29" rx="3.2" ry="3.0999999" id="ellipse98"></ellipse><circle cx="309.20001" cy="141.39999" r="1.9" fill="#d4af3a" id="circle100"></circle><path fill="#d4af3a" d="m 302.4,131.4 c 0.9,0.3 2,0.2 2,0.2 0,0 0.3,-1.4 -0.5,-2.1 l -2,-1.7 -0.5,-0.6 -0.1,2 c 0,0.8 0.3,1.9 1.2,2.2 z" id="path102"></path><circle cx="304.20001" cy="133" r="0.60000002" fill="#d4af3a" id="circle104"></circle><path fill="#d4af3a" d="m 299.8,132.4 -0.8,0.9 c 0,0 0.6,0 1.2,0.4 0.5,0.4 1.2,0.7 1.8,0.6 0.7,0 1,-0.7 0.8,-1 -0.1,-0.5 -0.4,-1 -1.5,-1.3 -1,-0.4 -1.3,0 -1.5,0.4 z m 2.2,3.7 c -2,0.2 -4.7,-2 -4.7,-2 -0.2,1.8 -1.3,2.7 -3,3 l 0.1,0.1 c 0,0 1.6,0.8 3.5,1.1 a 7,7 0 0 0 2.5,-0.2 c 1,-0.2 2.3,-0.5 3,-1 1.2,-0.7 0.8,-2.6 0.8,-2.6 0,0 -0.2,1.5 -2.2,1.6 z m -7.9,-2 c -0.8,-0.3 -2,-0.9 -2.6,-1 -0.5,0 -1.2,0 -1.1,0.9 0.1,1 1.1,1.4 2,1.4 1,0 1.5,-0.3 2.1,-0.6 0.6,-0.3 0.5,-0.4 -0.4,-0.7 z m -6.3,-3.4 c -0.9,-0.7 -1.7,-0.9 -1.7,-0.9 0,0 -0.6,1.6 -0.3,2.6 0.4,1 1,1.2 2,1.2 0.8,0 2,-0.5 1.7,-1.2 a 5,5 0 0 0 -1.7,-1.7 z" id="path106"></path><ellipse cx="288.60001" cy="135.10001" fill="#d4af3a" rx="0.69999999" ry="0.5" id="ellipse108"></ellipse><path fill="#d4af3a" d="m 290.6,127.3 a 11,11 0 0 1 2,-9.3 c 2.5,-3.6 7,-5.1 7,-5.1 l 1.5,-1.8 c 1.4,-1.5 4.2,-3.4 4.2,-3.4 l -5.2,1.5 a 2.3,2.3 0 0 1 -2.2,2.4 c -0.5,0 -1,-0.2 -1.3,-0.4 -1,0.1 -4.4,2.2 -5.3,2.9 l 0.3,1.2 a 2.3,2.3 0 0 1 -2.2,2.3 c -0.4,0 -0.7,0 -1,-0.2 a 9.6,9.6 0 0 0 -0.3,0.5 23.4,23.4 0 0 0 -1.7,3.7 c 0.6,0.4 1,1.1 1,2 0,1.3 -0.9,2.3 -2,2.3 a 7.9,7.9 0 0 0 0,1.5 c 0.1,0.7 0.4,1.2 1.7,1.6 1.3,0.3 3.1,2.6 3.1,2.6 0.1,0 1,-1.6 0.4,-4.3 z" id="path110"></path><path fill="#d4af3a" d="m 298.6,110.3 c 0.5,-0.4 0.6,-1 0.2,-1.4 -0.4,-0.3 -1,-0.3 -1.5,0.1 -0.5,0.4 -0.6,1 -0.2,1.4 0.3,0.3 1,0.3 1.5,-0.1 z m -8.5,5.7 c 0.6,-0.5 0.7,-1.3 0.3,-1.7 -0.5,-0.4 -1.2,-0.4 -1.8,0.1 -0.6,0.5 -0.6,1.3 -0.2,1.7 0.4,0.4 1.2,0.4 1.8,-0.1 z" id="path112"></path><circle cx="285.10001" cy="123.2" r="1.3" fill="#d4af3a" id="circle114"></circle><path fill="#d4af3a" d="m 313.3,105 c -0.7,0.2 -2,0.6 -3.8,1.6 1.3,0 2.3,0.8 2.3,1.9 0,1 -1.1,2.2 -2.4,2.2 a 2.2,2.2 0 0 1 -2.2,-2.2 l 0.1,-0.7 -1.7,1.2 a 17.6,17.6 0 0 0 -7.2,8 c -2,3.8 -2.8,8 -2,10.4 1,2.5 4.2,3 4.3,3 0,0 -0.4,-0.3 -0.5,-0.8 l 0.3,-1.6 v -2.1 c 0,0 0.8,-0.1 1.2,0.4 l 1.4,1.7 1.6,1.5 c 0,0 0.6,-1 0.6,-2.1 0,-1.1 -0.7,-2.3 -0.9,-4.3 -0.1,-2 1,-5.5 2.8,-8 2,-2.6 5.5,-5 6.6,-5.5 a 2.1,2.1 0 0 0 1.3,-1.7 l 0.3,-2 c 0,-1.2 -1,-1.1 -2,-0.9 z" id="path116"></path><path fill="#d4af3a" d="m 309.2,109.5 c 0.7,0 1.4,-0.7 1.4,-1.3 0,-0.6 -0.6,-1 -1.3,-1 -0.8,0 -1.4,0.4 -1.4,1 0,0.6 0.6,1.3 1.3,1.3 z m 6.2,24.4 c 1,0.4 2.1,0.1 2.6,-0.2 0.6,-0.4 0.7,-1.3 0.1,-1.8 a 2,2 0 0 0 -2.1,-0.2 l -2,1.3 c 0,0 0.4,0.5 1.4,0.9 z" id="path118"></path><path fill="#d4af3a" d="m 318.6,135 c -0.4,0.6 -0.7,0.9 -1.8,1 -1,0 -2.3,0 -3,-0.8 a 7.7,7.7 0 0 1 -1.3,-1.7 h -1.2 c 0,0 -0.4,1.7 -1,2.1 -0.5,0.5 -2.5,0.6 -3.3,0 -0.9,-0.7 -1.6,-1.4 -1.8,-1.3 -0.1,0 0,0.7 0.9,1.4 0.9,0.7 1.5,1.3 2.9,1.3 h 8 c 0,0 1.6,0 2,-1 0.5,-0.9 0.5,-1.5 0.3,-1.7 -0.2,-0.3 -0.4,0.1 -0.7,0.7 z" id="path120"></path><path fill="#d4af3a" d="m 306.4,133.7 c 1.2,0.6 1.9,0.2 2.3,-0.3 l 0.6,-0.8 -1.7,-0.7 c -0.6,-0.4 -1,-0.7 -1.5,-0.6 l -0.6,0.1 c 0,0 -0.3,1.6 1,2.2 z" id="path122"></path><ellipse cx="300.70001" cy="121.9" fill="#b96b29" rx="2.7" ry="2.5999999" id="ellipse124"></ellipse><path fill="#b96b29" d="m 305.3,112.7 c -1,-0.7 -2.6,-0.4 -3.5,0.6 -0.9,1.1 -0.7,2.6 0.4,3.3 1,0.7 2.6,0.4 3.5,-0.6 0.8,-1.1 0.7,-2.6 -0.4,-3.3 z" id="path126"></path><ellipse cx="300.60001" cy="121.5" fill="#d4af3a" rx="1.6" ry="1.5" id="ellipse128"></ellipse><path fill="#d4af3a" d="m 304.2,113 a 1.8,1.8 0 0 0 -2,0.8 c -0.3,0.6 0.1,1.2 1,1.4 1.7,0.3 2.5,-1.8 1,-2.2 z m -40.7,206 c 0,0 -4.1,2 -5.4,2.3 l -1.6,0.4 c 0,0 -2.8,2.5 -4.9,3.8 a 18.3,18.3 0 0 1 -7.1,2.4 c -3.2,0.4 -12,0.3 -16,0.1 -4,-0.1 -6.4,0.8 -8.1,2.7 -1.7,2 -2.1,4.7 0,6.8 2.2,2.1 4.6,1 5.4,-0.2 0.8,-1.3 0.4,-3 0,-3.7 -0.3,-0.8 0.7,-1 1.8,-1.1 a 24.3,24.3 0 0 1 10.7,2.3 c 1.3,0.7 0.6,0.8 -0.3,0.7 -1,-0.2 -2,-0.5 -3.5,-1.1 -1.6,-0.6 -3,-1 -4,-1 -1,0 -0.7,0.5 -0.5,0.9 l 1,1.6 c 0.1,0.4 -0.3,1.9 -0.3,1.9 l 0.5,1 0.8,-1.5 c 0.2,-0.5 -0.1,-1.5 0.1,-2 0.2,-0.4 1,-0.4 1.7,0.4 a 6.7,6.7 0 0 1 1.8,3.5 c 0.3,2 -0.3,3.3 -0.3,3.3 0,0 0.8,0.7 1,1.1 l -0.3,2.3 c 0,0 0.6,0.3 1,-0.7 0.6,-1 1.2,-3 1.3,-3.6 0.2,-0.7 0.6,-1.9 1.4,-1 0.8,1 1.4,2 1.5,2.6 l 0.2,1 c 0,0 1.8,-1.7 2.4,-2.8 a 17,17 0 0 1 3.6,-3.9 c 1.7,-1.4 4.6,-4.2 6,-5.2 1.5,-1 5.2,-3 6.4,-3.6 1.1,-0.7 1.3,-0.8 1.5,-2.7 0.2,-2 1.2,-3.8 1.6,-5.1 z m -65.8,-73.7 c 0,-0.4 -0.7,-1.5 -0.8,-2.1 -0.2,-0.6 -0.8,-0.3 -0.8,-0.3 0,0 -1.3,0.8 -2.3,1 -1,0.3 -1,0 -1.2,-0.6 l -0.5,-3.2 c -0.2,-1 -0.4,-1 -0.8,-0.8 l -2.4,1 c -0.9,0.3 -0.6,0.7 -0.3,1.2 l 1.6,3.1 c 0.5,0.7 0,1 -0.4,1.3 l -2.3,0.6 c -1,0.4 -1,0.6 -0.8,1 0,0.3 0.8,1.7 1.1,2.3 0.4,0.6 0.7,0.2 0.7,0.2 0,0 1.1,-1 2,-1.4 0.9,-0.4 1,-0.3 1.2,0.4 l 1.5,4.8 c 0.2,0.7 0.5,0.6 1,0.4 l 1.6,-0.4 c 0.5,-0.2 0.7,-1.3 0.7,-1.3 l -2.5,-4.4 c -0.5,-1 0,-1.1 0.4,-1.2 0.4,0 1.6,-0.2 2.6,-0.5 1,-0.2 0.7,-0.8 0.7,-1.2 z m 22.3,96.5 c -0.1,-0.8 0,-1.7 -0.6,-2.3 a 8.1,8.1 0 0 1 -1.8,-3 c -0.3,-1 0.3,-1.6 0.2,-2.2 -0.1,-0.6 -1,-0.6 -1.7,0 -0.8,0.7 -1.9,1.3 -1.9,3.2 0,2 0.7,4.2 3.4,5 2.6,0.8 2.6,0.2 2.4,-0.6 z m 2.7,-0.9 c 0,0 -0.5,-0.3 -0.8,0.2 -0.2,0.5 -0.2,0.7 0.5,1.9 0.7,1 1.2,1.3 2,1.8 0.8,0.5 0.2,-0.5 0.1,-0.8 0,-0.3 0,-0.7 -0.2,-1 -0.2,-0.3 -0.3,-0.5 -0.3,-1.3 0,-0.8 -1.3,-0.8 -1.3,-0.8 z" id="path130"></path><path fill="#d4af3a" d="m 226,350 c 0.5,-0.8 1,-1 2.1,-1.5 a 15.3,15.3 0 0 1 4.2,-1 c 0.7,0 2.5,-1.4 2.2,-3 -0.3,-1.4 -1.4,-2 -2.3,-2.2 -1,-0.3 -1.8,-0.3 -2.1,0.2 -0.3,0.5 -0.9,1 -2,1.4 -1.1,0.4 -1.1,0.7 -1.8,1 -0.6,0.1 -0.1,0.5 -0.7,1 -0.5,0.4 -1.3,0 -2.1,-0.3 -0.9,-0.2 -1,-0.4 -1.9,-0.4 l -3.4,-0.2 h -0.7 c -0.6,0 -0.6,0 -0.9,0.6 -0.3,0.6 0.1,2.1 0.7,2.9 0.6,0.7 2.6,1 3.9,1.5 l 3,0.8 c 1.2,0.1 1.3,0 1.8,-0.8 z m 12.2,1.2 c 1,-0.7 0.4,-2 0.2,-2.7 -0.3,-0.7 -1.7,-0.9 -2.5,-0.9 -0.7,0 -1.1,0 -1.5,0.4 -0.4,0.3 -1,0.8 -2,1.2 -1.2,0.3 -2,0.7 -3.6,1.3 -1.5,0.6 -2,1.6 -2.6,2 -0.6,0.4 -1.9,0 -1.9,0 0,0 -0.9,-0.2 -1.2,0 -0.3,0.3 0,0.8 0.6,1.5 0.6,0.6 1.8,0.6 3,1 1.4,0.4 1.6,0 2.1,-0.3 0.5,-0.3 1,-1 1.8,-1.6 1,-0.6 3,-0.7 3.9,-0.8 1,-0.1 2.6,-0.4 3.7,-1.1 z m 0,-4.6 c 0.4,0.4 1,1 1.3,0.3 0.4,-0.6 1,-2 0.6,-2.8 -0.4,-0.8 -1,-1.5 -1,-1.5 l -1,3 c -0.4,0.5 -0.4,0.6 0,1 z m -4,-7 c 0,-1.2 -1,-2.8 -1,-2.8 0,0 -0.3,1.2 -0.9,2.2 -0.5,1 -1,1.6 -1,1.6 l 1.7,0.4 c 0.5,0 1.1,0 1.1,-1.3 z m -7.6,2.8 c 1.4,-0.2 2.1,-0.8 2.7,-1.3 0.6,-0.5 1,-1.9 0.6,-2.6 -0.4,-0.7 -1.4,-1.4 -1.8,-1.4 h -0.8 c 0,0 -0.4,1.3 -1,2 -0.5,0.6 -1.1,1 -1,1.9 0,0.8 -0.1,1.7 1.3,1.4 z m 2.8,-6.3 a 2.4,2.4 0 0 0 -0.6,-1.9 l -0.8,-0.7 -0.2,1.6 -0.1,0.6 0.7,0.6 c 0.4,0.1 1,0.4 1,-0.2 z m -17.3,-35.7 1,-6 A 39,39 0 0 0 206.8,279 c -2.4,-3.8 -5,-10 -6,-13.2 a 37.4,37.4 0 0 1 -2,-10 c 0,-2.3 1,-3.5 1,-3.5 0,0 0.5,-0.6 0.1,-1 -0.4,-0.4 -1,0 -1.7,0.6 a 7.5,7.5 0 0 0 -1.5,2.6 l -0.3,1.1 c 0,0 -1.2,-0.3 -3.3,-0.1 -2,0.2 -3,0.3 -3,0.8 0,0.4 0.3,0.7 1.7,1.4 1.5,0.6 2.4,0.9 3.1,1.7 0.8,0.9 2.6,5.2 3.2,7.3 0.6,2.1 1.8,7.8 2.3,12.2 a 49,49 0 0 0 4,14.4 c 0.8,1.5 4.5,8.5 7.7,7 z m 3.7,10.4 c -1.4,0.8 -1.3,6.4 -0.7,9.3 0.6,2.9 3.4,6.5 4.3,7.5 0.9,1 1,1 1.5,0.7 l 0.7,-0.2 c 0,0 1.2,-0.5 2.1,-1.2 1,-0.7 0.6,-2.5 0.4,-4 -0.1,-1.6 -1.4,-4.8 -3.6,-8.5 -2.2,-3.6 -3.3,-4.4 -4.7,-3.6 z m 1.5,-4.5 c 0,-1.9 -1.6,-3.2 -3.4,-3.2 -0.9,0 -1.6,0.2 -2.1,0.6 -1.9,1.7 -0.7,5.8 2,5.8 0.9,0 2,-0.1 2.7,-0.8 0.7,-0.6 0.8,-1.6 0.8,-2.4 z m 26.5,52.7 a 7,7 0 0 1 -2.2,-1.2 10,10 0 0 1 -3.1,-3 c -0.3,-0.7 -0.3,-0.7 -1.4,-0.4 -1,0.4 -2.5,0.3 -3.6,0.4 -1,0 0.2,1.3 1,2.4 0.7,1.2 0.4,5.1 0.4,5.1 l -0.1,0.9 c -0.2,0.6 0,1 0.2,1 0.3,0.2 0.5,0 1.3,-1 0.8,-0.9 2.2,-3.2 2.2,-3.2 l 1.4,0.3 c 1.2,0.3 3.1,0.1 4.1,-0.2 1,-0.3 0.6,-1 -0.2,-1.1 z" id="path132"></path><path fill="#d4af3a" d="m 239.2,362 c -0.5,0 -0.7,-0.1 -1,0.2 l -0.6,1.4 c -0.1,0.3 0,0.6 0.2,0.9 l 0.8,0.5 c 0,0 0.4,0.5 0.8,0.7 0.5,0.2 0.5,-0.4 0.5,-0.9 l 0.3,-1.9 c 0,-0.6 -0.4,-0.8 -1,-0.9 z" id="path134"></path><path fill="#1d5e91" d="m 435,324.2 c -1.3,-0.3 -1.9,-0.8 -1.9,-0.8 0,0 -0.5,0 -1,0.7 -0.3,0.8 -2,1.8 -2,1.8 0,0 -2.2,0.6 -2.5,2.2 -0.3,1.5 0.8,2 1.8,1.9 1.1,-0.2 3.7,-0.7 4.9,-2.1 1.1,-1.4 1.3,-2.2 1.5,-2.7 0.2,-0.5 0.4,-0.7 -0.9,-1 z m 3.5,-12.4 a 15,15 0 0 0 -7.4,-9.9 l -2.1,7.5 c -0.5,1.8 -0.5,1.7 0.9,2 l 6.7,1.6 c 0.9,0.3 2.4,1 1.9,-1.2 z m -20.6,-3.2 c 1,0.1 1,-0.3 1.3,-1.7 l 2.1,-8.2 c 0,0 -4.5,-0.1 -8.5,1.8 -3.9,1.9 -5.6,5.4 -5.6,5.4 0,0 1,0.4 3.7,1 2.7,0.6 6,1.5 7,1.6 z m -10.5,9.3 -2.2,-0.4 c 0,0 1,3.8 2.7,6 1.7,2.2 3.5,3.2 7,3.3 3.5,0 6,-1.9 6.5,-3.4 0.4,-1.5 1.1,-2.6 1.1,-2.6 0,0 -6.2,-0.8 -8.8,-1.4 z" id="path136"></path><path fill="#d4af3a" d="m 406.3,315.5 15.5,3 c 1,0.3 2,0.5 2.2,0.2 0.3,-0.3 0.5,-0.5 1.6,-0.9 1.2,-0.4 1.1,-1.5 1.1,-1.5 l 0.4,-2.2 c 0.2,-1 0.8,-1.4 2,-0.1 1.3,1.3 1.5,3.2 1.7,5 0.3,2 3.2,2.4 4.4,2.6 1.1,0.2 1.6,-0.2 2.3,-1.3 0.7,-1 1,-3.2 1.2,-4.6 0.2,-1.4 0,-1.2 -1.4,-1.6 l -9.3,-2.2 c -1.2,-0.2 -1,-1 -0.7,-1.9 0.1,-0.8 2.8,-9.2 2.8,-9.2 a 18.9,18.9 0 0 0 -7.7,-2.3 l -2.3,10 c -0.3,1.3 -1.2,1.3 -2.5,1 -1.4,-0.2 -11.3,-2.5 -11.3,-2.5 l -0.8,1.8 a 15.5,15.5 0 0 0 -1.1,5.2 c 0,1.2 0.4,1.2 1.9,1.5 z" id="path138"></path><path fill="#d4af3a" d="m 440.3,323.3 c -1.3,-0.9 -2.3,-1.1 -3,0.5 -0.7,1.6 -0.7,4 -2.4,5.6 -1.8,1.7 -4.2,3.4 -6.6,3.2 -2.4,-0.2 -3.7,-0.7 -3.2,-3.5 0.6,-2.7 4.3,-3.6 5.1,-5 0.9,-1.5 0.7,-3.1 -0.6,-4.2 -1.3,-1.1 -3.1,-1.3 -3.6,-1 a 8,8 0 0 0 -2.8,3.7 c -0.7,2 -1.2,3.7 -2.8,5 a 12.2,12.2 0 0 1 -9,2 c -3.1,-0.8 -4.3,-1.8 -5.5,-5 -1.2,-3.1 -2.6,-8.3 -3.2,-9 -0.7,-0.5 -1.5,-1 -2.8,0 -1.4,1 -1.5,2.4 -1.7,3.6 -0.2,1.1 0,2.5 1.4,4.1 1.4,1.7 2.8,3.3 3.3,5 0.5,1.8 2,4.4 -0.1,4.5 -2.2,0.2 -3.2,0.2 -4.8,-1.4 -1.7,-1.6 -8.2,-6 -10,-7.4 a 29,29 0 0 0 -2.5,-2 c -3,0 -6,-1.2 -9,-3.3 0,0 1.8,4.4 2.1,6.1 0.4,1.7 0.3,2.6 0.3,2.6 l 9.1,4.6 a 168,168 0 0 1 10.3,5.8 c 2.5,1.5 4.7,4 9.1,3 4.5,-0.9 13.5,-3.6 16.5,-4.5 2.9,-0.9 11,-2.9 14,-5 3,-2 3.2,-1.9 3.7,-4 0.5,-2 0,-3.1 -1.3,-4 z m -17.2,-31 2.2,-0.3 c 1.5,-0.1 1,1.3 0.7,1.9 l -1.4,2.7 c -0.6,1 0.2,1.2 0.6,1.4 l 2.3,0.6 c 1.3,0.3 1,-0.6 1,-1 l 0.3,-3.8 c 0.1,-0.9 1,-0.6 1.2,-0.5 l 1.7,1 c 0.6,0.3 1,0 1,-0.4 l 0.8,-2 c 0.2,-1 -0.4,-0.8 -1,-0.8 h -2.4 c -1,0 -0.4,-1 -0.4,-1 L 431,288 c 0.6,-0.9 0.4,-1 -0.2,-1.2 l -2.8,-0.7 c -0.5,-0.1 -0.7,0 -0.7,0.3 l -0.1,2.7 c 0,0.7 0,1 -1,1 -0.8,0.1 -1.3,-0.4 -2,-1.1 -0.7,-0.8 -1,-0.5 -1,-0.2 l -0.8,3 c -0.2,0.7 0.1,0.6 0.6,0.6 z m 4.8,21.8 c 0,0 -0.1,1.7 -0.3,2.3 -0.2,0.7 -0.6,1.6 0.1,1.8 0.8,0.2 1.4,0.5 1.8,0.4 0.5,-0.1 0.3,-1 0,-1.7 a 6.4,6.4 0 0 0 -1.1,-2.2 z m 10.5,7 c 0.2,0.5 0.7,0.6 1,0.7 0.4,0.1 1,0.1 1,-0.5 0,-0.6 0,-1.5 -0.5,-2.2 -0.5,-0.8 -0.8,-1.3 -1.1,-0.2 -0.4,1 -0.6,1.6 -0.4,2.2 z m -36.7,-7 1.4,0.4 c 0,0 0,-1.7 0.3,-2.8 0.2,-1.2 0.7,-2 0.3,-2 -0.4,0 -0.7,0.4 -1,0.9 -0.3,0.5 -1.1,0.6 -1.4,2 -0.3,1.3 0.1,1.4 0.4,1.4 z" id="path140"></path><circle cx="408.89999" cy="311.20001" r="2.3" fill="#b96b29" id="circle142"></circle><circle cx="415.5" cy="312.79999" r="2.4000001" fill="#b96b29" id="circle144"></circle><circle cx="434.60001" cy="316.89999" r="2.4000001" fill="#b96b29" id="circle146"></circle><circle cx="422.10001" cy="314.39999" r="2.4000001" fill="#b96b29" id="circle148"></circle><circle cx="423.79999" cy="308.60001" r="2.4000001" fill="#b96b29" id="circle150"></circle><circle cx="425.5" cy="302.89999" r="2.4000001" fill="#b96b29" id="circle152"></circle><circle cx="409.10001" cy="310.89999" r="1.2" fill="#d4af3a" id="circle154"></circle><circle cx="415.60001" cy="312.60001" r="1.2" fill="#d4af3a" id="circle156"></circle><circle cx="434.79999" cy="316.60001" r="1.2" fill="#d4af3a" id="circle158"></circle><circle cx="422.20001" cy="314.10001" r="1.2" fill="#d4af3a" id="circle160"></circle><circle cx="424" cy="308.39999" r="1.2" fill="#d4af3a" id="circle162"></circle><circle cx="425.70001" cy="302.60001" r="1.2" fill="#d4af3a" id="circle164"></circle><path fill="#d4af3a" d="m 349.5,359.1 -5.2,-3.6 a 11.8,11.8 0 0 1 -3.9,-4 h 1 c 0.6,0 1,-0.7 1,-1.5 0.1,-0.8 0,-2.3 -0.2,-4.1 -0.2,-1.8 0.3,-3.3 0.3,-3.3 0,0 1.3,1.1 3.1,2 1.9,1 2.6,0.6 2.6,0.6 l 0.5,-1.9 2,3.7 c 1,2 4.1,4.2 6.3,5.8 2.2,1.7 4.6,3.4 6.4,4 1.8,0.7 0.8,1.5 0.8,1.5 0,0 -1.8,1.8 -6.5,2.7 -4.7,0.8 -7,-1 -8.2,-1.9 z" id="path166"></path><path fill="#d4af3a" d="m 333.2,357.3 c 1.7,-0.2 2.7,-0.8 3,-2.6 0.2,-1.2 -0.1,-5.7 -0.1,-5.7 l 1.2,1.2 c 0.6,0.8 2,1 2,1 0,0 0.2,0.6 0.9,1.6 a 9.3,9.3 0 0 0 3,3.2 c 1.6,1 3.5,2.2 4.7,3.2 a 28.1,28.1 0 0 0 4.2,3.1 7,7 0 0 1 3.6,4.7 c 0.6,2.4 0.1,3.1 -1.7,3 -1.9,-0.1 -2,0 -5,-0.7 -3,-0.8 -7.3,-4.1 -10.4,-6 -3.1,-2 -5.4,-6 -5.4,-6 z" id="path168"></path><path fill="#d4af3a" d="m 325,360 c 0,0 1.2,-1.6 1.6,-3.4 l 1.4,-5.4 1.4,3.3 a 4.9,4.9 0 0 0 2.8,2.7 c 0,0 0,0.9 1.5,2.7 a 21,21 0 0 0 5.6,4.8 c 2.2,1.2 5,3 6.5,5.1 1.5,2.2 1.6,4.4 1,5.4 -0.8,1 -1.8,-0.1 -3.2,-0.9 -1.5,-0.7 -5.6,-1.3 -11.2,-4.4 -5.6,-3 -7.5,-9.9 -7.5,-9.9 z" id="path170"></path><path fill="#d4af3a" d="m 322.5,372.7 c -1.6,-2.4 -1.8,-8 -1.8,-8 l 1.3,-1 c 0.7,-0.7 2.2,-2.9 2.2,-2.9 l 2,3.8 c 1,1.8 1.4,2.4 3.6,4.3 2,2 5,3.9 6.1,6 1.3,2 0.6,6.1 -0.2,7.5 -0.8,1.5 -2,1 -3.1,-0.1 L 329,379 c -2.1,-1.7 -5,-4 -6.5,-6.3 z" id="path172"></path><path fill="#b96b29" d="m 341,325.3 c -0.8,-1.7 -1.8,-3.7 -2.5,-4.8 a 15,15 0 0 1 -1.3,-2.2 c 0,0 2,1.8 2.8,3.1 0.8,1.4 1.3,2.6 1.6,4 0.4,1.4 0.2,1.6 -0.6,0 z m -8,1.5 -0.5,-1.9 c 0,0 -0.3,-1 -0.2,-1.1 0.2,-0.1 1,0.6 1.6,2.5 0.6,1.8 1.5,4.5 1.3,4.6 -0.2,0 -1.9,-3 -2.2,-4.1 z m -6.3,5 -0.4,-0.8 c 0,0 -0.6,-2 -0.6,-2.5 0,-0.4 0.2,-1 0.7,0.1 0.5,1.1 0.6,2.2 0.7,2.6 0.1,0.5 0.7,2.1 0.5,2.3 -0.1,0.1 -0.5,-0.9 -1,-1.7 z m 19.5,19.2 0.9,-0.5 1.2,1.5 c 0.7,0.7 1.5,1 2,1.7 a 8,8 0 0 0 2.8,2.3 c 1.3,0.7 1.8,1 1.5,1.1 -0.2,0.2 -1.1,-0.3 -1.1,-0.3 0,0 -0.4,0 -2,-1 -1.5,-0.9 -1.9,-1.4 -2.9,-2.3 z m -6.8,8.1 c -0.6,-0.6 -1.2,-1 -0.9,-1.4 0.4,-0.3 0.8,-0.3 1.3,0.2 l 2.9,2.6 2,1.5 c 0.7,0.6 2.3,1.4 3,1.8 0.8,0.5 0,0.5 0,0.5 l -1.2,-0.5 -2.4,-1 -1.7,-1 c -1,-0.7 -2.4,-2 -3,-2.7 z m -7.8,5.5 c -0.5,-1 0,-0.8 0.8,-0.4 0.9,0.3 2.8,2.4 3.9,3.1 1,0.8 2,1.1 3,1.6 0.8,0.4 0.8,0.7 0.8,0.9 0,0.2 -0.4,0.2 -0.8,0 l -1.7,-0.9 -1,-0.2 c -0.5,0 -1.3,-0.6 -2.4,-1.6 -1.1,-1 -2.1,-1.5 -2.6,-2.5 z m -3.7,7.2 c 1.4,0.8 3.8,2.7 4.4,4 0.6,1.2 1,2.1 0.9,2.3 -0.3,0.2 -1,-0.2 -1.2,-0.7 l -1,-1.2 c 0,0 -2.4,-2.4 -3.2,-3 a 8.3,8.3 0 0 1 -2.7,-3 c -0.3,-1 0,-1.4 0,-1.4 0,0 1.4,2.1 2.8,3 z" id="path174"></path><path fill="#c52126" d="m 365,170 a 22.3,22.3 0 0 1 8.3,-2.6 c 3.6,-0.3 6.4,0.2 9.5,1 2.1,0.6 3.9,0.7 5.6,0.3 2.6,-0.7 4.6,-3 5.3,-6 0,0 2.4,3.1 0,6.5 a 7.2,7.2 0 0 1 -4.3,2.9 c -5.1,1 -10.1,-2 -14.3,-2.4 -4.1,-0.2 -7.3,2.4 -7.3,2.4 0,0 -1,0.8 -2.4,0 -1.3,-0.8 -1.7,-1.4 -0.4,-2.2 z" id="path176"></path><path fill="#d4af3a" d="m 379.6,317.5 1.2,-0.2 c 0.7,0 2.2,-0.6 2.7,-0.8 0.5,-0.2 1.2,-0.2 1.6,0.3 0.5,0.5 4.1,2.7 4.1,2.7 h -6 c -2.1,0 -3.5,-2 -3.5,-2 z" id="path178"></path><path fill="#d4af3a" d="m 362.6,316.4 v -0.5 l 0.8,-1.8 c 0,0 1,0.6 1.8,1.5 1.2,1.3 2.5,3 3,3.7 1,1.3 2.5,2.5 1.3,0.5 -1.2,-2 -1.6,-3 -2.6,-4.4 l -1.6,-2 3.4,-0.5 c 2.5,-0.3 4.2,-1.3 5.3,-2 l 3.3,-1.9 c 0,0 4.3,1.9 6,2.3 1.6,0.4 2.5,0.6 1,1.4 -1.6,0.8 -3,1 -3.7,1.5 a 12,12 0 0 1 -4.6,1.2 c -1.5,0 -4,0 -3,1 a 22,22 0 0 1 4.2,13 l -0.1,2.5 c 0,0 -1.8,-2 -6.6,-5 a 71,71 0 0 0 -7.4,-4.4 c -0.9,-0.4 -1.3,-0.4 -1.2,-1.5 z" id="path180"></path><path fill="#d4af3a" d="m 344.4,302 a 68.5,68.5 0 0 0 0.8,-0.4 h 0.3 c 0.5,0.3 3.4,2.3 4.6,4.2 1.2,1.9 2.4,2 1,0 a 17.9,17.9 0 0 0 -3.2,-4.2 23.4,23.4 0 0 0 -1,-0.8 53.3,53.3 0 0 0 7.3,-4.2 c 0.4,0.6 1,1.7 1.7,2.5 1,1 3.2,2 3.2,2 0,0 -1.8,-2 -2.4,-3.3 l -0.8,-2.5 a 31.7,31.7 0 0 0 4.8,-4.6 c 0.3,1.3 1.3,4.2 4.2,7.4 3.7,4.2 11.2,6.3 11.2,6.3 0,0 2.6,0.3 0.5,0.9 -2.1,0.5 -3.6,1.5 -7.8,0.8 l -5,-1.1 c -0.5,-0.2 -2,0 0,0.7 2.1,0.8 7,1.5 8.8,1.4 1.8,-0.2 4.4,-0.6 1.7,0.8 -2.6,1.4 -3.7,2 -5.3,2 -1.6,0 -2.3,0.5 -4,0.5 -1.5,0 -2,-0.3 -3,-0.5 -1.2,-0.3 -1.9,0.1 -1.9,0.6 0,0.4 1.5,1.7 1.5,4.7 0,3.1 -0.3,5.1 -0.6,6 -0.3,1 -1,2.4 -1.4,3.2 -0.4,0.8 -0.6,1.7 -1,-0.1 -0.5,-1.8 -1.5,-4.4 -1.9,-6.1 l -0.8,-2.7 c -0.1,-0.9 -1.1,-1.6 -0.6,0 a 133.4,133.4 0 0 1 1.2,5.2 c 0.4,1.5 1.1,4.2 -0.2,2 -1.3,-2 -6.4,-7.7 -7.2,-8.8 l -2.1,-2.8 c -0.7,-0.8 -2.4,-1.9 -3.2,-3.1 a 28.5,28.5 0 0 0 -4,-4 l 4.5,-2 z m 69.5,-129.2 c -0.1,3.1 -3.5,9 -5.5,12.2 -2,3.1 -2.5,4.4 -2.1,4.6 0.3,0.2 1.1,-1.4 2.2,-2.8 l 4.9,-7.2 c 1.7,-2.5 4.2,-8.4 4.6,-8.9 0.3,-0.5 0.4,-0.9 1.3,-0.2 0.9,0.7 2.6,7.2 0.5,11.6 -2,4.4 -5,7.6 -6.2,9.2 -1.3,1.5 -3,4 -2.7,4.1 0.3,0.2 0.7,-0.4 2.3,-2 a 47.3,47.3 0 0 0 9.6,-12.5 c 0.2,-0.4 0.5,-0.3 0.8,0 0.5,0.5 1.4,1.8 1,5.3 a 17,17 0 0 1 -5.3,10.2 c -2.3,2.4 -4.6,4.5 -4.3,4.9 0.4,0.3 2.7,-1.8 4.3,-3.3 1.6,-1.6 5.6,-5.4 6.4,-6.5 1,-1 2.2,-0.5 2.1,3.7 0,4.3 -4.7,8.5 -6.7,10.9 -2,2.3 -4.3,3.7 -4.1,4.2 0.2,0.5 2.1,-0.7 3.4,-1.6 l 7,-4.6 c 0.9,-0.7 1.3,0.6 0.1,4.6 -1.2,4 -4.6,7.2 -6.7,8.7 -2,1.5 -5.4,3.3 -5.2,3.8 0.2,0.4 1.6,-0.2 3.5,-1.1 2,-1 4.3,-1.8 6,-2.3 1.6,-0.5 1.6,0.7 1.6,0.7 0,0 0.4,3.5 -2.1,6.2 a 13.3,13.3 0 0 1 -8,4.3 c -2.6,0.5 -3,0.6 -3,1 0,0.4 0.4,0.5 1,0.5 l 5.3,0.2 c 2.3,0 3.5,0.6 3.5,1.6 0,1 0,2.3 -3.3,4.6 -3.5,2.3 -7.3,2.6 -8.9,3 -1.6,0.3 -1.6,0.4 -1.3,0.9 0.3,0.5 1,0.4 3.6,0.7 2.5,0.2 4,1.2 4.4,2 0.3,0.6 -0.2,2.6 -2.3,4 -2,1.4 -4.7,1.9 -8.7,1.6 -4,-0.3 -5,-0.3 -5.2,0.3 -0.1,0.7 1.2,1 3.2,1.2 2,0.4 3.6,0.4 4.7,1.3 1.2,1 0.3,2.9 -1.7,4.3 -1.9,1.4 -6.7,1.4 -8.7,1.3 -2,-0.2 -5.1,-0.9 -5.3,-0.4 -0.2,0.6 1.5,1.4 3.5,2.1 2.1,0.8 2.7,1.2 3.1,2.1 0.4,0.9 0,1.7 -2.4,2.6 a 12,12 0 0 1 -8,0 c -1.8,-0.8 -2.8,-1.1 -3.2,-0.8 -0.3,0.3 0,0.7 0.4,1.1 0.4,0.5 2,1.8 4.1,2.3 2,0.6 2.3,0.6 3,2.2 0.8,1.7 -1.1,3 -4.9,3.2 -3.7,0.1 -8.7,-1.4 -10.3,-2.3 -1.6,-1 -2.2,-1.1 -2.5,-0.8 -0.3,0.3 -0.2,0.5 0.6,1.1 0.8,0.6 3.3,2.5 4.6,2.8 1.3,0.3 1.4,1.3 1.4,2.1 0,1 0.4,2.6 -3,3.5 -3.3,0.8 -7.3,0.2 -10.9,-2.4 a 8.3,8.3 0 0 1 -2.2,-2 28,28 0 0 0 -0.3,-8 c 0.7,0 2,-0.3 3.4,-0.9 2,-0.8 2.8,-2.6 3.3,-3.6 0.5,-1 1.2,-1 2,-0.8 0.8,0.3 1.6,0.6 2.7,0.6 a 7.9,7.9 0 0 0 5.3,-2.8 c 1.7,-2 1.4,-4 1.5,-5 0,-1 1.6,-0.3 2.4,-0.3 0.8,0 3.2,-0.4 5.3,-1.9 2.2,-1.4 2.2,-3.4 2.4,-4.3 0.2,-0.8 1,-1.3 1.7,-1.6 0.7,-0.2 1.7,-0.5 3.2,-1.7 1.5,-1.2 2,-3.5 2,-4.4 0.2,-0.8 1,-0.8 4,-2.4 3,-1.5 2.8,-4.7 2.6,-6 0,-1.3 -1.5,-2.3 -1.5,-2.8 0,-0.5 1,-0.6 2,-1.2 1,-0.6 3.6,-1.6 3.6,-5.4 0,-3.7 -2.4,-4.1 -2.4,-4.1 l 1.5,-0.8 c 1,-0.6 3.7,-2.5 3.7,-4.7 0,-2.2 -1,-3.2 -1.7,-3.8 -0.7,-0.5 -2.7,-1 -2.7,-1 0,0 1.2,-0.9 1.8,-2.6 0.5,-1.7 0.7,-3.9 -0.6,-5.4 -1.2,-1.6 -3.4,-1.6 -4.5,-1.6 -1.2,0 -2.2,0.6 -2.6,0.3 -0.4,-0.3 -0.4,-0.6 0,-1.5 0.4,-0.8 0.4,-3 0.1,-3.7 -0.3,-0.8 -0.4,-2.2 -3.3,-3.2 -2.9,-0.9 -5.9,1 -6.8,1.6 -1,0.5 -0.5,-0.8 -0.5,-1.7 0,-1 1.9,-3.3 4.1,-6.6 2.2,-3.4 3.2,-5.1 5.7,-10.2 A 65.7,65.7 0 0 0 409,159 c 0.4,-1.6 1,-0.8 1,-0.8 0,0 0.7,0.2 2.2,4.1 a 25,25 0 0 1 1.7,10.5 z" id="path182"></path><path fill="#d4af3a" d="m 363.4,241.4 c 1.7,-0.1 4,-1 5.7,-3.6 1.7,-2.5 4.3,-3 8.8,-3 4.5,0.1 6.6,-2 7.7,-5.2 1,-3 -0.2,-6.6 -4.8,-8.9 -4.5,-2.2 -6.6,-4.7 -6.8,-8.6 -0.1,-3.9 4.6,-8.7 9.3,-14.1 4.8,-5.5 8.5,-13.2 8.5,-13.2 0,0 1.4,1.8 1.4,3.7 0,1.8 -0.7,3.7 0,4.2 0.7,0.5 0.9,-0.8 3.7,-2 2.7,-1.2 5,-1.4 6.7,0.6 1.7,2 0,5.4 -1.6,7 -1.5,1.7 -2.8,3 -2.4,3.5 0.4,0.6 2.8,-0.9 3.5,-1.4 0.8,-0.5 2.6,-2.5 5.3,-2.3 2.7,0.3 3.6,1 3.9,3.3 0.2,2.3 -2.4,4.2 -4.2,5.1 -1.7,0.9 -2.4,1.6 -2,2 0.5,0.3 1,0 1.7,-0.3 a 8,8 0 0 1 4.3,0 c 1.4,0.6 3.6,2.5 1.6,4.8 -2.1,2.3 -6.4,3.2 -7.3,3.3 -0.8,0.2 -1.3,0 -1.4,0.6 0,0.7 1.8,0.7 4.2,0.8 2.3,0.1 3,2.4 2.7,4 -0.4,1.8 -4.3,3.7 -6.4,4 -2.2,0.4 -3,0 -3.1,0.7 -0.2,0.6 0.2,0.8 1.4,1.2 1.2,0.3 3.6,0.6 4,2.5 0.4,1.9 0.5,2.7 -1.3,4.4 -1.8,1.6 -4.7,1.4 -5.6,1.2 -0.9,-0.2 -1.9,-1.1 -2.8,-0.3 -0.8,0.9 0.8,1.6 2.3,2.6 1.5,1 1.4,3 -1.1,4.4 -2.5,1.4 -5,0.9 -6,0.5 -1,-0.3 -2.5,-2 -3.2,-1 -0.7,1.1 2.2,1.5 3.4,3 1.2,1.4 0.8,3.8 -1.6,5.3 -2.5,1.5 -6.4,0.4 -7.1,-0.2 -0.7,-0.6 -1.6,-0.8 -2,-0.3 -0.6,0.5 0.2,1.9 0.7,3 0.5,1.3 1.5,4.8 -2.2,6.2 -3.7,1.4 -6.9,-1.7 -7.5,-2.3 -0.6,-0.6 -1.2,-0.7 -1.7,-0.5 -0.5,0.3 -0.2,0.8 0.2,1.4 0.4,0.6 1.4,3.2 -1.2,5 a 6.3,6.3 0 0 1 -4.7,1 c -0.6,-2 -1.3,-4.2 -2,-7.2 h 0.5 c 0.4,0 0.5,0.5 0.5,0.7 0,0.2 -0.1,0.4 0.2,0.4 0.3,0 0.3,0.2 0.8,0.5 0.4,0.3 0.8,0.7 1,0.5 0.3,-0.2 -0.9,-0.8 -1.2,-1.2 -0.3,-0.4 -1,-1 -1,-1.4 0,-0.4 -0.2,-0.6 -0.8,-1.1 a 2.4,2.4 0 0 1 -0.5,-0.6 97.9,97.9 0 0 1 -1.2,-7.2 57.1,57.1 0 0 1 -0.4,-5.5 z m 73.7,-53.8 c -3.9,7.8 -9.3,12.1 -9.3,12.1 l 1,-3.2 c 0.3,-1.4 0.1,-2.9 0.1,-2.9 0,0 1.4,-1.7 3.9,-5.6 2.5,-3.9 3.8,-9.6 3.8,-9.6 0,0 -2.3,5.7 -4.1,8.8 -1.9,3 -4,5.5 -4,5.5 0,0 -0.7,-2.7 -1.2,-2.8 -0.5,-0.2 -1,0.2 -1.4,0.8 -0.4,0.6 -0.8,0.6 -0.8,0.6 l 1.5,-2.8 1.6,-2.2 c 1.4,-2.3 4.5,-6.6 6,-10.9 a 169,169 0 0 0 5.7,-18.3 c 0.7,-3.2 1.3,-1.4 1.9,0.9 0.6,2.3 1.4,5.7 0.9,10.7 a 53.5,53.5 0 0 1 -5.6,18.9 z m -5,21 a 135.9,135.9 0 0 1 -3.5,2.5 l 0.5,-1.7 0.3,-2.9 2.9,-2.5 a 41.7,41.7 0 0 0 5.6,-6 c 2.9,-3.6 0.5,-1.4 -1.9,1.2 -2.3,2.6 -6.9,6.3 -6.9,6.3 v -0.8 a 3.1,3.1 0 0 0 -0.7,-1.9 c -0.4,-0.6 -0.2,-0.6 2.3,-2.6 a 73.8,73.8 0 0 0 17.6,-24.4 c 0,0 1.5,9 -4,18.7 -5.4,9.9 -10.8,13 -12.2,14.1 z m -28.5,56.3 c -3,-1.2 -2.2,-4.1 -2.2,-4.1 0,0 1.8,0.5 3.5,1.2 a 36,36 0 0 0 7.5,1.8 c 1.6,0 1.6,-0.2 1.7,-0.4 0,-0.2 -1.3,0 -3.7,-0.4 a 29,29 0 0 1 -7.2,-3.1 c -0.7,-0.5 -0.6,-0.6 0.5,-0.7 a 4.5,4.5 0 0 0 2.3,-0.9 c 0.4,-0.3 1.5,0.1 4.2,0.8 a 50.6,50.6 0 0 0 21.5,0.7 c 0.7,-0.2 1.4,0.2 -0.7,3.7 -2,3.5 -9.3,5.3 -14.4,5.3 -5,0 -10,-2.8 -13,-3.9 z m 13.4,-7.2 c -5.2,0 -7.2,-1.5 -7.2,-1.5 l 0.7,-1.3 c 0.7,-1.1 0.6,-2.9 0.6,-2.9 l 3.4,0.6 c 2.2,0.3 4.7,0.6 7.5,0.1 2.8,-0.5 1.6,-0.8 -0.6,-0.5 a 29,29 0 0 1 -7.8,-1 c -1.4,-0.5 -0.9,-1 0,-1.3 1,-0.3 3.5,-1.9 3.5,-1.9 0,0 6.3,0.8 12.2,0.2 5.9,-0.7 9.6,-2.2 10.8,-2.4 1.1,-0.2 1.1,0.3 1.1,0.3 0,0 0.3,0.6 -1.7,3.7 -2,3.2 -6,5.3 -9.4,6.3 a 50.3,50.3 0 0 1 -13.1,1.6 z m 1.3,-12.2 0.6,-1.3 c 0.3,-1 -0.6,-1.9 -0.6,-1.9 0,0 1.2,-0.3 5,-0.8 4,-0.5 4.2,-0.8 6.5,-1.3 2.4,-0.6 4,-1.3 4,-1.5 0,-0.3 -0.8,0 -2.2,0.6 a 94,94 0 0 1 -14.3,1.9 c -0.4,-0.3 -2,-0.7 -2,-0.7 l 2.4,-0.5 a 8.4,8.4 0 0 0 3.2,-1.3 c 0.7,-0.5 1,-0.6 4.1,-1 3.2,-0.3 5.8,-1.3 11.5,-3.4 5.6,-2 10,-4.6 11,-5.5 1.2,-1 1.1,-0.3 0.8,1 -0.3,1.1 -0.2,2.6 -3.1,6 -2.9,3.3 -4.3,4.8 -11.5,7.4 -7.3,2.7 -15.4,2.3 -15.4,2.3 z m 21.4,-17.6 a 40.5,40.5 0 0 1 -15.5,6.4 c -0.3,-0.4 0.4,-2 0,-2.8 -0.3,-1.1 -1,-1.1 -2.6,-1.2 -1.5,-0.1 -0.5,-0.4 -0.1,-0.4 l 3,-0.7 c 2.5,-0.7 5.1,-1.1 8.6,-2.4 3.6,-1.4 4.6,-2.3 4.5,-2.6 0,-0.3 -1.6,0.8 -4.9,2 -3.2,1.3 -7,1.8 -9,2.3 -2.2,0.4 -0.4,-0.5 0.6,-1 1,-0.6 2.4,-2.8 2.4,-2.8 0,0 2.3,-0.4 6,-1.5 a 48.8,48.8 0 0 0 10,-4.2 l 3.2,-2.2 5.2,-3.7 c 1.3,-1 0.9,-0.2 0.7,0.4 -0.2,0.6 -1,3.2 -3,6.1 -2,3 -2.7,3.8 -9,8.3 z m 1,-12.7 c -6.2,5 -11.7,6.6 -12.6,7 -1,0.4 -0.8,-0.2 -0.7,-0.7 0.2,-0.5 0.3,-2.2 0.3,-2.2 l 4.8,-2.8 c 2.5,-1.4 5.3,-3.4 7.2,-4.7 1.8,-1.3 0.7,-1.2 0.1,-0.7 -0.5,0.5 -3.1,2 -5.7,3.6 l -6.4,3.9 c 0,0 0,-0.9 -0.6,-1.4 -0.5,-0.5 -1.9,-0.4 -1.9,-0.4 l 1,-1.3 c 0.5,-0.6 2.6,-1.3 4.9,-2.4 2.3,-1 6.5,-4.2 9.6,-6.8 3.1,-2.6 9.1,-9.1 9.5,-9.7 0.4,-0.5 0.7,-0.4 0.7,0.3 0,0.6 0.3,1 -0.4,4 -0.7,3 -3.4,9.4 -9.7,14.3 z M 418.5,168 c -0.7,1.5 -1.5,2.6 -2,3.6 L 415,174 v -1.4 c 0.1,-0.8 0.3,-2 0,-3.5 0,-0.8 -0.3,-1.6 -0.2,-2.3 0,-0.7 0.3,-1.4 0.4,-1.9 l 1.6,-7 c 0.4,-2.7 0.9,-6.4 0.8,-9.7 0,-3.2 -0.5,-1.6 -0.5,0 0,1.6 -0.1,4 -0.6,7.8 -0.5,3.7 -2.1,9.4 -2.1,9.4 0,0 -0.1,-0.9 -0.6,-2.1 l -1.9,-4.2 c -0.6,-1.6 -0.4,-1.9 -0.4,-1.9 0,0 2.3,-10.6 2.8,-15.6 0.6,-5 1.6,-18.1 1.6,-18.1 3.2,3.2 5.6,11.8 6,20 0.4,6 -0.6,11.7 -1,14 -0.5,4.5 -1.3,8 -2.5,10.5 z m 7.2,16.8 c 0,-2.4 -0.6,-4.3 -2.2,-4.8 0,0 1.4,-2.4 2.6,-5.8 a 45,45 0 0 0 1.8,-7.7 c 0.9,-5.6 1.6,-11.5 -0.1,-2 -1.7,9.7 -3.8,13 -3.8,13 l -2.4,4 c 0.3,-1.7 0.4,-3 0.3,-4.9 0,-1.9 -0.3,-4.5 -1,-6.5 0,0 3,-6 5,-13 a 81.4,81.4 0 0 0 3.1,-22.7 c 0,0 3,2.3 4,13.9 a 68.4,68.4 0 0 1 -7.3,36.5 z m -33.2,88.6 1.9,-1.3 c 1.5,-0.9 1,-3.7 1,-3.7 a 48.7,48.7 0 0 0 5.2,3.2 c 1.4,0.6 2.1,1 3,1.2 1,0.3 0.7,0 0,-0.5 -0.8,-0.4 -1,-0.7 -3,-1.4 -2,-0.8 -5.8,-4.2 -5.8,-4.2 l 2.5,-0.1 c 1.6,0 3.6,-0.9 3.6,-0.9 0,0 1.6,1.4 8,4.2 a 50,50 0 0 0 11.8,3.5 c 0,0 -0.6,3.2 -3.7,4.3 -2.6,1.1 -6,1.8 -13,0.2 a 43.5,43.5 0 0 1 -11.5,-4.5 z m -8.4,6.5 c -0.6,-2.7 1,-4.6 1,-4.6 l 1.3,1.1 c 1,0.9 2.3,2.5 5,3.9 2.7,1.3 3.7,1.2 1,-0.2 a 39.3,39.3 0 0 1 -6.3,-5.3 l 1,-0.4 c 1,-0.4 2.7,0.3 10,4.6 7.1,4.3 11.4,4.5 11.4,4.5 0,0 -3.2,3.9 -12,3.6 -8.7,-0.3 -11.9,-4.5 -12.4,-7.2 z m -16.6,-3.1 c 0,0 1,1.3 2.3,2.2 1.3,0.9 4.8,1.4 4.8,1.4 l 0.8,1.2 c 0.6,1 2.1,3 3.7,4 1.5,1.2 4,2 4,1.6 0.2,-0.3 -1.3,-0.8 -2.8,-1.8 -1.5,-0.9 -2.9,-2.6 -3.9,-3.7 -1,-1.2 0.5,-1 0.5,-1 h 3.5 c 1.7,-0.2 1.3,0 1.8,0.7 l 2.4,3 4.4,5.1 c 1,1.2 0.3,1.5 0.3,1.5 0,0 -0.5,0.7 -4.4,1.2 -2.4,0.2 -5,0 -7.7,-1.6 a 23.4,23.4 0 0 1 -5.2,-4.5 c -4.7,-5.1 -4.5,-9.3 -4.5,-9.3 z m -2,10.5 1.5,1.8 c 0,0 -0.7,-2 -1.3,-3 l -0.9,-1.4 c 0.7,-1.4 1.2,-3 1.6,-4.7 0.4,1.4 1.7,5.5 3.4,8.1 2,3.2 3.8,4.4 2.6,5.3 -1.1,0.8 -3.4,1 -6,-0.2 -2.4,-1.2 -3,-3.3 -3.4,-5 a 24.8,24.8 0 0 0 1.2,-2.1 c 0.3,0.2 0.8,0.5 1.3,1.2 z" id="path184"></path><ellipse cx="-365.89999" cy="158.60001" fill="#d4af3a" rx="1.8" ry="1.6" transform="scale(-1,1)" id="ellipse186"></ellipse><path fill="#d4af3a" d="m 369.7,155.5 c -1.6,0 -2.5,-0.8 -4.3,-0.6 a 26,26 0 0 0 -8.5,3.3 14.6,14.6 0 0 1 -9.8,0.9 c -1,-0.3 -2,-0.9 -2.9,-1.4 -4.3,-2.4 -3.2,-7.1 -3.2,-7.1 a 16.7,16.7 0 0 0 10.6,3.2 l -0.9,0.8 c -0.6,0.6 -1.7,1.4 -1.4,1.7 0.4,0.3 2,-1.2 3.3,-2.2 1.3,-1 3.2,-2.2 6.5,-3.2 3.3,-1 7,-1 9.4,0.4 2.5,1.3 2.7,3 2.4,3.7 -0.2,0.4 -0.7,0.5 -1.2,0.5 z m -46.2,34.7 c 0.8,-0.2 2,-0.4 3.8,-2 a 69,69 0 0 0 6.3,-7 c 0.5,-0.8 0.3,-1.5 -1,-2 -1,-0.5 -1.9,-2 -1.9,-2 0,0 2.5,-1 4.3,-2.2 1.7,-1.2 5.6,-4.8 6.2,-5.7 0.5,-1 0.3,-1 -0.5,-1.3 -0.9,-0.3 -1,-0.8 -1,-0.8 0,0 1.8,-1.2 3.5,-2.6 a 71,71 0 0 0 4,-3.6 c 2.6,1 6.6,0.6 8.8,0.2 3.8,-0.7 6.7,-2.3 6.7,-2.3 l 0.6,1.8 c 0.5,1.2 2.2,1.8 4,0.7 1.8,-1.2 1.4,-3.7 1.4,-3.7 0,0 1.4,-1 4.4,-2 3,-1.1 5.3,-1.3 7.7,-0.2 2.4,1.1 3.6,4.4 3.6,7 0,2.4 -1.3,1.3 -1.6,1 -0.3,-0.3 -0.8,-2.1 -3.8,-2.6 -3,-0.5 -5.8,1 -9.2,3.8 -3.4,2.8 -4.2,3 -6,4.8 -1.6,1.8 -0.3,2.7 2.7,3.7 3,1 6.7,-1 6.9,-0.9 0.5,0.3 -1.3,3 -3.9,4 -2.5,1 -5.8,0.3 -8.3,-0.8 -1.7,-0.6 -2,0 -2.5,0.6 a 15,15 0 0 0 -4,9 4,4 0 0 1 -2.6,-3 c -0.1,-0.6 -0.3,-1.8 -1.2,-1 -1,1 -1.8,6 -1.8,8.2 0,2.2 0.7,5.3 0.7,5.3 h -0.7 l -2.3,-1.2 c -1,-0.7 -1.2,0 -1.2,1.3 0,1.3 -0.4,3.6 -2,7.8 -1.7,4.2 -4,5.5 -4,5.5 0,0 -0.5,-0.8 -1,-2.5 a 33,33 0 0 1 -0.8,-7.7 c 0,-2.8 0.7,-8.8 0.7,-8.8 0,0 -3.4,4.2 -7,5.2 -3.6,1 -7.1,0.4 -8.6,-1.3 -1.5,-1.7 -0.2,-2.5 0.6,-2.7 z" id="path188"></path><path fill="#d4af3a" d="m 347,201 c 0,0 1,2.5 1.6,3.3 0.6,0.9 0.9,1 0.9,1 0,0 -1.1,1 -2.7,1.4 a 35.5,35.5 0 0 1 -3,0.8 c 0,0 1.8,-2.4 2.4,-4.1 l 0.7,-2.3 z m -21.5,-1.3 a 71.6,71.6 0 0 1 0.9,-2.1 15,15 0 0 0 8.1,-1.7 c 0,0 -1.6,3.3 -3.3,4.5 l -1.8,1.2 c 0,0 1.6,0.3 3.8,-2 2.2,-2 3.2,-4.6 3.2,-4.6 0,0 -0.5,5.8 0.4,9.3 l 1,4 c 0,0 -4.6,0.9 -9.8,-0.6 -5.2,-1.4 -5.6,-1.9 -5.6,-1.9 0,0 -0.6,-0.1 0.2,-1.2 a 28,28 0 0 0 3,-5 z" id="path190"></path><path fill="#b96b29" d="m 335,187 1.7,-2.3 c 0,0 0.6,0.5 0,1.3 a 16,16 0 0 1 -4.2,3.7 c -1.6,0.9 -3.1,1.2 -3.1,1.2 v -0.4 c 0,0 4,-1.7 5.5,-3.5 z m 6.3,12 0.4,-8.3 c 0,-1 0.6,-0.8 0.6,-0.8 l 0.8,0.3 -1.5,10.6 c -0.2,1.2 -0.7,1 -1,1 0.5,-0.3 0.6,-2.5 0.7,-2.8 z m 9.8,-31.4 c 0.6,-0.6 1.9,-1 0.6,0.4 -1.3,1.4 -3,3.2 -3.4,4.7 -0.5,1.4 -0.8,3.3 0,2.9 0.8,-0.4 1.4,-0.4 2.3,-1.2 1,-0.7 2.6,-2 3.3,-2.1 0.7,-0.2 2,0 1,1 a 24.8,24.8 0 0 1 -4,3.6 l -4,2.6 a 36.9,36.9 0 0 1 -2,1.3 c 0,0 1,-6 2.6,-8.5 a 26.3,26.3 0 0 1 3.6,-4.7 z m 32,99.2 c 1.2,1 2.8,1.3 2.8,1.3 0,0 0.7,0 0.7,0.2 0,0.2 -0.9,0 -1.8,-0.1 a 8,8 0 0 1 -2.6,-1.4 c -0.4,-0.4 -1.1,-0.8 -0.9,-1.4 0.2,-0.6 0.6,0.5 1.8,1.4 z m -10.4,5.5 2.3,1.8 1.3,0.7 c 0.6,0.2 0.8,0.6 0.8,0.6 0,0 -0.1,0.2 -0.8,0 -0.7,-0.2 -2.8,-1.7 -3.5,-2.3 -0.6,-0.6 -1,-0.7 -0.7,-1 0.3,-0.2 0.4,0 0.6,0.2 z m 42,-74.4 c -0.4,0.4 -0.9,1 -1,0.9 -0.3,-0.2 0,-0.5 0.4,-1 l 0.8,-0.9 1.1,-1.5 c 0.4,-0.4 1,-0.7 0.3,0.3 l -1.7,2.2 z m 3.1,7 -1.3,1.3 c -0.5,0.5 -0.9,1.1 -1.2,0.8 -0.3,-0.3 0.7,-0.9 1.2,-1.5 a 7.5,7.5 0 0 1 1.4,-1.4 10,10 0 0 1 1.3,-0.8 z m -1.2,11.2 c -0.8,0.9 -2,1.1 -2,0.8 -0.2,-0.4 0,-0.6 0.7,-1 a 24.4,24.4 0 0 0 4.6,-3 c 0.2,0 -1,1.4 -1.4,1.6 -0.4,0.2 -1,0.8 -1.9,1.6 z m -2.2,9 c 0,-0.3 -0.1,-0.5 0.5,-0.5 l 1.6,-0.2 c 0,0 1.3,-0.5 1.4,-0.2 0,0.3 -1,0.8 -1.6,0.8 l -1.4,0.4 c -0.3,0.2 -0.5,0 -0.5,-0.3 z m -1,9.8 c 1.4,0 2.6,-0.3 2.7,0 0,0.1 -0.7,0.5 -1.4,0.7 -0.7,0.3 -2,0.3 -3,0.4 -0.9,0 -1,-0.2 -1,-0.6 0,-0.5 1.3,-0.5 2.7,-0.5 z m -11,10.8 c 0.1,-0.2 0.6,0 1.4,0 0.8,0.3 2.1,0.5 2.8,0.5 l 2.4,-0.1 1,0.2 c 0,0.2 -1.3,0.2 -3,0.4 -1.8,0.2 -3,-0.2 -3.8,-0.3 -0.8,-0.2 -1,-0.5 -0.9,-0.7 z m -4.6,7.6 a 6,6 0 0 0 2.1,0.4 l 2.3,0.3 c 0,0 0.7,0 0.6,0.4 -0.1,0.3 -0.4,0 -1,-0.1 h -2.4 c -1.2,0 -1.8,-0.4 -2.5,-0.5 -0.7,-0.1 -1.5,-0.5 -1.1,-1 0.4,-0.4 1.1,0.2 2,0.5 z m -9,5.8 2.5,1.8 1.1,0.6 c 0.8,0.4 0.7,0.6 0.6,0.8 -0.1,0.2 -0.6,-0.3 -1,-0.5 a 16.4,16.4 0 0 1 -2.5,-1.6 c -0.7,-0.6 -1.6,-1 -1.4,-1.5 0.1,-0.4 0.3,-0.1 0.8,0.4 z m 14.9,-74.8 -1.7,2.3 c -1.6,2 -0.7,0.1 -0.4,-0.4 l 3.4,-4.5 c 0.8,-0.9 1,-0.5 0.5,0 z m 3.2,9.8 c -0.2,-0.2 0.3,-0.4 1.1,-1.5 l 2.7,-3.3 0.6,-1 c 0.2,0.1 -0.6,1.8 -1.3,2.5 -0.7,0.7 -1.6,2 -2.1,2.7 -0.5,0.6 -0.8,0.9 -1,0.6 z m -4.3,18.5 c 0,-0.5 1.8,-0.5 2.6,-0.6 l 2.2,-0.5 c 0,0 1.6,-0.3 1.6,0 0,0.1 -0.3,0.3 -1.2,0.5 l -3.3,0.8 c -1,0.1 -1.9,0.3 -1.9,-0.2 z m 4.3,-10 a 15.3,15.3 0 0 1 -2.5,1.7 c -0.6,0.4 -1.1,0.8 -1.4,0.5 -0.4,-0.4 0.2,-0.7 1.2,-1.1 l 1.5,-0.9 1,-0.5 c 0.5,-0.3 1.3,-0.6 0.2,0.3 z m -10,-6.5 1.4,-1 c 0,0 0.9,-0.8 1,-0.5 0.2,0.3 -1,1 -1.5,1.6 -0.5,0.5 -1.5,1.9 -2,1.6 -0.5,-0.3 0.5,-1.1 1.2,-1.7 z m 6.6,25.7 1.5,0.4 c 0.7,0.2 0.7,0.4 -0.4,0.4 -1.1,0 -1.6,-0.3 -2.7,-0.5 -1.1,-0.2 -1.5,-0.3 -1.3,-0.7 0.1,-0.3 0.7,-0.2 1.2,0 z m -1.8,9.3 c 0.1,0.2 -0.8,0 -1.4,-0.2 -0.5,-0.2 -1.7,-0.9 -2.4,-1 -0.7,-0.3 -0.7,-0.4 -0.7,-0.8 0,-0.4 0.7,0 1.6,0.2 1,0.3 2,1.2 2,1.2 l 1,0.6 z m -12,5.6 c -0.8,-0.5 -1,-0.8 -0.7,-1 0.3,-0.3 0.6,-0.3 1.2,0.2 a 51,51 0 0 0 2,1.5 l 1.1,0.5 c 0.5,0.2 1.2,0.7 1,1 -0.2,0.1 -1.2,0 -1.7,-0.6 -0.5,-0.6 -2,-1 -2.9,-1.6 z m -5.6,7.5 c -0.4,-0.3 -1.4,-0.6 -1.8,-1 -0.5,-0.3 -0.8,-1.3 -0.4,-1.4 0.4,-0.1 0.6,0.4 1.4,1 l 3.5,2.4 0.7,0.3 c 0.7,0.2 0.4,0.5 -0.2,0.4 -0.7,-0.1 -1,-0.1 -1.8,-0.7 z m -8.4,7.1 a 9.2,9.2 0 0 1 -2.2,-1.7 c -0.5,-0.4 -1.2,-1 -0.8,-1.3 0.4,-0.3 0.8,0.1 1.4,0.6 l 2.1,2.2 c 0,0 0.2,0 1,0.7 0.9,0.7 0,0.5 -0.3,0.3 a 3,3 0 0 0 -1.2,-0.8 z" id="path192"></path><path fill="#d4af3a" d="m 338.2,142.5 4,-1 2.5,2 -3.1,1.4 z" id="path194"></path><ellipse cx="-330.79999" cy="142.10001" fill="#b96b29" rx="3.2" ry="3.0999999" transform="scale(-1,1)" id="ellipse196"></ellipse><circle cx="-330.79999" cy="141.39999" r="1.9" fill="#d4af3a" transform="scale(-1,1)" id="circle198"></circle><path fill="#d4af3a" d="m 337.5,131.4 c -0.8,0.3 -1.9,0.2 -1.9,0.2 0,0 -0.3,-1.4 0.5,-2.1 l 2,-1.7 0.5,-0.6 v 2 c 0.1,0.8 -0.3,1.9 -1.1,2.2 z" id="path200"></path><circle cx="-335.79999" cy="133" r="0.60000002" fill="#d4af3a" transform="scale(-1,1)" id="circle202"></circle><path fill="#d4af3a" d="m 340.2,132.4 0.8,0.9 c 0,0 -0.7,0 -1.2,0.4 -0.6,0.4 -1.2,0.7 -1.9,0.6 a 0.9,0.9 0 0 1 -0.8,-1 c 0.2,-0.5 0.5,-1 1.5,-1.3 1,-0.4 1.3,0 1.6,0.4 z m -2.2,3.7 c 2,0.2 4.6,-2 4.6,-2 0.3,1.8 1.4,2.7 3,3 v 0.1 c 0,0 -1.7,0.8 -3.5,1.1 a 7,7 0 0 1 -2.5,-0.2 10.6,10.6 0 0 1 -3,-1 c -1.2,-0.7 -0.9,-2.6 -0.9,-2.6 0,0 0.2,1.5 2.2,1.6 z m 7.8,-2 c 0.8,-0.3 2,-0.9 2.6,-1 0.5,0 1.3,0 1.1,0.9 0,1 -1,1.4 -2,1.4 -1,0 -1.5,-0.3 -2,-0.6 -0.6,-0.3 -0.5,-0.4 0.3,-0.7 z m 6.3,-3.4 c 1,-0.7 1.7,-0.9 1.7,-0.9 0,0 0.6,1.6 0.3,2.6 -0.3,1 -1,1.2 -1.9,1.2 -0.8,0 -2.1,-0.5 -1.8,-1.2 0.4,-0.6 0.8,-1 1.7,-1.7 z" id="path204"></path><ellipse cx="-351.29999" cy="135.10001" fill="#d4af3a" rx="0.69999999" ry="0.5" transform="scale(-1,1)" id="ellipse206"></ellipse><path fill="#d4af3a" d="m 349.4,127.3 c 0.5,-2.7 0.4,-5.6 -2,-9.3 a 16,16 0 0 0 -7,-5.1 L 339,111 c -1.4,-1.5 -4.3,-3.4 -4.3,-3.4 l 5.2,1.5 a 2.3,2.3 0 0 0 2.3,2.4 c 0.4,0 0.9,-0.2 1.3,-0.4 1,0.1 4.4,2.2 5.2,2.9 a 2.3,2.3 0 0 0 -0.3,1.2 2.3,2.3 0 0 0 2.3,2.3 c 0.3,0 0.7,0 1,-0.2 l 0.3,0.5 a 23.4,23.4 0 0 1 1.6,3.7 c -0.6,0.4 -1,1.1 -1,2 0,1.3 1,2.3 2,2.3 v 1.5 c 0,0.7 -0.4,1.2 -1.7,1.6 -1.3,0.3 -3,2.6 -3,2.6 -0.2,0 -1.1,-1.6 -0.4,-4.3 z" id="path208"></path><path fill="#d4af3a" d="m 341.3,110.3 c -0.4,-0.4 -0.5,-1 -0.1,-1.4 0.3,-0.3 1,-0.3 1.5,0.1 0.5,0.4 0.6,1 0.2,1.4 -0.4,0.3 -1,0.3 -1.6,-0.1 z m 8.5,5.7 c -0.5,-0.5 -0.6,-1.3 -0.2,-1.7 0.4,-0.4 1.2,-0.4 1.7,0.1 0.6,0.5 0.7,1.3 0.2,1.7 -0.4,0.4 -1.2,0.4 -1.7,-0.1 z" id="path210"></path><circle cx="-354.79999" cy="123.2" r="1.3" fill="#d4af3a" transform="scale(-1,1)" id="circle212"></circle><path fill="#d4af3a" d="m 326.6,105 c 0.7,0.2 2,0.6 3.8,1.6 -1.3,0 -2.3,0.8 -2.3,1.9 0,1 1.2,2.2 2.5,2.2 1.3,0 2.2,-1.1 2.2,-2.2 0,-0.2 0,-0.5 -0.2,-0.7 l 1.8,1.2 c 4.2,2.8 5.1,4.1 7.2,8 2,3.8 2.8,8 1.9,10.4 -0.9,2.5 -4.2,3 -4.2,3 0,0 0.4,-0.3 0.4,-0.8 l -0.2,-1.6 c -0.2,-1 0,-2.1 0,-2.1 0,0 -0.8,-0.1 -1.2,0.4 l -1.5,1.7 -1.5,1.5 c 0,0 -0.7,-1 -0.7,-2.1 0,-1.1 0.8,-2.3 1,-4.3 0,-2 -1,-5.5 -2.9,-8 a 22,22 0 0 0 -6.6,-5.5 2.1,2.1 0 0 1 -1.3,-1.7 l -0.2,-2 c -0.1,-1.2 1,-1.1 2,-0.9 z" id="path214"></path><path fill="#d4af3a" d="m 330.8,109.5 c -0.8,0 -1.4,-0.7 -1.4,-1.3 0,-0.6 0.5,-1 1.3,-1 0.7,0 1.3,0.4 1.3,1 0,0.6 -0.5,1.3 -1.2,1.3 z m -6.2,24.4 c -1,0.4 -2.2,0.1 -2.7,-0.2 -0.5,-0.4 -0.7,-1.3 0,-1.8 a 2,2 0 0 1 2,-0.2 l 2,1.3 c 0,0 -0.3,0.5 -1.3,0.9 z" id="path216"></path><path fill="#d4af3a" d="m 321.4,135 c 0.3,0.6 0.6,0.9 1.7,1 1.1,0 2.3,0 3,-0.8 a 7.7,7.7 0 0 0 1.3,-1.7 h 1.3 c 0,0 0.4,1.7 1,2.1 0.5,0.5 2.4,0.6 3.3,0 0.8,-0.7 1.6,-1.4 1.7,-1.3 0.2,0 0,0.7 -0.8,1.4 -0.8,0.7 -1.5,1.3 -3,1.3 H 323 c 0,0 -1.6,0 -2,-1 -0.5,-0.9 -0.6,-1.5 -0.3,-1.7 0.2,-0.3 0.3,0.1 0.7,0.7 z" id="path218"></path><path fill="#d4af3a" d="m 333.5,133.7 c -1.2,0.6 -1.9,0.2 -2.3,-0.3 l -0.5,-0.8 1.7,-0.7 c 0.5,-0.4 0.9,-0.7 1.5,-0.6 l 0.6,0.1 c 0,0 0.2,1.6 -1,2.2 z" id="path220"></path><ellipse cx="-339.29999" cy="121.9" fill="#b96b29" rx="2.7" ry="2.5999999" transform="scale(-1,1)" id="ellipse222"></ellipse><path fill="#b96b29" d="m 334.7,112.7 c 1,-0.7 2.6,-0.4 3.5,0.6 0.8,1.1 0.7,2.6 -0.4,3.3 -1,0.7 -2.6,0.4 -3.5,-0.6 -0.9,-1.1 -0.7,-2.6 0.4,-3.3 z" id="path224"></path><ellipse cx="-339.39999" cy="121.5" fill="#d4af3a" rx="1.6" ry="1.5" transform="scale(-1,1)" id="ellipse226"></ellipse><path fill="#d4af3a" d="m 335.8,113 c 0.7,-0.2 1.5,0.2 1.9,0.8 0.3,0.6 0,1.2 -1,1.4 -1.7,0.3 -2.5,-1.8 -1,-2.2 z" id="path228"></path></g></svg> 