<?xml version="1.0" encoding="UTF-8" standalone="no"?> <svg xmlns:inkscape="http://www.inkscape.org/namespaces/inkscape" xmlns:sodipodi="http://sodipodi.sourceforge.net/DTD/sodipodi-0.dtd" xmlns="http://www.w3.org/2000/svg" xmlns:svg="http://www.w3.org/2000/svg" id="flag-icons-pf" viewBox="0 0 720 480" version="1.1" sodipodi:docname="pf.svg" width="720" height="480" inkscape:version="1.1 (c68e22c387, 2021-05-23)"><defs id="defs5"><clipPath id="a"><path fill-opacity="0.7" d="M 0,0 H 640 V 480 H 0 Z" id="path2"></path></clipPath></defs><g id="g867"><path fill="#ffffff" d="M 0,0 H 720 V 480 H 0 Z" id="path7" style="stroke-width:1.06066"></path><path fill="#ffffff" d="M 120,0 H 600 V 480 H 120 Z" id="path9"></path><path fill="#083d9c" fill-rule="evenodd" stroke="#083d9c" stroke-width="2pt" d="m 317.3,340.8 c 0,0 10.8,-8.8 21.4,-8.8 10.6,0 13.4,7.3 20.8,7.9 7.3,0.6 13.4,-7.3 22.5,-7.6 9.1,-0.3 20.5,6.4 20.5,6.4 l -39.8,12 -45.4,-10 z m -22.9,-13 135.4,0.7 c 0,0 -11.7,-12.7 -25.5,-13 -13.8,-0.2 -10,6 -20.5,6.8 -10.6,0.9 -13.2,-6.4 -22.9,-6.2 -9.6,0.3 -15.2,6.2 -22.5,6.5 -7.4,0.3 -16.7,-7.3 -22.3,-7 -5.6,0.3 -25.5,8.7 -25.5,8.7 l 3.8,3.6 z m -17.3,-16 167,0.5 c 2.7,-3.8 -8.2,-12.9 -18.1,-13.7 -8.2,0.3 -14,8.5 -20.8,8.8 -6.8,0.3 -14.4,-8.5 -22,-8.2 -7.6,0.3 -15.5,8.2 -23.1,8.2 -7.7,0 -13.2,-8.5 -22.9,-8.5 -9.7,0 -14,9.3 -21.4,8.8 -7.3,-0.6 -13.8,-9.4 -20.8,-9.4 -7,0 -18.7,10.5 -21,10 -2.4,-0.7 2.9,4.3 3.1,3.4 z" id="path11"></path><path fill="#ff0000" fill-rule="evenodd" stroke="#000000" stroke-linejoin="round" stroke-width="2.5" d="m 341.3,218.9 38.4,10.2 v -54.8 c -17.6,1 -32.2,-33.4 -1.2,-35.7 -30.5,-4.4 -34,3.5 -37.5,12 z" id="path13"></path><path fill="#083d9c" fill-rule="evenodd" stroke="#083d9c" stroke-linecap="round" stroke-width="5" d="m 317,258.7 86.7,0.3" id="path15"></path><path fill="none" stroke="#000000" stroke-linecap="round" stroke-width="4" d="m 321.1,238 10.3,13.7 m -10.3,0 11.1,-13.5 m -5.2,-1.2 -0.3,8.5 m 10.8,-7.6 10.3,13.8 m -10.3,0 11.1,-13.5 m -5.2,-1.2 -0.3,8.5 m 11.1,-7.6 10.3,13.8 m -10.3,0 11.1,-13.5 m -5.2,-1.2 -0.3,8.5 m 11.7,-7.6 10.2,13.8 m -10.2,0 11.1,-13.5 m -5.3,-1.2 -0.2,8.5 m 11,-7.6 10.3,13.8 m -10.2,0 11.1,-13.5 m -5.3,-1.2 -0.3,8.5" id="path17"></path><path fill="#ef7d08" fill-rule="evenodd" d="m 258.7,259.6 36.9,0.3 v -23.1 l -42.2,-2.1 z m -1.8,-32 39.3,3.9 -0.3,-16.4 -38.4,-15.3 -0.6,27.9 z m 8,-32.7 30.1,14.6 4.3,-4.5 c 0,0 -2.8,-1.9 -2.6,-3.7 0,-1.7 2.8,-2 2.8,-4 0,-1.7 -3,-2 -3.1,-3.7 -0.2,-2 2.4,-4 2.4,-4 l -27.2,-23.7 -6.8,29 z m 198,65 h -39 l -0.3,-22.6 42.8,-3.2 z m -38.7,-27.9 46.3,-5.6 -10,-26.7 -36.6,15.6 z m 33.7,-39.6 -33.4,17.6 c -0.5,-2 -0.9,-3.8 -3.2,-5.3 0,0 2,-1.2 2,-3.2 0,-2 -2.6,-2.4 -2.6,-3.5 0,-1.1 2.4,-2.2 2.6,-4.9 -0.3,-1.8 -2.6,-4.4 -2.2,-4.9 l 26,-19.8 z m -72.4,39.1 16.7,-0.7 0.3,-6.7 z m -51,-0.5 -17.5,-0.5 v -7 l 17.6,7.5 z m 0,-2 -17.5,-9 v -11.8 c 0,0 -2,0.3 -1.8,-2 0.1,-4.9 12.9,8.9 19.4,13.4 z m 51,-1.1 v -7.7 c 0,0 15.8,-14.2 19.1,-16.9 0,3 -1.8,5.2 -1.8,5.2 v 11.2 z M 283,163.8 l 17.8,19.7 c 0.4,-1.8 4.5,-2.1 8.6,-1.8 4,0.3 7.3,-0.3 7.3,2.6 0,2.9 -2,2.5 -2,4.6 0,2.1 3,1.9 3,4.5 0,2.6 -2.2,2.1 -2.2,4.1 0,1.7 2.4,1.8 2.4,1.8 l 16.6,16.1 v -17.2 l -34.2,-53.7 z m 27.4,-20.4 23.3,47.5 c 0,0 0.2,-43.8 4.1,-46.1 l -6.5,-12 z m 101,1.9 -26,46.2 V 172 c 0,0 2.2,-3.2 -1.2,-3 -3.4,0.3 -7.5,-0.2 -7.5,-0.2 l 10.4,-36.6 24.3,13 z M 438,165 c -0.3,0.5 -17.5,18 -17.5,18 -0.8,-2 -6,-1 -11,-1 -4.9,0 -5.6,1.6 -5.3,2.9 0.5,3.3 2.2,0.8 2.2,4 0,3.1 -2.4,2 -2.7,4.2 0.3,2.7 3.8,2 1.7,4 l -19.9,19.2 v -18.2 l 37.1,-57.6 z" id="path19"></path><path fill="#ff0000" fill-rule="evenodd" stroke="#000000" stroke-linejoin="round" stroke-width="2.5" d="m 349.8,268.4 c -8.3,13.8 -30.6,9.7 -35.9,0 -1.5,-0.4 -0.6,-59.5 -0.6,-59.5 0,0 -2.5,-1.1 -2.6,-3 -0.1,-1.8 3.4,-2 3.4,-4.3 0,-2.3 -3.6,-1.4 -3.7,-3.8 0,-2.2 3.9,-2 3.7,-4 -0.2,-2.4 -4.3,-2 -4.5,-4.2 0,-1.7 3,-3.2 3.8,-4 a 61.3,61.3 0 0 1 -2.8,0 l -6.4,0.1 c -4.6,0 0,1 0,3.6 0,1.7 -2.3,2.9 -2.5,4.3 -0.1,1.6 3.2,2.6 3.3,4.5 0,1.6 -3.3,1.7 -3.2,3.3 0.2,2.5 3,3.1 2.9,4.7 0,1.5 -3.6,2.1 -3.7,3.3 0.2,2.4 0.6,60.8 0.6,60.8 5.7,29.8 38.8,37.3 48.2,-1.8 z m 21.9,0 c 8.3,13.8 30.6,9.7 35.8,0 1.6,-0.4 0.7,-59.5 0.7,-59.5 0,0 2.5,-1.1 2.6,-3 0.1,-1.8 -3.2,-2 -3.2,-4.3 0,-2.3 3.4,-1.4 3.4,-3.8 0,-2.2 -3.5,-2 -3.3,-4.2 0.2,-2.3 3,-2 3.1,-4.2 0.1,-1.9 -1.7,-3 -2.6,-3.8 h 2.7 l 6.4,0.1 c 4.5,0 0,1 0,3.6 0,1.7 2.3,2.9 2.5,4.3 0,1.6 -3.2,2.6 -3.3,4.5 0,1.6 3.3,1.7 3.2,3.3 -0.2,2.5 -3,3.1 -3,4.7 0.1,1.5 3.7,2.1 3.7,3.3 l -0.5,60.8 c -5.7,29.8 -38.9,37.3 -48.2,-1.8 z" id="path21"></path><path fill="#083d9c" fill-rule="evenodd" stroke="#083d9c" stroke-width="2pt" d="M 341.7,295.6 H 379 c 0.3,-0.3 -8.4,-13 -18.6,-12 -11.5,0.3 -19.3,12 -18.7,12 z m 118.9,-1 h -51 c 0,0 6.6,-3.8 8.4,-7.4 3.3,1.8 2.4,3.6 9,3.9 6.6,0.3 12.9,-7.5 19.2,-7.2 6.3,0.3 14.4,11 14.4,10.8 z m -201,0 h 51 c 0,0 -6.6,-3.8 -8.4,-7.4 -3.3,1.8 -2.4,3.6 -9,3.9 -6.6,0.3 -13,-7.5 -19.2,-7.2 -6.3,0.3 -14.4,11 -14.4,10.8 z m 3.8,-16 36.3,0.3 c 0,0 -2.3,-5 -2.6,-11.1 -9.4,-3.2 -17,7 -23.8,7.3 -6.7,0.3 -13.7,-7.3 -13.7,-7.3 z m 194,0 -36.4,0.3 c 0,0 2.3,-5 2.6,-11.1 9.4,-3.2 17,7 23.8,7.3 6.7,0.3 13.7,-7.3 13.7,-7.3 l -3.8,10.8 z M 351,279 l 18.4,-0.5 c 0,0 0.3,-5.6 -9.3,-5.6 -9.6,0 -8.8,6.4 -9.1,6.1 z m -11.2,-7.9 a 17,17 0 0 0 8.2,-7.6 l -12.6,0.3 c 0,0 -5.8,3.5 -8.7,7.3 z m 40.8,0 a 17,17 0 0 1 -8.2,-7.6 l 12.6,0.3 c 0,0 5.8,3.5 8.7,7.3 z" id="path23"></path><path fill="#de2010" fill-rule="evenodd" d="M 0,360 H 720 V 480 H 0 Z M 0,0 H 720 V 120 H 0 Z" id="path25"></path></g></svg> 