<?xml version="1.0" encoding="UTF-8" standalone="no"?> <svg xmlns:inkscape="http://www.inkscape.org/namespaces/inkscape" xmlns:sodipodi="http://sodipodi.sourceforge.net/DTD/sodipodi-0.dtd" xmlns="http://www.w3.org/2000/svg" xmlns:svg="http://www.w3.org/2000/svg" id="flag-icons-sx" viewBox="0 0 720 480" version="1.1" sodipodi:docname="sx.svg" width="720" height="480" inkscape:version="1.1 (c68e22c387, 2021-05-23)"><defs id="defs5"><clipPath id="a"><path fill-opacity="0.7" d="M 0,0 H 682.7 V 512 H 0 Z" id="path2"></path></clipPath></defs><g id="g1015"><path fill="#ed2939" fill-rule="evenodd" d="M 0,0 H 720 V 240 H 319.96875 Z" id="path7" style="stroke-width:0.9375"></path><path fill="#002395" fill-rule="evenodd" d="M 0,480 H 720 V 240 H 319.96875 Z" id="path9" style="stroke-width:0.9375"></path><path fill="#ffffff" fill-rule="evenodd" d="M 0,0 319.96875,240 0,480 Z" id="path11" style="stroke-width:0.9375"></path><path fill="#ffff00" d="m 161.53125,181.125 0.0937,-3.75 c 0,0 -1.96875,-3.1875 0.375,-6.5625 0,0 -4.96875,-2.625 -3.75,-6.75 0,0 -4.5,-1.125 -4.21875,-6 0,0 -4.6875,-0.28125 -5.25,-4.40625 0,0 -4.78125,0.75 -6.9375,-3.1875 0,0 -4.6875,0.9375 -6,-2.34375 0,0 -4.59375,1.5 -7.21875,-2.34375 0,0 -4.875,1.96875 -6.84375,-1.6875 -1.96875,3.65625 -6.84375,1.6875 -6.84375,1.6875 -2.625,3.84375 -7.21875,2.25 -7.21875,2.25 -1.3125,3.28125 -5.90625,2.34375 -5.90625,2.34375 -2.15625,4.03125 -6.9375,3.1875 -6.9375,3.1875 -0.46875,4.125 -5.25,4.5 -5.25,4.5 a 5.625,5.625 0 0 1 -4.125,6 c 1.21875,4.03125 -3.75,6.65625 -3.75,6.65625 2.4375,3.46875 0.46875,6.5625 0.46875,6.5625 l -0.0937,3.46875 79.40625,0.375" id="path13" style="stroke-width:0.9375"></path><path fill="none" stroke="#000000" stroke-width="0.322383" d="m 161.6457,181.10331 v -3.76064 c 0,0 -1.93455,-3.22341 0.4299,-6.44681 0,0 -4.94385,-2.68617 -3.76163,-6.76915 0,0 -4.51395,-1.07447 -4.19152,-6.01703 0,0 -4.83637,-0.32234 -5.37375,-4.40532 0,0 -4.7289,0.75213 -6.77093,-3.22341 0,0 -4.72889,0.85958 -6.0186,-2.36383 0,0 -4.62142,1.6117 -7.3083,-2.25638 0,0 -4.83637,1.93404 -6.77092,-1.71915 -2.04203,3.65319 -6.8784,1.71915 -6.8784,1.71915 -2.5794,3.76064 -7.20082,2.14894 -7.20082,2.14894 -1.2897,3.33085 -5.91113,2.47127 -5.91113,2.47127 -2.1495,3.97554 -6.985875,3.22341 -6.985875,3.22341 -0.4299,3.97553 -5.266275,4.29787 -5.266275,4.29787 a 5.481225,5.4797904 0 0 1 -3.976575,6.01703 c 1.07475,4.08298 -3.761625,6.6617 -3.761625,6.6617 2.36445,3.4383 0.322425,6.66171 0.322425,6.66171 v 3.4383 z" id="path15"></path><path fill="#ff0000" d="m 159.65625,176.4375 c -12.46875,-1.21875 -26.8125,-4.21875 -37.875,2.0625 -7.5,-4.40625 -17.8125,-4.125 -26.625,-3.28125 -4.78125,0.9375 -10.40625,0.9375 -15.46875,1.6875 L 78.9375,177 c -9.09375,0.65625 -17.34375,-2.0625 -25.3125,-5.625 2.625,14.25 5.34375,28.78125 6.75,43.6875 3,22.125 -10.40625,40.59375 -5.0625,62.4375 3.28125,10.5 14.8125,16.59375 25.3125,17.8125 a 201.28125,201.28125 0 0 1 30.1875,4.21875 30,30 0 0 1 5.15625,1.78125 18.46875,18.46875 0 0 1 6.1875,4.40625 c 5.625,-5.90625 14.0625,-7.59375 22.21875,-8.4375 14.8125,-1.78125 33.09375,-0.84375 42.1875,-14.25 v -0.75 c 4.96875,-7.5 4.3125,-18.75 2.15625,-27.1875 -0.1875,-2.90625 -0.9375,-5.53125 -1.40625,-8.34375 -9,-23.90625 -1.21875,-50.8125 2.625,-75 a 57.1875,57.1875 0 0 1 -15.375,5.15625 c -4.21875,0.5625 -8.90625,0.375 -13.125,0.0937 l -1.875,-0.46875" id="path17" style="stroke-width:0.9375"></path><path fill="#80cfe1" d="m 178.3125,245.15625 c 0,1.5 0.84375,2.8125 1.125,4.21875 1.78125,10.5 3.375,24.375 -7.3125,30.84375 -12,7.5 -27.5625,4.3125 -41.34375,8.34375 -2.8125,0.75 -6.5625,3.28125 -8.4375,5.0625 -1.3125,-0.84375 -2.53125,-2.0625 -4.125,-2.8125 -11.34375,-6 -26.15625,-4.03125 -38.90625,-7.3125 -6.46875,-1.96875 -13.125,-7.03125 -14.8125,-13.59375 -4.125,-17.25 5.8125,-31.96875 4.6875,-49.125 -0.75,-13.125 -3,-25.59375 -6,-37.875 10.03125,4.6875 21.5625,5.4375 32.8125,3.1875 a 48.375,48.375 0 0 1 25.875,2.34375 c 4.3125,-1.875 9.375,-2.71875 14.0625,-3.1875 8.71875,0.9375 18.1875,2.4375 27.28125,2.4375 6.09375,-0.375 11.625,-2.0625 16.875,-4.40625 -3.09375,20.25 -9.1875,41.4375 -1.78125,61.875" id="path19" style="stroke-width:0.9375"></path><path fill="#ffffff" d="m 160.3125,249.1875 v -19.125 h 2.25 l -29.0625,-18.75 -0.0937,-9.84375 h 2.8125 l -14.625,-10.3125 -14.4375,10.3125 h 2.8125 v 9.84375 L 81,230.0625 h 2.34375 v 19.03125 h 76.96875" id="path21" style="stroke-width:0.9375"></path><path fill="none" stroke="#000000" stroke-width="1.28953" d="m 160.356,249.22463 v -19.12555 h 2.25698 l -29.01825,-18.8032 -0.10748,-9.67022 h 2.79435 l -14.6166,-10.52979 -14.50912,10.42235 h 2.79435 l 0.10747,9.77766 -29.01825,18.8032 h 2.36445 v 19.0181 h 76.9521 z" id="path23"></path><path fill="#ffffff" d="M 169.3125,274.21875 V 280.125 H 75.46875 v -6 h 93.75" id="path25" style="stroke-width:0.9375"></path><path fill="none" stroke="#000000" stroke-width="1.28953" d="m 169.3839,274.25975 v 5.90958 H 75.45075 v -6.01703 h 93.93315 z" id="path27"></path><path fill="#ffffff" d="M 81.65625,273.84375 V 253.6875 h 3.75 l -0.1875,20.34375 0.1875,-20.25 -5.4375,-0.0937 v -4.40625 l 83.8125,0.1875 v 4.21875 h -5.0625 v 20.4375 l -0.0937,-20.4375 h 3.75 l 0.1875,20.25" id="path29" style="stroke-width:0.9375"></path><path fill="none" stroke="#000000" stroke-width="1.28953" d="m 81.6843,273.82996 v -20.20001 h 3.761625 l -0.21495,20.4149 0.21495,-20.20001 -5.37375,-0.21489 v -4.29788 l 83.830505,0.10745 v 4.29788 h -5.1588 l 0.10747,20.4149 -0.21495,-20.4149 h 3.8691 l 0.10748,20.20001" id="path31"></path><path fill="none" stroke="#000000" stroke-width="1.28953" d="M 99.7401,268.8874 V 254.81186 H 88.34775 v 13.9681 l 11.284875,0.10744" id="path33"></path><path fill="none" stroke="#000000" stroke-width="1.28953" d="m 91.572,257.71293 v 8.16596 h 5.1588 v -8.16596 h -5.266275 m 63.410255,11.17447 -0.10748,-13.96809 h -11.1774 v 13.96809 h 11.28488" id="path35"></path><path fill="none" stroke="#000000" stroke-width="1.28953" d="m 146.5992,257.82038 v 8.16596 h 5.1588 v -8.16596 h -5.1588 m 8.1681,-11.81916 v -13.96809 h -11.28487 v 13.96809 z" id="path37"></path><path fill="none" stroke="#000000" stroke-width="1.28953" d="m 146.49173,234.93419 v 8.16596 h 5.1588 v -8.16596 h -5.1588 M 99.632625,246.00122 V 231.92568 H 88.34775 v 13.96809 h 11.284875 z" id="path39"></path><path fill="none" stroke="#000000" stroke-width="1.28953" d="m 91.464525,234.82675 v 8.16596 h 5.1588 v -8.16596 h -5.1588 m 28.588355,11.17447 V 231.92568 H 108.768 v 13.96809 h 11.28488" id="path41"></path><path fill="none" stroke="#000000" stroke-width="1.28953" d="m 111.7773,234.82675 v 8.16596 h 5.1588 v -8.16596 h -5.1588 m 23.96693,11.17447 v -13.96809 l -11.28488,-0.10745 v 13.96809 l 11.28488,0.10745" id="path43"></path><path fill="none" stroke="#000000" stroke-width="1.28953" d="m 127.46865,234.82675 v 8.16596 h 5.26627 v -8.16596 h -5.26627" id="path45"></path><path fill="#ffffff" d="m 138.46875,241.6875 0.1875,32.4375 H 105.9375 l -0.0937,-32.4375 h 32.5312" id="path47" style="stroke-width:0.9375"></path><path fill="none" stroke="#000000" stroke-width="1.28953" d="m 138.53858,241.70335 0.10747,32.44895 h -32.56492 l -0.10748,-32.44895 z m -32.77988,9.24043 h 32.88735 m -28.8033,23.20852 v -22.99363 m 24.82673,22.99363 V 251.26612 M 150.4683,227.8427 132.19755,214.51929 H 111.45488 L 93.184125,227.8427 H 150.4683 M 113.067,203.34481 v 8.16597 h 17.41095 v -8.16597 H 113.067" id="path49"></path><path fill="none" stroke="#000000" stroke-width="1.28953" d="m 117.7959,205.3863 v 4.08298 h 7.95315 v -4.08298 h -7.95315 m 3.8691,-11.49681 9.67275,6.8766 h -19.23802 l 9.67275,-6.8766" id="path51"></path><path fill="#ffffff" d="m 160.6875,189.375 c 2.71875,0 3.375,11.25 3.375,16.875 2.4375,0.75 7.59375,4.03125 9.9375,6.9375 h -26.4375 c 2.25,-2.90625 7.40625,-6.1875 9.75,-6.84375 0,-5.625 0.5625,-17.0625 3.375,-16.875" id="path53" style="stroke-width:0.9375"></path><path fill="none" stroke="#000000" stroke-width="1.28953" d="m 160.67843,189.37672 c 2.79435,0 3.4392,11.28192 3.4392,16.97661 2.36444,0.64468 7.63072,3.97553 9.8877,6.8766 h -26.43885 c 2.25697,-2.90107 7.52324,-6.23192 9.78022,-6.8766 0,-5.69469 0.64485,-16.97661 3.33173,-16.97661 m -53.20013,53.1862 h 2.36445 l -0.64485,1.28936 c 0,0 1.07475,1.50426 0,3.22341 l 0.64485,1.07447 h -2.36445 l 0.64485,-1.07447 c 0,0 -1.07475,-1.93404 0,-3.22341 l -0.64485,-1.28936 m 4.83638,0 h 2.36445 l -0.64486,1.28936 c 0,0 1.07476,1.50426 0,3.22341 l 0.64486,1.07447 h -2.36445 l 0.64485,-1.07447 c 0,0 -1.07475,-1.93404 0,-3.22341 l -0.64485,-1.28936 m 5.37375,0 h 2.25697 l -0.64485,1.28936 c 0,0 1.07475,1.50426 0,3.22341 l 0.64485,1.07447 h -2.25697 l 0.53737,-1.07447 c 0,0 -1.07475,-1.93404 0,-3.22341 l -0.64485,-1.28936 z m 5.91112,0 h 2.36445 l -0.75232,1.39681 c 0,0 1.18222,1.39681 0,3.11596 l 0.64485,1.07447 h -2.25698 l 0.64485,-1.07447 c 0,0 -1.07475,-1.93404 0,-3.22341 l -0.64485,-1.18191 z m 5.26628,0 h 2.36444 l -0.75232,1.39681 c 0,0 1.18223,1.39681 0,3.11596 l 0.64485,1.07447 h -2.1495 l 0.53738,-1.07447 c 0,0 -1.07475,-1.93404 0,-3.22341 l -0.64485,-1.18191 m 5.26627,0 h 2.36445 l -0.75233,1.28936 c 0,0 1.18223,1.39681 0,3.11596 l 0.64486,1.07447 h -2.14951 l 0.53738,-1.07447 c 0,0 -1.07475,-1.93404 0,-3.22341 l -0.64485,-1.18191" id="path55"></path><path fill="#ffff00" d="m 122.34375,315.75 c 12.1875,0 27.1875,-2.53125 34.21875,-6.09375 l 15.46875,-1.40625 0.375,18.84375 c -13.125,7.21875 -43.3125,8.8125 -49.96875,8.71875 -6.65625,0 -37.21875,-1.5 -50.4375,-8.71875 l 0.1875,-18.9375 15.46875,1.40625 a 91.875,91.875 0 0 0 34.6875,6.1875" id="path57" style="stroke-width:0.9375"></path><path fill="none" stroke="#000000" stroke-width="0.322383" d="m 122.41733,315.73424 c 12.25214,0 27.19117,-2.47128 34.28452,-6.12447 l 15.36893,-1.28936 0.32242,18.8032 c -13.00447,7.19894 -43.31242,8.81064 -49.8684,8.70319 -6.66345,0 -37.293825,-1.50425 -50.51325,-8.81064 l 0.21495,-18.8032 15.4764,1.39681 c 7.09335,3.65319 22.56975,6.12447 34.71443,6.12447" id="path59"></path><path fill="#ffff00" d="m 32.25,235.3125 13.59375,4.3125 -4.125,22.03125 -12.84375,2.0625 c 0,0 -2.15625,-11.625 3.375,-28.40625" id="path61" style="stroke-width:0.9375"></path><path fill="none" stroke="#000000" stroke-width="0.322383" d="m 32.353275,235.36398 13.54185,4.29788 -4.08405,22.0266 -12.897,2.04149 c 0,0 -2.1495,-11.60426 3.4392,-28.36597 z" id="path63"></path><path fill="#7e7e7e" d="m 41.71875,261.46875 -12.84375,2.25 8.15625,-11.625 4.6875,9.375" id="path65" style="stroke-width:0.9375"></path><path fill="none" stroke="#000000" stroke-width="0.322383" d="m 41.811075,261.47357 -12.897,2.14894 8.1681,-11.49682 4.7289,9.34788" id="path67"></path><path fill="#ffff00" d="m 24.09375,251.25 13.125,0.9375 C 37.5,263.25 38.90625,305.625 89.53125,307.96875 L 87.9375,323.4375 C 26.34375,324 21.65625,271.40625 24.1875,251.25" id="path69" style="stroke-width:0.9375"></path><path fill="none" stroke="#000000" stroke-width="0.322383" d="m 24.185175,251.26612 13.11195,0.85957 c 0.322425,11.17448 1.612125,53.50854 52.340325,55.87237 l -1.612125,15.47235 c -61.69065,0.64468 -66.312075,-52.00428 -63.84015,-72.20429 z m 48.1488,75.32025 15.4764,-3.33085" id="path71"></path><path fill="#ffff00" d="m 211.3125,235.5 -13.5,4.3125 4.3125,21.9375 12.9375,2.0625 c 0,0 2.0625,-11.53125 -3.75,-28.3125" id="path73" style="stroke-width:0.9375"></path><path fill="none" stroke="#000000" stroke-width="0.322383" d="m 211.40663,235.47143 -13.54186,4.29787 4.299,22.02661 12.89701,2.14894 c 0,0 2.1495,-11.60426 -3.65415,-28.47342 z" id="path75"></path><path fill="#7e7e7e" d="m 202.125,261.5625 12.84375,2.34375 -8.25,-11.625 -4.6875,9.28125" id="path77" style="stroke-width:0.9375"></path><path fill="none" stroke="#000000" stroke-width="0.322383" d="m 202.16377,261.58102 12.89701,2.25638 -8.27558,-11.49681 -4.62143,9.24043" id="path79"></path><path fill="#ffff00" d="m 219.65625,251.34375 -13.125,0.9375 c -0.1875,11.0625 -1.21875,53.4375 -51.84375,55.78125 l 1.875,15.375 c 61.59375,0.75 65.8125,-51.9375 63.1875,-72.09375" id="path81" style="stroke-width:0.9375"></path><path fill="none" stroke="#000000" stroke-width="0.322383" d="m 219.6822,251.37356 -13.11195,0.85958 c -0.21495,11.17447 -1.07475,53.61599 -51.80295,55.87237 l 1.7196,15.3649 c 61.69065,0.75213 65.88218,-51.89683 63.1953,-71.9894 z m -47.50395,75.21281 -15.4764,-3.2234" id="path83"></path><path fill="#009fc5" d="m 114.1875,325.03125 c -0.375,0.1875 -0.9375,0.28125 -1.40625,0.1875 l -2.4375,-0.0937 0.1875,-3.09375 2.4375,0.1875 c 0.46875,0 0.9375,0.0937 1.125,0.28125 0.46875,0.1875 0.65625,0.65625 0.65625,1.3125 0,0.5625 -0.28125,0.9375 -0.65625,1.21875 m -4.03125,4.6875 0.1875,-3.65625 2.8125,0.1875 c 0.9375,0.0937 1.6875,-0.1875 2.15625,-0.65625 0.46875,-0.375 0.75,-0.9375 0.75,-1.6875 a 2.34375,2.34375 0 0 0 -0.5625,-1.875 3,3 0 0 0 -1.875,-0.84375 l -4.125,-0.28125 -0.5625,8.8125 h 1.21875 M 118.875,322.5 h 3 l 1.03125,0.1875 c 0.46875,0.28125 0.65625,0.65625 0.65625,1.3125 0,0.5625 -0.0937,0.9375 -0.46875,1.21875 A 2.4375,2.4375 0 0 1 121.78125,325.5 H 118.875 v -3 m 0,7.6875 v -3.75 l 2.8125,0.0937 c 0.46875,0 0.9375,0 1.125,0.1875 0.375,0.1875 0.65625,0.5625 0.65625,1.125 V 330 l 0.1875,0.28125 h 1.5 v -0.1875 a 0.75,0.75 0 0 1 -0.375,-0.46875 3.1875,3.1875 0 0 1 -0.0937,-0.75 v -1.21875 c 0,-0.5625 -0.1875,-0.9375 -0.375,-1.125 a 1.59375,1.59375 0 0 0 -0.75,-0.5625 c 0.375,-0.1875 0.75,-0.46875 0.9375,-0.75 0.1875,-0.375 0.375,-0.75 0.375,-1.3125 0,-0.9375 -0.46875,-1.6875 -1.3125,-2.0625 a 4.40625,4.40625 0 0 0 -1.6875,-0.375 h -4.21875 v 8.8125 h 1.21875 m 9.375,-1.875 a 4.21875,4.21875 0 0 1 -0.9375,-2.4375 c 0,-1.21875 0.1875,-2.15625 0.75,-2.8125 a 2.90625,2.90625 0 0 1 2.25,-0.9375 2.8125,2.8125 0 0 1 2.25,0.75 c 0.65625,0.5625 0.9375,1.40625 1.03125,2.4375 a 4.6875,4.6875 0 0 1 -0.5625,2.625 c -0.46875,0.75 -1.21875,1.21875 -2.34375,1.21875 -1.125,0 -1.875,-0.1875 -2.53125,-0.84375 M 126.75,322.875 a 5.625,5.625 0 0 0 -0.75,3.09375 c 0.0937,1.3125 0.46875,2.4375 1.3125,3.1875 a 4.3125,4.3125 0 0 0 3.375,1.21875 4.125,4.125 0 0 0 3.28125,-1.6875 5.625,5.625 0 0 0 0.9375,-3.375 4.6875,4.6875 0 0 0 -1.125,-2.90625 c -0.84375,-0.9375 -2.0625,-1.40625 -3.65625,-1.3125 -1.5,0 -2.625,0.65625 -3.375,1.78125 M 168,310.21875 c 0.9375,-0.0937 1.6875,-0.0937 2.34375,0.0937 0.9375,0.375 1.59375,1.03125 2.0625,2.15625 l -1.21875,0.1875 a 2.25,2.25 0 0 0 -1.125,-1.21875 3.28125,3.28125 0 0 0 -1.875,-0.1875 2.8125,2.8125 0 0 0 -1.875,1.21875 c -0.46875,0.65625 -0.65625,1.59375 -0.46875,2.8125 a 4.21875,4.21875 0 0 0 1.125,2.4375 c 0.5625,0.5625 1.40625,0.75 2.4375,0.65625 a 3,3 0 0 0 1.875,-1.03125 c 0.5625,-0.5625 0.65625,-1.3125 0.46875,-2.34375 l -2.8125,0.46875 -0.0937,-0.9375 3.9375,-0.65625 0.75,4.6875 h -0.84375 l -0.46875,-0.9375 -0.9375,0.9375 c -0.46875,0.46875 -1.125,0.65625 -1.875,0.84375 a 4.03125,4.03125 0 0 1 -3,-0.65625 4.6875,4.6875 0 0 1 -1.78125,-3.1875 4.78125,4.78125 0 0 1 0.65625,-3.75 3.84375,3.84375 0 0 1 2.8125,-1.59375 m 8.8125,-0.65625 2.8125,-1.03125 c 0.375,-0.1875 0.75,-0.1875 1.03125,-0.1875 0.5625,0 0.9375,0.375 1.125,0.9375 0.1875,0.5625 0.1875,1.03125 0,1.40625 -0.28125,0.28125 -0.65625,0.5625 -1.21875,0.75 l -2.625,0.9375 -1.125,-2.8125 m 2.8125,7.21875 -1.3125,-3.46875 2.625,-0.9375 a 2.8125,2.8125 0 0 1 1.03125,-0.28125 c 0.46875,0.0937 0.84375,0.375 1.125,0.9375 l 0.5625,1.3125 0.28125,0.65625 0.1875,0.28125 1.40625,-0.5625 v -0.1875 c -0.28125,0 -0.46875,-0.0937 -0.5625,-0.375 -0.1875,-0.0937 -0.28125,-0.375 -0.375,-0.65625 l -0.46875,-1.125 c -0.1875,-0.46875 -0.46875,-0.75 -0.65625,-0.9375 A 2.25,2.25 0 0 0 182.625,311.25 l 0.5625,-1.125 c 0,-0.375 0,-0.84375 -0.1875,-1.3125 -0.375,-0.9375 -0.9375,-1.5 -1.875,-1.5 a 4.21875,4.21875 0 0 0 -1.78125,0.28125 l -3.9375,1.40625 3.1875,8.25 1.125,-0.375 m 10.3125,-4.40625 -4.96875,-7.3125 5.4375,-3.5625 0.65625,0.9375 -4.5,2.8125 1.5,2.25 4.21875,-2.625 0.5625,0.84375 -4.21875,2.625 1.6875,2.53125 4.6875,-3 0.5625,0.9375 -5.625,3.5625 m 4.40625,-12.9375 1.40625,-1.59375 c 0.75,-0.75 1.40625,-1.03125 2.15625,-0.9375 0.84375,0 1.59375,0.46875 2.4375,1.21875 a 4.40625,4.40625 0 0 1 1.3125,1.875 c 0.1875,0.5625 0.0937,1.03125 0,1.5 a 3.75,3.75 0 0 1 -0.65625,0.9375 l -1.40625,1.5 -5.25,-4.5 m 7.59375,3.375 c 1.03125,-1.125 1.21875,-2.25 0.65625,-3.75 a 6.28125,6.28125 0 0 0 -1.59375,-1.96875 4.875,4.875 0 0 0 -2.90625,-1.3125 c -1.125,-0.0937 -2.0625,0.28125 -2.90625,1.21875 l -2.4375,2.625 6.75,5.90625 2.4375,-2.625 m 5.25,-6.84375 -7.78125,-4.6875 0.65625,-0.9375 7.78125,4.59375 -0.65625,0.9375 m 3.09375,-5.25 -8.4375,-3.375 2.4375,-5.90625 1.03125,0.375 -1.96875,4.875 2.53125,0.9375 1.875,-4.40625 0.9375,0.375 -1.875,4.5 2.8125,1.125 2.15625,-4.875 0.9375,0.375 -2.4375,6 m 3.75,-10.3125 -8.8125,-1.875 0.375,-1.40625 8.15625,-2.8125 -7.21875,-1.59375 0.28125,-1.03125 8.8125,1.875 -0.28125,1.3125 -8.15625,2.8125 7.21875,1.59375 -0.28125,1.125 m -0.75,-11.25 0.0937,-1.125 c 0.5625,0 0.9375,0 1.3125,-0.1875 0.65625,-0.375 0.9375,-1.03125 1.125,-1.96875 a 3.46875,3.46875 0 0 0 -0.0937,-1.3125 c -0.1875,-0.65625 -0.5625,-1.125 -1.21875,-1.125 -0.5625,-0.0937 -0.9375,0 -1.125,0.28125 -0.28125,0.28125 -0.46875,0.75 -0.65625,1.40625 l -0.46875,1.125 c -0.1875,0.75 -0.46875,1.3125 -0.75,1.59375 -0.375,0.5625 -0.9375,0.75 -1.6875,0.65625 a 2.625,2.625 0 0 1 -1.875,-0.9375 c -0.5625,-0.5625 -0.75,-1.40625 -0.65625,-2.4375 0.0937,-0.9375 0.375,-1.6875 0.9375,-2.25 0.46875,-0.5625 1.21875,-0.9375 2.25,-0.75 l -0.0937,1.125 c -0.46875,0 -0.9375,0 -1.125,0.28125 -0.5625,0.28125 -0.84375,0.9375 -0.9375,1.78125 0,0.65625 0,1.125 0.375,1.5 0.28125,0.375 0.5625,0.5625 0.9375,0.5625 0.46875,0 0.84375,0 1.03125,-0.375 L 211.5,265.5 l 0.375,-1.21875 c 0.1875,-0.5625 0.46875,-0.9375 0.75,-1.3125 0.46875,-0.46875 1.125,-0.65625 1.875,-0.65625 1.03125,0.0937 1.78125,0.5625 2.0625,1.3125 0.375,0.75 0.5625,1.5 0.46875,2.53125 a 3.65625,3.65625 0 0 1 -1.125,2.4375 c -0.65625,0.5625 -1.40625,0.75 -2.4375,0.65625 m -183.375,-0.5625 0.28125,1.125 c -0.5625,0.0937 -0.9375,0.28125 -1.21875,0.5625 -0.46875,0.46875 -0.65625,1.21875 -0.46875,2.25 a 3.75,3.75 0 0 0 0.375,1.125 c 0.375,0.65625 0.9375,0.9375 1.59375,0.84375 0.46875,-0.0937 0.75,-0.28125 0.9375,-0.65625 l 0.28125,-1.5 v -1.21875 c 0,-0.75 0.1875,-1.40625 0.28125,-1.6875 0.28125,-0.5625 0.84375,-0.9375 1.59375,-1.125 0.75,-0.0937 1.5,0 2.0625,0.5625 0.65625,0.375 1.03125,1.125 1.21875,2.0625 a 3.75,3.75 0 0 1 -0.28125,2.4375 c -0.375,0.75 -0.9375,1.125 -1.96875,1.3125 L 34.59375,273.75 a 2.8125,2.8125 0 0 0 0.9375,-0.5625 C 36,272.71875 36.09375,272.0625 36,271.21875 35.8125,270.46875 35.625,270 35.25,269.8125 a 1.40625,1.40625 0 0 0 -1.125,-0.28125 0.9375,0.9375 0 0 0 -0.9375,0.65625 L 33.09375,271.875 33,273.09375 a 3.28125,3.28125 0 0 1 -0.375,1.5 2.0625,2.0625 0 0 1 -1.59375,1.125 c -0.9375,0.1875 -1.875,-0.0937 -2.34375,-0.75 a 4.6875,4.6875 0 0 1 -1.125,-2.25 3.5625,3.5625 0 0 1 0.46875,-2.71875 2.8125,2.8125 0 0 1 2.0625,-1.21875 m -0.5625,11.53125 8.71875,-2.625 1.96875,6.09375 -1.03125,0.375 -1.6875,-4.96875 -2.625,0.75 1.59375,4.6875 -1.03125,0.28125 -1.5,-4.6875 -3,0.9375 1.6875,5.0625 -0.9375,0.28125 -2.15625,-6.1875 m 3.84375,10.59375 7.96875,-4.21875 0.9375,1.5 -5.53125,5.71875 7.96875,-1.3125 0.84375,1.40625 -7.96875,4.21875 -0.5625,-0.9375 4.6875,-2.53125 0.84375,-0.375 1.21875,-0.65625 -7.96875,1.40625 -0.5625,-1.03125 5.4375,-5.8125 -0.28125,0.1875 -0.9375,0.46875 a 6.5625,6.5625 0 0 1 -0.84375,0.46875 l -4.6875,2.4375 -0.5625,-0.9375 M 48.1875,302.625 c -0.375,-0.0937 -0.75,-0.375 -1.125,-0.75 l -1.6875,-1.6875 2.25,-2.0625 1.6875,1.6875 a 2.8125,2.8125 0 0 1 0.65625,0.9375 c 0.1875,0.46875 0,0.9375 -0.46875,1.40625 -0.46875,0.375 -0.9375,0.5625 -1.3125,0.46875 m -6.375,0.75 2.8125,-2.53125 1.875,1.96875 c 0.75,0.65625 1.40625,0.9375 2.0625,0.9375 a 2.8125,2.8125 0 0 0 1.875,-0.75 2.8125,2.8125 0 0 0 0.75,-1.875 c 0,-0.5625 -0.28125,-1.21875 -0.84375,-1.78125 l -2.8125,-2.8125 -6.5625,6 0.9375,0.9375 m 7.875,7.03125 4.78125,-7.5 5.625,3.375 -0.5625,0.9375 -4.6875,-2.8125 -1.40625,2.34375 4.21875,2.53125 -0.46875,0.9375 -4.3125,-2.625 -1.59375,2.53125 4.6875,2.8125 L 55.5,313.96875 49.78125,310.5 m 14.0625,-1.5 2.90625,0.9375 0.9375,0.46875 c 0.375,0.375 0.46875,0.84375 0.1875,1.40625 -0.1875,0.5625 -0.375,0.9375 -0.84375,1.03125 L 65.625,312.75 62.90625,311.8125 63.84375,309 m -2.4375,7.40625 1.21875,-3.5625 2.625,0.84375 c 0.46875,0.0937 0.9375,0.28125 1.03125,0.46875 0.28125,0.28125 0.375,0.75 0.28125,1.3125 L 66.09375,316.875 66,317.53125 v 0.28125 l 1.40625,0.46875 v -0.1875 l -0.1875,-0.65625 0.1875,-0.65625 0.375,-1.125 c 0.09375,-0.5625 0.1875,-0.9375 0,-1.125 0,-0.28125 -0.28125,-0.5625 -0.5625,-0.84375 0.46875,0 0.9375,-0.1875 1.21875,-0.46875 0.28125,-0.28125 0.5625,-0.65625 0.65625,-1.125 0.375,-0.9375 0.1875,-1.78125 -0.5625,-2.34375 a 4.875,4.875 0 0 0 -1.5,-0.84375 L 63,307.6875 l -2.8125,8.34375 1.21875,0.375" id="path85" style="stroke-width:0.9375"></path><path fill="#bc715f" d="m 73.59375,164.625 c 0.9375,-2.53125 10.59375,-9.375 42,-6.375 0,0 5.34375,3.28125 8.4375,2.8125 1.875,-0.1875 -0.9375,0.1875 -3.375,-1.78125 -2.34375,-1.875 -2.8125,-5.90625 2.53125,-5.71875 5.4375,0.0937 25.59375,1.21875 25.96875,3.09375 0.375,1.78125 -10.6875,2.53125 -14.71875,2.4375 -4.125,-0.0937 -3.75,1.96875 0.375,1.875 12.84375,-0.5625 26.8125,-5.0625 41.53125,5.4375 1.78125,1.21875 -4.40625,1.40625 -9.1875,-0.5625 0,0 -13.125,0.65625 -18.75,-0.28125 0,0 -4.21875,3.5625 -9.9375,3.1875 0.75,1.875 -2.0625,8.625 -19.6875,3.46875 -3,0.9375 -13.59375,2.71875 -12.46875,-0.46875 -2.8125,0 -7.6875,0.9375 -8.4375,-0.65625 -0.75,-1.59375 8.625,-3.9375 10.3125,-5.625 0,0 -19.875,0.1875 -23.625,-1.21875 0,0 -11.71875,2.625 -10.96875,0.375" id="path87" style="stroke-width:0.9375"></path><path fill="#008737" d="m 79.96875,192.375 c 0.375,-0.5625 0.5625,-1.6875 1.5,-1.59375 1.875,0.46875 3.28125,4.125 5.625,1.78125 0.9375,-0.1875 1.21875,0.9375 1.875,1.125 0.46875,1.96875 2.15625,-0.46875 3.28125,-0.28125 2.625,-1.125 5.71875,-1.40625 8.8125,-0.9375 0,2.0625 -1.5,4.21875 -3.375,5.34375 0,1.875 1.875,3.1875 1.78125,5.15625 -0.28125,0.75 0,1.875 -1.125,2.15625 -1.5,-0.28125 -2.8125,-0.375 -4.03125,-1.21875 -0.1875,-0.0937 -0.28125,-0.375 -0.5625,-0.28125 -0.1875,0.65625 0.9375,1.3125 1.3125,1.96875 -0.75,1.21875 -1.875,0.0937 -2.90625,0.0937 -0.28125,0.75 0,1.59375 -0.75,2.0625 -1.21875,0 -1.5,-1.40625 -2.25,-2.0625 -0.84375,0.84375 0.5625,1.3125 0.75,1.96875 -0.5625,2.625 -0.46875,5.15625 -3,6.84375 L 85.125,215.3437 c -0.46875,-1.3125 -0.1875,-3.28125 -0.46875,-4.6875 -0.9375,1.6875 -1.875,3.1875 -3.28125,4.59375 -1.875,-0.5625 -2.8125,-2.625 -3.1875,-4.40625 a 5.4375,5.4375 0 0 1 1.21875,-5.8125 c -0.46875,-0.9375 -2.34375,-0.75 -2.625,-2.25 -2.8125,-1.875 -4.21875,3.09375 -6,0.5625 a 8.0625,8.0625 0 0 1 1.875,-7.125 c -0.46875,-0.9375 -1.78125,-0.75 -2.53125,-1.3125 -1.6875,-1.5 -4.21875,-3 -4.03125,-5.625 A 13.125,13.125 0 0 1 79.875,192.375" id="path89" style="stroke-width:0.9375"></path><path fill="#ffff00" d="m 82.40625,192.09375 c -0.09375,2.15625 1.40625,0.5625 2.625,1.875 -0.9375,-0.375 -1.59375,1.59375 -2.53125,0.46875 L 81.9375,195 c 0.375,0.75 0.9375,0.84375 0.375,1.6875 -0.9375,0.375 -1.21875,-0.9375 -1.6875,-1.40625 0,-0.1875 0.1875,-0.5625 -0.1875,-0.75 -0.5625,0.46875 -1.125,0.65625 -1.875,0.5625 -0.1875,-0.375 -0.65625,-0.9375 -0.1875,-1.3125 0.75,-0.9375 1.875,0.375 2.4375,-0.28125 0.09375,-0.65625 -0.46875,-1.40625 0.28125,-1.875 0.46875,0.0937 1.125,-0.1875 1.3125,0.46875 m 5.8125,1.78125 c 0.09375,0.375 -0.1875,0.9375 0.375,1.3125 0.75,-0.375 1.5,-0.0937 1.875,0.5625 0,0.375 0.09375,0.9375 -0.375,1.125 l -1.125,-0.28125 c 0.09375,-0.1875 -0.28125,-0.28125 -0.375,-0.5625 -0.46875,-0.0937 -0.84375,0.28125 -1.125,0.5625 0.28125,0.375 0.9375,0.65625 0.75,1.125 -0.65625,0.65625 -0.9375,-0.5625 -1.6875,-0.1875 -0.5625,-0.1875 0.09375,-1.21875 -0.65625,-1.59375 -0.9375,0 -0.28125,1.5 -1.5,0.9375 C 84,196.40625 83.625,195.75 84,195.28125 a 1.5,1.5 0 0 1 1.78125,0.1875 c 0.75,-0.84375 0.75,-3.84375 2.53125,-1.59375 M 81,196.96875 c 0.46875,0.75 -0.1875,1.6875 0.46875,2.4375 0.9375,-1.875 1.875,0.375 3,0.1875 0.375,0.46875 0.09375,1.03125 0.1875,1.5 -1.40625,0.375 -3.09375,0.84375 -4.3125,-0.28125 l -0.375,0.375 c 0.75,0.65625 1.40625,1.5 0.84375,2.625 -1.03125,0.1875 -2.71875,0.28125 -3.1875,-0.84375 -0.28125,-0.9375 0.65625,-1.5 -0.375,-2.25 -0.65625,0.9375 -0.65625,2.0625 -2.0625,1.21875 a 1.78125,1.78125 0 0 1 -0.75,-2.34375 c 0.9375,-1.5 2.625,0 3.5625,-0.65625 0.1875,-1.3125 -0.28125,-2.4375 0.9375,-3.09375 0.9375,-0.1875 1.40625,0.5625 2.0625,1.125" id="path91" style="stroke-width:0.9375"></path><path fill="#ffffff" d="m 84.9375,197.8125 c -0.46875,2.15625 -2.0625,-0.0937 -2.8125,-0.1875 0.9375,-1.875 1.59375,0.5625 2.8125,0.1875 M 90,200.15625 c -1.125,0.28125 -0.9375,-1.125 -1.5,-1.6875 l 0.46875,-0.375 C 89.34375,198.5625 89.625,199.5 90,200.15625" id="path93" style="stroke-width:0.9375"></path><path fill="#ffff00" d="m 88.5,199.6875 c 0.28125,0.75 -0.75,1.40625 0.1875,1.875 l 0.75,-0.65625 c 0.84375,0.1875 1.6875,0.375 2.25,1.125 0.5625,1.59375 -1.03125,1.59375 -1.875,2.0625 H 88.875 c 0.1875,-0.5625 -0.46875,-0.75 -0.5625,-0.9375 a 0.9375,0.9375 0 0 0 -1.03125,0.28125 c 0.1875,0.9375 1.40625,1.875 0.1875,2.71875 -1.125,0 -2.8125,0.375 -2.71875,-1.125 -0.375,-0.9375 1.125,-2.15625 -0.46875,-2.25 C 83.71875,204 83.15625,205.03125 81.75,204 l 0.1875,-1.6875 c 1.3125,0 2.90625,0.28125 3.46875,-1.21875 0.375,-1.03125 -0.65625,-2.0625 0.28125,-2.8125 1.40625,-0.375 2.15625,0.5625 2.8125,1.40625" id="path95" style="stroke-width:0.9375"></path><path d="m 87.5625,202.125 c 0.28125,0.84375 -0.5625,0.9375 -1.03125,1.3125 -0.5625,0 -0.9375,-0.1875 -1.3125,-0.5625 -0.28125,-0.9375 0.46875,-1.125 0.9375,-1.5 0.65625,-0.28125 0.9375,0.46875 1.40625,0.75" id="path97" style="stroke-width:0.9375"></path><path fill="#ffffff" d="m 86.71875,202.6875 c -0.09375,0.1875 -0.375,0.0937 -0.5625,0.1875 l -0.1875,-0.9375 c 0.46875,0 0.9375,0.0937 0.75,0.75" id="path99" style="stroke-width:0.9375"></path></g></svg> 