<?xml version="1.0" encoding="UTF-8" standalone="no"?> <svg xmlns:inkscape="http://www.inkscape.org/namespaces/inkscape" xmlns:sodipodi="http://sodipodi.sourceforge.net/DTD/sodipodi-0.dtd" xmlns:xlink="http://www.w3.org/1999/xlink" xmlns="http://www.w3.org/2000/svg" xmlns:svg="http://www.w3.org/2000/svg" id="flag-icons-sz" viewBox="0 0 720 480" version="1.1" sodipodi:docname="sz.svg" width="720" height="480" inkscape:version="1.1 (c68e22c387, 2021-05-23)"><defs id="defs53"></defs><g id="g928"><g id="g873"><path fill="#3e5eb9" d="M 0,0 H 720 V 480 H 0 Z" id="path2" style="stroke-width:1.06066"></path><path fill="#ffd900" d="M 0,90 H 720 V 390 H 0 Z" id="path4" style="stroke-width:1.06066"></path><path fill="#b10c0c" d="M 0,120 H 720 V 360 H 0 Z" id="path6" style="stroke-width:1.06066"></path></g><g id="g898" transform="translate(40.019994)"><g fill="#ffd900" stroke="#000000" transform="matrix(1.2,0,0,1.2,-43.2,0)" id="g19"><g id="a"><path fill="#ffffff" d="m 492.9,154.3 -24.3,8.6 24.2,8.5 24.3,-8.5 z" id="path8"></path><rect width="357.10001" height="5.6999998" x="122.8" y="160" rx="3.0999999" ry="2.9000001" id="rect10"></rect><path d="m 471.4,165.7 a 3,3 0 0 0 2.9,-2.8 3,3 0 0 0 -2.9,-2.9 m -2.8,5.7 a 3,3 0 0 0 2.8,-2.8 3,3 0 0 0 -2.8,-2.9 m -2.9,5.7 a 3,3 0 0 0 2.9,-2.8 3,3 0 0 0 -2.9,-2.9" id="path12"></path></g><use xlink:href="#a" width="100%" height="100%" x="-23.299999" y="17.1" id="use15"></use><rect width="485.70001" height="8.6000004" x="59.799999" y="195.7" stroke-width="1.1" rx="4.1999998" ry="4.3000002" id="rect17"></rect></g><path fill="#ffffff" stroke="#000000" stroke-width="1.2" d="m 488.2,240 c -34.3,34.3 -80,102.9 -171.4,102.9 -80,0 -137.1,-68.6 -171.4,-102.9 34.2,-34.3 91.4,-102.9 171.4,-102.9 91.4,0 137.1,68.6 171.4,102.9 z" id="path21"></path><path d="m 304.8,173 c 9.2,10.2 1.5,14.3 11.2,15 10.2,0.7 4.4,10.8 13,11.2 6,0.2 -0.6,24.2 5.1,32 5.9,8.3 10.8,2.5 11,8.4 0,6.2 -16,5.5 -16.3,24.5 -0.5,10.9 -13.6,11.6 -14.2,18.6 -0.8,6.6 25.8,10.3 25.4,16.2 -0.3,6 -28.7,5 -30,11.7 -0.6,6 39,11 42.2,28.5 -6,2 -22.7,3.7 -35.4,3.8 -80,0 -137.1,-68.6 -171.4,-103 34.3,-34.2 91.4,-102.8 171.4,-102.8 0,0 -23.7,21.7 -12,35.8 z" id="path23"></path><g stroke="#ffffff" transform="matrix(1.2,0,0,1.2,-43.2,0)" id="g32"><g id="d" stroke-width="6.9"><g id="c"><path id="b" d="m 214,192.4 v -22.9 m 13.8,0 v 22.9 m 13.8,-22.9 v 22.9"></path><use xlink:href="#b" width="100%" height="100%" y="38.099998" id="use26" x="0"></use></g><use xlink:href="#c" width="100%" height="100%" x="41.599998" id="use29" y="0"></use></g></g><use xlink:href="#d" width="100%" height="100%" x="104.8" stroke="#000000" transform="matrix(1.2,0,0,1.2,-43.2,0)" id="use34" y="0"></use><g fill="#a70000" id="g48"><path fill="#333333" stroke="#000000" d="m 570.4,236 c -5.2,8.9 4,-3 26.4,12 a 21.6,21.6 0 0 1 7.8,15.3 c -1,-0.7 -1.9,-2.3 -3,-3.2 -1.6,1.6 1.6,9 2,12.5 -3.5,-2 -3.2,-2.8 -4.3,-5.2 0.2,2.8 -0.7,10.8 0.8,14 -2.8,-0.8 -2.6,-3 -4,-3.5 1,3.5 -0.9,7.2 -0.4,11.2 -1.6,-1.6 -3.4,-2.9 -4.1,-3.5 -0.2,2 -3.1,6.8 -3.2,8.6 a 4.5,4.5 0 0 1 -2,-3 59.2,59.2 0 0 0 -8,12.4 c -4.7,-4 -16.6,-14 -18.2,-19.4 -1.4,3 -3.4,4 -7.2,6.2 -1.6,-8.4 -7.5,-17.8 -4.4,-25.1 a 75.2,75.2 0 0 0 -6.1,4.2 49.6,49.6 0 0 1 28,-33.6 z" id="path36"></path><path fill="#b3b3b3" d="m 551,280.5 c 2.2,-4.3 4.2,-5.7 5.6,-8.5 2.4,-4.8 2.8,-8.8 5,-8.2 2,0.6 2,2.6 -0.7,7.4 -2.7,4.8 -4,5.8 -9.9,9.3 z m 14.6,10.2 c -0.2,-3.2 0.7,-4.6 0.6,-6.7 -0.4,-3.8 -1.9,-6.3 0.1,-6.5 2,-0.1 2.9,1.1 2.9,4.8 0,3.8 -0.6,4.8 -3.6,8.4 z m 11.1,6.4 c -0.9,-4.5 -0.2,-6.5 -0.8,-9.5 -1,-5.2 -2.9,-8.6 -1,-9.1 1.8,-0.5 3,1.2 3.7,6.5 0.6,5.2 0.3,6.7 -1.9,12.2 z m 11.5,-32 c -2.7,-2 -4.3,-2.2 -6,-3.5 -3,-2.4 -4.6,-4.8 -5.6,-3.6 -1,1.2 -0.3,2.6 3,4.7 3.3,2.1 4.2,2.3 8.6,2.4 z m -1.9,15.2 c -1.4,-3 -3,-3.7 -3.8,-5.6 -1.6,-3.4 -1.6,-6.3 -3.5,-5.6 -1.7,0.8 -1.9,2.3 0,5.6 2,3.2 3,3.8 7.2,5.6 z" id="path38"></path><path fill="#333333" stroke="#000000" stroke-width="1.3" d="m 53.8,244.6 c -0.4,-2.6 0.2,-3 -1.4,-5 2.4,1 2.4,3.7 5.3,1.8 1,-0.5 1.5,-0.5 0.2,-3.5 3,0.2 12.7,3.5 14.3,3.6 4.1,0.2 11.6,-4.3 16.8,1.2 5,5 3.2,10.3 3.2,17.2 -2,-1 -1,-1.3 -3.2,-3.9 1.6,6.2 0,17.1 0,23.6 -0.8,-1.6 -0.7,-0.9 -1.5,-2.5 -2,5.9 -4.6,7 -4.6,14.1 -0.8,-2.8 0,-2.2 -0.9,-3.6 -2,4.5 -16,8.3 -10.6,12.8 -4.8,-2.8 -7,-2.6 -9,-5 -1,0.5 -1.8,1.7 -2.6,3.2 -8.5,-3.8 -5.5,-12.2 -12.1,-17.9 -1.2,2.4 -0.7,2.1 -2,5.9 -1.2,-5.3 -1.6,-8.7 -3.1,-12.6 -1.3,2.2 -1.2,1.3 -3.6,4.6 -1,-6.4 -2.5,-8 -2,-12.3 -2.4,1.8 -0.8,1 -3.3,3.2 2.4,-16.5 12.6,-28.8 20,-25 z" id="path40"></path><path fill="#b3b3b3" d="m 43.4,271.7 c 2.1,-5.4 4,-7 5.5,-10.4 2.5,-6.1 2.9,-11 5,-10.3 2,0.8 2,3.2 -0.8,9.2 -2.8,6 -4,7.2 -9.7,11.5 z m 8.2,13.3 c 0.8,-4.8 2.2,-6.4 2.8,-9.6 1,-5.4 0.5,-9.4 2.4,-9.2 2,0.2 2.4,2.3 1.1,7.6 -1.3,5.5 -2.2,6.8 -6.4,11.2 z m 9.8,9.4 c 0.3,-4.6 1.4,-6.5 1.6,-9.5 0.3,-5.2 -0.8,-9 1,-9 2,0 2.6,1.9 2,7.1 -0.6,5.2 -1.2,6.6 -4.6,11.4 z M 82.6,264 c -4,-4 -6.4,-4.8 -9,-7.4 -4.6,-4.6 -6.9,-8.8 -8.6,-7.3 -1.6,1.5 -0.6,3.7 4.3,8 4.8,4.5 6.5,5.1 13.4,6.7 z m -2.4,15.6 c -2.6,-4 -4.6,-5.1 -6.3,-7.8 -3,-4.5 -4,-8.4 -5.7,-7.5 -1.7,1 -1.3,3 1.9,7.5 3.3,4.4 4.5,5.2 10.1,7.8 z" id="path42"></path><path fill="#333333" stroke="#000000" d="m 261.4,155.4 c -4.8,9.2 8.3,-3 28.8,12.4 a 35.4,35.4 0 0 1 9.2,19.3 61.7,61.7 0 0 1 -12,-5.3 c 0,0 9,9.2 9,19.6 -3.2,-2 -4.8,-1.7 -6,-4.1 0,3.3 3,5.5 3,10.7 a 42.4,42.4 0 0 0 -6.3,-4.2 c 3,5.3 -5.5,15.5 -1.2,18.8 a 26.6,26.6 0 0 1 -18.1,-11 c -1.6,1 -1.8,2.7 -1.9,4.6 0.3,0.1 -11.3,-8.7 -10.2,-12 a 10.1,10.1 0 0 0 -2.2,5.8 31.7,31.7 0 0 1 -9.6,-13.8 c -1.8,2.4 -2,2.4 -3.9,5 -1.4,-8.7 -1.4,-8.4 1.4,-15.8 a 69,69 0 0 0 -5.6,4.3 50,50 0 0 1 25.6,-34.3 z" id="path44"></path><path fill="#b3b3b3" d="m 249.6,200.2 c 0.8,-6.3 2.4,-8.6 3,-12.8 0.8,-7 -0.2,-12.4 2.4,-12.2 2.4,0.2 3.2,2.8 2,10 -1.3,7.1 -2.4,8.8 -7.3,15.1 z m 13.3,11.6 c -0.5,-5.2 0.5,-7.6 0.1,-11 -0.5,-6 -2.4,-10.2 -0.2,-10.5 2.2,-0.4 3.4,1.6 3.6,7.8 0.2,6 -0.3,7.7 -3.5,13.7 z m 20.8,9.6 c -2.3,-4.7 -4.3,-6 -5.7,-9 -2.6,-5.3 -3.2,-9.5 -5.1,-8.8 -2,0.8 -1.9,3 1,8.2 2.8,5 4.1,6.1 9.7,9.6 z m 7.1,-41.5 c -5.8,-3 -8.7,-3 -12.4,-5 -6.5,-3.4 -10.3,-7.1 -11.6,-5 -1.4,2 0.4,4.1 7.1,7.2 6.7,3.1 8.8,3.2 16.8,2.8 z m 2,17.3 c -4,-3.4 -6.6,-4 -9.3,-6.2 -4.8,-4 -7.1,-7.7 -8.6,-6.2 -1.6,1.6 -0.6,3.6 4.4,7.3 5,3.7 6.7,4.1 13.6,5.1 z" id="path46"></path></g></g></g></svg> 