<?xml version="1.0" encoding="utf-8"?>
<!-- Generator: Adobe Illustrator 23.0.1, SVG Export Plug-In . SVG Version: 6.00 Build 0)  -->
<svg version="1.1" id="Layer_1" xmlns="http://www.w3.org/2000/svg" xmlns:xlink="http://www.w3.org/1999/xlink" x="0px" y="0px"
	 viewBox="0 0 500 250" style="enable-background:new 0 0 500 250;" xml:space="preserve">
<style type="text/css">
	.st0{fill:none;}
	.st1{fill:#434C54;}
	.st2{fill:url(#SVGID_1_);}
</style>
<rect x="-0.6" y="0.7" class="st0" width="500" height="250"/>
<path class="st1" d="M188.7,109.2c-1.2-0.4-3.8-0.7-6.4-0.7c-7.8,0-16.1,6.3-16.1,14.1v37.1h-17.7V93.6h17.1v6.7
	c4-4.9,11.2-8,19.2-8c2,0,4,0.2,6,0.5L188.7,109.2z"/>
<path class="st1" d="M208.7,58.8c6.4,0,11.6,4.9,11.6,11.3c0,6.4-5.2,11.3-11.6,11.3s-11.6-4.9-11.6-11.3S202.3,58.8,208.7,58.8z
	 M217.6,159.7h-17.7V93.6h17.7V159.7L217.6,159.7z"/>
<path class="st1" d="M270,92.2c-7-0.1-13.9,2.3-19.4,6.7v-5.3h-17.1v98.9h17.7v-37.4c5,4,11.3,6.1,17.7,6c9.8,0,19.2-4.4,25.1-11.2
	c5.2-6,8.3-14.2,8.3-23.2C302.4,107.2,288,92.2,270,92.2z M267.8,145c-11,0-18.3-7.6-18.3-18.2s7.2-18.2,18.3-18.2
	c9.4,0,17,8.2,17,18.2S277.2,145,267.8,145L267.8,145z"/>
<path class="st1" d="M410.1,159.7h-17.7V62.9h17.7L410.1,159.7L410.1,159.7z"/>
<path class="st1" d="M482.4,149.2c-6.4,7.6-16.9,11.9-27.1,11.9c-19.8,0-34.6-13.6-34.6-34.4c0-18.4,12.5-34.5,32.2-34.5
	c18.3,0,31.2,15.4,31.2,33.8c0,1.7-0.1,3.4-0.4,5h-45.8c1,9.3,8.5,15.7,17.9,15.7c7.5,0,13.5-4.2,16.6-7.6L482.4,149.2z
	 M465.9,118.1c-0.5-5.9-5.9-11.6-13.1-11.6c-7.4,0-13.4,5.6-14.2,11.6H465.9L465.9,118.1z"/>
<path class="st1" d="M349.4,92.2c-7-0.1-13.9,2.3-19.4,6.7v-5.3h-17.1v98.9h17.7v-37.4c5,4,11.3,6.1,17.7,6
	c9.8,0,19.2-4.4,25.1-11.2c5.2-6,8.3-14.2,8.3-23.2C381.8,107.2,367.4,92.2,349.4,92.2z M347.2,145c-11,0-18.3-7.6-18.3-18.2
	s7.2-18.2,18.3-18.2c9.4,0,17,8.2,17,18.2S356.6,145,347.2,145z"/>
<linearGradient id="SVGID_1_" gradientUnits="userSpaceOnUse" x1="77.092" y1="142.8242" x2="155.5789" y2="64.3373" gradientTransform="matrix(1 0 0 -1 -28.3468 226.7019)">
	<stop  offset="0" style="stop-color:#00AAE4"/>
	<stop  offset="1" style="stop-color:#006097"/>
</linearGradient>
<path class="st2" d="M111.9,135.6c-4-2.3-8.5-3-13-3.1c-3.7-0.1-9.3-2.5-9.3-9.3c0-5.1,4.1-9.2,9.3-9.3c4.5-0.2,9-0.8,13-3.1
	c11.3-6.5,15.2-21,8.7-32.3s-21-15.2-32.3-8.7c-7.3,4.2-11.8,12-11.8,20.5c0,4.6,1.6,8.8,3.7,12.7c1.7,3.3,2.6,9.4-3.4,12.9
	c-4.5,2.6-10,0.9-12.8-3.5c-2.3-3.8-5.2-7.3-9.2-9.6c-11.3-6.5-25.8-2.7-32.3,8.7s-2.7,25.8,8.7,32.3c7.3,4.2,16.3,4.2,23.7,0
	c4-2.3,6.8-5.8,9.2-9.6c1.9-3.1,6.7-7,12.8-3.5c4.5,2.6,5.8,8.2,3.4,12.9c-2.1,3.9-3.7,8.1-3.7,12.7c0,13.1,10.6,23.7,23.7,23.7
	s23.7-10.6,23.7-23.7C123.7,147.6,119.2,139.8,111.9,135.6z"/>
</svg>
