<?xml version="1.0" encoding="utf-8"?>
<!-- Generator: Adobe Illustrator 23.0.1, SVG Export Plug-In . SVG Version: 6.00 Build 0)  -->
<svg version="1.1" id="Layer_1" xmlns="http://www.w3.org/2000/svg" xmlns:xlink="http://www.w3.org/1999/xlink" x="0px" y="0px"
	 viewBox="0 0 500 250" style="enable-background:new 0 0 500 250;" xml:space="preserve">
<style type="text/css">
	.st0{fill:none;}
	.st1{fill:#8DC640;}
</style>
<rect x="0.1" y="0.7" class="st0" width="500" height="250"/>
<path class="st1" d="M458.8,120.5c-2.7,1.9-6.7,2.8-12.1,2.8h-2.4h-3l4.1-22.3h2.1h1.9c4.5,0,7.8,0.7,10,2.2
	c1.8,1.2,3.9,3.4,3.9,7.8C463.3,116.2,460.9,119,458.8,120.5 M138.3,148.4H96.7l2.7-14.5h26.1l3-16.4h-25.8l2.5-14.4h41.5
	L138.3,148.4z M481.2,90.6c-6.1-4.2-15.4-6.3-27.5-6.3H422l-11.8,64.1h-41.6l2.7-14.5h25.1l3-16.3l-25.1,0l2.7-14.5h25.8l3.4-18.8
	h-52.4l-11.2,60.8h-19.2l11.3-60.8h-27.4l-11.2,60.8h-18.7l11.3-60.8h-27.4l-11.8,64.1h-41.9l2.6-14.5h25.2l3-16.2l-25.1,0l2.7-14.5
	h26.1l3.4-18.8H81.8l-9.3,50.8L54,84.3H25.5l-15.3,82.9h27.2l9.3-52.2l18,52.2H162l11.8-64.1H189l-11.8,64.1h256.1l7.4-40.5l12,40.5
	h27.2l-12.4-33.1l2.8-0.6c6.3-1.3,11.2-4.2,14.6-8.6c3.4-4.4,5.1-10,5.1-16.7C490,100.4,487.1,94.6,481.2,90.6"/>
</svg>
