<?xml version="1.0" encoding="utf-8"?>
<!-- Generator: Adobe Illustrator 23.0.1, SVG Export Plug-In . SVG Version: 6.00 Build 0)  -->
<svg version="1.1" id="Layer_1" xmlns="http://www.w3.org/2000/svg" xmlns:xlink="http://www.w3.org/1999/xlink" x="0px" y="0px"
	 viewBox="0 0 500 250" style="enable-background:new 0 0 500 250;" xml:space="preserve">
<style type="text/css">
	.st0{fill:none;}
	.st1{fill:#312E29;}
	.st2{fill:#3BAD29;}
</style>
<rect x="0" y="0" class="st0" width="500" height="250"/>
<g>
	<g id="toditocash">
		<path id="XMLID_1_" class="st1" d="M144.4,104.8c5.2,0,10.4,0,15.6,0c-0.7,3.7-1.5,7.3-2.2,10.9c-5.2,0-10.3,0-15.5,0
			C142.9,112.1,143.6,108.4,144.4,104.8z M36.4,105.2c-1.1,5.1-2.1,10.3-3.2,15.4c2.7,0,5.3,0,8,0c-0.8,3.8-1.6,7.6-2.4,11.4
			c-2.7,0-5.4,0-8.1,0c-1,4.9-2,9.9-3,14.8c-0.2,1.5-0.6,3.1,0.8,4c2,1.1,5.1,0.1,7.3-0.1c-0.8,3.8-1.5,7.6-2.3,11.4
			c-4.8,0.6-10.5,1.6-15.3,0.3c-3.6-0.9-6-4-6.8-7.5c-0.4-2,0-4.2,0.4-6.2c1.1-5.6,2.3-11.2,3.4-16.8c-1.8,0-3.7,0-5.5,0
			c0.8-3.8,1.5-7.6,2.3-11.4c1.9,0,3.8,0,5.7,0c0.4-2.2,0.9-4.3,1.3-6.5C24.8,111.1,30.6,108.2,36.4,105.2z M183.5,105.2
			c-1.1,5.1-2.1,10.3-3.2,15.4c2.7,0,5.3,0,8,0c-0.8,3.8-1.6,7.6-2.4,11.4c-2.7,0-5.4,0-8.1,0c-1,4.8-1.9,9.6-3,14.4
			c-0.2,1.6-0.8,3.4,0.8,4.4c2,1.1,5.1,0.1,7.2-0.2c-0.8,3.8-1.5,7.6-2.3,11.4c-4.8,0.6-10.5,1.6-15.2,0.4c-5-1.3-7.8-6.7-6.8-11.6
			c1.1-6.3,2.5-12.6,3.8-18.9c-1.9,0-3.7,0-5.6,0c0.8-3.8,1.5-7.6,2.3-11.4c1.9,0,3.8,0,5.7,0c0.4-2.2,0.9-4.3,1.3-6.5
			C171.9,111.1,177.7,108.2,183.5,105.2z M156.7,120.6c-2.9,13.8-5.8,27.6-8.7,41.4c-5.2,0-10.4,0-15.6,0
			c2.9-13.8,5.7-27.6,8.7-41.4C146.3,120.5,151.5,120.6,156.7,120.6z M84.4,132.3c-1.6-4.7-4.8-9.1-9.6-10.9c-5-2-10.9-2.1-16.1-1.2
			c-6.8,1.2-13,5.3-16.3,11.4c-4.1,7.4-4.9,17.7,0.4,24.6c2.9,4,7.3,5.9,12.1,6.6c5.3,0.7,11.2,0.4,16.2-1.8
			c4.8-2,8.9-5.8,11.2-10.5C85.1,144.9,86.3,138.3,84.4,132.3z M69.7,142.6c-0.7,2.9-2.1,6.3-4.5,8.2c-2.6,2.1-6.6,2-8.8-0.6
			c-2.7-3-2.3-7.4-1.4-11c1-3.4,2.7-7.2,6.4-8.4c3-1,6.6-0.1,8.1,2.8C70.7,136.3,70.3,139.7,69.7,142.6z M123.3,104.8
			c-1.5,7.1-2.9,14.1-4.4,21.2c-1.7-2.1-3.5-4-6.1-5.1c-4.7-1.9-10.6-1.8-14.9,1c-3.2,2-5.5,5-7.3,8.3c-3.1,5.6-4.2,12.4-3.6,18.7
			c0.4,4.3,2,8.7,5.4,11.5c3.5,2.9,8.5,3.2,12.7,2.3c3.4-0.7,5.7-2.8,8.2-4.9c-0.3,1.5-0.5,2.9-0.8,4.4c4.8,0,9.6,0,14.4,0
			c4-19.1,8-38.2,12-57.3C133.6,104.8,128.5,104.8,123.3,104.8z M115.3,143.3c-0.7,2.6-1.8,5.7-3.9,7.6c-2.2,2-6.2,2.3-8.1-0.3
			c-1.9-2.5-1.5-6.7-1.1-9.7c0.6-3.6,2.4-8.5,5.9-10.2c3-1.3,6.5,0.6,7.4,3.6C116.4,137.2,116,140.5,115.3,143.3z M221.6,121.3
			c-4.9-1.9-10.5-2-15.6-1.2c-6.8,1.1-13,5.2-16.4,11.3c-4.1,7.3-5,17.5,0.2,24.5c2.8,4,7.2,6.1,12,6.8c6.8,0.9,14.4,0.3,20.2-3.7
			c6.6-4.3,10.4-12.6,10.5-20.3C232.6,131.5,228.5,123.8,221.6,121.3z M214,149c-1.7,2.4-4.6,3.8-7.5,3.1c-2.9-0.8-4.8-3.7-5-6.6
			c-0.3-3.8,0.8-7.8,2.7-11.1c1.1-1.9,2.9-3.3,5.1-3.8c3.2-0.7,6.9,0.7,7.8,4.1C218,139.4,216.7,145,214,149z"/>
		<path id="XMLID_1501_" class="st2" d="M485.3,85c-5.3-7.2-14.6-10.9-23.5-9.1c-10.7,2.1-18.6,11.8-19.1,22.6
			c-0.7,11,6.4,21.7,17,24.8c9,2.8,19-0.4,24.9-7.7C491.9,107,492,93.9,485.3,85z M483,104.5c-4,0-8,0-12,0c-0.8,4-1.7,7.9-2.5,11.9
			c-3.5,0-7.1,0-10.7,0c0.8-3.9,1.7-7.9,2.5-11.9c-4,0-8,0-12,0c0.7-3.6,1.5-7.2,2.3-10.9c4,0,8,0,12,0c0.9-3.9,1.5-7.9,2.6-11.7
			c3.5-0.3,7.1,0,10.6-0.1c-0.8,3.9-1.7,7.9-2.5,11.8c4,0,7.9,0,11.9,0C484.4,97.2,483.7,100.9,483,104.5z M281.6,101.6
			c5.7,1,11.1,3.5,14.5,8.3c3.4,4.7,4.3,10,4.5,15.6c-5.8,0-11.6,0-17.3,0c-0.2-1.8-0.3-4-1.2-5.6c-0.9-1.6-2.5-2.7-4.2-3.1
			c-3.2-0.7-6.8-0.2-9.5,1.8c-2.9,2.1-4.7,5.7-5.8,9c-1.4,4.5-1.8,9.6-1,14.2c0.6,3.2,2.1,6.2,5.2,7.5c3.6,1.4,8.4,0.8,11.1-2.2
			c1.7-1.9,2.3-4.2,3.1-6.5c6,0,12,0,18,0c-1.5,8.3-5.5,15.8-12.8,20.3c-6.1,3.8-13.9,4.8-21,4.3c-5.7-0.4-11.2-2.5-15.2-6.6
			c-4.4-4.5-6.5-10.4-7.1-16.6c-0.7-7.8,0.3-16.2,3.8-23.3c3.1-6.2,8.1-11.7,14.5-14.7C267.6,101,274.9,100.6,281.6,101.6z
			 M408.2,102.6c5.5,0,11.1,0,16.6,0c-1.5,7.5-3,15-4.6,22.5c2.6-3.3,6-5.8,10.1-6.5c4-0.7,8.6-0.2,12.1,1.9
			c2.5,1.5,4.1,3.9,4.7,6.7c0.8,3.7-0.1,7.9-0.8,11.6c-1.8,8.4-3.5,16.8-5.3,25.3c-5.5,0-11.1,0-16.6,0c1.7-8.4,3.6-16.9,5.2-25.3
			c0.3-2,0.8-4.4-0.9-5.9c-1.8-1.3-4.6-1.2-6.5-0.3c-3.1,1.6-4.2,4.9-4.9,8.1c-1.6,7.8-3.2,15.6-4.8,23.3c-5.5,0-11.1,0-16.6,0
			C400,143.5,404.1,123,408.2,102.6z M351.1,133.2c0.4-3.3,0.4-6.5-1.7-9.3c-2.6-3.3-7.2-4.6-11.1-5.2c-4.9-0.7-9.9-0.8-14.8,0
			c-4.3,0.7-8.3,2.2-11.3,5.6c-2.2,2.5-3.2,5.4-4.1,8.5c5.2,0,10.3,0,15.5,0c1.1-2,2-3.7,4.5-4.2c2.4-0.6,6.8-0.5,7.4,2.6
			c0.6,3.2-1.7,5-4.6,5.4c-7.2,0.9-15.7,0.5-22.3,4.4c-5.5,3.2-7,10.1-5.6,16c1.2,4.2,4.9,6.8,9.1,7.7c6.5,1.1,13.4,0.3,17.9-4.9
			c0.2,1.4,0.4,2.8,0.6,4.3c5.4,0,10.8,0,16.3,0c-0.4-2.1-0.7-4.2-0.2-6.3C348,149.5,349.9,141.4,351.1,133.2z M329.6,152.6
			c-2.2,2.5-6.3,3-9.1,1.5c-2.9-1.9-1.6-6.9,1.7-7.6c3.6-0.8,7.3-1,10.8-2.2C332.3,147.3,331.7,150.2,329.6,152.6z M379.4,135.2
			c0.5-2.6,1-5.2,1.5-7.8c2.2,1.3,2.7,2.3,3.2,4.8c4.2,0,8.3,0,12.5,0c-0.3-3.4-0.7-6.6-2.9-9.4c-2.8-3.6-6.6-4.7-10.9-5.5
			c0.3-1.8,0.7-3.5,1-5.3c-1,0-2.1,0-3.1,0c-0.3,1.7-0.7,3.4-1,5.1c-5.5,0-10.8,1.2-15,5c-4.8,4-5.8,11.6-3,16.9
			c2.3,4.2,8.1,5.5,12.2,6.9c-0.5,2.9-1.1,5.8-1.7,8.7c-0.9-0.6-1.8-1.1-2.6-1.9c-0.7-1.1-1-2.6-1.3-3.9c-4.5,0-9.1,0-13.6,0
			c0.3,3.9,0.9,7.5,3.6,10.5c3.1,3.6,7.3,4.9,11.9,5.5c-0.4,2.1-0.8,4.2-1.2,6.3c1,0,2.1,0,3.1,0c0.4-2,0.8-4.1,1.2-6.1
			c5.4-0.2,10.6-1,15.1-4.2c5.7-3.8,7.3-12.6,3.9-18.5C389.6,137.7,384.4,136.7,379.4,135.2z M373.6,132.2c-0.5-1.2-0.1-3,0.9-3.9
			c1-0.6,2.2-0.9,3.2-1.2c-0.4,2.5-0.8,5-1.4,7.4C375.5,133.8,374.2,133.2,373.6,132.2z M381.3,152.1c-0.7,2.7-3.5,2.5-5.7,3
			c0.5-2.8,1-5.5,1.5-8.2C379.3,148.1,382,149,381.3,152.1z"/>
	</g>
</g>
</svg>
