<?xml version="1.0" encoding="utf-8"?>
<!-- Generator: Adobe Illustrator 23.0.1, SVG Export Plug-In . SVG Version: 6.00 Build 0)  -->
<svg version="1.1" id="Layer_1" xmlns="http://www.w3.org/2000/svg" xmlns:xlink="http://www.w3.org/1999/xlink" x="0px" y="0px"
	 viewBox="0 0 500 250" style="enable-background:new 0 0 500 250;" xml:space="preserve">
<style type="text/css">
	.st0{fill:none;}
	.st1{fill:#345D9D;}
</style>
<rect y="1.2" class="st0" width="500" height="250"/>
<g>
	<path class="st1" d="M86.1,61.9c-35.5,0-64.3,28.8-64.3,64.3s28.8,64.3,64.3,64.3s64.3-28.8,64.3-64.3
		C150.3,90.7,121.6,61.9,86.1,61.9 M87.1,128.3l-6.6,22.6h35.7c1.3,0,2.1,1.2,1.8,2.4l-3.1,10.7c-0.3,1-1.3,1.8-2.4,1.8H57.9
		l9.2-31.2l-10.2,3.2l2.2-7.4l10.3-3.2l13-43.8c0.3-1,1.3-1.8,2.4-1.8h13.8c1.3,0,2.1,1.2,1.8,2.4l-11,37.1l10.2-3.2l-2.2,7.5
		L87.1,128.3z"/>
	<path class="st1" d="M187.5,81.4h-4c-0.7,0-1.3,0.4-1.4,1.2l-10.3,81.9c-0.1,0.8,0.1,1.2,1,1.2h4c0.8,0,1.3-0.4,1.4-1.2l10.4-81.9
		C188.8,81.8,188.4,81.4,187.5,81.4"/>
	<path class="st1" d="M208.4,105h-4c-0.7,0-1.3,0.4-1.4,1.2l-7.4,58.3c-0.1,0.8,0.4,1.2,1.1,1.2h4c0.7,0,1.3-0.4,1.4-1.2l7.3-58.2
		C209.5,105.4,209.2,105,208.4,105"/>
	<path class="st1" d="M383.1,104c-5.5,0-10.3,1.6-14.4,4.7c-4.1,3.2-6.7,7.3-8,12.5c-1.1,4.2-2.1,10.1-2.5,14.1
		c-0.6,5.4-1.1,9.8-1.1,14.1c0.1,5.2,1.8,9.4,4.9,12.5c3.2,3.1,7.7,4.7,13.3,4.7c5.5,0,10.3-1.6,14.3-4.7c4.1-3.1,6.7-7.3,8-12.5
		c0.9-3.5,1.8-8.1,2.5-14.1c0.7-6.2,1.1-10.9,1.1-14.2c0-5.2-1.6-9.3-4.9-12.4C393,105.6,388.6,104,383.1,104 M394.3,129.7
		c-0.4,3-0.6,4.9-0.7,5.7c-0.7,6.1-1.4,10.3-2,12.9c-0.9,3.8-2.8,6.9-5.7,9.3c-2.9,2.4-6.3,3.5-10,3.5c-3.8,0-6.9-1.2-9.2-3.5
		c-2.3-2.3-3.4-5.3-3.4-9.1c0-2,0.2-4.5,0.6-7.5c0.4-3,0.6-4.9,0.7-5.7c0.7-5.8,1.4-10,2-12.9c0.9-3.8,2.8-6.9,5.7-9.3
		c2.9-2.4,6.3-3.5,10-3.5c3.8,0,6.9,1.2,9.2,3.4c2.3,2.3,3.4,5.3,3.4,9.1C394.9,124.3,394.7,126.7,394.3,129.7"/>
	<path class="st1" d="M424,105H420c-0.7,0-1.3,0.4-1.4,1.2l-7.5,58.3c-0.1,0.8,0.4,1.2,1.1,1.2h4c0.7,0,1.3-0.4,1.4-1.2l7.3-58.2
		C425.1,105.4,424.8,105,424,105"/>
	<path class="st1" d="M474.3,108.5c-2.7-2.9-6.6-4.3-11.6-4.3c-3.2,0-6.2,0.6-8.9,1.8c-2.7,1.3-5,3.1-6.9,5.6
		c-0.4,0.3-0.5,0.2-0.5-0.2l0.6-5.2c0.1-0.7-0.2-1.2-1-1.2h-4c-0.7,0-1.3,0.4-1.4,1.2l-7.3,58.2c-0.1,0.7,0.1,1.2,1,1.2h4
		c0.7,0,1.3-0.4,1.3-1.2l5.3-41.8c0.9-3.9,2.7-7.1,5.5-9.4c2.7-2.3,6-3.5,9.8-3.5c3.5,0,6.3,1.1,8.4,3.3c2.1,2.2,3.1,5.2,3.1,8.9
		c0,1.1-0.1,2-0.1,2.7l-5.1,39.7c0,0.4,0,0.6,0.1,0.8c0.2,0.2,0.5,0.4,1,0.4h4c0.7,0,1.3-0.4,1.3-1.2l5.1-40.7
		c0.1-1.6,0.2-2.8,0.2-3.6C478.4,115.2,477,111.3,474.3,108.5"/>
	<path class="st1" d="M211,81.5c-2.4-1.3-5.4-0.4-6.6,2.1c-1.3,2.4-0.3,5.4,2.1,6.6c2.4,1.3,5.3,0.3,6.6-2.1
		C214.3,85.7,213.5,82.7,211,81.5"/>
	<path class="st1" d="M426.8,81.5c-2.4-1.3-5.4-0.4-6.6,2.1c-1.3,2.4-0.3,5.4,2.1,6.6c2.4,1.3,5.4,0.3,6.6-2.1
		C430.2,85.7,429.2,82.7,426.8,81.5"/>
	<path class="st1" d="M331.1,104c-5.5,0-10.3,1.6-14.4,4.7c-4.1,3.2-6.7,7.3-8,12.5c-1.1,4.2-2.1,10.9-2.5,14.1
		c-0.5,4.7-1.1,9.8-1.1,14.1c0.1,5.2,1.8,9.4,4.9,12.5c3.2,3.1,7.7,4.7,13.3,4.7c5.5,0,10.3-1.6,14.3-4.7c4.1-3.1,6.7-7.3,8-12.5
		c0.1-0.4,0.2-0.9,0.3-1.3c0.1-0.4-0.2-0.7-0.5-0.7h-4.9c-0.3,0-0.7,0.1-0.7,0.6c0,0.1-0.1,0.2-0.1,0.2c-0.9,3.8-2.8,6.9-5.7,9.3
		c-2.9,2.4-6.3,3.5-10,3.5c-3.8,0-6.9-1.2-9.2-3.5c-2.3-2.3-3.4-5.3-3.4-9.1c0-2,0.2-4.5,0.6-7.5c0.3-2.5,0.6-4.9,0.7-5.7
		c0.7-5.8,1.4-10,2-12.9c0.9-3.8,2.8-6.9,5.7-9.3c2.9-2.4,6.3-3.5,10-3.5s6.9,1.1,9.2,3.4c2.3,2.3,3.4,5.3,3.4,9.1v0.1
		c0,0.5,0.4,1,1,1h4.7c0.4,0,0.7-0.3,0.7-0.7c0-0.5,0-1,0-1.4c0-5.2-1.6-9.3-4.9-12.4C341.1,105.6,336.7,104,331.1,104"/>
	<path class="st1" d="M291,108.8c-3.2-3.1-7.7-4.7-13.2-4.7c-5.5,0-10.3,1.6-14.4,4.7s-6.7,7.3-8,12.5c-1.1,4.2-1.6,8-2.5,14.1
		c-0.8,6.1-1.1,9.8-1.1,14.1c0.1,5.2,1.8,9.4,4.9,12.5c3.2,3.1,7.7,4.7,13.3,4.7c5.5,0,10.3-1.6,14.3-4.7c4.1-3.1,6.7-7.3,8-12.5
		c0.1-0.4,0.2-0.9,0.3-1.3c0.1-0.4-0.1-0.7-0.5-0.7h-4.9c-0.3,0-0.7,0.1-0.7,0.6c0,0.1-0.1,0.2-0.1,0.2c-0.9,3.8-2.8,6.9-5.7,9.3
		c-2.9,2.4-6.3,3.5-10,3.5c-3.8,0-6.9-1.2-9.2-3.5c-2.3-2.3-3.4-5.3-3.4-9.1c0-1.8,0.1-4,0.4-6.5l35.9-11.1c0.7-0.2,1-0.6,1.2-1.5
		c0.2-1.8,0.4-5,0.4-8.3C295.9,116.4,294.3,111.9,291,108.8 M289.6,125.5c0,0.4-0.2,0.7-0.6,0.7l-29.7,9.2c0-0.1,0-0.1,0-0.1
		c0.7-5.8,1.4-10,2-12.9c0.9-3.8,2.8-6.9,5.7-9.3c2.9-2.4,6.3-3.5,10-3.5c3.8,0,6.9,1.2,9.2,3.4
		C289.8,116.8,289.8,120.7,289.6,125.5"/>
	<path class="st1" d="M238.1,159.3c0.7-0.4,1.6,0.1,1.4,1l-0.5,4c-0.1,0.5-0.4,1-0.9,1.2c-3.5,1.3-8.5,1.9-12.5,0.1
		c-4.6-2.1-5.8-6.6-5.1-12.2l5.2-42.7l0.7-6.1l1.8-13.6c0.1-0.8,0.6-1.2,1.4-1.2h3.8c0.9,0,1.1,0.5,1,1.2l-2.3,19.3h12.5
		c0.7,0,1,0.4,1,1.2l-0.4,2.8c-0.1,0.4-0.1,0.7-0.4,1c-0.2,0.2-0.7,0.3-1,0.3h-12.4l-4.4,35.1c-0.4,3.8-1,7.2,1,9
		C230.7,161.6,235.6,160.4,238.1,159.3"/>
</g>
</svg>
