<?xml version="1.0" encoding="utf-8"?>
<!-- Generator: Adobe Illustrator 23.0.1, SVG Export Plug-In . SVG Version: 6.00 Build 0)  -->
<svg version="1.1" id="Layer_1" xmlns="http://www.w3.org/2000/svg" xmlns:xlink="http://www.w3.org/1999/xlink" x="0px" y="0px"
	 viewBox="0 0 500 250" style="enable-background:new 0 0 500 250;" xml:space="preserve">
<style type="text/css">
	.st0{fill:none;}
	.st1{fill:#F69220;}
	.st2{fill:#606060;}
</style>
<rect x="0" y="0" class="st0" width="500" height="250"/>
<g>
	<path class="st1" d="M43.3,157c-2.2,0-4.4-1.2-5.6-3.1l-27.1-46.7c-1.7-3.1-0.7-7,2.4-8.9c3.1-1.7,7-0.7,8.9,2.4L49.1,147
		c1.7,3.1,0.7,7-2.4,8.9C45.5,156.7,44.5,157,43.3,157z"/>
	<path class="st2" d="M111.4,131.6c0-3.4-1.2-6.5-3.1-9.9c-2.9-5.3-6.3-8.7-10.9-10.9c-3.9-1.9-8.2-2.9-12.6-2.4
		c1.5-3.1,2.4-6.3,2.7-9.7c0.5-4.8-1.2-9.2-4.1-14.5c-1.9-3.4-4.4-5.8-7-7.7c-2.9-1.7-5.8-2.9-9.2-3.1c-3.4-0.2-6.8,0-10.4,0.7
		c-1.2,0.2-2.4,0.7-3.6,1c-0.5,0.2-1,0.5-1.5,0.7c-2.2,0.7-7.7,3.9-9.7,5.1l-9.4,5.6h-0.2c-3.4,2.2-4.6,6.5-2.7,10.2
		c1.5,2.4,3.9,3.6,6.3,3.6c1.2,0,2.4-0.2,3.6-1h0.2l15.2-8.7c1.5-0.7,2.9-1.2,4.4-1.5c1.5-0.2,2.9,0,4.4,0.2
		c1.5,0.5,2.7,1.2,4.1,2.2c1.2,1,2.2,2.2,3.1,3.6c0.7,1.5,1.5,2.9,1.7,4.6c0.2,1.7,0.2,3.1,0,4.6c-0.2,1.5-0.7,2.7-1.7,3.9
		c-0.7,1.2-1.9,2.2-3.1,2.9l-9.2,5.6l-3.9,2.2l-2.4,1.5c-3.4,1.9-4.4,6-2.4,9.4c1.2,2.2,3.6,3.4,6,3.4c1.2,0,2.4-0.2,3.4-1l5.1-2.9
		l13.1-7c1.5-0.7,2.7-1.2,4.1-1.2c1.5,0,2.9,0.2,4.1,0.7c1.5,0.5,2.7,1.2,3.9,2.2c1.2,1,2.2,2.2,3.1,3.6c0.7,1.5,1.2,2.9,1.5,4.4
		c0.2,1.5,0.2,3.1-0.2,4.6c-0.2,1.5-1,2.7-1.9,4.1c-1,1.2-2.2,2.2-3.6,3.1L66,156.5h-1.2l-4.1,2.4l-8,4.4c-3.4,1.9-4.8,6.3-2.9,9.7
		c1.2,2.4,3.6,3.9,6.3,3.9c1.2,0,2.4-0.2,3.4-1l19.3-10.4l15.7-8.5c3.4-1.9,6.5-4.4,9.2-7c2.7-2.7,4.6-5.6,5.8-8.5
		C111,138.1,111.7,135,111.4,131.6z"/>
	<g>
		<path class="st2" d="M311.6,144.1c-1.5,0-3.1,0-4.4-1.2c-1.2-1.2-1.2-2.9-1.2-4.4v-36.3c0-1.5,0-3.1,1.2-4.4
			c1.2-1.2,2.9-1.2,4.4-1.2h13.5c9.4,0,14.7,5.3,14.7,13.3c0,5.3-3.4,8.7-6,9.9c2.9,1.5,6.5,4.4,6.5,10.6c0,8.9-6,13.8-14.5,13.8
			h-14.3V144.1z M315.5,105v10.9h9.2c3.9,0,6-2.2,6-5.6s-2.2-5.6-6-5.6h-9.2V105z M325.1,135.9c4.1,0,6.3-2.7,6.3-5.8
			c0-3.1-1.9-5.8-6.3-5.8h-9.7v11.6H325.1z"/>
		<path class="st2" d="M355.1,129.4c0,4.6,2.7,7.7,7.7,7.7c2.2,0,4.4-0.5,6-1.9c1.5-1,2.2-1.2,3.1-1.2c1.7,0,3.4,1.7,3.4,3.6
			c0,1.7-1.5,3.1-3.4,4.4c-2.4,1.7-5.6,2.4-9.4,2.4c-8.2,0-16.2-3.6-16.2-17.9c0-11.4,6-17.9,15.2-17.9c9.4,0,14.7,6.8,15.2,15.5
			c0,1.5-0.2,2.9-1.2,3.9c-1.2,1.2-2.4,1.2-3.9,1.2h-16.7V129.4z M367.7,119.7c-1-2.2-2.9-3.6-5.8-3.6c-2.9,0-4.8,1.5-5.8,3.6
			c-0.5,1.2-0.7,2.2-0.7,3.9h13.3C368.4,121.9,368.2,120.9,367.7,119.7z"/>
		<path class="st2" d="M385.3,117.1h-1c-1.7,0-2.2,0-2.9-0.5c-1-0.5-1.7-1.5-1.7-2.9c0-1.2,0.5-2.4,1.7-2.9c0.7-0.5,1.2-0.5,2.9-0.5
			h1v-4.6c0-2.2,0-2.9,0.5-3.9c0.7-1.2,1.9-2.2,3.9-2.2c1.7,0,3.1,0.7,3.9,2.2c0.5,1,0.5,1.7,0.5,3.9v4.6h2.7c1.7,0,2.2,0,2.9,0.5
			c1,0.5,1.7,1.5,1.7,2.9c0,1.2-0.5,2.4-1.7,2.9c-0.7,0.5-1.2,0.5-2.9,0.5H394v16.7c0,1.7,0.5,2.9,2.9,3.1c1.2,0,1.9,0.2,2.7,0.5
			c1,0.5,1.7,1.5,1.7,3.1c0,1.5-0.7,2.7-1.7,3.1c-0.7,0.5-1.9,0.5-3.6,0.5h-0.5c-7.3,0-10.2-4.8-10.2-9.9L385.3,117.1L385.3,117.1z"
			/>
		<path class="st2" d="M408.8,117.1h-1c-1.7,0-2.2,0-2.9-0.5c-1-0.5-1.7-1.5-1.7-2.9c0-1.2,0.5-2.4,1.7-2.9c0.7-0.5,1.2-0.5,2.9-0.5
			h1v-4.6c0-2.2,0-2.9,0.5-3.9c0.7-1.2,1.9-2.2,3.9-2.2c1.7,0,3.1,0.7,3.9,2.2c0.5,1,0.5,1.7,0.5,3.9v4.6h2.7c1.7,0,2.2,0,2.9,0.5
			c1,0.5,1.7,1.5,1.7,2.9c0,1.2-0.5,2.4-1.7,2.9c-0.7,0.5-1.2,0.5-2.9,0.5h-2.7v16.7c0,1.7,0.5,2.9,2.9,3.1c1.2,0,1.9,0.2,2.7,0.5
			c1,0.5,1.7,1.5,1.7,3.1c0,1.5-0.7,2.7-1.7,3.1c-0.7,0.5-1.9,0.5-3.6,0.5h-0.5c-7.3,0-10.2-4.8-10.2-9.9L408.8,117.1L408.8,117.1z"
			/>
		<path class="st2" d="M436.8,129.4c0,4.6,2.7,7.7,7.7,7.7c2.2,0,4.4-0.5,6-1.9c1.5-1,2.2-1.2,3.1-1.2c1.7,0,3.4,1.7,3.4,3.6
			c0,1.7-1.5,3.1-3.4,4.4c-2.4,1.7-5.6,2.4-9.4,2.4c-8.2,0-16.2-3.6-16.2-17.9c0-11.4,6-17.9,15.2-17.9c9.4,0,14.7,6.8,15.2,15.5
			c0,1.5-0.2,2.9-1.2,3.9c-1.2,1.2-2.4,1.2-3.9,1.2h-16.7V129.4z M449.4,119.7c-1-2.2-2.9-3.6-5.8-3.6c-2.9,0-4.8,1.5-5.8,3.6
			c-0.5,1.2-0.7,2.2-0.7,3.9h13.3C449.9,121.9,449.9,120.9,449.4,119.7z"/>
		<path class="st2" d="M482,108.8c2.7,0,4.4,0.5,6,1.7c1.2,1,2.2,2.2,2.2,3.6c0,1.2-0.5,2.4-1.2,3.1c-0.7,0.7-1.9,1.2-2.9,1.2
			c-1,0-1.7-0.2-2.9-1c-1-0.5-2.2-1-3.4-1c-2.9,0-5.8,1.9-5.8,6.3v15.5c0,2.2,0,2.9-0.5,3.9c-0.7,1.2-1.9,2.2-3.9,2.2
			s-3.1-0.7-3.9-2.2c-0.5-1-0.5-1.7-0.5-3.9v-23.4c0-2.2,0-2.9,0.7-3.9c0.7-1.2,2.2-1.9,3.6-1.9c1.2,0,2.2,0.5,2.7,1
			c0.7,0.7,1.2,1.5,1.2,2.7C475.5,110.8,478.6,108.8,482,108.8z"/>
	</g>
	<g>
		<g>
			<path class="st1" d="M162.2,131.6l-7.7-15.2v21.3c0,2.2,0,2.9-0.7,4.1s-2.2,2.2-4.1,2.2c-1.9,0-3.4-1-4.1-2.2
				c-0.5-1.2-0.7-1.9-0.7-4.1v-35.5c0-1.9,0.2-3.4,1.5-4.4c0.7-0.7,1.9-1.2,3.1-1.2c1.2,0,1.9,0.2,2.7,0.7c1,0.5,1.7,1.7,2.4,2.9
				l11.8,22.5l11.8-22.5c0.5-1.2,1.5-2.2,2.4-2.9c0.7-0.5,1.7-0.7,2.7-0.7c1.2,0,2.2,0.5,3.1,1.2c1.2,1.2,1.5,2.4,1.5,4.4v35.8
				c0,2.2,0,2.9-0.7,4.1c-0.7,1.2-2.2,2.2-4.1,2.2c-1.9,0-3.4-1-4.1-2.2c-0.5-1.2-0.7-1.9-0.7-4.1v-21.3l-7,15
				c-1.2,2.2-2.2,3.1-4.4,3.1C164.6,134.7,163.4,134,162.2,131.6z"/>
			<path class="st1" d="M183.5,144.4c-1.9,0-3.6-1-4.4-2.4c-0.7-1.2-0.7-1.9-0.7-4.1V118l-7,13.8c-1.2,2.2-2.2,3.4-4.8,3.4
				c-2.4,0-3.6-1.2-4.8-3.4l-7-13.8v19.8c0,2.2,0,2.9-0.7,4.1c-0.7,1.5-2.4,2.4-4.4,2.4c-1.9,0-3.6-1-4.4-2.4
				c-0.7-1.2-0.7-2.2-0.7-4.1v-35.8c0-1.9,0.2-3.4,1.5-4.8c1-1,1.9-1.5,3.4-1.5c1.2,0,2.2,0.2,2.9,0.7c1.2,0.7,1.9,2.2,2.4,2.9
				l11.4,21.8l11.4-21.8c0.5-0.7,1.2-2.2,2.4-2.9c0.7-0.5,1.7-0.7,2.9-0.7c1.5,0,2.4,0.5,3.4,1.5c1.2,1.2,1.5,2.7,1.5,4.8v35.8
				c0,2.2,0,2.9-0.7,4.1C187.1,143.4,185.4,144.4,183.5,144.4z M179.1,114.9v23c0,2.2,0,2.9,0.5,3.9c0.7,1.2,2.2,1.9,3.6,1.9
				c1.7,0,2.9-0.7,3.6-1.9c0.5-1,0.5-1.7,0.5-3.9v-35.8c0-1.9-0.2-3.1-1.2-4.1c-0.7-0.7-1.7-1.2-2.9-1.2c-1,0-1.7,0.2-2.7,0.7
				c-0.7,0.5-1.5,1.5-2.2,2.7l-12.1,23l-12.1-23c-0.7-1.2-1.5-2.2-2.2-2.7c-0.7-0.5-1.5-0.7-2.7-0.7c-1.2,0-2.2,0.5-2.9,1.2
				c-1,1-1.2,2.4-1.2,4.1v35.8c0,2.2,0,2.9,0.5,3.9c0.7,1.2,2.2,1.9,3.6,1.9c1.7,0,2.9-0.7,3.6-1.9c1.2-1,1.2-1.7,1.2-3.9v-23
				l8.5,16.4c1.2,2.4,2.2,3.1,4.1,3.1c1.9,0,2.9-0.7,4.1-3.1L179.1,114.9z"/>
		</g>
		<g>
			<path class="st1" d="M208.6,144.1c-3.4,0-6.3-1.2-8.2-3.1c-2.9-2.9-3.6-6-3.6-9.9v-16.4c0-2.2,0-2.9,0.5-3.9
				c0.7-1.2,1.9-1.9,3.6-1.9s3.1,0.7,3.6,1.9c0.5,1,0.5,1.7,0.5,3.9v15.2c0,4.6,2.9,6.3,5.8,6.3c2.7,0,5.8-1.5,5.8-6.3v-15.2
				c0-2.2,0-2.9,0.5-3.9c0.7-1.2,1.9-1.9,3.6-1.9s3.1,0.7,3.6,1.9c0.5,1,0.5,1.7,0.5,3.9v23.2c0,2.2,0,2.9-0.7,3.9
				c-0.7,1.2-2.2,1.9-3.6,1.9c-1.2,0-2.2-0.5-2.7-1c-0.7-0.7-1-1.5-1.2-2.4C215.1,142.9,211.8,144.1,208.6,144.1z"/>
			<path class="st1" d="M208.6,144.6c-3.4,0-6.3-1.2-8.5-3.1c-2.4-2.4-3.6-5.6-3.6-10.2v-16.4c0-2.2,0-2.9,0.5-4.1
				c0.7-1.5,2.2-2.2,4.1-2.2c1.9,0,3.4,0.7,4.1,2.2c0.5,1,0.5,1.9,0.5,4.1v15.2c0,5.3,4.1,5.8,5.3,5.8c1.2,0,5.3-0.5,5.3-5.8v-15.2
				c0-2.2,0-2.9,0.5-4.1c0.7-1.5,2.2-2.2,4.1-2.2c1.9,0,3.4,0.7,4.1,2.2c0.5,1,0.5,1.9,0.5,4.1v23.2c0,2.2,0,2.9-0.7,4.1
				c-0.7,1.2-2.2,2.2-4.1,2.2c-1.2,0-2.2-0.5-2.9-1.2c-0.7-0.5-1-1.2-1.2-1.9C214.9,143.4,211.8,144.6,208.6,144.6z M201.4,109.3
				c-1.7,0-2.9,0.7-3.4,1.9c-0.5,0.7-0.5,1.7-0.5,3.6v16.4c0,4.4,1,7.3,3.4,9.4c1.9,1.9,4.6,2.9,8,2.9c3.1,0,6.3-1.2,8.5-3.6
				l0.5-0.5l0.2,0.7c0.2,1.2,0.5,1.7,1.2,2.4c0.7,0.5,1.5,1,2.4,1c1.5,0,2.9-0.7,3.4-1.7s0.5-1.5,0.5-3.6v-23.2c0-2.2,0-2.9-0.5-3.6
				c-0.5-1.2-1.9-1.9-3.4-1.9c-1.5,0-2.9,0.7-3.4,1.9c-0.5,0.7-0.5,1.7-0.5,3.6v15.2c0,4.8-3.1,6.5-6,6.5c-2.9,0-6-1.7-6-6.5v-15.2
				c0-2.2,0-2.9-0.5-3.6C204,110.1,202.8,109.3,201.4,109.3z"/>
		</g>
		<g>
			<path class="st1" d="M254.8,110.5c1.9,1,4.1,2.7,4.1,4.8c0,1.2-0.5,1.9-1.2,2.9c-0.5,0.7-1.7,1.2-2.7,1.2c-1,0-1.7-0.2-2.9-1.2
				c-1.5-1-2.4-1.5-4.1-1.5c-1.9,0-3.6,0.7-4.8,2.2c-1.2,1.7-1.9,3.9-1.9,7.5s0.5,6,1.9,7.7c1.2,1.5,2.9,2.2,4.8,2.2
				c1.7,0,2.7-0.5,4.1-1.5c1.2-1,1.9-1.2,2.9-1.2c1,0,1.9,0.5,2.7,1.2c0.7,0.7,1.2,1.7,1.2,2.9c0,2.2-2.2,3.9-4.1,4.8
				c-1.9,1.2-4.1,1.7-6.8,1.7c-6.8,0-15.5-3.6-15.5-17.6s8.5-17.6,15.5-17.6C250.7,108.8,252.6,109.3,254.8,110.5z"/>
			<path class="st1" d="M247.8,144.6c-2.9,0-7-0.7-10.6-3.6c-3.4-3.1-5.3-8-5.3-14.3c0-6.5,1.7-11.1,5.3-14.3
				c3.4-3.1,7.7-3.6,10.6-3.6c2.7,0,4.8,0.5,7,1.7c1.9,1,4.4,2.7,4.4,5.1c0,1.2-0.5,2.2-1.2,3.1c-0.7,0.7-1.9,1.2-2.9,1.2
				c-1,0-1.9-0.2-3.1-1.2c-1.5-1-2.4-1.5-3.9-1.5c-1.9,0-3.4,0.7-4.6,2.2c-1.2,1.7-1.9,3.9-1.9,7.3c0,3.6,0.5,5.8,1.9,7.5
				c1.2,1.5,2.7,2.2,4.6,2.2c1.5,0,2.7-0.5,3.9-1.5c1.2-0.7,1.9-1.5,3.1-1.5c1,0,2.2,0.5,2.9,1.2c1,1,1.2,1.9,1.2,3.1
				c0,1.9-1.5,3.6-4.4,5.3C252.6,144.1,250.7,144.6,247.8,144.6z M248,109.3c-4.6,0-15,1.7-15,17.2c0,15.7,10.4,17.4,15,17.4
				c2.7,0,4.6-0.5,6.5-1.7c2.7-1.5,3.9-2.9,3.9-4.6c0-1-0.5-1.7-1.2-2.7c-0.5-0.5-1.5-1-2.4-1s-1.7,0.2-2.7,1.2
				c-1.5,1.2-2.7,1.5-4.4,1.5c-2.2,0-3.9-0.7-5.1-2.4c-1.5-1.7-1.9-4.1-1.9-7.7s0.7-6,1.9-7.7c1.2-1.5,2.9-2.4,5.1-2.4
				c1.9,0,2.9,0.5,4.4,1.5c1.2,0.7,1.9,1.2,2.7,1.2c1,0,1.7-0.5,2.4-1c0.7-0.7,1.2-1.7,1.2-2.7c0-2.2-2.4-3.9-3.9-4.6l0,0
				C252.6,109.8,250.7,109.3,248,109.3z"/>
		</g>
		<g>
			<path class="st1" d="M293,142c-0.7,1.2-1.9,1.9-3.6,1.9s-3.1-0.7-3.6-1.9c-0.5-1-0.5-1.7-0.5-3.9v-15.2c0-4.6-2.9-6.3-5.8-6.3
				s-5.8,1.5-5.8,6.3v15.2c0,2.2,0,2.9-0.5,3.9c-0.7,1.2-1.9,1.9-3.6,1.9s-3.1-0.7-3.6-1.9c-0.5-1-0.5-1.7-0.5-3.9v-35.8
				c0-2.2,0-2.9,0.5-3.9c0.7-1.2,1.9-1.9,3.6-1.9s3.1,0.7,3.6,1.9c0.5,1,0.5,1.7,0.5,3.9v10.2c2.2-2.2,4.6-3.6,8.5-3.6
				c3.4,0,6.3,1.2,8.2,3.1c2.9,2.9,3.6,6,3.6,9.9v16.4C293.7,140.3,293.5,141,293,142z"/>
			<path class="st1" d="M289.4,144.4c-1.9,0-3.4-0.7-4.1-2.2c-0.5-1-0.5-1.9-0.5-4.1v-15.2c0-5.3-4.1-5.8-5.3-5.8
				c-1.2,0-5.3,0.5-5.3,5.8v15.2c0,2.2,0,2.9-0.5,4.1c-0.7,1.5-2.2,2.2-4.1,2.2s-3.4-0.7-4.1-2.2c-0.5-1-0.5-1.9-0.5-4.1v-35.8
				c0-2.2,0-2.9,0.5-4.1c0.7-1.5,2.2-2.2,4.1-2.2s3.4,0.7,4.1,2.2c0.5,1,0.5,1.9,0.5,4.1v9.4c2.4-2.2,4.8-3.1,8-3.1
				c3.4,0,6.3,1.2,8.5,3.1c2.4,2.4,3.6,5.6,3.6,10.2v16.4c0,2.2,0,2.9-0.5,4.1C292.7,143.7,291.3,144.4,289.4,144.4z M279.4,116.3
				c2.9,0,6,1.7,6,6.5v15.2c0,2.2,0,2.9,0.5,3.6c0.5,1.2,1.9,1.9,3.4,1.9c1.5,0,2.9-0.7,3.4-1.9l0,0c0.5-0.7,0.5-1.7,0.5-3.6v-16.4
				c0-4.4-1-7.3-3.4-9.4c-1.9-1.9-4.6-2.9-8-2.9c-3.4,0-5.8,1-8.2,3.4l-0.7,0.7v-11.1c0-2.2,0-2.9-0.5-3.6c-0.5-1.2-1.9-1.9-3.4-1.9
				c-1.7,0-2.9,0.7-3.4,1.9c-0.5,0.7-0.5,1.7-0.5,3.6v36c0,2.2,0,2.9,0.5,3.6c0.5,1.2,1.9,1.9,3.4,1.9c1.5,0,2.9-0.7,3.4-1.9
				c0.5-0.7,0.5-1.7,0.5-3.6v-15.2C273.2,118,276.3,116.3,279.4,116.3z"/>
		</g>
	</g>
</g>
</svg>
