<?xml version="1.0" encoding="utf-8"?>
<!-- Generator: Adobe Illustrator 23.0.1, SVG Export Plug-In . SVG Version: 6.00 Build 0)  -->
<svg version="1.1" id="Layer_1" xmlns="http://www.w3.org/2000/svg" xmlns:xlink="http://www.w3.org/1999/xlink" x="0px" y="0px"
	 viewBox="0 0 500 250" style="enable-background:new 0 0 500 250;" xml:space="preserve">
<style type="text/css">
	.st0{fill:none;}
	.st1{fill:#009DD4;}
	.st2{fill:#FFFFFF;}
	.st3{fill:#035EAA;}
</style>
<rect y="0.9" class="st0" width="500" height="250"/>
<g>
	<path class="st1" d="M299.6,78.5l0.6,0.1c14,14.2,28.3,28,42.1,42.3c-2.8,0.3-5.7,0.4-8.5,0.3c-7.8-8.1-16.1-15.7-24-23.7
		c-1.7,1.5-3.4,3.2-5,4.9c6.6,6.8,13.4,13.3,19.9,20c-2.9-0.4-5.8,0.1-8.4,1.5c-8.7-8.6-17.2-17.3-25.8-25.8
		c-4.6,4.5-9.1,9.1-13.7,13.6c2.8,3.5,6.4,6.4,9.5,9.8c-4-0.6-8.1-0.2-12.1,0.7c-5.8,0.2-11.7,0.5-17.3-1.2
		C270.9,106.5,285.4,92.7,299.6,78.5z"/>
	<path class="st2" d="M304.8,102.3c1.6-1.7,3.2-3.4,5-4.9c7.9,8,16.1,15.6,24,23.7c1.6,1.5,3.1,3.1,4.7,4.6
		c-9.5,9.6-19.1,19.1-28.6,28.7c-1.8-1.5-3.4-3.3-5.1-5c7.6-8,15.9-15.5,23.6-23.5c-1.2-1.2-2.4-2.3-3.5-3.5
		C318.2,115.6,311.4,109.1,304.8,102.3z"/>
	<path class="st2" d="M276.8,111.6c4.6-4.5,9.1-9.1,13.7-13.6c8.6,8.6,17.2,17.3,25.8,25.8c0.6,0.6,1.8,1.8,2.4,2.4
		c-9.5,9.3-18.6,19.1-28.4,28c-4.4-4.6-9-8.9-13.4-13.5c4.7-4.8,9.6-9.5,14.3-14.4c-1.6-1.7-3.3-3.3-4.9-5
		C283.2,118,279.6,115.2,276.8,111.6z"/>
	<path class="st3" d="M28.4,110.4c5.7-2.6,12.2-2.2,18.2-1.1c5.2,1,8.6,5.9,8.9,11c-3.9,0-7.8-0.1-11.7,0c-0.2-5.1-9.6-6.8-9.9-1.2
		c5,3.8,12.5,2.6,17.8,6.4c6.7,3.6,6.5,13.9,0.7,18.3c-6.2,4.8-14.9,4.2-22.1,2.7c-5.6-1.3-8.7-6.9-9.3-12.2
		c3.8-0.8,7.9-0.1,11.8-0.3c0.3,5.6,8.7,8.3,11.7,3.3c1.2-2.9-2.2-4.5-4.4-5.1c-5.5-1.4-12-2.2-15.8-6.9
		C20.4,120.5,22.9,112.8,28.4,110.4z"/>
	<path class="st3" d="M70.4,108.6c4-0.2,8.1-0.3,12.1,0.1c4.1,13,8.7,25.8,12.8,38.8c-4.1,0.1-8.2,0.1-12.2,0
		c-0.5-2.1-1-4.2-1.7-6.3c-3.3,0-6.6-0.1-9.9,0c-0.6,2.1-1,4.2-1.7,6.2c-4.1,0-8.2,0-12.2,0C61.8,134.6,66.3,121.7,70.4,108.6z"/>
	<path class="st3" d="M98.2,108.5c11.1,0,22.2,0,33.3,0c0,2.8,0,5.6,0,8.4c-7,0.1-14,0-21,0c0,2.2,0,4.3,0,6.5
		c6,0.3,12,0.1,17.9,0.1c0.3,2.7,0,5.4,0.1,8c-6,0.2-11.9,0-17.9,0.1c-0.3,5.3,0,10.6-0.1,15.9c-4.1,0.1-8.2,0-12.3,0
		C98.1,134.5,98.1,121.5,98.2,108.5z"/>
	<path class="st3" d="M136.9,108.5c11.1,0,22.2,0,33.3,0c0,2.8,0,5.6,0,8.4c-7,0-14,0-21,0c0,2.2-0.1,4.4,0.1,6.6
		c4.6,0,9.1,0,13.7,0c0,2.7,0,5.4,0,8.1c-4.6,0-9.2,0-13.8,0c-0.1,2.4,0,4.8,0,7.2c7,0,14,0,21,0c0.1,2.9,0,5.8,0,8.7
		c-11.1,0-22.2,0-33.3,0C136.9,134.5,136.9,121.5,136.9,108.5z"/>
	<path class="st3" d="M175,108.9l0.4-0.4c12,0,24-0.1,36,0c0,2.8,0,5.6,0,8.3c-4.1,0.3-8.4-0.4-12.4,0.3c0.1,10.1,0,20.2,0,30.3
		c-4,0-8,0-12,0c0-10.2-0.1-20.3,0-30.5c-4.1-0.4-8.3,0-12.4-0.2C174.6,114.2,175.3,111.6,175,108.9z"/>
	<path class="st3" d="M213.9,108.2c4-0.1,8,0,12,0c2.5,3.9,4.4,8.2,6.6,12.3l0.7,0c2.2-4.1,4.3-8.2,6.5-12.3c4,0,8.1-0.1,12.1,0.1
		c-4.2,7.7-8.6,15.2-12.8,22.9c-0.1,5.5,0.1,10.9-0.1,16.4c-4.1-0.1-8.2,0-12.2,0c-0.1-5.6,0.1-11.2-0.1-16.8
		C222.3,123.3,218.2,115.7,213.9,108.2z"/>
	<path class="st1" d="M356.1,108.6c8,0,16-0.2,23.9,0.1c7.1,0.7,10.8,8.4,9.1,14.8c-4.2,0.2-8.4,0.3-12.6-0.1
		c0.6-1.7,1.1-3.8-0.3-5.2c-2.1-2.3-5.4-1.5-8.1-1.6c0,0.9,0,2.7,0,3.5c-3.3,0.3-6.7,0.1-10,0.1c-0.3,2.4-0.7,4.7-1.9,6.8
		C356,120.9,356.2,114.7,356.1,108.6z"/>
	<path class="st1" d="M399.4,108.6c4-0.2,7.9,0,11.9-0.1c1.5,4.2,2.9,8.5,4.2,12.8c-3.2,0.2-6.4,0.4-9.6-0.3l-0.7-0.1
		c-0.4,1.7-0.7,3.4-1.1,5.1c-3.4-0.2-6.9-0.2-10.3,0C395.5,120.2,397.7,114.4,399.4,108.6z"/>
	<path class="st1" d="M422,108.6c4-0.1,8-0.1,12.1,0c2.3,3.9,4.2,8.1,6.4,12c1.5-0.2,1.6-2.2,2.4-3.1c1.5-3,3.1-5.8,4.6-8.8
		c4.1-0.2,8.2,0,12.2-0.1c-3.6,6.2-6.9,12.6-10.6,18.7c-5.3,0.1-11.1-1.5-16,1.1l-0.2,0.1C429.5,121.8,425.7,115.2,422,108.6z"/>
	<path class="st1" d="M461.4,109.7c3.7-2,8.1,0,12.1-0.9c0.5,1.3,0.9,2.5,1.2,3.8c0.3-1.3,0.7-2.5,1.1-3.8c0.8,0.1,2.5,0.3,3.3,0.4
		c-0.1,2.6,0.1,5.1-0.2,7.7c-3,0.2-1.6-2.8-2.2-4.5c-0.8,1.5,0.1,5.2-2.8,4.3c-0.3-1.4-0.7-2.8-1-4.2c-0.4,1.6,0.4,5.2-2.4,4.2
		c-0.1-2.1-0.2-4.3,0.1-6.4c-0.8,0.2-2.4,0.7-3.2,0.9c0,1.8,0.1,3.7,0,5.5c-0.7,0-2-0.1-2.7-0.2c0-1.7,0.1-3.5,0.2-5.2
		C463.9,110.9,462.2,110.1,461.4,109.7z"/>
	<path class="st2" d="M368.2,116.6c2.7,0.1,6.1-0.7,8.1,1.6c1.4,1.5,0.8,3.5,0.3,5.2c-2.4,2-5.6,1.7-8.4,1.6c-0.1-1.6,0-3.2,0-4.9
		C368.1,119.3,368.2,117.5,368.2,116.6z"/>
	<path class="st3" d="M358.1,120.3c3.3,0,6.7,0.2,10-0.1c0,1.6,0,3.2,0,4.9c2.8,0,6,0.3,8.4-1.6c4.2,0.4,8.4,0.3,12.6,0.1
		c-0.7,4.3-4,8-8.3,8.9c-4.1,1.4-8.6,0.2-12.7,0.9c0,4.7,0,9.4,0,14.2c-4,0.1-8,0-11.9,0c-0.2-6.8-0.1-13.7,0-20.5
		C357.4,125,357.8,122.7,358.1,120.3z"/>
	<path class="st2" d="M76.3,119.7c1.2,4.2,1.9,8.5,2.8,12.8c-1.3,0-3.9,0-5.2,0C74.6,128.3,75.6,124,76.3,119.7z"/>
	<path class="st3" d="M333.8,121.1c2.8,0.1,5.7,0,8.5-0.3h0.2c1.6,1.6,3.3,3.2,4.9,4.8l0,0.5c-15.7,15.8-31.5,31.5-47.2,47.2h-0.6
		c-15.8-15.9-31.9-31.4-47.7-47.3c1.4-1.9,3.3-3.5,5-5.2c5.6,1.7,11.5,1.4,17.3,1.2c4-0.9,8-1.3,12.1-0.7c1.6,1.7,3.4,3.3,4.9,5
		c-4.7,4.9-9.6,9.6-14.3,14.4c4.4,4.6,9,9,13.4,13.5c9.8-8.9,18.9-18.8,28.4-28c-0.6-0.6-1.8-1.8-2.4-2.4c2.6-1.4,5.5-1.9,8.4-1.5
		c1.2,1.2,2.4,2.4,3.5,3.5c-7.7,8-15.9,15.4-23.6,23.5c1.6,1.7,3.3,3.5,5.1,5c9.5-9.6,19.1-19.1,28.6-28.7
		C336.9,124.2,335.3,122.6,333.8,121.1z"/>
	<path class="st2" d="M405.2,120.9l0.7,0.1c0.4,3.9,1.5,7.7,2.2,11.5c-1.7,0.1-3.5,0.1-5.2,0c0.3-2.2,0.6-4.3,1.2-6.5
		C404.5,124.3,404.7,122.6,405.2,120.9z"/>
	<path class="st3" d="M405.9,121c3.2,0.6,6.4,0.5,9.6,0.3h0c3,8.8,6,17.5,8.8,26.3c-4.1-0.2-8.2,0.2-12.3-0.2c-0.6-2-1-4.1-1.6-6.1
		c-3.3-0.2-6.6,0-9.8-0.1c-0.6,2.1-1.2,4.2-1.7,6.3c-4.1,0-8.1,0.1-12.2,0c2.4-7.2,4.7-14.3,7.1-21.5c3.4-0.1,6.9-0.1,10.3,0
		c-0.5,2.1-0.9,4.3-1.2,6.5c1.7,0.1,3.5,0.1,5.2,0C407.4,128.7,406.3,124.9,405.9,121z"/>
	<path class="st3" d="M433.2,128.4c4.9-2.6,10.7-1,16-1.1c-4.4,5.9-1.4,13.6-2.4,20.4c-4-0.1-8,0-11.9,0c-0.1-5.3,0-10.6,0-15.9
		C434.4,130.8,433.6,129.2,433.2,128.4z"/>
</g>
</svg>
