<?xml version="1.0" encoding="utf-8"?>
<!-- Generator: Adobe Illustrator 23.0.1, SVG Export Plug-In . SVG Version: 6.00 Build 0)  -->
<svg version="1.1" id="Layer_1" xmlns="http://www.w3.org/2000/svg" xmlns:xlink="http://www.w3.org/1999/xlink" x="0px" y="0px"
	 viewBox="0 0 500 250" style="enable-background:new 0 0 500 250;" xml:space="preserve">
<style type="text/css">
	.st0{fill:none;}
	.st1{fill:#2F5D92;}
	.st2{filter:url(#Adobe_OpacityMaskFilter);}
	.st3{fill-rule:evenodd;clip-rule:evenodd;fill:#FFFFFF;}
	.st4{mask:url(#mask-2_2_);fill:#2F5D92;}
	.st5{filter:url(#Adobe_OpacityMaskFilter_1_);}
	.st6{mask:url(#mask-4_2_);fill:#2F5D92;}
	.st7{filter:url(#Adobe_OpacityMaskFilter_2_);}
	.st8{mask:url(#mask-6_2_);fill:#2F5D92;}
	.st9{filter:url(#Adobe_OpacityMaskFilter_3_);}
	.st10{mask:url(#mask-8_2_);fill:#FB9B1B;}
	.st11{filter:url(#Adobe_OpacityMaskFilter_4_);}
	.st12{mask:url(#mask-10_2_);fill:#FB9B1B;}
	.st13{filter:url(#Adobe_OpacityMaskFilter_5_);}
	.st14{mask:url(#mask-12_2_);fill:#FB9B1B;}
</style>
<rect x="0.2" y="0.6" class="st0" width="500" height="250"/>
<g id="Page-1">
	<g id="devcode-instadebit" transform="translate(0.300000, -1.000000)">
		<path id="Fill-1" class="st1" d="M150.1,99.9c-3.3,18-6.4,35.5-9.6,53.2h-13.2c-3.5-9.6-6.9-19.2-10.3-28.8c-0.4,0-0.7,0-1.1,0.1
			c-1.8,9.5-3.6,19-5.4,28.8H97.7c3.2-17.8,6.3-35.4,9.5-53.2h13.1c3.3,9.2,6.8,18.7,10.7,29.6c3.8-10.4,3.5-20.4,6.6-29.7H150.1z"
			/>
		<path id="Fill-3" class="st1" d="M392.3,120.9c4.4-0.1,8.3,1.3,11-2.5c1.5-2,1.1-4.5-0.3-6.1c-2.9-3.4-6.8-1.7-10.7-1.6V120.9z
			 M391.7,136.3c-0.1,5.8,0,5.9,4.5,6c7.1,0.1,9.5-1.3,9.5-5.8c0-4.1-1.9-5.5-7.1-5.7C391.9,130.7,391.9,130.7,391.7,136.3z
			 M378.4,153.4V99.7h9.3c5.4,0,10.7,0.2,16.1-0.1c5.8-0.3,10,2.1,12.5,7.2c2.7,5.5,1.5,11.3-2.8,15.8c-0.5,0.6-1.1,1.1-1.8,1.7
			c0.3,0.5,0.4,1.2,0.9,1.4c6.5,3.5,7.4,9.1,6.6,15.7c-0.8,6.4-5.5,11.6-13.4,11.8C396.9,153.6,387.9,153.4,378.4,153.4z"/>
		<path id="Fill-5" class="st1" d="M297.5,112.2c0.2,9.8-0.6,19.4,0.5,28.9c9.8,1.7,12.2-1.7,13.2-10.3c0.3-2.5,0.2-5.2,0-7.7
			C310.4,113.8,307,110.4,297.5,112.2 M284.2,153.5V99.7h10.5c3.2,0,6.4,0.2,9.5,0c13.6-1.1,19.1,9.5,20.1,18.2
			c0.7,6,0.6,12.3,0,18.3c-1.1,10.7-9,17.2-19.9,17.3C297.9,153.5,291.4,153.5,284.2,153.5"/>
		<polygon id="Fill-7" class="st1" points="346.6,141.5 370.2,141.5 370.2,153.1 332.9,153.1 332.9,100.1 369.5,100.1 369.5,110.8 
			346.5,110.8 346.5,119.8 367.8,119.8 367.8,130.6 346.6,130.6 		"/>
		<path id="Fill-9" class="st1" d="M152,135.8c4.1-0.4,7.9-0.7,11.9-1.1c0.6,1.8,1,3.7,1.8,5.4c1.6,3.5,5.7,5.1,9,3.2
			c1.7-1,3.4-3.1,3.7-4.9c0.2-1.4-1.6-3.6-3-4.6c-2.9-2-6.3-3.2-9.5-5c-7.8-4.3-10.2-9.1-8.7-16.9c1.5-7.7,6.6-12.6,14.7-13.2
			c4.3-0.3,8.8,0.2,12.9,1.4c5.4,1.6,8.1,6.1,9.5,11.3c0.6,2.3-0.7,3.4-2.9,3.4c-3.2,0.1-6.3,0-9.5,0c-0.5-1.4-0.9-2.9-1.7-4.2
			c-1.5-2.4-4.9-3.2-7.4-2.1c-3.6,1.6-4.1,5.2-0.8,7.3c3.2,2,6.7,3.5,10,5.3c4.5,2.5,7.8,5.8,9.1,11.1c2.2,9.6-3.5,20.9-15.7,22.2
			c-3.8,0.4-8-0.1-11.8-1C155.3,151.6,151.2,145,152,135.8"/>
		<path id="Fill-11" class="st1" d="M261.7,118.5c-0.4-0.1-0.9-0.2-1.3-0.3c-2.4,4.8-5.2,9.4-6.3,15.5c3-0.2,5.5-0.4,7.6-0.5V118.5z
			 M255.6,99.9h18.6v53.3h-11.6c-0.1-2.2-0.2-4.7-0.4-8c-4,0-8.1-0.2-12.2,0.1c-1.1,0.1-2.6,1.8-2.9,3c-1.2,4.4-4,6-8.4,5.4
			c-1.9-0.3-3.9,0-7,0C239.9,135.2,247.7,117.6,255.6,99.9z"/>
		<path id="Fill-13" class="st1" d="M199.4,113c0.9-4.7,1.6-8.7,2.4-13h42.1c-0.7,4.4-1.3,8.4-2,12.8h-14.6
			c-2.4,13.6-4.8,26.7-7.2,40.3h-13.9c2.3-13.3,4.7-26.4,7.1-40.1H199.4z"/>
		<g id="Group-17" transform="translate(823.279258, 3.750353)">
			<g id="Fill-15-Clipped">
				<defs>
					<filter id="Adobe_OpacityMaskFilter" filterUnits="userSpaceOnUse" x="-374.5" y="96.2" width="41.3" height="53.1">
						<feColorMatrix  type="matrix" values="1 0 0 0 0  0 1 0 0 0  0 0 1 0 0  0 0 0 1 0"/>
					</filter>
				</defs>
				<mask maskUnits="userSpaceOnUse" x="-374.5" y="96.2" width="41.3" height="53.1" id="mask-2_2_">
					<g class="st2">
						<polygon id="path-1_2_" class="st3" points="-374.5,96.2 -333.2,96.2 -333.2,149.4 -374.5,149.4 						"/>
					</g>
				</mask>
				<polygon id="Fill-15" class="st4" points="-347.1,108.9 -347.1,149.4 -360.3,149.4 -360.3,109.3 -374.5,109.3 -374.5,96.2 
					-333.1,96.2 -333.1,108.9 				"/>
			</g>
		</g>
		<g id="Fill-18-Clipped" transform="translate(0.019374, 0.833989)">
			<defs>
				<filter id="Adobe_OpacityMaskFilter_1_" filterUnits="userSpaceOnUse" x="427.5" y="99.1" width="13.6" height="53.2">
					<feColorMatrix  type="matrix" values="1 0 0 0 0  0 1 0 0 0  0 0 1 0 0  0 0 0 1 0"/>
				</filter>
			</defs>
			<mask maskUnits="userSpaceOnUse" x="427.5" y="99.1" width="13.6" height="53.2" id="mask-4_2_">
				<g class="st5">
					<polygon id="path-3_2_" class="st3" points="9.7,153.8 490.1,153.8 490.1,97.8 9.7,97.8 					"/>
				</g>
			</mask>
			<polygon id="Fill-18" class="st6" points="427.5,152.2 441.1,152.2 441.1,99.1 427.5,99.1 			"/>
		</g>
		<g id="Fill-20-Clipped" transform="translate(0.019374, 0.833989)">
			<defs>
				<filter id="Adobe_OpacityMaskFilter_2_" filterUnits="userSpaceOnUse" x="73.7" y="99.1" width="23.2" height="53.2">
					<feColorMatrix  type="matrix" values="1 0 0 0 0  0 1 0 0 0  0 0 1 0 0  0 0 0 1 0"/>
				</filter>
			</defs>
			<mask maskUnits="userSpaceOnUse" x="73.7" y="99.1" width="23.2" height="53.2" id="mask-6_2_">
				<g class="st7">
					<polygon id="path-5_2_" class="st3" points="9.7,153.8 490.1,153.8 490.1,97.8 9.7,97.8 					"/>
				</g>
			</mask>
			<path id="Fill-20" class="st8" d="M83.2,99.1h13.7c-2.5,17.9-6.2,35.4-9.1,53.2H73.7C76.9,134.4,80,116.8,83.2,99.1"/>
		</g>
		<g id="Fill-21-Clipped" transform="translate(0.019374, 0.833989)">
			<defs>
				<filter id="Adobe_OpacityMaskFilter_3_" filterUnits="userSpaceOnUse" x="46.3" y="99.1" width="26.5" height="22">
					<feColorMatrix  type="matrix" values="1 0 0 0 0  0 1 0 0 0  0 0 1 0 0  0 0 0 1 0"/>
				</filter>
			</defs>
			<mask maskUnits="userSpaceOnUse" x="46.3" y="99.1" width="26.5" height="22" id="mask-8_2_">
				<g class="st9">
					<polygon id="path-7_2_" class="st3" points="9.7,153.8 490.1,153.8 490.1,97.8 9.7,97.8 					"/>
				</g>
			</mask>
			<path id="Fill-21" class="st10" d="M72.8,99.1c-1.4,7.5-2.6,14.6-4,22H46.3c1.3-7.5,2.6-14.7,3.9-22H72.8z"/>
		</g>
		<g id="Fill-22-Clipped" transform="translate(0.019374, 0.833989)">
			<defs>
				<filter id="Adobe_OpacityMaskFilter_4_" filterUnits="userSpaceOnUse" x="41.1" y="130.4" width="26.5" height="22">
					<feColorMatrix  type="matrix" values="1 0 0 0 0  0 1 0 0 0  0 0 1 0 0  0 0 0 1 0"/>
				</filter>
			</defs>
			<mask maskUnits="userSpaceOnUse" x="41.1" y="130.4" width="26.5" height="22" id="mask-10_2_">
				<g class="st11">
					<polygon id="path-9_2_" class="st3" points="9.7,153.8 490.1,153.8 490.1,97.8 9.7,97.8 					"/>
				</g>
			</mask>
			<path id="Fill-22" class="st12" d="M67.6,130.4c-1.4,7.5-2.6,14.6-4,22H41.1c1.3-7.5,2.6-14.7,3.9-22H67.6z"/>
		</g>
		<g id="Fill-23-Clipped" transform="translate(0.019374, 0.833989)">
			<defs>
				<filter id="Adobe_OpacityMaskFilter_5_" filterUnits="userSpaceOnUse" x="9.7" y="130.4" width="26.5" height="22">
					<feColorMatrix  type="matrix" values="1 0 0 0 0  0 1 0 0 0  0 0 1 0 0  0 0 0 1 0"/>
				</filter>
			</defs>
			<mask maskUnits="userSpaceOnUse" x="9.7" y="130.4" width="26.5" height="22" id="mask-12_2_">
				<g class="st13">
					<polygon id="path-11_2_" class="st3" points="9.7,153.8 490.1,153.8 490.1,97.8 9.7,97.8 					"/>
				</g>
			</mask>
			<path id="Fill-23" class="st14" d="M13.6,130.4h22.6c-1.4,7.5-2.6,14.6-4,22H9.7"/>
		</g>
	</g>
</g>
</svg>
