<?xml version="1.0" encoding="utf-8"?>
<!-- Generator: Adobe Illustrator 23.0.1, SVG Export Plug-In . SVG Version: 6.00 Build 0)  -->
<svg version="1.1" id="Layer_1" xmlns="http://www.w3.org/2000/svg" xmlns:xlink="http://www.w3.org/1999/xlink" x="0px" y="0px"
	 viewBox="0 0 500 250" style="enable-background:new 0 0 500 250;" xml:space="preserve">
<style type="text/css">
	.st0{fill:none;}
	.st1{fill:#686B6C;}
	.st2{fill:#3E3E3E;}
	.st3{fill:#145EAB;}
	.st4{fill:#143A58;}
</style>
<rect x="1.4" y="0" class="st0" width="500" height="250"/>
<path class="st1" d="M113.9,135.2c0,0.1,0,0.2-0.1,0.3C113.8,135.4,113.9,135.3,113.9,135.2z"/>
<path class="st1" d="M114.3,131.1c0,0.3-0.1,0.6-0.1,0.9C114.2,131.7,114.3,131.4,114.3,131.1z"/>
<path class="st1" d="M113.5,137c0,0.1,0,0.2-0.1,0.2C113.5,137.1,113.5,137,113.5,137z"/>
<path class="st1" d="M114.1,133c0,0.2-0.1,0.3-0.1,0.5C114.1,133.3,114.1,133.2,114.1,133z"/>
<path class="st1" d="M104.9,104.6c0.8,0.9,2,2.5,3.3,4.3C107.2,107.4,106.1,106,104.9,104.6z"/>
<path class="st1" d="M114.3,130.7c0-0.4,0.1-0.8,0.1-1.2c0-3.5-0.5-6.8-1.4-10c0.9,3.7,1.3,7.6,1.3,10
	C114.3,130,114.3,130.3,114.3,130.7z"/>
<path class="st1" d="M113.2,138.5c-0.7,2.6-1.4,4.4-1.7,5.2C112.2,142.1,112.8,140.3,113.2,138.5z"/>
<path class="st2" d="M104.1,103.7L104.1,103.7c0.2,0.3,0.6,0.6,0.8,0.9C104.4,104,104.1,103.7,104.1,103.7z"/>
<path class="st2" d="M114.2,132c0,0.3-0.1,0.7-0.1,1C114.1,132.7,114.2,132.4,114.2,132z"/>
<path class="st2" d="M113.5,137.2c-0.1,0.4-0.2,0.9-0.3,1.3C113.3,138.1,113.4,137.6,113.5,137.2z"/>
<path class="st2" d="M114.1,133.6c-0.1,0.6-0.1,1.1-0.2,1.7C113.9,134.7,114,134.1,114.1,133.6z"/>
<path class="st2" d="M111.5,143.8c0,0.1-0.1,0.1-0.1,0.2c0,0,0-0.1,0.1-0.1C111.5,143.8,111.5,143.8,111.5,143.8z"/>
<path class="st2" d="M113.8,135.4c-0.1,0.5-0.2,1-0.3,1.5C113.6,136.5,113.8,136,113.8,135.4z"/>
<path class="st3" d="M54,99.9c0.6-0.1,1.2-0.1,1.5-0.1c0.7,0,4.1,0,4.8-0.8c0.8-0.8,1.2-1.7,1.2-3.2c0-0.3,0-0.7,0-0.9
	c-3.6,1.6-6.9,3.7-9.9,6.3c0.3-0.2,0.6-0.4,0.8-0.6C53,100.3,53.4,100,54,99.9z"/>
<path class="st2" d="M51.6,101.2c-1.2,0.9-2.5,2.3-3.8,3.9C49,103.6,50.3,102.4,51.6,101.2z"/>
<path class="st3" d="M107,145.3c-1.9-0.2-0.2-1.9,0.6-3.5c0.8-1.5,1.3-1.5,1.7-3.6c0.4-2.1,0-2.7,0.2-4.4c0.2-1.7,1.3-2.1,1.7-3.9
	c0.4-1.7,0-3.6,0-6.3c0-2.7-0.9-2.7-1.3-3.9c-0.4-1.2-1.7-0.8-2.5-2.1c-0.8-1.3-2.7-0.2-4.4-1.3c-1.7-1.2,0,0,0-0.9
	c0-0.9-1.3-0.8-1.5-1.3c-0.2-0.6-1.4-2.3-2.1-3.9c-0.8-1.5,0,0-0.4-0.9c-0.4-0.9,0-2.9,0.8-3.6c0.8-0.8,0.6-0.9,1.2-1.9
	c0.6-0.9,2.2,0.1,3.2,0c-6.9-7.3-16.6-11.9-27.5-11.9c-3.3,0-6.6,0.4-9.6,1.2c0.3,0.3,1,0.7,2.4,1c1.7,0.5,2.4,0.8,4.1,1.4
	s0.8,1.5,0.8,1.5s-2.7-0.3-4.1,0c-1.4,0.2-1.2,2.1-2,2.5c-0.9,0.4-1.8,1.8-2.4,2.7c-0.7,0.9-2,1.5-2.4,2.1c-0.4,0.7-1.7,1.3-1.7,2.5
	c0,1.3,0.1,3.6,0.1,3.6s-0.9-0.4-3.1-0.9c-2.1-0.5-1.3,0.8-2.3,1.4c-1,0.6-2.7,1.2-3.5,2.4s0.1,2.1,0.7,3.8c0.5,1.7,2,0.7,2.7,0
	c0.7-0.7,0.4-1.4,0.7-2c0.3-0.7,1.8-0.1,2.4,0.8c0.7,0.9-0.4,1.2,0,1.8c0.4,0.7,1.2,0,2.4,0c1.3,0,1.5,1.8,1.5,1.8
	c-1.8,0.7-2.7-0.3-3.2-0.4c-0.5-0.1-0.8-1.4-2.5-0.5c-1.8,0.9-1.7,0.4-2,0.8s-1.5,1.3-1.5,1.3l-3.1,0.5c0,0-0.4-0.7-1-1.7
	c-0.7-1-1-0.9-2.1-1.3c-1.2-0.4-2.8-0.1-3.7-0.4c-0.9-0.3-0.5-2.1-0.7-3.2c-0.1-0.9-0.6-1.5-0.3-2.4c-2.6,5.1-4.1,11-4.1,17.1
	c0,20.8,16.9,37.7,37.7,37.7c15.8,0,29.3-9.6,34.9-23.4C110.9,145.2,108.8,145.5,107,145.3z"/>
<path class="st4" d="M122,166.6v-28.8h7.3c0.6,0,1.1,0,1.7,0c0.6,0,1.2,0.1,1.8,0.2c1.8,0.3,3.3,1.1,4.5,2.4
	c1.2,1.3,1.7,2.9,1.7,4.7c0,2.8-1.2,4.7-3.6,5.8c1.9,0.3,3.4,1.2,4.4,2.4c1,1.3,1.5,2.9,1.5,4.8c0,2.6-0.9,4.7-2.9,6.3
	c-0.8,0.7-1.8,1.2-2.8,1.5c-1,0.3-2.3,0.5-3.7,0.5L122,166.6L122,166.6z M126.6,141.7v8.1h3c1.5,0,2.8-0.3,3.6-1s1.3-1.7,1.3-3
	c0-2.7-1.8-4.1-5.2-4.1H126.6z M126.6,162.8h4.3c1.8,0,3.3-0.4,4.3-1.2c1-0.8,1.5-1.9,1.5-3.4c0-1.2-0.3-2.1-1-2.9
	c-0.7-0.8-1.6-1.3-2.8-1.5c-0.6-0.1-1.3-0.2-2.4-0.2h-4V162.8z"/>
<path class="st4" d="M145.3,166.6l11.5-28.8h4.3l11.5,28.8h-4.8l-2.8-7.2h-12.1l-2.8,7.2H145.3z M158.2,145.7l-3.7,10.1h9.1
	l-3.8-10.1c-0.1-0.3-0.2-0.6-0.3-0.8c-0.1-0.3-0.2-0.6-0.2-0.7c-0.1-0.2-0.1-0.4-0.2-0.8c-0.1-0.3-0.1-0.8-0.2-1.4
	c0,0.6-0.1,1-0.1,1.4c-0.1,0.4-0.2,0.7-0.2,0.9L158.2,145.7z"/>
<path class="st4" d="M177.1,166.6v-28.8h4.2l15.5,19.3c0.7,0.8,1.3,2,2,3.7c-0.2-0.9-0.3-1.8-0.5-2.7c-0.1-0.9-0.2-1.4-0.2-1.8
	v-18.6h4.6v28.8h-4L183,147.1c-0.7-0.8-1.3-2-1.9-3.5l0.2,0.9l0.2,1c0.2,1.3,0.4,2.1,0.4,2.3v18.8L177.1,166.6L177.1,166.6z"/>
<path class="st4" d="M233.9,140.5l-2.4,3.5l-1.3-0.9c-1.6-0.9-3.4-1.4-5.3-1.4c-3,0-5.5,1-7.5,3c-2,2-3,4.6-3,7.6c0,3.1,1,5.6,3,7.7
	c2,2,4.5,3,7.5,3c1.4,0,2.8-0.3,4.1-0.8c0.8-0.3,1.6-0.8,2.5-1.5l2.4,3.5l-1.6,1.1c-2.3,1.4-4.9,2-7.9,2c-4.2,0-7.7-1.4-10.5-4.2
	c-2.8-2.8-4.2-6.3-4.2-10.6c0-4.3,1.4-7.9,4.2-10.8c2.8-2.9,6.4-4.3,10.7-4.3c1.9,0,3.6,0.3,5.2,0.9c0.7,0.2,1.3,0.5,1.9,0.8
	C232.2,139.3,233,139.8,233.9,140.5z"/>
<path class="st4" d="M236.9,166.6l11.5-28.8h4.3l11.5,28.8h-4.8l-2.8-7.2h-12l-2.8,7.2H236.9z M249.8,145.7l-3.7,10.1h9.1l-3.8-10.1
	c-0.1-0.3-0.2-0.6-0.3-0.8s-0.2-0.6-0.2-0.7c-0.1-0.2-0.1-0.4-0.2-0.8c-0.1-0.3-0.1-0.8-0.2-1.4c0,0.6-0.1,1-0.1,1.4
	c-0.1,0.4-0.2,0.7-0.2,0.9L249.8,145.7z"/>
<path class="st4" d="M268.7,137.9h7.6c0.7,0,1.4,0,2,0.1c0.7,0.1,1.2,0.1,1.7,0.2c1.8,0.4,3.3,1.4,4.4,2.8c1.1,1.4,1.7,3.2,1.7,5.3
	c0,4.3-2.2,6.9-6.7,7.8l8.4,12.6h-5.5l-9-14.1v14.1h-4.6V137.9z M273.3,141.7v9.7h2.4c1.8,0,3.1-0.4,4.1-1.3c1-0.9,1.5-2.1,1.5-3.7
	c0-3.1-1.8-4.7-5.5-4.7H273.3z"/>
<path class="st4" d="M293,166.6v-28.8h4.6v28.8H293z"/>
<path class="st4" d="M302.1,166.6l11.5-28.8h4.3l11.5,28.8h-4.8l-2.8-7.2h-12l-2.8,7.2H302.1z M314.9,145.7l-3.7,10.1h9.1l-3.8-10.1
	c-0.1-0.3-0.2-0.6-0.3-0.8c-0.1-0.3-0.2-0.6-0.2-0.7c-0.1-0.2-0.1-0.4-0.2-0.8c-0.1-0.4-0.1-0.8-0.2-1.4c0,0.6-0.1,1-0.1,1.4
	c-0.1,0.4-0.2,0.7-0.2,0.9L314.9,145.7z"/>
<path class="st4" d="M346.5,166.4v-28.8h4.6v24.7h9.1v4.1H346.5z"/>
<path class="st4" d="M363.9,152c0-4.3,1.4-7.8,4.3-10.7c2.9-2.9,6.4-4.4,10.8-4.4c4.3,0,7.9,1.4,10.8,4.4c2.9,2.9,4.4,6.4,4.4,10.7
	c0,4.3-1.4,7.8-4.4,10.7c-2.9,2.9-6.5,4.4-10.8,4.4s-7.9-1.4-10.7-4.3C365.4,159.9,363.9,156.3,363.9,152z M379,141.2
	c-2.9,0-5.4,1-7.4,3.1c-2,2.1-3,4.6-3,7.6s1,5.5,3,7.6c2,2.1,4.5,3.1,7.4,3.1c2.9,0,5.4-1,7.4-3.1c2-2,3-4.6,3-7.7c0-3-1-5.5-3-7.6
	C384.4,142.3,381.9,141.2,379,141.2z"/>
<path class="st4" d="M424.4,140.2l-2.4,3.6l-1.3-0.9c-1.6-0.9-3.4-1.4-5.3-1.4c-3,0-5.5,1-7.5,3.1c-2,2-3,4.6-3,7.6
	c0,3.1,1,5.6,3,7.7c2,2,4.5,3,7.5,3c1.4,0,2.8-0.3,4.1-0.8c0.8-0.3,1.6-0.8,2.5-1.5l2.4,3.5l-1.6,1.1c-2.3,1.4-4.9,2-8,2
	c-4.2,0-7.7-1.4-10.5-4.2s-4.2-6.3-4.2-10.6c0-4.4,1.4-7.9,4.2-10.8s6.4-4.4,10.7-4.4c1.9,0,3.6,0.3,5.2,0.9
	c0.7,0.2,1.3,0.5,1.9,0.8C422.7,139,423.5,139.5,424.4,140.2z"/>
<path class="st4" d="M427.4,166.4l11.5-28.8h4.3l11.5,28.8h-4.8l-2.8-7.2h-12.1l-2.8,7.2H427.4z M440.3,145.5l-3.8,10.1h9.1
	l-3.8-10.1c-0.1-0.3-0.2-0.6-0.3-0.8c-0.1-0.3-0.2-0.6-0.2-0.7c-0.1-0.2-0.1-0.5-0.2-0.8c-0.1-0.3-0.1-0.8-0.2-1.4
	c0,0.6-0.1,1-0.1,1.4c-0.1,0.4-0.2,0.7-0.2,0.9L440.3,145.5z"/>
<path class="st4" d="M459.3,166.4v-28.8h4.6v24.7h9.1v4.1H459.3z"/>
<path class="st4" d="M113.2,138.5c0.1-0.4,0.2-0.9,0.3-1.3c0-0.1,0.1-0.2,0.1-0.2c0.1-0.5,0.2-1,0.3-1.5c0-0.1,0-0.2,0.1-0.3
	c0.1-0.6,0.2-1.1,0.2-1.7c0-0.2,0.1-0.3,0.1-0.5c0.1-0.3,0.1-0.7,0.1-1c0-0.3,0.1-0.6,0.1-0.9c0-0.1,0-0.3,0-0.4c0-0.4,0-0.8,0-1.2
	c0-2.4-0.5-6.3-1.3-10c-1-3.8-2.6-7.4-4.8-10.6c-1.3-1.8-2.5-3.4-3.3-4.3c-0.3-0.3-0.6-0.7-0.9-0.9c-1,0.1-2.6-0.9-3.2,0
	c-0.6,0.9-0.4,1.2-1.2,1.9c-0.8,0.7-1.2,2.6-0.8,3.6c0.4,0.9-0.4-0.6,0.4,0.9c0.8,1.5,2,3.3,2.1,3.9c0.2,0.6,1.5,0.4,1.5,1.3
	c0,0.9-1.7-0.2,0,0.9c1.7,1.2,3.6,0,4.4,1.3c0.8,1.3,2.1,0.9,2.5,2.1c0.4,1.2,1.3,1.2,1.3,3.9c0,2.7,0.4,4.6,0,6.3
	c-0.4,1.7-1.5,2.1-1.7,3.9c-0.2,1.7,0.2,2.3-0.2,4.4c-0.4,2.1-0.9,2.1-1.7,3.6c-0.8,1.5-2.5,3.3-0.6,3.5c1.9,0.2,4-0.1,4.5-1.4
	c0-0.1,0.1-0.1,0.1-0.2C111.8,142.9,112.5,141.2,113.2,138.5z"/>
<path class="st4" d="M82.5,154.1c0,0-0.2-6,0-8.4c0.2-2.5,3.1-9.2,4-10.1c0.9-0.9,2.9-3.6,2.9-3.6s1.2-1.5,1.2-2.9s-0.4-2.1,0.8-2.9
	c1.2-0.8,2.5-2.1,2.1-2.9c-0.4-0.8-2.3-0.6-2.7-1.2c-0.4-0.6,0-1.5-1.9-1.3c-1.9,0.2-3.9,0.9-4.6,0c-0.8-0.9-0.2-2.3-1.8-2.9
	c-1.7-0.6-2.6,0.8-4.5,0c-1.9-0.8-2.3-1.5-4.4-1.5s-2.7-0.4-3.9,0c-1.2,0.4-2.1,1.2-2.5,1.9c-0.4,0.8-0.2,3.1-0.9,3.3
	c-0.8,0.2-0.4,0.8,0,2.5c0.4,1.7,0.2,3.9,1.2,4.2c0.9,0.4-0.6-0.2,0.9,0.4c1.5,0.6,2.5,2.1,3.5,2.3c1,0.2,1.5,0.9,2.9,1.5
	c1.3,0.6,1.7,0.6,1.5,1.9c-0.2,1.4,1.2,2.1,0.9,3.3c-0.2,1.2-0.2,1.7,0.2,3.3c0.3,1.5,0.9,2.7,0.9,3.5c0,0.8,1.9,2.9,1.3,4.4
	C79,150.3,82.5,154.1,82.5,154.1z"/>
<path class="st4" d="M43.2,114.8c0.1,1-0.3,2.9,0.7,3.2c0.9,0.3,2.5,0,3.7,0.4s1.5,0.3,2.1,1.3c0.7,1,1,1.7,1,1.7l3.1-0.5
	c0,0,1.2-0.9,1.5-1.3c0.4-0.4,0.3,0.1,2-0.8c1.8-0.9,2,0.4,2.5,0.5s1.4,1,3.2,0.4c0,0-0.3-1.8-1.5-1.8c-1.3,0-2,0.7-2.4,0
	c-0.4-0.7,0.7-0.9,0-1.8c-0.7-0.9-2.2-1.4-2.4-0.8c-0.3,0.7,0,1.4-0.7,2c-0.7,0.7-2.1,1.7-2.7,0c-0.5-1.7-1.4-2.5-0.7-3.8
	c0.8-1.3,2.4-1.8,3.5-2.4c1-0.7,0.1-1.9,2.3-1.4c2.1,0.5,3.1,0.9,3.1,0.9s-0.1-2.3-0.1-3.5s1.3-1.9,1.7-2.5c0.4-0.7,1.8-1.3,2.4-2.1
	c0.7-0.9,1.5-2.3,2.4-2.7s0.7-2.3,2-2.5c1.4-0.3,4.1,0,4.1,0s0.9-0.9-0.8-1.5s-2.4-0.9-4.1-1.4c-1.3-0.4-2-0.8-2.3-1.1
	c-1.9,0.5-3.7,1.1-5.4,1.9c0,0.3,0,0.6,0,0.9c0,1.5-0.4,2.4-1.2,3.2c-0.8,0.8-4.3,0.8-4.9,0.8c-0.3,0-1,0.1-1.5,0.1
	c-0.6,0.1-1,0.4-1.5,0.7c-0.3,0.2-0.6,0.3-0.8,0.6c-1.4,1.2-2.6,2.5-3.8,3.9c-1.4,1.7-2.7,3.5-3.6,5c-0.4,0.8-0.9,1.5-1.3,2.4
	C42.7,113.2,43.1,113.9,43.2,114.8z"/>
<path class="st3" d="M78.8,173.2c19.1,0,34.6-0.9,34.6-2.1c0-1.2-15.5-2.1-34.6-2.1c-19.1,0-34.6,0.9-34.6,2.1
	C44.3,172.3,59.7,173.2,78.8,173.2z"/>
<path class="st3" d="M31.5,122.7c0,0-9.2-7.9-1.5-18.5s50.2-26.6,55.2-27.3c5-0.8,2.1,7.9,2.1,7.9s-19.6,3.5-23.4,5
	c-3.9,1.5-18.8,5.7-21,7.3c-2.1,1.5-7.7,4.2-9.9,7.2c-2.1,2.9-2.3,1.4-3.1,4.8C29.2,112.3,26.8,115.2,31.5,122.7z"/>
<path class="st3" d="M108.9,92.7v-8.2H139v8.2h-10.5v36.8h-9.3V92.7H108.9z"/>
<path class="st3" d="M136.2,129.5V98.9h9v5.2c0.6-1.9,1.5-3.4,3-4.4c1.4-1,3.3-1.5,5.6-1.5c0.6,0,1,0,1.4,0.1
	c0.4,0.1,0.9,0.2,1.6,0.3l-1.6,8.7c-1.1-0.3-2.2-0.4-3.2-0.4c-2.1,0-3.9,0.8-5.2,2.3c-0.6,0.7-1,1.5-1.2,2.3
	c-0.2,0.8-0.3,1.9-0.3,3.4v14.9H136.2z"/>
<path class="st3" d="M178.9,103.1v-4.2h9v30.6h-9v-3.9c-1.9,3.3-5,4.8-9.2,4.8c-4.1,0-7.5-1.5-10.1-4.5c-2.6-3-4-6.9-4-11.6
	c0-4.6,1.3-8.4,4-11.5c2.7-3.1,6-4.6,10-4.6c3.3,0,6,1,8.1,3.2L178.9,103.1z M171.8,105.6c-2.1,0-3.9,0.8-5.3,2.5
	c-1.4,1.7-2.1,3.7-2.1,6.2c0,2.5,0.7,4.6,2.1,6.3s3.3,2.4,5.6,2.4c2.3,0,4.1-0.8,5.5-2.4c1.4-1.7,2.1-3.7,2.1-6.3
	c0-2.5-0.8-4.5-2.3-6.2C175.9,106.4,174,105.6,171.8,105.6z"/>
<path class="st3" d="M193.6,129.5V98.9h9v4.5c0.9-1.7,2.1-3,3.8-3.9c1.7-0.9,3.6-1.4,5.7-1.4c3.3,0,6,1.1,7.9,3.3
	c0.8,1,1.4,2.1,1.7,3.4c0.3,1.3,0.4,3,0.4,5.3v19.4h-9v-19.9c-0.2-1.2-0.8-2.1-1.7-2.9c-0.9-0.7-2-1.1-3.3-1.1c-1.8,0-3.2,0.7-4.2,2
	c-1,1.3-1.5,3.2-1.5,5.6v16.4H193.6z"/>
<path class="st3" d="M225.1,124.7l4.4-5.2c1.9,2.8,4.2,4.2,6.8,4.2c1.1,0,2-0.3,2.8-0.9c0.8-0.6,1.1-1.3,1.1-2.3c0-0.9-0.3-1.5-1-2
	c-0.4-0.3-0.8-0.6-1.3-0.8c-0.5-0.2-1.3-0.6-2.6-1c-2-0.7-3.7-1.5-5.1-2.4c-2.3-1.5-3.4-3.7-3.4-6.6s1-5.2,3.2-7.1
	c2.1-1.8,4.8-2.8,8.2-2.8c4.5,0,7.9,1.5,10.4,4.6l-4.2,5.2c-1.6-2.1-3.4-3.2-5.3-3.2c-0.9,0-1.8,0.3-2.5,0.8c-0.7,0.6-1,1.2-1,1.9
	c0,0.8,0.4,1.5,1.3,1.9c0.4,0.3,0.8,0.4,1.1,0.6c0.9,0.3,1.8,0.7,2.7,1c2.5,0.9,4.2,1.6,5.2,2.3c2.1,1.5,3.3,3.7,3.3,6.7
	c0,3.1-1.2,5.7-3.4,7.7c-2.3,1.9-5.3,2.9-9,2.9C231.7,130.5,227.8,128.6,225.1,124.7z"/>
<path class="st3" d="M250.4,106.3v-7.4h4.6v-4.4c0-3.3,1-5.8,3-7.8c2-2,4.6-3,7.9-3c2.1,0,4.4,0.4,6.7,1.2l-1.2,6.5
	c-0.6-0.2-1.1-0.4-1.5-0.4c-0.4-0.1-0.9-0.2-1.3-0.2c-3.1,0-4.7,1.8-4.7,5.2V99h7.5v7.4h-7.5v23.2h-8.9v-23.3H250.4z"/>
<path class="st3" d="M302.1,117h-23c0.3,2.1,1.2,3.8,2.5,5c1.3,1.2,3,1.8,5,1.8c1.4,0,2.9-0.4,4.5-1.3s2.8-2,3.7-3.4l6.4,4.4
	c-2,2.5-4.1,4.2-6.4,5.3c-2.3,1-5,1.6-8.1,1.6c-4.8,0-8.8-1.5-11.8-4.4c-3-2.9-4.5-6.7-4.5-11.5c0-4.7,1.5-8.7,4.6-11.8
	c3-3.1,6.9-4.7,11.5-4.7c4.7,0,8.4,1.5,11.4,4.6c2.9,3.1,4.4,7.1,4.4,12.1L302.1,117z M286.4,104.5c-4,0-6.3,2.3-7.2,6.7h14.2
	c-0.3-2.1-1-3.7-2.2-4.9S288.3,104.5,286.4,104.5z"/>
<path class="st3" d="M306.6,129.5V98.9h9v5.2c0.6-1.9,1.5-3.4,3-4.4c1.4-1,3.3-1.5,5.6-1.5c0.6,0,1,0,1.4,0.1
	c0.4,0.1,0.9,0.2,1.6,0.3l-1.6,8.7c-1.2-0.3-2.2-0.4-3.2-0.4c-2.1,0-3.9,0.8-5.2,2.3c-0.6,0.7-1,1.5-1.2,2.3
	c-0.2,0.8-0.3,1.9-0.3,3.4v14.9H306.6z"/>
<path class="st3" d="M357.7,117h-22.9c0.3,2.1,1.2,3.8,2.5,5c1.3,1.2,3,1.8,5,1.8c1.4,0,2.9-0.4,4.5-1.3c1.5-0.9,2.8-2,3.7-3.4
	l6.4,4.4c-2,2.5-4.1,4.2-6.4,5.3c-2.3,1.1-5,1.6-8.1,1.6c-4.8,0-8.8-1.5-11.8-4.4c-3-2.9-4.5-6.7-4.5-11.5c0-4.7,1.5-8.7,4.6-11.8
	c3-3.1,6.9-4.7,11.5-4.7s8.4,1.5,11.4,4.6c2.9,3.1,4.4,7.1,4.4,12.1L357.7,117z M342,104.5c-4,0-6.3,2.3-7.2,6.7H349
	c-0.2-2.1-1-3.7-2.2-4.9S343.9,104.5,342,104.5z"/>
<path class="st3" d="M362.2,129.5V98.9h9v4.5c0.9-1.7,2.1-3,3.8-3.9c1.7-0.9,3.6-1.4,5.7-1.4c3.3,0,6,1.1,7.9,3.3
	c0.8,1,1.4,2.1,1.7,3.4c0.3,1.3,0.4,3,0.4,5.3v19.4h-9v-19.9c-0.2-1.2-0.8-2.1-1.7-2.9c-0.9-0.7-2-1.1-3.3-1.1c-1.8,0-3.2,0.7-4.2,2
	c-1,1.3-1.5,3.2-1.5,5.6v16.4H362.2z"/>
<path class="st3" d="M421.3,100.4l-2.8,7c-2.1-0.9-4-1.4-5.8-1.4c-2.3,0-4.3,0.8-5.8,2.4c-1.6,1.6-2.4,3.6-2.4,6
	c0,2.5,0.8,4.5,2.3,6.1c1.5,1.5,3.6,2.3,6.1,2.3c1.9,0,3.7-0.6,5.7-1.8l3,6.3l-2,1.3c-2.5,1.3-5.2,1.9-8.2,1.9
	c-4.5,0-8.3-1.5-11.2-4.5c-3-3-4.5-6.8-4.5-11.5c0-4.8,1.5-8.7,4.6-11.8c3.1-3.1,7.1-4.6,11.8-4.6C415,98.1,418.1,98.8,421.3,100.4z
	"/>
<path class="st3" d="M423.6,90.3c0-1.3,0.5-2.4,1.5-3.3c1-0.9,2.3-1.4,3.7-1.4c1.5,0,2.8,0.4,3.8,1.4c1,0.9,1.5,2,1.5,3.4
	s-0.5,2.5-1.5,3.4c-1,0.9-2.3,1.4-3.9,1.4c-1.4,0-2.7-0.4-3.7-1.4C424.1,92.7,423.6,91.6,423.6,90.3z M424.5,129.5V98.9h8.9v30.6
	H424.5z"/>
<path class="st3" d="M461.2,103.1v-4.2h9v30.6h-9v-3.9c-1.9,3.3-5,4.8-9.2,4.8c-4.1,0-7.5-1.5-10.1-4.5c-2.6-3-4-6.9-4-11.6
	c0-4.6,1.3-8.4,4-11.5c2.7-3.1,6-4.6,10-4.6c3.3,0,6,1,8.1,3.2L461.2,103.1z M454,105.6c-2.1,0-3.9,0.8-5.3,2.5
	c-1.4,1.7-2.1,3.7-2.1,6.2c0,2.5,0.7,4.6,2.1,6.3c1.4,1.7,3.3,2.4,5.6,2.4c2.3,0,4.1-0.8,5.5-2.4c1.4-1.6,2.1-3.7,2.1-6.3
	c0-2.5-0.8-4.5-2.3-6.2C458.1,106.4,456.2,105.6,454,105.6z"/>
</svg>
