<?xml version="1.0" encoding="utf-8"?>
<!-- Generator: Adobe Illustrator 23.0.1, SVG Export Plug-In . SVG Version: 6.00 Build 0)  -->
<svg version="1.1" id="Layer_1" xmlns="http://www.w3.org/2000/svg" xmlns:xlink="http://www.w3.org/1999/xlink" x="0px" y="0px"
	 viewBox="0 0 500 250" style="enable-background:new 0 0 500 250;" xml:space="preserve">
<style type="text/css">
	.st0{fill:#00985F;}
	.st1{fill:none;}
</style>
<g>
	<path id="path7804" class="st0" d="M270.53,125.67v12.86c0,0.48-0.39,0.89-0.89,0.89h-10.15c-8.2-0.13-11.49-3.91-11.62-12.14
		c0.13-7.97,3.06-11.94,11.66-12.06v0.02h21.4v-8.8h-21.4c-15.24,0.08-21.52,6.56-21.82,20.34l-0.01,1.08l0.01,0.02
		c0.33,13.37,6.59,19.94,21.4,20.16v0.01h15.67c3.62,0,6.21-3.02,6.21-6.2v-16.17L270.53,125.67L270.53,125.67z M354.4,148.02
		v-17.13h26.04v-8.5H354.4v-12.84c0-0.49,0.4-0.9,0.9-0.9h25.74v-8.8h-30.88c-3.61,0-6.21,3.01-6.21,6.2v41.96H354.4z
		 M205.09,139.27c-0.51,0-0.9-0.41-0.9-0.89v-7.43h26.03v-8.49h-26.03v-6.33c0-0.48,0.39-0.9,0.9-0.9h25.75v-8.8h-30.88
		c-3.62,0-6.22,3.03-6.22,6.21v29.23c0,3.19,2.6,6.21,6.22,6.21h30.88v-8.81H205.09L205.09,139.27z M176.7,98.87
		c-4.89,0-8.01,2.61-10.32,7.85l-13.61,31.35l-13.62-31.35c-2.32-5.24-5.44-7.85-10.33-7.85c-4.58,0-9.3,3.28-9.3,10.39v38.81h10.43
		v-37.75l13.7,31.09c1.84,4.34,4.8,7.07,9.11,7.08h0.01c4.3-0.01,7.27-2.73,9.11-7.08l13.7-31.09v37.75H186v-38.81
		C186,102.15,181.27,98.87,176.7,98.87 M304.75,130.94l6.42-15.12c0.2-0.47,0.57-0.6,0.85-0.6h0.01c0.28,0,0.65,0.13,0.85,0.6
		l6.43,15.12H304.75L304.75,130.94z M320.61,111.07c-1.75-3.79-5.23-5.64-8.58-5.64h-0.01c-3.35,0-6.83,1.85-8.57,5.64l-17.07,37.01
		h11.11l3.72-8.8h21.64l3.72,8.8h11.11L320.61,111.07L320.61,111.07z M474.56,106.42v27.84l-17.94-24.47
		c-1.51-1.9-3.2-3.37-6.66-3.37c-3.18,0-7.11,2.51-7.11,7.29v34.4h10.45v-27.84l17.86,24.55c1.56,2.12,3.16,3.28,6.74,3.28
		c3.18,0,7.11-2.28,7.11-7.29v-34.4L474.56,106.42L474.56,106.42z M411.95,139.86c-10.67,0-13.74-3.92-13.74-12.64v-0.05
		c0-8.46,2.93-12.62,13.74-12.62c10.82,0,13.74,4.16,13.74,12.62v0.05C425.7,135.94,422.62,139.86,411.95,139.86 M435.87,127.17
		c0-14.58-5.82-21.39-23.91-21.39c-18.08,0-23.9,6.8-23.91,21.39v0.03c0,14.36,5.99,21.28,23.91,21.28
		c17.93,0,23.91-6.92,23.91-21.28V127.17z"/>
	<path id="path7812" class="st0" d="M48.78,117.92c-2.88,0-5.23-2.34-5.23-5.22c0-2.89,2.34-5.23,5.23-5.23
		c2.88,0,5.22,2.34,5.22,5.23C54,115.58,51.66,117.92,48.78,117.92 M56.79,83.46C33.7,83.46,15,102.16,15,125.25
		c0,20.03,14.1,36.77,32.91,40.85v-37.5l0,0c0.04-1.81,1.48-3.27,3.28-3.34v0h1.74h3.54c0.25,0,0.45-0.19,0.46-0.44l0-41.35
		 M85.59,148.05c-2.88,0-5.22-2.34-5.22-5.23c0-2.88,2.34-5.22,5.22-5.22s5.22,2.34,5.22,5.22
		C90.81,145.71,88.47,148.05,85.59,148.05 M73.35,148.05c-2.88,0-5.22-2.34-5.22-5.23c0-2.88,2.34-5.22,5.22-5.22
		c2.88,0,5.22,2.34,5.22,5.22C78.57,145.71,76.23,148.05,73.35,148.05 M61.09,148.05c-2.88,0-5.23-2.34-5.23-5.23
		c0-2.88,2.35-5.22,5.23-5.22c2.89,0,5.23,2.34,5.23,5.22C66.32,145.71,63.98,148.05,61.09,148.05 M61.95,83.77v41.48v1.61v0.03
		l-0.01,0.01c-0.02,1.86-1.54,3.37-3.41,3.37h-1.61h-3.54c-0.26,0-0.46,0.21-0.46,0.46v36.13c1.27,0.12,2.56,0.18,3.87,0.18
		c23.08,0,41.79-18.71,41.79-41.8C98.58,103.92,82.6,86.31,61.95,83.77"/>
</g>
<rect x="0" y="0.25" class="st1" width="500" height="250"/>
</svg>
