<?xml version="1.0" encoding="utf-8"?>
<!-- Generator: Adobe Illustrator 23.0.1, SVG Export Plug-In . SVG Version: 6.00 Build 0)  -->
<svg version="1.1" id="Layer_1" xmlns="http://www.w3.org/2000/svg" xmlns:xlink="http://www.w3.org/1999/xlink" x="0px" y="0px"
	 viewBox="0 0 500 250" style="enable-background:new 0 0 500 250;" xml:space="preserve">
<style type="text/css">
	.st0{fill:none;}
	.st1{fill:#F25822;}
</style>
<rect x="-0.6" y="0.7" class="st0" width="500" height="250"/>
<g>
	<path class="st1" d="M68,143.2c0,9.5-3,16.9-9,22.2c-6,5.3-14.3,7.9-25,7.9c-4.5,0-8.7-0.5-12.7-1.5c-4-1.1-7.4-2.6-10.3-4.6v-22.5
		c3.4,2.3,7.3,4.2,11.8,5.7c4.4,1.5,8.4,2.3,12,2.3c3,0,5.3-0.7,6.9-2c1.5-1.3,2.3-3.2,2.3-5.6c0-1.1-0.2-2.2-0.7-3.3
		c-0.5-1-1.2-2-2.1-3c-0.9-1-3.3-3.2-7.2-6.6c-4.8-4-8.2-8.1-10.4-12.3c-2.2-4.2-3.2-8.8-3.2-13.8c0-5.6,1.3-10.7,4-15.1
		c2.7-4.5,6.4-7.9,11.3-10.4c4.9-2.5,10.3-3.7,16.3-3.7c9.7,0,18.5,2.3,26.2,6.9l-8.3,19.1C63,99,57,97.1,52.2,97.1
		c-2.6,0-4.6,0.6-6,1.8c-1.4,1.2-2.1,3-2.1,5.3c0,2.1,0.7,4.1,2,5.9c1.4,1.8,4,4.3,7.8,7.3c4.8,3.7,8.4,7.6,10.7,11.8
		C66.9,133.2,68,137.9,68,143.2z"/>
	<path class="st1" d="M110.1,172.1H86.3l14.4-73.2H81.4l4.2-20.8h62.7L144,98.9h-19.4L110.1,172.1z"/>
	<path class="st1" d="M137.7,172.1l18.8-93.9h24.2l-18.8,93.9H137.7z"/>
	<path class="st1" d="M229,97.6c-4.4,0-8.4,1.7-11.9,5c-3.5,3.3-6.3,7.9-8.3,13.8c-2,5.9-3,12.2-3,19.1c0,5.7,1.1,10,3.4,12.9
		c2.3,2.8,5.5,4.2,9.8,4.2c3.4,0,6.8-0.4,10.2-1.3c3.5-0.9,7.5-2.4,12.2-4.5v20.8c-8.3,3.9-17.2,5.7-26.9,5.7
		c-10.6,0-18.7-3.2-24.4-9.5c-5.7-6.3-8.6-15.4-8.6-27c0-11.4,2-21.8,6.2-31.3c4.1-9.5,9.8-16.7,16.8-21.5
		c7.1-4.8,15.2-7.3,24.4-7.3c10.8,0,20.6,2.8,29.3,8.4l-9,19.6c-3.8-2.4-7.3-4.1-10.4-5.3C235.7,98.2,232.4,97.6,229,97.6z"/>
	<path class="st1" d="M325.2,106.3c0,10.8-3.5,19.3-10.4,25.4c-7,6.2-16.5,9.2-28.7,9.2h-5.2l-6.1,31.2h-23.9l18.8-93.9h22.8
		c10.5,0,18.7,2.4,24.3,7.3C322.4,90.3,325.2,97.3,325.2,106.3z M285.2,120.4h3.9c3.7,0,6.7-1.3,9-3.8s3.4-5.7,3.4-9.5
		c0-2.5-0.7-4.5-2.2-6.1c-1.5-1.5-3.5-2.3-6.1-2.3h-3.6L285.2,120.4z"/>
	<path class="st1" d="M374.2,154.5h-27.3l-7.6,17.6h-24.8l45.4-93.9h30.7l7.5,93.9h-23.2L374.2,154.5z M355.5,134.4h17.9l-1.1-27.2
		l-0.1-5.5c0-3.2,0.1-6,0.2-8.4c-1,3.7-2.2,7.2-3.7,10.7L355.5,134.4z"/>
	<path class="st1" d="M441.4,113l19-34.8H487l-37.3,57.5l-7.4,36.4h-23.9l7.3-36.4l-14.4-57.5h24.6L441.4,113z"/>
</g>
</svg>
