<?xml version="1.0" encoding="utf-8"?>
<!-- Generator: Adobe Illustrator 23.0.1, SVG Export Plug-In . SVG Version: 6.00 Build 0)  -->
<svg version="1.1" id="Layer_1" xmlns="http://www.w3.org/2000/svg" xmlns:xlink="http://www.w3.org/1999/xlink" x="0px" y="0px"
	 viewBox="0 0 500 250" style="enable-background:new 0 0 500 250;" xml:space="preserve">
<style type="text/css">
	.st0{fill:none;}
</style>
<rect x="1.2" y="0" class="st0" width="500" height="250"/>
<g>
	<path d="M150.8,74.4c-10.3,10.1-4.4,15.5,3.1,22.8c14.9,14.5,16.3,37.7,5.4,54.8c-11.1,17.5-31.9,24.9-52.1,18.3
		c-4.3-1.4-6.7-1-8.4,3.4c-1.1,2.8-2.8,5.3-4.2,8c-0.6-0.1-1.2-0.1-1.8-0.2c0-1.5-0.5-3.2,0.1-4.5c4.3-9.8,4.3-9.8-3.2-17.4
		c-13.9-14-16.9-35-7.7-52.9c9-17.3,27.5-26.4,47-23c10.1,1.8,10.1,1.7,15.7-7.7c0.7-1.1,2.3-1.7,3.4-2.5
		C149,73.8,149.9,74.1,150.8,74.4z M121.2,168.5c17.2,0,32.3-10.5,37.9-26.4c6-16.9,0.9-35.1-12.6-46c-4.9-3.9-5.8-3.8-8.8,2
		c-9.2,17.8-18.3,35.6-27.4,53.5C102.9,165.9,104.6,168.5,121.2,168.5z M136.8,90.6c-2.1-0.8-3.7-1.6-5.5-2
		c-17.1-4.6-35.8,3.3-44.5,18.9c-9.3,16.7-6.3,37.6,7.4,50.4c4.8,4.4,6.2,4.2,9.2-1.6c10.4-20.2,20.8-40.3,31.1-60.5
		C135.3,94.3,135.9,92.7,136.8,90.6z"/>
	<path d="M391.6,86.1c13.2,28.5,25.9,56,38.7,83.5c-0.4,0.4-0.8,0.8-1.2,1.3c-1.5-1.3-3.6-2.2-4.5-3.9c-3.7-7.1-7.1-14.4-10.4-21.7
		c-1.5-3.3-3.5-4.5-7-4.4c-10.5,0.2-21,0.1-31.5,0c-3.5,0-5.6,1.2-7.1,4.5c-3.2,7.3-6.6,14.6-10.3,21.7c-0.9,1.6-3.1,2.6-4.7,3.8
		c-0.4-0.4-0.8-0.9-1.2-1.3C365.4,142,378.3,114.4,391.6,86.1z M392.6,99.2c-1.8,1.6-3.1,2.3-3.6,3.3c-4.7,9.8-9.4,19.6-13.9,29.4
		c-1.8,3.9,0.8,4.8,3.8,4.8c8.4,0.1,16.8,0.1,25.2,0c4.1,0,5.6-1.8,3.7-5.8c-3.2-6.7-6.3-13.4-9.5-20.2
		C396.5,107.2,394.7,103.5,392.6,99.2z"/>
	<path d="M250,86c13.4,28.8,26,56.2,38.7,83.5c-0.4,0.4-0.9,0.9-1.3,1.3c-1.5-1.3-3.6-2.4-4.4-4c-3.7-7.1-6.7-14.6-10.6-21.6
		c-1.1-2-4.2-4.1-6.4-4.1c-10.7-0.4-21.4-0.1-32.1-0.3c-3.7-0.1-5.5,1.5-6.9,4.7c-3.2,7.3-6.6,14.6-10.3,21.8
		c-0.8,1.5-2.8,2.5-4.3,3.6c-0.5-0.5-1-0.9-1.5-1.4C223.6,142.2,236.5,114.8,250,86z M249.8,136.8c4.2,0,8.4,0,12.6,0
		c3.9,0,5.9-1.3,3.8-5.6c-4.5-9.4-8.9-18.9-13.3-28.4c-1.7-3.6-3.8-3.9-5.5-0.4c-4.8,9.7-9.3,19.6-13.9,29.4c-1.4,3.1,0,4.8,3.2,4.9
		C241,136.9,245.4,136.8,249.8,136.8z"/>
	<path d="M301.8,169.5c0-27.8,0-55.7,0-84.8c12.2,0.7,24.2,0.5,35.9,2.3c10.3,1.6,15.5,11,14.6,22.7c-0.7,9.5-7.6,16.8-17.8,17.9
		c-7.6,0.8-15.2,1.1-22.9,1c-4.7-0.1-6,1.7-5.9,6c0.2,10.5,0.1,21,0,31.5c0,1.5-1.4,3-2.1,4.5C303.1,170.3,302.4,169.9,301.8,169.5z
		 M305.9,106.8c0,4.4-0.3,8.8,0.1,13.2c0.2,1.6,2,4.2,3.1,4.2c8,0.2,16.1,0.6,24-0.4c9.8-1.2,15.1-8.5,14.6-18
		c-0.5-8.8-6.9-15.2-16.4-15.9c-6.8-0.5-13.7-0.2-20.6-0.4c-3.9-0.1-5,1.8-4.9,5.3C306,98.8,305.9,102.8,305.9,106.8z"/>
	<path d="M22.3,170.3c12.4-26.8,24.4-52.8,36.9-79.8c-3-0.5-5.1-1.1-7.2-1.1c-7.6-0.1-15.3,0.1-22.9-0.2c-1.4,0-2.9-1.4-4.3-2.2
		c0.3-0.5,0.5-1.1,0.8-1.6c13.1,0,26.3,0,40.3,0c-1.1,2.6-2,4.8-3,7c-10.1,21.8-20.1,43.7-30.2,65.5c-3.3,7.2-2.7,8.2,5.1,8.3
		c7.6,0,15.3-0.1,22.9,0.1c1.6,0,3.1,1.2,4.6,1.8c-1.4,0.7-2.9,2-4.3,2C48.4,170.3,35.8,170.3,22.3,170.3z"/>
	<path d="M451.3,123c2-2.4,3.6-4,4.7-5.8c5.8-9.4,11.4-19,17.4-28.3c1.1-1.8,3.4-2.9,5.1-4.3c0.5,0.5,1,1,1.5,1.4
		c-5.3,8.8-10,18-16,26.3c-8.1,11.1-11.3,22.9-10,36.4c0.6,5.9,0.3,11.8,0,17.8c-0.1,1.4-1.5,2.8-2.4,4.2c-0.6-0.3-1.2-0.6-1.8-0.8
		c0-11.8,0.2-23.6-0.1-35.4c-0.1-3.2-1.1-6.8-2.7-9.5c-7.6-13-15.7-25.7-23.5-38.6c0.4-0.5,0.8-1,1.1-1.4c1.7,1.2,4,2.1,5,3.7
		c6.1,9.5,11.9,19.1,17.8,28.7C448.4,118.8,449.5,120.3,451.3,123z"/>
	<path d="M192.5,169.6c0-6,0-12.1,0-18.2c0-18.5-0.1-37.1,0.1-55.6c0-4.6-1.5-6.8-6.3-6.4c-3.4,0.3-6.9,0.2-10.3,0
		c-1.2-0.1-2.2-1.3-3.3-2c1-0.7,2-2.1,3.1-2.1c13.5-0.1,27.1-0.1,40.6-0.1c0.3,0.6,0.6,1.1,0.9,1.7c-1.2,0.9-2.4,2.3-3.7,2.5
		c-3.2,0.4-6.5,0.4-9.7,0.1c-5.1-0.5-7,1.3-6.9,6.7c0.3,23.1,0.1,46.2,0.1,69.3C197,168.2,197.4,171.3,192.5,169.6z"/>
	<path d="M268.5,212.9c-16,0-31.9,0-47.9,0c0-0.4,0-0.7,0-1.1c16,0,31.9,0,47.9,0C268.6,212.1,268.6,212.5,268.5,212.9z"/>
	<path d="M268.2,38.6c-14.8,0-29.6,0-44.4,0c-1.1,0-2.1-0.3-3.2-1.4c16,0,32,0,47.9,0C268.5,37.6,268.4,38.1,268.2,38.6z"/>
</g>
</svg>
