<?xml version="1.0" encoding="utf-8"?>
<!-- Generator: Adobe Illustrator 23.0.1, SVG Export Plug-In . SVG Version: 6.00 Build 0)  -->
<svg version="1.1" id="Layer_1" xmlns="http://www.w3.org/2000/svg" xmlns:xlink="http://www.w3.org/1999/xlink" x="0px" y="0px"
	 viewBox="0 0 500 250" style="enable-background:new 0 0 500 250;" xml:space="preserve">
<style type="text/css">
	.st0{fill:none;}
	.st1{fill:url(#path62_1_);}
	.st2{fill:#231F20;}
</style>
<rect x="-0.1" y="0.7" class="st0" width="500" height="250"/>
<g>
	<g id="g50">
		
			<linearGradient id="path62_1_" gradientUnits="userSpaceOnUse" x1="-516.3495" y1="-18.4121" x2="-515.7029" y2="-18.4121" gradientTransform="matrix(132.5525 0 0 -132.5525 68453.1641 -2315.9851)">
			<stop  offset="0" style="stop-color:#FAA61A"/>
			<stop  offset="1" style="stop-color:#FFE100"/>
		</linearGradient>
		<path id="path62" class="st1" d="M9.7,124.6c0,23.7,19.2,42.9,42.9,42.9s42.9-19.2,42.9-42.9S76.3,81.7,52.6,81.7
			S9.7,100.9,9.7,124.6"/>
	</g>
	<path id="XMLID_16_" class="st2" d="M20.5,96.2c20.7-1.8,43.4-1.8,64.1,0c-7.9-8.9-19.3-14.4-32.1-14.4
		C39.8,81.7,28.4,87.3,20.5,96.2L20.5,96.2z"/>
	<path id="XMLID_15_" class="st2" d="M85.1,152.6c-20.1,1.6-44,1.7-65,0c7.9,9.1,19.5,14.9,32.5,14.9S77.2,161.7,85.1,152.6
		L85.1,152.6z"/>
	<path id="XMLID_14_" class="st2" d="M11.1,113.7c27.9-0.5,55.1-0.6,82.9,0c0.9,3.5,1.4,7.1,1.4,10.9c0,3.3-0.4,6.5-1,9.5
		c-28.2,0.8-56,0.6-83.6,0c-0.7-3-1-6.2-1-9.5C9.7,120.9,10.2,117.2,11.1,113.7L11.1,113.7z"/>
	<g id="g16">
		<path id="path22" class="st2" d="M465.5,108.1c-0.1,0-0.2,0.1-0.2,0.2v1.9c0,0.1,0.1,0.2,0.2,0.2h3.5v11.8c0,0.1,0.1,0.2,0.2,0.2
			h1.9c0.1,0,0.2-0.1,0.2-0.2v-11.9h3.5c0.1,0,0.2-0.1,0.2-0.2v-1.9c0-0.1-0.1-0.2-0.2-0.2"/>
		<path id="path24" class="st2" d="M322.2,90.4c0,3.8,3,6.8,6.9,6.8c3.8,0,6.9-3,6.9-6.8s-3.1-6.8-6.9-6.8
			C325.3,83.6,322.2,86.6,322.2,90.4"/>
		<path id="path26" class="st2" d="M357.9,112.7l-0.4,0.2l-0.8-2.4c-0.3-0.8-1.1-1.4-1.9-1.4h-4.4c-1.2,0-2,0.9-2,2.1v56.2
			c0,1.2,0.9,2.1,2,2.1h7.9c1.2,0,2.1-0.9,2.1-2.1v-45.6l0.2-0.1c3.3-1.7,6.5-2.7,12.9-2.7c7.7,0,9.2,2.8,9.2,7.5v40.8
			c0,1.2,0.9,2,2,2h7.9c1.2,0,2-0.9,2-2v-40.5c0-12.3-7.3-19-21.2-19C368.2,108,363.1,109.6,357.9,112.7"/>
		<path id="path28" class="st2" d="M335,111.2c0-1.2-0.9-2.1-2-2.1h-7.7c-1.2,0-2,0.9-2,2.1v56.2c0,1.2,0.9,2,2,2h7.6
			c1.2,0,2.1-0.9,2.1-2"/>
		<path id="path30" class="st2" d="M308.8,83.1c0-1.2-0.9-2.1-2.1-2.1h-7.6c-1.2,0-2.1,0.9-2.1,2.1v84.3c0,1.2,0.9,2,2.1,2h7.6
			c1.2,0,2.1-0.9,2.1-2"/>
		<path id="path32" class="st2" d="M190.9,133.9c0.6-7.7,2.6-14.9,13.5-14.9c9.4,0,11.2,5.1,11.4,14.9v0.4h-24.9
			C190.9,134.4,190.9,133.9,190.9,133.9z M178.7,139.3c0,7.7,0,31.3,25.6,31.3c7.7,0,12.8-0.4,19.4-2.6c0.7-0.2,1.3-1.1,1.3-1.9
			v-6.3c0-0.7-0.3-1.4-0.9-1.7c-0.5-0.4-1.3-0.3-1.9-0.2c-5.8,1.2-10.3,1.6-17.7,1.6c-10.7,0-12.8-6.8-13.5-14.1v-0.4h34.9
			c1.2,0,2.1-0.9,2.1-2v-3.6c0-15.2-1.8-31.3-23.4-31.3C178.7,108,178.7,131.6,178.7,139.3"/>
		<path id="path34" class="st2" d="M249.2,133.9c0.5-7.7,2.6-14.9,13.5-14.9c9.3,0,11.2,5.1,11.4,14.9v0.4h-24.9V133.9z
			 M237.1,139.3c0,7.7,0,31.3,25.7,31.3c7.7,0,12.8-0.4,19.4-2.6c0.7-0.2,1.3-1.1,1.3-1.9v-6.3c0-0.7-0.3-1.4-0.9-1.7
			c-0.5-0.4-1.3-0.3-1.9-0.2c-5.8,1.2-10.3,1.6-17.7,1.6c-10.7,0-12.8-6.8-13.5-14.1v-0.4h34.9c1.2,0,2-0.9,2-2v-3.6
			c0-15.2-1.8-31.3-23.4-31.3C237.1,108,237.1,131.6,237.1,139.3"/>
		<path id="path36" class="st2" d="M417.1,133.9c0.5-7.7,2.6-14.9,13.5-14.9c9.4,0,11.2,5.1,11.4,14.9v0.4h-24.9V133.9z M405,139.3
			c0,7.7,0,31.3,25.6,31.3c7.7,0,12.8-0.4,19.4-2.6c0.7-0.2,1.2-1.1,1.2-1.9v-6.3c0-0.7-0.3-1.4-0.9-1.7c-0.6-0.4-1.3-0.3-1.9-0.2
			c-5.8,1.2-10.3,1.6-17.7,1.6c-10.7,0-12.8-6.8-13.5-14.1l-0.1-0.4h34.9c1.2,0,2-0.9,2-2v-3.6c0-15.2-1.8-31.3-23.4-31.3
			C405,108,405,131.6,405,139.3"/>
		<path id="path38" class="st2" d="M140.7,129.4c12.1,0,16.5,3.7,16.5,14.1c0,7-2,14.1-16.7,14.1h-17.6v-28.2L140.7,129.4
			L140.7,129.4z M139.8,92.6c12.8,0,14.6,6.1,14.6,12.7c0,8.3-4.4,12.5-13.6,12.5h-17.9v-25L139.8,92.6L139.8,92.6z M112.6,80.7
			c-1.3,0-2.2,0.9-2.2,2.2v84.4c0,1.3,0.9,2.2,2.2,2.2H140c19.6,0,30.5-9.2,30.5-26c0-9.1-4.4-16.9-11.7-20.8c0,0-0.2-0.1-0.3-0.2
			c0.1-0.1,0.3-0.2,0.3-0.2c5.7-4.1,9-10.3,9-17.2c0-9.2-3.7-24.5-28.4-24.5"/>
		<path id="path40" class="st2" d="M487.7,108.1c-0.1,0-0.1,0.1-0.2,0.1c0,0-3.6,8.2-3.9,9.1c-0.3-0.8-3.9-9.1-3.9-9.1
			c0-0.1-0.1-0.1-0.2-0.1h-2.3c-0.1,0-0.2,0.1-0.2,0.2v13.8c0,0.1,0.1,0.2,0.2,0.2h1.9c0,0,0.1,0,0.1-0.1l0.1-0.1c0,0-0.1-8-0.1-9.7
			c0.6,1.5,3.5,8,3.5,8c0,0.1,0.1,0.1,0.2,0.1h1.5c0.1,0,0.1,0,0.2-0.1c0,0,2.8-6.4,3.5-8c0,1.7-0.1,9.7-0.1,9.7c0,0.1,0,0.1,0,0.1
			l0.1,0.1h1.9c0.1,0,0.2-0.1,0.2-0.2v-13.8c0-0.1-0.1-0.2-0.2-0.2"/>
	</g>
</g>
</svg>
