<?xml version="1.0" encoding="utf-8"?>
<!-- Generator: Adobe Illustrator 23.0.1, SVG Export Plug-In . SVG Version: 6.00 Build 0)  -->
<svg version="1.1" id="Layer_1" xmlns="http://www.w3.org/2000/svg" xmlns:xlink="http://www.w3.org/1999/xlink" x="0px" y="0px"
	 viewBox="0 0 500 250" style="enable-background:new 0 0 500 250;" xml:space="preserve">
<style type="text/css">
	.st0{fill:none;}
	.st1{fill:#00633A;}
</style>
<rect x="-0.5" y="1.1" class="st0" width="500" height="250"/>
<g>
	<g>
		<path class="st1" d="M57.3,144.1c0-12.2,0-14.1,0-21.4c-3.4-5.9-0.2-0.3-3.6-6.2h15v20.5c5,0,9.8,0,14.7,0c-3.7,6.7-0.1,0.2-3.8,7
			C74.6,144.1,65.3,144.1,57.3,144.1"/>
		<path class="st1" d="M131.5,144.1V123c-3.6-6.2-0.2-0.2-3.7-6.3h21.3c7.9,12.6,0.2,0.4,7.9,12.8v-12.8h9.4v27.5h-14.8
			c-10.5-16.6-0.2-0.4-10.6-16.7c0,5.6,0,8.1,0,16.7C136.8,144.1,135.1,144.1,131.5,144.1"/>
		<path class="st1" d="M397.8,144.1c-6.8-11-0.2-0.3-7-11.3c0,3.9,0,7,0,11.3c-3.9,0.1-7.4,0-11.2,0c0-5.4,0-14.1,0-21.4
			c-3.4-5.8-0.2-0.2-3.7-6.1h14.8v15c4.5-4.9,9.1-10,13.6-15h7.9c-10.2,11.3-0.6,0.6-10.6,11.8c9.1,15.3,0.3,0.6,9.4,15.7H397.8"/>
		<path class="st1" d="M418,122.6c-3-5-0.2-0.3-3.6-5.9c10.5,0,21.1,0,31.5,0c3.6,5.8,0.2,0.3,3.8,6.1h-20.2v4.5h8.5v5.9
			c-2.8,0-5.7,0-8.5,0v5.1h20.3c-3,5.7-0.2,0.4-3,5.9H418L418,122.6"/>
	</g>
	<g>
		<path class="st1" d="M212.7,137.1c11.9,0,12.7,0,22.1,0c1.6-0.4,1.6-2.9,0.1-3.1c-17.7,0.2-21.9,0-22.2-8.3c-0.1-5.2,4-8.7,7.2-9
			c7.1,0,14.2,0,21.4,0c0.7,1.3,3.4,5.6,3.7,6.1h-18c-1.2,0.5-1.5,2.4,0,2.9c7.5,0,10.4,0,15,0c8.6,1.4,8.6,17.4-0.3,18.5h-24.6
			C213,137.6,216.9,143.8,212.7,137.1"/>
		<path class="st1" d="M196.6,116.7c-4.1-0.3-6.9-0.2-25.3-0.2c3.6,5.9,0.2,0.3,3.7,6.1c0,7.3,0,14.2,0,21.4
			c13.1,0,17.5,0.1,21.5-0.2c7.4-0.6,12.3-6.6,12.3-12.3C208.9,124.3,205.3,118.2,196.6,116.7 M186.5,138.1c0-6.2,0-10.7,0-15.4
			c6.8-0.4,10.1,1.3,10,8.6C196.2,136.9,193.7,138.7,186.5,138.1"/>
		<path class="st1" d="M333.6,144.1c-16.1-26.1-0.4-0.7-17-27.5h-20.1c3.8,5.9,0.2,0.3,3.9,6.1c-3.8,7.1-7.6,14.3-11.4,21.5h8.9
			c2.6-5.1,0.6-1.2,3-5.9h16.4c-2.9,5.3-0.3,0.6-3.2,5.9H333.6z M304.6,131.5c3.3-6.4,0.2-0.4,3.4-6.6c3.8,5.8,0.2,0.2,4.4,6.6
			H304.6z"/>
		<path class="st1" d="M54.4,144.1c-5.7-9.2-11.4-18.4-17.1-27.5c-6.7,0-13.4,0-20.1,0c3.8,6,0,0,3.8,6c-11.6,21.4-0.1,0-11.6,21.5
			l0,0c8.8,0.1,0,0,8.9,0c2.9-5.4,0.4-0.7,3.2-5.9h16.3c-2.9,5.4-0.2,0.2-3.2,5.9L54.4,144.1L54.4,144.1z M33,131.5
			c-7.4,0-0.6,0-7.9,0l0,0c3.5-6.4,0.2-0.5,3.8-6.9C32.9,131.1,33.1,131.4,33,131.5"/>
	</g>
	<g>
		<path class="st1" d="M128,144.1c-16.5-26.7-0.3-0.6-17.1-27.5c-7.8,0-9.8,0-20.1,0c3.4,5.5,0.2,0.3,3.8,6.1
			c-10.9,20.3-11.4,21.5-11.4,21.5H92c2.9-5.7,0.2-0.3,3-5.9c5.5,0,10.9,0,16.4,0c-2.8,5.3-0.4,0.7-3.1,6H128V144.1z M98.7,131.5
			c3.6-6.6,0.1-0.2,3.7-6.8c4.1,6.5,0.2,0.3,4.2,6.8C103,131.5,101.6,131.5,98.7,131.5"/>
	</g>
	<g>
		<path class="st1" d="M282,129.9v-0.2c3-1.4,4.2-4.2,4.1-7c-0.2-3.9-2.7-5.7-6.4-6.1c-9.8,0-12.8,0-29.5,0c3.5,5.8,0.2,0.2,3.7,6.1
			c0,7.4,0,13.3,0,21.5c10,0,15.8,0,27.3,0C289.9,143.2,288.9,130.8,282,129.9 M265.5,122.7c6.1,0.2,8.7-0.6,8.8,1.9
			c-0.2,3-3.4,2.2-8.8,2.3C265.5,125.5,265.5,124,265.5,122.7 M265.4,138.2v-5.3c7.2,0,9.8-0.4,10.1,2.8
			C275.3,138.8,272.5,138,265.4,138.2"/>
		<path class="st1" d="M22.4,114.2c-3.6-5.9,0,0-3.8-6.2c7.6,0,9,0,13.4,0c3.8,6.1,0.2,0.2,3.9,6.2H22.4"/>
	</g>
	<g>
		<path class="st1" d="M337.4,144.1V123c-3.5-6.2-0.2-0.2-3.7-6.3H355c7.9,12.6,0.2,0.4,8,12.8v-12.8h9.4v27.5h-14.8
			c-10.6-16.6-0.2-0.4-10.6-16.7c0,5.6,0,8.1,0,16.7C342.9,144.1,341,144.1,337.4,144.1"/>
		<path class="st1" d="M454.8,144.1V123c-3.6-6.2-0.2-0.2-3.7-6.3h21.3c7.8,12.6,0.2,0.4,7.9,12.8v-12.8h9.4v27.5h-14.8
			c-10.5-16.6-0.2-0.4-10.6-16.7c0,5.6,0,8.1,0,16.7C460.2,144.1,458.4,144.1,454.8,144.1"/>
	</g>
</g>
</svg>
