<?xml version="1.0" encoding="utf-8"?>
<!-- Generator: Adobe Illustrator 23.0.1, SVG Export Plug-In . SVG Version: 6.00 Build 0)  -->
<svg version="1.1" id="Layer_1" xmlns="http://www.w3.org/2000/svg" xmlns:xlink="http://www.w3.org/1999/xlink" x="0px" y="0px"
	 viewBox="0 0 500 250" style="enable-background:new 0 0 500 250;" xml:space="preserve">
<style type="text/css">
	.st0{fill:none;}
	.st1{fill:#F48120;}
</style>
<rect x="0" y="0" class="st0" width="500" height="250"/>
<g transform="matrix(1.333333 0 0 -1.333333 -60.978398 392.52746)">
	<path class="st1" d="M152.7,232.3h-36.3c-5.7,0-11.3,0-16.3-2.5c-5-2.5-9.4-7.6-12.8-17.7c-0.7-2.2-1.1-4.1-1.2-5.7
		c-0.1-1.6,0.2-3,0.9-4.2c0.8-1.5,2-2.9,3.5-4c1.5-1.2,3.4-2.1,5.4-2.7c0.1,0,1.1-0.3,2.4-0.7l3.7-1.1c0.5-0.2,1.2-0.4,1.7-0.7
		c0.5-0.3,1-0.8,1.3-1.4c0.2-0.4,0.3-0.8,0.3-1.3c0-0.5-0.1-1-0.3-1.5c-0.5-1.4-1.2-2.3-2.5-2.8c-1.3-0.5-3.3-0.7-6.3-0.7H59
		L53.1,169h40c3.8,0,10.6,0,17.3,2.8c6.6,2.8,12.9,8.4,15.6,19.7c1,4.2,0.7,7.7-1,10.4c-1.7,2.7-4.7,4.7-9,5.9l-2.1,0.6l-3.1,0.9
		c-1.1,0.3-2,1-2.5,1.8c-0.5,0.8-0.7,1.8-0.4,2.8c0.3,1.1,1,1.9,2.1,2.5c1,0.6,2.4,0.9,4,0.9h23.2c0.2,0.2,0.3,0.5,0.5,0.7
		C141.9,224,147.1,228.9,152.7,232.3"/>
	<path class="st1" d="M152.7,232.4h-36.3c-5.7,0-11.3,0-16.3-2.5c-5-2.5-9.4-7.6-12.8-17.7c-0.7-2.2-1.1-4-1.2-5.7
		c-0.1-1.6,0.2-3,0.9-4.2c0.8-1.5,2-2.9,3.5-4c1.6-1.2,3.4-2.1,5.4-2.7l2.4-0.7l3.7-1.1c0.5-0.2,1.1-0.4,1.7-0.7
		c0.5-0.3,1-0.8,1.3-1.4c0.2-0.4,0.3-0.8,0.3-1.3c0-0.5-0.1-1-0.3-1.5c-0.5-1.4-1.2-2.3-2.5-2.8c-1.3-0.5-3.3-0.7-6.3-0.7H59
		l-5.9-16.2h40c3.8,0,10.6,0,17.2,2.8c6.6,2.8,12.9,8.4,15.6,19.7c1,4.2,0.7,7.7-1,10.4c-1.7,2.7-4.7,4.7-9,5.9l-2.1,0.6l-3.1,0.9
		c-1.1,0.3-2,1-2.5,1.8c-0.5,0.8-0.7,1.8-0.4,2.8c0.3,1.1,1,1.9,2.1,2.5c1,0.6,2.4,0.9,4,0.9h23.2c0.2,0.2,0.3,0.5,0.5,0.7
		C141.9,224.1,147.1,229,152.7,232.4 M350.3,232.3c1.2-1,2.3-2.1,3.2-3.4c2.3-3.3,3.2-7.2,2.6-11.6h11.7L350.2,169h17.6l17.6,48.3
		h22.5l5.5,15H350.3z"/>
	<path class="st1" d="M332.4,212.1c-1.9-5.1-5.3-8.2-11.7-8.2h0l-3.3,0l5.7,15.3h3.2C332.2,219.2,334.4,217.5,332.4,212.1
		 M349.4,226.1c-2.9,4.2-8.8,6.2-18,6.2h-21.3L287.1,169h19.6l8.4,22.3c0.4-0.9,5.3-22.3,5.3-22.3H341c0,0-3.7,15.7-6.5,22
		c-0.7,1.6-1.4,3.5-2.4,5c5.8,2.2,14.2,6.8,17.7,16.2C351.9,218,351.8,222.7,349.4,226.1 M169.7,201c-5.4-14.8-9.4-18.6-15.3-18.6h0
		c-5.8,0-7.8,3.7-2.4,18.4c4,11,9.3,18.1,15.6,18.1h0C173.6,218.9,175,215.4,169.7,201 M188.3,226.4c-3.2,4.5-8.6,6.8-16.1,6.8
		c-4.9,0-9.7-1.1-14.2-3.2c-6.4-3-12.2-8.1-17-14.8c-3.1-4.4-5.7-9.4-7.8-15.1c-3.9-10.7-3.8-19.3,0.1-25c2.3-3.2,7-7.1,16.5-7.1h0
		c17.4,0,30.4,11.4,38.6,33.9C190.7,207.8,193.6,218.9,188.3,226.4 M257.8,232.3h-37c-10.3,0-18-5.2-21.7-15L181.6,169h19.2l9,24.8
		l17,0l4.8,13.3l-17,0l2.7,7.7c0.6,1.4,1.9,2.5,3.9,2.5l20.1,0c0.2,0.2,0.3,0.5,0.5,0.7C246.2,224,252.2,228.9,257.8,232.3
		 M274.7,201c-5.4-14.8-9.4-18.6-15.3-18.6h0c-5.8,0-7.8,3.7-2.4,18.4c4,11,9.3,18.1,15.6,18.1h0C278.6,218.9,279.9,215.4,274.7,201
		 M293.3,226.4c-3.2,4.5-8.6,6.8-16.1,6.8c-4.9,0-9.7-1.1-14.2-3.2c-6.4-3-12.2-8.1-17-14.8c-3.1-4.4-5.7-9.4-7.8-15.1
		c-3.9-10.7-3.9-19.3,0.1-25c2.3-3.2,7-7.1,16.5-7.1h0c17.4,0,30.4,11.4,38.6,33.9C295.6,207.8,298.5,218.9,293.3,226.4"/>
	<path class="st1" d="M350.3,232.4c1.2-1,2.3-2.1,3.2-3.4c2.3-3.3,3.1-7.2,2.6-11.6h11.7L350.2,169h17.6l17.6,48.3h22.6l5.5,15
		H350.3z M332.4,212.2c-1.9-5.1-5.3-8.2-11.7-8.2h0l-3.3,0l5.7,15.3h3.2C332.2,219.3,334.4,217.6,332.4,212.2 M349.4,226.2
		c-2.9,4.2-8.8,6.2-18,6.2h-21.3l-23-63.3h19.6l8.4,22.3c0.4-0.9,5.3-22.3,5.3-22.3H341c0,0-3.7,15.7-6.5,22c-0.7,1.6-1.4,3.5-2.4,5
		c5.8,2.2,14.2,6.8,17.7,16.2C351.9,218.1,351.8,222.7,349.4,226.2 M169.7,201c-5.4-14.8-9.4-18.6-15.3-18.6h0
		c-5.8,0-7.8,3.7-2.4,18.4c4,11,9.3,18.1,15.6,18.1h0C173.6,219,175,215.5,169.7,201 M188.4,226.5c-3.2,4.5-8.6,6.8-16.1,6.8
		c-4.9,0-9.7-1.1-14.2-3.2c-6.4-3-12.2-8.1-17-14.8c-3.1-4.4-5.7-9.4-7.8-15.1c-3.9-10.7-3.9-19.3,0.1-25c2.3-3.2,7-7.1,16.5-7.1h0
		c17.4,0,30.4,11.4,38.6,33.9C190.7,207.9,193.6,219,188.4,226.5 M257.8,232.4h-37c-10.3,0-18-5.2-21.7-15l-17.6-48.3h19.2l9,24.8
		l17,0l4.8,13.3l-17,0l2.7,7.7c0.6,1.4,1.9,2.5,3.9,2.5l20.1,0c0.2,0.2,0.3,0.5,0.5,0.7C246.2,224.1,252.2,229,257.8,232.4
		 M274.7,201c-5.4-14.8-9.4-18.6-15.3-18.6h0c-5.8,0-7.8,3.7-2.4,18.4c4,11,9.3,18.1,15.6,18.1h0C278.6,219,280,215.5,274.7,201
		 M293.3,226.5c-3.2,4.5-8.6,6.8-16.1,6.8c-4.9,0-9.7-1.1-14.2-3.2c-6.4-3-12.2-8.1-17-14.8c-3.1-4.4-5.7-9.4-7.8-15.1
		c-3.9-10.7-3.9-19.3,0.1-25c2.3-3.2,6.9-7.1,16.5-7.1h0c17.4,0,30.4,11.4,38.6,33.9C295.7,207.9,298.5,219,293.3,226.5"/>
</g>
</svg>
