<?xml version="1.0" encoding="utf-8"?>
<!-- Generator: Adobe Illustrator 23.0.1, SVG Export Plug-In . SVG Version: 6.00 Build 0)  -->
<svg version="1.1" id="Layer_1" xmlns="http://www.w3.org/2000/svg" xmlns:xlink="http://www.w3.org/1999/xlink" x="0px" y="0px"
	 viewBox="0 0 500 250" style="enable-background:new 0 0 500 250;" xml:space="preserve">
<style type="text/css">
	.st0{fill:none;}
	.st1{fill-rule:evenodd;clip-rule:evenodd;fill:#EF3120;}
	.st2{fill:none;stroke:#EF3120;stroke-width:0.6103;stroke-linecap:round;}
</style>
<rect x="0.1" y="0" class="st0" width="500" height="250"/>
<g>
	<polyline class="st0" points="9.9,55.1 490.1,55.1 490.1,194.9 9.9,194.9 	"/>
	<path id="path10405" class="st1" d="M349.3,167.6H376V93.3h-26.7V167.6"/>
	<g id="g10407" transform="scale(1.00202,0.997979)">
		<path id="path10409" class="st2" d="M348.6,167.9h26.7V93.4h-26.7V167.9"/>
	</g>
	<path id="path10411" class="st1" d="M377.3,70.3c0-8.1-6.6-14.6-14.7-14.6c-8.1,0-14.7,6.5-14.7,14.6c0,8.1,6.6,14.6,14.7,14.6
		C370.7,84.9,377.3,78.4,377.3,70.3L377.3,70.3L377.3,70.3"/>
	<g id="g10413" transform="scale(1.00202,0.997979)">
		<path id="path10415" class="st2" d="M376.5,70.4c0-8.1-6.6-14.6-14.6-14.6c-8.1,0-14.6,6.6-14.6,14.6c0,8.1,6.6,14.6,14.6,14.6
			C370,85.1,376.5,78.5,376.5,70.4L376.5,70.4L376.5,70.4"/>
	</g>
	<g id="g10419" transform="scale(1.00202,0.997979)">
		<path id="path10421" class="st2" d="M462.6,60.8v32.7l-30.1,0c-31.3,0-46.2,16.7-46.2,37.2c0,20.6,14.9,37.2,46.2,37.2l56.7,0
			V60.8H462.6L462.6,60.8"/>
	</g>
	<path class="st1" d="M463.5,60.7L463.5,60.7v32.6l-30.1,0c-31.4,0-46.3,16.6-46.3,37.1c0,20.5,14.9,37.1,46.3,37.1l56.8,0V60.7
		H463.5z M463.6,143.2l-33.6,0c-8.7,0-15.9-4.1-15.9-12.8v0c0-8.6,8.4-12.8,17.8-12.8l31.7,0V143.2z"/>
	<g id="g10425" transform="scale(1.00202,0.997979)">
		<path id="path10427" class="st2" d="M462.6,143.5l-33.5,0c-8.7,0-15.8-4.2-15.8-12.8v0c0-8.6,8.4-12.8,17.7-12.8l31.6,0
			L462.6,143.5"/>
	</g>
	<g id="g10431" transform="scale(1.00202,0.997979)">
		<path id="path10433" class="st2" d="M291.7,93.5l-56.7,0v101.3h26.7V168l30.1,0c31.3,0,46.2-16.7,46.2-37.2S323,93.5,291.7,93.5
			L291.7,93.5"/>
	</g>
	<path class="st1" d="M292.3,93.3L292.3,93.3l-56.8,0v101.1h26.7v-26.8l30.1,0c31.4,0,46.3-16.6,46.3-37.1S323.6,93.3,292.3,93.3z
		 M311.5,130.5L311.5,130.5c0,8.6-8.4,12.8-17.8,12.8l-31.7,0v-25.5l33.6,0C304.3,117.7,311.4,121.8,311.5,130.5L311.5,130.5
		L311.5,130.5L311.5,130.5z"/>
	<g id="g10437" transform="scale(1.00202,0.997979)">
		<path id="path10439" class="st2" d="M310.8,130.8L310.8,130.8c0,8.6-8.4,12.8-17.7,12.8l-31.6,0V118l33.5,0
			C303.6,117.9,310.8,122.1,310.8,130.8L310.8,130.8L310.8,130.8L310.8,130.8L310.8,130.8"/>
	</g>
	<g id="g10443" transform="scale(1.00202,0.997979)">
		<path id="path10445" class="st2" d="M163.6,93.5c-31.3,0-46.2,16.7-46.2,37.2s14.9,37.2,46.2,37.2l56.7,0V93.5L163.6,93.5
			L163.6,93.5"/>
	</g>
	<path class="st1" d="M163.9,93.3c-31.4,0-46.3,16.6-46.3,37.1c0,20.5,14.9,37.1,46.3,37.1l56.8,0V93.3L163.9,93.3z M194.1,143.2
		L194.1,143.2l-33.6,0c-8.7,0-15.8-4.1-15.9-12.8h0v0h0c0-8.6,8.4-12.8,17.8-12.8l31.7,0V143.2z"/>
	<g id="g10455" transform="scale(1.00202,0.997979)">
		<path id="path10457" class="st2" d="M96.8,127.7c10.8-6.8,16-17.6,16-29.8c0-20.6-14.9-37.2-46.2-37.2l-56.7,0v64.3h0v43.1h26.7
			v-32.9l34.1,0l14.6,32.9h29.5L96.8,127.7L96.8,127.7"/>
	</g>
	<path class="st1" d="M97,127.4L97,127.4c10.8-6.8,16-17.6,16-29.7c0-20.5-14.9-37.1-46.3-37.1l-56.8,0v64.1h0v43h26.7v-32.9l34.2,0
		l14.6,32.9h29.5L97,127.4z M86,97.7L86,97.7L86,97.7L86,97.7L86,97.7c0,8.6-8.4,12.8-17.8,12.8l-31.7,0V85l33.6,0
		C78.8,84.9,86,89.1,86,97.7L86,97.7L86,97.7L86,97.7z"/>
	<g id="g10461" transform="scale(1.00202,0.997979)">
		<path id="path10463" class="st2" d="M85.8,97.9L85.8,97.9c0,8.6-8.4,12.8-17.7,12.8l-31.6,0V85.1l33.5,0
			C78.7,85.1,85.8,89.2,85.8,97.9L85.8,97.9L85.8,97.9L85.8,97.9L85.8,97.9"/>
	</g>
</g>
</svg>
