<?xml version="1.0" encoding="utf-8"?>
<!-- Generator: Adobe Illustrator 23.0.1, SVG Export Plug-In . SVG Version: 6.00 Build 0)  -->
<svg version="1.1" id="Layer_1" xmlns="http://www.w3.org/2000/svg" xmlns:xlink="http://www.w3.org/1999/xlink" x="0px" y="0px"
	 viewBox="0 0 500 250" style="enable-background:new 0 0 500 250;" xml:space="preserve">
<style type="text/css">
	.st0{fill:none;}
	.st1{fill:#D54D13;}
	.st2{fill:#FFFFFF;}
</style>
<rect x="0" y="0" class="st0" width="500" height="250"/>
<g>
	<path class="st1" d="M70.7,18c135.3,0,270.7,0,406,0c0,60.7,0,121.4,0,182.1c-0.2,17.3-16.3,31.8-33.3,31.9
		c-139.6,0.1-280.2,0-419.9,0c0-55.6,0-111.2,0-166.8c0-6-0.4-12.1,0.4-18c1.9-13,12-24.3,24.7-27.9C55.4,17.3,63.5,18.1,70.7,18z"
		/>
	<path class="st2" d="M109,61.2c0.4,3-2.3,5.7-5.3,5.7c-2.8,0.1-5.3-2.5-5.2-5.2c0-2.3,1.7-4.4,3.9-5.1
		C105.5,55.8,108.7,58,109,61.2z M166.5,86.3c2.4-2.4,4.5-5.1,6.7-7.7c2-2.4,4.1-4.7,6-7.3c-2.6,0-5.3-0.1-7.9,0.1
		c-1.5,0.1-2.2,1.1-3.1,2.1c-2.7,3.2-5.2,6.6-8,9.7c-1,1.2-2.1,0.9-3.4,1c-0.2-9.2,0-18.5-0.1-27.8c-2.6,0-5.2-0.2-7.9,0
		c-0.5,2-0.2,4.2-0.3,6.3c0,13.2,0,26.4,0,39.6c0.1,1,0.1,1.9,0.1,2.8c2.7,0.1,5.4,0.2,8.1,0c0-5-0.1-10.1,0-15.2
		c1.5,0.1,2.9-0.5,4,1c2.9,4,5.6,8.3,8.4,12.4c0.6,0.7,1.1,1.5,2.1,1.7c2.8,0.5,5.4,0.1,8.2,0.1c-0.7-1-0.9-2-1.7-2.9
		C173.9,97,170.5,91.3,166.5,86.3z M56.8,57.6c-0.8,2.3-0.2,5.1-0.3,7.4c4.6,0.2,9.4,0.1,14,0c0,1.6,0.2,3.1,0.2,4.6
		c-0.1,11.8,0,23.7,0,35.4c3,0.2,6,0.2,9,0c0-13.3,0-26.6,0-39.9c4.7-0.2,9.6-0.1,14.3,0c0.1-2.6,0.1-5.1,0-7.7
		C81.6,57.7,69.2,57.5,56.8,57.6z M234.7,98.2c-1.4-0.1-3,1.2-4.5,0.9c-1.4-0.4-2.2-1.7-2.2-3.1c-0.1-6.1,0-12.1,0-18.2
		c3-0.1,5.9,0,8.9-0.1c0-1.9,0-3.9,0-5.8c-3-0.1-5.9,0-8.9-0.1c0-3.6,0.1-7.1,0-10.6c-1.6,0.2-4.6-0.6-5.8,0.7c-0.9,2.2-1,4.7-1.5,7
		c-0.2,0.9-0.4,1.9-0.5,2.8c-1.9,0.3-3.6,0.8-5.6,0.9c0.1,1.4-0.5,3.8,0.8,4.8c1.3,0.5,3,0.4,4.4,0.4c0,5.8,0,11.7,0,17.6
		c0,2.1,0,4.1,1,6c1,2,2.9,3.5,5.1,4c4.3,0.9,8.4,0.1,11.9-2.5C236.9,101.4,236.3,99.2,234.7,98.2z M140,96.5
		c-1.4-0.4-2.6,0.8-3.7,1.4c-2.1,1.5-4.9,1.7-7.3,1.1c-2.5-0.7-4.2-2.7-5.1-5.1c-1.1-3.2-1.2-6.9-0.3-10.2c0.6-2.2,1.7-4.2,3.7-5.4
		c2.7-1.5,6.2-1.4,8.8,0.2c0.9,0.4,2.2,1.5,3.3,1.2c1.8-0.8,2.4-2.7,3.5-4c-1.7-1.5-3.4-2.9-5.6-3.6c-5.5-2-12.4-1.3-17,2.5
		c-2.9,2.3-4.7,6.1-5.3,9.7c-0.9,4.8-0.3,10.2,2.2,14.4c1.9,3.3,5.1,5.8,8.8,6.7c6.3,1.2,13,0,17.3-5.1
		C142.1,98.8,141.5,97.4,140,96.5z M107.6,71.3c-2.7,0.1-5.3-0.2-7.9,0.1c-0.2,2.2-0.1,4.5-0.1,6.8c0,8.9,0,17.9,0,26.9
		c2.7,0.2,5.4,0.2,8.1,0c0.2-10.2,0-20.5,0.1-30.7C107.8,73.4,107.5,72.4,107.6,71.3z M211.3,86.8c-0.1,0.9-0.1,1.8-0.8,2.4
		c-2,0.4-4.1,0.2-6.2,0.2c-5.3,0-10.4,0-15.7,0c0.1,3.6,1.3,7.1,4.7,8.9c3.1,1.5,7.3,1.2,10.2-0.5c1.3-0.6,2.9-1.8,4.3-1.2
		c1.5,0.9,2.1,2.3,3.1,3.6c-3.4,4-9,5.6-14.1,5.5c-4.5,0.1-8.9-1.5-11.9-4.8c-3.6-3.9-4.9-9.5-4.6-14.6c0.4-5.1,2.8-10.2,7.3-12.9
		c5.3-3.3,12.9-3.3,18,0.3C209.9,76.7,211.5,81.8,211.3,86.8z M203.9,84.2c-0.3-2.8-1.1-5.3-3.7-6.6c-3.2-1.4-7.7-0.8-9.7,2.2
		c-1,1.3-1.2,2.8-1.7,4.4C193.8,84.4,198.9,84.4,203.9,84.2z M297.3,123.2c0.3,4-3,7.6-6.9,8.1c-4.3,0.6-8.5-3.3-8.4-7.6
		c-0.1-3.3,2.1-6.3,5.1-7.5C291.9,114.6,297.2,118.2,297.3,123.2z M114,135.1c0.5,6-0.7,12.4-4.1,17.5c-3.3,5-8.6,8.3-14.3,9.9
		c-5.6,1.5-10.9,1.4-16.6,1.3c-1.1-0.1-1.9,0.3-2.9,0.2c0,0.5,0,1,0,1.5c-0.9,7.7-2,15.9-2.9,23.5c-4.3,0.1-8.5,0-12.8,0
		c0.3-5.7,1.3-11.4,1.9-17.1c2.2-18.3,4.4-35.9,6.6-54.1c1.4-0.2,2.9-0.1,4.4-0.1c6.3,0,12.7,0,19.1,0c5.4,0.1,11.3,1.5,15.5,4.9
		C111.7,125.7,113.7,130.3,114,135.1z M101,136.7c-0.3-3.1-1.9-6-4.7-7.5c-3.3-2-7.3-1.4-11.1-1.5c-1.4,0-3.1-0.2-4.4,0.3
		c-1.1,8.5-2.2,17.1-3.2,25.6c1.7,0,3.4,0.1,5.1,0.1c3,0,6.2,0.2,9.1-0.7c3.4-1,6.3-3.4,7.8-6.7C100.8,143.3,101.3,139.9,101,136.7z
		 M424.2,145c-1.1-3.4-3.8-6.2-7.3-7.1c-3.6-0.8-7.6-0.4-11,1.3c-3.6,1.8-6.3,4.6-8.4,8c-0.4,0.7-1.1,1-1.3,1.8
		c-0.5-3.4-1.3-6.7-3.9-9.2c-2.9-2.7-7.5-2.8-11.1-1.7c-5,1.6-8.3,5.1-11.3,9.2c0-2,0.2-4.1,0.1-6.2c-0.1-1.4-1.1-2.5-2.4-2.8
		c-2.6-0.4-5.4-0.1-7.8-0.2c-2,16.9-4.1,33.8-6.2,50.7c4,0.2,8.1,0.1,12.1,0c0.6-4.3,0.9-8.6,1.5-12.9c0.7-4.9,0.9-10.1,2.1-14.9
		c1.2-3.6,2.8-7.3,5.3-10.1c1.9-2.1,4.5-3.9,7.5-3.5c1.5,0.2,2.6,1.1,3,2.6c0.6,2.6,0.2,5.5-0.1,8.1c-1.2,10.1-2.4,20.5-3.6,30.6
		c4,0.2,8.1,0,12.1,0.1c1-8.4,2-16.8,3-25.2c0.3-3.1,1.5-5.8,2.9-8.5c1.4-2.6,3.4-5.3,6.1-6.8c1.7-0.9,4.1-1.4,5.9-0.4
		c1.4,0.9,1.7,2.8,1.8,4.4c0,3.6-0.7,7.2-1,10.8c-1,10.8-2.7,21.5-3.6,32.3c4.3-0.9,8.3-2.9,10.9-6.5c2.2-3,2.6-6.3,3-9.8
		c0.9-6.7,1.5-13.4,2.4-20.1C425.4,154.4,425.8,149.8,424.2,145z M142.2,139.1c-3.5,1.8-6.4,5.2-8.4,8.6c-0.4,0.7-1,0.9-1.3,1.6
		c-0.2-2.8,0.2-5.6,0-8.5c-0.2-1.6-1.7-2.4-3.1-2.5c-2.3-0.1-4.7-0.2-7,0c-0.5,1.9-0.6,4-0.8,6c-1.9,14.9-3.7,29.8-5.5,44.7
		c4.1,0,8.1,0,12.1,0c0.7-6.6,1.6-13.3,2.3-19.9c0.4-3.7,1.6-7.4,3-10.8c1.5-3.3,3.8-6.8,7.3-8.2c2.5-1.1,5.4-0.4,7.9,0.4
		c0.6-3.9,1.5-7.8,2.1-11.7C148,137.9,145,137.6,142.2,139.1z M282.5,138.3c-0.7,0.8-0.6,2.7-0.8,3.9c-1.7,14.1-3.3,28.2-5.1,42.2
		c-0.3,1.5-0.2,3.1-0.5,4.6c4.1,0,8.1,0,12.2,0c1.5-12.8,3-25.7,4.6-38.6c0.4-4.1,1-8.1,1.3-12.2
		C290.3,138.3,286.4,138.1,282.5,138.3z M336.4,138.2c-1,6.7-1.6,13.8-2.5,20.6c-0.4,3-0.4,5.7-1.7,8.5c-2,4.6-5.2,9.5-10,11.6
		c-2,0.8-5.2,1.1-6.7-0.7c-1.4-1.7-1.3-4.5-1.1-6.6c1.2-11.1,2.7-22.2,3.9-33.3c-4,0-8.1-0.2-12.1,0c-0.3,0.6-0.4,1.3-0.5,1.9
		c-1.1,10-2.4,20-3.5,30.1c-0.4,4.3-0.5,8.6,1.4,12.6c1.4,3,3.9,5.3,7.1,6.3c4.3,1.1,8.8,0.3,12.7-1.8c3.7-1.9,6.2-4.9,8.9-8
		c0,2.4-0.4,4.8,0,7.1c0.2,1.2,1.4,1.9,2.5,2.2c2.6,0.6,5.3,0.2,7.8,0.3c2.2-16.8,4.1-33.8,6.2-50.7
		C344.5,138.2,340.4,138.3,336.4,138.2z M265.6,141.5c2.4,3.1,2.9,6.8,2.9,10.6c0,5.5-1,11-1.6,16.5c-0.7,6.8-1.8,13.6-2.3,20.5
		c-4.1,0.1-8.1,0-12.2,0c0.2-1.4,0.1-2.8,0.4-4.1c1.3-10.1,2.4-20.1,3.5-30.2c0.2-1.9,0.2-4.8-1.3-6.1c-1.9-1.6-4.9-0.8-6.8,0.3
		c-3.6,2.2-5.9,6.8-7.4,10.6c-1.4,3.4-1.1,6.5-1.7,10.1c-0.8,6.5-1.5,13-2.2,19.5c-4.1,0.1-8.1,0-12.1,0c1.2-11.5,2.7-22.9,4-34.4
		c0.1-1.9,0.2-4.4-1.1-5.9c-1-1.2-2.7-1.2-4.1-1c-2.9,0.6-5.1,2.7-6.8,5c-6,8.2-10.6,16.5-18.1,23.6c-6.1,5.7-13.7,10.4-21.9,12.6
		c-5.1,1-11.2,1.2-16-1.2c-4.2-1.9-7.5-5.6-9.1-9.9c-1.8-4.3-1.8-9.2-1.3-13.8c0.9-6.7,3.6-13.4,8.4-18.3c4.4-4.8,10.6-7.9,17.2-8
		c4-0.2,7.9,0.5,11.3,2.6c2.9,1.9,5.3,4.7,5.8,8.2c0.5,3.6-0.4,7.8-3,10.4c-2.6,2.7-6.4,4.4-9.9,5.5c-5.8,1.8-11.9,2.7-17.9,3.3
		c0,3.2,0.2,6.2,2.1,9c1.4,2,3.6,3.1,6,3.4c6.8,0.6,13.2-1.5,19.1-4.7c3.7-2.1,6.8-5.2,9.6-8.4c0.8-0.9,1-1.8,1.1-2.9
		c0.8-7.4,1.9-14.7,2.7-22.1c0.1-1.2,0.5-2.3,0.5-3.5c2.4,0.1,5.4-0.3,8,0.2c1.3,0.4,2.2,1.4,2.2,2.8c0.1,1.9,0,3.8,0,5.7
		c0.7-1,1.7-1.8,2.4-2.8c3.5-4.1,8.5-7,14.1-6.6c2.8,0.1,5.4,1.5,7,3.8c1.5,2,2,4.9,2.7,7.4c1.7-2.2,3.2-4.5,5.3-6.4
		c3.3-3.2,7.7-5,12.3-4.8C260.4,137.6,263.6,138.8,265.6,141.5z M163,159.8c3.6-0.4,7.2-1.1,10.7-2c2.4-0.7,5.4-1.7,7-3.8
		c1.4-1.7,1.6-4.7-0.2-6.2c-2-1.9-5.6-1.7-8-0.9C167.2,148.9,164.3,154.5,163,159.8z M197.3,184.9c-0.3,1.3-0.2,2.7-0.4,4.1
		c4.1,0,8.1,0,12.1,0c0.7-7.7,1.8-15.3,2.7-23c-3.9,4.7-7.3,9.7-11.3,14.3C199.3,181.7,197.5,183.1,197.3,184.9z M442.9,176.8
		c-1.4-1.5-3.3-2.1-5.3-2.1c-0.7,0-1.5,0.1-2.2,0.3c-4.5,1.2-6.8,6.4-4.9,10.6c1.3,2.9,4.1,4.5,7,4.5c1.5,0,3-0.4,4.4-1.4
		C445.9,186.2,446.4,179.9,442.9,176.8z M441.4,187.8L441.4,187.8L441.4,187.8c-1.2,0.8-2.4,1.2-3.8,1.2c-2.7,0-5.1-1.5-6.1-3.9
		c-0.8-1.8-0.8-3.8,0-5.6c0.8-1.8,2.3-3.1,4.2-3.6c0.7-0.2,1.3-0.2,1.9-0.2c1.2,0,3.1,0.3,4.5,1.8l0,0l0,0c1.4,1.2,2.2,3.2,2,5.3
		C444,185,443,186.8,441.4,187.8z M437.3,185.6c1.9,0,2.2-0.5,3.7-0.3c-0.6,2-3.7,2.4-5.8,1.4c-2.3-1.4-2.6-4.6-1.6-6.8
		c1.3-2.3,3.6-2.7,5.8-1.9c1.3,0.4,1.6,1,1.6,1.9c-1.3-0.4-2.8-0.7-4.2-0.5C433.9,180.1,434.1,185.3,437.3,185.6z"/>
</g>
</svg>
