<?xml version="1.0" encoding="utf-8"?>
<!-- Generator: Adobe Illustrator 23.0.1, SVG Export Plug-In . SVG Version: 6.00 Build 0)  -->
<svg version="1.1" id="Layer_1" xmlns="http://www.w3.org/2000/svg" xmlns:xlink="http://www.w3.org/1999/xlink" x="0px" y="0px"
	 viewBox="0 0 500 250" style="enable-background:new 0 0 500 250;" xml:space="preserve">
<style type="text/css">
	.st0{fill:none;}
	.st1{fill:#CC092F;}
</style>
<rect x="0" y="0.1" class="st0" width="500" height="250"/>
<g id="PROPORÇ_x2DC_AO_E_REGRAS">
	<path class="st1" d="M164.7,129.6c-3.7,0-7.4,0.8-9.7,1.9v-23c-3.6,1.4-7.4,3.2-10.6,5.8c-1.7,1.4-2.2,2.7-2.2,4.7v56.7
		c3.4,1.4,10.3,2.7,17,2.7c16.8,0,26.4-10.2,26.4-25.1C185.7,138.7,178.8,129.6,164.7,129.6z M160,168c-1.4,0-3.4,0-4.9-0.5v-25.8
		c1.8-1,4.2-1.4,7.4-1.4c6.5,0,9.8,4.5,9.8,12.9C172.4,161.9,168.4,168,160,168z M218.4,130c-6.1,0-9.7,2.4-13,6.6
		c-0.3-2.2-0.7-3.9-1.4-6.1c-1.3-0.4-3.4-0.5-5.3-0.5c-1.8,0-4,0.2-5.2,0.5v46.9c1.6,0.4,4.2,0.5,6.5,0.5c2.2,0,5-0.2,6.5-0.5v-23
		c0-9.1,4.8-14,11.2-14c1.1,0,3.1,0,4.2,0.2c0.7-3,0.8-7.4,0.2-10.3C221.3,130.3,219.5,130,218.4,130z M56.2,153v23.9
		c0,0.6,0.5,1,1,1h6.6v-30.6l-6.6,3.8C56.6,151.5,56.2,152.1,56.2,153z M62.9,94.3c-6.5,0-13.6,0.6-20.6,1.8c7.1-9.1,18.4-15,31-15
		c9.3,0,18.6,3.4,24.8,8.7c1.1,1,2,1,2.9,0.2c0.9-0.8,0.8-1.7-0.2-2.8c-8.2-9.4-20.2-15.8-34.2-15.6C48,71.9,32.3,83.6,26.3,99.8
		c-5.4,1.7-10.5,3.8-15,6.2c-1.2,0.7-1.7,1.5-1.2,2.6c0.4,1,1.3,1.3,2.5,1c3.8-1.1,7.8-2,11.8-3c-0.4,2.2-0.7,4.3-0.7,6.6
		c-0.3,15,7.7,29.1,19.9,36.9c1.2,0.8,2.2,0.8,3-0.2c0.7-1,0.6-1.8-0.4-2.7c-7.8-7-12.2-17.4-12.2-27.8c0-5.2,1-10.2,3-14.8
		c4.1-0.3,8.5-0.6,13.4-0.6c31.6,0,58.2,10.4,58.2,24.1c0,6.9-8.8,13.8-19.2,18.5c-2.5,1.1-2.8,1.9-2.4,3c0.3,1,1.5,1.4,2.8,1
		c18.2-6,32-15.8,32-27.7C121.9,106.7,95.9,94.3,62.9,94.3z M75.7,140.5l-8.8,5v32.3h9.4c1,0,1.7-0.7,1.7-1.7v-34.5
		C78,140.4,76.7,139.9,75.7,140.5z M467.4,129.4c-14.4,0-22.5,9.8-22.5,24.6c0,15,8.5,24.4,22.5,24.4c14.5,0,22.6-9.7,22.6-24.4
		C490,139.1,481.9,129.4,467.4,129.4z M467.4,168.2c-7.1,0-9.3-5.8-9.3-14.1c0-8.1,2.2-14.2,9.3-14.2c7.4,0,9.4,6,9.4,14.2
		C476.9,162.7,474.4,168.2,467.4,168.2z M342.1,129.4c-13.8,0-22.4,9.3-22.4,24.9c0,15.5,9,24.2,24.4,24.2c5.3,0,11-1,14.6-2.7
		c0.7-3,0.7-7,0-10c-4.8,1.4-8.8,2.2-13.3,2.2c-7.1,0-12.1-2.7-13.2-10.2h29.2c0.4-1.1,0.5-5,0.5-6.6
		C362.1,137.3,354.2,129.4,342.1,129.4z M332.3,148.3c1-5.7,4.3-9.1,9.5-9.1c5.8,0,8.1,3.9,8.3,9.1H332.3z M431.4,167.9
		c-6.5,0-10.6-5-10.6-14c0-8.5,3.4-14,10.7-14c3.1,0,5.3,0.5,8.2,1.7c0.8-3,2.4-6.2,4.6-9c-4-2.1-8-3.2-14.4-3.2
		c-14.2,0-22.4,10.1-22.4,24.6c0,15,8.4,24.6,22.9,24.6c5.3,0,10.2-1,14.1-3.1c-1.8-2.2-3.7-5.4-4.9-9
		C436,167.9,434.5,167.9,431.4,167.9z M242.2,129.4c-5-0.1-9.5,0.5-13.8,1.6c-0.8,3-0.7,7.1,0,10.2c5.4-1.3,8.4-1.4,11.8-1.4
		c6.6,0,9.8,2.7,9.8,8.2v0.5c-1.9-0.2-4.3-0.4-6-0.4c-11,0-20.4,3.9-20.4,14.5c0,11.9,8.5,15.9,20.8,15.9c5.8,0,12.1-1,17.9-2.8
		v-26.8C262.2,136,255.3,129.7,242.2,129.4z M249.9,167.9c-0.7,0.2-3.9,0.5-5.4,0.5c-5.9,0-9.1-1.8-9.1-5.9c0-4.2,3.2-5.8,9.1-5.8
		c1.9,0,4.2,0.2,5.4,0.3V167.9z M299.6,119.1v11.3c-2.2-0.6-4.7-0.7-6.7-0.7c-14.2,0-23.8,9.5-23.8,24.7c0,15.5,9.4,24.2,24.2,24.2
		c6.7,0,13.4-1,19.3-3v-67c-3.6,1.4-7.4,3.2-10.6,5.8C300.1,115.7,299.6,117.1,299.6,119.1z M299.6,167.3c-2.2,0.6-3.7,0.7-5.4,0.7
		c-8.5,0-11.8-5.6-11.8-13.7c0-9,3.4-14.5,11.7-14.5c2.5,0,4,0.3,5.6,0.7L299.6,167.3L299.6,167.3z M391.5,149.6l-5.2-2.2
		c-3-1.3-4.8-2.2-4.8-4.2c0-3,2.7-3.6,6.2-3.6c3.5,0,7.1,0.4,12.1,1.9c0.6-3.4,0.6-6.6,0-9.7c-3.1-1.7-8.9-2.5-14-2.5
		c-10,0-17.5,5.4-17.5,13.4c0,7.2,3.1,10.9,11.8,14.4l4,1.7c3.8,1.6,5,2.5,5,5c0,3.7-3.7,4.3-6.8,4.3c-5.2,0-9.1-1-14.1-2.8
		c-0.8,3-0.8,7,0,10.1c4.2,2.2,10.1,3,16.2,3c9.8,0,17.7-5.2,17.7-14.5C402.2,156.3,398.8,152.7,391.5,149.6z"/>
</g>
</svg>
