<?xml version="1.0" encoding="utf-8"?>
<!-- Generator: Adobe Illustrator 23.0.1, SVG Export Plug-In . SVG Version: 6.00 Build 0)  -->
<svg version="1.1" id="Layer_1" xmlns="http://www.w3.org/2000/svg" xmlns:xlink="http://www.w3.org/1999/xlink" x="0px" y="0px"
	 viewBox="0 0 500 250" style="enable-background:new 0 0 500 250;" xml:space="preserve">
<style type="text/css">
	.st0{fill:none;}
	.st1{fill-rule:evenodd;clip-rule:evenodd;fill:#1D9F70;}
	.st2{fill-rule:evenodd;clip-rule:evenodd;fill:#FFFFFF;}
	.st3{fill-rule:evenodd;clip-rule:evenodd;fill:#010101;}
	.st4{fill:#FFFFFF;}
</style>
<rect class="st0" width="500" height="250"/>
<g id="_bank_x2C__debit_x2C__card_x2C__switch_x2C_">
	<g>
		<path class="st1" d="M420.6,220.3c0,6.3-5.1,11.3-11.4,11.3H90.8c-6.3,0-11.4-5.1-11.4-11.3V29.7c0-6.3,5.1-11.3,11.4-11.3h318.4
			c6.3,0,11.4,5.1,11.4,11.3L420.6,220.3L420.6,220.3z"/>
		<path class="st2" d="M275.3,101.3c15.2,23.2,8.6,54.4-14.7,69.5c-23.3,15.2-54.4,8.6-69.5-14.7l14.4-9.7
			c9.8,15.1,30.1,19.4,45.1,9.6c15.1-9.9,19.4-30.1,9.5-45.2L275.3,101.3z"/>
		<path class="st3" d="M308.9,79.9c-15.2-23.3-46.3-29.8-69.6-14.6c-23.3,15.2-29.8,46.3-14.6,69.6l14.7-9.3
			c-9.8-15.1-5.6-35.3,9.5-45.2c15.1-9.8,35.3-5.6,45.2,9.5L308.9,79.9z"/>
		<path class="st4" d="M194.3,204.4l2.6-0.3v0.6c0,0.8,0.2,1.5,0.5,2.1c0.4,0.6,1,1.2,1.7,1.5c0.8,0.4,1.8,0.6,2.9,0.6
			c1.6,0,2.8-0.4,3.7-1.1c0.8-0.7,1.3-1.5,1.3-2.4c0-0.6-0.3-1.2-0.7-1.7c-0.4-0.5-1.7-1.2-3.7-2.1c-1.6-0.7-2.6-1.2-3.2-1.5
			c-0.9-0.6-1.5-1.2-2-1.9c-0.4-0.7-0.6-1.5-0.6-2.4c0-1,0.3-1.9,0.8-2.8c0.6-0.8,1.4-1.5,2.5-1.9c1-0.4,2.2-0.6,3.7-0.6
			c1.6,0,2.9,0.3,4,0.8c1.2,0.5,1.9,1.3,2.4,2.2c0.5,0.9,0.8,1.7,0.8,2.6c0,0.1,0,0.2,0,0.4l-2.6,0.3c0-0.6-0.1-1-0.2-1.3
			c-0.2-0.6-0.4-1-0.8-1.4c-0.4-0.4-0.9-0.6-1.5-0.9c-0.6-0.3-1.4-0.3-2.2-0.3c-1.4,0-2.6,0.3-3.3,1c-0.6,0.5-1,1.2-1,2
			c0,0.4,0.1,0.9,0.4,1.3c0.3,0.4,0.7,0.8,1.4,1.2c0.5,0.3,1.5,0.8,3.3,1.5c1.4,0.6,2.4,1.2,3,1.5c0.7,0.5,1.3,1.1,1.7,1.8
			c0.4,0.6,0.6,1.4,0.6,2.3c0,1.1-0.4,2-1,2.9c-0.6,0.9-1.5,1.6-2.7,2.1c-1.2,0.5-2.5,0.8-4,0.8c-2.2,0-4.1-0.5-5.5-1.5
			C195,208.7,194.3,206.9,194.3,204.4L194.3,204.4z M215.5,210.8l-1.2-19.9h2.7l0.4,9.9c0.1,0.5,0.1,1.7,0.1,3.8
			c0,0.6,0.1,1,0.1,1.2c0,0.1,0,0.6,0,1.3c1.1-2.3,1.9-3.9,2.4-4.8l6-11.5h2.8l0.6,11.7c0.1,1.3,0.1,2.9,0.2,4.8
			c0.1-0.5,0.4-1.2,0.8-2.1c0.7-1.4,1.2-2.5,1.5-3.1l5.6-11.2h2.7l-10.1,19.9h-2.9l-0.6-12.1c-0.1-1-0.1-2.3-0.1-3.9
			c-0.6,1.3-1,2.2-1.4,3l-6.9,12.9L215.5,210.8L215.5,210.8z M238.6,210.8l4.2-19.9h2.6l-4.2,19.9L238.6,210.8L238.6,210.8z
			 M251.2,210.8l3.7-17.6h-6.7l0.5-2.3h15.8l-0.5,2.3h-6.5l-3.7,17.6H251.2z M278.4,203.8l2.6,0.4c-0.8,2.3-2,4-3.6,5.2
			c-1.6,1.2-3.4,1.8-5.4,1.8c-2.4,0-4.4-0.8-5.8-2.2c-1.4-1.5-2.1-3.6-2.1-6.3c0-3.6,1.1-6.5,3.3-8.9c1.9-2.1,4.3-3.1,7.1-3.1
			c2.1,0,3.8,0.6,5.1,1.7c1.3,1.1,2.1,2.6,2.2,4.6l-2.4,0.2c-0.3-1.4-0.8-2.5-1.7-3.2c-0.8-0.7-1.9-1-3.1-1c-2.4,0-4.4,1-5.9,3.2
			c-1.3,1.9-2,4.1-2,6.6c0,2.1,0.5,3.7,1.5,4.7c1,1.1,2.3,1.7,3.9,1.7c1.4,0,2.6-0.4,3.7-1.3C277.1,206.7,277.9,205.5,278.4,203.8
			L278.4,203.8z M282.9,210.8l4.2-19.9h2.6l-1.7,8.3h10.4l1.7-8.3h2.6l-4.2,19.9h-2.6l1.9-9.4h-10.3l-2,9.4L282.9,210.8L282.9,210.8
			z"/>
	</g>
</g>
</svg>
