<?xml version="1.0" encoding="utf-8"?>
<!-- Generator: Adobe Illustrator 23.0.1, SVG Export Plug-In . SVG Version: 6.00 Build 0)  -->
<svg version="1.1" id="Layer_1" xmlns="http://www.w3.org/2000/svg" xmlns:xlink="http://www.w3.org/1999/xlink" x="0px" y="0px"
	 viewBox="0 0 500 250" style="enable-background:new 0 0 500 250;" xml:space="preserve">
<style type="text/css">
	.st0{fill:none;}
	.st1{fill:#665D58;}
	.st2{fill:#B2A49B;}
	.st3{fill:#FFFFFF;}
</style>
<rect x="0" y="0.3" class="st0" width="500" height="250"/>
<g>
	<path class="st1" d="M177.1,130.9c-5,5.1-9.9,9.6-14.9,13.6c-5,3.9-9.5,6.9-13.4,8.9c-3.9,2-7.7,3-11.2,3c-2.3,0-3.9-0.8-5.1-2.3
		c-1.1-1.5-1.7-3.3-1.7-5.3c0-2,0.7-4.5,2-7.5c1.3-3.1,2.9-6.1,4.8-9.1c1.9-3,4-6.2,6.5-9.5c3.7-5.1,7.5-10,11.6-14.7
		c-4.5,3.7-7.5,5.9-9.2,6.5c-1.6,0.6-3,1-4.2,1c-1.2,0-2.1-0.5-2.7-1.5c-0.6-1-1-2.1-1-3.2c0-1.2,0.5-2.3,1.4-3.5
		c0.9-1.2,1.8-1.7,2.7-1.7c0.3,0,0.5,0.1,0.5,0.3c0,0.2-0.1,0.5-0.3,0.8c-0.2,0.3-0.3,0.5-0.3,0.6c0,0.3,0.2,0.5,0.7,0.5
		c0.5,0,1.2-0.2,2.1-0.6c0.9-0.4,3.3-1.9,7-4.4s6.5-4.6,8.2-6.2c0.7-0.6,1.7-0.9,3-0.9c1.3,0,2.6,0.3,3.9,0.9c1.3,0.6,2,1.3,2,1.9
		c0,0.1,0,0.3-0.1,0.4c0,0.1-0.1,0.4-0.2,0.8s-0.3,0.9-0.6,1.5c-0.4,0.6-3.3,4.7-8.6,12.2c-13.5,18.8-20.2,29.9-20.2,33.3
		c0,1.2,0.5,1.9,1.5,1.9c1.3,0,3.9-1.2,7.7-3.6c3.8-2.4,7.4-5.1,10.7-8.1c3.3-3,6.5-6.1,9.7-9.4c3.2-3.3,6.4-6.8,9.8-10.7
		c3.4-3.9,6.2-7.6,8.6-11.2c2.3-3.6,3.5-6.4,3.5-8.2c0.1-0.3-0.1-0.5-0.5-0.5l-1.4,0.3c-0.3,0-0.5-0.2-0.5-0.6
		c0-0.4,0.1-0.6,0.3-0.8c2.7-1.5,5.2-2.3,7.7-2.3c1.1,0,1.9,0.4,2.5,1.2c0.6,0.8,0.9,1.9,0.9,3.3c0,1.4-1,3.8-2.9,7.2
		c-1.9,3.4-4.5,7.3-7.7,11.6C186.2,121,182.1,125.7,177.1,130.9z M297.4,120.1c-3.2,0-7,1-11.6,2.9c-2.3,1-4.5,2.1-6.5,3.4
		c-2,1.3-3.7,2.8-5.1,4.6c-1.4,1.8-2,3.6-2,5.4c0,1.8,0.6,3.2,2,4.1c0.6,0.4,1.2,0.8,1.8,1c0.6,0.3,1.4,0.5,2.4,0.8
		c1,0.3,2.6,0.7,4.8,1.2c2.2,0.5,3.8,0.9,4.7,1.3c0.9,0.3,1.4,0.8,1.4,1.2c0,1-1.3,2-3.9,3c-2.6,1-5.5,1.5-8.9,1.5
		c-0.4,0-0.9-0.3-1.5-0.8c-0.5-0.5-0.8-1.1-0.8-1.8l0-0.7c0-0.5-0.4-0.7-1.1-0.8c0-0.1,0-0.2,0-0.3c0-0.9,0-1.7-0.2-2.5
		c-0.1-0.8-0.4-1.2-1-1.2c-0.3,0-0.5,0.1-0.7,0.3c-0.2,0.2-0.7,0.7-1.5,1.6c-0.8,0.9-1.7,1.8-2.5,2.6c-2.3,2.4-4.2,3.6-5.8,3.9
		c-0.9,0-1.3-0.6-1.3-1.8c0-2.1,1.6-6.5,4.9-13.3c0.2-0.4,1.3-2.4,3.3-5.7c2-3.4,3.1-5.4,3.3-6.2c0-0.3-0.1-0.6-0.3-1
		c-0.2-0.5-0.4-0.7-0.6-0.7s-0.4,0-0.7,0c-1.9,0-3.4,0.5-4.6,1.2c-0.4,0.3-1,0.9-1.8,2.1c-0.8,1.1-1.6,2.5-2.4,4.1
		c-0.8,1.6-3.9,5.3-9.2,11.1c-5.3,5.8-8.6,8.7-10,8.7c-0.3,0-0.5-0.2-0.5-0.6c0-1.6,2.7-7.4,8.3-17.4c1.9-3.3,2.8-5.2,2.8-5.6
		c0-0.4-0.3-1-0.9-1.6c-0.6-0.7-1.3-1-2.1-1c-0.8,0-1.6,0.6-2.5,1.7c-0.9,1.1-1.9,2.8-3.2,5.1c-1.3,2.3-2.4,4.1-3.1,5.4
		c-0.8,1.3-1.4,2.4-1.7,3c-0.3,0.7-0.9,1.7-1.6,3.2c-0.7,1.5-1.3,2.7-1.7,3.7c-0.1,0.3-0.2,0.6-0.3,0.9c-0.3,0.2-0.5,0.5-0.8,0.7
		c-1.1,1.1-2.3,2-3.6,2.9c-1.4,0.9-2.5,1.3-3.4,1.3c-1.7,0-2.5-0.6-2.5-1.8c0-0.6,0.2-1.5,0.6-2.4c0.2-0.5,0.4-1,0.6-1.5
		c0.2-0.5,0.5-1,0.8-1.6c0.3-0.6,0.6-1.1,0.9-1.5c0.3-0.4,0.6-0.9,0.9-1.6c0.4-0.6,0.7-1.1,0.8-1.3c0.2-0.3,0.4-0.6,0.8-1.2
		c0.3-0.5,0.6-0.9,0.6-1s0.6-0.9,1.6-2.3c1-1.4,1.8-2.6,2.4-3.5s1.2-2,1.8-3.2c0.6-1.2,0.9-2.2,0.9-3c0-0.8-0.4-1.6-1.2-2.3
		c-0.8-0.7-1.8-1-3.1-1c-1.3,0-2.7,0.3-4.4,1c-3.3,1.4-7.4,4.8-12.2,10.1l1.8-2.6c2.4-3.6,3.6-6.1,3.6-7.4c0-0.8-0.3-1.2-1-1.2
		c-3,0-5.1,0.8-6.3,2.4c-0.7,0.9-1.5,2.2-2.6,4c-0.5,0.9-2,3.5-4.6,7.7c-2.1,3.5-3.7,6.2-4.9,8.3c-0.4,0.3-1,0.8-1.6,1.3
		c-1.6,1.3-3.5,2.6-5.5,3.9c-2.4,1.5-4.8,2.3-7.1,2.3c-3.7,0-5.6-1.1-5.6-3.3c0-1.2,3-3.5,8.8-6.8c0.3-0.2,0.9-0.4,1.8-0.7
		s1.8-0.8,2.5-1.4c0.7-0.6,1.1-1.1,1.1-1.5s-0.2-0.9-0.6-1.5c-0.4-0.6-0.8-1.1-1.2-1.3c-0.2-0.1-0.5-0.1-1.1-0.1s-1.5,0.2-2.9,0.7
		c-1.4,0.5-2.4,0.7-3,0.7c-0.7,0-1-0.1-1-0.3c0-0.7,0.9-1.7,2.7-3c1.8-1.4,3.3-2.4,4.5-3.1c1.2-0.7,2.4-1.2,3.3-1.5
		c-0.1,0.5-0.2,0.9-0.2,1.4c0,0.5,0.1,0.9,0.3,1.2c0.2,0.3,0.6,0.4,1.2,0.4c1.9,0,3.6-0.7,5.1-2.1c1.5-1.4,2.2-3,2.2-4.8
		c0-0.8-0.5-1.4-1.5-1.9c-0.9-0.4-1.9-0.7-2.8-0.7c-3.8,0-8.2,1.3-13.1,4c-2.2,1.2-4,2.7-5.6,4.5c-1.5,1.8-2.3,3.5-2.3,5.2
		c0,1.6,0.2,2.8,0.5,3.6c0.3,0.7,1,1.3,2.1,1.8c-5.3,2-8,4.9-8,8.7c0,2.9,1.6,5.1,4.7,6.5c1.7,0.8,4,1.2,6.8,1.2
		c3.4,0,6.9-1,10.5-2.9c0,0,0,0,0.1,0.1c0.2,0.2,0.8,0.4,1.8,0.8c1,0.4,1.8,0.6,2.4,0.6c0.6,0,1.3-0.6,2.3-1.8
		c3.3-4.4,6.1-7.9,8.5-10.5c2.4-2.6,5.4-5.7,9-9.2c3.6-3.5,5.9-5.3,6.8-5.4l0.1,0.1c-0.1,0.5-0.8,1.9-2.3,4c-1.4,2.1-2.7,4-3.6,5.7
		c-1,1.6-2,3.6-2.9,5.9c-1,2.3-1.4,4.3-1.4,6.1s0.7,3.3,2.2,4.6c1.5,1.2,2.9,1.9,4.4,1.9c1.5,0,2.8-0.2,4-0.6
		c1.3-0.5,2.9-1.4,4.9-2.9c0.2,0.7,0.6,1.4,1.2,2.1c1,1.1,2.2,1.7,3.8,1.7c3.9,0,9.3-4.3,16.2-13c-1.2,2.2-1.8,4.4-1.8,6.6
		c0,2.2,0.6,3.8,1.9,4.7c1.3,0.9,2.7,1.4,4.2,1.4c2.4,0,5-1.1,7.7-3.4c0.4-0.3,0.8-0.7,1.2-1c0.2,1.1,0.8,2.1,1.8,3
		c1.2,1,3.6,1.5,6.9,1.5c3.3,0,7.2-1.1,11.7-3.3c2.1-1,3.8-2.3,5.3-3.9c1.4-1.6,2.1-3.3,2.1-5.1c0-0.9-0.3-1.8-1-2.9
		c-0.7-1.1-2-2-3.8-2.8s-5.6-1.8-11.3-3c-1.3-0.3-1.9-0.6-1.9-1s0.5-1,1.4-1.9c0.9-0.9,2.1-1.8,3.6-2.7c1.4-0.9,3.1-1.8,5.1-2.6
		c2-0.8,3.9-1.2,5.8-1.3c-0.1,0.4-0.3,0.8-0.6,1.1c-0.3,0.3-0.4,0.7-0.4,1c0,0.3,0.1,0.6,0.3,0.6c0.2,0.1,0.4,0.2,0.5,0.4
		s0.3,0.3,0.5,0.4s0.7,0.2,1.5,0.2c0.8,0,1.8-0.3,3.2-1c1.3-0.7,2.3-1.4,3-2.3s0.9-2,0.9-3.5v-0.3c0-0.6-0.1-1.1-0.3-1.6
		C302.4,120.8,300.5,120.1,297.4,120.1z M373.8,116.8c2.1-3.2,3.2-6.3,3.2-9.4c0-3.1-2.1-5.8-6.2-8.2c-4.2-2.4-9.3-3.6-15.5-3.6
		s-11.7,0.6-16.7,1.7c-4.9,1.1-9.1,2.5-12.4,4.2c-3.3,1.7-6,3.6-8,5.6c-2,2-3,3.9-3,5.7c0,1.8,0.4,3.3,1.3,4.4
		c0.9,1.1,2.3,1.7,4.3,1.7c2,0,4.4-1,7.3-3c0.1-0.1,0.2-0.4,0.2-1c0-0.6-0.1-0.9-0.2-0.9h0c-0.9,0.3-1.5,0.5-2.1,0.5
		c-1.2,0-1.8-0.4-1.8-1.2c0-0.8,0.5-1.6,1.4-2.2c2.6-2,6.8-4,12.5-6.2c5.7-2.1,10.6-3.2,14.6-3.2c4.1,0,7.5,0.6,10.3,1.8
		c1.4,0.6,2.6,1.5,3.4,2.5s1.2,2.3,1.2,3.6c0,1.3-0.8,3-2.3,4.8c-1.5,1.9-3.4,3.7-5.7,5.4c-2.3,1.7-4.9,3.2-7.8,4.5
		c-3,1.2-5.7,1.8-8.3,1.8h-1.2c-0.6,0-1.1,0-1.6-0.2s-0.9-0.4-1.1-0.8c6.4-10.1,10.8-16.9,13.3-20.3c0.1-0.2,0.2-0.6,0.2-1.2
		s-0.2-0.9-0.6-0.9h-2.1c-1.4,0-2.4,0.1-3,0.2c-0.6,0.2-1.3,0.7-2.1,1.5c-0.8,0.9-3.6,4.8-8.5,11.7c-4.8,7-10,14.7-15.5,23.2
		c-5.5,8.5-8.2,13.4-8.2,14.8c0,1,0.8,1.5,2.5,1.5h0.7l1,0.1l2.1-0.4c0.7,0,1.3-0.3,1.9-1c0,0,0.3-0.5,0.9-1.5
		c0.6-0.9,1.4-2.2,2.4-3.9c1.1-1.7,2.3-3.7,3.8-6.1c1.5-2.4,4.4-7,8.6-13.6c1.7,2.5,4.2,3.8,7.3,3.8c3.1,0,6.6-0.8,10.6-2.3
		c4-1.5,7.6-3.4,10.8-5.8C368.9,122.7,371.6,119.9,373.8,116.8z M389.5,134.5c-1.1,2.5-2.6,5-4.5,7.5c-1.9,2.5-4,4.9-6.2,7.2
		c-2.3,2.2-4.7,4.1-7.3,5.5c-2.6,1.4-5,2.1-7.1,2.1s-3.9-0.7-5.1-2c-1.3-1.3-1.9-3.2-1.9-5.6s0.6-5.1,1.8-8c1.2-2.9,2.7-5.5,4.6-7.7
		c1.9-2.2,3.9-4.2,6-6c4.5-3.6,8.5-5.5,11.9-5.5c1.5,0,2.7,0.4,3.5,1.1c0.3,0.3,0.4,0.5,0.4,0.7v0.3c0.4-0.1,1-0.1,1.8-0.1
		c0.8,0,1.7,0.4,2.6,1.1c0.9,0.8,1.3,1.9,1.3,3.4C391.1,130,390.6,132,389.5,134.5z M383.6,130.5c0-0.7-0.2-1.1-0.6-1.1h-0.3
		c-1,0-1.5-0.7-1.5-2.1c-2,0.7-4.2,1.8-6.4,3.5c-2.2,1.7-4.2,3.6-6,5.9c-3.6,4.6-5.4,8.4-5.4,11.6c0,1.6,0.6,2.3,1.7,2.3
		c1.1,0,2.8-0.8,5.1-2.3c2.3-1.5,4.5-3.6,6.7-6.4c2.2-2.8,3.9-5.2,5-7.2C383.1,132.6,383.6,131.3,383.6,130.5z M411.4,117
		c1.6,0,3.1-0.8,4.6-2.4c1.5-1.6,2.2-3.2,2.2-4.8c0-0.8-0.2-1.3-0.7-1.8c-0.5-0.4-1-0.6-1.8-0.6c-1.7,0-3.3,0.8-4.7,2.3
		s-2.1,3.1-2.1,4.8S409.8,117,411.4,117z M480.1,112.8c-0.4-0.3-0.8-0.7-1.2-1.3c-0.4-0.6-0.8-0.9-1.2-1c-0.3-0.1-0.9-0.2-1.8-0.2
		s-2.4,0.1-4.6,0.3c0-0.1,0.5-0.8,1.3-2c0.8-1.2,1.5-2.4,2.1-3.3c0.6-1,0.9-1.6,0.9-1.8c0-0.2-0.1-0.5-0.3-0.7
		c-0.2-0.3-0.4-0.4-0.7-0.4l-1.7-0.4l-2,0.2c-0.4,0-0.7,0-0.8,0.1c-0.1,0.1-0.6,0.6-1.5,1.6s-2.5,3.3-4.8,6.8l-3.8,0.2
		c-0.4,0-0.9,0.1-1.7,0.1c-0.7,0-1.4,0.1-2,0.1c-0.6,0-1.2,0.1-1.8,0.1c-0.6,0-1.6,0.4-2.9,1.2c-1.3,0.8-2,1.4-2.2,2.1
		c-0.1,0.3-0.3,0.6-0.7,1c-0.4,0.5-0.6,0.9-0.6,1.4c0,0.5,0.4,0.9,1.1,1.2c0.7,0.3,1.5,0.5,2.3,0.5h0.4c0.5,0,2.4-0.2,5.6-0.6
		l1.6-0.2c-3,4.7-6,9.8-9,15.2c-1.8,3.3-3.4,6.4-4.6,9.4c-0.1,0.2-0.2,0.4-0.3,0.7c-0.2-0.3-0.4-0.4-0.6-0.4c-0.4,0-2,1.4-4.9,4.3
		c-1.1,1.1-2.3,2-3.6,2.9c-1.4,0.9-2.5,1.3-3.4,1.3c-1.7,0-2.5-0.6-2.5-1.8c0-0.6,0.2-1.5,0.6-2.4c0.2-0.5,0.4-1,0.6-1.5
		c0.2-0.5,0.5-1,0.8-1.6c0.3-0.6,0.6-1.1,0.9-1.5c0.3-0.4,0.6-0.9,0.9-1.6c0.4-0.6,0.7-1.1,0.8-1.3c0.2-0.3,0.4-0.6,0.8-1.2
		c0.3-0.5,0.6-0.9,0.6-1s0.6-0.9,1.6-2.3c1-1.4,1.8-2.6,2.4-3.5s1.2-2,1.8-3.2c0.6-1.2,0.9-2.2,0.9-3c0-0.8-0.4-1.6-1.2-2.3
		c-0.8-0.7-1.8-1-3.1-1s-2.7,0.3-4.4,1c-3.3,1.4-7.4,4.8-12.2,10.1l1.8-2.6c2.4-3.6,3.6-6.1,3.6-7.4c0-0.8-0.3-1.2-1-1.2
		c-3,0-5.1,0.8-6.3,2.4c-0.7,0.9-1.5,2.2-2.6,4c-0.5,0.9-2,3.5-4.6,7.7c-2.4,4-4.2,7-5.4,9.2c-0.5,0.5-1.1,1.1-1.7,1.8
		c-1,1.1-2.2,2-3.6,2.9c-1.4,0.9-2.7,1.3-4,1.3c-1.3,0-1.9-0.5-1.9-1.4c0-0.7,0.3-1.7,0.8-2.8c0.3-0.5,0.5-1,0.7-1.4
		c0.2-0.4,0.5-0.9,0.9-1.4c0.4-0.6,0.6-0.9,0.7-1.1c6.6-11.4,9.9-17.4,9.9-18.1c0-0.6-0.3-1.3-1-2.1c-0.7-0.8-1.5-1.2-2.4-1.2
		c-0.9,0-2.1,0.6-3.8,1.8c-1.7,1.2-3.1,2.4-4.2,3.7c-1.2,1.2-1.7,2-1.7,2.3s0.3,0.7,0.9,1.4c0.6,0.6,0.9,1,0.9,1.2s-0.8,1.6-2.3,4
		c-1.5,2.5-3.1,5.2-4.6,8.1c-1.5,2.9-2.3,5.1-2.3,6.7c0,1.5,0.8,3,2.4,4.5s3.5,2.2,5.7,2.2c2.1,0,4.7-0.8,7.5-2.4
		c0.2,0.1,0.4,0.2,0.7,0.3c1,0.4,1.8,0.6,2.4,0.6c0.6,0,1.3-0.6,2.3-1.8c3.3-4.4,6.1-7.9,8.5-10.5c2.4-2.6,5.4-5.7,9-9.2
		c3.6-3.5,5.9-5.3,6.8-5.4l0.1,0.1c-0.1,0.5-0.8,1.9-2.3,4c-1.4,2.1-2.7,4-3.6,5.7c-1,1.6-2,3.6-2.9,5.9c-1,2.3-1.4,4.3-1.4,6.1
		s0.7,3.3,2.2,4.6c1.5,1.2,2.9,1.9,4.4,1.9c1.5,0,2.8-0.2,4-0.6c2.1-0.8,5.2-2.9,9.2-6.5c0,2,0.6,3.5,1.5,4.7c1.1,1.2,2.7,2,4.9,2.4
		c0.4,0.1,0.8,0.1,1.2,0.1c1.9,0,3.9-0.6,5.8-1.8c1.9-1.2,4.3-3,7.1-5.5c1.2-1.1,1.9-2.3,1.9-3.7c0-2.5-0.4-3.8-1.1-3.8
		c-0.2,0-1.9,1.4-5,4.2c-1.2,1-2.4,2-3.8,2.9c-1.4,0.9-2.7,1.3-3.8,1.3s-1.7-0.6-1.7-1.6c0-0.5,0-1.2,0.2-2.1
		c0.2-1.8,2.4-6.4,6.4-13.7c4.1-7.3,7.2-12.7,9.5-16.1c0.7,0,4.2-0.3,10.7-1c0.8-0.1,1.6-0.3,2.3-0.7c0.7-0.4,1.1-0.9,1.1-1.5
		S480.4,113.1,480.1,112.8z"/>
	<g>
		<g>
			<ellipse class="st2" cx="65.7" cy="125.3" rx="46.3" ry="46.3"/>
		</g>
		<g>
			<g>
				<rect x="54.3" y="152.1" class="st3" width="22.7" height="2.4"/>
			</g>
			<g>
				<rect x="42.9" y="101.8" class="st3" width="45.6" height="2.4"/>
			</g>
			<g>
				<rect x="64.5" y="104" class="st3" width="2.4" height="46.2"/>
			</g>
			<g>
				<rect x="56.8" y="147" class="st3" width="17.8" height="4"/>
			</g>
			<g>
				<g>
					<path class="st3" d="M37.8,127.1c2,3.4,5.7,5.6,9.9,5.6c4.2,0,7.9-2.3,9.9-5.6H37.8L37.8,127.1z"/>
				</g>
				<g>
					<polygon class="st3" points="54,125.3 47.7,109.9 41.5,125.3 40,124.7 47.7,105.6 55.5,124.7 					"/>
				</g>
				<g>
					<path class="st3" d="M73.8,127.1c2,3.4,5.7,5.6,9.9,5.6s7.9-2.3,9.9-5.6H73.8L73.8,127.1z"/>
				</g>
				<g>
					<polygon class="st3" points="89.9,125.3 83.6,109.9 77.4,125.3 76,124.7 83.6,105.6 91.4,124.7 					"/>
				</g>
			</g>
		</g>
	</g>
</g>
</svg>
