<?xml version="1.0" encoding="utf-8"?>
<!-- Generator: Adobe Illustrator 23.0.1, SVG Export Plug-In . SVG Version: 6.00 Build 0)  -->
<svg version="1.1" id="Layer_1" xmlns="http://www.w3.org/2000/svg" xmlns:xlink="http://www.w3.org/1999/xlink" x="0px" y="0px"
	 viewBox="0 0 500 250" style="enable-background:new 0 0 500 250;" xml:space="preserve">
<style type="text/css">
	.st0{fill:none;}
	.st1{fill:url(#XMLID_2_);}
	.st2{fill:url(#XMLID_3_);}
	.st3{fill:url(#XMLID_4_);}
	.st4{fill:#FFFFFF;}
	.st5{fill:#010101;}
</style>
<rect x="0" y="0" class="st0" width="500" height="250"/>
<g id="ukash">
	
		<linearGradient id="XMLID_2_" gradientUnits="userSpaceOnUse" x1="96.8374" y1="-456.7354" x2="86.0821" y2="-280.666" gradientTransform="matrix(1 0 0 1 0 494)">
		<stop  offset="0" style="stop-color:#A32027"/>
		<stop  offset="1" style="stop-color:#6F1415"/>
	</linearGradient>
	<path id="XMLID_185_" class="st1" d="M172,125c6.2-49.3-24.9-89.2-69.3-89.2S17.2,75.7,11,125c-6.2,49.3,24.9,89.2,69.3,89.2
		C124.8,214.2,165.8,174.3,172,125z"/>
	
		<linearGradient id="XMLID_3_" gradientUnits="userSpaceOnUse" x1="83.2491" y1="-438.5609" x2="111.1337" y2="-295.155" gradientTransform="matrix(1 0 0 1 0 494)">
		<stop  offset="0" style="stop-color:#BB232C"/>
		<stop  offset="1" style="stop-color:#84191D"/>
	</linearGradient>
	<path id="XMLID_184_" class="st2" d="M169.4,122.3c5.6-44.8-22.6-81.1-63-81.1s-77.7,36.3-83.3,81.1c-5.6,44.8,22.6,81.1,63,81.1
		C126.5,203.5,163.8,167.1,169.4,122.3z"/>
	
		<linearGradient id="XMLID_4_" gradientUnits="userSpaceOnUse" x1="165.4222" y1="-420.138" x2="24.5725" y2="-420.1379" gradientTransform="matrix(1 0 0 1 0 494)">
		<stop  offset="0" style="stop-color:#761317"/>
		<stop  offset="1" style="stop-color:#FFFFFF"/>
	</linearGradient>
	<path id="XMLID_183_" class="st3" d="M106.3,46.9c28,0,50.4,16.6,60.2,41.1c-8.2-27.6-31.1-46.8-60.5-46.8
		c-35.5,0-68.6,28.1-79.9,65.3C39.2,72.1,71.6,46.9,106.3,46.9z"/>
	<path id="XMLID_182_" class="st4" d="M72.9,80.6h7.1c0,0,5.7,0,4.3,6.4c-1.3,6.3-11.6,55-11.6,55s-3.6,14.5,11.8,15.9
		c15.5,1.4,21.5-8.6,25.2-26.1c3.7-17.5,10.5-49.8,10.5-49.8s0-1.3,1.4-1.3c1.3,0,18.2,0,18.2,0s5.6,0.3,4.3,6.1
		c-1.2,5.8-11.6,55-11.6,55s-3.9,27.9-25.3,33.7c-10.7,3.9-24.6,3-24.6,3s-32.7,0.1-35.4-25.8c0-11.7,1.9-17.8,1.9-17.8l11-52.1
		c0,0,0.1-2.1,1.6-2.1C63.2,80.6,72.9,80.6,72.9,80.6z"/>
	<path id="XMLID_176_" class="st5" d="M205.9,82.4c0,0,0.1-1.8,1.4-1.8c1.3,0,14.4,0,14.4,0s7.3,0.6,5.6,8.4
		c-1.7,7.9-8.7,41.4-8.7,41.4l24-23.6h26.3c0,0,1.3,0.6,0,1.8c-1.3,1.2-37.9,34.5-37.9,34.5l22.4,31.9c0,0,0.8,1.7-0.9,1.7
		c-1.8,0-22.2,0-22.2,0s-0.3,0.4-1.2-0.9c-0.9-1.3-15.1-22.9-15.1-22.9l-3.4,16.2c0,0-0.9,7.4-6.5,7.4c-5.6,0-16.6,0-16.6,0
		s-1.4,0.6-0.8-2.4C187.2,171,205.9,82.4,205.9,82.4z M316.8,105.8c-11.3-2.2-21.8-0.7-21.8-0.7s-16.7,1.2-22.5,12.5
		c-3.1,5.8-3.7,8.8-3.7,8.8s-0.6,2.3,0.7,2.3c1.3,0,19.5,0,19.5,0s1.1,0.1,1.6-2c0.4-2.1,3.2-6.5,7.5-6.8c4.3-0.3,4.7-0.3,4.7-0.3
		s11.4-0.6,9.7,7.5c-1.7,8.1-9.1,7.8-13.7,8c-4.6,0.2-24.5,0.3-33.7,8.9c-4.3,3.6-5.4,10.1-5.4,10.1s-1.8,11.9,3.5,17.5
		c5.3,5.6,10.8,6.9,16.3,6.9c5.5,0,17.3,0.9,23.8-8.8c-1.1,5.3-1.2,5.9-1.2,5.9s-0.3,1.3,0.7,1.2s14.8,0,14.8,0s5.3,0.2,7.4-7
		c2-7.2,7.6-31,7.6-31s1.8-11.6,1.8-17.8C334.5,114.6,328.1,108,316.8,105.8z M300.3,161.9c-8.2,5.8-18.5,1.7-18.3-4.9
		c0.2-6.6,5.6-8.3,10.4-9.2c4.8-0.9,13.6-0.6,16.1-3C308.6,144.7,307.9,156.3,300.3,161.9z M337.5,153.5h19c0,0,1,0,1.1,1.5
		c0.1,1.4,0.4,5.7,5.5,7.8c5.1,2,11.8,0.6,14.2-1.5c2.4-2.1,3.8-7.8-1.4-9.8c-5.2-2-17.4-5-17.4-5s-11-2.2-14.2-11.5
		c-1.6-5.9-0.6-10.7-0.6-10.7s0.3-6,6.8-11.8c7.1-6.2,20.2-7.3,20.2-7.3s15.5-1.2,23.7,2.6c8.2,3.8,11.9,10.6,11.5,18.9
		c0.1,0.8-0.8,0.8-0.8,0.8l-18.8-0.1c0,0-0.9,0.2-1.1-1.6c-0.1-1.8-1.1-6.8-9.1-6.8c-8,0-9.9,4.4-9.8,6.8c0.1,2.4,1.5,5,14.9,7.6
		c13.3,2.6,19.2,7.4,20.5,14.4c1.3,7-0.3,17.2-4.5,21.5c-4.3,4.3-8.7,7.2-22.4,9.2c-14.5,0.6-20.1-1-20.1-1s-17.1-2.8-17.9-22.7
		C336.7,154.3,336.9,153.5,337.5,153.5z M426.2,81.5c0,0,0.1-0.8,1-0.8c0.9,0,16.4,0,16.4,0s5.6,0,4.1,6.9
		c-1.5,6.9-5.9,27.8-5.9,27.8s6.9-11.3,25.4-10.4s19.6,17.3,18.4,22.8c-1.2,5.5-8.9,42.1-8.9,42.1s-2,6.6-6.6,6.6c-4.6,0-17,0-17,0
		s-1.1,0.3-0.5-2.3c0.5-2.6,8.1-38.3,8.1-38.3s3.5-13.7-7.9-13.6s-14.7,10.6-15.5,14.3c-0.8,3.6-6.9,32.8-6.9,32.8s-2,7-6.8,7.1
		c-4.8,0.1-16.4,0-16.4,0s-1.3,0.5-0.8-1.7C406.9,172.6,426.2,81.5,426.2,81.5z M479,92.4v-7.9h3.4c0.8,0,1.5,0.1,1.8,0.2
		c0.4,0.1,0.7,0.4,0.9,0.8c0.2,0.4,0.3,0.8,0.3,1.2c0,0.6-0.2,1.1-0.5,1.5c-0.3,0.4-0.9,0.6-1.6,0.7c0.3,0.2,0.6,0.4,0.9,0.7
		c0.2,0.2,0.5,0.7,0.9,1.3l1,1.5h-1.9l-1.2-1.7c-0.4-0.6-0.7-1-0.8-1.2c-0.2-0.2-0.3-0.3-0.5-0.3s-0.4-0.1-0.8-0.1h-0.3v3.3
		L479,92.4L479,92.4z M480.6,87.8h1.2c0.8,0,1.2,0,1.4-0.1c0.2-0.1,0.3-0.2,0.4-0.3c0.1-0.2,0.2-0.4,0.2-0.6c0-0.3-0.1-0.5-0.2-0.6
		c-0.1-0.2-0.3-0.3-0.6-0.3c-0.1,0-0.5,0-1.2,0h-1.2L480.6,87.8L480.6,87.8z M481.8,96.5c-4.4,0-8-3.6-8-8c0-4.4,3.6-8,8-8
		c4.4,0,8,3.6,8,8C489.8,93,486.2,96.5,481.8,96.5z M481.8,82.4c-3.4,0-6.1,2.7-6.1,6.1c0,3.4,2.7,6.1,6.1,6.1
		c3.4,0,6.1-2.7,6.1-6.1C487.9,85.2,485.2,82.4,481.8,82.4z"/>
</g>
</svg>
