<?xml version="1.0" encoding="utf-8"?>
<!-- Generator: Adobe Illustrator 23.0.1, SVG Export Plug-In . SVG Version: 6.00 Build 0)  -->
<svg version="1.1" id="Layer_1" xmlns="http://www.w3.org/2000/svg" xmlns:xlink="http://www.w3.org/1999/xlink" x="0px" y="0px"
	 viewBox="0 0 500 250" style="enable-background:new 0 0 500 250;" xml:space="preserve">
<style type="text/css">
	.st0{fill:none;}
</style>
<rect x="0" y="1" class="st0" width="500" height="250"/>
<path d="M97.9,53c-5.6,6.6-14.6,11.9-23.6,11.1c-1.1-9,3.3-18.5,8.4-24.4c5.6-6.8,15.5-11.7,23.4-12.1C107.1,37,103.4,46.1,97.9,53
	 M106,65.9c-13-0.7-24.2,7.4-30.3,7.4c-6.3,0-15.7-7-26-6.8C36.3,66.6,23.8,74.2,17,86.3c-14,24.2-3.7,59.9,9.9,79.6
	c6.6,9.7,14.6,20.4,25.1,20c9.9-0.4,13.9-6.5,25.8-6.5c12.1,0,15.5,6.5,26,6.3c10.9-0.2,17.7-9.7,24.4-19.5
	c7.6-11.1,10.7-21.8,10.9-22.4c-0.2-0.2-21-8.1-21.2-32.1c-0.2-20,16.4-29.6,17.1-30.2C125.7,67.8,111.1,66.3,106,65.9 M181.3,38.7
	v146h22.7v-49.9h31.4c28.7,0,48.8-19.7,48.8-48.1s-19.8-48-48-48L181.3,38.7z M203.9,57.8H230c19.7,0,30.9,10.5,30.9,28.9
	s-11.2,29-31,29h-26L203.9,57.8z M325.5,185.9c14.2,0,27.4-7.2,33.4-18.6h0.5v17.5h21v-72.7c0-21.1-16.9-34.7-42.8-34.7
	c-24.1,0-41.9,13.8-42.5,32.7h20.4c1.7-9,10-14.9,21.4-14.9c13.9,0,21.6,6.5,21.6,18.4v8.1l-28.3,1.7c-26.3,1.6-40.6,12.4-40.6,31.1
	C289.7,173.3,304.4,185.9,325.5,185.9z M331.6,168.5c-12.1,0-19.8-5.8-19.8-14.7c0-9.2,7.4-14.5,21.5-15.4l25.2-1.6v8.2
	C358.5,158.8,346.9,168.5,331.6,168.5z M408.4,224.5c22.1,0,32.5-8.4,41.6-34l39.8-111.6h-23L440,165.1h-0.5l-26.7-86.3h-23.7
	l38.4,106.3l-2.1,6.5c-3.5,11-9.1,15.2-19.1,15.2c-1.8,0-5.2-0.2-6.6-0.4v17.5C401.1,224.3,406.7,224.5,408.4,224.5L408.4,224.5z"/>
</svg>
