<?xml version="1.0" encoding="utf-8"?>
<!-- Generator: Adobe Illustrator 23.0.1, SVG Export Plug-In . SVG Version: 6.00 Build 0)  -->
<svg version="1.1" id="Layer_1" xmlns="http://www.w3.org/2000/svg" xmlns:xlink="http://www.w3.org/1999/xlink" x="0px" y="0px"
	 viewBox="0 0 500 250" style="enable-background:new 0 0 500 250;" xml:space="preserve">
<style type="text/css">
	.st0{fill:none;}
	.st1{fill:#26A17B;}
	.st2{fill:#FFFFFF;}
	.st3{fill:#5B5A5D;}
</style>
<rect y="0" class="st0" width="500" height="250"/>
<g>
	<circle class="st1" cx="79.2" cy="125" r="63.9"/>
	<g>
		<path class="st2" d="M86,130.9L86,130.9c-0.4,0-2.7,0.2-7.8,0.2c-4.1,0-6.9-0.1-7.9-0.2v0c-15.6-0.7-27.2-3.4-27.2-6.7
			c0-3.2,11.6-6,27.2-6.7v10.6c1,0.1,3.9,0.2,8,0.2c4.8,0,7.3-0.2,7.7-0.2v-10.6c15.6,0.7,27.2,3.4,27.2,6.7S101.6,130.2,86,130.9
			 M86,116.5V107h21.7V92.5H48.6V107h21.7v9.5c-17.7,0.8-30.9,4.3-30.9,8.5c0,4.2,13.3,7.7,30.9,8.5v30.4H86v-30.4
			c17.6-0.8,30.9-4.3,30.9-8.5C116.9,120.8,103.7,117.3,86,116.5"/>
	</g>
	<path class="st3" d="M197.4,96.5v15.3h14.9v11.5h-15v23.3c0,5.2,2.8,7.7,7,7.7c2.1,0,4.5-0.7,6.5-1.6l3.7,11.4
		c-3.8,1.5-7,2.2-11.1,2.3c-11.7,0.4-19.4-6.2-19.4-19.7v-23.3h-10.1v-11.5H184V97.9L197.4,96.5z M454.5,111.1l1,6.2
		c4.2-6.7,9.8-7.7,15.2-7.7c5.6,0,11,2.2,13.9,5.1l-6,11.6c-2.7-2.3-5.3-3.5-9.6-3.5c-7,0-13.5,3.7-13.5,13.7v28.5h-13.4v-54.1
		L454.5,111.1z M421.7,131.8c-0.9-7-6.4-10.5-14-10.5c-7.2,0-13.2,3.5-15.1,10.5H421.7z M392.4,142.9c0.9,6.7,6.7,11.5,16.1,11.5
		c4.9,0,11.4-1.9,14.5-5l8.5,8.4c-5.7,5.9-15,8.8-23.2,8.8c-18.6,0-29.7-11.5-29.7-28.8c0-16.4,11.2-28.3,28.7-28.3
		c18.1,0,29.4,11.2,27.3,33.4H392.4z M333.4,88.4v30c4.8-6.2,10.7-8.1,16.9-8.1c15.3,0,22.1,10.4,22.1,26.3v28.5H359v-28.4
		c0-9.9-5.2-14-12.3-14c-7.9,0-13.4,6.7-13.4,14.8v27.6H320V88.4L333.4,88.4z M297.9,95.9v15.3h14.9v11.5h-15v23.3
		c0,5.2,2.9,7.7,7,7.7c2.1,0,4.5-0.7,6.5-1.6l3.7,11.4c-3.8,1.5-7,2.2-11.1,2.3c-11.7,0.4-19.4-6.3-19.4-19.7v-23.3h-10.1v-11.5
		h10.1V97.3L297.9,95.9z M260.9,131.8c-0.9-7-6.4-10.5-14-10.5c-7.2,0-13.2,3.5-15.1,10.5H260.9z M231.5,142.9
		c0.9,6.7,6.7,11.5,16.1,11.5c4.9,0,11.4-1.9,14.5-5l8.5,8.4c-5.7,5.9-15,8.8-23.2,8.8c-18.6,0-29.7-11.5-29.7-28.8
		c0-16.4,11.2-28.3,28.7-28.3c18.1,0,29.4,11.2,27.3,33.4H231.5z"/>
</g>
</svg>
