<?xml version="1.0" encoding="utf-8"?>
<!-- Generator: Adobe Illustrator 23.0.1, SVG Export Plug-In . SVG Version: 6.00 Build 0)  -->
<svg version="1.1" id="Layer_1" xmlns="http://www.w3.org/2000/svg" xmlns:xlink="http://www.w3.org/1999/xlink" x="0px" y="0px"
	 viewBox="0 0 500 250" style="enable-background:new 0 0 500 250;" xml:space="preserve">
<style type="text/css">
	.st0{fill:none;}
	.st1{fill:#140757;}
	.st2{fill:url(#SVGID_1_);}
</style>
<rect x="1.1" y="1" class="st0" width="500" height="250"/>
<path class="st1" d="M413.4,105.5l-8.8,12.8l-8.9-12.8V122h2.6v-8.7l6.2,9.2l6.2-9.2v8.7h2.6V105.5L413.4,105.5z M426.4,105.8
	c-4.6,0-8.3,3.8-8.3,8.2c0,4.6,3.8,8.2,8.3,8.2c4.6,0,8.3-3.8,8.3-8.2C434.8,109.5,431,105.8,426.4,105.8 M426.4,119.7
	c-3.1,0-5.6-2.6-5.6-5.7c0-3.2,2.5-5.7,5.6-5.7c3.1,0,5.6,2.6,5.6,5.7C432.1,117.2,429.5,119.7,426.4,119.7 M439.5,105.5V122h2.6
	v-10.9l12.9,11.4v-16.4h-2.6v10.9L439.5,105.5z M472.1,106.1h-11.7V122h11.7v-2.4H463v-4.5h8.7v-2.3H463v-4.3h9.1V106.1z
	 M490.7,106.1h-2.9l-4.9,7.3l-4.9-7.3H475l6.5,9.7v6.2h2.6v-6.2L490.7,106.1z M404,129.7h-8.2v15.9h8.5c3,0,5-2.2,5-4.7
	c0-1.8-1-3.2-2.6-3.8c1.1-0.6,1.9-1.8,1.9-3.3C408.7,131.5,406.8,129.7,404,129.7L404,129.7z M398.4,136.3v-4.2h5.1
	c1.6,0,2.5,1,2.5,2.2c0,1.1-1,2.2-2.5,2.2L398.4,136.3L398.4,136.3z M398.4,143.3v-4.8h5.4c1.7,0,2.7,1,2.7,2.4c0,1.4-1,2.4-2.7,2.4
	H398.4z M420.6,129.1l-9.3,16.5h3l2.1-3.7h8.7l2.1,3.7h3L420.6,129.1z M417.5,139.8l3.1-5.7l3.1,5.7H417.5z M433.8,129.1v16.4h2.6
	v-10.8l12.9,11.4v-16.4h-2.6v10.9L433.8,129.1z M468.9,129.7h-3.7l-8,7.3v-7.3h-2.6v15.8h2.6v-5.2l2.7-2.5l6.1,7.7h3.2l-7.3-9.5
	L468.9,129.7z M146.1,104.6l-22.4,29.7l-22.4-29.7v40.8h8v-17.9l14.4,19.5l14.4-19.5v17.9h8V104.6z M173.3,105.3
	c-11.5,0-20.8,9.2-20.8,20.5c0,11.3,9.3,20.5,20.8,20.5c11.5,0,20.8-9.2,20.8-20.5C194.2,114.4,184.8,105.3,173.3,105.3
	 M173.3,138.4c-6.9,0-12.5-5.7-12.5-12.6c0-7,5.6-12.6,12.5-12.6c6.9,0,12.5,5.7,12.5,12.6C185.9,132.8,180.3,138.4,173.3,138.4
	 M199.4,104.6v40.8h8v-24.2l31,25.8v-40.8h-8v24.2L199.4,104.6z M276.5,106.2h-30.3v39.2h30.3v-7.2h-22v-8.9h21v-7h-21v-8.8h22
	V106.2z M320.2,106.2H281v7.3h11.7v31.9h8.1v-31.9h15L320.2,106.2z M329.6,104.6l-23.3,40.9h9l4.2-7.5h20.2l4.2,7.5h9L329.6,104.6z
	 M323.1,131.5l6.4-11.4l6.5,11.4H323.1L323.1,131.5z M371.8,90.4h2.4v70.7h-2.4V90.4z"/>
<linearGradient id="SVGID_1_" gradientUnits="userSpaceOnUse" x1="32.6118" y1="-161.6178" x2="104.1098" y2="-223.7361" gradientTransform="matrix(0.9323 0 0 1.0726 -20.7223 332.5283)">
	<stop  offset="0.25" style="stop-color:#140757"/>
	<stop  offset="0.2861" style="stop-color:#270953"/>
	<stop  offset="0.4266" style="stop-color:#6D1042"/>
	<stop  offset="0.5533" style="stop-color:#A41535"/>
	<stop  offset="0.6616" style="stop-color:#CC192C"/>
	<stop  offset="0.7474" style="stop-color:#E41B26"/>
	<stop  offset="0.8" style="stop-color:#ED1C24"/>
</linearGradient>
<path class="st2" d="M19.1,108.8l17.6,17l-17.6,17V108.8L19.1,108.8z M73.6,90.2l-31.1,30L11.6,90.4v70.7l30.7-29.7l5.9-5.7l17.6-17
	v34l-11.7-11.4l-5.7,5.6l25.6,24.8V90.2H73.6z"/>
</svg>
