<?xml version="1.0" encoding="utf-8"?>
<!-- Generator: Adobe Illustrator 23.0.1, SVG Export Plug-In . SVG Version: 6.00 Build 0)  -->
<svg version="1.1" id="Layer_1" xmlns="http://www.w3.org/2000/svg" xmlns:xlink="http://www.w3.org/1999/xlink" x="0px" y="0px"
	 viewBox="0 0 500 250" style="enable-background:new 0 0 500 250;" xml:space="preserve">
<style type="text/css">
	.st0{fill:none;}
	.st1{fill:#128AC7;}
	.st2{fill:#E00D1D;}
</style>
<rect x="0.6" y="1" class="st0" width="500" height="250"/>
<g>
	<path class="st1" d="M73,119.5c0.1-3.6,0.8-6.4,2.5-8.4c0.8-0.8,1.9-1.4,3.1-2c1.4-0.6,2.6-0.8,3.8-0.8h15
		c6.6,0.1,9.9,3.6,10.1,10.8v22.1c-0.1,2.5-1,4.7-3,6.6c-1.9,1.9-4.2,3-6.8,3H83.5v15.9H73V119.5z M96.9,121.6
		c-0.1-1.7-0.8-2.5-2.4-2.6h-8.2c-1.9,0.2-3,1.2-3,3.1v14.7c0.1,2,1.1,3,3.3,3.1H94c0.8,0,1.4-0.2,1.9-0.9c0.6-0.4,0.8-1,0.8-1.7
		L96.9,121.6L96.9,121.6L96.9,121.6z"/>
	<path class="st1" d="M139.8,121.3c0.1-1.6-0.9-2.4-2.8-2.3H116v-10.7h23.8c6.9,0.2,10.4,3.4,10.6,10.1v22.4c-0.1,2.9-0.9,5.2-2.6,7
		c-1.8,1.9-4.1,3-6.8,3h-14.3c-7-0.1-10.6-3.2-10.6-9.6v-8.6c0.1-6.6,3.4-10,10.1-10.1H140L139.8,121.3L139.8,121.3L139.8,121.3z
		 M126.2,137.8c0,0.6,0.2,1.1,0.8,1.4c0.5,0.4,1.1,0.7,1.9,0.7h8c1.8,0,2.8-0.7,2.8-2.1v-3c0-1.6-1-2.5-2.9-2.5h-7.9
		c-1,0-1.8,0.2-2.2,0.5c-0.3,0.4-0.6,1.2-0.6,2.3V137.8L126.2,137.8z"/>
	<path class="st1" d="M179.6,155.9c0.8-0.1,1.5-0.3,2.1-0.9c0.6-0.5,0.8-1,0.8-1.8v-1v-1.5h-13.4c-1.8,0-3.1-0.2-4.2-0.7
		c-1.1-0.4-2.2-1.2-3.3-2.2c-1-1.1-1.8-2.3-2.2-3.5c-0.5-1.1-0.7-2.6-0.7-4.3v-31.6h10.5v28.3c0,2.3,0.9,3.4,2.8,3.4h7.4
		c0.9,0,1.7-0.2,2.3-0.9c0.6-0.5,0.9-1.1,0.9-1.8v-1.2v-27.9H193V155c-0.1,3.5-1,6.2-2.6,8.3c-1.8,2.1-4.1,3.2-7.1,3.2h-24.4v-10.7
		h20.8L179.6,155.9L179.6,155.9z"/>
	<path class="st1" d="M201.1,140h18.7c1.7-0.1,2.6-0.8,2.6-2v-1c0-0.2-0.1-0.6-0.2-0.9c-0.4-0.8-0.9-1.2-1.5-1.2h-1.1h-8.1
		c-2.7-0.1-5.1-1-7-2.8c-1.9-1.7-3-3.8-3-6.2v-8.1c0.2-6.3,3.5-9.4,10.2-9.6h21.6v10.7h-18.3c-2.2,0-3.2,0.6-3.2,1.9v1.1
		c0,1.4,1.1,2,3.3,2h9.2c2.5,0.1,4.6,1,6.3,2.9c1.8,1.8,2.6,4.1,2.7,6.6v7.8c-0.1,2.2-1,4.4-3,6.6c-1,1-1.9,1.8-3,2.2
		c-1,0.4-2.4,0.6-4.1,0.6h-21.9L201.1,140L201.1,140L201.1,140z"/>
	<path class="st1" d="M264.6,121.3c0.1-1.6-0.9-2.4-2.8-2.3h-21.1v-10.7h23.8c6.9,0.2,10.4,3.4,10.6,10.1v22.4
		c-0.1,2.9-0.9,5.2-2.6,7c-1.8,1.9-4.1,3-6.8,3h-14.3c-7-0.1-10.6-3.2-10.6-9.6v-8.6c0.1-6.6,3.4-10,10.1-10.1h13.9L264.6,121.3
		L264.6,121.3L264.6,121.3z M251,137.8c0,0.6,0.2,1.1,0.8,1.4c0.5,0.4,1.1,0.7,1.9,0.7h8c1.8,0,2.7-0.7,2.8-2.1v-3
		c0-1.6-1-2.5-2.9-2.5h-7.9c-1,0-1.8,0.2-2.2,0.5c-0.3,0.4-0.6,1.2-0.6,2.3L251,137.8L251,137.8z"/>
	<path class="st1" d="M283.5,102.1c0.1-3,1.1-5.2,3.2-7c2-1.8,4.6-2.6,8-2.7h6.6v10.4h-4.1c-2.2,0.1-3.4,1.1-3.4,3.1v2.3h7.4V119
		h-7.4v31.7h-10.5L283.5,102.1L283.5,102.1z"/>
	<path class="st1" d="M318,136.2v0.7c0,0.8,0.2,1.5,0.7,2c0.3,0.6,0.8,1,1.4,1h1.4h20.1v10.7h-22.8c-2.1,0-3.7-0.2-4.9-0.6
		c-1.3-0.4-2.4-1.1-3.4-2c-1.1-1.1-1.9-2.3-2.3-3.5c-0.4-1.3-0.6-2.9-0.6-5l-0.1-21.5c0.2-6.5,3.5-9.8,10.2-9.9h14.1
		c6.5,0.2,9.8,3.5,9.9,10.2v8.5L318,136.2z M331.1,121.1v-0.2c0-0.6-0.2-1-0.7-1.4c-0.5-0.3-1.1-0.5-1.8-0.5h-7.3
		c-0.9,0-1.7,0.2-2.3,0.8c-0.7,0.5-1.1,1.1-1.1,1.9v4.3L331.1,121.1z"/>
	<path class="st1" d="M363.8,150.7c-1.6,0-3-0.2-4.3-0.4c-1.4-0.2-2.7-0.8-4.1-1.9c-1.4-1.3-2.5-2.6-3-4.2c-0.6-1.5-0.8-3.2-0.8-5.2
		v-20c-0.1-1.6,0.2-3,0.5-4.3c0.3-1.3,1.1-2.5,2.2-3.6c1.3-1.3,2.6-2.1,3.9-2.5c1.4-0.3,2.8-0.5,4.5-0.5h16.1v2.5h-15.6
		c-2.8,0-5,0.6-6.5,1.7c-1.6,1.3-2.5,3.4-2.5,6.4v20c0,1.4,0.2,2.8,0.6,4.1c0.4,1.4,1.2,2.5,2.2,3.4c1.1,0.8,2.3,1.4,3.4,1.6
		c1.2,0.2,2.4,0.3,3.7,0.3h15v2.5L363.8,150.7L363.8,150.7L363.8,150.7z"/>
	<path class="st1" d="M422.5,139.1c0,1.6-0.2,3-0.3,4.2c-0.3,1.4-1,2.6-2.1,3.9c-2.2,2.3-4.9,3.4-8.2,3.4h-12.5c-3.2,0-5.8-1-7.9-3
		c-2.1-1.9-3.1-4.6-3.1-7.9v-6.5c0.2-7.3,3.8-11,10.9-11.2h20.8v-2.9c0-2.3-0.7-4.4-2-6.2c-0.8-1.1-1.9-1.9-3-2.3
		c-1.2-0.2-2.5-0.5-3.9-0.5h-22.7v-2.5h21.5c1.9,0,3.8,0.2,5.4,0.4c0.8,0.2,1.6,0.5,2.3,1c0.8,0.4,1.4,1.1,2.1,1.9
		c1.9,2.5,2.9,5.4,2.9,8.6L422.5,139.1L422.5,139.1L422.5,139.1z M419.9,124.7h-21.1c-2.5,0.1-4.5,0.8-5.9,2.3s-2.2,3.6-2.2,6.3v6.4
		c0,1.3,0.2,2.4,0.4,3.4c0.2,1,0.9,2,1.9,2.9c1.8,1.5,3.8,2.2,6,2.2h12.7c5.3-0.1,8-2.9,8-8.5L419.9,124.7L419.9,124.7z"/>
	<path class="st1" d="M445.9,110.5c-5.8,0.2-8.7,3.3-8.6,9.6v30.7h-2.5v-30.7c-0.2-8,3.7-12.1,11.5-12.1h2.8v2.5H445.9z"/>
	<path class="st1" d="M490.8,138.9c-0.2,8.1-4.6,12.1-12.9,11.8h-9.3c-1.9,0-3.7-0.2-5.2-0.5c-1.6-0.4-3.1-1.4-4.6-3
		c-1.1-1.4-1.8-2.7-2.1-4.1c-0.3-1.4-0.6-3-0.5-4.6v-18.3c0.2-8.2,4.2-12.3,12.4-12.3h19.6V94h2.5L490.8,138.9L490.8,138.9z
		 M488.3,110.5h-19.9c-1.4,0-2.7,0.2-3.8,0.5c-1.2,0.2-2.4,1-3.5,2.2c-1,1.1-1.7,2.2-1.9,3.2c-0.3,1.1-0.6,2.4-0.5,3.9v19.5
		c0,3.3,0.9,5.4,2.9,6.6c0.9,0.6,1.9,1,3.1,1.3c1.2,0.2,2.5,0.5,3.8,0.5h8.6c3.2,0,5.8-0.8,7.9-2.2c2-1.4,3-3.8,3.1-7.4L488.3,110.5
		L488.3,110.5L488.3,110.5z"/>
	<g>
		<path class="st2" d="M14.8,106.7c0.8-0.3,1.7-0.6,2.5-0.8c1.5-7.2,7.9-12.7,15.6-12.7s14,5.4,15.6,12.7c2.4,0.4,4.2,1.4,5.8,2.8
			c0.1-1.4,0-2.7-0.2-4c-1-10.9-10.1-19.5-21.2-19.5c-11.4,0-20.8,9-21.3,20.5c-0.1,1-0.1,2-0.1,3C12.4,107.9,13.6,107.2,14.8,106.7
			z"/>
		<path class="st2" d="M45.3,108.3H19.8c-1.3,0-2.5,0.2-3.8,0.8c-1.3,0.6-2.3,1.2-3.1,2c-1.6,1.9-2.4,4.6-2.5,8.4v19.9
			c0.1,3.7,0.8,6.4,2.5,8.4c0.8,0.8,1.9,1.4,3.1,2c1.4,0.6,2.6,0.8,3.8,0.8h25.5c6.6-0.1,10-3.7,10.1-10.8V119
			C55.3,111.9,51.9,108.4,45.3,108.3z"/>
	</g>
</g>
</svg>
