<?xml version="1.0" encoding="utf-8"?>
<!-- Generator: Adobe Illustrator 23.0.1, SVG Export Plug-In . SVG Version: 6.00 Build 0)  -->
<svg version="1.1" id="Layer_1" xmlns="http://www.w3.org/2000/svg" xmlns:xlink="http://www.w3.org/1999/xlink" x="0px" y="0px"
	 viewBox="0 0 500 250" style="enable-background:new 0 0 500 250;" xml:space="preserve">
<style type="text/css">
	.st0{fill:none;}
	.st1{fill:#0000A0;}
</style>
<rect x="0" y="0" class="st0" width="500" height="250"/>
<g id="Lager_1">
	<path class="st1" d="M448.1,96.2c-19.4,1.4-35,17.3-36.4,36.8c-1.4,23,16.6,42.1,39.2,42.1c8.1,0,19.1-4.2,24-12.7V174h15.2v-37.5
		C490.9,111.7,471.1,94.4,448.1,96.2z M473.9,136.5c-0.7,13.1-12,23-25.5,21.2c-10.3-1.4-18.4-9.5-19.8-19.8
		c-1.4-13.8,9.2-25.5,22.6-25.5c12,0,21.9,9.5,22.6,21.6V136.5L473.9,136.5z"/>
	<path class="st1" d="M364.7,96.2c-20.9,0.7-38.5,16.6-38.5,39.9c0,21.2,17.3,39.2,39.6,39.2c15.6,0,30.8-9.2,36.8-24.4l-15.2-4.6
		c-2.8,6.4-9.5,11.7-17,13.1c-10.6,2.1-20.5-4.6-24.4-11.7l59-16.3C403.2,116,389.8,95.5,364.7,96.2z M342.8,133.7
		c0-8.1,4.9-17.7,15.6-21.6c12-4.6,22.6,1.4,27.2,9.9L342.8,133.7z"/>
	<path class="st1" d="M235,112.1V95.8c-14.8,0-19.8,7.4-22.3,11.3v-8.8h-17v36.1v39.2h17.3c0-23.3,0-23,0-37.1
		C213.1,119.5,222.9,112.8,235,112.1z"/>
	<polygon class="st1" points="79.1,143.6 27.5,82.8 9.8,82.8 9.8,173.6 28.2,173.6 28.2,112.8 80.5,174 96.4,174 96.4,82.8 
		79.1,82.8 	"/>
	<path class="st1" d="M315.9,74.6h-16.3v29.7c-3.9-4.9-15.9-9.2-26.2-8.1c-19.4,1.4-35,17.3-36.4,36.8c-1.4,23,16.6,42.1,39.2,42.1
		c8.5,0,20.1-3.9,24-11.3v9.9h15.2v-37.5c0-0.4,0-0.4,0-0.7s0-0.4,0-0.7L315.9,74.6L315.9,74.6z M298.9,136.5
		c-0.7,13.1-12,23-25.5,21.2c-10.3-1.4-18.4-9.5-19.8-19.8c-1.4-13.8,9.2-25.5,22.6-25.5c12,0,21.9,9.5,22.6,21.6
		C298.9,134,298.9,136.5,298.9,136.5z"/>
	<path class="st1" d="M146.2,95.8c-21.9,0-39.6,17.7-39.6,39.6s17.7,39.6,39.6,39.6s39.6-17.7,39.6-39.6
		C185.5,113.5,167.8,95.8,146.2,95.8z M146.2,158.1c-12.4,0-22.6-10.3-22.6-22.6s10.3-22.6,22.6-22.6s22.6,10.3,22.6,22.6
		C168.9,148.2,158.6,158.1,146.2,158.1z"/>
</g>
</svg>
