<?xml version="1.0" encoding="utf-8"?>
<!-- Generator: Adobe Illustrator 23.0.1, SVG Export Plug-In . SVG Version: 6.00 Build 0)  -->
<svg version="1.1" id="Layer_1" xmlns="http://www.w3.org/2000/svg" xmlns:xlink="http://www.w3.org/1999/xlink" x="0px" y="0px"
	 viewBox="0 0 500 250" style="enable-background:new 0 0 500 250;" xml:space="preserve">
<style type="text/css">
	.st0{fill:none;}
	.st1{fill:#595A5C;}
	.st2{fill:url(#XMLID_2_);}
	.st3{fill:#8F0506;}
</style>
<rect x="0" y="0" class="st0" width="500" height="250"/>
<g>
	<path id="XMLID_1016_" class="st1" d="M56.1,163.3c-19.9-2.8-35.3-20-35.3-40.7c0-22.7,18.4-41.1,41.1-41.1
		c17.4,0,32.2,10.8,38.2,26.1l7.6-9.7C99,81.7,81.7,70.5,61.9,70.5c-28.7,0-52.1,23.4-52.1,52.1c0,24.1,16.4,44.4,38.6,50.3
		L56.1,163.3z"/>
	
		<radialGradient id="XMLID_2_" cx="69.8869" cy="-87.7611" r="21.683" gradientTransform="matrix(1 0 0 1 0 203.6001)" gradientUnits="userSpaceOnUse">
		<stop  offset="0" style="stop-color:#D51E15"/>
		<stop  offset="1" style="stop-color:#8F0506"/>
	</radialGradient>
	<circle id="XMLID_1014_" class="st2" cx="63.1" cy="124.7" r="21.5"/>
	<path id="XMLID_1013_" class="st1" d="M35.7,134.6l-5.5,6.9c5.5,9.9,15.5,16.9,27.3,18.3v-8C47.7,150.3,39.5,143.6,35.7,134.6z"/>
	<path id="XMLID_1012_" class="st1" d="M98.2,123.9c0-16.6-11.3-30.7-26.6-34.9l-5.5,6.9c13.6,2,24.1,13.8,24.1,28
		c0,2.7-0.4,5.4-1.1,7.9h8.2C97.9,129.2,98.2,126.6,98.2,123.9z"/>
	<path id="XMLID_1011_" class="st3" d="M61.9,152.2c-0.8,0-1.6,0-2.4-0.1v8c0.8,0,1.6,0.1,2.4,0.1c16.3,0,30.1-10.8,34.7-25.6h-8.4
		C83.9,144.9,73.8,152.2,61.9,152.2z"/>
	<path class="st3" d="M177.8,147.4h-31.3V98.1h31.3v8.6h-21.4v10.6h19.3v8.6h-19.3v12.9h21.4V147.4z M230,126.3v21.1h-9.8v-4.1
		c-1.2,1.6-2.7,2.9-4.6,3.8c-1.9,0.9-3.9,1.3-6.1,1.3c-4.3,0-7.6-1.1-10-3.3c-2.4-2.2-3.6-5.3-3.6-9.3c0-4.3,1.4-7.5,4.3-9.5
		c2.9-2.1,7.3-3.1,13.2-3.1h6.8v-1.6c0-1.6-0.6-2.7-1.7-3.6c-1.2-0.8-2.9-1.2-5.1-1.2c-2.4,0-4.6,0.3-6.8,0.9
		c-2.2,0.6-4.5,1.5-6.9,2.8v-8.2c2.2-0.9,4.4-1.5,6.6-1.9s4.6-0.6,7.1-0.6c6.1,0,10.4,1.2,12.9,3.7C228.7,115.6,230,120,230,126.3z
		 M216.3,130c-3.7,0-6.2,0.5-7.7,1.4c-1.5,0.9-2.2,2.5-2.2,4.8c0,1.7,0.5,3,1.5,4c1,1,2.4,1.5,4.1,1.5c2.6,0,4.6-1,6.1-2.9
		c1.4-1.9,2.2-4.6,2.2-8.1v-0.6L216.3,130L216.3,130z M277.8,111.6v8.4c-1.8-1.2-3.7-2-5.7-2.6c-2-0.6-3.9-0.9-5.9-0.9
		c-2.2,0-3.9,0.3-5,0.9c-1.1,0.6-1.7,1.6-1.7,2.8c0,1.8,2.4,3.2,7.2,4.3l0.4,0.1l2.8,0.6c3.6,0.8,6.2,2.2,7.9,4
		c1.7,1.8,2.5,4.4,2.5,7.5c0,3.8-1.3,6.7-3.8,8.6c-2.5,1.9-6.4,2.9-11.5,2.9c-2.3,0-4.6-0.2-7-0.6c-2.4-0.4-4.8-1-7.2-1.7v-8.4
		c2.2,1.2,4.4,2.1,6.7,2.8c2.3,0.6,4.4,1,6.5,1c2.3,0,4.1-0.3,5.2-1c1.2-0.6,1.8-1.6,1.8-2.9c0-1.2-0.4-2.2-1.3-2.8
		c-0.8-0.6-2.8-1.4-6-2.1l-2.7-0.6c-3.8-0.8-6.5-2.1-8.2-3.9c-1.7-1.8-2.6-4.2-2.6-7.2c0-3.6,1.3-6.3,3.9-8.3s6.3-3,11.1-3
		c2.1,0,4.3,0.2,6.4,0.5C273.8,110.4,275.8,110.9,277.8,111.6z M320.2,151.4c-1.3,3.5-2.9,6-4.8,7.6c-1.8,1.6-4.1,2.4-6.7,2.4h-8.1
		V154h4c2,0,3.5-0.3,4.4-1c0.9-0.7,1.9-2.2,2.9-4.7l0.7-2l-14.3-35.9h10.4l8.6,24l8.2-24h10.4L320.2,151.4z M385.1,147.4h-31.3V98.1
		h31.3v8.6h-21.4v10.6H383v8.6h-19.3v12.9h21.4V147.4z M437.4,106.7H416v10.6h19.4v8.6H416v21.5h-9.9V98.1h31.3V106.7z M477.4,147.4
		h-9.9v-40.7h-12.8v-8.5h35.4v8.5h-12.8V147.4z"/>
	<path id="XMLID_999_" class="st3" d="M106,134.7c-4.1,20.6-22.3,36.2-44.1,36.2c-0.7,0-1.5,0-2.2,0v8.6c0.7,0,1.5,0,2.2,0
		c26.5,0,48.6-19.4,52.8-44.8L106,134.7L106,134.7z"/>
</g>
</svg>
