<?xml version="1.0" encoding="utf-8"?>
<!-- Generator: Adobe Illustrator 23.0.1, SVG Export Plug-In . SVG Version: 6.00 Build 0)  -->
<svg version="1.1" id="Layer_1" xmlns="http://www.w3.org/2000/svg" xmlns:xlink="http://www.w3.org/1999/xlink" x="0px" y="0px"
	 viewBox="0 0 500 250" style="enable-background:new 0 0 500 250;" xml:space="preserve">
<style type="text/css">
	.st0{fill:none;}
	.st1{fill:#FFFFFF;}
	.st2{fill:url(#path6338_1_);}
	.st3{fill:url(#path6349_1_);}
	.st4{fill:url(#path6360_1_);}
	.st5{fill:url(#path6371_1_);}
	.st6{fill:url(#path6384_1_);}
</style>
<rect x="0" y="0" class="st0" width="500" height="250"/>
<g id="g6321" transform="translate(-9.4000001,96.810998)">
	<g id="g6323" transform="matrix(1.8215159,0,0,1.8215159,-8.5437653,-109.83667)">
		<path id="path6325" class="st1" d="M230.5,112.7c0,12.9-10.5,23.5-23.5,23.5H79.1v-93c0-12.9,10.5-23.5,23.5-23.5h127.8V112.7
			L230.5,112.7z"/>
		<g id="g6327">
			
				<linearGradient id="path6338_1_" gradientUnits="userSpaceOnUse" x1="103.823" y1="132.4064" x2="140.7683" y2="132.4064" gradientTransform="matrix(2.0492 0 0 -2.0492 -32.1622 355.7172)">
				<stop  offset="0" style="stop-color:#007940"/>
				<stop  offset="0.2285" style="stop-color:#00873F"/>
				<stop  offset="0.7433" style="stop-color:#40A737"/>
				<stop  offset="1" style="stop-color:#5CB531"/>
			</linearGradient>
			<path id="path6338" class="st2" d="M188.8,88.8h9.7c0.3,0,0.9-0.1,1.2-0.1c1.8-0.4,3.4-2,3.4-4.3c0-2.2-1.6-3.9-3.4-4.3
				c-0.3-0.1-0.8-0.1-1.2-0.1h-9.7V88.8L188.8,88.8z"/>
			
				<linearGradient id="path6349_1_" gradientUnits="userSpaceOnUse" x1="103.8224" y1="135.5434" x2="140.737" y2="135.5434" gradientTransform="matrix(2.0492 0 0 -2.0492 -32.1622 355.7172)">
				<stop  offset="0" style="stop-color:#007940"/>
				<stop  offset="0.2285" style="stop-color:#00873F"/>
				<stop  offset="0.7433" style="stop-color:#40A737"/>
				<stop  offset="1" style="stop-color:#5CB531"/>
			</linearGradient>
			<path id="path6349" class="st3" d="M197.4,27.5c-9.2,0-16.8,7.5-16.8,16.8v17.5h23.8c0.6,0,1.2,0,1.7,0.1
				c5.4,0.3,9.3,3.1,9.3,7.9c0,3.8-2.7,7-7.7,7.7v0.2c5.5,0.4,9.6,3.4,9.6,8.1c0,5.1-4.6,8.4-10.7,8.4h-26.1v34.2h24.7
				c9.2,0,16.8-7.5,16.8-16.8V27.5L197.4,27.5L197.4,27.5z"/>
			
				<linearGradient id="path6360_1_" gradientUnits="userSpaceOnUse" x1="103.8225" y1="138.9962" x2="140.7693" y2="138.9962" gradientTransform="matrix(2.0492 0 0 -2.0492 -32.1622 355.7172)">
				<stop  offset="0" style="stop-color:#007940"/>
				<stop  offset="0.2285" style="stop-color:#00873F"/>
				<stop  offset="0.7433" style="stop-color:#40A737"/>
				<stop  offset="1" style="stop-color:#5CB531"/>
			</linearGradient>
			<path id="path6360" class="st4" d="M202,70.9c0-2.2-1.6-3.7-3.4-4c-0.2,0-0.6-0.1-0.9-0.1h-8.8V75h8.8c0.3,0,0.8,0,0.9-0.1
				C200.4,74.6,202,73.1,202,70.9z"/>
		</g>
		
			<linearGradient id="path6371_1_" gradientUnits="userSpaceOnUse" x1="58.4146" y1="135.5659" x2="95.9319" y2="135.5659" gradientTransform="matrix(2.0492 0 0 -2.0492 -32.1622 355.7172)">
			<stop  offset="0" style="stop-color:#1F286F"/>
			<stop  offset="0.4751" style="stop-color:#004E94"/>
			<stop  offset="0.8261" style="stop-color:#0066B1"/>
			<stop  offset="1" style="stop-color:#006FBC"/>
		</linearGradient>
		<path id="path6371" class="st5" d="M104.4,27.5c-9.2,0-16.8,7.5-16.8,16.8v41.5c4.7,2.3,9.6,3.8,14.5,3.8c5.8,0,9-3.5,9-8.3V61.7
			h14.4v19.5c0,7.6-4.7,13.8-20.7,13.8c-9.7,0-17.3-2.1-17.3-2.1v35.4h24.7c9.2,0,16.8-7.5,16.8-16.8v-84
			C129,27.5,104.4,27.5,104.4,27.5z"/>
		
			<linearGradient id="path6384_1_" gradientUnits="userSpaceOnUse" x1="81.0107" y1="135.5208" x2="117.4487" y2="135.5208" gradientTransform="matrix(2.0492 0 0 -2.0492 -32.1622 355.7172)">
			<stop  offset="0" style="stop-color:#6C2C2F"/>
			<stop  offset="0.1735" style="stop-color:#882730"/>
			<stop  offset="0.5731" style="stop-color:#BE1833"/>
			<stop  offset="0.8585" style="stop-color:#DC0436"/>
			<stop  offset="1" style="stop-color:#E60039"/>
		</linearGradient>
		<path id="path6384" class="st6" d="M150.9,27.5c-9.2,0-16.8,7.5-16.8,16.8v22c4.3-3.6,11.7-5.9,23.6-5.4c6.4,0.3,13.2,2,13.2,2
			v7.1c-3.4-1.8-7.5-3.3-12.8-3.7c-9.1-0.6-14.5,3.8-14.5,11.6c0,7.9,5.5,12.3,14.5,11.6c5.3-0.4,9.3-2,12.8-3.7V93
			c0,0-6.8,1.8-13.2,2c-11.9,0.6-19.3-1.8-23.6-5.4v38.8h24.7c9.2,0,16.8-7.5,16.8-16.8V27.5C175.6,27.5,150.9,27.5,150.9,27.5z"/>
	</g>
</g>
</svg>
