<?xml version="1.0" encoding="utf-8"?>
<!-- Generator: Adobe Illustrator 23.0.1, SVG Export Plug-In . SVG Version: 6.00 Build 0)  -->
<svg version="1.1" id="Layer_1" xmlns="http://www.w3.org/2000/svg" xmlns:xlink="http://www.w3.org/1999/xlink" x="0px" y="0px"
	 viewBox="0 0 500 250" style="enable-background:new 0 0 500 250;" xml:space="preserve">
<style type="text/css">
	.st0{fill:none;}
	.st1{fill:#393939;}
</style>
<rect x="0" y="0" class="st0" width="500" height="250"/>
<g transform="translate(0 -1)">
	<path class="st1" d="M110,83c6-0.2,11.1-4.5,12.3-10.4c0.5-2.6-0.2-5.4-2-7.4c-1.8-2-4.3-3.1-7-3c-6,0.1-11.2,4.4-12.3,10.4
		c-0.5,2.6,0.2,5.4,2,7.4C104.6,82.1,107.3,83.1,110,83z M490.2,88.8c-9.8-0.5-22.6,11.5-22.6,11.5l-4-10.3h-11.2l-5.4,30.5
		c-0.3,2.1-1.4,4-3.1,5.3l-14.7,11.7c0,0-6.1,4.6-14.4,10c-3.1,1.7-6.6,2.6-10.1,2.7c-6.8,0-11-2.6-13.1-7.1
		c-0.3-0.8-0.6-1.7-0.8-2.6l37.9-25.5c4-2.5,5.8-7.3,4.6-11.8c-2.5-8.2-9.8-14.3-22-14.3c-22.7,0-38.4,19.4-38.4,46.9
		c0,1.8,0.2,3.6,0.3,5.4l-10.7,7.5c-2.2,1.4-4.6,2.2-7.1,2.4c-3.2,0-4.6-2.5-3.6-8l14.1-78.7h-17.6l-7,39.2c-0.3,1.7-1,3.2-2.2,4.4
		l-19.4,20.4c0.5-3.5,0.7-7.1,0.7-10.7c0-16.6-7.7-28.8-20.6-28.8C287.3,89,278,99.5,278,99.5l-4.9-9.4h-11l-6,34.5
		c-0.3,1.5-1,2.9-2,4.1l-11.2,13.3c-3.1,3.3-6.4,7.5-8,7.6c-3,0.5-4.2-0.6-3.2-6.1l4.5-25.1c3.5-19.8-2.4-29.8-19.5-29.8
		c-10.1,0-22,11.4-22,11.4c-2.6-7.4-8.7-11.4-18.1-11.4c-10.3,0-21.5,12-21.5,12l-4.6-10.5h-11.1l-5.9,32.7c-0.2,1.5-1,3-2,4.1
		L118.7,142c-3.1,3.3-6.4,7.5-8,7.6c-3,0.5-4.2-0.6-3.2-6.1l9.7-53.5H99.5l-2.9,15.7c-0.4,2.1-1.3,4-2.6,5.5l-25.8,29.9
		c-4.4,4.7-10.4,7.7-16.8,8.3H33.1l41.5-47l2.2-12.7H23.4l-2.6,14.3h31.1l-40.1,47.1l-2,13.4c0,0,37.6,0.2,38.2,0
		c11.1,0,20.8-9.8,24.8-13.8l20-23.5l-3.6,19.9c-2.2,12.9,2.6,19,13.4,18.8c6.6-0.2,11.1-4.5,15.5-9l12.1-14.2l-4.1,22.8h17.7
		l7.8-44.7c1-5.5,8.1-14.9,15.5-14.9c7.8,0,11.6,3.9,9.8,14.4l-7.9,45.2h17.5l8.5-48c0.5-3.2,6.2-12.2,14.2-12.2
		c8.2,0,11,4.5,9.1,15.1l-4.9,26.7c-2.2,12.9,2.6,19,13.4,18.8c6.6-0.2,11.1-4.5,15.5-9l10.3-12.3l-3.7,21l-4.2,24.2h17.7l5.8-33
		c2.6,3.3,6.2,5.7,10.2,7c1,0.3,2,0.6,3,0.7c11.5,0.6,21.6-5,30.8-14.4l25.9-26.7l-4.2,23.3c-2.2,12.9,2.6,18.8,13.3,18.8
		c6.9,0,13.4-3.4,20.2-7.8l9-6.5c0.2,0.3,0.3,0.7,0.5,1c4.1,7.8,11.5,13.1,22.7,13.2c11.7,0,23.1-11.1,29.7-15.7
		c1.7-1.2,8.1-6.3,15-11.9l-4.9,27.7H457l7.8-44.7c1-5.5,8.1-14.9,15.5-14.9c2.4-0.2,4.8,0.5,6.9,1.7L490.2,88.8L490.2,88.8z
		 M270.5,143l4.1-23.5c1.8-5.5,8.3-13,15.1-13.5c3-0.4,6.2,0.4,8.6,2.3c2.7,3.5,4.1,7.9,3.8,12.4c0,16.7-8.2,28.3-19.6,28.3
		C277.7,149.4,273.2,147.1,270.5,143z M391.4,121.2c2-9.3,9.4-17.1,17.9-17.1c4.7,0,8.2,3.5,7,7.4l-26,17.9
		C390.3,126.7,390.7,123.9,391.4,121.2z"/>
</g>
</svg>
