<?xml version="1.0" encoding="utf-8"?>
<!-- Generator: Adobe Illustrator 23.0.1, SVG Export Plug-In . SVG Version: 6.00 Build 0)  -->
<svg version="1.1" id="Layer_1" xmlns="http://www.w3.org/2000/svg" xmlns:xlink="http://www.w3.org/1999/xlink" x="0px" y="0px"
	 viewBox="0 0 500 250" style="enable-background:new 0 0 500 250;" xml:space="preserve">
<style type="text/css">
	.st0{fill:none;}
	.st1{fill:#2C99CE;}
</style>
<rect y="0.9" class="st0" width="500" height="250"/>
<g>
	<polygon class="st1" points="200.2,84.3 209.2,84.3 227.1,126.4 244.6,84.3 253.6,84.3 253.6,148.9 244.1,148.9 244.1,108.6 
		243.9,108.6 230.1,142.4 224.2,142.4 209.8,108.6 209.6,108.6 209.6,148.9 200.2,148.9 	"/>
	<rect x="267.1" y="102.8" class="st1" width="8.9" height="45.9"/>
	<polygon class="st1" points="289.2,84.3 324.6,84.3 324.6,93.5 298.7,93.5 298.7,112.6 324.6,112.6 324.6,121.2 298.7,121.2 
		298.7,148.9 289.2,148.9 	"/>
	<rect x="333.9" y="102.8" class="st1" width="8.9" height="45.9"/>
	<path class="st1" d="M355.1,102.8h8.9v4.9h0.1c3-3.7,6.8-5.5,11.6-5.5c3.7,0,7.1,1.3,10.1,4c3,2.7,4.6,6.7,4.7,12v30.5h-8.9v-27.3
		c0-3.3-0.9-5.6-2.5-7.4c-1.6-1.8-3.7-2.5-6.4-2.5c-2.5,0-4.7,0.9-6.4,2.5s-2.5,4.1-2.5,7.4v27.4h-8.9L355.1,102.8L355.1,102.8z"/>
	<rect x="402.3" y="102.8" class="st1" width="8.9" height="45.9"/>
	<path class="st1" d="M424.5,84.5h8.9v18.4h6.5v7.1h-6.5v26.8c0,2.4,1,3.4,3.1,3.4h3.4v8.7h-4.6c-3.1,0-5.8-1-7.7-3
		c-2.1-1.9-3.1-4.7-3.1-8.3V110h-4.4v-7.1h4.4L424.5,84.5L424.5,84.5z"/>
	<path class="st1" d="M445.9,102.8h9.5l10.5,32.1h0.1l10.5-32.1h9.5l-19.1,55.5c-1.2,3.4-3,5.8-5,7.1c-2.2,1.3-4.7,1.9-7.4,1.9h-3
		v-8.7h2.7c1.2,0,2.2-0.3,3.3-1s1.6-1.6,2.1-3l2.4-7.7L445.9,102.8z"/>
	<circle class="st1" cx="271.5" cy="89.8" r="5.5"/>
	<circle class="st1" cx="338.3" cy="89.8" r="5.5"/>
	<circle class="st1" cx="406.8" cy="89.8" r="5.5"/>
	<g>
		<g>
			<circle class="st1" cx="81.8" cy="105.5" r="2.7"/>
			<circle class="st1" cx="75.2" cy="99.9" r="3"/>
			<circle class="st1" cx="67.5" cy="94.8" r="3.1"/>
			<circle class="st1" cx="58.4" cy="91.4" r="3.1"/>
			<circle class="st1" cx="48.5" cy="90.4" r="3.7"/>
			<circle class="st1" cx="37.7" cy="92.6" r="4.1"/>
			<circle class="st1" cx="27.3" cy="99.9" r="4.6"/>
			<circle class="st1" cx="19.9" cy="110.3" r="4.9"/>
			<circle class="st1" cx="19.3" cy="125.1" r="5.3"/>
			<circle class="st1" cx="27.8" cy="138.1" r="6.1"/>
			<circle class="st1" cx="92.5" cy="118.1" r="5.3"/>
			<circle class="st1" cx="104" cy="106.3" r="5.6"/>
			<circle class="st1" cx="79.2" cy="129.5" r="5.9"/>
			<circle class="st1" cx="64.1" cy="138.8" r="7.1"/>
			<circle class="st1" cx="45.2" cy="143.3" r="8.1"/>
			<circle class="st1" cx="119.6" cy="96.6" r="6.8"/>
			<circle class="st1" cx="138.4" cy="91.7" r="7.4"/>
			<circle class="st1" cx="155.1" cy="97.1" r="6.1"/>
			<circle class="st1" cx="163.6" cy="111.1" r="5.3"/>
			<circle class="st1" cx="163.3" cy="125.8" r="4.6"/>
			<circle class="st1" cx="155.6" cy="136.2" r="4.1"/>
			<circle class="st1" cx="145.8" cy="142.8" r="4.1"/>
			<circle class="st1" cx="134.9" cy="145.1" r="3.7"/>
			<circle class="st1" cx="124.5" cy="144.3" r="3.1"/>
			<circle class="st1" cx="115.9" cy="140.6" r="3"/>
			<circle class="st1" cx="108" cy="136.2" r="2.7"/>
		</g>
	</g>
</g>
</svg>
