<?xml version="1.0" encoding="utf-8"?>
<!-- Generator: Adobe Illustrator 23.0.1, SVG Export Plug-In . SVG Version: 6.00 Build 0)  -->
<svg version="1.1" id="Layer_1" xmlns="http://www.w3.org/2000/svg" xmlns:xlink="http://www.w3.org/1999/xlink" x="0px" y="0px"
	 viewBox="0 0 500 250" style="enable-background:new 0 0 500 250;" xml:space="preserve">
<style type="text/css">
	.st0{fill:none;}
	.st1{fill:#002E6C;}
</style>
<rect y="-0.9" class="st0" width="500" height="250"/>
<path class="st1" d="M27,149.5h102v-14.7H27V149.5z M27,113.1h20.4V98.5H27V113.1z M67.8,113.1h20.4V98.5H67.8L67.8,113.1z
	 M108.6,113.1H129V98.5h-20.4V113.1z M76.2,131.3H27v-14.7h49.2V131.3z M129,131.3H79.8v-14.7H129V131.3z M206.2,147.7
	c6.7-0.2,8.2-1.5,8.2-4.3v-38.8c0-2.8-1.5-4.1-8.2-4.3v-1.6h23.6v1.6c-6.7,0.2-8.2,1.6-8.2,4.3v38.8c0,2.8,1.5,4,8.2,4.3v1.7h-23.6
	V147.7z M245.6,147.7c6.7-0.2,8.7-1.5,8.7-4.3v-42.7h-3.7c-6.3,0-9.5,0-13.2,9.3l-1.6-0.2l0.4-11.2h43.3l0.5,11.2l-1.6,0.2
	c-3.4-8.6-6.7-9.3-13.2-9.3h-3.8v42.7c0,2.8,2,4,8.7,4.3v1.7h-24.4L245.6,147.7L245.6,147.7z M380.1,147.7c6.5-0.2,8.2-1.5,8.2-4.3
	v-38.8c0-2.8-1.7-4.1-8.2-4.3v-1.6h41.2l0.2,11.2l-1.6,0.1c-3.1-9.1-5.7-9.1-14.2-9.1h-10.3v21.2h4.6c5.9,0,8.5-1.3,10.5-9.4h1.5
	v20.8h-1.5c-1.9-8-4.6-9.3-10.5-9.3h-4.6v22.7h10.3c10,0,13.4,0.3,16.7-9.3l1.7,0.1l-0.4,11.8h-43.5
	C380.1,149.5,380.1,147.7,380.1,147.7z M431.6,147.7c6.5-0.2,8.2-1.5,8.2-4.3v-38.8c0-2.8-1.6-4.1-8.2-4.3v-1.6h23.1v1.6
	c-6.7,0.2-7.8,1.5-7.8,4.3v42.2h7.5c9.9,0,13.4-3,17-13.9l1.6,0.1l-0.6,16.4h-40.8V147.7z M348.3,147h-5.5v-46.2h5.5
	c13.6,0,20.4,5.9,20.4,22.8C368.6,140.3,364.2,147,348.3,147 M349,98.7h-20.3v1.7c5.4,0.4,6.9,1.7,6.9,4.3v38.8
	c0,2.6-1.5,3.8-6.9,4.2v1.8h21c18.9,0,27-12.7,27-26.3C376.7,109,367.4,98.7,349,98.7 M291.2,128l8.2-21.2h0.3l7.3,21.2
	C307.1,128,291.2,128,291.2,128z M319.3,140.9l-15.9-43.4h-2.5l-15.6,39c-3,7.4-5.1,10.2-10.1,11.4v1.6h16.9v-1.6
	c-6.7-1.1-7.4-2.8-4.3-10.9l2.6-6.8h17.4l4,11.7c1.5,4.2,0.4,5.7-6.4,6.1v1.6h21.1v-1.8C322.1,146.8,320.9,145.2,319.3,140.9z
	 M182.8,99.5c-8.8,0-17.1,7.8-17.1,24.9c0,16.2,9.9,23,18.5,23c2.6,0,5.2-0.7,7.5-2c2.3-1.3,4.4-3,5.9-5.2c1.1-1.5,1.8-3.1,2.5-5
	l1.7,0.5c-0.8,2.7-2,5.4-3.7,7.6c-1.7,2.2-3.8,4-6.2,5.3c-0.7,0.4-1.4,0.7-2.1,0.9c-0.8,0.3-1.6,0.5-2.5,0.7c-1.7,0.4-3.4,0.5-5,0.5
	c-14.5,0-24.6-10.4-24.6-26.1c0-15.5,11.5-27.2,26.1-27.2c5.3,0,9.6,1.4,12.7,3.1l2.6,0l0.5,4.9l1,8.5H199
	C195.5,104.8,190.4,99.5,182.8,99.5"/>
</svg>
