<?xml version="1.0" encoding="utf-8"?>
<!-- Generator: Adobe Illustrator 23.0.1, SVG Export Plug-In . SVG Version: 6.00 Build 0)  -->
<svg version="1.1" id="Layer_1" xmlns="http://www.w3.org/2000/svg" xmlns:xlink="http://www.w3.org/1999/xlink" x="0px" y="0px"
	 viewBox="0 0 500 250" style="enable-background:new 0 0 500 250;" xml:space="preserve">
<style type="text/css">
	.st0{fill:none;}
	.st1{fill:#00AEEF;}
</style>
<rect x="-0.8" y="0" class="st0" width="500" height="250"/>
<g id="entercash">
	<path id="XMLID_386_" class="st1" d="M45.9,79.2c7.5-0.5,15.3,0.5,22.3,3.2c7.8,3,14.9,8.1,20.1,14.6c5.2,6.5,8.6,14.5,9.6,22.8
		c0.9,7.3-0.1,14.8-2.8,21.7c-3.1,7.8-8.4,14.6-15.1,19.7c-11.8,9-27.7,12-42,8.2c-8.8-2.3-16.7-7.1-23-13.6c-2.1-2.3-4.4-4.2-6-6.9
		c4,1.4,7.4,4.5,11.3,6.5c6.4,3.5,13.5,5.1,20.8,5.3c3.5,0,6.9-1,9.6-3.3c1.5-1.4,2.7-3.5,2.5-5.6c-0.1-1.7-1.1-3.3-2.6-4.2
		c-2.2-1.3-4.6-1.4-7.1-1.2c-6.8,0.8-13.8-1.2-19.3-5.2c-4.8-3.5-8-8.5-10-14c-0.6-1.8-1.1-4-0.5-5.8c0.4-1.3,1.5-2.1,2.9-2.2
		c2.9-0.3,5.8,1,8.3,2.3c4.2,2.2,8.6,4.2,12.9,6.2c2.3,1.1,4.9,1.1,7.2-0.1c2.3-1.2,3.9-3.6,3.9-6.2c0-2.8-1.6-5.3-4.1-6.5
		c-4.4-2.1-8.7-4.5-13.2-6.4c-2.3-1-5-2.2-6.7-4.1c-1.1-1.3-1.2-2.9-0.2-4.2c1.5-1.9,4.1-3.1,6.3-4.1c11.9-5,27,0.3,33.4,11.4
		c2,3.7,7.5,4.4,10.6,1.7c1.8-1.6,2.4-4.1,1.9-6.4c-0.7-3.3-2.6-6.4-4.7-8.9c-4.8-5.3-11.1-9.3-17.8-11.5
		C51.3,81.3,48.5,80.7,45.9,79.2z"/>
	<path id="XMLID_388_" class="st1" d="M455.5,96.8c1.8,0,3.8-0.2,5.5,0.4c1.5,0.8,1.4,2.5,1.5,4c0,5.3,0,10.5,0,15.7
		c2.3-2.1,4.9-3.6,8-4.1c5-0.9,10.3-0.6,14.5,2.6c3.3,2.4,4.4,6.4,4.5,10.3c0,8.2,0,16.3,0,24.5c0,1.1,0,2.5-0.5,3.5
		c-0.8,1.3-2.2,1.3-3.5,1.4c-1.7,0-3.6,0.1-5.2-0.3c-1.6-0.6-1.6-2.1-1.7-3.6c0-7,0-14.1,0-21.1c0-1.6,0-3.6-0.9-5
		c-0.8-1.3-2.2-1.9-3.6-2.2c-3.7-0.6-8.3-0.1-10.2,3.6c-1.1,2.2-1.2,5-1.3,7.4c0,5.6,0,11.1,0,16.7c0,1.2,0,2.7-1,3.6
		c-0.8,0.8-2.5,0.8-3.6,0.8c-1.6,0-3.5,0.1-5-0.5c-1.5-0.8-1.3-2.5-1.4-3.9c0-15.5,0-31,0-46.5c0-1.8-0.2-3.9,0.3-5.6
		C452.6,97,454,96.9,455.5,96.8z M237.3,102.8c1.6-0.4,3.6-0.4,5.2,0c1.2,0.2,1.9,1.2,2,2.4c0.2,2.7,0,5.5,0.1,8.2
		c3.7,0.1,7.5-0.2,11.3,0.2c1.3,0.1,2.4,0.7,2.7,2.1c0.4,2,0.4,4.3-0.1,6.3c-0.6,1.6-2.1,1.7-3.5,1.8c-3.4,0.1-6.9,0-10.3,0
		c0,5.1,0,10.1,0,15.2c0,1.9,0,4,1.4,5.5c1.4,1.4,3.6,1.4,5.5,1.4c2.4-0.1,5-0.9,7.4-0.7c1.6,0.4,1.4,2.4,1.5,3.6
		c0,1.9,0.1,4.5-1.6,5.7c-2,1.4-4.9,1.5-7.2,1.6c-4.5,0.2-9.3-0.3-12.9-3.3c-3.4-2.8-4.6-7.2-4.7-11.4c0-5.9,0-11.8,0-17.6
		c-1.9,0-4.2,0.3-6-0.4c-1.4-0.5-1.5-2.3-1.6-3.5c0-1.5,0-3.8,1.4-4.7c1.8-1,4.1-1.2,6.1-1.7c0.5-2.7,0.7-5.5,1.3-8.2
		C235.3,104,236.1,103.1,237.3,102.8z M206.4,112.5c4.2,0.2,8.7,1.2,11.9,4.2c3.1,2.9,4.3,7.3,4.3,11.4c0,7.5,0,15,0,22.5
		c0,1.2,0,2.7-1,3.6c-0.9,0.8-2.5,0.8-3.6,0.8c-1.6,0-3.5,0.1-5-0.5c-1.5-0.8-1.3-2.5-1.4-3.9c0-6.9,0-13.7,0-20.6
		c-0.1-1.8,0-4.1-1.3-5.5c-1.4-1.5-4.1-1.7-6-1.8c-2.2,0-5.1,0.1-6.9,1.5c-1.7,1.3-1.7,3.9-1.8,5.9c0,6.9,0,13.7,0,20.6
		c0,1.2,0,2.7-1,3.6c-0.9,0.8-2.5,0.8-3.6,0.8c-1.6,0-3.5,0.1-5-0.5c-1.5-0.8-1.3-2.5-1.4-3.9c0-7.3,0-14.7,0-22
		c0-2.9,0.6-5.8,1.9-8.4c1.4-2.7,3.7-4.6,6.4-5.9C197.2,112.5,202.1,112.2,206.4,112.5z M327.3,112.4c1.5,0.1,3,0.2,3.8,1.7
		c0.8,1.7,0.7,3.9,0.6,5.8c-0.1,1.1-0.3,2.4-1.5,2.8c-2.7,0.5-6.2-0.5-8.5,1.3c-1.4,1.1-1.5,3.5-1.5,5.1c0,7.2,0,14.4,0,21.6
		c0,1.2,0,2.7-1,3.6c-0.9,0.8-2.5,0.8-3.6,0.8c-1.6,0-3.5,0.1-5-0.5c-1.5-0.8-1.3-2.5-1.4-3.9c0-8.2,0-16.3,0-24.5
		c0.1-4.7,2.3-9.2,6.6-11.5C319.2,112.8,323.5,112.3,327.3,112.4z M356.7,112.4c2.2,0.2,4.8,0.5,6.7,1.7c1.6,1.1,1.4,4,1.4,5.7
		c-0.1,1.4-0.1,3.4-1.8,3.7c-2.6,0.1-5.1-0.9-7.7-0.8c-2.4,0-5.6,0.2-7.4,1.9c-1.8,1.8-1.8,4.6-1.9,6.9c0,3-0.2,6.1,0.3,9.1
		c0.4,2.1,1.8,3.7,3.8,4.3c3.8,1.3,7.6,0.8,11.5,0.2c1.5-0.2,3.1-0.4,3.6,1.4c0.5,1.7,0.4,4.7-0.1,6.4c-0.5,1.8-2.5,2.2-4,2.6
		c-4.3,0.9-8.9,0.7-13.2-0.1c-4.6-1-8.7-3.3-10.9-7.6c-2.1-4-2.1-8-2-12.3c0.1-3.9-0.4-7.8,0.8-11.5c1-3.4,3.3-6.5,6.3-8.4
		C346.3,112.9,351.8,112.2,356.7,112.4z M431.5,112.5c2.8,0.2,5.9,0.6,8.4,1.8c2.1,1,2,3.5,2,5.5c-0.1,1.4,0,3.4-1.7,4
		c-1.4,0.2-3-0.2-4.3-0.5c-3.4-0.7-6.9-0.8-10.3-0.6c-1,0.1-3,0.4-3.3,1.6c-0.4,1.8,1.8,2.5,3,3.1c3.4,1.4,6.8,2.6,10.2,4
		c2.7,1.2,5.3,2.8,6.8,5.4c1.5,2.6,1.6,5.9,1.3,8.9c-0.3,3-1.7,5.8-4.2,7.4c-2.9,2-6.9,2.6-10.4,2.8c-4.7,0.2-9.9,0.1-14.4-1.2
		c-1.3-0.4-2.9-1-3.4-2.4c-0.5-1.6-0.5-3.5-0.3-5.2c0.1-1.1,0.3-2.4,1.6-2.9c1.4-0.2,3,0.3,4.3,0.6c4,1,8.2,1.1,12.3,1
		c1.3-0.1,2.9-0.1,3.8-1.3c0.3-1,0.3-1.9-0.6-2.5c-1.9-1.4-4.4-2.2-6.6-3.2c-2.9-1.3-6-2.3-8.8-3.9c-2.7-1.6-4.7-4.2-5.1-7.4
		c-0.3-3-0.3-6.5,1.2-9.2c1.3-2.4,3.6-3.9,6.1-4.7C422.9,112.4,427.4,112.3,431.5,112.5z M173.8,118.2c-2.9-3.8-7.3-5.3-11.9-5.7
		c-4.8-0.3-9.6-0.1-14,2.1c-3.4,1.7-6,4.9-7.1,8.5c-1.6,4.8-0.9,9.6-1.1,14.7c-0.1,4.5,0.8,9,3.8,12.5c3,3.4,7.3,4.7,11.6,5.3
		c4.3,0.5,8.7,0.5,12.9-0.1c2.1-0.3,4.5-0.7,6.3-1.8c1.3-0.9,1.3-2.3,1.4-3.7c0.1-1.5,0.1-3.2-0.4-4.7c-0.7-1.5-2.3-1.1-3.6-1
		c-3.4,0.6-6.8,1.2-10.3,1.2c-2.9,0-6.8-0.2-9.1-2.2c-1.6-1.4-1.5-3.2-1.8-5.2c7,0,14.1,0,21.1,0c1.5-0.1,3.2,0,4.2-1.2
		c1.1-1.3,1.1-3.6,1.2-5.2C177.2,127.2,176.7,122.2,173.8,118.2z M150.6,129.6c0.2-1.9,0.1-3.9,1.5-5.4c1.7-1.9,4.5-2.3,6.9-2.3
		c2.3,0,5.1,0.6,6.6,2.5c1.1,1.4,1.1,3.4,1.3,5.1C161.4,129.6,156,129.6,150.6,129.6z M298.5,118.2c-2.9-3.8-7.3-5.3-11.9-5.7
		c-4.8-0.3-9.6-0.1-14,2.1c-3.4,1.7-6,4.9-7.1,8.6c-1.6,4.8-0.9,9.6-1.1,14.7c-0.1,4.5,0.8,9,3.8,12.5c3,3.4,7.3,4.7,11.6,5.3
		c4.2,0.5,8.6,0.5,12.7,0c2.1-0.4,4.6-0.7,6.5-1.9c1.3-0.9,1.3-2.3,1.5-3.7c0.1-1.5,0.1-3.2-0.4-4.7c-0.7-1.4-2.3-1.1-3.6-0.9
		c-3.4,0.6-6.8,1.2-10.3,1.2c-2.9,0-6.8-0.2-9.1-2.2c-1.6-1.4-1.5-3.2-1.8-5.2c7,0,14.1,0,21.1,0c1.5-0.1,3.2,0,4.2-1.2
		c1.1-1.3,1.1-3.6,1.2-5.2C302,127.2,301.5,122.2,298.5,118.2z M275.3,129.6c0.2-1.9,0.1-3.9,1.5-5.4c1.7-1.9,4.5-2.3,6.9-2.3
		c2.3,0,5.1,0.6,6.6,2.5c1.1,1.4,1.1,3.4,1.3,5.1C286.2,129.6,280.8,129.6,275.3,129.6z M401.3,117.2c-2.5-2.6-6.3-3.7-9.8-4.3
		c-4.4-0.6-9-0.6-13.5-0.1c-1.7,0.3-3.8,0.5-4.6,2.3c-0.6,1.6-0.5,3.5-0.2,5.2c0.2,1.1,0.8,2,2,2c3,0.1,5.9-0.7,8.8-0.6
		c2.6,0,6.1-0.1,8.3,1.5c1.9,1.4,1.4,4.7,1.5,6.8c-4.2,0.1-8.5-0.2-12.7,0.2c-3.8,0.4-7.8,1.6-10.3,4.7c-2.4,2.9-2.7,6.7-2.3,10.3
		c0.3,3.3,2.1,6.4,5,8.1c4.2,2.5,9.7,2.8,14.5,2.7c4.1-0.1,9-0.7,12.4-3.3c2.9-2.1,4.2-5.5,4.2-8.9c0-5.9,0-11.8,0-17.6
		C404.6,122.8,403.7,119.6,401.3,117.2z M393,144.8c-1.1,1.7-3.1,1.9-5,2.1c-2.1,0.1-4.5,0.2-6.5-0.6c-2.6-1-3.1-5.2-0.8-6.9
		c1.4-1,3.2-1.1,4.8-1.2c2.8,0,5.6,0,8.4,0C393.8,140.3,394.1,143.1,393,144.8z"/>
</g>
</svg>
