<?xml version="1.0" encoding="utf-8"?>
<!-- Generator: Adobe Illustrator 23.0.1, SVG Export Plug-In . SVG Version: 6.00 Build 0)  -->
<svg version="1.1" id="Layer_1" xmlns="http://www.w3.org/2000/svg" xmlns:xlink="http://www.w3.org/1999/xlink" x="0px" y="0px"
	 viewBox="0 0 500 250" style="enable-background:new 0 0 500 250;" xml:space="preserve">
<style type="text/css">
	.st0{fill:none;}
	.st1{fill:#02A9FC;}
	.st2{fill:#0F0F0F;}
</style>
<rect y="0.9" class="st0" width="500" height="250"/>
<g id="upaycard">
	<path id="XMLID_1303_" class="st1" d="M19.1,75.3c4.7,0,9.4,0,14.1,0c0.2,12.8,0.3,52.5,0.3,52.5c0,6.8,0,13,16.9,13.2
		c16.3,0.2,16.8-10,16.7-13.9c-0.1-17.2,0-34.5-0.1-51.7c4.9,0,9.8,0,14.7-0.1c0,17.7,0,35.3,0.1,53c-0.1,5.7-0.1,11.9-3.5,16.8
		c-3.5,5.2-9.7,7.3-15.7,7.9c-7.7,0.6-15.4,0.5-23.1,0.1c-6.1-0.4-12.5-2-16.4-7.1c-4-4.9-3.9-10.4-4-16.5
		C19.1,111.4,19,93.3,19.1,75.3z"/>
	<path id="XMLID_1501_" class="st2" d="M303.2,74.9c7.2,0.3,14.5-1.2,20.4,3.8c5.9,5.1,5.9,13.7,6,20.9c-2.9,0-5.8,0-8.6,0
		c-0.4-4.4,0.3-10.9-3-14.2c-3-3.2-8.3-2.8-12.3-2.9c-6.3,0.2-13.5-0.4-19.4,1.8c-3.7,1.2-6.2,4.8-6.8,8.6
		c-1.1,6.8-0.5,13.9-0.7,20.7c0.1,7.7-0.4,16,1.5,23.6c1.2,4.7,4.8,7.8,9.6,8.2c6.1,0.5,12.2,0.2,18.3,0.2c4.2-0.2,9.1-0.5,11.9-4.3
		c2.4-4.1,1.8-10.2,2-14.8c2.9,0,5.7,0,8.6,0c-0.1,6.5,0.8,14.2-3.2,19.8c-3,4.8-9.5,6.4-14.7,6.9c-7.2,0.4-14.4,0.2-21.6,0.2
		c-5.8,0-12-2.4-15.7-7c-4.2-4.8-5.2-12.1-5.3-18.2c0-10.1-0.1-20.3,0.1-30.4c0.3-7,1.7-13.8,7.7-18.2
		C285.3,74,294.3,75.2,303.2,74.9z M152.8,96.6c-0.5-5.4-1.8-12.3-5.9-16.2c-6.1-5.2-14.7-5.2-22.3-5.2c-10.7,0.2-21.4-0.3-32,0.2
		c-0.5,25.7-0.1,51.7-0.2,77.5c4.9,0,9.8,0,14.6,0c0-8.4,0-16.8,0-25.2c9-0.1,18,0.3,27-0.3c6-0.6,11.7-1.7,15.2-7.1
		C153.2,113.4,153.3,104.3,152.8,96.6z M137.5,109.8c-1.1,3.5-4.7,4.7-8,5c-7.5,0.4-15,0-22.5,0.2c0.1-8.9,0-17.8,0-26.7
		c7.9,0.2,15.8-0.2,23.7,0.2c3.4,0,6.3,2.2,6.9,5.6C138.5,99.2,138.6,104.8,137.5,109.8z M212.8,98.6c4.3-0.4,8.7-0.2,13.1-0.2
		c4.5,15.4,9,30.9,13.4,46.4c3.4-15.4,7-30.8,10.2-46.3c4.4-0.1,8.9-0.1,13.3,0c-3,10.2-5,20.6-7.7,30.9c-3,11.4-5.2,23-8.7,34.4
		c-1.4,4.6-3.9,9-8.4,11.2c-4.9,2.3-9.6,1.7-14.8,1.7c-0.1-3.3-0.1-6.5-0.1-9.8c2.8-0.4,6.4,0.1,8.4-2.1c3.3-2.9,3.7-7.7,4.8-11.8
		c-2.1,0-4.1-0.1-6.2-0.1C224.4,134.8,218.4,116.7,212.8,98.6z M391.2,98.4c2.6,0,5.3,0,8,0c-0.2,2.2-0.4,4.4-0.7,6.6
		c3-3.2,5.7-6.1,10.3-6.6c5.1-0.5,12.1-1.1,16,3.1c3.9,3.6,3.8,10.7,4.1,15.6c-2.7,0-5.3,0-8,0c-0.2-3.8,0.5-7.2-2.4-9.8
		c-3.3-3-7.6-3.2-12-1.8c-3.8,1-6.4,4.4-6.9,8.2c-0.9,6-0.3,12.2-0.3,18.2c-0.1,7-0.1,14-0.1,21.1c-2.6,0-5.3,0-8,0
		C391.1,134.8,391.2,116.6,391.2,98.4z M473,75.2c0.1,9.8-0.4,19.7,0,29.5c-2.5-2.5-4.5-5-8.1-5.9c-4.8-1-9.8-0.9-14.7-0.5
		c-6,0.5-11.6,4.4-13.5,10.3c-2,6.2-1.8,13.2-1.8,19.6c0.2,5.6,0.3,12.2,3,17.2c2.7,5.3,9,7.7,14.7,7.9c4.4,0.1,9.7,0.4,13.7-1.6
		c2.9-1.2,4.5-3.4,6.6-5.6c-0.1,2.2,0.1,4.5,0,6.7c2.8,0,5.2,0,8,0c0-25.9,0-51.8,0-77.6C478.3,75.3,475.7,75.3,473,75.2z
		 M472.5,134.4c-0.3,4.4-1.7,9.2-6.1,11.1c-5,1.8-11.7,1.8-16.8,0.1c-3.8-1.3-5.3-6.4-5.8-10c-0.7-6.7-0.7-13.9,0-20.5
		c0.5-3.2,1.5-7.3,4.6-9c4.9-1.8,11.2-1.8,16.2-0.6c4.4,1.1,7,4.9,7.5,9.2C473,121.2,472.8,127.9,472.5,134.4z M379.5,103
		c-2.7-3-6.6-4.4-10.6-4.6c-6.1-0.4-12.3-0.4-18.4,0.1c-3.9,0.3-7.6,2.4-9.7,5.7c-1.5,2.9-1.7,6.6-2.1,9.8c2.9,0,5.9,0,8.8,0
		c0-1.8,0.1-3.7,0.9-5.3c2.2-4.8,6.7-4.1,11.9-4c4.8,0.2,11.4-0.3,13.9,4.8c1.7,4.8,0.7,10.6,1.2,15.7c-5.2-5.6-11.7-5-18.7-5.1
		c-4.9,0.1-11.5,0.3-15.3,3.9c-3.6,3.8-4.3,10.4-3.9,15.3c0.4,4.3,1.9,9.7,6.1,11.7c5.8,3.2,14,2.5,20.4,2.3
		c4.7-0.1,8.1-2.5,11.3-5.7c-0.1,1.8-0.2,3.5-0.2,5.3c2.7,0,5.3,0,8,0c0.1-12.7,0-25.4,0-38.1C383.3,110.5,382.3,106.3,379.5,103z
		 M374,141.8c-2,4.1-7.1,4.6-11.2,4.9c-4.2,0.1-9.6,0.6-13.5-1.5c-3.2-1.9-3.4-6.5-3.5-9.8c0.1-2.9,0.9-6.9,4.1-8
		c5.9-1.5,12.9-1.1,19-0.4C375.4,128.5,376.2,136.7,374,141.8z M203.9,103.4c-2.7-3.3-7.1-4.7-11.2-5c-6.1-0.4-12.3-0.4-18.4,0
		c-4.2,0.2-8.2,2.2-10.8,5.5c-1.9,2.9-2.3,7.1-2.9,10.5c4.2,0.1,8.4,0.1,12.7,0.1c0.9-2.2,1.2-5.8,3.9-6.6c3.3-1.3,7.3-1.1,10.8-0.8
		c2.6,0.3,5.3,1.2,6.3,3.9c0.9,4.7,0.5,9.6,0.8,14.3c-5.2-6.6-12.4-6.2-19.9-5.9c-4.6,0.5-10.6,1.4-13.3,5.7
		c-3.1,4.3-2.8,8.9-2.7,14c0.1,5,2.8,10.6,7.7,12.5c5.2,2.4,11.9,1.8,17.5,1.6c5.1-0.3,8.1-2.8,10.9-6.9c-0.1,2.2,0.1,4.4,0,6.5
		c4.2,0,8.4,0,12.6,0c0-11.5,0-23,0-34.5C207.9,113.3,207,107.7,203.9,103.4z M194.1,140.5c-1.7,3.8-6.4,3.8-9.9,4
		c-3.1-0.1-7.2,0.2-9.9-1.4c-3.7-3.4-3.9-8.9-1.5-12.3c5.2-3.7,12.4-2.9,17.3-1.7C195.3,130.4,195.4,136.3,194.1,140.5z"/>
</g>
</svg>
