<?xml version="1.0" encoding="utf-8"?>
<!-- Generator: Adobe Illustrator 23.0.1, SVG Export Plug-In . SVG Version: 6.00 Build 0)  -->
<svg version="1.1" id="Layer_1" xmlns="http://www.w3.org/2000/svg" xmlns:xlink="http://www.w3.org/1999/xlink" x="0px" y="0px"
	 viewBox="0 0 500 250" style="enable-background:new 0 0 500 250;" xml:space="preserve">
<style type="text/css">
	.st0{fill:none;}
	.st1{fill-rule:evenodd;clip-rule:evenodd;fill:#00AEC7;}
</style>
<rect x="-0.6" y="0.7" class="st0" width="500" height="250"/>
<g id="Page-1">
	<g id="Group">
		<path id="Fill-23" class="st1" d="M55,137.3c0-5.8-1.8-11.1-5-15.5H39.6c4.8,3.4,8,9.1,8,15.5c0,6.4-3.2,12.1-8.1,15.5h30.9
			c-4.9-3.4-8.1-9.1-8.1-15.5c0-6.4,3.2-12,8-15.5H60C56.8,126.2,55,131.5,55,137.3L55,137.3z"/>
		<path id="Fill-25" class="st1" d="M55,94.8c-2.7,0-5.2,1-7.1,2.9c-1.9,1.9-2.9,4.4-2.9,7.1c0,2.6,0.5,4.1,1,5.7
			c0.5,1.6,1.1,2.8,1.6,4.1c-1.2-0.5-2.5-1.1-4.1-1.6c-1.6-0.5-3.2-1-5.7-1c-2.7,0-5.2,1-7.1,2.9c-1.9,1.9-2.9,4.4-2.9,7.1
			c0,2.7,1,5.2,2.9,7.1c1.9,1.9,4.4,2.9,7.1,2.9c1.5,0,3.1-0.3,4.6-1.1c1,2.1,1.5,4.2,1.5,6.6c0,0.9-0.1,1.7-0.2,2.5
			c-2,0.6-3.9,0.9-5.9,0.9c-5.1,0-9.8-2-13.4-5.6c-3.6-3.6-5.6-8.3-5.6-13.4c0-9.8,7.8-18.4,17.5-18.6c0.1-9.7,8.8-17.4,18.6-17.4
			c9.8,0,18.5,7.8,18.6,17.4c9.7,0.1,17.5,8.8,17.5,18.6c0,5-2,9.8-5.6,13.4c-3.6,3.6-8.4,5.6-13.4,5.6c-1.9,0-3.9-0.3-5.8-0.9
			c-0.1-0.8-0.2-1.7-0.2-2.5c0-2.4,0.5-4.5,1.5-6.6c1.5,0.8,3.1,1.1,4.6,1.1c2.7,0,5.2-1,7.1-2.9c1.9-1.9,2.9-4.4,2.9-7.1
			c0-2.7-1-5.2-2.9-7.1c-1.9-1.9-4.4-2.9-7.1-2.9c-2.6,0-4.1,0.5-5.7,1c-1.6,0.5-2.9,1.1-4.1,1.6c0.5-1.2,1.1-2.5,1.6-4.1
			c0.5-1.6,1-3.1,1-5.7c0-2.7-1-5.2-2.9-7.1C60.2,95.8,57.7,94.8,55,94.8"/>
		<path id="Fill-28" class="st1" d="M116.5,153.4c-7,0-13-3-17-7.7l5.1-5c3.2,3.5,7.9,5.7,12.5,5.7c6.7,0,9.9-2.3,9.9-6.9
			c0-3.7-2.8-5.5-10.8-7.9c-10.1-3-15-5.5-15-14c0-8.2,7-13.3,15.8-13.3c6.5,0,11.4,2.4,15.7,6.5l-5.1,5.1c-3-3.1-6.4-4.6-11.2-4.6
			c-5.6,0-8,2.7-8,5.9c0,3.3,2.2,5,10.5,7.4c9.4,2.9,15.3,5.9,15.3,14.4C134.2,147.5,128.7,153.4,116.5,153.4"/>
		<path id="Fill-30" class="st1" d="M161.2,112.5c-2.5,0-4.7-2.1-4.7-4.6c0-2.5,2.1-4.6,4.7-4.6c2.5,0,4.6,2.1,4.6,4.6
			C165.8,110.4,163.7,112.5,161.2,112.5L161.2,112.5z M161.3,137.4c-1.9-1-4.4-1.6-8.2-1.6c-4.5,0-7.4,2-7.4,5.3
			c0,3.5,2.3,5.9,6.9,5.9c3.8,0,7.1-2.3,8.7-4.6V137.4z M147.8,112.5c-2.5,0-4.7-2.1-4.7-4.6c0-2.5,2.1-4.6,4.7-4.6
			c2.5,0,4.6,2.1,4.6,4.6C152.4,110.4,150.3,112.5,147.8,112.5L147.8,112.5z M161.3,152.7v-3.5c-2.5,2.5-6,4.3-9.9,4.3
			c-5.8,0-12.5-3.3-12.5-12.1c0-8,6.2-11.6,14.3-11.6c3.4,0,6,0.5,8,1.4v-2.7c0-3.9-2.4-6.1-6.8-6.1c-3.7,0-6.6,0.7-9.4,2.3
			l-2.7-5.3c3.4-2.1,7.3-3.2,12.3-3.2c8,0,13.5,3.9,13.5,12v24.5H161.3z"/>
		<path id="Fill-32" class="st1" d="M195.6,112.5c-2.5,0-4.7-2.1-4.7-4.6c0-2.5,2.1-4.6,4.7-4.6c2.5,0,4.6,2.1,4.6,4.6
			C200.1,110.4,198,112.5,195.6,112.5L195.6,112.5z M195.6,137.4c-1.9-1-4.4-1.6-8.2-1.6c-4.5,0-7.4,2-7.4,5.3
			c0,3.5,2.3,5.9,6.9,5.9c3.8,0,7.1-2.3,8.7-4.6V137.4z M182.2,112.5c-2.5,0-4.7-2.1-4.7-4.6c0-2.5,2.1-4.6,4.7-4.6
			c2.5,0,4.6,2.1,4.6,4.6C186.8,110.4,184.7,112.5,182.2,112.5L182.2,112.5z M195.6,152.7v-3.5c-2.5,2.5-6,4.3-9.9,4.3
			c-5.8,0-12.5-3.3-12.5-12.1c0-8,6.2-11.6,14.3-11.6c3.4,0,6,0.5,8,1.4v-2.7c0-3.9-2.4-6.1-6.8-6.1c-3.7,0-6.6,0.7-9.4,2.3
			l-2.7-5.3c3.4-2.1,7.3-3.2,12.3-3.2c8,0,13.5,3.9,13.5,12v24.5H195.6z"/>
		<path id="Fill-34" class="st1" d="M221,153.4c-4.9,0-10.1-1.9-13.8-4.6l3.2-5.3c3.4,2.3,7.1,3.5,10.5,3.5c4.4,0,6.6-1.4,6.6-4
			c0-2.7-3.1-4-8.3-6c-7.7-3-10.5-5.6-10.5-11.2c0-6.4,5.1-9.7,12.3-9.7c4.5,0,9,1.6,12.2,4l-3.1,5.4c-2.9-2-5.9-3.1-9.3-3.1
			s-4.9,1.4-4.9,3.3c0,1.8,1.2,3.1,6.6,5.2c8,3.1,12.1,5.2,12.1,12C234.5,150.7,228.1,153.4,221,153.4"/>
		<path id="Fill-36" class="st1" d="M257.4,151.8c-1.7,1-4.1,1.6-6.9,1.6c-5,0-8.1-3.1-8.1-9.5v-20.6h-5.1v-6.4h5.1v-10.2l6.9-3.7
			v13.9h8.9v6.4h-8.9v19.4c0,3.3,1.1,4.3,3.7,4.3c1.8,0,3.9-0.7,5.2-1.4L257.4,151.8z"/>
		<path id="Fill-38" class="st1" d="M284,112.8c-2.5,0-4.7-2.1-4.7-4.6c0-2.5,2.1-4.6,4.7-4.6c2.5,0,4.6,2.1,4.6,4.6
			C288.6,110.7,286.5,112.8,284,112.8 M277.2,122.8c-5.3,0-8.6,4.7-8.6,11.8c0,7.8,3.6,12.1,9,12.1c5.3,0,8.8-5.4,8.8-11.9
			C286.4,127.5,282.9,122.8,277.2,122.8 M270.6,112.8c-2.5,0-4.7-2.1-4.7-4.6c0-2.5,2.1-4.6,4.7-4.6c2.5,0,4.6,2.1,4.6,4.6
			C275.2,110.7,273.1,112.8,270.6,112.8 M277.3,153.4c-9,0-15.8-7.4-15.8-18.6c0-11.7,7-18.7,16-18.7c9.2,0,16,7.3,16,18.5
			C293.5,146.5,286.5,153.4,277.3,153.4"/>
		<path id="Fill-40" class="st1" d="M314,122.6c-3.4,0-6.3,2.2-8.1,4.6v15.1c1.6,2.1,4.9,4.7,8.4,4.7c5.1,0,7.8-3.8,7.8-11.4
			C322,126.6,319.2,122.6,314,122.6 M314.9,153.4c-3.6,0-7-1.9-9-4.1v12.9l-7,3.6v-48.9h7v3.4c2.6-2.4,5.6-4.2,9.4-4.2
			c7.7,0,13.8,5.6,13.8,19.2C329.1,147.6,322.4,153.4,314.9,153.4"/>
		<path id="Fill-42" class="st1" d="M355.2,137.4c-1.9-1-4.4-1.6-8.2-1.6c-4.5,0-7.4,2-7.4,5.3c0,3.5,2.3,5.9,6.9,5.9
			c3.8,0,7.1-2.3,8.7-4.6V137.4z M355.2,152.7v-3.5c-2.5,2.5-6,4.3-9.9,4.3c-5.8,0-12.5-3.3-12.5-12.1c0-8,6.2-11.6,14.3-11.6
			c3.4,0,6,0.5,8,1.4v-2.7c0-3.9-2.4-6.1-6.8-6.1c-3.7,0-6.6,0.7-9.4,2.2l-2.7-5.3c3.4-2.1,7.3-3.2,12.3-3.2c8,0,13.5,3.9,13.5,12
			v24.5H355.2z"/>
		<path id="Fill-44" class="st1" d="M390.8,152.7v-20.2c0-7.2-2.7-9.8-7.4-9.8c-4.7,0-7.4,3.3-7.4,9.1v20.9h-7v-35.8h7v3.4
			c1.8-2.6,5.3-4.2,9-4.2c8.3,0,12.8,5.4,12.8,16v20.5H390.8z"/>
		<path id="Fill-46" class="st1" d="M425.2,152.7l-7.9-17.8l-5.5,7.2v10.6h-7.1v-46l7.1-3.7v22.5c0,2.2-0.1,5.9-0.1,7.6
			c1-1.4,2.7-4.2,4-5.9l7.5-10.4h8l-9.1,12l10.8,23.8H425.2z"/>
		<path id="Fill-48" class="st1" d="M458.1,152.7l-7.9-17.8l-5.5,7.2v10.6h-7.1v-46l7.1-3.7v22.5c0,2.2-0.1,5.9-0.1,7.6
			c1-1.4,2.7-4.2,4-5.9l7.5-10.4h8l-9.1,12l10.8,23.8H458.1z"/>
		<path id="Fill-50" class="st1" d="M470.9,152.7h7v-35.8h-7V152.7z M474.5,112.3c-2.5,0-4.6-2-4.6-4.5c0-2.5,2.1-4.6,4.6-4.6
			c2.5,0,4.5,2,4.5,4.6C479,110.2,476.9,112.3,474.5,112.3L474.5,112.3z"/>
	</g>
</g>
</svg>
