<?xml version="1.0" encoding="utf-8"?>
<!-- Generator: Adobe Illustrator 23.0.1, SVG Export Plug-In . SVG Version: 6.00 Build 0)  -->
<svg version="1.1" id="Layer_1" xmlns="http://www.w3.org/2000/svg" xmlns:xlink="http://www.w3.org/1999/xlink" x="0px" y="0px"
	 viewBox="0 0 500 250" style="enable-background:new 0 0 500 250;" xml:space="preserve">
<style type="text/css">
	.st0{fill:none;}
	.st1{fill:#FFFFFF;}
	.st2{fill:#D50072;}
</style>
<rect x="0" y="-0.2" class="st0" width="500" height="250"/>
<g>
	<path class="st0" d="M111.1,0.2h277.8v249.4H111.1V0.2z"/>
	<path class="st1" d="M134.2,23.3v203.3h118.5c78.2,0,112.1-43.8,112.1-101.8c0-57.8-33.9-101.4-112.1-101.4L134.2,23.3L134.2,23.3z
		"/>
	<path d="M147,36.1h105.7c71.7,0,99.3,39.2,99.3,88.6c0,59.3-38.4,89-99.3,89H147V36.1z M157.3,46.3v157.1h95.5
		c57.6,0,89-26.9,89-78.8c0-53.3-34-78.4-89-78.4L157.3,46.3L157.3,46.3z"/>
	<path d="M170.1,136.3h30.6v54.4h-30.6V136.3z"/>
	<circle cx="185.3" cy="108.9" r="19"/>
	<path class="st2" d="M264.7,117.7v8.8h-21.8V91.2H264v8.8h-12.3v4.1h11.6v8.8h-11.6v4.8L264.7,117.7L264.7,117.7z M268.5,126.6
		l10.7-35.4h12.5l10.7,35.4h-9.2l-2-6.8h-11.5l-2,6.8H268.5L268.5,126.6z M282.3,110.9h6.4l-2.9-10h-0.5L282.3,110.9L282.3,110.9z
		 M306.8,91.2h8.8v26.5h13c-3.6-48.2-41.5-58.6-75.9-58.6H216v32h5.4c9.9,0,16.1,6.7,16.1,17.5c0,11.2-6,17.8-16.1,17.8H216v64.1
		h36.7c56,0,75.5-26,76.2-64.1h-22.1L306.8,91.2L306.8,91.2z M216,100v17.7h5.4c3.8,0,7.3-1.1,7.3-9c0-7.7-3.9-8.7-7.3-8.7H216z"/>
</g>
</svg>
