<?xml version="1.0" encoding="utf-8"?>
<!-- Generator: Adobe Illustrator 23.0.1, SVG Export Plug-In . SVG Version: 6.00 Build 0)  -->
<svg version="1.1" id="Layer_1" xmlns="http://www.w3.org/2000/svg" xmlns:xlink="http://www.w3.org/1999/xlink" x="0px" y="0px"
	 viewBox="0 0 500 250" style="enable-background:new 0 0 500 250;" xml:space="preserve">
<style type="text/css">
	.st0{fill:none;}
	.st1{fill:#4398D1;}
	.st2{fill:#3E8CC7;}
	.st3{fill:#FDB62F;}
	.st4{fill:#FD7B2F;}
	.st5{fill:#DE4C3C;}
	.st6{fill:#87CED9;}
</style>
<rect x="0" y="-0.1" class="st0" width="500" height="250"/>
<g>
	<path class="st1" d="M116.2,26h267.5c12.8,0,23.3,10.4,23.3,23.3v151.2c0,12.8-10.4,23.3-23.3,23.3H116.2
		c-12.8,0-23.3-10.4-23.3-23.3V49.3C93,36.4,103.4,26,116.2,26z"/>
	<path class="st2" d="M383.8,26h-4.7C324.2,123.5,221.6,190.3,159,223.8h224.8c12.8,0,23.3-10.4,23.3-23.3V49.3
		C407,36.4,396.6,26,383.8,26z"/>
	<rect x="122.1" y="55.1" class="st3" width="58.2" height="46.5"/>
	<g>
		<rect x="122.1" y="72.5" class="st4" width="17.4" height="11.6"/>
		<rect x="162.8" y="72.5" class="st4" width="17.4" height="11.6"/>
	</g>
	<circle class="st3" cx="348.9" cy="165.6" r="29.1"/>
	<circle class="st5" cx="314" cy="165.6" r="29.1"/>
	<g>
		<rect x="116.2" y="142.3" class="st6" width="34.9" height="11.6"/>
		<rect x="174.4" y="142.3" class="st6" width="34.9" height="11.6"/>
		<rect x="232.6" y="142.3" class="st6" width="34.9" height="11.6"/>
		<rect x="116.2" y="177.2" class="st6" width="151.2" height="11.6"/>
		<rect x="296.5" y="55.1" class="st6" width="11.6" height="23.3"/>
		<rect x="319.8" y="55.1" class="st6" width="11.6" height="23.3"/>
		<rect x="343.1" y="55.1" class="st6" width="11.6" height="23.3"/>
		<rect x="366.3" y="55.1" class="st6" width="11.6" height="23.3"/>
	</g>
</g>
</svg>
