<?xml version="1.0" encoding="utf-8"?>
<!-- Generator: Adobe Illustrator 23.0.1, SVG Export Plug-In . SVG Version: 6.00 Build 0)  -->
<svg version="1.1" id="Layer_1" xmlns="http://www.w3.org/2000/svg" xmlns:xlink="http://www.w3.org/1999/xlink" x="0px" y="0px"
	 viewBox="0 0 500 250" style="enable-background:new 0 0 500 250;" xml:space="preserve">
<style type="text/css">
	.st0{fill:none;}
</style>
<rect x="0" y="0" class="st0" width="500" height="250"/>
<g>
	<path d="M94.3,71.4H70.7c0,19.4-8.9,37.1-24.4,48.8l-9.3,7l36.3,49.4H103l-33.4-45.5C85.4,115.4,94.3,94.2,94.3,71.4z"/>
	<rect x="9.8" y="71.4" width="24.2" height="105.2"/>
	<rect x="110" y="71.4" width="22.8" height="105.2"/>
	<path d="M332.9,101.8c-8.7,0-17,2.7-22.5,10.2v-8.2h-21.6v72.8h22v-38.2c0-11,7.4-16.4,16.3-16.4c9.5,0,15.1,5.7,15.1,16.3v38.4
		h21.7v-46.4C363.9,113.4,350.4,101.8,332.9,101.8z"/>
	<path d="M201.8,103.8v4.7c-6.2-4.2-13.6-6.7-21.6-6.7c-21.2,0-38.4,17.2-38.4,38.4s17.2,38.4,38.4,38.4c8.1,0,15.5-2.4,21.6-6.7
		v4.7h21.7v-72.8H201.8z M182,158.9c-10.9,0-19.7-8.4-19.7-18.7s8.8-18.7,19.7-18.7c10.9,0,19.7,8.4,19.7,18.7
		S192.9,158.9,182,158.9z"/>
	<path d="M257.3,113.3v-9.4H235v72.8h22.4v-33.9c0-11.5,12.4-17.6,21-17.6c0.1,0,0.2,0,0.2,0v-21.2
		C269.8,103.8,261.6,107.7,257.3,113.3z"/>
	<path d="M431.5,103.8v4.7c-6.2-4.2-13.6-6.7-21.6-6.7c-21.2,0-38.4,17.2-38.4,38.4s17.2,38.4,38.4,38.4c8.1,0,15.5-2.4,21.6-6.7
		v4.7h21.7v-72.8H431.5z M411.7,158.9c-10.9,0-19.7-8.4-19.7-18.7s8.8-18.7,19.7-18.7c10.9,0,19.7,8.4,19.7,18.7
		C431.5,150.5,422.6,158.9,411.7,158.9z"/>
	<g>
		<path d="M470.2,106c0-1.1-0.7-1.7-1.9-1.7h-2v5.5h1v-2h1.1l0.8,2h1.1l-1-2.2C469.8,107.2,470.2,106.7,470.2,106z M468.2,106.8
			h-1.1v-1.7h1.1c0.6,0,1,0.3,1,0.8C469.2,106.5,469,106.8,468.2,106.8z"/>
		<path d="M467.9,101.9c-2.9,0-5.2,2.3-5.2,5.2c0.1,2.9,2.3,5.2,5.2,5.2s5.2-2.3,5.2-5.2S470.8,101.9,467.9,101.9z M467.9,111.4
			c-2.3,0-4.1-1.9-4.1-4.2c0-2.3,1.9-4.2,4.1-4.2c2.3,0,4.1,1.9,4.1,4.2C472.1,109.5,470.2,111.4,467.9,111.4z"/>
	</g>
	<path d="M476.5,150.8c-7.5,0-13.7,6.2-13.7,13.7c0,7.5,6.2,13.7,13.7,13.7c7.5,0,13.7-6.2,13.7-13.7
		C490.2,156.9,484,150.8,476.5,150.8z"/>
</g>
</svg>
