<?xml version="1.0" encoding="utf-8"?>
<!-- Generator: Adobe Illustrator 23.0.1, SVG Export Plug-In . SVG Version: 6.00 Build 0)  -->
<svg version="1.1" id="Layer_1" xmlns="http://www.w3.org/2000/svg" xmlns:xlink="http://www.w3.org/1999/xlink" x="0px" y="0px"
	 viewBox="0 0 500 250" style="enable-background:new 0 0 500 250;" xml:space="preserve">
<style type="text/css">
	.st0{fill:none;}
	.st1{fill:#FFFFFF;}
	.st2{fill:#E31F28;}
</style>
<rect x="0.2" y="0.28" class="st0" width="500" height="250"/>
<g>
	<g>
		<g>
			<g>
				<g>
					<path class="st1" d="M176.65,16.81c-59.87,0-108.53,48.66-108.53,108.44s48.66,108.49,108.53,108.49h146.08
						c59.78,0,108.53-48.66,108.53-108.53c0-59.78-48.66-108.53-108.53-108.53H176.65V16.81z"/>
					<path d="M322.78,236H176.65c-61.02,0-110.74-49.64-110.74-110.74c0-61.02,49.64-110.66,110.74-110.66h146.08
						c61.02,0,110.66,49.64,110.66,110.66C433.43,186.32,383.8,236,322.78,236 M176.65,16.81c-59.87,0-108.53,48.66-108.53,108.44
						s48.66,108.49,108.53,108.49h146.08c59.78,0,108.53-48.66,108.53-108.53c0-59.78-48.66-108.53-108.53-108.53H176.65V16.81z"/>
					<path class="st2" d="M348.28,118.66l48.58,57.83c10.1-14.52,15.94-32.15,15.94-51.19c0-20.01-6.55-38.57-17.71-53.53
						L348.28,118.66z"/>
					<path class="st2" d="M210.57,66.81c36.27,0,63.63,9.25,66.46,39.81l38.17-39.81h76.07c-16.61-19.39-41.09-31.7-68.5-31.7
						H176.65c-27.41,0-52.03,12.31-68.5,31.7H210.57z"/>
					<path class="st2" d="M150.84,105.37l-12.97,35.6h52.29c15.41,0,20.15-6.42,23.6-18.73c3.45-12.22-5.18-16.87-15.72-16.87
						L150.84,105.37L150.84,105.37z"/>
					<path class="st2" d="M315.56,181.31l-40.38-51.01c-7.48,34.8-31.93,51.01-77.76,51.01h-91.35
						c16.52,20.77,42.02,34.05,70.58,34.05h146.08c28.56,0,53.98-13.37,70.49-34.05H315.56z"/>
				</g>
			</g>
		</g>
	</g>
</g>
</svg>
