<?xml version="1.0" encoding="utf-8"?>
<!-- Generator: Adobe Illustrator 23.0.1, SVG Export Plug-In . SVG Version: 6.00 Build 0)  -->
<svg version="1.1" id="Layer_1" xmlns="http://www.w3.org/2000/svg" xmlns:xlink="http://www.w3.org/1999/xlink" x="0px" y="0px"
	 viewBox="0 0 500 250" style="enable-background:new 0 0 500 250;" xml:space="preserve">
<style type="text/css">
	.st0{fill:none;}
	.st1{fill:#F20017;}
	.st2{fill:#0F2B8D;}
	.st3{fill:#0A6726;}
	.st4{fill:#62AC1E;}
</style>
<rect x="0" y="0" class="st0" width="500" height="250"/>
<g id="euteller">
	<path id="XMLID_402_" class="st1" d="M72.6,66c24.6-2.5,48.6,12.7,58.3,35.2c6.1,13.8,6.6,30,1.4,44.2c-4.3,11.7-12.3,22-22.7,28.9
		c-10.9,7.4-24.3,10.8-37.4,9.8c4.3-0.9,8.5-1.5,12.8-2.8c12.7-4,23.7-12.5,31.1-23.5c8-12,11.4-26.8,9.4-41.1
		c-1.8-13.2-8.3-25.5-18-34.6c-9.3-8.9-21.2-14.2-33.9-15.8l-0.3,0L72.6,66z"/>
	<path id="XMLID_401_" class="st2" d="M60.7,70c9.6-0.8,18.6,1.5,27.4,5.1c-10.6,16.9-23.8,32.3-39,45.2
		c-10.8,9.1-22.6,17-35.5,22.7c-1.9-7-4.4-14.7-3.7-22c1.4-8.7,3.1-16.9,7.7-24.5C26.5,81.3,43.1,71.2,60.7,70z"/>
	<path id="XMLID_400_" class="st3" d="M89.3,75.9c10.4,4.9,18.9,14.2,24,24.4c-2.2,2.7-5.3,5-8,7.2c-24.6,19.3-52.8,33.6-83.8,39
		c24.8-15,45.9-35.8,61.5-60.3C85.1,82.9,87,79.2,89.3,75.9z"/>
	<path id="XMLID_399_" class="st4" d="M113.6,101.1c4.3,9.6,6,20.3,4.5,30.8c0,1.8-2.2,2.1-3.5,2.9c-19.5,8.8-40.4,14.7-61.6,17.1
		c-10.4,1-20.7,1.7-31.1,0.5c21.7-4.9,42.6-14.1,61.2-26.4C93.9,118.6,104.6,110.5,113.6,101.1z"/>
	<path id="XMLID_405_" d="M370.9,85.6c0.6,4.4,0.3,73.7,0,75.3c-2.5,0.3-6.1,0.9-8.4-0.4c-0.4-3.3-0.4-71,0-74.6
		C365,84.8,368.3,85.2,370.9,85.6z M178.9,85.5c6.8,0.1,13.8,0,20.6,0.8c0.1,2.5,0,5,0,7.5c-7.2,0.1-14.5,0-21.7,0.1
		c-2.8,0.1-6.2,0.3-8.6,2c-2.3,1.8-2.4,4.9-2.6,7.6c-0.1,4.9,0,9.9,0,14.8c10.9,0.1,21.7-0.1,32.6,0.1c0.2,2.4,0.7,5.2-0.1,7.5
		c-10.7,0.9-21.7,0.1-32.4,0.4c0,5.9-0.1,11.8,0,17.8c0.1,2.6,0.3,5.8,2.5,7.5c2.3,1.8,5.8,1.9,8.6,2c7.2,0.1,14.5-0.1,21.7,0.1
		c0,2.6,0,5.1,0,7.6c-6.8,0.8-13.7,0.6-20.6,0.7c-5.6,0-12.2-0.8-16.5-4.8c-4.1-3.7-5-9-5-14.3c0-12.8,0-25.6,0-38.4
		c0.1-5.3,0.9-10.6,5-14.3C166.7,86.3,173.3,85.5,178.9,85.5z M387.3,85.3c2.7,0,5.8-0.4,8.4,0.5c0.4,3.7,0.1,72.9-0.1,75.3
		c-2.8,0.1-5.6,0.1-8.4,0C386.1,143,386.4,92.4,387.3,85.3z M284.1,93c0.1,4.2,0.1,8.4,0.1,12.6c4.1,0.1,8.6-0.5,12.5,0.6
		c0.3,1.9,0.8,4.8-0.2,6.5c-3.8,1-8.3,0.3-12.2,0.5c0,11.7,0,23.5,0,35.2c0.1,2.1-0.1,4.3,1.8,5.7c3.3,1.2,7.7-0.2,10.8,1.1
		c0.8,1.6,0.4,4,0.6,5.8c-5.3,1.1-11.9,1.8-17-0.3c-4.8-2.3-5.1-7.6-5.3-12.2c-0.1-11.7,0-23.5,0-35.2c-3.8-0.4-7.7-0.8-11.5-1.5
		c0-1.9,0-3.8,0-5.8c3.9-0.4,7.7-0.5,11.6-0.5c-0.2-3.8-0.3-7.6,0.2-11.3C278.4,93.4,281.2,93.1,284.1,93z M220.8,106.2
		c0.1,11.9,0,23.8,0,35.7c0.1,4.1,0.8,9.2,4.9,11.2c6.5,2.8,13.5,0,19.5-2.7c0.2-14.5-0.3-29.2,0.2-43.7c2.1-1.8,6.1-1.3,8.5-0.5
		c0.3,1.6,0.3,3.3,0.3,4.9c-0.1,15,0,29.9,0,44.9c0,1.7,0,3.3-0.4,4.9c-2.7,0.4-5.7,0.2-8.4,0c-0.1-1.2-0.1-2.3-0.2-3.5
		c-5,2.7-10.2,4.7-16,4.5c-5.7,0-11.2-1.9-14.3-7c-4.2-6.9-2.9-15.3-3.1-23c0.2-8.5-0.4-17.2,0.3-25.8
		C215.1,105,217.8,105.8,220.8,106.2z M473.7,106.1c0,1.1,0,2.3,0.1,3.4c5.1-3.1,10.3-5.1,16.4-4.4c0,2.3,0.1,4.8-0.2,7.1
		c-5.7,0.8-10.8,1.5-15.8,4.5c0,13.5,0,27,0,40.4c-0.1,1.3,0.2,3.1-1.1,3.8c-2.3,0.2-5.6,0.7-7.7-0.5c-0.3-2.6-0.3-38.8-0.1-54.3
		C468.1,105.3,470.8,105.6,473.7,106.1z M349.1,135.8c1-7.8,0.4-18.1-5.2-24.3c-5.6-6.4-14.8-7.5-22.7-6
		c-6.2,1.2-11.6,5.3-14.1,11.2c-3,6.4-1.9,13.8-2.1,20.7c-0.1,6.2,0.8,12.1,4.7,17.1c3.9,4.9,9.9,7.1,16,7.4
		c7.4,0.3,15-0.4,22.2-2.2c0-2.2,0-4.4,0-6.6c-7.3,0.2-14.9,1.5-22.2,0.9c-3.5-0.3-6.7-1.5-8.9-4.4c-2.9-3.9-2.7-8.7-3-13.4
		c10.2,0,20.3,0,30.5,0C345.9,136.2,347.4,136.3,349.1,135.8z M313.6,129.5c0.4-4.7,0.5-9.5,4-13.2c4.1-4.2,11.8-4.4,16.8-1.9
		c5.5,3.1,5.7,9.5,6,15.1C331.5,129.5,322.5,129.6,313.6,129.5z M452.9,136.1c0.7-8.1,0.7-17.3-4.6-23.9c-5.3-6.7-14-8-22-6.9
		c-6.4,0.9-12.1,4.6-14.9,10.5c-3.3,6.5-2.7,13.5-2.8,20.6c0,6.4,0.8,13.1,4.9,18.3c4,4.9,9.9,7,16.1,7.3c7.2,0.3,14.6-0.5,21.7-2.1
		c0.2-2.2,0.3-4.5,0.4-6.7c-7.3,0.1-14.9,1.4-22.1,0.9c-3.5-0.3-6.8-1.4-9-4.3c-2.9-4-2.9-8.8-2.9-13.5
		C429.4,136.2,441.1,136.3,452.9,136.1z M417.5,129.5c0.4-5.2,0.4-10,4.6-13.8c4.3-3.5,11.4-3.7,16.2-1.3c5.5,3.2,5.6,9.5,6,15.1
		C435.3,129.5,426.4,129.6,417.5,129.5z"/>
	<path id="XMLID_342_" class="st2" d="M118,133.8c-2.9,14.8-11.8,28.2-24.6,36.2c-11.5,7.3-25.8,10.1-39.2,7.5
		c-12.8-2.4-23.9-9.7-32.3-19.4c31.6,0.5,63.4-7.3,91.4-21.8C114.8,135.5,116.4,134.7,118,133.8z"/>
</g>
</svg>
