<?xml version="1.0" encoding="utf-8"?>
<!-- Generator: Adobe Illustrator 23.0.1, SVG Export Plug-In . SVG Version: 6.00 Build 0)  -->
<svg version="1.1" id="Layer_1" xmlns="http://www.w3.org/2000/svg" xmlns:xlink="http://www.w3.org/1999/xlink" x="0px" y="0px"
	 viewBox="0 0 500 250" style="enable-background:new 0 0 500 250;" xml:space="preserve">
<style type="text/css">
	.st0{fill:none;}
	.st1{fill:#4D4D4D;}
	.st2{fill:#0AC18E;}
	.st3{fill:#FFFFFF;}
</style>
<rect y="0" class="st0" width="500" height="250"/>
<g>
	<path class="st1" d="M105,156.5c-3.1,0-6.2-0.1-9.2-0.3c-3.2-0.2-6.4-0.7-9.6-1.3v-54.7c2.6-0.5,5.5-0.8,8.6-1.1
		c3.1-0.3,6-0.4,8.6-0.4c3.6,0,6.9,0.3,9.9,0.8c3,0.5,5.6,1.4,7.8,2.6c2.2,1.3,3.9,2.9,5.1,4.9c1.2,2,1.8,4.6,1.8,7.5
		c0,4.5-2.2,8.1-6.5,10.7c3.6,1.3,6,3.2,7.3,5.5c1.3,2.3,2,5,2,7.9c0,5.9-2.2,10.4-6.5,13.3C119.9,155,113.6,156.5,105,156.5z
		 M98.6,121.5h6.2c3.9,0,6.7-0.5,8.4-1.5c1.7-1,2.5-2.6,2.5-4.8c0-2.3-0.9-3.9-2.6-4.8c-1.8-0.9-4.3-1.4-7.6-1.4c-1.1,0-2.3,0-3.5,0
		c-1.3,0-2.3,0.1-3.3,0.2C98.6,109.2,98.6,121.5,98.6,121.5L98.6,121.5z M98.6,131.2v14.6c0.9,0.1,1.9,0.2,3,0.3
		c1.1,0.1,2.3,0.1,3.6,0.1c3.8,0,6.9-0.5,9.2-1.6s3.5-3.1,3.5-6c0-2.6-1-4.5-2.9-5.6c-2-1.1-4.8-1.7-8.4-1.7L98.6,131.2L98.6,131.2
		L98.6,131.2L98.6,131.2z"/>
	<path class="st1" d="M148.9,100.6c0,2.2-0.7,4-2.2,5.3c-1.4,1.3-3.1,1.9-5.1,1.9c-1.9,0-3.7-0.7-5.1-1.9c-1.4-1.3-2.2-3-2.2-5.3
		c0-2.2,0.7-4,2.2-5.3c1.4-1.3,3.2-1.9,5.1-1.9c1.9,0,3.7,0.7,5.1,1.9C148.2,96.6,148.9,98.4,148.9,100.6z M147.7,155.8h-12.1v-42.8
		h12.1V155.8z"/>
	<path class="st1" d="M154.3,102.3l12.1-2v12.6H181V123h-14.6v15c0,2.5,0.5,4.6,1.3,6.1s2.7,2.3,5.4,2.3c1.3,0,2.7-0.1,4-0.4
		c1.3-0.2,2.6-0.6,3.8-1l1.7,9.4c-1.6,0.6-3.2,1.2-4.9,1.6c-1.8,0.4-4,0.7-6.6,0.7c-3.3,0-6.1-0.5-8.2-1.3c-2.2-0.9-3.9-2.1-5.2-3.8
		c-1.3-1.6-2.2-3.5-2.7-5.8c-0.5-2.5-0.8-5-0.8-7.6L154.3,102.3L154.3,102.3z"/>
	<path class="st1" d="M182.7,134.4c0-3,0.5-5.9,1.5-8.7c0.9-2.7,2.4-5.1,4.3-7.1c1.9-2,4.2-3.6,6.9-4.8c2.7-1.2,5.8-1.8,9.3-1.8
		c2.3,0,4.4,0.2,6.3,0.6c1.9,0.4,3.7,1,5.5,1.8l-2.5,9.7c-1.2-0.4-2.5-0.8-3.8-1.1c-1.5-0.3-3-0.5-4.6-0.5c-3.6,0-6.3,1.1-8,3.3
		c-1.8,2.2-2.6,5.1-2.6,8.8c0,3.8,0.8,6.9,2.5,8.9c1.7,2.1,4.6,3.2,8.6,3.2c1.6,0,3.2-0.1,4.7-0.4c1.6-0.2,3.2-0.7,4.6-1.3l1.7,9.9
		c-1.7,0.7-3.5,1.2-5.3,1.6c-2.3,0.4-4.7,0.7-7,0.7c-3.9,0-7.3-0.6-10.1-1.8c-2.8-1.2-5.1-2.8-7-4.8s-3.1-4.4-4-7.1
		C183.1,140.4,182.7,137.4,182.7,134.4z"/>
	<path class="st1" d="M259,134.3c0,3.4-0.5,6.4-1.5,9.2c-1,2.8-2.4,5.2-4.2,7.1c-1.9,2-4.1,3.5-6.6,4.6c-2.6,1.1-5.5,1.6-8.6,1.6
		c-3.1,0-6-0.5-8.6-1.6c-2.5-1-4.8-2.6-6.6-4.6c-1.8-2-3.3-4.4-4.3-7.1c-1.1-2.8-1.6-5.9-1.6-9.2c0-3.4,0.5-6.4,1.6-9.2
		c1.1-2.8,2.5-5.1,4.4-7.1c1.9-2,4.2-3.5,6.7-4.6c2.6-1.1,5.4-1.6,8.4-1.6c3.1,0,5.9,0.5,8.5,1.6c2.6,1.1,4.8,2.6,6.6,4.6
		c1.9,2,3.4,4.4,4.3,7.1C258.4,127.9,259,130.9,259,134.3z M246.6,134.3c0-3.8-0.8-6.7-2.3-8.8c-1.5-2.1-3.6-3.2-6.4-3.2
		s-4.9,1.1-6.4,3.2c-1.5,2.1-2.3,5.1-2.3,8.8c0,3.8,0.8,6.7,2.3,8.9c1.5,2.2,3.7,3.3,6.4,3.3s4.9-1.1,6.4-3.3
		C245.9,141,246.6,138,246.6,134.3z"/>
	<path class="st1" d="M277.1,100.6c0,2.2-0.7,4-2.2,5.3c-1.4,1.3-3.1,1.9-5.1,1.9c-1.9,0-3.7-0.7-5.1-1.9c-1.4-1.3-2.2-3-2.2-5.3
		c0-2.2,0.7-4,2.2-5.3c1.4-1.3,3.2-1.9,5.1-1.9c1.9,0,3.7,0.7,5.1,1.9C276.4,96.6,277.1,98.4,277.1,100.6z M276,155.8h-12.1v-42.8
		H276V155.8z"/>
	<path class="st1" d="M282.9,114.4c2-0.6,4.7-1.2,8-1.7c3.4-0.5,6.8-0.8,10.2-0.8c3.6,0,6.6,0.5,9.1,1.4c2.4,1,4.3,2.3,5.7,4
		c1.4,1.8,2.4,3.8,3,6.2c0.6,2.4,0.9,5.1,0.9,8v24.2h-12.1V133c0-3.9-0.5-6.7-1.6-8.3c-1.1-1.6-3-2.4-5.8-2.4c-0.9,0-1.8,0-2.8,0.1
		c-1,0.1-1.8,0.2-2.6,0.3v33.1h-12.1L282.9,114.4L282.9,114.4z"/>
	<path class="st2" d="M352.9,156.9c-9.2,0-16.2-2.5-21-7.6c-4.8-5.1-7.2-12.3-7.2-21.7c0-4.7,0.8-8.8,2.2-12.5
		c1.5-3.7,3.5-6.8,6-9.3c2.6-2.5,5.7-4.5,9.1-5.7c3.5-1.3,7.4-2,11.5-2c2.4,0,4.6,0.2,6.5,0.5c1.7,0.3,3.5,0.7,5.1,1.2
		c1.3,0.4,2.5,0.9,3.7,1.4c1,0.5,1.7,0.9,2.1,1.1l-3.7,10.2c-1.9-1-4-1.8-6.1-2.3c-2.3-0.7-4.9-1-7.9-1c-1.9,0-3.9,0.3-5.7,1
		c-1.9,0.7-3.6,1.7-5,3.1c-1.4,1.4-2.6,3.3-3.5,5.6c-0.9,2.3-1.3,5.1-1.3,8.3c0,2.4,0.3,4.9,0.8,7.3c0.6,2.3,1.5,4.2,2.8,5.8
		c1.3,1.7,3,3,5,3.9c2,1,4.6,1.4,7.5,1.4c1.7,0,3.3-0.1,5-0.3c1.3-0.2,2.6-0.4,3.9-0.8c1-0.3,2-0.6,3-1c0.9-0.4,1.7-0.8,2.3-1.1
		l3.5,10.2c-1.8,1.1-4.3,2-7.6,2.9C361,156.5,357.2,156.9,352.9,156.9z"/>
	<path class="st2" d="M390.9,111.8c3.6,0,6.6,0.4,8.9,1.2c2.4,0.8,4.3,2,5.7,3.5c1.5,1.6,2.5,3.5,3,5.5c0.6,2.2,0.9,4.6,0.9,7.2
		v25.2c-1.8,0.4-4.1,0.8-7.2,1.3c-3.1,0.5-6.9,0.8-11.2,0.8c-2.8,0-5.3-0.3-7.5-0.8c-2.3-0.5-4.2-1.3-5.8-2.4
		c-1.6-1.1-2.9-2.6-3.8-4.3c-0.9-1.8-1.3-4-1.3-6.6c0-2.5,0.5-4.6,1.5-6.4c0.9-1.7,2.3-3.1,4-4.1c1.7-1.1,3.6-1.8,5.8-2.3
		c2.2-0.5,4.5-0.7,6.8-0.7c1.6,0,3,0.1,4.2,0.2c1.2,0.1,2.2,0.3,3,0.5v-1.1c0-2-0.6-3.7-1.9-5c-1.3-1.3-3.4-1.9-6.5-1.9
		c-2,0-4.1,0.2-6.1,0.5c-2,0.3-3.8,0.7-5.2,1.3l-1.6-9.8c0.7-0.2,1.6-0.5,2.6-0.7c1.1-0.3,2.2-0.5,3.5-0.7c1.3-0.2,2.5-0.3,3.9-0.5
		C388.1,111.9,389.5,111.8,390.9,111.8z M391.9,147.3c1.2,0,2.3,0,3.4-0.1c0.9,0,1.7-0.1,2.6-0.3v-9.2c-0.5-0.1-1.2-0.2-2.2-0.3
		c-0.9-0.1-1.8-0.2-2.7-0.2c-1.1,0-2.2,0.1-3.2,0.2c-1,0.1-1.9,0.4-2.6,0.8c-0.7,0.3-1.3,0.9-1.8,1.6c-0.4,0.7-0.7,1.6-0.7,2.4
		c0,1.9,0.6,3.2,1.9,3.9C387.9,146.9,389.6,147.3,391.9,147.3z"/>
	<path class="st2" d="M428.3,147.1c2.2,0,3.8-0.2,4.7-0.7c0.9-0.4,1.4-1.3,1.4-2.5c0-1-0.6-1.8-1.8-2.5c-1.2-0.8-3-1.6-5.5-2.5
		c-1.9-0.7-3.6-1.4-5.2-2.2c-1.6-0.8-2.9-1.7-3.9-2.7c-1.1-1.1-1.9-2.4-2.5-3.8c-0.6-1.5-0.9-3.2-0.9-5.3c0-4,1.5-7.2,4.5-9.5
		c3-2.3,7.1-3.5,12.3-3.5c2.5,0,5,0.2,7.5,0.7c2.4,0.5,4.3,1,5.7,1.5l-2.1,9.4c-1.5-0.5-3-1-4.6-1.3c-1.8-0.4-3.7-0.6-5.6-0.6
		c-3.8,0-5.7,1.1-5.7,3.2c0,0.4,0.1,0.9,0.3,1.3c0.2,0.4,0.6,0.8,1,1.1c0.6,0.4,1.3,0.8,2,1.1c1,0.5,2.1,0.9,3.2,1.3
		c2.7,1,4.8,2,6.6,2.9c1.8,1,3.1,2,4.1,3.1c1,1.1,1.7,2.3,2.1,3.7c0.4,1.3,0.6,2.9,0.6,4.7c0,4.2-1.6,7.4-4.8,9.6
		c-3.2,2.2-7.6,3.3-13.5,3.3c-3.8,0-7-0.3-9.5-1c-2.5-0.7-4.3-1.2-5.3-1.6l2-9.9c2.1,0.8,4.2,1.4,6.4,1.9
		C424.1,146.8,426.2,147.1,428.3,147.1z"/>
	<path class="st2" d="M451,155.8V94.5l12.1-2v20.5c1-0.3,2.1-0.6,3.1-0.8c1.2-0.2,2.5-0.4,3.7-0.4c3.5,0,6.4,0.5,8.6,1.4
		c2.3,1,4.1,2.3,5.5,4c1.4,1.8,2.3,3.8,2.9,6.2c0.6,2.4,0.8,5.1,0.8,8v24.2h-12.1V133c0-3.9-0.5-6.7-1.5-8.3c-1-1.6-2.9-2.4-5.6-2.4
		c-1,0-2,0.1-3,0.3c-1,0.2-1.8,0.4-2.5,0.6v32.6L451,155.8L451,155.8L451,155.8z"/>
	<circle class="st2" cx="44" cy="125.4" r="32"/>
	<path id="symbol_1_" class="st3" d="M54,114.8c-1.6-3.6-5.3-4.4-9.8-3.7l-1.4-5.6l-3.4,0.9l1.4,5.6c-0.9,0.2-1.8,0.4-2.7,0.7
		l-1.4-5.6l-3.4,0.9l1.4,5.6c-0.7,0.2-6.9,1.8-6.9,1.8l0.9,3.7c0,0,2.5-0.7,2.5-0.6c1.4-0.4,2,0.3,2.4,1l4,15.4c0.1,0.4,0,1.2-1,1.5
		c0.1,0-2.5,0.6-2.5,0.6l0.4,4.3c0,0,6.1-1.6,6.9-1.8l1.5,5.7l3.4-0.9l-1.5-5.7c0.9-0.2,1.8-0.4,2.7-0.7l1.5,5.7l3.4-0.9l-1.5-5.7
		c5.3-1.3,9-4.6,8.2-9.7c-0.5-3-3.8-5.6-6.6-5.8C54.2,119.8,55,117.6,54,114.8L54,114.8z M52.3,128.1c0.7,5-6.3,5.6-8.6,6.2l-2-7.5
		C44,126.3,51.2,123.7,52.3,128.1z M48.1,117.9c0.7,4.5-5.2,5-7.2,5.5l-1.8-6.8C41.1,116.1,46.7,113.8,48.1,117.9z"/>
</g>
</svg>
