<?xml version="1.0" encoding="UTF-8"?> <svg xmlns="http://www.w3.org/2000/svg" width="20" height="20" viewBox="0 0 20 20"><defs><style>.cls-1{fill:#6b11c9;}</style></defs><title>Artboard 1 copy 188</title><g id="Layer_2" data-name="Layer 2"><path class="cls-1" d="M12.4164.2994A9.9979,9.9979,0,0,0,7.58,19.7016L7.58,19.7008A9.9976,9.9976,0,1,0,12.4164.2994Zm-6.09,7.2793Q8.1453,5.7652,9.96,3.9477c.0119-.012.0227-.0249.034-.0373a.0094.0094,0,0,1,.0122,0q.898.9,1.7963,1.8.94.9413,1.883,1.8806c.05.05.0492.0734,0,.1223q-.6275.6208-1.2485,1.2482c-.0535.054-.0825.0574-.1383.0013Q11.19,7.8483,10.0773,6.7388C10,6.6616,10,6.6616,9.9226,6.739Q8.8146,7.8471,7.708,8.957c-.0636.064-.0938.0546-.151-.0032q-.6116-.6188-1.23-1.23C6.2688,7.6662,6.2683,7.6367,6.3264,7.5787Zm5.0276,2.4654q-.6552.6525-1.3075,1.3078c-.0381.0383-.06.0325-.0951-.0025q-.6494-.6522-1.3017-1.3016c-.0362-.0359-.038-.0582-.0009-.0951q.6526-.6492,1.3027-1.3008c.0137-.0136.0294-.0254.0419-.036a.0765.0765,0,0,1,.0515.0323q.6541.6536,1.3084,1.307C11.3867,9.9884,11.3881,10.01,11.354,10.0441Zm-6.13,1.2738Q4.5692,10.66,3.91,10.0058V9.9943q.6513-.65,1.3012-1.3007c.0557-.0562.0865-.061.1449-.0019q.6168.6247,1.2412,1.2416c.053.0524.0536.08,0,.1328q-.63.6233-1.2536,1.2533C5.2963,11.3679,5.27,11.3643,5.2241,11.3179Zm8.4613,1.0914q-1.8066,1.8018-3.61,3.6072c-.0238.0239-.0466.0487-.07.0731L10,16.0918,9.9942,16.09Q9,15.0942,8.0064,14.0989q-.8418-.8427-1.6856-1.6838c-.0507-.05-.0582-.0779-.0028-.1325q.6285-.62,1.25-1.247c.0531-.0535.08-.0522.1324.0006Q8.8085,12.15,9.9213,13.26c.0787.0788.0787.0788.1562.0012q1.1113-1.111,2.2212-2.2235c.0561-.0564.0851-.052.1382.0016q.6215.627,1.249,1.2476C13.7359,12.336,13.7351,12.36,13.6854,12.4093ZM16.09,10.0058q-.6512.65-1.301,1.3009c-.0557.0561-.0866.061-.145.0018q-.6166-.6246-1.2412-1.2416c-.0527-.0522-.0537-.08,0-.1327q.63-.6232,1.2535-1.2532c.0482-.0485.074-.0453.12.0013q.6549.6579,1.3137,1.312Z"></path></g></svg> 