<?xml version="1.0" encoding="UTF-8"?> <svg xmlns="http://www.w3.org/2000/svg" id="Layer_1" data-name="Layer 1" width="20" height="20" viewBox="0 0 20 20"><defs><style>.cls-1{fill:#6b11c9;fill-rule:evenodd;}</style></defs><title>Artboard 1 copy 136</title><path class="cls-1" d="M11.5406,11.0018a6.2271,6.2271,0,0,0-1.9366-.6564c-.0925-.0213-.12.01-.1415.0967-.1315.5406-.27,1.08-.4044,1.6194-.0436.1745-.0845.35-.13.54.28.0689.5384.142.801.1946.2671.0536.5379.0893.8077.1288a2.1769,2.1769,0,0,0,.92-.0643.947.947,0,0,0,.6531-1.22A1.2048,1.2048,0,0,0,11.5406,11.0018Z"></path><path class="cls-1" d="M12.0076,7.7324a3.1964,3.1964,0,0,0-.993-.4173c-.2359-.0646-.4752-.1166-.7233-.1767-.0772.3-.1535.5905-.2262.8816-.0907.3636-.1749.7289-.27,1.0913-.02.0758-.0039.0987.0647.1145.1972.0454.3927.0988.59.1417a3.0811,3.0811,0,0,0,1.2342.0815.8924.8924,0,0,0,.8007-.9177A.9311.9311,0,0,0,12.0076,7.7324Z"></path><path class="cls-1" d="M12.4171.3157a9.9979,9.9979,0,0,0-4.836,19.4022L7.58,19.7171A9.9976,9.9976,0,1,0,12.4171.3157Zm.9978,10.1217a5.1337,5.1337,0,0,1,.5694.4685,1.5634,1.5634,0,0,1,.3992,1.2336,3.0556,3.0556,0,0,1-.4738,1.42,1.9328,1.9328,0,0,1-1.1365.8456,3.4235,3.4235,0,0,1-1.4349.0943c-.2551-.036-.5113-.0634-.7664-.0993-.0756-.01-.1074.0184-.1245.0874-.1268.5114-.2569,1.022-.3822,1.5337-.02.0813-.0472.1114-.1367.0874-.2884-.077-.5779-.15-.8691-.2152-.1042-.0232-.1231-.0708-.1-.1638q.1986-.782.3932-1.5649a.1671.1671,0,0,0-.0032-.0361l-.5449-.1447-.0109-.0017c-.2372-.0512-.2315-.05-.2876.1842-.1122.4679-.2321.9338-.3468,1.401-.0186.0755-.0644.0794-.1255.0643-.2611-.0647-.523-.1267-.7834-.1938-.2043-.0527-.21-.057-.163-.2613.101-.434.213-.8655.3146-1.2993.0754-.3224.1269-.2287-.1842-.3137-.536-.1466-1.0776-.2726-1.6154-.413-.259-.0677-.26-.0744-.1572-.3177.1256-.2989.2572-.5953.3822-.8944.04-.0965.1093-.0965.19-.0755.1714.0444.341.0965.514.1328a1.2147,1.2147,0,0,0,.3272.0279.3.3,0,0,0,.267-.2478c.1353-.5207.2583-1.0445.3886-1.5665.1186-.4748.2418-.9485.3609-1.4231.1171-.4672.2317-.935.3471-1.4027.0194-.0786.03-.16.0569-.2361a.5226.5226,0,0,0-.3946-.6863c-.2278-.06-.4568-.116-.6856-.1718-.1354-.0331-.1474-.049-.1159-.18.0723-.3009.1489-.6009.2152-.9031.024-.1088.08-.1287.1746-.1049q.4293.1083.8588.2154c.3426.0856.6858.1687,1.0275.2577.0862.0225.1181-.0036.1383-.0865.1213-.4975.25-.993.3686-1.491.027-.1135.0724-.1311.1784-.1017q.424.1176.8536.2154c.0927.0211.1023.0688.0838.1427-.0727.29-.1469.579-.2187.8689-.0581.2343-.1137.4693-.1733.7165l.786.1843c.05-.1931.0981-.3767.144-.5609.0861-.3462.1684-.6933.26-1.0378a.1339.1339,0,0,1,.1153-.0586c.2156.0439.4289.0986.6427.151a2.2379,2.2379,0,0,0,.245.0633c.1015.0127.1239.0628.1013.1515q-.1389.5458-.2767,1.0918c-.043.1712-.083.3431-.1258.5205.1856.0746.37.14.5465.2209a3.2208,3.2208,0,0,1,1.19.8237,1.6662,1.6662,0,0,1,.3712.813A2.1752,2.1752,0,0,1,14.3652,9.54a1.6313,1.6313,0,0,1-1.0528.8266C13.3519,10.3939,13.3851,10.4136,13.4149,10.4374Z"></path></svg> 