<?xml version="1.0" encoding="UTF-8"?> <svg xmlns="http://www.w3.org/2000/svg" id="Layer_1" data-name="Layer 1" width="20" height="20" viewBox="0 0 20 20"><defs><style>.cls-1{fill:#6b11c9;fill-rule:evenodd;}</style></defs><title>Artboard 1 copy 137</title><path class="cls-1" d="M8.7311,7.78a3.4983,3.4983,0,0,0-.8477.1039,3.4917,3.4917,0,0,0,4.2332,4.2332A3.4917,3.4917,0,0,0,8.7311,7.78Z"></path><path class="cls-1" d="M11.2689,5.2418A3.4819,3.4819,0,0,0,8.5748,6.5133c.0519-.0017.104-.0027.1563-.0027a4.7583,4.7583,0,0,1,4.7582,4.7583q0,.0784-.0026.1563a3.49,3.49,0,0,0-2.2178-6.1834Z"></path><path class="cls-1" d="M12.4171.3157a9.9979,9.9979,0,0,0-4.836,19.4022L7.58,19.7171A9.9976,9.9976,0,1,0,12.4171.3157Zm.7036,12.8a4.723,4.723,0,0,0,.3686-1.6893,3.4964,3.4964,0,0,1-.6493.4231l-.0012.0006q-.0423.0213-.0854.0415l-.0044.002q-.0414.02-.0833.0377l-.01.0041c-.0263.0113-.0526.0225-.0792.0332l-.0151.0059c-.0249.01-.05.02-.0749.029l-.0237.0085c-.0223.0081-.0446.0162-.0671.0238l-.0381.0124-.0538.0175-.0536.0158-.0392.0116q-.0466.013-.0937.0248c-.0078.0315-.0161.0627-.0248.0939l-.0124.0421-.0149.0509-.0179.0548-.012.0373c-.0074.0214-.0151.0427-.0229.0641l-.01.0269c-.0092.0247-.0189.0493-.0286.0738l-.0062.0161c-.0108.0266-.022.0531-.0333.0794l-.004.01q-.0182.0412-.0372.0821l-.0026.0057q-.02.0427-.0413.085l-.0008.0016a3.4715,3.4715,0,0,1-.4209.6456h0l-.0022.0027a4.7342,4.7342,0,0,0,1.6889-.3677A4.759,4.759,0,1,1,6.88,6.8842a4.7125,4.7125,0,0,0-.3693,1.69A3.5031,3.5031,0,0,1,7.16,8.1507L7.1611,8.15q.0426-.0213.0854-.0415l.0045-.0021q.0414-.0193.0833-.0377l.01-.004c.0264-.0113.0528-.0225.0794-.0333l.015-.0058c.0249-.01.05-.02.0748-.029l.0238-.0085c.0224-.0081.0446-.0162.0671-.0238l.0374-.0123.0545-.0177.054-.0159.0388-.0114q.0467-.013.0937-.0248.0117-.0473.0248-.0939l.0123-.0421.0151-.0509.0188-.0581.011-.034c.0074-.0218.0154-.0435.0233-.0652l.0091-.0258c.0088-.0237.0181-.0473.0274-.0708l.0075-.0192c.01-.0256.021-.051.0319-.0762l.0054-.0127c.0119-.0275.0244-.0548.037-.0819l.0027-.0059q.02-.0429.0413-.085l.0008-.0016a3.4631,3.4631,0,0,1,.4209-.6456l.0022-.0028a4.7723,4.7723,0,0,0-1.69.3693,4.759,4.759,0,1,1,6.2365,6.2356Z"></path><path class="cls-1" d="M6.5106,8.7311c0-.0523.001-.1044.0027-.1563a3.49,3.49,0,1,0,4.9119,4.9119q-.0778.0025-.1563.0026A4.7584,4.7584,0,0,1,6.5106,8.7311Z"></path></svg> 