<?xml version="1.0" encoding="UTF-8"?> <svg xmlns="http://www.w3.org/2000/svg" id="Layer_1" data-name="Layer 1" width="20" height="20" viewBox="0 0 20 20"><defs><style>.cls-1{fill:#6b11c9;fill-rule:evenodd;}</style></defs><title>Artboard 1 copy 138</title><path class="cls-1" d="M12.4171.3157a9.9979,9.9979,0,0,0-4.836,19.4022L7.58,19.7171A9.9976,9.9976,0,1,0,12.4171.3157ZM7.7912,14.5915A3.7169,3.7169,0,0,1,6.3882,7.426L4.0693,5.4086H6.7245l4,3.4784H7.7912a1.9827,1.9827,0,1,0,0,3.9653H8.73l1.9943,1.7392Zm8.14-.0232H13.2871l-4-3.4668H12.22a1.9819,1.9819,0,0,0,1.9828-1.9827,1.9621,1.9621,0,0,0-1.9712-1.971h-.9391L9.2869,5.4086H12.22a3.71,3.71,0,0,1,1.3914,7.1538Z"></path></svg> 