<?xml version="1.0" encoding="UTF-8"?> <svg xmlns="http://www.w3.org/2000/svg" id="Layer_1" data-name="Layer 1" width="20" height="20" viewBox="0 0 20 20"><defs><style>.cls-1{fill:#6b11c9;fill-rule:evenodd;}</style></defs><title>Artboard 1 copy 140</title><path class="cls-1" d="M12.4171.3157a9.9979,9.9979,0,0,0-4.836,19.4022L7.58,19.7171A9.9976,9.9976,0,1,0,12.4171.3157ZM14.31,5.01a.4383.4383,0,0,1-.5929-.0912c-.1368-.1369-.2281-.2737-.3649-.4105a.6221.6221,0,0,0-1.0034-.0912,2.9234,2.9234,0,0,0-.5929.8665c-.3192.9578-.5473,1.9612-.8665,2.9646l2.5084.3648-.1824.6842-2.4172-.3649-.2737,1.4595,2.6.3649-.1825.684-2.5541-.3648c-.1824.5929-.2736,1.2314-.5016,1.7787-.2281.6385-.4561,1.2771-.73,1.87a2.4622,2.4622,0,0,1-1.87,1.4594A1.8277,1.8277,0,0,1,5.8269,15.91a.6072.6072,0,0,1-.2737-.4105.6533.6533,0,0,1,.2281-.5017.8221.8221,0,0,1,.456.0456,2.0249,2.0249,0,0,1,.3649.5017.6508.6508,0,0,0,1.0033.1368,2.7539,2.7539,0,0,0,.7754-1.3682c.2737-1.0946.5473-2.1436.7754-3.2382v-.1825L6.739,10.5281,6.83,9.844l2.5085.3649L9.658,8.795l-2.6-.4105.0913-.73L9.84,8.02c.0913-.2736.1369-.5017.2281-.73a6.7692,6.7692,0,0,1,1.0034-2.3716,2.4042,2.4042,0,0,1,2.1436-1.14,1.4145,1.4145,0,0,1,1.0946.4561.3877.3877,0,0,1,.1368.228A.7647.7647,0,0,1,14.31,5.01Z"></path></svg> 