<?xml version="1.0" encoding="UTF-8"?> <svg xmlns="http://www.w3.org/2000/svg" id="Layer_1" data-name="Layer 1" width="20" height="20" viewBox="0 0 20 20"><defs><style>.cls-1{fill:#6b11c9;fill-rule:evenodd;}</style></defs><title>Artboard 1 copy 153</title><path class="cls-1" d="M11.7715,10.3817v2.85a1.436,1.436,0,0,0,2.8719,0V9.3175a3.76,3.76,0,0,1-.8026.4791A8.1956,8.1956,0,0,1,11.7715,10.3817Z"></path><path class="cls-1" d="M5.3541,12.5864v.6465a1.4372,1.4372,0,1,0,2.8744-.0012V10.6532a7.0847,7.0847,0,0,0-1.6661.4872A1.7365,1.7365,0,0,0,5.3541,12.5864Z"></path><path class="cls-1" d="M6.7913,5.3663A1.4366,1.4366,0,0,0,5.3566,6.7992v3.9142a3.7575,3.7575,0,0,1,.8026-.4791,8.1944,8.1944,0,0,1,2.0693-.5851v-2.85A1.4367,1.4367,0,0,0,6.7913,5.3663Z"></path><path class="cls-1" d="M12.4171.3157a9.9979,9.9979,0,0,0-4.836,19.4022L7.58,19.7171A9.9976,9.9976,0,1,0,12.4171.3157Zm3.2265,12.916a2.4355,2.4355,0,0,1-4.87,0V10.487c-.2521.0151-.5073.0257-.7732.0257s-.5224.0107-.7731.0276v2.6914a2.4356,2.4356,0,0,1-4.8705,0V6.7992a2.4356,2.4356,0,0,1,4.8705,0V9.5439c.252-.0151.5072-.0257.7731-.0257s.5223-.0107.7732-.0276V6.7992a2.4352,2.4352,0,0,1,4.87,0Z"></path><path class="cls-1" d="M13.2081,5.3613a1.4372,1.4372,0,0,0-1.4366,1.4379V9.374a7.085,7.085,0,0,0,1.6661-.4873,1.7337,1.7337,0,0,0,1.2083-1.4422V6.798A1.4372,1.4372,0,0,0,13.2081,5.3613Z"></path></svg> 