<?xml version="1.0" encoding="UTF-8"?> <svg xmlns="http://www.w3.org/2000/svg" id="Layer_1" data-name="Layer 1" width="20" height="20" viewBox="0 0 20 20"><defs><style>.cls-1{fill:#6b11c9;fill-rule:evenodd;}</style></defs><title>Artboard 1 copy 146</title><polygon class="cls-1" points="10.442 9.758 10.433 9.763 10.441 9.763 10.442 9.758"></polygon><polygon class="cls-1" points="15.684 9.763 15.707 9.763 15.685 9.751 15.684 9.763"></polygon><path class="cls-1" d="M12.4171.3157a9.9979,9.9979,0,0,0-4.836,19.4022L7.58,19.7171A9.9976,9.9976,0,1,0,12.4171.3157ZM7.382,6.2524l2.633,1.5214L7.382,9.2908Zm-.4515,1.5v3.0378L4.293,9.2735Zm-.2048,7.2512V11.9661l2.633,1.517Zm3.6851,1.3082V13.2737l2.6331,1.517ZM15.707,9.7634v3.0378L13.07,14.322l-2.6375-1.5208-2.6332-1.517,2.6332-1.5208V6.7256L7.795,5.2087l2.6376-1.5208L13.07,5.2087,15.707,6.7256Z"></path></svg> 