<?xml version="1.0" encoding="UTF-8"?> <svg xmlns="http://www.w3.org/2000/svg" id="Layer_1" data-name="Layer 1" width="20" height="20" viewBox="0 0 20 20"><defs><style>.cls-1{fill:#6b11c9;fill-rule:evenodd;}</style></defs><title>Artboard 1 copy 150</title><path class="cls-1" d="M12.4171.3157a9.9979,9.9979,0,0,0-4.836,19.4022L7.58,19.7171A9.9976,9.9976,0,1,0,12.4171.3157ZM6.635,6.3788a5.6077,5.6077,0,0,0,.5905-.2643c.2577-.1648.245-.4745.3161-.7335.0614-.2235.0973-.454.1545-.6788a.5273.5273,0,0,1,.1022-.1481c.0461.0457.12.0843.1338.1383.0878.34.1707.6821.2382,1.0268a.63.63,0,0,0,.4794.5283,2.4366,2.4366,0,0,1,.3738.1411c.0617.03.1575.1026.15.1377a.2857.2857,0,0,1-.1446.1715c-.1388.0661-.29.1049-.4356.1577a.6071.6071,0,0,0-.4341.4706c-.0681.3378-.1515.6726-.2335,1.0074a1.2591,1.2591,0,0,1-.0863.199l-.0823-.0048c-.0585-.2335-.1189-.4666-.1749-.7008-.0425-.1777-.0839-.3559-.118-.5353a.5641.5641,0,0,0-.4152-.4322,4.3235,4.3235,0,0,1-.4154-.1539.9122.9122,0,0,1-.1891-.1675A.9989.9989,0,0,1,6.635,6.3788ZM7.7509,12.87q-.3832.1485-.7745.2763a.6323.6323,0,0,0-.43.4569c-.1262.4971-.22,1.0024-.3264,1.5045a.41.41,0,0,1-.031.1427c-.0368.0524-.0932.119-.1457.1232-.0382.0031-.1071-.0787-.1217-.1336-.0579-.2171-.1016-.438-.1472-.6582-.0613-.2962-.1158-.5938-.18-.8893a.8834.8834,0,0,0-.7121-.64c-.1813-.0562-.364-.1107-.5387-.1836-.0591-.0246-.1391-.111-.1315-.1559a.2682.2682,0,0,1,.149-.1642c.246-.1027.5043-.1764.7483-.2832a.8343.8343,0,0,0,.4914-.6632c.0893-.4765.1969-.95.3073-1.4219.014-.0595.0924-.1038.141-.1552.0565.0617.1475.1154.1641.1864.1071.4589.2164.9188.2891,1.3839a.9564.9564,0,0,0,.7493.7893c.1669.0552.3366.1028.5007.1654a1.2351,1.2351,0,0,1,.2161.1554A1.1486,1.1486,0,0,1,7.7509,12.87Zm7.8306-2.6724c-.4426.16-.8929.3-1.3433.4372a2.0667,2.0667,0,0,0-1.2835.8913,1.78,1.78,0,0,0-.2093.5034c-.18.8247-.3437,1.653-.5146,2.48-.064.31-.1222.6212-.2037.9263a1.4458,1.4458,0,0,1-.2.3268c-.0966-.0829-.1657-.1157-.1907-.1691a1.6522,1.6522,0,0,1-.1208-.3587c-.22-1.0607-.4153-2.1268-.6592-3.1819a1.7182,1.7182,0,0,0-1.18-1.2993c-.5529-.1862-1.11-.3608-1.659-.5574-.0869-.0311-.2056-.16-.196-.2283a.3767.3767,0,0,1,.2123-.2489c.4883-.1772.9853-.33,1.4791-.492A1.8449,1.8449,0,0,0,10.8849,7.655c.0972-.5608.2289-1.1157.3444-1.6735.0842-.4064.1646-.8136.2522-1.2192a1.5518,1.5518,0,0,1,.1167-.3811.2837.2837,0,0,1,.2-.1437c.07-.0006.1515.0768.2085.1382a.3719.3719,0,0,1,.0665.1755c.1185.5859.2277,1.1737.3524,1.7583s.2438,1.17.4019,1.7449A1.7321,1.7321,0,0,0,14.078,9.23c.4934.1643.9915.315,1.481.49.0973.0348.2213.1481.2292.2347C15.7952,10.0313,15.6735,10.1646,15.5815,10.1978Z"></path></svg> 