<?xml version="1.0" encoding="UTF-8"?> <svg xmlns="http://www.w3.org/2000/svg" id="Layer_1" data-name="Layer 1" width="20" height="20" viewBox="0 0 20 20"><defs><style>.cls-1{fill:#6b11c9;fill-rule:evenodd;}</style></defs><title>Artboard 1 copy 154</title><path class="cls-1" d="M12.4171.3157a9.9979,9.9979,0,0,0-4.836,19.4022L7.58,19.7171A9.9976,9.9976,0,1,0,12.4171.3157ZM8.7977,16.2012a5.3165,5.3165,0,0,1-4.1763-2.13A6.6673,6.6673,0,0,1,3.25,10,6.7559,6.7559,0,0,1,10,3.25c.1476,0,.2637.0106.2637.0106A5.866,5.866,0,0,0,6.7412,5.2858,7.3844,7.3844,0,0,0,5.0327,10c0,2.3413,1.54,4.5455,3.765,4.5455,2.0354,0,3.765-1.9933,3.765-4.5455a4.8137,4.8137,0,0,0-1.8245-3.8916,2.2989,2.2989,0,0,1,.4641-.0422c1.6557,0,3.1534,1.6874,3.1534,3.9338C14.3557,13.2272,12.0038,16.2118,8.7977,16.2012ZM10,16.75c-.1476,0-.2637-.0105-.2637-.0105a5.8665,5.8665,0,0,0,3.5225-2.0249A7.3846,7.3846,0,0,0,14.9673,10c0-2.3413-1.54-4.5455-3.765-4.5455-2.0354,0-3.765,1.9933-3.765,4.5455a4.8139,4.8139,0,0,0,1.8245,3.8916,2.3061,2.3061,0,0,1-.4641.0422c-1.6557,0-3.1534-1.6875-3.1534-3.9338,0-3.2272,2.3519-6.2118,5.558-6.2118a5.3268,5.3268,0,0,1,4.1763,2.1409A6.6673,6.6673,0,0,1,16.75,10,6.7559,6.7559,0,0,1,10,16.75Z"></path></svg> 