<?xml version="1.0" encoding="UTF-8"?> <svg xmlns="http://www.w3.org/2000/svg" id="Layer_1" data-name="Layer 1" width="20" height="20" viewBox="0 0 20 20"><defs><style>.cls-1{fill:#6b11c9;fill-rule:evenodd;}</style></defs><title>Artboard 1 copy 142</title><path class="cls-1" d="M10,4.2758A5.7242,5.7242,0,1,0,15.7242,10,5.7306,5.7306,0,0,0,10,4.2758Zm3.2486,8.1947H11.1958v1.9h-.5706v-1.9H9.3085v1.9H8.738v-1.9H6.5527V7.53H8.738V5.63h.5705v1.9h1.3167V5.63h.5706v1.9H13.162V8.1H7.1233v3.8H12.678V10.2853H9.09V9.7147h4.1591Z"></path><path class="cls-1" d="M12.4171.3157a9.9979,9.9979,0,0,0-4.836,19.4022L7.58,19.7171A9.9976,9.9976,0,1,0,12.4171.3157ZM15.8,12.45A6.3145,6.3145,0,1,1,16.2947,10,6.2723,6.2723,0,0,1,15.8,12.45Z"></path></svg> 