<?xml version="1.0" encoding="UTF-8"?> <svg xmlns="http://www.w3.org/2000/svg" id="Layer_1" data-name="Layer 1" width="20" height="20" viewBox="0 0 20 20"><defs><style>.cls-1{fill:#6b11c9;fill-rule:evenodd;}</style></defs><title>Artboard 1 copy 156</title><path class="cls-1" d="M9.1645,5.8611c-1.0732.0048-2.1466.0021-3.22.0035a1.618,1.618,0,0,0-.2914.0195.428.428,0,0,0-.3513.5082,1.2626,1.2626,0,0,0,.1442.2993q1.5812,2.7647,3.1649,5.5278.3522.6147.7066,1.2283l.0445-.0146c.0018-.0331.005-.0663.005-.0995q.0006-3.6379.004-7.2759C9.3716,5.8939,9.3126,5.86,9.1645,5.8611Z"></path><path class="cls-1" d="M14.0452,5.8644c-1.0663-.0026-2.1325.003-3.1987-.0045-.1772-.0012-.2205.0565-.22.2267.0065,1.3032.0035,2.6064.0035,3.91v3.47l.0379.0189c.0372-.0558.0776-.11.1112-.1676.3219-.5533.6417-1.1078.9639-1.661Q13.1567,9.23,14.57,6.8043C14.8887,6.2548,14.6688,5.866,14.0452,5.8644Z"></path><path class="cls-1" d="M12.4171.3157a9.9979,9.9979,0,0,0-4.836,19.4022L7.58,19.7171A9.9976,9.9976,0,1,0,12.4171.3157Zm3.3181,7.0107q-1.8555,3.1965-3.7163,6.39-.7033,1.2092-1.4052,2.4192a.6521.6521,0,0,1-1.2219.0051q-2.577-4.4931-5.15-8.9887A1.7083,1.7083,0,0,1,5.7343,4.5983c1.4213-.0228,2.8433-.0051,4.2651-.0051V4.5914c1.4008,0,2.8017-.0081,4.2024.003A1.6969,1.6969,0,0,1,15.9292,5.953,1.8052,1.8052,0,0,1,15.7352,7.3264Z"></path></svg> 