<?xml version="1.0" encoding="UTF-8"?> <svg xmlns="http://www.w3.org/2000/svg" id="Layer_1" data-name="Layer 1" width="20" height="20" viewBox="0 0 20 20"><defs><style>.cls-1{fill:#6b11c9;fill-rule:evenodd;}</style></defs><title>Artboard 1 copy 184</title><path class="cls-1" d="M12.4171.3156a9.998,9.998,0,0,0-4.836,19.4023L7.58,19.7171A9.9977,9.9977,0,1,0,12.4171.3156ZM15.2505,8.687l1.2238.0011L15.2516,9.7226l-.6065-.52Zm-.0093,2.6521-.9122-.781-.9088.7777H12.3334l-.5194-.6309H10.0234l.4531-.56h.8806l-.6707-.82L8.3449,12.1757H7.2587l.6777-.8279H6.8045L6.1926,9.6323l-.607,1.7024H4.4374L3.4729,8.6625h.8812l.6484,1.82.6462-1.8119H6.7365l.6445,1.808L8.025,8.67h.8839l-.9725,2.6777.2165-.2643,1.9863-2.4178h1.0933l1.653,2.0169.7952-.6837L11.164,7.8243h1.2918l4.0712,3.5148Z"></path></svg> 