<?xml version="1.0" encoding="UTF-8"?> <svg xmlns="http://www.w3.org/2000/svg" id="Layer_1" data-name="Layer 1" width="20" height="20" viewBox="0 0 20 20"><defs><style>.cls-1{fill:#6b11c9;fill-rule:evenodd;}</style></defs><title>Artboard 1 copy 186</title><path class="cls-1" d="M12.4171.3156a9.998,9.998,0,0,0-4.836,19.4023L7.58,19.7171A9.9977,9.9977,0,1,0,12.4171.3156Zm-2.12,9.8168q2.2391,2.8006,4.47,5.6077c.0226.0284.0408.06.0708.1052-.212.0165-.3767.0367-.5312-.1595-1.3809-1.7538-2.7751-3.4971-4.1655-5.2434-.0423-.0531-.0861-.105-.14-.17-.1193.1484-.2317.2868-.3427.4264q-2.0134,2.5291-4.0252,5.06a.2186.2186,0,0,1-.2047.1c-.0832-.0066-.1673-.0014-.2871-.0014.1046-.1342.186-.2407.2694-.3455q2.1465-2.6938,4.2949-5.3862a.1488.1488,0,0,0,.004-.2263Q7.4565,7.0762,5.2112,4.2478c-.018-.0227-.034-.047-.0522-.0722a.41.41,0,0,1,.5211.149Q7.8092,7,9.9393,9.6739c.0156.02.0344.0367.0653.0692.1367-.17.27-.3339.4013-.4992q1.98-2.49,3.9583-4.982a.2435.2435,0,0,1,.2365-.1118c.0753.0079.152.0015.2583.0015-.0589.0793-.1011.14-.147.1974q-2.2059,2.7694-4.4148,5.5366A.1612.1612,0,0,0,10.2966,10.1324Z"></path></svg> 