<?xml version="1.0" encoding="UTF-8"?> <svg xmlns="http://www.w3.org/2000/svg" xmlns:xlink="http://www.w3.org/1999/xlink" width="1240" height="358" viewBox="0 0 1240 358"><defs><style>.cls-1,.cls-2,.cls-3,.cls-4,.cls-5,.cls-6{fill:none;}.cls-1{stroke:url(#linear-gradient);}.cls-2{stroke:url(#linear-gradient-2);}.cls-3{stroke:url(#linear-gradient-3);}.cls-4{stroke:url(#linear-gradient-4);}.cls-5{stroke:url(#linear-gradient-5);}.cls-6{stroke:url(#linear-gradient-6);}.cls-7{fill:#6b11c9;}.cls-8{fill:url(#radial-gradient);}.cls-9{fill:#000009;}.cls-10{fill:url(#radial-gradient-2);}.cls-11{fill:url(#radial-gradient-3);}.cls-12{fill:url(#radial-gradient-4);}.cls-13{fill:url(#radial-gradient-5);}.cls-14{fill:url(#radial-gradient-6);}.cls-15{fill:url(#radial-gradient-7);}.cls-16{fill:url(#radial-gradient-8);}</style><linearGradient id="linear-gradient" x1="895.5776" y1="-76.7236" x2="905.996" y2="34.32" gradientTransform="translate(-367.0679 169.6116) rotate(8.5946)" gradientUnits="userSpaceOnUse"><stop offset="0" stop-color="#6b11c9"></stop><stop offset="1" stop-color="#f5f5f5"></stop></linearGradient><linearGradient id="linear-gradient-2" x1="894.9336" y1="-82.8552" x2="905.3521" y2="28.1884" gradientTransform="translate(-367.0679 169.6116) rotate(8.5946)" gradientUnits="userSpaceOnUse"><stop offset="0" stop-color="#e21284"></stop><stop offset="1" stop-color="#f5f5f5"></stop></linearGradient><linearGradient id="linear-gradient-3" x1="894.232" y1="-90.5297" x2="904.6505" y2="20.5139" xlink:href="#linear-gradient"></linearGradient><linearGradient id="linear-gradient-4" x1="430.4609" y1="-539.3759" x2="426.7364" y2="-658.6328" gradientTransform="translate(-15.9067 637.7242) rotate(1.9908)" xlink:href="#linear-gradient"></linearGradient><linearGradient id="linear-gradient-5" x1="430.6674" y1="-532.7813" x2="426.9421" y2="-652.038" gradientTransform="translate(-15.9067 637.7242) rotate(1.9908)" xlink:href="#linear-gradient-2"></linearGradient><linearGradient id="linear-gradient-6" x1="430.956" y1="-524.5377" x2="427.2306" y2="-643.7944" gradientTransform="translate(-15.9067 637.7242) rotate(1.9908)" xlink:href="#linear-gradient"></linearGradient><radialGradient id="radial-gradient" cx="-1092.524" cy="753.9122" r="25.575" gradientTransform="matrix(-0.9465, -0.3228, 0.614, -1.8005, -629.4061, 1143.6947)" gradientUnits="userSpaceOnUse"><stop offset="0.4809" stop-color="#fff"></stop><stop offset="0.5242" stop-color="#f7f5f2"></stop><stop offset="0.6035" stop-color="#e0dad1"></stop><stop offset="0.71" stop-color="#bcaf9b"></stop><stop offset="0.8382" stop-color="#8a7452"></stop><stop offset="0.8967" stop-color="#72572e"></stop></radialGradient><radialGradient id="radial-gradient-2" cx="-1346.0107" cy="955.8481" r="63.4948" gradientTransform="matrix(-0.9937, 0.1117, -0.2124, -1.8904, -563.4774, 2208.4142)" xlink:href="#radial-gradient"></radialGradient><radialGradient id="radial-gradient-3" cx="191.49" cy="-499.3778" r="17.5164" gradientTransform="translate(-45.558 694.0403) rotate(-12.2684)" gradientUnits="userSpaceOnUse"><stop offset="0" stop-color="#803d4c"></stop><stop offset="0.1333" stop-color="#6a3641"></stop><stop offset="0.3778" stop-color="#482b30"></stop><stop offset="0.6103" stop-color="#302324"></stop><stop offset="0.8237" stop-color="#211e1d"></stop><stop offset="1" stop-color="#1c1c1a"></stop></radialGradient><radialGradient id="radial-gradient-4" cx="-362.029" cy="-506.3806" r="5.1009" gradientTransform="matrix(-0.7364, 0.1833, -0.4352, -1.8481, -454.5824, -710.6087)" xlink:href="#radial-gradient-3"></radialGradient><radialGradient id="radial-gradient-5" cx="190.6449" cy="-497.2699" r="8.4251" gradientTransform="matrix(-0.9721, 0.2345, -0.4453, -1.8459, -1.0351, -794.9889)" xlink:href="#radial-gradient-3"></radialGradient><radialGradient id="radial-gradient-6" cx="222.9212" cy="-528.4608" r="7.1477" gradientTransform="translate(-340.1439 544.3382) rotate(21.1464)" xlink:href="#radial-gradient-3"></radialGradient><radialGradient id="radial-gradient-7" cx="-319.3511" cy="-531.3183" r="2.0815" gradientTransform="matrix(-0.7156, -0.2526, 0.6545, -1.7822, 178.0355, -898.621)" xlink:href="#radial-gradient-3"></radialGradient><radialGradient id="radial-gradient-8" cx="222.5763" cy="-527.6006" r="3.4379" gradientTransform="translate(607.3379 -734.1395) rotate(-160.1479) scale(1 1.8988)" xlink:href="#radial-gradient-3"></radialGradient></defs><title>Artboard 1 copy 5</title><g id="Layer_11" data-name="Layer 11"><path class="cls-1" d="M1082.0159,293.9656s-43.9928,53.8435-132.6854,39.2111-137.5513-97.3648-213.27-93.127c-101.18,5.6337-185.6227,121.6588-266.1839,44.5067s-115.3856,80.9219-204.19,19.5347S87.0424,370.1428,69.9619,283.396s-96.2867-52.1032-96.2867-52.1032"></path><path class="cls-2" d="M1082.2942,287.756s-43.9928,53.8434-132.6854,39.2111-137.4649-97.2864-213.27-93.127c-101.1795,5.6337-185.6227,121.6588-266.1839,44.5066s-115.3817,81.0044-204.186,19.6172S87.4071,364.0116,70.2441,277.2688s-96.2867-52.1032-96.2867-52.1032"></path><path class="cls-3" d="M1082.748,280.0508s-43.9929,53.8435-132.6855,39.2112-137.4649-97.2864-213.27-93.127c-101.1795,5.6336-185.6188,121.7412-266.1839,44.5066s-115.3817,81.0044-204.186,19.6171S87.7784,356.3105,70.6978,269.5636s-96.2867-52.1031-96.2867-52.1031"></path><path class="cls-4" d="M974.34,78.0368S930.7787,17.651,835.0652,27.6176s-153.17,95.1623-233.8463,85.8352C493.4055,100.9529,410.7124-28.5,319.6753,48.8407S201.5643-45.1,102.7941,14.7974-83.85-67.2408-107.7575,24.3229"></path><path class="cls-5" d="M974.2761,84.64S930.7144,24.2543,835.0008,34.2209,681.9129,129.3861,601.1545,120.056C493.4236,107.5591,410.648-21.8963,319.6109,55.444S201.5-38.4965,102.73,21.4007-83.9144-60.6375-107.7394,30.929"></path><path class="cls-6" d="M974.3193,92.8985S930.7576,32.5127,835.0441,42.4793c-95.796,9.9638-153.17,95.1623-233.8435,85.7527C493.3843,115.8146,410.6087-13.6408,319.5717,63.7s-118.1111-93.94-216.8812-34.0433S-83.9537-52.382-107.7787,39.1845"></path><path class="cls-7" d="M.7021,78.3085v65.7242c4.7825-20.1542,14.2224-39.9811,39.4587-55.3744a94.8381,94.8381,0,0,0,14.0672-10.35Z"></path><path class="cls-8" d="M868.161,109.37s-7.1845-2.985-11.0162,5.3406-10.9942,25.6287-11.9959,26.6228,1.638.1986,3.8406,1.1684.9822,1.6976,2.509,2.262,3.1923-1.6264,4.0949-.6525,1.2988,2.2988,2.3969,2.63,2.8909-1.6209,3.3919-.969,1.1334,2.8426,2.2308,3.1764,2.3853-1.2725,3.2719-.9028.8243,2.2489,1.6706,2.4065,2.9416.4953,2.81-1.0433,4.8153-30.6057,4.8153-30.6057S877.4286,111.0907,868.161,109.37Z"></path><ellipse class="cls-9" cx="862.6441" cy="121.9653" rx="2.6763" ry="1.6249" transform="translate(494.8783 911.762) rotate(-73.0786)"></ellipse><ellipse class="cls-9" cx="867.5821" cy="123.4676" rx="2.6763" ry="1.6249" transform="translate(496.9418 917.5512) rotate(-73.0786)"></ellipse><path class="cls-9" d="M858.1161,125.3959s1.4024,2.1637,1.9105,2.2178,1.7632-1.3624,2.0674-1.0076.2641,1.8412.7933,1.7025,1.1926-1.2107,1.4416-.7978.3342,1.4879.5891,1.2657,1.3711-1.0587,1.6412-.8381.624,1.6022.957,1.3288a28.5233,28.5233,0,0,1,2.6646-1.2874s-1.13,5.3137-3.448,4.6833-2.6326-1.8125-3.8345-1.8035-2.7822,1.1393-4.2046-.3425S858.1161,125.3959,858.1161,125.3959Z"></path><path class="cls-10" d="M541.1808,184.2016s-19.294.9029-19.0844,23.6558,2.4442,69.1924,1.2469,72.4852,3.8887-1.2882,9.8619-1.4422,4.0028,2.7722,8.0288,2.4233,5.447-7.0321,8.505-5.8,5.35,3.7873,8.1671,3.3689,4.776-6.7006,6.5913-5.767,5.5545,5.1834,8.3722,4.7714,4.0094-5.3829,6.3918-5.4915,4.2321,4.1777,6.2993,3.6355,7.13-2.002,5.2061-5.318-21.5886-73.8273-21.5886-73.8273S563.814,178.2536,541.1808,184.2016Z"></path><ellipse class="cls-9" cx="542.1263" cy="218.3263" rx="4.0341" ry="6.6445" transform="translate(-25.8862 80.7432) rotate(-8.3199)"></ellipse><ellipse class="cls-9" cx="554.8058" cy="216.4721" rx="4.0341" ry="6.6445" transform="translate(-25.4844 82.5584) rotate(-8.3199)"></ellipse><path class="cls-9" d="M535.59,230.8238s5.44,3.3742,6.638,2.9578,2.5173-4.9262,3.576-4.4515,2.5424,3.8552,3.584,2.9834,1.3964-3.9815,2.3928-3.3178,2.3255,2.9875,2.6627,2.2187,1.9582-3.8292,2.7983-3.62,3.0976,2.9373,3.5559,1.9709a70.7885,70.7885,0,0,1,4.6207-5.7121s3.089,13.1285-2.7847,14.1673-7.8307-1.2831-10.52.01-5.0416,5.5039-9.8047,3.6822S535.59,230.8238,535.59,230.8238Z"></path><path class="cls-11" d="M48.233,170.786c-.4593-.7394-2.0513-3.19-3.25-3.6756a8.7239,8.7239,0,0,0-2.6139-.3031,10.7228,10.7228,0,0,0-1.2116-2.9751,5.2751,5.2751,0,0,0,1.9153-1.2615c.759-.9974,1.4924-4.4656,1.6317-5.1508a.79.79,0,0,0-1.5484-.3148,19.39,19.39,0,0,1-1.3407,4.5087,5,5,0,0,1-1.5964.8983,9.77,9.77,0,0,0-1.3146-1.3,6.7474,6.7474,0,0,0,1.3431-2.7288c.0926-1.25-1.1832-4.5572-1.44-5.2076a.79.79,0,1,0-1.47.58,19.1153,19.1153,0,0,1,1.3339,4.5106,6.1443,6.1443,0,0,1-1.0777,1.9523,8.5411,8.5411,0,0,0-2.1172-.8466,5.0983,5.0983,0,0,0-.1107-1.3544c-.5113-2.3513-3.8352-3.6248-4.5131-3.4774-.7753.1686-3.1729,2.6862-2.6616,5.0376a5.1045,5.1045,0,0,0,.4618,1.278,8.5324,8.5324,0,0,0-1.5127,1.5655,5.841,5.841,0,0,1-1.7018-1.2772,19.383,19.383,0,0,1-.66-4.6574.79.79,0,1,0-1.5779.0826c.0365.6982.2493,4.2367.8526,5.3353a6.5045,6.5045,0,0,0,2.25,1.8634,9.7669,9.7669,0,0,0-.6939,1.7933,4.6018,4.6018,0,0,1-1.6821-.1577,19.3816,19.3816,0,0,1-3.092-3.5447.79.79,0,0,0-1.2778.9294c.4113.5655,2.5187,3.4159,3.6233,4.0079a5.0006,5.0006,0,0,0,2.1194.3522,10.7226,10.7226,0,0,0,.1361,3.278,8.23,8.23,0,0,0-2.1079,1.293c-.8884.9393-1.3189,3.83-1.43,4.6931a.79.79,0,1,0,1.5673.2012,11.023,11.023,0,0,1,1.0105-3.8086,6.1944,6.1944,0,0,1,1.4274-.85,8.3188,8.3188,0,0,0,1.1728,1.9056,14.171,14.171,0,0,0-2.2787,3.54c-.3249,1.2514.6927,3.9908,1.0123,4.8006a.79.79,0,0,0,.9018.4823.8012.8012,0,0,0,.1231-.0375.79.79,0,0,0,.4449-1.025,11.0238,11.0238,0,0,1-.9527-3.8234,13.187,13.187,0,0,1,1.8473-2.7767c2.6433,2.4117,6.3841,3.6092,7.8474,3.291,1.8144-.3945,4.6075-3.0243,5.8909-6.3019a13.5034,13.5034,0,0,1,2.8657,1.7752,11.0456,11.0456,0,0,1,.7212,3.8739.79.79,0,0,0,.83.7475.8056.8056,0,0,0,.1274-.0171.79.79,0,0,0,.62-.8131c-.0456-.8694-.2575-3.784-1.0727-4.7874a14.4992,14.4992,0,0,0-3.62-2.3126,8.5974,8.5974,0,0,0,.2084-2.1826,6.9278,6.9278,0,0,1,1.7956.1817,11.045,11.045,0,0,1,2.501,3.0451.79.79,0,0,0,1.3421-.8339Z"></path><path class="cls-12" d="M29.3944,155.1969s-2.26,2.2016-.9087,6.3155,4.215,4.0718,4.7223,3.9583,3.1294-1.467,2.6543-5.5812a6.4573,6.4573,0,0,0-3.4516-5.3485s-1.2722-.6767-1.6686-.5707S29.3944,155.1969,29.3944,155.1969Z"></path><path class="cls-13" d="M28.6536,160.9557a9.793,9.793,0,0,0-2.7492,11.0989,9.1353,9.1353,0,0,0,10.1182,6.3566,9.499,9.499,0,0,0,6.5717-10.0181,10.269,10.269,0,0,0-7.1171-8.9212,23.5031,23.5031,0,0,0-3.4385.2554C31.14,159.9568,28.6536,160.9557,28.6536,160.9557Z"></path><path class="cls-14" d="M61.55,136.5986a4.5813,4.5813,0,0,0-.2809-1.9822,3.5566,3.5566,0,0,0-.8222-.6907,4.3738,4.3738,0,0,0,.2559-1.2856,2.1526,2.1526,0,0,0,.9359.0008,8.0012,8.0012,0,0,0,1.7132-1.3878.3224.3224,0,0,0-.4567-.4552,7.9133,7.9133,0,0,1-1.47,1.2345,2.04,2.04,0,0,1-.7456-.0528,3.9864,3.9864,0,0,0-.1556-.7383,2.7541,2.7541,0,0,0,1.0707-.6276,8.002,8.002,0,0,0,.68-2.0974.3224.3224,0,0,0-.631-.1326,7.8018,7.8018,0,0,1-.5593,1.8361,2.51,2.51,0,0,1-.8058.4228,3.4858,3.4858,0,0,0-.5309-.7642,2.08,2.08,0,0,0,.2667-.4861,2.22,2.22,0,0,0-.7558-2.1987,2.1589,2.1589,0,0,0-2.0386,1.1178,2.084,2.084,0,0,0-.13.5391,3.4775,3.4775,0,0,0-.867.1933,2.3854,2.3854,0,0,1-.2927-.8175,7.9117,7.9117,0,0,1,.8219-1.7346.3224.3224,0,1,0-.556-.3265,8.0034,8.0034,0,0,0-.9085,2.0089,2.6543,2.6543,0,0,0,.3476,1.14,3.99,3.99,0,0,0-.6394.4548,1.8767,1.8767,0,0,1-.5375-.4317,7.91,7.91,0,0,1-.2566-1.9021.3224.3224,0,1,0-.6441.0294,8.0022,8.0022,0,0,0,.3335,2.1793,2.0418,2.0418,0,0,0,.6428.5963,4.3736,4.3736,0,0,0-.69,1.147,3.3592,3.3592,0,0,0-1.0085-.0332,4.5825,4.5825,0,0,0-1.5417,1.2772.3224.3224,0,1,0,.4887.4207,4.5,4.5,0,0,1,1.2-1.07,2.5312,2.5312,0,0,1,.6773.0312,3.3915,3.3915,0,0,0-.0287.9126,5.7821,5.7821,0,0,0-1.5717.6936,4.5824,4.5824,0,0,0-.7339,1.8626.3224.3224,0,0,0,.1988.3669.3321.3321,0,0,0,.05.0149.3225.3225,0,0,0,.3819-.2492,4.4978,4.4978,0,0,1,.5347-1.5163,5.3817,5.3817,0,0,1,1.2532-.5307,4.7769,4.7769,0,0,0,1.9333,2.8844,4.385,4.385,0,0,0,3.4227-.8227,5.51,5.51,0,0,1,.5771,1.2486,4.5058,4.5058,0,0,1-.6249,1.4816.3224.3224,0,0,0,.5561.3264,4.5823,4.5823,0,0,0,.71-1.8717,5.9141,5.9141,0,0,0-.7132-1.6011,3.5111,3.5111,0,0,0,.5615-.6966,2.8276,2.8276,0,0,1,.5707.4654,4.5068,4.5068,0,0,1,.1676,1.5992.3224.3224,0,0,0,.6445.0176Z"></path><path class="cls-15" d="M58.6363,127.0554a2.4988,2.4988,0,0,0-1.7288,1.9469c-.4641,1.705.5207,2.3341.719,2.41s1.3955.2035,2.1582-1.3046a2.6347,2.6347,0,0,0,.0263-2.5974s-.2812-.5164-.44-.5693A2.3574,2.3574,0,0,0,58.6363,127.0554Z"></path><path class="cls-16" d="M57.09,128.8505a3.9959,3.9959,0,0,0-3.43,3.1626,3.7277,3.7277,0,0,0,2.0179,4.4388,3.8763,3.8763,0,0,0,4.49-1.9355,4.19,4.19,0,0,0-.4195-4.638,9.58,9.58,0,0,0-1.2286-.6856C58.1611,129.0689,57.09,128.8505,57.09,128.8505Z"></path></g></svg> 