<?xml version="1.0" encoding="UTF-8"?> <svg xmlns="http://www.w3.org/2000/svg" xmlns:xlink="http://www.w3.org/1999/xlink" width="1240" height="358" viewBox="0 0 1240 358"><defs><style>.cls-1{fill:#f4f5f8;}.cls-2,.cls-3,.cls-4,.cls-5,.cls-6,.cls-7,.cls-8{fill:none;}.cls-3{stroke:url(#linear-gradient);}.cls-4{stroke:url(#linear-gradient-2);}.cls-5{stroke:url(#linear-gradient-3);}.cls-6{stroke:url(#linear-gradient-4);}.cls-7{stroke:url(#linear-gradient-5);}.cls-8{stroke:url(#linear-gradient-6);}.cls-9{mask:url(#mask);}.cls-10{fill:#6b11c9;}.cls-11{clip-path:url(#clip-path);}.cls-12{fill:url(#linear-gradient-7);}.cls-13{fill:url(#linear-gradient-8);}.cls-14{fill:url(#linear-gradient-9);}.cls-15{fill:url(#linear-gradient-10);}.cls-16{fill:url(#linear-gradient-11);}.cls-17{fill:url(#linear-gradient-12);}.cls-18{fill:url(#linear-gradient-13);}.cls-19{fill:url(#linear-gradient-14);}.cls-20{fill:url(#linear-gradient-15);}.cls-21{fill:url(#linear-gradient-16);}.cls-22{fill:url(#linear-gradient-17);}.cls-23{fill:url(#linear-gradient-18);}.cls-24{fill:url(#linear-gradient-19);}.cls-25{fill:url(#linear-gradient-20);}.cls-26{fill:url(#linear-gradient-21);}.cls-27{fill:url(#linear-gradient-22);}.cls-28{fill:url(#linear-gradient-23);}.cls-29{fill:url(#linear-gradient-24);}.cls-30{fill:url(#linear-gradient-25);}.cls-31{fill:url(#linear-gradient-26);}.cls-32{fill:url(#linear-gradient-27);}.cls-33{fill:url(#linear-gradient-28);}.cls-34{fill:url(#linear-gradient-29);}.cls-35{fill:url(#linear-gradient-30);}.cls-36{fill:url(#linear-gradient-31);}.cls-37{fill:url(#linear-gradient-32);}.cls-38{fill:url(#linear-gradient-33);}.cls-39{fill:url(#linear-gradient-34);}.cls-40{fill:url(#linear-gradient-35);}.cls-41{fill:url(#linear-gradient-36);}.cls-42{fill:url(#linear-gradient-37);}.cls-43{fill:url(#linear-gradient-38);}.cls-44{fill:url(#linear-gradient-39);}.cls-45{fill:url(#linear-gradient-40);}.cls-46{fill:url(#linear-gradient-41);}.cls-47{fill:url(#linear-gradient-42);}.cls-48{fill:url(#linear-gradient-43);}.cls-49{fill:url(#linear-gradient-44);}.cls-50{fill:url(#linear-gradient-45);}.cls-51{fill:url(#linear-gradient-46);}</style><linearGradient id="linear-gradient" x1="483.0894" y1="683.5258" x2="496.5764" y2="539.7768" gradientTransform="matrix(0.971, 0.2389, 0.2389, -0.971, -42.876, 776.9016)" gradientUnits="userSpaceOnUse"><stop offset="0" stop-color="#6b11c9"></stop><stop offset="1" stop-color="#f5f5f5"></stop></linearGradient><linearGradient id="linear-gradient-2" x1="482.3409" y1="691.4876" x2="495.8279" y2="547.7386" gradientTransform="matrix(0.971, 0.2389, 0.2389, -0.971, -42.876, 776.9016)" gradientUnits="userSpaceOnUse"><stop offset="0" stop-color="#e21284"></stop><stop offset="1" stop-color="#f5f5f5"></stop></linearGradient><linearGradient id="linear-gradient-3" x1="481.4088" y1="701.4408" x2="494.8958" y2="557.6918" xlink:href="#linear-gradient"></linearGradient><linearGradient id="linear-gradient-4" x1="1072.3728" y1="494.3874" x2="1067.8657" y2="638.6975" gradientTransform="matrix(0.9915, 0.1303, 0.1303, -0.9915, -48.4407, 539.7342)" xlink:href="#linear-gradient"></linearGradient><linearGradient id="linear-gradient-5" x1="1072.6233" y1="486.3958" x2="1068.1153" y2="630.7056" gradientTransform="matrix(0.9915, 0.1303, 0.1303, -0.9915, -48.4407, 539.7342)" xlink:href="#linear-gradient-2"></linearGradient><linearGradient id="linear-gradient-6" x1="1072.9343" y1="476.4048" x2="1068.4263" y2="620.7145" gradientTransform="matrix(0.9915, 0.1303, 0.1303, -0.9915, -48.4407, 539.7342)" xlink:href="#linear-gradient"></linearGradient><mask id="mask" x="553.5196" y="2.3591" width="368.244" height="370.4317" maskUnits="userSpaceOnUse"><g id="mask0_1506_15265" data-name="mask0 1506 15265"><rect class="cls-1" x="614.1404" y="49.5441" width="247.0025" height="276.0617" transform="translate(63.6372 541.1533) rotate(-41.9486)"></rect></g></mask><clipPath id="clip-path"><rect class="cls-2" x="640.1138" y="123.9975" width="150.1062" height="150.1062" transform="translate(172.5571 705.6662) rotate(-58.5886)"></rect></clipPath><linearGradient id="linear-gradient-7" x1="-3.3981" y1="1870.5319" x2="73.8546" y2="1893.6205" gradientTransform="matrix(0.6685, 0.7437, 0.7437, -0.6685, -680.9874, 1447.5469)" gradientUnits="userSpaceOnUse"><stop offset="0" stop-color="#ff489c"></stop><stop offset="1" stop-color="#e8236f"></stop></linearGradient><linearGradient id="linear-gradient-8" x1="43.7988" y1="1889.3628" x2="-56.668" y2="1943.5944" gradientTransform="matrix(0.6685, 0.7437, 0.7437, -0.6685, -680.9874, 1447.5469)" gradientUnits="userSpaceOnUse"><stop offset="0" stop-color="#d665c6"></stop><stop offset="1" stop-color="#cf5ec1"></stop></linearGradient><linearGradient id="linear-gradient-9" x1="-8.516" y1="1917.5424" x2="24.8103" y2="1884.6549" gradientTransform="matrix(0.6685, 0.7437, 0.7437, -0.6685, -680.9874, 1447.5469)" gradientUnits="userSpaceOnUse"><stop offset="0" stop-color="#fff"></stop><stop offset="0.2282" stop-color="#f2f2f2"></stop><stop offset="0.5158" stop-color="#ededed"></stop><stop offset="0.7118" stop-color="#e7e7e7"></stop><stop offset="1" stop-color="#fff"></stop></linearGradient><linearGradient id="linear-gradient-10" x1="20.386" y1="1820.5239" x2="28.2757" y2="1794.1255" gradientTransform="matrix(0.6685, 0.7437, 0.7437, -0.6685, -680.9874, 1447.5469)" gradientUnits="userSpaceOnUse"><stop offset="0" stop-color="#ed2675" stop-opacity="0"></stop><stop offset="1" stop-color="#ec2775"></stop></linearGradient><linearGradient id="linear-gradient-11" x1="-2.3324" y1="1845.5423" x2="-57.9857" y2="1875.5838" gradientTransform="matrix(0.6685, 0.7437, 0.7437, -0.6685, -680.9874, 1447.5469)" gradientUnits="userSpaceOnUse"><stop offset="0" stop-color="#d766c6"></stop><stop offset="1" stop-color="#b746af"></stop></linearGradient><linearGradient id="linear-gradient-12" x1="-39.2942" y1="1865.494" x2="-10.1049" y2="1849.7378" gradientTransform="matrix(0.6685, 0.7437, 0.7437, -0.6685, -680.9874, 1447.5469)" gradientUnits="userSpaceOnUse"><stop offset="0" stop-color="#ffe548"></stop><stop offset="1" stop-color="#ffb211"></stop></linearGradient><linearGradient id="linear-gradient-13" x1="8.9337" y1="1807.8473" x2="-46.7196" y2="1837.889" gradientTransform="matrix(0.6685, 0.7437, 0.7437, -0.6685, -680.9874, 1447.5469)" gradientUnits="userSpaceOnUse"><stop offset="0" stop-color="#d666c6"></stop><stop offset="1" stop-color="#b948b0"></stop></linearGradient><linearGradient id="linear-gradient-14" x1="-28.0275" y1="1827.7984" x2="1.1618" y2="1812.0429" gradientTransform="matrix(0.6685, 0.7437, 0.7437, -0.6685, -680.9874, 1447.5469)" gradientUnits="userSpaceOnUse"><stop offset="0" stop-color="#fff458"></stop><stop offset="1" stop-color="#ffcb39"></stop></linearGradient><linearGradient id="linear-gradient-15" x1="34.2373" y1="1856.4723" x2="-21.416" y2="1886.5138" gradientTransform="matrix(0.6685, 0.7437, 0.7437, -0.6685, -680.9874, 1447.5469)" gradientUnits="userSpaceOnUse"><stop offset="0" stop-color="#d767c7"></stop><stop offset="1" stop-color="#b848b0"></stop></linearGradient><linearGradient id="linear-gradient-16" x1="-2.7245" y1="1876.4238" x2="26.465" y2="1860.6676" gradientTransform="matrix(0.6685, 0.7437, 0.7437, -0.6685, -680.9874, 1447.5469)" gradientUnits="userSpaceOnUse"><stop offset="0" stop-color="#fff858"></stop><stop offset="1" stop-color="#f19b4e"></stop></linearGradient><linearGradient id="linear-gradient-17" x1="45.5032" y1="1818.7768" x2="-10.1499" y2="1848.8182" gradientTransform="matrix(0.6685, 0.7437, 0.7437, -0.6685, -680.9874, 1447.5469)" gradientUnits="userSpaceOnUse"><stop offset="0" stop-color="#d766c6"></stop><stop offset="1" stop-color="#b544ad"></stop></linearGradient><linearGradient id="linear-gradient-18" x1="8.5418" y1="1838.7281" x2="37.7313" y2="1822.9726" gradientTransform="matrix(0.6685, 0.7437, 0.7437, -0.6685, -680.9874, 1447.5469)" gradientUnits="userSpaceOnUse"><stop offset="0" stop-color="#fffe50"></stop><stop offset="1" stop-color="#ffb211"></stop><stop offset="1" stop-color="#f59150"></stop></linearGradient><linearGradient id="linear-gradient-19" x1="96.7316" y1="1837.6001" x2="2.5704" y2="1888.4287" gradientTransform="matrix(0.6685, 0.7437, 0.7437, -0.6685, -680.9874, 1447.5469)" gradientUnits="userSpaceOnUse"><stop offset="0" stop-color="#d666c6"></stop><stop offset="1" stop-color="#ba49b1"></stop></linearGradient><linearGradient id="linear-gradient-20" x1="30.8045" y1="1868.8756" x2="77.6633" y2="1855.9711" gradientTransform="matrix(0.6685, 0.7437, 0.7437, -0.6685, -680.9874, 1447.5469)" gradientUnits="userSpaceOnUse"><stop offset="0" stop-color="#ffde35"></stop><stop offset="1" stop-color="#ffbe2c"></stop></linearGradient><linearGradient id="linear-gradient-21" x1="53.7997" y1="1861.0156" x2="40.6455" y2="1877.0023" gradientTransform="matrix(0.6685, 0.7437, 0.7437, -0.6685, -680.9874, 1447.5469)" gradientUnits="userSpaceOnUse"><stop offset="0" stop-color="#ffb211" stop-opacity="0"></stop><stop offset="1" stop-color="#ff4b3e"></stop></linearGradient><linearGradient id="linear-gradient-22" x1="57.9921" y1="1846.9877" x2="44.8384" y2="1862.9744" xlink:href="#linear-gradient-21"></linearGradient><linearGradient id="linear-gradient-23" x1="34.1494" y1="1866.706" x2="56.6776" y2="1873.4393" gradientTransform="matrix(0.6685, 0.7437, 0.7437, -0.6685, -680.9874, 1447.5469)" gradientUnits="userSpaceOnUse"><stop offset="0" stop-color="#d767c7"></stop><stop offset="0.3227" stop-color="#d363c4"></stop><stop offset="0.665" stop-color="#c656bb"></stop><stop offset="1" stop-color="#b342ac"></stop></linearGradient><linearGradient id="linear-gradient-24" x1="-8.7041" y1="1817.3369" x2="-32.2837" y2="1830.0648" xlink:href="#linear-gradient-21"></linearGradient><linearGradient id="linear-gradient-25" x1="-31.2988" y1="1820.4172" x2="-9.4876" y2="1826.9355" xlink:href="#linear-gradient-23"></linearGradient><linearGradient id="linear-gradient-26" x1="31.2207" y1="1826.4859" x2="7.2193" y2="1839.442" xlink:href="#linear-gradient-21"></linearGradient><linearGradient id="linear-gradient-27" x1="7.5429" y1="1832.0113" x2="24.7702" y2="1837.1602" xlink:href="#linear-gradient-23"></linearGradient><linearGradient id="linear-gradient-28" x1="-15.3588" y1="1852.5134" x2="-43.252" y2="1867.5701" xlink:href="#linear-gradient-21"></linearGradient><linearGradient id="linear-gradient-29" x1="-40.91" y1="1858.6076" x2="-22.407" y2="1864.1377" xlink:href="#linear-gradient-23"></linearGradient><linearGradient id="linear-gradient-30" x1="10.1137" y1="1876.1212" x2="-0.978" y2="1882.1082" xlink:href="#linear-gradient-21"></linearGradient><linearGradient id="linear-gradient-31" x1="21.2106" y1="1863.4428" x2="-6.6823" y2="1878.4992" xlink:href="#linear-gradient-21"></linearGradient><linearGradient id="linear-gradient-32" x1="14.3375" y1="1860.5873" x2="5.76" y2="1865.2175" xlink:href="#linear-gradient-21"></linearGradient><linearGradient id="linear-gradient-33" x1="-4.3409" y1="1869.5373" x2="14.1621" y2="1875.0674" xlink:href="#linear-gradient-23"></linearGradient><linearGradient id="linear-gradient-34" x1="-0.4479" y1="1879.3074" x2="5.5464" y2="1881.099" xlink:href="#linear-gradient-23"></linearGradient><linearGradient id="linear-gradient-35" x1="4.2749" y1="1863.5056" x2="10.2693" y2="1865.297" xlink:href="#linear-gradient-23"></linearGradient><linearGradient id="linear-gradient-36" x1="38.342" y1="1852.6777" x2="60.8695" y2="1859.4104" xlink:href="#linear-gradient-23"></linearGradient><linearGradient id="linear-gradient-37" x1="353.9146" y1="-991.9861" x2="363.9484" y2="-991.9861" gradientTransform="translate(-123.811 792.5052) rotate(31.9937)" xlink:href="#linear-gradient-23"></linearGradient><linearGradient id="linear-gradient-38" x1="365.8462" y1="-992.0679" x2="373.9392" y2="-992.0679" gradientTransform="translate(-123.811 792.5052) rotate(31.9937)" xlink:href="#linear-gradient-23"></linearGradient><linearGradient id="linear-gradient-39" x1="375.5905" y1="-992.1781" x2="382.3019" y2="-992.1781" gradientTransform="translate(-123.811 792.5052) rotate(31.9937)" xlink:href="#linear-gradient-23"></linearGradient><linearGradient id="linear-gradient-40" x1="383.3022" y1="-992.2499" x2="392.8904" y2="-992.2499" gradientTransform="translate(-123.811 792.5052) rotate(31.9937)" xlink:href="#linear-gradient-23"></linearGradient><linearGradient id="linear-gradient-41" x1="392.2448" y1="-992.3679" x2="400.3503" y2="-992.3679" gradientTransform="translate(-123.811 792.5052) rotate(31.9937)" xlink:href="#linear-gradient-23"></linearGradient><linearGradient id="linear-gradient-42" x1="405.6836" y1="-992.4651" x2="414.7703" y2="-992.4651" gradientTransform="translate(-123.811 792.5052) rotate(31.9937)" xlink:href="#linear-gradient-23"></linearGradient><linearGradient id="linear-gradient-43" x1="416.446" y1="-992.5878" x2="423.1574" y2="-992.5878" gradientTransform="translate(-123.811 792.5052) rotate(31.9937)" xlink:href="#linear-gradient-23"></linearGradient><linearGradient id="linear-gradient-44" x1="424.1577" y1="-992.6596" x2="433.746" y2="-992.6596" gradientTransform="translate(-123.811 792.5052) rotate(31.9937)" xlink:href="#linear-gradient-23"></linearGradient><linearGradient id="linear-gradient-45" x1="434.9751" y1="-992.7496" x2="441.3956" y2="-992.7496" gradientTransform="translate(-123.811 792.5052) rotate(31.9937)" xlink:href="#linear-gradient-23"></linearGradient><linearGradient id="linear-gradient-46" x1="442.8535" y1="-992.7412" x2="445.2107" y2="-992.7412" gradientTransform="translate(-123.811 792.5052) rotate(31.9937)" xlink:href="#linear-gradient-23"></linearGradient></defs><title>Artboard 1 copy</title><g id="Layer_1" data-name="Layer 1"><path class="cls-3" d="M1294.9428,379.3664s-63.1611,64.3751-176.0586,34.9423S952.799,272.3573,854.4121,268.8422C722.9974,264.1475,600.24,404.0813,505.285,294.8308s-158.6172,90.9736-266.0761,1.2108S.66,360.2544-11.1747,246.1507s-118.1992-78.7295-118.1992-78.7295"></path><path class="cls-4" d="M1296.1169,371.4558s-63.1611,64.3752-176.0586,34.9423S953.976,264.4474,855.59,260.9326c-131.4146-4.6947-254.1736,135.2388-349.128,25.9883s-158.6172,90.9736-266.0761,1.2108S1.837,352.3446-9.9975,238.2409s-118.1994-78.7295-118.1994-78.7295"></path><path class="cls-5" d="M1297.5917,361.57s-63.1608,64.3742-176.0585,34.9423S955.447,254.5605,857.061,251.0457C725.6464,246.351,602.8875,386.2845,507.9331,277.034s-158.6173,90.9736-266.0762,1.2108S3.3082,342.4577-8.5264,228.354s-118.1995-78.7295-118.1995-78.7295"></path><path class="cls-6" d="M1736.2685,209.3821s-45.4988-77.8734-162.1628-76.96-195.7715,96.9965-292.0192,76.3321c-128.574-27.6047-213.36-193.3225-332.16-110.6276S818.3913-28.8938,692.2348,31.8468,476.6491-88.7848,437.2542,18.9545"></path><path class="cls-7" d="M1735.4747,217.3387s-45.4987-77.8734-162.1627-76.96-195.7715,96.9963-292.0292,76.3306c-128.564-27.6033-213.3509-193.3212-332.151-110.6262S817.5965-20.9373,691.44,39.8032,475.8553-80.8282,436.4605,26.9111"></path><path class="cls-8" d="M1734.48,227.2851s-45.4888-77.8721-162.1628-76.96c-116.664.9129-195.7716,96.9971-292.0192,76.3317-128.572-27.6034-213.3589-193.322-332.159-110.627S816.6037-10.9906,690.4473,49.75,474.8625-70.8815,435.4677,36.8577"></path></g><g id="kalukator"><g class="cls-9"><path class="cls-10" d="M728.703,102.874c31.4886,57.7362,95.069,19.2951,111.0779,72.2395S758.1287,320.9391,693.6416,286.8223c-29.1833-15.44-58.8278-42.7255-70.5123-106.8295C611.0293,113.6046,689.3421,30.7038,728.703,102.874Z"></path><g class="cls-11"><path class="cls-12" d="M721.7516,291.0125l-91.4007-55.8154a10.3647,10.3647,0,0,1-3.4451-14.2472l67.4295-110.4175a10.3648,10.3648,0,0,1,14.248-3.4431l91.4,55.8158a10.3647,10.3647,0,0,1,3.4447,14.2475L736,287.5692A10.3649,10.3649,0,0,1,721.7516,291.0125Z"></path><path class="cls-13" d="M773.9576,199.9617,687.505,147.1673a4.328,4.328,0,0,1-1.4374-5.95l13.0094-21.3031a4.3275,4.3275,0,0,1,5.9489-1.438l86.4526,52.7945a4.3281,4.3281,0,0,1,1.438,5.9492l-13.0093,21.303A4.3279,4.3279,0,0,1,773.9576,199.9617Z"></path><path class="cls-14" d="M773.278,197.0712l-82.891-50.62a3.9559,3.9559,0,0,1-1.3152-5.438L700.2677,122.68a3.9559,3.9559,0,0,1,5.4384-1.3137l82.8911,50.62a3.9548,3.9548,0,0,1,1.3144,5.4373l-11.1961,18.3337A3.955,3.955,0,0,1,773.278,197.0712Z"></path><path class="cls-15" d="M641.2361,197.4843l-14.33,23.4656a10.3663,10.3663,0,0,0,3.4451,14.2472l91.4007,55.8154A10.3635,10.3635,0,0,0,736,287.5692l14.3291-23.4646Z"></path><path class="cls-16" d="M682.0425,198.51l-16.4142-10.0238a6.5024,6.5024,0,0,1-2.1606-8.9385l10.0237-16.4141a6.5028,6.5028,0,0,1,8.9392-2.1618l16.4143,10.0239a6.5035,6.5035,0,0,1,2.161,8.94L690.982,196.35A6.5032,6.5032,0,0,1,682.0425,198.51Z"></path><path class="cls-17" d="M682.0671,196.1565l-14.355-8.7662a5.6885,5.6885,0,0,1-1.8906-7.8184l8.7668-14.3557a5.6884,5.6884,0,0,1,7.8187-1.8891l14.3547,8.7662a5.6873,5.6873,0,0,1,1.89,7.8177l-8.7667,14.3558A5.6874,5.6874,0,0,1,682.0671,196.1565Z"></path><path class="cls-18" d="M661.538,232.0871l-16.4135-10.0242a6.5007,6.5007,0,0,1-2.1609-8.9385L652.987,196.71a6.5026,6.5026,0,0,1,8.9391-2.161L678.34,204.5728a6.5035,6.5035,0,0,1,2.1622,8.9387L670.4779,229.927A6.5032,6.5032,0,0,1,661.538,232.0871Z"></path><path class="cls-19" d="M661.5619,229.7336l-14.3535-8.7673a5.6865,5.6865,0,0,1-1.8911-7.8179l8.7658-14.3546a5.6876,5.6876,0,0,1,7.8187-1.8889l14.3551,8.7659a5.6867,5.6867,0,0,1,1.89,7.8173L669.38,227.8439A5.6874,5.6874,0,0,1,661.5619,229.7336Z"></path><path class="cls-20" d="M714.617,218.4027l-16.4142-10.0239a6.5022,6.5022,0,0,1-2.16-8.9386l10.0235-16.4142a6.503,6.503,0,0,1,8.9394-2.1616L731.42,190.8882a6.5031,6.5031,0,0,1,2.1609,8.94l-10.0237,16.4141A6.5028,6.5028,0,0,1,714.617,218.4027Z"></path><path class="cls-21" d="M714.6412,216.0489l-14.3548-8.7662a5.6873,5.6873,0,0,1-1.89-7.8177l8.7667-14.3559a5.6874,5.6874,0,0,1,7.8178-1.8895l14.3549,8.7661a5.6873,5.6873,0,0,1,1.89,7.8177l-8.7667,14.3558A5.6876,5.6876,0,0,1,714.6412,216.0489Z"></path><path class="cls-22" d="M694.1125,251.9794l-16.415-10.0231a6.5034,6.5034,0,0,1-2.1607-8.9384l10.0246-16.4154a6.5024,6.5024,0,0,1,8.9387-2.1607l16.4142,10.0238a6.5026,6.5026,0,0,1,2.1616,8.9391L703.0509,249.82A6.5011,6.5011,0,0,1,694.1125,251.9794Z"></path><path class="cls-23" d="M694.1363,249.6258,679.7814,240.86a5.6878,5.6878,0,0,1-1.8891-7.8183l8.7659-14.3545a5.6867,5.6867,0,0,1,7.8179-1.89l14.3548,8.7663a5.6865,5.6865,0,0,1,1.89,7.8176L701.954,247.736A5.6874,5.6874,0,0,1,694.1363,249.6258Z"></path><path class="cls-24" d="M763.9941,210.7814,747.58,200.7576a6.5034,6.5034,0,0,0-8.94,2.161L708.111,252.91a6.5046,6.5046,0,0,0,2.1616,8.9394l16.4154,10.0235a6.5027,6.5027,0,0,0,8.9378-2.16l30.5283-49.9916A6.5032,6.5032,0,0,0,763.9941,210.7814Z"></path><path class="cls-25" d="M761.91,211.8783l-14.3549-8.7661a5.6865,5.6865,0,0,0-7.8176,1.89l-29.2707,47.9316a5.6879,5.6879,0,0,0,1.8891,7.8183l14.3548,8.7661a5.6889,5.6889,0,0,0,7.8186-1.8892L763.8,219.6961A5.6869,5.6869,0,0,0,761.91,211.8783Z"></path><path class="cls-26" d="M750.7753,235.0859c-.0036-.0212-.0036-.0432-.0068-.0622a2.3337,2.3337,0,0,0-1.0508-1.7408l-15.6968-9.5856a2.1637,2.1637,0,0,0-2.0586-.1581,3.799,3.799,0,0,0-1.7871,1.6126,3.6055,3.6055,0,0,0-.6187,2.3272l8.3062,34.316c.0028.0219.0024.0443.0044.0669.0107.0807.0246.1561.04.2325l13.9014-22.7628Z"></path><path class="cls-27" d="M743.1437,247.581c-.0028-.0219-.0024-.0418-.0061-.0628a2.333,2.333,0,0,0-1.0509-1.7392L726.39,236.1931a2.1656,2.1656,0,0,0-2.0579-.1591,3.8044,3.8044,0,0,0-1.7878,1.6136,3.6058,3.6058,0,0,0-.6188,2.3273l8.3066,34.3168.0042.0671a2.2547,2.2547,0,0,0,.0417.2312l13.9-22.7619Z"></path><path class="cls-28" d="M730.1752,225.1518a3.799,3.799,0,0,1,1.7871-1.6126,2.1637,2.1637,0,0,1,2.0586.1581l15.6968,9.5856a2.33,2.33,0,0,1,1.0508,1.7408,3.4586,3.4586,0,0,1-.5264,2.3826,3.2984,3.2984,0,0,1-1.88,1.5574,2.4,2.4,0,0,1-1.99-.2018l-15.6974-9.5863a2.2264,2.2264,0,0,1-1.119-1.6966A3.6077,3.6077,0,0,1,730.1752,225.1518Z"></path><path class="cls-29" d="M661.5618,229.7335a5.6876,5.6876,0,0,0,7.8179-1.89l3.63-5.9438-4.0418-16.78a2.745,2.745,0,0,0-1.2789-1.4991,2.8786,2.8786,0,0,0-1.9179-.452,1.8058,1.8058,0,0,0-1.3966.8261l-3.5083,5.7446-5.7926-3.5378a1.6991,1.6991,0,0,0-1.62-.0986,3.0794,3.0794,0,0,0-1.4515,1.3085,2.92,2.92,0,0,0-.5009,1.888,1.9367,1.9367,0,0,0,.1374.5224c.0012.0175-.0016.0335.0006.0495l3.9232,16.1974Z"></path><path class="cls-30" d="M655.8246,223.0486a3.0807,3.0807,0,0,1-1.3085-1.4505,1.7006,1.7006,0,0,1,.0982-1.6213l3.5366-5.792-5.7927-3.5378a1.7469,1.7469,0,0,1-.8571-1.3476,2.92,2.92,0,0,1,.5009-1.888,3.0794,3.0794,0,0,1,1.4515-1.3085,1.7034,1.7034,0,0,1,1.62.0986l5.7926,3.5378,3.5083-5.7446a1.8025,1.8025,0,0,1,1.3966-.8261,2.8786,2.8786,0,0,1,1.9179.452,2.745,2.745,0,0,1,1.2789,1.4991,1.8589,1.8589,0,0,1-.1485,1.59l-3.5083,5.7446,5.7452,3.5068a1.8142,1.8142,0,0,1,.8261,1.3974,2.8864,2.8864,0,0,1-.452,1.9178,2.7392,2.7392,0,0,1-1.499,1.2774,1.8566,1.8566,0,0,1-1.59-.1471l-5.7438-3.508-3.5379,5.7932a1.7439,1.7439,0,0,1-1.3463.8576A2.927,2.927,0,0,1,655.8246,223.0486Z"></path><path class="cls-31" d="M701.9554,247.7347l5.4249-8.8838-2.0037-8.2858a2.8839,2.8839,0,0,0-1.0365-1.6757,1.8025,1.8025,0,0,0-1.572-.403l-6.5426,1.5814-.0208-.0829-1.4682-6.0813-.1057-.4335a1.7019,1.7019,0,0,0-1.0762-1.2153,3.0823,3.0823,0,0,0-1.95-.1,2.9292,2.9292,0,0,0-1.6907.98,1.7488,1.7488,0,0,0-.3452,1.5586l1.5959,6.5982-6.5988,1.5942a1.7071,1.7071,0,0,0-1.2158,1.0763,3.1059,3.1059,0,0,0-.1013,1.9521l2.0106,8.29,8.8774,5.4214A5.6886,5.6886,0,0,0,701.9554,247.7347Z"></path><path class="cls-32" d="M683.2484,235.9141a3.0819,3.0819,0,0,1,.1014-1.952,1.7034,1.7034,0,0,1,1.2143-1.0752l6.5988-1.5942-1.5947-6.6a1.7477,1.7477,0,0,1,.3451-1.5587,2.9318,2.9318,0,0,1,1.6907-.98,3.0757,3.0757,0,0,1,1.95.1,1.7007,1.7007,0,0,1,1.0765,1.2143l1.5946,6.5985,6.5423-1.5813a1.8047,1.8047,0,0,1,1.572.4031,2.8788,2.8788,0,0,1,1.0375,1.6763,2.7406,2.7406,0,0,1-.1585,1.9644,1.8519,1.8519,0,0,1-1.2273,1.0191L697.45,235.131l1.5811,6.5409a1.8086,1.8086,0,0,1-.4036,1.5725,2.8761,2.8761,0,0,1-1.6758,1.0371,2.7381,2.7381,0,0,1-1.9645-.1561,1.86,1.86,0,0,1-1.0193-1.2292l-1.5818-6.5418-6.598,1.595a1.7486,1.7486,0,0,1-1.5587-.3458A2.9464,2.9464,0,0,1,683.2484,235.9141Z"></path><path class="cls-33" d="M682.0671,196.1565a5.6876,5.6876,0,0,0,7.8179-1.89l2.6936-4.4109-1.6888-6.9865,0-.004a1.8923,1.8923,0,0,0-.8527-1.4118l-12.9856-7.93a1.7032,1.7032,0,0,0-1.62-.0984,3.0838,3.0838,0,0,0-1.45,1.3086,2.9256,2.9256,0,0,0-.5019,1.8874,2.0313,2.0313,0,0,0,.1115.4613l.0009.0031,3.94,16.3014Z"></path><path class="cls-34" d="M673.9814,174.7339a3.0838,3.0838,0,0,1,1.45-1.3086,1.7032,1.7032,0,0,1,1.62.0984l12.9856,7.93a1.8868,1.8868,0,0,1,.8527,1.4118,2.8045,2.8045,0,0,1-.4266,1.9334,2.6627,2.6627,0,0,1-1.525,1.2625,1.947,1.947,0,0,1-1.6157-.1625l-12.9855-7.93a1.7471,1.7471,0,0,1-.8573-1.3475A2.9256,2.9256,0,0,1,673.9814,174.7339Z"></path><path class="cls-35" d="M726.0922,208.21l-3.632,5.9473a5.7008,5.7008,0,0,1-1.0395,1.2586l-5.2813-21.8492a3.1253,3.1253,0,1,1,6.0562-1.4637Z"></path><path class="cls-36" d="M714.6409,216.0492a5.6875,5.6875,0,0,0,7.8177-1.89l2.6937-4.4111-1.6888-6.9865v-.004a1.8932,1.8932,0,0,0-.8528-1.4118l-12.9856-7.93a1.7051,1.7051,0,0,0-1.62-.0984,3.0854,3.0854,0,0,0-1.45,1.3086,2.9256,2.9256,0,0,0-.5019,1.8874,2.0316,2.0316,0,0,0,.1126.4619l0,.0025,3.94,16.3014Z"></path><path class="cls-37" d="M716.141,216.6911a5.6522,5.6522,0,0,1-1.4987-.6442l-5.9444-3.63-1.1548-4.7738a3.1253,3.1253,0,1,1,6.0561-1.4638Z"></path><path class="cls-38" d="M723.4634,202.7579a1.8919,1.8919,0,0,0-.8528-1.4118l-12.9856-7.93a1.7051,1.7051,0,0,0-1.62-.0984,3.0854,3.0854,0,0,0-1.45,1.3086,2.9256,2.9256,0,0,0-.5019,1.8874,1.7473,1.7473,0,0,0,.8578,1.3465l12.9856,7.93a1.9431,1.9431,0,0,0,1.6149.1636,2.663,2.663,0,0,0,1.5252-1.2626A2.8052,2.8052,0,0,0,723.4634,202.7579Z"></path><path class="cls-39" d="M721.7785,194.2267a3.1282,3.1282,0,1,1-1.04-4.3A3.1274,3.1274,0,0,1,721.7785,194.2267Z"></path><path class="cls-40" d="M713.1827,208.3027a3.1282,3.1282,0,1,1-1.0394-4.3008A3.1279,3.1279,0,0,1,713.1827,208.3027Z"></path><path class="cls-41" d="M722.5442,237.6476a3.7984,3.7984,0,0,1,1.7872-1.6126,2.1638,2.1638,0,0,1,2.0585.1581l15.6968,9.5859a2.3265,2.3265,0,0,1,1.05,1.74,3.4584,3.4584,0,0,1-.5262,2.3826,3.2806,3.2806,0,0,1-1.88,1.5574,2.3963,2.3963,0,0,1-1.99-.2019l-15.6968-9.5856a2.2231,2.2231,0,0,1-1.1191-1.6965A3.6058,3.6058,0,0,1,722.5442,237.6476Z"></path></g></g><path class="cls-42" d="M703.5166,139.8442c-1.2368,2.0234-.7435,3.8414.932,4.8652,1.5773.9634,3.0629.6775,3.9515-.775l.023-.0369-2.7445-1.6759.8575-1.4028,4.2216,2.5787-3.1171,5.1035-1.3412-.8191.5372-1.1043a3.9565,3.9565,0,0,1-3.4766-.504c-2.5441-1.5549-3.191-4.4895-1.4839-7.2825a5.1616,5.1616,0,0,1,7.4148-1.95c2.0725,1.2654,2.9378,3.4487,2.0692,5.4584l-1.677-1.0246a2.5478,2.5478,0,0,0-1.34-2.967C706.5419,137.2076,704.7149,137.8825,703.5166,139.8442Z"></path><path class="cls-43" d="M709.3512,149.5455l5.5448-9.0764,3.4632,2.1154c2.0615,1.26,2.6279,3.0377,1.5357,4.8262a2.96,2.96,0,0,1-3.1785,1.5193l-.5494,4.7794-1.7376-1.0615.5307-4.331-1.95-1.1908-2.07,3.39Zm4.5168-3.8223,1.874,1.1446a1.6426,1.6426,0,0,0,2.4894-.4733,1.6206,1.6206,0,0,0-.7373-2.3951l-1.8739-1.1445Z"></path><path class="cls-44" d="M717.6671,154.6256l5.5448-9.0765,5.6369,3.4431-.8961,1.4646-4.0461-2.4713-1.4265,2.3336,3.6251,2.2146-.8575,1.4028-3.6252-2.2145-1.4715,2.409,4.0477,2.4722-.8946,1.4655Z"></path><path class="cls-45" d="M724.1576,158.59l8.8231-7.0734,1.6274.9937L732.34,163.5893l-1.6755-1.0237.5491-2.5461-3.39-2.0719L725.8106,159.6Zm4.9573-1.6953,2.4579,1.502.7477-3.5669a5.7846,5.7846,0,0,1,.2378-.8092,7.6533,7.6533,0,0,1-.6227.575Z"></path><path class="cls-46" d="M737.4249,154.2317l6.9024,4.2159-.8946,1.4655-2.6578-1.6239-4.6487,7.612-1.59-.97,4.65-7.611-2.6578-1.6238Z"></path><path class="cls-47" d="M743.349,170.314l5.5448-9.0764,3.1786,1.9418a5.0694,5.0694,0,0,1,1.7464,7.3241,5.01,5.01,0,0,1-7.205,1.8052Zm6.238-6.641-3.7541,6.1465,1.5277.9323a3.2386,3.2386,0,0,0,4.7827-1.272,3.2927,3.2927,0,0,0-1.1154-4.9265Z"></path><path class="cls-48" d="M752.534,175.9245l5.5447-9.0765,5.637,3.4431-.8961,1.4645-4.0477-2.4721-1.4249,2.3345,3.6251,2.2145-.8575,1.4029-3.6252-2.2145-1.4715,2.409,4.0477,2.4722-.8946,1.4655Z"></path><path class="cls-49" d="M759.0245,179.8893l8.8231-7.0734,1.6274.9937-2.2679,11.0786-1.6755-1.0238.5491-2.546-3.39-2.0719-2.0131,1.6524Zm4.9572-1.6953,2.4579,1.502.7478-3.5669a5.79,5.79,0,0,1,.2378-.8093,7.6512,7.6512,0,0,1-.6227.5751Z"></path><path class="cls-50" d="M770.8312,185.0892l3.7991,2.321-.8946,1.4655-5.3889-3.2912,5.5448-9.0765,1.59.97Z"></path><path class="cls-51" d="M775.4885,188.8216a1.179,1.179,0,1,1,.419,1.6023A1.1839,1.1839,0,0,1,775.4885,188.8216Zm1.5583-1.6574a35.4069,35.4069,0,0,1,2.3356-4.4383l1.2753-2.085,1.7878,1.0917-1.2754,2.0851a31.9861,31.9861,0,0,1-2.9064,4.09Z"></path></g></svg> 