<?xml version="1.0" encoding="UTF-8"?> <svg xmlns="http://www.w3.org/2000/svg" xmlns:xlink="http://www.w3.org/1999/xlink" width="767" height="601" viewBox="0 0 767 601"><defs><style>.cls-1{fill:#f4f5f8;}.cls-2,.cls-3,.cls-4,.cls-5,.cls-6,.cls-7,.cls-8{fill:none;}.cls-3{stroke:url(#linear-gradient);}.cls-4{stroke:url(#linear-gradient-2);}.cls-5{stroke:url(#linear-gradient-3);}.cls-6{stroke:url(#linear-gradient-4);}.cls-7{stroke:url(#linear-gradient-5);}.cls-8{stroke:url(#linear-gradient-6);}.cls-9{mask:url(#mask);}.cls-10{fill:#6b11c9;}.cls-11{clip-path:url(#clip-path);}.cls-12{fill:url(#linear-gradient-7);}.cls-13{fill:url(#linear-gradient-8);}.cls-14{fill:url(#linear-gradient-9);}.cls-15{fill:url(#linear-gradient-10);}.cls-16{fill:url(#linear-gradient-11);}.cls-17{fill:url(#linear-gradient-12);}.cls-18{fill:url(#linear-gradient-13);}.cls-19{fill:url(#linear-gradient-14);}.cls-20{fill:url(#linear-gradient-15);}.cls-21{fill:url(#linear-gradient-16);}.cls-22{fill:url(#linear-gradient-17);}.cls-23{fill:url(#linear-gradient-18);}.cls-24{fill:url(#linear-gradient-19);}.cls-25{fill:url(#linear-gradient-20);}.cls-26{fill:url(#linear-gradient-21);}.cls-27{fill:url(#linear-gradient-22);}.cls-28{fill:url(#linear-gradient-23);}.cls-29{fill:url(#linear-gradient-24);}.cls-30{fill:url(#linear-gradient-25);}.cls-31{fill:url(#linear-gradient-26);}.cls-32{fill:url(#linear-gradient-27);}.cls-33{fill:url(#linear-gradient-28);}.cls-34{fill:url(#linear-gradient-29);}.cls-35{fill:url(#linear-gradient-30);}.cls-36{fill:url(#linear-gradient-31);}.cls-37{fill:url(#linear-gradient-32);}.cls-38{fill:url(#linear-gradient-33);}.cls-39{fill:url(#linear-gradient-34);}.cls-40{fill:url(#linear-gradient-35);}.cls-41{fill:url(#linear-gradient-36);}.cls-42{fill:url(#linear-gradient-37);}.cls-43{fill:url(#linear-gradient-38);}.cls-44{fill:url(#linear-gradient-39);}.cls-45{fill:url(#linear-gradient-40);}.cls-46{fill:url(#linear-gradient-41);}.cls-47{fill:url(#linear-gradient-42);}.cls-48{fill:url(#linear-gradient-43);}.cls-49{fill:url(#linear-gradient-44);}.cls-50{fill:url(#linear-gradient-45);}.cls-51{fill:url(#linear-gradient-46);}</style><linearGradient id="linear-gradient" x1="701.2829" y1="292.3376" x2="714.7699" y2="148.5886" gradientTransform="matrix(1, 0, 0, -1, 0, 599.5)" gradientUnits="userSpaceOnUse"><stop offset="0" stop-color="#6b11c9"></stop><stop offset="1" stop-color="#f5f5f5"></stop></linearGradient><linearGradient id="linear-gradient-2" x1="700.5344" y1="300.2994" x2="714.0214" y2="156.5504" gradientTransform="matrix(1, 0, 0, -1, 0, 599.5)" gradientUnits="userSpaceOnUse"><stop offset="0" stop-color="#e21284"></stop><stop offset="1" stop-color="#f5f5f5"></stop></linearGradient><linearGradient id="linear-gradient-3" x1="699.6029" y1="310.2516" x2="713.0899" y2="166.5026" xlink:href="#linear-gradient"></linearGradient><linearGradient id="linear-gradient-4" x1="491.9799" y1="390.2016" x2="488.6649" y2="496.336" xlink:href="#linear-gradient"></linearGradient><linearGradient id="linear-gradient-5" x1="492.163" y1="384.3226" x2="488.848" y2="490.4575" xlink:href="#linear-gradient-2"></linearGradient><linearGradient id="linear-gradient-6" x1="492.393" y1="376.9756" x2="489.078" y2="483.1099" xlink:href="#linear-gradient"></linearGradient><mask id="mask" x="167.5576" y="353.9437" width="189.8227" height="190.9504" maskUnits="userSpaceOnUse"><g id="mask0_1506_15265" data-name="mask0 1506 15265"><rect class="cls-1" x="198.8064" y="378.2667" width="127.325" height="142.3044" transform="translate(-233.1611 290.6165) rotate(-41.9486)"></rect></g></mask><clipPath id="clip-path"><rect class="cls-2" x="212.1952" y="416.6459" width="77.3768" height="77.3768" transform="translate(-268.4756 432.139) rotate(-58.5886)"></rect></clipPath><linearGradient id="linear-gradient-7" x1="414.449" y1="157.9023" x2="454.2713" y2="169.804" gradientTransform="matrix(0.6685, 0.7437, 0.7437, -0.6685, -147.3245, 250.367)" gradientUnits="userSpaceOnUse"><stop offset="0" stop-color="#ff489c"></stop><stop offset="1" stop-color="#e8236f"></stop></linearGradient><linearGradient id="linear-gradient-8" x1="438.7782" y1="167.6092" x2="386.9894" y2="195.5646" gradientTransform="matrix(0.6685, 0.7437, 0.7437, -0.6685, -147.3245, 250.367)" gradientUnits="userSpaceOnUse"><stop offset="0" stop-color="#d665c6"></stop><stop offset="1" stop-color="#cf5ec1"></stop></linearGradient><linearGradient id="linear-gradient-9" x1="411.8109" y1="182.1353" x2="428.9899" y2="165.1824" gradientTransform="matrix(0.6685, 0.7437, 0.7437, -0.6685, -147.3245, 250.367)" gradientUnits="userSpaceOnUse"><stop offset="0" stop-color="#fff"></stop><stop offset="0.2282" stop-color="#f2f2f2"></stop><stop offset="0.5158" stop-color="#ededed"></stop><stop offset="0.7118" stop-color="#e7e7e7"></stop><stop offset="1" stop-color="#fff"></stop></linearGradient><linearGradient id="linear-gradient-10" x1="426.7093" y1="132.1241" x2="430.7763" y2="118.5162" gradientTransform="matrix(0.6685, 0.7437, 0.7437, -0.6685, -147.3245, 250.367)" gradientUnits="userSpaceOnUse"><stop offset="0" stop-color="#ed2675" stop-opacity="0"></stop><stop offset="1" stop-color="#ec2775"></stop></linearGradient><linearGradient id="linear-gradient-11" x1="414.9984" y1="145.0206" x2="386.3102" y2="160.5064" gradientTransform="matrix(0.6685, 0.7437, 0.7437, -0.6685, -147.3245, 250.367)" gradientUnits="userSpaceOnUse"><stop offset="0" stop-color="#d766c6"></stop><stop offset="1" stop-color="#b746af"></stop></linearGradient><linearGradient id="linear-gradient-12" x1="395.9453" y1="155.3053" x2="410.9918" y2="147.1833" gradientTransform="matrix(0.6685, 0.7437, 0.7437, -0.6685, -147.3245, 250.367)" gradientUnits="userSpaceOnUse"><stop offset="0" stop-color="#ffe548"></stop><stop offset="1" stop-color="#ffb211"></stop></linearGradient><linearGradient id="linear-gradient-13" x1="420.8059" y1="125.5895" x2="392.1177" y2="141.0755" gradientTransform="matrix(0.6685, 0.7437, 0.7437, -0.6685, -147.3245, 250.367)" gradientUnits="userSpaceOnUse"><stop offset="0" stop-color="#d666c6"></stop><stop offset="1" stop-color="#b948b0"></stop></linearGradient><linearGradient id="linear-gradient-14" x1="401.7531" y1="135.874" x2="416.7996" y2="127.7523" gradientTransform="matrix(0.6685, 0.7437, 0.7437, -0.6685, -147.3245, 250.367)" gradientUnits="userSpaceOnUse"><stop offset="0" stop-color="#fff458"></stop><stop offset="1" stop-color="#ffcb39"></stop></linearGradient><linearGradient id="linear-gradient-15" x1="433.8494" y1="150.6548" x2="405.1612" y2="166.1406" gradientTransform="matrix(0.6685, 0.7437, 0.7437, -0.6685, -147.3245, 250.367)" gradientUnits="userSpaceOnUse"><stop offset="0" stop-color="#d767c7"></stop><stop offset="1" stop-color="#b848b0"></stop></linearGradient><linearGradient id="linear-gradient-16" x1="414.7963" y1="160.9394" x2="429.8429" y2="152.8174" gradientTransform="matrix(0.6685, 0.7437, 0.7437, -0.6685, -147.3245, 250.367)" gradientUnits="userSpaceOnUse"><stop offset="0" stop-color="#fff858"></stop><stop offset="1" stop-color="#f19b4e"></stop></linearGradient><linearGradient id="linear-gradient-17" x1="439.6567" y1="131.2235" x2="410.9686" y2="146.7092" gradientTransform="matrix(0.6685, 0.7437, 0.7437, -0.6685, -147.3245, 250.367)" gradientUnits="userSpaceOnUse"><stop offset="0" stop-color="#d766c6"></stop><stop offset="1" stop-color="#b544ad"></stop></linearGradient><linearGradient id="linear-gradient-18" x1="420.6038" y1="141.508" x2="435.6505" y2="133.3864" gradientTransform="matrix(0.6685, 0.7437, 0.7437, -0.6685, -147.3245, 250.367)" gradientUnits="userSpaceOnUse"><stop offset="0" stop-color="#fffe50"></stop><stop offset="1" stop-color="#ffb211"></stop><stop offset="1" stop-color="#f59150"></stop></linearGradient><linearGradient id="linear-gradient-19" x1="466.064" y1="140.9265" x2="417.5257" y2="167.1277" gradientTransform="matrix(0.6685, 0.7437, 0.7437, -0.6685, -147.3245, 250.367)" gradientUnits="userSpaceOnUse"><stop offset="0" stop-color="#d666c6"></stop><stop offset="1" stop-color="#ba49b1"></stop></linearGradient><linearGradient id="linear-gradient-20" x1="432.0798" y1="157.0484" x2="456.2346" y2="150.3965" gradientTransform="matrix(0.6685, 0.7437, 0.7437, -0.6685, -147.3245, 250.367)" gradientUnits="userSpaceOnUse"><stop offset="0" stop-color="#ffde35"></stop><stop offset="1" stop-color="#ffbe2c"></stop></linearGradient><linearGradient id="linear-gradient-21" x1="443.9334" y1="152.9968" x2="437.1527" y2="161.2376" gradientTransform="matrix(0.6685, 0.7437, 0.7437, -0.6685, -147.3245, 250.367)" gradientUnits="userSpaceOnUse"><stop offset="0" stop-color="#ffb211" stop-opacity="0"></stop><stop offset="1" stop-color="#ff4b3e"></stop></linearGradient><linearGradient id="linear-gradient-22" x1="446.0945" y1="145.7657" x2="439.314" y2="154.0065" xlink:href="#linear-gradient-21"></linearGradient><linearGradient id="linear-gradient-23" x1="433.804" y1="155.9301" x2="445.4169" y2="159.4009" gradientTransform="matrix(0.6685, 0.7437, 0.7437, -0.6685, -147.3245, 250.367)" gradientUnits="userSpaceOnUse"><stop offset="0" stop-color="#d767c7"></stop><stop offset="0.3227" stop-color="#d363c4"></stop><stop offset="0.665" stop-color="#c656bb"></stop><stop offset="1" stop-color="#b342ac"></stop></linearGradient><linearGradient id="linear-gradient-24" x1="411.7139" y1="130.4812" x2="399.5591" y2="137.0422" xlink:href="#linear-gradient-21"></linearGradient><linearGradient id="linear-gradient-25" x1="400.0668" y1="132.0691" x2="411.31" y2="135.4292" xlink:href="#linear-gradient-23"></linearGradient><linearGradient id="linear-gradient-26" x1="432.2943" y1="135.1974" x2="419.9221" y2="141.876" xlink:href="#linear-gradient-21"></linearGradient><linearGradient id="linear-gradient-27" x1="420.0889" y1="138.0456" x2="428.9693" y2="140.6998" xlink:href="#linear-gradient-23"></linearGradient><linearGradient id="linear-gradient-28" x1="408.2835" y1="148.6141" x2="393.9051" y2="156.3755" xlink:href="#linear-gradient-21"></linearGradient><linearGradient id="linear-gradient-29" x1="395.1124" y1="151.7555" x2="404.6503" y2="154.6062" xlink:href="#linear-gradient-23"></linearGradient><linearGradient id="linear-gradient-30" x1="421.4141" y1="160.7834" x2="415.6966" y2="163.8696" xlink:href="#linear-gradient-21"></linearGradient><linearGradient id="linear-gradient-31" x1="427.1344" y1="154.2479" x2="412.7561" y2="162.0092" xlink:href="#linear-gradient-21"></linearGradient><linearGradient id="linear-gradient-32" x1="423.5914" y1="152.776" x2="419.1698" y2="155.1628" xlink:href="#linear-gradient-21"></linearGradient><linearGradient id="linear-gradient-33" x1="413.963" y1="157.3896" x2="423.501" y2="160.2402" xlink:href="#linear-gradient-23"></linearGradient><linearGradient id="linear-gradient-34" x1="415.9698" y1="162.4258" x2="419.0598" y2="163.3494" xlink:href="#linear-gradient-23"></linearGradient><linearGradient id="linear-gradient-35" x1="418.4043" y1="154.2804" x2="421.4943" y2="155.2038" xlink:href="#linear-gradient-23"></linearGradient><linearGradient id="linear-gradient-36" x1="435.9653" y1="148.6988" x2="447.5777" y2="152.1694" xlink:href="#linear-gradient-23"></linearGradient><linearGradient id="linear-gradient-37" x1="338.4901" y1="507.7958" x2="343.6623" y2="507.7958" gradientTransform="translate(226.027 -185.7761) rotate(31.9937)" xlink:href="#linear-gradient-23"></linearGradient><linearGradient id="linear-gradient-38" x1="344.6406" y1="507.7537" x2="348.8124" y2="507.7537" gradientTransform="translate(226.027 -185.7761) rotate(31.9937)" xlink:href="#linear-gradient-23"></linearGradient><linearGradient id="linear-gradient-39" x1="349.6636" y1="507.6969" x2="353.1232" y2="507.6969" gradientTransform="translate(226.027 -185.7761) rotate(31.9937)" xlink:href="#linear-gradient-23"></linearGradient><linearGradient id="linear-gradient-40" x1="353.6388" y1="507.6598" x2="358.5814" y2="507.6598" gradientTransform="translate(226.027 -185.7761) rotate(31.9937)" xlink:href="#linear-gradient-23"></linearGradient><linearGradient id="linear-gradient-41" x1="358.2486" y1="507.599" x2="362.4268" y2="507.599" gradientTransform="translate(226.027 -185.7761) rotate(31.9937)" xlink:href="#linear-gradient-23"></linearGradient><linearGradient id="linear-gradient-42" x1="365.176" y1="507.5489" x2="369.86" y2="507.5489" gradientTransform="translate(226.027 -185.7761) rotate(31.9937)" xlink:href="#linear-gradient-23"></linearGradient><linearGradient id="linear-gradient-43" x1="370.7238" y1="507.4857" x2="374.1834" y2="507.4857" gradientTransform="translate(226.027 -185.7761) rotate(31.9937)" xlink:href="#linear-gradient-23"></linearGradient><linearGradient id="linear-gradient-44" x1="374.6991" y1="507.4486" x2="379.6416" y2="507.4486" gradientTransform="translate(226.027 -185.7761) rotate(31.9937)" xlink:href="#linear-gradient-23"></linearGradient><linearGradient id="linear-gradient-45" x1="380.2752" y1="507.4022" x2="383.5849" y2="507.4022" gradientTransform="translate(226.027 -185.7761) rotate(31.9937)" xlink:href="#linear-gradient-23"></linearGradient><linearGradient id="linear-gradient-46" x1="384.3364" y1="507.4066" x2="385.5515" y2="507.4066" gradientTransform="translate(226.027 -185.7761) rotate(31.9937)" xlink:href="#linear-gradient-23"></linearGradient></defs><title>Artboard 1</title><g id="Layer_1" data-name="Layer 1"><path class="cls-3" d="M1422.28,285.015s-45.96,77.601-162.616,75.997c-116.66-1.605-195.191-98.156-291.567-78.062-128.73,26.841-214.498,192.054-332.805,108.656s-132.287,126.237-258.08,64.75-216.2966,119.351-255.0526,11.38-133.587-48.207-133.587-48.207"></path><path class="cls-4" d="M1421.53,277.053s-45.95,77.601-162.613,75.997c-116.66-1.604-195.191-98.156-291.567-78.061-128.73,26.841-214.498,192.053-332.805,108.655s-132.287,126.238-258.08,64.75S160.1676,567.746,121.4116,459.775s-133.587-48.207-133.587-48.207"></path><path class="cls-5" d="M1420.6,267.101s-45.96,77.601-162.6169,75.997c-116.66-1.604-195.19-98.156-291.567-78.061-128.73,26.84-214.497,192.053-332.805,108.655s-132.286,126.238-258.08,64.75-216.297,119.351-255.052,11.38-133.587-48.206-133.587-48.206"></path><path class="cls-6" d="M973.0246,160.9414s-40.636-52.4234-125.622-40.575-133.455,89.494-205.624,83.652c-96.397-7.805-174.107-120.5176-252.808-48.83s-108.09-80.0132-194.26-23.629S25.9455,64.2606,7.5464,146.5994"></path><path class="cls-7" d="M973.2075,166.8194s-40.6359-52.423-125.6209-40.5746-133.456,89.4946-205.625,83.6516c-96.397-7.804-174.107-120.5172-252.808-48.829s-108.09-80.0138-194.259-23.63S26.1286,70.139,7.73,152.4774"></path><path class="cls-8" d="M973.4376,174.1674s-40.636-52.4233-125.621-40.575-133.456,89.495-205.625,83.652c-96.397-7.805-174.107-120.5175-252.808-48.83s-108.09-80.0132-194.259-23.629S26.3586,77.4867,7.96,159.8254"></path></g><g id="Layer_3" data-name="Layer 3"><g class="cls-9"><path class="cls-10" d="M257.8612,405.7572c16.2318,29.7619,49.0062,9.9463,57.2585,37.2381s-42.09,75.17-75.3319,57.5837c-15.0435-7.959-30.3247-22.0242-36.3478-55.0685C197.2027,411.2886,237.5714,368.5549,257.8612,405.7572Z"></path><g class="cls-11"><path class="cls-12" d="M254.2779,502.739l-47.1153-28.7718a5.3428,5.3428,0,0,1-1.7758-7.3442l34.7585-56.9181A5.3428,5.3428,0,0,1,247.49,407.93l47.115,28.772a5.3428,5.3428,0,0,1,1.7756,7.3443l-34.758,56.9176A5.3431,5.3431,0,0,1,254.2779,502.739Z"></path><path class="cls-13" d="M281.1891,455.804,236.6244,428.59a2.2309,2.2309,0,0,1-.7409-3.0671l6.7061-10.9813a2.2308,2.2308,0,0,1,3.0665-.7413l44.5647,27.2145a2.2312,2.2312,0,0,1,.7412,3.0668l-6.706,10.9812A2.2309,2.2309,0,0,1,281.1891,455.804Z"></path><path class="cls-14" d="M280.8388,454.314,238.11,428.2206a2.0391,2.0391,0,0,1-.678-2.8032l5.7713-9.4507a2.0393,2.0393,0,0,1,2.8034-.6772l42.7287,26.0934a2.0386,2.0386,0,0,1,.6775,2.8029l-5.7713,9.4506A2.0386,2.0386,0,0,1,280.8388,454.314Z"></path><path class="cls-15" d="M212.7737,454.527l-7.3869,12.096a5.3436,5.3436,0,0,0,1.7758,7.3442l47.1153,28.7718a5.3423,5.3423,0,0,0,7.3446-1.775l7.3864-12.0956Z"></path><path class="cls-16" d="M233.8087,455.0559l-8.4613-5.1671a3.3518,3.3518,0,0,1-1.1137-4.6076l5.167-8.4612a3.3521,3.3521,0,0,1,4.608-1.1143l8.4612,5.1671a3.3524,3.3524,0,0,1,1.114,4.6084l-5.1671,8.4612A3.3522,3.3522,0,0,1,233.8087,455.0559Z"></path><path class="cls-17" d="M233.8213,453.8425l-7.4-4.5188a2.9323,2.9323,0,0,1-.9746-4.03l4.5191-7.4a2.9322,2.9322,0,0,1,4.03-.9738l7.4,4.5188a2.9317,2.9317,0,0,1,.9741,4.03l-4.5191,7.4A2.9317,2.9317,0,0,1,233.8213,453.8425Z"></path><path class="cls-18" d="M223.239,472.3641l-8.4609-5.1673a3.3509,3.3509,0,0,1-1.1139-4.6076l5.1669-8.4613a3.3519,3.3519,0,0,1,4.6079-1.1139l8.4612,5.167a3.3523,3.3523,0,0,1,1.1146,4.6077l-5.1675,8.4619A3.3524,3.3524,0,0,1,223.239,472.3641Z"></path><path class="cls-19" d="M223.2513,471.1509l-7.399-4.5194a2.9313,2.9313,0,0,1-.9748-4.03l4.5186-7.3995a2.9318,2.9318,0,0,1,4.03-.9737l7.4,4.5186a2.9315,2.9315,0,0,1,.9743,4.03l-4.5193,7.4A2.9319,2.9319,0,0,1,223.2513,471.1509Z"></path><path class="cls-20" d="M250.6,465.31l-8.4612-5.1671a3.3517,3.3517,0,0,1-1.1137-4.6077l5.1669-8.4612A3.3522,3.3522,0,0,1,250.8,445.96l8.4612,5.1671a3.3522,3.3522,0,0,1,1.1139,4.6085l-5.167,8.4612A3.3521,3.3521,0,0,1,250.6,465.31Z"></path><path class="cls-21" d="M250.6126,464.0967l-7.4-4.5189a2.9316,2.9316,0,0,1-.9741-4.03l4.5191-7.4a2.9317,2.9317,0,0,1,4.03-.974l7.4,4.5187a2.9317,2.9317,0,0,1,.9741,4.03l-4.519,7.4A2.9319,2.9319,0,0,1,250.6126,464.0967Z"></path><path class="cls-22" d="M240.0305,482.6181l-8.4616-5.1667a3.3523,3.3523,0,0,1-1.1138-4.6075l5.1675-8.4619a3.3519,3.3519,0,0,1,4.6077-1.1138l8.4612,5.1671a3.3519,3.3519,0,0,1,1.1142,4.6079l-5.1676,8.462A3.3512,3.3512,0,0,1,240.0305,482.6181Z"></path><path class="cls-23" d="M240.0427,481.4049l-7.4-4.5188a2.932,2.932,0,0,1-.9738-4.03l4.5186-7.4a2.9315,2.9315,0,0,1,4.03-.9742l7.4,4.5188a2.9313,2.9313,0,0,1,.9741,4.03l-4.519,7.4A2.9317,2.9317,0,0,1,240.0427,481.4049Z"></path><path class="cls-24" d="M276.0531,461.3814l-8.4612-5.1671a3.3524,3.3524,0,0,0-4.6085,1.114l-15.737,25.7695a3.353,3.353,0,0,0,1.1143,4.6081l8.4618,5.1669a3.352,3.352,0,0,0,4.6073-1.1136l15.7367-25.77A3.3522,3.3522,0,0,0,276.0531,461.3814Z"></path><path class="cls-25" d="M274.9787,461.9468l-7.4-4.5188a2.9314,2.9314,0,0,0-4.03.9741L248.4608,483.11a2.9319,2.9319,0,0,0,.9737,4.03l7.4,4.5188a2.9324,2.9324,0,0,0,4.03-.9739l15.0884-24.7083A2.9315,2.9315,0,0,0,274.9787,461.9468Z"></path><path class="cls-26" d="M269.2391,473.91c-.0019-.011-.0019-.0223-.0036-.0321a1.2026,1.2026,0,0,0-.5416-.8973l-8.0914-4.9413a1.1156,1.1156,0,0,0-1.0612-.0814,1.9582,1.9582,0,0,0-.9212.8312,1.8582,1.8582,0,0,0-.3189,1.2l4.2816,17.6892c.0015.0113.0013.0228.0023.0345.0056.0416.0127.08.0207.12l7.1659-11.7337Z"></path><path class="cls-27" d="M265.3051,480.3509c-.0014-.0113-.0012-.0216-.0031-.0324a1.2029,1.2029,0,0,0-.5417-.8966l-8.0914-4.9413a1.1165,1.1165,0,0,0-1.0609-.082,1.9605,1.9605,0,0,0-.9215.8318,1.8582,1.8582,0,0,0-.319,1.2l4.2819,17.69.0021.0346c.0052.0407.0124.08.0215.1192l7.1654-11.7334Z"></path><path class="cls-28" d="M258.62,468.789a1.9582,1.9582,0,0,1,.9212-.8312,1.1156,1.1156,0,0,1,1.0612.0814l8.0914,4.9413a1.2009,1.2009,0,0,1,.5416.8973,1.7825,1.7825,0,0,1-.2713,1.2282,1.7,1.7,0,0,1-.9688.8028,1.2373,1.2373,0,0,1-1.0257-.104l-8.0917-4.9416a1.1474,1.1474,0,0,1-.5768-.8745A1.8593,1.8593,0,0,1,258.62,468.789Z"></path><path class="cls-29" d="M223.2512,471.1508a2.9318,2.9318,0,0,0,4.03-.9741l1.871-3.0639-2.0835-8.65a1.415,1.415,0,0,0-.6592-.7727,1.4841,1.4841,0,0,0-.9887-.233.931.931,0,0,0-.72.4259l-1.8084,2.9612-2.986-1.8237a.8759.8759,0,0,0-.8349-.0508,1.5872,1.5872,0,0,0-.7483.6745,1.5059,1.5059,0,0,0-.2582.9732.9953.9953,0,0,0,.0709.2693c.0006.009-.0009.0173,0,.0255l2.0223,8.35Z"></path><path class="cls-30" d="M220.2938,467.7049a1.5881,1.5881,0,0,1-.6745-.7477.8766.8766,0,0,1,.0506-.8358l1.8231-2.9856-2.986-1.8237a.9006.9006,0,0,1-.4419-.6947,1.5059,1.5059,0,0,1,.2582-.9732,1.5872,1.5872,0,0,1,.7483-.6745.8782.8782,0,0,1,.8349.0508l2.986,1.8237,1.8084-2.9612a.9293.9293,0,0,1,.72-.4259,1.4841,1.4841,0,0,1,.9887.233,1.415,1.415,0,0,1,.6592.7727.9587.9587,0,0,1-.0765.82l-1.8085,2.9612,2.9615,1.8077a.9353.9353,0,0,1,.4259.72,1.4881,1.4881,0,0,1-.233.9886,1.4117,1.4117,0,0,1-.7727.6585.9574.9574,0,0,1-.82-.0758l-2.9608-1.8083-1.8237,2.9862a.8989.8989,0,0,1-.694.4421A1.5087,1.5087,0,0,1,220.2938,467.7049Z"></path><path class="cls-31" d="M244.0733,480.43l2.7965-4.5794-1.0329-4.2712a1.4862,1.4862,0,0,0-.5343-.8638.9289.9289,0,0,0-.81-.2077l-3.3726.8151-.0107-.0427-.7569-3.1348-.0544-.2235a.8775.8775,0,0,0-.5548-.6264,1.5881,1.5881,0,0,0-1.0053-.0516,1.51,1.51,0,0,0-.8715.5052.9014.9014,0,0,0-.178.8034l.8227,3.4013-3.4016.8218a.88.88,0,0,0-.6267.5548,1.6012,1.6012,0,0,0-.0522,1.0062l1.0364,4.2736,4.5762,2.7946A2.9323,2.9323,0,0,0,244.0733,480.43Z"></path><path class="cls-32" d="M234.43,474.3368a1.5889,1.5889,0,0,1,.0523-1.0062.8781.8781,0,0,1,.626-.5543l3.4015-.8218-.822-3.4019a.9006.9006,0,0,1,.1779-.8035,1.5109,1.5109,0,0,1,.8715-.505,1.5856,1.5856,0,0,1,1.0054.0517.8765.8765,0,0,1,.5549.626l.822,3.4013,3.3724-.8151a.93.93,0,0,1,.81.2078,1.4844,1.4844,0,0,1,.5348.8641,1.413,1.413,0,0,1-.0817,1.0126.9542.9542,0,0,1-.6327.5253l-3.3719.8153.815,3.3717a.932.932,0,0,1-.208.8106,1.4828,1.4828,0,0,1-.8639.5346,1.4108,1.4108,0,0,1-1.0126-.08.9585.9585,0,0,1-.5255-.6336l-.8153-3.3721-3.4012.8221a.901.901,0,0,1-.8035-.1782A1.52,1.52,0,0,1,234.43,474.3368Z"></path><path class="cls-33" d="M233.8213,453.8425a2.9318,2.9318,0,0,0,4.03-.9741l1.3885-2.2737-.87-3.6014v-.0021a.9756.9756,0,0,0-.44-.7277l-6.6938-4.0878a.8783.8783,0,0,0-.8351-.0507,1.59,1.59,0,0,0-.7474.6746,1.5082,1.5082,0,0,0-.2587.9729,1.0422,1.0422,0,0,0,.0575.2378l0,.0016,2.0311,8.4031Z"></path><path class="cls-34" d="M229.6533,442.8a1.59,1.59,0,0,1,.7474-.6746.8783.8783,0,0,1,.8351.0507l6.6938,4.0878a.973.973,0,0,1,.44.7277,1.4456,1.4456,0,0,1-.22.9966,1.372,1.372,0,0,1-.7861.6508,1.0032,1.0032,0,0,1-.8328-.0838l-6.6938-4.0877a.9.9,0,0,1-.4419-.6946A1.5082,1.5082,0,0,1,229.6533,442.8Z"></path><path class="cls-35" d="M256.5154,460.0558l-1.8722,3.0657a2.9344,2.9344,0,0,1-.5359.6488l-2.7224-11.2628a1.6111,1.6111,0,1,1,3.1219-.7545Z"></path><path class="cls-36" d="M250.6125,464.0968a2.9317,2.9317,0,0,0,4.03-.9741l1.3886-2.2738-.87-3.6014v-.0021a.9757.9757,0,0,0-.44-.7277l-6.6938-4.0878a.8793.8793,0,0,0-.8351-.0507,1.59,1.59,0,0,0-.7474.6746,1.5082,1.5082,0,0,0-.2587.9729,1.0463,1.0463,0,0,0,.058.2381v.0013l2.0311,8.4031Z"></path><path class="cls-37" d="M251.3857,464.4277a2.9132,2.9132,0,0,1-.7725-.3321l-3.0642-1.8712-.5953-2.4607a1.611,1.611,0,1,1,3.1218-.7547Z"></path><path class="cls-38" d="M255.16,457.2454a.9751.9751,0,0,0-.44-.7277l-6.6938-4.0878a.8793.8793,0,0,0-.8351-.0507,1.59,1.59,0,0,0-.7474.6746,1.5082,1.5082,0,0,0-.2587.9729.9006.9006,0,0,0,.4422.6941l6.6938,4.0877a1.0011,1.0011,0,0,0,.8324.0844,1.3729,1.3729,0,0,0,.7863-.6509A1.446,1.446,0,0,0,255.16,457.2454Z"></path><path class="cls-39" d="M254.2918,452.8477a1.6125,1.6125,0,1,1-.5362-2.2165A1.612,1.612,0,0,1,254.2918,452.8477Z"></path><path class="cls-40" d="M249.8608,460.1037a1.6125,1.6125,0,1,1-.5358-2.217A1.6124,1.6124,0,0,1,249.8608,460.1037Z"></path><path class="cls-41" d="M254.6865,475.23a1.9575,1.9575,0,0,1,.9212-.8313,1.1156,1.1156,0,0,1,1.0612.0815l8.0914,4.9413a1.1992,1.1992,0,0,1,.5412.8969,1.7823,1.7823,0,0,1-.2712,1.2282,1.6912,1.6912,0,0,1-.9689.8028,1.2354,1.2354,0,0,1-1.0256-.104l-8.0914-4.9413a1.1458,1.1458,0,0,1-.5769-.8744A1.8582,1.8582,0,0,1,254.6865,475.23Z"></path></g></g><path class="cls-42" d="M244.8781,424.8146a1.6739,1.6739,0,0,0,.48,2.5079,1.3539,1.3539,0,0,0,2.037-.3995l.0118-.019-1.4147-.8639.442-.7231,2.1762,1.3293-1.6068,2.6307-.6914-.4222.2769-.5692a2.0394,2.0394,0,0,1-1.7921-.26,2.5753,2.5753,0,0,1-.7649-3.7539,2.6607,2.6607,0,0,1,3.8222-1.0053,2.2312,2.2312,0,0,1,1.0666,2.8137l-.8645-.5282a1.3132,1.3132,0,0,0-.6907-1.5294A1.719,1.719,0,0,0,244.8781,424.8146Z"></path><path class="cls-43" d="M247.8857,429.8155l2.8583-4.6788,1.7852,1.09a1.6943,1.6943,0,0,1,.7916,2.4878,1.5261,1.5261,0,0,1-1.6384.7832l-.2832,2.4636-.8958-.5471.2736-2.2326-1.005-.6138-1.067,1.7476Zm2.3284-1.97.966.59a.8467.8467,0,0,0,1.2832-.244.8353.8353,0,0,0-.38-1.2345l-.966-.59Z"></path><path class="cls-44" d="M252.1724,432.4341l2.8582-4.6787,2.9058,1.7748-.4619.755-2.0858-1.2739-.7353,1.2029,1.8687,1.1416-.442.7231-1.8687-1.1415-.7586,1.2418,2.0865,1.2744-.4611.7554Z"></path><path class="cls-45" d="M255.5182,434.4779l4.5481-3.6462.8389.5122-1.1691,5.7108-.8637-.5277.2831-1.3124-1.7476-1.068-1.0377.8518Zm2.5553-.8739,1.267.7743.3855-1.8387a2.9581,2.9581,0,0,1,.1226-.4171,3.9433,3.9433,0,0,1-.3211.2964Z"></path><path class="cls-46" d="M262.3572,432.2311l3.5581,2.1732-.4612.7554-1.37-.837-2.3963,3.9238-.8194-.5,2.397-3.9233-1.37-.8371Z"></path><path class="cls-47" d="M265.411,440.5212l2.8582-4.6787,1.6385,1.0009a2.6133,2.6133,0,0,1,.9,3.7755,2.5825,2.5825,0,0,1-3.714.93Zm3.2155-3.4233-1.9351,3.1684.7874.4806a1.6694,1.6694,0,0,0,2.4654-.6557,1.6973,1.6973,0,0,0-.5749-2.54Z"></path><path class="cls-48" d="M270.1456,443.4133l2.8582-4.6788,2.9058,1.7749-.4619.7549-2.0865-1.2743-.7346,1.2034,1.8687,1.1415-.442.7232-1.8687-1.1416-.7586,1.2418,2.0865,1.2744-.4611.7554Z"></path><path class="cls-49" d="M273.4914,445.4571l4.5481-3.6462.8389.5122-1.1691,5.7108-.8637-.5277.2831-1.3125-1.7476-1.068-1.0377.8518Zm2.5553-.8739,1.267.7743.3855-1.8388a2.9661,2.9661,0,0,1,.1226-.4171,3.9388,3.9388,0,0,1-.321.2964Z"></path><path class="cls-50" d="M279.5775,448.1375l1.9583,1.1965-.4611.7554-2.7779-1.6966,2.8582-4.6787.82.5Z"></path><path class="cls-51" d="M281.9783,450.0615a.6077.6077,0,1,1,.2159.826A.61.61,0,0,1,281.9783,450.0615Zm.8032-.8543a18.2517,18.2517,0,0,1,1.2039-2.2879l.6575-1.0748.9215.5628-.6574,1.0748a16.4849,16.4849,0,0,1-1.4982,2.1083Z"></path></g></svg> 