<svg id="Layer_1" data-name="Layer 1" xmlns="http://www.w3.org/2000/svg" width="20" height="20" viewBox="0 0 20 20"><defs><style>.cls-1{fill:#fff;}</style></defs><title>ikone za listinge final_</title><path class="cls-1" d="M5.8394,10.0706c0-2.7863,1.7617-4.6729,4.348-4.6729a3.7777,3.7777,0,0,1,3.9357,3.0611H12.8112A2.6151,2.6151,0,0,0,10.15,6.5721c-1.8242,0-3.0236,1.3744-3.0236,3.486S8.3257,13.544,10.15,13.544A2.6879,2.6879,0,0,0,12.8612,11.72h1.2994a3.9222,3.9222,0,0,1-4.0357,2.9987C7.5511,14.7185,5.8394,12.8693,5.8394,10.0706Z"/><rect class="cls-1" x="8.8337" y="4.2552" width="0.7946" height="11.4897"/><rect class="cls-1" x="10.4813" y="4.2552" width="0.7946" height="11.4897"/></svg>