<svg id="Layer_1" data-name="Layer 1" xmlns="http://www.w3.org/2000/svg" width="20" height="20" viewBox="0 0 20 20"><defs><style>.cls-1{fill:#fff;}</style></defs><title>ikone za listinge final_</title><path class="cls-1" d="M14.7658,15.9572a7.6135,7.6135,0,0,1-9.2735.2029l.4868-.6618A6.79,6.79,0,0,0,16.2007,7.2626l.75-.3349A7.6122,7.6122,0,0,1,14.7658,15.9572Z"/><polygon class="cls-1" points="15.763 7.786 15.975 5.749 17.633 6.951 15.763 7.786"/><path class="cls-1" d="M3.7973,12.7912l-.75.3351A7.6123,7.6123,0,0,1,14.4933,3.8834l-.4855.6627a6.79,6.79,0,0,0-10.21,8.2451Z"/><polygon class="cls-1" points="4.235 12.267 4.024 14.304 2.365 13.103 4.235 12.267"/><polygon class="cls-1" points="6.064 8.043 6.064 12.595 9.558 14.288 9.558 9.437 6.064 8.043"/><polygon class="cls-1" points="13.91 8.043 13.91 12.595 10.417 14.288 10.417 9.437 13.91 8.043"/><polygon class="cls-1" points="6.492 7.269 9.986 5.775 13.482 7.269 9.989 8.663 6.492 7.269"/></svg>