<svg id="Layer_1" data-name="Layer 1" xmlns="http://www.w3.org/2000/svg" width="20" height="20" viewBox="0 0 20 20"><defs><style>.cls-1{fill:#fff;}</style></defs><title>ikone za listinge final_</title><path class="cls-1" d="M9.7111,13.8925a2.2319,2.2319,0,0,1-2.3523-2.091H8.4043c.0209.6691.5123,1.1082,1.3068,1.1919V10.39l-.3763-.0837c-1.2337-.2822-1.8714-.9722-1.8714-2.0491A2.1981,2.1981,0,0,1,9.7111,6.1038v-.91H10.38v.8991a2.1587,2.1587,0,0,1,2.1432,2.1014H11.5093A1.2074,1.2074,0,0,0,10.38,7.0029V9.5956l.4077.0941c1.2546.2823,1.8609.9409,1.8609,1.9864A2.22,2.22,0,0,1,10.38,13.882v.9095H9.7111Zm0-4.4537V7.0029c-.7736.1045-1.2441.5541-1.2441,1.2232,0,.6063.345.9932,1.0769,1.1709Zm.6691,1.1187v2.415c.7841-.1046,1.265-.5541,1.265-1.2128,0-.6063-.345-.9932-1.0664-1.16Z"/><path class="cls-1" d="M14.7658,15.9572a7.6135,7.6135,0,0,1-9.2735.2029l.4868-.6618A6.79,6.79,0,0,0,16.2007,7.2626l.75-.3349A7.6122,7.6122,0,0,1,14.7658,15.9572Z"/><polygon class="cls-1" points="15.763 7.786 15.975 5.749 17.633 6.951 15.763 7.786"/><path class="cls-1" d="M3.7973,12.7912l-.75.3351A7.6123,7.6123,0,0,1,14.4933,3.8834l-.4855.6627a6.79,6.79,0,0,0-10.21,8.2451Z"/><polygon class="cls-1" points="4.235 12.267 4.024 14.304 2.365 13.103 4.235 12.267"/></svg>