<svg id="Layer_1" data-name="Layer 1" xmlns="http://www.w3.org/2000/svg" width="20" height="20" viewBox="0 0 20 20"><defs><style>.cls-1{fill:#fff;}</style></defs><title>ikone za listinge final_</title><path class="cls-1" d="M14.7658,15.8986a7.6136,7.6136,0,0,1-9.2735.2028l.4868-.6618A6.79,6.79,0,0,0,16.2007,7.2039l.75-.3348A7.6123,7.6123,0,0,1,14.7658,15.8986Z"/><polygon class="cls-1" points="15.763 7.728 15.975 5.691 17.633 6.893 15.763 7.728"/><path class="cls-1" d="M3.7973,12.7326l-.75.3351a7.6123,7.6123,0,0,1,11.4461-9.243l-.4855.6627a6.7906,6.7906,0,0,0-10.21,8.2452Z"/><polygon class="cls-1" points="4.235 12.209 4.024 14.246 2.365 13.044 4.235 12.209"/><path class="cls-1" d="M6.5225,9.9936a3.59,3.59,0,0,1,3.6382-3.91,3.1611,3.1611,0,0,1,3.2932,2.5614H12.3561a2.1882,2.1882,0,0,0-2.2268-1.5787c-1.5264,0-2.53,1.15-2.53,2.9169S8.6029,12.9,10.1293,12.9a2.2491,2.2491,0,0,0,2.2687-1.5263h1.0872a3.2818,3.2818,0,0,1-3.3768,2.509C7.9547,13.8826,6.5225,12.3354,6.5225,9.9936Z"/><rect class="cls-1" x="9.0279" y="5.1275" width="0.6649" height="9.6139"/><rect class="cls-1" x="10.4066" y="5.1275" width="0.6649" height="9.6139"/></svg>