<?xml version="1.0" encoding="UTF-8"?> <svg xmlns="http://www.w3.org/2000/svg" width="200" height="200" viewBox="0 0 200 200" fill="none"><g clip-path="url(#clip0)"><path d="M169.908 87.1413L101.8 34.1069C100.741 33.2827 99.2586 33.2827 98.2 34.1069L30.0922 87.1413C28.8156 88.1354 28.5867 89.9761 29.5805 91.2526C30.5742 92.5292 32.4152 92.7589 33.6918 91.7644L100 40.1315L166.308 91.7644C166.843 92.1808 167.477 92.3827 168.106 92.3827C168.979 92.3827 169.842 91.9944 170.42 91.2526C171.413 89.9761 171.184 88.1354 169.908 87.1413Z" fill="#AA7346"></path><path d="M192.351 177.734H7.64922C3.42461 177.734 0 174.31 0 170.085V95.1634C0 90.9388 3.42461 87.5142 7.64922 87.5142H192.351C196.575 87.5142 200 90.9388 200 95.1634V170.085C200 174.31 196.575 177.734 192.351 177.734Z" fill="#CD0303"></path><path d="M192.354 87.5142H180.282C184.505 87.5142 187.928 90.9403 187.928 95.1669V170.082C187.928 174.308 184.505 177.734 180.282 177.734H192.354C196.577 177.734 200 174.308 200 170.082V95.1669C200 90.9403 196.577 87.5142 192.354 87.5142Z" fill="#AB0303"></path><path d="M12.0723 164.041V101.207C12.0723 100.318 12.7934 99.5967 13.6828 99.5967H186.317C187.207 99.5967 187.928 100.318 187.928 101.207V164.04C187.928 164.93 187.207 165.651 186.317 165.651H13.6828C12.7934 165.651 12.0723 164.93 12.0723 164.041Z" fill="#F3F3F3"></path><path d="M186.318 99.5972H174.246C175.135 99.5972 175.856 100.318 175.856 101.208V164.04C175.856 164.93 175.135 165.651 174.246 165.651H186.318C187.207 165.651 187.928 164.93 187.928 164.04V101.208C187.928 100.318 187.207 99.5972 186.318 99.5972Z" fill="#EBEBEB"></path><path d="M99.9999 50.4594C107.778 50.4594 114.084 44.148 114.084 36.3625C114.084 28.577 107.778 22.2656 99.9999 22.2656C92.2213 22.2656 85.9155 28.577 85.9155 36.3625C85.9155 44.148 92.2213 50.4594 99.9999 50.4594Z" fill="#FFD54F"></path><path d="M100 22.2656C97.8396 22.2656 95.7936 22.7539 93.9639 23.6242C98.7221 25.8867 102.012 30.7395 102.012 36.3625C102.012 41.9855 98.7221 46.8383 93.9639 49.1008C95.7936 49.9711 97.8396 50.4594 100 50.4594C107.779 50.4594 114.085 44.148 114.085 36.3625C114.085 28.577 107.779 22.2656 100 22.2656Z" fill="#FFC328"></path><path d="M119.115 121.06C112.273 121.06 106.707 126.626 106.707 133.468C106.707 140.31 112.273 145.876 119.115 145.876C125.957 145.876 131.523 140.31 131.523 133.468C131.523 126.626 125.957 121.06 119.115 121.06ZM119.115 140.846C115.047 140.846 111.737 137.536 111.737 133.468C111.737 129.4 115.047 126.09 119.115 126.09C123.183 126.09 126.493 129.4 126.493 133.468C126.493 137.536 123.183 140.846 119.115 140.846Z" fill="#CD0303"></path><path d="M155.618 123.39C155.349 122.072 154.223 121.099 152.88 121.024C151.544 120.949 150.31 121.789 149.895 123.068C149.886 123.096 149.877 123.126 149.868 123.155L146.339 135.535L142.679 123.129C142.67 123.1 142.661 123.07 142.651 123.041C142.224 121.766 140.988 120.938 139.645 121.027C138.302 121.116 137.186 122.101 136.925 123.453L133.433 142.801C133.187 144.168 134.095 145.476 135.462 145.723C136.828 145.968 138.137 145.062 138.384 143.694L140.326 132.931L143.536 143.809C143.544 143.839 143.554 143.869 143.564 143.899C143.971 145.108 145.098 145.918 146.373 145.918C147.67 145.911 148.797 145.088 149.192 143.87C149.202 143.841 149.211 143.812 149.219 143.782L152.317 132.914L154.382 143.72C154.643 145.085 155.963 145.978 157.325 145.718C158.689 145.458 159.584 144.14 159.323 142.776L155.618 123.39Z" fill="#CD0303"></path><path d="M48.9061 121.195C47.5398 120.949 46.2306 121.857 45.9841 123.224L44.0417 133.987L40.8324 123.109C40.8236 123.08 40.8142 123.05 40.8045 123.021C40.3984 121.81 39.2706 121 37.9949 121C36.6977 121.007 35.571 121.83 35.1756 123.049C35.1662 123.078 35.1575 123.107 35.1491 123.136L32.0511 134.004L29.9859 123.198C29.7254 121.834 28.4084 120.939 27.0435 121.2C25.6789 121.46 24.7846 122.778 25.0451 124.142L28.7498 143.526C29.0181 144.844 30.1435 145.818 31.4866 145.894C31.543 145.897 31.599 145.899 31.655 145.899C32.9314 145.899 34.0753 145.076 34.4733 143.85C34.4827 143.821 34.4918 143.792 34.5002 143.763L38.0291 131.383L41.6892 143.788C41.6979 143.818 41.7073 143.848 41.717 143.877C42.1456 145.153 43.3864 145.984 44.7252 145.891C46.0679 145.801 47.1833 144.815 47.4426 143.465L50.935 124.117C51.1814 122.75 50.2733 121.442 48.9061 121.195Z" fill="#CD0303"></path><path d="M81.5275 140.871H77.085V123.534C77.085 122.145 75.9589 121.019 74.5699 121.019C73.1808 121.019 72.0547 122.145 72.0547 123.534V143.386C72.0547 144.775 73.1808 145.901 74.5699 145.901H81.5275C82.9165 145.901 84.0427 144.775 84.0427 143.386C84.0427 141.997 82.9165 140.871 81.5275 140.871Z" fill="#CD0303"></path><path d="M104.207 138.673C103.143 137.779 101.557 137.917 100.663 138.981C100.49 139.187 100.303 139.38 100.11 139.552C99.115 140.439 97.8433 140.888 96.3305 140.888C92.2395 140.888 88.9114 137.56 88.9114 133.469C88.9114 129.378 92.2395 126.049 96.3305 126.049C97.8175 126.049 99.2511 126.487 100.477 127.315C101.628 128.093 103.192 127.79 103.969 126.639C104.747 125.488 104.444 123.924 103.293 123.147C101.232 121.755 98.8252 121.019 96.3305 121.019C89.4658 121.019 83.8811 126.604 83.8811 133.469C83.8811 140.334 89.4658 145.918 96.3305 145.918C99.0751 145.918 101.539 145.016 103.457 143.308C103.83 142.975 104.187 142.607 104.515 142.216C105.409 141.152 105.27 139.566 104.207 138.673Z" fill="#CD0303"></path><path d="M65.0918 126.049C66.4808 126.049 67.607 124.923 67.607 123.534C67.607 122.145 66.4808 121.019 65.0918 121.019H56.7964C55.4074 121.019 54.2812 122.145 54.2812 123.534V143.222C54.2812 144.611 55.4074 145.737 56.7964 145.737H65.0918C66.4808 145.737 67.607 144.611 67.607 143.222C67.607 141.833 66.4808 140.706 65.0918 140.706H59.3116V135.893H64.4804C65.8695 135.893 66.9956 134.767 66.9956 133.378C66.9956 131.989 65.8695 130.863 64.4804 130.863H59.3116V126.049H65.0918Z" fill="#CD0303"></path><path d="M173.485 140.733H167.705V135.919H172.873C174.263 135.919 175.388 134.793 175.388 133.404C175.388 132.015 174.263 130.889 172.873 130.889H167.705V126.076H173.485C174.874 126.076 176 124.95 176 123.561C176 122.172 174.874 121.045 173.485 121.045H165.189C163.8 121.045 162.674 122.172 162.674 123.561V143.248C162.674 144.637 163.8 145.763 165.189 145.763H173.485C174.874 145.763 176 144.637 176 143.248C176 141.859 174.874 140.733 173.485 140.733Z" fill="#CD0303"></path><path d="M166.746 176.446C165.937 176.249 165.334 175.592 165.221 174.787C164.778 171.621 163.647 163.536 162.945 158.512C162.848 157.822 161.853 157.833 161.756 158.524L159.482 174.787C159.369 175.592 158.771 176.247 157.963 176.445C155.923 176.942 151.998 177.899 149.459 178.518C148.847 178.667 148.847 179.532 149.459 179.681C151.997 180.3 155.923 181.257 157.962 181.754C158.771 181.951 159.369 182.606 159.482 183.411L161.756 199.674C161.853 200.364 162.85 200.364 162.946 199.674L165.221 183.411C165.334 182.606 165.932 181.951 166.74 181.754C168.78 181.257 172.705 180.3 175.244 179.681C175.855 179.532 175.848 178.665 175.237 178.516L166.746 176.446Z" fill="#FFF082"></path><path d="M159.482 183.412L161.757 199.675C161.853 200.365 162.85 200.365 162.947 199.675L165.078 184.435C161.878 180.892 160.344 176.659 159.627 173.755L159.482 174.788C159.37 175.592 158.771 176.248 157.963 176.445C155.924 176.942 151.998 177.899 149.459 178.518C148.848 178.667 148.848 179.533 149.459 179.682C151.998 180.301 155.923 181.258 157.963 181.755C158.771 181.951 159.37 182.607 159.482 183.412Z" fill="#FFDC64"></path><path d="M180.628 76.6134C179.618 76.371 178.863 75.5628 178.723 74.5723C178.137 70.4522 176.591 59.5635 175.732 53.5166C175.634 52.8261 174.637 52.8287 174.539 53.5192L171.548 74.572C171.408 75.5624 170.66 76.3693 169.65 76.6119C166.945 77.2612 161.588 78.547 158.461 79.2976C157.847 79.445 157.847 80.3144 158.461 80.4618C161.588 81.2124 166.945 82.498 169.649 83.1466C170.66 83.389 171.408 84.1959 171.549 85.1865L174.531 106.178C174.63 106.879 175.641 106.879 175.741 106.178L178.723 85.1861C178.863 84.1955 179.612 83.3886 180.622 83.1462C183.324 82.4978 188.674 81.2139 191.802 80.4631C192.418 80.3153 192.41 79.4411 191.794 79.2933L180.628 76.6134Z" fill="#FFDC64"></path><path d="M171.817 72.6816L171.548 74.5723C171.408 75.5627 170.66 76.3696 169.649 76.6122C166.945 77.2615 161.588 78.5471 158.46 79.2979C157.847 79.4453 157.847 80.3147 158.46 80.4621C161.588 81.2127 166.945 82.4981 169.649 83.1469C170.66 83.3893 171.408 84.1962 171.549 85.1868L174.53 106.179C174.63 106.879 175.641 106.879 175.741 106.179L178.409 87.3929C174.914 82.3907 172.922 76.9107 171.817 72.6816Z" fill="#FFC850"></path><path d="M22.3082 96.2811C22.4575 97.376 23.2584 98.2692 24.3302 98.5371L36.5669 101.596C37.14 101.74 37.1465 102.552 36.5734 102.696C33.3258 103.508 27.3052 105.013 24.3233 105.758C23.2513 106.026 22.4575 106.918 22.3081 108.013L19.0641 131.802C18.9748 132.457 18.0289 132.457 17.9396 131.802L14.6957 108.013C14.5463 106.919 13.7524 106.027 12.6802 105.759C9.69812 105.013 3.67739 103.508 0.429849 102.697C-0.143283 102.553 -0.143283 101.742 0.429849 101.599C3.6777 100.787 9.69873 99.2814 12.6806 98.5357C13.7525 98.2676 14.5463 97.3758 14.6956 96.2811L17.9396 72.4916C18.0289 71.8372 18.9747 71.8356 19.0639 72.49C20.0737 79.8938 22.1084 94.8155 22.3082 96.2811Z" fill="#FFC850"></path><path d="M19.0643 131.802L21.9223 110.843C18.8234 104.559 16.5319 98.0389 15.0892 93.396L14.6958 96.2808C14.5464 97.3756 13.7528 98.2674 12.6809 98.5355C9.69897 99.2813 3.67779 100.787 0.430093 101.599C-0.143039 101.742 -0.143039 102.553 0.430093 102.696C3.67779 103.508 9.69836 105.013 12.6804 105.758C13.7526 106.026 14.5466 106.918 14.696 108.013L17.9398 131.802C18.0289 132.456 18.9751 132.456 19.0643 131.802Z" fill="#EBAF4B"></path></g><defs><clipPath id="clip0"><rect width="200" height="200" fill="white"></rect></clipPath></defs></svg> 