<?xml version="1.0" encoding="UTF-8"?> <svg xmlns="http://www.w3.org/2000/svg" width="200" height="177" viewBox="0 0 200 177" fill="none"><path fill-rule="evenodd" clip-rule="evenodd" d="M174.141 18.0389V138.063C174.141 144.715 168.8 150.056 162.149 150.056H11.9924C5.34114 150.157 0 144.715 0 138.063V18.0389H174.141Z" fill="#FE9A9A"></path><path fill-rule="evenodd" clip-rule="evenodd" d="M174.141 11.9924V23.9847H0V11.9924C0 5.34114 5.34114 0 11.9924 0H162.149C168.8 0 174.141 5.34114 174.141 11.9924Z" fill="#FEA9A9"></path><path d="M15.0157 15.0157C16.6854 15.0157 18.039 13.6621 18.039 11.9924C18.039 10.3227 16.6854 8.96912 15.0157 8.96912C13.346 8.96912 11.9924 10.3227 11.9924 11.9924C11.9924 13.6621 13.346 15.0157 15.0157 15.0157Z" fill="#65DDB9"></path><path d="M27.008 15.0157C28.6777 15.0157 30.0313 13.6621 30.0313 11.9924C30.0313 10.3227 28.6777 8.96912 27.008 8.96912C25.3383 8.96912 23.9847 10.3227 23.9847 11.9924C23.9847 13.6621 25.3383 15.0157 27.008 15.0157Z" fill="#F3D55B"></path><path d="M39.0003 15.0157C40.6701 15.0157 42.0236 13.6621 42.0236 11.9924C42.0236 10.3227 40.6701 8.96912 39.0003 8.96912C37.3306 8.96912 35.9771 10.3227 35.9771 11.9924C35.9771 13.6621 37.3306 15.0157 39.0003 15.0157Z" fill="#FF5364"></path><path fill-rule="evenodd" clip-rule="evenodd" d="M120.109 94.0398V109.055C120.109 120.645 105.295 130.118 87.0546 130.118C68.8141 130.118 54 120.745 54 109.055V94.0398H120.109Z" fill="#B00303"></path><path fill-rule="evenodd" clip-rule="evenodd" d="M120.109 79.0242V94.0398C120.109 105.629 105.295 115.102 87.0546 115.102C68.8141 115.102 54 105.73 54 94.0398V79.0242H120.109Z" fill="#CD0303"></path><path fill-rule="evenodd" clip-rule="evenodd" d="M120.109 64.0084V79.0241C120.109 90.6134 105.295 100.086 87.0545 100.086C68.814 100.086 54.1007 90.7141 54.1007 79.0241V64.0084H120.109Z" fill="#B00303"></path><path fill-rule="evenodd" clip-rule="evenodd" d="M108.621 48.0857C101.969 44.6593 94.6128 42.9461 87.1553 43.0469C79.6979 42.9461 72.3412 44.6593 65.69 48.0857C58.6356 51.9152 54.1007 57.6595 54.1007 64.0084C54.1007 69.9542 57.9302 75.2953 64.1783 79.1248C71.1319 83.1559 79.0932 85.1714 87.1553 85.0706C95.2174 85.2722 103.179 83.1559 110.132 79.1248C116.38 75.2953 120.21 69.9542 120.21 64.0084C120.109 57.6595 115.675 51.9152 108.621 48.0857Z" fill="#D30303"></path><path fill-rule="evenodd" clip-rule="evenodd" d="M108.621 48.0857L97.737 56.7525C94.3106 55.5432 90.7835 54.9385 87.1555 55.0393V43.0469C94.613 42.9461 101.97 44.6593 108.621 48.0857Z" fill="#ECF0F1"></path><path fill-rule="evenodd" clip-rule="evenodd" d="M76.5739 56.7526C72.039 58.365 69.1165 60.9852 69.1165 64.0085H54.1008C54.1008 57.6596 58.535 51.9153 65.6901 48.0858L76.5739 56.7526Z" fill="#ECF0F1"></path><path fill-rule="evenodd" clip-rule="evenodd" d="M87.1555 73.0783V85.0707C79.0934 85.2723 71.132 83.156 64.1785 79.1249L75.667 70.962C79.2949 72.3729 83.2252 73.0783 87.1555 73.0783Z" fill="#ECF0F1"></path><path fill-rule="evenodd" clip-rule="evenodd" d="M105.094 64.0085C105.094 66.8302 102.574 69.2489 98.5431 70.962C94.9151 72.3729 90.9848 73.0783 87.0546 73.0783C83.1243 73.1791 79.194 72.4737 75.5661 70.962C71.6358 69.3496 69.0156 66.8302 69.0156 64.0085C69.0156 60.9852 71.9381 58.365 76.4731 56.7526C79.8995 55.5433 83.4266 54.9386 87.0546 55.0394C90.6825 55.0394 94.2097 55.6441 97.6361 56.7526C102.272 58.365 105.094 61.086 105.094 64.0085Z" fill="#B50303"></path><path fill-rule="evenodd" clip-rule="evenodd" d="M120.109 64.0084C120.109 69.9542 116.28 75.2954 110.032 79.1249L98.5431 70.962C102.473 69.3496 105.094 66.8302 105.094 64.0084H120.109Z" fill="#ECF0F1"></path><path d="M188.683 132.218C188.885 130.606 189.187 128.994 189.187 127.18C189.187 125.366 188.985 123.753 188.683 122.141L198.962 114.885C199.869 114.18 200.373 112.869 199.668 111.66L189.691 94.8305C188.985 93.722 187.877 93.2181 186.768 93.9235L175.381 99.1639C172.66 97.1484 169.939 95.5359 166.714 94.1251L165.605 81.6288C165.404 80.5203 164.497 79.6133 163.288 79.6133H143.737C142.628 79.6133 141.419 80.5203 141.419 81.6288L140.311 94.1251C137.086 95.5359 134.163 97.0476 131.644 99.1639L120.256 93.9235C119.148 93.4196 117.737 93.9235 117.334 94.8305L107.558 111.66C106.853 112.769 107.357 114.18 108.264 114.885L118.543 122.141C118.341 123.753 118.039 125.366 118.039 127.18C118.039 128.994 118.241 130.606 118.543 132.218L107.861 139.474C106.954 140.18 106.45 141.49 107.155 142.699L116.93 159.529C117.636 160.637 118.744 161.141 119.853 160.436L131.241 155.195C133.962 157.211 136.683 158.823 139.907 160.234L141.016 172.731C141.218 173.839 142.125 174.746 143.334 174.746H162.884C163.993 174.746 165.202 173.839 165.202 172.731L166.311 160.234C169.536 158.823 172.458 157.312 174.978 155.195L186.365 160.436C187.474 160.94 188.885 160.436 189.288 159.529L199.063 142.699C199.769 141.591 199.265 140.18 198.358 139.474L188.683 132.218ZM153.21 149.955C140.714 149.955 130.434 139.676 130.434 127.18C130.434 114.683 140.714 104.404 153.21 104.404C165.706 104.404 175.985 114.683 175.985 127.18C175.985 139.676 165.807 149.955 153.21 149.955Z" fill="#607D8B"></path><path d="M153.21 99.97C138.194 99.97 125.899 112.265 125.899 127.28C125.899 142.296 138.194 154.591 153.21 154.591C168.225 154.591 180.52 142.296 180.52 127.28C180.52 112.265 168.225 99.97 153.21 99.97Z" fill="#455A64"></path><path d="M164.598 127.18C164.598 133.529 159.559 138.567 153.21 138.567C146.861 138.567 141.822 133.529 141.822 127.18C141.822 120.831 146.861 115.792 153.21 115.792C159.66 115.893 164.598 120.831 164.598 127.18Z" fill="#FE9A9A"></path></svg> 