<?xml version="1.0" encoding="UTF-8"?> <svg xmlns="http://www.w3.org/2000/svg" width="200" height="200" viewBox="0 0 200 200" fill="none"><g clip-path="url(#clip0)"><path d="M0.000132452 160.565L0.000137329 49L200 49L200 160.565L0.000132452 160.565Z" fill="#35A872"></path><path d="M55.8329 104.85C55.8329 130.554 76.6639 151.391 102.36 151.391C128.056 151.391 148.887 130.554 148.887 104.85C148.887 79.1454 128.056 58.3081 102.36 58.3081C76.6639 58.3081 55.8329 79.1454 55.8329 104.85Z" fill="#3DC285"></path><path d="M102.36 72.2026C104.922 72.2026 106.945 74.2262 106.945 76.7893L106.945 81.376L111.531 81.376C114.093 81.376 116.116 83.3996 116.116 85.9627C116.116 88.5259 114.093 90.5494 111.531 90.5494L102.225 90.5494C99.6628 90.5494 97.6399 92.573 97.6399 95.1361C97.6399 97.6993 99.6628 99.7228 102.225 99.7228C109.912 99.7228 116.116 105.928 116.116 113.753C116.116 119.688 112.34 124.95 106.811 126.838L106.811 132.234C106.811 134.798 104.788 136.821 102.225 136.821C99.6628 136.821 97.6399 134.798 97.6399 132.234L97.6399 127.648L93.0546 127.648C90.4922 127.648 88.4693 125.624 88.4693 123.061C88.4693 120.498 90.4922 118.474 93.0546 118.474L102.36 118.474C104.922 118.474 106.945 116.451 106.945 113.888C106.945 111.324 104.922 109.301 102.36 109.301C94.673 109.301 88.4693 103.095 88.4693 95.271C88.4693 89.3353 92.2455 84.0741 97.7748 82.1854L97.7748 76.7893C97.6399 74.3611 99.7977 72.2026 102.36 72.2026Z" fill="#35A872"></path><path d="M41.8071 49C41.8071 72.0684 23.0614 90.8199 1.34308e-05 90.8199L1.52588e-05 49L41.8071 49Z" fill="#3DC285"></path><path d="M200 49L200 90.8199C176.938 90.8199 158.193 72.0684 158.193 49L200 49Z" fill="#3DC285"></path><path d="M200 118.745L200 160.565L158.193 160.565C158.193 137.497 176.939 118.745 200 118.745Z" fill="#3DC285"></path><path d="M0.000488281 118.745L0.000486453 160.565L41.8076 160.565C41.8076 137.497 23.0618 118.745 0.000488281 118.745Z" fill="#3DC285"></path><path d="M129.137 184.926H168.83C169.875 184.926 170.745 185.797 170.745 186.841V195.372C170.745 196.416 169.875 197.287 168.83 197.287H129.137C128.093 197.287 127.222 196.416 127.222 195.372V186.841C127.222 185.797 128.093 184.926 129.137 184.926Z" fill="#FFB632"></path><path d="M123.915 172.741H163.608C164.653 172.741 165.523 173.612 165.523 174.656V183.187C165.523 184.231 164.653 185.102 163.608 185.102H123.915C122.87 185.102 122 184.231 122 183.187V174.656C122 173.612 122.87 172.741 123.915 172.741Z" fill="#FFD33A"></path><path d="M130.878 160.556H170.571C171.615 160.556 172.486 161.427 172.486 162.471V171.002C172.486 172.046 171.615 172.917 170.571 172.917H130.878C129.833 172.917 128.963 172.046 128.963 171.002V162.471C128.963 161.427 129.833 160.556 130.878 160.556Z" fill="#FFB632"></path><path d="M123.915 148.37H163.608C164.653 148.37 165.523 149.241 165.523 150.285V158.816C165.523 159.86 164.653 160.731 163.608 160.731H123.915C122.87 160.731 122 159.86 122 158.816V150.285C122 149.241 122.87 148.37 123.915 148.37Z" fill="#FFD33A"></path><path d="M174.924 196.945C186.942 196.945 196.685 187.202 196.685 175.183C196.685 163.165 186.942 153.422 174.924 153.422C162.905 153.422 153.162 163.165 153.162 175.183C153.162 187.202 162.905 196.945 174.924 196.945Z" fill="#FFD33A"></path><path d="M177.187 200.078C176.491 200.078 175.794 200.252 174.924 200.252C161.171 200.252 150.029 189.11 150.029 175.357C150.029 161.603 161.171 150.461 174.924 150.461C188.677 150.461 199.819 161.603 199.819 175.357C199.819 188.065 189.896 198.859 177.187 200.078ZM173.357 156.555C163.086 157.425 155.426 166.478 156.296 176.749C157.167 186.324 165.175 193.81 174.924 193.81C175.446 193.81 175.968 193.81 176.491 193.81C186.066 192.94 193.552 184.932 193.552 175.182C193.552 164.911 185.195 156.555 174.924 156.555C174.402 156.555 173.879 156.555 173.357 156.555Z" fill="#FFB632"></path><path d="M132.619 136.186H172.312C173.356 136.186 174.227 137.056 174.227 138.101V146.631C174.227 147.676 173.356 148.546 172.312 148.546H132.619C131.574 148.546 130.704 147.676 130.704 146.631V138.101C130.704 137.056 131.574 136.186 132.619 136.186Z" fill="#FFB632"></path><path d="M123.915 124H163.608C164.653 124 165.523 124.87 165.523 125.915V134.446C165.523 135.49 164.653 136.361 163.608 136.361H123.915C122.87 136.361 122 135.49 122 134.446V125.915C122 124.87 122.87 124 123.915 124Z" fill="#FFD33A"></path><path d="M182.534 180.977C183.041 179.083 182.509 177.152 181.291 175.789C182.122 175.115 182.757 174.183 183.055 173.072C183.569 171.154 182.948 169.195 181.606 167.91L182.098 166.071C182.319 165.247 181.83 164.4 181.006 164.179C180.182 163.959 179.335 164.447 179.115 165.272L178.789 166.487L176.988 166.005L177.314 164.789C177.535 163.965 177.046 163.118 176.222 162.897C175.398 162.676 174.551 163.165 174.33 163.989L174.004 165.205L172.251 164.735C171.427 164.515 170.58 165.004 170.359 165.828C170.138 166.652 170.627 167.498 171.451 167.719L171.966 167.857L170.444 173.537L168.744 179.884L168.229 179.746C167.405 179.525 166.558 180.014 166.337 180.838C166.116 181.662 166.605 182.509 167.429 182.73L169.183 183.199L168.857 184.415C168.636 185.239 169.125 186.086 169.949 186.307C170.773 186.528 171.62 186.039 171.841 185.215L172.167 183.999L173.967 184.482L173.641 185.697C173.421 186.521 173.91 187.368 174.734 187.589C175.558 187.81 176.405 187.321 176.625 186.497L176.992 185.127C179.515 185.185 181.852 183.52 182.534 180.977ZM174.95 168.657L178.538 169.618C179.693 169.928 180.38 171.118 180.071 172.273C179.761 173.427 178.571 174.115 177.416 173.806L173.828 172.844L174.95 168.657ZM176.472 181.954L171.728 180.683L173.029 175.828L176.616 176.79L177.773 177.1C179.111 177.458 179.908 178.839 179.55 180.177C179.191 181.516 177.81 182.313 176.472 181.954Z" fill="#FFB632"></path><path d="M174.11 48.9434C173.149 48.7089 172.431 47.928 172.297 46.9704C171.77 43.2039 170.425 33.5854 169.589 27.6086C169.474 26.7877 168.29 26.8019 168.175 27.6228L165.469 46.9701C165.335 47.9275 164.623 48.7074 163.662 48.9418C161.236 49.5335 156.566 50.6719 153.545 51.4079C152.818 51.5851 152.818 52.6152 153.545 52.7924C156.566 53.5287 161.235 54.6666 163.662 55.258C164.624 55.4921 165.336 56.272 165.469 57.2296L168.175 76.5762C168.29 77.3971 169.476 77.3971 169.591 76.5762L172.297 57.2294C172.431 56.272 173.143 55.4921 174.104 55.2577C176.53 54.6663 181.2 53.5282 184.22 52.7921C184.947 52.6149 184.939 51.5828 184.211 51.4056L174.11 48.9434Z" fill="#FFF082"></path><path d="M165.47 57.2301L168.175 76.5766C168.29 77.3976 169.476 77.3976 169.591 76.5766L172.127 58.4474C168.32 54.233 166.494 49.1974 165.641 45.7422L165.47 46.9709C165.336 47.9282 164.624 48.7081 163.663 48.9425C161.236 49.5342 156.567 50.6723 153.546 51.4086C152.819 51.5858 152.819 52.6159 153.546 52.7931C156.566 53.5294 161.236 54.6675 163.662 55.2587C164.624 55.4926 165.336 56.2725 165.47 57.2301Z" fill="#FFDC64"></path><path d="M26.3082 135.281C26.4575 136.376 27.2584 137.269 28.3302 137.537L40.5669 140.596C41.14 140.74 41.1465 141.552 40.5734 141.696C37.3258 142.508 31.3052 144.013 28.3233 144.758C27.2513 145.026 26.4575 145.918 26.3081 147.013L23.0641 170.802C22.9748 171.457 22.0289 171.457 21.9396 170.802L18.6957 147.013C18.5463 145.919 17.7524 145.027 16.6802 144.759C13.6981 144.013 7.67739 142.508 4.42985 141.697C3.85672 141.553 3.85672 140.742 4.42985 140.599C7.6777 139.787 13.6987 138.281 16.6806 137.536C17.7525 137.268 18.5463 136.376 18.6956 135.281L21.9396 111.492C22.0289 110.837 22.9747 110.836 23.0639 111.49C24.0737 118.894 26.1084 133.816 26.3082 135.281Z" fill="#FFC850"></path><path d="M23.0643 170.802L25.9223 149.843C22.8234 143.559 20.5319 137.039 19.0892 132.396L18.6958 135.281C18.5464 136.376 17.7528 137.267 16.6809 137.535C13.699 138.281 7.67779 139.787 4.43009 140.599C3.85696 140.742 3.85696 141.553 4.43009 141.696C7.67779 142.508 13.6984 144.013 16.6804 144.758C17.7526 145.026 18.5466 145.918 18.696 147.013L21.9398 170.802C22.0289 171.456 22.9751 171.456 23.0643 170.802Z" fill="#EBAF4B"></path></g><defs><clipPath id="clip0"><rect width="200" height="200" fill="white"></rect></clipPath></defs></svg> 