<?xml version="1.0" encoding="UTF-8"?> <svg xmlns="http://www.w3.org/2000/svg" width="200" height="197" viewBox="0 0 200 197" fill="none"><g clip-path="url(#clip0)"><path d="M26.4786 106.81H49.2808C49.8809 106.81 50.3809 107.31 50.3809 107.91V112.811C50.3809 113.411 49.8809 113.911 49.2808 113.911H26.4786C25.8786 113.911 25.3785 113.411 25.3785 112.811V107.91C25.3785 107.31 25.8786 106.81 26.4786 106.81Z" fill="#FFB632"></path><path d="M22.8783 99.6095H45.6805C46.2805 99.6095 46.7806 100.11 46.7806 100.71V105.61C46.7806 106.21 46.2805 106.71 45.6805 106.71H22.8783C22.2782 106.71 21.7782 106.21 21.7782 105.61V100.71C21.7782 100.11 22.2782 99.6095 22.8783 99.6095Z" fill="#FFD33A"></path><path d="M26.4786 92.5088H49.2808C49.8809 92.5088 50.3809 93.0088 50.3809 93.6089V98.5094C50.3809 99.1094 49.8809 99.6095 49.2808 99.6095H26.4786C25.8786 99.6095 25.3785 99.1094 25.3785 98.5094V93.6089C25.3785 93.0088 25.8786 92.5088 26.4786 92.5088Z" fill="#FFB632"></path><path d="M22.8783 85.3082H45.6805C46.2805 85.3082 46.7806 85.8083 46.7806 86.4083V91.3088C46.7806 91.9089 46.2805 92.4089 45.6805 92.4089H22.8783C22.2782 92.4089 21.7782 91.9089 21.7782 91.3088V86.4083C21.7782 85.8083 22.2782 85.3082 22.8783 85.3082Z" fill="#FFD33A"></path><path d="M52.1812 114.011C59.0854 114.011 64.6824 108.414 64.6824 101.51C64.6824 94.6054 59.0854 89.0084 52.1812 89.0084C45.277 89.0084 39.68 94.6054 39.68 101.51C39.68 108.414 45.277 114.011 52.1812 114.011Z" fill="#FFD33A"></path><path d="M53.4812 115.711C53.0811 115.711 52.6811 115.811 52.1811 115.811C44.2803 115.811 37.8797 109.41 37.8797 101.51C37.8797 93.6089 44.2803 87.2083 52.1811 87.2083C60.0818 87.2083 66.4824 93.6089 66.4824 101.51C66.4824 108.91 60.7819 115.111 53.4812 115.711ZM51.281 90.8086C45.3804 91.3086 40.98 96.5091 41.48 102.41C41.9801 107.91 46.5805 112.211 52.1811 112.211C52.4811 112.211 52.7811 112.211 53.0811 112.211C58.5817 111.711 62.8821 107.11 62.8821 101.51C62.8821 95.6091 58.0816 90.8086 52.1811 90.8086C51.881 90.7086 51.581 90.7086 51.281 90.8086Z" fill="#FFB632"></path><path d="M28.2789 78.2074H51.081C51.6811 78.2074 52.1811 78.7075 52.1811 79.3075V84.208C52.1811 84.808 51.6811 85.3081 51.081 85.3081H28.2789C27.6788 85.3081 27.1788 84.808 27.1788 84.208V79.3075C27.1788 78.7075 27.6788 78.2074 28.2789 78.2074Z" fill="#FFB632"></path><path d="M22.8783 71.0068H45.6805C46.2805 71.0068 46.7806 71.5069 46.7806 72.1069V77.0074C46.7806 77.6075 46.2805 78.1075 45.6805 78.1075H22.8783C22.2782 78.1075 21.7782 77.6075 21.7782 77.0074V72.1069C21.7782 71.5069 22.2782 71.0068 22.8783 71.0068Z" fill="#FFD33A"></path><path d="M56.2815 103.61C56.2815 104.51 55.9815 105.21 55.4814 105.71C54.9814 106.31 54.2813 106.61 53.3812 106.81V108.51H51.3811V106.81C50.1809 106.61 49.1808 106.01 48.2808 105.11L49.7809 103.21C50.581 104.01 51.4811 104.41 52.4812 104.41C52.7812 104.41 52.9812 104.31 53.1812 104.21C53.3812 104.11 53.4813 103.91 53.4813 103.71C53.4813 103.51 53.3812 103.31 53.1812 103.11C52.9812 102.91 52.5812 102.81 51.9811 102.61C51.5811 102.51 51.181 102.41 50.881 102.21C50.581 102.11 50.281 101.91 49.9809 101.81C49.6809 101.61 49.3809 101.41 49.1808 101.21C48.9808 101.01 48.8808 100.71 48.6808 100.41C48.5808 100.11 48.4808 99.7095 48.4808 99.3094C48.4808 98.5094 48.7808 97.8093 49.2809 97.2092C49.7809 96.6092 50.481 96.3091 51.3811 96.1091V94.309H53.3812V96.2091C54.3813 96.4092 55.2814 96.9092 56.0815 97.5093L54.5814 99.3094C53.7813 98.7094 52.9812 98.4093 52.2811 98.4093C51.5811 98.4093 51.281 98.6094 51.281 99.0094C51.281 99.4094 51.7811 99.7095 52.6812 100.009C53.2812 100.21 53.7813 100.41 54.1813 100.51C54.5814 100.71 54.8814 100.91 55.2814 101.11C55.5815 101.41 55.8815 101.71 55.9815 102.01C56.1815 102.61 56.2815 103.11 56.2815 103.61Z" fill="#FFB632"></path><path d="M148.19 134.113H170.992C171.592 134.113 172.092 134.613 172.092 135.213V140.113C172.092 140.713 171.592 141.213 170.992 141.213H148.19C147.59 141.213 147.09 140.713 147.09 140.113V135.213C147.09 134.613 147.59 134.113 148.19 134.113Z" fill="#FFB632"></path><path d="M144.59 127.012H167.392C167.992 127.012 168.492 127.512 168.492 128.112V133.013C168.492 133.613 167.992 134.113 167.392 134.113H144.59C143.99 134.113 143.49 133.613 143.49 133.013V128.112C143.49 127.512 143.99 127.012 144.59 127.012Z" fill="#FFD33A"></path><path d="M148.19 119.811H170.992C171.592 119.811 172.092 120.311 172.092 120.912V125.812C172.092 126.412 171.592 126.912 170.992 126.912H148.19C147.59 126.912 147.09 126.412 147.09 125.812V120.912C147.09 120.311 147.59 119.811 148.19 119.811Z" fill="#FFB632"></path><path d="M144.59 112.711H167.392C167.992 112.711 168.492 113.211 168.492 113.811V118.711C168.492 119.311 167.992 119.811 167.392 119.811H144.59C143.99 119.811 143.49 119.311 143.49 118.711V113.811C143.49 113.211 143.99 112.711 144.59 112.711Z" fill="#FFD33A"></path><path d="M173.893 141.313C180.797 141.313 186.394 135.716 186.394 128.812C186.394 121.908 180.797 116.311 173.893 116.311C166.988 116.311 161.391 121.908 161.391 128.812C161.391 135.716 166.988 141.313 173.893 141.313Z" fill="#FFD33A"></path><path d="M175.193 143.114C174.793 143.114 174.393 143.214 173.893 143.214C165.992 143.214 159.591 136.813 159.591 128.912C159.591 121.011 165.992 114.611 173.893 114.611C181.793 114.611 188.194 121.011 188.194 128.912C188.194 136.213 182.493 142.413 175.193 143.114ZM172.993 118.111C167.092 118.611 162.692 123.812 163.192 129.712C163.692 135.213 168.292 139.513 173.893 139.513C174.193 139.513 174.493 139.513 174.793 139.513C180.293 139.013 184.594 134.413 184.594 128.812C184.594 122.912 179.793 118.111 173.893 118.111C173.593 118.111 173.293 118.111 172.993 118.111Z" fill="#FFB632"></path><path d="M149.99 105.51H172.793C173.393 105.51 173.893 106.01 173.893 106.61V111.511C173.893 112.111 173.393 112.611 172.793 112.611H149.99C149.39 112.611 148.89 112.111 148.89 111.511V106.61C148.89 106.01 149.39 105.51 149.99 105.51Z" fill="#FFB632"></path><path d="M144.59 98.4094H167.392C167.992 98.4094 168.492 98.9095 168.492 99.5095V104.41C168.492 105.01 167.992 105.51 167.392 105.51H144.59C143.99 105.51 143.49 105.01 143.49 104.41V99.5095C143.49 98.9095 143.99 98.4094 144.59 98.4094Z" fill="#FFD33A"></path><path d="M177.993 130.912C177.993 131.813 177.693 132.513 177.193 133.013C176.693 133.613 175.993 133.913 175.093 134.113V135.813H173.093V134.113C171.892 133.913 170.892 133.313 169.992 132.413L171.492 130.512C172.293 131.312 173.193 131.713 174.193 131.713C174.493 131.713 174.693 131.613 174.893 131.513C175.093 131.413 175.193 131.212 175.193 131.012C175.193 130.812 175.093 130.612 174.893 130.412C174.693 130.212 174.293 130.112 173.693 129.912C173.293 129.812 172.893 129.712 172.593 129.512C172.293 129.412 171.993 129.212 171.692 129.112C171.392 128.912 171.092 128.712 170.892 128.512C170.692 128.312 170.592 128.012 170.392 127.712C170.292 127.412 170.192 127.012 170.192 126.612C170.192 125.812 170.492 125.112 170.992 124.512C171.492 123.912 172.193 123.612 173.093 123.412V121.612H175.093V123.512C176.093 123.712 176.993 124.212 177.793 124.812L176.293 126.612C175.493 126.012 174.693 125.712 173.993 125.712C173.293 125.712 172.993 125.912 172.993 126.312C172.993 126.712 173.493 127.012 174.393 127.312C174.993 127.512 175.493 127.712 175.893 127.812C176.293 128.012 176.593 128.212 176.993 128.412C177.293 128.712 177.593 129.012 177.693 129.312C177.893 130.012 177.993 130.412 177.993 130.912Z" fill="#FFB632"></path><path d="M158.691 64.6062C157.991 64.4061 157.491 64.1061 156.991 63.6061C152.09 58.3056 145.59 54.5052 138.589 52.805L63.5821 35.0034C56.4814 33.3032 49.0807 33.7032 42.2801 36.3035C41.18 36.7035 39.8799 36.5035 38.9798 35.7034L27.3787 26.0025L31.6791 20.802L41.78 29.3028C49.3808 26.9026 57.3815 26.6026 65.0822 28.4027L139.989 46.3044C147.69 48.1046 154.791 52.105 160.491 57.6055L173.393 54.6052L174.893 61.2058L160.191 64.6062C159.791 64.8062 159.191 64.8062 158.691 64.6062Z" fill="black"></path><path d="M148.39 195.119H53.7812C53.7812 187.618 59.8818 181.617 67.2825 181.617H134.889C142.39 181.517 148.39 187.618 148.39 195.119Z" fill="#CD0303"></path><path d="M121.388 182.517H80.7838L94.2851 169.016H107.886L121.388 182.517Z" fill="#CD0303"></path><path d="M134.889 181.517H107.886C115.387 181.517 121.388 187.618 121.388 195.018H148.39C148.39 187.618 142.39 181.517 134.889 181.517Z" fill="#AB0303"></path><path d="M107.786 27.0026H94.2852V169.016H107.786V27.0026Z" fill="black"></path><path d="M107.886 27.0026H94.2851L90.7847 13.1012C89.3846 7.4007 92.7849 1.70016 98.4855 0.300028C99.3855 0.10001 100.186 0 101.086 0C106.886 0 111.687 4.70045 111.687 10.601C111.687 11.5011 111.587 12.3012 111.387 13.2013L107.886 27.0026Z" fill="#CD0303"></path><path d="M101.086 0C99.9856 0 98.9855 0.200019 97.8854 0.500047C103.186 2.20021 106.286 7.70073 104.986 13.1012L101.486 27.0026H107.786L111.287 13.1012C112.687 7.4007 109.286 1.70016 103.586 0.300028C102.786 0.10001 101.986 0 101.086 0Z" fill="#AB0303"></path><path d="M117.987 23.7021H84.1841V30.5028H117.987V23.7021Z" fill="#CD0303"></path><path d="M72.983 108.31L40.2799 37.0036L7.57684 108.31C6.77676 110.01 4.77658 110.711 3.07641 110.01C1.37625 109.21 0.676187 107.21 1.37625 105.51L37.1796 27.4026C37.9797 25.7025 39.9799 25.0024 41.6801 25.7025C42.3801 26.0025 42.9802 26.6026 43.3802 27.4026L79.0836 105.51C79.8837 107.21 79.0836 109.21 77.3835 110.01C75.6833 110.811 73.6831 110.01 72.983 108.31Z" fill="#EBEBEB"></path><path d="M194.595 135.713L161.891 64.3061L129.188 135.713C128.388 137.413 126.388 138.113 124.688 137.413C122.988 136.613 122.288 134.613 122.988 132.913L158.791 54.8052C159.591 53.1051 161.591 52.405 163.292 53.1051C163.992 53.4051 164.592 54.0052 164.992 54.8052L200.795 132.913C201.595 134.613 200.795 136.613 199.095 137.413C197.395 138.113 195.395 137.313 194.595 135.713Z" fill="#EBEBEB"></path><path d="M124.788 137.313H199.095C199.095 148.514 189.994 157.615 178.793 157.615H144.99C133.789 157.615 124.788 148.514 124.788 137.313Z" fill="#CD0303"></path><path d="M178.793 137.313C178.793 148.514 169.692 157.615 158.491 157.615H178.793C189.994 157.615 199.095 148.514 199.095 137.313H178.793Z" fill="#AB0303"></path><path d="M3.07642 110.01H77.4835C77.4835 121.212 68.3826 130.312 57.1816 130.312H23.3783C12.1773 130.312 3.07642 121.212 3.07642 110.01Z" fill="#CD0303"></path><path d="M57.1816 110.01C57.1816 121.212 48.0807 130.312 36.8796 130.312H57.1816C68.3826 130.312 77.4835 121.212 77.4835 110.01H57.1816Z" fill="#AB0303"></path></g><defs><clipPath id="clip0"><rect width="200" height="196.1" fill="white"></rect></clipPath></defs></svg> 