<?xml version="1.0" encoding="UTF-8"?> <svg xmlns="http://www.w3.org/2000/svg" width="200" height="200" viewBox="0 0 200 200" fill="none"><g clip-path="url(#clip0)"><path d="M138.789 62.0679C138.789 56.7376 134.422 52.3706 129.092 52.3706H124.275V98.4165H138.789V62.0679Z" fill="#E0B999"></path><path d="M163 49.9312H37V23.2798H163V49.9312Z" fill="#C3C6C7"></path><path d="M129.091 37.7935H70.908V129.885H129.091V37.7935Z" fill="#35A872"></path><path d="M99.9998 100.793C113.371 100.793 124.211 89.953 124.211 76.5816C124.211 63.2102 113.371 52.3706 99.9998 52.3706C86.6285 52.3706 75.7888 63.2102 75.7888 76.5816C75.7888 89.953 86.6285 100.793 99.9998 100.793Z" fill="#3DC285"></path><path d="M83.0454 76.5823C83.0454 75.2337 84.1372 74.142 85.4858 74.142H87.9261V71.7016C87.9261 70.353 89.0179 69.2612 90.3665 69.2612C91.7151 69.2612 92.8069 70.353 92.8069 71.7016V76.5823C92.8069 77.931 93.8986 79.0227 95.2472 79.0227C96.5959 79.0227 97.6876 77.931 97.6876 76.5823C97.6876 72.5365 100.963 69.3254 104.944 69.3254C108.027 69.3254 110.789 71.2521 111.816 74.142H114.642C115.99 74.142 117.082 75.2337 117.082 76.5823C117.082 77.931 115.99 79.0227 114.642 79.0227H112.137V81.4631C112.137 82.8117 111.045 83.9034 109.697 83.9034C108.348 83.9034 107.256 82.8117 107.256 81.4631V76.5823C107.256 75.2337 106.165 74.142 104.816 74.142C103.467 74.142 102.376 75.2337 102.376 76.5823C102.376 80.6282 99.1005 83.8392 95.1188 83.8392C92.0362 83.8392 89.2748 81.9126 88.2472 79.0227H85.4216C84.1372 79.0227 83.0454 77.931 83.0454 76.5823Z" fill="#35A872"></path><path d="M70.908 108.115C82.9814 108.115 92.7428 117.876 92.7428 129.95H70.908V108.115Z" fill="#3DC285"></path><path d="M89.0847 37.7935C87.8645 39.6558 86.3875 41.2613 84.6535 42.61C80.9287 45.6283 76.1122 47.4265 70.9746 47.4265V37.7935H89.0847Z" fill="#3DC285"></path><path d="M129.092 37.7935V47.4907C123.89 47.4907 119.137 45.6925 115.413 42.6742C113.679 41.3256 112.202 39.6558 110.981 37.8577H129.092V37.7935Z" fill="#3DC285"></path><path d="M85 140H141V178H85V140Z" fill="#F5F5F5"></path><path d="M39.4402 79.023L49.1374 62.0688L58.8347 79.023H54.0182V112.931H44.2567V79.023H39.4402Z" fill="#35A872"></path><path d="M163 30.5361V35.3526H141.165V40.1692C141.165 41.5178 140.073 42.6095 138.725 42.6095H61.211C59.8624 42.6095 58.7706 41.5178 58.7706 40.1692V35.3526H37V30.5361H61.211C62.5596 30.5361 63.6514 31.6279 63.6514 32.9765V37.793H136.349V32.9765C136.349 31.6279 137.44 30.5361 138.789 30.5361H163Z" fill="#9AA3A8"></path><path d="M138.789 139.583V129.885L143.605 100.794L125.816 78.3164C124.275 76.3898 121.578 75.8119 119.33 76.9036C117.082 78.0596 115.991 80.6926 116.761 83.133L124.147 105.61C113.422 105.61 104.752 114.28 104.752 125.005V129.821H87.8623V139.518H138.789V139.583Z" fill="#F0C6A4"></path><path d="M178.164 38.4766C175.937 35.3121 173.242 32.3824 170.43 29.5703C167.617 26.7582 164.688 24.0621 161.523 21.8355C144.062 7.89062 122.617 0 100 0C73.398 0 48.4371 10.7031 29.5703 29.5703C10.7035 48.4375 0 73.398 0 100C0 122.734 7.89063 144.179 21.8363 161.641C24.1801 164.687 26.7578 167.616 29.5703 170.43C32.3828 173.242 35.3125 175.82 38.3594 178.164C55.8199 192.109 77.2656 200 100 200C126.602 200 151.563 189.297 170.43 170.43C189.297 151.562 200 126.601 200 100C200 77.3828 192.109 55.9375 178.164 38.4766ZM23.8281 100C23.8281 79.6094 31.7969 60.5078 46.0941 46.0934C60.5078 31.7969 79.6094 23.8281 100 23.8281C116.407 23.8281 131.992 28.9844 144.883 38.4766L38.5938 144.882C28.9844 131.992 23.8281 116.406 23.8281 100ZM153.906 153.906C139.492 168.203 120.391 176.172 100 176.172C83.5934 176.172 68.0082 171.016 55.1168 161.406L161.523 55.1172C171.016 68.0074 176.172 83.5934 176.172 100C176.172 120.391 168.203 139.492 153.906 153.906Z" fill="#CD0303"></path><path d="M167.746 176.446C166.937 176.249 166.334 175.592 166.221 174.787C165.778 171.621 164.647 163.536 163.945 158.512C163.848 157.822 162.853 157.833 162.756 158.524L160.482 174.787C160.369 175.592 159.771 176.247 158.963 176.445C156.923 176.942 152.998 177.899 150.459 178.518C149.847 178.667 149.847 179.532 150.459 179.681C152.997 180.3 156.923 181.257 158.962 181.754C159.771 181.951 160.369 182.606 160.482 183.411L162.756 199.674C162.853 200.364 163.85 200.364 163.946 199.674L166.221 183.411C166.334 182.606 166.932 181.951 167.74 181.754C169.78 181.257 173.705 180.3 176.244 179.681C176.855 179.532 176.848 178.665 176.237 178.516L167.746 176.446Z" fill="#FFF082"></path><path d="M160.482 183.412L162.757 199.675C162.853 200.365 163.85 200.365 163.947 199.675L166.078 184.435C162.878 180.892 161.344 176.659 160.627 173.755L160.482 174.788C160.37 175.592 159.771 176.248 158.963 176.445C156.924 176.942 152.998 177.899 150.459 178.518C149.848 178.667 149.848 179.533 150.459 179.682C152.998 180.301 156.923 181.258 158.963 181.755C159.771 181.951 160.37 182.607 160.482 183.412Z" fill="#FFDC64"></path><path d="M180.628 31.6134C179.618 31.371 178.863 30.5628 178.723 29.5723C178.137 25.4522 176.591 14.5635 175.732 8.51658C175.634 7.82608 174.637 7.82868 174.539 8.51918L171.548 29.572C171.408 30.5624 170.66 31.3693 169.65 31.6119C166.945 32.2612 161.588 33.547 158.461 34.2976C157.847 34.445 157.847 35.3144 158.461 35.4618C161.588 36.2124 166.945 37.498 169.649 38.1466C170.66 38.389 171.408 39.1959 171.549 40.1865L174.531 61.1784C174.63 61.8787 175.641 61.8787 175.741 61.1784L178.723 40.1861C178.863 39.1955 179.612 38.3886 180.622 38.1462C183.324 37.4978 188.674 36.2139 191.802 35.4631C192.418 35.3153 192.41 34.4411 191.794 34.2933L180.628 31.6134Z" fill="#FFDC64"></path><path d="M171.817 27.6816L171.548 29.5723C171.408 30.5627 170.66 31.3696 169.649 31.6122C166.945 32.2615 161.588 33.5471 158.46 34.2979C157.847 34.4453 157.847 35.3147 158.46 35.4621C161.588 36.2127 166.945 37.4981 169.649 38.1469C170.66 38.3893 171.408 39.1962 171.549 40.1868L174.53 61.1787C174.63 61.879 175.641 61.879 175.741 61.1787L178.409 42.3929C174.914 37.3907 172.922 31.9107 171.817 27.6816Z" fill="#FFC850"></path><path d="M22.3082 123.281C22.4575 124.376 23.2584 125.269 24.3302 125.537L36.5669 128.596C37.14 128.74 37.1465 129.552 36.5734 129.696C33.3258 130.508 27.3052 132.013 24.3233 132.758C23.2513 133.026 22.4575 133.918 22.3081 135.013L19.0641 158.802C18.9748 159.457 18.0289 159.457 17.9396 158.802L14.6957 135.013C14.5463 133.919 13.7524 133.027 12.6802 132.759C9.69812 132.013 3.67739 130.508 0.429849 129.697C-0.143283 129.553 -0.143283 128.742 0.429849 128.599C3.6777 127.787 9.69873 126.281 12.6806 125.536C13.7525 125.268 14.5463 124.376 14.6956 123.281L17.9396 99.4916C18.0289 98.8372 18.9747 98.8356 19.0639 99.49C20.0737 106.894 22.1084 121.816 22.3082 123.281Z" fill="#FFC850"></path><path d="M19.0643 158.802L21.9223 137.843C18.8234 131.559 16.5319 125.039 15.0892 120.396L14.6958 123.281C14.5464 124.376 13.7528 125.267 12.6809 125.535C9.69897 126.281 3.67779 127.787 0.430093 128.599C-0.143039 128.742 -0.143039 129.553 0.430093 129.696C3.67779 130.508 9.69836 132.013 12.6804 132.758C13.7526 133.026 14.5466 133.918 14.696 135.013L17.9398 158.802C18.0289 159.456 18.9751 159.456 19.0643 158.802Z" fill="#EBAF4B"></path></g><defs><clipPath id="clip0"><rect width="200" height="200" fill="white"></rect></clipPath></defs></svg> 