<?xml version="1.0" encoding="UTF-8"?> <svg xmlns="http://www.w3.org/2000/svg" id="Layer_1" data-name="Layer 1" width="20" height="20" viewBox="0 0 20 20"><defs><style>.cls-1{fill:#6b11c9;fill-rule:evenodd;}</style></defs><title>Artboard 1</title><path class="cls-1" d="M12.4164.2994A9.9979,9.9979,0,0,0,7.58,19.7016L7.58,19.7008A9.9976,9.9976,0,1,0,12.4164.2994ZM5.3335,5.8409A6.97,6.97,0,0,1,6.28,4.9734a6.0047,6.0047,0,0,1,1.75-.9182,6.6459,6.6459,0,0,1,2.2816-.3174,5.992,5.992,0,0,1,1.668.3127,6.6261,6.6261,0,0,1,1.0018.4357c.0382.02.0758.0421.1143.0618a.0381.0381,0,0,1,.0238.04.2475.2475,0,0,0,.0085.0486c-.1143.082-.23.1656-.3462.2484q-1.17.8328-2.3394,1.6656c-.3247.2317-.6466.4671-.97.7a.5735.5735,0,0,1-.095.0565.119.119,0,0,1-.1336-.0188c-.02-.0169-.0379-.0368-.0567-.0554q-.3266-.3243-.6531-.6489c-.036-.0358-.0705-.0731-.1062-.1093a.1922.1922,0,0,0-.2506-.0427,3.9022,3.9022,0,0,0-.825.565,4.4881,4.4881,0,0,0-.6393.7119c-.0316.0436-.0658.0852-.1009.1307-.0925-.12-.1846-.2373-.2742-.3565Q5.8278,6.8057,5.32,6.1274l-.0038-.005C5.2312,6.0048,5.236,5.9476,5.3335,5.8409Zm.79,8.881a.1632.1632,0,0,1-.2469-.0005c-.1085-.0943-.2135-.193-.3153-.2945a6.1888,6.1888,0,0,1-1.0085-1.3121,6.0629,6.0629,0,0,1-.6482-1.6694A6.3381,6.3381,0,0,1,3.7475,9.7a6.0791,6.0791,0,0,1,.4008-1.8775A6.2,6.2,0,0,1,4.546,6.97c.0188-.0332.0414-.0357.0639-.0062l2.775,3.6391.0212.0287a1.1607,1.1607,0,0,1-.0818.1048q-.4218.4311-.8455.86c-.0119.0121-.0237.0243-.0348.037a.1731.1731,0,0,0-.0229.2113,4.1819,4.1819,0,0,0,.4963.7423,4.2832,4.2832,0,0,0,.7164.6761c.0626.0468.13.0876.1945.1313l.0274.02c-.0832.063-.1639.1242-.2448.1852L6.1436,14.7064Zm.7331.6988,3.7721-2.8124c.0576.0551.1129.1072.1672.16q.408.3978.8154.7961c.08.078.1065.0834.2033.0333a4.0093,4.0093,0,0,0,1.4295-1.2118c.0428-.0589.0825-.12.1253-.1793a.2662.2662,0,0,1,.0444-.0381l1.3856,1.8518A6.2465,6.2465,0,0,1,6.8566,15.4207Zm8.7674-2.6492c-.03.0606-.0657.1179-.0983.177-.03.0536-.0587.1075-.0894.1636l-.02-.0249q-.9059-1.191-1.8119-2.3821-.4306-.5655-.8634-1.13a.7475.7475,0,0,1-.0565-.084.146.146,0,0,1,.0139-.1745.5752.5752,0,0,1,.0418-.0477q.39-.3975.7809-.7949c.0119-.0121.0236-.0244.0345-.0373a.1681.1681,0,0,0,.0221-.2028,4.2015,4.2015,0,0,0-1.24-1.4562l-.1912-.1411c.0436-.0366.0857-.0753.131-.11q.7874-.5951,1.5756-1.189c.0178-.0134.035-.0276.0531-.04a.14.14,0,0,1,.1982.0107c.0451.04.0891.0813.133.1226a6.5022,6.5022,0,0,1,1.318,1.716,6.0611,6.0611,0,0,1,.5867,1.6952,6.4658,6.4658,0,0,1,.1188,1.2521A6.1825,6.1825,0,0,1,15.624,12.7715Z"></path></svg> 