<?xml version="1.0" encoding="UTF-8"?> <svg xmlns="http://www.w3.org/2000/svg" width="20" height="20" viewBox="0 0 20 20"><defs><style>.cls-1{fill:#6b11c9;fill-rule:evenodd;}</style></defs><title>Artboard 1 copy</title><g id="Layer_2" data-name="Layer 2"><path class="cls-1" d="M8.1518,11.1193c.0748-.0684.1386-.17.2263-.1987.2337-.0761.304-.26.378-.4606.1188-.3222.2419-.6436.3854-.9551.0459-.0994.1548-.2265.2475-.2379.4184-.0515.5892-.3259.7056-.68.0593-.1807.1534-.35.2194-.5287a.391.391,0,0,0,.0282-.2417c-.13-.3542-.2773-.7022-.3992-1.0046l-1.0309.2678-.02-.08c.9364-.7348,1.2039-1.5574.7242-2.2259-.4721.66-.9416,1.3216-1.4191,1.9775a.7035.7035,0,0,1-.2881.2593c-.0721.0257-.19-.077-.3049-.13-.1425.3926-.2792.7784-.4224,1.1618a1.3075,1.3075,0,0,0,.1,1.1821.9055.9055,0,0,1,.0445.8789l-.2962-.54a2.9562,2.9562,0,0,0-.149.6594A3.6562,3.6562,0,0,1,6.4965,11.85a.9863.9863,0,0,0-.012,1.121.6892.6892,0,0,0,.865.253c.3409-.2705.7052-.5429.7064-1.0521a1.8163,1.8163,0,0,1,.04-.37c.062-.2917.2461-.3727.5136-.2355.3815.1958.3922.37.0794.6476-.27.2394-.5093.5125-.7623.7707l.07.1032a1.9131,1.9131,0,0,0,.5184-.17,4.8725,4.8725,0,0,0,.62-.5529.5989.5989,0,0,0,.1038-.7841A.8956.8956,0,0,0,8.1518,11.1193ZM7.0127,12.376a1.0444,1.0444,0,0,1-.3082.19,1.0043,1.0043,0,0,1-.0262-.3492,1.9747,1.9747,0,0,1,.2109-.3928,1.495,1.495,0,0,1,.1209.27C7.031,12.1866,7.0589,12.3181,7.0127,12.376ZM9.5109,5.4237A.8975.8975,0,0,1,8.8147,6.46Zm-1.6856,4c-.065.0308-.2423-.0561-.29-.1354A1.2546,1.2546,0,0,1,7.45,8.8824l.0653-.0206.1872.23L8.7455,7.56l.038.0189-.1.3435c.495.3429.502.6612.0008,1.0082A6.1139,6.1139,0,0,1,7.8253,9.4234Z"></path><path class="cls-1" d="M6.9423,7.518a1.3966,1.3966,0,0,0-.06-.2808c-.0174-.0413-.092-.064-.1448-.0841Q5.99,6.87,5.2409,6.5913l-.04.0624c.4984.2981.9944.6,1.4986.8884C6.7573,7.575,6.86,7.528,6.9423,7.518Z"></path><path class="cls-1" d="M8.57,8.1874c-.1746.3007-.3361.579-.5327.9178C8.7552,8.7428,8.9069,8.4734,8.57,8.1874Z"></path><path class="cls-1" d="M8.4882,11.7172a.2368.2368,0,0,0-.1737.1371,3.276,3.276,0,0,0-.0705.4811,3.8052,3.8052,0,0,0,.37-.2932c.05-.0511.1-.16.0776-.21A.2567.2567,0,0,0,8.4882,11.7172Z"></path><path class="cls-1" d="M12.4171.3157a9.9979,9.9979,0,0,0-4.836,19.4022L7.58,19.7171A9.9976,9.9976,0,1,0,12.4171.3157Zm4.2851,10.4481-.0785.2091c-.1156-.1328-.2235-.2568-.3824-.4391a5.2584,5.2584,0,0,1-2.2359,4.6486c.05-.29.0907-.5223.1285-.74-.4361.3857-.851.7958-1.3109,1.147a3.5467,3.5467,0,0,1-1.6587.6527l.4632-.5156a5.1733,5.1733,0,0,1-3.54.0647,3.6266,3.6266,0,0,0,2.1947-.479,3.07,3.07,0,0,0,1.4161-1.7383,2.953,2.953,0,0,0-1.1234-3.2928c-.2594.37-.532.7327-.7708,1.1161a.8323.8323,0,0,0-.0716.44,1.0228,1.0228,0,0,1-.3219.8254,5.5918,5.5918,0,0,1-.6891.6041,2.2976,2.2976,0,0,1-.6087.1933c-.1669.05-.3327.1036-.5013.1469a1.5349,1.5349,0,0,1-.4339.0857,1.2964,1.2964,0,0,1-1.3508-1.3524.6167.6167,0,0,1,.096-.3526A4.521,4.521,0,0,0,6.4778,9.91c.0306-.2271.0577-.455.0742-.6834a.68.68,0,0,0-.0251-.3374,1.2134,1.2134,0,0,1-.136-.9362c.0129-.0436-.08-.1359-.1412-.1812Q4.9558,6.82,3.6568,5.8761c-.0741-.0542-.1415-.1177-.212-.1768l.0332-.0659,2.5878.9137a2.0558,2.0558,0,0,1,.4531-2.0445c.0974.2992.1862.5723.2908.8936a2.0777,2.0777,0,0,0,.11-.1872,2.1818,2.1818,0,0,1,1.837-1.4073.7247.7247,0,0,0,.1352-.0438h.23l-.38.6635a5.134,5.134,0,0,1,5.6541.706l-.8529-.0549a.49.49,0,0,0,.2.1738,5.5269,5.5269,0,0,1,2.76,3.5337c.0951.3667.1346.7479.2,1.1224Z"></path><path class="cls-1" d="M12.1969,14.1458a3.6091,3.6091,0,0,0,1.0341-1.5627.8694.8694,0,0,1,.2856-.3631.9434.9434,0,0,0,.1237-1.0562,1.4,1.4,0,0,1-.2654-.5436A4.2414,4.2414,0,0,0,12.7114,9c-.0471.45-.0915.8461-.1273,1.2426a.393.393,0,0,0,.0434.19,3.5284,3.5284,0,0,1-.2884,3.4707Q12.2677,14.0245,12.1969,14.1458Z"></path><path class="cls-1" d="M10.7166,6.1854a.58.58,0,0,0-.3724.0893c-.1517.098-.1128.2512-.05.4063.1534.38.2958.7647.4322,1.1512a.66.66,0,0,1-.4191.788.4283.4283,0,0,0-.2252.2459.6036.6036,0,0,1-.5012.4436c-.1061.0182-.2594.0644-.2947.1418-.1944.4274-.3589.8683-.54,1.32a1.1159,1.1159,0,0,1,.308.0043c.218.0786.3021-.0432.3925-.2083.1329-.2425.2886-.4726.4345-.7079a.6075.6075,0,0,1,.5665-.3039A1.2818,1.2818,0,0,0,11.77,8.4736a1.9123,1.9123,0,0,0-.1069-1.2068c-.03-.0722-.05-.1483-.1005-.2987A2.3271,2.3271,0,0,1,12.5764,8.43a1.6112,1.6112,0,0,0,.2.463,4.5831,4.5831,0,0,1,.7118,1.826.6531.6531,0,0,0,.1391.3006.9252.9252,0,0,1-.1432,1.333.3873.3873,0,0,0-.1411.1709,4.5836,4.5836,0,0,1-1.312,2.01,4.4625,4.4625,0,0,0-1.3147-8.3489Z"></path></g></svg> 