<?xml version="1.0" encoding="UTF-8"?> <svg xmlns="http://www.w3.org/2000/svg" id="Layer_1" data-name="Layer 1" width="20" height="20" viewBox="0 0 20 20"><defs><style>.cls-1{fill:#6b11c9;fill-rule:evenodd;}</style></defs><title>Artboard 1 copy 3</title><path class="cls-1" d="M12.4164.2994A9.9979,9.9979,0,0,0,7.58,19.7016L7.58,19.7008A9.9976,9.9976,0,1,0,12.4164.2994ZM10.376,16.25c-.0614.0164-.1218.0364-.1826.0547H9.8063a1.5114,1.5114,0,0,1-1.2239-1.0927A1.4711,1.4711,0,1,1,10.376,16.25Zm5.248-.1373c-.6544,0-1.3089-.0088-1.963.0052a.3276.3276,0,0,1-.3751-.2582q-1.5678-4.3736-3.1518-8.7411c-.0372-.1028-.0794-.2037-.1379-.3531-.2736.7506-.5324,1.456-.788,2.1625Q7.9559,12.39,6.71,15.8528a.3286.3286,0,0,1-.37.2661c-.7913-.0143-1.5829-.0057-2.42-.0057.0357-.1223.0574-.2155.09-.3049Q6.1531,9.8833,8.2976,3.9588c.0309-.0853.0474-.1759.0706-.264h3.2632c.1405.4162.2732.8352.4227,1.2483Q14.02,10.3757,15.99,15.8067c.03.0842.0511.1719.0906.3065Z"></path></svg> 