<?xml version="1.0" encoding="UTF-8"?> <svg xmlns="http://www.w3.org/2000/svg" id="Layer_1" data-name="Layer 1" width="20" height="20" viewBox="0 0 20 20"><defs><style>.cls-1{fill:#6b11c9;fill-rule:evenodd;}</style></defs><title>Artboard 1 copy 6</title><path class="cls-1" d="M7.5309,10.3969c.1912.3289.3772.64.5675.9689q.9171,1.5871,1.8335,3.1747c.0182.0316.0282.0708.0729.0879.018-.0281.0372-.0556.054-.0846q.5669-.9813,1.1333-1.9629.689-1.19,1.38-2.3795c.0239-.0445.0459-.09.0724-.1332a.1062.1062,0,0,0,.0083-.127c-.1883-.32-.3722-.6428-.558-.9655-.0393.012-.0439.046-.0573.07q-.36.643-.7186,1.2875c-.02.0362-.1418.254-.1825.3273-.37.6659-.7405,1.3311-1.124,2.02L8.79,10.43c-.1094-.1922-.5567-1.0107-.8444-1.5327a8.3435,8.3435,0,0,1-.43.7348C7.3349,9.8808,7.5037,10.32,7.5309,10.3969Z"></path><path class="cls-1" d="M11.1431,7.33c-.1641-.2779-.3231-.559-.4845-.8386-.2164-.3748-.4333-.7491-.6543-1.131a.231.231,0,0,0-.0313.03q-.5577.9573-1.1171,1.9137c-.0221.0376.0047.0413.014.0583q.1611.2966.3235.5924l.8289,1.5168c.02-.0292.036-.0486.0481-.07q.54-.9677,1.08-1.9347A.1166.1166,0,0,0,11.1431,7.33Z"></path><path class="cls-1" d="M12.4164.2994A9.9979,9.9979,0,0,0,7.58,19.7016L7.58,19.7008A9.9976,9.9976,0,1,0,12.4164.2994ZM14.5021,10.06c.03.0457.0528.0965.0786.1449.4893.8457.9827,1.689,1.4659,2.538a.7612.7612,0,0,1-.3168,1.0376.7729.7729,0,0,1-1.0449-.3132q-.5255-.9177-1.0563-1.8321c-.0147-.0256-.031-.05-.0547-.0888-.1258.2171-.2466.4248-.3666.633q-.916,1.5876-1.8318,3.1754a1.693,1.693,0,0,1-1.02.8531,1.4609,1.4609,0,0,1-1.5975-.6417c-.305-.4452-.55-.9278-.8214-1.394-.49-.8434-.9756-1.69-1.4631-2.5345-.0147-.0255-.0309-.05-.0561-.0907-.16.2757-.3143.5411-.4678.8069-.216.3745-.4295.75-.6476,1.1237A.7716.7716,0,0,1,3.86,13.18a.6937.6937,0,0,1,.0879-.4428c.4534-.7878.8952-1.5584,1.35-2.3452.0545-.096.1188-.21.1792-.3025a.1524.1524,0,0,0-.0024-.184Q4.7288,8.6214,3.988,7.3343a.7734.7734,0,1,1,1.31-.82c.3137.5363.6184,1.0778.9281,1.6165.0589.1026.1227.2023.1933.3183.0894-.1534.174-.2975.2575-.4421Q7.46,6.65,8.2437,5.2926a9.9433,9.9433,0,0,1,.5214-.8737,1.5128,1.5128,0,0,1,1.0232-.66,1.4486,1.4486,0,0,1,1.3716.57,4.525,4.525,0,0,1,.4327.6906c.3273.5642.6488,1.1317.9748,1.6966.3059.53.6149,1.0591.9219,1.5889.0246.0425.0443.0879.0709.1413a.3229.3229,0,0,0,.0908-.1251q.5208-.9055,1.04-1.812a.7726.7726,0,0,1,1.13-.2324.7318.7318,0,0,1,.2313.9628c-.1716.3362-.3759.6557-.5645.9832q-.4959.86-.9915,1.7212A.0954.0954,0,0,0,14.5021,10.06Z"></path></svg> 