<?xml version="1.0" encoding="UTF-8"?> <svg xmlns="http://www.w3.org/2000/svg" id="Layer_1" data-name="Layer 1" width="20" height="20" viewBox="0 0 20 20"><defs><style>.cls-1{fill:#6b11c9;fill-rule:evenodd;}</style></defs><title>Artboard 1 copy 7</title><path class="cls-1" d="M10.6691,5.781a.6276.6276,0,0,0-.6837-.5164c-.36.0042-.538.1374-.6756.53-.228.6509-.449,1.3042-.6715,1.957-.0906.2658-.1776.5328-.2735.8209h3.2687C11.3038,7.6166,10.9909,6.6973,10.6691,5.781Z"></path><path class="cls-1" d="M12.4164.2994A9.9979,9.9979,0,0,0,7.58,19.7016L7.58,19.7008A9.9976,9.9976,0,1,0,12.4164.2994ZM4.5681,8.6055c.6533-.0076,1.307-.01,1.96.0012a.3413.3413,0,0,0,.3891-.2733c.3344-1.0049.6881-2.0034,1.0292-3.0061a2.1515,2.1515,0,0,1,3.493-.9748,2.448,2.448,0,0,1,.6431,1.0859c.3261.9681.667,1.9312.9918,2.9a.3423.3423,0,0,0,.3929.2666c.6247-.0141,1.25-.0064,1.8749-.0039.5129.002.8381.2826.842.72.0038.4427-.3167.7232-.8329.7235-1.78.0009-8.9208.0028-10.7107.0007-.5138-.0006-.8328-.2848-.83-.727A.7106.7106,0,0,1,4.5681,8.6055Zm11.5787,3.67a.673.673,0,0,1-.6281.4944c-.2806.017-.5631.0036-.9026.0036.1843.5421.35,1.031.5163,1.52.1067.3135.2178.6256.32.9406a.7.7,0,0,1-.4295.9216.7082.7082,0,0,1-.9184-.4436c-.3055-.8556-.6055-1.7137-.8836-2.5785a.4394.4394,0,0,0-.5025-.3607q-2.7287.0207-5.4574.0021a.421.421,0,0,0-.4822.3416c-.2765.8551-.5812,1.7012-.88,2.5492a.7183.7183,0,0,1-.9118.4994.726.726,0,0,1-.44-.97c.2395-.7081.4875-1.4133.731-2.12.0271-.0786.0485-.1593.09-.2976-.2923,0-.5375.003-.7826-.0007a.7088.7088,0,0,1-.7762-.7189.7164.7164,0,0,1,.7846-.7192c1.7433-.0047,3.4866-.002,5.23-.0022,1.8286,0,3.6572-.0064,5.4857.0079a1.1741,1.1741,0,0,1,.6281.1907A.6135.6135,0,0,1,16.1468,12.2759Z"></path></svg> 