<?xml version="1.0" encoding="UTF-8"?> <svg xmlns="http://www.w3.org/2000/svg" id="Layer_1" data-name="Layer 1" width="20" height="20" viewBox="0 0 20 20"><defs><style>.cls-1{fill:#6b11c9;fill-rule:evenodd;}</style></defs><title>Artboard 1 copy 144</title><path class="cls-1" d="M10.6566,5.8159a1.2586,1.2586,0,0,0-1.0541.24.1639.1639,0,1,0,.2012.2587,1.5492,1.5492,0,0,1,.24-.1342.0533.0533,0,0,1,.0575.0863.8067.8067,0,0,1-.0767.115c0,.01-.01.01-.01.0191l-.01.01a.0094.0094,0,0,0-.01.01c-.01.01-.01.0192-.0191.0288l-.01.01c0,.01-.01.01-.01.0192-.0287.0479-.0575.0958-.0958.1533-.01.01-.01.0192-.0192.0288a.073.073,0,0,1-.0191.0383c-.0767.1342-.1534.2683-.2013.3546a1.7328,1.7328,0,0,0-.067,1.0253.0617.0617,0,0,1-.0863.0671.32.32,0,0,1-.1533-.1437V7.9625a2.7609,2.7609,0,0,0-.0288-.3833V7.57a.6739.6739,0,0,1,0-.2395V7.3108c.0671-.3162.0863-.4025.0959-.4216a.1707.1707,0,0,0-.0767-.2109.1578.1578,0,0,0-.22.0671,3.73,3.73,0,0,0-.115.4983v.0192a1.3024,1.3024,0,0,0,0,.3354v.01a2.2259,2.2259,0,0,1,.0288.345.3464.3464,0,0,0,.0287.1629c.1438.3354.5558.412.7858.45a2.8407,2.8407,0,0,0,.3737.0383,1.0618,1.0618,0,0,0,.7092-.23,1.6118,1.6118,0,0,0,.3162-.45,1.6742,1.6742,0,0,0,.3354-.8625,1.24,1.24,0,0,0-.24-.7378A1.1873,1.1873,0,0,0,10.6566,5.8159Z"></path><path class="cls-1" d="M7.8105,9.0644c0-.0095-.01-.0095-.0192-.0191a.4163.4163,0,0,0-.0671-.0575.8266.8266,0,0,0-.182-.1054l-.0192-.01L7.4655,8.844c-.0192-.0095-.0287-.0095-.0479-.0191s-.0288-.01-.0383-.0192c-.01,0-.01-.01-.0192-.01A.9792.9792,0,0,0,7.14,8.72a1.622,1.622,0,0,0-.3354-.0575.9921.9921,0,0,0-.2971.01c-.0191.01-.0383.01-.0574.0191-.01,0-.0192.01-.0288.01a.2422.2422,0,0,0-.0671.0383l-.0191.0192-.0192.0192c-.0192.0191-.0287.0383-.0479.0575a.9885.9885,0,0,0-.1342.4408,2.8636,2.8636,0,0,1-.0575.3162.55.55,0,0,0-.0192.0959,1.11,1.11,0,0,1-.0383.1341c0,.01-.01.0192-.01.0288a.37.37,0,0,0-.0383.0862.4663.4663,0,0,0-.0288.0671c0,.01-.01.0192-.01.0287-.01.0288-.0287.0575-.0383.0863a.6673.6673,0,0,0-.0383.4791c0,.01.01.0288.01.0383a.5016.5016,0,0,0,.1245.2013.7676.7676,0,0,0,.2876.1725h.0191a.0355.0355,0,0,0,.0288.0095h.0287A2.3068,2.3068,0,0,0,7.983,9.64.5323.5323,0,0,0,7.83,9.0836Zm-1.15.0959a1.1282,1.1282,0,0,0-.1246.5462.5018.5018,0,0,1-.0192.1725.51.51,0,0,1-.0575.1342,1.2,1.2,0,0,0-.1245.6612.6.6,0,0,1-.1629-.1246c0-.0192-.01-.0287-.01-.0479a.4113.4113,0,0,1,.0192-.2779,1.64,1.64,0,0,0,.1821-.527c0-.0192.01-.0384.01-.0672a3.2241,3.2241,0,0,0,.0575-.345.6918.6918,0,0,1,.0862-.3066C6.536,8.95,6.5839,8.94,6.651,8.94a.3587.3587,0,0,1,.0958.01h.01l.0287.0095A1.0767,1.0767,0,0,0,6.6606,9.16Z"></path><path class="cls-1" d="M8.3855,5.7776a.764.764,0,0,0-.4888-.1533.864.864,0,0,0-.2683.0383c-.0383.0192-.0767.0287-.115.0479a.542.542,0,0,0-.0766.0479.375.375,0,0,0-.0959.0767,1.0086,1.0086,0,0,0-.23.45,2.9425,2.9425,0,0,1-.3162.7282c-.0287.0479-.0575.0863-.0766.1246-.1342.23-.22.3737-.1821.5654a.6664.6664,0,0,0,.6324.4217h.0192a3.7707,3.7707,0,0,0,.7187-.1246.8009.8009,0,0,0,.5367-.7283l.0191-.115a4.3782,4.3782,0,0,0,.115-.9679A.6017.6017,0,0,0,8.3855,5.7776Zm-.7.412a5.546,5.546,0,0,1-.22.5175,2.8607,2.8607,0,0,1-.1821.3066,1.2481,1.2481,0,0,0-.1341.2492,1.0371,1.0371,0,0,0-.0288.5462c-.1054-.01-.2683-.0766-.2874-.1724-.01-.0672.0287-.1343.1437-.3355a.8794.8794,0,0,1,.0767-.1246,3.4463,3.4463,0,0,0,.3449-.7953c.0671-.2013.0958-.2875.2013-.3642a.7858.7858,0,0,1,.182-.0574C7.753,6.0267,7.7242,6.1034,7.6859,6.19Z"></path><path class="cls-1" d="M12.4171.3157a9.9979,9.9979,0,0,0-4.836,19.4022L7.58,19.7171A9.9976,9.9976,0,1,0,12.4171.3157ZM4.1978,12.39a2.2375,2.2375,0,0,0-.0671.5079c0,.01-.01.01-.01,0a2.1311,2.1311,0,0,1-.0767-.6516.972.972,0,0,0,.1055.0958c.0192.01.0287.0287.0479.0383Zm.01-.2491a.0094.0094,0,0,1-.01-.01c.01-.0288.0287-.0479.0287-.0671a.521.521,0,0,1,.0671-.1246c.0479-.0766.0959-.1533.1533-.23a.1338.1338,0,0,1,.0767-.0671.2721.2721,0,0,1,.2587.0958,2.6024,2.6024,0,0,0-.2587.3738c-.0287.0479-.0671.1054-.0958.1629a.3535.3535,0,0,1-.1054-.0479.5311.5311,0,0,1-.0767-.0575C4.2361,12.16,4.217,12.15,4.2074,12.1406ZM6.9,13.7217c.01.115.0288.24.0479.3642a.62.62,0,0,1-.3066.0383.9864.9864,0,0,1-.575-.1533l-.01-.01c-.0575-.0479-.1054-.0862-.1054-.1725a.2026.2026,0,0,1,.0383-.1055.3334.3334,0,0,0,.0576-.0862c.0383-.0575.0958-.1246.1533-.22.1629-.2683.22-.3545.2971-.46.01-.01.01-.0191.0191-.0287.0479-.0575.0959-.1342.1821-.2587.0575-.0863.1054-.1629.1533-.22a1.1582,1.1582,0,0,1,.1438-.1725,1.105,1.105,0,0,1-.0192.1533,1.3778,1.3778,0,0,0-.0671.345A4.6459,4.6459,0,0,0,6.9,13.7217Zm-1.102-.1438c-.1533.2109-.2492.2684-.2683.2684-.0767-.01-.1438-.1917-.2013-.3738-.0191-.0766-.0479-.1437-.0575-.2108a1.4231,1.4231,0,0,1-.0383-.4408,1.85,1.85,0,0,0,.8049.1054c.0192.01.048.01.0671.0192A1.7856,1.7856,0,0,1,5.7981,13.5779Zm.7571-1.0253c-.048.0767-.0959.1342-.1246.1821H6.4114a1.9777,1.9777,0,0,1-.4121-.0192c-.0575-.01-.1246-.0192-.1916-.0287-.0288-.01-.0575-.01-.0863-.0192,0-.01.01-.01.01-.0192.0288-.0383.0479-.067.0767-.1054.0479-.0671.0862-.1245.1341-.1916s.0958-.1438.1438-.2108l.0575-.0863v-.01l.01-.01.0192-.0192.01-.01c.01,0,.01-.01.0192-.01.0192,0,.0288-.01.0383-.01h.048a.7185.7185,0,0,1,.1533.048h.01c.01,0,.01.01.0191.01l.01.01c.01,0,.01,0,.0192.01l.01.01c.01.01.01.0191.0192.0287a.0967.0967,0,0,0,.01.0288.784.784,0,0,1,.0575.2491.06.06,0,0,0,.0383.0575A.7974.7974,0,0,1,6.5552,12.5526Zm-.92-.1725c-.0384.0479-.0671.0958-.1054.1438-.0192.0287-.0479.0575-.0671.0862-.0575-.01-.1054-.0287-.1629-.0383a.7579.7579,0,0,1-.1342-.0479c-.01,0-.0191-.01-.0287-.01-.01-.01-.0192-.0288-.0288-.0384.0192-.0287.0288-.067.048-.0958a1.5315,1.5315,0,0,1,.0958-.1725.7663.7663,0,0,1,.23-.2683c.0095,0,.0095-.01.0191-.01a.4857.4857,0,0,1,.1246-.0479h.0767c.01,0,.0191.01.0383.01a.0094.0094,0,0,1,.01.01c.01.01.0191.01.0287.0192-.0191-.01.0192.0287.0192.0191a.8057.8057,0,0,1,.0383.1438C5.7693,12.1885,5.7023,12.2843,5.6352,12.38Zm-.5558.9295a.3367.3367,0,0,1,.0479.1246l-.0192.0192h-.01c-.0288,0-.0575.0095-.0863.0095a1.035,1.035,0,0,1-.1725,0,.1084.1084,0,0,1-.0766-.0287.4726.4726,0,0,1-.0384-.1246,2.3324,2.3324,0,0,1-.0191-.6324,1.9086,1.9086,0,0,0,.3354.0862A1.756,1.756,0,0,0,5.0794,13.31Zm-.0383-1.1307-.115.23a.0331.0331,0,0,1-.01.0191c-.0383-.01-.0767-.0191-.1054-.0287-.0383-.01-.0767-.0288-.115-.0383-.0192-.01-.0288-.0192-.0479-.0288a2.2648,2.2648,0,0,1,.1246-.2012,2.5611,2.5611,0,0,1,.1916-.2588.7374.7374,0,0,1,.0862-.0862.182.182,0,0,1,.1246-.01.3044.3044,0,0,1,.1342.0192c-.01,0,0,.01.01.01A.98.98,0,0,0,5.0411,12.1789ZM4.514,13.2713H4.4374l-.0384-.0192a.2093.2093,0,0,1-.0575-.067.4373.4373,0,0,1-.0479-.22,1.7126,1.7126,0,0,1,.0384-.4408.6771.6771,0,0,0,.0766.0287.5125.5125,0,0,0,.1054.0479,2.7158,2.7158,0,0,0,0,.6708Zm9.0845-2.4244a1.0766,1.0766,0,0,0-.1821.2683,1.54,1.54,0,0,0-.1245.7283,6.0872,6.0872,0,0,0,.0191.92,2.0008,2.0008,0,0,1-.01.4791,2.3258,2.3258,0,0,1-.4216.91,1.8637,1.8637,0,0,1-.92.9008.4754.4754,0,0,1-.1533.01c-.0958,0-.2587,0-.5558.01a6.9086,6.9086,0,0,0-1.0637.0766,2.7549,2.7549,0,0,0-.5079.1534,2.4537,2.4537,0,0,1-.4216.1341,4.8784,4.8784,0,0,1-.93.0575,12.7638,12.7638,0,0,1-1.5524-.0575,4.0881,4.0881,0,0,1-1.3033-.2491c-.5558-.2971-.7954-.8337-1.1787-1.7154a.0206.0206,0,0,1,.0192-.0191l.0575.0287a.104.104,0,0,0,.0479.01.2332.2332,0,0,0,.115,0c.01,0,.01,0,.0192-.01.01,0,.0191,0,.0191.01a.32.32,0,0,0,.1342.163.4138.4138,0,0,0,.2108.0382,1.8592,1.8592,0,0,0,.23-.0191.1178.1178,0,0,1,.0958.0479c.0671.1725.1533.2875.2875.3067h.0287a.25.25,0,0,0,.1342-.0479.1243.1243,0,0,1,.1629.0383.3671.3671,0,0,0,.1054.1054,1.1744,1.1744,0,0,0,.7283.2012.88.88,0,0,0,.3546-.0575c.115-.0575.115-.1341.1054-.1724-.01-.0575-.0192-.1246-.0288-.1821,0-.01.01-.01.01,0,.0192.0383.0383.0766.0863.0862h.0191c.0767,0,.1917.0288.2108.0959a.52.52,0,0,0,.0479.1054.3836.3836,0,0,0,.3163.1629h.01a.5758.5758,0,0,0,.4791-.2013c.01-.01.01-.0191.0192-.0287a.1477.1477,0,0,1,.2012-.01.31.31,0,0,0,.2013.0767h.0383a.3378.3378,0,0,0,.24-.1438.64.64,0,0,0,.0862-.2012.0361.0361,0,0,1,.0575-.01.28.28,0,0,0,.2012.0767.238.238,0,0,0,.0767-.01.4311.4311,0,0,0,.3162-.3546c0-.01.01-.01.01,0a.3469.3469,0,0,0,.2779.1245h.0192a.25.25,0,0,0,.1916-.0958.5985.5985,0,0,0,.0863-.297.09.09,0,0,1,.0575-.0767,1.0625,1.0625,0,0,0,.4025-.3066.0094.0094,0,0,1,.01-.01.0705.0705,0,0,1,.0575-.0479.7537.7537,0,0,0,.22-.0671.5564.5564,0,0,1,.1629-.0479,2.55,2.55,0,0,0,.987-.23.6157.6157,0,0,0,.2492-.5654,1.1871,1.1871,0,0,1,.1533-.5942c.0479-.0862.1054-.182.1629-.297a6.7131,6.7131,0,0,1,.3545-.6037.0625.0625,0,0,1,.0863-.0192,2.2689,2.2689,0,0,1,.4887.22.0353.0353,0,0,1,.01.0288A.721.721,0,0,1,13.5985,10.8469ZM8.2513,13.4246a.5886.5886,0,0,1,.01.1342.7017.7017,0,0,1-.1054.47.393.393,0,0,1-.3546.1341.18.18,0,0,1-.1725-.0766,1.0124,1.0124,0,0,1,.0862-.69Zm-.2971-.3354.0958-.6228c.163-.0479.3546-.0575.393-.01.0671.0671-.0575.3833-.1054.5174a.8365.8365,0,0,0-.0479.1438A.9172.9172,0,0,1,7.9542,13.0892Zm-.3737.115a3.3083,3.3083,0,0,1-.3354.5462,2.4313,2.4313,0,0,1-.1629-.9966v-.0287a.6068.6068,0,0,1,.0958-.2971.2917.2917,0,0,1,.24-.0862.55.55,0,0,1,.24.0575.1918.1918,0,0,1,.0958.1916A1.2481,1.2481,0,0,1,7.5805,13.2042Zm1.39.0288a1.4717,1.4717,0,0,1-.115.7091.1449.1449,0,0,1-.1054.0671.1271.1271,0,0,1-.1054-.0287c-.1246-.115-.115-.4888-.1054-.6709A4.2006,4.2006,0,0,1,8.97,13.233Zm-.412-.24a2.5862,2.5862,0,0,1,.0862-.345c.0383-.0958.0671-.1725.1054-.1916a.1831.1831,0,0,1,.1821.0191.192.192,0,0,1,.0671.2492,1.4794,1.4794,0,0,0-.0479.2779Zm.8528.1246c.0575-.01.115-.0288.1629-.0384a1.2738,1.2738,0,0,1,.01.2779c-.01.1534-.0575.3354-.2012.3642a.119.119,0,0,1-.115-.0288c-.0958-.0862-.1054-.3545-.0958-.5462A1.24,1.24,0,0,0,9.4108,13.118ZM9.2,12.9359c.0192-.1246.0383-.2971.0479-.412a.2014.2014,0,0,1,.0383-.115.0335.0335,0,0,1,.0192-.01h.0192l.2012-.01c-.01.0958-.01.3066-.01.4312Zm.9391.0383a.8118.8118,0,0,1-.0383.47.0685.0685,0,0,1-.0575.0287A.1763.1763,0,0,1,9.89,13.415a.5876.5876,0,0,1-.0479-.3641Zm-.2971-.1916v-.2492a.8772.8772,0,0,1,.01-.1724.28.28,0,0,0,.0863-.0192.6828.6828,0,0,1,.1916-.0192.1629.1629,0,0,1-.01.0671.6329.6329,0,0,0-.01.1437v.22A.8526.8526,0,0,1,9.842,12.7826Zm1.0063-1.0541a.518.518,0,0,1,.0383-.3259.4919.4919,0,0,1,.1725-.1724,1.3807,1.3807,0,0,0,.45-.4408.7854.7854,0,0,0,.1534-.3067c.0095-.0287.0095-.0383.0958-.1054a.947.947,0,0,1,.7187-.22,2.2418,2.2418,0,0,1,.3738.1054.06.06,0,0,1,.0287.0958c-.0862.1342-.1916.3259-.3162.5463-.0575.1054-.115.2108-.1629.2874a1.3983,1.3983,0,0,0-.1821.7c-.01.2012-.0192.2875-.1438.3641-.0958.0671-.2012.0863-.8912.1917a.5393.5393,0,0,0-.22.0671c-.01.01-.0287.01-.0383.0191-.0383.0192-.0766-.0191-.0766-.0575.0095-.0958.0095-.22.0095-.3833v-.0287C10.8578,11.93,10.8578,11.8148,10.8483,11.7285Zm3.22-1.5428a.0093.0093,0,0,1-.0095.0095.21.21,0,0,1-.048.0288.8319.8319,0,0,0-.1437.1246.0763.0763,0,0,1-.0958.0191,5.5292,5.5292,0,0,0-.5654-.2587h-.01c-.01,0-.0191-.01-.0287-.01a4.209,4.209,0,0,0-.642-.2012,1.1754,1.1754,0,0,0-.91.2683c-.1438.0958-.1725.1533-.1917.2491a.5476.5476,0,0,1-.1054.2109A1.165,1.165,0,0,1,10.9345,11a.6936.6936,0,0,0-.2587.2491.7042.7042,0,0,0-.0767.47,3.08,3.08,0,0,1,.01.3163v.0383a4.7,4.7,0,0,1-.0288.5845c-.01.0383-.0191.0575-.0191.0671v.01a.7985.7985,0,0,1-.1821.1437c-.0287.0288-.0767,0-.0862-.0383v-.01l-.01-.0479a1.47,1.47,0,0,0,.01-.22v-.0575c0-.0383.0095-.0767.0095-.115.01-.0958.0192-.2012-.0767-.2491a.5389.5389,0,0,0-.3258,0,.2989.2989,0,0,1-.0766.0191h-.01a2.47,2.47,0,0,1-.2779.0288l-.22.01a.2106.2106,0,0,0-.1533.0479.0744.0744,0,0,0-.0384.0383.0593.0593,0,0,1-.0766.01.3521.3521,0,0,0-.3929-.0384c-.01,0-.0288.0192-.0479.0384a.018.018,0,0,1-.0288,0c-.1533-.1629-.5558-.0479-.6325-.0192l-.0287.01c-.01.01-.0192.0192-.0192.0287v.0288a.3338.3338,0,0,0-.1341-.1246.69.69,0,0,0-.4983-.0575c-.0384.0192-.0863-.0191-.115-.0575a.13.13,0,0,0-.0671-.0575.1969.1969,0,0,0-.1917.0479.0781.0781,0,0,1-.1245-.0287.4615.4615,0,0,0-.1629-.22.485.485,0,0,0-.1438-.0671.4475.4475,0,0,0-.3162-.0191.5573.5573,0,0,0-.0767.0383.1018.1018,0,0,1-.115-.0192.34.34,0,0,0-.1533-.1054.4086.4086,0,0,0-.24-.01.0743.0743,0,0,1-.0766-.0192.4447.4447,0,0,0-.2684-.1054.51.51,0,0,0-.2395.0192c-.0192.01-.0479.01-.0575-.01a.4623.4623,0,0,0-.3067-.1438H4.514c-.0287,0-.0383-.0191-.0287-.0383a5.1475,5.1475,0,0,1,.6612-.7187c.47-.4216.5078-.5462.4887-.7953V9.8215a.902.902,0,0,0-.1246-.3738.7687.7687,0,0,1-.1054-.3258,1.1845,1.1845,0,0,1,.1725-.45,2.4786,2.4786,0,0,0,.1916-.2779c.0384-.0479.0671-.1054.0959-.1342a2.3431,2.3431,0,0,0,.3737-.8241c.0288-.115.0671-.23.115-.3642a2.3182,2.3182,0,0,0,.0959-.46,2.2438,2.2438,0,0,1,.1245-.5462c.1821-.5271.24-.6421.2875-.6805a1.1954,1.1954,0,0,1,.8145-.297h.0192a1.0678,1.0678,0,0,1,.4791.182,1.9082,1.9082,0,0,0,.8146.278,1.7731,1.7731,0,0,0,.5462-.0959,3.5061,3.5061,0,0,1,2.022.1917,1.9788,1.9788,0,0,1,.6612,1.6578c.0095.1917-.01.4217-.0192.6613-.0383.69-.0863,1.399.4025,1.5332a9.4021,9.4021,0,0,1,1.4566.5654A.0762.0762,0,0,1,14.068,10.1857Zm1.84-2.827a1.4176,1.4176,0,0,1-.1341.4409,2.4388,2.4388,0,0,0-.1725.5845c-.0192.115-.0383.2108-.0479.2875v.01a1.8268,1.8268,0,0,1-.0767.3546,1.6149,1.6149,0,0,1-.2683.5366c-.1341.1726-.3545.47-.6516.508a.3934.3934,0,0,1-.1055-.01A13.8766,13.8766,0,0,0,12.64,9.2561c-.2875-.0862-.2492-.7187-.22-1.2745a5.7941,5.7941,0,0,0,.0192-.69,2.1544,2.1544,0,0,0-.7762-1.8495,2.5462,2.5462,0,0,0-1.2937-.2874c.0863-.0384.1725-.0959.2779-.1534a2.5808,2.5808,0,0,1,.9295-.3833c.1054-.01.2108-.0191.3162-.0383a3.9575,3.9575,0,0,1,1.84.0671,2.0379,2.0379,0,0,1,.9774.7,2.8829,2.8829,0,0,0,.6133.68c.1821.1629.2971.2588.3833.3354a.526.526,0,0,1,.1821.1917A1.2574,1.2574,0,0,1,15.9079,7.3587Z"></path></svg> 