<?xml version="1.0" encoding="UTF-8"?> <svg xmlns="http://www.w3.org/2000/svg" id="Layer_1" data-name="Layer 1" width="20" height="20" viewBox="0 0 20 20"><defs><style>.cls-1{fill:#6b11c9;fill-rule:evenodd;}</style></defs><title>Artboard 1 copy 15</title><path class="cls-1" d="M12.4164.3157A9.9979,9.9979,0,0,0,7.58,19.7179L7.58,19.7171A9.9976,9.9976,0,1,0,12.4164.3157Zm3.7517,12.5755a2.1413,2.1413,0,0,1-.1215.6005.56.56,0,0,1-.6976.3867,3.9181,3.9181,0,0,1-1.3762-.5409c-1.0058-.6121-2.0036-1.2372-3.002-1.8612-.241-.1506-.2547-.2811-.0733-.5045.0849-.1045.1687-.21.2615-.3076.18-.1889.2859-.1881.4975-.0412q.7926.5508,1.5937,1.0893a5.5991,5.5991,0,0,0,.5712.3461,1.8106,1.8106,0,0,0,.4276.1423.3705.3705,0,0,0,.4221-.2242,1.6641,1.6641,0,0,0,.1175-.4594,12.13,12.13,0,0,0,.0286-1.9789,10.5613,10.5613,0,0,0-.316-1.7058.62.62,0,0,0-.03-.0827.5984.5984,0,0,0-.948-.3457,3.9233,3.9233,0,0,0-.9846.741c-.5513.5613-1.0755,1.15-1.6376,1.7-.7277.7121-1.4742,1.4054-2.2262,2.0918-.7084.6467-1.4306,1.2783-2.1543,1.9079a4.5126,4.5126,0,0,1-1.0382.6879.6218.6218,0,0,1-.9366-.3432,6.5333,6.5333,0,0,1-.4847-1.7279,15.5983,15.5983,0,0,1-.2061-2.1682c-.01-.4456-.0281-.8911-.0407-1.278.0162-.5636.0218-1.0688.0481-1.5728A2.2918,2.2918,0,0,1,4.111,6.3858a.5521.5521,0,0,1,.8208-.2167Q6.85,7.2362,8.7565,8.3236a2.2863,2.2863,0,0,1,.4226.3135.3057.3057,0,0,1,.05.4253,5.3864,5.3864,0,0,1-.488.59c-.1093.1157-.1993.086-.3048-.03-.1526-.1675-.31-.3318-.4786-.4833-.1572-.1416-.243-.1308-.4.0174-.4658.4383-.9294.879-1.3974,1.315a1.7345,1.7345,0,0,1-.2744.2.1607.1607,0,0,1-.2621-.069.7948.7948,0,0,1,.158-1.0256c.3939-.3149.7637-.66,1.1439-.9919.143-.1249.1372-.1754-.0394-.2523q-.48-.2088-.9626-.41a.4023.4023,0,0,0-.5321.1748,1.4724,1.4724,0,0,0-.1993.6962,9.0114,9.0114,0,0,0,.3513,3.35,1.77,1.77,0,0,0,.2554.4864.3391.3391,0,0,0,.4488.1121,1.8,1.8,0,0,0,.349-.1984,55.7985,55.7985,0,0,0,4.5216-3.9331c.94-.892,1.8725-1.7929,2.8113-2.6867a1.6231,1.6231,0,0,1,.78-.4653.5769.5769,0,0,1,.5618.1721A1.8707,1.8707,0,0,1,15.76,6.6645c.1049.6029.21,1.209.2553,1.8183.0778,1.0433.1157,2.09.1578,3.1355C16.1905,12.042,16.187,12.4676,16.1681,12.8912Z"></path></svg> 