<?xml version="1.0" encoding="UTF-8"?> <svg xmlns="http://www.w3.org/2000/svg" id="Layer_1" data-name="Layer 1" width="20" height="20" viewBox="0 0 20 20"><defs><style>.cls-1{fill:#6b11c9;fill-rule:evenodd;}</style></defs><title>Artboard 1 copy 17</title><path class="cls-1" d="M12.4171.3157a9.9979,9.9979,0,0,0-4.836,19.4022L7.58,19.7171A9.9976,9.9976,0,1,0,12.4171.3157ZM5.9708,10.7484a1.9906,1.9906,0,0,1-1.5444.751c-.4974.0428-.699-.2-.5884-.6861A6.0374,6.0374,0,0,1,5.2615,7.92,3.2964,3.2964,0,0,1,7.17,6.8028a5.05,5.05,0,0,1,5.24,2.3553c.4807.7888.5058,1.1236-.7285,1.1712a3.8082,3.8082,0,0,1-1.5544-.5239c-.4344-.2224-.86-.4653-1.2705-.7293a.9886.9886,0,0,0-1.194.0179A6.7891,6.7891,0,0,0,5.9708,10.7484ZM16.1626,9.186a5.46,5.46,0,0,1-1.6278,3.0881,3.5389,3.5389,0,0,1-2.5915.9875,5.0282,5.0282,0,0,1-2.7878-.7935,4.39,4.39,0,0,1-1.7793-2.07c-.17-.4308-.0148-.6409.4513-.7a3.8742,3.8742,0,0,1,2.3157.63c.4015.21.791.4454,1.1754.6861a.7789.7789,0,0,0,.82.0205,4.8045,4.8045,0,0,0,1.628-1.4884A2.2491,2.2491,0,0,1,15.6322,8.51C16.1239,8.5155,16.2585,8.6956,16.1626,9.186Z"></path></svg> 