<?xml version="1.0" encoding="UTF-8"?> <svg xmlns="http://www.w3.org/2000/svg" id="Layer_1" data-name="Layer 1" width="20" height="20" viewBox="0 0 20 20"><defs><style>.cls-1{fill:#fff;}.cls-1,.cls-2{fill-rule:evenodd;}.cls-2{fill:#6b11c9;}</style></defs><title>Artboard 1 copy 21</title><path class="cls-1" d="M10.5883,11.8348a3.4928,3.4928,0,0,1,1.5943-.1128c.2922.0466.6253.224.8609.1344.25-.0952.4422-.3906.68-.58l0-.0019s.2868-.2873.4513-.4148c.014-.0109.0131.0022.0223-.0008a2.3279,2.3279,0,0,1,.3505-.1948.2115.2115,0,0,0,.13-.3046,1.6384,1.6384,0,0,0-.693-.9428c-.1452-.0926-.1747-.1613-.1021-.3276.288-.66.2321-.8907-.3208-1.374a.5243.5243,0,0,1-.2041-.3985,2.2719,2.2719,0,0,0-.4232-1.1948c-.1009-.1416-.1824-.1526-.3076-.0512-.1159.094-.2715.1589-.3492.2766a.8765.8765,0,0,1-.6683.4222l0,.01c-.0187,0-.0346,0-.0532,0-.0234.0013-.0483,0-.0723,0a9.9832,9.9832,0,0,0-1.1522.0513l-.0047-.0134a.4514.4514,0,0,1-.4106-.2527,2.5479,2.5479,0,0,0-.8579-.7734.31.31,0,0,0-.4566.0634,2.5758,2.5758,0,0,0-.6649,1.6536.616.616,0,0,1-.2188.4579,2.0317,2.0317,0,0,0-.6292.8758l.3186.0218a4.78,4.78,0,0,0-.6436,1.7215,1.0078,1.0078,0,0,0,.1154.016,4.8849,4.8849,0,0,1,3.44,1.1863A.2425.2425,0,0,0,10.5883,11.8348ZM14.045,9.8442a.4683.4683,0,0,1-.4465.0445c-.0886-.037-.246-.11-.2992-.011a.4456.4456,0,0,0,.0289.4533c.0817.1283.2271.15.3469.2183a.6178.6178,0,0,1-.9788-.0993c-.1541-.1952-.2922-.4029-.4437-.6a1.753,1.753,0,0,0-.9155-.616,1.3854,1.3854,0,0,1,.8868.0854c-.0728-.3688.1337-.2239.2867-.16a1.7692,1.7692,0,0,1,.5848.4049c.045.0458.0982.1753.1788.0536.2036-.3079.3847-.0848.5666.0158A.3653.3653,0,0,1,14.045,9.8442Zm-2.6733-.1907c-.0825-.0079-.05.155-.1455.12-.0576-.0207-.0628-.0958-.0606-.1577.0042-.1167.0974-.1081.1728-.1192a.4825.4825,0,0,1,.4088.1356,5.9059,5.9059,0,0,1,.7159.86c-.4881-.0766-.9872.2047-1.3654-.318.2141.0162.3444-.234.6226-.01Zm-.1525-1.3607a1.1234,1.1234,0,0,1,.7044.4509C11.54,8.91,11.5041,8.8877,11.2192,8.2928Zm2.37.4513a.5391.5391,0,0,1-.1051.3955C13.2,8.9352,13.3942,8.8564,13.5888,8.7441Zm-.88-2.3617a1.3269,1.3269,0,0,1,.38.9436,2.2171,2.2171,0,0,0-.5764-.2678,1.4481,1.4481,0,0,0,.3468-.0051,1.0812,1.0812,0,0,0-.2167-.4922s-.0918-.0127-.2729.14A.94.94,0,0,1,12.709,6.3824ZM9.2418,10.2849l-.78-.3488c-.102.0458-.1946-.0187-.292-.0268-.4868-.0408-.4868-.0432-.254-.4966A4.8885,4.8885,0,0,1,8.5891,8.43c.1511-.1728.0725-.2142-.1454-.2021a2.7378,2.7378,0,0,1,.6822-.6091c.0921-.056.2113-.107.1436-.2489a.6835.6835,0,0,0-.3139-.383c-.146-.0574-.1842.1178-.248.2074a2.165,2.165,0,0,0-.15.2936c0-.0171,0-.0286,0-.04a2.2439,2.2439,0,0,1,.0593-.4651l-.0059-.009A.9223.9223,0,0,1,8.9071,6.47a1.01,1.01,0,0,1,.39.2c.0174.0121.0337.0256.0508.0391.0318.025.0585.0413.0934.072l-.0055.0038c.078.0716.1529.1468.2194.214a.5694.5694,0,0,0,.5943.1908,4.0434,4.0434,0,0,1,1.6723.02,2.8009,2.8009,0,0,1,1.6961,1.1037.693.693,0,0,1,.0665.13c-.1382.1074-.3417.09-.446.2524-.1311-.0968-.1007-.2794-.24-.3513-.0529.1016-.0587.2282-.1721.3247-.0519-.0671-.0985-.1362-.1541-.1973-.0662-.0726-.13-.1834-.2294-.1749-.1252.0107-.0261.1815-.1484.2541a1.9245,1.9245,0,0,0-1.572-.66,1.0711,1.0711,0,0,0-.6641.2967.9842.9842,0,0,1,.7285.13.2005.2005,0,0,1,.0773.1169c.0045.0654-.0626.06-.11.0661C9.6306,8.6468,9.2527,9.0849,9.2418,10.2849Zm1.0223-.3827c.1769-.411.3738-.5779.7716-.5595a.7289.7289,0,0,0-.0719.9119.7616.7616,0,0,0,.8069.443,2.0033,2.0033,0,0,1,.77.0346.6453.6453,0,0,1,.4947.3861c.03.0091.0514.03.0327.0582-.0067.01-.0454-.0015-.0694-.0031-.1128-.0374-.2237-.0832-.3391-.109-.0722-.0161-.1977-.1106-.1862.0889.0036.0613-.0748.0522-.12.0354a2.1019,2.1019,0,0,0-.9448-.0032c-.7261.0588-.99-.1945-.9794-.9272.0009-.06.0064-.1191.01-.19C10.28,10.1181,10.1487,10.17,10.2641,9.9022Z"></path><path class="cls-2" d="M14.3813,10.1243a.858.858,0,0,0,.1673-.6294C14.2388,9.6736,13.9294,9.799,14.3813,10.1243Z"></path><path class="cls-2" d="M13.3877,6.8035a2.3059,2.3059,0,0,1-.5519.0082,3.5251,3.5251,0,0,1,.9173.4262,2.1117,2.1117,0,0,0-.6048-1.5019,1.4969,1.4969,0,0,0-.54.5074c.2882-.2435.4343-.2232.4343-.2232A1.7221,1.7221,0,0,1,13.3877,6.8035Z"></path><path class="cls-2" d="M11.8983,9.4943a1.788,1.788,0,0,0-1.1211-.7176C11.2306,9.7234,11.2873,9.7588,11.8983,9.4943Z"></path><path class="cls-2" d="M10.2114,9.0051a.32.32,0,0,0-.123-.1862,1.5661,1.5661,0,0,0-1.1595-.2071,1.7053,1.7053,0,0,1,1.0569-.4724,3.0631,3.0631,0,0,1,2.502,1.05c.1947-.1156.0369-.3874.2363-.4044.1589-.0135.26.1629.365.2785.0885.0971.1627.207.2453.3139.1805-.1536.19-.3551.2738-.5168.2217.1144.1734.4051.382.5591.1661-.2593.49-.2308.71-.4017a1.1038,1.1038,0,0,0-.1058-.2076,4.4586,4.4586,0,0,0-2.7-1.7567,6.4352,6.4352,0,0,0-2.6615-.0315.9062.9062,0,0,1-.9459-.3037c-.1059-.107-.2252-.2267-.3492-.3405,0,0-.0894-.081-.14-.1207-.0272-.0215-.0531-.043-.0808-.0623a1.6063,1.6063,0,0,0-.62-.3191,1.4512,1.4512,0,0,0-.4619.8146,3.5826,3.5826,0,0,0-.0944.74c-.0008.0182,0,.0365,0,.0638a3.4328,3.4328,0,0,1,.239-.4673c.1015-.1427.1622-.4214.3947-.33a1.0879,1.0879,0,0,1,.5.6095c.1076.226-.0819.3071-.2285.3963A4.3585,4.3585,0,0,0,6.36,8.6725c.3469-.0192.4719.0467.2315.3217A7.7783,7.7783,0,0,0,5.5189,10.559c-.3705.7216-.3542.619.4044.79.157.0355,1.2823.4082,1.7067.5978.0173-1.91.6187-2.6071,2.4066-2.837C10.1118,9.1005,10.2185,9.1091,10.2114,9.0051Z"></path><path class="cls-2" d="M10.5837,11.7722c.602.832,1.3964.3844,2.1733.5062a9.415,9.415,0,0,0-1.1394-1.37.7684.7684,0,0,0-.6507-.2157c-.12.0176-.2683.0039-.2751.19-.0034.0985.0048.218.0965.251.1528.0551.1-.2043.2316-.1916.1549.2269.3059.4486.5549.8136C11.132,11.4,10.9245,11.798,10.5837,11.7722Z"></path><path class="cls-2" d="M12.8811,12.6591a3.1847,3.1847,0,0,0-1.2261-.055,1.2124,1.2124,0,0,1-1.2843-.7051,1.16,1.16,0,0,1,.1144-1.4514c-.6332-.0293-.9464.2364-1.228.8905-.1836.4267.025.3436.2806.2641-.0064.113-.0152.2078-.0166.3026-.0175,1.1662.4032,1.5694,1.5587,1.4757a3.3446,3.3446,0,0,1,1.5038.0052c.0713.0266.196.0412.19-.0564-.0183-.3175.1813-.1671.2963-.1415.1837.0411.36.114.54.1735.0383.0026.1.0208.11.0049.03-.0445-.0035-.0782-.0521-.0925A1.0268,1.0268,0,0,0,12.8811,12.6591Z"></path><path class="cls-2" d="M12.4291.3114a9.9979,9.9979,0,0,0-4.836,19.4022l-.0008-.0008A9.9976,9.9976,0,1,0,12.4291.3114ZM16.0739,12.55c-.1913.09-.571.294-.5934.3113-.2617.2029-.7181.66-.7181.66l0,.0031c-.3783.3019-.6836.7719-1.0821.9235-.375.1426-.9052-.14-1.37-.2138a5.5581,5.5581,0,0,0-2.5374.1794.3853.3853,0,0,1-.4283-.0763,7.7755,7.7755,0,0,0-5.47-1.9054,1.8316,1.8316,0,0,1-.19-.0081A7.6041,7.6041,0,0,1,4.71,9.6842c-.191-.0131-.3389-.0233-.507-.0347a3.234,3.234,0,0,1,1.0013-1.394.98.98,0,0,0,.3483-.7288A4.1,4.1,0,0,1,6.6105,4.8949a.494.494,0,0,1,.7267-.1008A4.05,4.05,0,0,1,8.7027,6.025a.7187.7187,0,0,0,.6534.4022l2.0416-.0756a1.8943,1.8943,0,0,0,1.0637-.672c.1631-.154.3714-.2906.5558-.44.1992-.1615.3289-.1439.4895.0813A3.6176,3.6176,0,0,1,14.18,7.2224a.8342.8342,0,0,0,.3248.6342c.88.7693.9689,1.1371.51,2.1869-.1155.2646-.0686.374.1626.5214a2.6078,2.6078,0,0,1,1.103,1.5006A.3366.3366,0,0,1,16.0739,12.55Z"></path><path class="cls-2" d="M14.95,10.91c-.29-.16-.5777-.5151-.9019-.0251-.1282.1937-.213-.0125-.2845-.0854a2.8189,2.8189,0,0,0-.9307-.6444c-.2436-.1012-.5723-.3318-.4563.2552a2.2057,2.2057,0,0,0-1.4115-.136,2.79,2.79,0,0,1,1.457.9806c.2412.3139.4611.6445.7063.9552a.9833.9833,0,0,0,1.5578.158c-.1907-.1083-.422-.1432-.552-.3475a.71.71,0,0,1-.0462-.7214c.0849-.157.3353-.0414.4763.0174a.7446.7446,0,0,0,.7106-.0708A.5812.5812,0,0,0,14.95,10.91Z"></path></svg> 