<?xml version="1.0" encoding="UTF-8"?> <svg xmlns="http://www.w3.org/2000/svg" id="Layer_1" data-name="Layer 1" width="20" height="20" viewBox="0 0 20 20"><defs><style>.cls-1{fill:#6b11c9;fill-rule:evenodd;}</style></defs><title>Artboard 1 copy 22</title><path class="cls-1" d="M12.4171.3157a9.9979,9.9979,0,0,0-4.836,19.4022L7.58,19.7171A9.9976,9.9976,0,1,0,12.4171.3157ZM15.3723,6.84V8.2645L14.1568,8.98V7.5557l-1.21-.7156,1.21-.7155ZM9.997,3.6811l3.2924,1.9377-1.21.7155L9.997,5.1062,7.92,6.3343,6.7106,5.6188ZM11.2125,6.84,9.997,7.5557,8.7875,6.84l1.21-.7155Zm-6.5855,0,1.21-.7155L7.052,6.84l-1.2154.7156V8.98l-1.21-.7155ZM7.92,15.0975l-3.2924-1.931V9.2852L5.8366,10l.0066,2.4443L7.92,13.6664Zm0-2.451-1.2095-.7088V10.5066l1.2095.7156Zm3.2924,2.9569-1.2155.7155-1.21-.7155V14.179l1.21.7155,1.2155-.7155Zm.0008-2.4376-1.21.7088-1.21-.7088v-2.45L6.7113,9.4933V8.0623L7.926,7.3468l2.07,1.2281,2.0829-1.2281,1.2154.7155h-.0052l.0067,1.431-2.0828,1.2222Zm.8666-1.9436,1.21-.7156v1.4311l-1.21.7088Zm3.2932,1.9436-3.2925,1.9309v-1.431l2.0762-1.2214L14.1635,10l1.21-.7155Z"></path></svg> 