<?xml version="1.0" encoding="UTF-8"?> <svg xmlns="http://www.w3.org/2000/svg" id="Layer_1" data-name="Layer 1" width="20" height="20" viewBox="0 0 20 20"><defs><style>.cls-1{fill:#6b11c9;fill-rule:evenodd;}</style></defs><title>Artboard 1 copy 25</title><path class="cls-1" d="M12.7033,7.6446c-1.2193.0162-5.2064-.0014-5.2064-.0014V8.7641l.5084.0032c1.1065-.012,4.3037.0134,5.1487.0047.0919-.0009.2542-.0118.2578-.06C13.4555,8.1234,13.3884,7.6355,12.7033,7.6446Z"></path><path class="cls-1" d="M12.4171.3157a9.9979,9.9979,0,0,0-4.836,19.4022L7.58,19.7171A9.9976,9.9976,0,1,0,12.4171.3157ZM16.078,13.3841a1.66,1.66,0,0,1-1.3,1.2907,6.6667,6.6667,0,0,1-1.5291.1748c-1.1785.032-6.4889-.0643-7.8591-.066-.1691,0-.2605-.0016-.3106-.039V12.5465H3.7611V10.9387H5.0792V9.0266H3.7611V7.4043H5.0792V5.196a.4582.4582,0,0,1,.1627-.0239c2.6754-.0077,5.3507-.0349,8.026-.0268a6.26,6.26,0,0,1,1.5085.2176,1.6309,1.6309,0,0,1,1.2762,1.5809A12.943,12.943,0,0,1,16.0544,8.84a3.0656,3.0656,0,0,1-.4022,1.0355c-.0774.1506-.1408.2492-.0227.3968A3.4831,3.4831,0,0,1,16.078,13.3841Z"></path><path class="cls-1" d="M13.101,11.2678c-.74.008-5.6282-.0367-5.6282-.0367v1.1368h.5325v0q2.42.0213,4.84.0476a.4583.4583,0,0,0,.4786-.364,4.5276,4.5276,0,0,0,.0741-.4736C13.4364,11.3412,13.3347,11.2653,13.101,11.2678Z"></path></svg> 