<?xml version="1.0" encoding="UTF-8"?> <svg xmlns="http://www.w3.org/2000/svg" id="Layer_1" data-name="Layer 1" width="20" height="20" viewBox="0 0 20 20"><defs><style>.cls-1{fill:#6b11c9;fill-rule:evenodd;}</style></defs><title>Artboard 1 copy 26</title><path class="cls-1" d="M12.4171.3157a9.9979,9.9979,0,0,0-4.836,19.4022L7.58,19.7171A9.9976,9.9976,0,1,0,12.4171.3157Zm1.8652,8.3355,0,0a1.7485,1.7485,0,0,1-1.4,1.61A1.9242,1.9242,0,0,1,13.89,12.921c-.5919,1.6913-1.998,1.834-3.8679,1.48L9.5685,16.22l-1.0967-.2732L8.92,14.1523c-.2843-.0706-.5747-.1456-.8739-.2268l-.4494,1.8028L6.501,15.455l.4538-1.8221c-.2561-.0655-.5163-.1352-.7818-.2018l-1.427-.3557L5.29,11.82s.808.2149.797.1989a.399.399,0,0,0,.5025-.2605L7.307,8.8836c.04.01.0793.02.116.0286a.8821.8821,0,0,0-.1141-.0365l.5116-2.0523a.5837.5837,0,0,0-.511-.6378c.0171-.0115-.7965-.198-.7965-.198l.2918-1.1713L8.317,5.194,8.3157,5.2c.2274.0566.4617.11.7.1646l.4494-1.8008,1.0959.2732-.44,1.7656c.2942.0672.59.1349.8786.2068l.4372-1.754,1.0966.2732L12.0842,6.13c1.3845.4769,2.397,1.1918,2.1981,2.5217Z"></path><path class="cls-1" d="M9.004,10.1918l-.6022,2.414c.7433.1845,3.0361.9206,3.375-.4411h0C12.131,10.7446,9.7472,10.3773,9.004,10.1918Z"></path><path class="cls-1" d="M9.8254,6.8973,9.28,9.0867c.619.1543,2.5272.7836,2.8365-.4551h0C12.438,7.34,10.4444,7.0516,9.8254,6.8973Z"></path></svg> 