<?xml version="1.0" encoding="UTF-8"?> <svg xmlns="http://www.w3.org/2000/svg" id="Layer_1" data-name="Layer 1" width="20" height="20" viewBox="0 0 20 20"><defs><style>.cls-1{fill:#6b11c9;fill-rule:evenodd;}</style></defs><title>Artboard 1 copy 28</title><path class="cls-1" d="M9.6659,9.5955a2.2044,2.2044,0,0,0,1.2167-.1991.5224.5224,0,0,0-.0284-.86,2.3993,2.3993,0,0,0-1.1883-.1625Z"></path><path class="cls-1" d="M9.6463,13.3137c.1632.0107.3258.017.4889.0221.0013-.3208.0007-.6415.0007-.9622H9.6476Q9.6476,12.8434,9.6463,13.3137Z"></path><path class="cls-1" d="M10.1157,7.624c.0007-.3214.0013-.6427,0-.9635-.1562.0051-.3131.0127-.4694.0233q.001.47.0007.94Q9.8813,7.6233,10.1157,7.624Z"></path><path class="cls-1" d="M11.1245,10.4449a2.8967,2.8967,0,0,0-1.4586-.1922v1.3547a2.9259,2.9259,0,0,0,1.5059-.26A.5475.5475,0,0,0,11.1245,10.4449Z"></path><path class="cls-1" d="M7.6464,7.6259c.4537.022.908.0169,1.3623.0163,0-.2766.0006-.5526-.0013-.8292A3.9171,3.9171,0,0,0,7.6464,7.6259Z"></path><path class="cls-1" d="M7.792,11.6011a2.1946,2.1946,0,0,0,.671-.0385c.126-.1058.09-.281.097-.4259-.0069-.8285.0032-1.6572-.0044-2.4851a.2882.2882,0,0,0-.2142-.3043,3.6667,3.6667,0,0,0-.6956-.03,4.3077,4.3077,0,0,1-.0328-.5633.2268.2268,0,0,0-.017-.0977l-.0038.0056a4.7624,4.7624,0,0,0-.4757.6755,3.3186,3.3186,0,0,0-.1487,3.0327,3.2726,3.2726,0,0,0,.6753.9526A2.3515,2.3515,0,0,1,7.792,11.6011Z"></path><path class="cls-1" d="M7.6615,12.3431a3.4005,3.4005,0,0,0,1.3459.84c.0013-.276.0006-.5519.0006-.8273C8.5594,12.3509,8.11,12.3661,7.6615,12.3431Z"></path><path class="cls-1" d="M12.0684,6.6467a3.9363,3.9363,0,0,0-5.9777,3.8164,3.9376,3.9376,0,0,0,7.3815,1.3932,3.9426,3.9426,0,0,0-1.4038-5.21Zm.4133,5.9273a3.5745,3.5745,0,0,1-5.4226-.54A3.5763,3.5763,0,0,1,12.4868,7.428a3.5817,3.5817,0,0,1-.0051,5.146Z"></path><path class="cls-1" d="M10.7754,6.7532c-.0025.2948-.0025.59-.0019.8852a2.2279,2.2279,0,0,1,1.1821.3964,1.1,1.1,0,0,1-.177,1.7208,1.0476,1.0476,0,0,1,.8216.7164,1.5136,1.5136,0,0,1-.3825,1.47,2.58,2.58,0,0,1-1.4454.4221c.0025.293.0012.586.0006.88a3.3912,3.3912,0,0,0,2.3364-2.0459,3.3286,3.3286,0,0,0-.2363-2.8845A3.4168,3.4168,0,0,0,10.7754,6.7532Z"></path><path class="cls-1" d="M12.4171.3157a9.9979,9.9979,0,0,0-4.836,19.4022L7.58,19.7171A9.9976,9.9976,0,1,0,12.4171.3157Zm2.4584,13.6772A6.3,6.3,0,1,1,9.6665,3.6991h.6565a6.4914,6.4914,0,0,1,2.0025.4391,6.3038,6.3038,0,0,1,2.55,9.8547Z"></path><path class="cls-1" d="M13.2839,4.9145a6.023,6.023,0,0,0-4.0081-.93A6.0928,6.0928,0,0,0,4.6837,7.1091a6.0488,6.0488,0,0,0,8.6751,7.9228,6.0456,6.0456,0,0,0-.0749-10.1174ZM15.32,12.1272a5.7134,5.7134,0,0,1-5.1863,3.5915,5.6439,5.6439,0,0,1-3.6784-1.216A5.73,5.73,0,1,1,15.32,12.1272Z"></path></svg> 