<?xml version="1.0" encoding="UTF-8"?> <svg xmlns="http://www.w3.org/2000/svg" id="Layer_1" data-name="Layer 1" width="20" height="20" viewBox="0 0 20 20"><defs><style>.cls-1{fill:#6b11c9;fill-rule:evenodd;}</style></defs><title>Artboard 1 copy 30</title><path class="cls-1" d="M8.98,10.4263v2.56c.7886,0,3.26.1637,3.26-1.28C12.24,10.2018,9.7686,10.428,8.98,10.4263Z"></path><path class="cls-1" d="M11.6985,8.0959c.0008-1.369-2.0615-1.16-2.7185-1.16V9.2562C9.6362,9.2554,11.6985,9.4092,11.6985,8.0959Z"></path><path class="cls-1" d="M12.4171.3157a9.9979,9.9979,0,0,0-4.836,19.4022L7.58,19.7171A9.9976,9.9976,0,1,0,12.4171.3157Zm2.1174,11.62c-.1693,1.8353-1.5385,2.3279-3.4922,2.44v1.9275H9.88l.0008-1.902c-.3018,0-.61-.0024-.9284-.009v1.911H7.7917l-.0008-1.9316c-.2714-.0017-.5485-.0066-.83-.0066H5.4482l.2311-1.388s.8593.0131.8444,0a.4106.4106,0,0,0,.4367-.3848l.0008-3.0483h.0017V9.5351H6.9612V7.3592a.5993.5993,0,0,0-.6685-.509c.0148-.0156-.8437.0008-.8437.0008V5.6094L7.0517,5.61v.0057c.2409,0,.4884-.0049.74-.01l.0008-1.9086h1.162V5.569c.31-.0065.6225-.0123.9275-.0123V3.6975h1.1619v1.91c1.5015.1315,2.69.5928,2.8221,1.9694a1.7954,1.7954,0,0,1-.9982,1.9538A1.9794,1.9794,0,0,1,14.5345,11.9353Z"></path></svg> 