<?xml version="1.0" encoding="UTF-8"?> <svg xmlns="http://www.w3.org/2000/svg" id="Layer_1" data-name="Layer 1" width="20" height="20" viewBox="0 0 20 20"><defs><style>.cls-1{fill:#6b11c9;fill-rule:evenodd;}</style></defs><title>Artboard 1 copy 32</title><path class="cls-1" d="M12.4171.3157a9.9979,9.9979,0,0,0-4.836,19.4022L7.58,19.7171A9.9976,9.9976,0,1,0,12.4171.3157Zm.3494,9.1558a3.7019,3.7019,0,0,1,.8938,2.1709H11.3015a1.1755,1.1755,0,0,0-.2011-.4993Zm-2.5294-1.253a3.5571,3.5571,0,0,1,2.17.8944l-1.6655,1.66a1.2715,1.2715,0,0,0-.5047-.1982ZM6.3342,3.6775,9.739,6.7236v3.8513a1.504,1.504,0,0,0-.4622.1886c-.3341-.3281-2.3163-2.3283-2.9485-2.9605C6.3283,7.69,6.3283,3.6775,6.3342,3.6775ZM6.3283,8.5657l2.5593,2.5594a1.2582,1.2582,0,0,0-.2005.5167H6.3283Zm0,3.5808H8.6871a1.0849,1.0849,0,0,0,.2005.4867L7.2221,14.3173A3.7032,3.7032,0,0,1,6.3283,12.1465Zm3.42,3.4143a3.5562,3.5562,0,0,1-2.1708-.8939l1.6661-1.6661a1.275,1.275,0,0,0,.5047.1982Zm.4886-.0036V13.1983a1.3952,1.3952,0,0,0,.5166-.2017l1.6542,1.6541A3.6425,3.6425,0,0,1,10.2371,15.5572Zm2.5594-1.283-1.6656-1.6656a1.4344,1.4344,0,0,0,.17-.4747h2.3708A3.649,3.649,0,0,1,12.7965,14.2742Z"></path></svg> 