<?xml version="1.0" encoding="UTF-8"?> <svg xmlns="http://www.w3.org/2000/svg" id="Layer_1" data-name="Layer 1" width="20" height="20" viewBox="0 0 20 20"><defs><style>.cls-1{fill:#6b11c9;fill-rule:evenodd;}</style></defs><title>Artboard 1 copy 37</title><path class="cls-1" d="M12.4171.3157a9.9979,9.9979,0,0,0-4.836,19.4022L7.58,19.7171A9.9976,9.9976,0,1,0,12.4171.3157Zm-2.3414,15.982a6.2977,6.2977,0,1,1,6.1264-7.6755H14.5793a4.7231,4.7231,0,1,0,0,2.7555h1.6227A6.284,6.284,0,0,1,10.0757,16.2977ZM8.6042,9.1636A1.4713,1.4713,0,1,1,10.7213,10.49h0v1.8222H9.43V10.49A1.4758,1.4758,0,0,1,8.6042,9.1636Z"></path></svg> 