<?xml version="1.0" encoding="UTF-8"?> <svg xmlns="http://www.w3.org/2000/svg" id="Layer_1" data-name="Layer 1" width="20" height="20" viewBox="0 0 20 20"><defs><style>.cls-1{fill:#6b11c9;fill-rule:evenodd;}</style></defs><title>Artboard 1 copy 41</title><path class="cls-1" d="M12.4171.3157a9.9979,9.9979,0,0,0-4.836,19.4022L7.58,19.7171A9.9976,9.9976,0,1,0,12.4171.3157ZM6.5618,15.234l-.7653-.7516s-.369.3827-.4646.2733a.3145.3145,0,0,1-.0274-.2869s-.4236.0683-.3963-.1367S4.7989,14.1,4.7989,14.1s-.0957-.1093-.0137-.1639-.5056-.3007-.3553-.4373a4.8788,4.8788,0,0,0,.4373-.5467s.0137-.6149.26-.369S10.32,8.6061,10.32,8.6061,9.377,7.9911,9.295,7.3488s-.574-1.1479-.1777-1.7082a1.8117,1.8117,0,0,1,1.23-.8747c.3417,0,.943.0547,1.0523.3691s.492.3142.492.9019a5.11,5.11,0,0,1-.041.8473,2.39,2.39,0,0,0,.164.7653l1.23-1.1753,1.6672,2.3232.0023,6.3623Z"></path></svg> 