<?xml version="1.0" encoding="UTF-8"?> <svg xmlns="http://www.w3.org/2000/svg" id="Layer_1" data-name="Layer 1" width="20" height="20" viewBox="0 0 20 20"><defs><style>.cls-1{fill:#6b11c9;fill-rule:evenodd;}</style></defs><title>Artboard 1 copy 42</title><path class="cls-1" d="M9.2429,14.89c.0272.1075.056.2107.0864.3087a3.6312,3.6312,0,0,0,.5833,1.2875.1211.1211,0,0,0,.1931-.0322s.4188-.357.7388-2.013A4.5808,4.5808,0,0,1,9.5,14.4966.4829.4829,0,0,1,9.2429,14.89Z"></path><path class="cls-1" d="M15.6005,13.3178a.1205.1205,0,0,0,.067-.14c-.0482-.1835-.2835-.6837-1.408-1.6678a4.5327,4.5327,0,0,1-.8354,1.4344c.322.1078.6563.21,1,.3019A2.7206,2.7206,0,0,0,15.6005,13.3178Z"></path><path class="cls-1" d="M4.33,13.1505s-.0364.1322.1246.1525h0s.5135.1842,2.0936-.3534a4.5328,4.5328,0,0,1-.8492-1.4658,7.26,7.26,0,0,0-.5435.52A3.6382,3.6382,0,0,0,4.33,13.1505Z"></path><path class="cls-1" d="M10.0648,3.49a.1207.1207,0,0,0-.1548.0125,4.1527,4.1527,0,0,0-.7293,2.0137,4.5842,4.5842,0,0,1,1.6441.0069c-.0664-.3208-.1431-.6486-.2321-.9789C10.5927,4.5443,10.3519,3.6935,10.0648,3.49Z"></path><path class="cls-1" d="M9.9841,9.1791a.8047.8047,0,1,0,.8046.8047A.8047.8047,0,0,0,9.9841,9.1791Z"></path><path class="cls-1" d="M4.4324,6.67a.1222.1222,0,0,0-.07.1841l0,.0016s.0777.4246.9811,1.2919a.4537.4537,0,0,1,.5037-.0351,4.5436,4.5436,0,0,1,.7013-1.0956,7.1932,7.1932,0,0,0-.7108-.2057A3.6313,3.6313,0,0,0,4.4324,6.67Z"></path><path class="cls-1" d="M12.6007,9.8282c-.3429-.2344-.7053-.47-1.0841-.7045-.0124-.4343-.034-.8559-.0637-1.2608.5754-.2561,1.0746-.46,1.5071-.621a.4551.4551,0,0,0,.6433.0033,4.5668,4.5668,0,0,0-.65-.6934.4952.4952,0,0,0-.1346.3939c-.4366.1658-.904.3636-1.3924.59-.0613-.7093-.1482-1.3615-.2557-1.9338q-.1705-.046-.3463-.079a20.3014,20.3014,0,0,1,.3211,2.1453c-.3708.1776-.7523.3711-1.1406.5792C9.62,8.0386,9.24,7.8442,8.8718,7.6655c.0915-.89.1983-1.5938.3089-2.1492q-.1774.0316-.35.077c-.1077.5711-.1948,1.2222-.2564,1.93-.6448-.3022-1.253-.5534-1.802-.7465q-.1158.1158-.2231.24a17.7933,17.7933,0,0,1,1.9977.8495c-.03.4027-.0509.8218-.0633,1.2536-.3731.2284-.73.4583-1.0686.6871-.6421-.46-1.1457-.8608-1.3782-1.05a.4944.4944,0,0,0,.0524-.2222.4854.4854,0,0,0-.2413-.4227,4.5046,4.5046,0,0,0-.2982.9.4467.4467,0,0,0,.0727.006.4526.4526,0,0,0,.185-.04c.3934.3272.8421.6687,1.3357,1.0149-.5811.4038-1.1.8016-1.5408,1.1776q.0431.1587.0969.3125A17.8812,17.8812,0,0,1,7.4259,10.189q.5026.3426,1.0577.6862c.0124.4348.034.8567.0638,1.262-1.007.4552-1.7791.7354-1.7791.7354q-.1132.0408-.22.077.1117.1293.2328.25c.5465-.1909,1.1512-.4385,1.792-.736.05.5738.1159,1.11.1963,1.597a.4822.4822,0,0,0-.1778.2443,4.51,4.51,0,0,0,.9078.1919l.0015-.0387a.4761.4761,0,0,0-.4391-.4819c-.0808-.5219-.1381-1.09-.1784-1.6591.3618-.1739.7337-.3628,1.112-.5656.3858.2091.7649.4036,1.1336.5823-.1061,1.0947-.2463,1.899-.2463,1.899q-.0189.1074-.0385.2082.1688-.0324.3329-.0771c.104-.561.1884-1.1976.2484-1.8887.6265.2938,1.2183.5394,1.7549.73q.1267-.1258.2434-.2613a20.3225,20.3225,0,0,1-1.9731-.7816c.0306-.4118.0528-.8409.0655-1.2833.3732-.2284.73-.4585,1.069-.6873.7073.513,1.2529.9493,1.674,1.3178q.06-.168.107-.3419c-.4333-.3713-.9418-.7636-1.51-1.1621.5726-.3979,1.085-.79,1.5213-1.1611q-.0449-.1736-.103-.3415A20.2615,20.2615,0,0,1,12.6007,9.8282Zm-4.902.18c.2609-.1714.5221-.3374.7764-.4951q-.0039.2415-.0038.4872,0,.2675.0045.53C8.2053,10.3557,7.9442,10.1793,7.6987,10.0079Zm3.1751-1.8812q.1535-.0715.3005-.1384c.03.3725.0472.6982.0564.9608q-.2277-.1374-.4623-.2734-.2214-.1283-.4409-.2508C10.6666,8.2361,10.8738,8.1267,10.8738,8.1267ZM8.8111,8.31q.0132-.1532.0269-.3c.28.14.556.2841.8209.4257q-.21.116-.4212.2372-.2229.1278-.44.2569C8.8031,8.5436,8.8111,8.31,8.8111,8.31Zm.0515,3.6821c-.0186-.3091-.0325-.6158-.0426-.9124q.2041.1224.4138.2441.2314.1341.4608.2617C9.4114,11.731,9.1311,11.8671,8.8626,11.9925Zm2.2949.0333c-.34-.1614-.6323-.3111-.8654-.4355q.2339-.1287.47-.2642.2337-.1339.46-.2694C11.207,11.3907,11.184,11.7172,11.1575,12.0258Zm.0818-2.3637c.0105.35.0081.7061-.0031,1.0579-.207.123-.3261.1873-.3261.1873-.2965.1822-.6052.3567-.9143.5213-.21-.1174-.3252-.1881-.3252-.1881-.29-.1563-.5788-.3253-.8609-.5-.014-.5352-.0167-1.026-.0149-1.4242.4445-.27.8566-.51,1.1948-.7016.4769.2605.9071.5072,1.25.7085C11.2424,9.5408,11.2393,9.6621,11.2393,9.6621Zm.2849.8828q.0048-.27.0048-.5449,0-.2562-.0042-.5077c.3343.1994.5335.3242.5335.3242q.143.1.2783.1964C12.0258,10.2269,11.7491,10.4052,11.5242,10.5449Z"></path><path class="cls-1" d="M15.0263,7.7986s.62-.632.6518-.9824a.1208.1208,0,0,0-.0876-.1288,3.7059,3.7059,0,0,0-1.8466.284.4874.4874,0,0,1-.1406.2738,4.5255,4.5255,0,0,1,.672,1.2579C14.5263,8.2812,14.7783,8.0461,15.0263,7.7986Z"></path><path class="cls-1" d="M12.4171.3157a9.9979,9.9979,0,0,0-4.836,19.4022L7.58,19.7171A9.9976,9.9976,0,1,0,12.4171.3157Zm2.1054,9.6681a4.5457,4.5457,0,0,1-.156,1.184c1.1678,1.001,1.7892,1.85,1.5516,2.26s-1.2855.2942-2.7374-.2225a4.5329,4.5329,0,0,1-2.0033,1.1583C10.897,15.8763,10.4737,16.84,10,16.84c-.4113,0-.7846-.7268-1.0595-1.9089a.4791.4791,0,0,1-.3728-.473.4958.4958,0,0,1,.0241-.1532,4.5364,4.5364,0,0,1-1.8105-1.1053c-1.4418.5036-2.48.613-2.7143.2041s.38-1.2454,1.5354-2.2322A4.5742,4.5742,0,0,1,5.55,9.0123a.4782.4782,0,0,1-.394-.4769A.4994.4994,0,0,1,5.17,8.4159C4.3069,7.5992,3.8785,6.9241,4.0822,6.572c.2349-.4064,1.2631-.2968,2.69.2052A4.5327,4.5327,0,0,1,8.8309,5.5933C9.1113,4.1054,9.5311,3.16,10,3.16s.89.949,1.171,2.442a4.5286,4.5286,0,0,1,1.7827.95.4577.4577,0,0,1,.3294-.1408.4635.4635,0,0,1,.401.2358c1.197-.3682,2.04-.4143,2.2487-.0507.2353.41-.3864,1.2546-1.5546,2.2485A4.5466,4.5466,0,0,1,14.5225,9.9838Z"></path></svg> 