<?xml version="1.0" encoding="UTF-8"?> <svg xmlns="http://www.w3.org/2000/svg" id="Layer_1" data-name="Layer 1" width="20" height="20" viewBox="0 0 20 20"><defs><style>.cls-1{fill:#6b11c9;fill-rule:evenodd;}</style></defs><title>Artboard 1 copy 43</title><path class="cls-1" d="M12.4171.3157a9.9979,9.9979,0,0,0-4.836,19.4022L7.58,19.7171A9.9976,9.9976,0,1,0,12.4171.3157Zm3.7239,10.258c-.0559.0188-.0484.0675-.0544.1114a6.1844,6.1844,0,0,1-4.57,5.2128c-.3186.0867-.6454.1431-.9685.2135H9.2326c-.0259-.07-.0885-.0479-.1389-.0554a6.1767,6.1767,0,0,1-4.2656-2.6035.7188.7188,0,0,1-.1788-.3655,7.4,7.4,0,0,0,2.971.21A2.1924,2.1924,0,0,0,6.6055,13.12a1.6578,1.6578,0,0,1-1.2583-.423,4.2562,4.2562,0,0,1-1.4778-2.5191c-.0186-.0908-.0261-.1679.1024-.1634a1.74,1.74,0,0,0,.6649.69c.19.1153.3428.0094.512.056.3153.0868.6215.2.97.2852-1.497-.9428-2.1927-2.187-1.5636-3.9442a3.9146,3.9146,0,0,0,2.3479,3.106C4.9228,8.3214,5.0974,6.61,5.9267,5.3949c.0044.0065.0123.0128.0125.0193.0018.082.0064.1642.0029.2461a3.2243,3.2243,0,0,0,.8692,2.4289c.1118.12.22.244.33.3649l.0025.0011c.0751-.0954-.0266-.1562-.0595-.2206a7.5949,7.5949,0,0,1-.5171-1.2335,2.6526,2.6526,0,0,1,.6212-2.55,4.06,4.06,0,0,0,.4636,3.16c.0107-.3229-.03-.64-.0376-.9578a3.3709,3.3709,0,0,1,.484-2.0151,1.73,1.73,0,0,1,1.101-.75A2.74,2.74,0,0,0,8.2373,5.96,4.65,4.65,0,0,0,9.6026,9.8754a1.8744,1.8744,0,0,0,.8659.5008,1.5206,1.5206,0,0,0,1.3523-.2235c.1916-.1484.1885-.2441-.0112-.3439-.1381-.0689-.09-.124-.0127-.1944.2233-.2022.45-.4.6683-.6082.2771-.2639.5854-.4714.4609-.9795-.1179-.4812-.3494-.7936-.8542-.7914-.2369.001-.4736.0287-.71.0438-.4061.026-.4339-.0193-.2546-.3943A2.108,2.108,0,0,1,11.57,6.28a.5715.5715,0,0,0,.1931-.2884.8929.8929,0,0,1,.4956-.5851,1.9644,1.9644,0,0,1,2.01.2047A5.268,5.268,0,0,1,15.9168,8.235c.0879.319.15.6451.2242.9679Z"></path><path class="cls-1" d="M7.1471,8.4567c.0166.0105.0324.0161.0417-.0111.0017-.005-.0064-.0133-.01-.02Z"></path></svg> 