<?xml version="1.0" encoding="UTF-8"?> <svg xmlns="http://www.w3.org/2000/svg" id="Layer_1" data-name="Layer 1" width="20" height="20" viewBox="0 0 20 20"><defs><style>.cls-1{fill:#6b11c9;fill-rule:evenodd;}</style></defs><title>Artboard 1 copy 44</title><path class="cls-1" d="M12.4171.3157a9.9979,9.9979,0,0,0-4.836,19.4022L7.58,19.7171A9.9976,9.9976,0,1,0,12.4171.3157ZM6.7647,4.424h6.4494l.7909,3.2869h-7.99Zm2.6007,9.841L7.9718,15.576H6.7851l-2.954-5.1393,2.164-1.6021,1.9137,1.2071v2.1844L9.3654,13.62Zm-.9561-2.1632.2077-2.06L7.93,8.2106h4.1611l-.6854,1.8311.2077,2.06Zm4.8261,3.4522H12.07l-1.3937-1.29V13.619l1.4353-1.3936V10.041L14.005,8.8134l2.164,1.6226Z"></path></svg> 