<?xml version="1.0" encoding="UTF-8"?> <svg xmlns="http://www.w3.org/2000/svg" id="Layer_1" data-name="Layer 1" width="20" height="20" viewBox="0 0 20 20"><defs><style>.cls-1{fill:#6b11c9;fill-rule:evenodd;}</style></defs><title>Artboard 1 copy 147</title><path class="cls-1" d="M11.4351,12.4071c-.2116.0656-.42.1438-.6355.194-.4042.0944-.5006-.0066-.4261-.4213-.0777-.0858-.1568-.1656-.28-.0708h0a1.5779,1.5779,0,0,1-.1731.7288,2.6626,2.6626,0,0,0,1.7965-.2192C11.5646,12.6011,11.3832,12.6785,11.4351,12.4071Z"></path><path class="cls-1" d="M8.7417,11.6486a.1054.1054,0,0,1-.1293.0327l-.3355.0851a.0253.0253,0,0,1-.0154.0063c-.0984.0108-.1932.1052-.296.0725l-.2223.0564-.01,0a5.5151,5.5151,0,0,0,1.0012.7166.1241.1241,0,0,0,.11.0193l.0644-.1864.0451-.4694a3.0076,3.0076,0,0,1-.1379-.3523Z"></path><path class="cls-1" d="M12.4171.3157a9.9979,9.9979,0,0,0-4.836,19.4022L7.58,19.7171A9.9976,9.9976,0,1,0,12.4171.3157ZM16.25,10.5131c-.1316.088-.3672.1884-.1172.4135.0589.053.0318.1466-.0293.2054a.262.262,0,0,0-.047.303c.06.1616-.0059.24-.1489.296-.1056.0412-.1954.1007-.15.2428a1.1209,1.1209,0,0,1-.0624.8469,6.7159,6.7159,0,0,1-1.52,1.892,6.26,6.26,0,0,1-2.0873,1.1928,6.05,6.05,0,0,1-3.272.2365,6.7841,6.7841,0,0,1-2.5973-1.11c-.1177-.0856-.2534-.1431-.1694-.3564.047-.1193-.0566-.2247-.2178-.129-.2471.1467-.212-.0369-.199-.1781.0067-.0719.0622-.1275.0646-.2107.0055-.1862-.0312-.2894-.2512-.2434-.2011.0422-.2043.0315-.1616-.15.0471-.2-.0286-.26-.2092-.1732-.2272.1088-.3049.0541-.3013-.2044.0031-.2258-.2579-.3928-.1832-.65-.3343.0321-.273-.2124-.3745-.42a4.3166,4.3166,0,0,1-.5918-1.79,4.2754,4.2754,0,0,1,.25-2.1038A1.5977,1.5977,0,0,1,4.12,7.6566l.0832-.2516a.2406.2406,0,0,1,.0824.2014l.0017.0013c.2309.0295.4761.012.6321.2477.053.08.1619.04.2462.0446a1.6334,1.6334,0,0,1,.8238.11.3135.3135,0,0,0,.4167-.1541c.136-.212.291-.3907.5928-.3391a.2163.2163,0,0,0,.2674-.1795c.0116-.0636.0293-.1344.1086-.1451.2511-.0342.2244-.2165.2138-.3915-.0116-.1924.0016-.3578.2573-.382a.664.664,0,0,0,.2919-.1233.3328.3328,0,0,0,.1486-.3687c-.0252-.1-.0627-.2517-.1867-.2269-.1579.0316-.0282.1483-.0217.2307.0026.0331-.0387.07-.1039.1763.0023-.3614-.1728-.6582.2442-.8508A.61.61,0,0,0,8.476,4.627a.4367.4367,0,0,0-.4-.4067A2.5581,2.5581,0,0,1,7.82,4.13a6.3049,6.3049,0,0,1,1.2932-.3263,5.7994,5.7994,0,0,1,2.2936.1034,6.2573,6.2573,0,0,1,3.596,2.2,6.1475,6.1475,0,0,1,1.3946,3.58.47.47,0,0,1-.1117.3562c-.0063.0072-.0208.0066-.03.0122C16.0178,10.2014,16.4949,10.3491,16.25,10.5131Z"></path><path class="cls-1" d="M10.9123,7.4028a3.1893,3.1893,0,0,0-2.5175.233A2.776,2.776,0,0,0,7.157,8.948a2.6057,2.6057,0,0,0-.0692,1.9355l.1972-.0149.195.2744a1.173,1.173,0,0,1,.2217-.0807,4.122,4.122,0,0,1,.4275-.1319c.0181-.1153.1435-.1094.2055-.1839.2028-.244.2359-.258.3761-.0107a1.0953,1.0953,0,0,1,.3819-.0838c.1.025.1749.1833.3165.1s.2416-.1749.3082-.1582.2.0749.25.0416a.1805.1805,0,0,1,.21.0379.6485.6485,0,0,1,.28.0612l-.0028-.0063a1.3634,1.3634,0,0,1-.093-2.1452l0-.0017c-.0026-.0713.0491-.0756.1-.0761a1.3461,1.3461,0,0,1,.1259-.08,1.49,1.49,0,0,1,1.392-.164c.0734.026.144.0885.232.05,0-.0047,0-.0092,0-.0144A2.1441,2.1441,0,0,0,10.9123,7.4028Z"></path></svg> 