<?xml version="1.0" encoding="UTF-8"?> <svg xmlns="http://www.w3.org/2000/svg" id="Layer_1" data-name="Layer 1" width="20" height="20" viewBox="0 0 20 20"><defs><style>.cls-1{fill:#6b11c9;fill-rule:evenodd;}</style></defs><title>Artboard 1 copy 45</title><polygon class="cls-1" points="7.675 8.883 7.681 8.889 7.675 8.883 7.672 8.88 7.675 8.883"></polygon><path class="cls-1" d="M5.7833,8.5418l-.0045.02.0045-.02Z"></path><path class="cls-1" d="M7.1626,10.236a.0142.0142,0,0,0-.0167-.0125.0143.0143,0,0,1,.0167.0125,1.275,1.275,0,0,0-.0824.137A1.275,1.275,0,0,1,7.1626,10.236Z"></path><polygon class="cls-1" points="7.715 8.922 7.714 8.923 7.715 8.922 7.715 8.922"></polygon><path class="cls-1" d="M4.1633,9.5429c.0238.0873.049.1743.0732.2615l.0052-.0262-.0052.0261C4.2123,9.7172,4.1871,9.63,4.1633,9.5429Z"></path><polygon class="cls-1" points="7.73 8.937 7.727 8.934 7.724 8.928 7.727 8.934 7.73 8.937"></polygon><path class="cls-1" d="M9.9068,7.6052l-.0185-.0033c-.1216-.0183-1.1107-.1714-.855.3285a2.9824,2.9824,0,0,1,.3093.9123c.0392.22.0685.4768.1046.8155.01.0936.13.1628.2647.1528a16.8344,16.8344,0,0,0,4.2539-.707C14.7522,8.6286,10.1338,7.6528,9.9068,7.6052Z"></path><path class="cls-1" d="M12.4171.3157a9.9979,9.9979,0,0,0-4.836,19.4022L7.58,19.7171A9.9976,9.9976,0,1,0,12.4171.3157Zm3.6006,9.8a.5432.5432,0,0,1-.0119.0586c-.0005.01.0028.02-.0054.0288l0,0c-.0016.0111.0029.0234-.0061.0332a2.8134,2.8134,0,0,1-.0542.2948c-.034.1555-.0792.3078-.1242.46a.1351.1351,0,0,1-.0087.0185,2.0741,2.0741,0,0,1-.167.3557,1.363,1.363,0,0,1-.0756.1226l-.0064.0078-.0034.0045a1.3271,1.3271,0,0,1-.4563.4042c-.0972.0522-.191.1108-.2917.1567-.095.0433-.1961.07-.2945.1037-.4031.14-.8181.238-1.23.3452-.1977.0513-.3949.105-.5943.1486-.2977.0651-.5925.1411-.8878.2156-.3162.08-.6316.1637-.9448.2544-.292.0846-.5821.1766-.87.2728-.1774.0592-.35.1325-.5248.1995l-.0172.0053c-.022.0674-.0312.1378-.0474.2065a.542.542,0,0,1-.0284.0943c-.0026.0062,0,.0145-.0079.0187-.0216.08-.0529.157-.0792.2356a2.68,2.68,0,0,1-.1762.44l-.0117.0208-.0037.0066,0,0c-.0012.0049-.0017.01-.0071.0124h0c-.0479.0938-.1.1859-.1428.2818a3.03,3.03,0,0,1-.3175.4756,1.5982,1.5982,0,0,1-.244.2411c-.0163.0151-.0345.0281-.05.0441a1.694,1.694,0,0,1-.36.227,1.4819,1.4819,0,0,1-.5018.1676c-.012.0026-.0119.0028-.0183.013h-.2c.0069-.02-.0107-.0114-.0159-.0117-.0441-.0033-.0884-.0058-.1327-.0071a.3978.3978,0,0,1-.1155-.0189c-.1058-.035-.2121-.0685-.3181-.1029a.1643.1643,0,0,1-.0327-.0152c-.1138-.0663-.2286-.1312-.3409-.2a1.5641,1.5641,0,0,1-.1831-.1526c-.0609-.0513-.1207-.1039-.18-.1567-.07-.0619-.1209-.14-.1842-.2078a3.7322,3.7322,0,0,1-.4424-.6355c-.0783-.1291-.1347-.2715-.2008-.408-.0166-.0343-.0326-.0689-.0489-.1034a1.7468,1.7468,0,0,1-.0943-.2369c-.0359-.0945-.0719-.1892-.1041-.2851-.1782-.5306-.3574-1.0609-.4908-1.6051-.0146-.0592-.034-.1171-.0438-.1774-.0074-.0055-.0047-.0138-.0055-.0211-.0075-.0054-.0046-.0143-.0071-.0213a6.6766,6.6766,0,0,1-.157-.6965c-.0217-.1539-.05-.3068-.0758-.46-.0016-.01-.0015-.02-.0023-.03a1.9,1.9,0,0,1-.0291-.1928q-.0178-.1237-.0321-.2478c-.007-.0609-.0117-.1221-.0163-.1832q-.0152-.197-.0289-.3941c-.0036-.05-.0056-.1-.0083-.1507a.0178.0178,0,0,1-.0056-.0162c0-.2664.0092-.5325.0139-.7988.0083-.0714.0164-.143.0249-.2144q.02-.1642.04-.3285c.0073-.0576.0154-.115.0232-.1725.0113-.0783.0331-.1543.05-.2314.0313-.1425.0648-.2845.0975-.4268l.005-.0109c.0208-.0884.0432-.1766.0624-.2654A7.2028,7.2028,0,0,1,4.51,6.1691l.0036-.0042.0026-.0118A.293.293,0,0,1,4.54,6.095L4.7821,5.64l.0156-.0253a1.4217,1.4217,0,0,1,.1031-.1443q.1551-.2118.3116-.4225l.0137-.015h0a.0323.0323,0,0,1,.0129-.0178l.013-.0187A.0306.0306,0,0,1,5.2637,4.98l.0115-.0136v.0015c0-.0039.0006-.0076.0054-.007-.0014-.006.0024-.0093.007-.0122V4.95l.0065-.01a.6618.6618,0,0,1,.1174-.1474c.0946-.08.1877-.1615.2814-.2425a1.735,1.735,0,0,1,.1667-.124c.0679-.05.1372-.0987.2062-.1475.0355-.025.0773-.0388.1146-.0605a3.2247,3.2247,0,0,1,.6305-.2363.9282.9282,0,0,1,.2142-.029c.1379-.0124.2762-.02.4144-.03.02-.0013.04,0,.06-.0021.0094-.0008.0233.0051.0262-.0116h.2722c.0006.0143.0121.0107.02.0115q.2839.0279.5678.0554a.045.045,0,0,1,.0323.011,1.0982,1.0982,0,0,1,.1764.0327c.2093.0428.4191.0838.6268.1333.1471.035.2912.0825.4367.1245l.4823.1394.0166.0067c.1292.0462.2584.092.3875.1385.2007.0725.4042.1382.6011.22.3232.1341.6436.275.9666.4094l.01.0061a1.9231,1.9231,0,0,1,.2475.1161c.2547.1278.51.2546.7628.386.1319.0686.2539.1546.3806.2323.1421.0872.2835.1757.4251.2638.0082.0051.0158.0114.0236.0172a.0125.0125,0,0,1,.0117.0069c.0635.0412.1183.0934.1777.14.1688.1322.3377.2645.5051.3986.0486.0389.1.0754.1451.1177a1.9242,1.9242,0,0,1,.1358.1614c.0476.0559.097.11.1454.1656q.0778.0888.1554.178c.026.0288.0507.0589.0781.0863A1.3562,1.3562,0,0,1,15.48,7.69a4.1115,4.1115,0,0,1,.2417.5182c.0086.018.0154.0368.0229.0552l.1121.2641a2.9365,2.9365,0,0,1,.1371.4974.7669.7669,0,0,1,.0173.0974c.0129.1081.0294.216.0322.3251.0058.1095.0073.2193.0028.3286C16.0413,9.89,16.028,10.0027,16.0177,10.1157Z"></path><path class="cls-1" d="M8.9953,7.4951h0A.1833.1833,0,0,1,9.1,7.4073.1833.1833,0,0,0,8.9953,7.4951Z"></path><path class="cls-1" d="M6.9968,10.6365c-.7311.03-1.2813,1.1042-1.229,2.4005s.6875,2.323,1.4186,2.2935,1.2813-1.1042,1.229-2.4S7.7279,10.6069,6.9968,10.6365Z"></path></svg> 