<?xml version="1.0" encoding="UTF-8"?> <svg xmlns="http://www.w3.org/2000/svg" id="Layer_1" data-name="Layer 1" width="20" height="20" viewBox="0 0 20 20"><defs><style>.cls-1{fill:#6b11c9;fill-rule:evenodd;}</style></defs><title>Artboard 1 copy 47</title><path class="cls-1" d="M13.7889,11.8643a1.3492,1.3492,0,0,0-.2966,0H7.0568c-.087,0-.1162,0-.1162.1161v2.014c0,.0928,0,.1161.1162.1161H10.028a1.4811,1.4811,0,0,0,.4232-.0288,4.423,4.423,0,0,0,1.26-.2787,2.3087,2.3087,0,0,0,.4232-.1972h.0406a3.77,3.77,0,0,0,1.619-1.63s.0406-.0877-.005-.1107Z"></path><path class="cls-1" d="M7.0505,8.22h6.6967s.058-.0118.07-.0464h-.0281a.1123.1123,0,0,0,0-.0811,2.2889,2.2889,0,0,0-.21-.3656,2.9575,2.9575,0,0,0-.43-.54,1.424,1.424,0,0,0-.2671-.2612,4.1716,4.1716,0,0,0-1.7411-.882,4.3236,4.3236,0,0,0-.9865-.1045H7.0388c-.087,0-.0986.0347-.0986.11V8.11C6.94,8.1965,6.94,8.22,7.0505,8.22Z"></path><path class="cls-1" d="M14.0726,9.3806H7.0509c-.0869,0-.11.0288-.11.11v1.0329c0,.1333,0,.1333.1391.1333h6.9871c.0752,0,.1108,0,.1162-.0986a6.7508,6.7508,0,0,0,0-1.0792C14.183,9.4094,14.1483,9.3806,14.0726,9.3806Z"></path><path class="cls-1" d="M12.4171.3157a9.9979,9.9979,0,0,0-4.836,19.4022L7.58,19.7171A9.9976,9.9976,0,1,0,12.4171.3157Zm4.0285,10.5a1.1817,1.1817,0,0,1,0,.2026v.7024c0,.0986-.0289.1279-.1162.1279H15.2326a.1451.1451,0,0,0-.1684.11,4.641,4.641,0,0,1-1.2189,1.7758,6.9781,6.9781,0,0,1-.6209.4989c-.2323.1337-.4583.2728-.6965.3831a6.2679,6.2679,0,0,1-1.37.435,7.1411,7.1411,0,0,1-1.358.11H5.7727v-.0059l.0017-.0012v-3.209c0-.0756,0-.0869-.0928-.0869H4.4222c-.07,0-.0985,0-.0985-.0927V10.6634H5.67c.0752,0,.1045,0,.1045-.0986V9.4738c0-.07,0-.0869-.0928-.0869H4.4222c-.07,0-.0985,0-.0985-.0928V8.273c0-.064,0-.0812.0927-.0812H5.6641c.0869,0,.11,0,.11-.11V4.9536c0-.0928,0-.1161.1162-.1161h4.3521a6.6176,6.6176,0,0,1,.94.1044,5.6713,5.6713,0,0,1,1.8163.6732,5.1128,5.1128,0,0,1,1.0212.7893,5.594,5.594,0,0,1,.621.7717,4.66,4.66,0,0,1,.4533.8879.151.151,0,0,0,.1734.122h1.0387c.1333,0,.1333,0,.1392.1278v.9519c0,.0928-.0347.1161-.1279.1161h-.8009c-.0811,0-.1045,0-.0987.1045a5.92,5.92,0,0,1,0,1.0617c0,.0987,0,.11.1107.11h.9164C16.4861,10.7106,16.4456,10.7628,16.4456,10.8155Z"></path></svg> 