<?xml version="1.0" encoding="UTF-8"?> <svg xmlns="http://www.w3.org/2000/svg" id="Layer_1" data-name="Layer 1" width="20" height="20" viewBox="0 0 20 20"><defs><style>.cls-1{fill:#6b11c9;fill-rule:evenodd;}</style></defs><title>Artboard 1 copy 48</title><path class="cls-1" d="M12.4171.3157a9.9979,9.9979,0,0,0-4.836,19.4022L7.58,19.7171A9.9976,9.9976,0,1,0,12.4171.3157ZM3.8456,10.1794a1.2832,1.2832,0,0,1,1.412-1.1929h4.46s-.0466.24-.1887.8271a1.2834,1.2834,0,0,1-1.412,1.1929h-4.46S3.7034,10.7665,3.8456,10.1794Zm11.61-.0117a5.3791,5.3791,0,0,1-2.8076,4.1917,6.0771,6.0771,0,0,1-2.8753.4964H5.4277l.36-2.02,3.8213.0024c2.2974.0023,2.91-.9927,3.2084-1.8664a8.48,8.48,0,0,0,.38-1.9363c.0163-1.1649-.5545-1.8686-2.4908-1.8686L6.7756,7.162l.3611-2.0178h4.3549C15.3221,5.1442,15.9978,7.2319,15.456,10.1677Z"></path></svg> 