<?xml version="1.0" encoding="UTF-8"?> <svg xmlns="http://www.w3.org/2000/svg" id="Layer_1" data-name="Layer 1" width="20" height="20" viewBox="0 0 20 20"><defs><style>.cls-1{fill:#6b11c9;fill-rule:evenodd;}</style></defs><title>Artboard 1 copy 51</title><path class="cls-1" d="M12.4171.3156a9.998,9.998,0,0,0-4.836,19.4023L7.58,19.7171A9.9977,9.9977,0,1,0,12.4171.3156ZM10,16.1731A6.1731,6.1731,0,1,1,16.173,10,6.173,6.173,0,0,1,10,16.1731Z"></path><path class="cls-1" d="M12.7139,7.5111A3.26,3.26,0,0,0,11.6733,7.23l.1969-.4866a.0956.0956,0,0,0-.0518-.1249.0933.0933,0,0,0-.0354-.0072h-.7284l-.2249.59H10.52l.1744-.4584a.0985.0985,0,0,0-.0587-.1262.096.096,0,0,0-.0314-.0059H9.8734l-.225.59H7.3761a.3376.3376,0,0,0-.2981.1772l-.5372,1.018H10.9s1.5046-.014.464,1.9265A2.951,2.951,0,0,1,8.72,11.8139L9.7357,9.221a.2054.2054,0,0,0-.1148-.2668A.2076.2076,0,0,0,9.55,8.94L8.2142,8.9173,6.5268,13.0232a6.1987,6.1987,0,0,0,.8718.0282l-.1687.4218h.7959a.1069.1069,0,0,0,.1012-.07l.1434-.38.3375-.0281-.1969.4781h.7763a.1406.1406,0,0,0,.1321-.09l.2166-.5568A5.2635,5.2635,0,0,0,12.967,10.52S14.4013,8.2985,12.7139,7.5111Z"></path></svg> 