<?xml version="1.0" encoding="UTF-8"?> <svg xmlns="http://www.w3.org/2000/svg" id="Layer_1" data-name="Layer 1" width="20" height="20" viewBox="0 0 20 20"><defs><style>.cls-1{fill:#6b11c9;fill-rule:evenodd;}</style></defs><title>Artboard 1 copy 52</title><path class="cls-1" d="M8.465,8.6483s-.2956.0352.2324.1408a3.66,3.66,0,0,0,.5174.0605,2.1626,2.1626,0,0,0-.271-.1591A.5963.5963,0,0,0,8.465,8.6483Z"></path><path class="cls-1" d="M9.2148,8.85a.2735.2735,0,0,0,.1655.0522,4.4412,4.4412,0,0,0,.4857-.0564A5.6669,5.6669,0,0,1,9.2148,8.85Z"></path><path class="cls-1" d="M8.5073,8.05c-.12.0211-.1479.0563-.07.2112s.1689.1267.3168.0915a.1979.1979,0,0,0,.1549-.176s-.1408-.1619-.0493-.1689.3379.014.3379-.1056-.3309-.2817-.6336-.2183-.1689.2746-.1689.2746C8.4439,7.8809,8.627,8.0288,8.5073,8.05Z"></path><path class="cls-1" d="M8.9766,7.1511c.1314-.0563.108-.1126.1127-.2769s-.1221-.122-.183-.122a.9226.9226,0,0,0-.2488.1267.42.42,0,0,0,0,.1643A.2568.2568,0,0,0,8.9766,7.1511Z"></path><path class="cls-1" d="M10.4316,7.0619a.8147.8147,0,0,0-.4177.2066c-.0141.1032.15.1548.15.1548.535.23.6946-.1032.6946-.1032S10.6522,7.0432,10.4316,7.0619Z"></path><path class="cls-1" d="M12.4171.3156a9.998,9.998,0,0,0-4.836,19.4023L7.58,19.7171A9.9977,9.9977,0,1,0,12.4171.3156Zm.4409,13.472c-.1126.3378-.1267.2675-.1267.2675l-.0141.2393-.014.3661-.4224.0282-1.1828.0845-.0844.0422-.0282.2394-.183.1267s-.3943-.0564-.4788-.0845-.6054-.0563-.69-.0986-.704-.4224-.704-.4224l-.4506-.2112s-.3942-.1689-.5772-.2675-.6336-.0141-.8589-.1549.07-.38.07-.38l-.535-.1268s-.1267-.1267-.2112-.1267a1.9269,1.9269,0,0,1-.7462-.4506c-.0845-.1548,1.0137-.6336,1.0137-.6336a.7537.7537,0,0,1-.1267-.5069c.0564-.2393,1.056-.5772,1.3517-.7884s.0141-.1549-.0281-.5773.1126-.4506.2112-.7744-.0141-.2112-.2253-1.0138.1548-1.0983.2816-1.76.9152-.7462.9152-.7462A6.7018,6.7018,0,0,1,9.338,4.8185a4.9649,4.9649,0,0,1,.5491.873l.0428.0327c.3555.042,1.2161.1391,1.4461.1235l.1867-.3111.31-.31s.3943-.3379.5914.1126-.0422,1.1687.0845,1.2954-.0141.4224-.0141.5492.2394.9856.3379,1.3235a10.3458,10.3458,0,0,1,.2676,3.1258C13.1678,14.0128,12.9707,13.45,12.858,13.7876Z"></path></svg> 