<?xml version="1.0" encoding="UTF-8"?> <svg xmlns="http://www.w3.org/2000/svg" id="Layer_1" data-name="Layer 1" width="20" height="20" viewBox="0 0 20 20"><defs><style>.cls-1{fill:#6b11c9;fill-rule:evenodd;}</style></defs><title>Artboard 1 copy 54</title><path class="cls-1" d="M10.0753,14.4766c-.1015.0068-.2466.0021-.2538.1268-.0077.1345.1556.1283.2482.1447a.1852.1852,0,0,0,.224-.14C10.3045,14.4729,10.1762,14.4831,10.0753,14.4766Z"></path><path class="cls-1" d="M8.5429,11.0868a1.9943,1.9943,0,0,0-.88-.1329l-.1783.04a.35.35,0,0,0-.2669.3147c-.0169.2061.13.3008.257.3878a1.0189,1.0189,0,0,0,.3526.0842h0l.3064-.0028.0042.008a1.78,1.78,0,0,0,.3632-.0577.342.342,0,0,0,.2871-.3248C8.8066,11.2,8.6728,11.1473,8.5429,11.0868Z"></path><path class="cls-1" d="M7.486,10.4728l.0027.0012a.8.8,0,0,1,.2124.0905l0,0a2.4015,2.4015,0,0,1,.44.2322.5133.5133,0,0,0,.7315-.2025c.08-.2324-.1-.4763-.422-.5666a1.3248,1.3248,0,0,0-.5528-.0492,2.3251,2.3251,0,0,0-.7951.4311,2.6478,2.6478,0,0,1,.382.0635Z"></path><polygon class="cls-1" points="5.619 8.615 5.62 8.612 5.62 8.612 5.619 8.615"></polygon><path class="cls-1" d="M10.987,10.6359a.6028.6028,0,0,0,.6661-.1965,2.3445,2.3445,0,0,1,.4235-.34l.0009-.0009.0038-.0016a.7349.7349,0,0,1,.1139-.0483l.1679-.0713.0946-.058-.35-.1481a.4072.4072,0,0,0-.0452-.1933.4072.4072,0,0,1,.0452.1933,1.5013,1.5013,0,0,0-.9316.0216c-.2036.0847-.4121.207-.4372.4731A.3641.3641,0,0,0,10.987,10.6359Z"></path><path class="cls-1" d="M12.4171.3156a9.998,9.998,0,0,0-4.836,19.4023L7.58,19.7171A9.9977,9.9977,0,1,0,12.4171.3156Zm2.555,11.7414c.18.1426-.0346.2149-.0574.3215a.8059.8059,0,0,1-.2052.5588c-.14.1767-.3174.306-.4589.47A10.3392,10.3392,0,0,1,12.9573,14.53a.37.37,0,0,1-.322.102c-.637.37-1.3425.5853-2.0078.8917a6.7924,6.7924,0,0,1-1.92-.2954,8.3556,8.3556,0,0,1-1.5853-.7832q-.18-.1138-.36-.2272c-.1543.0453-.2492-.07-.3145-.16-.3334-.46-.7978-.7976-1.1344-1.2566a.9763.9763,0,0,1-.1632-.629c-.049-.0832-.1722-.1771-.1227-.2535a4.61,4.61,0,0,0,.3145-1.1007c.016-.0454.0384-.0885.0685-.1567l.1056-.6889c.0011-.1336.0039-.2674-.0043-.4-.0047-.0776.0265-.1058.0684-.12l-.0158-.23a.6992.6992,0,0,1,.194-.9858l.0038.0235.0824-.2571c-.0032-.0291-.0062-.0581-.0088-.0871l-.0081.0191-.1219-.0761c-.0667.0826-.208.1-.4612.0852-.1521-.0092-.1521-.0092-.3811-.1552.2754-.041.5279.0193.7715-.154l0-.003c-.244-.0814-.4909.1172-.6965-.0886a2.4648,2.4648,0,0,0,.6188-.1689.2882.2882,0,0,1,.0582-.02l.2187-.2664a4.6031,4.6031,0,0,1,.15-.8289.4656.4656,0,0,1,.71-.3135l.1931-.1671a1.929,1.929,0,0,1,.1027-.4031c.0672.1136.153.2145.2111.3152a.4961.4961,0,0,0,.1871-.0543,1.0156,1.0156,0,0,1,.0248-.1339c.0328-.1276.0645-.3466.1927-.3149a.3849.3849,0,0,1,.2739.3756,1.1418,1.1418,0,0,0,.03.3288l.13.0573A1.9257,1.9257,0,0,1,7.98,5.6444c-.0053-.048-.03-.1018.0333-.1254.06-.0225.0884.0205.106.07q.0439.1243.0963.2418l.04-.2261c-.0156-.0418-.0307-.0837-.045-.126A1.279,1.279,0,0,1,8.41,4.4622c.2254.7086.7691.7017,1.3265.6942a2.68,2.68,0,0,1,2.0268.6891.2535.2535,0,0,0,.059.04l.0919-.03a2.2255,2.2255,0,0,0-1.5257-.7591,1.2463,1.2463,0,0,1-.5506-.18,9.1034,9.1034,0,0,1,2.0314.22.7865.7865,0,0,1,.2031.1316l.3455-.1485c.0221-.0338.0434-.0139.063.0061v0a.8186.8186,0,0,1,.5557.941l.1171.1309a.6213.6213,0,0,1,.7133-.2712.2931.2931,0,0,1,.227.2441,3.5781,3.5781,0,0,1,.132,1.2858.1989.1989,0,0,1-.0378.115l.1241.1861.1263.0362-.0911.0167.0358.0535a1.3228,1.3228,0,0,1,.0973.2249,2.5434,2.5434,0,0,0,.247-.1115c.0393-.02.0788-.019.0949.026a.0948.0948,0,0,1-.01.082.6158.6158,0,0,1-.1582.1259c-.04.0191-.08.0357-.1194.0512.012.0428.024.09.0357.1406l.0079-.0016-.0038.0186c.02.0888.04.1892.057.3016.0771-.0284.023.0748.0322.1173.0227.1051.1.2.0451.3352l-.0282-.0121c.0117.1586.0184.3336.0185.5252a1.3179,1.3179,0,0,1,.2265.3592.3072.3072,0,0,1-.235.0235c-.0067.157-.0173.3223-.0335.4986.111.375.222.722.3028,1.0756C14.9891,11.77,15.335,11.9154,14.9721,12.057Z"></path><path class="cls-1" d="M12.5008,10.963l-.0509-.0121a2.0055,2.0055,0,0,0-.9935.1756.324.324,0,0,0-.1912.3039c-.0028.1562.1006.2.2022.25a1.7892,1.7892,0,0,0,.7537.11,4.14,4.14,0,0,0,.419-.1277.3427.3427,0,0,0,.21-.4813C12.7915,11.0324,12.6394,11.0028,12.5008,10.963Z"></path><path class="cls-1" d="M11.31,13.75c-.183-.0379-.3666-.0741-.5485-.1173-.5021-.1191-.5018-.12-.2079-.5439l.0177-.0237c.2025-.3132.1088-.5568-.2561-.6317a3.5761,3.5761,0,0,0-.47-.0361c-.0232.0471-.0308.0891.0287.1173a.1369.1369,0,0,1,.0641.2147.1407.1407,0,0,1-.1455.0751.1529.1529,0,0,1-.1373-.1857c.0044-.052.0047-.0948-.0491-.1195-.2634.124-.2119.3252-.1142.5217a1.1878,1.1878,0,0,0,.2137.2816c.1372.1422.1211.224-.0768.2661a5.8435,5.8435,0,0,0-.5728.1374c-.123.04-.3638-.0133-.3161.2072.0382.1765.2306.0866.3587.0629a.5583.5583,0,0,1,.3176.0009,2.0316,2.0316,0,0,0,.6995.0925c.39.0052.7675-.2011,1.1658-.0628a.1234.1234,0,0,0,.159-.0975C11.4636,13.8111,11.3982,13.768,11.31,13.75Zm-1.76.1661A.88.88,0,0,1,10.5753,13.9,3.098,3.098,0,0,1,9.55,13.9159Z"></path></svg> 