<?xml version="1.0" encoding="UTF-8"?> <svg xmlns="http://www.w3.org/2000/svg" id="Layer_1" data-name="Layer 1" width="20" height="20" viewBox="0 0 20 20"><defs><style>.cls-1{fill:#6b11c9;fill-rule:evenodd;}</style></defs><title>Artboard 1 copy 156</title><path class="cls-1" d="M12.4171.3157a9.9979,9.9979,0,0,0-4.836,19.4022L7.58,19.7171A9.9976,9.9976,0,1,0,12.4171.3157ZM8.9432,5.3247c.3251-.32.6492-.6421.9669-.97.0773-.08.12-.0537.1812.0086q.4813.4872.9672.97c.0579.0574.0811.0965.01.1659-.3358.3294-.6667.6638-1,.9962-.0192.0191-.0416.0352-.0707.06-.0274-.0228-.0543-.0418-.0773-.0646-.3278-.3277-.6532-.6577-.9839-.9824C8.8635,5.4351,8.8763,5.3905,8.9432,5.3247ZM11.03,14.6859c-.3124.3137-.629.6233-.9356.9427-.0917.0956-.1418.0826-.2266-.0052q-.4467-.4629-.9084-.9111c-.0916-.0888-.1122-.1431-.0081-.2429.3147-.3014.62-.6123.924-.9249.0773-.0795.1244-.0971.2111-.0074.3125.3231.634.6378.9513.9563.0285.0285.0523.0617.0811.0962C11.0857,14.6254,11.0588,14.6567,11.03,14.6859Zm4.5759-4.5638q-1.4549,1.4508-2.9018,2.9095c-.0987.1-.1517.111-.2575.0041q-1.7526-1.7694-3.5151-3.5291c-.4592-.4605-.9219-.9175-1.3747-1.3842-.1043-.1075-.1578-.0969-.2569.0042Q6.435,9.008,5.5554,9.8749c-.1061.1044-.0983.1591.003.2591q.8792.867,1.7439,1.7488c.1033.1055.1571.1013.2569-.0019.3847-.3977.7824-.7831,1.168-1.18.0958-.0985.158-.1264.258-.0072a4.004,4.004,0,0,0,.3512.3528c.0747.0694.0855.1192.0058.1982-.609.6042-1.2138,1.2125-1.8206,1.8188a.9773.9773,0,0,1-.098.0763c-.0361-.0318-.0688-.0573-.0979-.0865q-1.4737-1.476-2.9485-2.9511c-.0779-.0777-.0748-.1234.0013-.1994Q5.8553,8.43,7.3243,6.949c.1377-.1392.1877-.0141.2565.0547q2.4064,2.4071,4.8064,4.8208c.1527.1542.2285.15.3759-.0023.5475-.5676,1.1084-1.1222,1.67-1.6761.1013-.1.1329-.158.0121-.2762Q13.5622,9.0067,12.7,8.1227c-.106-.1083-.1588-.0947-.2561.0057-.39.4022-.7924.7924-1.1828,1.1945-.0908.0935-.1434.0933-.2273-.0015a4.7876,4.7876,0,0,0-.3664-.367c-.0827-.0752-.0729-.1246.0023-.1994q.9048-.9,1.8014-1.8088c.0888-.09.136-.0675.2127.01q1.4628,1.4723,2.9329,2.9372C15.7152,9.9913,15.6887,10.0393,15.6057,10.1221Z"></path></svg> 