<?xml version="1.0" encoding="UTF-8"?> <svg xmlns="http://www.w3.org/2000/svg" id="Layer_1" data-name="Layer 1" width="20" height="20" viewBox="0 0 20 20"><defs><style>.cls-1{fill:#6b11c9;fill-rule:evenodd;}</style></defs><title>Artboard 1 copy 149</title><path class="cls-1" d="M12.4171.3157a9.9979,9.9979,0,0,0-4.836,19.4022L7.58,19.7171A9.9976,9.9976,0,1,0,12.4171.3157Zm-.9153,10.9754c.4859.4665.94.9656,1.4433,1.4147a.4294.4294,0,0,1,.0332.0329c.4133.4578.8512.8913,1.2917,1.3226.2232.2187.4328.4514.65.6763a.207.207,0,0,1,0,.3343c-.5518.5414-.45.5682-.9877.0294-.6314-.6326-1.9757-1.9933-2.0127-2.0447-.5635-.5567-1.1351-1.1054-1.6868-1.6737-.2327-.24-.2165-.4424.038-.7q.9891-1.002,1.9984-1.984c.6517-.6376,1.311-1.2675,1.9679-1.9a.2361.2361,0,0,0,.0277-.3645.2171.2171,0,0,0-.3407.0046c-.1029.0956-.21.1873-.3147.2805l-.0272.0258c-.4774.4881-.9509.98-1.4331,1.4634Q10.5509,9.81,8.9463,11.4046c-.1481.148-1.3392,1.339-1.7827,1.791a1.5066,1.5066,0,0,1-.8116.4921,1.1563,1.1563,0,0,1-1.2582-1.5893.186.186,0,0,1,.04-.0734c.0084-.0116.0165-.0236.0239-.0359A1.6074,1.6074,0,0,1,5.5714,11.5.5448.5448,0,0,0,5.653,11.43c.6737-.7284,1.7942-1.8686,2.43-2.4992a.228.228,0,0,0-.0054-.389c-.2619-.2449-.5043-.5108-.755-.7678C6.607,7.08,5.1415,5.5847,5.1006,5.5542l0,0c-.4783-.3648-.4857-.4628-.0838-.8558A1.0907,1.0907,0,0,1,5.13,4.5955c.1835-.1285.2743-.1156.428.04Q6.8208,5.9117,8.0889,7.183c.39.3915.7633.8012,1.1771,1.1653.2777.2444.2784.5049-.0159.7969-.3723.37-.7474.7365-1.1161,1.11a6.6963,6.6963,0,0,1-.5629.5355.4955.4955,0,0,0-.07.0686c-.3259.3912-.7045.7315-1.06,1.0945-.1161.1187-.2351.2347-.3553.3492-.1071.1021-.2112.2137-.0641.3473.1276.1161.2565.0548.3652-.0535q.5791-.5771,1.158-1.1544Q8.9878,10.0043,10.43,8.5663q1.3025-1.3035,2.6-2.6123a1.6117,1.6117,0,0,1,.2909-.2694.6329.6329,0,0,0,.0742-.051A1.1462,1.1462,0,0,1,14.4656,5.47c.0633.016.1255.0367.1875.0576a.4974.4974,0,0,1,.1885.1141,1.3251,1.3251,0,0,1,.43,1.0457,1.27,1.27,0,0,1-.4613.9017q-1.65,1.6152-3.3155,3.2132C11.2958,10.9927,11.3132,11.11,11.5018,11.2911Z"></path></svg> 