<?xml version="1.0" encoding="UTF-8"?> <svg xmlns="http://www.w3.org/2000/svg" width="20" height="20" viewBox="0 0 20 20"><defs><style>.cls-1{fill:#6b11c9;fill-rule:evenodd;}</style></defs><title>Artboard 1 copy 60</title><g id="Layer_2" data-name="Layer 2"><polygon class="cls-1" points="9.62 8.702 7.341 10.032 9.62 11.361 9.62 8.702"></polygon><polygon class="cls-1" points="10.38 11.361 12.659 10.032 10.38 8.702 10.38 11.361"></polygon><polygon class="cls-1" points="6.961 6.74 6.961 9.399 9.24 8.069 6.961 6.74"></polygon><polygon class="cls-1" points="6.961 10.665 6.961 13.767 10 15.539 13.039 13.767 13.039 10.665 10 12.437 6.961 10.665"></polygon><polygon class="cls-1" points="13.039 9.399 13.039 6.74 10.76 8.069 13.039 9.399"></polygon><path class="cls-1" d="M12.4171.3157a9.9979,9.9979,0,0,0-4.836,19.4022L7.58,19.7171A9.9976,9.9976,0,1,0,12.4171.3157Zm1.3812,13.8307L10,16.2988,6.2017,14.1464V5.8536L10,3.7012l3.7983,2.1524Z"></path><polygon class="cls-1" points="7.341 6.107 10 7.626 12.659 6.107 10 4.524 7.341 6.107"></polygon></g></svg> 