<?xml version="1.0" encoding="UTF-8"?> <svg xmlns="http://www.w3.org/2000/svg" id="Layer_1" data-name="Layer 1" width="20" height="20" viewBox="0 0 20 20"><defs><style>.cls-1{fill:#6b11c9;fill-rule:evenodd;}</style></defs><title>Artboard 1 copy 61</title><path class="cls-1" d="M12.4171.3157a9.9979,9.9979,0,0,0-4.836,19.4022L7.58,19.7171A9.9976,9.9976,0,1,0,12.4171.3157Zm-.0295,14.5385a4.0082,4.0082,0,0,1-3.3552.6073,4.1946,4.1946,0,0,1-3.0846-2.8191,4.0317,4.0317,0,0,1,.6231-3.7771,4.8381,4.8381,0,0,1,.9919-.9635.8992.8992,0,0,1,.3363-.5136c-.206-.1472-.2529-.3015.0149-.4177.12-.0522.1084-.3246.284-.2087.17.112.0455.2726-.0273.4153a1.1843,1.1843,0,0,0-.0658.3052l.11.03.1795-.0448c.1023-.1221.2709-.0929.3921-.172-.0024-.1391-.1451-.2092-.1693-.3312-.0292-.146-.29-.2052-.1385-.4379.0327-.05-.15-.273-.3282-.3144-.0847-.02-.192-.026-.0687-.144.2406,0,.5306.2031.6813-.166.0693-.1372-.1253-.2756.0016-.4124l.07-.0554A.0522.0522,0,0,0,8.8735,5.41c.0084-.1022-.0522-.2165.0533-.3015a.7587.7587,0,0,1,.5594-.0019c.2495.0057.5084.0861.7346-.0928-.0144-.1055.041-.276-.1822-.176a.64.64,0,0,1-.2138.0155h0c-.1065.1-.2129.1822-.3185-.0011.0234-.0172.0663-.0258.0868-.0449-.0205.0191-.0634.0276-.0869.0448a2.2768,2.2768,0,0,1-.979.0537l-.0252-.003a.8.8,0,0,0-.2574-.3915c.3211-.0152.6429-.1732.9294.1012a.26.26,0,0,0,.2639.074A.153.153,0,0,1,9.6231,4.53c.1749-.21.2971-.4517.6766-.3568.19.0474.0466.167.13.2021.1664.07.22.2441.3278.3679.0815.1479.2458.1624.3752.2328.1263.0686.2789.1164.232.3129l.02.392c.1746-.0365.2827.3007.5167.074.06-.0585.0509.2051.1876.2753.0812.0417-.06.093-.107.1352L11.977,6.162h0l.005.0035c-.0157.0676-.0045.1385-.1044.1693a.5565.5565,0,0,0-.3825.5125.5107.5107,0,0,1,.6368.1661c.0472.0517.0813.0937.0212.1548l-.058.2942c.3407.0217.2413.359.3778.5271.3367.1378.4971.4715.7638.687a2.1464,2.1464,0,0,1,.712,1.078A4.1628,4.1628,0,0,1,12.3876,14.8542Z"></path></svg> 