<?xml version="1.0" encoding="UTF-8"?> <svg xmlns="http://www.w3.org/2000/svg" id="Layer_1" data-name="Layer 1" width="20" height="20" viewBox="0 0 20 20"><defs><style>.cls-1{fill:#6b11c9;fill-rule:evenodd;}</style></defs><title>Artboard 1 copy 64</title><path class="cls-1" d="M12.4171.3157a9.9979,9.9979,0,0,0-4.836,19.4022L7.58,19.7171A9.9976,9.9976,0,1,0,12.4171.3157Zm-2.67,16.0415c-.041-.0023-.0555-.0265-.0917-.0458l-.8061-.4948c-.0169-.012-.0242-.0145-.0435-.0266L7.1182,14.75c-.029-.0169-.0531-.0337-.08-.0483L5.18,13.5575l-.0435-.0241a.39.39,0,0,1-.041-.0266c-.029-.0193-.0483-.0289-.08-.0482-.058-.0362-.1183-.0676-.1714-.1038-.1448-.0966-.3476-.2221-.502-.3041V6.94c.0386.0193.07.0435.111.0652l.543.3089c.0386.0241.0676.041.1062.0628s.0725.041.1062.0627v5.1191l.1762.1086c.0169.0121.0338.0242.0531.0362.2269.1376.4658.2728.6879.4224.041.0266.0748.0434.1158.07.15.0965.3089.1835.4562.2824a1.1547,1.1547,0,0,0,.1159.0724l.403.2486c.0217.0144.0338.0193.0555.0338.1859.1231.3862.2269.572.3524l.4562.2824c.1882.1134.3837.2244.5672.3475V10.55a.2735.2735,0,0,1-.08-.0387c-.0265-.0144-.0458-.0265-.0748-.0434L7.6661,9.8624V8.868a3.9833,3.9833,0,0,1,.3982.2221l.2559.1472c.0314.0145.041.0242.07.0386.2873.15.5528.3331.8376.4828l.2.1158c.0241.0145.0386.0241.0627.0362l.2559.1472ZM9.5752,9.3556c-.0289-.0169-.0507-.0314-.08-.0483L8.7522,8.88c-.2317-.1472-.4779-.2679-.712-.41-.0169-.01-.0145-.01-.0362-.0217l-.5-.29c-.029-.0144-.0507-.0289-.0821-.0458L7.34,8.0668c-.4393-.2655-.893-.502-1.33-.7676l-.9171-.531c-.1159-.0579-.2173-.13-.3307-.1906a.31.31,0,0,0-.0844-.0434c.01-.0338.0024-.0194.0313-.0363L5.0836,6.29a.932.932,0,0,0,.0845-.0435c.0531-.0362.111-.0579.1665-.0893a.2869.2869,0,0,1,.0266-.012L5.75,5.9332c.0313-.0145.0482-.029.082-.0459L6.0877,5.75c.0289-.0192.0579-.0265.0844-.0434.0193-.01.0193-.0145.0435-.0266l.1207-.0651c.0361-.0169.0506-.029.082-.0459l1.3371-.7216A.932.932,0,0,1,7.84,4.8036L9.749,3.7706a2.552,2.552,0,0,1,.2534-.13,2.641,2.641,0,0,1,.3451.1786l.881.4779c.0145.0072.0217.01.0386.0193.0314.0169.0507.029.0821.0458l.671.3621a.6436.6436,0,0,0,.082.0458l1.6678.9c.1062.0676.22.1207.333.1786l.3307.181c.1665.08.333.1834.5.2679l.3306.181c.029.0169.0579.029.0676.06a3.5231,3.5231,0,0,0-.3283.1834l-.3258.1859c-.1762.0965-.1785.152-.2872.0868-.0289-.0168-.0386-.0217-.07-.0386l-.9124-.4948c-.1641-.082-.321-.181-.4851-.263-.1448-.0724-.5551-.2873-.69-.3717l-1.535-.8279a.4731.4731,0,0,1-.07-.0386c-.0241-.0145-.041-.0217-.0652-.0337-.0989-.0508-.5261-.2994-.5575-.2994L9.44,4.9291c-.0242.0145-.0314.0218-.0556.0338l-1.3877.7482c-.0387.0194-.0773.0362-.1159.06a.4445.4445,0,0,1-.0579.0313.5019.5019,0,0,0-.0483.029l-1.1126.601c-.0386.0217-.0724.0337-.1086.0579-.0435.0266-.0749.0289-.1014.0676a.14.14,0,0,1,.06.029l1.2791.7385c.0218.0121.0362.0169.058.0314l.0554.0337.9992.5745c.0339.0193.0724.0434.1111.0651.1714.0894.3282.2028.5.29l.4923.2848c.0531-.029.099-.0556.15-.0869a.7284.7284,0,0,1,.0724-.0459c.3234-.1762.6323-.3765.9581-.5478l.8182.4706c.0242.0145.029.012.0363.041a.5616.5616,0,0,0-.1352.0724l-.2558.1472c-.0266.0145-.0411.0218-.0628.0362-.0217.0121-.0386.0242-.0628.0363l-.3837.2171c-.041.0266-.08.0459-.1231.0725l-.2534.15L10.64,9.24c-.0435.0266-.0821.0434-.1255.07l-.13.0773a2.4562,2.4562,0,0,1-.3789.21A4.1932,4.1932,0,0,1,9.5752,9.3556Zm6.0822,3.6951a.8155.8155,0,0,0-.087.0507l-1.5181.934c-.0265.0169-.0531.0338-.0845.0531l-2.2735,1.4c-.0289.0168-.0507.0314-.08.0482l-.4272.2631c-.0289.0169-.0531.0338-.0844.0531-.1617.1086-.3379.1979-.5.3066-.0579.0385-.1135.0675-.1714.1037a.8429.8429,0,0,1-.1689.0966V15.3459L10.55,15.17c.21-.1376.43-.2559.64-.3934.0217-.0145.0458-.029.0676-.0411l.7071-.4344c.0458-.0289.0941-.0555.14-.0869.2558-.1665.5261-.3089.78-.48.0265-.0169.041-.0242.0675-.0411l.5649-.35c.193-.111.374-.2365.5671-.3475l.2148-.128c.0266-.0144.041-.0265.0676-.041.0241-.0144.0435-.0289.0724-.0458.0265-.0169.0434-.029.0652-.0435l.2124-.13a.2022.2022,0,0,1,.0724-.0362v-4.13l-.1207.0676c-.0362.0241-.07.041-.111.0652-.0773.0483-.1521.0893-.2293.1351l-.2293.1352c-.1545.0821-.2993.181-.4562.2631l-.7409.43c-.0193.01-.0387.0169-.0579.0289l-.1111.0652c-.1014.0531-.1931.1207-.292.1714l-.0555.0338-.2269.1279c-.0411.0241-.0724.0435-.111.0651-.15.0894-.2993.1859-.4562.2631-.1158.058-.2268.1352-.34.2-.0217.012-.0362.0169-.0579.0313a.1547.1547,0,0,1-.06.0266v1.4264a.6387.6387,0,0,0-.058.0289.3614.3614,0,0,1-.0555.0338c-.1472.0772-.2823.1714-.43.2486l-.321.181V10.0483a5.3777,5.3777,0,0,0,.5044-.2848l.1714-.0942c.0193-.01.0193-.0145.0434-.0265.1014-.0531.1907-.1183.2921-.1714l.1713-.0941a.4154.4154,0,0,1,.0435-.0265l.5479-.3186c.0289-.0193.0531-.0266.082-.0459.1617-.1014.4176-.2534.5938-.3428l.2486-.1447c.0579-.0338.1062-.0652.1665-.099l1.3491-.7771c.1738-.0869.3331-.2.5045-.2921l.5044-.292c.029-.0169.0507-.029.0821-.0459a.2317.2317,0,0,1,.0845-.0434Z"></path></svg> 