<?xml version="1.0" encoding="UTF-8"?> <svg xmlns="http://www.w3.org/2000/svg" id="Layer_1" data-name="Layer 1" width="20" height="20" viewBox="0 0 20 20"><defs><style>.cls-1{fill:#6b11c9;fill-rule:evenodd;}</style></defs><title>Artboard 1 copy 68</title><path class="cls-1" d="M10.102,5.7075a1.6985,1.6985,0,1,0,1.6985,1.6984A1.7,1.7,0,0,0,10.102,5.7075Z"></path><path class="cls-1" d="M8.4036,13.3516a1.6985,1.6985,0,1,0,1.6984-1.6985A1.7,1.7,0,0,0,8.4036,13.3516Z"></path><path class="cls-1" d="M12.4171.3157a9.9979,9.9979,0,0,0-4.836,19.4022L7.58,19.7171A9.9976,9.9976,0,1,0,12.4171.3157Zm.2316,7.09a2.55,2.55,0,0,1-2.1225,2.5112v.9213a2.5468,2.5468,0,1,1-.8483,0V9.9171a2.5467,2.5467,0,0,1,.4241-5.0579,2.5243,2.5243,0,0,1,1.4756.4715l1.227-1.227.6.6L12.1772,5.93A2.5474,2.5474,0,0,1,12.6487,7.4059Z"></path></svg> 