<?xml version="1.0" encoding="UTF-8"?> <svg xmlns="http://www.w3.org/2000/svg" id="Layer_1" data-name="Layer 1" width="20" height="20" viewBox="0 0 20 20"><defs><style>.cls-1{fill:#6b11c9;fill-rule:evenodd;}</style></defs><title>Artboard 1 copy 70</title><path class="cls-1" d="M10.3568,8.2974c-.0029-.2015-.063-.24-.242-.1548-.0574.0273-.1143.0557-.1724.081-.0485.0211-.075.0506-.06.1071.0312.1151.0877.2046.2217.2041A.2541.2541,0,0,0,10.3568,8.2974Z"></path><path class="cls-1" d="M9.5872,8.3655A1.2357,1.2357,0,0,0,9.208,8.58c0,.08.1759.2412.2654.2423a.2357.2357,0,0,0,.2444-.219C9.72,8.501,9.6445,8.3644,9.5872,8.3655Z"></path><path class="cls-1" d="M12.4171.3157a9.9979,9.9979,0,0,0-4.836,19.4022L7.58,19.7171A9.9976,9.9976,0,1,0,12.4171.3157Zm-8.2748,9.9A5.73,5.73,0,0,1,6.0511,6.4615a5.8492,5.8492,0,0,1,9.6463,3.17,6.44,6.44,0,0,1,.0958.6557c.0124.1168-.0127.1536-.1325.15-.2676-.0077-.5356-.0024-.8035-.0024-.262,0-.5241-.005-.7859.0023-.1147.0032-.1607-.0281-.1755-.15a3.9636,3.9636,0,0,0-7.8343-.1931c-.0585.3407-.0585.3407-.4081.3407-.4367,0-.8738-.011-1.31.0051C4.1543,10.4474,4.123,10.3863,4.1423,10.2159Zm11.7865.7655c-.0988.0086-.1691.0291-.18.14-.01.1053-.0932.1213-.1739.14-.1015.024-.204.045-.3037.0752a.1022.1022,0,0,0-.0842.099c.0013.049.0433.0633.0777.085.07.0442.2111.0482.1886.1465s-.1586.0667-.246.0749a6.6145,6.6145,0,0,0-.6767.0678c-.0742.0147-.1677.0354-.1664.125.0015.0948.1024.094.1736.1113.0564.0137.115.0193.1706.0351.0679.0194.14.0441.146.1293a.1714.1714,0,0,1-.114.1615,2.9418,2.9418,0,0,1-.6353.182,1.391,1.391,0,0,0-.3786.1277c-.1645.0989-.165.2121-.0045.3122.1324.0826.1383.1509.023.2528a.54.54,0,0,1-.3426.1076c-.2091.015-.4181.0294-.6268.048-.044.0039-.1041.01-.1131.0634-.0078.0468.0618.0448.088.094a4.4955,4.4955,0,0,1-.8939.1055c-.2029.018-.4062.03-.6093.0459-.0512.0041-.1184.0042-.1357.0572-.0215.0656.0523.0791.0931.1063.0372.0249.0883.0337.0974.1a1.5358,1.5358,0,0,1-.49.0811,1.8543,1.8543,0,0,0-.43.0688c-.0441.0147-.1.0228-.1067.0753-.0075.0606.0473.0908.0941.1108.0691.0294.1431.0471.2137.0733.0377.0139.083.032.0813.0792-.0013.0373-.04.0567-.0741.0658a2.3458,2.3458,0,0,1-1.002.0735c.038-.012.0757-.0248.114-.0358a1.1778,1.1778,0,0,0,.1344-.0368c.0446-.0187.1167-.0184.1131-.0864-.0027-.0529-.063-.062-.1061-.0754-.1442-.0449-.29-.0854-.4337-.1313-.1324-.0422-.1317-.0444-.0354-.1669-.2492-.0427-.4892-.0282-.7263-.0937a.2735.2735,0,0,1,.027-.0571c.0486-.0537.1747-.0541.1563-.14-.02-.093-.1339-.0647-.21-.075-.4042-.0542-.8144-.0347-1.2177-.1005-.0681-.0111-.1353-.027-.2027-.04.015-.0552.1048-.0448.0848-.1045-.0185-.055-.083-.0562-.1339-.06-.2089-.0167-.418-.0309-.627-.0457a.4787.4787,0,0,1-.3483-.1352c-.0724-.0807-.08-.1527.0284-.2108.0707-.0378.158-.0668.1425-.1731-.0144-.1-.0938-.1424-.1746-.1783a3.8465,3.8465,0,0,0-.6214-.17,1.01,1.01,0,0,1-.3742-.1364c-.1256-.0941-.11-.2057.0388-.2572a2.2975,2.2975,0,0,1,.2546-.0578c.0526-.0118.111-.0292.1171-.0884.0071-.0684-.05-.1018-.1073-.12a2.9136,2.9136,0,0,0-.57-.072c-.11-.0127-.22-.0186-.33-.03-.0337-.0035-.0738-.0062-.0849-.0477-.0133-.05.0251-.0725.0592-.0949.0145-.01.0312-.0157.0465-.024.0631-.0344.1741-.0386.1617-.13-.0131-.0976-.1207-.1121-.206-.1308-.0625-.0135-.1261-.0221-.1885-.0363a.326.326,0,0,1-.2312-.358c.0127-.0616.054-.0505.0921-.0505.5649-.0006,1.13.0005,1.6947-.0015.0719,0,.0973.0274.1151.0964a2.0125,2.0125,0,0,0,.77,1.0918,4.5009,4.5009,0,0,0,2.096.85,6.04,6.04,0,0,0,3.47-.4009,3.1061,3.1061,0,0,0,1.1377-.82,1.35,1.35,0,0,0,.2067-.307L8.5836,10.87l.0011-.0183c.3486,0,.6973-.0063,1.0457.0035a.2187.2187,0,0,0,.2287-.1471.2117.2117,0,0,0-.0559-.2674.93.93,0,0,1-.2407-.5483c-.03-.1126-.0628-.1517-.1871-.1048a1.0387,1.0387,0,0,1-.5512.04c-.0442-.0077-.1005-.0207-.1009-.0784,0-.0473.0511-.0586.0879-.0737a3.1924,3.1924,0,0,0,.5138-.2177c-.0978-.0509-.1951-.0441-.2783-.0976a.5115.5115,0,0,1-.2581-.4714c.0017-.0346.1042-.18-.08-.1281-.03.0085-.0274-.0731-.012-.1039.0649-.13.0388-.2214-.0989-.2776-.0319-.013-.0783-.0438-.0547-.0735.0605-.0762.1409-.1382.1158-.2523.0676-.0015.0484-.0389.04-.0819-.0186-.0941-.039-.1961.1156-.0982.04.0255.072-.0214.0993-.0515a.8142.8142,0,0,1,.3783-.24c.05-.0146.1011-.012.0727-.108s.0673-.0535.0983-.0317c.108.0759.2081.1242.3146,0,.0189-.0221.0734-.03.0781-.0115.0464.1877.2369.2055.3473.3134a.3393.3393,0,0,1,.0717.182c.0015.0182-.0223.0591-.0019.0552.2123-.0409.0892.1141.1083.1828.0287.103.034.2033.15.2739.154.0938.0757.467-.1024.5589-.06.031-.1153.0718-.2134.1339a1.715,1.715,0,0,0,.5387-.1469c.0541-.0171.121-.0641.1607-.0114.0446.0591-.0123.12-.052.1688a1.0755,1.0755,0,0,1-.4411.2876,1.02,1.02,0,0,1,.2554.5372c.0123.09.0841.0874.1381.1082a.3841.3841,0,0,1,.2528.2672c.0105.0386.0253.0831-.02.1094-.0349.02-.066-.0039-.0963-.0218-.248-.1461-.2474-.1451-.4766.03a.3042.3042,0,0,1-.1361.0739c-.1884.0175-.2316.1558-.275.3114H16.96l.0026.0321C16.6182,10.9118,16.2739,10.9513,15.9288,10.9814Z"></path></svg> 