<?xml version="1.0" encoding="UTF-8"?> <svg xmlns="http://www.w3.org/2000/svg" xmlns:xlink="http://www.w3.org/1999/xlink" width="767" height="601" viewBox="0 0 767 601"><defs><style>.cls-1,.cls-2,.cls-3,.cls-4,.cls-5,.cls-6{fill:none;}.cls-1{stroke:url(#linear-gradient);}.cls-2{stroke:url(#linear-gradient-2);}.cls-3{stroke:url(#linear-gradient-3);}.cls-4{stroke:url(#linear-gradient-4);}.cls-5{stroke:url(#linear-gradient-5);}.cls-6{stroke:url(#linear-gradient-6);}.cls-7{fill:url(#radial-gradient);}.cls-8{fill:#000002;}.cls-9{fill:url(#radial-gradient-2);}.cls-10{fill:url(#radial-gradient-3);}.cls-11{fill:url(#radial-gradient-4);}.cls-12{fill:url(#radial-gradient-5);}.cls-13{fill:url(#radial-gradient-6);}.cls-14{fill:url(#radial-gradient-7);}.cls-15{fill:url(#radial-gradient-8);}</style><linearGradient id="linear-gradient" x1="618.8322" y1="53.1764" x2="629.2506" y2="164.22" gradientTransform="translate(-113.0187 237.5281) rotate(8.5946)" gradientUnits="userSpaceOnUse"><stop offset="0" stop-color="#7d09cd"></stop><stop offset="1" stop-color="#f4f4f4"></stop></linearGradient><linearGradient id="linear-gradient-2" x1="618.1882" y1="47.0449" x2="628.6067" y2="158.0884" gradientTransform="translate(-113.0187 237.5281) rotate(8.5946)" gradientUnits="userSpaceOnUse"><stop offset="0" stop-color="#ff0a87"></stop><stop offset="1" stop-color="#f4f4f4"></stop></linearGradient><linearGradient id="linear-gradient-3" x1="617.4866" y1="39.3703" x2="627.9051" y2="150.4139" xlink:href="#linear-gradient"></linearGradient><linearGradient id="linear-gradient-4" x1="333.6434" y1="-483.3043" x2="329.9189" y2="-602.5613" gradientTransform="translate(43.8002 650.0497) rotate(1.9908)" xlink:href="#linear-gradient"></linearGradient><linearGradient id="linear-gradient-5" x1="333.8499" y1="-476.7098" x2="330.1246" y2="-595.9665" gradientTransform="translate(43.8002 650.0497) rotate(1.9908)" xlink:href="#linear-gradient-2"></linearGradient><linearGradient id="linear-gradient-6" x1="334.1385" y1="-468.4662" x2="330.4131" y2="-587.7229" gradientTransform="translate(43.8002 650.0497) rotate(1.9908)" xlink:href="#linear-gradient"></linearGradient><radialGradient id="radial-gradient" cx="-1945.205" cy="877.0588" r="35.8981" gradientTransform="translate(-1875.83 1129.0445) rotate(-161.1694) scale(1 1.9023)" gradientUnits="userSpaceOnUse"><stop offset="0.4809" stop-color="#fff"></stop><stop offset="0.5231" stop-color="#f7f5f2"></stop><stop offset="0.6003" stop-color="#e3dbd1"></stop><stop offset="0.704" stop-color="#c3b19b"></stop><stop offset="0.8288" stop-color="#967852"></stop><stop offset="0.8967" stop-color="#7c5627"></stop></radialGradient><radialGradient id="radial-gradient-2" cx="-1506.5896" cy="1177.6954" r="63.4948" gradientTransform="matrix(-0.973, 0.2306, -0.4388, -1.851, -671.4758, 2994.9874)" xlink:href="#radial-gradient"></radialGradient><radialGradient id="radial-gradient-3" cx="885.2805" cy="-306.9246" r="17.5164" gradientTransform="translate(-597.2263 539.2211) rotate(-3.1602)" gradientUnits="userSpaceOnUse"><stop offset="0" stop-color="#923b4b"></stop><stop offset="0.0093" stop-color="#903a4a"></stop><stop offset="0.2339" stop-color="#652d36"></stop><stop offset="0.4511" stop-color="#422327"></stop><stop offset="0.6563" stop-color="#2a1c1c"></stop><stop offset="0.8445" stop-color="#1b1815"></stop><stop offset="1" stop-color="#161613"></stop></radialGradient><radialGradient id="radial-gradient-4" cx="655.6761" cy="-313.9274" r="5.1009" gradientTransform="matrix(-0.7561, 0.0644, -0.1371, -1.8937, 720.5286, -459.6222)" xlink:href="#radial-gradient-3"></radialGradient><radialGradient id="radial-gradient-5" cx="884.4353" cy="-304.8166" r="8.4251" gradientTransform="matrix(-0.997, 0.0777, -0.1475, -1.8931, 1105.8697, -459.6268)" xlink:href="#radial-gradient-3"></radialGradient><radialGradient id="radial-gradient-6" cx="-95.3042" cy="-643.7469" r="7.1477" gradientTransform="translate(55.7403 758.6065) rotate(30.2546)" xlink:href="#radial-gradient-3"></radialGradient><radialGradient id="radial-gradient-7" cx="-635.4696" cy="-646.6044" r="2.0815" gradientTransform="matrix(-0.6666, -0.3627, 0.9284, -1.6562, 475.3103, -1149.6321)" xlink:href="#radial-gradient-3"></radialGradient><radialGradient id="radial-gradient-8" cx="-95.6491" cy="-642.8867" r="3.4379" gradientTransform="translate(804.4246 -959.3054) rotate(-151.0398) scale(1 1.8988)" xlink:href="#radial-gradient-3"></radialGradient></defs><title>Artboard 1 copy</title><g id="Layer_4" data-name="Layer 4"><path class="cls-1" d="M1043.0159,448.9656s-43.9928,53.8435-132.6854,39.2111-137.5513-97.3648-213.27-93.1269c-101.18,5.6336-185.6227,121.6587-266.1839,44.5066s-115.3856,80.9219-204.19,19.5347S48.0424,525.1428,30.9619,438.396s-96.2867-52.1032-96.2867-52.1032"></path><path class="cls-2" d="M1043.2942,442.756S999.3014,496.6,910.6088,481.9671s-137.4649-97.2864-213.27-93.127c-101.1795,5.6337-185.6227,121.6588-266.1839,44.5067s-115.3817,81.0043-204.186,19.6171S48.4071,519.0116,31.2441,432.2688s-96.2867-52.1032-96.2867-52.1032"></path><path class="cls-3" d="M1043.748,435.0508s-43.9929,53.8435-132.6855,39.2112-137.4649-97.2864-213.27-93.127c-101.1795,5.6336-185.6188,121.7412-266.1839,44.5066s-115.3817,81.0044-204.186,19.6171S48.7784,511.3105,31.6978,424.5637s-96.2867-52.1032-96.2867-52.1032"></path><path class="cls-4" d="M935.34,143.0368S891.7787,82.6509,796.0652,92.6176s-153.17,95.1623-233.8463,85.8351c-107.8134-12.5-190.5065-141.9524-281.5436-64.612S162.5643,19.9,63.7941,79.7974-122.85-2.2408-146.7575,89.3228"></path><path class="cls-5" d="M935.2761,149.64S891.7144,89.2542,796.0008,99.2209,642.9129,194.386,562.1545,185.056C454.4236,172.559,371.648,43.1036,280.6109,120.4439S162.5,26.5035,63.73,86.4007-122.9144,4.3625-146.7394,95.929"></path><path class="cls-6" d="M935.3193,157.8984s-43.5617-60.3858-139.2752-50.4191c-95.796,9.9638-153.17,95.1623-233.8435,85.7526C454.3843,180.8146,371.6087,51.3592,280.5717,128.7S162.4606,34.759,63.6905,94.6562s-186.6442-82.0382-210.4692,9.5283"></path><path class="cls-7" d="M504.6378,136.2937s-10.0844-4.19-15.4627,7.4962-15.4318,35.9735-16.838,37.3687,2.2992.2788,5.391,1.64,1.3786,2.3827,3.5216,3.1749,4.4809-2.2828,5.7478-.9158,1.823,3.2268,3.3644,3.6919,4.0578-2.2752,4.761-1.36,1.5909,3.99,3.1312,4.4585,3.3481-1.7861,4.5926-1.2673,1.157,3.1568,2.3449,3.3779,4.1289.6952,3.9445-1.4644,6.7589-42.9593,6.7589-42.9593S517.6462,138.7086,504.6378,136.2937Z"></path><ellipse class="cls-8" cx="496.8942" cy="153.9726" rx="3.7566" ry="2.2808" transform="translate(204.9619 584.5384) rotate(-73.0786)"></ellipse><ellipse class="cls-8" cx="503.8253" cy="156.0813" rx="3.7566" ry="2.2808" transform="translate(207.8583 592.6645) rotate(-73.0786)"></ellipse><path class="cls-8" d="M490.5385,158.7879s1.9684,3.037,2.6815,3.1129,2.475-1.9123,2.902-1.4143.3706,2.5845,1.1135,2.39,1.674-1.7,2.0235-1.12.469,2.0884.8268,1.7766,1.9246-1.4861,2.3037-1.1764.8759,2.2489,1.3432,1.8652a40.0327,40.0327,0,0,1,3.74-1.8071s-1.5855,7.4585-4.84,6.5736-3.6952-2.5441-5.3823-2.5314-3.9051,1.5991-5.9018-.4809S490.5385,158.7879,490.5385,158.7879Z"></path><path class="cls-9" d="M239.9944,404.676S220.95,407.8984,223.9012,430.46s10.7682,68.393,9.9767,71.8062,3.705-1.7476,9.616-2.6206,4.3079,2.2694,8.2624,1.4376,4.56-7.6375,7.7437-6.7835,5.768,3.1146,8.5137,2.36,3.9333-7.2275,5.8479-6.5195,6.139,4.4759,8.8864,3.7272,3.3312-5.827,5.6831-6.222,4.7049,3.6369,6.6917,2.8495,6.8366-2.847,4.527-5.9069-30.3318-70.6861-30.3318-70.6861S261.7454,396.0428,239.9944,404.676Z"></path><ellipse class="cls-8" cx="245.0472" cy="438.4378" rx="4.0341" ry="6.6445" transform="translate(-106.6587 79.8589) rotate(-15.2443)"></ellipse><ellipse class="cls-8" cx="257.4106" cy="435.0685" rx="4.0341" ry="6.6445" transform="translate(-105.3377 82.9912) rotate(-15.2443)"></ellipse><path class="cls-8" d="M240.0652,451.6322s5.807,2.6938,6.9462,2.1359,1.905-5.1937,3.0133-4.85,2.9885,3.5206,3.9175,2.5295.9061-4.1207,1.9753-3.582,2.6687,2.6854,2.9108,1.8815,1.4823-4.0373,2.3415-3.93,3.4292,2.5423,3.7676,1.5278a70.7825,70.7825,0,0,1,3.8983-6.2275s4.6493,12.66-1.0563,14.4-7.9283-.33-10.4424,1.2779-4.3413,6.0715-9.2893,4.8374S240.0652,451.6322,240.0652,451.6322Z"></path><path class="cls-10" d="M281.5578,191.3247c-.3365-.8028-1.52-3.4745-2.6268-4.1437a8.7272,8.7272,0,0,0-2.533-.7131,10.7229,10.7229,0,0,0-.7253-3.1293,5.275,5.275,0,0,0,2.0908-.9424c.9073-.8647,2.18-4.1731,2.4265-4.8276a.79.79,0,1,0-1.479-.5559,19.382,19.382,0,0,1-2.0376,4.24,5,5,0,0,1-1.7184.6343,9.7782,9.7782,0,0,0-1.0922-1.4921,6.75,6.75,0,0,0,1.7582-2.4816c.2892-1.22-.447-4.6872-.5975-5.37a.79.79,0,1,0-1.543.34,19.1208,19.1208,0,0,1,.603,4.6649,6.1458,6.1458,0,0,1-1.3731,1.7571,8.5447,8.5447,0,0,0-1.9566-1.1711,5.1,5.1,0,0,0,.1052-1.3548c-.1327-2.4026-3.2131-4.1862-3.9058-4.148-.7922.0437-3.5581,2.15-3.4254,4.5528a5.1019,5.1019,0,0,0,.2536,1.335,8.5247,8.5247,0,0,0-1.7414,1.3063,5.84,5.84,0,0,1-1.4782-1.5306,19.3809,19.3809,0,0,1,.0859-4.703.79.79,0,0,0-1.5712-.1683c-.0744.6952-.4244,4.2228-.0026,5.4031A6.5053,6.5053,0,0,0,261,181.0225a9.7632,9.7632,0,0,0-.969,1.6608,4.6011,4.6011,0,0,1-1.636-.422,19.386,19.386,0,0,1-2.4918-3.9894.79.79,0,0,0-1.4088.7154c.3166.6234,1.9462,3.7716,2.9431,4.5309a5.0015,5.0015,0,0,0,2.0369.6833,10.721,10.721,0,0,0-.3845,3.2582,8.2309,8.2309,0,0,0-2.286.943c-1.0259.7869-1.9085,3.5727-2.1546,4.4076a.79.79,0,1,0,1.5156.4467,11.0259,11.0259,0,0,1,1.6007-3.6006,6.1979,6.1979,0,0,1,1.544-.6137,8.3154,8.3154,0,0,0,.8564,2.0672,14.1748,14.1748,0,0,0-2.81,3.1344c-.5188,1.1842.0523,4.05.24,4.9a.79.79,0,0,0,.8142.6189.78.78,0,0,0,.1274-.0175.79.79,0,0,0,.6015-.9416,11.0249,11.0249,0,0,1-.3354-3.926,13.19,13.19,0,0,1,2.2636-2.4493c2.2282,2.8,5.7322,4.5744,7.2275,4.4918,1.8539-.1024,5.0282-2.2569,6.8142-5.29a13.5,13.5,0,0,1,2.5486,2.2065,11.0462,11.0462,0,0,1,.0988,3.9392.79.79,0,0,0,.7017.8695.8134.8134,0,0,0,.1284.0032.79.79,0,0,0,.7411-.7047c.0926-.8656.3447-3.777-.3013-4.8968a14.5022,14.5022,0,0,0-3.208-2.8565,8.6028,8.6028,0,0,0,.5512-2.122,6.926,6.926,0,0,1,1.7442.4636,11.0473,11.0473,0,0,1,1.9874,3.4027.79.79,0,0,0,1.4572-.611Z"></path><path class="cls-11" d="M265.4245,172.95s-2.58,1.8161-1.897,6.092,3.5172,4.6878,4.0362,4.656,3.3221-.9532,3.5043-5.0906a6.4577,6.4577,0,0,0-2.5614-5.8276s-1.1491-.8695-1.5572-.8276A5.779,5.779,0,0,0,265.4245,172.95Z"></path><path class="cls-12" d="M263.7814,178.519a9.7928,9.7928,0,0,0-4.4715,10.5237,9.1353,9.1353,0,0,0,8.9844,7.8782,9.4991,9.4991,0,0,0,8.0747-8.8515,10.269,10.269,0,0,0-5.6152-9.9354,23.4915,23.4915,0,0,0-3.4355-.292C266.3943,177.9262,263.7814,178.519,263.7814,178.519Z"></path><path class="cls-13" d="M300.1184,159.6764a4.583,4.583,0,0,0,.0365-2.0017,3.5623,3.5623,0,0,0-.7025-.8121,4.3737,4.3737,0,0,0,.4561-1.2289,2.1521,2.1521,0,0,0,.924.1489,8.0021,8.0021,0,0,0,1.9113-1.099.3224.3224,0,0,0-.3789-.5218,7.9069,7.9069,0,0,1-1.6467.9862,2.0407,2.0407,0,0,1-.7278-.17,3.9883,3.9883,0,0,0-.0368-.7536,2.7545,2.7545,0,0,0,1.1566-.45,8.0051,8.0051,0,0,0,1.0032-1.9634.3224.3224,0,0,0-.602-.2308,7.8,7.8,0,0,1-.8429,1.7244,2.5082,2.5082,0,0,1-.8626.29,3.4833,3.4833,0,0,0-.4032-.8385,2.0836,2.0836,0,0,0,.34-.4379,2.22,2.22,0,0,0-.3982-2.2905,2.1589,2.1589,0,0,0-2.19.7809,2.0808,2.0808,0,0,0-.2136.5118,3.48,3.48,0,0,0-.8867.0536,2.3836,2.3836,0,0,1-.16-.8535,7.9105,7.9105,0,0,1,1.0862-1.5826.3224.3224,0,0,0-.4974-.41,7.9979,7.9979,0,0,0-1.215,1.84,2.6539,2.6539,0,0,0,.1626,1.1809,3.9832,3.9832,0,0,0-.7032.348,1.8789,1.8789,0,0,1-.4624-.5114,7.91,7.91,0,0,1,.0477-1.9188.3224.3224,0,1,0-.6406-.0729,7.9986,7.9986,0,0,0-.0157,2.2046,2.0407,2.0407,0,0,0,.54.6905,4.3758,4.3758,0,0,0-.8631,1.0234,3.3563,3.3563,0,0,0-.99-.1925,4.5807,4.5807,0,0,0-1.7244,1.0171.3224.3224,0,1,0,.4159.4927,4.4952,4.4952,0,0,1,1.3543-.8667,2.53,2.53,0,0,1,.6638.1379,3.3974,3.3974,0,0,0-.1729.8966,5.7783,5.7783,0,0,0-1.6615.4361,4.5808,4.5808,0,0,0-1.02,1.7229.3224.3224,0,0,0,.1382.3937.3135.3135,0,0,0,.0474.0227.3223.3223,0,0,0,.4164-.1855,4.4983,4.4983,0,0,1,.768-1.4126,5.3778,5.3778,0,0,1,1.3214-.3256,4.7764,4.7764,0,0,0,1.4524,3.154,4.3843,4.3843,0,0,0,3.51-.27,5.5146,5.5146,0,0,1,.3723,1.3243,4.5091,4.5091,0,0,1-.8516,1.3639.3225.3225,0,0,0,.0436.4538.3323.3323,0,0,0,.043.03.3225.3225,0,0,0,.4108-.0735,4.5821,4.5821,0,0,0,.9978-1.7356,5.9161,5.9161,0,0,0-.4508-1.6938,3.513,3.513,0,0,0,.6646-.5989,2.822,2.822,0,0,1,.49.55,4.5066,4.5066,0,0,1-.0877,1.6056.3224.3224,0,0,0,.6336.1194Z"></path><path class="cls-14" d="M298.7524,149.7923a2.4989,2.4989,0,0,0-2.0151,1.6487c-.7282,1.61.1446,2.3871.3284,2.4929a1.9563,1.9563,0,0,0,2.3376-.9464,2.635,2.635,0,0,0,.4371-2.5605s-.196-.5544-.3444-.6318A2.3573,2.3573,0,0,0,298.7524,149.7923Z"></path><path class="cls-15" d="M296.9413,151.32a3.9961,3.9961,0,0,0-3.8879,2.58,3.7276,3.7276,0,0,0,1.29,4.7023,3.8761,3.8761,0,0,0,4.7394-1.2,4.19,4.19,0,0,0,.32-4.6459,9.5814,9.5814,0,0,0-1.1046-.8715C297.9645,151.7052,296.9413,151.32,296.9413,151.32Z"></path></g></svg> 