<?xml version="1.0" encoding="UTF-8"?> <svg xmlns="http://www.w3.org/2000/svg" id="Layer_1" data-name="Layer 1" width="20" height="20" viewBox="0 0 20 20"><defs><style>.cls-1{fill:#6b11c9;fill-rule:evenodd;}</style></defs><title>Artboard 1 copy 71</title><path class="cls-1" d="M12.4171.3157a9.9979,9.9979,0,0,0-4.836,19.4022L7.58,19.7171A9.9976,9.9976,0,1,0,12.4171.3157ZM8.96,15.4026a.1972.1972,0,0,1-.1478.0865h-1.69a.57.57,0,0,1-.4359-.25L5.84,13.7727a.1956.1956,0,0,1,0-.1718l.94-1.628a.1933.1933,0,0,1,.15-.0868H8.81a.194.194,0,0,1,.15.0868l.94,1.628a.197.197,0,0,1,0,.1737Zm1.7521.0886H9.6152l.9606-1.6624a.3048.3048,0,0,0,0-.2744L9.3415,11.4169A.3035.3035,0,0,0,9.104,11.28H6.6362a.3035.3035,0,0,0-.2375.1374l-.96,1.6624-.549-.9516a.2654.2654,0,0,1,0-.2372l1.873-3.2443a.2664.2664,0,0,1,.2054-.1186h3.7459a.2667.2667,0,0,1,.2055.1186l1.8729,3.2428a.2653.2653,0,0,1-.0011.2394l-1.8729,3.2439A.2654.2654,0,0,1,10.7124,15.4912Zm5.4793-5.2365L13.3176,15.233a.5681.5681,0,0,1-.4433.2561H11.56L13.47,12.182a.3743.3743,0,0,0,0-.3384L11.3009,8.087a.3741.3741,0,0,0-.2933-.1692H6.67a.3741.3741,0,0,0-.2933.1692l-1.91,3.3085-.6587-1.1408a.5677.5677,0,0,1,0-.5116L6.6824,4.7647a.5677.5677,0,0,1,.4433-.256h5.7486a.5677.5677,0,0,1,.4433.256l2.873,4.9784h.0011A.567.567,0,0,1,16.1917,10.2547Z"></path></svg> 