<?xml version="1.0" encoding="UTF-8"?> <svg xmlns="http://www.w3.org/2000/svg" id="Layer_1" data-name="Layer 1" width="20" height="20" viewBox="0 0 20 20"><defs><style>.cls-1{fill:#6b11c9;fill-rule:evenodd;}</style></defs><title>Artboard 1 copy 72</title><path class="cls-1" d="M12.4171.3157a9.9979,9.9979,0,0,0-4.836,19.4022L7.58,19.7171A9.9976,9.9976,0,1,0,12.4171.3157Zm.1671,9.0336a5.0675,5.0675,0,0,1,.6541.0218.7031.7031,0,0,1,.2554.0748c0,.0239-.5316,1.2293-.5451,1.2366-.0083.0041-.2159.0093-.46.0114l-.4444.0031.0073.0332c.0031.0187.0228.082.0425.1423a3.0865,3.0865,0,0,0,.9583,1.3881,3.6726,3.6726,0,0,0,1.3093.6884,3.7823,3.7823,0,0,0,.9479.1453c.13.0052.2368.0094.24.0125s.52,1.19.53,1.2168c.0125.0323-.23.0665-.5357.0759a5.37,5.37,0,0,1-2.1337-.3832A4.6912,4.6912,0,0,1,10.9125,11.75a4.0393,4.0393,0,0,1-.3374-1.031l-.0041-.0228H9.39l-.0072.0508a4.3389,4.3389,0,0,1-.2721.8587,4.8094,4.8094,0,0,1-3.4719,2.6611,4.5567,4.5567,0,0,1-1.08.1,2.3561,2.3561,0,0,1-.5939-.0353c-.0155-.0052.0208-.0965.2544-.6312l.272-.6261H4.58c.0488,0,.1536-.0052.2336-.01a3.2328,3.2328,0,0,0,2.9383-2.2479l.0332-.1142-.5513-.0062c-.3167-.0041-.5846-.0114-.6292-.0187-.218-.0322-.3052-.056-.298-.083.0021-.0094.1225-.29.2679-.623a3.5051,3.5051,0,0,1,.2876-.6146c.0135-.0052.2294-.0094.4807-.0094a1.9416,1.9416,0,0,0,.4558-.0135c0-.0083-.0135-.0623-.03-.1225a2.9507,2.9507,0,0,0-.7839-1.3331A3.0313,3.0313,0,0,0,6.1324,7.27a3.39,3.39,0,0,0-1.4619-.3624,1.5555,1.5555,0,0,1-.2367-.0187c-.0062-.0062-.4621-1.0393-.5358-1.2147-.008-.0218.1343-.0509.3191-.0655A5.8127,5.8127,0,0,1,5.2242,5.64,5.1385,5.1385,0,0,1,8.0389,6.9021,4.2587,4.2587,0,0,1,9.3773,9.1905c.0124.06.0239.1194.027.1318l.0042.0239h1.16l.0125-.0758a4.1929,4.1929,0,0,1,1.221-2.2188,5.1276,5.1276,0,0,1,3.1521-1.4079,6.8884,6.8884,0,0,1,.8649-.0041,1.5379,1.5379,0,0,1,.2824.05,5.8092,5.8092,0,0,1-.246.5991c-.1413.325-.2638.6-.2721.6116-.0124.0166-.0373.02-.2367.028a4.04,4.04,0,0,0-.8566.1142A3.307,3.307,0,0,0,12.0578,9.27l-.0208.0738Z"></path></svg> 