<?xml version="1.0" encoding="UTF-8"?> <svg xmlns="http://www.w3.org/2000/svg" id="Layer_1" data-name="Layer 1" width="20" height="20" viewBox="0 0 20 20"><defs><style>.cls-1{fill:#6b11c9;fill-rule:evenodd;}</style></defs><title>Artboard 1 copy 159</title><path class="cls-1" d="M12.4171.3157a9.9979,9.9979,0,0,0-4.836,19.4022L7.58,19.7171A9.9976,9.9976,0,1,0,12.4171.3157ZM4.85,16.2234a1.073,1.073,0,1,1,1.073-1.073A1.073,1.073,0,0,1,4.85,16.2234ZM6.0428,12.7a4.7813,4.7813,0,0,1,6.5925-6.67l.0429.0343-.8584.8584a3.5924,3.5924,0,0,0-4.9186,4.9187Zm7.9144.0142A4.7769,4.7769,0,0,1,7.3218,13.983l.8584-.8584a3.5924,3.5924,0,0,0,4.9186-4.9187l.8584-.8584A4.7769,4.7769,0,0,1,13.9572,12.7139ZM15.15,5.9226a1.073,1.073,0,1,1,1.073-1.073A1.073,1.073,0,0,1,15.15,5.9226Z"></path></svg> 