<?xml version="1.0" encoding="UTF-8"?> <svg xmlns="http://www.w3.org/2000/svg" id="Layer_1" data-name="Layer 1" width="20" height="20" viewBox="0 0 20 20"><defs><style>.cls-1{fill:#6b11c9;fill-rule:evenodd;}</style></defs><title>Artboard 1 copy 73</title><path class="cls-1" d="M12.4171.3157a9.9979,9.9979,0,0,0-4.836,19.4022L7.58,19.7171A9.9976,9.9976,0,1,0,12.4171.3157ZM10,4.8133A1.2835,1.2835,0,1,1,8.7165,6.0968,1.2834,1.2834,0,0,1,10,4.8133Zm0,11.4178a1.2836,1.2836,0,1,1,1.2835-1.2836A1.2835,1.2835,0,0,1,10,16.2311Zm5.2491-3.4292H4.7508V11.02H15.2491ZM10,10.139A5.5358,5.5358,0,0,1,4.4673,4.7941H6.3658a3.6392,3.6392,0,0,0,7.2684,0h1.8985A5.5358,5.5358,0,0,1,10,10.139Z"></path></svg> 