<?xml version="1.0" encoding="UTF-8"?> <svg xmlns="http://www.w3.org/2000/svg" id="Layer_1" data-name="Layer 1" width="20" height="20" viewBox="0 0 20 20"><defs><style>.cls-1{fill:#6b11c9;fill-rule:evenodd;}</style></defs><title>Artboard 1 copy 75</title><path class="cls-1" d="M12.4171.3157a9.9979,9.9979,0,0,0-4.836,19.4022L7.58,19.7171A9.9976,9.9976,0,1,0,12.4171.3157ZM6.526,11.8276H4.7274v-1.259H6.526Zm.0446-2.6169H4.7183v-1.23H6.6759C6.6393,8.4082,6.6063,8.7929,6.5706,9.2107Zm5.1506,7.0973L9.8968,10.8442H9.1412v5.3941H7.0581L7.4033,3.7829H9.1412V8.947h.7349l1.9213-5.2237s1.6222-.0309,2.2157-.0312L12.44,7.82c-.0138.0348-.0267.07-.04.1045L11.6384,9.923l2.1015,6.15.0486.19.0165.0453Zm3.0115-8.259V9.2107H12.81l.5093-1.1617Zm.0384,3.7027-.05.0131h-1.44l-.4076-1.2042h1.8973Z"></path></svg> 