<?xml version="1.0" encoding="UTF-8"?> <svg xmlns="http://www.w3.org/2000/svg" width="20" height="20" viewBox="0 0 20 20"><defs><style>.cls-1{fill:#6b11c9;fill-rule:evenodd;}</style></defs><title>Artboard 1 copy 76</title><g id="Layer_2" data-name="Layer 2"><path class="cls-1" d="M12.4171.3157a9.9979,9.9979,0,0,0-4.836,19.4022L7.58,19.7171A9.9976,9.9976,0,1,0,12.4171.3157Zm.4343,5.9187c0-.0268.005-.0477.005-.0745V6.0537a.9933.9933,0,0,1,.2661-.5916c.0059-.005.0109-.0159.0218-.0268a1.0041,1.0041,0,0,1,1.2843-.1062l.0094.0067a.9914.9914,0,0,1,.2307,1.383,1.6355,1.6355,0,0,1-.1071.128,1.0035,1.0035,0,0,1-.6125.2879h-.0108a.8233.8233,0,0,0-.1121.005l-.0368.0058a1.3291,1.3291,0,0,0-.251.0369l-.0075.0017a1.7862,1.7862,0,0,0-1.3354,2.1444c0,.0108.005.0158.005.0217a1.1937,1.1937,0,0,0,.0326.128,2.3264,2.3264,0,0,1-.3522,1.8692,2.367,2.367,0,0,1-.261.3137q-.0621.0671-.1291.1289a2.3209,2.3209,0,1,1-3.15-3.4095A.9171.9171,0,0,1,8.41,8.3169a2.3331,2.3331,0,0,1,1.5362-.6175,2.1232,2.1232,0,0,1,.5806.0636.9853.9853,0,0,0,.1339.0376,1.7159,1.7159,0,0,0,.2342.0369l.0074.0007A1.7846,1.7846,0,0,0,12.8514,6.2344Zm3.34,3.7785a6.1915,6.1915,0,1,1-12.383-.021,6.3345,6.3345,0,0,1,.1674-1.44l.0013-.0055a6.1838,6.1838,0,0,1,7.4577-4.5678l.0087.0021a.6551.6551,0,0,1,.4808.7919.6643.6643,0,0,1-.7974.4936,4.8712,4.8712,0,1,0,3.6028,3.59.6652.6652,0,0,1,1.2944-.3038,6.0833,6.0833,0,0,1,.1673,1.414Z"></path></g></svg> 