<?xml version="1.0" encoding="UTF-8"?> <svg xmlns="http://www.w3.org/2000/svg" width="20" height="20" viewBox="0 0 20 20"><defs><style>.cls-1{fill:#6b11c9;fill-rule:evenodd;}</style></defs><title>Artboard 1 copy 80</title><g id="Layer_2" data-name="Layer 2"><path class="cls-1" d="M12.4171.3157a9.9979,9.9979,0,0,0-4.836,19.4022L7.58,19.7171A9.9976,9.9976,0,1,0,12.4171.3157ZM10.3756,3.7209a.259.259,0,0,1,.363-.0477l3.253,2.3927a.24.24,0,0,1-.0286.4092L9.1435,9.14l1.1877-5.33A.2612.2612,0,0,1,10.3756,3.7209ZM9.28,15.8789a.2455.2455,0,0,1-.3416.0621l-3.154-2.4231a.6564.6564,0,0,1-.257-.5311V6.82a.6565.6565,0,0,1,.257-.5235L8.9531,3.8655a.2455.2455,0,0,1,.3807.2493L8.0966,9.9013l1.222,5.79A.2455.2455,0,0,1,9.28,15.8789Zm4.7121-1.946-3.2569,2.3926v.0038a.257.257,0,0,1-.4035-.1466l-1.1877-5.33,4.8214,2.6649a.2438.2438,0,0,1,.0267.415Zm.4815-1.4238a.2512.2512,0,0,1-.3806.217L9.3338,10l4.7587-2.7276a.2493.2493,0,0,1,.3806.215Z"></path></g></svg> 