<?xml version="1.0" encoding="UTF-8"?> <svg xmlns="http://www.w3.org/2000/svg" id="Layer_1" data-name="Layer 1" width="20" height="20" viewBox="0 0 20 20"><defs><style>.cls-1{fill:#6b11c9;fill-rule:evenodd;}</style></defs><title>Artboard 1 copy 83</title><path class="cls-1" d="M12.4171.3157a9.9979,9.9979,0,0,0-4.836,19.4022L7.58,19.7171A9.9976,9.9976,0,1,0,12.4171.3157Zm2.2035,14.1229-.4691,1.6184a.35.35,0,0,1-.3518.258H5.5436l1.3839-4.7144L5.3794,12.07l.3518-1.0789,1.5481-.4691L9.226,3.9075a.3542.3542,0,0,1,.3518-.258h2.0875a.2722.2722,0,0,1,.2815.2624v.0894L10.3049,9.5835l1.548-.469L11.5246,10.24l-1.5715.4457L8.9446,14.0868h5.3945a.272.272,0,0,1,.2814.2624v.0894Z"></path></svg> 