<?xml version="1.0" encoding="UTF-8"?> <svg xmlns="http://www.w3.org/2000/svg" id="Layer_1" data-name="Layer 1" width="20" height="20" viewBox="0 0 20 20"><defs><style>.cls-1{fill:#6b11c9;fill-rule:evenodd;}</style></defs><title>Artboard 1 copy 85</title><path class="cls-1" d="M12.4171.3157a9.9979,9.9979,0,0,0-4.836,19.4022L7.58,19.7171A9.9976,9.9976,0,1,0,12.4171.3157ZM5.3593,13.9223a.7825.7825,0,0,1-1.5649,0V6.0776a.7825.7825,0,0,1,1.5649,0ZM8.974,12.2915a.7824.7824,0,1,1-1.5648,0V7.7085a.7824.7824,0,1,1,1.5648,0ZM12.5908,10.96a.7824.7824,0,0,1-1.5648,0V9.0256a.7824.7824,0,0,1,1.5648,0Zm3.6147,2.9624a.7824.7824,0,1,1-1.5648,0V6.0776a.7824.7824,0,0,1,1.5648,0Z"></path></svg> 