<?xml version="1.0" encoding="UTF-8"?> <svg xmlns="http://www.w3.org/2000/svg" id="Layer_1" data-name="Layer 1" width="20" height="20" viewBox="0 0 20 20"><defs><style>.cls-1{fill:#6b11c9;fill-rule:evenodd;}</style></defs><title>Artboard 1 copy 142</title><path class="cls-1" d="M12.4171.3157a9.9979,9.9979,0,0,0-4.836,19.4022L7.58,19.7171A9.9976,9.9976,0,1,0,12.4171.3157ZM15.28,14.1488a1.1253,1.1253,0,0,1-1.1251,1.1251H13.92a1.1014,1.1014,0,0,1-.8556-.3985L6.5016,7.0231a.0877.0877,0,0,0-.1523.0586v5.8834a.0848.0848,0,0,0,.1406.07L8.6581,11.16a.2344.2344,0,0,1,.3516.3047l-2.2034,3.27a1.1255,1.1255,0,0,1-2.0861-.586V5.8511a1.1229,1.1229,0,0,1,1.1134-1.125H6.068a1.0842,1.0842,0,0,1,.8555.3984l6.5632,7.8523a.0877.0877,0,0,0,.1523-.0586V7.0231a.0847.0847,0,0,0-.1406-.07L11.33,8.84a.2344.2344,0,0,1-.3516-.3047l2.2033-3.27a1.1331,1.1331,0,0,1,2.0979.586Z"></path></svg> 