<?xml version="1.0" encoding="UTF-8"?> <svg xmlns="http://www.w3.org/2000/svg" id="Layer_1" data-name="Layer 1" width="20" height="20" viewBox="0 0 20 20"><defs><style>.cls-1{fill:#6b11c9;fill-rule:evenodd;}</style></defs><title>Artboard 1 copy 88</title><path class="cls-1" d="M12.4171.3157a9.9979,9.9979,0,0,0-4.836,19.4022L7.58,19.7171A9.9976,9.9976,0,1,0,12.4171.3157ZM4.555,8.7772a11.2021,11.2021,0,0,1-.2047-1.18A10.7656,10.7656,0,0,1,4.266,6.2789a.3443.3443,0,0,0,.006-.0783A11.2386,11.2386,0,0,1,6.698,5.1532a11.5183,11.5183,0,0,1,3.5338-.4816,10.1438,10.1438,0,0,1,1.6494.1625c.0061.012-.006.0181-.0181.0181-.0541.0241-.1143.0422-.1685.0662A3.18,3.18,0,0,0,9.7923,7.2662a3.8589,3.8589,0,0,0-.0542.5237,2.9259,2.9259,0,0,1-.1084.7887,2.68,2.68,0,0,1-5.0085.3972A.8536.8536,0,0,1,4.555,8.7772Zm7.844,5.3277c-.0422.0842-.0783.1625-.12.2408a.4177.4177,0,0,1-.0964.1324,11.6456,11.6456,0,0,1-2.0949,1.5772c-.03.0181-.06.0361-.0843.0482A5.8243,5.8243,0,0,1,9.3408,15.7a11.4768,11.4768,0,0,1-1.818-1.511A11.1794,11.1794,0,0,1,6.0539,12.335a10.8625,10.8625,0,0,1-.9932-1.9565.3647.3647,0,0,1-.0181-.06c.03.0181.0421.0241.06.0361a3.0783,3.0783,0,0,0,.6742.4034,3.1211,3.1211,0,0,0,.9632.2528,3.205,3.205,0,0,0,1.92-.4094,2.8372,2.8372,0,0,1,1.0053-.3371,2.6772,2.6772,0,0,1,2.9016,1.89A2.6154,2.6154,0,0,1,12.399,14.1049ZM15.6919,7.23a12.0383,12.0383,0,0,1-.2107,1.3966,11.2652,11.2652,0,0,1-1.5773,3.7865c-.2107.3251-.4394.6381-.68.9392-.0241.018-.0362.0421-.0723.06.0121-.1143.0241-.2167.03-.325a3.1778,3.1778,0,0,0-1.5171-2.8836c-.0421-.03-.09-.0542-.1324-.0843A2.6006,2.6006,0,0,1,10.31,8.3257a2.6747,2.6747,0,0,1,3.4374-3.028,8.7907,8.7907,0,0,1,1.1378.4575c.2588.12.5057.2528.7525.3913.03.0181.0542.03.09.0541,0,.0241.006.0422.006.0663C15.734,6.5859,15.7159,6.911,15.6919,7.23Z"></path></svg> 