<?xml version="1.0" encoding="UTF-8"?> <svg xmlns="http://www.w3.org/2000/svg" id="Layer_1" data-name="Layer 1" width="20" height="20" viewBox="0 0 20 20"><defs><style>.cls-1{fill:#6b11c9;fill-rule:evenodd;}</style></defs><title>Artboard 1 copy 91</title><path class="cls-1" d="M12.4171.3157a9.9979,9.9979,0,0,0-4.836,19.4022L7.58,19.7171A9.9976,9.9976,0,1,0,12.4171.3157Zm3.6373,13.1979c-.6114-.3659-1.22-.7367-1.8347-1.0968q-1.86-1.09-3.727-2.1689Q8.3136,8.9923,6.1265,7.7505a.2793.2793,0,0,0-.0718-.0159.6892.6892,0,0,0-.0454.4054q0,3.1449.005,6.29c0,.1288-.012.2577-.0184.3865-.6814-.3895-1.36-.7837-2.0461-1.1648a.33.33,0,0,1-.1839-.3379q.0089-3.37.01-6.7409c0-.2942.5371-.7256,1.3635-.2488Q7.1336,7.475,9.1154,8.6477c1.6174.961,3.2688,1.8648,4.906,2.7924a.59.59,0,0,0,.1328.016V5.1835c.5787.3334,1.1564.6688,1.7368.9992a.4867.4867,0,0,1,.26.4776c-.0074,2.1857-.0044,4.3713-.0113,6.557C16.1389,13.3141,16.232,13.4594,16.0544,13.5136Z"></path></svg> 