<?xml version="1.0" encoding="UTF-8"?> <svg xmlns="http://www.w3.org/2000/svg" xmlns:xlink="http://www.w3.org/1999/xlink" width="1920" height="1080" viewBox="0 0 1920 1080"><defs><style>.cls-1{fill:none;}.cls-2{isolation:isolate;}.cls-3{opacity:0.42;fill:url(#Áåçûìÿííûé_ãðàäèåíò_417);}.cls-12,.cls-15,.cls-16,.cls-3,.cls-33,.cls-34{mix-blend-mode:screen;}.cls-4{fill:url(#Áåçûìÿííûé_ãðàäèåíò_144);}.cls-5{fill:url(#Áåçûìÿííûé_ãðàäèåíò_2);}.cls-6{fill:url(#Áåçûìÿííûé_ãðàäèåíò_108);}.cls-42,.cls-7{fill:#9d68ff;}.cls-19,.cls-22,.cls-32,.cls-8{fill:#1455d7;}.cls-24,.cls-50,.cls-65,.cls-70,.cls-71,.cls-8{opacity:0.5;}.cls-18,.cls-22,.cls-24,.cls-26,.cls-32,.cls-37,.cls-65,.cls-70,.cls-71,.cls-8{mix-blend-mode:multiply;}.cls-9{fill:url(#Áåçûìÿííûé_ãðàäèåíò_44);}.cls-10{fill:url(#Áåçûìÿííûé_ãðàäèåíò_104);}.cls-11{fill:url(#Áåçûìÿííûé_ãðàäèåíò_126);}.cls-12{fill:url(#Áåçûìÿííûé_ãðàäèåíò_69);}.cls-13{fill:url(#Áåçûìÿííûé_ãðàäèåíò_104-2);}.cls-14{fill:url(#Áåçûìÿííûé_ãðàäèåíò_126-2);}.cls-15{fill:url(#Áåçûìÿííûé_ãðàäèåíò_69-2);}.cls-16{fill:url(#Áåçûìÿííûé_ãðàäèåíò_114);}.cls-17{fill:url(#Áåçûìÿííûé_ãðàäèåíò_251);}.cls-18,.cls-22,.cls-26{opacity:0.2;}.cls-20{fill:url(#radial-gradient);}.cls-21{fill:url(#radial-gradient-2);}.cls-23{fill:url(#radial-gradient-3);}.cls-25,.cls-34,.cls-66{fill:#fff;}.cls-26{fill:url(#Áåçûìÿííûé_ãðàäèåíò_488);}.cls-27{fill:url(#Áåçûìÿííûé_ãðàäèåíò_323);}.cls-28{fill:url(#Áåçûìÿííûé_ãðàäèåíò_318);}.cls-29{fill:url(#Áåçûìÿííûé_ãðàäèåíò_328);}.cls-30{fill:url(#Áåçûìÿííûé_ãðàäèåíò_335);}.cls-31{fill:#ff368d;}.cls-32{opacity:0.58;}.cls-33{opacity:0.17;fill:url(#Áåçûìÿííûé_ãðàäèåíò_284);}.cls-34{opacity:0.31;}.cls-35,.cls-36,.cls-37,.cls-38,.cls-39,.cls-41,.cls-42,.cls-43,.cls-44,.cls-45,.cls-46,.cls-47,.cls-48,.cls-49,.cls-50,.cls-51,.cls-52,.cls-53,.cls-54,.cls-55,.cls-56,.cls-57,.cls-58,.cls-59,.cls-61,.cls-63,.cls-64,.cls-65,.cls-66,.cls-68,.cls-70,.cls-71,.cls-72,.cls-73,.cls-74{fill-rule:evenodd;}.cls-35{fill:url(#Áåçûìÿííûé_ãðàäèåíò_131);}.cls-36{fill:url(#radial-gradient-4);}.cls-37{fill:#5c1748;opacity:0.3;}.cls-38{fill:url(#Áåçûìÿííûé_ãðàäèåíò_251-2);}.cls-39{fill:#b8a9d4;}.cls-40{clip-path:url(#clip-path);}.cls-41{fill:url(#Áåçûìÿííûé_ãðàäèåíò_251-3);}.cls-43{fill:url(#linear-gradient);}.cls-44{fill:#783b73;}.cls-45{fill:url(#Áåçûìÿííûé_ãðàäèåíò_251-4);}.cls-46{fill:url(#linear-gradient-2);}.cls-47{fill:url(#Áåçûìÿííûé_ãðàäèåíò_5);}.cls-48{fill:url(#Áåçûìÿííûé_ãðàäèåíò_5-2);}.cls-49{fill:url(#Áåçûìÿííûé_ãðàäèåíò_31);}.cls-50{fill:#fbf9fa;mix-blend-mode:soft-light;}.cls-51{fill:url(#Áåçûìÿííûé_ãðàäèåíò_5-3);}.cls-52{fill:url(#Áåçûìÿííûé_ãðàäèåíò_5-4);}.cls-53{fill:url(#Áåçûìÿííûé_ãðàäèåíò_31-2);}.cls-54{fill:url(#Áåçûìÿííûé_ãðàäèåíò_5-5);}.cls-55{fill:url(#Áåçûìÿííûé_ãðàäèåíò_5-6);}.cls-56{fill:url(#Áåçûìÿííûé_ãðàäèåíò_31-3);}.cls-57{fill:url(#Áåçûìÿííûé_ãðàäèåíò_5-7);}.cls-58{fill:url(#Áåçûìÿííûé_ãðàäèåíò_5-8);}.cls-59{fill:url(#Áåçûìÿííûé_ãðàäèåíò_31-4);}.cls-60{fill:url(#Áåçûìÿííûé_ãðàäèåíò_88);}.cls-61{fill:url(#Áåçûìÿííûé_ãðàäèåíò_88-2);}.cls-62{fill:url(#Áåçûìÿííûé_ãðàäèåíò_111);}.cls-63{fill:#83214f;}.cls-64{fill:#54214f;}.cls-65{fill:url(#Áåçûìÿííûé_ãðàäèåíò_42);}.cls-67{fill:url(#Áåçûìÿííûé_ãðàäèåíò_88-3);}.cls-68{fill:url(#Áåçûìÿííûé_ãðàäèåíò_88-4);}.cls-69{fill:url(#Áåçûìÿííûé_ãðàäèåíò_111-2);}.cls-70{fill:#9a2463;}.cls-71{fill:url(#Áåçûìÿííûé_ãðàäèåíò_42-2);}.cls-72{fill:url(#Áåçûìÿííûé_ãðàäèåíò_131-2);}.cls-73{fill:url(#radial-gradient-5);}.cls-74{fill:url(#Áåçûìÿííûé_ãðàäèåíò_251-5);}</style><radialGradient id="Áåçûìÿííûé_ãðàäèåíò_417" cx="8274.983" cy="1130.4343" r="106.6141" gradientTransform="matrix(-0.991, -0.1336, -0.1336, 0.991, 9815.3273, 527.2503)" gradientUnits="userSpaceOnUse"><stop offset="0"></stop><stop offset="0.1181" stop-color="#030208"></stop><stop offset="0.3025" stop-color="#0a081e"></stop><stop offset="0.5302" stop-color="#151242"></stop><stop offset="0.7897" stop-color="#262074"></stop><stop offset="0.996" stop-color="#342ca1"></stop></radialGradient><linearGradient id="Áåçûìÿííûé_ãðàäèåíò_144" x1="8225.0003" y1="1279.7954" x2="8225.0003" y2="1016.3586" gradientTransform="matrix(-0.991, -0.1336, -0.1336, 0.991, 9815.3273, 527.2503)" gradientUnits="userSpaceOnUse"><stop offset="0.0405" stop-color="#cfa5ff"></stop><stop offset="0.2649" stop-color="#9a93ff"></stop><stop offset="1" stop-color="#e5c9ff"></stop></linearGradient><linearGradient id="Áåçûìÿííûé_ãðàäèåíò_2" x1="8296.0485" y1="1279.7768" x2="8296.0485" y2="1016.4623" gradientTransform="matrix(-0.991, -0.1336, -0.1336, 0.991, 9815.3273, 527.2503)" gradientUnits="userSpaceOnUse"><stop offset="0" stop-color="#e8c7ff"></stop><stop offset="1" stop-color="#fff"></stop></linearGradient><linearGradient id="Áåçûìÿííûé_ãðàäèåíò_108" x1="8296.3778" y1="1270.415" x2="8296.3778" y2="1025.8299" gradientTransform="matrix(-0.991, -0.1336, -0.1336, 0.991, 9815.3273, 527.2503)" gradientUnits="userSpaceOnUse"><stop offset="0.0054" stop-color="#9a93ff"></stop><stop offset="1" stop-color="#e5c9ff"></stop></linearGradient><linearGradient id="Áåçûìÿííûé_ãðàäèåíò_44" x1="8322.3633" y1="1282.3761" x2="8324.334" y2="1169.4731" gradientTransform="matrix(-0.991, -0.1336, -0.1336, 0.991, 9815.3273, 527.2503)" gradientUnits="userSpaceOnUse"><stop offset="0" stop-color="#9ab5ff"></stop><stop offset="1" stop-color="#cdffff"></stop></linearGradient><linearGradient id="Áåçûìÿííûé_ãðàäèåíò_104" x1="8219.5225" y1="1087.9879" x2="8219.5225" y2="1045.8341" gradientTransform="matrix(-0.991, -0.1336, -0.1336, 0.991, 9815.3273, 527.2503)" gradientUnits="userSpaceOnUse"><stop offset="0.0054" stop-color="#838bff"></stop><stop offset="1" stop-color="#8693ff"></stop></linearGradient><linearGradient id="Áåçûìÿííûé_ãðàäèåíò_126" x1="8218.9227" y1="1087.9878" x2="8218.9227" y2="1045.8341" gradientTransform="matrix(-0.991, -0.1336, -0.1336, 0.991, 9815.3273, 527.2503)" gradientUnits="userSpaceOnUse"><stop offset="0" stop-color="#f2e0ff"></stop><stop offset="1" stop-color="#fff"></stop></linearGradient><linearGradient id="Áåçûìÿííûé_ãðàäèåíò_69" x1="8218.9904" y1="1087.7331" x2="8218.9904" y2="1045.8072" gradientTransform="matrix(-0.991, -0.1336, -0.1336, 0.991, 9815.3273, 527.2503)" gradientUnits="userSpaceOnUse"><stop offset="0" stop-color="#b0c2ff"></stop><stop offset="1" stop-color="#caffff"></stop></linearGradient><linearGradient id="Áåçûìÿííûé_ãðàäèåíò_104-2" x1="8219.5211" y1="1115.4152" x2="8219.5211" y2="1093.8871" gradientTransform="matrix(1, -0.0001, -0.0001, -1, -6696.8814, 1629.5699)" xlink:href="#Áåçûìÿííûé_ãðàäèåíò_104"></linearGradient><linearGradient id="Áåçûìÿííûé_ãðàäèåíò_126-2" x1="8218.9213" y1="1115.4152" x2="8218.9213" y2="1093.8871" xlink:href="#Áåçûìÿííûé_ãðàäèåíò_126"></linearGradient><linearGradient id="Áåçûìÿííûé_ãðàäèåíò_69-2" x1="8218.9886" y1="1115.2851" x2="8218.9886" y2="1093.8734" xlink:href="#Áåçûìÿííûé_ãðàäèåíò_69"></linearGradient><linearGradient id="Áåçûìÿííûé_ãðàäèåíò_114" x1="8217.1866" y1="1267.397" x2="8217.1866" y2="1122.9016" gradientTransform="matrix(-0.991, -0.1336, -0.1336, 0.991, 9815.3273, 527.2503)" gradientUnits="userSpaceOnUse"><stop offset="0" stop-color="#ca90ff"></stop><stop offset="1"></stop></linearGradient><linearGradient id="Áåçûìÿííûé_ãðàäèåíò_251" x1="8357.8199" y1="690.1489" x2="8362.0981" y2="445.05" gradientTransform="matrix(-1, 0, 0, 1, 9774.5961, 0)" gradientUnits="userSpaceOnUse"><stop offset="0" stop-color="#fff"></stop><stop offset="1" stop-color="#dcdcff"></stop></linearGradient><radialGradient id="radial-gradient" cx="1485.8871" cy="498.2609" r="7.3629" gradientUnits="userSpaceOnUse"><stop offset="0" stop-color="#ff6b21"></stop><stop offset="0.9944" stop-color="#f52800"></stop></radialGradient><radialGradient id="radial-gradient-2" cx="1481.1736" cy="537.9363" r="7.467" xlink:href="#radial-gradient"></radialGradient><radialGradient id="radial-gradient-3" cx="1399.4445" cy="442.5655" r="12.5006" gradientUnits="userSpaceOnUse"><stop offset="0" stop-color="#ff3b21"></stop><stop offset="0.9944" stop-color="#f52800"></stop></radialGradient><linearGradient id="Áåçûìÿííûé_ãðàäèåíò_488" x1="8343.0142" y1="689.701" x2="8343.0142" y2="566.5523" gradientTransform="matrix(-1, 0, 0, 1, 9774.5961, 0)" gradientUnits="userSpaceOnUse"><stop offset="0" stop-color="#7a97ef"></stop><stop offset="0.3849" stop-color="#a3aef6"></stop><stop offset="0.7868" stop-color="#c8c2fd"></stop><stop offset="1" stop-color="#d6caff"></stop></linearGradient><linearGradient id="Áåçûìÿííûé_ãðàäèåíò_323" x1="8155.281" y1="-722.8858" x2="8155.281" y2="-730.2464" gradientTransform="matrix(-0.9485, 0.317, 0.317, 0.9485, 9390.1607, -1247.7133)" gradientUnits="userSpaceOnUse"><stop offset="0" stop-color="#f6ffff"></stop><stop offset="1" stop-color="#168ce8"></stop></linearGradient><linearGradient id="Áåçûìÿííûé_ãðàäèåíò_318" x1="8155.0128" y1="-762.0169" x2="8155.0128" y2="-866.4007" gradientTransform="matrix(1, 0, 0, -1, -6757.8689, -249.26)" gradientUnits="userSpaceOnUse"><stop offset="0" stop-color="#0022b8"></stop><stop offset="0.7676" stop-color="#1300ce"></stop><stop offset="0.9811" stop-color="#9300ce"></stop></linearGradient><linearGradient id="Áåçûìÿííûé_ãðàäèåíò_328" x1="8155.114" y1="-725.4066" x2="8155.114" y2="-737.9116" gradientTransform="matrix(-0.9485, 0.317, 0.317, 0.9485, 9390.1607, -1247.7133)" gradientUnits="userSpaceOnUse"><stop offset="0" stop-color="#92c0e8"></stop><stop offset="1" stop-color="#3687ff"></stop></linearGradient><linearGradient id="Áåçûìÿííûé_ãðàäèåíò_335" x1="8155.2804" y1="-735.4921" x2="8155.2804" y2="-779.4029" gradientTransform="matrix(-0.9485, 0.317, 0.317, 0.9485, 9390.1607, -1247.7133)" gradientUnits="userSpaceOnUse"><stop offset="0" stop-color="#4a90ff"></stop><stop offset="1" stop-color="#3136f2"></stop></linearGradient><linearGradient id="Áåçûìÿííûé_ãðàäèåíò_284" x1="8151.4341" y1="-778.3117" x2="8151.4341" y2="-859.9375" gradientTransform="matrix(-0.9485, 0.317, 0.317, 0.9485, 9390.1607, -1247.7133)" gradientUnits="userSpaceOnUse"><stop offset="0"></stop><stop offset="1" stop-color="#fff"></stop></linearGradient><linearGradient id="Áåçûìÿííûé_ãðàäèåíò_131" x1="1560.1971" y1="519.7461" x2="1554.4408" y2="476.3035" gradientUnits="userSpaceOnUse"><stop offset="0.0056" stop-color="#530e68"></stop><stop offset="1" stop-color="#60309d"></stop></linearGradient><radialGradient id="radial-gradient-4" cx="1554.8649" cy="483.1342" r="31.1117" xlink:href="#radial-gradient"></radialGradient><linearGradient id="Áåçûìÿííûé_ãðàäèåíò_251-2" x1="1551.5563" y1="503.86" x2="1555.8544" y2="477.2336" gradientTransform="matrix(1, 0, 0, 1, 0, 0)" xlink:href="#Áåçûìÿííûé_ãðàäèåíò_251"></linearGradient><clipPath id="clip-path"><polygon class="cls-1" points="1408.797 476.988 1409.277 464.721 1478.756 459.526 1478.56 472.45 1408.797 476.988"></polygon></clipPath><linearGradient id="Áåçûìÿííûé_ãðàäèåíò_251-3" x1="336.8147" y1="575.1429" x2="436.4438" y2="575.1429" gradientTransform="matrix(1, 0, 0, 1, 0, 0)" xlink:href="#Áåçûìÿííûé_ãðàäèåíò_251"></linearGradient><linearGradient id="linear-gradient" x1="336.8147" y1="575.1429" x2="436.4438" y2="575.1429" gradientUnits="userSpaceOnUse"><stop offset="0.0405" stop-color="#cfa5ff"></stop><stop offset="0.4563" stop-color="#d1a7ff"></stop><stop offset="0.6976" stop-color="#d6b0ff"></stop><stop offset="0.8936" stop-color="#debeff"></stop><stop offset="1" stop-color="#e5c9ff"></stop></linearGradient><linearGradient id="Áåçûìÿííûé_ãðàäèåíò_251-4" x1="502.6918" y1="446.8893" x2="576.5615" y2="446.8893" gradientTransform="translate(701.6501 -49.7893) rotate(61.4897)" xlink:href="#Áåçûìÿííûé_ãðàäèåíò_251"></linearGradient><linearGradient id="linear-gradient-2" x1="502.6918" y1="446.8893" x2="576.5615" y2="446.8893" gradientTransform="translate(701.6501 -49.7893) rotate(61.4897)" xlink:href="#linear-gradient"></linearGradient><linearGradient id="Áåçûìÿííûé_ãðàäèåíò_5" x1="1043.7607" y1="794.6329" x2="1052.4438" y2="769.1692" gradientTransform="matrix(0.8993, 0.1229, -0.1354, 0.9908, 500.9759, -500.2614)" gradientUnits="userSpaceOnUse"><stop offset="0.002" stop-color="#90062c"></stop><stop offset="1" stop-color="#c72a16"></stop></linearGradient><linearGradient id="Áåçûìÿííûé_ãðàäèåíò_5-2" x1="1040.5735" y1="795.35" x2="1049.8163" y2="768.245" xlink:href="#Áåçûìÿííûé_ãðàäèåíò_5"></linearGradient><radialGradient id="Áåçûìÿííûé_ãðàäèåíò_31" cx="1033.6168" cy="775.8795" r="20.5248" gradientTransform="matrix(0.8993, 0.1229, -0.1354, 0.9908, 500.9759, -500.2614)" gradientUnits="userSpaceOnUse"><stop offset="0" stop-color="#ff6e27"></stop><stop offset="0.998" stop-color="#e03347"></stop></radialGradient><linearGradient id="Áåçûìÿííûé_ãðàäèåíò_5-3" x1="-288.4476" y1="1170.1481" x2="-277.2877" y2="1137.4211" xlink:href="#Áåçûìÿííûé_ãðàäèåíò_5"></linearGradient><linearGradient id="Áåçûìÿííûé_ãðàäèåíò_5-4" x1="-292.5439" y1="1171.0698" x2="-280.6647" y2="1136.2333" xlink:href="#Áåçûìÿííûé_ãðàäèåíò_5"></linearGradient><radialGradient id="Áåçûìÿííûé_ãðàäèåíò_31-2" cx="-301.485" cy="1146.0455" r="26.3793" xlink:href="#Áåçûìÿííûé_ãðàäèåíò_31"></radialGradient><linearGradient id="Áåçûìÿííûé_ãðàäèåíò_5-5" x1="679.8548" y1="-1063.4122" x2="687.5661" y2="-1086.026" gradientTransform="matrix(0.804, -0.4213, 0.4642, 0.8858, 457.0757, 1698.4451)" xlink:href="#Áåçûìÿííûé_ãðàäèåíò_5"></linearGradient><linearGradient id="Áåçûìÿííûé_ãðàäèåíò_5-6" x1="677.0244" y1="-1062.7753" x2="685.2327" y2="-1086.8467" gradientTransform="matrix(0.804, -0.4213, 0.4642, 0.8858, 457.0757, 1698.4451)" xlink:href="#Áåçûìÿííûé_ãðàäèåíò_5"></linearGradient><radialGradient id="Áåçûìÿííûé_ãðàäèåíò_31-3" cx="670.8462" cy="-1080.0667" r="18.2276" gradientTransform="matrix(0.804, -0.4213, 0.4642, 0.8858, 457.0757, 1698.4451)" xlink:href="#Áåçûìÿííûé_ãðàäèåíò_31"></radialGradient><linearGradient id="Áåçûìÿííûé_ãðàäèåíò_5-7" x1="1984.6938" y1="-457.2211" x2="1992.405" y2="-479.8349" gradientTransform="matrix(0.8594, 0.2919, -0.3216, 0.9469, -1.4192, 329.184)" xlink:href="#Áåçûìÿííûé_ãðàäèåíò_5"></linearGradient><linearGradient id="Áåçûìÿííûé_ãðàäèåíò_5-8" x1="1981.8633" y1="-456.5842" x2="1990.0716" y2="-480.6556" gradientTransform="matrix(0.8594, 0.2919, -0.3216, 0.9469, -1.4192, 329.184)" xlink:href="#Áåçûìÿííûé_ãðàäèåíò_5"></linearGradient><radialGradient id="Áåçûìÿííûé_ãðàäèåíò_31-4" cx="1975.6851" cy="-473.8756" r="18.2276" gradientTransform="matrix(0.8594, 0.2919, -0.3216, 0.9469, -1.4192, 329.184)" xlink:href="#Áåçûìÿííûé_ãðàäèåíò_31"></radialGradient><linearGradient id="Áåçûìÿííûé_ãðàäèåíò_88" x1="6720.0978" y1="-793.6456" x2="6743.9531" y2="-833.0442" gradientTransform="matrix(-1, 0, 0, 1, 7318.8715, 1227.5539)" gradientUnits="userSpaceOnUse"><stop offset="0.0074" stop-color="#ff4747"></stop><stop offset="1" stop-color="#ff9127"></stop></linearGradient><linearGradient id="Áåçûìÿííûé_ãðàäèåíò_88-2" x1="6714.6782" y1="-793.207" x2="6739.8411" y2="-834.7652" gradientTransform="matrix(-0.9134, 0.407, 0.407, 0.9134, 7067.0672, -1582.6673)" xlink:href="#Áåçûìÿííûé_ãðàäèåíò_88"></linearGradient><linearGradient id="Áåçûìÿííûé_ãðàäèåíò_111" x1="6722.5854" y1="-788.419" x2="6722.5854" y2="-838.2705" gradientTransform="matrix(-1, 0, 0, 1, 7318.0547, 1223.709)" gradientUnits="userSpaceOnUse"><stop offset="0" stop-color="#ffa700"></stop><stop offset="1" stop-color="#ffd328"></stop></linearGradient><linearGradient id="Áåçûìÿííûé_ãðàäèåíò_42" x1="6732.7264" y1="-787.3627" x2="6738.4134" y2="-796.7553" gradientTransform="matrix(-0.9134, 0.407, 0.407, 0.9134, 7067.0672, -1582.6673)" gradientUnits="userSpaceOnUse"><stop offset="0" stop-color="#daccd2"></stop><stop offset="0.998" stop-color="#b0339f"></stop></linearGradient><linearGradient id="Áåçûìÿííûé_ãðàäèåíò_88-3" x1="1785.6426" y1="574.0091" x2="1829.822" y2="501.0438" gradientTransform="translate(2356.4843 -1277.108) rotate(90)" xlink:href="#Áåçûìÿííûé_ãðàäèåíò_88"></linearGradient><linearGradient id="Áåçûìÿííûé_ãðàäèåíò_88-4" x1="1775.6056" y1="574.8213" x2="1822.2067" y2="497.8564" gradientTransform="translate(21.3076 -39.7129) rotate(1.0428)" xlink:href="#Áåçûìÿííûé_ãðàäèåíò_88"></linearGradient><linearGradient id="Áåçûìÿííûé_ãðàäèåíò_111-2" x1="1790.2497" y1="583.688" x2="1790.2497" y2="491.3648" gradientTransform="translate(2339.0046 -1259.9436) rotate(90)" xlink:href="#Áåçûìÿííûé_ãðàäèåíò_111"></linearGradient><linearGradient id="Áåçûìÿííûé_ãðàäèåíò_42-2" x1="1809.0299" y1="585.6447" x2="1819.562" y2="568.2502" gradientTransform="translate(21.3076 -39.7129) rotate(1.0428)" xlink:href="#Áåçûìÿííûé_ãðàäèåíò_42"></linearGradient><linearGradient id="Áåçûìÿííûé_ãðàäèåíò_131-2" x1="764.8536" y1="405.1357" x2="762.3521" y2="386.2567" gradientTransform="translate(-121.6481 355.2472) rotate(-24.8626)" xlink:href="#Áåçûìÿííûé_ãðàäèåíò_131"></linearGradient><radialGradient id="radial-gradient-5" cx="762.5364" cy="389.2251" r="13.5203" gradientTransform="translate(-121.6481 355.2472) rotate(-24.8626)" xlink:href="#radial-gradient"></radialGradient><linearGradient id="Áåçûìÿííûé_ãðàäèåíò_251-5" x1="761.0986" y1="398.232" x2="762.9664" y2="386.6609" gradientTransform="translate(-121.6481 355.2472) rotate(-24.8626)" xlink:href="#Áåçûìÿííûé_ãðàäèåíò_251"></linearGradient></defs><title>Artboard 1 copy</title><g class="cls-2"><g id="Layer_5" data-name="Layer 5"><path class="cls-3" d="M1546.2521,420.4231l-136.9438,13.3026a6.5094,6.5094,0,0,0-5.8248,5.6321L1378.355,630.8706a6.51,6.51,0,0,0,4.3691,7.0134l127.2947,43.0415a6.5094,6.5094,0,0,0,8.5313-5.262l34.7776-247.857A6.5094,6.5094,0,0,0,1546.2521,420.4231Z"></path><path class="cls-4" d="M1535.6249,444.5826s-.5723-10.1071-12.947-9.4152L1484.84,694.9812s13.2022,5.3887,18.2511-5.4388Z"></path><path class="cls-5" d="M1523.0134,435.1348,1386.07,448.4375a6.5094,6.5094,0,0,0-5.8247,5.6321l-25.1286,191.5128a6.51,6.51,0,0,0,4.3691,7.0133L1486.78,695.6372a6.5093,6.5093,0,0,0,8.5313-5.2619l34.7777-247.857A6.5094,6.5094,0,0,0,1523.0134,435.1348Z"></path><path class="cls-6" d="M1381.4971,460.9575l-23.3179,177.8958a6.1048,6.1048,0,0,0,4.2524,6.5372l123.1082,40.643a6.498,6.498,0,0,0,2.2118.3279,6.1181,6.1181,0,0,0,5.9942-5.1787l32.36-230.22a6.1192,6.1192,0,0,0-4.422-6.65,6.4175,6.4175,0,0,0-2.4447-.2473l-132.1511,11.6891A6.0948,6.0948,0,0,0,1381.4971,460.9575Z"></path><path class="cls-7" d="M1383.5022,461.2278l-23.3178,177.8957a6.1046,6.1046,0,0,0,4.2523,6.5372l123.1083,40.643a2.1024,2.1024,0,0,0,.2066.0577,6.1181,6.1181,0,0,0,5.9942-5.1787l32.36-230.22a6.1192,6.1192,0,0,0-4.422-6.65c-.1483.0024-.2976.0121-.4468.0219l-132.1439,11.69A6.0948,6.0948,0,0,0,1383.5022,461.2278Z"></path><path class="cls-8" d="M1510.5718,561.4893s-15.7324,88.4337-44.1866,127.2519l-15.1055-5.024Z"></path><path class="cls-9" d="M1302.0881,648.5441s57.5579-9.9077,140.2208,43.032c0,0,37.0335-12.1854,64.8874-106.09Z"></path><path class="cls-10" d="M1524.4261,507.3182h0a1.9332,1.9332,0,0,0,2.1741-1.6577l5.1138-37.9428a1.9333,1.9333,0,0,0-1.6577-2.1742h0a1.9332,1.9332,0,0,0-2.1741,1.6578l-5.1138,37.9427A1.9332,1.9332,0,0,0,1524.4261,507.3182Z"></path><path class="cls-11" d="M1525.02,507.3983h0a1.4848,1.4848,0,0,0,1.67-1.2733l5.2335-38.8313a1.4848,1.4848,0,0,0-1.2733-1.67h0a1.4848,1.4848,0,0,0-1.67,1.2732l-5.2336,38.8314A1.485,1.485,0,0,0,1525.02,507.3983Z"></path><path class="cls-12" d="M1530.6542,465.5971a1.4829,1.4829,0,0,1,1.2221,1.0479,1.479,1.479,0,0,0-2.4153.9429l-5.2336,38.8313a1.4746,1.4746,0,0,0,.0512.622,1.48,1.48,0,0,1-.5279-1.3395l5.2336-38.8314A1.4848,1.4848,0,0,1,1530.6542,465.5971Z"></path><path class="cls-13" d="M1522.2008,513.0679h0a1.9329,1.9329,0,0,1,1.9329,1.9329v17.6614a1.9329,1.9329,0,0,1-1.9329,1.9329h0a1.9336,1.9336,0,0,1-1.9336-1.9336v-17.66A1.9336,1.9336,0,0,1,1522.2008,513.0679Z" transform="translate(2960.6686 1246.537) rotate(-172.3142)"></path><path class="cls-14" d="M1521.3571,534.5789h0a1.485,1.485,0,0,0,1.67-1.2733l2.4787-18.3911a1.485,1.485,0,0,0-1.2733-1.67h0a1.485,1.485,0,0,0-1.67,1.2733l-2.4787,18.3911A1.4851,1.4851,0,0,0,1521.3571,534.5789Z"></path><path class="cls-15" d="M1524.2343,513.2309a1.88,1.88,0,0,1,1.2793.6235,2.5972,2.5972,0,0,0-.76-.22c-.8127-.11-1.5169.1381-1.5729.5532l-2.6728,19.8313a.4719.4719,0,0,0,.0911.3264c-.3985-.1889-.6464-.4608-.61-.73l2.6728-19.8313C1522.7174,513.3691,1523.4216,513.1214,1524.2343,513.2309Z"></path><path class="cls-16" d="M1503.6234,685.5324s19.6555-143.0882,18.8154-143.2538-19.1053,131.9922-19.1053,131.9922S1501.6622,685.6024,1503.6234,685.5324Z"></path><path class="cls-17" d="M1302.09,648.546c16.6725-2.6348,34.7393-.7357,52.19,3.4046,46.2535,10.9838,88.1528,37.75,88.1528,37.75,29.9488-15.9966,54.4571-70.7532,64.7651-104.2178l2.669-18.9309,16.5954-117.5969.0086-.0513a5.098,5.098,0,0,0-5.5347-5.7314l-132.7381,12.746a5.0689,5.0689,0,0,0-4.5253,4.2429,1.1106,1.1106,0,0,0-.0342.1626c-.5646,4.2943-1.4029,10.7272-2.3952,18.3234l-.8726,6.63-.2652,1.9675c-.65,4.9786-1.3515,10.2567-2.0444,15.6031l-1.6938,12.8744c-.18,1.42-.3764,2.84-.556,4.2429l-4.3457,33.1482c-.7442,5.6459-1.2232,9.273-1.2917,9.7777C1346.1023,616.5526,1302.09,648.546,1302.09,648.546Z"></path><g class="cls-18"><rect class="cls-19" x="1446.0471" y="459.6811" width="0.7399" height="114.0944" transform="matrix(0.0384, -0.9993, 0.9993, 0.0384, 874.5498, 1942.2451)"></rect></g><g class="cls-18"><rect class="cls-19" x="1435.8179" y="494.9341" width="0.7395" height="123.3387" transform="translate(758.3689 1939.7174) rotate(-85.0762)"></rect></g><g class="cls-18"><path class="cls-19" d="M1484.6138,604.7727l.2022-.7117c-.8671-.2464-87.1313-24.5763-124.5876-19.9557l.09.7334C1397.6254,580.2533,1483.7484,604.5263,1484.6138,604.7727Z"></path></g><path class="cls-20" d="M1493.2391,495.01l-.8541,7.35a3.6737,3.6737,0,0,1-3.7336,3.2488l-6.5515-.1507a3.6739,3.6739,0,0,1-3.5578-4.1525l.9146-6.9449a3.6738,3.6738,0,0,1,3.4985-3.1912l6.4909-.2544A3.6738,3.6738,0,0,1,1493.2391,495.01Z"></path><path class="cls-21" d="M1488.5807,535.1859l-.7751,6.6708a4.0455,4.0455,0,0,1-4.3979,3.5608l-6.0021-.5655a4.0456,4.0456,0,0,1-3.6315-4.5559l.8352-6.3417a4.0456,4.0456,0,0,1,4.1717-3.5142l5.9421.2364A4.0455,4.0455,0,0,1,1488.5807,535.1859Z"></path><path class="cls-22" d="M1481.4467,576.3041a55.0439,55.0439,0,0,1-4.5144,10.8773,2.4081,2.4081,0,0,1-2.7221,1.0913c-2.0225-.5556-5.4468-1.5031-8.2143-2.302a2.42,2.42,0,0,1-1.6041-3.1638c.9232-2.5056,2.3483-6.404,3.2372-8.9842a2.4215,2.4215,0,0,1,2.5485-1.6174l9.204.9774A2.4232,2.4232,0,0,1,1481.4467,576.3041Z"></path><path class="cls-22" d="M1457.7771,639.5387a55.039,55.039,0,0,1-6.5275,9.8024,2.4082,2.4082,0,0,1-2.8815.5458c-1.8773-.9352-5.0546-2.5254-7.616-3.8431a2.42,2.42,0,0,1-.9639-3.4136c1.3891-2.28,3.5393-5.8309,4.9092-8.1913a2.4212,2.4212,0,0,1,2.8125-1.0954l8.8428,2.734A2.4234,2.4234,0,0,1,1457.7771,639.5387Z"></path><path class="cls-22" d="M1383.671,460.1606l-2.4314,18.4831-.8712,6.6306-.2585,1.973-2.05,15.6009-1.69,12.8725-.5574,4.2469-4.3479,33.1464c-.4507,3.41-.8009,6.0756-1.0234,7.769l-.2645,2.0078,14.86-97.1912a7.4257,7.4257,0,0,1,6.7652-6.281l134.6619-10.461.0069-.0514a5.097,5.097,0,0,0-5.535-5.7322l-132.736,12.7449A5.072,5.072,0,0,0,1383.671,460.1606Z"></path><g class="cls-18"><path class="cls-19" d="M1428.6274,672.51c-19.72-11.6294-36.2976-17.6066-46.7315-20.5731a5.9752,5.9752,0,0,1-2.9361-9.5978l5.7037-6.7758a5.9973,5.9973,0,0,1,5.1723-2.1035c22.6945,2.2764,44.0918,11.8324,54.826,17.3268a5.9517,5.9517,0,0,1,3.1052,3.999,6.0186,6.0186,0,0,1-1.1077,4.9989,111.3641,111.3641,0,0,1-10.8567,11.9126,6.0166,6.0166,0,0,1-7.1752.8129Zm-43.398-36.4706-5.7035,6.7759a5.2353,5.2353,0,0,0,2.5721,8.41c10.4762,2.9782,27.1175,8.978,46.9053,20.6482a5.2722,5.2722,0,0,0,6.2889-.7125h0a110.51,110.51,0,0,0,10.7806-11.8274,5.2793,5.2793,0,0,0,.9724-4.385,5.2135,5.2135,0,0,0-2.72-3.5036c-10.6884-5.47-31.99-14.9843-54.5629-17.2482a5.2233,5.2233,0,0,0-4.5329,1.8428Z"></path></g><path class="cls-23" d="M1409.5309,453.7691s.25-11.32,1.4623-20.195a3.8336,3.8336,0,0,0-4.4648-4.3016c-4.257.7548-10.0881,1.8378-13.8345,2.7355a3.8223,3.8223,0,0,0-2.8607,2.9714c-.9245,4.617-2.7236,14.9688-1.6343,20.94Z"></path><g class="cls-24"><path class="cls-19" d="M1384.8022,642.8569a30.4922,30.4922,0,0,0,6.1074,3.5294,15.3869,15.3869,0,0,0,3.2828,1c1.1184.1851,2.3784.29,3.5589.3752a25.8551,25.8551,0,0,0,7.0742-.3613c2.2356-.4741,4.3853-1.5969,5.0126-3.6287a2.3783,2.3783,0,0,0-.5629-2.6055,6.7465,6.7465,0,0,0-2.81-1.6571,9.22,9.22,0,0,0-6.6583.1838,3.6456,3.6456,0,0,0-1.9757,2.33,4.1925,4.1925,0,0,0,.3566,3.1131,5.1914,5.1914,0,0,0,2.55,2.0468,12.201,12.201,0,0,0,3.4206.8361,17.5657,17.5657,0,0,0,7.0934-.6468,5.7087,5.7087,0,0,0,1.5371-.7484,1.56,1.56,0,0,0,.4911-.5375.58.58,0,0,0,.0683-.278,1.3642,1.3642,0,0,0-.0513-.351.4118.4118,0,0,0-.1067-.198c-.0246-.0173-.0515-.0326-.1432-.0162a1.6113,1.6113,0,0,0-.6292.3637,6.1978,6.1978,0,0,0-1.1235,1.324,10.1719,10.1719,0,0,0-1.7078,6.7346c.1634,1.1162.6207,2.4031,1.6223,2.3165a3.7434,3.7434,0,0,0,1.554-.522,17.9567,17.9567,0,0,0,1.5253-.9563c.5064-.3428,1.01-.7,1.5593-1.0276a5.26,5.26,0,0,1,.8958-.44,2.0606,2.0606,0,0,1,.56-.1223,1.1589,1.1589,0,0,1,.6567.1494,2.1568,2.1568,0,0,1,.8115.7626,3.7789,3.7789,0,0,1,.3982.9474,8.0418,8.0418,0,0,0,.566,1.66,2.991,2.991,0,0,0,1.1267,1.1487,3.272,3.272,0,0,0,1.5683.4521c1.1432.06,2.3809-.1777,3.6461-.1879a9.9694,9.9694,0,0,1,3.7652.6264,8.9586,8.9586,0,0,1,3.2383,2.0194,6.7379,6.7379,0,0,1,1.8113,3.3274,10.4281,10.4281,0,0,1,.252,1.8527l.0493.9209a1.6616,1.6616,0,0,0,.2121.8718,1.607,1.607,0,0,1-.3391-.8549l-.16-.91a13.1375,13.1375,0,0,0-.4207-1.7666,6.8122,6.8122,0,0,0-1.88-2.9465,9.2619,9.2619,0,0,0-3.0514-1.721,10.1469,10.1469,0,0,0-3.4681-.5515c-1.1928-.0086-2.3955.2191-3.7119.1425a4.0584,4.0584,0,0,1-3.3454-2.04c-.6552-1.2006-.548-2.6278-1.4541-3.0479-.2143-.1747-.84.108-1.3174.3987-.5063.3016-1.0064.6547-1.5168,1.0007a18.6287,18.6287,0,0,1-1.5963.9993,4.4659,4.4659,0,0,1-1.9163.6179,1.9473,1.9473,0,0,1-1.1038-.2953,2.305,2.305,0,0,1-.742-.8175,5.4126,5.4126,0,0,1-.5837-1.8938,10.973,10.973,0,0,1,1.8957-7.2478,7.6223,7.6223,0,0,1,1.2528-1.478,2.2518,2.2518,0,0,1,.9586-.5336.9019.9019,0,0,1,.7331.1477,1.1142,1.1142,0,0,1,.3731.5709,2.1148,2.1148,0,0,1,.09.5563,1.334,1.334,0,0,1-.1286.6122,2.2968,2.2968,0,0,1-.7062.8386,6.4644,6.4644,0,0,1-1.74.9048,18.4326,18.4326,0,0,1-7.4655.8543,13.2187,13.2187,0,0,1-3.7324-.83,6.288,6.288,0,0,1-3.1321-2.4454,5.3743,5.3743,0,0,1-.5648-4.0137,4.9421,4.9421,0,0,1,2.56-3.1916,8.7856,8.7856,0,0,1,3.85-.9445,12.133,12.133,0,0,1,3.8714.5129,8.2192,8.2192,0,0,1,3.5029,1.9976,4.36,4.36,0,0,1,1.11,1.9345,3.9813,3.9813,0,0,1-.1169,2.2542,6.2454,6.2454,0,0,1-2.5,3.3268,11.0206,11.0206,0,0,1-3.6686,1.5625,28.5078,28.5078,0,0,1-7.59.59c-1.2709-.0584-2.4665-.1178-3.7782-.2935a17.4868,17.4868,0,0,1-3.7839-1.03,32.6441,32.6441,0,0,1-6.7308-3.6438,1.2067,1.2067,0,0,1,1.3755-1.983l.0239.0169Z"></path></g><g class="cls-18"><path class="cls-19" d="M1351.1841,640.2316c-4.2584-2.263-6.9409-6.8543-7.5532-12.926a36.5425,36.5425,0,0,1,17.6534-33.2116c5.3762-2.89,10.6809-3.233,14.94-.97,8.7381,4.6447,10.2306,18.99,3.3273,31.9778-5.4295,10.2134-14.4588,16.5924-22.3186,16.5924A12.7647,12.7647,0,0,1,1351.1841,640.2316Zm10.4507-45.486a35.8091,35.8091,0,0,0-17.2679,32.4857c.5868,5.8185,3.1314,10.2035,7.1647,12.347,8.376,4.4535,20.6545-2.1962,27.3669-14.8239s5.3565-26.5235-3.0217-30.977a12.1143,12.1143,0,0,0-5.7436-1.391A18.0989,18.0989,0,0,0,1361.6348,594.7456Z"></path><path class="cls-19" d="M1352.4221,634.7448c-3.7287-1.9824-6.0657-5.8854-6.58-10.99a26.5536,26.5536,0,0,1,3.258-14.84h0c5.592-10.5209,15.8134-15.6594,23.2693-11.6955s8.9148,15.3094,3.3223,25.83a26.5584,26.5584,0,0,1-10.4779,11.0021,15.6555,15.6555,0,0,1-7.38,2.0191A11.4214,11.4214,0,0,1,1352.4221,634.7448Zm1.25-23.3992h0a21.3507,21.3507,0,0,0-2.6778,11.8892c.3358,3.329,1.7063,5.7926,3.8591,6.9371s4.96.9013,7.9086-.6817a21.3556,21.3556,0,0,0,8.3568-8.8718c4.0884-7.6915,3.5479-16.3126-1.18-18.8263a6.2784,6.2784,0,0,0-2.9811-.7109C1362.4731,601.0812,1356.9754,605.1312,1353.6723,611.3456Z"></path><path class="cls-19" d="M1360.8525,627.7735a.3515.3515,0,0,0,.1231-.0218.37.37,0,0,0,.2256-.4719l-6.4228-18.16a.37.37,0,0,0-.6977.2473l6.4229,18.16A.3708.3708,0,0,0,1360.8525,627.7735Z"></path><path class="cls-19" d="M1363.5686,623.99a.37.37,0,0,0,.3585-.2807c.3884-1.5546.9268-3.6674,1.3537-5.28a5.5266,5.5266,0,0,0,.662-1.9522c.0969-.5448.1559-.8739-.2234-.955-.3262-.0692-.4306-.0935-1.1516,2.6441a.8071.8071,0,0,1-.48.3508c-.4269.0794-1.0067-.4419-1.5564-1.3867-.6574-1.13.5372-3.6958,1.4975-5.7583,1.0271-2.2063,1.8386-3.9489.9687-4.6423a1.031,1.031,0,0,0-.8066-.223c-.9319.1353-1.86,1.46-2.7569,2.7418a6.8979,6.8979,0,0,1-1.2689,1.5579.369.369,0,1,0,.0552.736c.5045-.0226.9711-.6566,1.82-1.87.6926-.9891,1.6412-2.345,2.2568-2.4335a.2873.2873,0,0,1,.2394.0685c.4148.3308-.5058,2.3082-1.1779,3.7517-1.14,2.4486-2.3186,4.98-1.4661,6.4434.94,1.6148,1.7827,1.837,2.3245,1.7426.0246-.0042.05-.0092.0751-.0159-.2794,1.09-.6311,2.4945-1.0826,4.3014a.3689.3689,0,0,0,.3591.46Z"></path><path class="cls-19" d="M1361.0922,607.4552a.37.37,0,0,0,.3688-.3492l.2443-4.3173a.37.37,0,1,0-.7385-.0417l-.2443,4.3172a.37.37,0,0,0,.3484.39Z"></path></g><g class="cls-18"><path class="cls-19" d="M1481.035,600.3937c-58.1722-15.7546-96.7746-18.2792-110.6713-18.6326a4.2474,4.2474,0,0,1-3.6941-6.1417l8.9683-18.0009a4.2815,4.2815,0,0,1,4.21-2.3358l110.3978,10.5985a4.2533,4.2533,0,0,1,3.7225,5.2346c-2.1244,8.8526-5.793,20.4052-7.79,26.5035a4.2392,4.2392,0,0,1-5.1423,2.7744ZM1376.3,557.9476l-8.9683,18.0018a3.5066,3.5066,0,0,0,3.0509,5.0716c13.9229.355,52.5959,2.8829,110.845,18.6592a3.5041,3.5041,0,0,0,4.2459-2.2914h0c1.9944-6.0875,5.656-17.6183,7.7745-26.4451a3.5132,3.5132,0,0,0-3.0742-4.3256L1379.7769,556.02c-.11-.0109-.22-.0158-.3292-.0158A3.5327,3.5327,0,0,0,1376.3,557.9476Z"></path></g><g class="cls-18"><path class="cls-19" d="M1491.6975,558.0629l-106.7115-8.7607a4.4532,4.4532,0,0,1-4.0487-5.0324l3.2909-24.42a4.4464,4.4464,0,0,1,4.5951-3.8541l107.5206,4.4021a4.4534,4.4534,0,0,1,4.2259,5.0771l-4.1,28.7782a4.4574,4.4574,0,0,1-4.405,3.8244C1491.9431,558.0779,1491.82,558.0729,1491.6975,558.0629Zm-106.7358-38.1142-3.291,24.42a3.7123,3.7123,0,0,0,3.3754,4.1961l106.712,8.7616a3.7143,3.7143,0,0,0,3.979-3.1766l4.1-28.7787a3.7122,3.7122,0,0,0-3.5232-4.2333l-107.5206-4.402c-.0527-.0022-.1045-.0034-.1568-.0034A3.6953,3.6953,0,0,0,1384.9617,519.9487Z"></path></g><g class="cls-18"><path class="cls-19" d="M1496.475,516.5433l-105.48-3.4139a5.2735,5.2735,0,0,1-5.0554-5.9742l2.5041-18.5815a5.2656,5.2656,0,0,1,5.0178-4.565l106.2028-4.1987a5.2731,5.2731,0,0,1,5.4421,5.9133l-3.2267,26.1944a5.2465,5.2465,0,0,1-5.2278,4.6285C1496.5928,516.5462,1496.5344,516.5454,1496.475,516.5433Zm7.897-30.91a4.5327,4.5327,0,0,0-4.6785-5.0837l-106.2029,4.1986a4.526,4.526,0,0,0-4.3135,3.9242l-2.5041,18.5816a4.5328,4.5328,0,0,0,4.3461,5.1364l105.48,3.4138a4.5107,4.5107,0,0,0,4.646-3.9764Z"></path></g><path class="cls-25" d="M1484.9905,500.9612a.5977.5977,0,0,1-.4419-.1955l-2.3838-2.62a.5976.5976,0,1,1,.8838-.8045l1.8433,2.0258,2.6711-4.4481a.5975.5975,0,0,1,1.0242.6158l-3.0847,5.1364a.5976.5976,0,0,1-.4531.2869C1485.03,500.96,1485.01,500.9612,1484.9905,500.9612Z"></path><path class="cls-25" d="M1480.1268,540.752a.5977.5977,0,0,1-.4419-.1955l-2.3842-2.62a.5976.5976,0,1,1,.8838-.8046l1.8437,2.0259,2.6712-4.448a.5974.5974,0,1,1,1.0241.6156l-3.0846,5.1364a.5979.5979,0,0,1-.4532.287C1480.166,540.7507,1480.1464,540.752,1480.1268,540.752Z"></path><path class="cls-25" d="M1446.5118,643.0511a1.5947,1.5947,0,0,0,.3525-.04l3.4657-.7961a1.5686,1.5686,0,0,0-.7026-3.0575l-3.4656.7961a1.5688,1.5688,0,0,0,.35,3.0977Z"></path><path class="cls-25" d="M1453.2626,641.31a1.5717,1.5717,0,0,0,.4-.0518l.5823-.1528a1.5686,1.5686,0,1,0-.797-3.0342l-.5822.1529a1.5687,1.5687,0,0,0,.3972,3.0859Z"></path><polygon class="cls-25" points="1444.9 642.907 1444.372 640.95 1443.29 642.469 1444.9 642.907"></polygon><path class="cls-26" d="M1353.2966,651.1037l.9837.8469c46.2535,10.9838,88.1528,37.75,88.1528,37.75,29.9488-15.9966,54.4571-70.7532,64.7651-104.2178l2.669-18.9309C1501.6293,573.6525,1422.4586,640.5562,1353.2966,651.1037Z"></path><path class="cls-27" d="M1426.0487,651.6363h0a1.2578,1.2578,0,0,0,.7919-1.5869l-1.5381-4.6024a1.2576,1.2576,0,0,0-1.5869-.7919h0a1.2576,1.2576,0,0,0-.7918,1.5868l1.538,4.6025A1.2579,1.2579,0,0,0,1426.0487,651.6363Z"></path><path class="cls-28" d="M1397.3565,512.7416h0a8.41,8.41,0,0,1,8.41,8.41v87.5669a8.41,8.41,0,0,1-8.41,8.41h0a8.41,8.41,0,0,1-8.41-8.41V521.1514a8.41,8.41,0,0,1,8.41-8.41Z" transform="translate(2901.7252 657.8383) rotate(161.521)"></path><path class="cls-29" d="M1429.3025,634.7059s1.0665,9.1027-4.0528,14.5395a18.8753,18.8753,0,0,1-11.6379-9.2107Z"></path><path class="cls-30" d="M1411.2555,640.177a26.2908,26.2908,0,0,0,3.5279.3658,21.0316,21.0316,0,0,0,7.1989-.84l.1357-.0454c4.8774-1.6587,8.8627-6.0729,8.8627-6.0729a116.466,116.466,0,0,1-10.2647-37.53l-4.7606-.6362c-1.164,2.451-6.3922,4.6724-7.0428,4.94-.6807.1772-6.1748,1.5391-8.5827.289a.0208.0208,0,0,0-.0151-.0022l-3.4215,3.3707A116.4683,116.4683,0,0,1,1411.2555,640.177Z"></path><path class="cls-31" d="M1378.4294,517.7271c.1757.5258,1.587.528,3.1522.0049s2.6918-1.3734,2.516-1.8992-1.587-.528-3.1523-.0049S1378.2537,517.2013,1378.4294,517.7271Z"></path><path class="cls-32" d="M1396.8933,604.016c12.9656,2.2483,23.8227-7.9614,23.8227-7.9614l-4.7606-.6362c-1.164,2.451-6.3922,4.6724-7.0428,4.94-.6807.1772-6.1748,1.5391-8.5827.289a.0208.0208,0,0,0-.0151-.0022Z"></path><path class="cls-33" d="M1390.53,519l23.5648,76.8276a13.6326,13.6326,0,0,1-5.369,3.1272l-26.4612-76.2535S1389.1987,520.9281,1390.53,519Z"></path><path class="cls-34" d="M1389.9983,518.7524s-2.174-2.6578-4.81-2.9727c0,0-.6388,1.1789-3.7018,2.4944a19.0881,19.0881,0,0,0,.6045,3.9068A19.9854,19.9854,0,0,0,1389.9983,518.7524Z"></path><polygon class="cls-35" points="1579.372 473 1583 476.955 1572.64 518.097 1533.097 515.18 1530.912 513.618 1579.372 473"></polygon><polygon class="cls-36" points="1530.912 513.618 1536.098 473 1579.372 473 1568.958 514.813 1530.912 513.618"></polygon><polygon class="cls-37" points="1571.598 485.188 1573.423 486.694 1549.629 510.765 1538.833 495.549 1541.984 491.153 1551.057 497.977 1571.598 485.188"></polygon><polygon class="cls-38" points="1541.228 485.175 1536.439 489.136 1547.781 503.25 1572.652 481.549 1566.747 478.992 1549.439 492.884 1541.228 485.175"></polygon><polygon class="cls-39" points="1572.652 481.549 1571.598 485.188 1550.262 504.133 1547.781 503.25 1572.652 481.549"></polygon><g class="cls-2"><g class="cls-40"><polyline points="1409.446 464.708 1408.848 475.686 1410.549 475.608 1410.973 467.807 1415.22 475.386 1416.946 475.307 1417.519 464.259 1415.806 464.361 1415.393 472.166 1411.157 464.614 1409.446 464.708"></polyline><path d="M1423.7921,470.49l-3.4173.1766a3.1133,3.1133,0,0,1,.2415-.7422,2.0151,2.0151,0,0,1,.3848-.5517,1.6758,1.6758,0,0,1,.524-.3558,2.0084,2.0084,0,0,1,.6591-.1541l.0106-.0007.0107-.0007.0108-.0006.0107-.0006a1.7431,1.7431,0,0,1,.6734.0865,1.2719,1.2719,0,0,1,.5031.32,1.3457,1.3457,0,0,1,.3061.5243,1.96,1.96,0,0,1,.0825.6988m-1.5683-3.1419a3.4767,3.4767,0,0,0-1.3578.38,3.6135,3.6135,0,0,0-1.0875.8731,4.3055,4.3055,0,0,0-.7437,1.2814,5.3722,5.3722,0,0,0-.3254,1.6071,4.6951,4.6951,0,0,0,.1687,1.5794,3.2874,3.2874,0,0,0,.642,1.2126,2.7608,2.7608,0,0,0,1.0449.7625,3.1906,3.1906,0,0,0,1.3772.2282l.0233-.0011.0233-.0013.0232-.0013.0231-.0015a4.1612,4.1612,0,0,0,1.2047-.2542,3.4482,3.4482,0,0,0,.9867-.5706,3.3132,3.3132,0,0,0,.73-.8552,3.7542,3.7542,0,0,0,.4344-1.1073l-1.5662.0714a1.6664,1.6664,0,0,1-.2376.478,1.546,1.546,0,0,1-.37.3624,1.8373,1.8373,0,0,1-.495.24,2.5756,2.5756,0,0,1-.6115.1112l-.0149.001-.0149.0009-.015.0008-.015.0008a1.9794,1.9794,0,0,1-.7413-.088,1.3044,1.3044,0,0,1-.5435-.348,1.6277,1.6277,0,0,1-.3441-.6044,3.1463,3.1463,0,0,1-.143-.8576l5.1265-.2644.0269-.5662a4.921,4.921,0,0,0-.155-1.5775,3.0718,3.0718,0,0,0-.609-1.1777,2.5338,2.5338,0,0,0-1.013-.7184,3.2727,3.2727,0,0,0-1.3674-.2007l-.0159.0009-.0159.001-.0158.001-.0159.0011"></path><path d="M1425.9719,467.3816l1.8473,7.4172,1.6574-.0742,1.1091-3.2946c.1016-.3143.1874-.5839.26-.8171s.1326-.43.1822-.5983.0892-.3087.1215-.429.0574-.2206.0781-.3092c.009.0952.0233.2113.0433.3471s.0458.2915.0778.4658.07.3674.1146.5779.0958.4389.154.6836l.7946,3.2333,1.6055-.0793,2.7528-7.6967-1.8165.0951-1.0776,3.2971c-.0357.12-.0792.2675-.1266.43s-.0986.339-.15.5189-.102.3629-.1487.5369-.0894.3393-.1239.4837c-.0161-.1257-.0421-.29-.0731-.4705s-.0669-.3772-.1031-.5675-.0725-.3742-.1042-.5294-.0589-.2815-.0765-.3566l-.7716-3.1972-1.732.098-1.099,3.2784c-.0657.19-.1239.3617-.1769.5249s-.1007.3176-.1454.4714-.0864.3072-.1274.4686-.0812.3307-.123.5165q-.0333-.2625-.07-.5147t-.0765-.4944q-.04-.2421-.0829-.4742t-.09-.4538l-.7452-3.1787-1.7591.0914"></path><path d="M1440.0306,466.4079a3.8,3.8,0,0,0-1.0921.2358,2.9015,2.9015,0,0,0-.8729.518,2.4149,2.4149,0,0,0-.5906.7707,2.6995,2.6995,0,0,0-.1648,1.7948,1.5337,1.5337,0,0,0,.3192.5983,1.7381,1.7381,0,0,0,.5622.4161,3.2835,3.2835,0,0,0,.8091.2542l1.2378.2671a1.6744,1.6744,0,0,1,.3848.12.754.754,0,0,1,.2408.1713.5467.5467,0,0,1,.121.2192.81.81,0,0,1,.0256.2637.91.91,0,0,1-.0954.3763.8952.8952,0,0,1-.246.2964,1.2637,1.2637,0,0,1-.3886.2031,2.1,2.1,0,0,1-.5233.0968l-.0075,0-.0075,0-.0075,0-.0075,0a1.6932,1.6932,0,0,1-.5266-.0514.9887.9887,0,0,1-.3833-.1968.8279.8279,0,0,1-.2323-.327,1.1367,1.1367,0,0,1-.0736-.442l-1.6313.0749a2.4718,2.4718,0,0,0,.1519,1.0131,1.9564,1.9564,0,0,0,.5315.765,2.2907,2.2907,0,0,0,.8711.47,3.5323,3.5323,0,0,0,1.1708.1279l.0236-.0011.0235-.0013.0235-.0013.0235-.0015a3.9947,3.9947,0,0,0,1.161-.2447,3.0381,3.0381,0,0,0,.9227-.5454,2.53,2.53,0,0,0,.62-.81,2.64,2.64,0,0,0,.2537-1.0373,2.3759,2.3759,0,0,0-.0793-.7691,1.4314,1.4314,0,0,0-.31-.5638,1.68,1.68,0,0,0-.5376-.3876,3.3051,3.3051,0,0,0-.7638-.2406l-1.247-.2563a1.9853,1.9853,0,0,1-.3854-.12.9947.9947,0,0,1-.2746-.1739.6275.6275,0,0,1-.1609-.231.6961.6961,0,0,1-.044-.2916,1.0179,1.0179,0,0,1,.0873-.3816.8679.8679,0,0,1,.2183-.2932,1.0623,1.0623,0,0,1,.3382-.1964,1.6263,1.6263,0,0,1,.4472-.0908l.0067,0,.0067,0,.0067,0,.0067,0a1.2038,1.2038,0,0,1,.4426.05.81.81,0,0,1,.3257.1953.839.839,0,0,1,.1994.3245,1.2694,1.2694,0,0,1,.0635.437l1.64-.088a2.5166,2.5166,0,0,0-.156-.9957,1.9659,1.9659,0,0,0-.5085-.7491,2.1329,2.1329,0,0,0-.8119-.4568,3.0186,3.0186,0,0,0-1.0663-.1191l-.0178.001-.0178.0011-.0177.0012-.0177.0012"></path><polyline points="1444.404 462.567 1443.906 474.049 1445.639 473.962 1446.122 462.475 1444.404 462.567"></polyline><path d="M1452.5213,469.0453l-3.5659.1752a3.0416,3.0416,0,0,1,.24-.757,1.99,1.99,0,0,1,.394-.5612,1.7218,1.7218,0,0,1,.5432-.3613,2.15,2.15,0,0,1,.6876-.1569l.0113-.0008.0114-.0007.0114-.0007.0113-.0007a1.874,1.874,0,0,1,.7058.0877,1.3542,1.3542,0,0,1,.53.3266,1.39,1.39,0,0,1,.3261.5356,1.97,1.97,0,0,1,.0939.7142m-1.6756-3.21a3.6767,3.6767,0,0,0-1.4167.3906,3.7167,3.7167,0,0,0-1.1285.8936,4.323,4.323,0,0,0-.7643,1.3108,5.3524,5.3524,0,0,0-.3231,1.643,4.7136,4.7136,0,0,0,.1938,1.6142,3.3792,3.3792,0,0,0,.6851,1.2387,2.9266,2.9266,0,0,0,1.1018.7783,3.4258,3.4258,0,0,0,1.4439.2317l.0185-.0009.0185-.0011.0186-.0011.0184-.0012a4.4922,4.4922,0,0,0,1.2666-.2608,3.607,3.607,0,0,0,1.0334-.5841,3.3541,3.3541,0,0,0,.76-.8777,3.7589,3.7589,0,0,0,.4452-1.1406l-1.6387.0837a1.6663,1.6663,0,0,1-.2435.489,1.5791,1.5791,0,0,1-.3836.3709,1.9182,1.9182,0,0,1-.5155.246,2.7419,2.7419,0,0,1-.6388.1145l-.0155.001-.0157.0009-.0156.0009-.0157.0008a2.1609,2.1609,0,0,1-.7767-.0929,1.3955,1.3955,0,0,1-.5726-.3546,1.668,1.668,0,0,1-.3667-.6155,3.1454,3.1454,0,0,1-.159-.8751l5.3626-.2853.0216-.57a4.9483,4.9483,0,0,0-.1794-1.6161,3.1425,3.1425,0,0,0-.65-1.2027,2.6814,2.6814,0,0,0-1.0682-.731,3.5271,3.5271,0,0,0-1.4332-.2021l-.0166.0009-.0166.001-.0166.0011-.0166.0011"></path><polyline points="1456.498 463.385 1456.402 465.776 1455.025 465.847 1454.964 467.43 1456.341 467.36 1456.101 473.473 1457.884 473.392 1458.111 467.272 1459.512 467.2 1459.571 465.603 1458.18 465.685 1458.267 463.282 1456.498 463.385"></polyline><polyline points="1461.652 463.097 1461.559 465.506 1460.172 465.578 1460.113 467.167 1461.5 467.097 1461.271 473.233 1463.059 473.152 1463.285 467.008 1464.697 466.927 1464.754 465.332 1463.343 465.406 1463.434 463.002 1461.652 463.097"></polyline><path d="M1470.6856,468.1341l-3.6751.1808a3.0983,3.0983,0,0,1,.2441-.7646,2.0395,2.0395,0,0,1,.3988-.57,1.7466,1.7466,0,0,1,.5485-.368,2.1374,2.1374,0,0,1,.6934-.16l.0168-.0011.0169-.0011.0169-.0009.017-.0008a1.9784,1.9784,0,0,1,.7314.088,1.3761,1.3761,0,0,1,.89.8732,1.9671,1.9671,0,0,1,.1015.7239m-1.762-3.2515a3.8027,3.8027,0,0,0-1.4529.3964,3.7614,3.7614,0,0,0-1.1509.905,4.3052,4.3052,0,0,0-.772,1.3262,5.3053,5.3053,0,0,0-.3152,1.6613,4.7318,4.7318,0,0,0,.21,1.6373,3.4439,3.4439,0,0,0,.7129,1.2574,3.0244,3.0244,0,0,0,1.1385.7886,3.551,3.551,0,0,0,1.4868.23l.0249-.0012.0249-.0014.0248-.0014.0247-.0016a4.5734,4.5734,0,0,0,1.2892-.2654,3.69,3.69,0,0,0,1.0525-.5932,3.4039,3.4039,0,0,0,.7723-.8878,3.7352,3.7352,0,0,0,.4489-1.1485l-1.6852.086a1.6491,1.6491,0,0,1-.2472.4907,1.5978,1.5978,0,0,1-.393.3737,1.9914,1.9914,0,0,1-.5309.2489,2.8978,2.8978,0,0,1-.661.1166l-.0161.001-.0162.001-.0162.0009-.0163.0008a2.2136,2.2136,0,0,1-.7947-.0888,1.4307,1.4307,0,0,1-.5889-.3576,1.7031,1.7031,0,0,1-.38-.6254,3.1953,3.1953,0,0,1-.1692-.8921l5.5143-.284.0186-.5868a4.9239,4.9239,0,0,0-.1967-1.6342,3.2014,3.2014,0,0,0-.679-1.218,2.7826,2.7826,0,0,0-1.1041-.74,3.6451,3.6451,0,0,0-1.4721-.2l-.0214.0011-.0213.0012-.0213.0014-.0212.0014"></path><path d="M1477.8244,464.5012a2.4935,2.4935,0,0,0-.67.139,2.2455,2.2455,0,0,0-1.0093.7274,2.456,2.456,0,0,0-.321.5375l-.0671-1.1394-1.7161.0948-.2586,7.7906,1.8317-.0922.1212-3.7968a3.194,3.194,0,0,1,.1773-.9913,2.0674,2.0674,0,0,1,.4386-.7233,1.9644,1.9644,0,0,1,.6718-.4589,2.7483,2.7483,0,0,1,.8772-.1974l.0119-.0008.012-.0008.0121-.0007.012-.0007.6783-.0292.053-1.7918c-.0749-.015-.1466-.0274-.216-.0374s-.1365-.0176-.2024-.0231-.13-.0088-.1944-.01-.1279-.0008-.1922.0015l-.0126.0007-.0125.0007-.0126.0009-.0125.0008"></path></g></g><polygon class="cls-41" points="351.505 625.008 336.815 566.412 418.522 525.278 436.444 593.066 351.505 625.008"></polygon><polygon class="cls-42" points="418.522 525.278 426.322 528.405 442.221 592.343 436.444 593.066 418.522 525.278"></polygon><path class="cls-43" d="M418.5214,525.278l-3.9786,14.1807s-27.6,39.9518-34.9216,42.94c-5.3913,2.2-37.0579-5.5856-37.0579-5.5856l-5.7486-10.4013,5.11,11.3s14.8006,5.1079,26.6851,7.921l-17.1047,39.3746,1.5262-.5737,17.7036-38.318c5.3428,1.1683,9.8234,1.7437,11.6385.97,1.9412-.8271,6.2316-6.1347,11.1248-12.8958l42.9458,18.8751-.49-1.8543-41.127-18.8707c9.8427-13.8113,21.4382-32.2622,21.4382-32.2622Z"></path><polygon class="cls-44" points="442.221 592.343 435.954 591.211 351.505 625.008 357.054 624.603 442.221 592.343"></polygon><polygon class="cls-45" points="521.608 632.468 554.586 602.159 610.303 640.837 572.48 676.504 521.608 632.468"></polygon><polygon class="cls-42" points="610.303 640.837 611.026 647.026 574.995 680.013 572.48 676.504 610.303 640.837"></polygon><path class="cls-46" d="M610.3027,640.8366l-10.6472,2.4264s-35.7977-3.843-40.3357-7.5559c-3.3414-2.7339-9.4758-26.1212-9.4758-26.1212l4.7423-7.4265-5.5541,7.3285s1.91,11.4508,4.2831,20.19l-31.7073,2.7907.9139.7912,31.2309-2.0264c1.13,3.8945,2.3405,7.0174,3.4867,7.9263,1.2259.972,6.2024,1.8889,12.3392,2.6842l2.901,34.6606,1.0346-.9756-2.26-33.474c12.4819,1.5249,28.607,2.55,28.607,2.55Z"></path><polygon class="cls-44" points="574.995 680.013 573.514 675.528 521.608 632.468 523.835 635.94 574.995 680.013"></polygon><path class="cls-47" d="M1348.4334,394.106c-5.3987-1.5843-9.261,5.0805-9.261,5.0805s-1.71-7.5532-7.3227-7.7245c-6.532-.1992-8.1928,9.59-4.7195,15.7767s7.6243,7.83,9.2423,10.4421c2.3139-1.9852,6.7551-2.2584,11.8938-7.0724S1354.7165,395.95,1348.4334,394.106Z"></path><path class="cls-48" d="M1325.1859,391.0742a13.263,13.263,0,0,1,8.757.84l5.504,5.1483,2.9682-3.8312a9.5733,9.5733,0,0,1,8.7862,2.6823l-2.1273,9.74-12.7015,12.0268-4.7572-.65-3.6089-13.3108Z"></path><path class="cls-49" d="M1343.6763,393.4559c-5.3988-1.5842-9.2611,5.0805-9.2611,5.0805s-1.71-7.5532-7.3226-7.7244c-6.5321-.1994-8.1928,9.59-4.72,15.7765s7.6244,7.83,9.2423,10.4423c2.3139-1.9852,6.7552-2.2585,11.8939-7.0725S1349.9593,395.3,1343.6763,393.4559Z"></path><path class="cls-50" d="M1346.6175,395.5s4.3126.73,5.2822,1.5251a8.4494,8.4494,0,0,1,.6387,5.2009l-4.6086-1.63S1348.1118,396.9016,1346.6175,395.5Z"></path><path class="cls-51" d="M104.2107,596.3815c-6.9386-2.0362-11.9026,6.53-11.9026,6.53s-2.1977-9.7077-9.4114-9.9278c-8.3952-.2561-10.53,12.325-6.0657,20.2767S86.63,623.3237,88.71,626.6808c2.9739-2.5514,8.682-2.9026,15.2864-9.09S112.2861,598.7512,104.2107,596.3815Z"></path><path class="cls-52" d="M74.3321,592.485s4.7985-1.6274,11.2548,1.08l7.0741,6.6167,3.8148-4.924a12.3038,12.3038,0,0,1,11.2924,3.4475l-2.7341,12.5181L88.71,626.6808l-6.1142-.8354-4.6382-17.1076Z"></path><path class="cls-53" d="M98.0967,595.5459c-6.9387-2.0361-11.9028,6.53-11.9028,6.53s-2.1976-9.7076-9.4112-9.9277c-8.3954-.2562-10.53,12.3251-6.0658,20.2767s9.7992,10.0637,11.8785,13.4208c2.974-2.5515,8.6821-2.9027,15.2866-9.09S106.172,597.9158,98.0967,595.5459Z"></path><path class="cls-50" d="M101.8769,598.1729s5.5427.9387,6.7889,1.96a10.8587,10.8587,0,0,1,.8209,6.6843l-5.9231-2.0951S103.7974,599.9745,101.8769,598.1729Z"></path><path class="cls-54" d="M510.9748,446.2913c-4.7221,1.6335-4.0848,8.4447-4.0848,8.4447s-5.1266-4.5846-9.2759-1.8184c-4.8289,3.2193-.99,11.1574,4.709,13.8455s9.5485,1.7395,12.0643,2.7964c.652-2.6279,3.7248-5.1125,4.964-11.2418S516.47,444.39,510.9748,446.2913Z"></path><path class="cls-55" d="M492.5927,456.0684a11.7786,11.7786,0,0,1,6.769-3.9012l6.6334.8909.1749-4.3a8.5016,8.5016,0,0,1,7.7385-2.5834l3.4761,8.1428L514.3874,469.56l-3.7769,1.9793-9.4653-7.7729Z"></path><path class="cls-56" d="M507.1979,448.27c-4.722,1.6337-4.0848,8.4449-4.0848,8.4449s-5.1265-4.5847-9.2758-1.8185c-4.829,3.2194-.99,11.1574,4.7089,13.8455s9.5487,1.74,12.0643,2.7965c.6521-2.628,3.7248-5.1126,4.9641-11.2419S512.6936,446.3692,507.1979,448.27Z"></path><path class="cls-50" d="M510.3786,448.2348s3.4965-1.6922,4.6073-1.6165a7.5035,7.5035,0,0,1,3.14,3.4342l-4.174,1.1936S512.1816,448.48,510.3786,448.2348Z"></path><path class="cls-57" d="M1869.2338,459.8526c-4.4388-2.2943-8.9333,2.8631-8.9333,2.8631s-.2134-6.8742-5.0777-7.9728c-5.6611-1.2784-8.7645,6.975-6.7827,12.9564s5.3229,8.1159,6.2917,10.6668c2.3531-1.3394,6.2713-.8265,11.5654-4.1545S1874.4,462.5227,1869.2338,459.8526Z"></path><path class="cls-58" d="M1849.4787,453.2779a11.7778,11.7778,0,0,1,7.4924,2.2136l3.9279,5.4192,3.2357-2.8381a8.5017,8.5017,0,0,1,7.2065,3.8244l-3.5019,8.1318-13.1075,8.3373-4.0375-1.3713-.8952-12.215Z"></path><path class="cls-59" d="M1865.1963,458.4813c-4.4389-2.2942-8.9333,2.8631-8.9333,2.8631s-.2133-6.8742-5.0776-7.9727c-5.6612-1.2785-8.7645,6.975-6.7828,12.9563s5.3229,8.116,6.2917,10.6668c2.3531-1.3394,6.2713-.8266,11.5655-4.1545S1870.3622,461.1514,1865.1963,458.4813Z"></path><path class="cls-50" d="M1867.4149,460.7607s3.6363,1.3661,4.3473,2.2229a7.5042,7.5042,0,0,1-.3227,4.6423l-3.7422-2.2007S1868.4806,462.2355,1867.4149,460.7607Z"></path><ellipse class="cls-60" cx="587.0038" cy="414.3578" rx="16.7686" ry="24.9251" transform="translate(-117.8246 274.7769) rotate(-24.0161)"></ellipse><path class="cls-61" d="M605.7707,433.2832s-6.0548,3.5265-10.6741,4.5247-19.7518-25.2528-19.7518-25.2528l-.6353-19.71s8.1116-6.3845,14.4364-6.0426C594.7454,387.1054,605.7707,433.2832,605.7707,433.2832Z"></path><ellipse class="cls-62" cx="595.6263" cy="410.5159" rx="16.7686" ry="24.9251" transform="translate(-115.5144 277.9534) rotate(-24.0161)"></ellipse><path class="cls-63" d="M586.0875,420.2034a31.3576,31.3576,0,0,0,4.1983,4.842c3.534,3.3293,8.916,6.725,14.5741,4.1846,4.08-1.8276,5.7112-5.2434,6.1978-8.71l.0045-.0117a25.5939,25.5939,0,0,0-1.1645-10.6238Z"></path><path class="cls-64" d="M592.7709,410.141s-6.3364-.8957-10.376,3.0339l-.8817-1.9786s5.73-4.5,10.8915-1.8769Z"></path><path class="cls-64" d="M599.8839,406.9717s2.3007-4.7441,6.6848-4.5679l-.8816-1.9786s-5.5221.5141-6.1693,5.7248Z"></path><path class="cls-50" d="M577.5333,399.8285s-5.7686,1.6122-8.6245,3.8428A32.6671,32.6671,0,0,1,571.1046,397a47.9456,47.9456,0,0,1,9.6807-5.4611A16.3175,16.3175,0,0,0,577.5333,399.8285Z"></path><path class="cls-65" d="M599.8114,434.24a26.9442,26.9442,0,0,1-8.6226,3.8419,18.5224,18.5224,0,0,1-6.1409-1.8352s3.5023-1.93,7.4635-4.4783A20.6368,20.6368,0,0,0,599.8114,434.24Z"></path><path class="cls-66" d="M608.0617,410.6969S613.173,425.24,604.86,429.23c-9.9275,4.7653-18.7724-9.0266-18.7724-9.0266Z"></path><ellipse class="cls-67" cx="1818.9579" cy="530.6243" rx="46.1616" ry="31.0557" transform="translate(1255.3174 2339.6238) rotate(-88.9572)"></ellipse><path class="cls-68" d="M1800.638,576.46s12.8734,1.6366,21.4715,0,15.4254-57.3369,15.4254-57.3369l-13.1641-34.0667s-18.4461-5.0232-28.9838.1317C1786.0581,489.7514,1800.638,576.46,1800.638,576.46Z"></path><ellipse class="cls-69" cx="1801.4781" cy="530.3061" rx="46.1616" ry="31.0557" transform="translate(1238.4739 2321.8346) rotate(-88.9572)"></ellipse><path class="cls-63" d="M1824.7456,539.93a58.053,58.053,0,0,1-3.6586,11.2909c-3.6192,8.2314-10.3416,17.912-21.8259,17.67-8.2778-.1672-13.5283-4.8123-16.8639-10.3717l-.0162-.0168c-5.067-8.4386-5.6937-18.9565-5.6937-18.9565Z"></path><path class="cls-64" d="M1806.0761,527.6029s10.1568-6.1075,19.8856-2.327l.073-4.0112s-13.0228-3.53-19.9283,4.6726Z"></path><path class="cls-70" d="M1824.7456,539.93a58.053,58.053,0,0,1-3.6586,11.2909s-5.9155-2.2843-20.5809-.3746c-14.6659,1.926-18.1089,7.6732-18.1089,7.6732l-.0162-.0168c-5.067-8.4386-5.6937-18.9565-5.6937-18.9565Z"></path><path class="cls-64" d="M1791.6566,527.34s-7.3524-6.4262-14.7-2.9566l.0731-4.0111s9.7873-3.1153,14.6577,5.3021Z"></path><polygon class="cls-66" points="1780.359 539.574 1783.918 547.206 1822.421 547.907 1824.744 539.923 1780.359 539.574"></polygon><path class="cls-50" d="M1824.6037,499.0041s11.0016-1.4207,17.4837.3182a60.5034,60.5034,0,0,0-8.5665-9.7882,88.7971,88.7971,0,0,0-20.4543-2.3143S1820.818,491.3521,1824.6037,499.0041Z"></path><path class="cls-71" d="M1811.4909,573.7834s6.3448,1.7087,17.4795.3182a34.3092,34.3092,0,0,0,9.1446-7.5685s-7.3667-.7585-15.9633-2.2411C1822.1517,564.292,1817.3992,570.6456,1811.4909,573.7834Z"></path><polygon class="cls-72" points="741.674 379.321 743.827 380.218 747.26 398.333 731.135 404.408 729.988 404.191 741.674 379.321"></polygon><polygon class="cls-73" points="729.988 404.191 724.611 387.228 741.674 379.321 745.208 397.711 729.988 404.191"></polygon><polygon class="cls-37" points="740.836 385.548 741.83 385.808 736.847 399.647 729.81 395.619 730.249 393.31 735.073 394.343 740.836 385.548"></polygon><polygon class="cls-74" points="728.859 391.092 727.694 393.529 734.745 397.021 740.586 383.92 737.791 383.991 733.504 392.631 728.859 391.092"></polygon><polygon class="cls-39" points="740.586 383.92 740.836 385.548 735.884 396.916 734.745 397.021 740.586 383.92"></polygon></g></g></svg> 