<?xml version="1.0" encoding="UTF-8"?> <svg xmlns="http://www.w3.org/2000/svg" xmlns:xlink="http://www.w3.org/1999/xlink" width="1920" height="1080" viewBox="0 0 1920 1080"><defs><style>.cls-1{isolation:isolate;}.cls-10,.cls-11,.cls-12,.cls-13,.cls-14,.cls-16,.cls-18,.cls-19,.cls-2,.cls-20,.cls-21,.cls-22,.cls-23,.cls-24,.cls-25,.cls-26,.cls-3,.cls-4,.cls-5,.cls-6,.cls-7,.cls-8,.cls-9{fill-rule:evenodd;}.cls-2{fill:url(#Áåçûìÿííûé_ãðàäèåíò_251);}.cls-3{fill:#9d68ff;}.cls-4{fill:url(#linear-gradient);}.cls-5{fill:#783b73;}.cls-6{fill:url(#Áåçûìÿííûé_ãðàäèåíò_251-2);}.cls-7{fill:url(#linear-gradient-2);}.cls-8{fill:url(#Áåçûìÿííûé_ãðàäèåíò_5);}.cls-9{fill:url(#Áåçûìÿííûé_ãðàäèåíò_5-2);}.cls-10{fill:url(#Áåçûìÿííûé_ãðàäèåíò_31);}.cls-11{fill:#fbf9fa;mix-blend-mode:soft-light;}.cls-11,.cls-20{opacity:0.5;}.cls-12{fill:url(#Áåçûìÿííûé_ãðàäèåíò_5-3);}.cls-13{fill:url(#Áåçûìÿííûé_ãðàäèåíò_5-4);}.cls-14{fill:url(#Áåçûìÿííûé_ãðàäèåíò_31-2);}.cls-15{fill:url(#Áåçûìÿííûé_ãðàäèåíò_88);}.cls-16{fill:url(#Áåçûìÿííûé_ãðàäèåíò_88-2);}.cls-17{fill:url(#Áåçûìÿííûé_ãðàäèåíò_111);}.cls-18{fill:#83214f;}.cls-19{fill:#54214f;}.cls-20,.cls-24{mix-blend-mode:multiply;}.cls-20{fill:url(#Áåçûìÿííûé_ãðàäèåíò_42);}.cls-21{fill:#fff;}.cls-22{fill:url(#Áåçûìÿííûé_ãðàäèåíò_131);}.cls-23{fill:url(#radial-gradient);}.cls-24{fill:#5c1748;opacity:0.3;}.cls-25{fill:url(#Áåçûìÿííûé_ãðàäèåíò_251-3);}.cls-26{fill:#b8a9d4;}</style><linearGradient id="Áåçûìÿííûé_ãðàäèåíò_251" x1="1082.1174" y1="693.1787" x2="1119.2563" y2="693.1787" gradientTransform="translate(-69.8516 122.1021) rotate(-6.1293)" gradientUnits="userSpaceOnUse"><stop offset="0" stop-color="#fff"></stop><stop offset="1" stop-color="#dcdcff"></stop></linearGradient><linearGradient id="linear-gradient" x1="1082.1174" y1="693.1787" x2="1119.2563" y2="693.1787" gradientTransform="translate(-69.8516 122.1021) rotate(-6.1293)" gradientUnits="userSpaceOnUse"><stop offset="0.0405" stop-color="#cfa5ff"></stop><stop offset="0.4563" stop-color="#d1a7ff"></stop><stop offset="0.6976" stop-color="#d6b0ff"></stop><stop offset="0.8936" stop-color="#debeff"></stop><stop offset="1" stop-color="#e5c9ff"></stop></linearGradient><linearGradient id="Áåçûìÿííûé_ãðàäèåíò_251-2" x1="3099.1871" y1="1531.535" x2="3123.4588" y2="1531.535" gradientTransform="translate(662.4547 -2781.8943) rotate(61.4897)" xlink:href="#Áåçûìÿííûé_ãðàäèåíò_251"></linearGradient><linearGradient id="linear-gradient-2" x1="3099.1871" y1="1531.535" x2="3123.4588" y2="1531.535" gradientTransform="translate(662.4547 -2781.8943) rotate(61.4897)" xlink:href="#linear-gradient"></linearGradient><linearGradient id="Áåçûìÿííûé_ãðàäèåíò_5" x1="799.7276" y1="1093.0844" x2="808.4107" y2="1067.6207" gradientTransform="matrix(0.8993, 0.1229, -0.1354, 0.9908, 540.8452, -792.9755)" gradientUnits="userSpaceOnUse"><stop offset="0.002" stop-color="#90062c"></stop><stop offset="1" stop-color="#c72a16"></stop></linearGradient><linearGradient id="Áåçûìÿííûé_ãðàäèåíò_5-2" x1="796.5404" y1="1093.8016" x2="805.7832" y2="1066.6965" xlink:href="#Áåçûìÿííûé_ãðàäèåíò_5"></linearGradient><radialGradient id="Áåçûìÿííûé_ãðàäèåíò_31" cx="789.5837" cy="1074.3311" r="20.5248" gradientTransform="matrix(0.8993, 0.1229, -0.1354, 0.9908, 540.8452, -792.9755)" gradientUnits="userSpaceOnUse"><stop offset="0" stop-color="#ff6e27"></stop><stop offset="0.998" stop-color="#e03347"></stop></radialGradient><linearGradient id="Áåçûìÿííûé_ãðàäèåíò_5-3" x1="201.8746" y1="-2193.3542" x2="209.5859" y2="-2215.968" gradientTransform="matrix(0.804, -0.4213, 0.4642, 0.8858, 1552.8394, 2497.9226)" xlink:href="#Áåçûìÿííûé_ãðàäèåíò_5"></linearGradient><linearGradient id="Áåçûìÿííûé_ãðàäèåíò_5-4" x1="199.0441" y1="-2192.7173" x2="207.2525" y2="-2216.7887" gradientTransform="matrix(0.804, -0.4213, 0.4642, 0.8858, 1552.8394, 2497.9226)" xlink:href="#Áåçûìÿííûé_ãðàäèåíò_5"></linearGradient><radialGradient id="Áåçûìÿííûé_ãðàäèåíò_31-2" cx="192.866" cy="-2210.0087" r="18.2276" gradientTransform="matrix(0.804, -0.4213, 0.4642, 0.8858, 1552.8394, 2497.9226)" xlink:href="#Áåçûìÿííûé_ãðàäèåíò_31"></radialGradient><linearGradient id="Áåçûìÿííûé_ãðàäèåíò_88" x1="11451.2459" y1="-1773.8558" x2="11468.1371" y2="-1801.7527" gradientTransform="matrix(-1, 0, 0, 1, 12257.7842, 2188.0948)" gradientUnits="userSpaceOnUse"><stop offset="0.0074" stop-color="#ff4747"></stop><stop offset="1" stop-color="#ff9127"></stop></linearGradient><linearGradient id="Áåçûìÿííûé_ãðàäèåíò_88-2" x1="11447.4085" y1="-1773.5452" x2="11465.2255" y2="-1802.9713" gradientTransform="matrix(-0.9134, 0.407, 0.407, 0.9134, 11993.272, -2630.5597)" xlink:href="#Áåçûìÿííûé_ãðàäèåíò_88"></linearGradient><linearGradient id="Áåçûìÿííûé_ãðàäèåíò_111" x1="11453.0073" y1="-1770.155" x2="11453.0073" y2="-1805.4533" gradientTransform="matrix(-1, 0, 0, 1, 12257.2063, 2185.3694)" gradientUnits="userSpaceOnUse"><stop offset="0" stop-color="#ffa700"></stop><stop offset="1" stop-color="#ffd328"></stop></linearGradient><linearGradient id="Áåçûìÿííûé_ãðàäèåíò_42" x1="11460.1879" y1="-1769.407" x2="11464.2147" y2="-1776.0576" gradientTransform="matrix(-0.9134, 0.407, 0.407, 0.9134, 11993.272, -2630.5597)" gradientUnits="userSpaceOnUse"><stop offset="0" stop-color="#daccd2"></stop><stop offset="0.998" stop-color="#b0339f"></stop></linearGradient><linearGradient id="Áåçûìÿííûé_ãðàäèåíò_131" x1="554.1038" y1="-622.3936" x2="551.6023" y2="-641.2726" gradientTransform="translate(677.587 1182.9355) rotate(-24.8626)" gradientUnits="userSpaceOnUse"><stop offset="0.0056" stop-color="#530e68"></stop><stop offset="1" stop-color="#60309d"></stop></linearGradient><radialGradient id="radial-gradient" cx="551.7865" cy="-638.3041" r="13.5203" gradientTransform="translate(677.587 1182.9355) rotate(-24.8626)" gradientUnits="userSpaceOnUse"><stop offset="0" stop-color="#ff6b21"></stop><stop offset="0.9944" stop-color="#f52800"></stop></radialGradient><linearGradient id="Áåçûìÿííûé_ãðàäèåíò_251-3" x1="550.3487" y1="-629.2973" x2="552.2165" y2="-640.8683" gradientTransform="translate(677.587 1182.9355) rotate(-24.8626)" xlink:href="#Áåçûìÿííûé_ãðàäèåíò_251"></linearGradient></defs><title>Artboard 1 copy 2</title><g class="cls-1"><g id="Layer_5" data-name="Layer 5"><polygon class="cls-2" points="1087.522 713.674 1079.745 692.541 1108.392 674.043 1117.733 698.455 1087.522 713.674"></polygon><polygon class="cls-3" points="1108.392 674.043 1111.407 674.892 1119.845 697.957 1117.733 698.455 1108.392 674.043"></polygon><path class="cls-4" d="M1108.3917,674.0431l-.91,5.4143s-8.6395,15.9063-11.2343,17.3052c-1.9106,1.03-13.9574-.5953-13.9574-.5953l-2.5447-3.6263,2.3437,3.985s5.689,1.3041,10.2058,1.8737l-4.7725,15.2746.5428-.2734,5.0366-14.9068c2.0267.22,3.71.2553,4.3523-.1036.6866-.3838,2.0655-2.5218,3.61-5.2225l16.6687,5.2866-.2555-.6678-15.9944-5.3573c3.0984-5.5108,6.6618-12.8109,6.6618-12.8109Z"></path><polygon class="cls-5" points="1119.845 697.957 1117.477 697.787 1087.522 713.674 1089.563 713.304 1119.845 697.957"></polygon><polygon class="cls-6" points="786.974 681.429 797.81 671.471 816.117 684.179 803.689 695.898 786.974 681.429"></polygon><polygon class="cls-3" points="816.117 684.179 816.355 686.212 804.516 697.051 803.689 695.898 816.117 684.179"></polygon><path class="cls-7" d="M816.1171,684.1788l-3.4984.7973s-11.7622-1.2627-13.2533-2.4827c-1.0979-.8983-3.1135-8.5828-3.1135-8.5828l1.5582-2.44-1.8249,2.4079s.6275,3.7625,1.4073,6.6338l-10.4182.9169.3.26,10.2616-.6658a6.4539,6.4539,0,0,0,1.1457,2.6043,13.294,13.294,0,0,0,4.0543.882l.9532,11.3886.34-.3206-.7427-10.9987c4.1012.5011,9.3995.8379,9.3995.8379Z"></path><polygon class="cls-5" points="804.516 697.051 804.029 695.578 786.974 681.429 787.706 682.57 804.516 697.051"></polygon><path class="cls-8" d="M1128.4334,367.106c-5.3987-1.5843-9.261,5.0805-9.261,5.0805s-1.71-7.5532-7.3227-7.7245c-6.532-.1992-8.1928,9.59-4.7195,15.7767s7.6243,7.83,9.2423,10.4421c2.3139-1.9852,6.7551-2.2584,11.8938-7.0724S1134.7165,368.95,1128.4334,367.106Z"></path><path class="cls-9" d="M1105.1859,364.0742a13.263,13.263,0,0,1,8.757.84l5.504,5.1483,2.9682-3.8312a9.5733,9.5733,0,0,1,8.7862,2.6823l-2.1273,9.74-12.7015,12.0268-4.7572-.65-3.6089-13.3108Z"></path><path class="cls-10" d="M1123.6763,366.4559c-5.3988-1.5842-9.2611,5.0805-9.2611,5.0805s-1.71-7.5532-7.3226-7.7244c-6.5321-.1994-8.1928,9.59-4.72,15.7765s7.6244,7.83,9.2423,10.4423c2.3139-1.9852,6.7552-2.2585,11.8939-7.0725S1129.9593,368.3,1123.6763,366.4559Z"></path><path class="cls-11" d="M1126.6175,368.5s4.3126.73,5.2822,1.5251a8.4494,8.4494,0,0,1,.6387,5.2009l-4.6086-1.63S1128.1118,369.9016,1126.6175,368.5Z"></path><path class="cls-12" d="M697.9748,446.2913c-4.7221,1.6335-4.0848,8.4447-4.0848,8.4447s-5.1266-4.5846-9.2759-1.8184c-4.8289,3.2193-.99,11.1574,4.709,13.8455s9.5485,1.7395,12.0643,2.7964c.652-2.6279,3.7248-5.1125,4.964-11.2418S703.47,444.39,697.9748,446.2913Z"></path><path class="cls-13" d="M679.5927,456.0684a11.7786,11.7786,0,0,1,6.769-3.9012l6.6334.8909.1749-4.3a8.5016,8.5016,0,0,1,7.7385-2.5834l3.4761,8.1428L701.3874,469.56l-3.7769,1.9793-9.4653-7.7729Z"></path><path class="cls-14" d="M694.1979,448.27c-4.722,1.6337-4.0848,8.4449-4.0848,8.4449s-5.1265-4.5847-9.2758-1.8185c-4.829,3.2194-.99,11.1574,4.7089,13.8455s9.5487,1.74,12.0643,2.7965c.6521-2.628,3.7248-5.1126,4.9641-11.2419S699.6936,446.3692,694.1979,448.27Z"></path><path class="cls-11" d="M697.3786,448.2348s3.4965-1.6922,4.6073-1.6165a7.5035,7.5035,0,0,1,3.14,3.4342l-4.174,1.1936S699.1816,448.48,697.3786,448.2348Z"></path><ellipse class="cls-15" cx="798.3534" cy="400.5543" rx="11.8734" ry="17.6487" transform="translate(-93.9104 359.5998) rotate(-24.0161)"></ellipse><path class="cls-16" d="M811.6417,413.9549a32.7982,32.7982,0,0,1-7.558,3.2038c-3.2708.7067-13.9857-17.8808-13.9857-17.8808l-.45-13.9558s5.7436-4.5207,10.222-4.2787C803.835,381.2577,811.6417,413.9549,811.6417,413.9549Z"></path><ellipse class="cls-17" cx="804.4588" cy="397.834" rx="11.8734" ry="17.6487" transform="translate(-92.2747 361.8488) rotate(-24.0161)"></ellipse><path class="cls-18" d="M797.7046,404.6935a22.2035,22.2035,0,0,0,2.9727,3.4284c2.5023,2.3574,6.3132,4.7618,10.32,2.963a7.4533,7.4533,0,0,0,4.3885-6.1673l.0032-.0083a18.1224,18.1224,0,0,0-.8246-7.5224Z"></path><path class="cls-19" d="M802.4369,397.5686s-4.4866-.6342-7.3469,2.1482l-.6243-1.401s4.0572-3.186,7.712-1.329Z"></path><path class="cls-19" d="M807.4734,395.3244s1.6291-3.3591,4.7334-3.2343l-.6242-1.401s-3.91.364-4.3684,4.0536Z"></path><path class="cls-11" d="M791.6476,390.2665s-4.0845,1.1416-6.1067,2.721a23.1257,23.1257,0,0,1,1.5548-4.7237,33.9459,33.9459,0,0,1,6.8546-3.8669A11.5547,11.5547,0,0,0,791.6476,390.2665Z"></path><path class="cls-20" d="M807.4221,414.6321a19.0787,19.0787,0,0,1-6.1054,2.72,13.1158,13.1158,0,0,1-4.3482-1.2995s2.48-1.3663,5.2847-3.1709A14.6134,14.6134,0,0,0,807.4221,414.6321Z"></path><path class="cls-21" d="M813.2639,397.9621s3.6192,10.2974-2.2671,13.1228c-7.0294,3.3742-13.2922-6.3914-13.2922-6.3914Z"></path><polygon class="cls-22" points="917.674 363.321 919.827 364.218 923.26 382.333 907.135 388.408 905.988 388.191 917.674 363.321"></polygon><polygon class="cls-23" points="905.988 388.191 900.611 371.228 917.674 363.321 921.208 381.711 905.988 388.191"></polygon><polygon class="cls-24" points="916.836 369.548 917.83 369.808 912.847 383.647 905.81 379.619 906.249 377.31 911.073 378.343 916.836 369.548"></polygon><polygon class="cls-25" points="904.859 375.092 903.694 377.529 910.745 381.021 916.586 367.92 913.791 367.991 909.504 376.631 904.859 375.092"></polygon><polygon class="cls-26" points="916.586 367.92 916.836 369.548 911.884 380.916 910.745 381.021 916.586 367.92"></polygon></g></g></svg> 