<?xml version="1.0" encoding="UTF-8"?> <svg xmlns="http://www.w3.org/2000/svg" id="Layer_1" data-name="Layer 1" width="20" height="20" viewBox="0 0 20 20"><defs><style>.cls-1{fill:#6b11c9;fill-rule:evenodd;}</style></defs><title>Artboard 1 copy 92</title><path class="cls-1" d="M10.62,4.3544a5.6153,5.6153,0,0,0-3.4911.7527A5.7872,5.7872,0,0,0,4.7465,7.8554a5.6766,5.6766,0,1,0,10.5476,4.1993A5.0624,5.0624,0,0,0,15.6655,9.95a4.2408,4.2408,0,0,0-.1336-1.238,5.5407,5.5407,0,0,0-1.144-2.3175A5.7471,5.7471,0,0,0,10.62,4.3544ZM7.267,11.3663a1.1378,1.1378,0,0,1-.7329.1437,1.1341,1.1341,0,0,1-1.0448-.4061,1.3288,1.3288,0,0,1-.3912-.7874,1.5836,1.5836,0,0,1,.9062-1.7728,2.1149,2.1149,0,0,1,.98-.03,1.5509,1.5509,0,0,1,1.02,1.6589A1.43,1.43,0,0,1,7.267,11.3663Zm3.9121.109-.2625-.0148-.0148-.99-.0149-.99-.3615.99-.3615.99-.2476.0148-.2476.0149-.3664-1.0053L8.9359,9.48,8.921,10.4849l-.01,1H8.4159V8.514h.3169a.6768.6768,0,0,1,.3615.0594c.0248.0347.213.52.411,1.08s.3764,1.03.3962,1.05a7.617,7.617,0,0,0,.4258-1.0647l.3962-1.0993h.6883l.0149,1.4757.01,1.4757Zm3.3723-1.9709h-.2922c-.2228,0-.2971-.02-.2971-.0693,0-.1535-.2476-.3664-.49-.4259-.6289-.1485-1.0895.2625-1.0945.98,0,.6487.3417,1.05.9112,1.05a.8285.8285,0,0,0,.6438-.3664c.1287-.2675.1139-.2773-.3417-.2773H13.17V9.9006h1.3916l-.0149.7774-.0148.7825h-.2477c-.2327,0-.2475-.01-.2624-.1338l-.0148-.1386-.109.104a1.291,1.291,0,0,1-1.6836-.1535,1.67,1.67,0,0,1,.49-2.5751,1.3363,1.3363,0,0,1,.614-.0841,1.1024,1.1024,0,0,1,1.1638.8022Z"></path><path class="cls-1" d="M5.9944,9.1578a1.2083,1.2083,0,0,0-.2377,1.3865.8949.8949,0,0,0,1.6688-.2475,1.1354,1.1354,0,0,0-.3368-1.1341A1.0378,1.0378,0,0,0,5.9944,9.1578Z"></path><path class="cls-1" d="M12.4171.3157a9.9979,9.9979,0,0,0-4.836,19.4022L7.58,19.7171A9.9976,9.9976,0,1,0,12.4171.3157Zm3.6,11.0853a6.211,6.211,0,0,1-4.8282,4.6747,7.653,7.653,0,0,1-2.377,0,6.6292,6.6292,0,0,1-2.2977-.9607A7.82,7.82,0,0,1,4.9,13.4957,6.188,6.188,0,0,1,9.233,3.8641a7.8522,7.8522,0,0,1,1.9461.0694,6.3541,6.3541,0,0,1,3.293,1.8025A6.1865,6.1865,0,0,1,16.0172,11.401Z"></path></svg> 