<?xml version="1.0" encoding="UTF-8"?> <svg xmlns="http://www.w3.org/2000/svg" id="Layer_1" data-name="Layer 1" width="20" height="20" viewBox="0 0 20 20"><defs><style>.cls-1{fill:#6b11c9;fill-rule:evenodd;}</style></defs><title>Artboard 1 copy 157</title><path class="cls-1" d="M12.4171.3157a9.9979,9.9979,0,0,0-4.836,19.4022L7.58,19.7171A9.9976,9.9976,0,1,0,12.4171.3157ZM14.768,13.6418A5.4668,5.4668,0,0,1,12.73,15.3165a5.9627,5.9627,0,0,1-5.9631-.28c.4938-.2665.9784-.5283,1.4633-.7893.0846-.0454.1619-.005.242.0221a4.6364,4.6364,0,0,0,2.4585.1626c.1109-.0226.522-.15.6278-.1871a4.5074,4.5074,0,0,0,2.9684-4.3945.56.56,0,0,1,.1979-.4933c.353-.3132.69-.6441,1.0438-.9772a3.0675,3.0675,0,0,1,.2086.9694A5.8406,5.8406,0,0,1,14.768,13.6418Zm1.7493-7.0347a6.8275,6.8275,0,0,1-1.1446,1.53,25.4011,25.4011,0,0,1-2.25,2.1479c-.4618.3934-.9431.7638-1.4157,1.1445A26.9793,26.9793,0,0,1,6.0442,14.9a3.7805,3.7805,0,0,1-1.1183.3222c-.5593.0583-.8122-.26-.6369-.7966a3.27,3.27,0,0,1,.514-.9371.3167.3167,0,0,0,.0026-.4168,5.4217,5.4217,0,0,1-.83-3.0209A5.602,5.602,0,0,1,6.149,5.4135a5.886,5.886,0,0,1,6.1814-.906,5.3391,5.3391,0,0,1,2.034,1.41.4169.4169,0,0,0,.5634.1209,3.47,3.47,0,0,1,.9729-.2659.635.635,0,0,1,.6379.18A.5724.5724,0,0,1,16.5173,6.6071Z"></path><path class="cls-1" d="M15.945,6.18a6.889,6.889,0,0,0-.6723.1623c-.41.1258-.4039.1292-.1853.4917.0581.0964.2018.19.0813.33A12.6614,12.6614,0,0,1,14.1681,8.228a4.6738,4.6738,0,0,0-.86-1.2878A4.5522,4.5522,0,0,0,8.7376,5.6619l-.1511.0409a.072.072,0,0,1-.0566.0224c-.0284.0123-.0567.0258-.0859.0371A4.6335,4.6335,0,0,0,5.4983,9.12a3.68,3.68,0,0,0,.0655,1.9986A4.676,4.676,0,0,0,6.7649,13.2c.1.1.2071.1929.3214.2989-.0723.0472-.1054.0734-.1424.0921-.244.1238-.4866.2506-.7338.3678-.5083.2413-.5127.2422-.8979-.172-.0913-.0981-.1455-.1367-.2318-.0007a3.87,3.87,0,0,0-.3917.7194c-.0386.1044-.1025.2347.0043.324a.3507.3507,0,0,0,.3321.0134,14.284,14.284,0,0,0,2.6908-1.2193,37.2255,37.2255,0,0,0,3.9113-2.6043c.0552-.0483.109-.0986.1661-.1447a27.5586,27.5586,0,0,0,3.686-3.4723,4.0777,4.0777,0,0,0,.6622-.9542C16.2282,6.2549,16.1873,6.1313,15.945,6.18Z"></path></svg> 