<?xml version="1.0" encoding="UTF-8"?> <svg xmlns="http://www.w3.org/2000/svg" id="Layer_1" data-name="Layer 1" width="20" height="20" viewBox="0 0 20 20"><defs><style>.cls-1{fill:#6b11c9;fill-rule:evenodd;}</style></defs><title>Artboard 1 copy 100</title><path class="cls-1" d="M11.0533,5.6325A10.3214,10.3214,0,0,0,7.835,4.9733c-.1709.1687-.3493.3592-.54.5759C5.2509,7.8615,4.5538,10.8016,5.46,12.7348a5.65,5.65,0,0,1,.5435-4.4309A5.7243,5.7243,0,0,1,11.0533,5.6325Z"></path><path class="cls-1" d="M7.8788,7.1876A3.3975,3.3975,0,1,0,11.574,12.89c1.5816-1.0117,1.7963-2.9829,1.0154-4.689A3.0787,3.0787,0,0,0,7.8788,7.1876Z"></path><path class="cls-1" d="M12.988,6.376a4.3411,4.3411,0,0,0-.5067-.2366,4.1539,4.1539,0,0,1,1.6518,3.53A4.959,4.959,0,0,1,13.44,12.148c.1571-.1636.3089-.3325.4533-.508A10.4348,10.4348,0,0,0,15.62,8.84,7.604,7.604,0,0,0,12.988,6.376Z"></path><path class="cls-1" d="M12.4171.3157a9.9979,9.9979,0,0,0-4.836,19.4022L7.58,19.7171A9.9976,9.9976,0,1,0,12.4171.3157ZM14.674,12.5742c-3.4951,1.5058-3.7025,4.4725-7.0064,2.8747A4.17,4.17,0,0,1,6.56,14.6564c-2.2361-.3834-3.7148-1.5694-2.3612-4.622,1.1727-2.6263.18-5.2128,3.57-5.2086a2.4918,2.4918,0,0,1,3.3347-.1775,8.4635,8.4635,0,0,0,3.625,1.0965c1.2218.2237,1.54,1.4,1.0807,2.9325C16.6412,10.167,16.582,11.7517,14.674,12.5742Z"></path></svg> 