<?xml version="1.0" encoding="UTF-8"?> <svg xmlns="http://www.w3.org/2000/svg" id="Layer_1" data-name="Layer 1" width="20" height="20" viewBox="0 0 20 20"><defs><style>.cls-1{fill:#6b11c9;fill-rule:evenodd;}</style></defs><title>Artboard 1 copy 98</title><path class="cls-1" d="M7.9816,7.2659a3.2653,3.2653,0,1,0,3.5514,5.4806A3.4433,3.4433,0,0,0,12.5088,8.24,2.9588,2.9588,0,0,0,7.9816,7.2659Z"></path><path class="cls-1" d="M12.4171.3157a9.9979,9.9979,0,0,0-4.836,19.4022L7.58,19.7171A9.9976,9.9976,0,1,0,12.4171.3157ZM14.66,12.6788c-3.359,1.4473-3.5584,4.2985-6.7337,2.7629a4.0078,4.0078,0,0,1-1.2345-.9527l-.2047-.0978c-2.1262-.3758-3.5227-1.5181-2.23-4.4336C5.4,7.3971,4.4031,4.877,7.8335,4.9547c.0865-.0552.1758-.11.242-.1465a2.3872,2.3872,0,0,1,3.1785-.156A8.1347,8.1347,0,0,0,14.7378,5.706c1.25.2288,1.5166,1.4941.9446,3.106l-.0007.0017C16.5525,10.28,16.5448,11.8663,14.66,12.6788Z"></path></svg> 