<?xml version="1.0" encoding="UTF-8"?> <svg xmlns="http://www.w3.org/2000/svg" id="Layer_1" data-name="Layer 1" width="20" height="20" viewBox="0 0 20 20"><defs><style>.cls-1{fill:#6b11c9;fill-rule:evenodd;}</style></defs><title>Artboard 1 copy 102</title><path class="cls-1" d="M12.4171.3157a9.9979,9.9979,0,0,0-4.836,19.4022L7.58,19.7171A9.9976,9.9976,0,1,0,12.4171.3157Zm3.6754,12.7862a.7753.7753,0,0,1-.3818.6681l-2.577,1.4953a.81.81,0,0,1-.7635,0L9.7932,13.77a.7848.7848,0,0,1-.3818-.6681v-1.05l1.209-.7V12.37a.7757.7757,0,0,0,.3817.6681l1.3681.7953a.81.81,0,0,0,.7635,0l1.3363-.7953a.7847.7847,0,0,0,.3817-.6681V10.7794a.7757.7757,0,0,0-.3817-.6681L13.1019,9.316a.81.81,0,0,0-.7635,0l-1.75,1.0181-1.209.7L7.63,12.052a.81.81,0,0,1-.7635,0L4.2892,10.5567a.7846.7846,0,0,1-.3817-.6681v-2.99a.7.7,0,0,1,.3817-.6363L6.8981,4.7347a.81.81,0,0,1,.7635,0L10.2068,6.23a.785.785,0,0,1,.3818.6682V7.98l-1.209.7V7.63a.7756.7756,0,0,0-.3817-.6681L7.63,6.1345a.8108.8108,0,0,0-.7635,0L5.4982,6.93a.7846.7846,0,0,0-.3817.6681V9.1887a.7754.7754,0,0,0,.3817.6681l1.3681.8272a.8108.8108,0,0,0,.7635,0l1.75-1.05,1.209-.6681,1.7816-1.05a.8108.8108,0,0,1,.7635,0l2.577,1.4953a.7848.7848,0,0,1,.3818.6681Z"></path></svg> 