<?xml version="1.0" encoding="UTF-8"?> <svg xmlns="http://www.w3.org/2000/svg" id="Layer_1" data-name="Layer 1" width="20" height="20" viewBox="0 0 20 20"><defs><style>.cls-1{fill:#6b11c9;fill-rule:evenodd;}</style></defs><title>Artboard 1 copy 104</title><path class="cls-1" d="M10.0591,12.4307a.46.46,0,0,1,.101.0111l1.1791-2.1051a.46.46,0,0,1-.1547-.2421H8.858a.4587.4587,0,0,1-.1247.2152l1.2226,2.1325A.4618.4618,0,0,1,10.0591,12.4307Z"></path><path class="cls-1" d="M7.1732,12.0567a.4555.4555,0,0,1,.0911-.0091.4635.4635,0,0,1,.0848.0079l.7888-1.7076a.4592.4592,0,0,1-.1691-.2533H6.4462a.4585.4585,0,0,1-.1391.2287Z"></path><path class="cls-1" d="M9.634,12.7167a.4591.4591,0,0,1,.1051-.156L8.5166,10.4282a.4643.4643,0,0,1-.1868.004l-.78,1.7153a.4583.4583,0,0,1,.17.303Z"></path><path class="cls-1" d="M12.36,12.4561a.4579.4579,0,0,1,.1635-.3031l-.8083-1.7213a.4621.4621,0,0,1-.185-.0026l-1.1609,2.1224a.46.46,0,0,1,.1149.1652Z"></path><path class="cls-1" d="M12.816,12.0476a.4622.4622,0,0,1,.09.0089l.8668-1.7334a.4583.4583,0,0,1-.1389-.2285h-1.56a.4575.4575,0,0,1-.1445.2334l.7875,1.7305A.4587.4587,0,0,1,12.816,12.0476Z"></path><path class="cls-1" d="M10.5149,7.0954l1.89.232a.4607.4607,0,0,1,.1205-.1511l-.7993-1.8a.46.46,0,0,1-.2428-.0132L10.4207,6.8665A.4588.4588,0,0,1,10.5149,7.0954Z"></path><path class="cls-1" d="M12.816,7.0727a.4576.4576,0,0,1,.3439.1552l.6965-.3035a.47.47,0,0,1-.0071-.0811.4573.4573,0,0,1,.0457-.2L11.9733,5.2313a.4561.4561,0,0,1-.0429.0428l.8255,1.8025A.46.46,0,0,1,12.816,7.0727Z"></path><path class="cls-1" d="M10.4819,7.3273a.4562.4562,0,0,1-.11.1569l1.1382,2.0536a.4619.4619,0,0,1,.2224-.0037l.788-1.6515a.4577.4577,0,0,1-.16-.2978Z"></path><path class="cls-1" d="M7.2643,7.99a.46.46,0,0,1-.11-.0132L6.3109,9.6422a.4579.4579,0,0,1,.1347.223H7.9694a.4594.4594,0,0,1,.1557-.241l-.76-1.6451A.464.464,0,0,1,7.2643,7.99Z"></path><path class="cls-1" d="M10.1327,6.6961a.461.461,0,0,1,.0939.0256l1.06-1.4885a.4565.4565,0,0,1-.1094-.2271H8.8655a.4559.4559,0,0,1-.1.216l1.12,1.5022A.4553.4553,0,0,1,10.1327,6.6961Z"></path><path class="cls-1" d="M14.5227,9.8652h.4125a.4594.4594,0,0,1,.2034-.2748l-.7464-2.296-.0025,0-.17,2.2494A.46.46,0,0,1,14.5227,9.8652Z"></path><path class="cls-1" d="M13.2747,7.5314a.4574.4574,0,0,1-.1471.3367l.8584,1.6636.0169-.0031.1587-2.25a.4584.4584,0,0,1-.1927-.126l-.7008.3009A.471.471,0,0,1,13.2747,7.5314Z"></path><path class="cls-1" d="M7.72,7.5839a.4581.4581,0,0,1-.1674.3044l.76,1.6452a.4609.4609,0,0,1,.2243.0056L9.7363,7.4747a.46.46,0,0,1-.1035-.1565Z"></path><path class="cls-1" d="M13.6347,9.8652a.4579.4579,0,0,1,.1347-.223L12.9255,7.977a.4586.4586,0,0,1-.1095.0132.4647.4647,0,0,1-.1008-.0111l-.7709,1.6687a.4593.4593,0,0,1,.1288.2174Z"></path><path class="cls-1" d="M9.9857,7.6017a.4672.4672,0,0,1-.0489-.0107l-1.19,2.0753a.4586.4586,0,0,1,.11.1989h2.3277a.4579.4579,0,0,1,.14-.2275L10.179,7.5919A.4568.4568,0,0,1,9.9857,7.6017Z"></path><path class="cls-1" d="M9.6041,12.9482l-1.927-.2415a.46.46,0,0,1-.12.1532l.793,1.7575a.4788.4788,0,0,1,.0637-.0044.4555.4555,0,0,1,.18.0367L9.69,13.1614A.4552.4552,0,0,1,9.6041,12.9482Z"></path><path class="cls-1" d="M10.0591,13.3482a.4588.4588,0,0,1-.1761-.0351l-1.1139,1.469a.4568.4568,0,0,1,.0883.1738h2.3277a.4576.4576,0,0,1,.0977-.1851l-1.0537-1.4552A.4573.4573,0,0,1,10.0591,13.3482Z"></path><path class="cls-1" d="M12.816,12.9651a.4626.4626,0,0,1-.0615-.0041l-.8214,1.7673.0192.018L14.11,13.1605l-.9466-.355A.4577.4577,0,0,1,12.816,12.9651Z"></path><path class="cls-1" d="M12.4035,12.7073l-1.8893.24a.4556.4556,0,0,1-.09.22l1.0575,1.47a.46.46,0,0,1,.2462-.0136l.7959-1.7638A.4615.4615,0,0,1,12.4035,12.7073Z"></path><path class="cls-1" d="M12.4171.3157a9.9979,9.9979,0,0,0-4.836,19.4022L7.58,19.7171A9.9976,9.9976,0,1,0,12.4171.3157Zm3.5366,14.8719a.6125.6125,0,0,1-.5194-.937l-1.0755-.97-2.2879,1.6679a.4588.4588,0,1,1-.8858.2394H8.8574a.4588.4588,0,1,1-.8706-.2849L6.0549,13.487a.4587.4587,0,1,1-.5384-.7319L4.7709,10.44a.4587.4587,0,0,1,0-.9173L5.504,7.24a.4588.4588,0,1,1,.5255-.748L7.9757,5.0659a.4589.4589,0,0,1,.87-.2914h2.3509a.4589.4589,0,0,1,.8818.2461l1.9706,1.4441a.4587.4587,0,0,1,.55.7336l.7471,2.3252.0335-.0012a.4588.4588,0,0,1,0,.9175l-.0335-.0013-.8477,2.6382,1.0877,1.0089a.6124.6124,0,1,1,.368,1.102Z"></path><path class="cls-1" d="M13.9866,10.4306l-.8552,1.7426a.4573.4573,0,0,1,.1433.3332.4687.4687,0,0,1-.0072.0818l.9873.376-.2509-2.53Z"></path><path class="cls-1" d="M14.9346,10.0946h-.4114a.46.46,0,0,1-.2863.3172l.2043,2.1052.6974-2.1453A.46.46,0,0,1,14.9346,10.0946Z"></path><path class="cls-1" d="M7.677,7.3308l1.9276-.2433.0018-.0121a.4562.4562,0,0,1,.0867-.203L8.5914,5.3511a.4567.4567,0,0,1-.178.0359.47.47,0,0,1-.0621-.0042L7.5547,7.1763A.4622.4622,0,0,1,7.677,7.3308Z"></path><path class="cls-1" d="M6.1113,9.5355l.8449-1.6642a.4592.4592,0,0,1-.1431-.4227l-.7213-.3177a.4586.4586,0,0,1-.2055.1454L6.0738,9.528Q6.0929,9.531,6.1113,9.5355Z"></path><path class="cls-1" d="M6.1891,6.9044l.74.3141a.4583.4583,0,0,1,.421-.1377l.7737-1.7969-.0229-.02L6.1658,6.687a.4589.4589,0,0,1,.0233.2174Z"></path><path class="cls-1" d="M5.2208,9.8652h.3369a.4593.4593,0,0,1,.2937-.3176L5.67,7.4727,4.9873,9.5734A.4592.4592,0,0,1,5.2208,9.8652Z"></path><path class="cls-1" d="M6.8056,12.5064a.4579.4579,0,0,1,.1534-.3424l-.8651-1.7334-.017.003-.1934,2.2913a.46.46,0,0,1,.1954.1309L6.81,12.57A.4655.4655,0,0,1,6.8056,12.5064Z"></path><path class="cls-1" d="M5.5571,10.0946H5.2214a.46.46,0,0,1-.2341.2941l.6851,2.1073.18-2.0811A.46.46,0,0,1,5.5571,10.0946Z"></path><path class="cls-1" d="M7.2643,12.9651a.4578.4578,0,0,1-.3478-.16l-.73.2738a.4636.4636,0,0,1,.0069.0795.4567.4567,0,0,1-.017.124l1.929,1.4186-.7843-1.74A.46.46,0,0,1,7.2643,12.9651Z"></path></svg> 