<?xml version="1.0" encoding="UTF-8"?> <svg xmlns="http://www.w3.org/2000/svg" id="Layer_1" data-name="Layer 1" width="20" height="20" viewBox="0 0 20 20"><defs><style>.cls-1{fill:#6b11c9;fill-rule:evenodd;}</style></defs><title>Artboard 1 copy 141</title><path class="cls-1" d="M12.4171.3157a9.9979,9.9979,0,0,0-4.836,19.4022L7.58,19.7171A9.9976,9.9976,0,1,0,12.4171.3157ZM8.5925,7.1213l2.3562-1.5869,1.0867.4726Zm3.46-1.028L12.4252,7.68,8.6546,7.1627Zm-.4486-.3589.19-.5658.19.7487Zm-.0723-.0482-.88-1.035,1.0867.4726Zm-.1967-1.1488.4347.476-1.2282-.476Zm-.8418.0448.9453,1.0833L9.7551,4.9237Zm-.8141.4,1.08.4761-1.5455.0379Zm-.49.6,1.4627-.0483-1.6766.6589Zm-.2174.68,1.863-.7279L8.5235,7.09ZM6.4605,16.2255,8.41,7.2558l1.1212,6.7653ZM9.5929,14,8.4821,7.29l2.9806,6.7341ZM8.5235,7.2283l3.94.552-.9177,6.21Zm3.1152,6.6237.89-5.9683.5415.6624Zm.4519-7.9-.2449-.8832,1.6939.5Z"></path></svg> 