<?xml version="1.0" encoding="UTF-8"?> <svg xmlns="http://www.w3.org/2000/svg" id="Layer_1" data-name="Layer 1" width="20" height="20" viewBox="0 0 20 20"><defs><style>.cls-1{fill:#6b11c9;fill-rule:evenodd;}</style></defs><title>Artboard 1 copy 153</title><path class="cls-1" d="M12.4171.3157a9.9979,9.9979,0,0,0-4.836,19.4022L7.58,19.7171A9.9976,9.9976,0,1,0,12.4171.3157ZM5.0535,7.2843,10,4.4231l.097.0485.2425.1455.1939.1455L7.5268,6.5084l-.097-.194-.8244.4365L6.46,6.6054l-1.4064.7759Zm0,.8729L10.7759,4.86l.097.0969.2425.097.2424.1455L8.3027,6.9448l-.097-.1939-1.6.9213L6.46,7.4783l-1.4064.8244Zm0,.9214,6.4983-3.7341.0971.0485.2424.097.2425.1454L9.0786,7.3813l-.097-.194L6.6054,8.5936,6.46,8.4l-1.4064.7758Zm0,.8729,7.2742-4.17.097.0484.2425.1455.2425.097L9.8545,7.8177l-.0969-.1455L6.6054,9.4666,6.46,9.2726l-1.4064.8244Zm0,.9214,8.05-4.6555.097.0485.2424.1455.2425.1454L10.63,8.2542l-.097-.1455-3.928,2.2307L6.46,10.194,5.0535,10.97Zm0,.8729L13.88,6.6539l.1455.097.1939.0969.2425.1455L11.4064,8.7391l-.097-.194-4.704,2.7158L6.46,11.0668l-1.4064.8245Zm9.893,1.2609-3.54,2.0368-.097-.1941-.8244.4365-.1455-.194-.776.485-.097-.0485,5.48-3.2007Zm0-.9214-3.54,2.0367-.097-.194-1.6.9214-.097-.1939-.8244.4849-.1455-.0969,6.3044-3.5887Zm0-.873-3.54,2.0369-.097-.194L8.9331,14.413l-.097-.194-.8244.4365-.1454-.0485,7.08-4.0735Zm0-.9213-3.54,2.0367-.097-.194L8.1572,13.9766l-.097-.194-.8244.4364L7.09,14.1705l7.8562-4.51Zm0-.9214-3.54,2.0852-.097-.1939L7.3813,13.4916l-.1455-.194-.7759.485-.1455-.0485,8.6321-4.995Zm0-.873-3.54,2.0369-.097-.1941L6.5569,13.0552l-.097-.194-.776.4849-.1454-.0969,9.408-5.383Zm0-.8729-3.54,1.9883-.097-.194-4.704,2.7643-.1455-.194-1.4064.7759v-.097L14.6555,7.09l.097.097.194.097Z"></path></svg> 