<?xml version="1.0" encoding="UTF-8"?> <svg xmlns="http://www.w3.org/2000/svg" id="Layer_1" data-name="Layer 1" width="20" height="20" viewBox="0 0 20 20"><defs><style>.cls-1{fill:#6b11c9;fill-rule:evenodd;}</style></defs><title>Artboard 1 copy 106</title><path class="cls-1" d="M12.4171.3157a9.9979,9.9979,0,0,0-4.836,19.4022L7.58,19.7171A9.9976,9.9976,0,1,0,12.4171.3157ZM5.581,4.8242,8.4375,7.6521a2.2244,2.2244,0,0,0,3.1228,0l2.8586-2.8279h1.8067l-3.76,3.7227a3.5136,3.5136,0,0,1-4.9316,0L3.7729,4.8242Zm8.8623,10.3515L11.5625,12.325a2.2242,2.2242,0,0,0-3.1228,0L5.5578,15.1757H3.75L7.5342,11.43a3.5136,3.5136,0,0,1,4.9316,0L16.25,15.1757Z"></path></svg> 