<?xml version="1.0" encoding="UTF-8"?> <svg xmlns="http://www.w3.org/2000/svg" id="Layer_1" data-name="Layer 1" width="20" height="20" viewBox="0 0 20 20"><defs><style>.cls-1{fill:#6b11c9;fill-rule:evenodd;}</style></defs><title>Artboard 1 copy 107</title><path class="cls-1" d="M10.5829,10.7587l-.0388.0415a1.7179,1.7179,0,0,0,.3827.5525c.0382.0377.0692.0685.0446.1322a1.9608,1.9608,0,0,1-.9738,1.1189.6586.6586,0,0,1-.5709.019c-.237-.0979-.453-.2327-.679-.35a.3889.3889,0,0,1-.2354-.4308c.0072-.0681.01-.1027.0929-.1254a1.0464,1.0464,0,0,0,.645-.4323.5238.5238,0,0,0-.176-.7928,1.3961,1.3961,0,0,0-1.1181-.0582A.5327.5327,0,0,0,7.68,11.22a.8912.8912,0,0,0,.4384.4125.3293.3293,0,0,1,.2435.3711c-.0056.0954-.0152.1576-.0969.2084-.1324.0824-.2593.1739-.3915.2567-.1959.1227-.245.1167-.4289-.0262a.6021.6021,0,0,1-.167-.1737,1.6175,1.6175,0,0,1-.2-1.33A1.6673,1.6673,0,0,1,8.4942,9.98a1.3055,1.3055,0,0,1,.3547.0186c.1084.0285.22.044.33.0652a1.3234,1.3234,0,0,0-.975-.2,1.5223,1.5223,0,0,0-1.31,1.8669,1.2948,1.2948,0,0,0,.4123.804,1.2275,1.2275,0,0,1,.2.2466.8424.8424,0,0,1,.1159.7118,1.0407,1.0407,0,0,0,.4216,1.0685,1.1991,1.1991,0,0,0,1.2639.1174.5745.5745,0,0,0,.33-.6557c-.021-.1357-.02-.2747-.0347-.4117-.0091-.0851.0274-.12.1042-.1536a2.3831,2.3831,0,0,0,1.4073-1.677c.0078-.03.0005-.0688.0491-.0815a.7836.7836,0,0,1-.0376.3716.4782.4782,0,0,0,.0764-.6644C11.0052,11.1822,10.79,10.9739,10.5829,10.7587ZM9.4755,14.1064a.4174.4174,0,0,1-.2754.4369,1,1,0,0,1-1.4048-.7028A1.9288,1.9288,0,0,1,8.02,12.7481a.9683.9683,0,0,1,.3638-.4206c.0954-.0611.1416.0028.2.0384.0813.05-.0055.0885-.023.1212a1.88,1.88,0,0,0-.1287,1.52c0-.1633-.0055-.327.0011-.49a2.0192,2.0192,0,0,1,.2849-.9413c.0428-.0737.0784-.0864.153-.04a2.5284,2.5284,0,0,0,.5748.27c.0633.02.07.0468.0592.1A3.0849,3.0849,0,0,0,9.4755,14.1064Z"></path><path class="cls-1" d="M7.1744,9.7274a.4739.4739,0,0,0,.3312-.0306.334.334,0,0,0,.2318-.415.4077.4077,0,0,0-.4546-.1828c-.0436.0123-.0548.0268-.0257.0668a.13.13,0,0,1-.0386.2074c-.0944.0556-.1727.0143-.2293-.0874A.2773.2773,0,0,0,7.1744,9.7274Z"></path><path class="cls-1" d="M10.5387,9.7819c.3151-.0437.4189-.2956.2159-.5637-.0416.1535-.1175.212-.2265.1818-.104-.0288-.1788-.1477-.119-.2325.119-.1686-.0171-.1237-.0948-.13a.4707.4707,0,0,0-.1278.0038.3624.3624,0,0,0-.3091.2351.3125.3125,0,0,0,.1127.3415A.6261.6261,0,0,0,10.5387,9.7819Z"></path><path class="cls-1" d="M12.4171.3157a9.9979,9.9979,0,0,0-4.836,19.4022L7.58,19.7171A9.9976,9.9976,0,1,0,12.4171.3157ZM4.509,11.5145l.0282-.019.0056.0358Zm10.9231.8553-.0112-.0013-.0324-.0548-.0216-.0365-.0474-.08L15.2,11.9957l-.1118-.1892-.0043.04-.0008.0133-.0013.0263,0,.0156c0,.0078,0,.0155,0,.0231l0,.0163.0007.022.0008.0164.0014.0209.0012.0167.0016.0179c.0028.0311.0061.062.0091.0924a.9661.9661,0,0,1,.0034.2189,2.4935,2.4935,0,0,1-.6,1.2931,3.8641,3.8641,0,0,1-.5776.5493c-.1307.1037-.26.2086-.3858.3174q-.06.0522-.119.1056l-.01.0088-.0484.0448-.026.0244-.0444.0425-.0339.0335q-.0307.03-.0609.0615l-.0381.04-.0329.0352-.04.0445-.0278.0312c-.0212.0241-.0421.0487-.0626.0734l-.0212.0261-.0451.0568-.0226.03q-.0249.0326-.0489.0662l-.0134.0183q-.03.0423-.0584.086l-.0161.0251q-.0218.0339-.0426.0685l-.0163.0271c-.0182.031-.0362.0624-.0534.0944-.1763-.2517-.0339-.4855.0071-.7521a4.2651,4.2651,0,0,1-2.7591,1.3736c.0565,0-1.2611.01-1.7412-.0329a3.5046,3.5046,0,0,1-2.0628-1.3919c-.036.173.05.3446-.0789.48-.0093-.0062-.0209-.01-.0244-.0169a6.315,6.315,0,0,0-.7748-1.1544,2.8188,2.8188,0,0,1-.539-2.3853,5.4381,5.4381,0,0,1,.2221-.6925,1.2635,1.2635,0,0,0-.292.2575l0,.0006a.0359.0359,0,0,1-.0249-.0239l0,0h0a.1286.1286,0,0,1,.0046-.0456A4.0622,4.0622,0,0,1,5.3729,9.408a.2569.2569,0,0,0,.0563-.18,2.0705,2.0705,0,0,0-.256-.9165c.2313-.088.3265.1252.5117.2183a2.6771,2.6771,0,0,1-.2834-1.1212c.037.0148.0631.0232.0874.0352.1488.0737.1475.0736.1993-.0906A18.4543,18.4543,0,0,1,6.429,5.3511a4.8848,4.8848,0,0,1,.724-1.2478.4936.4936,0,0,1,.7691-.06,3.8452,3.8452,0,0,1,.9566,1.39,1.1262,1.1262,0,0,0-.7073.2821l.0232.009c.0218-.0076.0431-.0165.0647-.0248a1.1952,1.1952,0,0,1,1.0161-.0074.1816.1816,0,0,0,.1466-.0091,2.1631,2.1631,0,0,1,1.2742-.0273,1.6706,1.6706,0,0,0,.3678.0986.6059.6059,0,0,0-.2427-.17c-.0673-.0308-.0865-.0576-.0537-.135a6.7418,6.7418,0,0,1,.5756-1.1221,1.5725,1.5725,0,0,1,.3642-.4155.2855.2855,0,0,1,.41.0064,2.8072,2.8072,0,0,1,.5684.6159A10.3725,10.3725,0,0,1,13.9413,7.172c.05.1434.0931.2889.1415.44l.2328-.1779a1.8176,1.8176,0,0,1-.11.5676c-.06.1825-.17.3426-.2416.537.2016-.0907.2826-.3779.569-.2977-.0339.0415-.0587.07-.0815.1a1.2011,1.2011,0,0,0-.1935.6725c-.0111.1515.1124.2231.1844.3222q.1168.16.2264.324.0873.131.1688.2647.0609.1.1178.2025a4.9254,4.9254,0,0,1,.269.56l.0283.0724q.0554.1455.1.2957.0111.0376.0215.0756.0206.0757.0382.1531.0353.1545.0573.3149c.0042.0308.008.0617.011.0926v.0009q.0046.0464.0073.0931v.0005A1.8789,1.8789,0,0,1,15.4321,12.37Z"></path></svg> 