<?xml version="1.0" encoding="UTF-8"?> <svg xmlns="http://www.w3.org/2000/svg" id="Layer_1" data-name="Layer 1" width="20" height="20" viewBox="0 0 20 20"><defs><style>.cls-1{fill:#6b11c9;fill-rule:evenodd;}</style></defs><title>Artboard 1 copy 111</title><path class="cls-1" d="M12.4171.3156a9.998,9.998,0,0,0-4.836,19.4023L7.58,19.7171A9.9977,9.9977,0,1,0,12.4171.3156Zm3.7055,12.462-1.9492,1.9491a.4042.4042,0,0,1-.286.1182H4.0205a.2021.2021,0,0,1-.143-.3451l1.9491-1.9491a.4042.4042,0,0,1,.286-.1182H15.98A.2021.2021,0,0,1,16.1226,12.7776Zm-.143-1.5948H6.1126a.4045.4045,0,0,1-.286-.1181L3.8775,9.1156a.2021.2021,0,0,1,.143-.3451h9.8669a.4045.4045,0,0,1,.286.1181l1.9492,1.9492A.202.202,0,0,1,15.98,11.1828ZM16.1226,5.5,14.1734,7.4493a.4046.4046,0,0,1-.286.1182H4.0205a.2021.2021,0,0,1-.143-.3451L5.8266,5.2732a.4157.4157,0,0,1,.286-.1181H15.98A.202.202,0,0,1,16.1226,5.5Z"></path></svg> 