<?xml version="1.0" encoding="UTF-8"?> <svg xmlns="http://www.w3.org/2000/svg" id="Layer_1" data-name="Layer 1" width="20" height="20" viewBox="0 0 20 20"><defs><style>.cls-1{fill:#6b11c9;fill-rule:evenodd;}</style></defs><title>Artboard 1 copy 112</title><path class="cls-1" d="M16.2581,7.817c-.187.0027-.3739.0077-.5607.008q-1.2382.0021-2.4764.0021c-.1636,0-.1888.0241-.1985.1851-.0029.05-.001.1-.001.15q0,1.3752.0009,2.75c0,.05-.001.1,0,.15.003.1114.0407.1683.1724.1662.5062-.0082,1.0126-.0033,1.5189-.0033v.0028c.5063,0,1.0125.0009,1.5188-.0005.1945,0,.2043-.01.2046-.1985.0009-1.008-.0013-2.016.0037-3.024C16.4417,7.8675,16.3863,7.8151,16.2581,7.817Z"></path><path class="cls-1" d="M5.2675,7.8877A1.7046,1.7046,0,1,0,6.9431,9.5938,1.711,1.711,0,0,0,5.2675,7.8877Z"></path><path class="cls-1" d="M10.8561,10.4645c-.2874-.5-.5736-1-.864-1.4977-.1053-.18-.22-.3556-.3327-.5317-.0378-.0591-.0974-.0748-.1222,0a3.322,3.322,0,0,1-.3211.5895c-.3809.6657-.7664,1.329-1.1507,1.9928-.0776.1342-.04.2056.1167.206.4786.0014,2.4205.0022,2.9128.0008.1406,0,.1669-.0442.099-.167C11.0838,10.8581,10.97,10.6615,10.8561,10.4645Z"></path><path class="cls-1" d="M12.4171.3156a9.998,9.998,0,0,0-4.836,19.4023L7.58,19.7171A9.9977,9.9977,0,1,0,12.4171.3156ZM5.1807,11.8126A2.2189,2.2189,0,1,1,7.4625,9.5944,2.2313,2.2313,0,0,1,5.1807,11.8126Zm6.8459-.0748q-.3967.0021-.7935.003c-.5336,0-3.1245,0-3.8862,0-.2622,0-.28-.0207-.1519-.2441.339-.5912.6862-1.1776,1.0274-1.7675.3529-.61.7016-1.2229,1.0541-1.8333.0887-.1535.1883-.3006.2768-.4542.0539-.0936.0932-.0807.1411.0019.1984.3421.3986.6831.597,1.0252.4286.7392.86,1.477,1.2831,2.2192.1755.3077.3708.604.5241.9248C12.144,11.708,12.1205,11.7373,12.0266,11.7378Zm4.948-.1858c0,.1911-.0224.2147-.2242.2165-.3054.0026-.611,0-.9165,0q-1.5184-.0006-3.0369-.0008c-.2933,0-.2968-.0008-.2973-.29q-.003-1.9965-.0022-3.9928c0-.185.0309-.2179.2158-.2118,1.0256.0335,2.0515.0078,3.0772.013.305.0016.61-.0075.9148-.0133.2129-.0041.2673.046.2676.2577q.0008,1.0124,0,2.0247h.0019Q16.9749,10.5533,16.9746,11.552Z"></path></svg> 