<?xml version="1.0" encoding="UTF-8"?> <svg xmlns="http://www.w3.org/2000/svg" id="Layer_1" data-name="Layer 1" width="20" height="20" viewBox="0 0 20 20"><defs><style>.cls-1{fill:#6b11c9;fill-rule:evenodd;}</style></defs><title>Artboard 1 copy 113</title><path class="cls-1" d="M12.4171.3156a9.998,9.998,0,0,0-4.836,19.4023L7.58,19.7171A9.9977,9.9977,0,1,0,12.4171.3156Zm2.0557,7.6311c-.1636.34-.3211.6852-.4536,1.0384-.0773.2061-.197.248-.4.2469-1.7491-.01-3.4985.0018-5.2474-.0188-.3349-.004-.4248.1016-.4029.4113.0244.3437.0124.69.02,1.0349.005.24.1063.3315.3694.3289,1.4593-.0147,2.9189-.007,4.3785-.0062.3625,0,.357-.0012.2055.3366-.1449.3235-.2918.6477-.4092.9816a.3842.3842,0,0,1-.4363.2943c-1.1127-.0136-2.2256-.006-3.3835-.006a2.5582,2.5582,0,0,0,.8108.9332A7.2252,7.2252,0,0,0,13.05,14.9111c.2859.042.5756.0588.8635.0873a5.6033,5.6033,0,0,1-2.0359,1.32,10.16,10.16,0,0,1-2.2819-.6023,5.5136,5.5136,0,0,1-3.0351-2.898.3478.3478,0,0,0-.3841-.2324c-.5454.0109-1.0912-.0019-1.6366.0066-.2206.0034-.3153-.032-.2-.2773.1753-.3714.3346-.7513.48-1.1354a.2819.2819,0,0,1,.3279-.2023c.2333.01.4676-.0024.7012.0039.1429.0037.1989-.0469.1874-.1952a9.0024,9.0024,0,0,1-.0127-1.368c.0134-.179-.0724-.1991-.2166-.1977-.5107.0052-1.0215.0021-1.5824.0021.2237-.5212.4347-1.0074.64-1.4959.0533-.1267.1565-.102.2527-.1026a3.0451,3.0451,0,0,0,1.1542-.037c.3107-.1422.3329-.6373.5218-.9594a6.2689,6.2689,0,0,1,4.0185-2.9037c.0425-.0113.0833-.0287.1246-.0432a5.8047,5.8047,0,0,1,2.2768,1.07c-.4965.1128-.9995.203-1.4884.3429A5.398,5.398,0,0,0,8.9133,6.7888c-.1473.1792-.2609.3862-.3907.58-.1281.1908-.09.2625.1507.26.88-.0105,1.76-.0059,2.64-.0079.98-.0021,1.9611.0045,2.9412-.0135C14.5642,7.6012,14.5936,7.6952,14.4728,7.9467Z"></path></svg> 