<?xml version="1.0" encoding="UTF-8"?> <svg xmlns="http://www.w3.org/2000/svg" id="Layer_1" data-name="Layer 1" width="20" height="20" viewBox="0 0 20 20"><defs><style>.cls-1{fill:#6b11c9;fill-rule:evenodd;}</style></defs><title>Artboard 1 copy 114</title><path class="cls-1" d="M12.4171.3156a9.998,9.998,0,0,0-4.836,19.4023L7.58,19.7171A9.9977,9.9977,0,1,0,12.4171.3156Zm3.8614,8.1108-.4568.2327a.9669.9669,0,0,0-.5244.934c.01.135.0154.2715.0154.408a5.3127,5.3127,0,0,1-8.4339,4.2974L7.817,13.82l.0531-.0281a4.35,4.35,0,0,0,6.4767-3.7912A4.4056,4.4056,0,0,0,14.31,9.43L7.001,13.1536l-1.512.77-1.7676.9005V13.74l1.78-.9069.8649-.4415,9.9124-5.0471Zm0-2.1675L14.4908,7.17l-.8649.44-7.697,3.9218L5.5,11.7506l-.435.2221-1.3437.6847V11.5721l.4564-.2327a.9663.9663,0,0,0,.5249-.934q-.0153-.2013-.0154-.4043a5.3127,5.3127,0,0,1,8.4334-4.3l-.1291.0659-.8655.4409a4.3465,4.3465,0,0,0-6.4331,4.36l7.3012-3.7189,1.512-.77,1.7723-.9042Z"></path></svg> 