<?xml version="1.0" encoding="UTF-8"?> <svg xmlns="http://www.w3.org/2000/svg" id="Layer_1" data-name="Layer 1" width="20" height="20" viewBox="0 0 20 20"><defs><style>.cls-1{fill:#6b11c9;fill-rule:evenodd;}</style></defs><title>Artboard 1 copy 115</title><path class="cls-1" d="M14.6782,8.2484a.81.81,0,1,0-.9722-.6062L11.7946,8.729a3.9291,3.9291,0,0,0-1.5511-.7373V5.5831a.7608.7608,0,1,0-.4372-.0055V8.0352a3.8153,3.8153,0,0,0-.8953.4205,1.6974,1.6974,0,0,0-.7646.202L6.35,7.6256a.8045.8045,0,0,0-1.3326-.77l-.0038.0036a.8057.8057,0,0,0,1.1016,1.176l1.6223.9284a1.7081,1.7081,0,0,0-.1858,2.1955l-1.4254.8247a.8114.8114,0,1,0,.2346.4041l1.5237-.8793a1.6957,1.6957,0,0,0,1.3982.3441,3.7745,3.7745,0,0,0,.47.18v2.2938a.8641.8641,0,0,0-.5078.4314.8459.8459,0,0,0,.3769,1.136.5871.5871,0,0,0,.1037.0437c.0056,0,.011.0054.0164.0054a.8465.8465,0,1,0,.5023-1.6167v-2.25a4.1042,4.1042,0,0,0,.6007-.0983,1.4253,1.4253,0,0,0,1.5455-.322l1.2781.7482a.8054.8054,0,0,0,1.48.59h0a.8.8,0,0,0-1.2289-.9994l-1.2508-.7264a1.4244,1.4244,0,0,0-.4805-1.8023,2.1015,2.1015,0,0,0-.1366-.35l1.89-1.07A.8138.8138,0,0,0,14.6782,8.2484Zm-.1909-1.1253a.3387.3387,0,1,1-.2949.5025.3338.3338,0,0,1-.0437-.1638A.3386.3386,0,0,1,14.4873,7.1231Zm-8.63.4861a.3363.3363,0,1,1-.1256-.4587A.3331.3331,0,0,1,5.8577,7.6092ZM5.574,12.9069a.3387.3387,0,0,1,0-.6773h0a.344.344,0,0,1,.2949.1692.3711.3711,0,0,1,.0437.1694A.3386.3386,0,0,1,5.574,12.9069Zm8.88-.661a.36.36,0,0,1,.1693.0492.3343.3343,0,0,1,.1257.4588.3515.3515,0,0,1-.295.1693h-.0091a.3387.3387,0,0,1,.0091-.6773ZM9.6809,4.8621a.3387.3387,0,1,1,.3386.3387A.3386.3386,0,0,1,9.6809,4.8621Zm.6718,10.3439a.3565.3565,0,0,1-.35.2894.3528.3528,0,0,1-.1037-.0218.3457.3457,0,0,1-.2185-.355h0l.0055-.011a.3368.3368,0,0,1,.6663.0984Zm1.83-4.5381c0,.0273-.0054.0545-.0054.0819-.0054.0218-.0054.0436-.0109.0655v.0164a.7557.7557,0,0,1-.0437.1474.7872.7872,0,0,1-.3.366c-.0328.0164-.06.0327-.0928.0491l-.0164.0055a.7336.7336,0,0,1-.0984.0382.8942.8942,0,0,1-.1038.0218l-.0273.0055c-.0382,0-.071.0054-.1092.0054a.8.8,0,0,1-.4915-.1692l-.1475.0654a.6206.6206,0,0,1-.142.0492h-.0054a1.4082,1.4082,0,0,1-1.01-.1038H9.5719c-.0328-.0164-.0656-.0327-.0929-.0491l-.0109-.0055c-.0328-.0218-.06-.0436-.0928-.0655a1.0009,1.0009,0,0,1-.4206.0874.8408.8408,0,0,1-.12-.0055l-.0218-.0054-.0983-.0164-.0109-.0055A.7306.7306,0,0,1,8.6,11.2194a1.167,1.167,0,0,1-.2512-.12.9653.9653,0,0,1-.3715-.4369c0-.0109-.0054-.0164-.0109-.0273a.56.56,0,0,0-.0219-.0546.28.28,0,0,1-.0164-.0382.1727.1727,0,0,1-.0164-.0492.158.158,0,0,0-.0109-.0492c-.0054-.0163-.0054-.0219-.0109-.0437s-.0054-.0436-.0109-.0655c0-.0163-.0054-.0273-.0054-.0382a.6543.6543,0,0,1-.0055-.1037.9591.9591,0,0,1,.0055-.1257c0-.0164.0054-.0273.0054-.0382.0055-.0327.011-.06.0165-.0873.0054-.011.0054-.0273.0108-.0383a.5356.5356,0,0,1,.0274-.0873c.0054-.0109.0054-.0164.0108-.0273A.7856.7856,0,0,1,7.9879,9.69l.0059-.0111a1.0919,1.0919,0,0,1,.2291-.2949A1.0809,1.0809,0,0,1,8.9,9.1a.1709.1709,0,0,1,.0547-.0054,1.2112,1.2112,0,0,1,.1966.0164c.0273-.0328.0546-.06.0874-.0929l.0272-.0272a1.1723,1.1723,0,0,1,.0929-.0765l.0165-.011c.0218-.0163.06-.0437.0764-.0545a.364.364,0,0,1,.06-.0382.2545.2545,0,0,0,.0547-.0274,1.1584,1.1584,0,0,1,.12-.0545l.0273-.0219a1.35,1.35,0,0,1,.6881-.082h.0055a1.0967,1.0967,0,0,1,.1311.022h.0055A1.0559,1.0559,0,0,1,10.67,8.68l.0054.0054c.0436.0164.0819.0328.12.0492l.0109.0054a1.0026,1.0026,0,0,1,.1092.0547l.0055.0054a1.0729,1.0729,0,0,1,.1038.0655l.0054.0055a.7092.7092,0,0,1,.1038.0765l.0055.0054c.0382.0328.0655.06.0983.0929a1.4479,1.4479,0,0,1,.3113.4914v.0055c.0109.0327.0219.071.0328.1038,0,.0109.0054.0218.0054.0328a.6711.6711,0,0,1,.0218.0873c.0056.0437.011.0819.0165.1256l0,0A.8018.8018,0,0,1,12.1823,10.6679Z"></path><path class="cls-1" d="M12.4171.3156a9.998,9.998,0,0,0-4.836,19.4023L7.58,19.7171A9.9977,9.9977,0,1,0,12.4171.3156Zm2.54,11.3569a1.0709,1.0709,0,0,1,.3716,1.4255,1.0564,1.0564,0,0,1-1.4365.4042,1.2169,1.2169,0,0,1-.1365-.0929l-2.72,1.5674a1.3256,1.3256,0,0,1,.0109.1529.9419.9419,0,0,1-.0109.1748,1.0536,1.0536,0,0,1-2.0808-.3331L6.2185,13.3929c-.0437.0328-.0874.06-.1311.0874a1.0542,1.0542,0,1,1-.9229-1.89V8.4339a.67.67,0,0,1-.142-.0655c-.0437-.0273-.0819-.0546-.12-.0819l-.019-.0145A1.0558,1.0558,0,1,1,6.1856,6.61l2.7635-1.6a1.2549,1.2549,0,0,1-.0109-.142,1.0724,1.0724,0,0,1,1.065-1.06,1.0545,1.0545,0,0,1,1.0539,1.054,1.2356,1.2356,0,0,1-.0109.142l2.7854,1.6111a.9014.9014,0,0,1,.12-.0765,1.0562,1.0562,0,1,1,1.0269,1.8461c-.0492.0218-.0983.0491-.1475.0655v3.1622A.8929.8929,0,0,1,14.9567,11.6725Z"></path></svg> 