<?xml version="1.0" encoding="UTF-8"?> <svg xmlns="http://www.w3.org/2000/svg" id="Layer_1" data-name="Layer 1" width="20" height="20" viewBox="0 0 20 20"><defs><style>.cls-1{fill:#6b11c9;fill-rule:evenodd;}</style></defs><title>Artboard 1 copy 116</title><path class="cls-1" d="M12.4171.3156a9.998,9.998,0,0,0-4.836,19.4023L7.58,19.7171A9.9977,9.9977,0,1,0,12.4171.3156ZM16.0737,11.363a.8945.8945,0,0,1-.4115.7556l-5.4,3.4694a.3764.3764,0,0,1-.1959.057v0a.3652.3652,0,0,1-.1991-.0587L4.1732,11.92a.0111.0111,0,0,1,0-.0147l.2424-.3771a.0111.0111,0,0,1,.0147,0l5.6336,3.6284h.0116l5.339-3.4306a.4243.4243,0,0,0,.196-.3585v-.8446a.0116.0116,0,0,0-.0116-.01l-.005.0012-5.3923,3.4342a.368.368,0,0,1-.3949,0L4.3576,10.4809a.9238.9238,0,0,1-.4335-.7832V8.5161A.3663.3663,0,0,1,4.0274,8.26l.0182-.0148L4.15,8.1738,9.9308,4.4066l.006-.0036a.3678.3678,0,0,1,.38.0091l5.5881,3.56a.3687.3687,0,0,1,0,.6227l-5.6359,3.5585a.3705.3705,0,0,1-.3918,0L4.41,8.711a.0111.0111,0,0,0-.0148.0037L4.3937,8.72v.977a.4567.4567,0,0,0,.2118.3871l5.3936,3.4281h.0116l5.5012-3.51a.3669.3669,0,0,1,.4435.0365.3813.3813,0,0,1,.1183.2871Z"></path><path class="cls-1" d="M4.7494,8.3667l5.317,3.35h.0116l5.4241-3.4263a.01.01,0,0,0,.0035-.0139l0-.0007-.0031-.0031L10.1278,4.8479h-.0116l-5.3668,3.5a.0111.0111,0,0,0-.0022.0154l0,.0005Z"></path></svg> 