<?xml version="1.0" encoding="UTF-8"?> <svg xmlns="http://www.w3.org/2000/svg" id="Layer_1" data-name="Layer 1" width="20" height="20" viewBox="0 0 20 20"><defs><style>.cls-1{fill:#6b11c9;fill-rule:evenodd;}</style></defs><title>Artboard 1 copy 117</title><path class="cls-1" d="M11.32,11.9156c-.2764,0-.5116.0005-.7466,0-.06,0-.1409.0083-.1472-.0706-.0078-.1.0818-.0894.1473-.09.2309-.0019.4619-.0075.6923.002a.1691.1691,0,0,0,.2-.15c.0207-.0993.0391-.1992.0545-.2994.0151-.0973-.03-.1357-.1273-.1259-.1551.0157-.3106.0269-.466.04-.79.0647-1.5811.1271-2.3712.1953-.2546.022-.259.031-.1639.2712a1.4675,1.4675,0,0,0,1.2414.9563A1.6667,1.6667,0,0,0,11.32,11.9156Z"></path><path class="cls-1" d="M12.4171.3156a9.998,9.998,0,0,0-4.836,19.4023L7.58,19.7171A9.9977,9.9977,0,1,0,12.4171.3156Zm3.7583,8.3661h-.9706l-.0176-.05.8524-.463Q16.1074,8.4253,16.1754,8.6817Zm-.2227-.7693c-.4818.2179-.9329.4942-1.4027.735-.0943.0483-.0657.1212-.0534.1926a.1313.1313,0,0,0,.1495.1284c.1557-.0059.312.003.4679-.0023a9.4568,9.4568,0,0,0,1.1154-.0241l.0547.4429c-.556-.0005-1.112-.0049-1.6678.0011-.1344.0014-.1887-.0385-.2109-.1755a5.2013,5.2013,0,0,0-.143-.57c-.0614-.2184-.0137-.3373.2031-.4016a12.8148,12.8148,0,0,1,1.4083-.5319ZM15.76,7.429a6.1374,6.1374,0,0,1-.8986.2431l-.0044.0047-.0078.0036-.0105.0157.0017-.0117.0088-.004.0044-.0065.0078-.0018a9.1981,9.1981,0,0,1,.68-.6966Zm-.3675-.6967c-.2756.2691-.5546.5347-.8248.8092-.0859.0874-.1815.1288-.2549.0327-.0679-.0888-.1668-.2018-.0308-.3346.2951-.2882.5813-.5855.8711-.8792A1.5355,1.5355,0,0,1,15.3925,6.7323Zm-.4077-.6c-.2923.2915-.5847.5828-.8885.8858-.0522-.1245-.0984-.2348-.16-.3821l-.2892.7591c-.1013-.12-.19-.2269-.2814-.3316-.0606-.0694-.0073-.11.035-.1522q.6062-.602,1.2133-1.2027A2.1259,2.1259,0,0,1,14.9848,6.1319ZM14.4368,5.5a3.1342,3.1342,0,0,0-.4872.4565c-.2535.2448-.5036.4937-.7464.749-.1461.1537-.1891-.0228-.27-.0717-.1-.06-.0692-.1189.0016-.19.4019-.4025.8-.8091,1.1992-1.2142Zm-1.0877-.8439c-.2654.2583-.5309.5167-.82.798.0752-.3978.242-.7371.2986-1.1052A3.49,3.49,0,0,1,13.3491,4.6557Zm-1.8262-.7738a1.6567,1.6567,0,0,1,.5353.1607l-.4827.9268L11.5229,4.96Zm-.2806-.0713c-.001.55,0,1.1007-.0043,1.6509-.0008.1043.0274.16.1395.1829.09.0183.1486.0262.1982-.07.2486-.4822.5029-.9613.7553-1.4414a.6483.6483,0,0,1,.2484.1118c-.1511.5-.2993,1-.4553,1.4985a.3056.3056,0,0,0,.04.3416c.0724-.0162.1461.02.2185-.0545.4-.4112.8095-.8132,1.2156-1.2184l.3271.2457c-.4047.4074-.8111.8133-1.213,1.2235-.0724.0737-.13.1057-.218.0259-.0983-.0891-.2425-.1123-.3294-.2205l0,.0009a5.4717,5.4717,0,0,0-1.2-.4153c-.1146-.02-.1-.1085-.1-.1895q0-.8639-.0009-1.7277Zm-.668-.1305q.0021.8988.0041,1.7974c0,.0268,0,.075-.0086.0773a2.348,2.348,0,0,1-.4908-.0025c-.0911.0037-.0694-.0844-.07-.1407q-.0045-.8658-.0058-1.7315Zm-.8563,0c.0015.5749-.0049,1.15.0086,1.7245.0052.22-.1544.1638-.2606.1837-.1567.0295-.1073-.102-.108-.1757C9.3539,5,9.3566,4.5871,9.356,4.1745c0-.1648-.0032-.33-.0049-.4944ZM8.3917,3.9V5.1184L7.8344,4.0777A2.2871,2.2871,0,0,1,8.3917,3.9Zm-.8406.284q.3921.7208.7837,1.4419c.0448.0829.08.1395.2.1052.1122-.0321.1549-.0751.1537-.1919-.0054-.5683-.0039-1.1366-.0049-1.7049a1.2125,1.2125,0,0,1,.3875-.0682c0,.57-.0036,1.1408.0016,1.7111.0013.127-.0245.1865-.1657.2179a3.7572,3.7572,0,0,0-.8408.3007c-.0571.028-.1171.0745-.15-.0426-.1572-.5678-.3584-1.1228-.4937-1.697C7.4505,4.2049,7.5048,4.201,7.5511,4.1836Zm-.4037.19c.1135.3859.2272.7718.3427,1.1641-.3049-.2894-.5974-.567-.89-.8447A2.596,2.596,0,0,1,7.1474,4.3739Zm-.789.46a.8281.8281,0,0,0,.2363.2731c.3563.3606.7167.7172,1.0742,1.0741-.0155.0213-.021.0361-.0316.0426-.3416.2075-.2125.2321-.5011-.0416-.3777-.3581-.7184-.754-1.1188-1.0886Zm-.5234.4332c.39.3968.7767.7974,1.1732,1.1877.1047.1029.0987.1576-.0066.2524-.2931.2642-.29.27-.5753-.018q-.5021-.5061-1.0012-1.015A2.11,2.11,0,0,1,5.835,5.2671Zm-.606.6156q.58.5853,1.16,1.1707a.2424.2424,0,0,1-.0537.393c-.0824.0467-.1078-.0338-.1446-.07-.3523-.3483-.7009-.7-1.0517-1.05-.0519-.0517-.0943-.1178-.1745-.1329Zm-.4078.5259c.3733.3752.7379.76,1.1237,1.1213.16.15.2173.2741.0674.4521a.8933.8933,0,0,0-.07.1189L4.586,6.7736A1.7208,1.7208,0,0,1,4.8212,6.4086Zm-.3771.6022.8606.8028L5.25,7.887,4.173,7.5839Q4.3086,7.2974,4.4441,7.0108Zm-.3612.8263c.5172.16,1.0325.3266,1.5528.4758.1531.0439.2084.0939.1357.2486a2.7325,2.7325,0,0,0-.1048.3129L4.0259,7.99Zm-.1478.4411q.5079.2627,1.016.5251l-.011.0445H3.8A3.386,3.386,0,0,1,3.9351,8.2782Zm-.2515.9063c.09.0448.046-.0553.0783-.0729.549.0015,1.0981.0013,1.6472.006.1071.0009.1958-.0091.2214-.1366a.235.235,0,0,1,.0036.0581c-.0657.3551-.066.3558-.4259.3549q-.7623-.0018-1.5246-.0056Zm0,.4894c.5485.0016,1.0972.01,1.6455.0011.1663-.0027.2041.0509.1963.2079-.0181.3672-.0106.3683-.3792.3674q-.7313-.0018-1.4626-.0056Zm0,1.1416V10.53q.8357.0026,1.6713.0051a.2458.2458,0,0,1,.2383.3144c-.0278.0877-.1018.0511-.1543.0514-.5571.0037-1.1143.0031-1.6714.0037C3.7352,10.879,3.7779,10.7829,3.6836,10.8155Zm.2928,1.0708h.6807l.0122.0436q-.2839.1455-.568.2913Zm.4674,1.1.5983-.1758.0336.0409a3.2278,3.2278,0,0,1-.4479.43Zm.3353.558c.2949-.29.5883-.5815.8855-.8691a.1485.1485,0,0,0,.022-.214.1462.1462,0,0,0-.1977-.0811c-.387.1233-.776.24-1.1643.36l-.1171-.2516c.34-.1815.6793-.3651,1.0213-.5429a.15.15,0,0,0,.0954-.2038.1562.1562,0,0,0-.1825-.1386c-.4129.0051-.826.0049-1.2391.0066l-.0958-.4233c.569,0,1.1379.0024,1.7068,0,.0957-.0005.166.0073.1977.1187a5.3816,5.3816,0,0,0,.5694,1.2288c.043.0737.0749.1318-.0062.21-.4037.39-.8016.787-1.2015,1.1813Zm.4879.6125c.3908-.393.7832-.7846,1.1714-1.18.0769-.0784.1239-.0893.2081-.0009.295.31.2979.3051.0019.6039-.3283.3313-.6542.6648-.9812.9973A2.66,2.66,0,0,1,5.267,14.1567Zm.61.608q.594-.6,1.1879-1.1992c.1549-.1567.2256.0335.3167.0877.1194.0709-.0061.1244-.0465.1659-.3878.3982-.78.7923-1.1709,1.1878Zm1.6436.4486L7.517,15.22l-.0036.0033a2.6347,2.6347,0,0,1-.1214.52l-.3164-.1385c.1766-.092.27-.2794.4378-.3817l.001-.0063.0059-.0038.005-.0106.0125-.001Zm.8752.8861-.2485-.0725.2207-.45A1.79,1.79,0,0,1,8.3955,16.0994Zm.7078.138a1.33,1.33,0,0,1-.42-.0745c.0005-.3513-.0022-.7025.003-1.0537.0015-.0993-.0337-.1541-.13-.1682-.07-.01-.1435-.0454-.1922.05-.1614.3183-.3529.6211-.4909.9517l-.2361-.0815c.1084-.347.2154-.6946.326-1.0409.0327-.1025-.0053-.1578-.092-.2132-.0916-.0587-.1431-.0276-.2067.0382-.267.2766-.5374.55-.8065.8245a2.0891,2.0891,0,0,1-.46-.2974c.3823-.4414.8206-.8282,1.2229-1.25.0818-.0857.1445-.03.2146.0087a4.2631,4.2631,0,0,0,1.0979.4205c.1368.0316.1735.0838.1721.2153C9.0994,15.124,9.1031,15.6807,9.1033,16.2374Zm.2885.0824q-.0027-.8633-.0051-1.7264c0-.04-.002-.1089.0144-.1147a1.3961,1.3961,0,0,1,.4931.0113c.098.0009.0626.1041.0631.1641.0039.5553.0041,1.1105.0054,1.6657Zm.675-3.22c.0046.3177-.0435.6357-.05.9539-.0031.152-.0463.1962-.1993.1855a4.1725,4.1725,0,0,1-3.43-2.0236,4.0959,4.0959,0,0,1-.6227-2.1808c-.0008-.0837-.0287-.1812.0713-.237a1.1518,1.1518,0,0,1,.0865-.9154c.0368-.0635.0788-.1238.1182-.1855-.0786-.062-.0155-.1256.0066-.179A4.1314,4.1314,0,0,1,9.49,5.8385c.1805-.0257.3646-.0272.5472-.0359.0674-.0031.1484-.0053.1352.0993A16.9907,16.9907,0,0,1,9.92,7.7227a3.1383,3.1383,0,0,0,.7276-.0426,12.3858,12.3858,0,0,1,1.99-.0251c.1474.0128.2937.0378.46.06-.1556.102-.34.1034-.4776.23a1.3023,1.3023,0,0,0,.5561.1968.7185.7185,0,0,1,.58.6524c.0344.1572.063.4184.1723.4193.1451.0012.117-.2627.2173-.3965L14.15,8.816a.0529.0529,0,0,0-.0071.0156,3.0544,3.0544,0,0,1-.2268.9392,1.0125,1.0125,0,0,1-.9508.7225,5.3615,5.3615,0,0,1-1.8485-.1355,2.216,2.216,0,0,1-1.2154-.8506l-.2718.5942c.142.0026.2843.0116.4259.0053.123-.0055.1717.0347.16.1627-.0177.1957-.0131.3936-.035.5886-.0172.1523.0051.2247.1856.2056.3841-.04.7707-.0559,1.155-.0939.17-.0167.1992.05.2077.2051a1.7137,1.7137,0,0,1-1.4,1.6392C10.1521,12.8449,10.0637,12.8932,10.0668,13.1Zm.1813,3.22c-.0019-.5686,0-1.1373-.0077-1.7059-.0028-.2106.1625-.137.26-.1622.1351-.0351.11.0785.11.154.0015.4065.0005.8129.001,1.2193,0,.165.0023.33.0036.4948Zm1.3645-.2207v-.5459a2.066,2.066,0,0,1,.275.4733Zm1.09-.3953-.1426-.5455.451.4006Zm.5279-.2817c-.2644-.2708-.53-.5409-.7925-.8131-.0611-.0634-.1109-.1048-.2062-.0448a.17.17,0,0,0-.09.2308c.1112.34.212.684.3169,1.0263l-.2926.1028c-.1662-.3109-.3356-.62-.4967-.9334a.1645.1645,0,0,0-.2129-.0942c-.1082.0232-.1366.0832-.1349.1876.0054.36.0027.7191.003,1.0786a1.3284,1.3284,0,0,1-.43.0748c0-.5619.0028-1.1237-.0017-1.6855-.001-.1187.0238-.1737.1563-.2033a5.43,5.43,0,0,0,1.1352-.4286c.071-.0339.1249-.0589.1951.0134.4053.4172.8157.8294,1.2246,1.2432A1.43,1.43,0,0,1,13.23,15.4221Zm.6212-.4287c-.4044-.4-.8076-.8018-1.2143-1.2-.0742-.0728-.0612-.1093.0169-.1708.3514-.2768.3484-.2787.6691.04s.6458.6375.9688.9561A2.4333,2.4333,0,0,1,13.8514,14.9934Zm.6418-.5723c-.4-.3949-.7976-.7916-1.2-1.184-.1526-.1487.0351-.1876.0812-.2687.0614-.1078.1232-.0572.1883.0088q.5852.593,1.1747,1.1816Q14.6154,14.29,14.4932,14.4211Zm.8907-1.1474q-.2235-.2137-.4466-.4275l.0215-.0382.6044.1778Zm.5264-1.07-.5637-.2968.0084-.0612h.6829Q15.9742,12.0246,15.91,12.2035Zm.2007-.6376c-.4143-.0009-.8285,0-1.2428-.0036-.1017-.0009-.1807.003-.2129.13-.0337.1327.0334.179.1322.2315.3409.1813.6783.37,1.0171.5553q-.0612.1293-.1221.2587c-.3873-.12-.7759-.237-1.1613-.3636-.1439-.0474-.1651.0832-.2379.1388-.0493.0376-.0376.0774.0033.1187a11.4754,11.4754,0,0,0,.9658.8893l-.321.4079c-.4094-.4042-.8175-.81-1.23-1.2114-.0631-.0615-.0536-.1-.0076-.1664a4.3163,4.3163,0,0,0,.5967-1.2366c.0328-.1116.09-.1414.2021-.14.569.0056,1.138.0023,1.7071.002A1.6283,1.6283,0,0,1,16.111,11.5659Zm.1308-.6715c-.55-.0008-1.1-.0069-1.65.0009-.16.0022-.1928-.0365-.1609-.1962.0751-.3769.0656-.3783.45-.3789q.7131-.0015,1.4261-.0047A2.7229,2.7229,0,0,1,16.2418,10.8944Zm-1.5691-.8539c-.1833.0043-.1842-.0822-.1938-.2172-.0113-.1569.0723-.1567.1845-.1566.5478.0007,1.0958-.0029,1.6437-.0049l.0093.3764C15.7684,10.0373,15.22,10.0277,14.6727,10.0405Z"></path></svg> 