<?xml version="1.0" encoding="UTF-8"?> <svg xmlns="http://www.w3.org/2000/svg" id="Layer_1" data-name="Layer 1" width="20" height="20" viewBox="0 0 20 20"><defs><style>.cls-1{fill:#6b11c9;fill-rule:evenodd;}</style></defs><title>Artboard 1 copy 109</title><path class="cls-1" d="M12.4171.3156a9.998,9.998,0,0,0-4.836,19.4023L7.58,19.7171A9.9977,9.9977,0,1,0,12.4171.3156Zm-8.53,5.4386a.0662.0662,0,0,1,.0211-.0476.0648.0648,0,0,1,.0555-.0211H6.67a2.2957,2.2957,0,0,1,1.7681.8378l.6581.8034L7.814,8.8886,6.8414,7.6967a.4036.4036,0,0,0-.3172-.148H3.9633a.0851.0851,0,0,1-.0555-.0211A.0662.0662,0,0,1,3.8867,7.48ZM16.1127,7.48a.0742.0742,0,0,1-.0158.0476.0555.0555,0,0,1-.05.0211H13.4857a.4031.4031,0,0,0-.3172.148l-1.887,2.2967,1.895,2.3125a.4012.4012,0,0,0,.3065.1375h2.561a.0591.0591,0,0,1,.05.0211.0847.0847,0,0,1,.0158.0555v1.7258a.0736.0736,0,0,1-.0158.0476.0553.0553,0,0,1-.05.0211H13.3482a2.2764,2.2764,0,0,1-1.7681-.8378l-1.57-1.9161L8.44,13.4767a2.2961,2.2961,0,0,1-1.7761.8378H3.9633a.059.059,0,0,1-.05-.0211.0723.0723,0,0,1-.0159-.0555V12.512a.0736.0736,0,0,1,.0159-.0475.055.055,0,0,1,.05-.0211H6.5242a.4209.4209,0,0,0,.3172-.148L8.6941,10.033l2.8781-3.5177a2.3049,2.3049,0,0,1,1.776-.83h2.6984a.0681.0681,0,0,1,.05.0158.0615.0615,0,0,1,.0158.0529Z"></path></svg> 