<?xml version="1.0" encoding="UTF-8"?> <svg xmlns="http://www.w3.org/2000/svg" id="Layer_1" data-name="Layer 1" width="20" height="20" viewBox="0 0 20 20"><defs><style>.cls-1{fill:#6b11c9;fill-rule:evenodd;}</style></defs><title>Artboard 1 copy 119</title><path class="cls-1" d="M12.4171.3156a9.998,9.998,0,0,0-4.836,19.4023L7.58,19.7171A9.9977,9.9977,0,1,0,12.4171.3156Zm3.9121,9.9823L10.0661,16.299a.0955.0955,0,0,1-.1323,0l-6.263-6.0015a.0944.0944,0,0,1-.02-.11L5.97,5.3163a.0935.0935,0,0,1,.0861-.0543H13.945a.0936.0936,0,0,1,.0854.0547l2.319,4.8711A.0943.0943,0,0,1,16.3292,10.2979Z"></path><path class="cls-1" d="M10.8046,9.2165v0l0,0h0V8.2476h2.2182V6.7694H6.9835V8.2476H9.2014v.9689c-1.8027.0828-3.1584.44-3.1584.8678s1.3557.7846,3.1584.8678v3.1063h1.6029V10.951c1.7986-.0828,3.1519-.44,3.1519-.8671S12.6041,9.3,10.8046,9.2165Zm-.0014,1.4707.0014,0c-.0449.0033-.2772.0172-.7954.0172-.4122,0-.7048-.0123-.8075-.0172-1.5928-.07-2.7818-.3474-2.7818-.6793s1.189-.6089,2.7818-.68v1.0833c.1042.0074.4024.025.8146.025.4946,0,.7423-.0206.7869-.0247V9.3289c1.5894.0708,2.7757.3481,2.7757.6794S12.393,10.6168,10.8032,10.6872Z"></path></svg> 