<?xml version="1.0" encoding="UTF-8"?> <svg xmlns="http://www.w3.org/2000/svg" id="Layer_1" data-name="Layer 1" width="20" height="20" viewBox="0 0 20 20"><defs><style>.cls-1{fill:#6b11c9;fill-rule:evenodd;}</style></defs><title>Artboard 1 copy 148</title><path class="cls-1" d="M14.15,5.5472c-.4689.0295-.9365.0968-1.4055.106-.5128.01-1.0248.04-1.5375.0456-1.2228.0128-2.4454.0166-3.668-.0355C6.99,5.64,6.4431,5.614,5.8984,5.5411c-.2865-.0382-.4975.1183-.4786.371a13.0422,13.0422,0,0,1,.0264,1.3056.3984.3984,0,0,0,.5269.4245A17.0359,17.0359,0,0,1,8.4016,7.344c.5112-.02.5051-.02.5459.4895q.1082,1.3524.11,2.7086c.0025,1.1186-.0322,2.2359-.1407,3.3506-.0434.446-.1141.8879-.1621,1.333-.0178.1662.0377.2157.2007.207a15.8823,15.8823,0,0,1,1.8321-.0094c.5064.0315.496.0135.4177-.4871a22.398,22.398,0,0,1-.244-3.0091c-.0027-.1311.041-.167.1657-.1595a6.7244,6.7244,0,0,1,1.0767.1593c.5353.121.54.123.5367-.4245a9.0756,9.0756,0,0,0-.0431-1.4362,13.9988,13.9988,0,0,1-1.5816.2476c-.1377.0031-.1576-.0364-.1628-.1568-.025-.5734.0186-1.1448.0482-1.716a8.2018,8.2018,0,0,1,.0946-.9888c.0172-.0989.0447-.1412.1557-.141a13.4383,13.4383,0,0,1,1.6284.1322c.3982.0493.7924.1319,1.1911.1742a.38.38,0,0,0,.4637-.4328c-.0169-.4164-.01-.8317.0058-1.2477A.3377.3377,0,0,0,14.15,5.5472Z"></path><path class="cls-1" d="M12.4171.3157a9.9979,9.9979,0,0,0-4.836,19.4022L7.58,19.7171A9.9976,9.9976,0,1,0,12.4171.3157Zm3.0147,6.9789a2.9032,2.9032,0,0,1-.02,1.1021.2743.2743,0,0,1-.1781.1977,2.1461,2.1461,0,0,1-1.1692-.0029c-.4761-.0558-.9486-.1431-1.4237-.2091a.7752.7752,0,0,0-.4231.0382.3559.3559,0,0,0-.19.4258c.05.1662.1533.2206.3392.2077a5.9889,5.9889,0,0,1,.6339-.0972.557.557,0,0,1,.5741.46,1.8573,1.8573,0,0,1,.0457.4645c-.013.532-.0419,1.0645-.0283,1.5958a5.4356,5.4356,0,0,1-.04.9887c-.0866.5508-.2991.5859-.7674.5533-.1032-.0072-.2063-.0226-.3085-.04-.3936-.0661-.5226.1177-.5309.4765a9.0294,9.0294,0,0,0,.2058,1.8164,2.3429,2.3429,0,0,1,.06.5215.5021.5021,0,0,1-.5494.5489,7.1083,7.1083,0,0,1-1.1093-.0543,8.5994,8.5994,0,0,0-1.5557.0345,2.0044,2.0044,0,0,1-1.019-.0722.2464.2464,0,0,1-.14-.1339,1.2693,1.2693,0,0,1-.0118-.8426A19.5894,19.5894,0,0,0,8.17,12.1221c.0248-.6506.0378-1.301.0159-1.95A7.587,7.587,0,0,0,8.094,8.8132a.5092.5092,0,0,0-.5908-.48,8.4354,8.4354,0,0,0-1.331.1733c-.2817.048-.56.1317-.8428.1539-.5085.04-.6857-.0865-.7558-.6007a7.8984,7.8984,0,0,1-.0067-.9575A7.6692,7.6692,0,0,0,4.4611,5.59a2.7212,2.7212,0,0,1-.0069-.5842.48.48,0,0,1,.4436-.4124,2.5159,2.5159,0,0,1,.7756.0145q1.0536.1356,2.1132.1914c.87.0442,1.74.0882,2.6094.06a31.1236,31.1236,0,0,0,3.8072-.2558,3.1234,3.1234,0,0,1,.7576-.0469c.4623.0414.6071.1679.5968.6436-.0068.3094-.0831.617-.1209.9263A6.09,6.09,0,0,0,15.4318,7.2946Z"></path></svg> 