<?xml version="1.0" encoding="UTF-8"?> <svg xmlns="http://www.w3.org/2000/svg" id="Layer_1" data-name="Layer 1" width="20" height="20" viewBox="0 0 20 20"><defs><style>.cls-1{fill:#6b11c9;fill-rule:evenodd;}</style></defs><title>Artboard 1 copy 122</title><path class="cls-1" d="M10.9255,12.98c-.2941-.0353-.4279-.0871-.4279-.2126,0-.1145.1444-.1745.3162-.1745a.3733.3733,0,0,1,.3734.218.07.07,0,0,0,.0737.0491v0h.3005c.0408,0,.0518-.0246.0435-.0627a.7163.7163,0,0,0-.7716-.5645c-.466,0-.7633.2479-.7633.5943s.2616.4554.6378.5045c.3272.0411.4908.071.4908.2373,0,.1388-.1554.2043-.3327.2043a.3729.3729,0,0,1-.3817-.2318.0675.0675,0,0,0-.071-.0463h-.3c-.0381,0-.0573.0137-.0518.0518a.7.7,0,0,0,.7716.5833c.4468,0,.7959-.21.7959-.608C11.6289,13.168,11.3728,13.0315,10.9255,12.98Z"></path><path class="cls-1" d="M12.741,12.2544H12a.0514.0514,0,0,0-.049.0518v1.75a.0514.0514,0,0,0,.049.0518h.7414a.9283.9283,0,1,0,0-1.8539Zm0,1.4856v0H12.43a.049.049,0,0,1-.0491-.049V12.6738a.0513.0513,0,0,1,.0491-.0518h.3079a.56.56,0,0,1,.0027,1.118Z"></path><path class="cls-1" d="M6.2775,12.2544a.0539.0539,0,0,0-.0518.0518v.2671a.0512.0512,0,0,0,.0518.049h.488a.0515.0515,0,0,1,.049.0519v1.3823a.0515.0515,0,0,0,.049.0518h.33a.0515.0515,0,0,0,.049-.0518V12.6742a.0537.0537,0,0,1,.0518-.0519H7.78a.0513.0513,0,0,0,.0517-.049v-.2671a.0536.0536,0,0,0-.0517-.0518Z"></path><path class="cls-1" d="M9.38,12.2544a.0514.0514,0,0,0-.049.0518v.9568c0,.2754-.1416.4715-.3872.4715s-.3871-.1961-.3871-.4715v-.9568a.0536.0536,0,0,0-.0518-.0518H8.1773a.0514.0514,0,0,0-.049.0518V13.25a.8178.8178,0,1,0,1.63,0v-.9434a.0536.0536,0,0,0-.0518-.0518Z"></path><path class="cls-1" d="M12.4171.3156a9.998,9.998,0,0,0-4.836,19.4023L7.58,19.7171A9.9977,9.9977,0,1,0,12.4171.3156Zm2.7268,14.0053a.8254.8254,0,0,1-.823.823H5.6791a.8254.8254,0,0,1-.8231-.823V5.679a.8255.8255,0,0,1,.8231-.823h8.6418a.8254.8254,0,0,1,.823.823Z"></path><path class="cls-1" d="M14.3209,4.9932H5.6791a.6879.6879,0,0,0-.6859.6858v5.4184a.1375.1375,0,0,0,.1372.1371H14.87a.1376.1376,0,0,0,.1372-.1371V5.679A.6879.6879,0,0,0,14.3209,4.9932ZM12.1262,7.1386a.1033.1033,0,0,1-.1029.1029H10.608v2.7777a.1032.1032,0,0,1-.1029.1029H9.6135a.1033.1033,0,0,1-.1029-.1029V7.2415H7.9767a.1031.1031,0,0,1-.1028-.1029V6.247a.1031.1031,0,0,1,.1028-.1029h4.0466a.1033.1033,0,0,1,.1029.1029Z"></path></svg> 