<?xml version="1.0" encoding="UTF-8"?> <svg xmlns="http://www.w3.org/2000/svg" id="Layer_1" data-name="Layer 1" width="20" height="20" viewBox="0 0 20 20"><defs><style>.cls-1{fill:#6b11c9;fill-rule:evenodd;}</style></defs><title>Artboard 1 copy 123</title><path class="cls-1" d="M12.4171.3156a9.998,9.998,0,0,0-4.836,19.4023L7.58,19.7171A9.9977,9.9977,0,1,0,12.4171.3156Zm2.5122,7.0038a32.0384,32.0384,0,0,1-.58,4.83,3.3655,3.3655,0,0,1-1.63,2.1495,19.8247,19.8247,0,0,0-2.5072,1.4744c-.1347.1034-.23.1007-.3993-.0051-.8228-.513-1.6653-.9949-2.5068-1.4774a3.3244,3.3244,0,0,1-1.5859-2.048c-.6142-2.02-.4447-4.1036-.65-6.1553-.028-.2806.0315-.41.3617-.418a8.3671,8.3671,0,0,0,4.36-1.4277.32.32,0,0,1,.4355-.0094,8.1442,8.1442,0,0,0,4.35,1.4389c.2832.0072.3675.1012.3558.3725C14.9159,6.4681,14.9293,6.894,14.9293,7.3194Z"></path></svg> 