<?xml version="1.0" encoding="UTF-8"?> <svg xmlns="http://www.w3.org/2000/svg" id="Layer_1" data-name="Layer 1" width="20" height="20" viewBox="0 0 20 20"><defs><style>.cls-1{fill:#6b11c9;fill-rule:evenodd;}</style></defs><title>Artboard 1 copy 125</title><path class="cls-1" d="M9.5054,8.0939h.992a.2637.2637,0,0,0,.2286-.132l.6015-1.0411-1.2-.6546V6.2657a.2638.2638,0,0,0-.2528,0l-1.2.6545.6015,1.0417A.2641.2641,0,0,0,9.5054,8.0939Z"></path><path class="cls-1" d="M8.8954,10.8352l-.4863-.8425a.264.264,0,0,0-.2286-.132H7.2421a7.3747,7.3747,0,0,0,1.0693,2.25l.584-1.0111A.264.264,0,0,0,8.8954,10.8352Z"></path><path class="cls-1" d="M8.4091,9.2885l.4857-.8424a.264.264,0,0,0,0-.2641l-.606-1.05-1.1833.6456a.264.264,0,0,0-.1371.2375,7.4077,7.4077,0,0,0,.1642,1.4057H8.18A.2658.2658,0,0,0,8.4091,9.2885Z"></path><path class="cls-1" d="M9.5054,8.5341a.2643.2643,0,0,0-.2291.132l-.4858.8425a.264.264,0,0,0,0,.2641l.4858.8424a.2643.2643,0,0,0,.2291.1321h.992a.2643.2643,0,0,0,.2286-.1321l.4863-.8424a.264.264,0,0,0,0-.2641l-.4863-.8425a.2651.2651,0,0,0-.2286-.132Z"></path><path class="cls-1" d="M10.498,11.1873H9.5054a.2641.2641,0,0,0-.2291.1321l-.6771,1.1737A7.46,7.46,0,0,0,9.84,13.7113a.2651.2651,0,0,0,.3233,0,7.4577,7.4577,0,0,0,1.24-1.2188l-.6772-1.1731A.2638.2638,0,0,0,10.498,11.1873Z"></path><path class="cls-1" d="M12.4171.3156a9.998,9.998,0,0,0-4.836,19.4023L7.58,19.7171A9.9977,9.9977,0,1,0,12.4171.3156ZM15.3079,12.38a1.2659,1.2659,0,0,1-.6331,1.097L10.634,15.81a1.2663,1.2663,0,0,1-1.2668,0L5.3258,13.4766a1.2677,1.2677,0,0,1-.6337-1.097V7.6205A1.268,1.268,0,0,1,5.3258,6.523L9.366,4.19A1.2709,1.2709,0,0,1,10,4.02h.0012l.0005.0006a1.2646,1.2646,0,0,1,.6331.1693l4.04,2.3327a1.2667,1.2667,0,0,1,.6331,1.0975Z"></path><path class="cls-1" d="M11.5938,9.9927l-.4869.8425a.264.264,0,0,0,0,.2641l.584,1.0111a7.3777,7.3777,0,0,0,1.0687-2.25h-.9373A.2639.2639,0,0,0,11.5938,9.9927Z"></path><path class="cls-1" d="M12.8962,7.7774l-1.1828-.6456-.606,1.05a.264.264,0,0,0,0,.2641l.4864.8424a.2645.2645,0,0,0,.2285.1321H12.87a7.4324,7.4324,0,0,0,.1637-1.4062A.2641.2641,0,0,0,12.8962,7.7774Z"></path></svg> 