<?xml version="1.0" encoding="UTF-8"?> <svg xmlns="http://www.w3.org/2000/svg" id="Layer_1" data-name="Layer 1" width="20" height="20" viewBox="0 0 20 20"><defs><style>.cls-1{fill:#6b11c9;fill-rule:evenodd;}</style></defs><title>Artboard 1 copy 127</title><path class="cls-1" d="M6.431,12.8818a.0653.0653,0,0,0,.0513.064c.0577.0321.0641.0641.0192.1347s-.0449.1346.0128.1795a.1834.1834,0,0,0,.2757-.0833.2648.2648,0,0,0-.0833-.3527C6.5977,12.7535,6.431,12.7856,6.431,12.8818Z"></path><path class="cls-1" d="M9.2967,10.0545c0,.0833.1346.1731.2629.1731a.3542.3542,0,0,0,.2372-.1026.1443.1443,0,0,0-.0641-.218C9.56,9.798,9.2967,9.8878,9.2967,10.0545Z"></path><path class="cls-1" d="M12.4171.3157a9.9979,9.9979,0,0,0-4.836,19.4022L7.58,19.7171A9.9976,9.9976,0,1,0,12.4171.3157Zm.8673,7.2513c.2243.09.2628.0962.2885.09.0192-.0193.032-.0706.0384-.2309a1.3864,1.3864,0,0,1,.1154-.5513.4447.4447,0,0,1,.0577-.109c.0064,0-.0064.0449-.0256.0962a1.2235,1.2235,0,0,0-.0256.5641c.0448.2886.064.327.3718.6412.141.1474.3077.3333.3718.41l.109.141-.109-.1026a3.9008,3.9008,0,0,0-.5129-.4039c-.0448-.0256-.0512-.0256-.0833.0064-.0257.0257-.0321.0642-.0321.25a1.374,1.374,0,0,1-.141.6539c-.0513.0961-.0577.0769-.0128-.032a.9355.9355,0,0,0,.0385-.3975c0-.5578-.0642-.6924-.4552-.9168-.0962-.0577-.2629-.1411-.3591-.1859a1.417,1.417,0,0,1-.1731-.0834A2.8673,2.8673,0,0,1,13.2844,7.567ZM8.7582,6.58a2.115,2.115,0,0,1,.6026.0513,2.5915,2.5915,0,0,1,1.3207.8847l.1154.1347.1667-.0257a3.5745,3.5745,0,0,1,2.0515.2564,2.6542,2.6542,0,0,1,.4616.2693.6206.6206,0,0,1,.0448.18,1.0861,1.0861,0,0,1-.07.6988.1879.1879,0,0,0-.0192.2052.1932.1932,0,0,0,.1731.109c.1539,0,.3142-.2437.3911-.5835l.032-.1346.0578.0641A2.5256,2.5256,0,0,1,14.7076,9.92l.0129.0962-.0578-.0833a1.0821,1.0821,0,0,0-.3077-.327,1.9254,1.9254,0,0,0-1.0578-.2244,4.33,4.33,0,0,1-1.1732-.1795c-.5257-.1731-.795-.3974-1.4168-1.2245a5.8986,5.8986,0,0,0-.6219-.7309,2.1748,2.1748,0,0,0-1.25-.6346C8.7005,6.5925,8.6941,6.5861,8.7582,6.58Zm3.6286,4.8019a1.52,1.52,0,0,0-.0641-.2693l-.0321-.0961.0577.07a1.1282,1.1282,0,0,1,.2052.3719.8.8,0,0,1,.0449.359.8171.8171,0,0,1-.0449.3462,1.1586,1.1586,0,0,1-.2693.4295,1.5427,1.5427,0,0,1-.9616.4232c-.0769.0064-.2949.0256-.4873.0384a3.7615,3.7615,0,0,0-1.09.18c-.0385.0128-.0769.0256-.0833.0192a1.4488,1.4488,0,0,1,.3462-.2052,3.489,3.489,0,0,1,.9616-.2564,4.4113,4.4113,0,0,0,.5706-.1154A1.1083,1.1083,0,0,0,12.3868,11.3816Zm-3-.7373c-.1795,0-.2437-.0257-.3142-.1154a.5525.5525,0,0,1-.032-.3462.5689.5689,0,0,1,.3462-.3783.6518.6518,0,0,1,.3974.0385.4957.4957,0,0,1,.2885.4616C10.04,10.4905,9.7391,10.6443,9.3865,10.6443Zm-.68-3.7761.0641.0128a1.5038,1.5038,0,0,1,.41.1539c.2564.1539.3719.3654.4809.8911.032.1539.0769.3334.0961.3911a2.3118,2.3118,0,0,0,.2565.4616c.0705.1026.0256.1538-.1347.141a1.3132,1.3132,0,0,1-.7821-.5385,2.2649,2.2649,0,0,1-.4039-1.3784ZM6.8669,14.6c-.2307.0513-.2436.0513-.2436,0a1.4907,1.4907,0,0,0-.2372-.468,2.1409,2.1409,0,0,1-.3077-.6026,1.6033,1.6033,0,0,1-.0833-.6283,1.0843,1.0843,0,0,1,.1281-.5129,2.64,2.64,0,0,1,.404-.5706A2.6821,2.6821,0,0,0,7.258,10.343a1.4266,1.4266,0,0,1,.3077-.8655c.1026-.1154.1283-.16.1283-.2436A11.2188,11.2188,0,0,0,7.04,8.003a10.3049,10.3049,0,0,1-.7565-1.3848c.0065.0064.3719.5641.8014,1.2373.5642.8783.8142,1.2437.8719,1.3015a.4628.4628,0,0,0,.3077.1345A.98.98,0,0,0,8.63,9.189c.16-.09.1988-.2115.1026-.34C8.6171,8.6954,6.3156,5.8745,4.8218,4.06c-.1218-.1539-.2244-.2757-.218-.2757.0193,0,4.1928,4.59,4.4942,4.9365l.0833.09-.0064.1474a.6024.6024,0,0,1-.218.468,1.1751,1.1751,0,0,1-.7052.2885.4779.4779,0,0,0-.3526.1475c-.0769.0833-.109.1923-.1282.4616a2.2993,2.2993,0,0,1-.2821,1.0129,1.2065,1.2065,0,0,0-.1988.7693,1.0137,1.0137,0,0,0,.5322.686,1.1509,1.1509,0,0,1,.4487.4359.5225.5225,0,0,1,.045.2693.58.58,0,0,1-.1924.4872A2.5353,2.5353,0,0,1,6.8669,14.6Zm5.9174,1.5066a.9082.9082,0,0,1-.4616.109.9256.9256,0,0,1-.7821-.4808,3.6038,3.6038,0,0,1-.2116-.4232,1.5423,1.5423,0,0,0-.6026-.8463.79.79,0,0,0-.75-.07.4827.4827,0,0,0-.1667.75.6549.6549,0,0,0,.3654.1923.3911.3911,0,0,0,.4424-.391.307.307,0,0,0-.2116-.3142c-.2051-.09-.4295.0129-.4231.2116a.1763.1763,0,0,0,.1218.1731c.0513.0257.0513.0257.0128.0193a.2378.2378,0,0,1-.0833-.4168.4613.4613,0,0,1,.686.1475.6729.6729,0,0,1,.0128.436.6.6,0,0,1-.7308.3461,1.0449,1.0449,0,0,1-.5578-.3783,1.704,1.704,0,0,0-1.263-.6475l-.1218-.0192.1346-.1282A3.4857,3.4857,0,0,1,9.79,13.6062a2.3751,2.3751,0,0,1,.8271.032,1.428,1.428,0,0,1,.8078.5193,1.9166,1.9166,0,0,1,.2949.8719c.0256.1732.0577.3527.0641.3911a.86.86,0,0,0,.2821.5065.9758.9758,0,0,0,.8847.0256.4315.4315,0,0,1,.109-.032A.9837.9837,0,0,1,12.7843,16.1065ZM14.9576,14.01a1.89,1.89,0,0,1-.93,1.231.8866.8866,0,0,1-.1346.0641.5136.5136,0,0,1,.0577-.1411,1.2722,1.2722,0,0,0,.0577-.9937,4.0844,4.0844,0,0,0-.5129-.9231,6.0968,6.0968,0,0,1-.5257-.8335,1.4962,1.4962,0,0,1-.1154-1.0385c.0129-.0321.0257-.0642.0385-.0642a.2764.2764,0,0,1,.09.0449c.077.0513.2373.1411.6476.3655a3.2753,3.2753,0,0,1,1.0193.75,1.5858,1.5858,0,0,1,.34.7758A2.5431,2.5431,0,0,1,14.9576,14.01Zm.3847-1.75a1.6071,1.6071,0,0,1-.2052.4616c-.0064,0-.0192-.0321-.0192-.0834a1.0429,1.0429,0,0,0-.3718-.7244,5.1246,5.1246,0,0,0-1.4617-.7437c-1.2694-.5129-1.7182-.9552-1.7182-1.7054,0-.1089.0064-.1987.0064-.1987a1.2074,1.2074,0,0,1,.109.0834,2.5637,2.5637,0,0,0,1.3464.41,5.5874,5.5874,0,0,1,.9808.2051,1.8729,1.8729,0,0,1,1.3719,1.4938A2.5915,2.5915,0,0,1,15.3423,12.26Z"></path></svg> 