<?xml version="1.0" encoding="UTF-8"?> <svg xmlns="http://www.w3.org/2000/svg" id="Layer_1" data-name="Layer 1" width="20" height="20" viewBox="0 0 20 20"><defs><style>.cls-1{fill:#6b11c9;fill-rule:evenodd;}</style></defs><title>Artboard 1 copy 135</title><path class="cls-1" d="M11.2322,8.9659c0-.8482-1.2729-.7206-1.6773-.7206V9.6811C9.9593,9.6811,11.2322,9.78,11.2322,8.9659Z"></path><path class="cls-1" d="M12.4171.3157a9.9979,9.9979,0,0,0-4.836,19.4022L7.58,19.7171A9.9976,9.9976,0,1,0,12.4171.3157Zm1.8821,5.0119-.4071.4071a5.7635,5.7635,0,0,0-7.7788,0l-.4166-.4071A6.3456,6.3456,0,0,1,14.2992,5.3276ZM9.53,12.8471v1.1793H8.8139V12.83h-1.44l.1357-.8563s.5306.0081.5211,0a.2556.2556,0,0,0,.2714-.2375V8.5113a.37.37,0,0,0-.4071-.3149c.0081-.01-.5211,0-.5211,0V7.43H8.8275V6.2517h.7111V7.4h.5727V6.2517h.7165v1.17c.9269.0869,1.66.3719,1.7412,1.2214a1.1079,1.1079,0,0,1-.6161,1.2064,1.22,1.22,0,0,1,1.0286,1.4833c-.1058,1.1332-.95,1.4318-2.1605,1.505V14.021h-.7179V12.8471ZM5.3249,5.7076l.4071.4071a5.7635,5.7635,0,0,0,0,7.7747l-.4071.4206A6.3454,6.3454,0,0,1,5.3249,5.7076Zm.3759,8.9648.4071-.4071a5.7636,5.7636,0,0,0,7.7787,0l.4167.4071A6.3458,6.3458,0,0,1,5.7008,14.6724Zm8.9744-.38-.4072-.4071a5.7635,5.7635,0,0,0,0-7.7788l.4072-.4071V5.69A6.3458,6.3458,0,0,1,14.6752,14.2924Z"></path><path class="cls-1" d="M11.5647,11.1915c0-.93-1.5253-.79-2.0112-.7912v1.58C10.0394,11.98,11.5647,12.0818,11.5647,11.1915Z"></path></svg> 