<?xml version="1.0" encoding="UTF-8"?> <svg xmlns="http://www.w3.org/2000/svg" id="Layer_1" data-name="Layer 1" width="20" height="20" viewBox="0 0 20 20"><defs><style>.cls-1{fill:#6b11c9;fill-rule:evenodd;}</style></defs><title>Artboard 1 copy 137</title><path class="cls-1" d="M12.4171.3157a9.9979,9.9979,0,0,0-4.836,19.4022L7.58,19.7171A9.9976,9.9976,0,1,0,12.4171.3157Zm-2.399,16.0919A3.19,3.19,0,0,1,6.6969,13.249a2.5238,2.5238,0,0,1,.2166-1.1733l-1.0288.3429-.343-.7942,2.7436-1.0108.7039,2.69-.7942.2527-.3971-1.3a2.5862,2.5862,0,0,0-.2166.9747A2.2977,2.2977,0,0,0,10,15.4871a2.2534,2.2534,0,0,0,.9927-4.2778v-.9747a3.2011,3.2011,0,0,1,2.1841,3.0144A3.1506,3.1506,0,0,1,10.0181,16.4076Zm-.4874-2.3284V5.9208h.9386v8.1584Zm2.184-4.6929-.7039-2.6894.7941-.2527.3972,1.3a2.5882,2.5882,0,0,0,.2165-.9747A2.2976,2.2976,0,0,0,10,4.5129a2.2534,2.2534,0,0,0-.9927,4.2777v.9747A3.2006,3.2006,0,0,1,6.8233,6.751,3.1506,3.1506,0,0,1,9.9819,3.5923,3.19,3.19,0,0,1,13.3031,6.751a2.5238,2.5238,0,0,1-.2166,1.1733l1.0288-.343.343.7942Z"></path></svg> 