<?xml version="1.0" encoding="UTF-8"?> <svg xmlns="http://www.w3.org/2000/svg" id="Layer_1" data-name="Layer 1" width="20" height="20" viewBox="0 0 20 20"><defs><style>.cls-1{fill:#6b11c9;fill-rule:evenodd;}</style></defs><title>Artboard 1 copy 139</title><path class="cls-1" d="M11.1919,6.3508V4.9319H9.4609V6.3963H7.5092v1.731h3.3286c-.3117.354-.578.62-.8442.932-.7112.7988-1.3769,1.5977-2.0427,2.3966-.2239.2662-.5325.5325-.5779.7988A7.0752,7.0752,0,0,0,7.3276,13.94h2.13v1.4192h1.7763V13.8948h2.0426V12.1639H9.815c.3087-.3117.5749-.62.8412-.9322.7111-.7988,1.3769-1.5977,2.0426-2.3966.2239-.2663.5326-.5326.578-.7989a7.08,7.08,0,0,0,.0454-1.6854Z"></path><path class="cls-1" d="M12.4171.3157a9.9979,9.9979,0,0,0-4.836,19.4022L7.58,19.7171A9.9976,9.9976,0,1,0,12.4171.3157ZM10,16.2124A6.2124,6.2124,0,1,1,16.2124,10,6.2313,6.2313,0,0,1,10,16.2124Z"></path></svg> 